<svg width="500" height="500" viewBox="0 0 500 500" fill="none" xmlns="http://www.w3.org/2000/svg">
<rect width="500" height="500" fill="#FF4F00"/>
<mask id="mask0_82_4813" style="mask-type:alpha" maskUnits="userSpaceOnUse" x="0" y="0" width="500" height="500">
<rect width="500" height="500" fill="#BECDBD"/>
</mask>
<g mask="url(#mask0_82_4813)">
<path d="M354.243 367.695C339.725 367.695 327.957 387.075 327.957 410.985L327.957 410.576C327.957 434.486 316.189 453.866 301.672 453.866C287.154 453.866 275.386 434.486 275.386 410.576L275.386 530.291C275.386 506.382 287.154 487.002 301.672 487.002C316.189 487.002 327.957 506.382 327.957 530.291L327.957 530.7C327.957 554.61 334.465 573.99 354.243 573.99C374.021 573.99 380.528 554.61 380.528 530.7L380.528 530.291C380.528 506.382 388.528 487.002 398.398 487.002C407.506 487.002 415.022 503.528 416.123 524.889L416.123 530.7C416.123 554.61 415.703 573.99 433.993 573.99C452.282 573.99 451.863 554.61 451.863 530.7L451.863 522.61C452.611 502.371 456.268 487.009 460.673 487.009C465.078 487.009 469.006 503.542 469.553 524.896L469.553 530.707C469.553 554.617 469.553 573.997 478.502 573.997C487.45 573.997 487.45 554.617 487.45 530.707L487.45 530.298C487.45 506.388 488.849 487.009 490.574 487.009C492.167 487.009 493.483 503.535 493.67 524.889L493.67 530.7C493.67 554.61 492.791 573.99 496.794 573.99C500.797 573.99 499.918 554.61 499.918 530.7L499.918 410.985C499.918 387.075 499.918 367.695 496.794 367.695C493.67 367.695 493.67 387.075 493.67 410.985L493.67 415.986C493.476 437.34 492.167 453.866 490.574 453.866C488.849 453.866 487.45 434.486 487.45 410.576L487.45 410.985C487.45 387.075 487.45 367.695 478.502 367.695C469.553 367.695 469.553 387.075 469.553 410.985L469.553 415.986C469.006 437.34 465.238 453.873 460.673 453.873C456.109 453.873 452.618 438.51 451.863 418.271L451.863 410.992C451.863 387.082 452.282 367.702 433.993 367.702C415.703 367.702 416.123 387.082 416.123 410.992L416.123 415.993C415.022 437.347 407.513 453.88 398.398 453.88C388.528 453.88 380.528 434.5 380.528 410.59L380.528 410.999C380.528 387.089 368.76 367.709 354.243 367.709C339.725 367.709 368.76 367.695 354.243 367.695Z" fill="#121212"/>
<path d="M28.6627 416.796L28.6627 410.985C28.6627 387.075 28.6626 367.695 19.7138 367.695C10.765 367.695 10.765 387.075 10.765 410.985L10.765 411.394C10.765 435.304 9.36583 454.683 7.64117 454.683C6.04811 454.683 4.7321 438.157 4.54509 416.803L4.54509 410.992C4.54509 387.082 4.54509 367.702 1.4213 367.702C-1.70248 367.702 -1.70248 387.082 -1.70248 410.992L-1.70248 530.7C-1.7094 554.61 -1.71632 573.99 1.41439 573.99C4.54509 573.99 4.53817 554.61 4.53817 530.7L4.53817 525.699C4.73211 504.345 6.04119 487.819 7.63425 487.819C9.35891 487.819 10.758 507.199 10.758 531.109L10.758 530.7C10.758 554.61 10.7511 573.99 19.7069 573.99C28.6627 573.99 28.6557 554.61 28.6557 530.7L28.6557 525.699C29.2029 504.345 32.9708 487.812 37.5353 487.812C42.0998 487.812 45.5907 503.175 46.3456 523.414L46.3456 530.693C46.3456 554.61 45.9237 573.992 64.2156 573.99C82.5051 573.987 82.0856 554.61 82.0856 530.7L82.0856 525.699C83.1869 504.345 90.6951 487.812 99.8102 487.812C109.68 487.812 117.68 507.192 117.68 531.102L117.68 530.693C117.68 554.603 124.188 573.983 143.966 573.983C163.744 573.983 170.251 554.603 170.251 530.693L170.251 531.102C170.251 507.192 182.019 487.812 196.537 487.812C211.054 487.812 222.822 507.192 222.822 531.102L222.822 530.693C222.822 554.603 229.33 573.983 249.108 573.983C268.886 573.983 275.393 554.603 275.393 530.693L275.393 410.978C275.393 387.068 268.886 367.688 249.108 367.688C229.33 367.688 222.822 387.068 222.822 410.978L222.822 411.387C222.822 435.297 211.054 454.677 196.537 454.677C182.019 454.677 170.251 435.297 170.251 411.387L170.251 410.978C170.251 387.068 163.744 367.688 143.966 367.688C124.188 367.688 117.68 387.068 117.68 410.978L117.68 411.387C117.68 435.297 109.68 454.677 99.8102 454.677C90.702 454.677 83.1869 438.15 82.0856 416.789L82.0856 410.978C82.0856 387.068 82.5051 367.688 64.2156 367.688C45.9262 367.688 46.3456 387.068 46.3456 410.978L46.3456 419.068C45.5976 439.307 41.9405 454.67 37.5353 454.67C33.1302 454.67 29.2098 438.143 28.6557 416.782L28.6627 416.796Z" fill="#121212"/>
<path d="M354.243 147.265C339.725 147.265 327.957 166.645 327.957 190.555L327.957 190.146C327.957 214.056 316.189 233.436 301.672 233.436C287.154 233.436 275.386 214.056 275.386 190.146L275.386 309.861C275.386 285.952 287.154 266.572 301.672 266.572C316.189 266.572 327.957 285.952 327.957 309.861L327.957 310.27C327.957 334.18 334.465 353.56 354.243 353.56C374.021 353.56 380.528 334.18 380.528 310.27L380.528 309.861C380.528 285.952 388.528 266.572 398.398 266.572C407.506 266.572 415.022 283.098 416.123 304.459L416.123 310.27C416.123 334.18 415.703 353.56 433.993 353.56C452.282 353.56 451.863 334.18 451.863 310.27L451.863 302.18C452.611 281.941 456.268 266.579 460.673 266.579C465.078 266.579 469.006 283.112 469.553 304.466L469.553 310.277C469.553 334.187 469.553 353.567 478.502 353.567C487.45 353.567 487.45 334.187 487.45 310.277L487.45 309.868C487.45 285.958 488.849 266.579 490.574 266.579C492.167 266.579 493.483 283.105 493.67 304.459L493.67 310.27C493.67 334.18 492.791 353.56 496.794 353.56C500.797 353.56 499.918 334.18 499.918 310.27L499.918 190.555C499.918 166.645 499.918 147.265 496.794 147.265C493.67 147.265 493.67 166.645 493.67 190.555L493.67 195.556C493.476 216.91 492.167 233.436 490.574 233.436C488.849 233.436 487.45 214.056 487.45 190.146L487.45 190.555C487.45 166.645 487.45 147.265 478.502 147.265C469.553 147.265 469.553 166.645 469.553 190.555L469.553 195.556C469.006 216.91 465.238 233.443 460.673 233.443C456.109 233.443 452.618 218.08 451.863 197.841L451.863 190.562C451.863 166.652 452.282 147.272 433.993 147.272C415.703 147.272 416.123 166.652 416.123 190.562L416.123 195.563C415.022 216.917 407.513 233.45 398.398 233.45C388.528 233.45 380.528 214.07 380.528 190.16L380.528 190.569C380.528 166.659 368.76 147.279 354.243 147.279C339.725 147.279 368.76 147.265 354.243 147.265Z" fill="#121212"/>
<path d="M28.6627 196.366L28.6627 190.555C28.6627 166.645 28.6626 147.265 19.7138 147.265C10.765 147.265 10.765 166.645 10.765 190.555L10.765 190.964C10.765 214.873 9.36583 234.253 7.64117 234.253C6.04811 234.253 4.7321 217.727 4.54509 196.373L4.54509 190.562C4.54509 166.652 4.54509 147.272 1.4213 147.272C-1.70248 147.272 -1.70248 166.652 -1.70248 190.562L-1.70248 310.27C-1.7094 334.18 -1.71632 353.56 1.41439 353.56C4.54509 353.56 4.53817 334.18 4.53817 310.27L4.53817 305.269C4.73211 283.915 6.04119 267.389 7.63425 267.389C9.35891 267.389 10.758 286.769 10.758 310.679L10.758 310.27C10.758 334.18 10.7511 353.56 19.7069 353.56C28.6627 353.56 28.6557 334.18 28.6557 310.27L28.6557 305.269C29.2029 283.915 32.9708 267.382 37.5353 267.382C42.0998 267.382 45.5907 282.745 46.3456 302.983L46.3456 310.263C46.3456 334.18 45.9237 353.562 64.2156 353.56C82.5051 353.557 82.0856 334.18 82.0856 310.27L82.0856 305.269C83.1869 283.915 90.6951 267.382 99.8102 267.382C109.68 267.382 117.68 286.762 117.68 310.672L117.68 310.263C117.68 334.173 124.188 353.553 143.966 353.553C163.744 353.553 170.251 334.173 170.251 310.263L170.251 310.672C170.251 286.762 182.019 267.382 196.537 267.382C211.054 267.382 222.822 286.762 222.822 310.672L222.822 310.263C222.822 334.173 229.33 353.553 249.108 353.553C268.886 353.553 275.393 334.173 275.393 310.263L275.393 190.548C275.393 166.638 268.886 147.258 249.108 147.258C229.33 147.258 222.822 166.638 222.822 190.548L222.822 190.957C222.822 214.866 211.054 234.246 196.537 234.246C182.019 234.246 170.251 214.866 170.251 190.957L170.251 190.548C170.251 166.638 163.744 147.258 143.966 147.258C124.188 147.258 117.68 166.638 117.68 190.548L117.68 190.957C117.68 214.866 109.68 234.246 99.8102 234.246C90.702 234.246 83.1869 217.72 82.0856 196.359L82.0856 190.548C82.0856 166.638 82.5051 147.258 64.2156 147.258C45.9262 147.258 46.3456 166.638 46.3456 190.548L46.3456 198.638C45.5976 218.877 41.9405 234.239 37.5353 234.239C33.1302 234.239 29.2098 217.713 28.6557 196.352L28.6627 196.366Z" fill="#121212"/>
<path d="M354.243 -72.9931C339.725 -72.9931 327.957 -53.6131 327.957 -29.7034L327.957 -30.112C327.957 -6.20224 316.189 13.1777 301.672 13.1777C287.154 13.1777 275.386 -6.20224 275.386 -30.112L275.386 89.6031C275.386 65.6933 287.154 46.3134 301.672 46.3134C316.189 46.3134 327.957 65.6933 327.957 89.6031L327.957 90.0117C327.957 113.921 334.465 133.301 354.243 133.301C374.021 133.301 380.528 113.921 380.528 90.0117L380.528 89.6031C380.528 65.6933 388.528 46.3133 398.398 46.3133C407.506 46.3133 415.022 62.8396 416.123 84.2005L416.123 90.0117C416.123 113.921 415.703 133.301 433.993 133.301C452.282 133.301 451.863 113.921 451.863 90.0117L451.863 81.9217C452.611 61.6829 456.268 46.3203 460.673 46.3203C465.078 46.3203 469.006 62.8535 469.553 84.2074L469.553 90.0186C469.553 113.928 469.553 133.308 478.502 133.308C487.45 133.308 487.45 113.928 487.45 90.0186L487.45 89.61C487.45 65.7002 488.849 46.3203 490.574 46.3203C492.167 46.3203 493.483 62.8465 493.67 84.2005L493.67 90.0117C493.67 113.921 492.791 133.301 496.794 133.301C500.797 133.301 499.918 113.921 499.918 90.0117L499.918 -29.7034C499.918 -53.6131 499.918 -72.9931 496.794 -72.9931C493.67 -72.9931 493.67 -53.6131 493.67 -29.7034L493.67 -24.7025C493.476 -3.3486 492.167 13.1777 490.574 13.1777C488.849 13.1777 487.45 -6.20225 487.45 -30.112L487.45 -29.7034C487.45 -53.6131 487.45 -72.9931 478.502 -72.9931C469.553 -72.9931 469.553 -53.6131 469.553 -29.7034L469.553 -24.7025C469.006 -3.3486 465.238 13.1846 460.673 13.1846C456.109 13.1846 452.618 -2.17805 451.863 -22.4168L451.863 -29.6964C451.863 -53.6062 452.282 -72.9862 433.993 -72.9862C415.703 -72.9862 416.123 -53.6062 416.123 -29.6964L416.123 -24.6956C415.022 -3.34167 407.513 13.1915 398.398 13.1915C388.528 13.1915 380.528 -6.1884 380.528 -30.0982L380.528 -29.6895C380.528 -53.5993 368.76 -72.9792 354.243 -72.9792C339.725 -72.9792 368.76 -72.9931 354.243 -72.9931Z" fill="#121212"/>
<path d="M28.6627 -23.8921L28.6627 -29.7033C28.6627 -53.6131 28.6626 -72.993 19.7138 -72.993C10.765 -72.993 10.765 -53.6131 10.765 -29.7033L10.765 -29.2947C10.765 -5.38492 9.36583 13.995 7.64117 13.995C6.04811 13.995 4.7321 -2.53125 4.54509 -23.8852L4.54509 -29.6964C4.54509 -53.6062 4.54509 -72.9861 1.4213 -72.9861C-1.70248 -72.9861 -1.70248 -53.6062 -1.70248 -29.6964L-1.70248 90.0117C-1.7094 113.922 -1.71632 133.301 1.41439 133.301C4.54509 133.301 4.53817 113.922 4.53817 90.0117L4.53817 85.0109C4.73211 63.657 6.04119 47.1307 7.63425 47.1307C9.35891 47.1307 10.758 66.5106 10.758 90.4204L10.758 90.0117C10.758 113.922 10.7511 133.301 19.7069 133.301C28.6627 133.301 28.6557 113.922 28.6557 90.0117L28.6557 85.0109C29.2029 63.657 32.9708 47.1238 37.5353 47.1238C42.0998 47.1238 45.5907 62.4864 46.3456 82.7252L46.3456 90.0048C46.3456 113.922 45.9237 133.304 64.2156 133.301C82.5051 133.299 82.0856 113.922 82.0856 90.0117L82.0856 85.0109C83.1869 63.657 90.6951 47.1238 99.8102 47.1238C109.68 47.1238 117.68 66.5037 117.68 90.4135L117.68 90.0048C117.68 113.915 124.188 133.295 143.966 133.295C163.744 133.295 170.251 113.915 170.251 90.0048L170.251 90.4135C170.251 66.5037 182.019 47.1238 196.537 47.1238C211.054 47.1238 222.822 66.5037 222.822 90.4135L222.822 90.0048C222.822 113.915 229.33 133.295 249.108 133.295C268.886 133.295 275.393 113.915 275.393 90.0048L275.393 -29.7103C275.393 -53.6201 268.886 -73 249.108 -73C229.33 -73 222.822 -53.6201 222.822 -29.7103L222.822 -29.3016C222.822 -5.39184 211.054 13.9881 196.537 13.9881C182.019 13.9881 170.251 -5.39184 170.251 -29.3016L170.251 -29.7103C170.251 -53.62 163.744 -73 143.966 -73C124.188 -73 117.68 -53.62 117.68 -29.7103L117.68 -29.3016C117.68 -5.39184 109.68 13.9881 99.8102 13.9881C90.702 13.9881 83.1869 -2.5382 82.0856 -23.8991L82.0856 -29.7103C82.0856 -53.62 82.5051 -73 64.2156 -73C45.9262 -73 46.3456 -53.62 46.3456 -29.7103L46.3456 -21.6203C45.5976 -1.38149 41.9405 13.9812 37.5353 13.9812C33.1302 13.9812 29.2098 -2.54511 28.6557 -23.906L28.6627 -23.8921Z" fill="#121212"/>
<circle cx="354" cy="173" r="14" fill="#DBE2E9"/>
<circle cx="144" cy="399" r="14" fill="#DBE2E9"/>
<ellipse cx="64" cy="332" rx="12" ry="14" fill="#DBE2E9"/>
<ellipse cx="435" cy="112" rx="12" ry="14" fill="#DBE2E9"/>
</g>
</svg>
