<svg width="500" height="500" viewBox="0 0 500 500" fill="none" xmlns="http://www.w3.org/2000/svg">
<rect width="500" height="500" fill="#FF4F00"/>
<rect width="250" height="250" fill="#F3F3F3"/>
<rect x="250" y="250" width="250" height="250" fill="#121212"/>
<rect x="250" width="250" height="250" fill="#FFA300"/>
<path d="M205.32 34.5169C194.957 63.6597 161.666 77.4504 133.724 64.1701C89.3597 43.0836 43.0786 89.3647 64.1701 133.724C77.4504 161.661 63.6597 194.952 34.5169 205.32C13.0752 212.946 1.57123 231.085 0 250H250V0C231.085 1.57623 212.946 13.0752 205.32 34.5169Z" fill="#121212"/>
<path d="M294.645 34.685C305 63.805 338.265 77.585 366.185 64.315C410.515 43.245 456.76 89.49 435.685 133.815C422.415 161.73 436.195 194.995 465.315 205.355C486.74 212.975 498.235 231.1 499.805 250L500 250L500 0L250 -1.09716e-05L250 0.194989C268.9 1.76999 287.025 13.26 294.645 34.685Z" fill="#121212"/>
<path d="M205.355 465.315C195 436.195 161.735 422.415 133.815 435.685C89.485 456.755 43.24 410.51 64.315 366.185C77.585 338.27 63.805 305.005 34.685 294.645C13.26 287.025 1.76499 268.9 0.194989 250L-1.09278e-05 250L0 500L250 500L250 499.805C231.1 498.23 212.975 486.74 205.355 465.315Z" fill="#121212"/>
<path d="M437.5 376H500C500 306.413 444.035 250 375 250C305.965 250 250 306.413 250 376H312.5C312.5 410.796 340.48 439 375 439C409.52 439 437.5 410.796 437.5 376Z" fill="#F3F3F3"/>
</svg>
