<svg width="500" height="500" viewBox="0 0 500 500" fill="none" xmlns="http://www.w3.org/2000/svg">
<g clip-path="url(#clip0_82_4887)">
<rect width="500" height="500" transform="translate(2.18557e-05 500) rotate(-90)" fill="#121212"/>
<path fill-rule="evenodd" clip-rule="evenodd" d="M9.22273e-05 286.408L9.10602e-05 313.107L0.000113408 500L427.185 500L427.185 286.471L427.185 286.408C427.185 169.785 332.643 75.2427 216.02 75.2427L0.000101458 75.2427L9.22273e-05 286.408Z" fill="#FF4F00"/>
<ellipse cx="211.165" cy="286.408" rx="148.058" ry="148.058" fill="#DBE2E9"/>
<path fill-rule="evenodd" clip-rule="evenodd" d="M251.376 376.519C235.652 376.064 223.714 376.519 223.714 371.128C223.714 366.505 236.503 366.033 253.044 365.69C271.605 365.69 291.262 366.505 291.262 360.206C291.262 354.722 279.483 354.722 260.922 354.722C258.65 354.722 257.731 351.625 259.541 350.251C278.815 335.624 291.262 312.47 291.262 286.408C291.262 242.171 255.401 206.311 211.165 206.311C166.929 206.311 131.068 242.171 131.068 286.408C131.068 312.469 143.515 335.623 162.788 350.25C164.599 351.625 163.682 354.721 161.408 354.722C142.99 354.747 131.068 354.701 131.068 360.206C131.068 366.505 150.096 365.69 168.656 365.69C185.197 366.033 197.986 366.505 197.986 371.128C197.986 376.519 186.048 376.064 170.325 376.519C151.764 376.519 131.068 376.519 131.068 387.462C131.068 398.404 150.096 398.404 168.656 398.404C185.197 399.09 197.986 398.317 197.986 409.259C197.986 420.201 183.107 420.145 164.683 420.201C146.123 420.201 131.068 423.571 131.068 436.3C131.068 449.029 145.954 452.321 164.371 452.403L164.683 452.403C183.107 452.485 197.986 459.664 197.986 468.502C197.986 477.34 183.107 484.518 164.683 484.6L164.371 484.6C145.954 484.682 131.068 491.81 131.068 500.699C131.068 509.588 146.123 516.797 164.683 516.797L165.001 516.797C183.568 516.797 198.616 524.002 198.616 532.896C198.616 541.79 183.568 548.994 165.001 548.994L164.683 548.994C146.123 548.994 131.068 556.209 131.068 565.098C131.068 573.987 146.123 581.196 164.683 581.196L165.001 581.196C183.568 581.196 198.616 586.091 198.616 592.139C198.616 597.71 185.827 602.308 169.286 602.994L164.683 602.994C146.123 602.994 131.068 607.894 131.068 613.936C131.068 619.978 146.123 624.878 164.683 624.878L170.954 624.878C186.678 625.334 198.616 627.474 198.616 630.27C198.616 633.066 185.827 635.365 169.286 635.708L164.683 635.708C146.123 635.708 131.068 638.166 131.068 641.192C131.068 644.218 146.123 646.676 164.683 646.676L165.001 646.676C183.568 646.676 198.616 647.531 198.616 648.586C198.616 649.564 185.827 650.368 169.286 650.485L253.674 650.485C237.133 650.368 224.344 649.564 224.344 648.586C224.344 647.536 239.223 646.686 257.647 646.676L257.959 646.676C276.376 646.65 291.262 644.218 291.262 641.192C291.262 638.166 276.208 635.708 257.647 635.708L253.674 635.708C237.133 635.365 224.344 632.963 224.344 630.27C224.344 627.577 236.282 625.334 252.006 624.878L257.647 624.878C276.208 624.878 291.262 619.983 291.262 613.936C291.262 607.889 276.208 602.994 257.647 602.994L253.674 602.994C237.133 602.308 224.344 597.71 224.344 592.139C224.344 586.127 239.223 581.253 257.647 581.196L257.959 581.196C276.376 581.114 291.262 573.941 291.262 565.098C291.262 556.255 276.376 549.076 257.959 548.994L257.647 548.994C239.223 548.912 224.344 541.734 224.344 532.896C224.344 524.058 239.223 516.879 257.647 516.797L257.959 516.797C276.376 516.715 291.262 509.588 291.262 500.699C291.262 491.81 276.208 484.6 257.647 484.6L257.329 484.6C238.762 484.6 223.714 477.396 223.714 468.502C223.714 459.608 238.762 452.403 257.329 452.403L257.647 452.403C276.208 452.403 291.262 447.816 291.262 436.3C291.262 424.784 276.208 420.201 257.647 420.201L257.329 420.201C238.762 420.201 223.714 420.201 223.714 409.259C223.714 398.317 236.503 399.09 253.044 398.404L257.647 398.404C276.208 398.404 291.262 398.404 291.262 387.462C291.262 376.519 276.208 376.519 257.647 376.519L251.376 376.519Z" fill="#121212"/>
</g>
<defs>
<clipPath id="clip0_82_4887">
<rect width="500" height="500" fill="white" transform="translate(2.18557e-05 500) rotate(-90)"/>
</clipPath>
</defs>
</svg>
