<svg width="500" height="500" viewBox="0 0 500 500" fill="none" xmlns="http://www.w3.org/2000/svg">
<g clip-path="url(#clip0_82_4876)">
<rect width="500" height="500" transform="translate(2.18557e-05 500) rotate(-90)" fill="#F3F3F3"/>
<path fill-rule="evenodd" clip-rule="evenodd" d="M-114.078 250C-114.078 48.9254 48.9254 -114.078 250 -114.078C451.075 -114.078 614.078 48.9255 614.078 250C614.078 451.075 451.075 614.078 250 614.078C48.9254 614.078 -114.078 451.075 -114.078 250ZM-7.28156 250C-7.28155 107.907 107.907 -7.28148 250 -7.28147C392.093 -7.28146 507.282 107.907 507.282 250C507.282 392.093 392.093 507.282 250 507.282C107.907 507.282 -7.28157 392.093 -7.28156 250Z" fill="#121212"/>
<path fill-rule="evenodd" clip-rule="evenodd" d="M19.4175 250C19.4175 122.653 122.653 19.4175 250 19.4175C377.347 19.4176 480.583 122.653 480.583 250C480.583 377.347 377.347 480.583 250 480.583C122.653 480.583 19.4175 377.347 19.4175 250ZM46.1165 250C46.1165 137.398 137.398 46.1165 250 46.1165C362.602 46.1166 453.884 137.398 453.884 250C453.884 362.602 362.602 453.884 250 453.883C137.398 453.883 46.1165 362.602 46.1165 250Z" fill="#FF4F00"/>
<path fill-rule="evenodd" clip-rule="evenodd" d="M70.3883 251.214C70.3884 151.347 151.347 70.3883 251.214 70.3883C351.081 70.3884 432.039 151.347 432.039 251.214C432.039 351.081 351.081 432.039 251.214 432.039C151.347 432.039 70.3883 351.081 70.3883 251.214ZM97.0874 251.214C97.0874 166.092 166.092 97.0874 251.214 97.0874C336.335 97.0874 405.34 166.092 405.34 251.214C405.34 336.335 336.335 405.34 251.214 405.34C166.092 405.34 97.0874 336.335 97.0874 251.214Z" fill="#FFA300"/>
<path fill-rule="evenodd" clip-rule="evenodd" d="M123.786 250C123.786 179.256 180.537 121.359 251.213 121.359C321.89 121.359 378.641 179.256 378.641 250C378.641 320.744 321.89 378.641 251.213 378.641C180.537 378.641 123.786 320.744 123.786 250ZM150.485 250C150.485 193.699 195.583 148.058 251.213 148.058C306.844 148.058 351.942 193.699 351.942 250C351.942 306.301 306.844 351.942 251.213 351.942C195.583 351.942 150.485 306.301 150.485 250Z" fill="#CCC9C4"/>
<path fill-rule="evenodd" clip-rule="evenodd" d="M172.33 251.214C172.33 208.243 206.515 172.33 250 172.33C293.485 172.33 327.67 208.243 327.67 251.214C327.67 294.184 293.485 330.097 250 330.097C206.515 330.097 172.33 294.184 172.33 251.214ZM199.029 251.214C199.029 222.393 221.85 199.029 250 199.029C278.15 199.029 300.971 222.393 300.971 251.214C300.971 280.034 278.15 303.398 250 303.398C221.85 303.398 199.029 280.034 199.029 251.214Z" fill="#DBE2E9"/>
<path d="M250 203.884C250 203.884 225.728 244.315 225.728 257.564C225.728 270.813 236.595 281.553 250 281.553C263.405 281.553 274.272 270.813 274.272 257.564C274.272 244.315 250 203.884 250 203.884Z" fill="#121212"/>
<path fill-rule="evenodd" clip-rule="evenodd" d="M250.018 211.165C250.018 194.188 259.611 177.212 278.796 170.388C302.961 161.797 314.399 134.195 303.383 111.031C285.897 74.2491 324.274 35.8814 361.058 53.3602C384.225 64.369 411.83 52.9383 420.421 28.7758C427.24 9.60569 444.199 0.0137543 461.165 5.34058e-05L38.835 1.64845e-05C55.8132 1.79688e-05 72.7914 9.59198 79.6153 28.7758C88.2069 52.9383 115.812 64.375 138.978 53.3601C175.763 35.8755 214.134 74.2491 196.653 111.031C185.644 134.195 197.075 161.797 221.24 170.388C240.425 177.212 250.018 194.188 250.018 211.165Z" fill="#121212"/>
</g>
<defs>
<clipPath id="clip0_82_4876">
<rect width="500" height="500" fill="white" transform="translate(2.18557e-05 500) rotate(-90)"/>
</clipPath>
</defs>
</svg>
