<svg width="500" height="500" viewBox="0 0 500 500" fill="none" xmlns="http://www.w3.org/2000/svg">
<g clip-path="url(#clip0_82_4949)">
<rect width="500" height="500" transform="translate(500 500) rotate(180)" fill="#DBE2E9"/>
<path fill-rule="evenodd" clip-rule="evenodd" d="M500 248.787C500 199.581 485.338 151.481 457.867 110.568C430.397 69.6555 391.352 37.7679 345.671 18.9379C299.989 0.107808 249.723 -4.81899 201.228 4.78049C152.732 14.38 108.187 38.0746 73.2234 72.868C38.2603 107.661 14.4501 151.991 4.80379 200.251C1.51319 216.713 -0.0787907 233.381 0.00299541 250.003C137.776 250.65 249.338 361.132 249.996 497.573H250V248.787H500Z" fill="#121212"/>
<path d="M328.945 165.048C302.772 165.048 281.554 173.86 281.554 184.729C281.554 195.597 302.772 204.409 328.945 204.409C355.119 204.409 376.337 195.597 376.337 184.729C376.337 173.86 355.119 165.049 328.945 165.048Z" fill="#DBE2E9"/>
<path d="M330.22 172.855C323.518 172.855 318.084 178.289 318.084 184.991C318.084 191.694 323.518 197.127 330.22 197.127C336.923 197.127 342.356 191.694 342.356 184.991C342.356 178.289 336.923 172.855 330.22 172.855Z" fill="#FF4F00"/>
<path d="M2.68114e-05 432.039C38.0532 432.039 67.9612 462.337 67.9612 500" stroke="#121212" stroke-width="10"/>
<path d="M1.80078e-05 480.583C10.8724 480.583 19.4175 489.239 19.4175 500" stroke="#121212" stroke-width="10"/>
<path d="M3.77692e-05 383.495C65.234 383.495 116.505 435.434 116.505 500" stroke="#121212" stroke-width="10"/>
<path d="M5.30355e-05 334.951C92.4149 334.951 165.049 408.532 165.049 500" stroke="#121212" stroke-width="10"/>
<path d="M1.98597e-05 288.835C118.237 288.835 211.165 382.975 211.165 500" stroke="#121212" stroke-width="10"/>
<path d="M375 250C375 250 250 434.467 250 494.916C250 555.365 305.964 604.369 375 604.369C444.036 604.369 500 555.365 500 494.916C500 434.467 375 250 375 250Z" fill="#FFA300"/>
</g>
<defs>
<clipPath id="clip0_82_4949">
<rect width="500" height="500" fill="white" transform="translate(500 500) rotate(180)"/>
</clipPath>
</defs>
</svg>
