<svg width="500" height="500" viewBox="0 0 500 500" fill="none" xmlns="http://www.w3.org/2000/svg">
<g clip-path="url(#clip0_82_4894)">
<rect width="500" height="500" transform="translate(2.18557e-05 500) rotate(-90)" fill="#DBE2E9"/>
<path d="M485.003 30.2547L493.052 30.2547C527.71 30.2547 555.825 26.2735 555.825 21.348C555.825 16.4225 527.71 12.4158 493.052 12.4158L492.458 12.4158C457.8 12.4158 429.685 11.0249 429.685 9.31505C429.685 7.69449 454.396 6.36742 486.049 6.2143L493.052 6.2143C527.71 6.2143 555.825 4.82342 555.825 3.10078C555.825 1.37814 527.71 2.28882e-05 493.052 2.28882e-05L258.962 2.28882e-05C256.286 2.28882e-05 253.63 2.56144e-05 251.046 0.0127859L251.005 0.0127859C248.421 2.56144e-05 245.765 2.28882e-05 243.089 2.28882e-05L6.9476 2.28882e-05C-27.7097 2.28882e-05 -55.8252 1.3909 -55.8252 3.10078C-55.8252 4.81066 -27.7097 6.2143 6.9476 6.2143L12.7819 6.2143C44.4247 6.36742 69.1257 7.69449 69.1257 9.31505C69.1257 11.0249 41.0307 12.4158 6.35289 12.4158C-28.0378 12.4669 -55.8252 16.4481 -55.8252 21.348C-55.8252 26.248 -27.7097 30.2547 6.9476 30.2547L13.8278 30.2547C44.9784 30.7651 69.1257 34.5294 69.1257 39.1104C69.1257 43.6913 47.2342 47.0983 18.2471 47.8895L6.9476 47.8895C-27.7097 47.8895 -55.8252 55.8647 -55.8252 65.7156C-55.8252 75.5666 -27.7097 83.5163 6.9476 83.5163L14.1252 83.5163C45.1322 84.5881 69.1257 92.0784 69.1257 101.177C69.1257 111.015 41.0307 118.99 6.35289 118.99C-28.0378 119.13 -55.8252 130.806 -55.8252 145.2C-55.8252 159.593 -28.0378 171.243 6.35289 171.384C41.0307 171.384 69.1257 183.123 69.1257 197.593C69.1257 212.064 41.0307 223.79 6.35289 223.79C-28.0378 223.931 -55.8252 235.606 -55.8252 250C-55.8252 264.394 -27.7097 276.21 6.9476 276.21H7.54232C42.2099 276.21 70.3151 287.936 70.3151 302.394C70.3151 316.851 42.2099 328.604 7.54232 328.604H6.9476C-27.7097 328.604 -55.8252 340.33 -55.8252 354.8C-55.8252 369.271 -27.7097 381.01 6.9476 381.01H7.54232C42.2099 381.01 70.3151 388.985 70.3151 398.811C70.3151 407.922 46.3114 415.399 15.3043 416.484L6.9476 416.484C-27.7097 416.484 -55.8252 424.459 -55.8252 434.284C-55.8252 444.11 -27.7097 452.111 6.9476 452.111L19.416 452.111C48.4031 452.902 70.3151 456.526 70.3151 460.877C70.3151 465.458 46.1575 469.235 15.007 469.745L6.9476 469.745C-27.7097 469.745 -55.8252 473.727 -55.8252 478.652C-55.8252 483.577 -27.7097 487.584 6.9476 487.584H7.54232C42.2099 487.584 70.3151 488.975 70.3151 490.685C70.3151 492.306 45.6039 493.62 13.9509 493.786L6.9476 493.786C-27.7097 493.786 -55.8252 495.177 -55.8252 496.899C-55.8252 498.622 -27.7097 500 6.9476 500L243.089 500C245.776 500 248.442 500 251.025 500C253.62 500 256.275 500 258.962 500L493.052 500C527.71 500 555.825 498.609 555.825 496.899C555.825 495.189 527.71 493.786 493.052 493.786L487.218 493.786C455.575 493.62 430.874 492.306 430.874 490.685C430.874 489.064 458.641 487.597 493.052 487.584H493.647C528.038 487.533 555.825 483.552 555.825 478.652C555.825 473.752 527.71 469.745 493.052 469.745L486.172 469.745C455.022 469.235 430.874 465.458 430.874 460.877C430.874 456.296 452.776 452.902 481.773 452.111L493.052 452.111C527.71 452.111 555.825 444.135 555.825 434.284C555.825 424.433 527.71 416.484 493.052 416.484L485.875 416.484C454.868 415.399 430.874 407.922 430.874 398.811C430.874 389.036 458.641 381.087 493.052 381.01H493.647C528.038 380.87 555.825 369.181 555.825 354.8C555.825 340.42 528.038 328.744 493.647 328.604H493.052C458.641 328.463 430.874 316.787 430.874 302.394C430.874 288 458.641 276.35 493.052 276.21H493.647C528.038 276.069 555.825 264.381 555.825 250C555.825 235.619 527.71 223.79 493.052 223.79H492.458C457.8 223.79 429.685 212.064 429.685 197.593C429.685 183.123 457.8 171.384 492.458 171.384H493.052C527.71 171.384 555.825 159.657 555.825 145.2C555.825 130.742 527.71 118.99 493.052 118.99H492.458C457.8 118.99 429.685 111.015 429.685 101.177C429.685 92.0784 453.689 84.5881 484.706 83.5163L493.052 83.5163C527.71 83.5163 555.825 75.5411 555.825 65.7156C555.825 55.8902 527.71 47.8895 493.052 47.8895L480.594 47.8895C451.597 47.0983 429.685 43.4616 429.685 39.1104C429.685 34.5294 453.853 30.7651 485.003 30.2547ZM236.065 6.2143L243.089 6.2143C245.776 6.2143 248.442 6.21429 251.025 6.18877C253.62 6.21429 256.275 6.2143 258.962 6.2143L264.796 6.2143C296.449 6.36742 321.16 7.69449 321.16 9.31505C321.16 10.9356 293.363 12.3903 258.962 12.4158L258.388 12.4158C255.896 12.4158 253.435 12.4413 251.025 12.4796C248.442 12.4286 245.776 12.4158 243.089 12.4158L242.494 12.4158C207.827 12.4158 179.722 11.0249 179.722 9.31505C179.722 7.69449 204.433 6.36742 236.065 6.2143ZM235.019 30.2547L243.089 30.2547C245.776 30.2547 248.442 30.2547 251.025 30.1781C253.62 30.242 256.275 30.2547 258.962 30.2547L265.842 30.2547C296.992 30.7651 321.16 34.5294 321.16 39.1104C321.16 43.6913 299.248 47.0983 270.261 47.8895L258.962 47.8895C256.275 47.8895 253.62 47.9405 251.025 48.0298C248.442 47.9405 245.776 47.8895 243.089 47.8895L230.621 47.8895C201.634 47.0983 179.722 43.4616 179.722 39.1104C179.722 34.5294 203.879 30.7651 235.019 30.2547ZM234.722 83.5163L243.089 83.5163C245.776 83.5163 248.442 83.4652 251.025 83.3759C253.62 83.4652 256.275 83.5163 258.962 83.5163L266.139 83.5163C297.157 84.5881 321.16 92.0784 321.16 101.177C321.16 110.964 293.363 118.901 258.962 118.99H258.388C255.896 119.003 253.435 119.079 251.025 119.207H250.974C248.39 119.066 245.765 118.99 243.089 118.99H242.494C207.827 118.99 179.722 111.015 179.722 101.177C179.722 92.0784 203.725 84.5881 234.722 83.5163ZM122.445 493.288C107.156 493.288 94.7598 491.859 94.7598 490.098C94.7598 488.337 107.156 486.908 122.445 486.908C137.733 486.908 150.13 488.337 150.13 490.098C150.13 491.859 137.733 493.288 122.445 493.288ZM122.445 470.32C107.156 470.32 94.7598 466.351 94.7598 461.451C94.7598 456.551 107.156 452.583 122.445 452.583C137.733 452.583 150.13 456.551 150.13 461.451C150.13 466.351 137.733 470.32 122.445 470.32ZM122.445 416.726C107.156 416.726 94.7598 408.725 94.7598 398.862C94.7598 388.998 107.156 380.997 122.445 380.997C137.733 380.997 150.13 388.998 150.13 398.862C150.13 408.725 137.733 416.726 122.445 416.726ZM122.445 328.68C107.156 328.68 94.7598 316.966 94.7598 302.521C94.7598 288.077 107.156 276.363 122.445 276.363C137.733 276.363 150.13 288.077 150.13 302.521C150.13 316.966 137.733 328.68 122.445 328.68ZM122.445 224.046C107.156 224.046 94.7598 212.332 94.7598 197.887C94.7598 183.442 107.156 171.728 122.445 171.728C137.733 171.728 150.13 183.442 150.13 197.887C150.13 212.332 137.733 224.046 122.445 224.046ZM122.445 119.411C107.156 119.411 94.7598 111.41 94.7598 101.547C94.7598 91.6829 107.156 83.6821 122.445 83.6821C137.733 83.6821 150.13 91.6829 150.13 101.547C150.13 111.41 137.733 119.411 122.445 119.411ZM122.445 47.9533C107.156 47.9533 94.7598 43.9593 94.7598 39.0211C94.7598 34.0828 107.156 30.0888 122.445 30.0888C137.733 30.0888 150.13 34.0828 150.13 39.0211C150.13 43.9593 137.733 47.9533 122.445 47.9533ZM122.445 12.2244C107.156 12.2244 94.7598 10.7952 94.7598 9.03432C94.7598 7.2734 107.156 5.84425 122.445 5.84425C137.733 5.84425 150.13 7.2734 150.13 9.03432C150.13 10.7952 137.733 12.2244 122.445 12.2244ZM242.494 171.384H243.089C245.765 171.384 248.39 171.32 250.974 171.18H251.025C253.435 171.307 255.896 171.371 258.388 171.384C293.045 171.384 321.16 183.123 321.16 197.593C321.16 212.064 293.363 223.663 258.962 223.79H258.388C255.896 223.803 253.435 223.88 251.025 223.995C248.442 223.854 245.776 223.79 243.089 223.79H242.494C207.827 223.79 179.722 212.064 179.722 197.593C179.722 183.123 207.827 171.384 242.494 171.384ZM265.985 493.786L258.962 493.786C256.275 493.786 253.62 493.786 251.025 493.786C248.442 493.786 245.776 493.786 243.089 493.786H237.255C205.612 493.62 180.901 492.306 180.901 490.685C180.901 488.975 209.006 487.584 243.663 487.584C246.155 487.584 248.616 487.546 251.025 487.508C253.62 487.559 256.275 487.584 258.962 487.584H259.556C294.224 487.584 322.329 488.975 322.329 490.685C322.329 492.306 297.618 493.62 265.985 493.786ZM267.031 469.745L258.962 469.745C256.275 469.745 253.62 469.758 251.025 469.809C248.442 469.758 245.776 469.745 243.089 469.745H236.209C205.058 469.235 180.901 465.458 180.901 460.877C180.901 456.296 202.802 452.902 231.81 452.111L243.089 452.111C245.776 452.111 248.442 452.06 251.025 451.97C253.62 452.06 256.275 452.111 258.962 452.111L271.44 452.111C300.417 452.902 322.329 456.526 322.329 460.877C322.329 465.458 298.172 469.235 267.031 469.745ZM267.329 416.484L258.962 416.484C256.275 416.484 253.62 416.535 251.025 416.624C248.442 416.535 245.776 416.484 243.089 416.484L235.912 416.484C204.904 415.399 180.901 407.922 180.901 398.811C180.901 388.985 209.006 381.01 243.663 381.01C246.155 380.985 248.616 380.921 251.025 380.793C253.62 380.934 256.275 381.01 258.962 381.01H259.556C294.224 381.01 322.329 388.985 322.329 398.811C322.329 407.922 298.325 415.399 267.329 416.484ZM259.556 328.604H258.962C256.275 328.604 253.62 328.68 251.025 328.82C248.616 328.693 246.155 328.629 243.663 328.604C209.006 328.604 180.901 316.877 180.901 302.394C180.901 287.911 209.006 276.21 243.663 276.21C246.155 276.184 248.616 276.12 251.025 275.993C253.62 276.133 256.275 276.21 258.962 276.21H259.556C294.224 276.21 322.329 287.936 322.329 302.394C322.329 316.851 294.224 328.604 259.556 328.604ZM378.786 493.288C363.498 493.288 351.101 491.859 351.101 490.098C351.101 488.337 363.498 486.908 378.786 486.908C394.074 486.908 406.471 488.337 406.471 490.098C406.471 491.859 394.074 493.288 378.786 493.288ZM378.786 470.32C363.498 470.32 351.101 466.351 351.101 461.451C351.101 456.551 363.498 452.583 378.786 452.583C394.074 452.583 406.471 456.551 406.471 461.451C406.471 466.351 394.074 470.32 378.786 470.32ZM378.786 416.726C363.498 416.726 351.101 408.725 351.101 398.862C351.101 388.998 363.498 380.997 378.786 380.997C394.074 380.997 406.471 388.998 406.471 398.862C406.471 408.725 394.074 416.726 378.786 416.726ZM378.786 328.68C363.498 328.68 351.101 316.966 351.101 302.521C351.101 288.077 363.498 276.363 378.786 276.363C394.074 276.363 406.471 288.077 406.471 302.521C406.471 316.966 394.074 328.68 378.786 328.68ZM378.786 224.046C363.498 224.046 351.101 212.332 351.101 197.887C351.101 183.442 363.498 171.728 378.786 171.728C394.074 171.728 406.471 183.442 406.471 197.887C406.471 212.332 394.074 224.046 378.786 224.046ZM378.786 119.411C363.498 119.411 351.101 111.41 351.101 101.547C351.101 91.6829 363.498 83.6821 378.786 83.6821C394.074 83.6821 406.471 91.6829 406.471 101.547C406.471 111.41 394.074 119.411 378.786 119.411ZM378.786 47.9533C363.498 47.9533 351.101 43.9593 351.101 39.0211C351.101 34.0828 363.498 30.0888 378.786 30.0888C394.074 30.0888 406.471 34.0828 406.471 39.0211C406.471 43.9593 394.074 47.9533 378.786 47.9533ZM378.786 12.2244C363.498 12.2244 351.101 10.7952 351.101 9.03432C351.101 7.2734 363.498 5.84425 378.786 5.84425C394.074 5.84425 406.471 7.2734 406.471 9.03432C406.471 10.7952 394.074 12.2244 378.786 12.2244Z" fill="#121212"/>
<ellipse cx="280.34" cy="302.184" rx="15.7767" ry="15.7767" fill="#FF4F00"/>
<ellipse cx="469.66" cy="197.816" rx="15.7767" ry="15.7767" fill="#FF4F00"/>
</g>
<defs>
<clipPath id="clip0_82_4894">
<rect width="500" height="500" fill="white" transform="translate(2.18557e-05 500) rotate(-90)"/>
</clipPath>
</defs>
</svg>
