<svg width="500" height="500" viewBox="0 0 500 500" fill="none" xmlns="http://www.w3.org/2000/svg">
<g clip-path="url(#clip0_82_4974)">
<rect width="500" height="500" transform="translate(500 500) rotate(180)" fill="#CCC9C4"/>
<path d="M250 1.21355C250 -47.9918 485.338 -96.092 457.868 -137.005C430.397 -177.917 391.353 -209.805 345.671 -228.635C299.989 -247.465 249.723 -252.392 201.228 -242.792C152.732 -233.193 108.187 -209.498 73.2235 -174.705C38.2603 -139.912 14.4501 -95.582 4.80384 -47.3222C-4.84247 0.937668 0.108364 50.9603 19.0303 96.4201C37.9522 141.88 69.9953 180.735 111.108 208.072C152.22 235.409 200.555 250 250 250L250 1.21355Z" fill="#121212"/>
<path d="M747.573 251.214C747.573 388.615 636.187 500 498.786 500C361.385 500 250 388.615 250 251.214C250 113.813 361.385 2.42718 498.786 2.42718C636.187 2.42718 747.573 113.813 747.573 251.214Z" fill="#FF4F00"/>
<path fill-rule="evenodd" clip-rule="evenodd" d="M42.1326 639.429C14.6623 598.516 6.11593e-05 550.416 6.5461e-05 501.21L250 501.21L250 252.424C250.001 252.424 250.003 252.424 250.004 252.424C250.659 389.267 362.333 499.998 499.997 500C500.079 516.62 498.487 533.286 495.196 549.746C485.55 598.006 461.74 642.336 426.777 677.129C391.814 711.922 347.268 735.617 298.773 745.216C250.277 754.816 200.011 749.889 154.329 731.059C108.648 712.229 69.603 680.341 42.1326 639.429Z" fill="#121212"/>
<path d="M125 250C55.9644 250 3.01569e-05 305.964 2.41217e-05 375C1.80864e-05 444.036 55.9644 500 125 500C194.036 500 250 444.036 250 375C250 305.964 194.036 250 125 250Z" fill="#FFA300"/>
<path d="M125 322.816C96.1793 322.816 72.8155 346.179 72.8155 375C72.8155 403.821 96.1793 427.184 125 427.184C153.821 427.184 177.184 403.821 177.184 375C177.184 346.179 153.821 322.816 125 322.816Z" fill="#DBE2E9"/>
</g>
<defs>
<clipPath id="clip0_82_4974">
<rect width="500" height="500" fill="white" transform="translate(500 500) rotate(180)"/>
</clipPath>
</defs>
</svg>
