<svg width="500" height="500" viewBox="0 0 500 500" fill="none" xmlns="http://www.w3.org/2000/svg">
<rect width="500" height="500" fill="#F3F3F3"/>
<path d="M250.001 500L125 374.999H250.001V500Z" fill="#FF4F00"/>
<path d="M125 374.999H187.5L250.001 500H125L125 374.999Z" fill="#121212"/>
<path fill-rule="evenodd" clip-rule="evenodd" d="M313.154 125.003C313.031 125.001 312.908 125 312.784 125L312.78 125L312.777 125L312.75 125L312.724 125L312.718 125L312.693 125L312.69 125L312.689 125L312.663 125L312.655 125L312.64 125C312.632 125 312.623 125 312.614 125C312.608 125 312.602 125 312.596 125C312.592 125 312.589 125 312.585 125L312.582 125C312.573 125 312.564 125 312.555 125C312.549 125 312.542 125 312.536 125C312.524 125 312.512 125 312.5 125L312.46 125L312.445 125C312.429 125 312.412 125 312.396 125C277.926 125.056 250 153.017 250 187.5C250 221.98 277.921 249.939 312.386 250L312.419 250L312.445 250L312.469 250L312.5 250H312.5L312.525 250L312.54 250C312.546 250 312.552 250 312.558 250C312.562 250 312.566 250 312.57 250L312.58 250C312.589 250 312.599 250 312.608 250L312.623 250L312.635 250L312.64 250H312.642L312.665 250L312.689 250L312.69 250L312.694 250L312.72 250L312.744 250H312.753L312.778 250L312.78 250L312.784 250C312.905 250 313.026 249.999 313.147 249.997L313.192 249.996L313.236 249.996C347.415 249.602 375 221.772 375 187.5C375 153.22 347.401 125.385 313.211 125.004C313.192 125.004 313.173 125.003 313.154 125.003ZM286.607 134.775C273.165 145.873 264.25 165.339 264.25 187.5C264.25 209.663 273.168 229.132 286.613 240.229C269.777 230.099 258.25 210.384 258.25 187.5C258.25 164.619 269.774 144.906 286.607 134.775ZM333.139 133.905C344.656 144.836 352.36 164.748 352.36 187.5C352.36 210.249 344.658 230.159 333.144 241.091C348.09 231.2 358.363 210.892 358.363 187.5C358.363 164.105 348.088 143.794 333.139 133.905ZM286.855 144.648C289.932 139.794 293.44 135.883 297.301 133C287.888 143.713 281.53 164.106 281.53 187.5C281.53 210.907 287.896 231.308 297.317 242.017C293.449 239.132 289.936 235.217 286.855 230.358C283.353 224.832 280.6 218.38 278.67 211.183C276.66 203.688 275.643 195.72 275.643 187.503C275.643 179.285 276.66 171.318 278.67 163.823C280.6 156.625 283.353 150.173 286.855 144.648ZM322.574 243.422C322.667 243.345 322.76 243.267 322.853 243.188C326.275 240.26 329.375 236.02 332.063 230.585C337.735 219.12 340.858 203.818 340.858 187.5C340.858 171.183 337.735 155.883 332.063 144.415C329.375 138.98 326.275 134.74 322.853 131.813C322.76 131.733 322.667 131.654 322.574 131.577C329.859 141.835 334.86 163.025 334.86 187.5C334.86 211.975 329.859 233.165 322.574 243.422ZM299.06 187.5C299.06 161.789 302.42 139.703 307.221 130.108C306.782 130.528 306.343 130.999 305.905 131.52C303.488 134.398 301.198 138.763 299.285 144.143C295.183 155.685 292.923 171.083 292.923 187.5C292.923 203.918 295.183 219.315 299.285 230.858C301.198 236.237 303.488 240.603 305.905 243.48C306.343 244.001 306.782 244.472 307.221 244.892C302.42 235.297 299.06 213.211 299.06 187.5ZM314.527 129.21C316.331 138.268 317.61 160.951 317.61 187.5C317.61 214.048 316.331 236.729 314.527 245.788C315.971 243.715 317.918 239.42 319.705 231.165C322.223 219.53 323.61 204.023 323.61 187.5C323.61 170.978 322.223 155.47 319.705 143.835C317.919 135.578 315.972 131.284 314.527 129.21ZM339.217 239.719C355.601 229.447 366.75 210.006 366.75 187.5C366.75 164.991 355.598 145.548 339.211 135.277C352.319 146.454 360.97 165.67 360.97 187.5C360.97 209.327 352.322 228.541 339.217 239.719ZM292.89 133.383C281.065 144.195 273.11 164.382 273.11 187.5C273.11 210.621 281.066 230.81 292.895 241.621C277.507 231.938 266.858 211.318 266.858 187.5C266.858 163.685 277.505 143.068 292.89 133.383ZM343.44 187.5C343.44 211.643 336.669 232.589 326.757 242.999C331.178 240.047 335.168 235.791 338.615 230.353C342.118 224.828 344.87 218.375 346.8 211.178C348.81 203.683 349.828 195.715 349.828 187.498C349.828 179.28 348.81 171.313 346.8 163.818C344.87 156.62 342.118 150.168 338.615 144.643C335.165 139.2 331.173 134.943 326.748 131.99L326.74 131.985C336.661 142.39 343.44 163.345 343.44 187.5ZM302.997 243.904C302.703 243.676 302.41 243.437 302.118 243.188C298.695 240.26 295.595 236.02 292.908 230.585C287.235 219.118 284.113 203.818 284.113 187.5C284.113 171.183 287.235 155.88 292.908 144.415C295.595 138.98 298.695 134.74 302.118 131.813C302.409 131.563 302.702 131.325 302.996 131.097C295.522 141.163 290.36 162.636 290.36 187.5C290.36 212.365 295.522 233.839 302.997 243.904ZM319.315 243.48C318.877 244.001 318.439 244.472 317.999 244.892C322.801 235.297 326.16 213.211 326.16 187.5C326.16 161.789 322.801 139.703 317.999 130.108C318.439 130.528 318.877 130.999 319.315 131.52C321.733 134.398 324.023 138.763 325.935 144.143C330.038 155.685 332.298 171.083 332.298 187.5C332.298 203.918 330.038 219.315 325.935 230.858C324.023 236.238 321.733 240.603 319.315 243.48ZM311.04 246.258C309.571 244.397 307.449 240.102 305.515 231.165C302.998 219.53 301.61 204.023 301.61 187.5C301.61 170.978 302.998 155.47 305.515 143.835C307.45 134.9 309.571 130.605 311.04 128.743C309.185 137.469 307.86 160.483 307.86 187.5C307.86 214.519 309.185 237.533 311.04 246.258ZM350.417 234.003C361.978 222.562 369.25 205.966 369.25 187.5C369.25 169.034 361.978 152.438 350.417 140.997C363.895 151.999 372.5 168.745 372.5 187.5C372.5 206.255 363.895 223.001 350.417 234.003ZM274.583 234.003C263.022 222.562 255.75 205.966 255.75 187.5C255.75 169.034 263.022 152.438 274.583 140.997C261.105 151.999 252.5 168.745 252.5 187.5C252.5 206.255 261.105 223.001 274.583 234.003ZM311.663 228.845C312.013 233.941 312.386 237.714 312.736 240.499C313.087 237.714 313.458 233.941 313.808 228.845C314.59 217.458 315.02 202.773 315.02 187.5C315.02 172.228 314.59 157.543 313.808 146.155C313.458 141.059 313.085 137.286 312.735 134.501C312.384 137.286 312.013 141.059 311.663 146.155C310.88 157.543 310.45 172.228 310.45 187.5C310.45 202.773 310.88 217.458 311.663 228.845Z" fill="#121212"/>
<g clip-path="url(#clip0_88_6130)">
<rect width="125.001" height="125.001" transform="translate(374.999 7.62939e-06)" fill="#FF4F00"/>
<path d="M374.999 7.62939e-06L437.499 7.62939e-06L500 125.001L374.999 125.001V7.62939e-06Z" fill="#121212"/>
</g>
<g clip-path="url(#clip1_88_6130)">
<path d="M500 312.5L500 250L437.499 250L437.499 312.5L500 312.5Z" fill="#FF4F00"/>
<path d="M437.5 375L437.5 312.5L374.999 312.5L374.999 375L437.5 375Z" fill="#FF4F00"/>
</g>
<g clip-path="url(#clip2_88_6130)">
<rect width="125.001" height="125.001" transform="translate(0 125)" fill="#FF4F00"/>
<path d="M125.001 187.5V125H0V250H62.5004C62.5004 215.483 90.483 187.5 125.001 187.5Z" fill="#F3F3F3"/>
</g>
<path d="M250.001 125.001L125 7.62939e-06L250.001 7.62939e-06V125.001Z" fill="#121212"/>
<path d="M374.999 250L500 125L500 250L374.999 250Z" fill="#121212"/>
<path d="M375 375L250 249.999L375 249.999V375Z" fill="#FF4F00"/>
<path d="M500 500L374.999 374.999H500V500Z" fill="#FF4F00"/>
<path d="M125 0.000134031L250 125.001L125 125.001L125 0.000134031Z" fill="#FF4F00"/>
<path d="M249.999 250L375 375L249.999 375L249.999 250Z" fill="#F3F3F3"/>
<path d="M374.999 374.999L500 500L374.999 500L374.999 374.999Z" fill="#F3F3F3"/>
<path d="M500 125L374.999 250L374.999 125L500 125Z" fill="#FF4F00"/>
<g clip-path="url(#clip3_88_6130)">
<rect width="125.001" height="125.001" transform="translate(375 7.62939e-06) rotate(90)" fill="#F3F3F3"/>
<path d="M249.999 125.001L375 125.001L375 7.62939e-06C375 69.0354 319.035 125.001 249.999 125.001Z" fill="#121212"/>
</g>
<path d="M125.001 500L125.001 374.999L0 374.999C69.0354 374.999 125.001 430.964 125.001 500Z" fill="#F3F3F3"/>
<path d="M374.991 374.999L374.991 437.499L249.99 500L249.99 374.999L374.991 374.999Z" fill="#FF4F00"/>
<g clip-path="url(#clip4_88_6130)">
<rect width="310.003" height="310.003" transform="translate(250 374.977) rotate(-180)" fill="#FF4F00"/>
<path d="M250 374.977L94.9992 374.977L-60.0021 64.9743L250.001 64.9743L250 374.977Z" fill="#121212"/>
</g>
<g clip-path="url(#clip5_88_6130)">
<rect width="125.001" height="125.001" transform="translate(0 249.999)" fill="#FF4F00"/>
<path d="M0 249.999H62.5004L125.001 375H0L0 249.999Z" fill="#121212"/>
</g>
<g clip-path="url(#clip6_88_6130)">
<rect width="125.001" height="125.001" transform="translate(125 125)" fill="#FF4F00"/>
<path d="M125 250L187.5 250L187.5 125L125 125L125 250Z" fill="#121212"/>
</g>
<defs>
<clipPath id="clip0_88_6130">
<rect width="125.001" height="125.001" fill="white" transform="translate(374.999 7.62939e-06)"/>
</clipPath>
<clipPath id="clip1_88_6130">
<rect width="125.001" height="125.001" fill="white" transform="translate(374.999 375) rotate(-90)"/>
</clipPath>
<clipPath id="clip2_88_6130">
<rect width="125.001" height="125.001" fill="white" transform="translate(0 125)"/>
</clipPath>
<clipPath id="clip3_88_6130">
<rect width="125.001" height="125.001" fill="white" transform="translate(375 7.62939e-06) rotate(90)"/>
</clipPath>
<clipPath id="clip4_88_6130">
<rect width="125.001" height="125.001" fill="white" transform="translate(250 375) rotate(-180)"/>
</clipPath>
<clipPath id="clip5_88_6130">
<rect width="125.001" height="125.001" fill="white" transform="translate(0 249.999)"/>
</clipPath>
<clipPath id="clip6_88_6130">
<rect width="125.001" height="125.001" fill="white" transform="translate(125 125)"/>
</clipPath>
</defs>
</svg>
