<svg width="500" height="500" viewBox="0 0 500 500" fill="none" xmlns="http://www.w3.org/2000/svg">
<g clip-path="url(#clip0_2209_4194)">
<path d="M7.62939e-06 125L125 125L125 5.81261e-06C55.9844 -0.0208275 0.0208359 55.9635 7.62939e-06 125Z" fill="#121212"/>
<path d="M125 0L125 125L250 125C250.021 55.9844 194.036 0.0208333 125 0Z" fill="#121212"/>
<path d="M500 250L375 250V375C444.016 375.021 499.979 319.036 500 250Z" fill="#121212"/>
<path d="M125 250L125 125L7.62939e-06 125C-0.0208282 194.016 55.9635 249.979 125 250Z" fill="#121212"/>
<path d="M250 250H375V125C305.984 124.979 250.021 180.964 250 250Z" fill="#121212"/>
<path d="M7.62939e-06 375H125L125 250C55.9844 249.979 0.0208359 305.964 7.62939e-06 375Z" fill="#121212"/>
<path d="M7.62939e-06 500H125L125 375C55.9844 374.979 0.0208359 430.964 7.62939e-06 500Z" fill="#121212"/>
<path d="M375 375V500H500C500.021 430.984 444.036 375.021 375 375Z" fill="#121212"/>
<path d="M375.005 225V237.5C381.911 237.5 387.505 243.094 387.505 250H400.005C400.005 236.193 388.812 225 375.005 225Z" fill="#131314"/>
<path d="M375.005 200V212.5C395.719 212.5 412.505 229.286 412.505 250H425.005C425.005 222.385 402.62 200 375.005 200Z" fill="#131314"/>
<path d="M375.005 175V187.5C409.526 187.5 437.505 215.479 437.505 250H450.005C450.005 208.583 416.422 175 375.005 175Z" fill="#131314"/>
<path d="M375.005 150V162.5C423.328 162.5 462.505 201.677 462.505 250H475.005C475.005 194.771 430.234 150 375.005 150Z" fill="#131314"/>
<path d="M375.005 125V137.5C437.135 137.5 487.505 187.87 487.505 250H500C500 180.99 443.828 125 375.005 125Z" fill="#131314"/>
<path d="M374.995 375V250L249.995 250C318.823 250 374.99 305.99 374.99 375H374.995Z" fill="#121212"/>
<path fill-rule="evenodd" clip-rule="evenodd" d="M331.25 440C331.25 448.104 325 455.818 325 463.922V500H312.5V463.922C312.5 455.818 306.25 448.104 306.25 440C306.25 431.896 312.5 424.182 312.5 416.078V375H325V416.078C325 424.182 331.25 431.896 331.25 440Z" fill="#121212"/>
<path fill-rule="evenodd" clip-rule="evenodd" d="M306.25 415C306.25 423.104 300 430.818 300 438.922V500H287.5V438.922C287.5 430.818 281.25 423.104 281.25 415C281.25 406.896 287.5 399.182 287.5 391.078V375H300V391.078C300 399.182 306.25 406.896 306.25 415Z" fill="#121212"/>
<path d="M125 125L125 250L250 250L250 125L125 125Z" fill="#121212"/>
<path d="M356.25 435C352.797 435 350 430.25 350 421.25V375H337.5V500H350V494.448C350 485.448 352.797 480.698 356.25 480.698C359.703 480.698 362.5 485.448 362.5 494.448V500H375V375H362.5V421.25C362.5 430.25 359.703 435 356.25 435ZM362.5 456.146C362.5 465.036 359.703 472.24 356.25 472.24C352.797 472.24 350 465.036 350 456.146C350 447.255 352.797 440.052 356.25 440.052C359.703 440.052 362.5 447.255 362.5 456.146Z" fill="#121212"/>
<path d="M250 250.005L125 250.005L125 375.005C125 306.177 180.99 250.01 250 250.01V250.005Z" fill="#121212"/>
<path d="M125 500H137.5L137.5 375H125L125 500Z" fill="#121212"/>
<path d="M225 500H237.5L237.5 375H225L225 500Z" fill="#121212"/>
<path fill-rule="evenodd" clip-rule="evenodd" d="M162.5 500H150L150 375H162.5V409.995C162.5 411.026 163.687 411.625 164.557 411.078C164.865 410.88 165.182 410.693 165.495 410.505C170.625 407.505 174.995 402.604 174.995 396.656V375H187.495V396.656C187.495 402.599 191.865 407.5 196.995 410.505C197.312 410.693 197.625 410.88 197.932 411.078C198.802 411.63 199.99 411.026 199.99 409.995V375H212.49L212.49 500H199.99L199.99 465.005C199.99 463.974 198.802 463.375 197.932 463.927C197.625 464.125 197.307 464.313 196.995 464.5C191.865 467.5 187.495 472.401 187.495 478.349L187.495 500.005H174.995L174.995 478.349C174.995 472.406 170.625 467.505 165.495 464.5C165.177 464.313 164.865 464.125 164.557 463.927C163.687 463.375 162.5 463.979 162.5 465.005L162.5 500Z" fill="#121212"/>
<path d="M150 420.859C150 421.953 149.74 423.042 149.203 424.026C146.979 428.104 145.734 432.677 145.734 437.505C145.734 442.333 146.979 446.901 149.203 450.984C149.74 451.969 150 453.057 150 454.151" fill="#121212"/>
<path d="M212.5 454.141C212.5 453.047 212.76 451.958 213.297 450.974C215.521 446.896 216.766 442.323 216.766 437.495C216.766 432.667 215.521 428.099 213.297 424.016C212.76 423.031 212.5 421.943 212.5 420.849" fill="#121212"/>
<path d="M224.995 375H237.495C237.495 368.094 243.089 362.5 249.995 362.5V350C236.188 350 224.995 361.193 224.995 375Z" fill="#131314"/>
<path d="M199.995 375H212.495C212.495 354.286 229.281 337.5 249.995 337.5V325C222.38 325 199.995 347.391 199.995 375Z" fill="#131314"/>
<path d="M174.995 375H187.495C187.495 340.479 215.479 312.495 250 312.495V299.995C208.578 299.995 174.995 333.578 174.995 375Z" fill="#131314"/>
<path d="M149.99 375H162.49C162.49 326.672 201.667 287.495 249.995 287.495V274.995C194.76 274.995 149.99 319.766 149.99 375Z" fill="#131314"/>
<path d="M124.99 375H137.49C137.49 312.865 187.859 262.495 249.995 262.495V250C180.979 250 124.99 306.172 124.99 375Z" fill="#131314"/>
<path d="M274.99 375H262.49V500H274.99V375Z" fill="#121212"/>
</g>
<defs>
<clipPath id="clip0_2209_4194">
<rect width="500" height="500" fill="white" transform="matrix(0 1 -1 0 500 0)"/>
</clipPath>
</defs>
</svg>
