<svg xmlns="http://www.w3.org/2000/svg" viewBox="16 -718 2726 737" width="148.0" height="40" aria-label="FAI Studio" role="img"><path d="M137.0 0V-332H241.0V-416H137.0V-609H255.0V-700H20.0V0Z M361.0 -700 286.0 0H391.0L410.0 -192H480.0L498.0 0H608.0L531.0 -700ZM446.0 -561 472.0 -279H418.0Z M660.0 -701V0H780.0V-701Z M1129.0 -714C1034.0 -714 987.0 -664 987.0 -568V-554C987.0 -456 1007.0 -415 1035.0 -382L1130.0 -268C1154.0 -239 1160.0 -211 1160.0 -166C1160.0 -109 1153.0 -87 1127.0 -87C1107.0 -87 1097.0 -102 1097.0 -138V-273H986.0V-128C986.0 -33 1038.0 15 1131.0 15C1221.0 15 1279.0 -37 1279.0 -158V-174C1279.0 -260 1265.0 -298 1238.0 -332L1132.0 -462C1112.0 -488 1103.0 -510 1103.0 -562C1103.0 -613 1114.0 -627 1130.0 -627C1149.0 -627 1156.0 -613 1156.0 -581V-470H1264.0V-595C1264.0 -665 1224.0 -714 1129.0 -714Z M1587.0 -700H1307.0V-610H1387.0V0H1507.0V-610H1587.0V-700Z M1782.0 -700V-116C1782.0 -95 1777.0 -85 1760.0 -85C1744.0 -85 1738.0 -94 1738.0 -116V-700H1623.0V-116C1623.0 -29 1670.0 15 1758.0 15C1845.0 15 1896.0 -29 1896.0 -110V-700Z M1944.0 -700V0H2107.0C2183.0 0 2217.0 -33 2217.0 -103V-591C2217.0 -658 2184.0 -700 2108.0 -700ZM2058.0 -88V-610H2078.0C2094.0 -610 2103.0 -600 2103.0 -580V-109C2103.0 -95 2096.0 -88 2083.0 -88Z M2281.0 -701V0H2401.0V-701Z M2600.0 -714C2506.0 -714 2465.0 -662 2465.0 -591V-116C2465.0 -29 2512.0 15 2600.0 15C2687.0 15 2738.0 -29 2738.0 -110V-591C2738.0 -656 2690.0 -714 2600.0 -714ZM2601.0 -606C2616.0 -606 2624.0 -599 2624.0 -581V-116C2624.0 -95 2619.0 -85 2602.0 -85C2586.0 -85 2580.0 -94 2580.0 -116L2579.0 -581C2579.0 -598 2587.0 -606 2601.0 -606Z" fill="currentColor"/></svg>