<svg width="200" height="200" viewBox="0 0 200 200" fill="none" xmlns="http://www.w3.org/2000/svg">
<g clip-path="url(#clip0_3_439)">
<rect width="200" height="200" transform="translate(200 8.74228e-06) rotate(90)" fill="#F3F3F3"/>
<path d="M200 8.74228e-06C200 55.228 177.616 105.228 141.42 141.42C105.228 177.616 55.228 200 0 200L200 200L200 8.74228e-06Z" fill="#121212"/>
<path d="M141.667 100C141.667 76.9841 123.011 58.3333 100 58.3333C76.9891 58.3333 58.3333 76.9841 58.3333 100C58.3333 123.016 76.989 141.667 100 141.667C111.508 141.667 121.925 137.004 129.464 129.464C137.004 121.925 141.667 111.508 141.667 100Z" fill="#121212"/>
<path d="M100.028 0.0280087L0.0559627 4.37236e-06L0.0279585 100C55.2405 100.016 100.012 55.256 100.028 0.0280087Z" fill="#121212"/>
</g>
<defs>
<clipPath id="clip0_3_439">
<rect width="200" height="200" fill="white" transform="translate(200 8.74228e-06) rotate(90)"/>
</clipPath>
</defs>
</svg>
