<svg xmlns="http://www.w3.org/2000/svg" viewBox="250 0 125 125" width="200" height="200">
  <rect x="250" y="0" width="125" height="125" fill="#F3F3F3"/>
  <path d="M275.386,4.804904 L275.386,9.793033 L275.386,14.781162 L275.386,19.769292 L275.386,24.757421 L275.386,29.74555 L275.386,34.733679 L275.386,39.721808 L275.386,44.709937 L275.386,49.698067 L275.386,54.686196 L275.386,59.674325 L275.386,64.662454 L275.386,69.650583 L275.386,74.638712 L275.386,79.626842 L275.386,84.614971 L275.386,89.6031 L275.446639,86.639042 L275.625948,83.728617 L275.920012,80.878268 L276.324917,78.094442 L276.836749,75.383583 L277.451594,72.752137 L278.165538,70.20655 L278.974667,67.753267 L279.875066,65.398732 L280.862823,63.149392 L281.934022,61.011691 L283.08475,58.992075 L284.311092,57.096989 L285.609135,55.332879 L286.974965,53.70619 L288.404667,52.223367 L289.894327,50.890855 L291.440031,49.7151 L293.037866,48.702547 L294.683917,47.859642 L296.37427,47.192829 L298.10501,46.708554 L299.872225,46.413263 L301.672,46.3134 L301.672,46.3134 L303.471655,46.413263 L305.23876,46.708554 L306.9694,47.192829 L308.659662,47.859642 L310.30563,48.702547 L311.903391,49.7151 L313.449029,50.890855 L314.93863,52.223367 L316.368279,53.70619 L317.734063,55.332879 L319.032066,57.096989 L320.258375,58.992075 L321.409074,61.011691 L322.480249,63.149392 L323.467986,65.398732 L324.36837,67.753267 L325.177487,70.20655 L325.891422,72.752137 L326.50626,75.383583 L327.018088,78.094442 L327.42299,80.878268 L327.717053,83.728617 L327.896361,86.639042 L327.957,89.6031 L327.957,89.6031 L327.957,89.620125 L327.957,89.63715 L327.957,89.654175 L327.957,89.6712 L327.957,89.688225 L327.957,89.70525 L327.957,89.722275 L327.957,89.7393 L327.957,89.756325 L327.957,89.77335 L327.957,89.790375 L327.957,89.8074 L327.957,89.824425 L327.957,89.84145 L327.957,89.858475 L327.957,89.8755 L327.957,89.892525 L327.957,89.90955 L327.957,89.926575 L327.957,89.9436 L327.957,89.960625 L327.957,89.97765 L327.957,89.994675 L327.957,90.0117 L327.991385,92.975698 L328.096497,95.88607 L328.27527,98.736371 L328.530639,101.520155 L328.865539,104.230976 L329.282906,106.862389 L329.785674,109.407948 L330.376778,111.861207 L331.059152,114.215722 L331.835733,116.465045 L332.709454,118.602732 L333.68325,120.622338 L334.760057,122.517415 L335.942809,124.281519 L337.234441,125.908205 L338.637889,127.391026 L340.156086,128.723537 L341.791969,129.899292 L343.548471,130.911846 L345.428528,131.754753 L347.435074,132.421568 L349.571045,132.905844 L351.839375,133.201137 L354.243,133.301 L354.243,133.301 L356.64662,133.201137 L358.914935,132.905844 L361.050883,132.421568 L363.057398,131.754753 L364.937417,130.911846 L366.693875,129.899292 L368.329708,128.723537 L369.847852,127.391026 L371.251242,125.908205 L372.542815,124.281519 L373.725505,122.517415 L374.80225,120.622337 L375.775984,118.602732 L376.649644,116.465045 L377.426164,114.215722 L378.108481,111.861207 L378.699532,109.407948 L379.20225,106.862389 L379.619573,104.230976 L379.954435,101.520155 L380.209773,98.736371 L380.388523,95.88607 L380.49362,92.975698 L380.528,90.0117 L380.528,90.0117 L380.528,89.994675 L380.528,89.97765 L380.528,89.960625 L380.528,89.9436 L380.528,89.926575 L380.528,89.90955 L380.528,89.892525 L380.528,89.8755 L380.528,89.858475 L380.528,89.84145 L380.528,89.824425 L380.528,89.8074 L380.528,89.790375 L380.528,89.77335 L380.528,89.756325 L380.528,89.7393 L380.528,89.722275 L380.528,89.70525 L380.528,89.688225 L380.528,89.6712 L380.528,89.654175 L380.528,89.63715 L380.528,89.620125 L380.528,89.6031 L380.569223,86.639042 L380.691119,83.728615 L380.891027,80.878264 L381.166287,78.094434 L381.514238,75.383572 L381.932219,72.752122 L382.41757,70.20653 L382.96763,67.753241 L383.579738,65.3987 L384.251235,63.149354 L384.979459,61.011647 L385.76175,58.992025 L386.595447,57.096933 L387.47789,55.332817 L388.406418,53.706121 L389.37837,52.223293 L390.391087,50.890776 L391.441906,49.715016 L392.528169,48.702458 L393.647213,47.859549 L394.796379,47.192733 L395.973006,46.708456 L397.174433,46.413163 L398.398,46.3133 L398.398,46.3133 L399.527859,46.398529 L400.639042,46.650832 L401.729455,47.065135 L402.797005,47.636363 L403.839598,48.359443 L404.855141,49.229298 L405.84154,50.240856 L406.796704,51.389041 L407.718537,52.668778 L408.604947,54.074994 L409.453841,55.602614 L410.263125,57.246562 L411.030706,59.001766 L411.75449,60.86315 L412.432385,62.825639 L413.062296,64.884159 L413.642131,67.033636 L414.169797,69.268995 L414.643199,71.585162 L415.060245,73.977062 L415.418842,76.43962 L415.716895,78.967762 L415.952312,81.556413 L416.123,84.2005 L416.123,84.2005 L416.123,84.442633 L416.123,84.684767 L416.123,84.9269 L416.123,85.169033 L416.123,85.411167 L416.123,85.6533 L416.123,85.895433 L416.123,86.137567 L416.123,86.3797 L416.123,86.621833 L416.123,86.863967 L416.123,87.1061 L416.123,87.348233 L416.123,87.590367 L416.123,87.8325 L416.123,88.074633 L416.123,88.316767 L416.123,88.5589 L416.123,88.801033 L416.123,89.043167 L416.123,89.2853 L416.123,89.527433 L416.123,89.769567 L416.123,90.0117 L416.122196,92.975698 L416.125321,95.88607 L416.140676,98.736371 L416.176565,101.520155 L416.241291,104.230976 L416.343156,106.862389 L416.490465,109.407948 L416.691519,111.861207 L416.954621,114.215722 L417.288075,116.465045 L417.700184,118.602732 L418.19925,120.622338 L418.793577,122.517415 L419.491466,124.281519 L420.301223,125.908205 L421.231148,127.391026 L422.289546,128.723537 L423.484719,129.899292 L424.82497,130.911846 L426.318602,131.754753 L427.973918,132.421568 L429.799221,132.905844 L431.802814,133.201137 L433.993,133.301 L433.993,133.301 L436.183071,133.201137 L438.186569,132.905844 L440.011795,132.421568 L441.667051,131.754753 L443.160639,130.911846 L444.500859,129.899292 L445.696015,128.723537 L446.754407,127.391026 L447.684338,125.908205 L448.494108,124.281519 L449.19202,122.517415 L449.786375,120.622337 L450.285475,118.602732 L450.697621,116.465045 L451.031115,114.215722 L451.294259,111.861207 L451.495355,109.407948 L451.642703,106.862389 L451.744606,104.230976 L451.809366,101.520155 L451.845283,98.736371 L451.86066,95.88607 L451.863799,92.975698 L451.863,90.0117 L451.863,90.0117 L451.863,89.674617 L451.863,89.337533 L451.863,89.00045 L451.863,88.663367 L451.863,88.326283 L451.863,87.9892 L451.863,87.652117 L451.863,87.315033 L451.863,86.97795 L451.863,86.640867 L451.863,86.303783 L451.863,85.9667 L451.863,85.629617 L451.863,85.292533 L451.863,84.95545 L451.863,84.618367 L451.863,84.281283 L451.863,83.9442 L451.863,83.607117 L451.863,83.270033 L451.863,82.93295 L451.863,82.595867 L451.863,82.258783 L451.863,81.9217 L451.971495,79.418005 L452.109354,76.969656 L452.275639,74.581203 L452.469412,72.257198 L452.689736,70.002192 L452.935672,67.820738 L453.206282,65.717385 L453.50063,63.696685 L453.817775,61.763191 L454.156782,59.921452 L454.516711,58.176022 L454.896625,56.53145 L455.295586,54.992289 L455.712656,53.563089 L456.146896,52.248403 L456.59737,51.052781 L457.063139,49.980776 L457.543266,49.036938 L458.036811,48.225818 L458.542838,47.551969 L459.060408,47.019941 L459.588584,46.634286 L460.126427,46.399555 L460.673,46.3203 L460.673,46.3203 L461.220931,46.405563 L461.762632,46.657964 L462.296844,47.072418 L462.822306,47.643842 L463.337757,48.367153 L463.841937,49.237267 L464.333587,50.249101 L464.811444,51.39757 L465.27425,52.677592 L465.720743,54.084083 L466.149663,55.611959 L466.55975,57.256137 L466.949743,59.011534 L467.318382,60.873065 L467.664406,62.835647 L467.986556,64.894196 L468.283569,67.04363 L468.554187,69.278864 L468.797149,71.594815 L469.011194,73.9864 L469.195062,76.448534 L469.347493,78.976134 L469.467226,81.564118 L469.553,84.2074 L469.553,84.2074 L469.553,84.449533 L469.553,84.691667 L469.553,84.9338 L469.553,85.175933 L469.553,85.418067 L469.553,85.6602 L469.553,85.902333 L469.553,86.144467 L469.553,86.3866 L469.553,86.628733 L469.553,86.870867 L469.553,87.113 L469.553,87.355133 L469.553,87.597267 L469.553,87.8394 L469.553,88.081533 L469.553,88.323667 L469.553,88.5658 L469.553,88.807933 L469.553,89.050067 L469.553,89.2922 L469.553,89.534333 L469.553,89.776467 L469.553,90.0186 L469.553647,92.98261 L469.558179,95.892993 L469.570479,98.743304 L469.594431,101.527097 L469.633919,104.237927 L469.692828,106.869347 L469.775042,109.414912 L469.884444,111.868178 L470.02492,114.222697 L470.200352,116.472025 L470.414626,118.609716 L470.671625,120.629325 L470.975233,122.524405 L471.329335,124.288512 L471.737814,125.9152 L472.204556,127.398022 L472.733442,128.730534 L473.328359,129.906291 L473.99319,130.918845 L474.731819,131.761753 L475.548131,132.428568 L476.446009,132.912844 L477.429337,133.208137 L478.502,133.308 L478.502,133.308 L479.574543,133.208137 L480.557762,132.912844 L481.455539,132.428568 L482.271759,131.761753 L483.010306,130.918845 L483.675062,129.906291 L484.269913,128.730534 L484.798741,127.398022 L485.26543,125.9152 L485.673863,124.288512 L486.027926,122.524405 L486.3315,120.629325 L486.58847,118.609716 L486.80272,116.472025 L486.978133,114.222697 L487.118593,111.868178 L487.227983,109.414912 L487.310187,106.869347 L487.36909,104.237927 L487.408574,101.527097 L487.432523,98.743304 L487.444822,95.892993 L487.449353,92.98261 L487.45,90.0186 L487.45,90.0186 L487.45,90.001575 L487.45,89.98455 L487.45,89.967525 L487.45,89.9505 L487.45,89.933475 L487.45,89.91645 L487.45,89.899425 L487.45,89.8824 L487.45,89.865375 L487.45,89.84835 L487.45,89.831325 L487.45,89.8143 L487.45,89.797275 L487.45,89.78025 L487.45,89.763225 L487.45,89.7462 L487.45,89.729175 L487.45,89.71215 L487.45,89.695125 L487.45,89.6781 L487.45,89.661075 L487.45,89.64405 L487.45,89.627025 L487.45,89.61 L487.457209,86.645942 L487.478525,83.735517 L487.513482,80.885168 L487.561616,78.101342 L487.622459,75.390483 L487.695547,72.759037 L487.780413,70.21345 L487.876593,67.760167 L487.983619,65.405632 L488.101027,63.156292 L488.228351,61.018591 L488.365125,58.998975 L488.510883,57.103889 L488.66516,55.339779 L488.82749,53.71309 L488.997407,52.230267 L489.174446,50.897755 L489.358141,49.722 L489.548025,48.709447 L489.743634,47.866542 L489.944502,47.199729 L490.150163,46.715454 L490.360151,46.420163 L490.574,46.3203 L490.771621,46.405528 L490.965986,46.657826 L491.156727,47.072117 L491.343472,47.643324 L491.525853,48.366369 L491.7035,49.236175 L491.876043,50.247664 L492.043111,51.395759 L492.204336,52.675383 L492.359347,54.081457 L492.507775,55.608906 L492.64925,57.25265 L492.783402,59.007613 L492.909861,60.868718 L493.028258,62.830886 L493.138222,64.889041 L493.239385,67.038105 L493.331375,69.273 L493.413824,71.58865 L493.486361,73.979976 L493.548617,76.441902 L493.600222,78.969349 L493.640806,81.557241 L493.67,84.2005 L493.67,84.2005 L493.67,84.442633 L493.67,84.684767 L493.67,84.9269 L493.67,85.169033 L493.67,85.411167 L493.67,85.6533 L493.67,85.895433 L493.67,86.137567 L493.67,86.3797 L493.67,86.621833 L493.67,86.863967 L493.67,87.1061 L493.67,87.348233 L493.67,87.590367 L493.67,87.8325 L493.67,88.074633 L493.67,88.316767 L493.67,88.5589 L493.67,88.801033 L493.67,89.043167 L493.67,89.2853 L493.67,89.527433 L493.67,89.769567 L493.67,90.0117 L493.665839,92.975698 L493.655021,95.88607 L493.640049,98.736371 L493.623421,101.520155 L493.607639,104.230976 L493.595203,106.862389 L493.588613,109.407948 L493.59037,111.861207 L493.602975,114.215722 L493.628927,116.465045 L493.670726,118.602732 L493.730875,120.622338 L493.811872,122.517415 L493.916219,124.281519 L494.046416,125.908205 L494.204963,127.391026 L494.394361,128.723537 L494.617109,129.899292 L494.87571,130.911846 L495.172662,131.754753 L495.510467,132.421568 L495.891624,132.905844 L496.318635,133.201137 L496.794,133.301 L496.794,133.301 L497.269365,133.201137 L497.696376,132.905844 L498.077533,132.421568 L498.415338,131.754753 L498.71229,130.911846 L498.970891,129.899292 L499.193639,128.723537 L499.383037,127.391026 L499.541584,125.908205 L499.671781,124.281519 L499.776128,122.517415 L499.857125,120.622337 L499.917274,118.602732 L499.959073,116.465045 L499.985025,114.215722 L499.99763,111.861207 L499.999387,109.407948 L499.992797,106.862389 L499.980361,104.230976 L499.964579,101.520155 L499.947951,98.736371 L499.932979,95.88607 L499.922161,92.975698 L499.918,90.0117 L499.918,85.023571 L499.918,80.035442 L499.918,75.047313 L499.918,70.059183 L499.918,65.071054 L499.918,60.082925 L499.918,55.094796 L499.918,50.106667 L499.918,45.118538 L499.918,40.130408 L499.918,35.142279 L499.918,30.15415 L499.918,25.166021 L499.918,20.177892 L499.918,15.189763 L499.918,10.201633 L499.918,5.213504 L499.918,0.225375 L499.918,0 L492.813856,0 L492.780578,0.490347 L492.646625,2.245313 L492.505386,3.88906 L492.35722,5.416512 L492.20249,6.822591 L492.041556,8.102219 L491.874777,9.250318 L491.702516,10.261811 L491.525132,11.131621 L491.342986,11.854669 L491.156439,12.425879 L490.965852,12.840172 L490.771586,13.092472 L490.574,13.1777 L490.574,13.1777 L490.360151,13.077837 L490.150163,12.782545 L489.944502,12.298269 L489.743634,11.631455 L489.548025,10.788548 L489.358141,9.775993 L489.174446,8.600236 L488.997407,7.267722 L488.82749,5.784897 L488.66516,4.158206 L488.510883,2.394094 L488.365125,0.499006 L488.331331,0 L467.10047,0 L467.004361,0.493366 L466.61975,2.248762 L466.214212,3.892941 L465.788799,5.420817 L465.344562,6.827308 L464.882556,8.10733 L464.40383,9.255799 L463.909437,10.267633 L463.400431,11.137747 L462.877861,11.861058 L462.342781,12.432482 L461.796243,12.846936 L461.239299,13.099337 L460.673,13.1846 L460.108209,13.105345 L459.555317,12.870613 L459.015045,12.484957 L458.488116,11.952928 L457.975251,11.279077 L457.477172,10.467955 L456.994601,9.524115 L456.528259,8.452107 L456.078869,7.256484 L455.647152,5.941795 L455.23383,4.512594 L454.839625,2.973431 L454.465258,1.328858 L454.195893,0 L411.227539,0 L411.033095,0.500278 L410.26575,2.255674 L409.456665,3.899851 L408.607925,5.427726 L407.721613,6.834216 L406.799815,8.114236 L405.844614,9.262705 L404.858094,10.274537 L403.84234,11.14465 L402.799435,11.86796 L401.731465,12.439383 L400.640513,12.853837 L399.528663,13.106237 L398.398,13.1915 L398.398,13.1915 L397.174433,13.091637 L395.973006,12.796346 L394.796379,12.312071 L393.647213,11.645258 L392.528169,10.802353 L391.441906,9.7898 L390.391087,8.614045 L389.37837,7.281533 L388.406418,5.79871 L387.47789,4.172021 L386.595447,2.407911 L385.76175,0.512825 L385.563109,0 L320.542691,0 L320.258375,0.49901 L319.032066,2.394097 L317.734063,4.158209 L316.368279,5.7849 L314.93863,7.267724 L313.449029,8.600238 L311.903391,9.775994 L310.30563,10.788549 L308.659662,11.631456 L306.9694,12.298269 L305.23876,12.782545 L303.471655,13.077837 L301.672,13.1777 L299.872225,13.077837 L298.10501,12.782545 L296.37427,12.298269 L294.683917,11.631456 L293.037866,10.788549 L291.440031,9.775994 L289.894327,8.600238 L288.404667,7.267724 L286.974965,5.7849 L285.609135,4.158209 L284.311092,2.394097 L283.08475,0.49901 L282.800426,0 L275.386,0 Z" fill="#121212"/>
  <path d="M0.095978,131.754823 L0.381322,132.421609 L0.695264,132.905863 L1.039166,133.201142 L1.41439,133.301 L1.41439,133.301 L1.789613,133.201142 L2.133518,132.905863 L2.447468,132.421609 L2.73283,131.754823 L2.990967,130.911949 L3.223245,129.899433 L3.431028,128.723718 L3.615681,127.391248 L3.778569,125.908469 L3.921058,124.281823 L4.04451,122.517756 L4.150292,120.622713 L4.239769,118.603136 L4.314305,116.465471 L4.375264,114.216161 L4.424012,111.861652 L4.461914,109.408387 L4.490334,106.862811 L4.510637,104.231368 L4.524189,101.520502 L4.532353,98.736658 L4.536494,95.88628 L4.537979,92.975813 L4.53817,90.0117 L4.53817,90.0117 L4.53817,89.803333 L4.53817,89.594967 L4.53817,89.3866 L4.53817,89.178233 L4.53817,88.969867 L4.53817,88.7615 L4.53817,88.553133 L4.53817,88.344767 L4.53817,88.1364 L4.53817,87.928033 L4.53817,87.719667 L4.53817,87.5113 L4.53817,87.302933 L4.53817,87.094567 L4.53817,86.8862 L4.53817,86.677833 L4.53817,86.469467 L4.53817,86.2611 L4.53817,86.052733 L4.53817,85.844367 L4.53817,85.636 L4.53817,85.427633 L4.53817,85.219267 L4.53817,85.0109 L4.56816,82.367653 L4.609406,79.77977 L4.661546,77.25233 L4.72422,74.790411 L4.797067,72.399089 L4.879727,70.083442 L4.971838,67.848548 L5.07304,65.699485 L5.182971,63.64133 L5.301273,61.67916 L5.427582,59.818053 L5.56154,58.063087 L5.702785,56.41934 L5.850956,54.891888 L6.005692,53.485809 L6.166634,52.206181 L6.333419,51.058082 L6.505688,50.046589 L6.68308,49.176779 L6.865233,48.453731 L7.051787,47.882521 L7.242382,47.468228 L7.436657,47.215928 L7.63425,47.1307 L7.63425,47.1307 L7.848059,47.230563 L8.058011,47.525854 L8.26364,48.010129 L8.464479,48.676942 L8.660064,49.519847 L8.849927,50.5324 L9.033603,51.708155 L9.210627,53.040667 L9.380531,54.52349 L9.542851,56.150179 L9.69712,57.914289 L9.842872,59.809375 L9.979642,61.828991 L10.106964,63.966692 L10.22437,66.216032 L10.331397,68.570567 L10.427577,71.02385 L10.512444,73.569437 L10.585534,76.200883 L10.646379,78.911742 L10.694514,81.695568 L10.729474,84.545917 L10.750791,87.456342 L10.758,90.4204 L10.758,90.4204 L10.758,90.403371 L10.758,90.386342 L10.758,90.369313 L10.758,90.352283 L10.758,90.335254 L10.758,90.318225 L10.758,90.301196 L10.758,90.284167 L10.758,90.267138 L10.758,90.250108 L10.758,90.233079 L10.758,90.21605 L10.758,90.199021 L10.758,90.181992 L10.758,90.164963 L10.758,90.147933 L10.758,90.130904 L10.758,90.113875 L10.758,90.096846 L10.758,90.079817 L10.758,90.062787 L10.758,90.045758 L10.758,90.028729 L10.758,90.0117 L10.758613,92.975813 L10.763047,95.88628 L10.775195,98.736658 L10.798951,101.520502 L10.838207,104.231368 L10.896856,106.862811 L10.978792,109.408387 L11.087907,111.861652 L11.228095,114.216161 L11.403249,116.465471 L11.617261,118.603136 L11.874025,120.622713 L12.177434,122.517756 L12.53138,124.281823 L12.939758,125.908469 L13.406459,127.391248 L13.935378,128.723718 L14.530406,129.899433 L15.195438,130.911949 L15.934366,131.754823 L16.751083,132.421609 L17.649482,132.905863 L18.633457,133.201142 L19.7069,133.301 L19.7069,133.301 L20.780343,133.201142 L21.764316,132.905863 L22.662713,132.421609 L23.479427,131.754823 L24.218351,130.911949 L24.883378,129.899433 L25.478402,128.723718 L26.007315,127.391248 L26.474011,125.908469 L26.882382,124.281823 L27.236322,122.517756 L27.539725,120.622713 L27.796483,118.603136 L28.010489,116.465471 L28.185636,114.216161 L28.325819,111.861652 L28.434928,109.408387 L28.516859,106.862811 L28.575504,104.231368 L28.614756,101.520502 L28.638509,98.736658 L28.650655,95.88628 L28.655088,92.975813 L28.6557,90.0117 L28.6557,90.0117 L28.6557,89.803333 L28.6557,89.594967 L28.6557,89.3866 L28.6557,89.178233 L28.6557,88.969867 L28.6557,88.7615 L28.6557,88.553133 L28.6557,88.344767 L28.6557,88.1364 L28.6557,87.928033 L28.6557,87.719667 L28.6557,87.5113 L28.6557,87.302933 L28.6557,87.094567 L28.6557,86.8862 L28.6557,86.677833 L28.6557,86.469467 L28.6557,86.2611 L28.6557,86.052733 L28.6557,85.844367 L28.6557,85.636 L28.6557,85.427633 L28.6557,85.219267 L28.6557,85.0109 L28.740699,82.367618 L28.858195,79.779634 L29.007136,77.252034 L29.186469,74.7899 L29.395143,72.398315 L29.632105,70.082364 L29.896303,67.84713 L30.186685,65.697696 L30.502199,63.639147 L30.841793,61.676565 L31.204415,59.815034 L31.589012,58.059637 L31.994533,56.415459 L32.419925,54.887583 L32.864137,53.481092 L33.326115,52.20107 L33.804808,51.052601 L34.299164,50.040767 L34.808131,49.170653 L35.330656,48.447342 L35.865688,47.875918 L36.412174,47.461464 L36.969062,47.209063 L37.5353,47.1238 L37.5353,47.1238 L38.100151,47.203055 L38.653096,47.437786 L39.193416,47.823441 L39.720387,48.355469 L40.233289,49.029318 L40.7314,49.840438 L41.213998,50.784276 L41.680363,51.856281 L42.129772,53.051903 L42.561504,54.366589 L42.974837,55.795789 L43.36905,57.33495 L43.743421,58.979522 L44.09723,60.724952 L44.429753,62.566691 L44.74027,64.500185 L45.02806,66.520885 L45.2924,68.624238 L45.532569,70.805692 L45.747846,73.060698 L45.937509,75.384703 L46.100837,77.773156 L46.237108,80.221505 L46.3456,82.7252 L46.3456,82.7252 L46.3456,83.028517 L46.3456,83.331833 L46.3456,83.63515 L46.3456,83.938467 L46.3456,84.241783 L46.3456,84.5451 L46.3456,84.848417 L46.3456,85.151733 L46.3456,85.45505 L46.3456,85.758367 L46.3456,86.061683 L46.3456,86.365 L46.3456,86.668317 L46.3456,86.971633 L46.3456,87.27495 L46.3456,87.578267 L46.3456,87.881583 L46.3456,88.1849 L46.3456,88.488217 L46.3456,88.791533 L46.3456,89.09485 L46.3456,89.398167 L46.3456,89.701483 L46.3456,90.0048 L46.344787,92.969755 L46.347884,95.881023 L46.363198,98.732159 L46.399033,101.516718 L46.463695,104.228254 L46.565489,106.860322 L46.712721,109.406477 L46.913696,111.860274 L47.17672,114.215268 L47.510098,116.465012 L47.922135,118.603063 L48.421137,120.622975 L49.01541,122.518302 L49.713258,124.2826 L50.522988,125.909423 L51.452904,127.392326 L52.511312,128.724864 L53.706517,129.900591 L55.046826,130.913062 L56.540542,131.755832 L58.195972,132.422457 L60.021422,132.906489 L62.025196,133.201486 L64.2156,133.301 L64.2156,133.301 L66.405729,133.200912 L68.409274,132.905443 L70.234538,132.421035 L71.889825,131.754128 L73.383434,130.911166 L74.72367,129.898589 L75.918835,128.72284 L76.97723,127.390359 L77.907158,125.90759 L78.716921,124.280973 L79.414822,122.51695 L80.009163,120.621962 L80.508245,118.602453 L80.920373,116.464863 L81.253847,114.215634 L81.51697,111.861207 L81.718045,109.408025 L81.865373,106.86253 L81.967258,104.231162 L82.032,101.520363 L82.067904,98.736576 L82.08327,95.886242 L82.086401,92.975803 L82.0856,90.0117 L82.0856,89.803333 L82.0856,89.594967 L82.0856,89.3866 L82.0856,89.178233 L82.0856,88.969867 L82.0856,88.7615 L82.0856,88.553133 L82.0856,88.344767 L82.0856,88.1364 L82.0856,87.928033 L82.0856,87.719667 L82.0856,87.5113 L82.0856,87.302933 L82.0856,87.094567 L82.0856,86.8862 L82.0856,86.677833 L82.0856,86.469467 L82.0856,86.2611 L82.0856,86.052733 L82.0856,85.844367 L82.0856,85.636 L82.0856,85.427633 L82.0856,85.219267 L82.0856,85.0109 L82.256285,82.367618 L82.491624,79.779634 L82.789536,77.252034 L83.147936,74.7899 L83.564741,72.398315 L84.037869,70.082364 L84.565235,67.84713 L85.144756,65.697696 L85.774348,63.639147 L86.45193,61.676565 L87.175416,59.815034 L87.942725,58.059637 L88.751772,56.415459 L89.600474,54.887583 L90.486748,53.481092 L91.408511,52.20107 L92.363679,51.052601 L93.350169,50.040767 L94.365897,49.170653 L95.408781,48.447342 L96.476736,47.875918 L97.56768,47.461464 L98.679529,47.209063 L99.8102,47.1238 L99.8102,47.1238 L101.033743,47.223663 L102.235148,47.518954 L103.411755,48.003229 L104.560903,48.670042 L105.679931,49.512947 L106.766178,50.5255 L107.816984,51.701255 L108.829689,53.033767 L109.801631,54.51659 L110.73015,56.143279 L111.612585,57.907389 L112.446275,59.802475 L113.22856,61.822091 L113.95678,63.959792 L114.628272,66.209132 L115.240378,68.563667 L115.790435,71.01695 L116.275784,73.562538 L116.693764,76.193983 L117.041714,78.904842 L117.316973,81.688668 L117.516881,84.539017 L117.638777,87.449442 L117.68,90.4135 L117.68,90.396471 L117.68,90.379442 L117.68,90.362413 L117.68,90.345383 L117.68,90.328354 L117.68,90.311325 L117.68,90.294296 L117.68,90.277267 L117.68,90.260238 L117.68,90.243208 L117.68,90.226179 L117.68,90.20915 L117.68,90.192121 L117.68,90.175092 L117.68,90.158062 L117.68,90.141033 L117.68,90.124004 L117.68,90.106975 L117.68,90.089946 L117.68,90.072917 L117.68,90.055887 L117.68,90.038858 L117.68,90.021829 L117.68,90.0048 L117.714385,92.968906 L117.819497,95.879377 L117.99827,98.729768 L118.253639,101.513634 L118.588539,104.22453 L119.005906,106.856009 L119.508674,109.401628 L120.099778,111.854941 L120.782152,114.209502 L121.558733,116.458867 L122.432454,118.596589 L123.40625,120.616225 L124.483057,122.511328 L125.665809,124.275454 L126.957441,125.902157 L128.360889,127.384993 L129.879086,128.717515 L131.514969,129.893278 L133.271471,130.905838 L135.151528,131.748749 L137.158074,132.415566 L139.294045,132.899844 L141.562375,133.195137 L143.966,133.295 L143.966,133.295 L146.36962,133.195137 L148.637935,132.899844 L150.773883,132.415566 L152.780398,131.748749 L154.660417,130.905838 L156.416875,129.893278 L158.052708,128.717515 L159.570852,127.384993 L160.974242,125.902157 L162.265815,124.275454 L163.448505,122.511328 L164.52525,120.616225 L165.498984,118.596589 L166.372644,116.458867 L167.149164,114.209502 L167.831481,111.854941 L168.422532,109.401628 L168.92525,106.856009 L169.342573,104.22453 L169.677435,101.513634 L169.932773,98.729768 L170.111523,95.879377 L170.21662,92.968906 L170.251,90.0048 L170.251,90.0048 L170.251,90.021829 L170.251,90.038858 L170.251,90.055887 L170.251,90.072917 L170.251,90.089946 L170.251,90.106975 L170.251,90.124004 L170.251,90.141033 L170.251,90.158062 L170.251,90.175092 L170.251,90.192121 L170.251,90.20915 L170.251,90.226179 L170.251,90.243208 L170.251,90.260238 L170.251,90.277267 L170.251,90.294296 L170.251,90.311325 L170.251,90.328354 L170.251,90.345383 L170.251,90.362413 L170.251,90.379442 L170.251,90.396471 L170.251,90.4135 L170.311639,87.449442 L170.490948,84.539017 L170.785012,81.688668 L171.189917,78.904842 L171.701749,76.193983 L172.316594,73.562537 L173.030538,71.01695 L173.839667,68.563667 L174.740066,66.209132 L175.727823,63.959792 L176.799022,61.822091 L177.94975,59.802475 L179.176092,57.907389 L180.474135,56.143279 L181.839965,54.51659 L183.269667,53.033767 L184.759327,51.701255 L186.305031,50.5255 L187.902866,49.512947 L189.548917,48.670042 L191.23927,48.003229 L192.97001,47.518954 L194.737225,47.223663 L196.537,47.1238 L196.537,47.1238 L198.336655,47.223663 L200.10376,47.518954 L201.8344,48.003229 L203.524662,48.670042 L205.17063,49.512947 L206.768391,50.5255 L208.314029,51.701255 L209.80363,53.033767 L211.233279,54.51659 L212.599063,56.143279 L213.897066,57.907389 L215.123375,59.802475 L216.274074,61.822091 L217.345249,63.959792 L218.332986,66.209132 L219.23337,68.563667 L220.042487,71.01695 L220.756422,73.562538 L221.37126,76.193983 L221.883088,78.904842 L222.28799,81.688668 L222.582053,84.539017 L222.761361,87.449442 L222.822,90.4135 L222.822,90.396471 L222.822,90.379442 L222.822,90.362413 L222.822,90.345383 L222.822,90.328354 L222.822,90.311325 L222.822,90.294296 L222.822,90.277267 L222.822,90.260238 L222.822,90.243208 L222.822,90.226179 L222.822,90.20915 L222.822,90.192121 L222.822,90.175092 L222.822,90.158062 L222.822,90.141033 L222.822,90.124004 L222.822,90.106975 L222.822,90.089946 L222.822,90.072917 L222.822,90.055887 L222.822,90.038858 L222.822,90.021829 L222.822,90.0048 L222.856385,92.968906 L222.961497,95.879377 L223.14027,98.729768 L223.395639,101.513634 L223.730539,104.22453 L224.147906,106.856009 L224.650674,109.401628 L225.241778,111.854941 L225.924152,114.209502 L226.700733,116.458867 L227.574454,118.596589 L228.54825,120.616225 L229.625057,122.511328 L230.807809,124.275454 L232.099441,125.902157 L233.502889,127.384993 L235.021086,128.717515 L236.656969,129.893278 L238.413471,130.905838 L240.293528,131.748749 L242.300074,132.415566 L244.436045,132.899844 L246.704375,133.195137 L249.108,133.295 L249.108,133.295 L251.51162,133.195137 L253.779935,132.899844 L255.915883,132.415566 L257.922398,131.748749 L259.802417,130.905838 L261.558875,129.893278 L263.194708,128.717515 L264.712852,127.384993 L266.116242,125.902157 L267.407815,124.275454 L268.590505,122.511328 L269.66725,120.616225 L270.640984,118.596589 L271.514644,116.458867 L272.291164,114.209502 L272.973481,111.854941 L273.564532,109.401628 L274.06725,106.856009 L274.484573,104.22453 L274.819435,101.513634 L275.074773,98.729768 L275.253523,95.879377 L275.35862,92.968906 L275.393,90.0048 L275.393,90.0048 L275.393,85.016671 L275.393,80.028542 L275.393,75.040413 L275.393,70.052283 L275.393,65.064154 L275.393,60.076025 L275.393,55.087896 L275.393,50.099767 L275.393,45.111638 L275.393,40.123508 L275.393,35.135379 L275.393,30.14725 L275.393,25.159121 L275.393,20.170992 L275.393,15.182862 L275.393,10.194733 L275.393,5.206604 L275.393,0.218475 L275.393,0 L215.869426,0 L215.123375,1.30941 L213.897066,3.204497 L212.599063,4.968609 L211.233279,6.5953 L209.80363,8.078124 L208.314029,9.410638 L206.768391,10.586394 L205.17063,11.598949 L203.524662,12.441856 L201.8344,13.108669 L200.10376,13.592945 L198.336655,13.888237 L196.537,13.9881 L194.737225,13.888237 L192.97001,13.592945 L191.23927,13.108669 L189.548917,12.441856 L187.902866,11.598949 L186.305031,10.586394 L184.759327,9.410638 L183.269667,8.078124 L181.839965,6.5953 L180.474135,4.968609 L179.176092,3.204497 L177.94975,1.30941 L177.203681,0 L112.953466,0 L112.446275,1.30941 L111.612585,3.204497 L110.73015,4.968609 L109.801631,6.5953 L108.829689,8.078124 L107.816984,9.410638 L106.766178,10.586394 L105.679931,11.598949 L104.560903,12.441856 L103.411755,13.108669 L102.235148,13.592945 L101.033743,13.888237 L99.8102,13.9881 L99.8102,13.9881 L98.680321,13.902871 L97.569129,13.650568 L96.478717,13.236265 L95.411176,12.665037 L94.3686,11.941957 L93.35308,11.072102 L92.366708,10.060544 L91.411578,8.912359 L90.489781,7.632622 L89.603409,6.226406 L88.754556,4.698786 L87.945312,3.054838 L87.177772,1.299634 L86.672446,0 L44.121712,0 L44.051766,0.37999 L43.691826,2.125426 L43.3119,3.770004 L42.912926,5.309171 L42.495842,6.738376 L42.061586,8.053068 L41.611096,9.248695 L41.14531,10.320705 L40.665166,11.264548 L40.171601,12.075672 L39.665554,12.749525 L39.147962,13.281555 L38.619764,13.667213 L38.081897,13.901945 L37.5353,13.9812 L37.5353,13.9812 L36.987395,13.895971 L36.445791,13.643668 L35.911736,13.229365 L35.386482,12.658136 L34.871281,11.935056 L34.367381,11.0652 L33.876035,10.053642 L33.398493,8.905457 L32.936005,7.625719 L32.489822,6.219503 L32.061195,4.691883 L31.651375,3.047934 L31.261612,1.29273 L31.00572,0 L9.938978,0 L9.849833,1.316317 L9.704075,3.211404 L9.549801,4.975515 L9.387477,6.602205 L9.217567,8.085029 L9.04054,9.417541 L8.856859,10.593297 L8.666993,11.605851 L8.471405,12.448757 L8.270563,13.11557 L8.064933,13.599845 L7.85498,13.895137 L7.64117,13.995 L7.64117,13.995 L7.443542,13.909772 L7.24917,13.657473 L7.058423,13.243181 L6.871672,12.671972 L6.689285,11.948926 L6.511634,11.079118 L6.339086,10.067627 L6.172014,8.91953 L6.010785,7.639904 L5.85577,6.233827 L5.707339,4.706377 L5.565861,3.062631 L5.431707,1.307667 L5.342851,0 L0,0 L0,131.441397 Z" fill="#121212"/>
</svg>
