<svg xmlns="http://www.w3.org/2000/svg" viewBox="250 375 125 125" width="200" height="200">
  <rect x="250" y="375" width="125" height="125" fill="#F3F3F3"/>
  <path d="M355.14367,367.701127 L356.006915,367.700266 L356.794553,367.69943 L357.468778,367.69863 L357.991784,367.697878 L358.325766,367.697188 L358.432916,367.69657 L358.275431,367.696037 L357.815502,367.695602 L357.015325,367.695275 L355.837093,367.695071 L354.243,367.695 L354.243,367.695 L354.114608,367.702124 L354.242625,367.702 Z M275.386,420.55225 L275.386,425.540375 L275.386,430.5285 L275.386,435.516625 L275.386,440.50475 L275.386,445.492875 L275.386,450.481 L275.386,455.469125 L275.386,460.45725 L275.386,465.445375 L275.386,470.4335 L275.386,475.421625 L275.386,480.40975 L275.386,485.397875 L275.386,490.386 L275.386,495.374125 L275.386,500 L282.902776,500 L283.08475,499.680625 L284.311092,497.785556 L285.609135,496.021459 L286.974965,494.394779 L288.404667,492.911963 L289.894327,491.579456 L291.440031,490.403703 L293.037866,489.391151 L294.683917,488.548245 L296.37427,487.881432 L298.10501,487.397156 L299.872225,487.101863 L301.672,487.002 L301.672,487.002 L303.471655,487.101863 L305.23876,487.397156 L306.9694,487.881432 L308.659662,488.548245 L310.30563,489.391151 L311.903391,490.403703 L313.449029,491.579456 L314.93863,492.911963 L316.368279,494.394779 L317.734063,496.021459 L319.032066,497.785556 L320.258375,499.680625 L320.440344,500 L385.63804,500 L385.76175,499.680625 L386.595447,497.785556 L387.47789,496.021459 L388.406418,494.394779 L389.37837,492.911963 L390.391087,491.579456 L391.441906,490.403703 L392.528169,489.391151 L393.647213,488.548245 L394.796379,487.881432 L395.973006,487.397156 L397.174433,487.101863 L398.398,487.002 L398.398,487.002 L399.527859,487.087227 L400.639042,487.339526 L401.729455,487.753822 L402.797005,488.325042 L403.839598,489.04811 L404.855141,489.917953 L405.84154,490.929497 L406.796704,492.077667 L407.718537,493.357389 L408.604947,494.763589 L409.453841,496.291192 L410.263125,497.935125 L411.030706,499.690313 L411.151126,500 L454.282536,500 L454.516711,498.864416 L454.896625,497.219875 L455.295586,495.680745 L455.712656,494.251578 L456.146896,492.936924 L456.59737,491.741333 L457.063139,490.669357 L457.543266,489.725547 L458.036811,488.914452 L458.542838,488.240625 L459.060408,487.708615 L459.588584,487.322974 L460.126427,487.088252 L460.673,487.009 L460.673,487.009 L461.220931,487.094262 L461.762632,487.34666 L462.296844,487.761109 L462.822306,488.332528 L463.337757,489.055832 L463.841937,489.925937 L464.333587,490.937762 L464.811444,492.086222 L465.27425,493.366234 L465.720743,494.772715 L466.149663,496.300582 L466.55975,497.94475 L466.949743,499.700137 L467.009125,500 L488.343944,500 L488.365125,499.68725 L488.510883,497.792215 L488.66516,496.028155 L488.82749,494.401516 L488.997407,492.918741 L489.174446,491.586275 L489.358141,490.410563 L489.548025,489.398048 L489.743634,488.555176 L489.944502,487.888391 L490.150163,487.404137 L490.360151,487.108858 L490.574,487.009 L490.574,487.009 L490.771621,487.094227 L490.965986,487.346522 L491.156727,487.760809 L491.343472,488.332009 L491.525853,489.055047 L491.7035,489.924844 L491.876043,490.936323 L492.043111,492.084407 L492.204336,493.36402 L492.359347,494.770082 L492.507775,496.297518 L492.64925,497.94125 L492.783402,499.696201 L492.804045,500 L499.918,500 L499.918,495.783125 L499.918,490.795 L499.918,485.806875 L499.918,480.81875 L499.918,475.830625 L499.918,470.8425 L499.918,465.854375 L499.918,460.86625 L499.918,455.878125 L499.918,450.89 L499.918,445.901875 L499.918,440.91375 L499.918,435.925625 L499.918,430.9375 L499.918,425.949375 L499.918,420.96125 L499.918,415.973125 L499.918,410.985 L499.917774,408.020918 L499.916192,405.110469 L499.911898,402.260098 L499.903537,399.47625 L499.889752,396.765371 L499.869188,394.133906 L499.840488,391.588301 L499.802296,389.135 L499.753258,386.780449 L499.692016,384.531094 L499.617216,382.393379 L499.5275,380.37375 L499.421514,378.478652 L499.2979,376.714531 L499.155305,375.087832 L498.99237,373.605 L498.807742,372.27248 L498.600062,371.096719 L498.367977,370.08416 L498.11013,369.24125 L497.825164,368.574434 L497.511725,368.090156 L497.168455,367.794863 L496.794,367.695 L496.794,367.695 L496.419545,367.794863 L496.076275,368.090156 L495.762836,368.574434 L495.47787,369.24125 L495.220023,370.08416 L494.987937,371.096719 L494.780258,372.27248 L494.59563,373.605 L494.432695,375.087832 L494.2901,376.714531 L494.166486,378.478652 L494.0605,380.37375 L493.970784,382.393379 L493.895984,384.531094 L493.834742,386.780449 L493.785704,389.135 L493.747512,391.588301 L493.718812,394.133906 L493.698248,396.765371 L493.684463,399.47625 L493.676102,402.260098 L493.671808,405.110469 L493.670226,408.020918 L493.67,410.985 L493.67,410.985 L493.67,411.193375 L493.67,411.40175 L493.67,411.610125 L493.67,411.8185 L493.67,412.026875 L493.67,412.23525 L493.67,412.443625 L493.67,412.652 L493.67,412.860375 L493.67,413.06875 L493.67,413.277125 L493.67,413.4855 L493.67,413.693875 L493.67,413.90225 L493.67,414.110625 L493.67,414.319 L493.67,414.527375 L493.67,414.73575 L493.67,414.944125 L493.67,415.1525 L493.67,415.360875 L493.67,415.56925 L493.67,415.777625 L493.67,415.986 L493.640003,418.629258 L493.598752,421.217147 L493.546607,423.74459 L493.483931,426.206509 L493.411082,428.597828 L493.328422,430.913469 L493.236311,433.148354 L493.135111,435.297407 L493.025182,437.355551 L492.906884,439.317707 L492.780578,441.178799 L492.646625,442.93375 L492.505386,444.577482 L492.35722,446.104918 L492.20249,447.51098 L492.041556,448.790593 L491.874777,449.938677 L491.702516,450.950156 L491.525132,451.819953 L491.342986,452.542991 L491.156439,453.114191 L490.965852,453.528478 L490.771586,453.780773 L490.574,453.866 L490.574,453.866 L490.360151,453.766137 L490.150163,453.470844 L489.944502,452.986566 L489.743634,452.31975 L489.548025,451.47684 L489.358141,450.464281 L489.174446,449.28852 L488.997407,447.956 L488.82749,446.473168 L488.66516,444.846469 L488.510883,443.082348 L488.365125,441.18725 L488.228351,439.167621 L488.101027,437.029906 L487.983619,434.780551 L487.876593,432.426 L487.780413,429.972699 L487.695547,427.427094 L487.622459,424.795629 L487.561616,422.08475 L487.513482,419.300902 L487.478525,416.450531 L487.457209,413.540082 L487.45,410.576 L487.45,410.593042 L487.45,410.610083 L487.45,410.627125 L487.45,410.644167 L487.45,410.661208 L487.45,410.67825 L487.45,410.695292 L487.45,410.712333 L487.45,410.729375 L487.45,410.746417 L487.45,410.763458 L487.45,410.7805 L487.45,410.797542 L487.45,410.814583 L487.45,410.831625 L487.45,410.848667 L487.45,410.865708 L487.45,410.88275 L487.45,410.899792 L487.45,410.916833 L487.45,410.933875 L487.45,410.950917 L487.45,410.967958 L487.45,410.985 L487.449353,408.020918 L487.444822,405.110469 L487.432523,402.260098 L487.408574,399.47625 L487.36909,396.765371 L487.310187,394.133906 L487.227983,391.588301 L487.118593,389.135 L486.978133,386.780449 L486.80272,384.531094 L486.58847,382.393379 L486.3315,380.37375 L486.027926,378.478652 L485.673863,376.714531 L485.26543,375.087832 L484.798741,373.605 L484.269913,372.27248 L483.675063,371.096719 L483.010306,370.08416 L482.271759,369.24125 L481.455539,368.574434 L480.557762,368.090156 L479.574543,367.794863 L478.502,367.695 L478.502,367.695 L477.429337,367.794863 L476.446009,368.090156 L475.548131,368.574434 L474.731819,369.24125 L473.99319,370.08416 L473.328359,371.096719 L472.733442,372.27248 L472.204556,373.605 L471.737814,375.087832 L471.329335,376.714531 L470.975233,378.478652 L470.671625,380.37375 L470.414626,382.393379 L470.200352,384.531094 L470.02492,386.780449 L469.884444,389.135 L469.775042,391.588301 L469.692828,394.133906 L469.633919,396.765371 L469.594431,399.47625 L469.570479,402.260098 L469.558179,405.110469 L469.553647,408.020918 L469.553,410.985 L469.553,410.985 L469.553,411.193375 L469.553,411.40175 L469.553,411.610125 L469.553,411.8185 L469.553,412.026875 L469.553,412.23525 L469.553,412.443625 L469.553,412.652 L469.553,412.860375 L469.553,413.06875 L469.553,413.277125 L469.553,413.4855 L469.553,413.693875 L469.553,413.90225 L469.553,414.110625 L469.553,414.319 L469.553,414.527375 L469.553,414.73575 L469.553,414.944125 L469.553,415.1525 L469.553,415.360875 L469.553,415.56925 L469.553,415.777625 L469.553,415.986 L469.468024,418.629293 L469.350549,421.217285 L469.201625,423.744891 L469.022306,426.207028 L468.813642,428.598613 L468.576687,430.914562 L468.312493,433.149793 L468.022111,435.299222 L467.706594,437.357766 L467.366993,439.32034 L467.004361,441.181863 L466.61975,442.93725 L466.214212,444.581418 L465.788799,446.109285 L465.344562,447.515766 L464.882556,448.795778 L464.40383,449.944238 L463.909437,450.956062 L463.400431,451.826168 L462.877861,452.549472 L462.342781,453.120891 L461.796243,453.53534 L461.239299,453.787738 L460.673,453.873 L460.673,453.873 L460.108209,453.793743 L459.555317,453.559006 L459.015045,453.173342 L458.488116,452.641301 L457.975251,451.967435 L457.477172,451.156297 L456.994601,450.212437 L456.528259,449.140407 L456.078869,447.94476 L455.647152,446.630046 L455.23383,445.200817 L454.839625,443.661625 L454.465258,442.017022 L454.111452,440.271558 L453.778928,438.429787 L453.468407,436.496259 L453.180613,434.475527 L452.916266,432.372141 L452.676088,430.190653 L452.460801,427.935616 L452.271127,425.61158 L452.107788,423.223098 L451.971505,420.774721 L451.863,418.271 L451.863,418.271 L451.863,417.967708 L451.863,417.664417 L451.863,417.361125 L451.863,417.057833 L451.863,416.754542 L451.863,416.45125 L451.863,416.147958 L451.863,415.844667 L451.863,415.541375 L451.863,415.238083 L451.863,414.934792 L451.863,414.6315 L451.863,414.328208 L451.863,414.024917 L451.863,413.721625 L451.863,413.418333 L451.863,413.115042 L451.863,412.81175 L451.863,412.508458 L451.863,412.205167 L451.863,411.901875 L451.863,411.598583 L451.863,411.295292 L451.863,410.992 L451.863799,408.027918 L451.86066,405.117469 L451.845283,402.267098 L451.809366,399.48325 L451.744606,396.772371 L451.642703,394.140906 L451.495355,391.595301 L451.294259,389.142 L451.031115,386.787449 L450.697621,384.538094 L450.285475,382.400379 L449.786375,380.38075 L449.19202,378.485652 L448.494108,376.721531 L447.684338,375.094832 L446.754407,373.612 L445.696015,372.27948 L444.500859,371.103719 L443.160639,370.09116 L441.667051,369.24825 L440.011795,368.581434 L438.186569,368.097156 L436.183071,367.801863 L433.993,367.702 L433.993,367.702 L431.802814,367.801863 L429.799221,368.097156 L427.973918,368.581434 L426.318602,369.24825 L424.82497,370.09116 L423.484719,371.103719 L422.289546,372.27948 L421.231148,373.612 L420.301223,375.094832 L419.491466,376.721531 L418.793577,378.485652 L418.19925,380.38075 L417.700184,382.400379 L417.288075,384.538094 L416.954621,386.787449 L416.691519,389.142 L416.490465,391.595301 L416.343156,394.140906 L416.241291,396.772371 L416.176565,399.48325 L416.140676,402.267098 L416.125321,405.117469 L416.122196,408.027918 L416.123,410.992 L416.123,410.992 L416.123,411.200375 L416.123,411.40875 L416.123,411.617125 L416.123,411.8255 L416.123,412.033875 L416.123,412.24225 L416.123,412.450625 L416.123,412.659 L416.123,412.867375 L416.123,413.07575 L416.123,413.284125 L416.123,413.4925 L416.123,413.700875 L416.123,413.90925 L416.123,414.117625 L416.123,414.326 L416.123,414.534375 L416.123,414.74275 L416.123,414.951125 L416.123,415.1595 L416.123,415.367875 L416.123,415.57625 L416.123,415.784625 L416.123,415.993 L415.952347,418.636293 L415.717029,421.224285 L415.419129,423.751891 L415.060731,426.214028 L414.643921,428.605613 L414.170781,430.921562 L413.643397,433.156793 L413.063852,435.306222 L412.43423,437.364766 L411.756617,439.32734 L411.033095,441.188863 L410.26575,442.94425 L409.456665,444.588418 L408.607925,446.116285 L407.721613,447.522766 L406.799815,448.802778 L405.844614,449.951238 L404.858094,450.963063 L403.84234,451.833168 L402.799435,452.556472 L401.731465,453.127891 L400.640513,453.54234 L399.528663,453.794738 L398.398,453.88 L398.398,453.88 L397.174433,453.780137 L395.973006,453.484844 L394.796379,453.000566 L393.647213,452.33375 L392.528169,451.49084 L391.441906,450.478281 L390.391087,449.30252 L389.37837,447.97 L388.406418,446.487168 L387.47789,444.860469 L386.595447,443.096348 L385.76175,441.20125 L384.979459,439.181621 L384.251235,437.043906 L383.579738,434.794551 L382.96763,432.44 L382.41757,429.986699 L381.932219,427.441094 L381.514238,424.809629 L381.166287,422.09875 L380.891027,419.314902 L380.691119,416.464531 L380.569223,413.554082 L380.528,410.59 L380.528,410.59 L380.528,410.607042 L380.528,410.624083 L380.528,410.641125 L380.528,410.658167 L380.528,410.675208 L380.528,410.69225 L380.528,410.709292 L380.528,410.726333 L380.528,410.743375 L380.528,410.760417 L380.528,410.777458 L380.528,410.7945 L380.528,410.811542 L380.528,410.828583 L380.528,410.845625 L380.528,410.862667 L380.528,410.879708 L380.528,410.89675 L380.528,410.913792 L380.528,410.930833 L380.528,410.947875 L380.528,410.964917 L380.528,410.981958 L380.528,410.999 L380.467361,408.034918 L380.288053,405.124469 L379.99399,402.274098 L379.589088,399.49025 L379.07726,396.779371 L378.462422,394.147906 L377.748487,391.602301 L376.93937,389.149 L376.038986,386.794449 L375.051249,384.545094 L373.980074,382.407379 L372.829375,380.38775 L371.603066,378.492652 L370.305063,376.728531 L368.939279,375.101832 L367.50963,373.619 L366.020029,372.28648 L364.474391,371.110719 L362.87663,370.09816 L361.230662,369.25525 L359.5404,368.588434 L357.80976,368.104156 L356.042655,367.808863 L354.243,367.709 L354.243,367.709 L353.990889,367.708989 L352.443225,367.794863 L350.67601,368.090156 L348.94527,368.574434 L347.254917,369.24125 L345.608866,370.08416 L344.011031,371.096719 L342.465327,372.27248 L340.975667,373.605 L339.545965,375.087832 L338.180135,376.714531 L336.882092,378.478652 L335.65575,380.37375 L334.505022,382.393379 L333.433823,384.531094 L332.446066,386.780449 L331.545667,389.135 L330.736538,391.588301 L330.022594,394.133906 L329.407749,396.765371 L328.895917,399.47625 L328.491012,402.260098 L328.196948,405.110469 L328.017639,408.020918 L327.957,410.985 L327.957,410.985 L327.957,410.967958 L327.957,410.950917 L327.957,410.933875 L327.957,410.916833 L327.957,410.899792 L327.957,410.88275 L327.957,410.865708 L327.957,410.848667 L327.957,410.831625 L327.957,410.814583 L327.957,410.797542 L327.957,410.7805 L327.957,410.763458 L327.957,410.746417 L327.957,410.729375 L327.957,410.712333 L327.957,410.695292 L327.957,410.67825 L327.957,410.661208 L327.957,410.644167 L327.957,410.627125 L327.957,410.610083 L327.957,410.593042 L327.957,410.576 L327.896361,413.540082 L327.717053,416.450531 L327.42299,419.300902 L327.018088,422.08475 L326.50626,424.795629 L325.891422,427.427094 L325.177487,429.972699 L324.36837,432.426 L323.467986,434.780551 L322.480249,437.029906 L321.409074,439.167621 L320.258375,441.18725 L319.032066,443.082348 L317.734063,444.846469 L316.368279,446.473168 L314.93863,447.956 L313.449029,449.28852 L311.903391,450.464281 L310.30563,451.47684 L308.659662,452.31975 L306.9694,452.986566 L305.23876,453.470844 L303.471655,453.766137 L301.672,453.866 L301.672,453.866 L299.872225,453.766137 L298.10501,453.470844 L296.37427,452.986566 L294.683917,452.31975 L293.037866,451.47684 L291.440031,450.464281 L289.894327,449.28852 L288.404667,447.956 L286.974965,446.473168 L285.609135,444.846469 L284.311092,443.082348 L283.08475,441.18725 L281.934022,439.167621 L280.862823,437.029906 L279.875066,434.780551 L278.974667,432.426 L278.165538,429.972699 L277.451594,427.427094 L276.836749,424.795629 L276.324917,422.08475 L275.920012,419.300902 L275.625948,416.450531 L275.446639,413.540082 L275.386,410.576 L275.386,415.564125 Z" fill="#121212"/>
  <path d="M28.655992,416.782583 L28.656283,416.783167 L28.656575,416.78375 L28.656867,416.784333 L28.657158,416.784917 L28.65745,416.7855 L28.657742,416.786083 L28.658033,416.786667 L28.658325,416.78725 L28.658617,416.787833 L28.658908,416.788417 L28.6592,416.789 L28.659492,416.789583 L28.659783,416.790167 L28.660075,416.79075 L28.660367,416.791333 L28.660658,416.791917 L28.66095,416.7925 L28.661242,416.793083 L28.661533,416.793667 L28.661825,416.79425 L28.662117,416.794833 L28.662408,416.795417 L28.6627,416.796 L28.6627,416.553875 L28.6627,416.31175 L28.6627,416.069625 L28.6627,415.8275 L28.6627,415.585375 L28.6627,415.34325 L28.6627,415.101125 L28.6627,414.859 L28.6627,414.616875 L28.6627,414.37475 L28.6627,414.132625 L28.6627,413.8905 L28.6627,413.648375 L28.6627,413.40625 L28.6627,413.164125 L28.6627,412.922 L28.6627,412.679875 L28.6627,412.43775 L28.6627,412.195625 L28.6627,411.9535 L28.6627,411.711375 L28.6627,411.46925 L28.6627,411.227125 L28.6627,410.985 L28.662052,408.020918 L28.657519,405.110469 L28.645218,402.260098 L28.621263,399.47625 L28.581772,396.765371 L28.522859,394.133906 L28.440643,391.588301 L28.331237,389.135 L28.190759,386.780449 L28.015324,384.531094 L27.801049,382.393379 L27.54405,380.37375 L27.240442,378.478652 L26.886342,376.714531 L26.477866,375.087832 L26.01113,373.605 L25.482249,372.27248 L24.887341,371.096719 L24.22252,370.08416 L23.483904,369.24125 L22.667607,368.574434 L21.769747,368.090156 L20.78644,367.794863 L19.7138,367.695 L19.7138,367.695 L18.641161,367.794863 L17.657855,368.090156 L16.759997,368.574434 L15.943704,369.24125 L15.205091,370.08416 L14.540275,371.096719 L13.945371,372.27248 L13.416496,373.605 L12.949766,375.087832 L12.541295,376.714531 L12.187202,378.478652 L11.8836,380.37375 L11.626607,382.393379 L11.412338,384.531094 L11.236909,386.780449 L11.096437,389.135 L10.987037,391.588301 L10.904825,394.133906 L10.845917,396.765371 L10.80643,399.47625 L10.782478,402.260098 L10.770179,405.110469 L10.765647,408.020918 L10.765,410.985 L10.765,410.985 L10.765,411.002042 L10.765,411.019083 L10.765,411.036125 L10.765,411.053167 L10.765,411.070208 L10.765,411.08725 L10.765,411.104292 L10.765,411.121333 L10.765,411.138375 L10.765,411.155417 L10.765,411.172458 L10.765,411.1895 L10.765,411.206542 L10.765,411.223583 L10.765,411.240625 L10.765,411.257667 L10.765,411.274708 L10.765,411.29175 L10.765,411.308792 L10.765,411.325833 L10.765,411.342875 L10.765,411.359917 L10.765,411.376958 L10.765,411.394 L10.75779,414.358077 L10.736472,417.268512 L10.701511,420.118859 L10.653373,422.902676 L10.592525,425.613517 L10.519432,428.244937 L10.43456,430.790494 L10.338376,433.243741 L10.231345,435.598234 L10.113933,437.84753 L9.986607,439.985183 L9.849833,442.00475 L9.704075,443.899785 L9.549801,445.663845 L9.387477,447.290484 L9.217567,448.773259 L9.04054,450.105725 L8.856859,451.281437 L8.666993,452.293952 L8.471405,453.136824 L8.270563,453.803609 L8.064933,454.287863 L7.85498,454.583142 L7.64117,454.683 L7.64117,454.683 L7.443542,454.597773 L7.24917,454.345478 L7.058423,453.931191 L6.871672,453.359991 L6.689285,452.636953 L6.511634,451.767156 L6.339086,450.755677 L6.172014,449.607593 L6.010785,448.32798 L5.85577,446.921918 L5.707339,445.394482 L5.565861,443.75075 L5.431707,441.995799 L5.305245,440.134707 L5.186846,438.172551 L5.07688,436.114407 L4.975715,433.965354 L4.883723,431.730469 L4.801273,429.414828 L4.728734,427.023509 L4.666477,424.56159 L4.61487,422.034147 L4.574285,419.446258 L4.54509,416.803 L4.54509,416.803 L4.54509,416.560875 L4.54509,416.31875 L4.54509,416.076625 L4.54509,415.8345 L4.54509,415.592375 L4.54509,415.35025 L4.54509,415.108125 L4.54509,414.866 L4.54509,414.623875 L4.54509,414.38175 L4.54509,414.139625 L4.54509,413.8975 L4.54509,413.655375 L4.54509,413.41325 L4.54509,413.171125 L4.54509,412.929 L4.54509,412.686875 L4.54509,412.44475 L4.54509,412.202625 L4.54509,411.9605 L4.54509,411.718375 L4.54509,411.47625 L4.54509,411.234125 L4.54509,410.992 L4.544864,408.027918 L4.543282,405.117469 L4.538989,402.267098 L4.530628,399.48325 L4.516844,396.772371 L4.496281,394.140906 L4.467583,391.595301 L4.429394,389.142 L4.380359,386.787449 L4.319121,384.538094 L4.244326,382.400379 L4.154616,380.38075 L4.048637,378.485652 L3.925032,376.721531 L3.782446,375.094832 L3.619523,373.612 L3.434906,372.27948 L3.227241,371.103719 L2.995171,370.09116 L2.737341,369.24825 L2.452395,368.581434 L2.138976,368.097156 L1.79573,367.801863 L1.4213,367.702 L1.4213,367.702 L1.046871,367.801863 L0.703626,368.097156 L0.390209,368.581434 L0.105263,369.24825 L0,369.592382 L0,500 L5.466221,500 L5.56154,498.75125 L5.702785,497.107518 L5.850956,495.580082 L6.005692,494.17402 L6.166634,492.894407 L6.333419,491.746323 L6.505688,490.734844 L6.68308,489.865047 L6.865233,489.142009 L7.051787,488.570809 L7.242382,488.156522 L7.436657,487.904227 L7.63425,487.819 L7.63425,487.819 L7.848059,487.918863 L8.058011,488.214156 L8.26364,488.698434 L8.464479,489.36525 L8.660064,490.20816 L8.849927,491.220719 L9.033603,492.39648 L9.210627,493.729 L9.380531,495.211832 L9.542851,496.838531 L9.69712,498.602652 L9.80459,500 L31.31465,500 L31.589012,498.74775 L31.994533,497.103582 L32.419925,495.575715 L32.864137,494.169234 L33.326115,492.889222 L33.804808,491.740762 L34.299164,490.728938 L34.808131,489.858832 L35.330656,489.135528 L35.865688,488.564109 L36.412174,488.14966 L36.969062,487.897262 L37.5353,487.812 L37.5353,487.812 L38.100151,487.891257 L38.653096,488.125994 L39.193416,488.511658 L39.720387,489.043699 L40.233289,489.717565 L40.7314,490.528703 L41.213998,491.472563 L41.680363,492.544593 L42.129772,493.74024 L42.561504,495.054954 L42.974837,496.484183 L43.36905,498.023375 L43.743421,499.667978 L43.810723,500 L87.395346,500 L87.942725,498.74775 L88.751772,497.103582 L89.600474,495.575715 L90.486748,494.169234 L91.408511,492.889222 L92.363679,491.740762 L93.350169,490.728938 L94.365897,489.858832 L95.408781,489.135528 L96.476736,488.564109 L97.56768,488.14966 L98.679529,487.897262 L99.8102,487.812 L99.8102,487.812 L101.033743,487.911863 L102.235148,488.207156 L103.411755,488.691434 L104.560903,489.35825 L105.679931,490.20116 L106.766178,491.213719 L107.816984,492.38948 L108.829689,493.722 L109.801631,495.204832 L110.73015,496.831531 L111.612585,498.595652 L112.230385,500 L178.267321,500 L179.176092,498.595652 L180.474135,496.831531 L181.839965,495.204832 L183.269667,493.722 L184.759327,492.38948 L186.305031,491.213719 L187.902866,490.20116 L189.548917,489.35825 L191.23927,488.691434 L192.97001,488.207156 L194.737225,487.911863 L196.537,487.812 L196.537,487.812 L198.336655,487.911863 L200.10376,488.207156 L201.8344,488.691434 L203.524662,489.35825 L205.17063,490.20116 L206.768391,491.213719 L208.314029,492.38948 L209.80363,493.722 L211.233279,495.204832 L212.599063,496.831531 L213.897066,498.595652 L214.805813,500 L275.393,500 L275.393,495.776125 L275.393,490.788 L275.393,485.799875 L275.393,480.81175 L275.393,475.823625 L275.393,470.8355 L275.393,465.847375 L275.393,460.85925 L275.393,455.871125 L275.393,450.883 L275.393,445.894875 L275.393,440.90675 L275.393,435.918625 L275.393,430.9305 L275.393,425.942375 L275.393,420.95425 L275.393,415.966125 L275.393,410.978 L275.35862,408.013918 L275.253523,405.103469 L275.074773,402.253098 L274.819435,399.46925 L274.484573,396.758371 L274.06725,394.126906 L273.564532,391.581301 L272.973481,389.128 L272.291164,386.773449 L271.514644,384.524094 L270.640984,382.386379 L269.66725,380.36675 L268.590505,378.471652 L267.407815,376.707531 L266.116242,375.080832 L264.712852,373.598 L263.194708,372.26548 L261.558875,371.089719 L259.802417,370.07716 L257.922398,369.23425 L255.915883,368.567434 L253.779935,368.083156 L251.51162,367.787863 L249.108,367.688 L249.108,367.688 L246.704375,367.787863 L244.436045,368.083156 L242.300074,368.567434 L240.293528,369.23425 L238.413471,370.07716 L236.656969,371.089719 L235.021086,372.26548 L233.502889,373.598 L232.099441,375.080832 L230.807809,376.707531 L229.625057,378.471652 L228.54825,380.36675 L227.574454,382.386379 L226.700733,384.524094 L225.924152,386.773449 L225.241778,389.128 L224.650674,391.581301 L224.147906,394.126906 L223.730539,396.758371 L223.395639,399.46925 L223.14027,402.253098 L222.961497,405.103469 L222.856385,408.013918 L222.822,410.978 L222.822,410.995042 L222.822,411.012083 L222.822,411.029125 L222.822,411.046167 L222.822,411.063208 L222.822,411.08025 L222.822,411.097292 L222.822,411.114333 L222.822,411.131375 L222.822,411.148417 L222.822,411.165458 L222.822,411.1825 L222.822,411.199542 L222.822,411.216583 L222.822,411.233625 L222.822,411.250667 L222.822,411.267708 L222.822,411.28475 L222.822,411.301792 L222.822,411.318833 L222.822,411.335875 L222.822,411.352917 L222.822,411.369958 L222.822,411.387 L222.761361,414.351082 L222.582053,417.261531 L222.28799,420.111902 L221.883088,422.89575 L221.37126,425.606629 L220.756422,428.238094 L220.042487,430.783699 L219.23337,433.237 L218.332986,435.591551 L217.345249,437.840906 L216.274074,439.978621 L215.123375,441.99825 L213.897066,443.893348 L212.599063,445.657469 L211.233279,447.284168 L209.80363,448.767 L208.314029,450.09952 L206.768391,451.275281 L205.17063,452.28784 L203.524662,453.13075 L201.8344,453.797566 L200.10376,454.281844 L198.336655,454.577137 L196.537,454.677 L196.537,454.677 L194.737225,454.577137 L192.97001,454.281844 L191.23927,453.797566 L189.548917,453.13075 L187.902866,452.28784 L186.305031,451.275281 L184.759327,450.09952 L183.269667,448.767 L181.839965,447.284168 L180.474135,445.657469 L179.176092,443.893348 L177.94975,441.99825 L176.799022,439.978621 L175.727823,437.840906 L174.740066,435.591551 L173.839667,433.237 L173.030538,430.783699 L172.316594,428.238094 L171.701749,425.606629 L171.189917,422.89575 L170.785012,420.111902 L170.490948,417.261531 L170.311639,414.351082 L170.251,411.387 L170.251,411.387 L170.251,411.369958 L170.251,411.352917 L170.251,411.335875 L170.251,411.318833 L170.251,411.301792 L170.251,411.28475 L170.251,411.267708 L170.251,411.250667 L170.251,411.233625 L170.251,411.216583 L170.251,411.199542 L170.251,411.1825 L170.251,411.165458 L170.251,411.148417 L170.251,411.131375 L170.251,411.114333 L170.251,411.097292 L170.251,411.08025 L170.251,411.063208 L170.251,411.046167 L170.251,411.029125 L170.251,411.012083 L170.251,410.995042 L170.251,410.978 L170.21662,408.013918 L170.111523,405.103469 L169.932773,402.253098 L169.677435,399.46925 L169.342573,396.758371 L168.92525,394.126906 L168.422532,391.581301 L167.831481,389.128 L167.149164,386.773449 L166.372644,384.524094 L165.498984,382.386379 L164.52525,380.36675 L163.448505,378.471652 L162.265815,376.707531 L160.974242,375.080832 L159.570852,373.598 L158.052708,372.26548 L156.416875,371.089719 L154.660417,370.07716 L152.780398,369.23425 L150.773883,368.567434 L148.637935,368.083156 L146.36962,367.787863 L143.966,367.688 L143.966,367.688 L141.562375,367.787863 L139.294045,368.083156 L137.158074,368.567434 L135.151528,369.23425 L133.271471,370.07716 L131.514969,371.089719 L129.879086,372.26548 L128.360889,373.598 L126.957441,375.080832 L125.665809,376.707531 L124.483057,378.471652 L123.40625,380.36675 L122.432454,382.386379 L121.558733,384.524094 L120.782152,386.773449 L120.099778,389.128 L119.508674,391.581301 L119.005906,394.126906 L118.588539,396.758371 L118.253639,399.46925 L117.99827,402.253098 L117.819497,405.103469 L117.714385,408.013918 L117.68,410.978 L117.68,410.978 L117.68,410.995042 L117.68,411.012083 L117.68,411.029125 L117.68,411.046167 L117.68,411.063208 L117.68,411.08025 L117.68,411.097292 L117.68,411.114333 L117.68,411.131375 L117.68,411.148417 L117.68,411.165458 L117.68,411.1825 L117.68,411.199542 L117.68,411.216583 L117.68,411.233625 L117.68,411.250667 L117.68,411.267708 L117.68,411.28475 L117.68,411.301792 L117.68,411.318833 L117.68,411.335875 L117.68,411.352917 L117.68,411.369958 L117.68,411.387 L117.638777,414.351082 L117.516881,417.261531 L117.316973,420.111902 L117.041714,422.89575 L116.693764,425.606629 L116.275784,428.238094 L115.790435,430.783699 L115.240378,433.237 L114.628272,435.591551 L113.95678,437.840906 L113.22856,439.978621 L112.446275,441.99825 L111.612585,443.893348 L110.73015,445.657469 L109.801631,447.284168 L108.829689,448.767 L107.816984,450.09952 L106.766178,451.275281 L105.679931,452.28784 L104.560903,453.13075 L103.411755,453.797566 L102.235148,454.281844 L101.033743,454.577137 L99.8102,454.677 L99.8102,454.677 L98.680321,454.591768 L97.569129,454.339454 L96.478717,453.925135 L95.411176,453.353884 L94.3686,452.630778 L93.35308,451.760891 L92.366708,450.749298 L91.411578,449.601074 L90.489781,448.321295 L89.603409,446.915035 L88.754556,445.38737 L87.945312,443.743375 L87.177772,441.988124 L86.454026,440.126694 L85.776168,438.164158 L85.146289,436.105593 L84.566482,433.956072 L84.038839,431.720672 L83.565453,429.404467 L83.148415,427.012532 L82.789819,424.549943 L82.491756,422.021775 L82.256319,419.433102 L82.0856,416.789 L82.0856,416.789 L82.0856,416.546875 L82.0856,416.30475 L82.0856,416.062625 L82.0856,415.8205 L82.0856,415.578375 L82.0856,415.33625 L82.0856,415.094125 L82.0856,414.852 L82.0856,414.609875 L82.0856,414.36775 L82.0856,414.125625 L82.0856,413.8835 L82.0856,413.641375 L82.0856,413.39925 L82.0856,413.157125 L82.0856,412.915 L82.0856,412.672875 L82.0856,412.43075 L82.0856,412.188625 L82.0856,411.9465 L82.0856,411.704375 L82.0856,411.46225 L82.0856,411.220125 L82.0856,410.978 L82.086401,408.013918 L82.08327,405.103469 L82.067904,402.253098 L82.032,399.46925 L81.967258,396.758371 L81.865373,394.126906 L81.718045,391.581301 L81.51697,389.128 L81.253847,386.773449 L80.920373,384.524094 L80.508245,382.386379 L80.009163,380.36675 L79.414822,378.471652 L78.716921,376.707531 L77.907158,375.080832 L76.97723,373.598 L75.918835,372.26548 L74.72367,371.089719 L73.383434,370.07716 L71.889825,369.23425 L70.234538,368.567434 L68.409274,368.083156 L66.405729,367.787863 L64.2156,367.688 L64.2156,367.688 L62.025483,367.787863 L60.021947,368.083156 L58.19669,368.567434 L56.54141,369.23425 L55.047805,370.07716 L53.707572,371.089719 L52.512409,372.26548 L51.454015,373.598 L50.524086,375.080832 L49.714322,376.707531 L49.016419,378.471652 L48.422075,380.36675 L47.922989,382.386379 L47.510858,384.524094 L47.177379,386.773449 L46.914252,389.128 L46.713173,391.581301 L46.565841,394.126906 L46.463953,396.758371 L46.399206,399.46925 L46.3633,402.253098 L46.347932,405.103469 L46.344799,408.013918 L46.3456,410.978 L46.3456,410.978 L46.3456,411.315083 L46.3456,411.652167 L46.3456,411.98925 L46.3456,412.326333 L46.3456,412.663417 L46.3456,413.0005 L46.3456,413.337583 L46.3456,413.674667 L46.3456,414.01175 L46.3456,414.348833 L46.3456,414.685917 L46.3456,415.023 L46.3456,415.360083 L46.3456,415.697167 L46.3456,416.03425 L46.3456,416.371333 L46.3456,416.708417 L46.3456,417.0455 L46.3456,417.382583 L46.3456,417.719667 L46.3456,418.05675 L46.3456,418.393833 L46.3456,418.730917 L46.3456,419.068 L46.237105,421.571721 L46.099244,424.020098 L45.932957,426.40858 L45.73918,428.732616 L45.518851,430.987653 L45.272909,433.169141 L45.002292,435.272527 L44.707937,437.293259 L44.390782,439.226787 L44.051766,441.068558 L43.691826,442.814022 L43.3119,444.458625 L42.912926,445.997817 L42.495842,447.427046 L42.061586,448.74176 L41.611096,449.937407 L41.14531,451.009437 L40.665166,451.953297 L40.171601,452.764435 L39.665554,453.438301 L39.147962,453.970342 L38.619764,454.356006 L38.081897,454.590743 L37.5353,454.67 L37.5353,454.67 L36.987395,454.584768 L36.445791,454.332454 L35.911736,453.918135 L35.386482,453.346884 L34.871281,452.623778 L34.367381,451.753891 L33.876035,450.742298 L33.398493,449.594074 L32.936005,448.314295 L32.489822,446.908035 L32.061195,445.38037 L31.651375,443.736375 L31.261612,441.981124 L30.893157,440.119694 L30.547261,438.157158 L30.225174,436.098593 L29.928147,433.949072 L29.657431,431.713672 L29.414277,429.397467 L29.199934,427.005532 L29.015655,424.542943 L28.862689,422.014775 L28.742287,419.426102 L28.6557,416.782 Z" fill="#121212"/>
</svg>
