<svg xmlns="http://www.w3.org/2000/svg" viewBox="125 375 125 125" width="200" height="200">
  <rect x="125" y="375" width="125" height="125" fill="#F3F3F3"/>
  <path d="M28.655992,416.782583 L28.656283,416.783167 L28.656575,416.78375 L28.656867,416.784333 L28.657158,416.784917 L28.65745,416.7855 L28.657742,416.786083 L28.658033,416.786667 L28.658325,416.78725 L28.658617,416.787833 L28.658908,416.788417 L28.6592,416.789 L28.659492,416.789583 L28.659783,416.790167 L28.660075,416.79075 L28.660367,416.791333 L28.660658,416.791917 L28.66095,416.7925 L28.661242,416.793083 L28.661533,416.793667 L28.661825,416.79425 L28.662117,416.794833 L28.662408,416.795417 L28.6627,416.796 L28.6627,416.553875 L28.6627,416.31175 L28.6627,416.069625 L28.6627,415.8275 L28.6627,415.585375 L28.6627,415.34325 L28.6627,415.101125 L28.6627,414.859 L28.6627,414.616875 L28.6627,414.37475 L28.6627,414.132625 L28.6627,413.8905 L28.6627,413.648375 L28.6627,413.40625 L28.6627,413.164125 L28.6627,412.922 L28.6627,412.679875 L28.6627,412.43775 L28.6627,412.195625 L28.6627,411.9535 L28.6627,411.711375 L28.6627,411.46925 L28.6627,411.227125 L28.6627,410.985 L28.662052,408.020918 L28.657519,405.110469 L28.645218,402.260098 L28.621263,399.47625 L28.581772,396.765371 L28.522859,394.133906 L28.440643,391.588301 L28.331237,389.135 L28.190759,386.780449 L28.015324,384.531094 L27.801049,382.393379 L27.54405,380.37375 L27.240442,378.478652 L26.886342,376.714531 L26.477866,375.087832 L26.01113,373.605 L25.482249,372.27248 L24.887341,371.096719 L24.22252,370.08416 L23.483904,369.24125 L22.667607,368.574434 L21.769747,368.090156 L20.78644,367.794863 L19.7138,367.695 L19.7138,367.695 L18.641161,367.794863 L17.657855,368.090156 L16.759997,368.574434 L15.943704,369.24125 L15.205091,370.08416 L14.540275,371.096719 L13.945371,372.27248 L13.416496,373.605 L12.949766,375.087832 L12.541295,376.714531 L12.187202,378.478652 L11.8836,380.37375 L11.626607,382.393379 L11.412338,384.531094 L11.236909,386.780449 L11.096437,389.135 L10.987037,391.588301 L10.904825,394.133906 L10.845917,396.765371 L10.80643,399.47625 L10.782478,402.260098 L10.770179,405.110469 L10.765647,408.020918 L10.765,410.985 L10.765,410.985 L10.765,411.002042 L10.765,411.019083 L10.765,411.036125 L10.765,411.053167 L10.765,411.070208 L10.765,411.08725 L10.765,411.104292 L10.765,411.121333 L10.765,411.138375 L10.765,411.155417 L10.765,411.172458 L10.765,411.1895 L10.765,411.206542 L10.765,411.223583 L10.765,411.240625 L10.765,411.257667 L10.765,411.274708 L10.765,411.29175 L10.765,411.308792 L10.765,411.325833 L10.765,411.342875 L10.765,411.359917 L10.765,411.376958 L10.765,411.394 L10.75779,414.358077 L10.736472,417.268512 L10.701511,420.118859 L10.653373,422.902676 L10.592525,425.613517 L10.519432,428.244937 L10.43456,430.790494 L10.338376,433.243741 L10.231345,435.598234 L10.113933,437.84753 L9.986607,439.985183 L9.849833,442.00475 L9.704075,443.899785 L9.549801,445.663845 L9.387477,447.290484 L9.217567,448.773259 L9.04054,450.105725 L8.856859,451.281437 L8.666993,452.293952 L8.471405,453.136824 L8.270563,453.803609 L8.064933,454.287863 L7.85498,454.583142 L7.64117,454.683 L7.64117,454.683 L7.443542,454.597773 L7.24917,454.345478 L7.058423,453.931191 L6.871672,453.359991 L6.689285,452.636953 L6.511634,451.767156 L6.339086,450.755677 L6.172014,449.607593 L6.010785,448.32798 L5.85577,446.921918 L5.707339,445.394482 L5.565861,443.75075 L5.431707,441.995799 L5.305245,440.134707 L5.186846,438.172551 L5.07688,436.114407 L4.975715,433.965354 L4.883723,431.730469 L4.801273,429.414828 L4.728734,427.023509 L4.666477,424.56159 L4.61487,422.034147 L4.574285,419.446258 L4.54509,416.803 L4.54509,416.803 L4.54509,416.560875 L4.54509,416.31875 L4.54509,416.076625 L4.54509,415.8345 L4.54509,415.592375 L4.54509,415.35025 L4.54509,415.108125 L4.54509,414.866 L4.54509,414.623875 L4.54509,414.38175 L4.54509,414.139625 L4.54509,413.8975 L4.54509,413.655375 L4.54509,413.41325 L4.54509,413.171125 L4.54509,412.929 L4.54509,412.686875 L4.54509,412.44475 L4.54509,412.202625 L4.54509,411.9605 L4.54509,411.718375 L4.54509,411.47625 L4.54509,411.234125 L4.54509,410.992 L4.544864,408.027918 L4.543282,405.117469 L4.538989,402.267098 L4.530628,399.48325 L4.516844,396.772371 L4.496281,394.140906 L4.467583,391.595301 L4.429394,389.142 L4.380359,386.787449 L4.319121,384.538094 L4.244326,382.400379 L4.154616,380.38075 L4.048637,378.485652 L3.925032,376.721531 L3.782446,375.094832 L3.619523,373.612 L3.434906,372.27948 L3.227241,371.103719 L2.995171,370.09116 L2.737341,369.24825 L2.452395,368.581434 L2.138976,368.097156 L1.79573,367.801863 L1.4213,367.702 L1.4213,367.702 L1.046871,367.801863 L0.703626,368.097156 L0.390209,368.581434 L0.105263,369.24825 L0,369.592382 L0,500 L5.466221,500 L5.56154,498.75125 L5.702785,497.107518 L5.850956,495.580082 L6.005692,494.17402 L6.166634,492.894407 L6.333419,491.746323 L6.505688,490.734844 L6.68308,489.865047 L6.865233,489.142009 L7.051787,488.570809 L7.242382,488.156522 L7.436657,487.904227 L7.63425,487.819 L7.63425,487.819 L7.848059,487.918863 L8.058011,488.214156 L8.26364,488.698434 L8.464479,489.36525 L8.660064,490.20816 L8.849927,491.220719 L9.033603,492.39648 L9.210627,493.729 L9.380531,495.211832 L9.542851,496.838531 L9.69712,498.602652 L9.80459,500 L31.31465,500 L31.589012,498.74775 L31.994533,497.103582 L32.419925,495.575715 L32.864137,494.169234 L33.326115,492.889222 L33.804808,491.740762 L34.299164,490.728938 L34.808131,489.858832 L35.330656,489.135528 L35.865688,488.564109 L36.412174,488.14966 L36.969062,487.897262 L37.5353,487.812 L37.5353,487.812 L38.100151,487.891257 L38.653096,488.125994 L39.193416,488.511658 L39.720387,489.043699 L40.233289,489.717565 L40.7314,490.528703 L41.213998,491.472563 L41.680363,492.544593 L42.129772,493.74024 L42.561504,495.054954 L42.974837,496.484183 L43.36905,498.023375 L43.743421,499.667978 L43.810723,500 L87.395346,500 L87.942725,498.74775 L88.751772,497.103582 L89.600474,495.575715 L90.486748,494.169234 L91.408511,492.889222 L92.363679,491.740762 L93.350169,490.728938 L94.365897,489.858832 L95.408781,489.135528 L96.476736,488.564109 L97.56768,488.14966 L98.679529,487.897262 L99.8102,487.812 L99.8102,487.812 L101.033743,487.911863 L102.235148,488.207156 L103.411755,488.691434 L104.560903,489.35825 L105.679931,490.20116 L106.766178,491.213719 L107.816984,492.38948 L108.829689,493.722 L109.801631,495.204832 L110.73015,496.831531 L111.612585,498.595652 L112.230385,500 L178.267321,500 L179.176092,498.595652 L180.474135,496.831531 L181.839965,495.204832 L183.269667,493.722 L184.759327,492.38948 L186.305031,491.213719 L187.902866,490.20116 L189.548917,489.35825 L191.23927,488.691434 L192.97001,488.207156 L194.737225,487.911863 L196.537,487.812 L196.537,487.812 L198.336655,487.911863 L200.10376,488.207156 L201.8344,488.691434 L203.524662,489.35825 L205.17063,490.20116 L206.768391,491.213719 L208.314029,492.38948 L209.80363,493.722 L211.233279,495.204832 L212.599063,496.831531 L213.897066,498.595652 L214.805813,500 L275.393,500 L275.393,495.776125 L275.393,490.788 L275.393,485.799875 L275.393,480.81175 L275.393,475.823625 L275.393,470.8355 L275.393,465.847375 L275.393,460.85925 L275.393,455.871125 L275.393,450.883 L275.393,445.894875 L275.393,440.90675 L275.393,435.918625 L275.393,430.9305 L275.393,425.942375 L275.393,420.95425 L275.393,415.966125 L275.393,410.978 L275.35862,408.013918 L275.253523,405.103469 L275.074773,402.253098 L274.819435,399.46925 L274.484573,396.758371 L274.06725,394.126906 L273.564532,391.581301 L272.973481,389.128 L272.291164,386.773449 L271.514644,384.524094 L270.640984,382.386379 L269.66725,380.36675 L268.590505,378.471652 L267.407815,376.707531 L266.116242,375.080832 L264.712852,373.598 L263.194708,372.26548 L261.558875,371.089719 L259.802417,370.07716 L257.922398,369.23425 L255.915883,368.567434 L253.779935,368.083156 L251.51162,367.787863 L249.108,367.688 L249.108,367.688 L246.704375,367.787863 L244.436045,368.083156 L242.300074,368.567434 L240.293528,369.23425 L238.413471,370.07716 L236.656969,371.089719 L235.021086,372.26548 L233.502889,373.598 L232.099441,375.080832 L230.807809,376.707531 L229.625057,378.471652 L228.54825,380.36675 L227.574454,382.386379 L226.700733,384.524094 L225.924152,386.773449 L225.241778,389.128 L224.650674,391.581301 L224.147906,394.126906 L223.730539,396.758371 L223.395639,399.46925 L223.14027,402.253098 L222.961497,405.103469 L222.856385,408.013918 L222.822,410.978 L222.822,410.995042 L222.822,411.012083 L222.822,411.029125 L222.822,411.046167 L222.822,411.063208 L222.822,411.08025 L222.822,411.097292 L222.822,411.114333 L222.822,411.131375 L222.822,411.148417 L222.822,411.165458 L222.822,411.1825 L222.822,411.199542 L222.822,411.216583 L222.822,411.233625 L222.822,411.250667 L222.822,411.267708 L222.822,411.28475 L222.822,411.301792 L222.822,411.318833 L222.822,411.335875 L222.822,411.352917 L222.822,411.369958 L222.822,411.387 L222.761361,414.351082 L222.582053,417.261531 L222.28799,420.111902 L221.883088,422.89575 L221.37126,425.606629 L220.756422,428.238094 L220.042487,430.783699 L219.23337,433.237 L218.332986,435.591551 L217.345249,437.840906 L216.274074,439.978621 L215.123375,441.99825 L213.897066,443.893348 L212.599063,445.657469 L211.233279,447.284168 L209.80363,448.767 L208.314029,450.09952 L206.768391,451.275281 L205.17063,452.28784 L203.524662,453.13075 L201.8344,453.797566 L200.10376,454.281844 L198.336655,454.577137 L196.537,454.677 L196.537,454.677 L194.737225,454.577137 L192.97001,454.281844 L191.23927,453.797566 L189.548917,453.13075 L187.902866,452.28784 L186.305031,451.275281 L184.759327,450.09952 L183.269667,448.767 L181.839965,447.284168 L180.474135,445.657469 L179.176092,443.893348 L177.94975,441.99825 L176.799022,439.978621 L175.727823,437.840906 L174.740066,435.591551 L173.839667,433.237 L173.030538,430.783699 L172.316594,428.238094 L171.701749,425.606629 L171.189917,422.89575 L170.785012,420.111902 L170.490948,417.261531 L170.311639,414.351082 L170.251,411.387 L170.251,411.387 L170.251,411.369958 L170.251,411.352917 L170.251,411.335875 L170.251,411.318833 L170.251,411.301792 L170.251,411.28475 L170.251,411.267708 L170.251,411.250667 L170.251,411.233625 L170.251,411.216583 L170.251,411.199542 L170.251,411.1825 L170.251,411.165458 L170.251,411.148417 L170.251,411.131375 L170.251,411.114333 L170.251,411.097292 L170.251,411.08025 L170.251,411.063208 L170.251,411.046167 L170.251,411.029125 L170.251,411.012083 L170.251,410.995042 L170.251,410.978 L170.21662,408.013918 L170.111523,405.103469 L169.932773,402.253098 L169.677435,399.46925 L169.342573,396.758371 L168.92525,394.126906 L168.422532,391.581301 L167.831481,389.128 L167.149164,386.773449 L166.372644,384.524094 L165.498984,382.386379 L164.52525,380.36675 L163.448505,378.471652 L162.265815,376.707531 L160.974242,375.080832 L159.570852,373.598 L158.052708,372.26548 L156.416875,371.089719 L154.660417,370.07716 L152.780398,369.23425 L150.773883,368.567434 L148.637935,368.083156 L146.36962,367.787863 L143.966,367.688 L143.966,367.688 L141.562375,367.787863 L139.294045,368.083156 L137.158074,368.567434 L135.151528,369.23425 L133.271471,370.07716 L131.514969,371.089719 L129.879086,372.26548 L128.360889,373.598 L126.957441,375.080832 L125.665809,376.707531 L124.483057,378.471652 L123.40625,380.36675 L122.432454,382.386379 L121.558733,384.524094 L120.782152,386.773449 L120.099778,389.128 L119.508674,391.581301 L119.005906,394.126906 L118.588539,396.758371 L118.253639,399.46925 L117.99827,402.253098 L117.819497,405.103469 L117.714385,408.013918 L117.68,410.978 L117.68,410.978 L117.68,410.995042 L117.68,411.012083 L117.68,411.029125 L117.68,411.046167 L117.68,411.063208 L117.68,411.08025 L117.68,411.097292 L117.68,411.114333 L117.68,411.131375 L117.68,411.148417 L117.68,411.165458 L117.68,411.1825 L117.68,411.199542 L117.68,411.216583 L117.68,411.233625 L117.68,411.250667 L117.68,411.267708 L117.68,411.28475 L117.68,411.301792 L117.68,411.318833 L117.68,411.335875 L117.68,411.352917 L117.68,411.369958 L117.68,411.387 L117.638777,414.351082 L117.516881,417.261531 L117.316973,420.111902 L117.041714,422.89575 L116.693764,425.606629 L116.275784,428.238094 L115.790435,430.783699 L115.240378,433.237 L114.628272,435.591551 L113.95678,437.840906 L113.22856,439.978621 L112.446275,441.99825 L111.612585,443.893348 L110.73015,445.657469 L109.801631,447.284168 L108.829689,448.767 L107.816984,450.09952 L106.766178,451.275281 L105.679931,452.28784 L104.560903,453.13075 L103.411755,453.797566 L102.235148,454.281844 L101.033743,454.577137 L99.8102,454.677 L99.8102,454.677 L98.680321,454.591768 L97.569129,454.339454 L96.478717,453.925135 L95.411176,453.353884 L94.3686,452.630778 L93.35308,451.760891 L92.366708,450.749298 L91.411578,449.601074 L90.489781,448.321295 L89.603409,446.915035 L88.754556,445.38737 L87.945312,443.743375 L87.177772,441.988124 L86.454026,440.126694 L85.776168,438.164158 L85.146289,436.105593 L84.566482,433.956072 L84.038839,431.720672 L83.565453,429.404467 L83.148415,427.012532 L82.789819,424.549943 L82.491756,422.021775 L82.256319,419.433102 L82.0856,416.789 L82.0856,416.789 L82.0856,416.546875 L82.0856,416.30475 L82.0856,416.062625 L82.0856,415.8205 L82.0856,415.578375 L82.0856,415.33625 L82.0856,415.094125 L82.0856,414.852 L82.0856,414.609875 L82.0856,414.36775 L82.0856,414.125625 L82.0856,413.8835 L82.0856,413.641375 L82.0856,413.39925 L82.0856,413.157125 L82.0856,412.915 L82.0856,412.672875 L82.0856,412.43075 L82.0856,412.188625 L82.0856,411.9465 L82.0856,411.704375 L82.0856,411.46225 L82.0856,411.220125 L82.0856,410.978 L82.086401,408.013918 L82.08327,405.103469 L82.067904,402.253098 L82.032,399.46925 L81.967258,396.758371 L81.865373,394.126906 L81.718045,391.581301 L81.51697,389.128 L81.253847,386.773449 L80.920373,384.524094 L80.508245,382.386379 L80.009163,380.36675 L79.414822,378.471652 L78.716921,376.707531 L77.907158,375.080832 L76.97723,373.598 L75.918835,372.26548 L74.72367,371.089719 L73.383434,370.07716 L71.889825,369.23425 L70.234538,368.567434 L68.409274,368.083156 L66.405729,367.787863 L64.2156,367.688 L64.2156,367.688 L62.025483,367.787863 L60.021947,368.083156 L58.19669,368.567434 L56.54141,369.23425 L55.047805,370.07716 L53.707572,371.089719 L52.512409,372.26548 L51.454015,373.598 L50.524086,375.080832 L49.714322,376.707531 L49.016419,378.471652 L48.422075,380.36675 L47.922989,382.386379 L47.510858,384.524094 L47.177379,386.773449 L46.914252,389.128 L46.713173,391.581301 L46.565841,394.126906 L46.463953,396.758371 L46.399206,399.46925 L46.3633,402.253098 L46.347932,405.103469 L46.344799,408.013918 L46.3456,410.978 L46.3456,410.978 L46.3456,411.315083 L46.3456,411.652167 L46.3456,411.98925 L46.3456,412.326333 L46.3456,412.663417 L46.3456,413.0005 L46.3456,413.337583 L46.3456,413.674667 L46.3456,414.01175 L46.3456,414.348833 L46.3456,414.685917 L46.3456,415.023 L46.3456,415.360083 L46.3456,415.697167 L46.3456,416.03425 L46.3456,416.371333 L46.3456,416.708417 L46.3456,417.0455 L46.3456,417.382583 L46.3456,417.719667 L46.3456,418.05675 L46.3456,418.393833 L46.3456,418.730917 L46.3456,419.068 L46.237105,421.571721 L46.099244,424.020098 L45.932957,426.40858 L45.73918,428.732616 L45.518851,430.987653 L45.272909,433.169141 L45.002292,435.272527 L44.707937,437.293259 L44.390782,439.226787 L44.051766,441.068558 L43.691826,442.814022 L43.3119,444.458625 L42.912926,445.997817 L42.495842,447.427046 L42.061586,448.74176 L41.611096,449.937407 L41.14531,451.009437 L40.665166,451.953297 L40.171601,452.764435 L39.665554,453.438301 L39.147962,453.970342 L38.619764,454.356006 L38.081897,454.590743 L37.5353,454.67 L37.5353,454.67 L36.987395,454.584768 L36.445791,454.332454 L35.911736,453.918135 L35.386482,453.346884 L34.871281,452.623778 L34.367381,451.753891 L33.876035,450.742298 L33.398493,449.594074 L32.936005,448.314295 L32.489822,446.908035 L32.061195,445.38037 L31.651375,443.736375 L31.261612,441.981124 L30.893157,440.119694 L30.547261,438.157158 L30.225174,436.098593 L29.928147,433.949072 L29.657431,431.713672 L29.414277,429.397467 L29.199934,427.005532 L29.015655,424.542943 L28.862689,422.014775 L28.742287,419.426102 L28.6557,416.782 Z" fill="#121212"/>
  <circle cx="144" cy="399" r="14" fill="#121212"/>
</svg>
