<svg xmlns="http://www.w3.org/2000/svg" viewBox="375 250 125 125" width="200" height="200">
  <rect x="375" y="250" width="125" height="125" fill="#F3F3F3"/>
  <path d="M355.14367,367.701127 L356.006915,367.700266 L356.794553,367.69943 L357.468778,367.69863 L357.991784,367.697878 L358.325766,367.697188 L358.432916,367.69657 L358.275431,367.696037 L357.815502,367.695602 L357.015325,367.695275 L355.837093,367.695071 L354.243,367.695 L354.243,367.695 L354.114608,367.702124 L354.242625,367.702 Z M275.386,420.55225 L275.386,425.540375 L275.386,430.5285 L275.386,435.516625 L275.386,440.50475 L275.386,445.492875 L275.386,450.481 L275.386,455.469125 L275.386,460.45725 L275.386,465.445375 L275.386,470.4335 L275.386,475.421625 L275.386,480.40975 L275.386,485.397875 L275.386,490.386 L275.386,495.374125 L275.386,500 L282.902776,500 L283.08475,499.680625 L284.311092,497.785556 L285.609135,496.021459 L286.974965,494.394779 L288.404667,492.911963 L289.894327,491.579456 L291.440031,490.403703 L293.037866,489.391151 L294.683917,488.548245 L296.37427,487.881432 L298.10501,487.397156 L299.872225,487.101863 L301.672,487.002 L301.672,487.002 L303.471655,487.101863 L305.23876,487.397156 L306.9694,487.881432 L308.659662,488.548245 L310.30563,489.391151 L311.903391,490.403703 L313.449029,491.579456 L314.93863,492.911963 L316.368279,494.394779 L317.734063,496.021459 L319.032066,497.785556 L320.258375,499.680625 L320.440344,500 L385.63804,500 L385.76175,499.680625 L386.595447,497.785556 L387.47789,496.021459 L388.406418,494.394779 L389.37837,492.911963 L390.391087,491.579456 L391.441906,490.403703 L392.528169,489.391151 L393.647213,488.548245 L394.796379,487.881432 L395.973006,487.397156 L397.174433,487.101863 L398.398,487.002 L398.398,487.002 L399.527859,487.087227 L400.639042,487.339526 L401.729455,487.753822 L402.797005,488.325042 L403.839598,489.04811 L404.855141,489.917953 L405.84154,490.929497 L406.796704,492.077667 L407.718537,493.357389 L408.604947,494.763589 L409.453841,496.291192 L410.263125,497.935125 L411.030706,499.690313 L411.151126,500 L454.282536,500 L454.516711,498.864416 L454.896625,497.219875 L455.295586,495.680745 L455.712656,494.251578 L456.146896,492.936924 L456.59737,491.741333 L457.063139,490.669357 L457.543266,489.725547 L458.036811,488.914452 L458.542838,488.240625 L459.060408,487.708615 L459.588584,487.322974 L460.126427,487.088252 L460.673,487.009 L460.673,487.009 L461.220931,487.094262 L461.762632,487.34666 L462.296844,487.761109 L462.822306,488.332528 L463.337757,489.055832 L463.841937,489.925937 L464.333587,490.937762 L464.811444,492.086222 L465.27425,493.366234 L465.720743,494.772715 L466.149663,496.300582 L466.55975,497.94475 L466.949743,499.700137 L467.009125,500 L488.343944,500 L488.365125,499.68725 L488.510883,497.792215 L488.66516,496.028155 L488.82749,494.401516 L488.997407,492.918741 L489.174446,491.586275 L489.358141,490.410563 L489.548025,489.398048 L489.743634,488.555176 L489.944502,487.888391 L490.150163,487.404137 L490.360151,487.108858 L490.574,487.009 L490.574,487.009 L490.771621,487.094227 L490.965986,487.346522 L491.156727,487.760809 L491.343472,488.332009 L491.525853,489.055047 L491.7035,489.924844 L491.876043,490.936323 L492.043111,492.084407 L492.204336,493.36402 L492.359347,494.770082 L492.507775,496.297518 L492.64925,497.94125 L492.783402,499.696201 L492.804045,500 L499.918,500 L499.918,495.783125 L499.918,490.795 L499.918,485.806875 L499.918,480.81875 L499.918,475.830625 L499.918,470.8425 L499.918,465.854375 L499.918,460.86625 L499.918,455.878125 L499.918,450.89 L499.918,445.901875 L499.918,440.91375 L499.918,435.925625 L499.918,430.9375 L499.918,425.949375 L499.918,420.96125 L499.918,415.973125 L499.918,410.985 L499.917774,408.020918 L499.916192,405.110469 L499.911898,402.260098 L499.903537,399.47625 L499.889752,396.765371 L499.869188,394.133906 L499.840488,391.588301 L499.802296,389.135 L499.753258,386.780449 L499.692016,384.531094 L499.617216,382.393379 L499.5275,380.37375 L499.421514,378.478652 L499.2979,376.714531 L499.155305,375.087832 L498.99237,373.605 L498.807742,372.27248 L498.600062,371.096719 L498.367977,370.08416 L498.11013,369.24125 L497.825164,368.574434 L497.511725,368.090156 L497.168455,367.794863 L496.794,367.695 L496.794,367.695 L496.419545,367.794863 L496.076275,368.090156 L495.762836,368.574434 L495.47787,369.24125 L495.220023,370.08416 L494.987937,371.096719 L494.780258,372.27248 L494.59563,373.605 L494.432695,375.087832 L494.2901,376.714531 L494.166486,378.478652 L494.0605,380.37375 L493.970784,382.393379 L493.895984,384.531094 L493.834742,386.780449 L493.785704,389.135 L493.747512,391.588301 L493.718812,394.133906 L493.698248,396.765371 L493.684463,399.47625 L493.676102,402.260098 L493.671808,405.110469 L493.670226,408.020918 L493.67,410.985 L493.67,410.985 L493.67,411.193375 L493.67,411.40175 L493.67,411.610125 L493.67,411.8185 L493.67,412.026875 L493.67,412.23525 L493.67,412.443625 L493.67,412.652 L493.67,412.860375 L493.67,413.06875 L493.67,413.277125 L493.67,413.4855 L493.67,413.693875 L493.67,413.90225 L493.67,414.110625 L493.67,414.319 L493.67,414.527375 L493.67,414.73575 L493.67,414.944125 L493.67,415.1525 L493.67,415.360875 L493.67,415.56925 L493.67,415.777625 L493.67,415.986 L493.640003,418.629258 L493.598752,421.217147 L493.546607,423.74459 L493.483931,426.206509 L493.411082,428.597828 L493.328422,430.913469 L493.236311,433.148354 L493.135111,435.297407 L493.025182,437.355551 L492.906884,439.317707 L492.780578,441.178799 L492.646625,442.93375 L492.505386,444.577482 L492.35722,446.104918 L492.20249,447.51098 L492.041556,448.790593 L491.874777,449.938677 L491.702516,450.950156 L491.525132,451.819953 L491.342986,452.542991 L491.156439,453.114191 L490.965852,453.528478 L490.771586,453.780773 L490.574,453.866 L490.574,453.866 L490.360151,453.766137 L490.150163,453.470844 L489.944502,452.986566 L489.743634,452.31975 L489.548025,451.47684 L489.358141,450.464281 L489.174446,449.28852 L488.997407,447.956 L488.82749,446.473168 L488.66516,444.846469 L488.510883,443.082348 L488.365125,441.18725 L488.228351,439.167621 L488.101027,437.029906 L487.983619,434.780551 L487.876593,432.426 L487.780413,429.972699 L487.695547,427.427094 L487.622459,424.795629 L487.561616,422.08475 L487.513482,419.300902 L487.478525,416.450531 L487.457209,413.540082 L487.45,410.576 L487.45,410.593042 L487.45,410.610083 L487.45,410.627125 L487.45,410.644167 L487.45,410.661208 L487.45,410.67825 L487.45,410.695292 L487.45,410.712333 L487.45,410.729375 L487.45,410.746417 L487.45,410.763458 L487.45,410.7805 L487.45,410.797542 L487.45,410.814583 L487.45,410.831625 L487.45,410.848667 L487.45,410.865708 L487.45,410.88275 L487.45,410.899792 L487.45,410.916833 L487.45,410.933875 L487.45,410.950917 L487.45,410.967958 L487.45,410.985 L487.449353,408.020918 L487.444822,405.110469 L487.432523,402.260098 L487.408574,399.47625 L487.36909,396.765371 L487.310187,394.133906 L487.227983,391.588301 L487.118593,389.135 L486.978133,386.780449 L486.80272,384.531094 L486.58847,382.393379 L486.3315,380.37375 L486.027926,378.478652 L485.673863,376.714531 L485.26543,375.087832 L484.798741,373.605 L484.269913,372.27248 L483.675063,371.096719 L483.010306,370.08416 L482.271759,369.24125 L481.455539,368.574434 L480.557762,368.090156 L479.574543,367.794863 L478.502,367.695 L478.502,367.695 L477.429337,367.794863 L476.446009,368.090156 L475.548131,368.574434 L474.731819,369.24125 L473.99319,370.08416 L473.328359,371.096719 L472.733442,372.27248 L472.204556,373.605 L471.737814,375.087832 L471.329335,376.714531 L470.975233,378.478652 L470.671625,380.37375 L470.414626,382.393379 L470.200352,384.531094 L470.02492,386.780449 L469.884444,389.135 L469.775042,391.588301 L469.692828,394.133906 L469.633919,396.765371 L469.594431,399.47625 L469.570479,402.260098 L469.558179,405.110469 L469.553647,408.020918 L469.553,410.985 L469.553,410.985 L469.553,411.193375 L469.553,411.40175 L469.553,411.610125 L469.553,411.8185 L469.553,412.026875 L469.553,412.23525 L469.553,412.443625 L469.553,412.652 L469.553,412.860375 L469.553,413.06875 L469.553,413.277125 L469.553,413.4855 L469.553,413.693875 L469.553,413.90225 L469.553,414.110625 L469.553,414.319 L469.553,414.527375 L469.553,414.73575 L469.553,414.944125 L469.553,415.1525 L469.553,415.360875 L469.553,415.56925 L469.553,415.777625 L469.553,415.986 L469.468024,418.629293 L469.350549,421.217285 L469.201625,423.744891 L469.022306,426.207028 L468.813642,428.598613 L468.576687,430.914562 L468.312493,433.149793 L468.022111,435.299222 L467.706594,437.357766 L467.366993,439.32034 L467.004361,441.181863 L466.61975,442.93725 L466.214212,444.581418 L465.788799,446.109285 L465.344562,447.515766 L464.882556,448.795778 L464.40383,449.944238 L463.909437,450.956062 L463.400431,451.826168 L462.877861,452.549472 L462.342781,453.120891 L461.796243,453.53534 L461.239299,453.787738 L460.673,453.873 L460.673,453.873 L460.108209,453.793743 L459.555317,453.559006 L459.015045,453.173342 L458.488116,452.641301 L457.975251,451.967435 L457.477172,451.156297 L456.994601,450.212437 L456.528259,449.140407 L456.078869,447.94476 L455.647152,446.630046 L455.23383,445.200817 L454.839625,443.661625 L454.465258,442.017022 L454.111452,440.271558 L453.778928,438.429787 L453.468407,436.496259 L453.180613,434.475527 L452.916266,432.372141 L452.676088,430.190653 L452.460801,427.935616 L452.271127,425.61158 L452.107788,423.223098 L451.971505,420.774721 L451.863,418.271 L451.863,418.271 L451.863,417.967708 L451.863,417.664417 L451.863,417.361125 L451.863,417.057833 L451.863,416.754542 L451.863,416.45125 L451.863,416.147958 L451.863,415.844667 L451.863,415.541375 L451.863,415.238083 L451.863,414.934792 L451.863,414.6315 L451.863,414.328208 L451.863,414.024917 L451.863,413.721625 L451.863,413.418333 L451.863,413.115042 L451.863,412.81175 L451.863,412.508458 L451.863,412.205167 L451.863,411.901875 L451.863,411.598583 L451.863,411.295292 L451.863,410.992 L451.863799,408.027918 L451.86066,405.117469 L451.845283,402.267098 L451.809366,399.48325 L451.744606,396.772371 L451.642703,394.140906 L451.495355,391.595301 L451.294259,389.142 L451.031115,386.787449 L450.697621,384.538094 L450.285475,382.400379 L449.786375,380.38075 L449.19202,378.485652 L448.494108,376.721531 L447.684338,375.094832 L446.754407,373.612 L445.696015,372.27948 L444.500859,371.103719 L443.160639,370.09116 L441.667051,369.24825 L440.011795,368.581434 L438.186569,368.097156 L436.183071,367.801863 L433.993,367.702 L433.993,367.702 L431.802814,367.801863 L429.799221,368.097156 L427.973918,368.581434 L426.318602,369.24825 L424.82497,370.09116 L423.484719,371.103719 L422.289546,372.27948 L421.231148,373.612 L420.301223,375.094832 L419.491466,376.721531 L418.793577,378.485652 L418.19925,380.38075 L417.700184,382.400379 L417.288075,384.538094 L416.954621,386.787449 L416.691519,389.142 L416.490465,391.595301 L416.343156,394.140906 L416.241291,396.772371 L416.176565,399.48325 L416.140676,402.267098 L416.125321,405.117469 L416.122196,408.027918 L416.123,410.992 L416.123,410.992 L416.123,411.200375 L416.123,411.40875 L416.123,411.617125 L416.123,411.8255 L416.123,412.033875 L416.123,412.24225 L416.123,412.450625 L416.123,412.659 L416.123,412.867375 L416.123,413.07575 L416.123,413.284125 L416.123,413.4925 L416.123,413.700875 L416.123,413.90925 L416.123,414.117625 L416.123,414.326 L416.123,414.534375 L416.123,414.74275 L416.123,414.951125 L416.123,415.1595 L416.123,415.367875 L416.123,415.57625 L416.123,415.784625 L416.123,415.993 L415.952347,418.636293 L415.717029,421.224285 L415.419129,423.751891 L415.060731,426.214028 L414.643921,428.605613 L414.170781,430.921562 L413.643397,433.156793 L413.063852,435.306222 L412.43423,437.364766 L411.756617,439.32734 L411.033095,441.188863 L410.26575,442.94425 L409.456665,444.588418 L408.607925,446.116285 L407.721613,447.522766 L406.799815,448.802778 L405.844614,449.951238 L404.858094,450.963063 L403.84234,451.833168 L402.799435,452.556472 L401.731465,453.127891 L400.640513,453.54234 L399.528663,453.794738 L398.398,453.88 L398.398,453.88 L397.174433,453.780137 L395.973006,453.484844 L394.796379,453.000566 L393.647213,452.33375 L392.528169,451.49084 L391.441906,450.478281 L390.391087,449.30252 L389.37837,447.97 L388.406418,446.487168 L387.47789,444.860469 L386.595447,443.096348 L385.76175,441.20125 L384.979459,439.181621 L384.251235,437.043906 L383.579738,434.794551 L382.96763,432.44 L382.41757,429.986699 L381.932219,427.441094 L381.514238,424.809629 L381.166287,422.09875 L380.891027,419.314902 L380.691119,416.464531 L380.569223,413.554082 L380.528,410.59 L380.528,410.59 L380.528,410.607042 L380.528,410.624083 L380.528,410.641125 L380.528,410.658167 L380.528,410.675208 L380.528,410.69225 L380.528,410.709292 L380.528,410.726333 L380.528,410.743375 L380.528,410.760417 L380.528,410.777458 L380.528,410.7945 L380.528,410.811542 L380.528,410.828583 L380.528,410.845625 L380.528,410.862667 L380.528,410.879708 L380.528,410.89675 L380.528,410.913792 L380.528,410.930833 L380.528,410.947875 L380.528,410.964917 L380.528,410.981958 L380.528,410.999 L380.467361,408.034918 L380.288053,405.124469 L379.99399,402.274098 L379.589088,399.49025 L379.07726,396.779371 L378.462422,394.147906 L377.748487,391.602301 L376.93937,389.149 L376.038986,386.794449 L375.051249,384.545094 L373.980074,382.407379 L372.829375,380.38775 L371.603066,378.492652 L370.305063,376.728531 L368.939279,375.101832 L367.50963,373.619 L366.020029,372.28648 L364.474391,371.110719 L362.87663,370.09816 L361.230662,369.25525 L359.5404,368.588434 L357.80976,368.104156 L356.042655,367.808863 L354.243,367.709 L354.243,367.709 L353.990889,367.708989 L352.443225,367.794863 L350.67601,368.090156 L348.94527,368.574434 L347.254917,369.24125 L345.608866,370.08416 L344.011031,371.096719 L342.465327,372.27248 L340.975667,373.605 L339.545965,375.087832 L338.180135,376.714531 L336.882092,378.478652 L335.65575,380.37375 L334.505022,382.393379 L333.433823,384.531094 L332.446066,386.780449 L331.545667,389.135 L330.736538,391.588301 L330.022594,394.133906 L329.407749,396.765371 L328.895917,399.47625 L328.491012,402.260098 L328.196948,405.110469 L328.017639,408.020918 L327.957,410.985 L327.957,410.985 L327.957,410.967958 L327.957,410.950917 L327.957,410.933875 L327.957,410.916833 L327.957,410.899792 L327.957,410.88275 L327.957,410.865708 L327.957,410.848667 L327.957,410.831625 L327.957,410.814583 L327.957,410.797542 L327.957,410.7805 L327.957,410.763458 L327.957,410.746417 L327.957,410.729375 L327.957,410.712333 L327.957,410.695292 L327.957,410.67825 L327.957,410.661208 L327.957,410.644167 L327.957,410.627125 L327.957,410.610083 L327.957,410.593042 L327.957,410.576 L327.896361,413.540082 L327.717053,416.450531 L327.42299,419.300902 L327.018088,422.08475 L326.50626,424.795629 L325.891422,427.427094 L325.177487,429.972699 L324.36837,432.426 L323.467986,434.780551 L322.480249,437.029906 L321.409074,439.167621 L320.258375,441.18725 L319.032066,443.082348 L317.734063,444.846469 L316.368279,446.473168 L314.93863,447.956 L313.449029,449.28852 L311.903391,450.464281 L310.30563,451.47684 L308.659662,452.31975 L306.9694,452.986566 L305.23876,453.470844 L303.471655,453.766137 L301.672,453.866 L301.672,453.866 L299.872225,453.766137 L298.10501,453.470844 L296.37427,452.986566 L294.683917,452.31975 L293.037866,451.47684 L291.440031,450.464281 L289.894327,449.28852 L288.404667,447.956 L286.974965,446.473168 L285.609135,444.846469 L284.311092,443.082348 L283.08475,441.18725 L281.934022,439.167621 L280.862823,437.029906 L279.875066,434.780551 L278.974667,432.426 L278.165538,429.972699 L277.451594,427.427094 L276.836749,424.795629 L276.324917,422.08475 L275.920012,419.300902 L275.625948,416.450531 L275.446639,413.540082 L275.386,410.576 L275.386,415.564125 Z" fill="#121212"/>
  <path d="M354.243 147.265C339.725 147.265 327.957 166.645 327.957 190.555L327.957 190.146C327.957 214.056 316.189 233.436 301.672 233.436C287.154 233.436 275.386 214.056 275.386 190.146L275.386 309.861C275.386 285.952 287.154 266.572 301.672 266.572C316.189 266.572 327.957 285.952 327.957 309.861L327.957 310.27C327.957 334.18 334.465 353.56 354.243 353.56C374.021 353.56 380.528 334.18 380.528 310.27L380.528 309.861C380.528 285.952 388.528 266.572 398.398 266.572C407.506 266.572 415.022 283.098 416.123 304.459L416.123 310.27C416.123 334.18 415.703 353.56 433.993 353.56C452.282 353.56 451.863 334.18 451.863 310.27L451.863 302.18C452.611 281.941 456.268 266.579 460.673 266.579C465.078 266.579 469.006 283.112 469.553 304.466L469.553 310.277C469.553 334.187 469.553 353.567 478.502 353.567C487.45 353.567 487.45 334.187 487.45 310.277L487.45 309.868C487.45 285.958 488.849 266.579 490.574 266.579C492.167 266.579 493.483 283.105 493.67 304.459L493.67 310.27C493.67 334.18 492.791 353.56 496.794 353.56C500.797 353.56 499.918 334.18 499.918 310.27L499.918 190.555C499.918 166.645 499.918 147.265 496.794 147.265C493.67 147.265 493.67 166.645 493.67 190.555L493.67 195.556C493.476 216.91 492.167 233.436 490.574 233.436C488.849 233.436 487.45 214.056 487.45 190.146L487.45 190.555C487.45 166.645 487.45 147.265 478.502 147.265C469.553 147.265 469.553 166.645 469.553 190.555L469.553 195.556C469.006 216.91 465.238 233.443 460.673 233.443C456.109 233.443 452.618 218.08 451.863 197.841L451.863 190.562C451.863 166.652 452.282 147.272 433.993 147.272C415.703 147.272 416.123 166.652 416.123 190.562L416.123 195.563C415.022 216.917 407.513 233.45 398.398 233.45C388.528 233.45 380.528 214.07 380.528 190.16L380.528 190.569C380.528 166.659 368.76 147.279 354.243 147.279C339.725 147.279 368.76 147.265 354.243 147.265Z" fill="#121212"/>
</svg>
