<svg xmlns="http://www.w3.org/2000/svg" viewBox="250 375 125 125" width="200" height="200">
  <rect x="250" y="375" width="125" height="125" fill="#F3F3F3"/>
  <path d="M110.698014,479.698831 L121.665132,478.879253 L132.40596,477.53516 L142.896201,475.684444 L153.11156,473.345 L163.027739,470.534719 L172.620444,467.271495 L181.865378,463.573222 L190.738245,459.457793 L199.21475,454.943101 L207.270596,450.047039 L214.881487,444.7875 L222.023129,439.182378 L228.671223,433.249566 L234.801475,427.006957 L240.389589,420.472444 L245.411268,413.663921 L249.842217,406.599281 L253.65814,399.296417 L256.83474,391.773222 L259.347722,384.04759 L261.17279,376.137413 L262.285648,368.060586 L262.662,359.835 L262.662,359.835 L262.285648,351.609414 L261.17279,343.532587 L259.347722,335.62241 L256.83474,327.896778 L253.65814,320.373583 L249.842217,313.070719 L245.411268,306.006079 L240.389589,299.197556 L234.801475,292.663043 L228.671223,286.420434 L222.023129,280.487622 L214.881487,274.8825 L207.270596,269.622961 L199.21475,264.726899 L190.738245,260.212207 L181.865378,256.096778 L172.620444,252.398505 L163.027739,249.135281 L153.11156,246.325 L142.896201,243.985556 L132.40596,242.13484 L121.665132,240.790747 L110.698014,239.971169 L99.5289,239.694 L99.5289,239.694 L88.359801,239.971169 L77.392695,240.790747 L66.651877,242.13484 L56.161644,243.985556 L45.946291,246.325 L36.030116,249.135281 L35.9246,249.171175 L35.9246,470.498825 L36.030116,470.534719 L45.946291,473.345 L56.161644,475.684444 L66.651877,477.53516 L77.392695,478.879253 L88.359801,479.698831 L99.5289,479.976 L99.5289,479.976 Z" fill="#121212"/>
  <path d="M400.927 380.977C429.476 380.977 452.619 371.366 452.619 359.511C452.619 347.655 429.476 338.045 400.927 338.045C372.378 338.045 349.234 347.655 349.234 359.511C349.234 371.366 372.378 380.977 400.927 380.977Z" fill="#121212"/>
  <path d="M374.681625,195.579 L374.68225,195.579 L374.682875,195.579 L374.6835,195.579 L374.684125,195.579 L374.68475,195.579 L374.685375,195.579 L374.686,195.579 L374.686625,195.579 L374.68725,195.579 L374.687875,195.579 L374.6885,195.579 L374.689125,195.579 L374.68975,195.579 L374.690375,195.579 L374.691,195.579 L374.691625,195.579 L374.69225,195.579 L374.692875,195.579 L374.6935,195.579 L374.694125,195.579 L374.69475,195.579 L374.695375,195.579 L374.696,195.579 L374.731375,195.579 L374.76675,195.579 L374.802125,195.579 L374.8375,195.579 L374.872875,195.579 L374.90825,195.579 L374.943625,195.579 L374.979,195.579 L375.014375,195.579 L375.04975,195.579 L375.085125,195.579 L375.1205,195.579 L375.155875,195.579 L375.19125,195.579 L375.226625,195.579 L375.262,195.579 L375.297375,195.579 L375.33275,195.579 L375.368125,195.579 L375.4035,195.579 L375.438875,195.579 L375.47425,195.579 L375.509625,195.579 L375.545,195.579 L369.384884,195.45296 L363.336216,195.080263 L357.412393,194.469045 L351.62681,193.62744 L345.992865,192.563583 L340.523953,191.285609 L335.233471,189.801654 L330.134815,188.119852 L325.241381,186.248338 L320.566565,184.195247 L316.123765,181.968714 L311.926375,179.576875 L307.987793,177.027864 L304.321414,174.329815 L300.940635,171.490865 L297.858852,168.519148 L295.089461,165.422799 L292.645859,162.209953 L290.541442,158.888745 L288.789606,155.46731 L287.403748,151.953783 L286.397263,148.356299 L285.783549,144.682993 L285.576,140.942 L285.576,140.942 L285.783549,137.201124 L286.397263,133.527921 L287.403748,129.930525 L288.789606,126.417074 L290.541442,122.995703 L292.645859,119.674547 L295.089461,116.461743 L297.858852,113.365426 L300.940635,110.393732 L304.321414,107.554798 L307.987793,104.856759 L311.926375,102.30775 L316.123765,99.915908 L320.566565,97.689369 L325.241381,95.636268 L330.134815,93.764741 L335.233471,92.082924 L340.523953,90.598953 L345.992865,89.320964 L351.62681,88.257093 L357.412393,87.415475 L363.336216,86.804246 L369.384884,86.431542 L375.545,86.3055 L375.545,86.3055 L375.509625,86.3055 L375.47425,86.3055 L375.438875,86.3055 L375.4035,86.3055 L375.368125,86.3055 L375.33275,86.3055 L375.297375,86.3055 L375.262,86.3055 L375.226625,86.3055 L375.19125,86.3055 L375.155875,86.3055 L375.1205,86.3055 L375.085125,86.3055 L375.04975,86.3055 L375.014375,86.3055 L374.979,86.3055 L374.943625,86.3055 L374.90825,86.3055 L374.872875,86.3055 L374.8375,86.3055 L374.802125,86.3055 L374.76675,86.3055 L374.731375,86.3055 L374.696,86.3055 L380.856111,86.179457 L386.904764,85.806752 L392.828564,85.195521 L398.614116,84.353899 L404.248023,83.290022 L409.716891,82.012027 L415.007323,80.528048 L420.105926,78.846222 L424.999303,76.974685 L429.674058,74.921572 L434.116798,72.695019 L438.314125,70.303162 L442.252645,67.754137 L445.918962,65.05608 L449.299682,62.217126 L452.381407,59.245411 L455.150744,56.149071 L457.594297,52.936242 L459.69867,49.61506 L461.450468,46.19366 L462.836295,42.680178 L463.842756,39.08275 L464.456457,35.409512 L464.664,31.6686 L464.664,31.6686 L464.456387,27.9277 L463.842489,24.254473 L462.835721,20.657055 L461.449495,17.143582 L459.697227,13.722191 L457.592328,10.401016 L455.148213,7.188193 L452.378296,4.091859 L449.29599,1.12015 L447.961856,0 L52.622883,0 L51.288966,1.12015 L48.20723,4.091859 L45.437884,7.188193 L42.994323,10.401016 L40.889944,13.722191 L39.138141,17.143582 L37.75231,20.657055 L36.745846,24.254473 L36.132144,27.9277 L35.9246,31.6686 L35.9246,31.6686 L36.132144,35.409512 L36.745846,39.08275 L37.75231,42.680178 L39.138141,46.19366 L40.889944,49.61506 L42.994323,52.936242 L45.437884,56.149071 L48.20723,59.245411 L51.288966,62.217126 L54.669697,65.05608 L58.336028,67.754137 L62.274563,70.303162 L66.471906,72.695019 L70.914663,74.921572 L75.589439,76.974685 L80.482837,78.846222 L85.581463,80.528048 L90.87192,82.012027 L96.340815,83.290022 L101.97475,84.353899 L107.760332,85.195521 L113.684165,85.806752 L119.732852,86.179457 L125.893,86.3055 L125.893,86.3055 L125.928375,86.3055 L125.96375,86.3055 L125.999125,86.3055 L126.0345,86.3055 L126.069875,86.3055 L126.10525,86.3055 L126.140625,86.3055 L126.176,86.3055 L126.211375,86.3055 L126.24675,86.3055 L126.282125,86.3055 L126.3175,86.3055 L126.352875,86.3055 L126.38825,86.3055 L126.423625,86.3055 L126.459,86.3055 L126.494375,86.3055 L126.52975,86.3055 L126.565125,86.3055 L126.6005,86.3055 L126.635875,86.3055 L126.67125,86.3055 L126.706625,86.3055 L126.742,86.3055 L132.902231,86.431542 L138.950994,86.804246 L144.874895,87.415475 L150.660537,88.257093 L156.294527,89.320964 L161.763469,90.598953 L167.053968,92.082924 L172.15263,93.764741 L177.046059,95.636268 L181.72086,97.689369 L186.163639,99.915908 L190.361,102.30775 L194.299549,104.856759 L197.96589,107.554798 L201.346629,110.393732 L204.42837,113.365426 L207.197719,116.461743 L209.641281,119.674547 L211.745661,122.995703 L213.497463,126.417074 L214.883293,129.930525 L215.889756,133.527921 L216.503456,137.201124 L216.711,140.942 L216.711,140.942 L216.503456,144.682993 L215.889756,148.356299 L214.883293,151.953783 L213.497463,155.46731 L211.745661,158.888745 L209.641281,162.209953 L207.197719,165.422799 L204.42837,168.519148 L201.346629,171.490865 L197.96589,174.329815 L194.299549,177.027864 L190.361,179.576875 L186.163639,181.968714 L181.72086,184.195247 L177.046059,186.248338 L172.15263,188.119852 L167.053968,189.801654 L161.763469,191.285609 L156.294527,192.563583 L150.660537,193.62744 L144.874895,194.469045 L138.950994,195.080263 L132.902231,195.45296 L126.742,195.579 L126.742,195.579 L126.706625,195.579 L126.67125,195.579 L126.635875,195.579 L126.6005,195.579 L126.565125,195.579 L126.52975,195.579 L126.494375,195.579 L126.459,195.579 L126.423625,195.579 L126.38825,195.579 L126.352875,195.579 L126.3175,195.579 L126.282125,195.579 L126.24675,195.579 L126.211375,195.579 L126.176,195.579 L126.140625,195.579 L126.10525,195.579 L126.069875,195.579 L126.0345,195.579 L125.999125,195.579 L125.96375,195.579 L125.928375,195.579 L125.893,195.579 L119.732852,195.705045 L113.684165,196.077756 L107.760332,196.688996 L101.97475,197.53063 L96.340815,198.59452 L90.87192,199.872531 L85.581463,201.356527 L80.482837,203.03837 L75.589439,204.909926 L70.914663,206.963057 L66.471906,209.189627 L62.274563,211.5815 L58.336028,214.13054 L54.669697,216.82861 L51.288966,219.667574 L48.20723,222.639296 L45.437884,225.73564 L42.994323,228.948469 L40.889944,232.269647 L39.138141,235.691037 L37.75231,239.204504 L36.745846,242.801911 L36.132144,246.475122 L35.9246,250.216 L35.9246,250.216 L36.132144,253.956878 L36.745846,257.630089 L37.75231,261.227496 L39.138141,264.740963 L40.889944,268.162353 L42.994323,271.483531 L45.437884,274.69636 L48.20723,277.792704 L51.288966,280.764426 L54.669697,283.60339 L58.336028,286.30146 L62.274563,288.8505 L66.471906,291.242373 L70.914663,293.468943 L75.589439,295.522074 L80.482837,297.39363 L85.581463,299.075473 L90.87192,300.559469 L96.340815,301.83748 L101.97475,302.90137 L107.760332,303.743004 L113.684165,304.354244 L119.732852,304.726955 L125.893,304.853 L125.893,304.853 L125.928375,304.853 L125.96375,304.853 L125.999125,304.853 L126.0345,304.853 L126.069875,304.853 L126.10525,304.853 L126.140625,304.853 L126.176,304.853 L126.211375,304.853 L126.24675,304.853 L126.282125,304.853 L126.3175,304.853 L126.352875,304.853 L126.38825,304.853 L126.423625,304.853 L126.459,304.853 L126.494375,304.853 L126.52975,304.853 L126.565125,304.853 L126.6005,304.853 L126.635875,304.853 L126.67125,304.853 L126.706625,304.853 L126.742,304.853 L132.902231,304.97904 L138.950994,305.351737 L144.874895,305.962955 L150.660537,306.80456 L156.294527,307.868417 L161.763469,309.146391 L167.053968,310.630346 L172.15263,312.312148 L177.046059,314.183662 L181.72086,316.236753 L186.163639,318.463286 L190.361,320.855125 L194.299549,323.404136 L197.96589,326.102185 L201.346629,328.941135 L204.42837,331.912852 L207.197719,335.009201 L209.641281,338.222047 L211.745661,341.543255 L213.497463,344.96469 L214.883293,348.478217 L215.889756,352.075701 L216.503456,355.749007 L216.711,359.49 L216.711,359.49 L216.477012,362.945768 L215.788579,366.344309 L214.665992,369.67923 L213.129546,372.944139 L211.199534,376.132641 L208.89625,379.238344 L206.239986,382.254854 L203.251037,385.175778 L199.949695,387.994723 L196.356255,390.705295 L192.491008,393.301102 L188.37425,395.77575 L184.026273,398.122846 L179.46737,400.335997 L174.717836,402.408809 L169.797963,404.334889 L164.728045,406.107844 L159.528375,407.721281 L154.219247,409.168807 L148.820954,410.444028 L143.353789,411.540551 L137.838046,412.451983 L132.294019,413.17193 L126.742,413.694 L126.742,413.694 L120.577588,413.820045 L114.516523,414.192756 L108.572938,414.803996 L102.760966,415.64563 L97.094739,416.70952 L91.588391,417.987531 L86.256053,419.471527 L81.111859,421.15337 L76.169942,423.024926 L71.444433,425.078057 L66.949467,427.304627 L62.699175,429.6965 L58.70769,432.24554 L54.989146,434.94361 L51.557674,437.782574 L48.427407,440.754296 L45.612479,443.85064 L43.127022,447.063469 L40.985168,450.384647 L39.201051,453.806037 L37.788803,457.319504 L36.762556,460.916911 L36.136445,464.590122 L35.9246,468.331 L35.9246,468.331 L36.132144,472.071993 L36.745846,475.745299 L37.75231,479.342783 L39.138141,482.85631 L40.889944,486.277745 L42.994323,489.598953 L45.437884,492.811799 L48.20723,495.908148 L51.288966,498.879865 L52.622865,500 L447.965787,500 L449.299682,498.879865 L452.381407,495.908148 L455.150744,492.811799 L457.594297,489.598953 L459.69867,486.277745 L461.450468,482.85631 L462.836295,479.342783 L463.842756,475.745299 L464.456457,472.071993 L464.664,468.331 L464.664,468.331 L464.456386,464.590122 L463.84248,460.916911 L462.835691,457.319504 L461.449426,453.806037 L459.697091,450.384647 L457.592094,447.063469 L455.147841,443.85064 L452.377741,440.754296 L449.295199,437.782574 L445.913624,434.94361 L442.246422,432.24554 L438.307,429.6965 L434.108766,427.304627 L429.665126,425.078057 L424.989488,423.024926 L420.095259,421.15337 L414.995846,419.471527 L409.704656,417.987531 L404.235096,416.70952 L398.600574,415.64563 L392.814496,414.803996 L386.89027,414.192756 L380.841302,413.820045 L374.681,413.694 L374.681,413.694 L369.135007,413.173607 L363.604829,412.455191 L358.110041,411.545145 L352.670218,410.449861 L347.304934,409.175734 L342.033766,407.729156 L336.876287,406.116521 L331.852074,404.344222 L326.980701,402.418652 L322.281744,400.346205 L317.774777,398.133273 L313.479375,395.78625 L309.415114,393.311529 L305.601569,390.715503 L302.058314,388.004566 L298.804926,385.185111 L295.860978,382.263531 L293.246047,379.246219 L290.979707,376.139568 L289.081532,372.949972 L287.5711,369.683824 L286.467983,366.347517 L285.791758,362.947445 L285.562,359.49 L285.562,359.49 L285.769544,355.749007 L286.383244,352.075701 L287.389707,348.478217 L288.775537,344.96469 L290.527339,341.543255 L292.631719,338.222047 L295.075281,335.009201 L297.84463,331.912852 L300.926371,328.941135 L304.30711,326.102185 L307.973451,323.404136 L311.912,320.855125 L316.109361,318.463286 L320.55214,316.236753 L325.226941,314.183662 L330.12037,312.312148 L335.219032,310.630346 L340.509531,309.146391 L345.978473,307.868417 L351.612463,306.80456 L357.398105,305.962955 L363.322006,305.351737 L369.370769,304.97904 L375.531,304.853 L375.531,304.853 L375.495583,304.853 L375.460167,304.853 L375.42475,304.853 L375.389333,304.853 L375.353917,304.853 L375.3185,304.853 L375.283083,304.853 L375.247667,304.853 L375.21225,304.853 L375.176833,304.853 L375.141417,304.853 L375.106,304.853 L375.070583,304.853 L375.035167,304.853 L374.99975,304.853 L374.964333,304.853 L374.928917,304.853 L374.8935,304.853 L374.858083,304.853 L374.822667,304.853 L374.78725,304.853 L374.751833,304.853 L374.716417,304.853 L374.681,304.853 L380.841231,304.726955 L386.889994,304.354244 L392.813895,303.743004 L398.599537,302.90137 L404.233527,301.83748 L409.702469,300.559469 L414.992968,299.075473 L420.09163,297.39363 L424.985059,295.522074 L429.65986,293.468943 L434.102639,291.242373 L438.3,288.8505 L442.238549,286.30146 L445.90489,283.60339 L449.285629,280.764426 L452.36737,277.792704 L455.136719,274.69636 L457.580281,271.483531 L459.684661,268.162353 L461.436463,264.740963 L462.822293,261.227496 L463.828756,257.630089 L464.442456,253.956878 L464.65,250.216 L464.65,250.216 L464.442456,246.475122 L463.828756,242.801911 L462.822293,239.204504 L461.436463,235.691037 L459.684661,232.269647 L457.580281,228.948469 L455.136719,225.73564 L452.36737,222.639296 L449.285629,219.667574 L445.90489,216.82861 L442.238549,214.13054 L438.3,211.5815 L434.102639,209.189627 L429.65986,206.963057 L424.985059,204.909926 L420.09163,203.03837 L414.992968,201.356527 L409.702469,199.872531 L404.233527,198.59452 L398.599537,197.53063 L392.813895,196.688996 L386.889994,196.077756 L380.841231,195.705045 L374.681,195.579 Z" fill="#121212"/>
  <path d="M326.573074,498.259926 L329.292404,496.173973 L331.691844,494.009547 L333.758237,491.772128 L335.478426,489.467199 L336.839254,487.10024 L337.827564,484.676733 L338.430198,482.202159 L338.634,479.682 L338.430198,477.161841 L337.827564,474.687267 L336.839254,472.26376 L335.478426,469.896801 L333.758237,467.591872 L331.691844,465.354453 L329.292404,463.190027 L326.573074,461.104074 L323.547012,459.102076 L320.227374,457.189514 L316.627318,455.37187 L312.76,453.654625 L308.638578,452.04326 L304.276209,450.543256 L299.686051,449.160096 L294.881259,447.899259 L289.874992,446.766228 L284.680406,445.766484 L279.310659,444.905509 L273.778907,444.188782 L268.098309,443.621787 L262.28202,443.210004 L256.343198,442.958915 L250.295,442.874 L244.246682,442.958915 L238.307751,443.210004 L232.491361,443.621787 L226.810671,444.188782 L221.278837,444.905509 L215.909016,445.766484 L210.714363,446.766228 L205.708037,447.899259 L200.903193,449.160096 L196.312989,450.543256 L191.950581,452.04326 L187.829125,453.654625 L183.961779,455.37187 L180.361698,457.189514 L177.042041,459.102076 L174.015963,461.104074 L171.296621,463.190027 L168.897172,465.354453 L166.830772,467.591872 L165.110579,469.896801 L163.749748,472.26376 L162.761437,474.687267 L162.158802,477.161841 L161.955,479.682 L162.158802,482.202159 L162.761437,484.676733 L163.749748,487.10024 L165.110579,489.467199 L166.830772,491.772128 L168.897172,494.009547 L171.296621,496.173973 L174.015963,498.259926 L176.646136,500 L323.942915,500 Z" fill="#F3F3F3"/>
</svg>
