<svg xmlns="http://www.w3.org/2000/svg" viewBox="0 250 125 125" width="200" height="200">
  <rect x="0" y="250" width="125" height="125" fill="#F3F3F3"/>
  <path d="M499.763417,494.982207 L499.053667,490.006153 L497.87075,485.113578 L496.214667,480.346222 L494.085417,475.745825 L491.483,471.354125 L488.407417,467.212863 L484.858667,463.363778 L480.83675,459.848609 L476.341667,456.709097 L471.373417,453.986981 L465.932,451.724 L465.932,451.724 L462.435587,450.337409 L459.101172,448.728419 L455.933744,446.909078 L452.938292,444.891435 L450.119803,442.687539 L447.483266,440.309438 L445.033669,437.76918 L442.776,435.078815 L440.715248,432.250391 L438.856401,429.295956 L437.204447,426.22756 L435.764375,423.05725 L434.541173,419.797076 L433.539828,416.459086 L432.76533,413.055328 L432.222667,409.597852 L431.916826,406.098705 L431.852797,402.569937 L432.035567,399.023597 L432.470125,395.471731 L433.161459,391.926391 L434.114557,388.399623 L435.334408,384.903476 L436.826,381.45 L436.826,381.45 L439.073304,376.001853 L440.661391,370.563591 L441.619773,365.164736 L441.977963,359.83481 L441.765472,354.603334 L441.011813,349.499828 L439.746497,344.553815 L437.999037,339.794815 L435.798945,335.25235 L433.175734,330.95594 L430.158915,326.935108 L426.778,323.219375 L423.062502,319.838261 L419.041933,316.821289 L414.745805,314.197979 L410.20363,311.997852 L405.44492,310.25043 L400.499188,308.985234 L395.395945,308.231786 L390.164704,308.019606 L384.834977,308.378217 L379.436275,309.337138 L373.998113,310.925892 L368.55,313.174 L368.55,313.174 L365.096639,314.666395 L361.600587,315.886913 L358.073896,316.840551 L354.528616,317.532306 L350.976795,317.967175 L347.430484,318.150156 L343.901734,318.086247 L340.402593,317.780444 L336.945111,317.237746 L333.54134,316.463149 L330.203328,315.461651 L326.943125,314.23825 L323.772782,312.797942 L320.704348,311.145726 L317.749873,309.286598 L314.921407,307.225556 L312.231001,304.967597 L309.690703,302.517719 L307.312564,299.880919 L305.108634,297.062194 L303.090963,294.066543 L301.2716,290.898962 L299.662596,287.564448 L298.276,284.068 L298.276,284.068 L296.013019,278.626583 L293.290903,273.658333 L290.151391,269.16325 L286.636222,265.141333 L282.787137,261.592583 L278.645875,258.517 L274.254175,255.914583 L269.653778,253.785333 L264.886422,252.12925 L259.993847,250.946333 L255.017793,250.236583 L250,250 L244.982207,250.236583 L240.006153,250.946333 L235.113578,252.12925 L230.346222,253.785333 L225.745825,255.914583 L221.354125,258.517 L217.212863,261.592583 L213.363778,265.141333 L209.848609,269.16325 L206.709097,273.658333 L203.986981,278.626583 L201.724,284.068 L201.724,284.068 L200.337404,287.564413 L198.7284,290.898828 L196.909037,294.066256 L194.891366,297.061708 L192.687436,299.880197 L190.309297,302.516734 L187.768999,304.966331 L185.078593,307.224 L182.250127,309.284752 L179.295652,311.143599 L176.227218,312.795553 L173.056875,314.235625 L169.796672,315.458827 L166.45866,316.460172 L163.054889,317.23467 L159.597407,317.777333 L156.098266,318.083174 L152.569516,318.147203 L149.023205,317.964433 L145.471384,317.529875 L141.926104,316.838541 L138.399413,315.885443 L134.903361,314.665592 L131.45,313.174 L131.45,313.174 L126.001865,310.926696 L120.563615,309.338609 L115.164772,308.380227 L109.834856,308.022037 L104.603389,308.234528 L99.499891,308.988188 L94.553882,310.253503 L89.794885,312.000963 L85.25242,314.201055 L80.956008,316.824266 L76.935169,319.841085 L73.219425,323.222 L69.838297,326.937498 L66.821305,330.958067 L64.197971,335.254195 L61.997815,339.79637 L60.250358,344.55508 L58.985122,349.500812 L58.231627,354.604055 L58.019394,359.835296 L58.377943,365.165023 L59.336797,370.563725 L60.925476,376.001887 L63.1735,381.45 L63.1735,381.45 L64.665956,384.903476 L65.88653,388.399623 L66.84022,391.926391 L67.532023,395.471731 L67.966936,399.023597 L68.149958,402.569937 L68.086085,406.098705 L67.780315,409.597852 L67.237645,413.055328 L66.463073,416.459086 L65.461597,419.797076 L64.238213,423.05725 L62.797919,426.22756 L61.145712,429.295956 L59.286591,432.250391 L57.225552,435.078815 L54.967593,437.76918 L52.517711,440.309437 L49.880904,442.687539 L47.062169,444.891435 L44.066504,446.909078 L40.898905,448.728419 L37.564372,450.337409 L34.0679,451.724 L34.0679,451.724 L28.626495,453.987096 L23.658256,456.709307 L19.163183,459.848896 L15.141275,463.364125 L11.592533,467.213255 L8.516956,471.354547 L5.914545,475.746264 L3.7853,480.346667 L2.12922,485.114018 L0.946306,490.006578 L0.236558,494.98261 L0,499.999845 L0,500 L500,500 Z" fill="#121212"/>
</svg>
