<svg xmlns="http://www.w3.org/2000/svg" viewBox="375 375 125 125" width="200" height="200">
  <rect x="375" y="375" width="125" height="125" fill="#F3F3F3"/>
  <path d="M439.456 334.738C439.456 398.956 425.21 451.038 407.636 451.038C400.946 451.038 394.771 443.512 389.663 430.672C388.341 427.354 383.728 427.486 382.609 430.885C378.432 443.601 373.42 451.045 367.986 451.045C360.634 451.045 353.994 437.419 349.257 415.489C348.502 411.98 343.46 412.112 342.857 415.651C339.167 437.485 334.009 451.045 328.335 451.045C317.14 451.045 308.081 398.971 308.081 334.746C308.081 270.521 317.14 218.446 328.335 218.446C334.016 218.446 339.174 232.006 342.857 253.841C343.453 257.379 348.494 257.511 349.257 254.002C353.986 232.073 360.626 218.446 367.986 218.446C373.42 218.446 378.44 225.891 382.609 238.607C383.721 242.006 388.341 242.138 389.663 238.82C394.771 225.972 400.946 218.454 407.636 218.454C425.21 218.454 439.456 270.528 439.456 334.753V334.738Z" fill="#121212"/>
</svg>
