<svg xmlns="http://www.w3.org/2000/svg" viewBox="0 375 125 125" width="200" height="200">
  <rect x="0" y="375" width="125" height="125" fill="#F3F3F3"/>
  <path d="M189.628 334.746C189.628 398.963 180.568 451.045 169.373 451.045C163.692 451.045 158.535 437.485 154.851 415.651C154.256 412.112 149.214 411.98 148.451 415.489C143.722 437.419 137.082 451.045 129.723 451.045C124.289 451.045 119.24 443.601 115.077 430.885C113.966 427.493 109.36 427.361 108.045 430.672C102.938 443.52 96.7627 451.045 90.0719 451.045C72.4986 451.045 58.2525 398.971 58.2525 334.746C58.2525 270.521 72.4986 218.446 90.0719 218.446C96.7627 218.446 102.938 225.972 108.045 238.82C109.36 242.131 113.966 241.999 115.077 238.607C119.24 225.891 124.282 218.446 129.723 218.446C137.075 218.446 143.715 232.073 148.451 254.002C149.207 257.511 154.248 257.379 154.851 253.841C158.542 232.006 163.7 218.446 169.373 218.446C180.568 218.446 189.628 270.521 189.628 334.746Z" fill="#121212"/>
</svg>
