<svg xmlns="http://www.w3.org/2000/svg" viewBox="125 375 125 125" width="200" height="200">
  <rect x="125" y="375" width="125" height="125" fill="#F3F3F3"/>
  <path d="M258.546 334.746C258.546 398.963 254.277 451.045 249.006 451.045C248.958 451.045 248.902 451.045 248.854 451.001C248.806 451.045 248.75 451.045 248.702 451.045C243.432 451.045 239.163 398.971 239.163 334.746C239.163 270.521 243.432 218.446 248.702 218.446C248.75 218.446 248.806 218.446 248.854 218.491C248.902 218.446 248.958 218.446 249.006 218.446C254.277 218.446 258.546 270.521 258.546 334.746Z" fill="#121212"/>
  <path d="M189.628 334.746C189.628 398.963 180.568 451.045 169.373 451.045C163.692 451.045 158.535 437.485 154.851 415.651C154.256 412.112 149.214 411.98 148.451 415.489C143.722 437.419 137.082 451.045 129.723 451.045C124.289 451.045 119.24 443.601 115.077 430.885C113.966 427.493 109.36 427.361 108.045 430.672C102.938 443.52 96.7627 451.045 90.0719 451.045C72.4986 451.045 58.2525 398.971 58.2525 334.746C58.2525 270.521 72.4986 218.446 90.0719 218.446C96.7627 218.446 102.938 225.972 108.045 238.82C109.36 242.131 113.966 241.999 115.077 238.607C119.24 225.891 124.282 218.446 129.723 218.446C137.075 218.446 143.715 232.073 148.451 254.002C149.207 257.511 154.248 257.379 154.851 253.841C158.542 232.006 163.7 218.446 169.373 218.446C180.568 218.446 189.628 270.521 189.628 334.746Z" fill="#121212"/>
  <path d="M228.393 334.746C228.393 398.963 222.12 451.045 214.394 451.045C206.669 451.045 200.395 398.971 200.395 334.746C200.395 270.521 206.669 218.446 214.394 218.446C222.12 218.446 228.393 270.521 228.393 334.746Z" fill="#121212"/>
</svg>
