<svg xmlns="http://www.w3.org/2000/svg" viewBox="125 375 125 125" width="200" height="200">
  <rect x="125" y="375" width="125" height="125" fill="#F3F3F3"/>
  <path d="M115,318 L115,500 L500,500 L500,318 Z" fill="#121212"/>
  <path d="M356.932 365.985C356.932 425.747 309.057 474.194 250 474.194C190.943 474.194 143.068 425.747 143.068 365.985C143.068 306.223 190.943 257.776 250 257.776C309.057 257.776 356.932 306.223 356.932 365.985Z" fill="#121212"/>
  <path d="M143.145,496.861708 L143.145,491.171417 L143.145,485.481125 L143.145,479.790833 L143.145,474.100542 L143.145,468.41025 L143.145,462.719958 L143.145,457.029667 L143.145,451.339375 L143.145,445.649083 L143.145,439.958792 L143.145,434.2685 L143.145,428.578208 L143.145,422.887917 L143.145,417.197625 L143.145,411.507333 L143.145,405.817042 L143.145,400.12675 L143.145,394.436458 L143.145,388.746167 L143.145,383.055875 L143.145,377.365583 L143.145,371.675292 L143.145,365.985 L143.145,365.985 L143.393411,358.510075 L144.127705,351.176995 L145.331475,344.001428 L146.98831,336.999042 L149.081804,330.185505 L151.595547,323.576484 L154.513131,317.187649 L157.818148,311.034667 L161.494189,305.133205 L165.524847,299.498932 L169.893711,294.147516 L174.584375,289.094625 L179.580429,284.355926 L184.865466,279.947089 L190.423076,275.883779 L196.236852,272.181667 L202.290384,268.856419 L208.567266,265.923703 L215.051087,263.399188 L221.72544,261.298542 L228.573916,259.637432 L235.580107,258.431526 L242.727605,257.696493 L250,257.448 L257.272401,257.706696 L264.419913,258.471173 L271.426127,259.724014 L278.274634,261.447801 L284.949025,263.625118 L291.432891,266.238547 L297.709821,269.270671 L303.763407,272.704074 L309.57724,276.521338 L315.13491,280.705046 L320.420008,285.23778 L325.416125,290.102125 L330.106851,295.280662 L334.475777,300.755975 L338.506494,306.510646 L342.182593,312.527259 L345.487663,318.788396 L348.405297,325.276641 L350.919084,331.974575 L353.012616,338.864782 L354.669482,345.929846 L355.873275,353.152348 L356.607584,360.514872 L356.856,368 L359.612,368 L362.368,368 L365.124,368 L367.88,368 L370.636,368 L373.392,368 L376.148,368 L378.904,368 L381.66,368 L384.416,368 L387.172,368 L389.928,368 L392.684,368 L395.44,368 L398.196,368 L400.952,368 L403.708,368 L406.464,368 L409.22,368 L411.976,368 L414.732,368 L417.488,368 L420.244,368 L423,368 L423,368 L422.607891,355.946809 L421.447521,344.08551 L419.54283,332.444643 L416.917755,321.052745 L413.596233,309.938357 L409.602203,299.130016 L404.959603,288.65626 L399.69237,278.54563 L393.824443,268.826662 L387.37976,259.527896 L380.382258,250.677871 L372.855875,242.305125 L364.82455,234.438197 L356.312219,227.105624 L347.342822,220.335947 L337.940296,214.157704 L328.128579,208.599432 L317.931609,203.689672 L307.373324,199.456961 L296.477662,195.929838 L285.268561,193.136842 L273.769958,191.106511 L262.005792,189.867384 L250,189.448 L250,189.448 L237.984813,189.857181 L226.193536,191.066864 L214.651715,193.05026 L203.384901,195.780579 L192.418641,199.231031 L181.778484,203.374828 L171.489979,208.18518 L161.578674,213.635296 L152.070118,219.698389 L142.989858,226.347667 L134.363445,233.556343 L126.216425,241.297625 L118.574348,249.544725 L111.462763,258.270854 L104.907217,267.449221 L98.933259,277.053037 L93.566439,287.055513 L88.832303,297.429859 L84.756402,308.149286 L81.364282,319.187005 L78.681494,330.516225 L76.733585,342.110157 L75.546104,353.942012 L75.1446,365.985 L75.1446,371.675292 L75.1446,377.365583 L75.1446,383.055875 L75.1446,388.746167 L75.1446,394.436458 L75.1446,400.12675 L75.1446,405.817042 L75.1446,411.507333 L75.1446,417.197625 L75.1446,422.887917 L75.1446,428.578208 L75.1446,434.2685 L75.1446,439.958792 L75.1446,445.649083 L75.1446,451.339375 L75.1446,457.029667 L75.1446,462.719958 L75.1446,468.41025 L75.1446,474.100542 L75.1446,479.790833 L75.1446,485.481125 L75.1446,491.171417 L75.1446,496.861708 L75.1446,500 L143.145,500 Z" fill="#121212" fill-rule="evenodd"/>
  <path d="M250,218.642 L259.881292,218.987198 L269.593046,220.007852 L279.112951,221.681557 L288.418699,223.985903 L297.48798,226.898483 L306.298484,230.396891 L314.827903,234.458717 L323.053926,239.061556 L330.954244,244.182998 L338.506548,249.800637 L345.688528,255.892065 L352.477875,262.434875 L358.852279,269.406659 L364.789431,276.785009 L370.267021,284.547518 L375.262741,292.671778 L379.754279,301.135382 L383.719328,309.915922 L387.135577,318.990991 L389.980718,328.338181 L392.232439,337.935084 L393.868433,347.759293 L394.86639,357.788401 L395.204,368 L397.653833,368 L400.103667,368 L402.5535,368 L405.003333,368 L407.453167,368 L409.903,368 L412.352833,368 L414.802667,368 L417.2525,368 L419.702333,368 L422.152167,368 L424.602,368 L427.051833,368 L429.501667,368 L431.9515,368 L434.401333,368 L436.851167,368 L439.301,368 L441.750833,368 L444.200667,368 L446.6505,368 L449.100333,368 L451.550167,368 L454,368 L453.557357,353.254204 L452.244816,338.754426 L450.085457,324.534578 L447.102361,310.628574 L443.318609,297.070327 L438.757281,283.89375 L433.441459,271.132756 L427.394222,258.821259 L420.638652,246.993172 L413.19783,235.682407 L405.094836,224.922879 L396.35275,214.7485 L386.994654,205.193183 L377.043628,196.290843 L366.522754,188.075391 L355.455111,180.580741 L343.863781,173.840806 L331.771844,167.8895 L319.202381,162.760736 L306.178472,158.488426 L292.723199,155.106484 L278.859642,152.648824 L264.610882,151.149358 L250,150.642 L250,150.642 L235.342514,151.143358 L220.95927,152.625508 L206.881338,155.055566 L193.139787,158.400648 L179.765688,162.627869 L166.790109,167.704344 L154.244122,173.597189 L142.158796,180.273519 L130.565201,187.700449 L119.494407,195.845096 L108.977483,204.674575 L99.0455,214.156 L89.729527,224.256488 L81.060635,234.943154 L73.069893,246.183113 L65.78837,257.943481 L59.247138,270.191374 L53.477266,282.893906 L48.509823,296.018194 L44.37588,309.531352 L41.106506,323.400496 L38.732771,337.592742 L37.285746,352.075205 L36.7965,366.815 L36.7965,374.087625 L36.7965,381.36025 L36.7965,388.632875 L36.7965,395.9055 L36.7965,403.178125 L36.7965,410.45075 L36.7965,417.723375 L36.7965,424.996 L36.7965,432.268625 L36.7965,439.54125 L36.7965,446.813875 L36.7965,454.0865 L36.7965,461.359125 L36.7965,468.63175 L36.7965,475.904375 L36.7965,483.177 L36.7965,490.449625 L36.7965,497.72225 L36.7965,500 L104.797,500 L104.797,497.72225 L104.797,490.449625 L104.797,483.177 L104.797,475.904375 L104.797,468.63175 L104.797,461.359125 L104.797,454.0865 L104.797,446.813875 L104.797,439.54125 L104.797,432.268625 L104.797,424.996 L104.797,417.723375 L104.797,410.45075 L104.797,403.178125 L104.797,395.9055 L104.797,388.632875 L104.797,381.36025 L104.797,374.087625 L104.797,366.815 L104.797,366.815 L105.134605,356.609402 L106.132547,346.597609 L107.768518,336.801002 L110.020208,327.240958 L112.865311,317.938857 L116.281516,308.916078 L120.246515,300.193999 L124.738,291.794 L129.733662,283.737459 L135.211193,276.045755 L141.148283,268.740268 L147.522625,261.842375 L154.31191,255.373456 L161.493828,249.354891 L169.046072,243.808057 L176.946333,238.754333 L185.172303,234.2151 L193.701672,230.211734 L202.512132,226.765617 L211.581375,223.898125 L220.887092,221.630639 L230.406974,219.984536 L240.118713,218.981197 L250,218.642 Z" fill="#121212" fill-rule="evenodd"/>
  <path d="M69.3982,498.57975 L69.3982,489.8465 L69.3982,481.11325 L69.3982,472.38 L69.3982,463.64675 L69.3982,454.9135 L69.3982,446.18025 L69.3982,437.447 L69.3982,428.71375 L69.3982,419.9805 L69.3982,411.24725 L69.3982,402.514 L69.3982,393.78075 L69.3982,385.0475 L69.3982,376.31425 L69.3982,367.581 L69.3982,367.581 L69.817911,354.860265 L71.058581,342.380367 L73.092514,330.16802 L75.892014,318.249935 L79.429386,306.652827 L83.676934,295.403406 L88.606963,284.528387 L94.191778,274.054481 L100.403682,264.008402 L107.21498,254.416862 L114.597976,245.306574 L122.524975,236.70425 L130.968281,228.636603 L139.9002,221.130346 L149.293034,214.212191 L159.119089,207.908852 L169.350669,202.24704 L179.960078,197.253469 L190.919621,192.954851 L202.201603,189.377898 L213.778327,186.549324 L225.622098,184.495841 L237.705221,183.244162 L250,182.821 L250,182.821 L262.29478,183.246279 L274.377906,184.504067 L286.221682,186.567287 L297.798412,189.408866 L309.080401,193.001727 L320.039953,197.318797 L330.649372,202.332999 L340.880963,208.017259 L350.707029,214.344502 L360.099876,221.287652 L369.031806,228.819635 L377.475125,236.913375 L385.402137,245.541797 L392.785145,254.677827 L399.596455,264.294389 L405.80837,274.364407 L411.393195,284.860808 L416.323234,295.756516 L420.570792,307.024455 L424.108171,318.637551 L426.907678,330.568729 L428.941615,342.790913 L430.182288,355.277028 L430.602,368 L433.435333,368 L436.268667,368 L439.102,368 L441.935333,368 L444.768667,368 L447.602,368 L450.435333,368 L453.268667,368 L456.102,368 L458.935333,368 L461.768667,368 L464.602,368 L467.435333,368 L470.268667,368 L473.102,368 L475.935333,368 L478.768667,368 L481.602,368 L484.435333,368 L487.268667,368 L490.102,368 L492.935333,368 L495.768667,368 L498.602,368 L498.602,368 L498.031522,350.763266 L496.344242,333.823438 L493.576389,317.219328 L489.76419,300.98975 L484.943875,285.173516 L479.151672,269.809438 L472.42381,254.936328 L464.796519,240.593 L456.306025,226.818266 L446.98856,213.650938 L436.88035,201.129828 L426.017625,189.29375 L414.436614,178.181516 L402.173545,167.831938 L389.264646,158.283828 L375.746148,149.576 L361.654278,141.747266 L347.025266,134.836437 L331.895339,128.882328 L316.300727,123.92375 L300.277658,119.999516 L283.862362,117.148438 L267.091066,115.409328 L250,114.821 L250,114.821 L232.908935,115.407211 L216.137643,117.140212 L199.722353,119.981553 L183.699292,123.892782 L168.104689,128.835451 L152.974773,134.771109 L138.345773,141.661306 L124.253917,149.467593 L110.735433,158.151518 L97.826549,167.674631 L85.563496,177.998484 L73.9825,189.084625 L63.119791,200.894605 L53.011596,213.389973 L43.694146,226.532279 L35.203667,240.283074 L27.576388,254.603907 L20.848539,269.456328 L15.056347,284.801887 L10.236042,300.602134 L6.423851,316.818619 L3.656003,333.412892 L1.968726,350.346502 L1.39825,367.581 L1.39825,376.31425 L1.39825,385.0475 L1.39825,393.78075 L1.39825,402.514 L1.39825,411.24725 L1.39825,419.9805 L1.39825,428.71375 L1.39825,437.447 L1.39825,446.18025 L1.39825,454.9135 L1.39825,463.64675 L1.39825,472.38 L1.39825,481.11325 L1.39825,489.8465 L1.39825,498.57975 L1.39825,500 L69.3982,500 Z" fill="#121212" fill-rule="evenodd"/>
  <path d="M264.711252,147.50549 L279.168227,149.000777 L293.337877,151.454084 L307.187153,154.833634 L320.683007,159.107652 L333.792391,164.244359 L346.482256,170.211981 L358.719556,176.978741 L370.47124,184.512861 L381.704262,192.782567 L392.385573,201.75608 L402.482125,211.401625 L411.96087,221.687425 L420.788759,232.581704 L428.932744,244.052686 L436.359778,256.068593 L443.036811,268.597649 L448.930797,281.608078 L454.008686,295.068104 L458.237431,308.945949 L461.583982,323.209838 L464.015293,337.827994 L465.498315,352.76864 L466,368 L468.833333,368 L471.666667,368 L474.5,368 L477.333333,368 L480.166667,368 L483,368 L485.833333,368 L488.666667,368 L491.5,368 L494.333333,368 L497.166667,368 L500,368 L500,231.043702 L495.375704,222.354074 L485.675273,206.632812 L475.03015,191.609259 L463.481753,177.327095 L451.0715,163.83 L437.840809,151.161655 L423.8311,139.365741 L409.083789,128.485938 L393.640296,118.565926 L377.54204,109.649387 L360.830438,101.78 L343.546908,95.001447 L325.73287,89.357407 L307.429742,84.891563 L288.678942,81.647593 L269.521889,79.669178 L250,79 L230.478157,79.670935 L211.321142,81.654421 L192.570373,84.906475 L174.267269,89.383116 L156.453248,95.040363 L139.169731,101.834234 L122.458136,109.720749 L106.359881,118.655926 L90.916387,128.595783 L76.169071,139.49634 L62.159352,151.313614 L48.92865,164.003625 L36.518383,177.522391 L24.969971,191.825931 L14.324832,206.870264 L4.624385,222.611407 L0,231.311101 L0,500 L34,500 L34,490.674 L34,480.480167 L34,470.286333 L34,460.0925 L34,449.898667 L34,439.704833 L34,429.511 L34,419.317167 L34,409.123333 L34,398.9295 L34,388.735667 L34,378.541833 L34,368.348 L34.501685,353.114878 L35.984707,338.169146 L38.416018,323.542885 L41.762569,309.268171 L45.991314,295.377085 L51.069203,281.901703 L56.963189,268.874106 L63.640222,256.32637 L71.067256,244.290576 L79.211241,232.798802 L88.03913,221.883125 L97.517875,211.575625 L107.614427,201.90838 L118.295738,192.913469 L129.52876,184.622971 L141.280444,177.068963 L153.517744,170.283525 L166.207609,164.298734 L179.316993,159.146671 L192.812847,154.859412 L206.662123,151.469037 L220.831773,149.007624 L235.288748,147.507253 L250,147 Z" fill="#121212" fill-rule="evenodd"/>
  <path d="M352.507 365.948C352.507 365.948 306.613 427.925 250 427.925C193.387 427.925 147.493 365.948 147.493 365.948C147.493 365.948 193.387 304.045 250 304.045C306.613 304.045 352.507 365.948 352.507 365.948Z" fill="#121212"/>
  <path d="M303.835 365.985C303.835 396.072 279.733 420.463 250.001 420.463C220.268 420.463 196.166 396.072 196.166 365.985C196.166 335.898 220.268 311.508 250.001 311.508C279.733 311.508 303.835 335.898 303.835 365.985Z" fill="#F3F3F3"/>
</svg>
