<svg xmlns="http://www.w3.org/2000/svg" viewBox="375 0 125 125" width="200" height="200">
  <rect x="375" y="0" width="125" height="125" fill="#F3F3F3"/>
  <path d="M69.3982,498.57975 L69.3982,489.8465 L69.3982,481.11325 L69.3982,472.38 L69.3982,463.64675 L69.3982,454.9135 L69.3982,446.18025 L69.3982,437.447 L69.3982,428.71375 L69.3982,419.9805 L69.3982,411.24725 L69.3982,402.514 L69.3982,393.78075 L69.3982,385.0475 L69.3982,376.31425 L69.3982,367.581 L69.3982,367.581 L69.817911,354.860265 L71.058581,342.380367 L73.092514,330.16802 L75.892014,318.249935 L79.429386,306.652827 L83.676934,295.403406 L88.606963,284.528387 L94.191778,274.054481 L100.403682,264.008402 L107.21498,254.416862 L114.597976,245.306574 L122.524975,236.70425 L130.968281,228.636603 L139.9002,221.130346 L149.293034,214.212191 L159.119089,207.908852 L169.350669,202.24704 L179.960078,197.253469 L190.919621,192.954851 L202.201603,189.377898 L213.778327,186.549324 L225.622098,184.495841 L237.705221,183.244162 L250,182.821 L250,182.821 L262.29478,183.246279 L274.377906,184.504067 L286.221682,186.567287 L297.798412,189.408866 L309.080401,193.001727 L320.039953,197.318797 L330.649372,202.332999 L340.880963,208.017259 L350.707029,214.344502 L360.099876,221.287652 L369.031806,228.819635 L377.475125,236.913375 L385.402137,245.541797 L392.785145,254.677827 L399.596455,264.294389 L405.80837,274.364407 L411.393195,284.860808 L416.323234,295.756516 L420.570792,307.024455 L424.108171,318.637551 L426.907678,330.568729 L428.941615,342.790913 L430.182288,355.277028 L430.602,368 L433.435333,368 L436.268667,368 L439.102,368 L441.935333,368 L444.768667,368 L447.602,368 L450.435333,368 L453.268667,368 L456.102,368 L458.935333,368 L461.768667,368 L464.602,368 L467.435333,368 L470.268667,368 L473.102,368 L475.935333,368 L478.768667,368 L481.602,368 L484.435333,368 L487.268667,368 L490.102,368 L492.935333,368 L495.768667,368 L498.602,368 L498.602,368 L498.031522,350.763266 L496.344242,333.823438 L493.576389,317.219328 L489.76419,300.98975 L484.943875,285.173516 L479.151672,269.809438 L472.42381,254.936328 L464.796519,240.593 L456.306025,226.818266 L446.98856,213.650938 L436.88035,201.129828 L426.017625,189.29375 L414.436614,178.181516 L402.173545,167.831938 L389.264646,158.283828 L375.746148,149.576 L361.654278,141.747266 L347.025266,134.836437 L331.895339,128.882328 L316.300727,123.92375 L300.277658,119.999516 L283.862362,117.148438 L267.091066,115.409328 L250,114.821 L250,114.821 L232.908935,115.407211 L216.137643,117.140212 L199.722353,119.981553 L183.699292,123.892782 L168.104689,128.835451 L152.974773,134.771109 L138.345773,141.661306 L124.253917,149.467593 L110.735433,158.151518 L97.826549,167.674631 L85.563496,177.998484 L73.9825,189.084625 L63.119791,200.894605 L53.011596,213.389973 L43.694146,226.532279 L35.203667,240.283074 L27.576388,254.603907 L20.848539,269.456328 L15.056347,284.801887 L10.236042,300.602134 L6.423851,316.818619 L3.656003,333.412892 L1.968726,350.346502 L1.39825,367.581 L1.39825,376.31425 L1.39825,385.0475 L1.39825,393.78075 L1.39825,402.514 L1.39825,411.24725 L1.39825,419.9805 L1.39825,428.71375 L1.39825,437.447 L1.39825,446.18025 L1.39825,454.9135 L1.39825,463.64675 L1.39825,472.38 L1.39825,481.11325 L1.39825,489.8465 L1.39825,498.57975 L1.39825,500 L69.3982,500 Z" fill="#121212" fill-rule="evenodd"/>
  <path d="M264.711252,147.50549 L279.168227,149.000777 L293.337877,151.454084 L307.187153,154.833634 L320.683007,159.107652 L333.792391,164.244359 L346.482256,170.211981 L358.719556,176.978741 L370.47124,184.512861 L381.704262,192.782567 L392.385573,201.75608 L402.482125,211.401625 L411.96087,221.687425 L420.788759,232.581704 L428.932744,244.052686 L436.359778,256.068593 L443.036811,268.597649 L448.930797,281.608078 L454.008686,295.068104 L458.237431,308.945949 L461.583982,323.209838 L464.015293,337.827994 L465.498315,352.76864 L466,368 L468.833333,368 L471.666667,368 L474.5,368 L477.333333,368 L480.166667,368 L483,368 L485.833333,368 L488.666667,368 L491.5,368 L494.333333,368 L497.166667,368 L500,368 L500,231.043702 L495.375704,222.354074 L485.675273,206.632812 L475.03015,191.609259 L463.481753,177.327095 L451.0715,163.83 L437.840809,151.161655 L423.8311,139.365741 L409.083789,128.485938 L393.640296,118.565926 L377.54204,109.649387 L360.830438,101.78 L343.546908,95.001447 L325.73287,89.357407 L307.429742,84.891563 L288.678942,81.647593 L269.521889,79.669178 L250,79 L230.478157,79.670935 L211.321142,81.654421 L192.570373,84.906475 L174.267269,89.383116 L156.453248,95.040363 L139.169731,101.834234 L122.458136,109.720749 L106.359881,118.655926 L90.916387,128.595783 L76.169071,139.49634 L62.159352,151.313614 L48.92865,164.003625 L36.518383,177.522391 L24.969971,191.825931 L14.324832,206.870264 L4.624385,222.611407 L0,231.311101 L0,500 L34,500 L34,490.674 L34,480.480167 L34,470.286333 L34,460.0925 L34,449.898667 L34,439.704833 L34,429.511 L34,419.317167 L34,409.123333 L34,398.9295 L34,388.735667 L34,378.541833 L34,368.348 L34.501685,353.114878 L35.984707,338.169146 L38.416018,323.542885 L41.762569,309.268171 L45.991314,295.377085 L51.069203,281.901703 L56.963189,268.874106 L63.640222,256.32637 L71.067256,244.290576 L79.211241,232.798802 L88.03913,221.883125 L97.517875,211.575625 L107.614427,201.90838 L118.295738,192.913469 L129.52876,184.622971 L141.280444,177.068963 L153.517744,170.283525 L166.207609,164.298734 L179.316993,159.146671 L192.812847,154.859412 L206.662123,151.469037 L220.831773,149.007624 L235.288748,147.507253 L250,147 Z" fill="#121212" fill-rule="evenodd"/>
</svg>
