<svg xmlns="http://www.w3.org/2000/svg" viewBox="250 125 125 125" width="200" height="200">
  <rect x="250" y="125" width="125" height="125" fill="#F3F3F3"/>
  <path d="M433.964206,10.420822 L426.986081,17.398988 L420.007956,24.377154 L413.029831,31.355321 L406.051706,38.333487 L399.073581,45.311653 L392.095456,52.289819 L385.117331,59.267985 L378.139206,66.246151 L371.161081,73.224317 L364.182956,80.202483 L357.204831,87.18065 L350.226706,94.158816 L343.248581,101.136982 L336.270456,108.115148 L329.292331,115.093314 L322.314206,122.07148 L315.336081,129.049646 L308.357956,136.027813 L301.379831,143.005979 L294.401706,149.984145 L287.423581,156.962311 L280.445456,163.940477 L280.431544,163.955847 L280.417633,163.971218 L280.403721,163.986588 L280.38981,164.001958 L280.375898,164.017329 L280.361987,164.032699 L280.348075,164.048069 L280.334163,164.06344 L280.320252,164.07881 L280.30634,164.09418 L280.292429,164.109551 L280.278517,164.124921 L280.264605,164.140291 L280.250694,164.155662 L280.236782,164.171032 L280.222871,164.186402 L280.208959,164.201773 L280.195047,164.217143 L280.181136,164.232513 L280.167224,164.247884 L280.153313,164.263254 L280.139401,164.278624 L280.12549,164.293995 L280.111578,164.309365 L280.099263,164.326042 L280.086948,164.342719 L280.074633,164.359396 L280.062318,164.376073 L280.050003,164.39275 L280.037688,164.409426 L280.025372,164.426103 L280.013057,164.44278 L280.000742,164.459457 L279.988427,164.476134 L279.976112,164.492811 L279.963797,164.509488 L279.951482,164.526165 L279.939167,164.542842 L279.926852,164.559519 L279.914537,164.576196 L279.902222,164.592873 L279.889906,164.60955 L279.877591,164.626226 L279.865276,164.642903 L279.852961,164.65958 L279.840646,164.676257 L279.828331,164.692934 L279.816016,164.709611 L279.805419,164.727429 L279.794823,164.745248 L279.784226,164.763066 L279.773629,164.780884 L279.763033,164.798702 L279.752436,164.81652 L279.741839,164.834339 L279.731243,164.852157 L279.720646,164.869975 L279.710049,164.887793 L279.699453,164.905612 L279.688856,164.92343 L279.678259,164.941248 L279.667663,164.959067 L279.657066,164.976885 L279.646469,164.994703 L279.635873,165.012521 L279.625276,165.030339 L279.614679,165.048158 L279.604083,165.065976 L279.593486,165.083794 L279.582889,165.101612 L279.572293,165.119431 L279.561696,165.137249 L279.552923,165.156032 L279.544149,165.174815 L279.535376,165.193599 L279.526603,165.212382 L279.51783,165.231165 L279.509056,165.249948 L279.500283,165.268731 L279.49151,165.287515 L279.482736,165.306298 L279.473963,165.325081 L279.46519,165.343864 L279.456416,165.362647 L279.447643,165.381431 L279.43887,165.400214 L279.430097,165.418997 L279.421323,165.43778 L279.41255,165.456564 L279.403777,165.475347 L279.395003,165.49413 L279.38623,165.512913 L279.377457,165.531696 L279.368684,165.55048 L279.35991,165.569263 L279.351137,165.588046 L279.344274,165.607608 L279.337411,165.62717 L279.330548,165.646732 L279.323685,165.666295 L279.316822,165.685857 L279.309958,165.705419 L279.303095,165.724981 L279.296232,165.744543 L279.289369,165.764105 L279.282506,165.783668 L279.275643,165.80323 L279.26878,165.822792 L279.261917,165.842354 L279.255054,165.861916 L279.248191,165.881478 L279.241328,165.901041 L279.234465,165.920603 L279.227601,165.940165 L279.220738,165.959727 L279.213875,165.979289 L279.207012,165.998852 L279.200149,166.018414 L279.193286,166.037976 L279.186423,166.057538 L279.181538,166.077685 L279.176653,166.097833 L279.171768,166.11798 L279.166883,166.138128 L279.161999,166.158275 L279.157114,166.178423 L279.152229,166.19857 L279.147344,166.218717 L279.142459,166.238865 L279.137574,166.259012 L279.132689,166.27916 L279.127805,166.299307 L279.12292,166.319454 L279.118035,166.339602 L279.11315,166.359749 L279.108265,166.379897 L279.10338,166.400044 L279.098495,166.420191 L279.09361,166.440339 L279.088726,166.460486 L279.083841,166.480634 L279.078956,166.500781 L279.074071,166.520929 L279.069186,166.541076 L279.066328,166.561609 L279.063469,166.582142 L279.060611,166.602675 L279.057753,166.623209 L279.054894,166.643742 L279.052036,166.664275 L279.049178,166.684808 L279.046319,166.705341 L279.043461,166.725874 L279.040603,166.746407 L279.037744,166.76694 L279.034886,166.787474 L279.032028,166.808007 L279.029169,166.82854 L279.026311,166.849073 L279.023453,166.869606 L279.020594,166.890139 L279.017736,166.910672 L279.014878,166.931205 L279.012019,166.951739 L279.009161,166.972272 L279.006303,166.992805 L279.003444,167.013338 L279.000586,167.033871 L278.999783,167.054587 L278.998979,167.075302 L278.998176,167.096018 L278.997372,167.116733 L278.996569,167.137449 L278.995765,167.158164 L278.994962,167.17888 L278.994158,167.199596 L278.993355,167.220311 L278.992551,167.241027 L278.991748,167.261742 L278.990945,167.282458 L278.990141,167.303174 L278.989338,167.323889 L278.988534,167.344605 L278.987731,167.36532 L278.986927,167.386036 L278.986124,167.406752 L278.98532,167.427467 L278.984517,167.448183 L278.983713,167.468898 L278.98291,167.489614 L278.982106,167.510329 L278.981303,167.531045 L278.982562,167.551738 L278.983822,167.572431 L278.985081,167.593123 L278.986341,167.613816 L278.9876,167.634509 L278.988859,167.655202 L278.990119,167.675895 L278.991378,167.696588 L278.992637,167.717281 L278.993897,167.737973 L278.995156,167.758666 L278.996416,167.779359 L278.997675,167.800052 L278.998934,167.820745 L279.000194,167.841437 L279.001453,167.86213 L279.002712,167.882823 L279.003972,167.903516 L279.005231,167.924209 L279.00649,167.944902 L279.00775,167.965595 L279.009009,167.986287 L279.010269,168.00698 L279.011528,168.027673 L279.014838,168.048138 L279.018147,168.068603 L279.021457,168.089069 L279.024767,168.109534 L279.028076,168.129999 L279.031386,168.150464 L279.034696,168.17093 L279.038005,168.191395 L279.041315,168.21186 L279.044625,168.232326 L279.047934,168.252791 L279.051244,168.273256 L279.054554,168.293721 L279.057863,168.314187 L279.061173,168.334652 L279.064483,168.355117 L279.067792,168.375582 L279.071102,168.396048 L279.074412,168.416513 L279.077721,168.436978 L279.081031,168.457443 L279.084341,168.477909 L279.08765,168.498374 L279.09096,168.518839 L279.096287,168.538874 L279.101615,168.558909 L279.106942,168.578944 L279.112269,168.598979 L279.117596,168.619014 L279.122924,168.639049 L279.128251,168.659084 L279.133578,168.679119 L279.138906,168.699154 L279.144233,168.719189 L279.14956,168.739224 L279.154887,168.759258 L279.160215,168.779293 L279.165542,168.799328 L279.170869,168.819363 L279.176197,168.839398 L279.181524,168.859433 L279.186851,168.879468 L279.192179,168.899503 L279.197506,168.919538 L279.202833,168.939573 L279.20816,168.959608 L279.213488,168.979643 L279.218815,168.999678 L279.226107,169.019084 L279.233399,169.038491 L279.240691,169.057897 L279.247984,169.077303 L279.255276,169.09671 L279.262568,169.116116 L279.26986,169.135522 L279.277152,169.154929 L279.284444,169.174335 L279.291736,169.193741 L279.299028,169.213148 L279.30632,169.232554 L279.313613,169.25196 L279.320905,169.271367 L279.328197,169.290773 L279.335489,169.310179 L279.342781,169.329586 L279.350073,169.348992 L279.357365,169.368398 L279.364658,169.387805 L279.37195,169.407211 L279.379242,169.426617 L279.386534,169.446024 L279.393826,169.46543 L279.403011,169.484015 L279.412195,169.502601 L279.42138,169.521186 L279.430565,169.539772 L279.43975,169.558357 L279.448934,169.576943 L279.458119,169.595529 L279.467304,169.614114 L279.476488,169.6327 L279.485673,169.651285 L279.494858,169.669871 L279.504042,169.688456 L279.513227,169.707042 L279.522412,169.725627 L279.531597,169.744213 L279.540781,169.762798 L279.549966,169.781384 L279.559151,169.799969 L279.568335,169.818555 L279.57752,169.83714 L279.586705,169.855726 L279.59589,169.874311 L279.605074,169.892897 L279.614259,169.911482 L279.625245,169.929063 L279.636232,169.946643 L279.647218,169.964224 L279.658205,169.981805 L279.669191,169.999385 L279.680177,170.016966 L279.691164,170.034546 L279.70215,170.052127 L279.713136,170.069708 L279.724123,170.087288 L279.735109,170.104869 L279.746096,170.12245 L279.757082,170.14003 L279.768068,170.157611 L279.779055,170.175191 L279.790041,170.192772 L279.801027,170.210353 L279.812014,170.227933 L279.823,170.245514 L279.833986,170.263094 L279.844973,170.280675 L279.855959,170.298256 L279.866946,170.315836 L279.877932,170.333417 L279.890611,170.349819 L279.90329,170.36622 L279.91597,170.382622 L279.928649,170.399024 L279.941328,170.415426 L279.954007,170.431827 L279.966687,170.448229 L279.979366,170.464631 L279.992045,170.481032 L280.004725,170.497434 L280.017404,170.513836 L280.030083,170.530237 L280.042762,170.546639 L280.055441,170.563041 L280.068121,170.579443 L280.0808,170.595844 L280.093479,170.612246 L280.106158,170.628648 L280.118838,170.645049 L280.131517,170.661451 L280.144196,170.677853 L280.156876,170.694255 L280.169555,170.710656 L280.182234,170.727058 L280.196481,170.742118 L280.210727,170.757179 L280.224974,170.772239 L280.23922,170.787299 L280.253467,170.80236 L280.267714,170.81742 L280.28196,170.832481 L280.296207,170.847541 L280.310454,170.862601 L280.3247,170.877662 L280.338947,170.892722 L280.353193,170.907782 L280.36744,170.922843 L280.381687,170.937903 L280.395933,170.952964 L280.41018,170.968024 L280.424427,170.983084 L280.438673,170.998145 L280.45292,171.013205 L280.467167,171.028266 L280.481413,171.043326 L280.49566,171.058386 L280.509906,171.073447 L280.524153,171.088507 L280.539826,171.102077 L280.555499,171.115647 L280.571171,171.129217 L280.586844,171.142786 L280.602517,171.156356 L280.61819,171.169926 L280.633863,171.183496 L280.649536,171.197066 L280.665209,171.210636 L280.680881,171.224206 L280.696554,171.237776 L280.712227,171.251346 L280.7279,171.264915 L280.743573,171.278485 L280.759246,171.292055 L280.774918,171.305625 L280.790591,171.319195 L280.806264,171.332765 L280.821937,171.346335 L280.83761,171.359904 L280.853283,171.373474 L280.868955,171.387044 L280.884628,171.400614 L280.900301,171.414184 L280.917245,171.426129 L280.934189,171.438074 L280.951133,171.450019 L280.968077,171.461964 L280.985021,171.473909 L281.001964,171.485854 L281.018908,171.497799 L281.035852,171.509744 L281.052796,171.521689 L281.06974,171.533634 L281.086684,171.545579 L281.103628,171.557524 L281.120572,171.56947 L281.137516,171.581415 L281.15446,171.59336 L281.171404,171.605305 L281.188348,171.61725 L281.205292,171.629195 L281.222235,171.64114 L281.239179,171.653085 L281.256123,171.66503 L281.273067,171.676975 L281.290011,171.68892 L281.306955,171.700865 L281.325002,171.711067 L281.343049,171.721269 L281.361097,171.731471 L281.379144,171.741672 L281.397191,171.751874 L281.415238,171.762076 L281.433285,171.772278 L281.451333,171.78248 L281.46938,171.792682 L281.487427,171.802884 L281.505474,171.813086 L281.523522,171.823287 L281.541569,171.833489 L281.559616,171.843691 L281.577663,171.853893 L281.59571,171.864095 L281.613758,171.874297 L281.631805,171.884499 L281.649852,171.894701 L281.667899,171.904902 L281.685946,171.915104 L281.703994,171.925306 L281.722041,171.935508 L281.740088,171.94571 L281.75906,171.954068 L281.778031,171.962425 L281.797003,171.970783 L281.815975,171.979141 L281.834947,171.987499 L281.853919,171.995857 L281.87289,172.004214 L281.891862,172.012572 L281.910834,172.02093 L281.929805,172.029288 L281.948777,172.037645 L281.967749,172.046003 L281.986721,172.054361 L282.005693,172.062718 L282.024664,172.071076 L282.043636,172.079434 L282.062608,172.087792 L282.081579,172.096149 L282.100551,172.104507 L282.119523,172.112865 L282.138495,172.121223 L282.157466,172.129581 L282.176438,172.137938 L282.19541,172.146296 L282.215118,172.152727 L282.234827,172.159158 L282.254535,172.165589 L282.274244,172.172019 L282.293952,172.17845 L282.313661,172.184881 L282.33337,172.191312 L282.353078,172.197743 L282.372786,172.204173 L282.392495,172.210604 L282.412203,172.217035 L282.431912,172.223466 L282.45162,172.229897 L282.471329,172.236328 L282.491038,172.242759 L282.510746,172.249189 L282.530454,172.25562 L282.550163,172.262051 L282.569871,172.268482 L282.58958,172.274913 L282.609288,172.281343 L282.628997,172.287774 L282.648706,172.294205 L282.668414,172.300636 L282.688664,172.305076 L282.708914,172.309517 L282.729164,172.313957 L282.749414,172.318397 L282.769664,172.322837 L282.789914,172.327278 L282.810164,172.331718 L282.830414,172.336158 L282.850664,172.340598 L282.870914,172.345039 L282.891164,172.349479 L282.911414,172.353919 L282.931665,172.358359 L282.951915,172.362799 L282.972165,172.36724 L282.992415,172.37168 L283.012665,172.37612 L283.032915,172.380561 L283.053165,172.385001 L283.073415,172.389441 L283.093665,172.393881 L283.113915,172.398322 L283.134165,172.402762 L283.154415,172.407202 L283.175006,172.409608 L283.195597,172.412013 L283.216188,172.414419 L283.236779,172.416825 L283.25737,172.419231 L283.277961,172.421636 L283.298553,172.424042 L283.319144,172.426448 L283.339735,172.428853 L283.360326,172.431259 L283.380917,172.433665 L283.401508,172.43607 L283.422099,172.438476 L283.44269,172.440882 L283.463281,172.443288 L283.483872,172.445693 L283.504463,172.448099 L283.525055,172.450505 L283.545646,172.45291 L283.566237,172.455316 L283.586828,172.457722 L283.607419,172.460128 L283.62801,172.462533 L283.648601,172.464939 L283.669329,172.465286 L283.690057,172.465634 L283.710786,172.465981 L283.731514,172.466328 L283.752242,172.466675 L283.77297,172.467023 L283.793698,172.46737 L283.814427,172.467717 L283.835155,172.468065 L283.855883,172.468412 L283.876611,172.468759 L283.897339,172.469107 L283.918068,172.469454 L283.938796,172.469801 L283.959524,172.470148 L283.980252,172.470496 L284.000981,172.470843 L284.021709,172.47119 L284.042437,172.471538 L284.063165,172.471885 L284.083893,172.472232 L284.104622,172.472579 L284.12535,172.472927 L284.146078,172.473274 L284.62537,172.457441 L285.104661,172.441609 L285.583953,172.425776 L286.063245,172.409943 L286.542537,172.39411 L287.021828,172.378278 L287.50112,172.362445 L287.980412,172.346612 L288.459703,172.33078 L288.938995,172.314947 L289.418287,172.299114 L289.897579,172.283281 L290.37687,172.267449 L290.856162,172.251616 L291.335454,172.235783 L291.814745,172.219951 L292.294037,172.204118 L292.773329,172.188285 L293.25262,172.172453 L293.731912,172.15662 L294.211204,172.140787 L294.690496,172.124954 L295.169787,172.109122 L295.649079,172.093289 L295.662849,172.092377 L295.676619,172.091465 L295.690388,172.090552 L295.704158,172.08964 L295.717928,172.088728 L295.731698,172.087816 L295.745468,172.086904 L295.759238,172.085991 L295.773008,172.085079 L295.786777,172.084167 L295.800547,172.083255 L295.814317,172.082342 L295.828087,172.08143 L295.841857,172.080518 L295.855626,172.079606 L295.869396,172.078694 L295.883166,172.077781 L295.896936,172.076869 L295.910706,172.075957 L295.924476,172.075045 L295.938245,172.074133 L295.952015,172.07322 L295.965785,172.072308 L295.979555,172.071396 L296.449947,172.024544 L296.920338,171.977693 L297.39073,171.930841 L297.861122,171.88399 L298.331513,171.837138 L298.801905,171.790286 L299.272297,171.743435 L299.742688,171.696583 L300.21308,171.649732 L300.683472,171.60288 L301.153863,171.556029 L301.624255,171.509177 L302.094647,171.462325 L302.565038,171.415474 L303.03543,171.368622 L303.505822,171.321771 L303.976213,171.274919 L304.446605,171.228068 L304.916997,171.181216 L305.387388,171.134364 L305.85778,171.087513 L306.328172,171.040661 L306.798563,170.99381 L307.268955,170.946958 L307.282624,170.945138 L307.296294,170.943318 L307.309963,170.941498 L307.323632,170.939677 L307.337301,170.937857 L307.350971,170.936037 L307.36464,170.934217 L307.378309,170.932397 L307.391979,170.930577 L307.405648,170.928757 L307.419317,170.926937 L307.432986,170.925117 L307.446656,170.923296 L307.460325,170.921476 L307.473994,170.919656 L307.487664,170.917836 L307.501333,170.916016 L307.515002,170.914196 L307.528672,170.912376 L307.542341,170.910556 L307.55601,170.908735 L307.569679,170.906915 L307.583349,170.905095 L307.597018,170.903275 L308.057488,170.826374 L308.517957,170.749474 L308.978427,170.672573 L309.438897,170.595673 L309.899367,170.518772 L310.359836,170.441871 L310.820306,170.364971 L311.280776,170.28807 L311.741245,170.211169 L312.201715,170.134269 L312.662185,170.057368 L313.122654,169.980468 L313.583124,169.903567 L314.043594,169.826666 L314.504064,169.749766 L314.964533,169.672865 L315.425003,169.595964 L315.885473,169.519064 L316.345942,169.442163 L316.806412,169.365263 L317.266882,169.288362 L317.727352,169.211461 L318.187821,169.134561 L318.648291,169.05766 L318.661779,169.054947 L318.675268,169.052233 L318.688756,169.04952 L318.702245,169.046807 L318.715733,169.044094 L318.729222,169.041381 L318.74271,169.038667 L318.756199,169.035954 L318.769687,169.033241 L318.783176,169.030528 L318.796664,169.027814 L318.810152,169.025101 L318.823641,169.022388 L318.837129,169.019674 L318.850618,169.016961 L318.864106,169.014248 L318.877595,169.011535 L318.891083,169.008821 L318.904572,169.006108 L318.91806,169.003395 L318.931549,169.000682 L318.945037,168.997968 L318.958526,168.995255 L318.972014,168.992542 L319.42154,168.886562 L319.871065,168.780582 L320.320591,168.674603 L320.770117,168.568623 L321.219643,168.462643 L321.669169,168.356663 L322.118694,168.250684 L322.56822,168.144704 L323.017746,168.038724 L323.467271,167.932744 L323.916797,167.826765 L324.366323,167.720785 L324.815849,167.614805 L325.265375,167.508826 L325.7149,167.402846 L326.164426,167.296866 L326.613952,167.190886 L327.063477,167.084906 L327.513003,166.978927 L327.962529,166.872947 L328.412055,166.766967 L328.861581,166.660988 L329.311106,166.555008 L329.760632,166.449028 L329.773867,166.445444 L329.787103,166.44186 L329.800338,166.438276 L329.813574,166.434692 L329.826809,166.431108 L329.840045,166.427524 L329.85328,166.42394 L329.866516,166.420356 L329.879751,166.416772 L329.892987,166.413188 L329.906222,166.409604 L329.919458,166.40602 L329.932693,166.402436 L329.945928,166.398852 L329.959164,166.395268 L329.972399,166.391684 L329.985635,166.3881 L329.99887,166.384516 L330.012106,166.380932 L330.025341,166.377348 L330.038577,166.373764 L330.051812,166.37018 L330.065048,166.366596 L330.078283,166.363012 L330.515843,166.228923 L330.953403,166.094834 L331.390962,165.960745 L331.828522,165.826656 L332.266082,165.692567 L332.703642,165.558478 L333.141202,165.424389 L333.578761,165.2903 L334.016321,165.156211 L334.453881,165.022122 L334.891441,164.888033 L335.329001,164.753944 L335.76656,164.619855 L336.20412,164.485766 L336.64168,164.351677 L337.07924,164.217588 L337.516799,164.083499 L337.954359,163.94941 L338.391919,163.815321 L338.829479,163.681232 L339.267039,163.547143 L339.704598,163.413054 L340.142158,163.278965 L340.579718,163.144876 L340.592637,163.140449 L340.605556,163.136022 L340.618474,163.131595 L340.631393,163.127168 L340.644312,163.122741 L340.657231,163.118314 L340.670149,163.113887 L340.683068,163.10946 L340.695987,163.105033 L340.708906,163.100606 L340.721824,163.096179 L340.734743,163.091751 L340.747662,163.087324 L340.760581,163.082897 L340.773499,163.07847 L340.786418,163.074043 L340.799337,163.069616 L340.812255,163.065189 L340.825174,163.060762 L340.838093,163.056335 L340.851012,163.051908 L340.86393,163.047481 L340.876849,163.043054 L340.889768,163.038627 L341.31434,162.877399 L341.738912,162.71617 L342.163484,162.554942 L342.588056,162.393713 L343.012628,162.232485 L343.4372,162.071257 L343.861771,161.910028 L344.286343,161.7488 L344.710915,161.587572 L345.135487,161.426343 L345.560059,161.265115 L345.984631,161.103886 L346.409203,160.942658 L346.833775,160.78143 L347.258347,160.620201 L347.682919,160.458973 L348.107491,160.297745 L348.532062,160.136516 L348.956634,159.975288 L349.381206,159.81406 L349.805778,159.652831 L350.23035,159.491603 L350.654922,159.330374 L351.079494,159.169146 L351.092041,159.163907 L351.104587,159.158668 L351.117134,159.153429 L351.129681,159.148189 L351.142228,159.14295 L351.154775,159.137711 L351.167321,159.132472 L351.179868,159.127233 L351.192415,159.121994 L351.204961,159.116754 L351.217508,159.111515 L351.230055,159.106276 L351.242602,159.101037 L351.255149,159.095798 L351.267695,159.090559 L351.280242,159.085319 L351.292789,159.08008 L351.305335,159.074841 L351.317882,159.069602 L351.330429,159.064363 L351.342976,159.059123 L351.355523,159.053884 L351.368069,159.048645 L351.380616,159.043406 L351.791178,158.856008 L352.20174,158.66861 L352.612302,158.481212 L353.022864,158.293815 L353.433426,158.106417 L353.843988,157.919019 L354.25455,157.731621 L354.665112,157.544223 L355.075674,157.356826 L355.486236,157.169428 L355.896798,156.98203 L356.30736,156.794632 L356.717923,156.607234 L357.128485,156.419836 L357.539047,156.232439 L357.949609,156.045041 L358.360171,155.857643 L358.770733,155.670245 L359.181295,155.482847 L359.591857,155.295449 L360.002419,155.108052 L360.412981,154.920654 L360.823543,154.733256 L361.234105,154.545858 L361.246232,154.539839 L361.258359,154.53382 L361.270487,154.527801 L361.282614,154.521782 L361.294741,154.515763 L361.306868,154.509744 L361.318995,154.503725 L361.331123,154.497706 L361.34325,154.491687 L361.355377,154.485668 L361.367504,154.479649 L361.379631,154.473631 L361.391759,154.467612 L361.403886,154.461593 L361.416013,154.455574 L361.42814,154.449555 L361.440268,154.443536 L361.452395,154.437517 L361.464522,154.431498 L361.476649,154.425479 L361.488776,154.41946 L361.500904,154.413441 L361.513031,154.407422 L361.525158,154.401403 L361.920688,154.188806 L362.316218,153.976208 L362.711748,153.76361 L363.107279,153.551013 L363.502809,153.338415 L363.898339,153.125818 L364.293869,152.91322 L364.689399,152.700623 L365.084929,152.488025 L365.48046,152.275428 L365.87599,152.06283 L366.27152,151.850233 L366.66705,151.637635 L367.06258,151.425038 L367.45811,151.21244 L367.853641,150.999843 L368.249171,150.787245 L368.644701,150.574648 L369.040231,150.36205 L369.435761,150.149453 L369.831291,149.936855 L370.226822,149.724258 L370.622352,149.51166 L371.017882,149.299063 L371.029549,149.292297 L371.041215,149.28553 L371.052882,149.278764 L371.064549,149.271997 L371.076216,149.265231 L371.087882,149.258464 L371.099549,149.251698 L371.111216,149.244931 L371.122883,149.238165 L371.134549,149.231398 L371.146216,149.224632 L371.157883,149.217865 L371.16955,149.211099 L371.181217,149.204333 L371.192883,149.197566 L371.20455,149.1908 L371.216217,149.184033 L371.227884,149.177267 L371.23955,149.1705 L371.251217,149.163734 L371.262884,149.156967 L371.274551,149.150201 L371.286217,149.143434 L371.297884,149.136668 L371.67736,148.899841 L372.056837,148.663013 L372.436313,148.426186 L372.815789,148.189359 L373.195266,147.952532 L373.574742,147.715704 L373.954219,147.478877 L374.333695,147.24205 L374.713171,147.005223 L375.092648,146.768395 L375.472124,146.531568 L375.851601,146.294741 L376.231077,146.057914 L376.610553,145.821086 L376.99003,145.584259 L377.369506,145.347432 L377.748982,145.110605 L378.128459,144.873777 L378.507935,144.63695 L378.887412,144.400123 L379.266888,144.163296 L379.646364,143.926468 L380.025841,143.689641 L380.405317,143.452814 L380.416488,143.445331 L380.427658,143.437848 L380.438828,143.430365 L380.449999,143.422883 L380.46117,143.4154 L380.47234,143.407917 L380.483511,143.400434 L380.494681,143.392951 L380.505852,143.385469 L380.517022,143.377986 L380.528192,143.370503 L380.539363,143.36302 L380.550534,143.355537 L380.561704,143.348054 L380.572875,143.340571 L380.584045,143.333089 L380.595215,143.325606 L380.606386,143.318123 L380.617556,143.31064 L380.628727,143.303157 L380.639898,143.295674 L380.651068,143.288192 L380.662239,143.280709 L380.673409,143.273226 L381.03581,143.013139 L381.39821,142.753052 L381.760611,142.492965 L382.123011,142.232878 L382.485412,141.972791 L382.847812,141.712704 L383.210213,141.452616 L383.572614,141.192529 L383.935014,140.932442 L384.297415,140.672355 L384.659815,140.412268 L385.022216,140.152181 L385.384617,139.892094 L385.747017,139.632007 L386.109418,139.37192 L386.471818,139.111833 L386.834219,138.851746 L387.196619,138.591658 L387.55902,138.331571 L387.921421,138.071484 L388.283821,137.811397 L388.646222,137.55131 L389.008622,137.291223 L389.371023,137.031136 L389.381665,137.022966 L389.392308,137.014797 L389.40295,137.006628 L389.413592,136.998458 L389.424235,136.990288 L389.434877,136.982119 L389.445519,136.97395 L389.456162,136.96578 L389.466804,136.957611 L389.477446,136.949441 L389.488089,136.941271 L389.498731,136.933102 L389.509373,136.924933 L389.520016,136.916763 L389.530658,136.908593 L389.5413,136.900424 L389.551943,136.892255 L389.562585,136.884085 L389.573227,136.875916 L389.58387,136.867746 L389.594512,136.859577 L389.605154,136.851407 L389.615797,136.843238 L389.626439,136.835068 L389.970742,136.552691 L390.315045,136.270314 L390.659348,135.987937 L391.00365,135.705559 L391.347953,135.423182 L391.692256,135.140805 L392.036559,134.858428 L392.380862,134.576051 L392.725165,134.293674 L393.069467,134.011297 L393.41377,133.72892 L393.758073,133.446543 L394.102376,133.164165 L394.446679,132.881788 L394.790981,132.599411 L395.135284,132.317034 L395.479587,132.034657 L395.82389,131.75228 L396.168193,131.469903 L396.512496,131.187525 L396.856798,130.905148 L397.201101,130.622771 L397.545404,130.340394 L397.889707,130.058017 L397.899791,130.049189 L397.909876,130.040361 L397.91996,130.031532 L397.930044,130.022704 L397.940129,130.013876 L397.950213,130.005048 L397.960297,129.99622 L397.970382,129.987392 L397.980466,129.978564 L397.99055,129.969735 L398.000635,129.960907 L398.010719,129.952079 L398.020803,129.943251 L398.030888,129.934423 L398.040972,129.925594 L398.051056,129.916766 L398.061141,129.907938 L398.071225,129.89911 L398.081309,129.890282 L398.091394,129.881454 L398.101478,129.872625 L398.111562,129.863797 L398.121647,129.854969 L398.131731,129.846141 L398.456914,129.542444 L398.782097,129.238747 L399.10728,128.935049 L399.432463,128.631352 L399.757646,128.327655 L400.08283,128.023958 L400.408013,127.720261 L400.733196,127.416564 L401.058379,127.112866 L401.383562,126.809169 L401.708745,126.505472 L402.033928,126.201775 L402.359111,125.898078 L402.684294,125.594381 L403.009477,125.290684 L403.33466,124.986986 L403.659843,124.683289 L403.985027,124.379592 L404.31021,124.075895 L404.635393,123.772198 L404.960576,123.468501 L405.285759,123.164803 L405.610942,122.861106 L405.936125,122.557409 L405.945622,122.547949 L405.95512,122.538489 L405.964617,122.529029 L405.974115,122.519569 L405.983612,122.510109 L405.99311,122.500649 L406.002607,122.491189 L406.012104,122.481729 L406.021602,122.472269 L406.031099,122.462809 L406.040597,122.453349 L406.050094,122.443889 L406.059591,122.434429 L406.069089,122.424969 L406.078586,122.415509 L406.088084,122.406049 L406.097581,122.396589 L406.107079,122.387129 L406.116576,122.377669 L406.126073,122.368209 L406.135571,122.358749 L406.145068,122.349289 L406.154566,122.339829 L406.164063,122.330369 L406.469104,122.006322 L406.774146,121.682274 L407.079187,121.358227 L407.384229,121.034179 L407.68927,120.710132 L407.994311,120.386084 L408.299353,120.062037 L408.604394,119.737989 L408.909435,119.413942 L409.214477,119.089894 L409.519518,118.765847 L409.824559,118.4418 L410.129601,118.117752 L410.434642,117.793705 L410.739684,117.469657 L411.044725,117.14561 L411.349766,116.821562 L411.654808,116.497515 L411.959849,116.173467 L412.26489,115.84942 L412.569932,115.525372 L412.874973,115.201325 L413.180015,114.877277 L413.485056,114.55323 L413.493937,114.543165 L413.502818,114.533099 L413.511699,114.523034 L413.520581,114.512968 L413.529462,114.502903 L413.538343,114.492838 L413.547224,114.482772 L413.556105,114.472707 L413.564986,114.462641 L413.573868,114.452576 L413.582749,114.44251 L413.59163,114.432445 L413.600511,114.42238 L413.609392,114.412314 L413.618273,114.402249 L413.627155,114.392183 L413.636036,114.382118 L413.644917,114.372052 L413.653798,114.361987 L413.662679,114.351922 L413.67156,114.341856 L413.680442,114.331791 L413.689323,114.321725 L413.698204,114.31166 L413.982082,113.968232 L414.265959,113.624804 L414.549837,113.281377 L414.833715,112.937949 L415.117593,112.594521 L415.40147,112.251093 L415.685348,111.907665 L415.969226,111.564238 L416.253103,111.22081 L416.536981,110.877382 L416.820859,110.533954 L417.104737,110.190527 L417.388614,109.847099 L417.672492,109.503671 L417.95637,109.160243 L418.240247,108.816815 L418.524125,108.473388 L418.808003,108.12996 L419.09188,107.786532 L419.375758,107.443104 L419.659636,107.099676 L419.943514,106.756249 L420.227391,106.412821 L420.511269,106.069393 L420.519503,106.058749 L420.527738,106.048105 L420.535972,106.037462 L420.544206,106.026818 L420.55244,106.016174 L420.560675,106.00553 L420.568909,105.994886 L420.577143,105.984243 L420.585377,105.973599 L420.593612,105.962955 L420.601846,105.952311 L420.61008,105.941667 L420.618314,105.931024 L420.626549,105.92038 L420.634783,105.909736 L420.643017,105.899092 L420.651251,105.888449 L420.659486,105.877805 L420.66772,105.867161 L420.675954,105.856517 L420.684188,105.845873 L420.692423,105.83523 L420.700657,105.824586 L420.708891,105.813942 L420.970583,105.452104 L421.232275,105.090265 L421.493967,104.728427 L421.755659,104.366589 L422.017351,104.004751 L422.279043,103.642912 L422.540735,103.281074 L422.802427,102.919236 L423.064119,102.557397 L423.325811,102.195559 L423.587503,101.833721 L423.849196,101.471882 L424.110888,101.110044 L424.37258,100.748206 L424.634272,100.386368 L424.895964,100.024529 L425.157656,99.662691 L425.419348,99.300853 L425.68104,98.939014 L425.942732,98.577176 L426.204424,98.215338 L426.466116,97.8535 L426.727808,97.491661 L426.9895,97.129823 L426.997055,97.11863 L427.00461,97.107437 L427.012165,97.096244 L427.01972,97.085051 L427.027275,97.073858 L427.03483,97.062665 L427.042385,97.051472 L427.04994,97.040279 L427.057495,97.029086 L427.06505,97.017893 L427.072605,97.0067 L427.08016,96.995508 L427.087714,96.984315 L427.095269,96.973122 L427.102824,96.961929 L427.110379,96.950736 L427.117934,96.939543 L427.125489,96.92835 L427.133044,96.917157 L427.140599,96.905964 L427.148154,96.894771 L427.155709,96.883578 L427.163264,96.872385 L427.170819,96.861192 L427.409303,96.481913 L427.647788,96.102634 L427.886272,95.723355 L428.124756,95.344076 L428.363241,94.964798 L428.601725,94.585519 L428.84021,94.20624 L429.078694,93.826961 L429.317178,93.447682 L429.555663,93.068403 L429.794147,92.689124 L430.032631,92.309845 L430.271116,91.930567 L430.5096,91.551288 L430.748085,91.172009 L430.986569,90.79273 L431.225053,90.413451 L431.463538,90.034172 L431.702022,89.654893 L431.940507,89.275615 L432.178991,88.896336 L432.417475,88.517057 L432.65596,88.137778 L432.894444,87.758499 L432.901285,87.74679 L432.908127,87.73508 L432.914968,87.723371 L432.921809,87.711661 L432.928651,87.699951 L432.935492,87.688242 L432.942333,87.676532 L432.949175,87.664823 L432.956016,87.653114 L432.962857,87.641404 L432.969699,87.629694 L432.97654,87.617985 L432.983381,87.606275 L432.990223,87.594566 L432.997064,87.582856 L433.003905,87.571147 L433.010747,87.559438 L433.017588,87.547728 L433.024429,87.536018 L433.031271,87.524309 L433.038112,87.512599 L433.044953,87.50089 L433.051795,87.48918 L433.058636,87.477471 L433.272891,87.081721 L433.487146,86.685972 L433.7014,86.290222 L433.915655,85.894472 L434.12991,85.498723 L434.344165,85.102973 L434.55842,84.707224 L434.772674,84.311474 L434.986929,83.915724 L435.201184,83.519975 L435.415439,83.124225 L435.629694,82.728476 L435.843948,82.332726 L436.058203,81.936976 L436.272458,81.541227 L436.486713,81.145477 L436.700967,80.749727 L436.915222,80.353978 L437.129477,79.958228 L437.343732,79.562478 L437.557987,79.166729 L437.772241,78.770979 L437.986496,78.37523 L438.200751,77.97948 L438.206843,77.967292 L438.212935,77.955104 L438.219027,77.942916 L438.225118,77.930728 L438.23121,77.91854 L438.237302,77.906351 L438.243394,77.894163 L438.249486,77.881975 L438.255578,77.869787 L438.261669,77.857599 L438.267761,77.845411 L438.273853,77.833223 L438.279945,77.821035 L438.286037,77.808847 L438.292128,77.796659 L438.29822,77.784471 L438.304312,77.772283 L438.310404,77.760094 L438.316496,77.747906 L438.322588,77.735718 L438.328679,77.72353 L438.334771,77.711342 L438.340863,77.699154 L438.346955,77.686966 L438.535958,77.275716 L438.724962,76.864465 L438.913965,76.453215 L439.102968,76.041964 L439.291971,75.630714 L439.480975,75.219463 L439.669978,74.808213 L439.858981,74.396962 L440.047984,73.985712 L440.236987,73.574461 L440.425991,73.163211 L440.614994,72.75196 L440.803997,72.34071 L440.993,71.92946 L441.182004,71.518209 L441.371007,71.106959 L441.56001,70.695708 L441.749013,70.284458 L441.938017,69.873207 L442.12702,69.461957 L442.316023,69.050706 L442.505026,68.639456 L442.69403,68.228205 L442.883033,67.816955 L442.888339,67.804333 L442.893644,67.79171 L442.89895,67.779088 L442.904256,67.766466 L442.909562,67.753844 L442.914868,67.741221 L442.920173,67.728599 L442.925479,67.715977 L442.930785,67.703355 L442.936091,67.690732 L442.941396,67.67811 L442.946702,67.665488 L442.952008,67.652866 L442.957313,67.640243 L442.962619,67.627621 L442.967925,67.614999 L442.973231,67.602377 L442.978537,67.589754 L442.983842,67.577132 L442.989148,67.56451 L442.994454,67.551888 L442.99976,67.539265 L443.005065,67.526643 L443.010371,67.514021 L443.173101,67.08824 L443.33583,66.662458 L443.49856,66.236677 L443.66129,65.810895 L443.82402,65.385114 L443.986749,64.959332 L444.149479,64.533551 L444.312209,64.107769 L444.474938,63.681988 L444.637668,63.256206 L444.800398,62.830425 L444.963128,62.404643 L445.125857,61.978862 L445.288587,61.553081 L445.451317,61.127299 L445.614046,60.701518 L445.776776,60.275736 L445.939506,59.849955 L446.102235,59.424173 L446.264965,58.998392 L446.427695,58.57261 L446.590425,58.146829 L446.753154,57.721047 L446.915884,57.295266 L446.920368,57.282262 L446.924852,57.269258 L446.929335,57.256254 L446.933819,57.24325 L446.938303,57.230246 L446.942787,57.217242 L446.947271,57.204239 L446.951755,57.191235 L446.956239,57.178231 L446.960722,57.165227 L446.965206,57.152223 L446.96969,57.139219 L446.974174,57.126215 L446.978658,57.113211 L446.983141,57.100207 L446.987625,57.087203 L446.992109,57.074199 L446.996593,57.061196 L447.001077,57.048192 L447.005561,57.035188 L447.010045,57.022184 L447.014528,57.00918 L447.019012,56.996176 L447.023496,56.983172 L447.15893,56.543829 L447.294364,56.104487 L447.429799,55.665144 L447.565233,55.225802 L447.700667,54.786459 L447.836101,54.347117 L447.971535,53.907774 L448.106969,53.468432 L448.242404,53.029089 L448.377838,52.589747 L448.513272,52.150404 L448.648706,51.711061 L448.78414,51.271719 L448.919574,50.832376 L449.055008,50.393034 L449.190443,49.953691 L449.325877,49.514349 L449.461311,49.075006 L449.596745,48.635664 L449.732179,48.196321 L449.867614,47.756979 L450.003048,47.317636 L450.138482,46.878294 L450.273916,46.438951 L450.277545,46.425627 L450.281173,46.412302 L450.284802,46.398978 L450.28843,46.385653 L450.292059,46.372329 L450.295687,46.359004 L450.299316,46.34568 L450.302944,46.332355 L450.306573,46.319031 L450.310201,46.305706 L450.31383,46.292382 L450.317458,46.279058 L450.321087,46.265733 L450.324716,46.252409 L450.328344,46.239084 L450.331973,46.22576 L450.335601,46.212435 L450.33923,46.199111 L450.342858,46.185786 L450.346487,46.172462 L450.350115,46.159137 L450.353744,46.145813 L450.357372,46.132488 L450.361001,46.119164 L450.468118,45.66723 L450.575234,45.215297 L450.682351,44.763363 L450.789468,44.311429 L450.896584,43.859495 L451.003701,43.407561 L451.110818,42.955628 L451.217934,42.503694 L451.325051,42.05176 L451.432168,41.599826 L451.539284,41.147893 L451.646401,40.695959 L451.753518,40.244025 L451.860634,39.792091 L451.967751,39.340158 L452.074868,38.888224 L452.181984,38.43629 L452.289101,37.984356 L452.396218,37.532423 L452.503334,37.080489 L452.610451,36.628555 L452.717568,36.176621 L452.824684,35.724688 L452.931801,35.272754 L452.934545,35.25918 L452.93729,35.245605 L452.940034,35.232031 L452.942778,35.218456 L452.945523,35.204881 L452.948267,35.191307 L452.951011,35.177732 L452.953756,35.164158 L452.9565,35.150584 L452.959244,35.137009 L452.961989,35.123435 L452.964733,35.10986 L452.967477,35.096286 L452.970222,35.082711 L452.972966,35.069136 L452.97571,35.055562 L452.978455,35.041988 L452.981199,35.028413 L452.983943,35.014839 L452.986688,35.001264 L452.989432,34.98769 L452.992176,34.974115 L452.994921,34.960541 L452.997665,34.946966 L453.075442,34.483411 L453.153219,34.019856 L453.230997,33.556301 L453.308774,33.092746 L453.386551,32.62919 L453.464328,32.165635 L453.542105,31.70208 L453.619883,31.238525 L453.69766,30.77497 L453.775437,30.311415 L453.853214,29.84786 L453.930992,29.384305 L454.008769,28.920749 L454.086546,28.457194 L454.164323,27.993639 L454.2421,27.530084 L454.319878,27.066529 L454.397655,26.602974 L454.475432,26.139419 L454.553209,25.675864 L454.630986,25.212308 L454.708764,24.748753 L454.786541,24.285198 L454.864318,23.821643 L454.866156,23.807898 L454.867995,23.794152 L454.869833,23.780407 L454.871671,23.766662 L454.873509,23.752916 L454.875348,23.739171 L454.877186,23.725426 L454.879024,23.71168 L454.880862,23.697935 L454.8827,23.68419 L454.884539,23.670444 L454.886377,23.656699 L454.888215,23.642954 L454.890054,23.629208 L454.891892,23.615463 L454.89373,23.601718 L454.895568,23.587972 L454.897406,23.574227 L454.899245,23.560482 L454.901083,23.546736 L454.902921,23.532991 L454.90476,23.519246 L454.906598,23.5055 L454.908436,23.491755 L454.955852,23.017548 L455.003267,22.543342 L455.050683,22.069135 L455.098099,21.594929 L455.145515,21.120722 L455.19293,20.646515 L455.240346,20.172309 L455.287762,19.698102 L455.335178,19.223896 L455.382593,18.749689 L455.430009,18.275483 L455.477425,17.801276 L455.524841,17.327069 L455.572257,16.852863 L455.619672,16.378656 L455.667088,15.90445 L455.714504,15.430243 L455.76192,14.956036 L455.809335,14.48183 L455.856751,14.007623 L455.904167,13.533417 L455.951583,13.05921 L455.998998,12.585004 L456.046414,12.110797 L456.047333,12.096968 L456.048253,12.083139 L456.049172,12.06931 L456.050092,12.055481 L456.051011,12.041652 L456.051931,12.027823 L456.05285,12.013994 L456.05377,12.000165 L456.054689,11.986336 L456.055609,11.972507 L456.056528,11.958678 L456.057448,11.944849 L456.058367,11.93102 L456.059286,11.917191 L456.060206,11.903362 L456.061125,11.889533 L456.062045,11.875704 L456.062964,11.861875 L456.063884,11.848046 L456.064803,11.834217 L456.065723,11.820388 L456.066642,11.806559 L456.067562,11.79273 L456.068481,11.778901 L456.084513,11.295013 L456.100546,10.811125 L456.116578,10.327236 L456.13261,9.843348 L456.148643,9.35946 L456.164675,8.875572 L456.180708,8.391684 L456.19674,7.907796 L456.212772,7.423907 L456.228805,6.940019 L456.244837,6.456131 L456.26087,5.972243 L456.276902,5.488355 L456.292934,5.004467 L456.308967,4.520579 L456.324999,4.03669 L456.341031,3.552802 L456.357064,3.068914 L456.373096,2.585026 L456.389129,2.101138 L456.405161,1.617249 L456.421193,1.133361 L456.437226,0.649473 L456.453258,0.165585 L456.453258,0.165585 L456.452913,0.144856 L456.452567,0.124127 L456.452222,0.103398 L456.451877,0.082668 L456.451531,0.061939 L456.451186,0.04121 L456.450841,0.020481 L456.450499,0 L444.384967,0 L440.942331,3.442656 Z" fill="#121212"/>
  <path d="M122.467523,336.059545 L287.516523,171.011545 L287.850404,170.642657 L288.145969,170.242412 L288.400291,169.814774 L288.610853,169.363977 L288.77557,168.894485 L288.89281,168.410947 L288.961412,167.918151 L288.980697,167.420977 L288.950475,166.924347 L288.871044,166.43318 L288.74319,165.952339 L288.568181,165.486586 L288.347749,165.040532 L288.084076,164.618595 L287.779775,164.224952 L287.437856,163.863502 L287.061708,163.537823 L286.655054,163.251141 L286.221921,163.006294 L285.766598,162.805707 L285.293593,162.651365 L284.807591,162.544799 L284.313405,162.487062 L283.815926,162.478726 L272.479502,162.853199 L272.149033,162.875091 L261.023123,163.983219 L260.695067,164.0269 L249.803844,165.845745 L249.480126,165.910861 L238.847762,168.417483 L238.530115,168.503496 L228.18078,171.674957 L227.870733,171.781203 L217.828599,175.594563 L217.527478,175.7203 L207.816716,180.152621 L207.525663,180.297073 L198.170446,185.325417 L197.890443,185.48781 L188.914941,191.089237 L188.646847,191.268823 L180.075231,197.420394 L179.819812,197.616462 L171.676254,204.295239 L171.434227,204.507114 L163.742899,211.690158 L163.514957,211.917199 L156.30003,219.581571 L156.086879,219.823142 L149.372524,227.945904 L149.174898,228.201356 L142.985288,236.759568 L142.803965,237.028202 L137.16327,245.998926 L136.999075,246.279956 L131.931467,255.640252 L131.78526,255.93277 L127.31491,265.659701 L127.187569,265.962637 L123.338649,276.033263 L123.231035,276.345361 L120.027715,286.736743 L119.94063,287.056532 L117.407083,297.745733 L117.341218,298.071523 L115.501615,309.035602 L115.457497,309.365492 L114.33601,320.581511 L114.313943,320.913408 L113.934742,332.358429 L113.94303,332.855928 L114.000723,333.350139 L114.10725,333.83617 L114.261557,334.309206 L114.462114,334.764563 L114.706937,335.197732 L114.993601,335.604424 L115.319266,335.98061 L115.680707,336.322565 L116.074347,336.626903 L116.496285,336.890611 L116.942344,337.111076 L117.408106,337.286116 L117.88896,337.413997 L118.380143,337.493452 L118.876791,337.523695 L119.373985,337.504427 L119.866803,337.435837 L120.350363,337.318606 L120.819877,337.153894 L121.270696,336.943333 L121.698355,336.689007 L122.098618,336.393435 Z M124.450579,319.934408 L125.391313,310.526108 L127.175849,299.890229 L129.632806,289.524167 L132.738628,279.449061 L136.469897,269.686268 L140.803279,260.257363 L145.715477,251.184122 L151.183194,242.488496 L157.183103,234.19258 L163.691835,226.318573 L170.685976,218.88874 L178.142075,211.92538 L186.036659,205.450794 L194.346259,199.487263 L203.047444,194.057032 L212.116853,189.182308 L221.531233,184.885265 L231.267473,181.188064 L241.302635,178.112879 L251.613977,175.681939 L262.17896,173.917577 L271.385236,173.000641 Z" fill="#121212"/>
  <path d="M71.496627,336.059541 L287.516527,120.040541 L287.850494,119.671547 L288.146124,119.271179 L288.400487,118.843405 L288.611063,118.392463 L288.775766,117.92282 L288.892965,117.439131 L288.961497,116.946186 L288.980685,116.44887 L288.950337,115.95211 L288.870755,115.460828 L288.742727,114.979892 L288.567521,114.514065 L288.346874,114.067964 L288.082971,113.646009 L287.778428,113.252379 L287.43626,112.890975 L287.05986,112.565378 L286.652955,112.278813 L286.219577,112.034119 L285.76402,111.833722 L285.290798,111.679606 L284.804598,111.573298 L284.310239,111.515852 L283.812617,111.507836 L269.022511,112.006198 L268.686127,112.028906 L254.163506,113.502543 L253.830688,113.547653 L239.607726,115.964392 L239.280499,116.03131 L225.389367,119.358979 L225.069494,119.446922 L211.542364,123.653348 L211.231335,123.76142 L198.10038,128.81443 L197.799424,128.941683 L185.096816,134.809105 L184.80693,134.954594 L172.564841,141.604254 L172.286825,141.76708 L160.537427,149.166806 L160.271934,149.346144 L149.0474,157.463763 L148.794979,157.658877 L138.12748,166.462217 L137.888625,166.672459 L127.810335,176.129347 L127.585531,176.354151 L118.12862,186.432413 L117.918377,186.671268 L109.115019,197.338733 L108.919905,197.591154 L100.802272,208.815648 L100.622933,209.081141 L93.223197,220.830493 L93.060371,221.108509 L86.410703,233.350544 L86.265214,233.640431 L80.397788,246.342977 L80.270534,246.643934 L75.217521,259.774819 L75.109448,260.085849 L70.903022,273.6129 L70.815077,273.932774 L67.487409,287.823818 L67.420491,288.151046 L65.003752,302.373911 L64.958642,302.706731 L63.485006,317.229243 L63.462298,317.565629 L62.963936,332.355616 L62.971951,332.853237 L63.029397,333.347595 L63.135705,333.833794 L63.28982,334.307016 L63.490217,334.762572 L63.734909,335.195949 L64.021474,335.602854 L64.34707,335.979255 L64.708473,336.321422 L65.102101,336.625966 L65.524056,336.889869 L65.970155,337.110517 L66.43598,337.285723 L66.916916,337.413753 L67.408197,337.493336 L67.904956,337.523685 L68.402271,337.504499 L68.895215,337.435968 L69.378904,337.318771 L69.848546,337.15407 L70.299489,336.943495 L70.727263,336.689134 L71.127631,336.393507 Z M73.384964,320.029106 L73.450945,318.070973 L74.89059,303.88344 L77.25119,289.990959 L80.501268,276.423808 L84.609501,263.212529 L89.544646,250.387937 L95.275485,237.981092 L101.770771,226.023272 L108.999199,214.545925 L116.92938,203.580627 L125.529833,193.159032 L134.768992,183.312827 L144.615225,174.073688 L155.036853,165.473253 L166.00219,157.543085 L177.479584,150.314666 L189.437459,143.819385 L201.844365,138.08855 L214.669028,133.153406 L227.880386,129.045173 L241.447628,125.795093 L255.340208,123.434492 L269.527852,121.994846 L271.486031,121.928863 Z" fill="#121212"/>
  <path d="M478.067784,29.003294 L469.813609,37.257469 L461.559434,45.511643 L453.305259,53.765818 L445.051084,62.019992 L436.796909,70.274167 L428.542734,78.528341 L420.288559,86.782516 L412.034384,95.03669 L403.780209,103.290865 L395.526034,111.54504 L387.271859,119.799214 L379.017684,128.053389 L370.763509,136.307563 L362.509334,144.561738 L354.255159,152.815912 L346.000984,161.070087 L337.746809,169.324261 L329.492634,177.578436 L321.238459,185.83261 L312.984284,194.086785 L304.730109,202.340959 L296.475934,210.595134 L296.557521,210.592385 L296.639108,210.589636 L296.720695,210.586887 L296.802283,210.584137 L296.88387,210.581388 L296.965457,210.578639 L297.047044,210.57589 L297.128631,210.573141 L297.210218,210.570392 L297.291806,210.567643 L297.373393,210.564894 L297.45498,210.562144 L297.536567,210.559395 L297.618154,210.556646 L297.699742,210.553897 L297.781329,210.551148 L297.862916,210.548399 L297.944503,210.54565 L298.02609,210.542901 L298.107677,210.540152 L298.189265,210.537402 L298.270852,210.534653 L298.352439,210.531904 L298.434026,210.529155 L299.025173,210.46917 L299.616321,210.409185 L300.207468,210.349199 L300.798615,210.289214 L301.389762,210.229229 L301.980909,210.169243 L302.572057,210.109258 L303.163204,210.049273 L303.754351,209.989288 L304.345499,209.929303 L304.936646,209.869317 L305.527793,209.809332 L306.11894,209.749347 L306.710087,209.689361 L307.301235,209.629376 L307.892382,209.569391 L308.483529,209.509406 L309.074677,209.449421 L309.665824,209.389435 L310.256971,209.32945 L310.848118,209.269465 L311.439265,209.209479 L312.030413,209.149494 L312.62156,209.089509 L313.200413,208.991151 L313.779267,208.892792 L314.35812,208.794434 L314.936973,208.696076 L315.515827,208.597717 L316.09468,208.499359 L316.673533,208.401 L317.252387,208.302642 L317.83124,208.204284 L318.410093,208.105925 L318.988947,208.007567 L319.5678,207.909208 L320.146653,207.81085 L320.725507,207.712492 L321.30436,207.614133 L321.883213,207.515775 L322.462067,207.417417 L323.04092,207.319058 L323.619773,207.2207 L324.198627,207.122342 L324.77748,207.023983 L325.356333,206.925625 L325.935187,206.827266 L326.51404,206.728908 L327.079338,206.593488 L327.644636,206.458068 L328.209934,206.322648 L328.775232,206.187228 L329.34053,206.051808 L329.905828,205.916388 L330.471126,205.780968 L331.036424,205.645548 L331.601722,205.510128 L332.16702,205.374708 L332.732318,205.239288 L333.297616,205.103868 L333.862914,204.968449 L334.428212,204.833029 L334.99351,204.697609 L335.558808,204.562189 L336.124106,204.426769 L336.689404,204.291349 L337.254702,204.155929 L337.82,204.020509 L338.385298,203.885089 L338.950596,203.749669 L339.515894,203.614249 L340.081192,203.478829 L340.631662,203.307653 L341.182132,203.136476 L341.732602,202.9653 L342.283072,202.794124 L342.833542,202.622947 L343.384012,202.451771 L343.934482,202.280595 L344.484952,202.109418 L345.035422,201.938242 L345.585892,201.767066 L346.136362,201.595889 L346.686831,201.424713 L347.237301,201.253537 L347.787771,201.08236 L348.338241,200.911184 L348.888711,200.740008 L349.439181,200.568831 L349.989651,200.397655 L350.540121,200.226479 L351.090591,200.055302 L351.641061,199.884126 L352.191531,199.71295 L352.742001,199.541773 L353.292471,199.370597 L353.826829,199.164966 L354.361187,198.959335 L354.895545,198.753704 L355.429903,198.548073 L355.964261,198.342442 L356.498619,198.136811 L357.032977,197.93118 L357.567335,197.725549 L358.101693,197.519918 L358.636051,197.314287 L359.170409,197.108656 L359.704768,196.903026 L360.239126,196.697395 L360.773484,196.491764 L361.307842,196.286133 L361.8422,196.080502 L362.376558,195.874871 L362.910916,195.66924 L363.445274,195.463609 L363.979632,195.257978 L364.51399,195.052347 L365.048348,194.846716 L365.582706,194.641085 L366.117064,194.435454 L366.634016,194.196669 L367.150968,193.957884 L367.66792,193.7191 L368.184872,193.480315 L368.701823,193.24153 L369.218775,193.002745 L369.735727,192.76396 L370.252679,192.525176 L370.769631,192.286391 L371.286583,192.047606 L371.803535,191.808821 L372.320487,191.570037 L372.837438,191.331252 L373.35439,191.092467 L373.871342,190.853682 L374.388294,190.614897 L374.905246,190.376113 L375.422198,190.137328 L375.93915,189.898543 L376.456101,189.659758 L376.973053,189.420973 L377.490005,189.182189 L378.006957,188.943404 L378.523909,188.704619 L379.022152,188.433982 L379.520394,188.163346 L380.018637,187.892709 L380.516879,187.622072 L381.015122,187.351436 L381.513364,187.080799 L382.011607,186.810162 L382.509849,186.539526 L383.008092,186.268889 L383.506334,185.998252 L384.004577,185.727616 L384.502819,185.456979 L385.001062,185.186342 L385.499305,184.915706 L385.997547,184.645069 L386.49579,184.374432 L386.994032,184.103796 L387.492275,183.833159 L387.990517,183.562522 L388.48876,183.291886 L388.987002,183.021249 L389.485245,182.750612 L389.983487,182.479976 L390.48173,182.209339 L390.959953,181.908155 L391.438176,181.606971 L391.916399,181.305787 L392.394621,181.004603 L392.872844,180.703418 L393.351067,180.402234 L393.82929,180.10105 L394.307513,179.799866 L394.785735,179.498682 L395.263958,179.197498 L395.742181,178.896314 L396.220404,178.595129 L396.698627,178.293945 L397.17685,177.992761 L397.655073,177.691577 L398.133295,177.390393 L398.611518,177.089209 L399.089741,176.788025 L399.567964,176.486841 L400.046187,176.185656 L400.524409,175.884472 L401.002632,175.583288 L401.480855,175.282104 L401.959078,174.98092 L402.415965,174.650496 L402.872853,174.320073 L403.32974,173.989649 L403.786628,173.659225 L404.243515,173.328802 L404.700403,172.998378 L405.15729,172.667955 L405.614178,172.337531 L406.071065,172.007107 L406.527953,171.676684 L406.98484,171.34626 L407.441727,171.015836 L407.898615,170.685413 L408.355502,170.354989 L408.81239,170.024566 L409.269277,169.694142 L409.726165,169.363718 L410.183052,169.033295 L410.63994,168.702871 L411.096827,168.372447 L411.553715,168.042024 L412.010602,167.7116 L412.46749,167.381177 L412.924377,167.050753 L413.35861,166.692401 L413.792843,166.33405 L414.227076,165.975698 L414.66131,165.617347 L415.095543,165.258995 L415.529776,164.900644 L415.964009,164.542293 L416.398242,164.183941 L416.832475,163.82559 L417.266708,163.467238 L417.700941,163.108887 L418.135175,162.750535 L418.569408,162.392183 L419.003641,162.033832 L419.437874,161.67548 L419.872107,161.317129 L420.30634,160.958777 L420.740573,160.600426 L421.174806,160.242075 L421.609039,159.883723 L422.043273,159.525372 L422.477506,159.16702 L422.911739,158.808669 L423.345972,158.450317 L423.756231,158.065353 L424.166489,157.680389 L424.576748,157.295425 L424.987006,156.910461 L425.397265,156.525497 L425.807524,156.140533 L426.217782,155.755568 L426.628041,155.370604 L427.038299,154.98564 L427.448558,154.600676 L427.858816,154.215712 L428.269075,153.830748 L428.679334,153.445784 L429.089592,153.06082 L429.499851,152.675856 L429.910109,152.290892 L430.320368,151.905928 L430.730627,151.520963 L431.140885,151.135999 L431.551144,150.751035 L431.961402,150.366071 L432.371661,149.981107 L432.781919,149.596143 L433.192178,149.211179 L433.577142,148.80092 L433.962106,148.390662 L434.34707,147.980403 L434.732034,147.570145 L435.116998,147.159886 L435.501962,146.749628 L435.886927,146.339369 L436.271891,145.929111 L436.656855,145.518852 L437.041819,145.108594 L437.426783,144.698335 L437.811747,144.288076 L438.196711,143.877818 L438.581675,143.467559 L438.966639,143.057301 L439.351603,142.647042 L439.736567,142.236784 L440.121532,141.826525 L440.506496,141.416267 L440.89146,141.006008 L441.276424,140.59575 L441.661388,140.185491 L442.046352,139.775233 L442.431316,139.364974 L442.789668,138.930741 L443.148019,138.496508 L443.506371,138.062275 L443.864722,137.628041 L444.223073,137.193808 L444.581425,136.759575 L444.939776,136.325342 L445.298128,135.891109 L445.656479,135.456876 L446.014831,135.022643 L446.373182,134.58841 L446.731534,134.154177 L447.089885,133.719943 L447.448237,133.28571 L447.806588,132.851477 L448.16494,132.417244 L448.523291,131.983011 L448.881643,131.548778 L449.239994,131.114545 L449.598346,130.680311 L449.956697,130.246078 L450.315049,129.811845 L450.6734,129.377612 L451.031752,128.943379 L451.362176,128.486492 L451.692599,128.029604 L452.023023,127.572717 L452.353447,127.115829 L452.68387,126.658942 L453.014294,126.202055 L453.344718,125.745167 L453.675141,125.28828 L454.005565,124.831392 L454.335989,124.374505 L454.666412,123.917617 L454.996836,123.46073 L455.32726,123.003843 L455.657683,122.546955 L455.988107,122.090068 L456.318531,121.63318 L456.648954,121.176293 L456.979378,120.719405 L457.309802,120.262518 L457.640225,119.805631 L457.970649,119.348743 L458.301073,118.891856 L458.631496,118.434968 L458.96192,117.978081 L459.263104,117.499858 L459.564288,117.021635 L459.865472,116.543413 L460.166657,116.06519 L460.467841,115.586967 L460.769025,115.108744 L461.070209,114.630521 L461.371393,114.152299 L461.672577,113.674076 L461.973761,113.195853 L462.274945,112.71763 L462.576129,112.239407 L462.877314,111.761185 L463.178498,111.282962 L463.479682,110.804739 L463.780866,110.326516 L464.08205,109.848294 L464.383234,109.370071 L464.684418,108.891848 L464.985603,108.413625 L465.286787,107.935402 L465.587971,107.45718 L465.889155,106.978957 L466.190339,106.500734 L466.460976,106.002491 L466.731612,105.504249 L467.002249,105.006006 L467.272886,104.507764 L467.543522,104.009521 L467.814159,103.511279 L468.084796,103.013036 L468.355432,102.514794 L468.626069,102.016551 L468.896706,101.518309 L469.167342,101.020066 L469.437979,100.521823 L469.708616,100.023581 L469.979252,99.525338 L470.249889,99.027096 L470.520526,98.528853 L470.791162,98.030611 L471.061799,97.532368 L471.332436,97.034126 L471.603072,96.535883 L471.873709,96.037641 L472.144346,95.539398 L472.414982,95.041156 L472.685619,94.542913 L472.924404,94.025961 L473.163188,93.509009 L473.401973,92.992058 L473.640758,92.475106 L473.879543,91.958154 L474.118327,91.441202 L474.357112,90.92425 L474.595897,90.407298 L474.834682,89.890347 L475.073466,89.373395 L475.312251,88.856443 L475.551036,88.339491 L475.789821,87.822539 L476.028605,87.305587 L476.26739,86.788635 L476.506175,86.271684 L476.74496,85.754732 L476.983745,85.23778 L477.222529,84.720828 L477.461314,84.203876 L477.700099,83.686925 L477.938883,83.169973 L478.177668,82.653021 L478.416453,82.136069 L478.622084,81.601711 L478.827715,81.067353 L479.033346,80.532995 L479.238977,79.998637 L479.444608,79.464279 L479.650239,78.929921 L479.85587,78.395563 L480.061501,77.861205 L480.267132,77.326847 L480.472763,76.792489 L480.678394,76.258131 L480.884025,75.723773 L481.089656,75.189415 L481.295287,74.655057 L481.500918,74.120699 L481.706549,73.586341 L481.91218,73.051983 L482.117811,72.517625 L482.323442,71.983267 L482.529073,71.448909 L482.734704,70.914551 L482.940335,70.380193 L483.145966,69.845835 L483.351597,69.311477 L483.522773,68.761007 L483.69395,68.210537 L483.865126,67.660067 L484.036302,67.109597 L484.207479,66.559127 L484.378655,66.008657 L484.549831,65.458188 L484.721008,64.907718 L484.892184,64.357248 L485.06336,63.806778 L485.234537,63.256308 L485.405713,62.705838 L485.576889,62.155368 L485.748066,61.604898 L485.919242,61.054428 L486.090418,60.503958 L486.261595,59.953488 L486.432771,59.403019 L486.603947,58.852549 L486.775124,58.302079 L486.9463,57.751609 L487.117476,57.201139 L487.288653,56.650669 L487.459829,56.100199 L487.595249,55.534901 L487.730669,54.969603 L487.866089,54.404305 L488.001509,53.839007 L488.136929,53.273709 L488.272349,52.708411 L488.407769,52.143113 L488.543189,51.577815 L488.678609,51.012517 L488.814029,50.447219 L488.949449,49.881921 L489.084868,49.316624 L489.220288,48.751326 L489.355708,48.186028 L489.491128,47.62073 L489.626548,47.055432 L489.761968,46.490134 L489.897388,45.924836 L490.032808,45.359538 L490.168228,44.79424 L490.303648,44.228942 L490.439068,43.663644 L490.574488,43.098346 L490.709908,42.533048 L490.808266,41.954195 L490.906625,41.375341 L491.004983,40.796488 L491.103341,40.217635 L491.2017,39.638782 L491.300058,39.059928 L491.398417,38.481075 L491.496775,37.902222 L491.595133,37.323368 L491.693492,36.744515 L491.79185,36.165662 L491.890208,35.586809 L491.988567,35.007955 L492.086925,34.429102 L492.185284,33.850249 L492.283642,33.271395 L492.382,32.692542 L492.480359,32.113689 L492.578717,31.534835 L492.677076,30.955982 L492.775434,30.377129 L492.873792,29.798276 L492.972151,29.219422 L493.070509,28.640569 L493.130494,28.049422 L493.19048,27.458275 L493.250465,26.867127 L493.31045,26.27598 L493.370435,25.684833 L493.430421,25.093686 L493.490406,24.502539 L493.550391,23.911392 L493.610376,23.320245 L493.670362,22.729097 L493.730347,22.13795 L493.790332,21.546803 L493.850317,20.955656 L493.910303,20.364509 L493.970288,19.773362 L494.030273,19.182214 L494.090258,18.591067 L494.150243,18 L494.210229,17.408773 L494.270214,16.817626 L494.330199,16.226478 L494.390184,15.635331 L494.45017,15.044184 L494.510155,14.453037 L494.512904,14.37145 L494.515653,14.289863 L494.518402,14.208275 L494.521151,14.126688 L494.523901,14.045101 L494.52665,13.963514 L494.529399,13.881927 L494.532148,13.80034 L494.534897,13.718753 L494.537646,13.637165 L494.540395,13.555578 L494.543145,13.473991 L494.545894,13.392404 L494.548643,13.310817 L494.551392,13.229229 L494.554141,13.147642 L494.55689,13.066055 L494.559639,12.984468 L494.562388,12.902881 L494.565137,12.821294 L494.567887,12.739707 L494.570636,12.658119 L494.573385,12.576532 L494.576134,12.494945 L486.321959,20.74912 Z" fill="#121212"/>
  <path d="M171.011534,336.059534 L287.516534,219.554534 L287.850413,219.185646 L288.145976,218.785401 L288.400298,218.357762 L288.610858,217.906965 L288.775573,217.437473 L288.892812,216.953935 L288.961413,216.461139 L288.980697,215.963966 L288.950474,215.467337 L288.871042,214.97617 L288.743188,214.49533 L288.568178,214.029578 L288.347745,213.583525 L288.084072,213.161588 L287.77977,212.767946 L287.437851,212.406497 L287.061703,212.080819 L286.655049,211.794138 L286.221916,211.549291 L285.766593,211.348705 L285.293589,211.194364 L284.807588,211.087798 L284.313401,211.030061 L283.815923,211.021726 L275.813783,211.286063 L275.483308,211.307955 L267.629761,212.090173 L267.301701,212.133856 L259.61381,213.417761 L259.290089,213.482878 L251.784917,215.252278 L251.467268,215.338293 L244.161877,217.576996 L243.851829,217.683244 L236.763282,220.375055 L236.462161,220.500794 L229.60752,223.629522 L229.316467,223.773975 L222.712795,227.323428 L222.432794,227.485822 L216.097154,231.439806 L215.829061,231.619392 L209.778514,235.961714 L209.523098,236.157782 L203.774707,240.87225 L203.532682,241.084125 L198.10351,246.154546 L197.875571,246.381586 L192.78268,251.791767 L192.569531,252.033337 L187.829985,257.767086 L187.632361,258.022537 L183.26322,264.063661 L183.0819,264.332293 L179.100228,270.664599 L178.936035,270.945627 L175.358895,277.552923 L175.21269,277.845439 L172.057143,284.711532 L171.929803,285.014466 L169.212913,292.123164 L169.105299,292.43526 L166.844127,299.770368 L166.757042,300.090156 L164.968652,307.635483 L164.902787,307.961273 L163.60424,315.700626 L163.560122,316.030516 L162.768481,323.947703 L162.746414,324.279601 L162.478742,332.358428 L162.48703,332.855928 L162.544723,333.35014 L162.651251,333.836171 L162.805557,334.309208 L163.006116,334.764565 L163.250939,335.197735 L163.537603,335.604427 L163.863269,335.980613 L164.224711,336.322568 L164.618351,336.626907 L165.040291,336.890614 L165.486351,337.111079 L165.952114,337.286118 L166.432968,337.413998 L166.924152,337.493453 L167.4208,337.523695 L167.917996,337.504426 L168.410814,337.435835 L168.894374,337.318603 L169.363889,337.153889 L169.814708,336.943327 L170.242366,336.688999 L170.64263,336.393426 Z M173.244647,319.684286 L173.493937,317.191136 L174.737417,309.779983 L176.449217,302.557793 L178.612892,295.53896 L181.212132,288.738094 L184.230712,282.170025 L187.652444,275.849782 L191.461139,269.792572 L195.640579,264.013742 L200.174506,258.528746 L205.046614,253.353103 L210.240559,248.502365 L215.739977,243.992088 L221.52851,239.837807 L227.589835,236.05502 L233.907698,232.659189 L240.465956,229.665741 L247.248608,227.090091 L254.239824,224.947666 L261.42397,223.25395 L268.785617,222.024528 L271.13878,221.790152 Z" fill="#121212"/>
  <path d="M280.445451,219.554519 L396.949451,336.059519 L397.318339,336.3934 L397.718583,336.688965 L398.146221,336.943289 L398.597018,337.153851 L399.06651,337.318569 L399.550049,337.435809 L400.042845,337.504412 L400.54002,337.523697 L401.03665,337.493475 L401.527817,337.414044 L402.008658,337.286191 L402.474412,337.111182 L402.920466,336.89075 L403.342404,336.627077 L403.736047,336.322775 L404.097498,335.980857 L404.423177,335.604708 L404.709859,335.198054 L404.954706,334.76492 L405.155294,334.309597 L405.309635,333.836592 L405.416202,333.35059 L405.473939,332.856403 L405.482274,332.358924 L405.217942,324.356898 L405.19605,324.026426 L404.413847,316.172975 L404.370165,315.844917 L403.086283,308.157104 L403.021167,307.833386 L401.251798,300.328275 L401.165785,300.01063 L398.927121,292.705283 L398.820876,292.395239 L396.129108,285.306722 L396.003373,285.005605 L392.874694,278.150982 L392.730244,277.859933 L389.180846,271.256266 L389.018455,270.976268 L385.064529,264.640622 L384.884946,264.372531 L380.542684,258.32197 L380.34662,258.066555 L375.632214,252.318143 L375.420342,252.076117 L370.349984,246.646917 L370.122947,246.418977 L364.712828,241.326053 L364.47126,241.112902 L358.737573,236.373318 L358.482124,236.175691 L352.441059,231.806511 L352.172428,231.625187 L345.840178,227.643474 L345.55915,227.479277 L338.951907,223.902095 L338.65939,223.755886 L331.793346,220.600299 L331.490408,220.472956 L324.381756,217.756028 L324.069655,217.648411 L316.734585,215.387205 L316.414792,215.300117 L308.869496,213.511698 L308.5437,213.445831 L300.80437,212.147262 L300.474474,212.103142 L292.557302,211.311487 L292.225397,211.289419 L284.146575,211.021742 L283.649076,211.030029 L283.154865,211.087722 L282.668834,211.194249 L282.195798,211.348555 L281.740441,211.549112 L281.307272,211.793935 L280.90058,212.080598 L280.524394,212.406262 L280.182438,212.767704 L279.878099,213.161342 L279.614391,213.58328 L279.393926,214.029339 L279.218886,214.495102 L279.091004,214.975955 L279.011549,215.467137 L278.981305,215.963785 L279.000573,216.46098 L279.069162,216.953797 L279.186392,217.437357 L279.351104,217.906872 L279.561664,218.357691 L279.81599,218.78535 L280.111561,219.185614 Z M296.820643,221.787655 L299.313832,222.036954 L306.724955,223.280454 L313.947108,224.99228 L320.965899,227.155985 L327.766717,229.755259 L334.334734,232.773875 L340.654922,236.195645 L346.712074,240.004378 L352.490845,244.183855 L357.975782,248.717817 L363.151366,253.589957 L368.002045,258.78393 L372.512264,264.283371 L376.66649,270.07192 L380.449223,276.133251 L383.845004,282.451113 L386.838406,289.009357 L389.414016,295.791983 L391.556405,302.783158 L393.250091,309.967249 L394.479491,317.328822 L394.713836,319.681688 Z" fill="#121212"/>
</svg>
