<svg xmlns="http://www.w3.org/2000/svg" viewBox="0 0 125 125" width="200" height="200">
  <rect x="0" y="0" width="125" height="125" fill="#F3F3F3"/>
  <path d="M71.496627,336.059541 L287.516527,120.040541 L287.850494,119.671547 L288.146124,119.271179 L288.400487,118.843405 L288.611063,118.392463 L288.775766,117.92282 L288.892965,117.439131 L288.961497,116.946186 L288.980685,116.44887 L288.950337,115.95211 L288.870755,115.460828 L288.742727,114.979892 L288.567521,114.514065 L288.346874,114.067964 L288.082971,113.646009 L287.778428,113.252379 L287.43626,112.890975 L287.05986,112.565378 L286.652955,112.278813 L286.219577,112.034119 L285.76402,111.833722 L285.290798,111.679606 L284.804598,111.573298 L284.310239,111.515852 L283.812617,111.507836 L269.022511,112.006198 L268.686127,112.028906 L254.163506,113.502543 L253.830688,113.547653 L239.607726,115.964392 L239.280499,116.03131 L225.389367,119.358979 L225.069494,119.446922 L211.542364,123.653348 L211.231335,123.76142 L198.10038,128.81443 L197.799424,128.941683 L185.096816,134.809105 L184.80693,134.954594 L172.564841,141.604254 L172.286825,141.76708 L160.537427,149.166806 L160.271934,149.346144 L149.0474,157.463763 L148.794979,157.658877 L138.12748,166.462217 L137.888625,166.672459 L127.810335,176.129347 L127.585531,176.354151 L118.12862,186.432413 L117.918377,186.671268 L109.115019,197.338733 L108.919905,197.591154 L100.802272,208.815648 L100.622933,209.081141 L93.223197,220.830493 L93.060371,221.108509 L86.410703,233.350544 L86.265214,233.640431 L80.397788,246.342977 L80.270534,246.643934 L75.217521,259.774819 L75.109448,260.085849 L70.903022,273.6129 L70.815077,273.932774 L67.487409,287.823818 L67.420491,288.151046 L65.003752,302.373911 L64.958642,302.706731 L63.485006,317.229243 L63.462298,317.565629 L62.963936,332.355616 L62.971951,332.853237 L63.029397,333.347595 L63.135705,333.833794 L63.28982,334.307016 L63.490217,334.762572 L63.734909,335.195949 L64.021474,335.602854 L64.34707,335.979255 L64.708473,336.321422 L65.102101,336.625966 L65.524056,336.889869 L65.970155,337.110517 L66.43598,337.285723 L66.916916,337.413753 L67.408197,337.493336 L67.904956,337.523685 L68.402271,337.504499 L68.895215,337.435968 L69.378904,337.318771 L69.848546,337.15407 L70.299489,336.943495 L70.727263,336.689134 L71.127631,336.393507 Z M73.384964,320.029106 L73.450945,318.070973 L74.89059,303.88344 L77.25119,289.990959 L80.501268,276.423808 L84.609501,263.212529 L89.544646,250.387937 L95.275485,237.981092 L101.770771,226.023272 L108.999199,214.545925 L116.92938,203.580627 L125.529833,193.159032 L134.768992,183.312827 L144.615225,174.073688 L155.036853,165.473253 L166.00219,157.543085 L177.479584,150.314666 L189.437459,143.819385 L201.844365,138.08855 L214.669028,133.153406 L227.880386,129.045173 L241.447628,125.795093 L255.340208,123.434492 L269.527852,121.994846 L271.486031,121.928863 Z" fill="#121212"/>
  <path d="M0.299291,155.062637 L0.723762,154.932559 L1.148233,154.802482 L1.572704,154.672404 L1.997175,154.542327 L2.421646,154.41225 L2.846117,154.282172 L3.270588,154.152095 L3.695058,154.022017 L4.119529,153.89194 L4.544,153.761862 L4.968471,153.631785 L4.968471,153.631785 L5.380299,153.475397 L5.792127,153.319008 L6.203955,153.16262 L6.615783,153.006232 L7.027611,152.849843 L7.439439,152.693455 L7.851266,152.537067 L8.263094,152.380678 L8.674922,152.22429 L9.08675,152.067902 L9.498578,151.911513 L9.910406,151.755125 L10.322234,151.598737 L10.734062,151.442348 L11.14589,151.28596 L11.557718,151.129572 L11.969546,150.973183 L12.381373,150.816795 L12.793201,150.660407 L13.205029,150.504018 L13.616857,150.34763 L14.028685,150.191242 L14.440513,150.034853 L14.852341,149.878465 L15.250555,149.696704 L15.64877,149.514943 L16.046984,149.333181 L16.445199,149.15142 L16.843413,148.969659 L17.241628,148.787898 L17.639842,148.606137 L18.038057,148.424376 L18.436271,148.242615 L18.834486,148.060853 L19.2327,147.879092 L19.630914,147.697331 L20.029129,147.51557 L20.427343,147.333809 L20.825558,147.152048 L21.223772,146.970286 L21.621987,146.788525 L22.020201,146.606764 L22.418416,146.425003 L22.81663,146.243242 L23.214845,146.061481 L23.613059,145.879719 L24.011274,145.697958 L24.409488,145.516197 L24.793111,145.31 L25.176734,145.103804 L25.560357,144.897607 L25.94398,144.691411 L26.327604,144.485214 L26.711227,144.279018 L27.09485,144.072821 L27.478473,143.866624 L27.862096,143.660428 L28.245719,143.454231 L28.629342,143.248035 L29.012965,143.041838 L29.396589,142.835641 L29.780212,142.629445 L30.163835,142.423248 L30.547458,142.217052 L30.931081,142.010855 L31.314704,141.804658 L31.698327,141.598462 L32.08195,141.392265 L32.465574,141.186069 L32.849197,140.979872 L33.23282,140.773676 L33.616443,140.567479 L33.984491,140.337785 L34.352539,140.108091 L34.720587,139.878397 L35.088636,139.648703 L35.456684,139.419009 L35.824732,139.189315 L36.19278,138.959621 L36.560828,138.729927 L36.928877,138.500233 L37.296925,138.270539 L37.664973,138.040845 L38.033021,137.81115 L38.401069,137.581456 L38.769117,137.351762 L39.137165,137.122068 L39.505214,136.892374 L39.873262,136.66268 L40.24131,136.432986 L40.609358,136.203292 L40.977406,135.973598 L41.345455,135.743904 L41.713503,135.51421 L42.081551,135.284516 L42.449599,135.054822 L42.801084,134.80257 L43.152569,134.550318 L43.504054,134.298066 L43.855539,134.045814 L44.207024,133.793562 L44.558509,133.54131 L44.909993,133.289057 L45.261478,133.036805 L45.612963,132.784553 L45.964448,132.532301 L46.315933,132.280049 L46.667418,132.027797 L47.018903,131.775545 L47.370388,131.523293 L47.721873,131.271041 L48.073358,131.018789 L48.424843,130.766537 L48.776327,130.514285 L49.127812,130.262032 L49.479297,130.00978 L49.830782,129.757528 L50.182267,129.505276 L50.533752,129.253024 L50.885237,129.000772 L51.219168,128.726903 L51.553098,128.453034 L51.887029,128.179165 L52.220959,127.905296 L52.55489,127.631426 L52.88882,127.357557 L53.222751,127.083688 L53.556681,126.809819 L53.890612,126.53595 L54.224542,126.262081 L54.558473,125.988212 L54.892404,125.714343 L55.226334,125.440473 L55.560265,125.166604 L55.894195,124.892735 L56.228126,124.618866 L56.562056,124.344997 L56.895987,124.071128 L57.229917,123.797259 L57.563848,123.52339 L57.897778,123.24952 L58.231709,122.975651 L58.565639,122.701782 L58.89957,122.427913 L59.214953,122.133369 L59.530337,121.838825 L59.84572,121.544282 L60.161104,121.249738 L60.476487,120.955194 L60.791871,120.660651 L61.107254,120.366107 L61.422637,120.071563 L61.738021,119.777019 L62.053404,119.482476 L62.368788,119.187932 L62.684171,118.893388 L62.999554,118.598844 L63.314938,118.3043 L63.630321,118.009757 L63.945705,117.715213 L64.261088,117.420669 L64.576471,117.126126 L64.891855,116.831582 L65.207238,116.537038 L65.522622,116.242494 L65.838005,115.947951 L66.153389,115.653407 L66.468772,115.358863 L66.764616,115.044588 L67.060459,114.730313 L67.356302,114.416038 L67.652146,114.101763 L67.94799,113.787488 L68.243833,113.473213 L68.539676,113.158938 L68.83552,112.844663 L69.131364,112.530388 L69.427207,112.216113 L69.72305,111.901838 L70.018894,111.587563 L70.314738,111.273288 L70.610581,110.959013 L70.906424,110.644738 L71.202268,110.330463 L71.498112,110.016188 L71.793955,109.701913 L72.089799,109.387638 L72.385642,109.073363 L72.681486,108.759088 L72.977329,108.444813 L73.273173,108.130538 L73.569016,107.816263 L73.844328,107.4832 L74.119639,107.150137 L74.394951,106.817074 L74.670262,106.484011 L74.945574,106.150947 L75.220885,105.817884 L75.496196,105.484821 L75.771508,105.151758 L76.046819,104.818695 L76.322131,104.485632 L76.597442,104.152569 L76.872754,103.819506 L77.148066,103.486442 L77.423377,103.153379 L77.698689,102.820316 L77.974,102.487253 L78.249312,102.15419 L78.524623,101.821127 L78.799934,101.488064 L79.075246,101.155 L79.350557,100.821937 L79.625869,100.488874 L79.90118,100.155811 L80.176492,99.822748 L80.430281,99.471839 L80.68407,99.120929 L80.937859,98.77002 L81.191648,98.419111 L81.445438,98.068201 L81.699227,97.717292 L81.953016,97.366382 L82.206805,97.015473 L82.460594,96.664564 L82.714383,96.313654 L82.968172,95.962745 L83.221961,95.611836 L83.475751,95.260926 L83.72954,94.910017 L83.983329,94.559107 L84.237118,94.208198 L84.490907,93.857289 L84.744696,93.506379 L84.998485,93.15547 L85.252274,92.804561 L85.506064,92.453651 L85.759853,92.102742 L86.013642,91.751832 L86.267431,91.400923 L86.498709,91.033106 L86.729987,90.66529 L86.961266,90.297473 L87.192544,89.929657 L87.423822,89.56184 L87.6551,89.194024 L87.886378,88.826207 L88.117657,88.458391 L88.348935,88.090574 L88.580213,87.722758 L88.811491,87.354941 L89.042769,86.987124 L89.274048,86.619308 L89.505326,86.251491 L89.736604,85.883675 L89.967882,85.515858 L90.199161,85.148042 L90.430439,84.780225 L90.661717,84.412409 L90.892995,84.044592 L91.124273,83.676776 L91.355552,83.308959 L91.58683,82.941143 L91.818108,82.573326 L92.025888,82.189537 L92.233669,81.805748 L92.441449,81.421959 L92.64923,81.03817 L92.857011,80.654381 L93.064791,80.270591 L93.272571,79.886802 L93.480352,79.503013 L93.688132,79.119224 L93.895913,78.735435 L94.103693,78.351646 L94.311474,77.967857 L94.519255,77.584068 L94.727035,77.200279 L94.934815,76.81649 L95.142596,76.432701 L95.350376,76.048912 L95.558157,75.665122 L95.765937,75.281333 L95.973718,74.897544 L96.181499,74.513755 L96.389279,74.129966 L96.59706,73.746177 L96.80484,73.362388 L96.988137,72.963555 L97.171434,72.564722 L97.354732,72.165889 L97.538029,71.767057 L97.721326,71.368224 L97.904623,70.969391 L98.08792,70.570558 L98.271218,70.171725 L98.454515,69.772892 L98.637812,69.37406 L98.821109,68.975227 L99.004407,68.576394 L99.187704,68.177561 L99.371001,67.778728 L99.554298,67.379896 L99.737595,66.981063 L99.920893,66.58223 L100.10419,66.183397 L100.287487,65.784564 L100.470784,65.385731 L100.654081,64.986898 L100.837379,64.588066 L101.020676,64.189233 L101.203973,63.7904 L101.361801,63.377445 L101.51963,62.96449 L101.677458,62.551535 L101.835287,62.138579 L101.993115,61.725624 L102.150943,61.312669 L102.308772,60.899714 L102.4666,60.486759 L102.624428,60.073804 L102.782257,59.660849 L102.940085,59.247894 L103.097914,58.834938 L103.255742,58.421983 L103.41357,58.009028 L103.571399,57.596073 L103.729227,57.183118 L103.887055,56.770163 L104.044884,56.357208 L104.202712,55.944253 L104.36054,55.531298 L104.518369,55.118342 L104.676197,54.705387 L104.834026,54.292432 L104.991854,53.879477 L105.123226,53.453313 L105.254599,53.027148 L105.385971,52.600984 L105.517344,52.174819 L105.648716,51.748655 L105.780089,51.322491 L105.911461,50.896326 L106.042834,50.470162 L106.174206,50.043998 L106.305579,49.617833 L106.436951,49.191669 L106.568324,48.765505 L106.699696,48.33934 L106.831068,47.913176 L106.962441,47.487011 L107.093813,47.060847 L107.225186,46.634683 L107.356558,46.208518 L107.487931,45.782354 L107.619303,45.356189 L107.750676,44.930025 L107.882048,44.503861 L108.013421,44.077696 L108.144793,43.651532 L108.248719,43.213062 L108.352645,42.774593 L108.456571,42.336123 L108.560497,41.897653 L108.664423,41.459183 L108.768349,41.020714 L108.872275,40.582244 L108.976201,40.143774 L109.080127,39.705305 L109.184053,39.266835 L109.287979,38.828365 L109.391905,38.389896 L109.495831,37.951426 L109.599757,37.512956 L109.703683,37.074486 L109.807609,36.636017 L109.911535,36.197547 L110.015461,35.759077 L110.119387,35.320608 L110.223313,34.882138 L110.327239,34.443668 L110.431165,34.005198 L110.535091,33.566729 L110.639017,33.128259 L110.7145,32.678379 L110.789983,32.228499 L110.865466,31.778619 L110.94095,31.328739 L111.016433,30.878859 L111.091916,30.428978 L111.167399,29.979098 L111.242882,29.529218 L111.318365,29.079338 L111.393848,28.629458 L111.469331,28.179578 L111.544815,27.729698 L111.620298,27.279818 L111.695781,26.829938 L111.771264,26.380058 L111.846747,25.930178 L111.92223,25.480298 L111.997713,25.030417 L112.073196,24.580537 L112.14868,24.130657 L112.224163,23.680777 L112.299646,23.230897 L112.375129,22.781017 L112.450612,22.331137 L112.49125,21.924722 L112.531887,21.518308 L112.572525,21.111893 L112.613162,20.705478 L112.6538,20.299064 L112.694437,19.892649 L112.735075,19.486234 L112.775712,19.07982 L112.81635,18.673405 L112.856987,18.26699 L112.897625,17.860576 L112.938262,17.454161 L112.978899,17.047746 L113.019537,16.641332 L113.060175,16.234917 L113.100812,15.828502 L113.141449,15.422088 L113.182087,15.015673 L113.222724,14.609258 L113.263362,14.202844 L113.304,13.796429 L113.344637,13.390014 L113.385274,12.9836 L113.425912,12.577185 L107.201486,18.801622 L100.977059,25.026059 L94.752633,31.250496 L88.528207,37.474933 L82.303781,43.69937 L76.079354,49.923807 L69.854928,56.148244 L63.630502,62.372681 L57.406075,68.597118 L51.181649,74.821555 L44.957223,81.045992 L38.732797,87.270429 L32.50837,93.494865 L26.283944,99.719302 L20.059518,105.943739 L13.835091,112.168176 L7.610665,118.392613 L1.386239,124.61705 L0,126.003291 L0,155.154353 Z" fill="#121212"/>
  <path d="M54.716922,6.173213 L49.862551,11.027588 L45.008181,15.881963 L40.15381,20.736338 L35.299439,25.590714 L30.445068,30.445089 L25.590697,35.299464 L20.736327,40.153839 L15.881956,45.008215 L11.027585,49.86259 L6.173214,54.716965 L1.318843,59.57134 L0,60.890185 L0,111.555373 L0.117481,111.50175 L0.40309,111.371387 L0.6887,111.241023 L0.97431,111.110659 L1.259919,110.980296 L1.545529,110.849932 L1.831139,110.719568 L2.116748,110.589205 L2.402358,110.458841 L2.687968,110.328477 L2.973577,110.198114 L3.259187,110.06775 L3.544797,109.937386 L3.830406,109.807023 L4.116016,109.676659 L4.401626,109.546295 L4.687235,109.415932 L4.972845,109.285568 L5.258455,109.155204 L5.544064,109.024841 L5.829674,108.894477 L5.841801,108.888458 L5.853928,108.882439 L5.866055,108.87642 L5.878183,108.870401 L5.89031,108.864382 L5.902437,108.858363 L5.914564,108.852345 L5.926691,108.846326 L5.938819,108.840307 L5.950946,108.834288 L5.963073,108.828269 L5.9752,108.82225 L5.987327,108.816231 L5.999454,108.810212 L6.011582,108.804193 L6.023709,108.798174 L6.035836,108.792155 L6.047963,108.786136 L6.06009,108.780118 L6.072217,108.774099 L6.084345,108.76808 L6.096472,108.762061 L6.108599,108.756042 L6.120726,108.750023 L6.395879,108.602129 L6.671031,108.454235 L6.946184,108.306342 L7.221337,108.158448 L7.49649,108.010554 L7.771643,107.86266 L8.046795,107.714766 L8.321948,107.566872 L8.597101,107.418978 L8.872253,107.271085 L9.147406,107.123191 L9.422559,106.975297 L9.697712,106.827403 L9.972865,106.679509 L10.248017,106.531616 L10.52317,106.383722 L10.798323,106.235828 L11.073476,106.087934 L11.348628,105.94004 L11.623781,105.792146 L11.898934,105.644252 L12.174086,105.496359 L12.449239,105.348465 L12.724392,105.200571 L12.736059,105.193805 L12.747725,105.187038 L12.759392,105.180272 L12.771059,105.173505 L12.782725,105.166739 L12.794392,105.159972 L12.806059,105.153206 L12.817725,105.14644 L12.829392,105.139673 L12.841059,105.132907 L12.852725,105.12614 L12.864392,105.119374 L12.876059,105.112608 L12.887725,105.105841 L12.899392,105.099075 L12.911059,105.092308 L12.922725,105.085542 L12.934392,105.078776 L12.946059,105.072009 L12.957725,105.065243 L12.969392,105.058476 L12.981059,105.05171 L12.992725,105.044943 L13.004392,105.038177 L13.268377,104.873428 L13.532362,104.708678 L13.796346,104.543929 L14.060331,104.37918 L14.324316,104.21443 L14.588301,104.049681 L14.852286,103.884932 L15.116271,103.720182 L15.380256,103.555433 L15.64424,103.390684 L15.908225,103.225934 L16.17221,103.061185 L16.436195,102.896436 L16.70018,102.731686 L16.964164,102.566937 L17.228149,102.402188 L17.492134,102.237438 L17.756119,102.072689 L18.020104,101.90794 L18.284089,101.74319 L18.548074,101.578441 L18.812058,101.413692 L19.076043,101.248942 L19.340028,101.084193 L19.351198,101.07671 L19.362369,101.069227 L19.373539,101.061745 L19.38471,101.054262 L19.395881,101.046779 L19.407051,101.039297 L19.418222,101.031814 L19.429392,101.024331 L19.440562,101.016848 L19.451733,101.009366 L19.462903,101.001883 L19.474074,100.9944 L19.485245,100.986917 L19.496415,100.979434 L19.507586,100.971952 L19.518756,100.964469 L19.529926,100.956986 L19.541097,100.949503 L19.552267,100.942021 L19.563438,100.934538 L19.574609,100.927055 L19.585779,100.919573 L19.59695,100.91209 L19.60812,100.904607 L19.860226,100.723677 L20.112332,100.542747 L20.364438,100.361817 L20.616544,100.180886 L20.86865,100 L21.120756,99.819026 L21.372862,99.638096 L21.624968,99.457166 L21.877074,99.276236 L22.12918,99.095306 L22.381286,98.914376 L22.633392,98.733446 L22.885498,98.552515 L23.137604,98.371585 L23.38971,98.190655 L23.641816,98.009725 L23.893922,97.828795 L24.146028,97.647865 L24.398134,97.466935 L24.65024,97.286005 L24.902346,97.105074 L25.154452,96.924144 L25.406558,96.743214 L25.658664,96.562284 L25.669306,96.554115 L25.679949,96.545945 L25.690591,96.537776 L25.701233,96.529606 L25.711876,96.521437 L25.722518,96.513267 L25.73316,96.505098 L25.743803,96.496928 L25.754445,96.488759 L25.765087,96.480589 L25.77573,96.47242 L25.786372,96.464251 L25.797014,96.456081 L25.807657,96.447912 L25.818299,96.439742 L25.828941,96.431573 L25.839584,96.423403 L25.850226,96.415234 L25.860868,96.407064 L25.871511,96.398895 L25.882153,96.390725 L25.892795,96.382556 L25.903438,96.374386 L25.91408,96.366217 L26.153596,96.169781 L26.393112,95.973345 L26.632629,95.776909 L26.872145,95.580472 L27.111661,95.384036 L27.351177,95.1876 L27.590693,94.991164 L27.83021,94.794728 L28.069726,94.598292 L28.309242,94.401855 L28.548758,94.205419 L28.788274,94.008983 L29.027791,93.812547 L29.267307,93.616111 L29.506823,93.419674 L29.746339,93.223238 L29.985856,93.026802 L30.225372,92.830366 L30.464888,92.63393 L30.704404,92.437494 L30.94392,92.241057 L31.183437,92.044621 L31.422953,91.848185 L31.662469,91.651749 L31.672553,91.642921 L31.682638,91.634093 L31.692722,91.625265 L31.702807,91.616436 L31.712891,91.607608 L31.722975,91.59878 L31.73306,91.589952 L31.743144,91.581124 L31.753228,91.572296 L31.763313,91.563468 L31.773397,91.55464 L31.783482,91.545811 L31.793566,91.536983 L31.80365,91.528155 L31.813735,91.519327 L31.823819,91.510499 L31.833903,91.501671 L31.843988,91.492843 L31.854072,91.484015 L31.864156,91.475187 L31.874241,91.466358 L31.884325,91.45753 L31.89441,91.448702 L31.904494,91.439874 L32.130709,91.228606 L32.356925,91.017339 L32.58314,90.806071 L32.809356,90.594804 L33.035571,90.383536 L33.261787,90.172269 L33.488002,89.961001 L33.714218,89.749734 L33.940433,89.538466 L34.166649,89.327199 L34.392864,89.115931 L34.619079,88.904663 L34.845295,88.693396 L35.07151,88.482128 L35.297726,88.270861 L35.523941,88.059593 L35.750157,87.848326 L35.976372,87.637058 L36.202588,87.425791 L36.428803,87.214523 L36.655019,87.003256 L36.881234,86.791988 L37.10745,86.580721 L37.333665,86.369453 L37.343162,86.359993 L37.35266,86.350533 L37.362157,86.341073 L37.371655,86.331613 L37.381152,86.322153 L37.39065,86.312693 L37.400147,86.303233 L37.409645,86.293773 L37.419142,86.284313 L37.42864,86.274853 L37.438137,86.265393 L37.447635,86.255933 L37.457132,86.246474 L37.466629,86.237014 L37.476127,86.227554 L37.485624,86.218094 L37.495122,86.208634 L37.504619,86.199174 L37.514117,86.189714 L37.523614,86.180254 L37.533112,86.170794 L37.542609,86.161334 L37.552107,86.151874 L37.561604,86.142414 L37.773808,85.91699 L37.986012,85.691565 L38.198215,85.466141 L38.410419,85.240717 L38.622623,85.015293 L38.834827,84.789868 L39.047031,84.564444 L39.259234,84.33902 L39.471438,84.113596 L39.683642,83.888171 L39.895846,83.662747 L40.108049,83.437323 L40.320253,83.211899 L40.532457,82.986474 L40.744661,82.76105 L40.956865,82.535626 L41.169068,82.310202 L41.381272,82.084778 L41.593476,81.859353 L41.80568,81.633929 L42.017884,81.408505 L42.230087,81.183081 L42.442291,80.957656 L42.654495,80.732232 L42.663376,80.722167 L42.672257,80.712101 L42.681139,80.702036 L42.69002,80.69197 L42.698901,80.681905 L42.707782,80.67184 L42.716663,80.661774 L42.725545,80.651709 L42.734426,80.641643 L42.743307,80.631578 L42.752188,80.621512 L42.761069,80.611447 L42.769951,80.601382 L42.778832,80.591316 L42.787713,80.581251 L42.796594,80.571185 L42.805476,80.56112 L42.814357,80.551054 L42.823238,80.540989 L42.832119,80.530924 L42.841,80.520858 L42.849882,80.510793 L42.858763,80.500727 L42.867644,80.490662 L43.065125,80.251756 L43.262606,80.01285 L43.460088,79.773943 L43.657569,79.535037 L43.85505,79.296131 L44.052531,79.057225 L44.250012,78.818319 L44.447493,78.579412 L44.644974,78.340506 L44.842456,78.1016 L45.039937,77.862694 L45.237418,77.623787 L45.434899,77.384881 L45.63238,77.145975 L45.829861,76.907069 L46.027343,76.668163 L46.224824,76.429256 L46.422305,76.19035 L46.619786,75.951444 L46.817267,75.712538 L47.014748,75.473632 L47.21223,75.234725 L47.409711,74.995819 L47.607192,74.756913 L47.615426,74.746269 L47.623661,74.735625 L47.631895,74.724982 L47.640129,74.714338 L47.648363,74.703694 L47.656598,74.69305 L47.664832,74.682407 L47.673066,74.671763 L47.681301,74.661119 L47.689535,74.650475 L47.697769,74.639832 L47.706003,74.629188 L47.714238,74.618544 L47.722472,74.6079 L47.730706,74.597257 L47.738941,74.586613 L47.747175,74.575969 L47.755409,74.565326 L47.763644,74.554682 L47.771878,74.544038 L47.780112,74.533394 L47.788346,74.522751 L47.796581,74.512107 L47.804815,74.501463 L47.986863,74.249749 L48.16891,73.998036 L48.350958,73.746322 L48.533006,73.494609 L48.715053,73.242895 L48.897101,72.991182 L49.079148,72.739468 L49.261196,72.487755 L49.443244,72.236041 L49.625291,71.984328 L49.807339,71.732614 L49.989386,71.4809 L50.171434,71.229187 L50.353482,70.977473 L50.535529,70.72576 L50.717577,70.474046 L50.899625,70.222333 L51.081672,69.970619 L51.26372,69.718906 L51.445768,69.467192 L51.627815,69.215479 L51.809863,68.963765 L51.99191,68.712052 L52.173958,68.460338 L52.181513,68.449145 L52.189068,68.437952 L52.196623,68.426759 L52.204178,68.415566 L52.211733,68.404373 L52.219288,68.39318 L52.226843,68.381987 L52.234398,68.370794 L52.241953,68.359601 L52.249508,68.348408 L52.257063,68.337215 L52.264618,68.326022 L52.272173,68.31483 L52.279728,68.303637 L52.287283,68.292444 L52.294838,68.281251 L52.302393,68.270058 L52.309948,68.258865 L52.317503,68.247672 L52.325058,68.236479 L52.332613,68.225286 L52.340168,68.214093 L52.347723,68.2029 L52.355278,68.191707 L52.521181,67.927861 L52.687084,67.664015 L52.852987,67.400169 L53.01889,67.136322 L53.184793,66.872476 L53.350696,66.60863 L53.5166,66.344784 L53.682503,66.080938 L53.848406,65.817092 L54.014309,65.553246 L54.180212,65.2894 L54.346115,65.025554 L54.512018,64.761707 L54.677921,64.497861 L54.843824,64.234015 L55.009727,63.970169 L55.17563,63.706323 L55.341533,63.442477 L55.507437,63.178631 L55.67334,62.914784 L55.839243,62.650938 L56.005146,62.387092 L56.171049,62.123246 L56.336952,61.8594 L56.343793,61.84769 L56.350635,61.835981 L56.357476,61.824272 L56.364317,61.812562 L56.371159,61.800852 L56.378,61.789143 L56.384842,61.777434 L56.391683,61.765724 L56.398524,61.754015 L56.405366,61.742305 L56.412207,61.730595 L56.419049,61.718886 L56.42589,61.707177 L56.432731,61.695467 L56.439573,61.683757 L56.446414,61.672048 L56.453255,61.660339 L56.460097,61.648629 L56.466938,61.63692 L56.473779,61.62521 L56.480621,61.613501 L56.487462,61.601791 L56.494304,61.590082 L56.501145,61.578372 L56.650193,61.303068 L56.79924,61.027764 L56.948288,60.75246 L57.097336,60.477156 L57.246383,60.201852 L57.395431,59.926548 L57.544479,59.651244 L57.693526,59.37594 L57.842574,59.100636 L57.991622,58.825332 L58.140669,58.550028 L58.289717,58.274724 L58.438765,57.99942 L58.587812,57.724116 L58.73686,57.448812 L58.885908,57.173508 L59.034955,56.898204 L59.184003,56.6229 L59.333051,56.347596 L59.482098,56.072292 L59.631146,55.796988 L59.780194,55.521684 L59.929241,55.24638 L60.078289,54.971076 L60.084381,54.958888 L60.090473,54.9467 L60.096565,54.934512 L60.102656,54.922323 L60.108748,54.910135 L60.11484,54.897947 L60.120932,54.885759 L60.127024,54.873571 L60.133116,54.861383 L60.139208,54.849195 L60.1453,54.837007 L60.151392,54.824818 L60.157483,54.81263 L60.163575,54.800442 L60.169667,54.788254 L60.175759,54.776066 L60.181851,54.763878 L60.187943,54.75169 L60.194035,54.739502 L60.200126,54.727314 L60.206218,54.715125 L60.21231,54.702937 L60.218402,54.690749 L60.224494,54.678561 L60.355975,54.392474 L60.487457,54.106386 L60.618938,53.820299 L60.750419,53.534212 L60.8819,53.248125 L61.013382,52.962038 L61.144863,52.67595 L61.276344,52.389863 L61.407825,52.103776 L61.539307,51.817689 L61.670788,51.531601 L61.802269,51.245514 L61.93375,50.959427 L62.065231,50.673339 L62.196713,50.387252 L62.328194,50.101165 L62.459675,49.815078 L62.591156,49.52899 L62.722638,49.242903 L62.854119,48.956816 L62.9856,48.670729 L63.117081,48.384642 L63.248563,48.098554 L63.380044,47.812467 L63.38535,47.799845 L63.390656,47.787222 L63.395961,47.7746 L63.401267,47.761978 L63.406573,47.749356 L63.411879,47.736733 L63.417185,47.724111 L63.42249,47.711489 L63.427796,47.698867 L63.433102,47.686245 L63.438408,47.673622 L63.443714,47.661 L63.449019,47.648378 L63.454325,47.635755 L63.459631,47.623133 L63.464937,47.610511 L63.470242,47.597889 L63.475548,47.585266 L63.480854,47.572644 L63.48616,47.560022 L63.491466,47.5474 L63.496771,47.534777 L63.502077,47.522155 L63.507383,47.509533 L63.620587,47.213337 L63.733791,46.917141 L63.846995,46.620946 L63.960199,46.32475 L64.073403,46.028554 L64.186606,45.732358 L64.29981,45.436163 L64.413014,45.139967 L64.526218,44.843771 L64.639422,44.547576 L64.752626,44.25138 L64.86583,43.955184 L64.979034,43.658988 L65.092238,43.362792 L65.205442,43.066597 L65.318646,42.770401 L65.43185,42.474205 L65.545053,42.17801 L65.658257,41.881814 L65.771461,41.585618 L65.884665,41.289422 L65.997869,40.993226 L66.111073,40.697031 L66.224277,40.400835 L66.228761,40.387831 L66.233245,40.374827 L66.237729,40.361823 L66.242213,40.348819 L66.246697,40.335815 L66.251181,40.322811 L66.255664,40.309807 L66.260148,40.296803 L66.264632,40.283799 L66.269116,40.270795 L66.2736,40.257791 L66.278084,40.244787 L66.282568,40.231783 L66.287052,40.218779 L66.291536,40.205775 L66.29602,40.192771 L66.300504,40.179767 L66.304987,40.166763 L66.309471,40.153759 L66.313955,40.140755 L66.318439,40.127751 L66.322923,40.114747 L66.327407,40.101743 L66.331891,40.088739 L66.426107,39.783109 L66.520322,39.47748 L66.614538,39.17185 L66.708754,38.866221 L66.802969,38.560591 L66.897185,38.254962 L66.9914,37.949332 L67.085616,37.643703 L67.179832,37.338073 L67.274047,37.032444 L67.368263,36.726814 L67.462479,36.421184 L67.556694,36.115555 L67.65091,35.809925 L67.745125,35.504296 L67.839341,35.198666 L67.933557,34.893037 L68.027772,34.587407 L68.121988,34.281778 L68.216203,33.976148 L68.310419,33.670519 L68.404635,33.364889 L68.49885,33.05926 L68.593066,32.75363 L68.596695,32.740305 L68.600323,32.726981 L68.603952,32.713656 L68.60758,32.700332 L68.611209,32.687007 L68.614837,32.673683 L68.618466,32.660359 L68.622094,32.647034 L68.625723,32.63371 L68.629351,32.620385 L68.63298,32.607061 L68.636608,32.593736 L68.640237,32.580411 L68.643866,32.567087 L68.647494,32.553762 L68.651123,32.540438 L68.654751,32.527113 L68.65838,32.513789 L68.662008,32.500464 L68.665637,32.48714 L68.669265,32.473816 L68.672894,32.460491 L68.676522,32.447167 L68.680151,32.433842 L68.754667,32.119453 L68.829184,31.805065 L68.9037,31.490676 L68.978217,31.176287 L69.052733,30.861899 L69.127249,30.54751 L69.201766,30.233121 L69.276282,29.918733 L69.350798,29.604344 L69.425315,29.289955 L69.499831,28.975567 L69.574347,28.661178 L69.648864,28.346789 L69.72338,28.032401 L69.797897,27.718012 L69.872413,27.403623 L69.946929,27.089235 L70.021446,26.774846 L70.095962,26.460457 L70.170479,26.146069 L70.244995,25.83168 L70.319511,25.517291 L70.394028,25.202903 L70.468544,24.888514 L70.471288,24.874939 L70.474033,24.861365 L70.476777,24.84779 L70.479521,24.834216 L70.482266,24.820641 L70.48501,24.807067 L70.487755,24.793492 L70.490499,24.779917 L70.493243,24.766343 L70.495988,24.752768 L70.498732,24.739194 L70.501476,24.725619 L70.504221,24.712044 L70.506965,24.69847 L70.50971,24.684895 L70.512454,24.671321 L70.515198,24.657746 L70.517943,24.644171 L70.520687,24.630597 L70.523432,24.617022 L70.526176,24.603448 L70.52892,24.589873 L70.531665,24.576299 L70.534409,24.562724 L70.588515,24.240251 L70.642621,23.917778 L70.696728,23.595305 L70.750834,23.272832 L70.80494,22.950359 L70.859046,22.627885 L70.913152,22.305412 L70.967259,21.982939 L71.021365,21.660466 L71.075471,21.337993 L71.129577,21.01552 L71.183684,20.693047 L71.23779,20.370574 L71.291896,20.048101 L71.346002,19.725628 L71.400108,19.403155 L71.454215,19.080682 L71.508321,18.758209 L71.562427,18.435735 L71.616533,18.113262 L71.670639,17.790789 L71.724746,17.468316 L71.778852,17.145843 L71.832958,16.82337 L71.834796,16.809625 L71.836635,16.795879 L71.838473,16.782134 L71.840311,16.768388 L71.842149,16.754643 L71.843987,16.740898 L71.845826,16.727152 L71.847664,16.713407 L71.849502,16.699661 L71.851341,16.685916 L71.853179,16.67217 L71.855017,16.658425 L71.856855,16.64468 L71.858694,16.630934 L71.860532,16.617189 L71.86237,16.603443 L71.864208,16.589698 L71.866047,16.575952 L71.867885,16.562207 L71.869723,16.548462 L71.871561,16.534716 L71.8734,16.520971 L71.875238,16.507225 L71.877076,16.49348 L71.910061,16.163597 L71.943046,15.833714 L71.976031,15.503832 L72.009016,15.173949 L72.042001,14.844066 L72.074986,14.514183 L72.107972,14.1843 L72.140957,13.854418 L72.173942,13.524535 L72.206927,13.194652 L72.239912,12.864769 L72.272897,12.534887 L72.305882,12.205004 L72.338867,11.875121 L72.371852,11.545238 L72.404837,11.215355 L72.437822,10.885473 L72.470808,10.55559 L72.503793,10.225707 L72.536778,9.895824 L72.569763,9.565941 L72.602748,9.236059 L72.635733,8.906176 L72.668718,8.576293 L72.669637,8.562464 L72.670557,8.548635 L72.671476,8.534806 L72.672396,8.520976 L72.673315,8.507147 L72.674235,8.493318 L72.675154,8.479489 L72.676074,8.46566 L72.676993,8.451831 L72.677913,8.438002 L72.678832,8.424173 L72.679752,8.410343 L72.680671,8.396514 L72.68159,8.382685 L72.68251,8.368856 L72.683429,8.355027 L72.684349,8.341198 L72.685268,8.327369 L72.686188,8.31354 L72.687107,8.29971 L72.688027,8.285881 L72.688946,8.272052 L72.689866,8.258223 L72.690785,8.244394 L72.701938,7.907776 L72.713091,7.571158 L72.724244,7.23454 L72.735397,6.897923 L72.74655,6.561305 L72.757703,6.224687 L72.768856,5.888069 L72.780009,5.551451 L72.791162,5.214834 L72.802315,4.878216 L72.813468,4.541598 L72.824622,4.20498 L72.835775,3.868362 L72.846928,3.531744 L72.858081,3.195126 L72.869234,2.858509 L72.880387,2.521891 L72.89154,2.185273 L72.902693,1.848655 L72.913846,1.512037 L72.924999,1.17542 L72.936152,0.838802 L72.947305,0.502184 L72.958458,0.165566 L72.958458,0.165566 L72.958113,0.144837 L72.957767,0.124108 L72.957422,0.103379 L72.957077,0.08265 L72.956731,0.06192 L72.956386,0.041191 L72.956041,0.020462 L72.9557,0 L60.890129,0 L59.571293,1.318837 Z" fill="#121212"/>
  <path d="M145.93883,14.466054 L136.938009,23.466846 L127.937189,32.467637 L118.936368,41.468428 L109.935547,50.469219 L100.934726,59.47001 L91.933905,68.470801 L82.933085,77.471592 L73.932264,86.472384 L64.931443,95.473175 L55.930622,104.473966 L46.929801,113.474757 L37.92898,122.475548 L28.928159,131.476339 L19.927339,140.477131 L10.926518,149.477922 L1.925697,158.478713 L0,160.404404 L0,215.571978 L0.208131,215.522119 L0.786926,215.383466 L1.365721,215.244813 L1.944516,215.10616 L2.523311,214.967507 L3.102106,214.828855 L3.680901,214.690202 L4.259696,214.551549 L4.838491,214.412896 L5.417286,214.274243 L5.996081,214.13559 L6.574876,213.996937 L7.15367,213.858284 L7.732465,213.719631 L8.31126,213.580979 L8.890055,213.442326 L9.46885,213.303673 L10.047645,213.16502 L10.060973,213.161356 L10.074301,213.157691 L10.087629,213.154027 L10.100957,213.150363 L10.114285,213.146699 L10.127613,213.143034 L10.140941,213.13937 L10.154269,213.135706 L10.167597,213.132041 L10.180925,213.128377 L10.194253,213.124713 L10.207581,213.121049 L10.22091,213.117384 L10.234238,213.11372 L10.247566,213.110056 L10.260894,213.106391 L10.274222,213.102727 L10.28755,213.099063 L10.300878,213.095398 L10.314206,213.091734 L10.327534,213.08807 L10.340862,213.084406 L10.35419,213.080741 L10.367518,213.077077 L10.931147,212.901809 L11.494775,212.726541 L12.058404,212.551274 L12.622032,212.376006 L13.185661,212.200738 L13.749289,212.025471 L14.312918,211.850203 L14.876547,211.674935 L15.440175,211.499667 L16.003804,211.324399 L16.567432,211.149132 L17.131061,210.973864 L17.69469,210.798596 L18.258318,210.623329 L18.821947,210.448061 L19.385575,210.272793 L19.949204,210.097525 L20.512833,209.922258 L21.076461,209.74699 L21.64009,209.571722 L22.203718,209.396454 L22.767347,209.221187 L23.330975,209.045919 L23.894604,208.870651 L23.907564,208.866148 L23.920523,208.861645 L23.933483,208.857142 L23.946442,208.852639 L23.959402,208.848136 L23.972361,208.843633 L23.985321,208.83913 L23.99828,208.834627 L24.01124,208.830124 L24.024199,208.825621 L24.037159,208.821118 L24.050118,208.816615 L24.063078,208.812111 L24.076038,208.807608 L24.088997,208.803105 L24.101957,208.798602 L24.114916,208.794099 L24.127876,208.789596 L24.140835,208.785093 L24.153795,208.78059 L24.166754,208.776087 L24.179714,208.771584 L24.192673,208.767081 L24.205633,208.762578 L24.752755,208.552036 L25.299876,208.341494 L25.846998,208.130952 L26.39412,207.92041 L26.941242,207.709868 L27.488363,207.499325 L28.035485,207.288783 L28.582607,207.078241 L29.129729,206.867699 L29.676851,206.657157 L30.223972,206.446615 L30.771094,206.236073 L31.318216,206.025531 L31.865337,205.814989 L32.412459,205.604447 L32.959581,205.393905 L33.506703,205.183363 L34.053824,204.97282 L34.600946,204.762278 L35.148068,204.551736 L35.69519,204.341194 L36.242311,204.130652 L36.789433,203.92011 L37.336555,203.709568 L37.349095,203.704266 L37.361635,203.698964 L37.374174,203.693661 L37.386714,203.688359 L37.399254,203.683057 L37.411794,203.677755 L37.424334,203.672453 L37.436873,203.66715 L37.449413,203.661848 L37.461953,203.656546 L37.474493,203.651244 L37.487032,203.645941 L37.499572,203.640639 L37.512112,203.635337 L37.524652,203.630035 L37.537192,203.624733 L37.549731,203.61943 L37.562271,203.614128 L37.574811,203.608826 L37.587351,203.603524 L37.599891,203.598222 L37.61243,203.592919 L37.62497,203.587617 L37.63751,203.582315 L38.166784,203.337839 L38.696059,203.093363 L39.225333,202.848887 L39.754607,202.604411 L40.283882,202.359936 L40.813156,202.11546 L41.342431,201.870984 L41.871705,201.626508 L42.400979,201.382032 L42.930254,201.137556 L43.459528,200.89308 L43.988802,200.648604 L44.518077,200.404129 L45.047351,200.159653 L45.576626,199.915177 L46.1059,199.670701 L46.635174,199.426225 L47.164449,199.181749 L47.693723,198.937273 L48.222997,198.692797 L48.752272,198.448322 L49.281546,198.203846 L49.810821,197.95937 L50.340095,197.714894 L50.352174,197.708832 L50.364252,197.70277 L50.376331,197.696708 L50.388409,197.690646 L50.400488,197.684584 L50.412566,197.678522 L50.424645,197.67246 L50.436723,197.666398 L50.448802,197.660336 L50.46088,197.654274 L50.472959,197.648212 L50.485038,197.642149 L50.497116,197.636087 L50.509195,197.630025 L50.521273,197.623963 L50.533352,197.617901 L50.54543,197.611839 L50.557509,197.605777 L50.569587,197.599715 L50.581666,197.593653 L50.593744,197.587591 L50.605823,197.581529 L50.617901,197.575467 L50.62998,197.569405 L51.140066,197.292336 L51.650153,197.015267 L52.160239,196.738197 L52.670326,196.461128 L53.180412,196.184059 L53.690499,195.90699 L54.200585,195.629921 L54.710671,195.352852 L55.220758,195.075783 L55.730844,194.798713 L56.240931,194.521644 L56.751017,194.244575 L57.261103,193.967506 L57.77119,193.690437 L58.281276,193.413367 L58.791363,193.136298 L59.301449,192.859229 L59.811535,192.58216 L60.321622,192.305091 L60.831708,192.028022 L61.341795,191.750953 L61.851881,191.473883 L62.361968,191.196814 L62.872054,190.919745 L62.883638,190.912961 L62.895222,190.906176 L62.906806,190.899392 L62.91839,190.892607 L62.929974,190.885823 L62.941558,190.879039 L62.953142,190.872254 L62.964726,190.86547 L62.97631,190.858686 L62.987894,190.851901 L62.999478,190.845117 L63.011061,190.838333 L63.022645,190.831548 L63.034229,190.824764 L63.045813,190.817979 L63.057397,190.811195 L63.068981,190.804411 L63.080565,190.797626 L63.092149,190.790842 L63.103733,190.784058 L63.115317,190.777273 L63.126901,190.770489 L63.138485,190.763704 L63.150069,190.75692 L63.639627,190.448598 L64.129185,190.140276 L64.618743,189.831954 L65.108301,189.523632 L65.597859,189.21531 L66.087417,188.906989 L66.576974,188.598667 L67.066532,188.290345 L67.55609,187.982023 L68.045648,187.673701 L68.535206,187.365379 L69.024764,187.057057 L69.514322,186.748735 L70.00388,186.440413 L70.493438,186.132091 L70.982996,185.823769 L71.472554,185.515447 L71.962111,185.207125 L72.451669,184.898804 L72.941227,184.590482 L73.430785,184.28216 L73.920343,183.973838 L74.409901,183.665516 L74.899459,183.357194 L74.910521,183.349722 L74.921583,183.342249 L74.932645,183.334777 L74.943708,183.327304 L74.95477,183.319832 L74.965832,183.31236 L74.976894,183.304887 L74.987956,183.297415 L74.999018,183.289943 L75.010081,183.28247 L75.021143,183.274998 L75.032205,183.267525 L75.043267,183.260053 L75.054329,183.252581 L75.065392,183.245108 L75.076454,183.237636 L75.087516,183.230164 L75.098578,183.222691 L75.10964,183.215219 L75.120702,183.207746 L75.131765,183.200274 L75.142827,183.192802 L75.153889,183.185329 L75.164951,183.177857 L75.63264,182.839623 L76.100329,182.501389 L76.568018,182.163155 L77.035707,181.82492 L77.503396,181.486686 L77.971085,181.148452 L78.438773,180.810218 L78.906462,180.471984 L79.374151,180.13375 L79.84184,179.795516 L80.309529,179.457282 L80.777218,179.119047 L81.244907,178.780813 L81.712596,178.442579 L82.180285,178.104345 L82.647974,177.766111 L83.115663,177.427877 L83.583351,177.089643 L84.05104,176.751409 L84.518729,176.413174 L84.986418,176.07494 L85.454107,175.736706 L85.921796,175.398472 L86.389485,175.060238 L86.400002,175.052108 L86.41052,175.043979 L86.421037,175.035849 L86.431555,175.027719 L86.442072,175.019589 L86.45259,175.01146 L86.463107,175.00333 L86.473625,174.9952 L86.484142,174.987071 L86.49466,174.978941 L86.505177,174.970811 L86.515695,174.962682 L86.526212,174.954552 L86.53673,174.946422 L86.547247,174.938292 L86.557765,174.930163 L86.568282,174.922033 L86.5788,174.913903 L86.589317,174.905774 L86.599835,174.897644 L86.610352,174.889514 L86.62087,174.881384 L86.631387,174.873255 L86.641905,174.865125 L87.086384,174.498319 L87.530864,174.131513 L87.975343,173.764708 L88.419822,173.397902 L88.864302,173.031096 L89.308781,172.66429 L89.75326,172.297484 L90.19774,171.930678 L90.642219,171.563873 L91.086698,171.197067 L91.531178,170.830261 L91.975657,170.463455 L92.420136,170.096649 L92.864616,169.729843 L93.309095,169.363037 L93.753574,168.996232 L94.198054,168.629426 L94.642533,168.26262 L95.087012,167.895814 L95.531492,167.529008 L95.975971,167.162202 L96.42045,166.795397 L96.86493,166.428591 L97.309409,166.061785 L97.319361,166.053025 L97.329313,166.044265 L97.339266,166.035505 L97.349218,166.026745 L97.35917,166.017985 L97.369122,166.009225 L97.379074,166.000465 L97.389027,165.991705 L97.398979,165.982945 L97.408931,165.974185 L97.418883,165.965425 L97.428835,165.956664 L97.438788,165.947904 L97.44874,165.939144 L97.458692,165.930384 L97.468644,165.921624 L97.478597,165.912864 L97.488549,165.904104 L97.498501,165.895344 L97.508453,165.886584 L97.518405,165.877824 L97.528358,165.869064 L97.53831,165.860304 L97.548262,165.851544 L97.968191,165.457507 L98.38812,165.06347 L98.80805,164.669433 L99.227979,164.275396 L99.647908,163.881359 L100.067837,163.487322 L100.487766,163.093285 L100.907696,162.699248 L101.327625,162.305211 L101.747554,161.911174 L102.167483,161.517137 L102.587412,161.1231 L103.007342,160.729063 L103.427271,160.335026 L103.8472,159.940989 L104.267129,159.546952 L104.687059,159.152915 L105.106988,158.758878 L105.526917,158.364841 L105.946846,157.970804 L106.366775,157.576767 L106.786705,157.18273 L107.206634,156.788693 L107.626563,156.394656 L107.63593,156.385289 L107.645297,156.375923 L107.654663,156.366556 L107.66403,156.357189 L107.673397,156.347822 L107.682764,156.338456 L107.692131,156.329089 L107.701498,156.319722 L107.710864,156.310355 L107.720231,156.300988 L107.729598,156.291622 L107.738965,156.282255 L107.748332,156.272888 L107.757699,156.263521 L107.767066,156.254155 L107.776432,156.244788 L107.785799,156.235421 L107.795166,156.226054 L107.804533,156.216688 L107.8139,156.207321 L107.823267,156.197954 L107.832633,156.188587 L107.842,156.179221 L107.851367,156.169854 L108.245405,155.749926 L108.639444,155.329999 L109.033482,154.910071 L109.427521,154.490143 L109.821559,154.070216 L110.215598,153.650288 L110.609636,153.230361 L111.003675,152.810433 L111.397713,152.390505 L111.791752,151.970578 L112.18579,151.55065 L112.579829,151.130722 L112.973867,150.710795 L113.367906,150.290867 L113.761944,149.87094 L114.155983,149.451012 L114.550021,149.031084 L114.94406,148.611157 L115.338099,148.191229 L115.732137,147.771301 L116.126176,147.351374 L116.520214,146.931446 L116.914253,146.511519 L117.308291,146.091591 L117.317051,146.081639 L117.325811,146.071687 L117.334571,146.061734 L117.343332,146.051782 L117.352092,146.04183 L117.360852,146.031878 L117.369612,146.021926 L117.378372,146.011973 L117.387132,146.002021 L117.395892,145.992069 L117.404652,145.982117 L117.413412,145.972164 L117.422173,145.962212 L117.430933,145.95226 L117.439693,145.942308 L117.448453,145.932356 L117.457213,145.922403 L117.465973,145.912451 L117.474733,145.902499 L117.483494,145.892547 L117.492254,145.882595 L117.501014,145.872642 L117.509774,145.86269 L117.518534,145.852738 L117.885341,145.40826 L118.252149,144.963783 L118.618956,144.519305 L118.985763,144.074827 L119.352571,143.63035 L119.719378,143.185872 L120.086185,142.741394 L120.452993,142.296917 L120.8198,141.852439 L121.186607,141.407961 L121.553415,140.963484 L121.920222,140.519006 L122.287029,140.074528 L122.653837,139.630051 L123.020644,139.185573 L123.387451,138.741095 L123.754259,138.296618 L124.121066,137.85214 L124.487873,137.407662 L124.854681,136.963185 L125.221488,136.518707 L125.588295,136.074229 L125.955103,135.629752 L126.32191,135.185274 L126.33004,135.174757 L126.338169,135.164239 L126.346299,135.153721 L126.354429,135.143204 L126.362559,135.132687 L126.370688,135.122169 L126.378818,135.111651 L126.386948,135.101134 L126.395077,135.090616 L126.403207,135.080099 L126.411337,135.069581 L126.419466,135.059064 L126.427596,135.048546 L126.435726,135.038029 L126.443856,135.027512 L126.451985,135.016994 L126.460115,135.006476 L126.468245,134.995959 L126.476374,134.985441 L126.484504,134.974924 L126.492634,134.964406 L126.500764,134.953889 L126.508893,134.943371 L126.517023,134.932854 L126.855259,134.465167 L127.193494,133.997479 L127.53173,133.529792 L127.869965,133.062105 L128.208201,132.594418 L128.546436,132.12673 L128.884672,131.659043 L129.222908,131.191356 L129.561143,130.723668 L129.899379,130.255981 L130.237614,129.788294 L130.57585,129.320606 L130.914086,128.852919 L131.252321,128.385232 L131.590557,127.917545 L131.928792,127.449857 L132.267028,126.98217 L132.605264,126.514483 L132.943499,126.046795 L133.281735,125.579108 L133.61997,125.111421 L133.958206,124.643734 L134.296441,124.176046 L134.634677,123.708359 L134.642149,123.697297 L134.649622,123.686235 L134.657094,123.675173 L134.664567,123.66411 L134.672039,123.653048 L134.679512,123.641986 L134.686984,123.630924 L134.694456,123.619862 L134.701929,123.6088 L134.709401,123.597737 L134.716874,123.586675 L134.724346,123.575613 L134.731818,123.564551 L134.739291,123.553489 L134.746763,123.542427 L134.754236,123.531364 L134.761708,123.520302 L134.769181,123.50924 L134.776653,123.498178 L134.784125,123.487116 L134.791598,123.476054 L134.79907,123.464991 L134.806543,123.453929 L134.814015,123.442867 L135.122338,122.953311 L135.430662,122.463754 L135.738985,121.974198 L136.047308,121.484642 L136.355631,120.995086 L136.663955,120.505529 L136.972278,120.015973 L137.280601,119.526417 L137.588924,119.03686 L137.897248,118.547304 L138.205571,118.057748 L138.513894,117.568192 L138.822217,117.078635 L139.13054,116.589079 L139.438864,116.099523 L139.747187,115.609966 L140.05551,115.12041 L140.363833,114.630854 L140.672157,114.141297 L140.98048,113.651741 L141.288803,113.162185 L141.597127,112.672629 L141.90545,112.183072 L142.213773,111.693516 L142.220557,111.681932 L142.227342,111.670348 L142.234126,111.658764 L142.240911,111.64718 L142.247695,111.635596 L142.25448,111.624012 L142.261264,111.612428 L142.268049,111.600844 L142.274833,111.58926 L142.281618,111.577676 L142.288402,111.566092 L142.295186,111.554508 L142.301971,111.542925 L142.308755,111.531341 L142.31554,111.519757 L142.322324,111.508173 L142.329109,111.496589 L142.335893,111.485005 L142.342678,111.473421 L142.349462,111.461837 L142.356247,111.450253 L142.363031,111.438669 L142.369816,111.427085 L142.3766,111.415501 L142.65367,110.905416 L142.930741,110.395332 L143.207811,109.885247 L143.484882,109.375162 L143.761952,108.865077 L144.039022,108.354993 L144.316093,107.844908 L144.593163,107.334823 L144.870234,106.824738 L145.147304,106.314654 L145.424375,105.804569 L145.701445,105.294484 L145.978515,104.784399 L146.255586,104.274315 L146.532656,103.76423 L146.809727,103.254145 L147.086797,102.74406 L147.363867,102.233975 L147.640938,101.723891 L147.918008,101.213806 L148.195079,100.703721 L148.472149,100.193636 L148.74922,99.683552 L149.02629,99.173467 L149.032352,99.161388 L149.038414,99.14931 L149.044476,99.137231 L149.050538,99.125152 L149.0566,99.113074 L149.062662,99.100995 L149.068725,99.088917 L149.074787,99.076838 L149.080849,99.064759 L149.086911,99.052681 L149.092973,99.040602 L149.099035,99.028524 L149.105097,99.016445 L149.111159,99.004366 L149.117221,98.992288 L149.123283,98.980209 L149.129345,98.96813 L149.135408,98.956052 L149.14147,98.943973 L149.147532,98.931894 L149.153594,98.919816 L149.159656,98.907737 L149.165718,98.895659 L149.17178,98.88358 L149.416257,98.354307 L149.660734,97.825035 L149.905211,97.295762 L150.149688,96.766489 L150.394165,96.237216 L150.638642,95.707943 L150.883119,95.178671 L151.127596,94.649398 L151.372073,94.120125 L151.61655,93.590852 L151.861027,93.06158 L152.105504,92.532307 L152.349981,92.003034 L152.594458,91.473761 L152.838935,90.944489 L153.083412,90.415216 L153.327889,89.885943 L153.572366,89.35667 L153.816843,88.827398 L154.06132,88.298125 L154.305797,87.768852 L154.550274,87.239579 L154.794751,86.710307 L155.039228,86.181034 L155.04453,86.168494 L155.049833,86.155954 L155.055135,86.143414 L155.060437,86.130875 L155.065739,86.118335 L155.071042,86.105795 L155.076344,86.093255 L155.081646,86.080715 L155.086948,86.068175 L155.092251,86.055636 L155.097553,86.043096 L155.102855,86.030556 L155.108157,86.018016 L155.11346,86.005476 L155.118762,85.992936 L155.124064,85.980397 L155.129366,85.967857 L155.134669,85.955317 L155.139971,85.942777 L155.145273,85.930237 L155.150575,85.917698 L155.155878,85.905158 L155.16118,85.892618 L155.166482,85.880078 L155.377025,85.332958 L155.587568,84.785838 L155.798111,84.238717 L156.008654,83.691597 L156.219197,83.144477 L156.429741,82.597357 L156.640284,82.050237 L156.850827,81.503117 L157.06137,80.955996 L157.271913,80.408876 L157.482456,79.861756 L157.692999,79.314636 L157.903542,78.767516 L158.114085,78.220396 L158.324628,77.673276 L158.535171,77.126155 L158.745714,76.579035 L158.956257,76.031915 L159.166801,75.484795 L159.377344,74.937675 L159.587887,74.390555 L159.79843,73.843434 L160.008973,73.296314 L160.219516,72.749194 L160.224019,72.736234 L160.228522,72.723275 L160.233025,72.710315 L160.237528,72.697356 L160.242031,72.684396 L160.246534,72.671436 L160.251038,72.658477 L160.255541,72.645517 L160.260044,72.632557 L160.264547,72.619598 L160.26905,72.606638 L160.273553,72.593679 L160.278056,72.580719 L160.282559,72.567759 L160.287062,72.5548 L160.291565,72.54184 L160.296068,72.52888 L160.300571,72.515921 L160.305075,72.502961 L160.309578,72.490002 L160.314081,72.477042 L160.318584,72.464082 L160.323087,72.451123 L160.32759,72.438163 L160.502859,71.874536 L160.678127,71.310909 L160.853396,70.747282 L161.028664,70.183655 L161.203933,69.620028 L161.379201,69.0564 L161.55447,68.492773 L161.729739,67.929146 L161.905007,67.365519 L162.080276,66.801892 L162.255544,66.238265 L162.430813,65.674638 L162.606082,65.111011 L162.78135,64.547384 L162.956619,63.983757 L163.131887,63.42013 L163.307156,62.856503 L163.482424,62.292876 L163.657693,61.729248 L163.832962,61.165621 L164.00823,60.601994 L164.183499,60.038367 L164.358767,59.47474 L164.534036,58.911113 L164.5377,58.897785 L164.541365,58.884457 L164.545029,58.871129 L164.548693,58.8578 L164.552358,58.844472 L164.556022,58.831144 L164.559686,58.817816 L164.563351,58.804488 L164.567015,58.79116 L164.570679,58.777832 L164.574344,58.764504 L164.578008,58.751176 L164.581672,58.737847 L164.585337,58.724519 L164.589001,58.711191 L164.592665,58.697863 L164.59633,58.684535 L164.599994,58.671207 L164.603658,58.657879 L164.607323,58.64455 L164.610987,58.631222 L164.614651,58.617894 L164.618316,58.604566 L164.62198,58.591238 L164.760634,58.012445 L164.899287,57.433651 L165.037941,56.854858 L165.176594,56.276064 L165.315248,55.697271 L165.453902,55.118477 L165.592555,54.539684 L165.731209,53.96089 L165.869862,53.382097 L166.008516,52.803303 L166.147169,52.22451 L166.285823,51.645716 L166.424477,51.066923 L166.56313,50.48813 L166.701784,49.909336 L166.840437,49.330543 L166.979091,48.751749 L167.117745,48.172956 L167.256398,47.594162 L167.395052,47.015369 L167.533705,46.436575 L167.672359,45.857782 L167.811012,45.278988 L167.949666,44.700195 L167.952454,44.68656 L167.955242,44.672926 L167.958031,44.659291 L167.960819,44.645657 L167.963607,44.632022 L167.966396,44.618388 L167.969184,44.604753 L167.971972,44.591119 L167.97476,44.577484 L167.977549,44.56385 L167.980337,44.550215 L167.983125,44.53658 L167.985913,44.522946 L167.988701,44.509311 L167.99149,44.495677 L167.994278,44.482042 L167.997066,44.468408 L167.999854,44.454773 L168.002643,44.441139 L168.005431,44.427504 L168.008219,44.41387 L168.011008,44.400235 L168.013796,44.386601 L168.016584,44.372966 L168.117282,43.780347 L168.21798,43.187727 L168.318678,42.595108 L168.419376,42.002489 L168.520074,41.40987 L168.620772,40.81725 L168.72147,40.224631 L168.822168,39.632012 L168.922866,39.039392 L169.023564,38.446773 L169.124262,37.854154 L169.22496,37.261534 L169.325657,36.668915 L169.426355,36.076296 L169.527053,35.483677 L169.627751,34.891057 L169.728449,34.298438 L169.829147,33.705819 L169.929845,33.113199 L170.030543,32.52058 L170.131241,31.927961 L170.231939,31.335342 L170.332637,30.742722 L170.433335,30.150103 L170.435215,30.136235 L170.437094,30.122368 L170.438974,30.1085 L170.440854,30.094633 L170.442733,30.080765 L170.444613,30.066898 L170.446492,30.05303 L170.448372,30.039163 L170.450252,30.025295 L170.452131,30.011428 L170.454011,29.99756 L170.455891,29.983693 L170.45777,29.969825 L170.45965,29.955957 L170.461529,29.94209 L170.463409,29.928222 L170.465289,29.914355 L170.467168,29.900487 L170.469048,29.88662 L170.470927,29.872752 L170.472807,29.858885 L170.474687,29.845017 L170.476566,29.83115 L170.478446,29.817282 L170.539848,29.212177 L170.60125,28.607073 L170.662652,28.001968 L170.724053,27.396863 L170.785455,26.791759 L170.846857,26.186654 L170.908259,25.58155 L170.969661,24.976445 L171.031063,24.37134 L171.092465,23.766236 L171.153867,23.161131 L171.215268,22.556027 L171.27667,21.950922 L171.338072,21.345817 L171.399474,20.740713 L171.460876,20.135608 L171.522278,19.530503 L171.58368,18.925399 L171.645082,18.320294 L171.706483,17.71519 L171.767885,17.110085 L171.829287,16.50498 L171.890689,15.899876 L171.952091,15.294771 L171.953037,15.280755 L171.953983,15.266739 L171.954929,15.252722 L171.955876,15.238706 L171.956822,15.22469 L171.957768,15.210674 L171.958714,15.196658 L171.95966,15.182641 L171.960606,15.168625 L171.961553,15.154609 L171.962499,15.140593 L171.963445,15.126577 L171.964391,15.11256 L171.965337,15.098544 L171.966284,15.084528 L171.96723,15.070512 L171.968176,15.056495 L171.969122,15.042479 L171.970068,15.028463 L171.971014,15.014447 L171.97196,15.000431 L171.972907,14.986414 L171.973853,14.972398 L171.974799,14.958382 L171.995564,14.342133 L172.016329,13.725883 L172.037095,13.109634 L172.05786,12.493385 L172.078625,11.877135 L172.09939,11.260886 L172.120155,10.644636 L172.140921,10.028387 L172.161686,9.412138 L172.182451,8.795888 L172.203216,8.179639 L172.223981,7.56339 L172.244747,6.94714 L172.265512,6.330891 L172.286277,5.714641 L172.307042,5.098392 L172.327808,4.482143 L172.348573,3.865893 L172.369338,3.249644 L172.390103,2.633394 L172.410868,2.017145 L172.431634,1.400896 L172.452399,0.784646 L172.473164,0.168397 L172.473164,0.168397 L172.47283,0.147663 L172.472496,0.126929 L172.472162,0.106194 L172.471828,0.08546 L172.471494,0.064726 L172.47116,0.043992 L172.470826,0.023258 L172.470492,0.002523 L172.470452,0 L160.404932,0 L154.939651,5.465263 Z" fill="#121212"/>
</svg>
