<svg xmlns="http://www.w3.org/2000/svg" viewBox="375 375 125 125" width="200" height="200">
  <rect x="375" y="375" width="125" height="125" fill="#F3F3F3"/>
  <path d="M468.916911,337.444222 L459.916119,346.445055 L450.915327,355.445888 L441.914536,364.446722 L432.913744,373.447555 L423.912952,382.448388 L414.912161,391.449222 L405.911369,400.450055 L396.910577,409.450888 L387.909786,418.451722 L378.908994,427.452555 L369.908202,436.453388 L360.907411,445.454222 L351.906619,454.455055 L342.905827,463.455888 L333.905036,472.456722 L324.904244,481.457555 L315.903452,490.458388 L306.902661,499.459222 L306.361885,500 L448.0714,500 L448.128714,499.946219 L448.548642,499.552181 L448.968569,499.158143 L449.388497,498.764105 L449.423154,498.729448 L449.457811,498.69479 L449.492469,498.660133 L449.527126,498.625476 L449.561783,498.590818 L449.59644,498.556161 L449.631097,498.521504 L449.665755,498.486846 L449.700412,498.452189 L449.735069,498.417532 L449.769726,498.382874 L449.804383,498.348217 L449.839041,498.31356 L449.873698,498.278902 L449.908355,498.244245 L449.943012,498.209588 L449.97767,498.17493 L450.012327,498.140273 L450.046984,498.105616 L450.081641,498.070958 L450.116298,498.036301 L450.150956,498.001644 L450.185613,497.966986 L450.22027,497.932329 L450.614307,497.5124 L451.008344,497.092471 L451.402381,496.672542 L451.796418,496.252613 L452.190455,495.832684 L452.584492,495.412755 L452.978529,494.992826 L453.372566,494.572897 L453.766603,494.152968 L454.16064,493.733039 L454.554677,493.31311 L454.948714,492.893181 L455.342751,492.473252 L455.736788,492.053323 L456.130825,491.633394 L456.524862,491.213465 L456.918899,490.793536 L457.312936,490.373607 L457.706973,489.953678 L458.10101,489.533749 L458.495047,489.11382 L458.889084,488.693891 L459.283121,488.273962 L459.677158,487.854033 L459.70957,487.81721 L459.741983,487.780386 L459.774395,487.743563 L459.806807,487.706739 L459.83922,487.669916 L459.871632,487.633093 L459.904044,487.596269 L459.936457,487.559446 L459.968869,487.522622 L460.001281,487.485799 L460.033694,487.448975 L460.066106,487.412152 L460.098518,487.375329 L460.130931,487.338505 L460.163343,487.301682 L460.195755,487.264858 L460.228168,487.228035 L460.26058,487.191212 L460.292992,487.154388 L460.325405,487.117565 L460.357817,487.080741 L460.390229,487.043918 L460.422642,487.007094 L460.455054,486.970271 L460.82186,486.525792 L461.188666,486.081312 L461.555472,485.636833 L461.922277,485.192354 L462.289083,484.747874 L462.655889,484.303395 L463.022695,483.858915 L463.389501,483.414436 L463.756306,482.969957 L464.123112,482.525477 L464.489918,482.080998 L464.856724,481.636519 L465.22353,481.192039 L465.590336,480.74756 L465.957142,480.30308 L466.323947,479.858601 L466.690753,479.414122 L467.057559,478.969642 L467.424365,478.525163 L467.791171,478.080684 L468.157977,477.636204 L468.524782,477.191725 L468.891588,476.747245 L469.258394,476.302766 L469.288474,476.263851 L469.318554,476.224936 L469.348634,476.186021 L469.378714,476.147106 L469.408794,476.108191 L469.438874,476.069277 L469.468954,476.030362 L469.499034,475.991447 L469.529114,475.952532 L469.559194,475.913617 L469.589274,475.874702 L469.619353,475.835787 L469.649433,475.796872 L469.679513,475.757957 L469.709593,475.719042 L469.739673,475.680127 L469.769753,475.641212 L469.799833,475.602298 L469.829913,475.563383 L469.859993,475.524468 L469.890073,475.485553 L469.920153,475.446638 L469.950233,475.407723 L469.980313,475.368808 L470.318547,474.901119 L470.656781,474.43343 L470.995016,473.96574 L471.33325,473.498051 L471.671484,473.030362 L472.009718,472.562673 L472.347952,472.094984 L472.686186,471.627294 L473.024421,471.159605 L473.362655,470.691916 L473.700889,470.224227 L474.039123,469.756538 L474.377357,469.288848 L474.715591,468.821159 L475.053826,468.35347 L475.39206,467.885781 L475.730294,467.418091 L476.068528,466.950402 L476.406762,466.482713 L476.744996,466.015024 L477.083231,465.547335 L477.421465,465.079645 L477.759699,464.611956 L478.097933,464.144267 L478.125581,464.103337 L478.153229,464.062407 L478.180877,464.021477 L478.208524,463.980546 L478.236172,463.939616 L478.26382,463.898686 L478.291468,463.857756 L478.319116,463.816826 L478.346764,463.775895 L478.374411,463.734965 L478.402059,463.694035 L478.429707,463.653105 L478.457355,463.612175 L478.485003,463.571245 L478.512651,463.530315 L478.540298,463.489384 L478.567946,463.448454 L478.595594,463.407524 L478.623242,463.366594 L478.65089,463.325664 L478.678538,463.284734 L478.706185,463.243803 L478.733833,463.202873 L478.761481,463.161943 L479.069803,462.672385 L479.378125,462.182826 L479.686447,461.693267 L479.994769,461.203709 L480.303091,460.714151 L480.611413,460.224592 L480.919735,459.735033 L481.228057,459.245475 L481.536379,458.755917 L481.844701,458.266358 L482.153023,457.776799 L482.461344,457.287241 L482.769666,456.797683 L483.077988,456.308124 L483.38631,455.818565 L483.694632,455.329007 L484.002954,454.839449 L484.311276,454.34989 L484.619598,453.860331 L484.92792,453.370773 L485.236242,452.881214 L485.544564,452.391656 L485.852886,451.902097 L486.161208,451.412539 L486.18631,451.369678 L486.211412,451.326818 L486.236515,451.283957 L486.261617,451.241096 L486.286719,451.198235 L486.311822,451.155375 L486.336924,451.112514 L486.362026,451.069653 L486.387128,451.026793 L486.412231,450.983932 L486.437333,450.941071 L486.462435,450.898211 L486.487537,450.85535 L486.512639,450.812489 L486.537742,450.769628 L486.562844,450.726768 L486.587946,450.683907 L486.613048,450.641046 L486.638151,450.598186 L486.663253,450.555325 L486.688355,450.512464 L486.713458,450.469603 L486.73856,450.426743 L486.763662,450.383882 L487.040731,449.873795 L487.3178,449.363708 L487.59487,448.85362 L487.871939,448.343533 L488.149008,447.833446 L488.426077,447.323359 L488.703146,446.813271 L488.980215,446.303184 L489.257285,445.793097 L489.534354,445.28301 L489.811423,444.772922 L490.088492,444.262835 L490.365561,443.752748 L490.64263,443.24266 L490.919699,442.732573 L491.196769,442.222486 L491.473838,441.712399 L491.750907,441.202312 L492.027976,440.692224 L492.305045,440.182137 L492.582114,439.67205 L492.859184,439.161963 L493.136253,438.651875 L493.413322,438.141788 L493.435751,438.097097 L493.458181,438.052406 L493.48061,438.007716 L493.50304,437.963025 L493.525469,437.918334 L493.547899,437.873643 L493.570328,437.828952 L493.592758,437.784262 L493.615187,437.739571 L493.637617,437.69488 L493.660046,437.650189 L493.682476,437.605499 L493.704905,437.560808 L493.727334,437.516117 L493.749764,437.471426 L493.772193,437.426735 L493.794623,437.382045 L493.817052,437.337354 L493.839482,437.292663 L493.861911,437.247972 L493.884341,437.203281 L493.90677,437.158591 L493.9292,437.1139 L493.951629,437.069209 L494.196105,436.539933 L494.440581,436.010658 L494.685057,435.481382 L494.929533,434.952107 L495.174009,434.422831 L495.418485,433.893556 L495.66296,433.36428 L495.907436,432.835005 L496.151912,432.305729 L496.396388,431.776454 L496.640864,431.247178 L496.88534,430.717903 L497.129816,430.188627 L497.374292,429.659351 L497.618768,429.130076 L497.863244,428.6008 L498.10772,428.071525 L498.352195,427.542249 L498.596671,427.012974 L498.841147,426.483698 L499.085623,425.954423 L499.330099,425.425147 L499.574575,424.895872 L499.819051,424.366596 L499.838669,424.320199 L499.858287,424.273801 L499.877905,424.227404 L499.897524,424.181007 L499.917142,424.134609 L499.93676,424.088212 L499.956378,424.041815 L499.975996,423.995417 L499.995614,423.94902 L500,423.938647 L500,314.033179 L499.977669,314.03404 L499.901,314.036998 L499.82433,314.039956 L499.747661,314.042914 L499.670991,314.045873 L499.594322,314.048831 L499.517652,314.051789 L499.440983,314.054747 L499.364313,314.057705 L499.287644,314.060663 L499.210974,314.063621 L499.134304,314.066579 L499.057635,314.069537 L498.980965,314.072495 L498.904296,314.075453 L498.827626,314.078412 L498.750957,314.08137 L498.674287,314.084328 L498.597618,314.087286 L498.520948,314.090244 L498.444279,314.093202 L498.367609,314.09616 L498.291613,314.106725 L498.215618,314.117291 L498.139622,314.127856 L498.063626,314.138422 L497.987631,314.148987 L497.911635,314.159553 L497.83564,314.170118 L497.759644,314.180683 L497.683648,314.191249 L497.607653,314.201814 L497.531657,314.21238 L497.455662,314.222945 L497.379666,314.23351 L497.30367,314.244076 L497.227675,314.254641 L497.151679,314.265207 L497.075683,314.275772 L496.999688,314.286338 L496.923692,314.296903 L496.847697,314.307468 L496.771701,314.318034 L496.695705,314.328599 L496.61971,314.339165 L496.543714,314.34973 L496.469145,314.367798 L496.394576,314.385866 L496.320008,314.403934 L496.245439,314.422003 L496.17087,314.440071 L496.096301,314.458139 L496.021732,314.476207 L495.947163,314.494275 L495.872594,314.512343 L495.798026,314.530411 L495.723457,314.548479 L495.648888,314.566548 L495.574319,314.584616 L495.49975,314.602684 L495.425182,314.620752 L495.350613,314.63882 L495.276044,314.656888 L495.201475,314.674956 L495.126906,314.693024 L495.052337,314.711093 L494.977768,314.729161 L494.9032,314.747229 L494.828631,314.765297 L494.754062,314.783365 L494.681659,314.808757 L494.609256,314.834149 L494.536852,314.85954 L494.464449,314.884932 L494.392046,314.910324 L494.319643,314.935716 L494.24724,314.961108 L494.174836,314.986499 L494.102433,315.011891 L494.03003,315.037283 L493.957627,315.062675 L493.885223,315.088066 L493.81282,315.113458 L493.740417,315.13885 L493.668014,315.164242 L493.595611,315.189634 L493.523207,315.215025 L493.450804,315.240417 L493.378401,315.265809 L493.305998,315.291201 L493.233595,315.316593 L493.161191,315.341984 L493.088788,315.367376 L493.016385,315.392768 L492.946865,315.425232 L492.877344,315.457696 L492.807824,315.49016 L492.738304,315.522624 L492.668784,315.555087 L492.599264,315.587551 L492.529743,315.620015 L492.460223,315.652479 L492.390703,315.684943 L492.321183,315.717407 L492.251662,315.749871 L492.182142,315.782334 L492.112622,315.814798 L492.043101,315.847262 L491.973581,315.879726 L491.904061,315.91219 L491.834541,315.944654 L491.76502,315.977118 L491.6955,316.009582 L491.62598,316.042045 L491.55646,316.074509 L491.48694,316.106973 L491.417419,316.139437 L491.347899,316.171901 L491.28195,316.211115 L491.216002,316.25033 L491.150054,316.289544 L491.084105,316.328758 L491.018156,316.367973 L490.952208,316.407187 L490.886259,316.446401 L490.820311,316.485616 L490.754362,316.52483 L490.688414,316.564044 L490.622465,316.603259 L490.556517,316.642473 L490.490568,316.681687 L490.42462,316.720902 L490.358672,316.760116 L490.292723,316.79933 L490.226774,316.838545 L490.160826,316.877759 L490.094877,316.916973 L490.028929,316.956188 L489.96298,316.995402 L489.897032,317.034616 L489.831083,317.073831 L489.765135,317.113045 L489.703412,317.158621 L489.641688,317.204198 L489.579965,317.249774 L489.518241,317.29535 L489.456518,317.340926 L489.394795,317.386503 L489.333071,317.432079 L489.271348,317.477655 L489.209625,317.523231 L489.147901,317.568807 L489.086178,317.614384 L489.024454,317.65996 L488.962731,317.705536 L488.901008,317.751113 L488.839284,317.796689 L488.777561,317.842265 L488.715838,317.887841 L488.654114,317.933418 L488.592391,317.978994 L488.530667,318.02457 L488.468944,318.070146 L488.407221,318.115723 L488.345497,318.161299 L488.283774,318.206875 L488.226887,318.258362 L488.170001,318.309848 L488.113114,318.361335 L488.056227,318.412822 L487.999341,318.464308 L487.942454,318.515795 L487.885567,318.567282 L487.828681,318.618768 L487.771794,318.670255 L487.714907,318.721742 L487.658021,318.773228 L487.601134,318.824715 L487.544247,318.876202 L487.487361,318.927688 L487.430474,318.979175 L487.373587,319.030662 L487.316701,319.082148 L487.259814,319.133635 L487.202927,319.185122 L487.146041,319.236608 L487.089154,319.288095 L487.032267,319.339582 L486.975381,319.391068 L486.918494,319.442555 L477.917702,328.443388 Z" fill="#121212"/>
  <path d="M387.404525,319.442525 L270.899525,435.947525 L269.664172,437.312412 L268.570587,438.793319 L267.629598,440.375581 L266.850524,442.04353 L266.241078,443.780651 L265.807296,445.569742 L265.553472,447.393087 L265.482121,449.232631 L265.593948,451.070158 L265.887847,452.887474 L266.360907,454.666582 L267.008444,456.389867 L267.824046,458.040263 L268.799637,459.601427 L269.925556,461.057902 L271.190654,462.395265 L272.582404,463.600274 L274.087025,464.660995 L275.689617,465.566925 L277.374313,466.309095 L279.124428,466.880154 L280.922634,467.274449 L282.751124,467.488074 L284.591793,467.518914 L292.593814,467.254577 L293.816585,467.173574 L301.670022,466.391357 L302.883859,466.229728 L310.571651,464.945822 L311.76943,464.704884 L319.274513,462.935484 L320.449821,462.617223 L327.755133,460.378521 L328.902314,459.985399 L335.990794,457.293588 L337.10494,456.828352 L343.959524,453.699624 L345.036413,453.165144 L351.640038,449.615692 L352.676035,449.014833 L359.011639,445.060849 L360.003572,444.396382 L366.054093,440.05406 L366.999122,439.328616 L372.747497,434.614149 L373.642978,433.830219 L379.072144,428.759798 L379.915506,427.919765 L385.008402,422.509583 L385.79704,421.61579 L390.536603,415.882041 L391.267798,414.936893 L395.636965,408.895769 L396.307839,407.901853 L400.289548,401.569547 L400.897054,400.529768 L404.474241,393.922472 L405.015195,392.840191 L408.170799,385.974098 L408.641954,384.853268 L411.358912,377.744571 L411.757084,376.589844 L414.018334,369.254735 L414.340554,368.071548 L416.129034,360.526221 L416.372743,359.320825 L417.671389,351.581472 L417.834639,350.360905 L418.626389,342.443718 L418.708053,341.215717 L418.975845,333.136889 L418.945207,331.29613 L418.731766,329.46753 L418.337636,327.669199 L417.766719,325.918945 L417.024669,324.234102 L416.118836,322.631354 L415.058189,321.126574 L413.853232,319.734664 L412.515898,318.469408 L411.059431,317.343336 L409.498255,316.3676 L407.847829,315.551862 L406.124498,314.9042 L404.345329,314.431029 L402.52794,314.137035 L400.69033,314.025128 L398.850696,314.096418 L397.027257,314.350198 L395.23807,314.783954 L393.500854,315.393392 L391.832812,316.172476 L390.250464,317.11349 L388.769479,318.207117 Z" fill="#121212"/>
  <path d="M366.326987,496.903877 L376.730185,491.308889 L386.712203,485.076578 L396.246023,478.232549 L405.304628,470.802405 L413.861,462.81175 L421.888122,454.286189 L429.358977,445.251326 L436.246547,435.732766 L442.523815,425.756111 L448.163763,415.346967 L453.139375,404.530937 L457.423633,393.333627 L460.989519,381.780639 L463.810016,369.897578 L465.858106,357.710049 L467.106774,345.243655 L467.529,332.524 L467.529,332.524 L467.865175,322.353608 L468.859482,312.387949 L470.490596,302.647297 L472.73719,293.151926 L475.577938,283.922111 L478.991516,274.978125 L482.956595,266.340244 L487.451852,258.028741 L492.455959,250.063891 L497.947591,242.465968 L500,239.981951 L500,188.303115 L492.753934,194.246499 L484.1975,202.237125 L476.170316,210.762652 L468.699399,219.797475 L461.81177,229.31599 L455.534444,239.292593 L449.894442,249.701678 L444.918781,260.517641 L440.63448,271.714877 L437.068556,283.267782 L434.248027,295.150752 L432.199913,307.338181 L430.951231,319.804465 L430.529,332.524 L430.529,332.524 L430.192825,342.694512 L429.198519,352.660281 L427.567406,362.401033 L425.320815,371.896495 L422.480071,381.126393 L419.0665,390.070453 L415.101429,398.708401 L410.606185,407.019963 L405.602094,414.984865 L400.110481,422.582834 L394.152675,429.793595 L387.75,436.596875 L380.923784,442.9724 L373.695352,448.899895 L366.086031,454.359088 L358.117148,459.329704 L349.810029,463.791469 L341.186,467.724109 L332.266388,471.107351 L323.072519,473.920921 L313.625719,476.144545 L303.947315,477.757948 L294.058633,478.740858 L283.981,479.073 L283.981,479.073 L273.810488,478.736825 L263.844719,477.742518 L254.103967,476.111404 L244.608505,473.86481 L235.378607,471.024062 L226.434547,467.610484 L217.796599,463.645405 L209.485037,459.150148 L201.520135,454.146041 L193.922166,448.654409 L186.711405,442.696578 L179.908125,436.293875 L173.5326,429.467625 L167.605105,422.239153 L162.145912,414.629787 L157.175296,406.660852 L152.713531,398.353674 L148.780891,389.729578 L145.397649,380.809892 L142.584079,371.61594 L140.360455,362.169049 L138.747052,352.490545 L137.764142,342.601753 L137.432,332.524 L137.432,332.524 L137.768175,322.353608 L138.762482,312.387949 L140.393596,302.647297 L142.64019,293.151926 L145.480938,283.922111 L148.894516,274.978125 L152.859595,266.340244 L157.354852,258.028741 L162.358959,250.063891 L167.850591,242.465968 L173.808422,235.255246 L180.211125,228.452 L187.037375,222.076504 L194.265847,216.149032 L201.875213,210.689859 L209.844148,205.719259 L218.151326,201.257506 L226.775422,197.324875 L235.695108,193.941639 L244.88906,191.128074 L254.335951,188.904453 L264.014455,187.291051 L273.903247,186.308142 L283.981,185.976 L283.981,185.976 L296.742672,185.553678 L309.26919,184.304007 L321.533182,182.25293 L333.507273,179.426389 L345.164092,175.850328 L356.476266,171.550688 L367.416421,166.553413 L377.957185,160.884446 L388.071186,154.569728 L397.731049,147.635204 L406.909403,140.106815 L415.578875,132.010504 L423.712092,123.372215 L431.28168,114.217889 L438.260268,104.573469 L444.620481,94.464899 L450.334949,83.918121 L455.376297,72.959077 L459.717153,61.613711 L463.330144,49.907965 L466.187896,37.867781 L468.263039,25.519103 L469.528198,12.887874 L469.956,0 L469.956,0 L468.414333,0 L466.872667,0 L465.331,0 L463.789333,0 L462.247667,0 L460.706,0 L459.164333,0 L457.622667,0 L456.081,0 L454.539333,0 L452.997667,0 L451.456,0 L449.914333,0 L448.372667,0 L446.831,0 L445.289333,0 L443.747667,0 L442.206,0 L440.664333,0 L439.122667,0 L437.581,0 L436.039333,0 L434.497667,0 L432.956,0 L432.614249,10.338768 L431.603451,20.469412 L429.945287,30.371345 L427.66144,40.023954 L424.773591,49.406629 L421.303422,58.498757 L417.272615,67.279727 L412.702852,75.728926 L407.615814,83.825742 L402.033185,91.549565 L395.976644,98.87978 L389.467875,105.795778 L382.528559,112.276946 L375.180378,118.302671 L367.445014,123.852343 L359.344148,128.905349 L350.899463,133.441077 L342.132641,137.438916 L333.065362,140.878253 L323.71931,143.738477 L314.116166,145.998975 L304.277612,147.639137 L294.225329,148.638349 L283.981,148.976 L283.981,148.976 L271.386019,149.392811 L259.023087,150.626173 L246.919223,152.650482 L235.101444,155.440134 L223.59677,158.969524 L212.432219,163.213047 L201.634808,168.145098 L191.231556,173.740074 L181.24948,179.972369 L171.715601,186.816379 L162.656934,194.246499 L154.1005,202.237125 L146.073316,210.762652 L138.602399,219.797475 L131.71477,229.31599 L125.437444,239.292593 L119.797442,249.701678 L114.821781,260.517641 L110.53748,271.714877 L106.971556,283.267782 L104.151027,295.150752 L102.102913,307.338181 L100.854231,319.804465 L100.432,332.524 L100.432,332.524 L100.848811,345.118981 L102.082174,357.481913 L104.106484,369.585777 L106.896139,381.403556 L110.425533,392.90823 L114.669063,404.072781 L119.601123,414.870192 L125.196111,425.273444 L131.428422,435.25552 L138.272451,444.789399 L145.702595,453.848066 L153.69325,462.4045 L162.218811,470.431684 L171.253674,477.902601 L180.772234,484.79023 L190.748889,491.067556 L201.158033,496.707558 L208.315103,500 L359.548894,500 Z M231.435667,0 L229.894,0 L228.352333,0 L226.810667,0 L225.269,0 L223.727333,0 L222.185667,0 L220.644,0 L219.102333,0 L217.560667,0 L216.019,0 L214.477333,0 L212.935667,0 L211.394,0 L209.852333,0 L208.310667,0 L206.769,0 L205.227333,0 L203.685667,0 L202.144,0 L200.602333,0 L199.060667,0 L197.519,0 L197.519,0 L197.715534,5.926571 L198.29706,11.744893 L199.251469,17.442188 L200.566648,23.005657 L202.230487,28.422501 L204.230875,33.679922 L206.5557,38.765119 L209.192852,43.665295 L212.130219,48.367651 L215.35569,52.859386 L218.857154,57.127703 L222.6225,61.159803 L226.639617,64.942886 L230.896394,68.464153 L235.380719,71.710806 L240.080481,74.670045 L244.983571,77.329072 L250.077875,79.675088 L255.351284,81.695293 L260.791685,83.376889 L266.386969,84.707077 L272.125023,85.673057 L277.993737,86.262031 L283.981,86.4612 L283.981,86.4612 L289.907528,86.264669 L295.72583,85.683152 L301.423107,84.728758 L306.98656,83.413598 L312.40339,81.749782 L317.660797,79.749423 L322.745983,77.42463 L327.646148,74.787513 L332.348494,71.850185 L336.840222,68.624755 L341.108532,65.123334 L345.140625,61.358033 L348.923703,57.340962 L352.444966,53.084233 L355.691615,48.599955 L358.650852,43.90024 L361.309877,38.997199 L363.655891,33.902941 L365.676095,28.629579 L367.35769,23.189221 L368.687877,17.59398 L369.653857,11.855966 L370.242831,5.987289 L370.442,0 L368.900333,0 L367.358667,0 L365.817,0 L364.275333,0 L362.733667,0 L361.192,0 L359.650333,0 L358.108667,0 L356.567,0 L355.025333,0 L353.483667,0 L351.942,0 L350.400333,0 L348.858667,0 L347.317,0 L345.775333,0 L344.233667,0 L342.692,0 L341.150333,0 L339.608667,0 L338.067,0 L336.525333,0 L334.983667,0 L333.442,0 L333.442,0 L333.328883,3.438127 L332.994269,6.80617 L332.445268,10.0974 L331.688986,13.305038 L330.732533,16.422301 L329.583016,19.442411 L328.247543,22.358585 L326.733222,25.164045 L325.047162,27.852008 L323.19647,30.415696 L321.188255,32.848326 L319.029625,35.143119 L316.727687,37.293294 L314.28955,39.29207 L311.722322,41.132668 L309.033111,42.808306 L306.229025,44.312203 L303.317172,45.63758 L300.30466,46.777656 L297.198597,47.725651 L294.006092,48.474783 L290.734252,49.018272 L287.390185,49.349338 L283.981,49.4612 L283.981,49.4612 L280.54288,49.348084 L277.174791,49.013475 L273.883514,48.46448 L270.675829,47.708206 L267.558517,46.751762 L264.538359,45.602255 L261.622137,44.266793 L258.81663,42.752483 L256.128619,41.066432 L253.564886,39.21575 L251.132211,37.207542 L248.837375,35.048917 L246.687159,32.746982 L244.688343,30.308845 L242.847709,27.741613 L241.172037,25.052395 L239.668108,22.248297 L238.342703,19.336428 L237.202603,16.323895 L236.254588,13.217805 L235.505439,10.025266 L234.961938,6.753386 L234.630865,3.409273 L234.519,0 L232.977333,0 Z" fill="#121212" fill-rule="evenodd"/>
</svg>
