<svg xmlns="http://www.w3.org/2000/svg" viewBox="375 250 125 125" width="200" height="200">
  <rect x="375" y="250" width="125" height="125" fill="#F3F3F3"/>
  <path d="M468.916911,337.444222 L459.916119,346.445055 L450.915327,355.445888 L441.914536,364.446722 L432.913744,373.447555 L423.912952,382.448388 L414.912161,391.449222 L405.911369,400.450055 L396.910577,409.450888 L387.909786,418.451722 L378.908994,427.452555 L369.908202,436.453388 L360.907411,445.454222 L351.906619,454.455055 L342.905827,463.455888 L333.905036,472.456722 L324.904244,481.457555 L315.903452,490.458388 L306.902661,499.459222 L306.361885,500 L448.0714,500 L448.128714,499.946219 L448.548642,499.552181 L448.968569,499.158143 L449.388497,498.764105 L449.423154,498.729448 L449.457811,498.69479 L449.492469,498.660133 L449.527126,498.625476 L449.561783,498.590818 L449.59644,498.556161 L449.631097,498.521504 L449.665755,498.486846 L449.700412,498.452189 L449.735069,498.417532 L449.769726,498.382874 L449.804383,498.348217 L449.839041,498.31356 L449.873698,498.278902 L449.908355,498.244245 L449.943012,498.209588 L449.97767,498.17493 L450.012327,498.140273 L450.046984,498.105616 L450.081641,498.070958 L450.116298,498.036301 L450.150956,498.001644 L450.185613,497.966986 L450.22027,497.932329 L450.614307,497.5124 L451.008344,497.092471 L451.402381,496.672542 L451.796418,496.252613 L452.190455,495.832684 L452.584492,495.412755 L452.978529,494.992826 L453.372566,494.572897 L453.766603,494.152968 L454.16064,493.733039 L454.554677,493.31311 L454.948714,492.893181 L455.342751,492.473252 L455.736788,492.053323 L456.130825,491.633394 L456.524862,491.213465 L456.918899,490.793536 L457.312936,490.373607 L457.706973,489.953678 L458.10101,489.533749 L458.495047,489.11382 L458.889084,488.693891 L459.283121,488.273962 L459.677158,487.854033 L459.70957,487.81721 L459.741983,487.780386 L459.774395,487.743563 L459.806807,487.706739 L459.83922,487.669916 L459.871632,487.633093 L459.904044,487.596269 L459.936457,487.559446 L459.968869,487.522622 L460.001281,487.485799 L460.033694,487.448975 L460.066106,487.412152 L460.098518,487.375329 L460.130931,487.338505 L460.163343,487.301682 L460.195755,487.264858 L460.228168,487.228035 L460.26058,487.191212 L460.292992,487.154388 L460.325405,487.117565 L460.357817,487.080741 L460.390229,487.043918 L460.422642,487.007094 L460.455054,486.970271 L460.82186,486.525792 L461.188666,486.081312 L461.555472,485.636833 L461.922277,485.192354 L462.289083,484.747874 L462.655889,484.303395 L463.022695,483.858915 L463.389501,483.414436 L463.756306,482.969957 L464.123112,482.525477 L464.489918,482.080998 L464.856724,481.636519 L465.22353,481.192039 L465.590336,480.74756 L465.957142,480.30308 L466.323947,479.858601 L466.690753,479.414122 L467.057559,478.969642 L467.424365,478.525163 L467.791171,478.080684 L468.157977,477.636204 L468.524782,477.191725 L468.891588,476.747245 L469.258394,476.302766 L469.288474,476.263851 L469.318554,476.224936 L469.348634,476.186021 L469.378714,476.147106 L469.408794,476.108191 L469.438874,476.069277 L469.468954,476.030362 L469.499034,475.991447 L469.529114,475.952532 L469.559194,475.913617 L469.589274,475.874702 L469.619353,475.835787 L469.649433,475.796872 L469.679513,475.757957 L469.709593,475.719042 L469.739673,475.680127 L469.769753,475.641212 L469.799833,475.602298 L469.829913,475.563383 L469.859993,475.524468 L469.890073,475.485553 L469.920153,475.446638 L469.950233,475.407723 L469.980313,475.368808 L470.318547,474.901119 L470.656781,474.43343 L470.995016,473.96574 L471.33325,473.498051 L471.671484,473.030362 L472.009718,472.562673 L472.347952,472.094984 L472.686186,471.627294 L473.024421,471.159605 L473.362655,470.691916 L473.700889,470.224227 L474.039123,469.756538 L474.377357,469.288848 L474.715591,468.821159 L475.053826,468.35347 L475.39206,467.885781 L475.730294,467.418091 L476.068528,466.950402 L476.406762,466.482713 L476.744996,466.015024 L477.083231,465.547335 L477.421465,465.079645 L477.759699,464.611956 L478.097933,464.144267 L478.125581,464.103337 L478.153229,464.062407 L478.180877,464.021477 L478.208524,463.980546 L478.236172,463.939616 L478.26382,463.898686 L478.291468,463.857756 L478.319116,463.816826 L478.346764,463.775895 L478.374411,463.734965 L478.402059,463.694035 L478.429707,463.653105 L478.457355,463.612175 L478.485003,463.571245 L478.512651,463.530315 L478.540298,463.489384 L478.567946,463.448454 L478.595594,463.407524 L478.623242,463.366594 L478.65089,463.325664 L478.678538,463.284734 L478.706185,463.243803 L478.733833,463.202873 L478.761481,463.161943 L479.069803,462.672385 L479.378125,462.182826 L479.686447,461.693267 L479.994769,461.203709 L480.303091,460.714151 L480.611413,460.224592 L480.919735,459.735033 L481.228057,459.245475 L481.536379,458.755917 L481.844701,458.266358 L482.153023,457.776799 L482.461344,457.287241 L482.769666,456.797683 L483.077988,456.308124 L483.38631,455.818565 L483.694632,455.329007 L484.002954,454.839449 L484.311276,454.34989 L484.619598,453.860331 L484.92792,453.370773 L485.236242,452.881214 L485.544564,452.391656 L485.852886,451.902097 L486.161208,451.412539 L486.18631,451.369678 L486.211412,451.326818 L486.236515,451.283957 L486.261617,451.241096 L486.286719,451.198235 L486.311822,451.155375 L486.336924,451.112514 L486.362026,451.069653 L486.387128,451.026793 L486.412231,450.983932 L486.437333,450.941071 L486.462435,450.898211 L486.487537,450.85535 L486.512639,450.812489 L486.537742,450.769628 L486.562844,450.726768 L486.587946,450.683907 L486.613048,450.641046 L486.638151,450.598186 L486.663253,450.555325 L486.688355,450.512464 L486.713458,450.469603 L486.73856,450.426743 L486.763662,450.383882 L487.040731,449.873795 L487.3178,449.363708 L487.59487,448.85362 L487.871939,448.343533 L488.149008,447.833446 L488.426077,447.323359 L488.703146,446.813271 L488.980215,446.303184 L489.257285,445.793097 L489.534354,445.28301 L489.811423,444.772922 L490.088492,444.262835 L490.365561,443.752748 L490.64263,443.24266 L490.919699,442.732573 L491.196769,442.222486 L491.473838,441.712399 L491.750907,441.202312 L492.027976,440.692224 L492.305045,440.182137 L492.582114,439.67205 L492.859184,439.161963 L493.136253,438.651875 L493.413322,438.141788 L493.435751,438.097097 L493.458181,438.052406 L493.48061,438.007716 L493.50304,437.963025 L493.525469,437.918334 L493.547899,437.873643 L493.570328,437.828952 L493.592758,437.784262 L493.615187,437.739571 L493.637617,437.69488 L493.660046,437.650189 L493.682476,437.605499 L493.704905,437.560808 L493.727334,437.516117 L493.749764,437.471426 L493.772193,437.426735 L493.794623,437.382045 L493.817052,437.337354 L493.839482,437.292663 L493.861911,437.247972 L493.884341,437.203281 L493.90677,437.158591 L493.9292,437.1139 L493.951629,437.069209 L494.196105,436.539933 L494.440581,436.010658 L494.685057,435.481382 L494.929533,434.952107 L495.174009,434.422831 L495.418485,433.893556 L495.66296,433.36428 L495.907436,432.835005 L496.151912,432.305729 L496.396388,431.776454 L496.640864,431.247178 L496.88534,430.717903 L497.129816,430.188627 L497.374292,429.659351 L497.618768,429.130076 L497.863244,428.6008 L498.10772,428.071525 L498.352195,427.542249 L498.596671,427.012974 L498.841147,426.483698 L499.085623,425.954423 L499.330099,425.425147 L499.574575,424.895872 L499.819051,424.366596 L499.838669,424.320199 L499.858287,424.273801 L499.877905,424.227404 L499.897524,424.181007 L499.917142,424.134609 L499.93676,424.088212 L499.956378,424.041815 L499.975996,423.995417 L499.995614,423.94902 L500,423.938647 L500,314.033179 L499.977669,314.03404 L499.901,314.036998 L499.82433,314.039956 L499.747661,314.042914 L499.670991,314.045873 L499.594322,314.048831 L499.517652,314.051789 L499.440983,314.054747 L499.364313,314.057705 L499.287644,314.060663 L499.210974,314.063621 L499.134304,314.066579 L499.057635,314.069537 L498.980965,314.072495 L498.904296,314.075453 L498.827626,314.078412 L498.750957,314.08137 L498.674287,314.084328 L498.597618,314.087286 L498.520948,314.090244 L498.444279,314.093202 L498.367609,314.09616 L498.291613,314.106725 L498.215618,314.117291 L498.139622,314.127856 L498.063626,314.138422 L497.987631,314.148987 L497.911635,314.159553 L497.83564,314.170118 L497.759644,314.180683 L497.683648,314.191249 L497.607653,314.201814 L497.531657,314.21238 L497.455662,314.222945 L497.379666,314.23351 L497.30367,314.244076 L497.227675,314.254641 L497.151679,314.265207 L497.075683,314.275772 L496.999688,314.286338 L496.923692,314.296903 L496.847697,314.307468 L496.771701,314.318034 L496.695705,314.328599 L496.61971,314.339165 L496.543714,314.34973 L496.469145,314.367798 L496.394576,314.385866 L496.320008,314.403934 L496.245439,314.422003 L496.17087,314.440071 L496.096301,314.458139 L496.021732,314.476207 L495.947163,314.494275 L495.872594,314.512343 L495.798026,314.530411 L495.723457,314.548479 L495.648888,314.566548 L495.574319,314.584616 L495.49975,314.602684 L495.425182,314.620752 L495.350613,314.63882 L495.276044,314.656888 L495.201475,314.674956 L495.126906,314.693024 L495.052337,314.711093 L494.977768,314.729161 L494.9032,314.747229 L494.828631,314.765297 L494.754062,314.783365 L494.681659,314.808757 L494.609256,314.834149 L494.536852,314.85954 L494.464449,314.884932 L494.392046,314.910324 L494.319643,314.935716 L494.24724,314.961108 L494.174836,314.986499 L494.102433,315.011891 L494.03003,315.037283 L493.957627,315.062675 L493.885223,315.088066 L493.81282,315.113458 L493.740417,315.13885 L493.668014,315.164242 L493.595611,315.189634 L493.523207,315.215025 L493.450804,315.240417 L493.378401,315.265809 L493.305998,315.291201 L493.233595,315.316593 L493.161191,315.341984 L493.088788,315.367376 L493.016385,315.392768 L492.946865,315.425232 L492.877344,315.457696 L492.807824,315.49016 L492.738304,315.522624 L492.668784,315.555087 L492.599264,315.587551 L492.529743,315.620015 L492.460223,315.652479 L492.390703,315.684943 L492.321183,315.717407 L492.251662,315.749871 L492.182142,315.782334 L492.112622,315.814798 L492.043101,315.847262 L491.973581,315.879726 L491.904061,315.91219 L491.834541,315.944654 L491.76502,315.977118 L491.6955,316.009582 L491.62598,316.042045 L491.55646,316.074509 L491.48694,316.106973 L491.417419,316.139437 L491.347899,316.171901 L491.28195,316.211115 L491.216002,316.25033 L491.150054,316.289544 L491.084105,316.328758 L491.018156,316.367973 L490.952208,316.407187 L490.886259,316.446401 L490.820311,316.485616 L490.754362,316.52483 L490.688414,316.564044 L490.622465,316.603259 L490.556517,316.642473 L490.490568,316.681687 L490.42462,316.720902 L490.358672,316.760116 L490.292723,316.79933 L490.226774,316.838545 L490.160826,316.877759 L490.094877,316.916973 L490.028929,316.956188 L489.96298,316.995402 L489.897032,317.034616 L489.831083,317.073831 L489.765135,317.113045 L489.703412,317.158621 L489.641688,317.204198 L489.579965,317.249774 L489.518241,317.29535 L489.456518,317.340926 L489.394795,317.386503 L489.333071,317.432079 L489.271348,317.477655 L489.209625,317.523231 L489.147901,317.568807 L489.086178,317.614384 L489.024454,317.65996 L488.962731,317.705536 L488.901008,317.751113 L488.839284,317.796689 L488.777561,317.842265 L488.715838,317.887841 L488.654114,317.933418 L488.592391,317.978994 L488.530667,318.02457 L488.468944,318.070146 L488.407221,318.115723 L488.345497,318.161299 L488.283774,318.206875 L488.226887,318.258362 L488.170001,318.309848 L488.113114,318.361335 L488.056227,318.412822 L487.999341,318.464308 L487.942454,318.515795 L487.885567,318.567282 L487.828681,318.618768 L487.771794,318.670255 L487.714907,318.721742 L487.658021,318.773228 L487.601134,318.824715 L487.544247,318.876202 L487.487361,318.927688 L487.430474,318.979175 L487.373587,319.030662 L487.316701,319.082148 L487.259814,319.133635 L487.202927,319.185122 L487.146041,319.236608 L487.089154,319.288095 L487.032267,319.339582 L486.975381,319.391068 L486.918494,319.442555 L477.917702,328.443388 Z" fill="#121212"/>
  <path d="M499.99324,263.825119 L499.967927,263.868444 L499.942614,263.911769 L499.917301,263.955094 L499.891988,263.99842 L499.866675,264.041745 L499.841362,264.08507 L499.816049,264.128395 L499.790736,264.17172 L499.765423,264.215045 L499.74011,264.25837 L499.714796,264.301695 L499.689483,264.345021 L499.66417,264.388346 L499.638857,264.431671 L499.613544,264.474996 L499.588231,264.518321 L499.439184,264.793625 L499.290136,265.068929 L499.141089,265.344233 L498.992041,265.619537 L498.842994,265.894841 L498.693946,266.170145 L498.544898,266.445449 L498.395851,266.720753 L498.246803,266.996057 L498.097756,267.271361 L497.948709,267.546665 L497.799661,267.821969 L497.650614,268.097273 L497.501566,268.372577 L497.352519,268.647881 L497.203471,268.923185 L497.054424,269.198489 L496.905376,269.473793 L496.756328,269.749097 L496.607281,270.024401 L496.458234,270.299705 L496.309186,270.575009 L496.160139,270.850313 L496.011091,271.125617 L495.988551,271.170713 L495.966011,271.215809 L495.943471,271.260905 L495.920931,271.306002 L495.898391,271.351098 L495.875851,271.396194 L495.853311,271.44129 L495.830771,271.486386 L495.808231,271.531482 L495.785691,271.576579 L495.763151,271.621675 L495.740611,271.666771 L495.718072,271.711867 L495.695532,271.756963 L495.672992,271.802059 L495.650452,271.847156 L495.627912,271.892252 L495.605372,271.937348 L495.582832,271.982444 L495.560292,272.02754 L495.537752,272.072636 L495.515212,272.117733 L495.492672,272.162829 L495.470132,272.207925 L495.338651,272.494012 L495.20717,272.780099 L495.075689,273.066187 L494.944208,273.352274 L494.812727,273.638361 L494.681245,273.924448 L494.549764,274.210535 L494.418283,274.496622 L494.286802,274.78271 L494.155321,275.068797 L494.02384,275.354884 L493.892359,275.640971 L493.760878,275.927058 L493.629397,276.213145 L493.497916,276.499233 L493.366435,276.78532 L493.234954,277.071407 L493.103473,277.357494 L492.971991,277.643581 L492.84051,277.929668 L492.709029,278.215756 L492.577548,278.501843 L492.446067,278.78793 L492.314586,279.074017 L492.294954,279.120719 L492.275323,279.167422 L492.255691,279.214124 L492.23606,279.260827 L492.216428,279.307529 L492.196797,279.354232 L492.177165,279.400934 L492.157534,279.447637 L492.137902,279.494339 L492.118271,279.541042 L492.098639,279.587744 L492.079007,279.634447 L492.059376,279.681149 L492.039744,279.727851 L492.020113,279.774554 L492.000481,279.821256 L491.98085,279.867959 L491.961218,279.914661 L491.941587,279.961364 L491.921955,280.008066 L491.902324,280.054769 L491.882692,280.101471 L491.863061,280.148174 L491.843429,280.194876 L491.730225,280.491072 L491.617021,280.787267 L491.503818,281.083463 L491.390614,281.379659 L491.27741,281.675855 L491.164206,281.97205 L491.051002,282.268246 L490.937799,282.564442 L490.824595,282.860637 L490.711391,283.156833 L490.598187,283.453029 L490.484983,283.749224 L490.37178,284.04542 L490.258576,284.341616 L490.145372,284.637812 L490.032168,284.934007 L489.918965,285.230203 L489.805761,285.526399 L489.692557,285.822594 L489.579353,286.11879 L489.466149,286.414986 L489.352946,286.711182 L489.239742,287.007377 L489.126538,287.303573 L489.109948,287.351688 L489.093357,287.399803 L489.076767,287.447917 L489.060176,287.496032 L489.043586,287.544147 L489.026995,287.592262 L489.010405,287.640377 L488.993815,287.688491 L488.977224,287.736606 L488.960634,287.784721 L488.944043,287.832836 L488.927453,287.88095 L488.910863,287.929065 L488.894272,287.97718 L488.877682,288.025295 L488.861091,288.07341 L488.844501,288.121524 L488.82791,288.169639 L488.81132,288.217754 L488.79473,288.265869 L488.778139,288.313984 L488.761549,288.362098 L488.744958,288.410213 L488.728368,288.458328 L488.634153,288.763958 L488.539937,289.069587 L488.445722,289.375217 L488.351506,289.680846 L488.257291,289.986476 L488.163075,290.292105 L488.06886,290.597735 L487.974644,290.903364 L487.880429,291.208994 L487.786213,291.514623 L487.691998,291.820253 L487.597782,292.125882 L487.503567,292.431512 L487.409352,292.737142 L487.315136,293.042771 L487.220921,293.348401 L487.126705,293.65403 L487.03249,293.95966 L486.938274,294.265289 L486.844059,294.570919 L486.749843,294.876548 L486.655628,295.182178 L486.561412,295.487807 L486.467197,295.793437 L486.453771,295.842738 L486.440346,295.892038 L486.42692,295.941339 L486.413495,295.990639 L486.400069,296.03994 L486.386643,296.089241 L486.373218,296.138541 L486.359792,296.187842 L486.346366,296.237143 L486.332941,296.286443 L486.319515,296.335744 L486.306089,296.385044 L486.292664,296.434345 L486.279238,296.483646 L486.265813,296.532946 L486.252387,296.582247 L486.238961,296.631548 L486.225536,296.680848 L486.21211,296.730149 L486.198685,296.779449 L486.185259,296.82875 L486.171833,296.878051 L486.158408,296.927351 L486.144982,296.976652 L486.070466,297.291041 L485.995949,297.605429 L485.921433,297.919818 L485.846917,298.234207 L485.772401,298.548595 L485.697884,298.862984 L485.623368,299.177372 L485.548852,299.491761 L485.474335,299.80615 L485.399819,300.120538 L485.325303,300.434927 L485.250787,300.749315 L485.17627,301.063704 L485.101754,301.378093 L485.027238,301.692481 L484.952721,302.00687 L484.878205,302.321259 L484.803689,302.635647 L484.729172,302.950036 L484.654656,303.264425 L484.58014,303.578813 L484.505624,303.893202 L484.431107,304.20759 L484.356591,304.521979 L484.346437,304.572205 L484.336283,304.622431 L484.326128,304.672657 L484.315974,304.722883 L484.30582,304.773109 L484.295666,304.823335 L484.285512,304.873561 L484.275358,304.923787 L484.265203,304.974013 L484.255049,305.024239 L484.244895,305.074465 L484.234741,305.12469 L484.224587,305.174916 L484.214433,305.225142 L484.204278,305.275368 L484.194124,305.325594 L484.18397,305.37582 L484.173816,305.426046 L484.163662,305.476272 L484.153508,305.526498 L484.143353,305.576724 L484.133199,305.62695 L484.123045,305.677176 L484.112891,305.727402 L484.058785,306.049875 L484.004679,306.372348 L483.950573,306.694821 L483.896466,307.017294 L483.84236,307.339767 L483.788254,307.66224 L483.734148,307.984713 L483.680042,308.307186 L483.625936,308.629659 L483.57183,308.952132 L483.517724,309.274605 L483.463617,309.597078 L483.409511,309.919552 L483.355405,310.242025 L483.301299,310.564498 L483.247193,310.886971 L483.193087,311.209444 L483.138981,311.531917 L483.084875,311.85439 L483.030769,312.176863 L482.976662,312.499336 L482.922556,312.821809 L482.86845,313.144282 L482.814344,313.466755 L482.807542,313.517613 L482.800741,313.568471 L482.793939,313.619329 L482.787138,313.670187 L482.780336,313.721045 L482.773535,313.771903 L482.766733,313.822761 L482.759932,313.873619 L482.75313,313.924477 L482.746329,313.975335 L482.739527,314.026193 L482.732726,314.077051 L482.725924,314.127909 L482.719122,314.178767 L482.712321,314.229625 L482.705519,314.280483 L482.698718,314.331341 L482.691916,314.382199 L482.685115,314.433057 L482.678313,314.483915 L482.671512,314.534773 L482.66471,314.585631 L482.657909,314.636489 L482.651107,314.687347 L482.618122,315.01723 L482.585137,315.347113 L482.552152,315.676995 L482.519167,316.006878 L482.486182,316.336761 L482.453197,316.666644 L482.420212,316.996527 L482.387227,317.326409 L482.354242,317.656292 L482.321257,317.986175 L482.288272,318.316058 L482.255287,318.64594 L482.222301,318.975823 L482.189316,319.305706 L482.156331,319.635589 L482.123346,319.965472 L482.090361,320.295354 L482.057376,320.625237 L482.024391,320.95512 L481.991406,321.285003 L481.958421,321.614886 L481.925436,321.944768 L481.892451,322.274651 L481.859466,322.604534 L481.856064,322.655702 L481.852662,322.706869 L481.84926,322.758037 L481.845858,322.809205 L481.842456,322.860372 L481.839054,322.91154 L481.835652,322.962707 L481.83225,323.013875 L481.828848,323.065043 L481.825446,323.11621 L481.822044,323.167378 L481.818642,323.218546 L481.81524,323.269713 L481.811838,323.320881 L481.808436,323.372048 L481.805034,323.423216 L481.801632,323.474384 L481.79823,323.525551 L481.794828,323.576719 L481.791426,323.627886 L481.788024,323.679054 L481.784622,323.730222 L481.78122,323.781389 L481.777818,323.832557 L481.766665,324.169175 L481.755512,324.505793 L481.744359,324.842411 L481.733206,325.179028 L481.722053,325.515646 L481.7109,325.852264 L481.699747,326.188882 L481.688594,326.5255 L481.677441,326.862118 L481.666288,327.198735 L481.655135,327.535353 L481.643982,327.871971 L481.632829,328.208589 L481.621676,328.545207 L481.610523,328.881824 L481.59937,329.218442 L481.588217,329.55506 L481.577064,329.891678 L481.565911,330.228296 L481.554758,330.564914 L481.543605,330.901531 L481.532452,331.238149 L481.521299,331.574767 L481.510146,331.911385 L481.511424,331.988083 L481.512701,332.064781 L481.513979,332.141478 L481.515257,332.218176 L481.516534,332.294874 L481.517812,332.371572 L481.51909,332.44827 L481.520367,332.524967 L481.521645,332.601665 L481.522923,332.678363 L481.5242,332.755061 L481.525478,332.831758 L481.526756,332.908456 L481.528033,332.985154 L481.529311,333.061852 L481.530589,333.13855 L481.531866,333.215247 L481.533144,333.291945 L481.534422,333.368643 L481.535699,333.445341 L481.536977,333.522039 L481.538255,333.598736 L481.539532,333.675434 L481.54081,333.752132 L481.549704,333.828323 L481.558599,333.904514 L481.567493,333.980705 L481.576388,334.056896 L481.585282,334.133087 L481.594176,334.209278 L481.603071,334.28547 L481.611965,334.361661 L481.620859,334.437852 L481.629754,334.514043 L481.638648,334.590234 L481.647542,334.666425 L481.656437,334.742616 L481.665331,334.818807 L481.674226,334.894998 L481.68312,334.971189 L481.692014,335.04738 L481.700909,335.123572 L481.709803,335.199763 L481.718698,335.275954 L481.727592,335.352145 L481.736486,335.428336 L481.745381,335.504527 L481.754275,335.580718 L481.770698,335.655648 L481.787121,335.730578 L481.803544,335.805507 L481.819967,335.880437 L481.83639,335.955367 L481.852813,336.030297 L481.869236,336.105227 L481.885659,336.180156 L481.902082,336.255086 L481.918505,336.330016 L481.934928,336.404946 L481.951351,336.479875 L481.967774,336.554805 L481.984197,336.629735 L482.00062,336.704665 L482.017043,336.779595 L482.033466,336.854524 L482.049889,336.929454 L482.066312,337.004384 L482.082735,337.079314 L482.099158,337.154244 L482.115581,337.229173 L482.132004,337.304103 L482.148427,337.379033 L482.172216,337.451959 L482.196005,337.524886 L482.219794,337.597812 L482.243583,337.670739 L482.267372,337.743665 L482.291161,337.816592 L482.31495,337.889518 L482.338739,337.962445 L482.362528,338.035371 L482.386317,338.108298 L482.410106,338.181224 L482.433895,338.254151 L482.457684,338.327077 L482.481473,338.400003 L482.505262,338.47293 L482.529051,338.545856 L482.55284,338.618783 L482.576629,338.691709 L482.600418,338.764636 L482.624207,338.837562 L482.647996,338.910489 L482.671785,338.983415 L482.695574,339.056342 L482.719363,339.129268 L482.750282,339.199469 L482.781202,339.26967 L482.812121,339.339871 L482.84304,339.410072 L482.87396,339.480273 L482.904879,339.550474 L482.935799,339.620675 L482.966718,339.690876 L482.997637,339.761077 L483.028557,339.831278 L483.059476,339.901479 L483.090395,339.97168 L483.121315,340.041881 L483.152234,340.112082 L483.183154,340.182283 L483.214073,340.252484 L483.244992,340.322685 L483.275912,340.392886 L483.306831,340.463087 L483.337751,340.533288 L483.36867,340.603489 L483.399589,340.67369 L483.430509,340.743891 L483.461428,340.814092 L483.499172,340.880872 L483.536915,340.947653 L483.574659,341.014433 L483.612402,341.081213 L483.650146,341.147994 L483.687889,341.214774 L483.725633,341.281554 L483.763377,341.348335 L483.80112,341.415115 L483.838864,341.481895 L483.876607,341.548676 L483.914351,341.615456 L483.952095,341.682236 L483.989838,341.749017 L484.027582,341.815797 L484.065325,341.882577 L484.103069,341.949358 L484.140813,342.016138 L484.178556,342.082918 L484.2163,342.149699 L484.254043,342.216479 L484.291787,342.283259 L484.32953,342.35004 L484.367274,342.41682 L484.411468,342.479518 L484.455662,342.542217 L484.499856,342.604915 L484.54405,342.667613 L484.588244,342.730311 L484.632438,342.79301 L484.676632,342.855708 L484.720826,342.918406 L484.76502,342.981105 L484.809214,343.043803 L484.853408,343.106501 L484.897603,343.169199 L484.941797,343.231898 L484.985991,343.294596 L485.030185,343.357294 L485.074379,343.419993 L485.118573,343.482691 L485.162767,343.545389 L485.206961,343.608088 L485.251155,343.670786 L485.295349,343.733484 L485.339543,343.796182 L485.383737,343.858881 L485.427931,343.921579 L485.478138,343.979574 L485.528345,344.03757 L485.578551,344.095565 L485.628758,344.153561 L485.678965,344.211556 L485.729172,344.269551 L485.779379,344.327547 L485.829585,344.385542 L485.879792,344.443537 L485.929999,344.501533 L485.980206,344.559528 L486.030413,344.617524 L486.080619,344.675519 L486.130826,344.733514 L486.181033,344.79151 L486.23124,344.849505 L486.281446,344.9075 L486.331653,344.965496 L486.38186,345.023491 L486.432067,345.081486 L486.482274,345.139482 L486.53248,345.197477 L486.582687,345.255473 L486.632894,345.313468 L486.688616,345.366186 L486.744339,345.418904 L486.800061,345.471622 L486.855784,345.52434 L486.911506,345.577059 L486.967229,345.629777 L487.022951,345.682495 L487.078673,345.735213 L487.134396,345.787931 L487.190118,345.840649 L487.245841,345.893367 L487.301563,345.946085 L487.357285,345.998804 L487.413008,346.051522 L487.46873,346.10424 L487.524453,346.156958 L487.580175,346.209676 L487.635897,346.262394 L487.69162,346.315112 L487.747342,346.367831 L487.803065,346.420549 L487.858787,346.473267 L487.91451,346.525985 L487.970232,346.578703 L488.030918,346.625622 L488.091604,346.672541 L488.15229,346.71946 L488.212977,346.766378 L488.273663,346.813297 L488.334349,346.860216 L488.395035,346.907135 L488.455721,346.954054 L488.516408,347.000972 L488.577094,347.047891 L488.63778,347.09481 L488.698466,347.141729 L488.759152,347.188648 L488.819838,347.235567 L488.880524,347.282486 L488.941211,347.329404 L489.001897,347.376323 L489.062583,347.423242 L489.123269,347.470161 L489.183955,347.51708 L489.244642,347.563998 L489.305328,347.610917 L489.366014,347.657836 L489.4267,347.704755 L489.491749,347.74541 L489.556798,347.786065 L489.621847,347.82672 L489.686896,347.867375 L489.751945,347.90803 L489.816994,347.948685 L489.882043,347.989339 L489.947092,348.029994 L490.012141,348.070649 L490.07719,348.111304 L490.142239,348.151959 L490.207288,348.192614 L490.272336,348.233269 L490.337385,348.273924 L490.402434,348.314579 L490.467483,348.355234 L490.532532,348.395889 L490.597581,348.436543 L490.66263,348.477198 L490.727679,348.517853 L490.792728,348.558508 L490.857777,348.599163 L490.922826,348.639818 L490.987875,348.680473 L491.056643,348.714461 L491.12541,348.74845 L491.194178,348.782438 L491.262945,348.816426 L491.331713,348.850415 L491.40048,348.884403 L491.469248,348.918391 L491.538016,348.95238 L491.606783,348.986368 L491.675551,349.020356 L491.744318,349.054345 L491.813086,349.088333 L491.881854,349.122321 L491.950621,349.15631 L492.019389,349.190298 L492.088156,349.224286 L492.156924,349.258275 L492.225692,349.292263 L492.294459,349.326251 L492.363227,349.36024 L492.431994,349.394228 L492.500762,349.428216 L492.569529,349.462205 L492.638297,349.496193 L492.710102,349.523178 L492.781907,349.550163 L492.853713,349.577149 L492.925518,349.604134 L492.997323,349.631119 L493.069128,349.658104 L493.140933,349.685089 L493.212739,349.712075 L493.284544,349.73906 L493.356349,349.766045 L493.428154,349.79303 L493.49996,349.820016 L493.571765,349.847001 L493.64357,349.873986 L493.715375,349.900971 L493.78718,349.927956 L493.858986,349.954942 L493.930791,349.981927 L494.002596,350.008912 L494.074401,350.035897 L494.146206,350.062882 L494.218012,350.089868 L494.289817,350.116853 L494.361622,350.143838 L494.435754,350.163553 L494.509885,350.183268 L494.584017,350.202983 L494.658149,350.222697 L494.732281,350.242412 L494.806412,350.262127 L494.880544,350.281842 L494.954676,350.301557 L495.028807,350.321272 L495.102939,350.340986 L495.177071,350.360701 L495.251202,350.380416 L495.325334,350.400131 L495.399466,350.419846 L495.473598,350.43956 L495.547729,350.459275 L495.621861,350.47899 L495.695993,350.498705 L495.770124,350.51842 L495.844256,350.538135 L495.918388,350.557849 L495.99252,350.577564 L496.066651,350.597279 L496.140783,350.616994 L496.216507,350.629243 L496.292231,350.641492 L496.367955,350.653742 L496.44368,350.665991 L496.519404,350.67824 L496.595128,350.69049 L496.670852,350.702739 L496.746576,350.714988 L496.8223,350.727237 L496.898024,350.739486 L496.973748,350.751736 L497.049472,350.763985 L497.125197,350.776234 L497.200921,350.788483 L497.276645,350.800733 L497.352369,350.812982 L497.428093,350.825231 L497.503817,350.83748 L497.579541,350.84973 L497.655266,350.861979 L497.73099,350.874228 L497.806714,350.886478 L497.882438,350.898727 L497.958162,350.910976 L498.034729,350.915638 L498.111295,350.920301 L498.187862,350.924963 L498.264429,350.929625 L498.340995,350.934288 L498.417562,350.93895 L498.494129,350.943613 L498.570695,350.948275 L498.647262,350.952937 L498.723829,350.9576 L498.800395,350.962262 L498.876962,350.966925 L498.953529,350.971587 L499.030095,350.976249 L499.106662,350.980912 L499.183229,350.985574 L499.259795,350.990236 L499.336362,350.994899 L499.412929,350.999561 L499.489495,351.004224 L499.566062,351.008886 L499.642629,351.013548 L499.719195,351.018211 L499.795762,351.022873 L499.872413,351.019902 L499.949064,351.016931 L500,351.014957 L500,263.813549 Z" fill="#121212"/>
  <path d="M431.568112,327.603923 L440.568945,318.603131 L449.569778,309.602339 L458.570612,300.601548 L467.571445,291.600756 L476.572278,282.599964 L485.573112,273.599173 L494.573945,264.598381 L500,259.172351 L500,129.005635 L499.665733,129.187202 L499.155646,129.464271 L498.645559,129.74134 L498.602699,129.766442 L498.559838,129.791544 L498.516978,129.816646 L498.474117,129.841748 L498.431257,129.86685 L498.388396,129.891953 L498.345536,129.917055 L498.302675,129.942157 L498.259815,129.967259 L498.216954,129.992361 L498.174094,130.017463 L498.131234,130.042565 L498.088373,130.067667 L498.045513,130.092769 L498.002652,130.117871 L497.959792,130.142973 L497.916931,130.168075 L497.874071,130.193178 L497.83121,130.21828 L497.78835,130.243382 L497.745489,130.268484 L497.702629,130.293586 L497.659768,130.318688 L497.616908,130.34379 L497.127349,130.652112 L496.637791,130.960434 L496.148232,131.268756 L495.658673,131.577078 L495.169115,131.8854 L494.679556,132.193722 L494.189997,132.502044 L493.700439,132.810366 L493.21088,133.118688 L492.721321,133.42701 L492.231763,133.735332 L491.742204,134.043654 L491.252645,134.351975 L490.763087,134.660297 L490.273528,134.968619 L489.783969,135.276941 L489.294411,135.585263 L488.804852,135.893585 L488.315293,136.201907 L487.825735,136.510229 L487.336176,136.818551 L486.846617,137.126873 L486.357059,137.435195 L485.8675,137.743517 L485.82657,137.771165 L485.78564,137.798812 L485.74471,137.82646 L485.70378,137.854108 L485.66285,137.881755 L485.62192,137.909403 L485.58099,137.937051 L485.54006,137.964698 L485.49913,137.992346 L485.4582,138.019994 L485.41727,138.047641 L485.37634,138.075289 L485.335411,138.102937 L485.294481,138.130584 L485.253551,138.158232 L485.212621,138.18588 L485.171691,138.213527 L485.130761,138.241175 L485.089831,138.268823 L485.048901,138.29647 L485.007971,138.324118 L484.967041,138.351766 L484.926111,138.379413 L484.885181,138.407061 L484.417491,138.745295 L483.949801,139.083529 L483.482112,139.421763 L483.014422,139.759997 L482.546732,140.098232 L482.079043,140.436466 L481.611353,140.7747 L481.143663,141.112934 L480.675973,141.451168 L480.208283,141.789402 L479.740594,142.127636 L479.272904,142.46587 L478.805214,142.804105 L478.337524,143.142339 L477.869835,143.480573 L477.402145,143.818807 L476.934455,144.157041 L476.466765,144.495275 L475.999076,144.833509 L475.531386,145.171743 L475.063696,145.509978 L474.596006,145.848212 L474.128317,146.186446 L473.660627,146.52468 L473.621712,146.55476 L473.582798,146.584839 L473.543883,146.614919 L473.504968,146.644999 L473.466053,146.675079 L473.427139,146.705158 L473.388224,146.735238 L473.349309,146.765318 L473.310395,146.795398 L473.27148,146.825477 L473.232565,146.855557 L473.19365,146.885637 L473.154736,146.915717 L473.115821,146.945797 L473.076906,146.975876 L473.037992,147.005956 L472.999077,147.036036 L472.960162,147.066115 L472.921248,147.096195 L472.882333,147.126275 L472.843418,147.156355 L472.804503,147.186434 L472.765589,147.216514 L472.726674,147.246594 L472.282194,147.6134 L471.837713,147.980206 L471.393233,148.347011 L470.948753,148.713817 L470.504273,149.080623 L470.059792,149.447429 L469.615312,149.814235 L469.170832,150.181041 L468.726351,150.547846 L468.281871,150.914652 L467.837391,151.281458 L467.39291,151.648264 L466.94843,152.01507 L466.50395,152.381876 L466.05947,152.748682 L465.614989,153.115487 L465.170509,153.482293 L464.726029,153.849099 L464.281548,154.215905 L463.837068,154.582711 L463.392588,154.949517 L462.948108,155.316322 L462.503627,155.683128 L462.059147,156.049934 L462.022324,156.082346 L461.985501,156.114758 L461.948677,156.14717 L461.911854,156.179582 L461.875031,156.211994 L461.838208,156.244406 L461.801385,156.276819 L461.764561,156.309231 L461.727738,156.341643 L461.690915,156.374055 L461.654092,156.406467 L461.617269,156.438879 L461.580445,156.471291 L461.543622,156.503703 L461.506799,156.536115 L461.469976,156.568527 L461.433152,156.600939 L461.396329,156.633352 L461.359506,156.665764 L461.322683,156.698176 L461.28586,156.730588 L461.249036,156.763 L461.212213,156.795412 L461.17539,156.827824 L460.75546,157.221861 L460.33553,157.615898 L459.915599,158.009935 L459.495669,158.403972 L459.075739,158.798009 L458.655809,159.192046 L458.235879,159.586083 L457.815948,159.98012 L457.396018,160.374157 L456.976088,160.768194 L456.556158,161.162231 L456.136228,161.556268 L455.716297,161.950305 L455.296367,162.344342 L454.876437,162.738379 L454.456507,163.132416 L454.036576,163.526453 L453.616646,163.92049 L453.196716,164.314527 L452.776786,164.708564 L452.356856,165.102601 L451.936925,165.496638 L451.516995,165.890675 L451.097065,166.284712 L451.062408,166.319369 L451.027751,166.354026 L450.993093,166.388683 L450.958436,166.42334 L450.923779,166.457997 L450.889122,166.492654 L450.854465,166.527311 L450.819808,166.561968 L450.78515,166.596625 L450.750493,166.631282 L450.715836,166.665939 L450.681179,166.700596 L450.646522,166.735252 L450.611865,166.769909 L450.577207,166.804566 L450.54255,166.839223 L450.507893,166.87388 L450.473236,166.908537 L450.438579,166.943194 L450.403922,166.977851 L450.369264,167.012508 L450.334607,167.047165 L450.29995,167.081822 L450.265293,167.116479 L449.871253,167.536407 L449.477214,167.956334 L449.083174,168.376262 L448.689135,168.796189 L448.295095,169.216117 L447.901055,169.636044 L447.507016,170.055972 L447.112976,170.4759 L446.718937,170.895827 L446.324897,171.315755 L445.930858,171.735682 L445.536818,172.15561 L445.142778,172.575538 L444.748739,172.995465 L444.354699,173.415393 L443.96066,173.83532 L443.56662,174.255248 L443.17258,174.675175 L442.778541,175.095103 L442.384501,175.515031 L441.990462,175.934958 L441.596422,176.354886 L441.202383,176.774813 L440.808343,177.194741 L440.775931,177.231564 L440.743518,177.268387 L440.711106,177.30521 L440.678693,177.342033 L440.646281,177.378856 L440.613868,177.41568 L440.581456,177.452503 L440.549044,177.489326 L440.516631,177.526149 L440.484219,177.562972 L440.451806,177.599795 L440.419394,177.636618 L440.386982,177.673441 L440.354569,177.710264 L440.322157,177.747087 L440.289744,177.78391 L440.257332,177.820733 L440.224919,177.857556 L440.192507,177.89438 L440.160095,177.931203 L440.127682,177.968026 L440.09527,178.004849 L440.062857,178.041672 L440.030445,178.078495 L439.663637,178.522973 L439.296828,178.96745 L438.93002,179.411928 L438.563211,179.856406 L438.196403,180.300884 L437.829595,180.745361 L437.462786,181.189839 L437.095978,181.634317 L436.72917,182.078794 L436.362361,182.523272 L435.995553,182.96775 L435.628744,183.412228 L435.261936,183.856705 L434.895128,184.301183 L434.528319,184.745661 L434.161511,185.190138 L433.794703,185.634616 L433.427894,186.079094 L433.061086,186.523571 L432.694277,186.968049 L432.327469,187.412527 L431.960661,187.857005 L431.593852,188.301482 L431.227044,188.74596 L431.196964,188.784875 L431.166884,188.823789 L431.136804,188.862704 L431.106724,188.901619 L431.076644,188.940534 L431.046563,188.979448 L431.016483,189.018363 L430.986403,189.057278 L430.956323,189.096192 L430.926243,189.135107 L430.896163,189.174022 L430.866083,189.212937 L430.836003,189.251851 L430.805923,189.290766 L430.775843,189.329681 L430.745763,189.368595 L430.715683,189.40751 L430.685602,189.446425 L430.655522,189.485339 L430.625442,189.524254 L430.595362,189.563169 L430.565282,189.602084 L430.535202,189.640998 L430.505122,189.679913 L430.166885,190.1476 L429.828649,190.615287 L429.490412,191.082975 L429.152175,191.550662 L428.813939,192.018349 L428.475702,192.486037 L428.137465,192.953724 L427.799229,193.421411 L427.460992,193.889098 L427.122755,194.356786 L426.784519,194.824473 L426.446282,195.29216 L426.108045,195.759847 L425.769809,196.227534 L425.431572,196.695222 L425.093335,197.162909 L424.755099,197.630596 L424.416862,198.098283 L424.078625,198.565971 L423.740389,199.033658 L423.402152,199.501345 L423.063915,199.969032 L422.725679,200.43672 L422.387442,200.904407 L422.359794,200.945337 L422.332146,200.986267 L422.304498,201.027197 L422.27685,201.068127 L422.249202,201.109057 L422.221554,201.149987 L422.193906,201.190917 L422.166258,201.231847 L422.13861,201.272777 L422.110962,201.313707 L422.083314,201.354637 L422.055666,201.395567 L422.028017,201.436497 L422.000369,201.477427 L421.972721,201.518357 L421.945073,201.559287 L421.917425,201.600217 L421.889777,201.641147 L421.862129,201.682077 L421.834481,201.723007 L421.806833,201.763937 L421.779185,201.804867 L421.751537,201.845797 L421.723889,201.886727 L421.415565,202.376283 L421.10724,202.86584 L420.798916,203.355396 L420.490592,203.844952 L420.182268,204.334509 L419.873943,204.824065 L419.565619,205.313621 L419.257295,205.803178 L418.94897,206.292734 L418.640646,206.78229 L418.332322,207.271847 L418.023997,207.761403 L417.715673,208.250959 L417.407349,208.740516 L417.099025,209.230072 L416.7907,209.719628 L416.482376,210.209185 L416.174052,210.698741 L415.865727,211.188297 L415.557403,211.677854 L415.249079,212.16741 L414.940755,212.656966 L414.63243,213.146523 L414.324106,213.636079 L414.299003,213.67894 L414.273901,213.7218 L414.248798,213.764661 L414.223696,213.807522 L414.198593,213.850382 L414.173491,213.893243 L414.148388,213.936103 L414.123286,213.978964 L414.098183,214.021825 L414.073081,214.064685 L414.047978,214.107546 L414.022875,214.150407 L413.997773,214.193267 L413.97267,214.236128 L413.947568,214.278988 L413.922465,214.321849 L413.897363,214.36471 L413.87226,214.40757 L413.847158,214.450431 L413.822055,214.493291 L413.796953,214.536152 L413.77185,214.579013 L413.746748,214.621873 L413.721645,214.664734 L413.444574,215.174819 L413.167502,215.684904 L412.890431,216.194988 L412.613359,216.705073 L412.336288,217.215158 L412.059217,217.725243 L411.782145,218.235328 L411.505074,218.745412 L411.228002,219.255497 L410.950931,219.765582 L410.673859,220.275667 L410.396788,220.785752 L410.119717,221.295836 L409.842645,221.805921 L409.565574,222.316006 L409.288502,222.826091 L409.011431,223.336175 L408.734359,223.84626 L408.457288,224.356345 L408.180217,224.86643 L407.903145,225.376515 L407.626074,225.886599 L407.349002,226.396684 L407.071931,226.906769 L407.049501,226.95146 L407.027071,226.996151 L407.004642,227.040841 L406.982212,227.085532 L406.959782,227.130223 L406.937352,227.174914 L406.914922,227.219605 L406.892493,227.264295 L406.870063,227.308986 L406.847633,227.353677 L406.825203,227.398368 L406.802774,227.443059 L406.780344,227.487749 L406.757914,227.53244 L406.735484,227.577131 L406.713054,227.621822 L406.690625,227.666512 L406.668195,227.711203 L406.645765,227.755894 L406.623335,227.800585 L406.600905,227.845276 L406.578476,227.889966 L406.556046,227.934657 L406.533616,227.979348 L406.289138,228.508621 L406.04466,229.037894 L405.800182,229.567166 L405.555704,230.096439 L405.311226,230.625712 L405.066748,231.154985 L404.82227,231.684258 L404.577792,232.21353 L404.333314,232.742803 L404.088836,233.272076 L403.844358,233.801349 L403.59988,234.330622 L403.355403,234.859894 L403.110925,235.389167 L402.866447,235.91844 L402.621969,236.447713 L402.377491,236.976985 L402.133013,237.506258 L401.888535,238.035531 L401.644057,238.564804 L401.399579,239.094077 L401.155101,239.623349 L400.910623,240.152622 L400.666145,240.681895 L400.646527,240.728293 L400.626908,240.77469 L400.60729,240.821088 L400.587671,240.867485 L400.568053,240.913882 L400.548434,240.96028 L400.528816,241.006677 L400.509197,241.053075 L400.489579,241.099472 L400.46996,241.14587 L400.450342,241.192267 L400.430723,241.238665 L400.411105,241.285063 L400.391487,241.33146 L400.371868,241.377858 L400.35225,241.424255 L400.332631,241.470652 L400.313013,241.51705 L400.293394,241.563447 L400.273776,241.609845 L400.254157,241.656242 L400.234539,241.70264 L400.21492,241.749037 L400.195302,241.795435 L399.984758,242.342555 L399.774214,242.889675 L399.56367,243.436796 L399.353126,243.983916 L399.142582,244.531036 L398.932039,245.078156 L398.721495,245.625276 L398.510951,246.172397 L398.300407,246.719517 L398.089863,247.266637 L397.879319,247.813757 L397.668775,248.360878 L397.458231,248.907998 L397.247687,249.455118 L397.037143,250.002238 L396.826599,250.549358 L396.616055,251.096479 L396.405511,251.643599 L396.194968,252.190719 L395.984424,252.737839 L395.77388,253.284959 L395.563336,253.83208 L395.352792,254.3792 L395.142248,254.92632 L395.125586,254.974271 L395.108925,255.022221 L395.092264,255.070172 L395.075602,255.118122 L395.058941,255.166073 L395.042279,255.214023 L395.025618,255.261974 L395.008956,255.309925 L394.992295,255.357875 L394.975633,255.405826 L394.958972,255.453776 L394.94231,255.501727 L394.925648,255.549678 L394.908987,255.597628 L394.892325,255.645579 L394.875664,255.693529 L394.859002,255.74148 L394.842341,255.789431 L394.825679,255.837381 L394.809018,255.885332 L394.792356,255.933282 L394.775695,255.981233 L394.759033,256.029183 L394.742372,256.077134 L394.567103,256.640761 L394.391833,257.204388 L394.216564,257.768015 L394.041295,258.331642 L393.866025,258.89527 L393.690756,259.458897 L393.515487,260.022524 L393.340217,260.586151 L393.164948,261.149778 L392.989679,261.713405 L392.814409,262.277032 L392.63914,262.84066 L392.463871,263.404287 L392.288601,263.967914 L392.113332,264.531541 L391.938063,265.095168 L391.762793,265.658795 L391.587524,266.222422 L391.412255,266.786049 L391.236985,267.349676 L391.061716,267.913304 L390.886447,268.476931 L390.711177,269.040558 L390.535908,269.604185 L390.52235,269.653499 L390.508792,269.702813 L390.495233,269.752127 L390.481675,269.801442 L390.468117,269.850756 L390.454559,269.90007 L390.441,269.949384 L390.427442,269.998698 L390.413884,270.048012 L390.400326,270.097327 L390.386767,270.146641 L390.373209,270.195955 L390.359651,270.245269 L390.346092,270.294583 L390.332534,270.343898 L390.318976,270.393212 L390.305418,270.442526 L390.291859,270.49184 L390.278301,270.541154 L390.264743,270.590468 L390.251185,270.639783 L390.237626,270.689097 L390.224068,270.738411 L390.21051,270.787725 L390.071856,271.366519 L389.933202,271.945312 L389.794548,272.524106 L389.655893,273.102899 L389.517239,273.681692 L389.378585,274.260486 L389.239931,274.83928 L389.101277,275.418073 L388.962623,275.996867 L388.823968,276.57566 L388.685314,277.154453 L388.54666,277.733247 L388.408006,278.312041 L388.269352,278.890834 L388.130697,279.469628 L387.992043,280.048421 L387.853389,280.627214 L387.714735,281.206008 L387.576081,281.784802 L387.437427,282.363595 L387.298772,282.942388 L387.160118,283.521182 L387.021464,284.099975 L386.88281,284.678769 L386.872493,284.729217 L386.862177,284.779665 L386.85186,284.830113 L386.841543,284.880561 L386.831227,284.931009 L386.82091,284.981457 L386.810593,285.031905 L386.800277,285.082353 L386.78996,285.132801 L386.779643,285.183249 L386.769327,285.233697 L386.75901,285.284145 L386.748693,285.334593 L386.738377,285.385041 L386.72806,285.435489 L386.717743,285.485937 L386.707427,285.536385 L386.69711,285.586833 L386.686793,285.637281 L386.676477,285.687729 L386.66616,285.738177 L386.655843,285.788625 L386.645527,285.839073 L386.63521,285.889521 L386.534512,286.48214 L386.433813,287.07476 L386.333115,287.667379 L386.232416,288.259998 L386.131718,288.852618 L386.031019,289.445237 L385.930321,290.037857 L385.829622,290.630476 L385.728924,291.223095 L385.628225,291.815715 L385.527527,292.408334 L385.426828,293.000954 L385.32613,293.593573 L385.225432,294.186192 L385.124733,294.778812 L385.024035,295.371431 L384.923336,295.96405 L384.822638,296.55667 L384.721939,297.149289 L384.621241,297.741909 L384.520542,298.334528 L384.419844,298.927147 L384.319145,299.519767 L384.218447,300.112386 L384.211492,300.163696 L384.204538,300.215006 L384.197583,300.266317 L384.190628,300.317627 L384.183674,300.368937 L384.176719,300.420247 L384.169764,300.471557 L384.16281,300.522867 L384.155855,300.574178 L384.1489,300.625488 L384.141946,300.676798 L384.134991,300.728108 L384.128036,300.779418 L384.121082,300.830728 L384.114127,300.882039 L384.107172,300.933349 L384.100218,300.984659 L384.093263,301.035969 L384.086308,301.087279 L384.079354,301.138589 L384.072399,301.1899 L384.065444,301.24121 L384.05849,301.29252 L384.051535,301.34383 L383.990133,301.948935 L383.928731,302.554039 L383.867329,303.159144 L383.805926,303.764249 L383.744524,304.369353 L383.683122,304.974458 L383.62172,305.579563 L383.560318,306.184667 L383.498916,306.789772 L383.437514,307.394877 L383.376112,308 L383.314709,308.605086 L383.253307,309.210191 L383.191905,309.815295 L383.130503,310.4204 L383.069101,311.025505 L383.007699,311.630609 L382.946297,312.235714 L382.884895,312.840819 L382.823492,313.445923 L382.76209,314.051028 L382.700688,314.656133 L382.639286,315.261237 L382.577884,315.866342 L382.574383,315.918202 L382.570882,315.970062 L382.567381,316.021922 L382.56388,316.073783 L382.560379,316.125643 L382.556878,316.177503 L382.553377,316.229363 L382.549876,316.281223 L382.546375,316.333083 L382.542874,316.384944 L382.539373,316.436804 L382.535872,316.488664 L382.532372,316.540524 L382.528871,316.592384 L382.52537,316.644245 L382.521869,316.696105 L382.518368,316.747965 L382.514867,316.799825 L382.511366,316.851685 L382.507865,316.903545 L382.504364,316.955406 L382.500863,317.007266 L382.497362,317.059126 L382.493861,317.110986 L382.473096,317.727235 L382.45233,318.343485 L382.431565,318.959734 L382.4108,319.575984 L382.390035,320.192233 L382.369269,320.808483 L382.348504,321.424732 L382.327739,322.040982 L382.306973,322.657231 L382.286208,323.273481 L382.265443,323.88973 L382.244677,324.50598 L382.223912,325.122229 L382.203147,325.738478 L382.182382,326.354728 L382.161616,326.970977 L382.140851,327.587227 L382.120086,328.203476 L382.09932,328.819726 L382.078555,329.435975 L382.05779,330.052225 L382.037025,330.668474 L382.016259,331.284724 L381.995494,331.900973 L381.99673,331.977689 L381.997965,332.054406 L381.999201,332.131123 L382.000437,332.207839 L382.001672,332.284556 L382.002908,332.361272 L382.004144,332.437989 L382.005379,332.514705 L382.006615,332.591422 L382.007851,332.668138 L382.009086,332.744855 L382.010322,332.821571 L382.011558,332.898287 L382.012793,332.975004 L382.014029,333.05172 L382.015265,333.128437 L382.0165,333.205153 L382.017736,333.28187 L382.018972,333.358587 L382.020207,333.435303 L382.021443,333.51202 L382.022679,333.588736 L382.023914,333.665453 L382.02515,333.742169 L382.034006,333.818383 L382.042862,333.894596 L382.051719,333.97081 L382.060575,334.047024 L382.069431,334.123237 L382.078287,334.199451 L382.087143,334.275664 L382.096,334.351878 L382.104856,334.428092 L382.113712,334.504305 L382.122568,334.580519 L382.131424,334.656732 L382.140281,334.732946 L382.149137,334.80916 L382.157993,334.885373 L382.166849,334.961587 L382.175706,335.037801 L382.184562,335.114014 L382.193418,335.190228 L382.202274,335.266442 L382.21113,335.342655 L382.219987,335.418869 L382.228843,335.495082 L382.237699,335.571296 L382.254088,335.646252 L382.270477,335.721207 L382.286866,335.796163 L382.303255,335.871119 L382.319644,335.946074 L382.336033,336.02103 L382.352422,336.095985 L382.368811,336.170941 L382.3852,336.245897 L382.401589,336.320852 L382.417978,336.395808 L382.434368,336.470763 L382.450757,336.545719 L382.467146,336.620675 L382.483535,336.69563 L382.499924,336.770586 L382.516313,336.845542 L382.532702,336.920497 L382.549091,336.995453 L382.56548,337.070408 L382.581869,337.145364 L382.598258,337.22032 L382.614647,337.295275 L382.631036,337.370231 L382.654795,337.443186 L382.678555,337.516141 L382.702314,337.589096 L382.726074,337.662051 L382.749833,337.735006 L382.773593,337.807961 L382.797352,337.880916 L382.821111,337.953871 L382.844871,338.026826 L382.86863,338.099781 L382.89239,338.172736 L382.916149,338.245692 L382.939908,338.318647 L382.963668,338.391602 L382.987427,338.464557 L383.011187,338.537512 L383.034946,338.610467 L383.058705,338.683422 L383.082465,338.756377 L383.106224,338.829332 L383.129984,338.902287 L383.153743,338.975242 L383.177503,339.048197 L383.201262,339.121152 L383.232156,339.191384 L383.263051,339.261615 L383.293946,339.331847 L383.32484,339.402079 L383.355734,339.47231 L383.386629,339.542542 L383.417523,339.612773 L383.448418,339.683005 L383.479312,339.753237 L383.510207,339.823468 L383.541101,339.8937 L383.571996,339.963932 L383.602891,340.034163 L383.633785,340.104395 L383.664679,340.174626 L383.695574,340.244858 L383.726469,340.31509 L383.757363,340.385321 L383.788257,340.455553 L383.819152,340.525784 L383.850046,340.596016 L383.880941,340.666248 L383.911835,340.736479 L383.94273,340.806711 L383.980453,340.873523 L384.018177,340.940336 L384.0559,341.007148 L384.093624,341.07396 L384.131347,341.140773 L384.16907,341.207585 L384.206794,341.274398 L384.244517,341.34121 L384.282241,341.408022 L384.319964,341.474835 L384.357688,341.541647 L384.395411,341.608459 L384.433134,341.675272 L384.470858,341.742084 L384.508581,341.808897 L384.546305,341.875709 L384.584028,341.942521 L384.621752,342.009334 L384.659475,342.076146 L384.697198,342.142959 L384.734922,342.209771 L384.772645,342.276583 L384.810369,342.343396 L384.848092,342.410208 L384.892271,342.472939 L384.936449,342.53567 L384.980628,342.598402 L385.024806,342.661133 L385.068985,342.723864 L385.113164,342.786595 L385.157342,342.849326 L385.201521,342.912057 L385.245699,342.974788 L385.289878,343.03752 L385.334056,343.100251 L385.378235,343.162982 L385.422414,343.225713 L385.466592,343.288444 L385.510771,343.351176 L385.554949,343.413907 L385.599128,343.476638 L385.643306,343.539369 L385.687485,343.6021 L385.731664,343.664831 L385.775842,343.727562 L385.820021,343.790294 L385.864199,343.853025 L385.908378,343.915756 L385.958574,343.973784 L386.00877,344.031813 L386.058966,344.089841 L386.109162,344.14787 L386.159358,344.205898 L386.209555,344.263927 L386.259751,344.321955 L386.309947,344.379984 L386.360143,344.438012 L386.410339,344.496041 L386.460535,344.554069 L386.510731,344.612098 L386.560927,344.670126 L386.611123,344.728154 L386.661319,344.786183 L386.711515,344.844211 L386.761711,344.90224 L386.811908,344.960268 L386.862104,345.018297 L386.9123,345.076325 L386.962496,345.134354 L387.012692,345.192382 L387.062888,345.250411 L387.113084,345.308439 L387.1688,345.36119 L387.224516,345.413941 L387.280233,345.466691 L387.335949,345.519442 L387.391665,345.572193 L387.447382,345.624944 L387.503098,345.677695 L387.558814,345.730445 L387.61453,345.783196 L387.670247,345.835947 L387.725963,345.888698 L387.781679,345.941448 L387.837395,345.994199 L387.893111,346.04695 L387.948828,346.099701 L388.004544,346.152452 L388.06026,346.205202 L388.115976,346.257953 L388.171693,346.310704 L388.227409,346.363455 L388.283125,346.416206 L388.338842,346.468956 L388.394558,346.521707 L388.450274,346.574458 L388.510958,346.621409 L388.571643,346.668359 L388.632327,346.71531 L388.693012,346.76226 L388.753696,346.809211 L388.81438,346.856161 L388.875065,346.903112 L388.935749,346.950062 L388.996433,346.997013 L389.057118,347.043963 L389.117802,347.090914 L389.178486,347.137864 L389.239171,347.184815 L389.299855,347.231766 L389.36054,347.278716 L389.421224,347.325667 L389.481908,347.372617 L389.542593,347.419568 L389.603277,347.466518 L389.663962,347.513469 L389.724646,347.560419 L389.78533,347.60737 L389.846015,347.65432 L389.906699,347.701271 L389.97175,347.741956 L390.036802,347.782641 L390.101853,347.823326 L390.166904,347.864011 L390.231955,347.904696 L390.297007,347.945381 L390.362058,347.986067 L390.427109,348.026752 L390.492161,348.067437 L390.557212,348.108122 L390.622263,348.148807 L390.687315,348.189492 L390.752366,348.230177 L390.817417,348.270862 L390.882468,348.311547 L390.94752,348.352232 L391.012571,348.392917 L391.077622,348.433603 L391.142674,348.474288 L391.207725,348.514973 L391.272776,348.555658 L391.337827,348.596343 L391.402879,348.637028 L391.46793,348.677713 L391.536704,348.71173 L391.605477,348.745746 L391.674251,348.779763 L391.743025,348.813779 L391.811799,348.847796 L391.880572,348.881812 L391.949346,348.915829 L392.01812,348.949846 L392.086893,348.983862 L392.155667,349.017879 L392.224441,349.051895 L392.293214,349.085912 L392.361988,349.119929 L392.430762,349.153945 L392.499536,349.187962 L392.568309,349.221978 L392.637083,349.255995 L392.705857,349.290011 L392.77463,349.324028 L392.843404,349.358045 L392.912178,349.392061 L392.980952,349.426078 L393.049725,349.460094 L393.118499,349.494111 L393.190314,349.521122 L393.262128,349.548133 L393.333943,349.575144 L393.405758,349.602155 L393.477573,349.629166 L393.549387,349.656177 L393.621202,349.683188 L393.693017,349.710199 L393.764831,349.73721 L393.836646,349.764221 L393.908461,349.791232 L393.980276,349.818243 L394.05209,349.845254 L394.123905,349.872265 L394.19572,349.899276 L394.267534,349.926287 L394.339349,349.953298 L394.411164,349.980309 L394.482978,350.00732 L394.554793,350.034331 L394.626608,350.061342 L394.698423,350.088353 L394.770237,350.115364 L394.842052,350.142375 L394.916196,350.162113 L394.990341,350.181851 L395.064485,350.201589 L395.138629,350.221326 L395.212773,350.241064 L395.286918,350.260802 L395.361062,350.28054 L395.435206,350.300278 L395.50935,350.320016 L395.583495,350.339753 L395.657639,350.359491 L395.731783,350.379229 L395.805927,350.398967 L395.880071,350.418705 L395.954216,350.438443 L396.02836,350.45818 L396.102504,350.477918 L396.176648,350.497656 L396.250793,350.517394 L396.324937,350.537132 L396.399081,350.55687 L396.473226,350.576607 L396.54737,350.596345 L396.621514,350.616083 L396.697253,350.628352 L396.772992,350.640621 L396.848731,350.65289 L396.92447,350.66516 L397.00021,350.677429 L397.075949,350.689698 L397.151688,350.701967 L397.227427,350.714236 L397.303166,350.726505 L397.378905,350.738774 L397.454644,350.751043 L397.530383,350.763312 L397.606123,350.775582 L397.681862,350.787851 L397.757601,350.80012 L397.83334,350.812389 L397.909079,350.824658 L397.984818,350.836927 L398.060557,350.849196 L398.136297,350.861466 L398.212036,350.873735 L398.287775,350.886004 L398.363514,350.898273 L398.439253,350.910542 L398.515837,350.915221 L398.59242,350.9199 L398.669004,350.924578 L398.745588,350.929257 L398.822171,350.933936 L398.898755,350.938615 L398.975339,350.943294 L399.051922,350.947973 L399.128506,350.952652 L399.20509,350.95733 L399.281673,350.962009 L399.358257,350.966688 L399.434841,350.971367 L399.511424,350.976046 L399.588008,350.980725 L399.664592,350.985403 L399.741175,350.990082 L399.817759,350.994761 L399.894343,350.99944 L399.970926,351.004119 L400.04751,351.008798 L400.124094,351.013476 L400.200677,351.018155 L400.277261,351.022834 L400.35393,351.019876 L400.4306,351.016918 L400.507269,351.01396 L400.583939,351.011003 L400.660608,351.008045 L400.737278,351.005087 L400.813947,351.002129 L400.890616,350.999171 L400.967286,350.996214 L401.043955,350.993256 L401.120625,350.990298 L401.197294,350.98734 L401.273963,350.984382 L401.350633,350.981424 L401.427302,350.978466 L401.503972,350.975509 L401.580641,350.972551 L401.65731,350.969593 L401.73398,350.966635 L401.810649,350.963677 L401.887319,350.960719 L401.963988,350.957762 L402.040658,350.954804 L402.117327,350.951846 L402.193323,350.941281 L402.269318,350.930716 L402.345314,350.92015 L402.421309,350.909585 L402.497305,350.89902 L402.5733,350.888455 L402.649296,350.87789 L402.725291,350.867325 L402.801287,350.85676 L402.877282,350.846194 L402.953278,350.835629 L403.029273,350.825064 L403.105269,350.814499 L403.181265,350.803934 L403.25726,350.793368 L403.333256,350.782803 L403.409251,350.772238 L403.485247,350.761673 L403.561242,350.751108 L403.637238,350.740543 L403.713233,350.729978 L403.789229,350.719412 L403.865224,350.708847 L403.94122,350.698282 L404.015789,350.680214 L404.090358,350.662146 L404.164926,350.644079 L404.239495,350.626011 L404.314064,350.607943 L404.388633,350.589875 L404.463202,350.571807 L404.53777,350.55374 L404.612339,350.535672 L404.686908,350.517604 L404.761477,350.499536 L404.836045,350.481469 L404.910614,350.463401 L404.985183,350.445333 L405.059752,350.427265 L405.134321,350.409197 L405.208889,350.39113 L405.283458,350.373062 L405.358027,350.354994 L405.432596,350.336926 L405.507165,350.318858 L405.581733,350.300791 L405.656302,350.282723 L405.730871,350.264655 L405.803274,350.239264 L405.875677,350.213872 L405.948081,350.188481 L406.020484,350.163089 L406.092887,350.137698 L406.16529,350.112306 L406.237693,350.086915 L406.310097,350.061523 L406.3825,350.036132 L406.454903,350.01074 L406.527306,349.985349 L406.59971,349.959957 L406.672113,349.934566 L406.744516,349.909175 L406.816919,349.883783 L406.889322,349.858392 L406.961726,349.833 L407.034129,349.807609 L407.106532,349.782217 L407.178935,349.756826 L407.251338,349.731434 L407.323742,349.706043 L407.396145,349.680651 L407.468548,349.65526 L407.538068,349.622796 L407.607589,349.590333 L407.677109,349.557869 L407.746629,349.525406 L407.816149,349.492942 L407.88567,349.460479 L407.95519,349.428015 L408.02471,349.395552 L408.09423,349.363088 L408.16375,349.330625 L408.233271,349.298161 L408.302791,349.265697 L408.372311,349.233234 L408.441832,349.20077 L408.511352,349.168307 L408.580872,349.135843 L408.650392,349.10338 L408.719913,349.070916 L408.789433,349.038453 L408.858953,349.005989 L408.928473,348.973526 L408.997994,348.941062 L409.067514,348.908599 L409.137034,348.876135 L409.202983,348.836921 L409.268931,348.797707 L409.33488,348.758493 L409.400828,348.719279 L409.466777,348.680065 L409.532725,348.640851 L409.598674,348.601637 L409.664622,348.562423 L409.730571,348.523209 L409.796519,348.483995 L409.862468,348.444781 L409.928417,348.405567 L409.994365,348.366353 L410.060314,348.327139 L410.126262,348.287925 L410.192211,348.248711 L410.258159,348.209497 L410.324108,348.170283 L410.390056,348.131069 L410.456005,348.091855 L410.521953,348.052641 L410.587902,348.013427 L410.65385,347.974213 L410.719799,347.934999 L410.781522,347.889423 L410.843246,347.843847 L410.904969,347.798271 L410.966693,347.752695 L411.028416,347.707119 L411.09014,347.661543 L411.151863,347.615968 L411.213587,347.570392 L411.27531,347.524816 L411.337034,347.47924 L411.398757,347.433664 L411.460481,347.388088 L411.522204,347.342512 L411.583927,347.296936 L411.645651,347.25136 L411.707374,347.205784 L411.769098,347.160208 L411.830821,347.114633 L411.892545,347.069057 L411.954268,347.023481 L412.015992,346.977905 L412.077715,346.932329 L412.139439,346.886753 L412.201162,346.841177 L412.258049,346.789691 L412.314936,346.738204 L412.371822,346.686718 L412.428709,346.635232 L412.485596,346.583746 L412.542483,346.532259 L412.59937,346.480773 L412.656256,346.429287 L412.713143,346.3778 L412.77003,346.326314 L412.826917,346.274828 L412.883803,346.223342 L412.94069,346.171855 L412.997577,346.120369 L413.054464,346.068883 L413.111351,346.017396 L413.168237,345.96591 L413.225124,345.914424 L413.282011,345.862937 L413.338898,345.811451 L413.395785,345.759965 L413.452671,345.708479 L413.509558,345.656992 L413.566445,345.605506 L422.567278,336.604714 Z" fill="#121212"/>
  <path d="M387.404525,319.442525 L270.899525,435.947525 L269.664172,437.312412 L268.570587,438.793319 L267.629598,440.375581 L266.850524,442.04353 L266.241078,443.780651 L265.807296,445.569742 L265.553472,447.393087 L265.482121,449.232631 L265.593948,451.070158 L265.887847,452.887474 L266.360907,454.666582 L267.008444,456.389867 L267.824046,458.040263 L268.799637,459.601427 L269.925556,461.057902 L271.190654,462.395265 L272.582404,463.600274 L274.087025,464.660995 L275.689617,465.566925 L277.374313,466.309095 L279.124428,466.880154 L280.922634,467.274449 L282.751124,467.488074 L284.591793,467.518914 L292.593814,467.254577 L293.816585,467.173574 L301.670022,466.391357 L302.883859,466.229728 L310.571651,464.945822 L311.76943,464.704884 L319.274513,462.935484 L320.449821,462.617223 L327.755133,460.378521 L328.902314,459.985399 L335.990794,457.293588 L337.10494,456.828352 L343.959524,453.699624 L345.036413,453.165144 L351.640038,449.615692 L352.676035,449.014833 L359.011639,445.060849 L360.003572,444.396382 L366.054093,440.05406 L366.999122,439.328616 L372.747497,434.614149 L373.642978,433.830219 L379.072144,428.759798 L379.915506,427.919765 L385.008402,422.509583 L385.79704,421.61579 L390.536603,415.882041 L391.267798,414.936893 L395.636965,408.895769 L396.307839,407.901853 L400.289548,401.569547 L400.897054,400.529768 L404.474241,393.922472 L405.015195,392.840191 L408.170799,385.974098 L408.641954,384.853268 L411.358912,377.744571 L411.757084,376.589844 L414.018334,369.254735 L414.340554,368.071548 L416.129034,360.526221 L416.372743,359.320825 L417.671389,351.581472 L417.834639,350.360905 L418.626389,342.443718 L418.708053,341.215717 L418.975845,333.136889 L418.945207,331.29613 L418.731766,329.46753 L418.337636,327.669199 L417.766719,325.918945 L417.024669,324.234102 L416.118836,322.631354 L415.058189,321.126574 L413.853232,319.734664 L412.515898,318.469408 L411.059431,317.343336 L409.498255,316.3676 L407.847829,315.551862 L406.124498,314.9042 L404.345329,314.431029 L402.52794,314.137035 L400.69033,314.025128 L398.850696,314.096418 L397.027257,314.350198 L395.23807,314.783954 L393.500854,315.393392 L391.832812,316.172476 L390.250464,317.11349 L388.769479,318.207117 Z" fill="#121212"/>
  <path d="M270.899468,229.100419 L387.403468,345.605419 L388.768353,346.840779 L390.249257,347.934372 L391.831518,348.875368 L393.499467,349.65445 L395.236588,350.263903 L397.02568,350.697693 L398.849027,350.951523 L400.688574,351.02288 L402.526104,350.911058 L404.343424,350.617164 L406.122536,350.144107 L407.845825,349.496574 L409.496225,348.680974 L411.057394,347.705386 L412.513874,346.579468 L413.851242,345.314371 L415.056254,343.922621 L416.116979,342.417999 L417.022914,340.815406 L417.765087,339.130709 L418.336149,337.380592 L418.730446,335.582383 L418.944073,333.75389 L418.974915,331.913219 L418.710582,323.911193 L418.629583,322.688447 L417.84738,314.834996 L417.685758,313.621184 L416.401876,305.93337 L416.160947,304.735615 L414.391578,297.230503 L414.07333,296.055217 L411.834666,288.749871 L411.441559,287.602707 L408.749791,280.51419 L408.284571,279.400057 L405.155892,272.545433 L404.621428,271.468551 L401.072029,264.864885 L400.471184,263.828891 L396.517258,257.493245 L395.852802,256.50131 L391.51054,250.450749 L390.785105,249.505712 L386.070699,243.757299 L385.286773,242.861806 L380.216415,237.432605 L379.37638,236.589227 L373.966261,231.496303 L373.07246,230.707645 L367.338772,225.968061 L366.39361,225.236844 L360.352546,220.867663 L359.358609,220.196767 L353.02636,216.215054 L351.986554,215.607526 L345.379311,212.030344 L344.296997,211.489372 L337.430953,208.333785 L336.310083,207.862614 L329.20143,205.145685 L328.046659,204.747502 L320.711589,202.486297 L319.528355,202.16407 L311.983059,200.375651 L310.777614,200.131942 L303.038284,198.833373 L301.817669,198.670129 L293.900497,197.878474 L292.672449,197.796823 L284.593627,197.529146 L282.752882,197.559809 L280.924299,197.773272 L279.125987,198.167422 L277.375753,198.738354 L275.690931,199.480416 L274.088205,200.386259 L272.583446,201.446911 L271.191557,202.651871 L269.926321,203.989204 L268.800268,205.445667 L267.824548,207.006838 L267.008825,208.657255 L266.361177,210.380576 L265.888016,212.159733 L265.59403,213.977109 L265.482128,215.814705 L265.55342,217.654324 L265.807199,219.477749 L266.240952,221.266922 L266.850383,223.004125 L267.629459,224.672155 L268.570462,226.254493 L269.664075,227.73547 Z" fill="#121212"/>
  <path d="M366.326987,496.903877 L376.730185,491.308889 L386.712203,485.076578 L396.246023,478.232549 L405.304628,470.802405 L413.861,462.81175 L421.888122,454.286189 L429.358977,445.251326 L436.246547,435.732766 L442.523815,425.756111 L448.163763,415.346967 L453.139375,404.530937 L457.423633,393.333627 L460.989519,381.780639 L463.810016,369.897578 L465.858106,357.710049 L467.106774,345.243655 L467.529,332.524 L467.529,332.524 L467.865175,322.353608 L468.859482,312.387949 L470.490596,302.647297 L472.73719,293.151926 L475.577938,283.922111 L478.991516,274.978125 L482.956595,266.340244 L487.451852,258.028741 L492.455959,250.063891 L497.947591,242.465968 L500,239.981951 L500,188.303115 L492.753934,194.246499 L484.1975,202.237125 L476.170316,210.762652 L468.699399,219.797475 L461.81177,229.31599 L455.534444,239.292593 L449.894442,249.701678 L444.918781,260.517641 L440.63448,271.714877 L437.068556,283.267782 L434.248027,295.150752 L432.199913,307.338181 L430.951231,319.804465 L430.529,332.524 L430.529,332.524 L430.192825,342.694512 L429.198519,352.660281 L427.567406,362.401033 L425.320815,371.896495 L422.480071,381.126393 L419.0665,390.070453 L415.101429,398.708401 L410.606185,407.019963 L405.602094,414.984865 L400.110481,422.582834 L394.152675,429.793595 L387.75,436.596875 L380.923784,442.9724 L373.695352,448.899895 L366.086031,454.359088 L358.117148,459.329704 L349.810029,463.791469 L341.186,467.724109 L332.266388,471.107351 L323.072519,473.920921 L313.625719,476.144545 L303.947315,477.757948 L294.058633,478.740858 L283.981,479.073 L283.981,479.073 L273.810488,478.736825 L263.844719,477.742518 L254.103967,476.111404 L244.608505,473.86481 L235.378607,471.024062 L226.434547,467.610484 L217.796599,463.645405 L209.485037,459.150148 L201.520135,454.146041 L193.922166,448.654409 L186.711405,442.696578 L179.908125,436.293875 L173.5326,429.467625 L167.605105,422.239153 L162.145912,414.629787 L157.175296,406.660852 L152.713531,398.353674 L148.780891,389.729578 L145.397649,380.809892 L142.584079,371.61594 L140.360455,362.169049 L138.747052,352.490545 L137.764142,342.601753 L137.432,332.524 L137.432,332.524 L137.768175,322.353608 L138.762482,312.387949 L140.393596,302.647297 L142.64019,293.151926 L145.480938,283.922111 L148.894516,274.978125 L152.859595,266.340244 L157.354852,258.028741 L162.358959,250.063891 L167.850591,242.465968 L173.808422,235.255246 L180.211125,228.452 L187.037375,222.076504 L194.265847,216.149032 L201.875213,210.689859 L209.844148,205.719259 L218.151326,201.257506 L226.775422,197.324875 L235.695108,193.941639 L244.88906,191.128074 L254.335951,188.904453 L264.014455,187.291051 L273.903247,186.308142 L283.981,185.976 L283.981,185.976 L296.742672,185.553678 L309.26919,184.304007 L321.533182,182.25293 L333.507273,179.426389 L345.164092,175.850328 L356.476266,171.550688 L367.416421,166.553413 L377.957185,160.884446 L388.071186,154.569728 L397.731049,147.635204 L406.909403,140.106815 L415.578875,132.010504 L423.712092,123.372215 L431.28168,114.217889 L438.260268,104.573469 L444.620481,94.464899 L450.334949,83.918121 L455.376297,72.959077 L459.717153,61.613711 L463.330144,49.907965 L466.187896,37.867781 L468.263039,25.519103 L469.528198,12.887874 L469.956,0 L469.956,0 L468.414333,0 L466.872667,0 L465.331,0 L463.789333,0 L462.247667,0 L460.706,0 L459.164333,0 L457.622667,0 L456.081,0 L454.539333,0 L452.997667,0 L451.456,0 L449.914333,0 L448.372667,0 L446.831,0 L445.289333,0 L443.747667,0 L442.206,0 L440.664333,0 L439.122667,0 L437.581,0 L436.039333,0 L434.497667,0 L432.956,0 L432.614249,10.338768 L431.603451,20.469412 L429.945287,30.371345 L427.66144,40.023954 L424.773591,49.406629 L421.303422,58.498757 L417.272615,67.279727 L412.702852,75.728926 L407.615814,83.825742 L402.033185,91.549565 L395.976644,98.87978 L389.467875,105.795778 L382.528559,112.276946 L375.180378,118.302671 L367.445014,123.852343 L359.344148,128.905349 L350.899463,133.441077 L342.132641,137.438916 L333.065362,140.878253 L323.71931,143.738477 L314.116166,145.998975 L304.277612,147.639137 L294.225329,148.638349 L283.981,148.976 L283.981,148.976 L271.386019,149.392811 L259.023087,150.626173 L246.919223,152.650482 L235.101444,155.440134 L223.59677,158.969524 L212.432219,163.213047 L201.634808,168.145098 L191.231556,173.740074 L181.24948,179.972369 L171.715601,186.816379 L162.656934,194.246499 L154.1005,202.237125 L146.073316,210.762652 L138.602399,219.797475 L131.71477,229.31599 L125.437444,239.292593 L119.797442,249.701678 L114.821781,260.517641 L110.53748,271.714877 L106.971556,283.267782 L104.151027,295.150752 L102.102913,307.338181 L100.854231,319.804465 L100.432,332.524 L100.432,332.524 L100.848811,345.118981 L102.082174,357.481913 L104.106484,369.585777 L106.896139,381.403556 L110.425533,392.90823 L114.669063,404.072781 L119.601123,414.870192 L125.196111,425.273444 L131.428422,435.25552 L138.272451,444.789399 L145.702595,453.848066 L153.69325,462.4045 L162.218811,470.431684 L171.253674,477.902601 L180.772234,484.79023 L190.748889,491.067556 L201.158033,496.707558 L208.315103,500 L359.548894,500 Z M231.435667,0 L229.894,0 L228.352333,0 L226.810667,0 L225.269,0 L223.727333,0 L222.185667,0 L220.644,0 L219.102333,0 L217.560667,0 L216.019,0 L214.477333,0 L212.935667,0 L211.394,0 L209.852333,0 L208.310667,0 L206.769,0 L205.227333,0 L203.685667,0 L202.144,0 L200.602333,0 L199.060667,0 L197.519,0 L197.519,0 L197.715534,5.926571 L198.29706,11.744893 L199.251469,17.442188 L200.566648,23.005657 L202.230487,28.422501 L204.230875,33.679922 L206.5557,38.765119 L209.192852,43.665295 L212.130219,48.367651 L215.35569,52.859386 L218.857154,57.127703 L222.6225,61.159803 L226.639617,64.942886 L230.896394,68.464153 L235.380719,71.710806 L240.080481,74.670045 L244.983571,77.329072 L250.077875,79.675088 L255.351284,81.695293 L260.791685,83.376889 L266.386969,84.707077 L272.125023,85.673057 L277.993737,86.262031 L283.981,86.4612 L283.981,86.4612 L289.907528,86.264669 L295.72583,85.683152 L301.423107,84.728758 L306.98656,83.413598 L312.40339,81.749782 L317.660797,79.749423 L322.745983,77.42463 L327.646148,74.787513 L332.348494,71.850185 L336.840222,68.624755 L341.108532,65.123334 L345.140625,61.358033 L348.923703,57.340962 L352.444966,53.084233 L355.691615,48.599955 L358.650852,43.90024 L361.309877,38.997199 L363.655891,33.902941 L365.676095,28.629579 L367.35769,23.189221 L368.687877,17.59398 L369.653857,11.855966 L370.242831,5.987289 L370.442,0 L368.900333,0 L367.358667,0 L365.817,0 L364.275333,0 L362.733667,0 L361.192,0 L359.650333,0 L358.108667,0 L356.567,0 L355.025333,0 L353.483667,0 L351.942,0 L350.400333,0 L348.858667,0 L347.317,0 L345.775333,0 L344.233667,0 L342.692,0 L341.150333,0 L339.608667,0 L338.067,0 L336.525333,0 L334.983667,0 L333.442,0 L333.442,0 L333.328883,3.438127 L332.994269,6.80617 L332.445268,10.0974 L331.688986,13.305038 L330.732533,16.422301 L329.583016,19.442411 L328.247543,22.358585 L326.733222,25.164045 L325.047162,27.852008 L323.19647,30.415696 L321.188255,32.848326 L319.029625,35.143119 L316.727687,37.293294 L314.28955,39.29207 L311.722322,41.132668 L309.033111,42.808306 L306.229025,44.312203 L303.317172,45.63758 L300.30466,46.777656 L297.198597,47.725651 L294.006092,48.474783 L290.734252,49.018272 L287.390185,49.349338 L283.981,49.4612 L283.981,49.4612 L280.54288,49.348084 L277.174791,49.013475 L273.883514,48.46448 L270.675829,47.708206 L267.558517,46.751762 L264.538359,45.602255 L261.622137,44.266793 L258.81663,42.752483 L256.128619,41.066432 L253.564886,39.21575 L251.132211,37.207542 L248.837375,35.048917 L246.687159,32.746982 L244.688343,30.308845 L242.847709,27.741613 L241.172037,25.052395 L239.668108,22.248297 L238.342703,19.336428 L237.202603,16.323895 L236.254588,13.217805 L235.505439,10.025266 L234.961938,6.753386 L234.630865,3.409273 L234.519,0 L232.977333,0 Z" fill="#121212" fill-rule="evenodd"/>
</svg>
