<svg xmlns="http://www.w3.org/2000/svg" viewBox="0 125 125 125" width="200" height="200">
  <rect x="0" y="125" width="125" height="125" fill="#F3F3F3"/>
  <path d="M81.042548,345.605503 L297.062448,129.586503 L298.298127,128.221222 L299.391957,126.739862 L300.333101,125.157098 L301.112233,123.488612 L301.721636,121.750935 L302.15527,119.961283 L302.408841,118.137388 L302.479834,116.297319 L302.367548,114.459308 L302.073094,112.641565 L301.59939,110.862099 L300.951129,109.138542 L300.134735,107.487968 L299.158294,105.926733 L298.031483,104.470303 L296.765464,103.133108 L295.372781,101.928398 L293.867232,100.868107 L292.263734,99.962742 L290.578174,99.221271 L288.827251,98.651041 L287.028313,98.257702 L285.199183,98.045151 L283.357985,98.015493 L268.567878,98.513855 L267.323255,98.597876 L252.800635,100.071513 L251.569208,100.238419 L237.346245,102.655159 L236.135507,102.902752 L222.244375,106.230421 L221.060846,106.555811 L207.533716,110.762237 L206.382909,111.162104 L193.251954,116.215115 L192.138417,116.68595 L179.435809,122.553372 L178.36323,123.09168 L166.121141,129.74134 L165.092483,130.343794 L153.343085,137.743521 L152.360761,138.40707 L141.136226,146.52469 L140.202267,147.246609 L129.534769,156.049949 L128.651007,156.827846 L118.572716,166.284734 L117.740941,167.116507 L108.284031,177.19477 L107.506131,178.07853 L98.702774,188.745995 L97.980851,189.679953 L89.863218,200.904448 L89.199665,201.886772 L81.799929,213.636124 L81.197471,214.664782 L74.547804,226.906817 L74.009492,227.979397 L68.142066,240.681944 L67.671227,241.795483 L62.618215,254.926368 L62.218344,256.077179 L58.011918,269.60423 L57.686524,270.787764 L54.358856,284.678808 L54.111259,285.889551 L51.694521,300.112416 L51.527612,301.34385 L50.053976,315.866362 L49.969955,317.110993 L49.471594,331.90098 L49.50125,333.742176 L49.7138,335.571303 L50.107137,337.370238 L50.677365,339.121158 L51.418833,340.806717 L52.324195,342.410213 L53.384482,343.915761 L54.589188,345.308443 L55.926379,346.574462 L57.382804,347.701274 L58.944035,348.677716 L60.594604,349.494113 L62.318158,350.142377 L64.097619,350.616084 L65.915358,350.910542 L67.753366,351.022834 L69.593432,350.951846 L71.417325,350.698281 L73.206976,350.264654 L74.944652,349.655258 L76.613138,348.876133 L78.195903,347.934996 L79.677265,346.841174 Z M93.275844,281.046465 L93.525431,280.004589 L97.36854,267.645896 L101.985443,255.648296 L107.347495,244.039846 L113.425954,232.849406 L120.19185,222.106471 L127.615907,211.841004 L135.668516,202.083259 L144.31975,192.863608 L153.539426,184.212395 L163.297203,176.159801 L173.562709,168.735754 L184.305691,161.969864 L195.496186,155.891409 L207.104698,150.529357 L219.102372,145.912453 L231.461147,142.069341 L232.503168,141.819721 Z" fill="#121212"/>
  <path d="M91.894205,0.874882 L84.916051,7.853048 L77.937896,14.831214 L70.959742,21.80938 L63.981588,28.787546 L57.003434,35.765713 L50.02528,42.743879 L43.047125,49.722045 L36.068971,56.700211 L29.090817,63.678377 L22.112663,70.656543 L15.134509,77.634709 L8.156355,84.612875 L1.178201,91.591041 L0,92.769244 L0,179.667509 L0.33386,179.588799 L0.33386,179.588799 L0.382831,179.575538 L0.431802,179.562278 L0.480773,179.549017 L0.529744,179.535756 L0.578715,179.522495 L0.627686,179.509235 L0.676657,179.495974 L0.725628,179.482713 L0.774599,179.469453 L0.82357,179.456192 L0.872541,179.442931 L0.921512,179.42967 L0.970482,179.41641 L1.019453,179.403149 L1.068424,179.389888 L1.117395,179.376628 L1.166366,179.363367 L1.215337,179.350106 L1.264308,179.336846 L1.313279,179.323585 L1.36225,179.310324 L1.411221,179.297063 L1.460192,179.283803 L1.509163,179.270542 L1.946724,179.136453 L2.384286,179.002364 L2.821847,178.868275 L3.259408,178.734186 L3.696969,178.600097 L4.134531,178.466008 L4.572092,178.331919 L5.009653,178.19783 L5.447215,178.063741 L5.884776,177.929652 L6.322337,177.795563 L6.759898,177.661474 L7.19746,177.527385 L7.635021,177.393296 L8.072582,177.259207 L8.510144,177.125118 L8.947705,176.991029 L9.385266,176.85694 L9.822828,176.722851 L10.260389,176.588762 L10.69795,176.454673 L11.135511,176.320584 L11.573073,176.186495 L12.010634,176.052406 L12.058433,176.036026 L12.106232,176.019646 L12.154031,176.003266 L12.20183,175.986886 L12.24963,175.970506 L12.297429,175.954127 L12.345228,175.937747 L12.393027,175.921367 L12.440826,175.904987 L12.488625,175.888607 L12.536424,175.872227 L12.584224,175.855847 L12.632023,175.839467 L12.679822,175.823087 L12.727621,175.806707 L12.77542,175.790327 L12.823219,175.773947 L12.871018,175.757567 L12.918817,175.741188 L12.966617,175.724808 L13.014416,175.708428 L13.062215,175.692048 L13.110014,175.675668 L13.157813,175.659288 L13.582386,175.49806 L14.00696,175.336831 L14.431533,175.175603 L14.856107,175.014375 L15.28068,174.853146 L15.705254,174.691918 L16.129827,174.530689 L16.554401,174.369461 L16.978974,174.208233 L17.403548,174.047004 L17.828121,173.885776 L18.252695,173.724547 L18.677268,173.563319 L19.101841,173.402091 L19.526415,173.240862 L19.950988,173.079634 L20.375562,172.918406 L20.800135,172.757177 L21.224709,172.595949 L21.649282,172.43472 L22.073856,172.273492 L22.498429,172.112264 L22.923003,171.951035 L23.347576,171.789807 L23.393999,171.770422 L23.440422,171.751038 L23.486845,171.731653 L23.533267,171.712268 L23.57969,171.692883 L23.626113,171.673499 L23.672536,171.654114 L23.718959,171.634729 L23.765382,171.615345 L23.811804,171.59596 L23.858227,171.576575 L23.90465,171.55719 L23.951073,171.537806 L23.997496,171.518421 L24.043919,171.499036 L24.090341,171.479652 L24.136764,171.460267 L24.183187,171.440882 L24.22961,171.421498 L24.276033,171.402113 L24.322456,171.382728 L24.368878,171.363343 L24.415301,171.343959 L24.461724,171.324574 L24.872288,171.137176 L25.282851,170.949778 L25.693415,170.76238 L26.103979,170.574983 L26.514542,170.387585 L26.925106,170.200187 L27.335669,170.012789 L27.746233,169.825391 L28.156797,169.637993 L28.56736,169.450595 L28.977924,169.263197 L29.388488,169.0758 L29.799051,168.888402 L30.209615,168.701004 L30.620178,168.513606 L31.030742,168.326208 L31.441306,168.13881 L31.851869,167.951412 L32.262433,167.764014 L32.672997,167.576617 L33.08356,167.389219 L33.494124,167.201821 L33.904687,167.014423 L34.315251,166.827025 L34.360122,166.804755 L34.404992,166.782485 L34.449863,166.760215 L34.494733,166.737945 L34.539604,166.715675 L34.584474,166.693405 L34.629345,166.671136 L34.674215,166.648866 L34.719086,166.626596 L34.763956,166.604326 L34.808827,166.582056 L34.853698,166.559786 L34.898568,166.537516 L34.943439,166.515246 L34.988309,166.492976 L35.03318,166.470706 L35.07805,166.448436 L35.122921,166.426167 L35.167791,166.403897 L35.212662,166.381627 L35.257532,166.359357 L35.302403,166.337087 L35.347273,166.314817 L35.392144,166.292547 L35.787676,166.079949 L36.183208,165.867352 L36.578739,165.654755 L36.974271,165.442157 L37.369803,165.229559 L37.765335,165.016962 L38.160867,164.804365 L38.556398,164.591767 L38.95193,164.379169 L39.347462,164.166572 L39.742994,163.953975 L40.138526,163.741377 L40.534057,163.528779 L40.929589,163.316182 L41.325121,163.103585 L41.720653,162.890987 L42.116184,162.678389 L42.511716,162.465792 L42.907248,162.253195 L43.30278,162.040597 L43.698312,161.827999 L44.093843,161.615402 L44.489375,161.402805 L44.884907,161.190207 L44.928074,161.165171 L44.971241,161.140135 L45.014407,161.115099 L45.057574,161.090064 L45.100741,161.065028 L45.143908,161.039992 L45.187075,161.014956 L45.230241,160.98992 L45.273408,160.964884 L45.316575,160.939849 L45.359742,160.914813 L45.402908,160.889777 L45.446075,160.864741 L45.489242,160.839705 L45.532409,160.81467 L45.575576,160.789634 L45.618742,160.764598 L45.661909,160.739562 L45.705076,160.714526 L45.748243,160.68949 L45.79141,160.664455 L45.834576,160.639419 L45.877743,160.614383 L45.92091,160.589347 L46.300388,160.35252 L46.679866,160.115693 L47.059344,159.878865 L47.438822,159.642038 L47.8183,159.405211 L48.197778,159.168384 L48.577256,158.931557 L48.956734,158.694729 L49.336212,158.457902 L49.71569,158.221075 L50.095168,157.984248 L50.474646,157.747421 L50.854124,157.510593 L51.233602,157.273766 L51.61308,157.036939 L51.992558,156.800112 L52.372036,156.563284 L52.751514,156.326457 L53.130992,156.08963 L53.51047,155.852803 L53.889948,155.615976 L54.269426,155.379148 L54.648904,155.142321 L55.028382,154.905494 L55.069713,154.877808 L55.111044,154.850122 L55.152375,154.822435 L55.193705,154.794749 L55.235036,154.767063 L55.276367,154.739376 L55.317698,154.71169 L55.359029,154.684004 L55.40036,154.656318 L55.44169,154.628632 L55.483021,154.600945 L55.524352,154.573259 L55.565683,154.545573 L55.607014,154.517887 L55.648345,154.4902 L55.689675,154.462514 L55.731006,154.434828 L55.772337,154.407142 L55.813668,154.379455 L55.854999,154.351769 L55.89633,154.324083 L55.93766,154.296397 L55.978991,154.26871 L56.020322,154.241024 L56.382724,153.980937 L56.745126,153.72085 L57.107529,153.460763 L57.469931,153.200676 L57.832333,152.940588 L58.194735,152.680501 L58.557137,152.420414 L58.91954,152.160327 L59.281942,151.90024 L59.644344,151.640153 L60.006746,151.380066 L60.369148,151.119979 L60.731551,150.859891 L61.093953,150.599804 L61.456355,150.339717 L61.818757,150.07963 L62.18116,149.819543 L62.543562,149.559456 L62.905964,149.299369 L63.268366,149.039281 L63.630768,148.779194 L63.993171,148.519107 L64.355573,148.25902 L64.717975,147.998933 L64.757352,147.968706 L64.796728,147.938479 L64.836105,147.908252 L64.875481,147.878025 L64.914858,147.847798 L64.954234,147.817571 L64.993611,147.787344 L65.032988,147.757117 L65.072364,147.72689 L65.111741,147.696663 L65.151117,147.666436 L65.190494,147.636209 L65.229871,147.605982 L65.269247,147.575755 L65.308624,147.545528 L65.348,147.515301 L65.387377,147.485074 L65.426754,147.454847 L65.46613,147.42462 L65.505507,147.394393 L65.544883,147.364166 L65.58426,147.333939 L65.623636,147.303712 L65.663013,147.273485 L66.007317,146.991108 L66.351622,146.708731 L66.695926,146.426354 L67.040231,146.143977 L67.384535,145.861599 L67.72884,145.579222 L68.073144,145.296845 L68.417449,145.014468 L68.761753,144.732091 L69.106058,144.449714 L69.450362,144.167337 L69.794667,143.884959 L70.138971,143.602582 L70.483275,143.320205 L70.82758,143.037828 L71.171884,142.755451 L71.516189,142.473074 L71.860493,142.190697 L72.204798,141.90832 L72.549102,141.625943 L72.893407,141.343565 L73.237711,141.061188 L73.582016,140.778811 L73.92632,140.496434 L73.963632,140.46377 L74.000944,140.431106 L74.038256,140.398442 L74.075569,140.365778 L74.112881,140.333114 L74.150193,140.30045 L74.187505,140.267786 L74.224817,140.235122 L74.262129,140.202458 L74.299441,140.169794 L74.336753,140.13713 L74.374066,140.104466 L74.411378,140.071801 L74.44869,140.039137 L74.486002,140.006473 L74.523314,139.973809 L74.560626,139.941145 L74.597938,139.908481 L74.63525,139.875817 L74.672562,139.843153 L74.709875,139.810489 L74.747187,139.777825 L74.784499,139.745161 L74.821811,139.712497 L75.146996,139.4088 L75.47218,139.105103 L75.797365,138.801405 L76.12255,138.497708 L76.447734,138.194011 L76.772919,137.890314 L77.098104,137.586617 L77.423288,137.282919 L77.748473,136.979222 L78.073658,136.675525 L78.398842,136.371828 L78.724027,136.06813 L79.049212,135.764433 L79.374396,135.460736 L79.699581,135.157039 L80.024766,134.853342 L80.34995,134.549644 L80.675135,134.245947 L81.00032,133.94225 L81.325504,133.638553 L81.650689,133.334856 L81.975874,133.031158 L82.301058,132.727461 L82.626243,132.423764 L82.661384,132.388762 L82.696524,132.35376 L82.731665,132.318758 L82.766805,132.283757 L82.801946,132.248755 L82.837086,132.213753 L82.872227,132.178751 L82.907367,132.143749 L82.942508,132.108747 L82.977648,132.073745 L83.012789,132.038743 L83.04793,132.003741 L83.08307,131.96874 L83.118211,131.933738 L83.153351,131.898736 L83.188492,131.863734 L83.223632,131.828732 L83.258773,131.79373 L83.293913,131.758728 L83.329054,131.723726 L83.364194,131.688725 L83.399335,131.653723 L83.434475,131.618721 L83.469616,131.583719 L83.774659,131.259672 L84.079702,130.935624 L84.384745,130.611577 L84.689787,130.287529 L84.99483,129.963482 L85.299873,129.639434 L85.604916,129.315387 L85.909959,128.99134 L86.215002,128.667292 L86.520045,128.343245 L86.825088,128.019197 L87.130131,127.69515 L87.435173,127.371103 L87.740216,127.047055 L88.045259,126.723008 L88.350302,126.39896 L88.655345,126.074913 L88.960388,125.750866 L89.265431,125.426818 L89.570473,125.102771 L89.875516,124.778723 L90.180559,124.454676 L90.485602,124.130628 L90.790645,123.806581 L90.823505,123.769339 L90.856366,123.732097 L90.889226,123.694855 L90.922087,123.657613 L90.954947,123.620371 L90.987807,123.583129 L91.020668,123.545887 L91.053528,123.508645 L91.086388,123.471403 L91.119249,123.434161 L91.152109,123.396919 L91.184969,123.359677 L91.21783,123.322435 L91.25069,123.285193 L91.283551,123.247951 L91.316411,123.210709 L91.349271,123.173467 L91.382132,123.136225 L91.414992,123.098983 L91.447853,123.061741 L91.480713,123.024499 L91.513573,122.987257 L91.546434,122.950015 L91.579294,122.912773 L91.863173,122.569345 L92.147052,122.225917 L92.430931,121.88249 L92.714811,121.539062 L92.99869,121.195634 L93.282569,120.852206 L93.566448,120.508778 L93.850327,120.165351 L94.134207,119.821923 L94.418086,119.478495 L94.701965,119.135067 L94.985844,118.79164 L95.269723,118.448212 L95.553602,118.104784 L95.837481,117.761356 L96.121361,117.417928 L96.40524,117.074501 L96.689119,116.731073 L96.972998,116.387645 L97.256877,116.044217 L97.540757,115.700789 L97.824636,115.357362 L98.108515,115.013934 L98.392394,114.670506 L98.422861,114.631124 L98.453328,114.591742 L98.483795,114.55236 L98.514262,114.512979 L98.544728,114.473597 L98.575195,114.434215 L98.605662,114.394833 L98.636129,114.355451 L98.666596,114.316069 L98.697063,114.276687 L98.72753,114.237305 L98.757996,114.197924 L98.788463,114.158542 L98.81893,114.11916 L98.849397,114.079778 L98.879864,114.040396 L98.910331,114.001014 L98.940798,113.961632 L98.971265,113.92225 L99.001732,113.882869 L99.032198,113.843487 L99.062665,113.804105 L99.093132,113.764723 L99.123599,113.725341 L99.385292,113.363503 L99.646986,113.001664 L99.908679,112.639826 L100.170373,112.277988 L100.432066,111.91615 L100.69376,111.554311 L100.955453,111.192473 L101.217147,110.830635 L101.47884,110.468796 L101.740534,110.106958 L102.002227,109.74512 L102.26392,109.383282 L102.525614,109.021443 L102.787307,108.659605 L103.049001,108.297767 L103.310694,107.935928 L103.572388,107.57409 L103.834081,107.212252 L104.095775,106.850413 L104.357468,106.488575 L104.619162,106.126737 L104.880855,105.764899 L105.142549,105.40306 L105.404242,105.041222 L105.432195,104.999808 L105.460149,104.958394 L105.488102,104.91698 L105.516056,104.875566 L105.544009,104.834152 L105.571963,104.792738 L105.599916,104.751324 L105.62787,104.70991 L105.655823,104.668496 L105.683777,104.627082 L105.71173,104.585668 L105.739683,104.544254 L105.767637,104.50284 L105.79559,104.461426 L105.823544,104.420012 L105.851497,104.378598 L105.879451,104.337184 L105.907404,104.29577 L105.935358,104.254356 L105.963311,104.212942 L105.991265,104.171528 L106.019218,104.130114 L106.047172,104.0887 L106.075125,104.047286 L106.313611,103.668007 L106.552097,103.288728 L106.790582,102.909449 L107.029068,102.53017 L107.267554,102.150892 L107.506039,101.771613 L107.744525,101.392334 L107.983011,101.013055 L108.221497,100.633776 L108.459982,100.254497 L108.698468,99.875218 L108.936954,99.495939 L109.17544,99.116661 L109.413926,98.737382 L109.652411,98.358103 L109.890897,97.978824 L110.129383,97.599545 L110.367869,97.220266 L110.606354,96.840987 L110.84484,96.461709 L111.083326,96.08243 L111.321811,95.703151 L111.560297,95.323872 L111.798783,94.944593 L111.824096,94.901268 L111.849409,94.857943 L111.874722,94.814618 L111.900035,94.771293 L111.925348,94.727968 L111.950661,94.684642 L111.975974,94.641317 L112.001287,94.597992 L112.0266,94.554667 L112.051913,94.511342 L112.077226,94.468017 L112.10254,94.424692 L112.127853,94.381367 L112.153166,94.338042 L112.178479,94.294717 L112.203792,94.251392 L112.229105,94.208067 L112.254418,94.164742 L112.279731,94.121416 L112.305044,94.078091 L112.330357,94.034766 L112.35567,93.991441 L112.380983,93.948116 L112.406296,93.904791 L112.620552,93.509041 L112.834808,93.113292 L113.049064,92.717542 L113.26332,92.321793 L113.477576,91.926043 L113.691832,91.530293 L113.906088,91.134544 L114.120344,90.738794 L114.3346,90.343044 L114.548856,89.947295 L114.763112,89.551545 L114.977368,89.155796 L115.191625,88.760046 L115.405881,88.364296 L115.620137,87.968547 L115.834393,87.572797 L116.048649,87.177047 L116.262905,86.781298 L116.477161,86.385548 L116.691417,85.989799 L116.905673,85.594049 L117.119929,85.198299 L117.334185,84.80255 L117.548441,84.4068 L117.570981,84.361704 L117.593521,84.316608 L117.616061,84.271512 L117.6386,84.226416 L117.66114,84.18132 L117.68368,84.136223 L117.70622,84.091127 L117.72876,84.046031 L117.7513,84.000935 L117.77384,83.955839 L117.79638,83.910743 L117.818919,83.865647 L117.841459,83.820551 L117.863999,83.775455 L117.886539,83.730359 L117.909079,83.685263 L117.931619,83.640167 L117.954159,83.595071 L117.976699,83.549974 L117.999239,83.504878 L118.021778,83.459782 L118.044318,83.414686 L118.066858,83.36959 L118.089398,83.324494 L118.278402,82.913244 L118.467407,82.501993 L118.656411,82.090743 L118.845415,81.679492 L119.03442,81.268242 L119.223424,80.856991 L119.412428,80.445741 L119.601433,80.03449 L119.790437,79.62324 L119.979441,79.211989 L120.168446,78.800739 L120.35745,78.389488 L120.546454,77.978238 L120.735459,77.566988 L120.924463,77.155737 L121.113467,76.744487 L121.302472,76.333236 L121.491476,75.921986 L121.68048,75.510735 L121.869485,75.099485 L122.058489,74.688234 L122.247493,74.276984 L122.436498,73.865733 L122.625502,73.454483 L122.645134,73.407781 L122.664765,73.361078 L122.684397,73.314376 L122.704028,73.267674 L122.72366,73.220971 L122.743291,73.174269 L122.762923,73.127566 L122.782554,73.080864 L122.802186,73.034162 L122.821817,72.987459 L122.841449,72.940757 L122.86108,72.894054 L122.880712,72.847352 L122.900344,72.80065 L122.919975,72.753947 L122.939607,72.707245 L122.959238,72.660543 L122.97887,72.61384 L122.998501,72.567138 L123.018133,72.520435 L123.037764,72.473733 L123.057396,72.427031 L123.077027,72.380328 L123.096659,72.333626 L123.25939,71.907845 L123.42212,71.482063 L123.584851,71.056282 L123.747582,70.6305 L123.910312,70.204719 L124.073043,69.778937 L124.235774,69.353156 L124.398504,68.927374 L124.561235,68.501593 L124.723966,68.075811 L124.886696,67.65003 L125.049427,67.224249 L125.212158,66.798467 L125.374888,66.372686 L125.537619,65.946904 L125.70035,65.521123 L125.86308,65.095341 L126.025811,64.66956 L126.188542,64.243778 L126.351272,63.817997 L126.514003,63.392215 L126.676734,62.966434 L126.839464,62.540652 L127.002195,62.114871 L127.018785,62.066756 L127.035376,62.018641 L127.051966,61.970527 L127.068557,61.922412 L127.085147,61.874297 L127.101737,61.826182 L127.118328,61.778067 L127.134918,61.729953 L127.151509,61.681838 L127.168099,61.633723 L127.18469,61.585608 L127.20128,61.537493 L127.21787,61.489379 L127.234461,61.441264 L127.251051,61.393149 L127.267642,61.345034 L127.284232,61.29692 L127.300822,61.248805 L127.317413,61.20069 L127.334003,61.152575 L127.350594,61.10446 L127.367184,61.056346 L127.383775,61.008231 L127.400365,60.960116 L127.5358,60.520773 L127.671235,60.081431 L127.80667,59.642088 L127.942105,59.202746 L128.07754,58.763403 L128.212975,58.324061 L128.34841,57.884718 L128.483845,57.445376 L128.61928,57.006033 L128.754715,56.566691 L128.89015,56.127348 L129.025585,55.688006 L129.16102,55.248663 L129.296455,54.80932 L129.43189,54.369978 L129.567325,53.930635 L129.70276,53.491293 L129.838195,53.05195 L129.97363,52.612608 L130.109065,52.173265 L130.2445,51.733923 L130.379935,51.29458 L130.51537,50.855238 L130.650805,50.415895 L130.664231,50.366594 L130.677656,50.317294 L130.691082,50.267993 L130.704508,50.218693 L130.717933,50.169392 L130.731359,50.120091 L130.744785,50.070791 L130.75821,50.02149 L130.771636,49.972189 L130.785062,49.922889 L130.798487,49.873588 L130.811913,49.824287 L130.825339,49.774987 L130.838764,49.725686 L130.85219,49.676386 L130.865616,49.627085 L130.879041,49.577784 L130.892467,49.528484 L130.905893,49.479183 L130.919318,49.429883 L130.932744,49.380582 L130.94617,49.331281 L130.959595,49.281981 L130.973021,49.23268 L131.080138,48.780746 L131.187256,48.328813 L131.294373,47.876879 L131.40149,47.424945 L131.508608,46.973011 L131.615725,46.521078 L131.722842,46.069144 L131.82996,45.61721 L131.937077,45.165276 L132.044194,44.713343 L132.151312,44.261409 L132.258429,43.809475 L132.365546,43.357541 L132.472664,42.905608 L132.579781,42.453674 L132.686898,42.00174 L132.794016,41.549806 L132.901133,41.097873 L133.00825,40.645939 L133.115368,40.194005 L133.222485,39.742071 L133.329602,39.290138 L133.43672,38.838204 L133.543837,38.38627 L133.553991,38.336044 L133.564145,38.285818 L133.574299,38.235592 L133.584454,38.185366 L133.594608,38.13514 L133.604762,38.084914 L133.614916,38.034688 L133.62507,37.984462 L133.635224,37.934236 L133.645379,37.88401 L133.655533,37.833784 L133.665687,37.783558 L133.675841,37.733332 L133.685995,37.683106 L133.696149,37.63288 L133.706304,37.582654 L133.716458,37.532428 L133.726612,37.482202 L133.736766,37.431976 L133.74692,37.38175 L133.757074,37.331524 L133.767229,37.281298 L133.777383,37.231072 L133.787537,37.180846 L133.865315,36.717291 L133.943092,36.253736 L134.02087,35.790181 L134.098648,35.326626 L134.176426,34.86307 L134.254203,34.399515 L134.331981,33.93596 L134.409759,33.472405 L134.487536,33.00885 L134.565314,32.545295 L134.643092,32.08174 L134.720869,31.618185 L134.798647,31.154629 L134.876425,30.691074 L134.954203,30.227519 L135.03198,29.763964 L135.109758,29.300409 L135.187536,28.836854 L135.265313,28.373299 L135.343091,27.909744 L135.420869,27.446188 L135.498647,26.982633 L135.576424,26.519078 L135.654202,26.055523 L135.661004,26.004665 L135.667805,25.953807 L135.674607,25.902949 L135.681408,25.852091 L135.68821,25.801233 L135.695011,25.750375 L135.701813,25.699517 L135.708615,25.648659 L135.715416,25.597801 L135.722218,25.546943 L135.729019,25.496085 L135.735821,25.445227 L135.742623,25.394368 L135.749424,25.34351 L135.756226,25.292652 L135.763027,25.241794 L135.769829,25.190936 L135.776631,25.140078 L135.783432,25.08922 L135.790234,25.038362 L135.797035,24.987504 L135.803837,24.936646 L135.810638,24.885788 L135.81744,24.83493 L135.864856,24.360723 L135.912272,23.886517 L135.959688,23.41231 L136.007104,22.938104 L136.05452,22.463897 L136.101936,21.989691 L136.149353,21.515484 L136.196769,21.041278 L136.244185,20.567071 L136.291601,20.092865 L136.339017,19.618658 L136.386433,19.144451 L136.433849,18.670245 L136.481265,18.196038 L136.528681,17.721832 L136.576097,17.247625 L136.623513,16.773419 L136.670929,16.299212 L136.718346,15.825006 L136.765762,15.350799 L136.813178,14.876593 L136.860594,14.402386 L136.90801,13.92818 L136.955426,13.453973 L136.958828,13.402805 L136.96223,13.351637 L136.965632,13.30047 L136.969034,13.249302 L136.972436,13.198134 L136.975838,13.146966 L136.97924,13.095798 L136.982642,13.044631 L136.986044,12.993463 L136.989446,12.942295 L136.992848,12.891127 L136.99625,12.839959 L136.999653,12.788792 L137.003055,12.737624 L137.006457,12.686456 L137.009859,12.635288 L137.013261,12.584121 L137.016663,12.532953 L137.020065,12.481785 L137.023467,12.430617 L137.026869,12.379449 L137.030271,12.328282 L137.033673,12.277114 L137.037075,12.225946 L137.053107,11.742058 L137.06914,11.25817 L137.085172,10.774282 L137.101205,10.290394 L137.117237,9.806505 L137.13327,9.322617 L137.149302,8.838729 L137.165335,8.354841 L137.181367,7.870953 L137.1974,7.387065 L137.213432,6.903177 L137.229465,6.419289 L137.245497,5.9354 L137.261529,5.451512 L137.277562,4.967624 L137.293594,4.483736 L137.309627,3.999848 L137.325659,3.51596 L137.341692,3.032072 L137.357724,2.548184 L137.373757,2.064295 L137.389789,1.580407 L137.405822,1.096519 L137.421854,0.612631 L137.421854,0.612631 L137.420576,0.535933 L137.419299,0.459235 L137.418021,0.382537 L137.416743,0.30584 L137.415466,0.229142 L137.414188,0.152444 L137.41291,0.075746 L137.411649,0 L92.769085,0 Z" fill="#121212"/>
  <path d="M40.316607,1.481651 L35.462236,6.336026 L30.607865,11.190401 L25.753494,16.044776 L20.899123,20.899151 L16.044752,25.753527 L11.190382,30.607902 L6.336011,35.462277 L1.48164,40.316652 L0,41.798293 L0,126.085983 L0.217597,126.003352 L0.512953,125.891193 L0.808309,125.779034 L1.103664,125.666876 L1.39902,125.554717 L1.694376,125.442558 L1.989731,125.330399 L2.285087,125.21824 L2.580443,125.106082 L2.875799,124.993923 L3.171154,124.881764 L3.46651,124.769605 L3.46651,124.769605 L3.512933,124.75022 L3.559356,124.730836 L3.605778,124.711451 L3.652201,124.692066 L3.698624,124.672682 L3.745047,124.653297 L3.79147,124.633912 L3.837893,124.614528 L3.884316,124.595143 L3.930738,124.575758 L3.977161,124.556374 L4.023584,124.536989 L4.070007,124.517604 L4.11643,124.49822 L4.162852,124.478835 L4.209275,124.45945 L4.255698,124.440066 L4.302121,124.420681 L4.348544,124.401296 L4.394967,124.381912 L4.441389,124.362527 L4.487812,124.343142 L4.534235,124.323758 L4.580658,124.304373 L4.866268,124.174009 L5.151877,124.043646 L5.437487,123.913282 L5.723097,123.782918 L6.008706,123.652554 L6.294316,123.522191 L6.579926,123.391827 L6.865535,123.261463 L7.151145,123.1311 L7.436755,123.000736 L7.722364,122.870372 L8.007974,122.740009 L8.293584,122.609645 L8.579193,122.479281 L8.864803,122.348917 L9.150413,122.218554 L9.436022,122.08819 L9.721632,121.957826 L10.007242,121.827463 L10.292851,121.697099 L10.578461,121.566735 L10.864071,121.436371 L11.14968,121.306008 L11.43529,121.175644 L11.480161,121.153374 L11.525031,121.131104 L11.569902,121.108834 L11.614772,121.086564 L11.659643,121.064294 L11.704513,121.042024 L11.749384,121.019755 L11.794254,120.997485 L11.839125,120.975215 L11.883995,120.952945 L11.928866,120.930675 L11.973737,120.908405 L12.018607,120.886135 L12.063478,120.863865 L12.108348,120.841595 L12.153219,120.819325 L12.198089,120.797055 L12.24296,120.774786 L12.28783,120.752516 L12.332701,120.730246 L12.377571,120.707976 L12.422442,120.685706 L12.467312,120.663436 L12.512183,120.641166 L12.787336,120.493272 L13.062489,120.345378 L13.337641,120.197485 L13.612794,120.049591 L13.887947,119.901697 L14.1631,119.753803 L14.438252,119.605909 L14.713405,119.458015 L14.988558,119.310121 L15.263711,119.162228 L15.538863,119.014334 L15.814016,118.86644 L16.089169,118.718546 L16.364322,118.570652 L16.639474,118.422759 L16.914627,118.274865 L17.18978,118.126971 L17.464932,117.979077 L17.740085,117.831183 L18.015238,117.683289 L18.290391,117.535395 L18.565544,117.387502 L18.840696,117.239608 L19.115849,117.091714 L19.159016,117.066678 L19.202183,117.041642 L19.245349,117.016606 L19.288516,116.991571 L19.331683,116.966535 L19.37485,116.941499 L19.418017,116.916463 L19.461183,116.891427 L19.50435,116.866391 L19.547517,116.841356 L19.590684,116.81632 L19.633851,116.791284 L19.677017,116.766248 L19.720184,116.741212 L19.763351,116.716177 L19.806518,116.691141 L19.849684,116.666105 L19.892851,116.641069 L19.936018,116.616033 L19.979185,116.590997 L20.022352,116.565962 L20.065518,116.540926 L20.108685,116.51589 L20.151852,116.490854 L20.415837,116.326105 L20.679822,116.161355 L20.943807,115.996606 L21.207791,115.831857 L21.471776,115.667108 L21.735761,115.502358 L21.999746,115.337609 L22.263731,115.17286 L22.527715,115.00811 L22.7917,114.843361 L23.055685,114.678612 L23.31967,114.513863 L23.583655,114.349113 L23.84764,114.184364 L24.111625,114.019615 L24.375609,113.854865 L24.639594,113.690116 L24.903579,113.525367 L25.167564,113.360617 L25.431549,113.195868 L25.695533,113.031119 L25.959518,112.86637 L26.223503,112.70162 L26.487488,112.536871 L26.528819,112.509185 L26.57015,112.481499 L26.611481,112.453812 L26.652811,112.426126 L26.694142,112.39844 L26.735473,112.370754 L26.776804,112.343067 L26.818135,112.315381 L26.859466,112.287695 L26.900797,112.260008 L26.942128,112.232322 L26.983458,112.204636 L27.024789,112.17695 L27.06612,112.149264 L27.107451,112.121577 L27.148782,112.093891 L27.190113,112.066205 L27.231444,112.038518 L27.272775,112.010832 L27.314106,111.983146 L27.355436,111.95546 L27.396767,111.927774 L27.438098,111.900087 L27.479429,111.872401 L27.731535,111.691471 L27.983641,111.510541 L28.235747,111.329611 L28.487853,111.14868 L28.739959,110.96775 L28.992065,110.78682 L29.244171,110.60589 L29.496277,110.42496 L29.748383,110.24403 L30.000489,110.0631 L30.252595,109.88217 L30.5047,109.701239 L30.756806,109.520309 L31.008912,109.339379 L31.261018,109.158449 L31.513124,108.977519 L31.76523,108.796589 L32.017336,108.615659 L32.269442,108.434729 L32.521548,108.253799 L32.773654,108.072868 L33.02576,107.891938 L33.277866,107.711008 L33.529972,107.530078 L33.569349,107.499851 L33.608725,107.469624 L33.648102,107.439397 L33.687478,107.40917 L33.726855,107.378943 L33.766232,107.348716 L33.805608,107.318489 L33.844985,107.288262 L33.884362,107.258035 L33.923738,107.227808 L33.963115,107.197581 L34.002492,107.167354 L34.041868,107.137127 L34.081245,107.1069 L34.120621,107.076673 L34.159998,107.046446 L34.199375,107.016219 L34.238751,106.985992 L34.278128,106.955765 L34.317504,106.925538 L34.356881,106.895311 L34.396258,106.865084 L34.435634,106.834857 L34.475011,106.80463 L34.714527,106.608194 L34.954043,106.411758 L35.19356,106.215322 L35.433076,106.018885 L35.672592,105.822449 L35.912108,105.626013 L36.151624,105.429577 L36.391141,105.233141 L36.630657,105.036704 L36.870173,104.840268 L37.109689,104.643832 L37.349205,104.447396 L37.588722,104.25096 L37.828238,104.054524 L38.067754,103.858088 L38.30727,103.661651 L38.546787,103.465215 L38.786303,103.268779 L39.025819,103.072343 L39.265335,102.875907 L39.504851,102.679471 L39.744368,102.483034 L39.983884,102.286598 L40.2234,102.090162 L40.260712,102.057498 L40.298024,102.024834 L40.335337,101.99217 L40.372649,101.959506 L40.409961,101.926842 L40.447273,101.894178 L40.484585,101.861513 L40.521898,101.828849 L40.55921,101.796185 L40.596522,101.763521 L40.633834,101.730857 L40.671146,101.698193 L40.708459,101.665529 L40.745771,101.632865 L40.783083,101.600201 L40.820395,101.567537 L40.857708,101.534873 L40.89502,101.502208 L40.932332,101.469544 L40.969644,101.43688 L41.006956,101.404216 L41.044269,101.371552 L41.081581,101.338888 L41.118893,101.306224 L41.345108,101.094956 L41.571324,100.883689 L41.797539,100.672421 L42.023755,100.461154 L42.24997,100.249886 L42.476186,100.038619 L42.702401,99.827351 L42.928617,99.616084 L43.154832,99.404816 L43.381048,99.193549 L43.607263,98.982281 L43.833478,98.771014 L44.059694,98.559746 L44.285909,98.348478 L44.512125,98.137211 L44.73834,97.925943 L44.964556,97.714676 L45.190771,97.503408 L45.416987,97.292141 L45.643202,97.080873 L45.869418,96.869606 L46.095633,96.658338 L46.321849,96.447071 L46.548064,96.235803 L46.583205,96.200801 L46.618345,96.165799 L46.653486,96.130797 L46.688626,96.095796 L46.723767,96.060794 L46.758907,96.025792 L46.794048,95.99079 L46.829189,95.955788 L46.864329,95.920786 L46.89947,95.885784 L46.93461,95.850782 L46.969751,95.815781 L47.004892,95.780779 L47.040032,95.745777 L47.075173,95.710775 L47.110313,95.675773 L47.145454,95.640771 L47.180594,95.605769 L47.215735,95.570767 L47.250876,95.535765 L47.286016,95.500764 L47.321157,95.465762 L47.356297,95.43076 L47.391438,95.395758 L47.603642,95.170334 L47.815846,94.944909 L48.028049,94.719485 L48.240253,94.494061 L48.452457,94.268637 L48.664661,94.043212 L48.876865,93.817788 L49.089068,93.592364 L49.301272,93.36694 L49.513476,93.141515 L49.72568,92.916091 L49.937883,92.690667 L50.150087,92.465243 L50.362291,92.239818 L50.574495,92.014394 L50.786699,91.78897 L50.998902,91.563546 L51.211106,91.338121 L51.42331,91.112697 L51.635514,90.887273 L51.847718,90.661849 L52.059921,90.436425 L52.272125,90.211 L52.484329,89.985576 L52.517189,89.948334 L52.55005,89.911092 L52.58291,89.87385 L52.615771,89.836608 L52.648631,89.799366 L52.681491,89.762124 L52.714352,89.724882 L52.747212,89.68764 L52.780072,89.650398 L52.812933,89.613156 L52.845793,89.575914 L52.878653,89.538672 L52.911514,89.50143 L52.944374,89.464188 L52.977235,89.426946 L53.010095,89.389704 L53.042955,89.352462 L53.075816,89.31522 L53.108676,89.277978 L53.141537,89.240736 L53.174397,89.203494 L53.207257,89.166252 L53.240118,89.12901 L53.272978,89.091768 L53.470459,88.852862 L53.66794,88.613956 L53.865422,88.375049 L54.062903,88.136143 L54.260384,87.897237 L54.457865,87.658331 L54.655346,87.419425 L54.852827,87.180518 L55.050308,86.941612 L55.24779,86.702706 L55.445271,86.4638 L55.642752,86.224894 L55.840233,85.985987 L56.037714,85.747081 L56.235196,85.508175 L56.432677,85.269269 L56.630158,85.030362 L56.827639,84.791456 L57.02512,84.55255 L57.222601,84.313644 L57.420082,84.074738 L57.617564,83.835831 L57.815045,83.596925 L58.012526,83.358019 L58.042993,83.318637 L58.07346,83.279255 L58.103927,83.239873 L58.134394,83.200491 L58.164861,83.161109 L58.195328,83.121727 L58.225794,83.082345 L58.256261,83.042963 L58.286728,83.003581 L58.317195,82.964199 L58.347662,82.924817 L58.378129,82.885435 L58.408596,82.846054 L58.439063,82.806672 L58.46953,82.76729 L58.499997,82.727908 L58.530464,82.688526 L58.56093,82.649144 L58.591397,82.609762 L58.621864,82.57038 L58.652331,82.530998 L58.682798,82.491616 L58.713265,82.452234 L58.743732,82.412852 L58.92578,82.161139 L59.107827,81.909425 L59.289875,81.657712 L59.471923,81.405998 L59.65397,81.154285 L59.836018,80.902571 L60.018065,80.650858 L60.200113,80.399144 L60.382161,80.14743 L60.564208,79.895717 L60.746256,79.644003 L60.928303,79.39229 L61.110351,79.140577 L61.292399,78.888863 L61.474446,78.63715 L61.656494,78.385436 L61.838542,78.133723 L62.020589,77.882009 L62.202637,77.630296 L62.384685,77.378582 L62.566732,77.126869 L62.74878,76.875155 L62.930827,76.623441 L63.112875,76.371728 L63.140829,76.330314 L63.168782,76.2889 L63.196736,76.247486 L63.224689,76.206072 L63.252643,76.164658 L63.280596,76.123244 L63.30855,76.08183 L63.336503,76.040416 L63.364457,75.999002 L63.39241,75.957588 L63.420364,75.916174 L63.448317,75.87476 L63.476271,75.833345 L63.504224,75.791931 L63.532178,75.750517 L63.560131,75.709103 L63.588085,75.667689 L63.616038,75.626275 L63.643992,75.584861 L63.671945,75.543447 L63.699899,75.502033 L63.727852,75.460619 L63.755806,75.419205 L63.783759,75.377791 L63.949662,75.113945 L64.115565,74.850099 L64.281468,74.586253 L64.447372,74.322407 L64.613275,74.058561 L64.779178,73.794714 L64.945081,73.530868 L65.110984,73.267022 L65.276887,73.003176 L65.44279,72.73933 L65.608693,72.475484 L65.774597,72.211638 L65.9405,71.947792 L66.106403,71.683946 L66.272306,71.4201 L66.438209,71.156254 L66.604112,70.892408 L66.770015,70.628562 L66.935918,70.364715 L67.101821,70.100869 L67.267725,69.837023 L67.433628,69.573177 L67.599531,69.309331 L67.765434,69.045485 L67.790747,69.00216 L67.81606,68.958835 L67.841373,68.91551 L67.866686,68.872185 L67.891999,68.828859 L67.917312,68.785534 L67.942626,68.742209 L67.967939,68.698884 L67.993252,68.655559 L68.018565,68.612234 L68.043878,68.568909 L68.069191,68.525583 L68.094504,68.482258 L68.119817,68.438933 L68.14513,68.395608 L68.170443,68.352283 L68.195756,68.308958 L68.221069,68.265633 L68.246383,68.222308 L68.271696,68.178982 L68.297009,68.135657 L68.322322,68.092332 L68.347635,68.049007 L68.372948,68.005682 L68.521996,67.730378 L68.671043,67.455074 L68.820091,67.17977 L68.969138,66.904466 L69.118186,66.629162 L69.267234,66.353858 L69.416281,66.078554 L69.565329,65.80325 L69.714377,65.527946 L69.863424,65.252642 L70.012472,64.977338 L70.161519,64.702034 L70.310567,64.42673 L70.459615,64.151426 L70.608662,63.876122 L70.75771,63.600818 L70.906758,63.325514 L71.055805,63.05021 L71.204853,62.774906 L71.3539,62.499602 L71.502948,62.224298 L71.651996,61.948994 L71.801043,61.67369 L71.950091,61.398386 L71.972631,61.35329 L71.995171,61.308194 L72.017711,61.263098 L72.040251,61.218001 L72.062791,61.172905 L72.08533,61.127809 L72.10787,61.082713 L72.13041,61.037617 L72.15295,60.992521 L72.17549,60.947425 L72.19803,60.902329 L72.22057,60.857233 L72.24311,60.812136 L72.26565,60.76704 L72.28819,60.721944 L72.31073,60.676848 L72.33327,60.631752 L72.35581,60.586656 L72.378349,60.54156 L72.400889,60.496464 L72.423429,60.451367 L72.445969,60.406271 L72.468509,60.361175 L72.491049,60.316079 L72.62253,60.029992 L72.754012,59.743905 L72.885493,59.457817 L73.016974,59.17173 L73.148455,58.885643 L73.279937,58.599556 L73.411418,58.313469 L73.542899,58.027381 L73.67438,57.741294 L73.805862,57.455207 L73.937343,57.16912 L74.068824,56.883032 L74.200305,56.596945 L74.331786,56.310858 L74.463268,56.024771 L74.594749,55.738684 L74.72623,55.452596 L74.857711,55.166509 L74.989193,54.880422 L75.120674,54.594335 L75.252155,54.308248 L75.383636,54.02216 L75.515118,53.736073 L75.646599,53.449986 L75.666231,53.403284 L75.685862,53.356581 L75.705494,53.309879 L75.725125,53.263176 L75.744757,53.216474 L75.764388,53.169772 L75.78402,53.123069 L75.803651,53.076367 L75.823283,53.029664 L75.842914,52.982962 L75.862546,52.936259 L75.882177,52.889557 L75.901809,52.842855 L75.921441,52.796152 L75.941072,52.74945 L75.960704,52.702747 L75.980335,52.656045 L76,52.609342 L76.019598,52.56264 L76.03923,52.515938 L76.058861,52.469235 L76.078493,52.422533 L76.098124,52.37583 L76.117756,52.329128 L76.23096,52.032932 L76.344164,51.736736 L76.457368,51.440541 L76.570572,51.144345 L76.683776,50.848149 L76.796979,50.551953 L76.910183,50.255758 L77.023387,49.959562 L77.136591,49.663366 L77.249795,49.367171 L77.362999,49.070975 L77.476203,48.774779 L77.589407,48.478583 L77.702611,48.182387 L77.815815,47.886192 L77.929019,47.589996 L78.042223,47.2938 L78.155427,46.997605 L78.26863,46.701409 L78.381834,46.405213 L78.495038,46.109017 L78.608242,45.812821 L78.721446,45.516626 L78.83465,45.22043 L78.85124,45.172315 L78.867831,45.1242 L78.884421,45.076086 L78.901012,45.027971 L78.917602,44.979856 L78.934192,44.931741 L78.950783,44.883626 L78.967373,44.835512 L78.983964,44.787397 L79.000554,44.739282 L79.017145,44.691167 L79.033735,44.643052 L79.050325,44.594938 L79.066916,44.546823 L79.083506,44.498708 L79.100097,44.450593 L79.116687,44.402479 L79.133278,44.354364 L79.149868,44.306249 L79.166458,44.258134 L79.183049,44.210019 L79.199639,44.161905 L79.21623,44.11379 L79.23282,44.065675 L79.327036,43.760045 L79.421251,43.454416 L79.515467,43.148786 L79.609683,42.843157 L79.703898,42.537527 L79.798114,42.231898 L79.892329,41.926268 L79.986545,41.620639 L80.080761,41.315009 L80.174976,41.00938 L80.269192,40.70375 L80.363407,40.398121 L80.457623,40.092491 L80.551839,39.786861 L80.646054,39.481232 L80.74027,39.175602 L80.834486,38.869973 L80.928701,38.564343 L81.022917,38.258714 L81.117132,37.953084 L81.211348,37.647455 L81.305564,37.341825 L81.399779,37.036196 L81.493995,36.730566 L81.507421,36.681265 L81.520846,36.631965 L81.534272,36.582664 L81.547698,36.533363 L81.561123,36.484063 L81.574549,36.434762 L81.587975,36.385461 L81.6014,36.336161 L81.614826,36.28686 L81.628252,36.237559 L81.641677,36.188259 L81.655103,36.138958 L81.668529,36.089657 L81.681954,36.040357 L81.69538,35.991056 L81.708806,35.941755 L81.722231,35.892455 L81.735657,35.843154 L81.749083,35.793853 L81.762508,35.744553 L81.775934,35.695252 L81.78936,35.645951 L81.802785,35.596651 L81.816211,35.54735 L81.890727,35.232961 L81.965244,34.918573 L82.03976,34.604184 L82.114276,34.289796 L82.188793,33.975407 L82.263309,33.661018 L82.337826,33.34663 L82.412342,33.032241 L82.486858,32.717852 L82.561375,32.403464 L82.635891,32.089075 L82.710408,31.774687 L82.784924,31.460298 L82.85944,31.145909 L82.933957,30.831521 L83.008473,30.517132 L83.082989,30.202743 L83.157506,29.888355 L83.232022,29.573966 L83.306538,29.259577 L83.381055,28.945189 L83.455571,28.6308 L83.530088,28.316412 L83.604604,28.002023 L83.614758,27.951797 L83.624912,27.901571 L83.635066,27.851345 L83.645221,27.801119 L83.655375,27.750893 L83.665529,27.700667 L83.675683,27.650441 L83.685837,27.600215 L83.695991,27.549989 L83.706146,27.499763 L83.7163,27.449537 L83.726454,27.39931 L83.736608,27.349084 L83.746762,27.298858 L83.756917,27.248632 L83.767071,27.198406 L83.777225,27.14818 L83.787379,27.097954 L83.797533,27.047728 L83.807687,26.997502 L83.817842,26.947276 L83.827996,26.89705 L83.83815,26.846824 L83.848304,26.796598 L83.90241,26.474125 L83.956516,26.151652 L84.010623,25.829179 L84.064729,25.506706 L84.118835,25.184233 L84.172941,24.86176 L84.227047,24.539287 L84.281154,24.216814 L84.33526,23.894341 L84.389366,23.571868 L84.443472,23.249395 L84.497579,22.926921 L84.551685,22.604448 L84.605791,22.281975 L84.659897,21.959502 L84.714003,21.637029 L84.76811,21.314556 L84.822216,20.992083 L84.876322,20.66961 L84.930428,20.347137 L84.984534,20.024664 L85.038641,19.702191 L85.092747,19.379718 L85.146853,19.057245 L85.153655,19.006387 L85.160456,18.955529 L85.167258,18.904671 L85.174059,18.853813 L85.180861,18.802955 L85.187662,18.752097 L85.194464,18.701238 L85.201266,18.65038 L85.208067,18.599522 L85.214869,18.548664 L85.22167,18.497806 L85.228472,18.446948 L85.235274,18.39609 L85.242075,18.345232 L85.248877,18.294374 L85.255678,18.243516 L85.26248,18.192658 L85.269282,18.1418 L85.276083,18.090941 L85.282885,18.040083 L85.289686,17.989225 L85.296488,17.938367 L85.303289,17.887509 L85.310091,17.836651 L85.343076,17.506768 L85.376061,17.176885 L85.409046,16.847003 L85.442031,16.51712 L85.475016,16.187237 L85.508002,15.857354 L85.540987,15.527471 L85.573972,15.197589 L85.606957,14.867706 L85.639942,14.537823 L85.672927,14.20794 L85.705912,13.878058 L85.738897,13.548175 L85.771882,13.218292 L85.804867,12.888409 L85.837852,12.558526 L85.870837,12.228644 L85.903822,11.898761 L85.936808,11.568878 L85.969793,11.238995 L86.002778,10.909112 L86.035763,10.57923 L86.068748,10.249347 L86.101733,9.919464 L86.105135,9.868296 L86.108537,9.817128 L86.111939,9.765961 L86.115341,9.714793 L86.118743,9.663625 L86.122145,9.612457 L86.125547,9.56129 L86.128949,9.510122 L86.132351,9.458954 L86.135753,9.407787 L86.139155,9.356619 L86.142557,9.305451 L86.14596,9.254283 L86.149362,9.203115 L86.152764,9.151948 L86.156166,9.10078 L86.159568,9.049612 L86.16297,8.998444 L86.166372,8.947277 L86.169774,8.896109 L86.173176,8.844941 L86.176578,8.793774 L86.17998,8.742606 L86.183382,8.691438 L86.194535,8.35482 L86.205688,8.018202 L86.216841,7.681584 L86.227994,7.344967 L86.239147,7.008349 L86.2503,6.671731 L86.261453,6.335113 L86.272606,5.998495 L86.283759,5.661878 L86.294912,5.32526 L86.306065,4.988642 L86.317218,4.652024 L86.328371,4.315406 L86.339524,3.978788 L86.350677,3.64217 L86.36183,3.305553 L86.372983,2.968935 L86.384136,2.632317 L86.395289,2.295699 L86.406442,1.959081 L86.417595,1.622464 L86.428748,1.285846 L86.439901,0.949228 L86.451054,0.61261 L86.451054,0.61261 L86.449776,0.535912 L86.448499,0.459214 L86.447221,0.382516 L86.445943,0.305819 L86.444666,0.229121 L86.443388,0.152423 L86.44211,0.075725 L86.440849,0 L41.798256,0 Z" fill="#121212"/>
  <path d="M136.392904,4.920097 L127.392083,13.920888 L118.391263,22.92168 L109.390442,31.922471 L100.389621,40.923262 L91.3888,49.924053 L82.387979,58.924844 L73.387158,67.925635 L64.386338,76.926427 L55.385517,85.927218 L46.384696,94.928009 L37.383875,103.9288 L28.383054,112.929591 L19.382233,121.930382 L10.381413,130.931174 L1.380592,139.931965 L0,141.312552 L0,229.453932 L0.45916,229.343938 L1.037955,229.205285 L1.61675,229.066632 L2.195545,228.92798 L2.774339,228.789327 L3.353134,228.650674 L3.931929,228.512021 L4.510724,228.373368 L5.089519,228.234715 L5.668314,228.096062 L6.247109,227.957409 L6.825904,227.818757 L7.404699,227.680104 L7.983494,227.541451 L8.562289,227.402798 L9.141084,227.264145 L9.719879,227.125492 L10.298673,226.986839 L10.877468,226.848186 L11.456263,226.709534 L12.035058,226.570881 L12.613853,226.432228 L13.192648,226.293575 L13.241962,226.280017 L13.291275,226.266459 L13.340589,226.252901 L13.389903,226.239343 L13.439217,226.225785 L13.48853,226.212227 L13.537844,226.198669 L13.587158,226.185111 L13.636471,226.171553 L13.685785,226.157995 L13.735099,226.144437 L13.784413,226.130879 L13.833726,226.117322 L13.88304,226.103764 L13.932354,226.090206 L13.981667,226.076648 L14.030981,226.06309 L14.080295,226.049532 L14.129608,226.035974 L14.178922,226.022416 L14.228236,226.008858 L14.27755,225.9953 L14.326863,225.981742 L14.376177,225.968184 L14.939806,225.792916 L15.503434,225.617649 L16.067063,225.442381 L16.630692,225.267113 L17.19432,225.091845 L17.757949,224.916578 L18.321577,224.74131 L18.885206,224.566042 L19.448835,224.390774 L20.012463,224.215507 L20.576092,224.040239 L21.13972,223.864971 L21.703349,223.689703 L22.266978,223.514435 L22.830606,223.339168 L23.394235,223.1639 L23.957864,222.988632 L24.521492,222.813364 L25.085121,222.638097 L25.64875,222.462829 L26.212378,222.287561 L26.776007,222.112293 L27.339635,221.937026 L27.903264,221.761758 L27.951214,221.745097 L27.999164,221.728436 L28.047115,221.711774 L28.095065,221.695113 L28.143015,221.678452 L28.190966,221.661791 L28.238916,221.64513 L28.286866,221.628469 L28.334816,221.611807 L28.382766,221.595146 L28.430717,221.578485 L28.478667,221.561824 L28.526617,221.545163 L28.574568,221.528502 L28.622518,221.51184 L28.670468,221.495179 L28.718418,221.478518 L28.766368,221.461857 L28.814319,221.445196 L28.862269,221.428535 L28.910219,221.411873 L28.95817,221.395212 L29.00612,221.378551 L29.05407,221.36189 L29.601192,221.151348 L30.148314,220.940806 L30.695435,220.730264 L31.242557,220.519722 L31.789679,220.30918 L32.336801,220.098637 L32.883922,219.888095 L33.431044,219.677553 L33.978166,219.467011 L34.525287,219.256469 L35.072409,219.045927 L35.619531,218.835385 L36.166653,218.624843 L36.713774,218.414301 L37.260896,218.203759 L37.808018,217.993217 L38.35514,217.782675 L38.902262,217.572132 L39.449383,217.36159 L39.996505,217.151048 L40.543627,216.940506 L41.090749,216.729964 L41.63787,216.519422 L42.184992,216.30888 L42.231389,216.289262 L42.277787,216.269644 L42.324184,216.250026 L42.370581,216.230407 L42.416978,216.210789 L42.463375,216.191171 L42.509773,216.171553 L42.55617,216.151935 L42.602567,216.132317 L42.648965,216.112699 L42.695362,216.093081 L42.741759,216.073463 L42.788156,216.053844 L42.834553,216.034226 L42.880951,216.014608 L42.927348,215.99499 L42.973745,215.975372 L43.020143,215.955754 L43.06654,215.936136 L43.112937,215.916517 L43.159334,215.896899 L43.205731,215.877281 L43.252129,215.857663 L43.298526,215.838045 L43.8278,215.593569 L44.357075,215.349093 L44.886349,215.104617 L45.415623,214.860141 L45.944898,214.615665 L46.474172,214.371189 L47.003446,214.126714 L47.532721,213.882238 L48.061995,213.637762 L48.591269,213.393286 L49.120544,213.14881 L49.649818,212.904334 L50.179092,212.659858 L50.708367,212.415382 L51.237641,212.170906 L51.766915,211.92643 L52.29619,211.681954 L52.825464,211.437478 L53.354738,211.193003 L53.884013,210.948527 L54.413287,210.704051 L54.942561,210.459575 L55.471836,210.215099 L56.00111,209.970623 L56.045801,209.948194 L56.090491,209.925764 L56.135182,209.903335 L56.179873,209.880905 L56.224563,209.858476 L56.269254,209.836046 L56.313945,209.813617 L56.358635,209.791187 L56.403326,209.768758 L56.448017,209.746328 L56.492707,209.723899 L56.537398,209.701469 L56.582089,209.67904 L56.626779,209.656611 L56.67147,209.634181 L56.716161,209.611752 L56.760851,209.589322 L56.805542,209.566893 L56.850233,209.544463 L56.894923,209.522034 L56.939614,209.499604 L56.984305,209.477175 L57.028995,209.454745 L57.073686,209.432316 L57.583772,209.155247 L58.093859,208.878178 L58.603945,208.601108 L59.114032,208.324039 L59.624118,208.04697 L60.134205,207.769901 L60.644291,207.492832 L61.154377,207.215763 L61.664464,206.938693 L62.17455,206.661624 L62.684637,206.384555 L63.194723,206.107486 L63.704809,205.830417 L64.214896,205.553348 L64.724982,205.276278 L65.235069,204.999209 L65.745155,204.72214 L66.255241,204.445071 L66.765328,204.168002 L67.275414,203.890933 L67.785501,203.613864 L68.295587,203.336794 L68.805674,203.059725 L69.31576,202.782656 L69.358621,202.757554 L69.401481,202.732452 L69.444342,202.707349 L69.487202,202.682247 L69.530063,202.657145 L69.572924,202.632043 L69.615784,202.606941 L69.658645,202.581838 L69.701505,202.556736 L69.744366,202.531634 L69.787226,202.506532 L69.830087,202.481429 L69.872948,202.456327 L69.915808,202.431225 L69.958669,202.406123 L70.001529,202.381021 L70.04439,202.355918 L70.08725,202.330816 L70.130111,202.305714 L70.172972,202.280612 L70.215832,202.25551 L70.258693,202.230407 L70.301553,202.205305 L70.344414,202.180203 L70.833972,201.871881 L71.32353,201.563559 L71.813088,201.255237 L72.302646,200.946915 L72.792204,200.638593 L73.281762,200.330272 L73.771319,200.02195 L74.260877,199.713628 L74.750435,199.405306 L75.239993,199.096984 L75.729551,198.788662 L76.219109,198.48034 L76.708667,198.172018 L77.198225,197.863696 L77.687783,197.555374 L78.177341,197.247052 L78.666899,196.93873 L79.156457,196.630408 L79.646014,196.322087 L80.135572,196.013765 L80.62513,195.705443 L81.114688,195.397121 L81.604246,195.088799 L82.093804,194.780477 L82.134734,194.752829 L82.175664,194.725181 L82.216594,194.697534 L82.257524,194.669886 L82.298454,194.642238 L82.339384,194.61459 L82.380314,194.586943 L82.421244,194.559295 L82.462174,194.531647 L82.503104,194.503999 L82.544034,194.476352 L82.584965,194.448704 L82.625895,194.421056 L82.666825,194.393408 L82.707755,194.365761 L82.748685,194.338113 L82.789615,194.310465 L82.830545,194.282817 L82.871475,194.25517 L82.912405,194.227522 L82.953335,194.199874 L82.994265,194.172226 L83.035195,194.144579 L83.076125,194.116931 L83.543814,193.778697 L84.011503,193.440463 L84.479192,193.102228 L84.946881,192.763994 L85.414569,192.42576 L85.882258,192.087526 L86.349947,191.749292 L86.817636,191.411058 L87.285325,191.072823 L87.753014,190.734589 L88.220703,190.396355 L88.688391,190.058121 L89.15608,189.719887 L89.623769,189.381653 L90.091458,189.043419 L90.559147,188.705184 L91.026836,188.36695 L91.494525,188.028716 L91.962214,187.690482 L92.429902,187.352248 L92.897591,187.014014 L93.36528,186.675779 L93.832969,186.337545 L94.300658,185.999311 L94.339573,185.969231 L94.378488,185.939151 L94.417402,185.909072 L94.456317,185.878992 L94.495232,185.848912 L94.534147,185.818832 L94.573062,185.788752 L94.611976,185.758672 L94.650891,185.728593 L94.689806,185.698513 L94.728721,185.668433 L94.767635,185.638353 L94.80655,185.608273 L94.845465,185.578193 L94.88438,185.548113 L94.923295,185.518034 L94.962209,185.487954 L95.001124,185.457874 L95.040039,185.427794 L95.078954,185.397714 L95.117869,185.367635 L95.156783,185.337555 L95.195698,185.307475 L95.234613,185.277395 L95.679092,184.910589 L96.123572,184.543783 L96.568051,184.176978 L97.01253,183.810172 L97.45701,183.443366 L97.901489,183.07656 L98.345968,182.709754 L98.790448,182.342948 L99.234927,181.976143 L99.679406,181.609337 L100.123886,181.242531 L100.568365,180.875725 L101.012844,180.508919 L101.457324,180.142113 L101.901803,179.775307 L102.346282,179.408502 L102.790762,179.041696 L103.235241,178.67489 L103.67972,178.308084 L104.1242,177.941278 L104.568679,177.574472 L105.013158,177.207667 L105.457638,176.840861 L105.902117,176.474055 L105.93894,176.441643 L105.975764,176.409231 L106.012587,176.376818 L106.04941,176.344406 L106.086233,176.311994 L106.123057,176.279582 L106.15988,176.24717 L106.196703,176.214757 L106.233527,176.182345 L106.27035,176.149933 L106.307173,176.117521 L106.343997,176.085108 L106.38082,176.052696 L106.417643,176.020284 L106.454466,175.987872 L106.49129,175.95546 L106.528113,175.923047 L106.564936,175.890635 L106.60176,175.858223 L106.638583,175.825811 L106.675406,175.793399 L106.712229,175.760986 L106.749053,175.728574 L106.785876,175.696162 L107.205805,175.302125 L107.625734,174.908088 L108.045664,174.514051 L108.465593,174.120014 L108.885522,173.725977 L109.305451,173.33194 L109.72538,172.937903 L110.145309,172.543866 L110.565239,172.149829 L110.985168,171.755792 L111.405097,171.361755 L111.825026,170.967718 L112.244955,170.573681 L112.664884,170.179644 L113.084813,169.785607 L113.504743,169.39157 L113.924672,168.997533 L114.344601,168.603496 L114.76453,168.209459 L115.184459,167.815422 L115.604388,167.421385 L116.024318,167.027348 L116.444247,166.633311 L116.864176,166.239274 L116.898833,166.204617 L116.93349,166.16996 L116.968148,166.135303 L117.002805,166.100646 L117.037462,166.065989 L117.072119,166.031332 L117.106776,165.996675 L117.141434,165.962018 L117.176091,165.927361 L117.210748,165.892704 L117.245405,165.858047 L117.280062,165.823389 L117.31472,165.788732 L117.349377,165.754075 L117.384034,165.719418 L117.418691,165.684761 L117.453349,165.650104 L117.488006,165.615447 L117.522663,165.58079 L117.55732,165.546133 L117.591977,165.511476 L117.626635,165.476819 L117.661292,165.442162 L117.695949,165.407505 L118.089988,164.987577 L118.484026,164.56765 L118.878065,164.147722 L119.272103,163.727795 L119.666142,163.307867 L120.06018,162.887939 L120.454219,162.468012 L120.848257,162.048084 L121.242296,161.628157 L121.636334,161.208229 L122.030373,160.788302 L122.424411,160.368374 L122.81845,159.948446 L123.212489,159.528519 L123.606527,159.108591 L124.000566,158.688664 L124.394604,158.268736 L124.788643,157.848808 L125.182681,157.428881 L125.57672,157.008953 L125.970758,156.589026 L126.364797,156.169098 L126.758835,155.749171 L127.152874,155.329243 L127.185286,155.29242 L127.217699,155.255597 L127.250111,155.218773 L127.282523,155.18195 L127.314936,155.145127 L127.347348,155.108304 L127.379761,155.071481 L127.412173,155.034657 L127.444585,154.997834 L127.476998,154.961011 L127.50941,154.924188 L127.541822,154.887364 L127.574235,154.850541 L127.606647,154.813718 L127.63906,154.776895 L127.671472,154.740072 L127.703884,154.703248 L127.736297,154.666425 L127.768709,154.629602 L127.801121,154.592779 L127.833534,154.555956 L127.865946,154.519132 L127.898359,154.482309 L127.930771,154.445486 L128.297578,154.001008 L128.664386,153.556531 L129.031193,153.112053 L129.398,152.667575 L129.764808,152.223098 L130.131615,151.77862 L130.498422,151.334142 L130.86523,150.889665 L131.232037,150.445187 L131.598844,150.000709 L131.965652,149.556232 L132.332459,149.111754 L132.699266,148.667276 L133.066074,148.222799 L133.432881,147.778321 L133.799688,147.333843 L134.166496,146.889366 L134.533303,146.444888 L134.90011,146.00041 L135.266918,145.555933 L135.633725,145.111455 L136.000532,144.666977 L136.36734,144.2225 L136.734147,143.778022 L136.764227,143.739107 L136.794307,143.700192 L136.824387,143.661278 L136.854467,143.622363 L136.884547,143.583448 L136.914627,143.544533 L136.944707,143.505618 L136.974787,143.466704 L137.004867,143.427789 L137.034947,143.388874 L137.065027,143.349959 L137.095107,143.311044 L137.125188,143.27213 L137.155268,143.233215 L137.185348,143.1943 L137.215428,143.155385 L137.245508,143.116471 L137.275588,143.077556 L137.305668,143.038641 L137.335748,142.999726 L137.365828,142.960811 L137.395908,142.921897 L137.425988,142.882982 L137.456068,142.844067 L137.794304,142.37638 L138.132539,141.908693 L138.470775,141.441005 L138.80901,140.973318 L139.147246,140.505631 L139.485481,140.037943 L139.823717,139.570256 L140.161952,139.102569 L140.500188,138.634882 L140.838423,138.167194 L141.176659,137.699507 L141.514894,137.23182 L141.85313,136.764133 L142.191366,136.296446 L142.529601,135.828758 L142.867837,135.361071 L143.206072,134.893384 L143.544308,134.425697 L143.882543,133.958009 L144.220779,133.490322 L144.559014,133.022635 L144.89725,132.554947 L145.235485,132.08726 L145.573721,131.619573 L145.601369,131.578643 L145.629017,131.537713 L145.656665,131.496783 L145.684313,131.455853 L145.711961,131.414923 L145.739609,131.373993 L145.767257,131.333063 L145.794905,131.292133 L145.822553,131.251203 L145.850201,131.210273 L145.877849,131.169343 L145.905498,131.128412 L145.933146,131.087482 L145.960794,131.046552 L145.988442,131.005622 L146.01609,130.964692 L146.043738,130.923762 L146.071386,130.882832 L146.099034,130.841902 L146.126682,130.800972 L146.15433,130.760042 L146.181978,130.719112 L146.209626,130.678182 L146.237274,130.637252 L146.545597,130.147696 L146.853921,129.658139 L147.162244,129.168583 L147.470567,128.679027 L147.77889,128.189471 L148.087214,127.699914 L148.395537,127.210358 L148.70386,126.720802 L149.012183,126.231245 L149.320507,125.741689 L149.62883,125.252133 L149.937153,124.762576 L150.245476,124.27302 L150.553799,123.783464 L150.862123,123.293908 L151.170446,122.804351 L151.478769,122.314795 L151.787092,121.825239 L152.095416,121.335682 L152.403739,120.846126 L152.712062,120.35657 L153.020386,119.867014 L153.328709,119.377457 L153.637032,118.887901 L153.662134,118.84504 L153.687237,118.80218 L153.712339,118.759319 L153.737442,118.716458 L153.762544,118.673598 L153.787646,118.630737 L153.812749,118.587876 L153.837851,118.545016 L153.862954,118.502155 L153.888056,118.459294 L153.913159,118.416434 L153.938261,118.373573 L153.963363,118.330712 L153.988466,118.287852 L154.013568,118.244991 L154.038671,118.20213 L154.063773,118.15927 L154.088876,118.116409 L154.113978,118.073548 L154.13908,118.030688 L154.164183,117.987827 L154.189285,117.944966 L154.214388,117.902106 L154.23949,117.859245 L154.51656,117.34916 L154.793631,116.839076 L155.070701,116.328991 L155.347772,115.818906 L155.624842,115.308821 L155.901912,114.798737 L156.178983,114.288652 L156.456053,113.778567 L156.733124,113.268482 L157.010194,112.758398 L157.287265,112.248313 L157.564335,111.738228 L157.841405,111.228143 L158.118476,110.718058 L158.395546,110.207974 L158.672617,109.697889 L158.949687,109.187804 L159.226758,108.677719 L159.503828,108.167635 L159.780898,107.65755 L160.057969,107.147465 L160.335039,106.637381 L160.61211,106.127296 L160.88918,105.617211 L160.91161,105.57252 L160.934039,105.527829 L160.956469,105.483138 L160.978899,105.438448 L161.001329,105.393757 L161.023758,105.349066 L161.046188,105.304375 L161.068618,105.259684 L161.091047,105.214993 L161.113477,105.170303 L161.135907,105.125612 L161.158337,105.080921 L161.180766,105.03623 L161.203196,104.991539 L161.225626,104.946849 L161.248055,104.902158 L161.270485,104.857467 L161.292915,104.812776 L161.315344,104.768085 L161.337774,104.723394 L161.360204,104.678703 L161.382634,104.634013 L161.405063,104.589322 L161.427493,104.544631 L161.67197,104.015358 L161.916447,103.486086 L162.160924,102.956813 L162.405401,102.42754 L162.649878,101.898267 L162.894355,101.368994 L163.138832,100.839722 L163.383309,100.310449 L163.627786,99.781176 L163.872263,99.251903 L164.11674,98.722631 L164.361217,98.193358 L164.605694,97.664085 L164.850171,97.134812 L165.094648,96.60554 L165.339125,96.076267 L165.583602,95.546994 L165.828079,95.017721 L166.072556,94.488449 L166.317033,93.959176 L166.56151,93.429903 L166.805987,92.900631 L167.050464,92.371358 L167.294941,91.842085 L167.314559,91.795688 L167.334178,91.74929 L167.353796,91.702893 L167.373414,91.656495 L167.393033,91.610098 L167.412651,91.5637 L167.43227,91.517303 L167.451888,91.470906 L167.471506,91.424508 L167.491125,91.378111 L167.510743,91.331713 L167.530361,91.285316 L167.54998,91.238919 L167.569598,91.192521 L167.589217,91.146124 L167.608835,91.099726 L167.628453,91.053329 L167.648072,91.006932 L167.66769,90.960534 L167.687309,90.914137 L167.706927,90.867739 L167.726545,90.821342 L167.746164,90.774944 L167.765782,90.728547 L167.976325,90.181427 L168.186868,89.634307 L168.397411,89.087187 L168.607954,88.540066 L168.818497,87.992946 L169.02904,87.445826 L169.239583,86.898706 L169.450126,86.351586 L169.660669,85.804466 L169.871212,85.257345 L170.081755,84.710225 L170.292299,84.163105 L170.502842,83.615985 L170.713385,83.068865 L170.923928,82.521744 L171.134471,81.974624 L171.345014,81.427504 L171.555557,80.880384 L171.7661,80.333264 L171.976643,79.786144 L172.187186,79.239024 L172.397729,78.691903 L172.608272,78.144783 L172.818815,77.597663 L172.835476,77.549712 L172.852138,77.501762 L172.868799,77.453811 L172.88546,77.405861 L172.902122,77.35791 L172.918783,77.30996 L172.935445,77.262009 L172.952106,77.214059 L172.968767,77.166108 L172.985429,77.118158 L173.00209,77.070207 L173.018752,77.022256 L173.035413,76.974306 L173.052074,76.926355 L173.068736,76.878405 L173.085397,76.830454 L173.102058,76.782504 L173.11872,76.734553 L173.135381,76.686603 L173.152042,76.638652 L173.168704,76.590702 L173.185365,76.542751 L173.202027,76.494801 L173.218688,76.44685 L173.393957,75.883223 L173.569225,75.319596 L173.744494,74.755969 L173.919762,74.192342 L174.095031,73.628715 L174.270299,73.065088 L174.445568,72.50146 L174.620837,71.937833 L174.796105,71.374206 L174.971374,70.810579 L175.146642,70.246952 L175.321911,69.683325 L175.49718,69.119698 L175.672448,68.556071 L175.847717,67.992444 L176.022985,67.428817 L176.198254,66.86519 L176.373523,66.301563 L176.548791,65.737935 L176.72406,65.174308 L176.899328,64.610681 L177.074597,64.047054 L177.249865,63.483427 L177.425134,62.9198 L177.438692,62.870486 L177.45225,62.821172 L177.465809,62.771858 L177.479367,62.722544 L177.492925,62.67323 L177.506483,62.623916 L177.520041,62.574602 L177.533599,62.525288 L177.547157,62.475974 L177.560716,62.42666 L177.574274,62.377346 L177.587832,62.328032 L177.60139,62.278718 L177.614948,62.229404 L177.628507,62.18009 L177.642065,62.130776 L177.655623,62.081462 L177.669181,62.032148 L177.682739,61.982834 L177.696297,61.93352 L177.709856,61.884206 L177.723414,61.834892 L177.736972,61.785578 L177.75053,61.736264 L177.889184,61.157471 L178.027837,60.578677 L178.166491,59.999884 L178.305144,59.42109 L178.443798,58.842297 L178.582451,58.263503 L178.721105,57.68471 L178.859758,57.105916 L178.998412,56.527123 L179.137065,55.948329 L179.275719,55.369536 L179.414373,54.790743 L179.553026,54.211949 L179.69168,53.633156 L179.830333,53.054362 L179.968987,52.475569 L180.10764,51.896775 L180.246294,51.317982 L180.384947,50.739188 L180.523601,50.160395 L180.662254,49.581601 L180.800908,49.002808 L180.939561,48.424014 L181.078215,47.845221 L181.088532,47.794773 L181.098848,47.744325 L181.109165,47.693877 L181.119482,47.64343 L181.129798,47.592982 L181.140115,47.542534 L181.150431,47.492086 L181.160748,47.441638 L181.171065,47.391191 L181.181381,47.340743 L181.191698,47.290295 L181.202015,47.239847 L181.212331,47.189399 L181.222648,47.138951 L181.232964,47.088504 L181.243281,47.038056 L181.253598,46.987608 L181.263914,46.93716 L181.274231,46.886712 L181.284548,46.836264 L181.294864,46.785817 L181.305181,46.735369 L181.315497,46.684921 L181.325814,46.634473 L181.426512,46.041854 L181.52721,45.449234 L181.627908,44.856615 L181.728606,44.263996 L181.829304,43.671377 L181.930002,43.078757 L182.0307,42.486138 L182.131398,41.893519 L182.232096,41.300899 L182.332794,40.70828 L182.433492,40.115661 L182.53419,39.523042 L182.634887,38.930422 L182.735585,38.337803 L182.836283,37.745184 L182.936981,37.152564 L183.037679,36.559945 L183.138377,35.967326 L183.239075,35.374706 L183.339773,34.782087 L183.440471,34.189468 L183.541169,33.596849 L183.641867,33.004229 L183.742565,32.41161 L183.74952,32.3603 L183.756474,32.30899 L183.763429,32.25768 L183.770383,32.20637 L183.777338,32.15506 L183.784292,32.10375 L183.791247,32.05244 L183.798202,32.00113 L183.805156,31.94982 L183.812111,31.89851 L183.819065,31.8472 L183.82602,31.79589 L183.832975,31.74458 L183.839929,31.69327 L183.846884,31.64196 L183.853838,31.59065 L183.860793,31.53934 L183.867748,31.48803 L183.874702,31.43672 L183.881657,31.38541 L183.888611,31.3341 L183.895566,31.28279 L183.90252,31.23148 L183.909475,31.18017 L183.970877,30.575065 L184.032279,29.969961 L184.093681,29.364856 L184.155082,28.759752 L184.216484,28.154647 L184.277886,27.549542 L184.339288,26.944438 L184.40069,26.339333 L184.462092,25.734228 L184.523494,25.129124 L184.584896,24.524019 L184.646298,23.918914 L184.707699,23.31381 L184.769101,22.708705 L184.830503,22.103601 L184.891905,21.498496 L184.953307,20.893391 L185.014709,20.288287 L185.076111,19.683182 L185.137512,19.078077 L185.198914,18.472973 L185.260316,17.867868 L185.321718,17.262764 L185.38312,16.657659 L185.386621,16.605799 L185.390122,16.553939 L185.393623,16.502079 L185.397124,16.450219 L185.400625,16.398359 L185.404125,16.3465 L185.407626,16.29464 L185.411127,16.24278 L185.414628,16.19092 L185.418129,16.13906 L185.42163,16.0872 L185.425131,16.03534 L185.428632,15.98348 L185.432133,15.93162 L185.435634,15.87976 L185.439135,15.8279 L185.442636,15.77604 L185.446136,15.72418 L185.449637,15.672321 L185.453138,15.620461 L185.456639,15.568601 L185.46014,15.516741 L185.463641,15.464881 L185.467142,15.413021 L185.487907,14.796772 L185.508672,14.180522 L185.529438,13.564273 L185.550203,12.948024 L185.570968,12.331774 L185.591733,11.715525 L185.612498,11.099275 L185.633263,10.483026 L185.654029,9.866777 L185.674794,9.250527 L185.695559,8.634278 L185.716324,8.018028 L185.737089,7.401779 L185.757854,6.78553 L185.778619,6.16928 L185.799385,5.553031 L185.82015,4.936782 L185.840915,4.320532 L185.86168,3.704283 L185.882445,3.088033 L185.903211,2.471784 L185.923976,1.855535 L185.944741,1.239285 L185.965506,0.623036 L185.965506,0.623036 L185.96427,0.546319 L185.963035,0.469603 L185.961799,0.392886 L185.960563,0.31617 L185.959328,0.239453 L185.958092,0.162737 L185.956856,0.08602 L185.955621,0.009304 L185.955471,0 L141.313018,0 Z" fill="#121212"/>
  <path d="M366.326987,496.903877 L376.730185,491.308889 L386.712203,485.076578 L396.246023,478.232549 L405.304628,470.802405 L413.861,462.81175 L421.888122,454.286189 L429.358977,445.251326 L436.246547,435.732766 L442.523815,425.756111 L448.163763,415.346967 L453.139375,404.530937 L457.423633,393.333627 L460.989519,381.780639 L463.810016,369.897578 L465.858106,357.710049 L467.106774,345.243655 L467.529,332.524 L467.529,332.524 L467.865175,322.353608 L468.859482,312.387949 L470.490596,302.647297 L472.73719,293.151926 L475.577938,283.922111 L478.991516,274.978125 L482.956595,266.340244 L487.451852,258.028741 L492.455959,250.063891 L497.947591,242.465968 L500,239.981951 L500,188.303115 L492.753934,194.246499 L484.1975,202.237125 L476.170316,210.762652 L468.699399,219.797475 L461.81177,229.31599 L455.534444,239.292593 L449.894442,249.701678 L444.918781,260.517641 L440.63448,271.714877 L437.068556,283.267782 L434.248027,295.150752 L432.199913,307.338181 L430.951231,319.804465 L430.529,332.524 L430.529,332.524 L430.192825,342.694512 L429.198519,352.660281 L427.567406,362.401033 L425.320815,371.896495 L422.480071,381.126393 L419.0665,390.070453 L415.101429,398.708401 L410.606185,407.019963 L405.602094,414.984865 L400.110481,422.582834 L394.152675,429.793595 L387.75,436.596875 L380.923784,442.9724 L373.695352,448.899895 L366.086031,454.359088 L358.117148,459.329704 L349.810029,463.791469 L341.186,467.724109 L332.266388,471.107351 L323.072519,473.920921 L313.625719,476.144545 L303.947315,477.757948 L294.058633,478.740858 L283.981,479.073 L283.981,479.073 L273.810488,478.736825 L263.844719,477.742518 L254.103967,476.111404 L244.608505,473.86481 L235.378607,471.024062 L226.434547,467.610484 L217.796599,463.645405 L209.485037,459.150148 L201.520135,454.146041 L193.922166,448.654409 L186.711405,442.696578 L179.908125,436.293875 L173.5326,429.467625 L167.605105,422.239153 L162.145912,414.629787 L157.175296,406.660852 L152.713531,398.353674 L148.780891,389.729578 L145.397649,380.809892 L142.584079,371.61594 L140.360455,362.169049 L138.747052,352.490545 L137.764142,342.601753 L137.432,332.524 L137.432,332.524 L137.768175,322.353608 L138.762482,312.387949 L140.393596,302.647297 L142.64019,293.151926 L145.480938,283.922111 L148.894516,274.978125 L152.859595,266.340244 L157.354852,258.028741 L162.358959,250.063891 L167.850591,242.465968 L173.808422,235.255246 L180.211125,228.452 L187.037375,222.076504 L194.265847,216.149032 L201.875213,210.689859 L209.844148,205.719259 L218.151326,201.257506 L226.775422,197.324875 L235.695108,193.941639 L244.88906,191.128074 L254.335951,188.904453 L264.014455,187.291051 L273.903247,186.308142 L283.981,185.976 L283.981,185.976 L296.742672,185.553678 L309.26919,184.304007 L321.533182,182.25293 L333.507273,179.426389 L345.164092,175.850328 L356.476266,171.550688 L367.416421,166.553413 L377.957185,160.884446 L388.071186,154.569728 L397.731049,147.635204 L406.909403,140.106815 L415.578875,132.010504 L423.712092,123.372215 L431.28168,114.217889 L438.260268,104.573469 L444.620481,94.464899 L450.334949,83.918121 L455.376297,72.959077 L459.717153,61.613711 L463.330144,49.907965 L466.187896,37.867781 L468.263039,25.519103 L469.528198,12.887874 L469.956,0 L469.956,0 L468.414333,0 L466.872667,0 L465.331,0 L463.789333,0 L462.247667,0 L460.706,0 L459.164333,0 L457.622667,0 L456.081,0 L454.539333,0 L452.997667,0 L451.456,0 L449.914333,0 L448.372667,0 L446.831,0 L445.289333,0 L443.747667,0 L442.206,0 L440.664333,0 L439.122667,0 L437.581,0 L436.039333,0 L434.497667,0 L432.956,0 L432.614249,10.338768 L431.603451,20.469412 L429.945287,30.371345 L427.66144,40.023954 L424.773591,49.406629 L421.303422,58.498757 L417.272615,67.279727 L412.702852,75.728926 L407.615814,83.825742 L402.033185,91.549565 L395.976644,98.87978 L389.467875,105.795778 L382.528559,112.276946 L375.180378,118.302671 L367.445014,123.852343 L359.344148,128.905349 L350.899463,133.441077 L342.132641,137.438916 L333.065362,140.878253 L323.71931,143.738477 L314.116166,145.998975 L304.277612,147.639137 L294.225329,148.638349 L283.981,148.976 L283.981,148.976 L271.386019,149.392811 L259.023087,150.626173 L246.919223,152.650482 L235.101444,155.440134 L223.59677,158.969524 L212.432219,163.213047 L201.634808,168.145098 L191.231556,173.740074 L181.24948,179.972369 L171.715601,186.816379 L162.656934,194.246499 L154.1005,202.237125 L146.073316,210.762652 L138.602399,219.797475 L131.71477,229.31599 L125.437444,239.292593 L119.797442,249.701678 L114.821781,260.517641 L110.53748,271.714877 L106.971556,283.267782 L104.151027,295.150752 L102.102913,307.338181 L100.854231,319.804465 L100.432,332.524 L100.432,332.524 L100.848811,345.118981 L102.082174,357.481913 L104.106484,369.585777 L106.896139,381.403556 L110.425533,392.90823 L114.669063,404.072781 L119.601123,414.870192 L125.196111,425.273444 L131.428422,435.25552 L138.272451,444.789399 L145.702595,453.848066 L153.69325,462.4045 L162.218811,470.431684 L171.253674,477.902601 L180.772234,484.79023 L190.748889,491.067556 L201.158033,496.707558 L208.315103,500 L359.548894,500 Z M231.435667,0 L229.894,0 L228.352333,0 L226.810667,0 L225.269,0 L223.727333,0 L222.185667,0 L220.644,0 L219.102333,0 L217.560667,0 L216.019,0 L214.477333,0 L212.935667,0 L211.394,0 L209.852333,0 L208.310667,0 L206.769,0 L205.227333,0 L203.685667,0 L202.144,0 L200.602333,0 L199.060667,0 L197.519,0 L197.519,0 L197.715534,5.926571 L198.29706,11.744893 L199.251469,17.442188 L200.566648,23.005657 L202.230487,28.422501 L204.230875,33.679922 L206.5557,38.765119 L209.192852,43.665295 L212.130219,48.367651 L215.35569,52.859386 L218.857154,57.127703 L222.6225,61.159803 L226.639617,64.942886 L230.896394,68.464153 L235.380719,71.710806 L240.080481,74.670045 L244.983571,77.329072 L250.077875,79.675088 L255.351284,81.695293 L260.791685,83.376889 L266.386969,84.707077 L272.125023,85.673057 L277.993737,86.262031 L283.981,86.4612 L283.981,86.4612 L289.907528,86.264669 L295.72583,85.683152 L301.423107,84.728758 L306.98656,83.413598 L312.40339,81.749782 L317.660797,79.749423 L322.745983,77.42463 L327.646148,74.787513 L332.348494,71.850185 L336.840222,68.624755 L341.108532,65.123334 L345.140625,61.358033 L348.923703,57.340962 L352.444966,53.084233 L355.691615,48.599955 L358.650852,43.90024 L361.309877,38.997199 L363.655891,33.902941 L365.676095,28.629579 L367.35769,23.189221 L368.687877,17.59398 L369.653857,11.855966 L370.242831,5.987289 L370.442,0 L368.900333,0 L367.358667,0 L365.817,0 L364.275333,0 L362.733667,0 L361.192,0 L359.650333,0 L358.108667,0 L356.567,0 L355.025333,0 L353.483667,0 L351.942,0 L350.400333,0 L348.858667,0 L347.317,0 L345.775333,0 L344.233667,0 L342.692,0 L341.150333,0 L339.608667,0 L338.067,0 L336.525333,0 L334.983667,0 L333.442,0 L333.442,0 L333.328883,3.438127 L332.994269,6.80617 L332.445268,10.0974 L331.688986,13.305038 L330.732533,16.422301 L329.583016,19.442411 L328.247543,22.358585 L326.733222,25.164045 L325.047162,27.852008 L323.19647,30.415696 L321.188255,32.848326 L319.029625,35.143119 L316.727687,37.293294 L314.28955,39.29207 L311.722322,41.132668 L309.033111,42.808306 L306.229025,44.312203 L303.317172,45.63758 L300.30466,46.777656 L297.198597,47.725651 L294.006092,48.474783 L290.734252,49.018272 L287.390185,49.349338 L283.981,49.4612 L283.981,49.4612 L280.54288,49.348084 L277.174791,49.013475 L273.883514,48.46448 L270.675829,47.708206 L267.558517,46.751762 L264.538359,45.602255 L261.622137,44.266793 L258.81663,42.752483 L256.128619,41.066432 L253.564886,39.21575 L251.132211,37.207542 L248.837375,35.048917 L246.687159,32.746982 L244.688343,30.308845 L242.847709,27.741613 L241.172037,25.052395 L239.668108,22.248297 L238.342703,19.336428 L237.202603,16.323895 L236.254588,13.217805 L235.505439,10.025266 L234.961938,6.753386 L234.630865,3.409273 L234.519,0 L232.977333,0 Z" fill="#121212" fill-rule="evenodd"/>
</svg>
