<svg xmlns="http://www.w3.org/2000/svg" viewBox="125 250 125 125" width="200" height="200">
  <rect x="125" y="250" width="125" height="125" fill="#F3F3F3"/>
  <path d="M81.042548,345.605503 L297.062448,129.586503 L298.298127,128.221222 L299.391957,126.739862 L300.333101,125.157098 L301.112233,123.488612 L301.721636,121.750935 L302.15527,119.961283 L302.408841,118.137388 L302.479834,116.297319 L302.367548,114.459308 L302.073094,112.641565 L301.59939,110.862099 L300.951129,109.138542 L300.134735,107.487968 L299.158294,105.926733 L298.031483,104.470303 L296.765464,103.133108 L295.372781,101.928398 L293.867232,100.868107 L292.263734,99.962742 L290.578174,99.221271 L288.827251,98.651041 L287.028313,98.257702 L285.199183,98.045151 L283.357985,98.015493 L268.567878,98.513855 L267.323255,98.597876 L252.800635,100.071513 L251.569208,100.238419 L237.346245,102.655159 L236.135507,102.902752 L222.244375,106.230421 L221.060846,106.555811 L207.533716,110.762237 L206.382909,111.162104 L193.251954,116.215115 L192.138417,116.68595 L179.435809,122.553372 L178.36323,123.09168 L166.121141,129.74134 L165.092483,130.343794 L153.343085,137.743521 L152.360761,138.40707 L141.136226,146.52469 L140.202267,147.246609 L129.534769,156.049949 L128.651007,156.827846 L118.572716,166.284734 L117.740941,167.116507 L108.284031,177.19477 L107.506131,178.07853 L98.702774,188.745995 L97.980851,189.679953 L89.863218,200.904448 L89.199665,201.886772 L81.799929,213.636124 L81.197471,214.664782 L74.547804,226.906817 L74.009492,227.979397 L68.142066,240.681944 L67.671227,241.795483 L62.618215,254.926368 L62.218344,256.077179 L58.011918,269.60423 L57.686524,270.787764 L54.358856,284.678808 L54.111259,285.889551 L51.694521,300.112416 L51.527612,301.34385 L50.053976,315.866362 L49.969955,317.110993 L49.471594,331.90098 L49.50125,333.742176 L49.7138,335.571303 L50.107137,337.370238 L50.677365,339.121158 L51.418833,340.806717 L52.324195,342.410213 L53.384482,343.915761 L54.589188,345.308443 L55.926379,346.574462 L57.382804,347.701274 L58.944035,348.677716 L60.594604,349.494113 L62.318158,350.142377 L64.097619,350.616084 L65.915358,350.910542 L67.753366,351.022834 L69.593432,350.951846 L71.417325,350.698281 L73.206976,350.264654 L74.944652,349.655258 L76.613138,348.876133 L78.195903,347.934996 L79.677265,346.841174 Z M93.275844,281.046465 L93.525431,280.004589 L97.36854,267.645896 L101.985443,255.648296 L107.347495,244.039846 L113.425954,232.849406 L120.19185,222.106471 L127.615907,211.841004 L135.668516,202.083259 L144.31975,192.863608 L153.539426,184.212395 L163.297203,176.159801 L173.562709,168.735754 L184.305691,161.969864 L195.496186,155.891409 L207.104698,150.529357 L219.102372,145.912453 L231.461147,142.069341 L232.503168,141.819721 Z" fill="#121212"/>
  <path d="M229.100379,345.605572 L297.062379,277.644572 L298.297745,276.27969 L299.391343,274.798787 L300.332345,273.216527 L301.111432,271.548578 L301.72089,269.811456 L302.154684,268.022363 L302.408519,266.199015 L302.47988,264.359466 L302.368062,262.521933 L302.074171,260.704611 L301.601118,258.925496 L300.953586,257.202204 L300.137989,255.551801 L299.162402,253.990628 L298.036485,252.534145 L296.771388,251.196775 L295.379638,249.991759 L293.875016,248.931031 L292.272421,248.025094 L290.587723,247.282919 L288.837604,246.711855 L287.039394,246.317556 L285.210899,246.103928 L283.370226,246.073085 L278.702249,246.227282 L277.479513,246.308279 L272.898219,246.764572 L271.684412,246.926192 L267.199753,247.675134 L266.001999,247.916061 L261.623928,248.948209 L260.44864,249.266456 L256.187111,250.572362 L255.039942,250.965469 L250.904908,252.535688 L249.790767,253.00091 L245.792181,254.825996 L244.715292,255.360463 L240.863107,257.430971 L239.827105,258.031821 L236.131274,260.338304 L235.139332,261.002765 L231.609808,263.535778 L230.664765,264.26122 L227.311502,267.011317 L226.416004,267.795249 L223.248954,270.752985 L222.405573,271.593026 L219.43469,274.748954 L218.646031,275.642761 L215.881268,278.987436 L215.150052,279.932603 L212.601362,283.456579 L211.930468,284.450519 L209.607804,288.144351 L209.000279,289.184158 L206.913594,293.0384 L206.372626,294.120713 L204.531874,298.125919 L204.060707,299.246786 L202.47584,303.39351 L202.077662,304.548276 L200.758633,308.827072 L200.43641,310.010299 L199.393174,314.411722 L199.149468,315.617159 L198.391976,320.131763 L198.228734,321.35237 L197.76694,325.970709 L197.685289,327.198748 L197.529146,331.911377 L197.559809,333.752119 L197.773272,335.5807 L198.167421,337.37901 L198.738352,339.129241 L199.480412,340.814061 L200.386253,342.416786 L201.446903,343.921543 L202.651859,345.313431 L203.989189,346.578667 L205.44565,347.70472 L207.006817,348.68044 L208.657231,349.496164 L210.380548,350.143814 L212.159702,350.616977 L213.977075,350.910967 L215.814668,351.022872 L217.654285,350.951584 L219.477708,350.697809 L221.26688,350.264061 L223.004082,349.654634 L224.672112,348.875564 L226.25445,347.934566 L227.735428,346.840959 Z" fill="#121212"/>
  <path d="M297.062379,387.403428 L229.100379,319.442428 L227.735488,318.20709 L226.254579,317.113519 L224.672316,316.172544 L223.004367,315.393482 L221.267249,314.784048 L219.478162,314.350277 L217.654822,314.096464 L215.815285,314.025122 L213.977764,314.136957 L212.160456,314.430862 L210.381355,314.903927 L208.658079,315.551468 L207.007691,316.367072 L205.446535,317.342664 L203.990067,318.468582 L202.652711,319.733678 L201.44771,321.125426 L200.386994,322.630042 L199.481068,324.23263 L198.738902,325.91732 L198.167845,327.667429 L197.773552,329.465629 L197.559927,331.294113 L197.529085,333.134775 L197.683282,337.802747 L197.76428,339.02549 L198.220573,343.606769 L198.382196,344.820589 L199.13114,349.305225 L199.372073,350.502997 L200.404222,354.881037 L200.722479,356.056347 L202.028389,360.317838 L202.42151,361.465031 L203.991736,365.600021 L204.456976,366.714187 L206.282071,370.712723 L206.816561,371.789637 L208.88708,375.641768 L209.487956,376.677793 L211.794454,380.373566 L212.458944,381.365528 L214.991977,384.894991 L215.717448,385.840048 L218.467569,389.19325 L219.251531,390.088757 L222.209295,393.255744 L223.049365,394.099128 L226.205327,397.069949 L227.099158,397.858603 L230.443873,400.623305 L231.38906,401.354511 L234.913083,403.903142 L235.907036,404.574021 L239.60092,406.896628 L240.640734,407.504131 L244.495035,409.590763 L245.577345,410.131707 L249.582618,411.97241 L250.703472,412.44355 L254.85027,414.028373 L256.005011,414.426524 L260.28389,415.745515 L261.467082,416.067712 L265.868596,417.110918 L267.073987,417.354602 L271.588691,418.112071 L272.809241,418.275296 L277.42769,418.737076 L278.655664,418.818717 L283.368412,418.974855 L285.209164,418.944188 L287.037754,418.730719 L288.836073,418.336562 L290.586311,417.765621 L292.271137,417.02355 L293.873866,416.117697 L295.378625,415.057033 L296.770514,413.852062 L298.035748,412.514716 L299.161797,411.05824 L300.13751,409.497057 L300.953225,407.846628 L301.600864,406.123296 L302.074013,404.344128 L302.367987,402.526743 L302.479874,400.689138 L302.408566,398.849512 L302.154769,397.026082 L301.720998,395.236906 L301.111546,393.499702 L300.332451,391.831674 L299.391427,390.249339 L298.297793,388.768369 Z" fill="#121212"/>
  <path d="M277.997683,345.959375 L297.415683,326.542375 L298.684472,325.140616 L299.807661,323.619697 L300.77413,321.994676 L301.574307,320.281647 L302.200268,318.497572 L302.645816,316.660118 L302.906538,314.787479 L302.979853,312.8982 L302.865034,311.010988 L302.563218,309.144531 L302.077395,307.317313 L301.412375,305.547426 L300.574743,303.852397 L299.572794,302.24901 L298.416449,300.753142 L297.11716,299.379607 L295.687791,298.142006 L294.142498,297.052594 L292.496581,296.122157 L290.766341,295.359911 L288.968909,294.773403 L287.122085,294.368441 L285.244158,294.149035 L283.353722,294.117358 L282.020029,294.161413 L280.764261,294.244598 L279.455329,294.374965 L278.208741,294.540948 L276.927414,294.754928 L275.697319,295.002356 L274.446442,295.29725 L273.239425,295.624082 L272.021841,295.997191 L270.843706,296.400901 L269.662259,296.849526 L268.518046,297.327293 L267.375581,297.848736 L266.269623,298.397615 L265.168984,298.989177 L264.105013,299.606227 L263.049045,300.265209 L262.030318,300.947587 L261.021864,301.671291 L260.051297,302.416296 L259.093201,303.202022 L258.173509,304.007099 L257.268615,304.85215 L256.402439,305.714856 L255.553593,306.616531 L254.74361,307.534461 L253.953655,308.490062 L253.202657,309.460748 L252.474437,310.467577 L251.785384,311.488364 L251.121743,312.543722 L250.497767,313.611628 L249.90155,314.712815 L249.345923,315.82439 L248.819974,316.968708 L248.336034,318.119893 L247.883197,319.304643 L247.474217,320.490657 L247.097336,321.713142 L246.766369,322.928401 L246.468288,324.18592 L246.217965,325.424003 L246.001529,326.713858 L245.833853,327.967532 L245.701905,329.287024 L245.618036,330.548342 L245.573422,331.894773 L245.604908,333.785252 L245.824132,335.663242 L246.228923,337.510145 L246.815273,339.30767 L247.577374,341.038019 L248.507681,342.684055 L249.596979,344.229478 L250.834483,345.658985 L252.207938,346.958418 L253.703742,348.114911 L255.307082,349.11701 L257.002083,349.954793 L258.771957,350.619961 L260.599179,351.10593 L262.465653,351.407886 L264.352897,351.522838 L266.242222,351.44965 L268.114918,351.189044 L269.95244,350.743603 L271.736591,350.117737 L273.449704,349.317644 L275.074814,348.351248 L276.595828,347.228117 Z" fill="#121212"/>
  <path d="M297.416029,338.506971 L277.998029,319.088971 L276.596253,317.820231 L275.075323,316.69709 L273.450298,315.73067 L271.73727,314.930539 L269.953201,314.304622 L268.115757,313.859115 L266.243134,313.598431 L264.353873,313.525151 L262.466683,313.64 L260.600252,313.941841 L258.77306,314.427686 L257.003201,315.092722 L255.3082,315.930366 L253.704842,316.932323 L252.209002,318.08867 L250.835494,319.387959 L249.597918,320.817322 L248.508528,322.362606 L247.578111,324.008511 L246.815882,325.738736 L246.229387,327.536151 L245.824434,329.382956 L245.605034,331.260864 L245.573358,333.151279 L245.617413,334.484972 L245.700599,335.740746 L245.830966,337.049678 L245.996952,338.296279 L246.210933,339.577605 L246.458367,340.807718 L246.753264,342.058596 L247.080105,343.265635 L247.453219,344.483219 L247.856943,345.661381 L248.305575,346.842827 L248.783361,347.98707 L249.304814,349.129534 L249.853717,350.235522 L250.445291,351.336161 L251.062371,352.400159 L251.72137,353.456128 L252.403782,354.47488 L253.127505,355.483334 L253.872548,356.453923 L254.658298,357.412019 L255.463416,358.331727 L256.308494,359.23662 L257.171241,360.102805 L258.07295,360.951651 L258.990918,361.761636 L259.946559,362.551592 L260.917278,363.302583 L261.924153,364.030802 L262.944966,364.719841 L264.000376,365.383482 L265.0683,366.007437 L266.169546,366.603654 L267.281126,367.159252 L268.425511,367.685201 L269.576686,368.169108 L270.761511,368.621945 L271.947499,369.030889 L273.170065,369.40777 L274.385281,369.738703 L275.642891,370.036783 L276.880911,370.287075 L278.170866,370.503511 L279.424458,370.671163 L280.74406,370.80311 L282.005278,370.886965 L283.351829,370.93158 L285.242326,370.900087 L287.120333,370.680852 L288.967251,370.276048 L290.76479,369.689681 L292.49515,368.92756 L294.141194,367.997232 L295.686622,366.907908 L297.11613,365.670378 L298.41556,364.296896 L299.572046,362.801064 L300.574134,361.197695 L301.411901,359.502667 L302.07705,357.732766 L302.562994,355.90552 L302.864922,354.039022 L302.979842,352.151758 L302.906618,350.262416 L302.645973,348.389708 L302.20049,346.552178 L301.57458,344.768023 L300.774441,343.054911 L299.807997,341.429808 L298.684819,339.908808 Z" fill="#121212"/>
  <path d="M261.059182,499.459198 L252.058357,490.458364 L243.057532,481.457531 L234.056707,472.456698 L225.055882,463.455864 L216.055057,454.455031 L207.054232,445.454198 L198.053407,436.453364 L189.052582,427.452531 L180.051757,418.451698 L171.050932,409.450864 L162.050107,400.450031 L153.049282,391.449198 L144.048457,382.448364 L135.047632,373.447531 L126.046807,364.446698 L117.045982,355.445864 L108.045157,346.445031 L99.044332,337.444198 L90.043507,328.443364 L81.042682,319.442531 L81.042682,319.442531 L80.985795,319.391044 L80.928909,319.339558 L80.872022,319.288072 L80.815135,319.236585 L80.758248,319.185098 L80.701362,319.133612 L80.644475,319.082125 L80.587588,319.030639 L80.530701,318.979152 L80.473815,318.927666 L80.416928,318.876179 L80.360041,318.824693 L80.303154,318.773207 L80.246268,318.72172 L80.189381,318.670233 L80.132494,318.618747 L80.075607,318.567261 L80.018721,318.515774 L79.961834,318.464288 L79.904947,318.412801 L79.84806,318.361314 L79.791173,318.309828 L79.734287,318.258342 L79.6774,318.206855 L79.615677,318.161279 L79.553953,318.115703 L79.49223,318.070127 L79.430507,318.024551 L79.368783,317.978974 L79.30706,317.933398 L79.245336,317.887822 L79.183613,317.842246 L79.12189,317.79667 L79.060166,317.751094 L78.998443,317.705518 L78.93672,317.659942 L78.874996,317.614365 L78.813273,317.568789 L78.751549,317.523213 L78.689826,317.477637 L78.628103,317.432061 L78.566379,317.386485 L78.504656,317.340909 L78.442932,317.295332 L78.381209,317.249756 L78.319486,317.20418 L78.257762,317.158604 L78.196039,317.113028 L78.13009,317.073814 L78.064142,317.0346 L77.998193,316.995385 L77.932245,316.956171 L77.866297,316.916957 L77.800348,316.877743 L77.734399,316.838529 L77.668451,316.799314 L77.602502,316.7601 L77.536554,316.720886 L77.470606,316.681672 L77.404657,316.642457 L77.338708,316.603243 L77.27276,316.564029 L77.206812,316.524815 L77.140863,316.485601 L77.074915,316.446386 L77.008966,316.407172 L76.943017,316.367958 L76.877069,316.328744 L76.811121,316.28953 L76.745172,316.250315 L76.679224,316.211101 L76.613275,316.171887 L76.543755,316.139423 L76.474234,316.10696 L76.404714,316.074496 L76.335194,316.042032 L76.265674,316.009568 L76.196154,315.977104 L76.126633,315.944641 L76.057113,315.912177 L75.987593,315.879713 L75.918072,315.84725 L75.848552,315.814786 L75.779032,315.782322 L75.709512,315.749858 L75.639991,315.717395 L75.570471,315.684931 L75.500951,315.652467 L75.431431,315.620003 L75.36191,315.58754 L75.29239,315.555076 L75.22287,315.522612 L75.15335,315.490148 L75.08383,315.457685 L75.014309,315.425221 L74.944789,315.392757 L74.872386,315.367365 L74.799983,315.341974 L74.72758,315.316582 L74.655176,315.29119 L74.582773,315.265799 L74.51037,315.240407 L74.437967,315.215015 L74.365564,315.189624 L74.29316,315.164232 L74.220757,315.13884 L74.148354,315.113449 L74.075951,315.088057 L74.003548,315.062665 L73.931145,315.037274 L73.858742,315.011882 L73.786338,314.98649 L73.713935,314.961099 L73.641532,314.935707 L73.569129,314.910315 L73.496726,314.884924 L73.424323,314.859532 L73.351919,314.83414 L73.279516,314.808749 L73.207113,314.783357 L73.132544,314.765289 L73.057975,314.747221 L72.983407,314.729153 L72.908838,314.711085 L72.834269,314.693017 L72.7597,314.674949 L72.685131,314.656881 L72.610562,314.638813 L72.535994,314.620745 L72.461425,314.602677 L72.386856,314.584609 L72.312287,314.566541 L72.237718,314.548473 L72.163149,314.530405 L72.088581,314.512337 L72.014012,314.494269 L71.939443,314.476201 L71.864874,314.458133 L71.790305,314.440065 L71.715736,314.421997 L71.641168,314.403929 L71.566599,314.385861 L71.49203,314.367793 L71.417461,314.349725 L71.341465,314.33916 L71.26547,314.328594 L71.189474,314.318029 L71.113479,314.307464 L71.037483,314.296899 L70.961488,314.286333 L70.885492,314.275768 L70.809496,314.265203 L70.733501,314.254637 L70.657505,314.244072 L70.58151,314.233507 L70.505514,314.222941 L70.429518,314.212376 L70.353523,314.201811 L70.277527,314.191246 L70.201532,314.18068 L70.125536,314.170115 L70.04954,314.15955 L69.973545,314.148984 L69.897549,314.138419 L69.821554,314.127854 L69.745558,314.117289 L69.669563,314.106723 L69.593567,314.096158 L69.516897,314.0932 L69.440228,314.090242 L69.363558,314.087284 L69.286889,314.084326 L69.210219,314.081368 L69.13355,314.07841 L69.05688,314.075452 L68.980211,314.072494 L68.903542,314.069536 L68.826872,314.066578 L68.750203,314.06362 L68.673533,314.060662 L68.596863,314.057704 L68.520194,314.054746 L68.443524,314.051788 L68.366855,314.04883 L68.290186,314.045872 L68.213516,314.042914 L68.136847,314.039956 L68.060177,314.036998 L67.983508,314.03404 L67.906838,314.031082 L67.830168,314.028124 L67.753499,314.025166 L67.676915,314.029845 L67.600332,314.034523 L67.523748,314.039202 L67.447164,314.043881 L67.37058,314.048559 L67.293997,314.053238 L67.217413,314.057917 L67.140829,314.062595 L67.064246,314.067274 L66.987662,314.071953 L66.911078,314.076631 L66.834495,314.08131 L66.757911,314.085989 L66.681327,314.090667 L66.604743,314.095346 L66.52816,314.100025 L66.451576,314.104703 L66.374992,314.109382 L66.298409,314.114061 L66.221825,314.118739 L66.145241,314.123418 L66.068657,314.128097 L65.992074,314.132775 L65.91549,314.137454 L65.839751,314.149723 L65.764012,314.161992 L65.688272,314.174261 L65.612533,314.18653 L65.536794,314.198799 L65.461055,314.211068 L65.385315,314.223337 L65.309576,314.235606 L65.233837,314.247875 L65.158097,314.260144 L65.082358,314.272413 L65.006619,314.284682 L64.93088,314.29695 L64.855141,314.309219 L64.779401,314.321488 L64.703662,314.333757 L64.627923,314.346026 L64.552183,314.358295 L64.476444,314.370564 L64.400705,314.382833 L64.324966,314.395102 L64.249226,314.407371 L64.173487,314.41964 L64.097748,314.431909 L64.023604,314.451647 L63.949459,314.471384 L63.875315,314.491122 L63.801171,314.51086 L63.727026,314.530598 L63.652882,314.550336 L63.578738,314.570073 L63.504593,314.589811 L63.430449,314.609549 L63.356305,314.629287 L63.28216,314.649024 L63.208016,314.668762 L63.133872,314.6885 L63.059727,314.708237 L62.985583,314.727975 L62.911439,314.747713 L62.837294,314.767451 L62.76315,314.787189 L62.689006,314.806926 L62.614861,314.826664 L62.540717,314.846402 L62.466573,314.86614 L62.392428,314.885877 L62.318284,314.905615 L62.246469,314.932626 L62.174654,314.959637 L62.10284,314.986648 L62.031025,315.013659 L61.95921,315.040669 L61.887395,315.06768 L61.81558,315.094691 L61.743766,315.121702 L61.671951,315.148713 L61.600136,315.175724 L61.528321,315.202735 L61.456507,315.229746 L61.384692,315.256756 L61.312877,315.283767 L61.241062,315.310778 L61.169247,315.337789 L61.097433,315.3648 L61.025618,315.391811 L60.953803,315.418822 L60.881988,315.445832 L60.810173,315.472843 L60.738359,315.499854 L60.666544,315.526865 L60.594729,315.553876 L60.525955,315.587893 L60.457181,315.621909 L60.388407,315.655926 L60.319634,315.689942 L60.25086,315.723958 L60.182086,315.757975 L60.113312,315.791991 L60.044538,315.826008 L59.975764,315.860025 L59.906991,315.894041 L59.838217,315.928058 L59.769443,315.962074 L59.700669,315.99609 L59.631895,316.030107 L59.563122,316.064123 L59.494348,316.09814 L59.425574,316.132157 L59.3568,316.166173 L59.288026,316.20019 L59.219252,316.234206 L59.150478,316.268222 L59.081705,316.302239 L59.012931,316.336255 L58.944157,316.370272 L58.879106,316.410957 L58.814054,316.451642 L58.749003,316.492327 L58.683951,316.533012 L58.6189,316.573697 L58.553849,316.614382 L58.488797,316.655067 L58.423746,316.695752 L58.358694,316.736437 L58.293643,316.777122 L58.228591,316.817807 L58.16354,316.858493 L58.098489,316.899178 L58.033437,316.939863 L57.968386,316.980548 L57.903334,317.021233 L57.838283,317.061918 L57.773231,317.102603 L57.70818,317.143288 L57.643129,317.183973 L57.578077,317.224658 L57.513026,317.265343 L57.447974,317.306028 L57.382923,317.346713 L57.322238,317.393663 L57.261554,317.440614 L57.200869,317.487564 L57.140185,317.534515 L57.079501,317.581465 L57.018816,317.628416 L56.958132,317.675366 L56.897447,317.722317 L56.836762,317.769267 L56.776078,317.816218 L56.715393,317.863168 L56.654709,317.910119 L56.594025,317.957069 L56.53334,318.004019 L56.472656,318.05097 L56.411971,318.09792 L56.351287,318.144871 L56.290602,318.191821 L56.229917,318.238772 L56.169233,318.285722 L56.108549,318.332673 L56.047864,318.379623 L55.98718,318.426574 L55.926495,318.473524 L55.870779,318.526275 L55.815062,318.579026 L55.759346,318.631776 L55.70363,318.684527 L55.647913,318.737278 L55.592197,318.790029 L55.53648,318.84278 L55.480764,318.89553 L55.425048,318.948281 L55.369331,319.001032 L55.313615,319.053783 L55.257899,319.106534 L55.202182,319.159284 L55.146466,319.212035 L55.090749,319.264786 L55.035033,319.317537 L54.979317,319.370287 L54.9236,319.423038 L54.867884,319.475789 L54.812168,319.52854 L54.756451,319.581291 L54.700735,319.634041 L54.645018,319.686792 L54.589302,319.739543 L54.539106,319.797571 L54.48891,319.8556 L54.438713,319.913628 L54.388517,319.971657 L54.338321,320.029685 L54.288125,320.087714 L54.237929,320.145742 L54.187732,320.20377 L54.137536,320.261799 L54.08734,320.319827 L54.037144,320.377856 L53.986947,320.435884 L53.936751,320.493912 L53.886555,320.551941 L53.836359,320.609969 L53.786163,320.667998 L53.735966,320.726026 L53.68577,320.784055 L53.635574,320.842083 L53.585378,320.900111 L53.535182,320.95814 L53.484985,321.016168 L53.434789,321.074197 L53.384593,321.132225 L53.340414,321.194956 L53.296236,321.257687 L53.252057,321.320419 L53.207878,321.38315 L53.163699,321.445881 L53.119521,321.508612 L53.075342,321.571343 L53.031163,321.634074 L52.986985,321.696805 L52.942806,321.759537 L52.898627,321.822268 L52.854449,321.884999 L52.81027,321.94773 L52.766091,322.010461 L52.721912,322.073193 L52.677734,322.135924 L52.633555,322.198655 L52.589376,322.261386 L52.545198,322.324117 L52.501019,322.386848 L52.45684,322.449579 L52.412661,322.512311 L52.368483,322.575042 L52.324304,322.637773 L52.28658,322.704585 L52.248857,322.771398 L52.211133,322.83821 L52.17341,322.905023 L52.135686,322.971835 L52.097963,323.038647 L52.060239,323.10546 L52.022516,323.172272 L51.984792,323.239085 L51.947069,323.305897 L51.909345,323.37271 L51.871622,323.439522 L51.833898,323.506334 L51.796174,323.573147 L51.758451,323.639959 L51.720727,323.706772 L51.683004,323.773584 L51.64528,323.840396 L51.607557,323.907209 L51.569833,323.974021 L51.53211,324.040834 L51.494386,324.107646 L51.456663,324.174459 L51.418939,324.241271 L51.388044,324.311503 L51.35715,324.381734 L51.326255,324.451966 L51.295361,324.522198 L51.264466,324.592429 L51.233572,324.662661 L51.202677,324.732892 L51.171782,324.803124 L51.140888,324.873356 L51.109993,324.943587 L51.079099,325.013819 L51.048204,325.08405 L51.017309,325.154282 L50.986415,325.224514 L50.95552,325.294745 L50.924626,325.364977 L50.893731,325.435209 L50.862837,325.50544 L50.831942,325.575672 L50.801047,325.645903 L50.770153,325.716135 L50.739258,325.786367 L50.708364,325.856598 L50.677469,325.92683 L50.653709,325.999785 L50.62995,326.07274 L50.60619,326.145695 L50.582431,326.21865 L50.558671,326.291605 L50.534912,326.36456 L50.511152,326.437516 L50.487393,326.510471 L50.463633,326.583426 L50.439874,326.656381 L50.416114,326.729336 L50.392354,326.802291 L50.368595,326.875246 L50.344835,326.948201 L50.321076,327.021156 L50.297316,327.094111 L50.273557,327.167066 L50.249797,327.240022 L50.226038,327.312977 L50.202278,327.385932 L50.178519,327.458887 L50.154759,327.531842 L50.131,327.604797 L50.10724,327.677752 L50.090851,327.752708 L50.074462,327.827663 L50.058073,327.902619 L50.041684,327.977575 L50.025295,328.05253 L50.008905,328.127486 L49.992516,328.202442 L49.976127,328.277397 L49.959738,328.352353 L49.943349,328.427309 L49.92696,328.502264 L49.910571,328.57722 L49.894182,328.652176 L49.877793,328.727131 L49.861404,328.802087 L49.845015,328.877043 L49.828626,328.951998 L49.812236,329.026954 L49.795847,329.10191 L49.779458,329.176865 L49.763069,329.251821 L49.74668,329.326777 L49.730291,329.401732 L49.713902,329.476688 L49.705046,329.552902 L49.696189,329.629115 L49.687333,329.705329 L49.678477,329.781543 L49.669621,329.857757 L49.660764,329.93397 L49.651908,330.010184 L49.643052,330.086398 L49.634195,330.162611 L49.625339,330.238825 L49.616483,330.315039 L49.607626,330.391253 L49.59877,330.467466 L49.589914,330.54368 L49.581058,330.619894 L49.572201,330.696107 L49.563345,330.772321 L49.554489,330.848535 L49.545632,330.924748 L49.536776,331.000962 L49.52792,331.077176 L49.519064,331.15339 L49.510207,331.229603 L49.501351,331.305817 L49.500115,331.382534 L49.49888,331.45925 L49.497644,331.535967 L49.496408,331.612683 L49.495172,331.6894 L49.493937,331.766116 L49.492701,331.842833 L49.491465,331.919549 L49.490229,331.996266 L49.488993,332.072982 L49.487758,332.149699 L49.486522,332.226416 L49.485286,332.303132 L49.484051,332.379849 L49.482815,332.456565 L49.481579,332.533282 L49.480343,332.609998 L49.479107,332.686715 L49.477872,332.763431 L49.476636,332.840148 L49.4754,332.916864 L49.474165,332.993581 L49.472929,333.070297 L49.471693,333.147014 L49.492458,333.763268 L49.513223,334.379523 L49.533988,334.995777 L49.554753,335.612032 L49.575518,336.228286 L49.596283,336.844541 L49.617048,337.460795 L49.637813,338.07705 L49.658578,338.693304 L49.679343,339.309559 L49.700108,339.925813 L49.720873,340.542068 L49.741639,341.158322 L49.762404,341.774576 L49.783169,342.390831 L49.803934,343.007085 L49.824699,343.62334 L49.845464,344.239594 L49.866229,344.855849 L49.886994,345.472103 L49.907759,346.088358 L49.928524,346.704612 L49.949289,347.320867 L49.970054,347.937121 L49.973555,347.98898 L49.977056,348.040839 L49.980556,348.092699 L49.984057,348.144558 L49.987558,348.196417 L49.991059,348.248276 L49.99456,348.300135 L49.998061,348.351995 L50.001562,348.403854 L50.005062,348.455713 L50.008563,348.507572 L50.012064,348.559431 L50.015565,348.611291 L50.019066,348.66315 L50.022566,348.715009 L50.026067,348.766868 L50.029568,348.818728 L50.033069,348.870587 L50.03657,348.922446 L50.040071,348.974305 L50.043571,349.026164 L50.047072,349.078024 L50.050573,349.129883 L50.054074,349.181742 L50.115475,349.786851 L50.176877,350.39196 L50.238278,350.99707 L50.29968,351.602179 L50.361081,352.207288 L50.422483,352.812397 L50.483884,353.417507 L50.545286,354.022616 L50.606687,354.627725 L50.668089,355.232834 L50.72949,355.837944 L50.790892,356.443053 L50.852293,357.048162 L50.913694,357.653272 L50.975096,358.258381 L51.036497,358.86349 L51.097899,359.468599 L51.1593,360.073709 L51.220702,360.678818 L51.282103,361.283927 L51.343505,361.889036 L51.404906,362.494146 L51.466308,363.099255 L51.527709,363.704364 L51.534663,363.755673 L51.541618,363.806983 L51.548572,363.858292 L51.555527,363.909602 L51.562481,363.960911 L51.569435,364.012221 L51.57639,364.06353 L51.583344,364.114839 L51.590299,364.166149 L51.597253,364.217458 L51.604208,364.268768 L51.611162,364.320077 L51.618116,364.371386 L51.625071,364.422696 L51.632025,364.474005 L51.63898,364.525315 L51.645934,364.576624 L51.652889,364.627933 L51.659843,364.679243 L51.666797,364.730552 L51.673752,364.781862 L51.680706,364.833171 L51.687661,364.884481 L51.694615,364.93579 L51.795312,365.528413 L51.89601,366.121037 L51.996707,366.713661 L52.097404,367.306284 L52.198102,367.898908 L52.298799,368.491531 L52.399496,369.084155 L52.500194,369.676778 L52.600891,370.269402 L52.701588,370.862025 L52.802286,371.454649 L52.902983,372.047272 L53.00368,372.639895 L53.104378,373.232519 L53.205075,373.825142 L53.305772,374.417766 L53.40647,375.010389 L53.507167,375.603013 L53.607864,376.195636 L53.708562,376.78826 L53.809259,377.380883 L53.909956,377.973507 L54.010654,378.56613 L54.111351,379.158754 L54.121667,379.209201 L54.131984,379.259649 L54.1423,379.310096 L54.152617,379.360544 L54.162933,379.410991 L54.173249,379.461438 L54.183566,379.511886 L54.193882,379.562333 L54.204198,379.612781 L54.214515,379.663228 L54.224831,379.713676 L54.235147,379.764123 L54.245464,379.81457 L54.25578,379.865018 L54.266097,379.915465 L54.276413,379.965913 L54.286729,380.01636 L54.297046,380.066807 L54.307362,380.117255 L54.317678,380.167702 L54.327995,380.21815 L54.338311,380.268597 L54.348628,380.319045 L54.358944,380.369492 L54.497597,380.948289 L54.636249,381.527087 L54.774902,382.105884 L54.913555,382.684681 L55.052208,383.263478 L55.19086,383.842276 L55.329513,384.421073 L55.468166,384.99987 L55.606819,385.578668 L55.745472,386.157465 L55.884124,386.736262 L56.022777,387.315059 L56.16143,387.893857 L56.300083,388.472654 L56.438735,389.051451 L56.577388,389.630249 L56.716041,390.209046 L56.854694,390.787843 L56.993346,391.366641 L57.131999,391.945438 L57.270652,392.524235 L57.409305,393.103032 L57.547957,393.68183 L57.68661,394.260627 L57.700168,394.309941 L57.713726,394.359254 L57.727284,394.408568 L57.740842,394.457882 L57.754399,394.507196 L57.767957,394.556509 L57.781515,394.605823 L57.795073,394.655137 L57.808631,394.70445 L57.822189,394.753764 L57.835747,394.803078 L57.849305,394.852392 L57.862862,394.901705 L57.87642,394.951019 L57.889978,395.000333 L57.903536,395.049646 L57.917094,395.09896 L57.930652,395.148274 L57.94421,395.197587 L57.957768,395.246901 L57.971325,395.296215 L57.984883,395.345529 L57.998441,395.394842 L58.011999,395.444156 L58.187267,396.007787 L58.362534,396.571417 L58.537802,397.135048 L58.71307,397.698678 L58.888337,398.262309 L59.063605,398.82594 L59.238872,399.38957 L59.41414,399.953201 L59.589408,400.516831 L59.764675,401.080462 L59.939943,401.644092 L60.115211,402.207723 L60.290478,402.771354 L60.465746,403.334984 L60.641013,403.898615 L60.816281,404.462245 L60.991549,405.025876 L61.166816,405.589507 L61.342084,406.153137 L61.517351,406.716768 L61.692619,407.280398 L61.867887,407.844029 L62.043154,408.407659 L62.218422,408.97129 L62.235083,409.01924 L62.251744,409.067191 L62.268405,409.115141 L62.285066,409.163091 L62.301728,409.211042 L62.318389,409.258992 L62.33505,409.306942 L62.351711,409.354893 L62.368372,409.402843 L62.385033,409.450793 L62.401694,409.498744 L62.418355,409.546694 L62.435017,409.594644 L62.451678,409.642595 L62.468339,409.690545 L62.485,409.738495 L62.501661,409.786446 L62.518322,409.834396 L62.534983,409.882346 L62.551644,409.930297 L62.568306,409.978247 L62.584967,410.026197 L62.601628,410.074148 L62.618289,410.122098 L62.828831,410.669221 L63.039373,411.216345 L63.249915,411.763468 L63.460457,412.310591 L63.670999,412.857715 L63.881541,413.404838 L64.092083,413.951961 L64.302625,414.499085 L64.513167,415.046208 L64.723709,415.593331 L64.934251,416.140455 L65.144793,416.687578 L65.355335,417.234701 L65.565877,417.781825 L65.776419,418.328948 L65.986961,418.876071 L66.197503,419.423195 L66.408045,419.970318 L66.618587,420.517441 L66.829129,421.064565 L67.039671,421.611688 L67.250213,422.158811 L67.460755,422.705935 L67.671297,423.253058 L67.690915,423.299455 L67.710533,423.345853 L67.730151,423.39225 L67.74977,423.438648 L67.769388,423.485045 L67.789006,423.531442 L67.808624,423.57784 L67.828242,423.624237 L67.84786,423.670634 L67.867479,423.717032 L67.887097,423.763429 L67.906715,423.809826 L67.926333,423.856224 L67.945951,423.902621 L67.96557,423.949019 L67.985188,423.995416 L68.004806,424.041813 L68.024424,424.088211 L68.044042,424.134608 L68.06366,424.181006 L68.083279,424.227403 L68.102897,424.2738 L68.122515,424.320198 L68.142133,424.366595 L68.386609,424.895871 L68.631085,425.425146 L68.875561,425.954422 L69.120036,426.483697 L69.364512,427.012973 L69.608988,427.542248 L69.853464,428.071524 L70.09794,428.600799 L70.342416,429.130075 L70.586892,429.65935 L70.831368,430.188626 L71.075843,430.717902 L71.320319,431.247177 L71.564795,431.776453 L71.809271,432.305728 L72.053747,432.835004 L72.298223,433.364279 L72.542699,433.893555 L72.787175,434.42283 L73.03165,434.952106 L73.276126,435.481381 L73.520602,436.010657 L73.765078,436.539932 L74.009554,437.069208 L74.031983,437.113899 L74.054413,437.15859 L74.076842,437.203281 L74.099272,437.247972 L74.121702,437.292662 L74.144131,437.337353 L74.16656,437.382044 L74.18899,437.426735 L74.211419,437.471426 L74.233849,437.516117 L74.256278,437.560808 L74.278708,437.605499 L74.301137,437.650189 L74.323567,437.69488 L74.345996,437.739571 L74.368426,437.784262 L74.390856,437.828953 L74.413285,437.873644 L74.435714,437.918335 L74.458144,437.963026 L74.480573,438.007716 L74.503003,438.052407 L74.525432,438.097098 L74.547862,438.141789 L74.824931,438.651876 L75.102001,439.161964 L75.37907,439.672051 L75.656139,440.182138 L75.933208,440.692225 L76.210277,441.202313 L76.487347,441.7124 L76.764416,442.222487 L77.041485,442.732575 L77.318555,443.242662 L77.595624,443.752749 L77.872693,444.262837 L78.149762,444.772924 L78.426832,445.283011 L78.703901,445.793098 L78.98097,446.303186 L79.258039,446.813273 L79.535109,447.32336 L79.812178,447.833448 L80.089247,448.343535 L80.366316,448.853622 L80.643385,449.363709 L80.920455,449.873797 L81.197524,450.383884 L81.222626,450.426745 L81.247729,450.469606 L81.272831,450.512466 L81.297933,450.555327 L81.323036,450.598188 L81.348138,450.641049 L81.37324,450.68391 L81.398343,450.72677 L81.423445,450.769631 L81.448547,450.812492 L81.47365,450.855353 L81.498752,450.898213 L81.523854,450.941074 L81.548957,450.983935 L81.574059,451.026796 L81.599161,451.069657 L81.624264,451.112517 L81.649366,451.155378 L81.674468,451.198239 L81.699571,451.2411 L81.724673,451.283961 L81.749775,451.326821 L81.774878,451.369682 L81.79998,451.412543 L82.108302,451.902102 L82.416624,452.39166 L82.724946,452.881219 L83.033269,453.370777 L83.341591,453.860336 L83.649913,454.349894 L83.958235,454.839452 L84.266557,455.329011 L84.574879,455.81857 L84.883201,456.308128 L85.191523,456.797686 L85.499845,457.287245 L85.808168,457.776804 L86.11649,458.266362 L86.424812,458.755921 L86.733134,459.245479 L87.041456,459.735038 L87.349778,460.224596 L87.6581,460.714155 L87.966422,461.203713 L88.274745,461.693271 L88.583067,462.18283 L88.891389,462.672389 L89.199711,463.161947 L89.227359,463.202877 L89.255007,463.243808 L89.282655,463.284738 L89.310303,463.325668 L89.337951,463.366598 L89.365598,463.407529 L89.393246,463.448459 L89.420894,463.489389 L89.448542,463.53032 L89.47619,463.57125 L89.503838,463.61218 L89.531486,463.653111 L89.559134,463.694041 L89.586782,463.734971 L89.61443,463.775901 L89.642078,463.816832 L89.669726,463.857762 L89.697373,463.898692 L89.725021,463.939623 L89.752669,463.980553 L89.780317,464.021483 L89.807965,464.062413 L89.835613,464.103344 L89.863261,464.144274 L90.201495,464.611963 L90.53973,465.079652 L90.877964,465.547342 L91.216199,466.015031 L91.554434,466.48272 L91.892668,466.950409 L92.230902,467.418098 L92.569137,467.885787 L92.907371,468.353476 L93.245606,468.821166 L93.58384,469.288855 L93.922075,469.756544 L94.26031,470.224233 L94.598544,470.691922 L94.936779,471.159611 L95.275013,471.627301 L95.613247,472.09499 L95.951482,472.562679 L96.289716,473.030368 L96.627951,473.498057 L96.966186,473.965746 L97.30442,474.433436 L97.642655,474.901125 L97.980889,475.368814 L98.010969,475.407729 L98.041049,475.446644 L98.071129,475.485559 L98.101209,475.524474 L98.131289,475.563389 L98.161369,475.602304 L98.191449,475.641219 L98.221529,475.680134 L98.251609,475.719049 L98.281689,475.757964 L98.311769,475.796879 L98.341849,475.835795 L98.37193,475.87471 L98.40201,475.913625 L98.43209,475.95254 L98.46217,475.991455 L98.49225,476.03037 L98.52233,476.069285 L98.55241,476.1082 L98.58249,476.147115 L98.61257,476.18603 L98.64265,476.224945 L98.67273,476.26386 L98.70281,476.302775 L99.069616,476.747254 L99.436423,477.191734 L99.803229,477.636213 L100.170035,478.080692 L100.536842,478.525172 L100.903648,478.969651 L101.270454,479.414131 L101.637261,479.85861 L102.004067,480.303089 L102.370873,480.747569 L102.73768,481.192048 L103.104486,481.636527 L103.471292,482.081007 L103.838099,482.525486 L104.204905,482.969966 L104.571711,483.414445 L104.938518,483.858924 L105.305324,484.303404 L105.67213,484.747883 L106.038937,485.192363 L106.405743,485.636842 L106.772549,486.081321 L107.139356,486.525801 L107.506162,486.97028 L107.538575,487.007104 L107.570987,487.043927 L107.6034,487.080751 L107.635812,487.117574 L107.668225,487.154398 L107.700637,487.191221 L107.73305,487.228045 L107.765462,487.264868 L107.797875,487.301692 L107.830287,487.338515 L107.8627,487.375338 L107.895112,487.412162 L107.927525,487.448985 L107.959937,487.485809 L107.99235,487.522632 L108.024762,487.559456 L108.057175,487.596279 L108.089587,487.633103 L108.122,487.669926 L108.154412,487.70675 L108.186825,487.743573 L108.219237,487.780397 L108.251649,487.81722 L108.284062,487.854044 L108.6781,488.273973 L109.072137,488.693902 L109.466175,489.113831 L109.860213,489.53376 L110.25425,489.953689 L110.648288,490.373618 L111.042326,490.793547 L111.436363,491.213476 L111.830401,491.633405 L112.224439,492.053334 L112.618476,492.473263 L113.012514,492.893192 L113.406552,493.313122 L113.800589,493.733051 L114.194627,494.15298 L114.588665,494.572909 L114.982702,494.992838 L115.37674,495.412767 L115.770778,495.832696 L116.164815,496.252625 L116.558853,496.672554 L116.952891,497.092483 L117.346928,497.512412 L117.740966,497.932341 L117.775623,497.966998 L117.810281,498.001656 L117.844938,498.036313 L117.879595,498.07097 L117.914253,498.105628 L117.94891,498.140285 L117.983567,498.174943 L118.018225,498.2096 L118.052882,498.244257 L118.087539,498.278915 L118.122197,498.313572 L118.156854,498.34823 L118.191511,498.382887 L118.226169,498.417544 L118.260826,498.452202 L118.295483,498.486859 L118.330141,498.521516 L118.364798,498.556174 L118.399455,498.590831 L118.434113,498.625489 L118.46877,498.660146 L118.503427,498.694803 L118.538085,498.729461 L118.572742,498.764118 L118.992671,499.158156 L119.412599,499.552194 L119.832527,499.946233 L119.889828,500 L261.599984,500 Z" fill="#121212"/>
  <path d="M180.557475,345.605475 L297.062475,229.100475 L298.297828,227.735588 L299.391412,226.254682 L300.332401,224.67242 L301.111476,223.004471 L301.720921,221.267351 L302.154704,219.47826 L302.408528,217.654916 L302.479879,215.815372 L302.368052,213.977845 L302.074154,212.16053 L301.601094,210.381422 L300.953557,208.658137 L300.137956,207.007742 L299.162366,205.446577 L298.036448,203.990102 L296.77135,202.652739 L295.379601,201.44773 L293.874981,200.387009 L292.272389,199.481078 L290.587695,198.738908 L288.83758,198.167848 L287.039374,197.773553 L285.210884,197.559927 L283.370216,197.529085 L275.368075,197.793423 L274.145321,197.874423 L266.291774,198.656641 L265.07795,198.818266 L257.390059,200.102171 L256.192289,200.343105 L248.687117,202.112505 L247.511816,202.430761 L240.206425,204.669463 L239.059246,205.06258 L231.970699,207.754392 L230.85655,208.219624 L224.00191,211.348352 L222.925015,211.88283 L216.321343,215.432282 L215.285339,216.033142 L208.949698,219.987126 L207.957756,220.651596 L201.907209,224.993918 L200.962168,225.719368 L195.213778,230.433836 L194.318284,231.217775 L188.889112,236.288196 L188.045737,237.128242 L182.952846,242.538423 L182.164196,243.432233 L177.424649,249.165982 L176.693442,250.111149 L172.324302,256.152273 L171.653417,257.146211 L167.671745,263.478518 L167.064231,264.518321 L163.487091,271.125617 L162.946132,272.207925 L159.790586,279.074017 L159.319429,280.194876 L156.602538,287.303573 L156.204368,288.458328 L153.943197,295.793437 L153.620982,296.976652 L151.832591,304.521979 L151.588891,305.727402 L150.290344,313.466755 L150.127107,314.687347 L149.335466,322.604534 L149.253818,323.832557 L148.986146,331.911385 L149.01681,333.752132 L149.230275,335.580718 L149.624427,337.379033 L150.195363,339.129268 L150.937428,340.814092 L151.843274,342.41682 L152.903931,343.921579 L154.108894,345.313468 L155.446232,346.578703 L156.9027,347.704755 L158.463875,348.680473 L160.114297,349.496193 L161.837622,350.143838 L163.616783,350.616994 L165.434162,350.910976 L167.271762,351.022873 L169.111384,350.951575 L170.93481,350.69779 L172.723985,350.26403 L174.461188,349.654591 L176.129218,348.875508 L177.711555,347.934497 L179.192529,346.840876 Z" fill="#121212"/>
  <path d="M297.062475,435.947525 L180.557475,319.442525 L179.192588,318.207172 L177.711682,317.113588 L176.12942,316.172599 L174.461471,315.393524 L172.724351,314.784079 L170.93526,314.350296 L169.111916,314.096472 L167.272372,314.025121 L165.434845,314.136948 L163.61753,314.430846 L161.838422,314.903906 L160.115137,315.551443 L158.464742,316.367044 L156.903577,317.342634 L155.447102,318.468552 L154.109739,319.73365 L152.90473,321.125399 L151.844009,322.630019 L150.938078,324.232611 L150.195908,325.917305 L149.624848,327.66742 L149.230553,329.465626 L149.016927,331.294116 L148.986085,333.134784 L149.250423,341.136925 L149.331423,342.359679 L150.113641,350.213226 L150.275266,351.42705 L151.559171,359.114941 L151.800105,360.312711 L153.569505,367.817883 L153.887761,368.993184 L156.126463,376.298575 L156.51958,377.445754 L159.211392,384.534301 L159.676624,385.64845 L162.805352,392.50309 L163.33983,393.579985 L166.889282,400.183657 L167.490142,401.219661 L171.444126,407.555302 L172.108596,408.547244 L176.450918,414.597791 L177.176368,415.542832 L181.890836,421.291222 L182.674775,422.186716 L187.745196,427.615888 L188.585242,428.459263 L193.995423,433.552154 L194.889233,434.340804 L200.622982,439.080351 L201.568149,439.811558 L207.609273,444.180698 L208.603211,444.851583 L214.935518,448.833255 L215.975321,449.440769 L222.582617,453.017909 L223.664925,453.558868 L230.531017,456.714414 L231.651876,457.185571 L238.760573,459.902462 L239.915328,460.300632 L247.250437,462.561803 L248.433652,462.884018 L255.978979,464.672409 L257.184402,464.916109 L264.923755,466.214656 L266.144347,466.377893 L274.061534,467.169534 L275.289557,467.251182 L283.368385,467.518854 L285.209132,467.48819 L287.037718,467.274725 L288.836033,466.880573 L290.586268,466.309637 L292.271092,465.567572 L293.87382,464.661726 L295.378579,463.601069 L296.770468,462.396106 L298.035703,461.058768 L299.161755,459.6023 L300.137473,458.041125 L300.953193,456.390703 L301.600838,454.667378 L302.073994,452.888217 L302.367976,451.070838 L302.479873,449.233238 L302.408575,447.393616 L302.15479,445.57019 L301.72103,443.781015 L301.111591,442.043812 L300.332508,440.375782 L299.391497,438.793445 L298.297876,437.312471 Z" fill="#121212"/>
  <path d="M366.326987,496.903877 L376.730185,491.308889 L386.712203,485.076578 L396.246023,478.232549 L405.304628,470.802405 L413.861,462.81175 L421.888122,454.286189 L429.358977,445.251326 L436.246547,435.732766 L442.523815,425.756111 L448.163763,415.346967 L453.139375,404.530937 L457.423633,393.333627 L460.989519,381.780639 L463.810016,369.897578 L465.858106,357.710049 L467.106774,345.243655 L467.529,332.524 L467.529,332.524 L467.865175,322.353608 L468.859482,312.387949 L470.490596,302.647297 L472.73719,293.151926 L475.577938,283.922111 L478.991516,274.978125 L482.956595,266.340244 L487.451852,258.028741 L492.455959,250.063891 L497.947591,242.465968 L500,239.981951 L500,188.303115 L492.753934,194.246499 L484.1975,202.237125 L476.170316,210.762652 L468.699399,219.797475 L461.81177,229.31599 L455.534444,239.292593 L449.894442,249.701678 L444.918781,260.517641 L440.63448,271.714877 L437.068556,283.267782 L434.248027,295.150752 L432.199913,307.338181 L430.951231,319.804465 L430.529,332.524 L430.529,332.524 L430.192825,342.694512 L429.198519,352.660281 L427.567406,362.401033 L425.320815,371.896495 L422.480071,381.126393 L419.0665,390.070453 L415.101429,398.708401 L410.606185,407.019963 L405.602094,414.984865 L400.110481,422.582834 L394.152675,429.793595 L387.75,436.596875 L380.923784,442.9724 L373.695352,448.899895 L366.086031,454.359088 L358.117148,459.329704 L349.810029,463.791469 L341.186,467.724109 L332.266388,471.107351 L323.072519,473.920921 L313.625719,476.144545 L303.947315,477.757948 L294.058633,478.740858 L283.981,479.073 L283.981,479.073 L273.810488,478.736825 L263.844719,477.742518 L254.103967,476.111404 L244.608505,473.86481 L235.378607,471.024062 L226.434547,467.610484 L217.796599,463.645405 L209.485037,459.150148 L201.520135,454.146041 L193.922166,448.654409 L186.711405,442.696578 L179.908125,436.293875 L173.5326,429.467625 L167.605105,422.239153 L162.145912,414.629787 L157.175296,406.660852 L152.713531,398.353674 L148.780891,389.729578 L145.397649,380.809892 L142.584079,371.61594 L140.360455,362.169049 L138.747052,352.490545 L137.764142,342.601753 L137.432,332.524 L137.432,332.524 L137.768175,322.353608 L138.762482,312.387949 L140.393596,302.647297 L142.64019,293.151926 L145.480938,283.922111 L148.894516,274.978125 L152.859595,266.340244 L157.354852,258.028741 L162.358959,250.063891 L167.850591,242.465968 L173.808422,235.255246 L180.211125,228.452 L187.037375,222.076504 L194.265847,216.149032 L201.875213,210.689859 L209.844148,205.719259 L218.151326,201.257506 L226.775422,197.324875 L235.695108,193.941639 L244.88906,191.128074 L254.335951,188.904453 L264.014455,187.291051 L273.903247,186.308142 L283.981,185.976 L283.981,185.976 L296.742672,185.553678 L309.26919,184.304007 L321.533182,182.25293 L333.507273,179.426389 L345.164092,175.850328 L356.476266,171.550688 L367.416421,166.553413 L377.957185,160.884446 L388.071186,154.569728 L397.731049,147.635204 L406.909403,140.106815 L415.578875,132.010504 L423.712092,123.372215 L431.28168,114.217889 L438.260268,104.573469 L444.620481,94.464899 L450.334949,83.918121 L455.376297,72.959077 L459.717153,61.613711 L463.330144,49.907965 L466.187896,37.867781 L468.263039,25.519103 L469.528198,12.887874 L469.956,0 L469.956,0 L468.414333,0 L466.872667,0 L465.331,0 L463.789333,0 L462.247667,0 L460.706,0 L459.164333,0 L457.622667,0 L456.081,0 L454.539333,0 L452.997667,0 L451.456,0 L449.914333,0 L448.372667,0 L446.831,0 L445.289333,0 L443.747667,0 L442.206,0 L440.664333,0 L439.122667,0 L437.581,0 L436.039333,0 L434.497667,0 L432.956,0 L432.614249,10.338768 L431.603451,20.469412 L429.945287,30.371345 L427.66144,40.023954 L424.773591,49.406629 L421.303422,58.498757 L417.272615,67.279727 L412.702852,75.728926 L407.615814,83.825742 L402.033185,91.549565 L395.976644,98.87978 L389.467875,105.795778 L382.528559,112.276946 L375.180378,118.302671 L367.445014,123.852343 L359.344148,128.905349 L350.899463,133.441077 L342.132641,137.438916 L333.065362,140.878253 L323.71931,143.738477 L314.116166,145.998975 L304.277612,147.639137 L294.225329,148.638349 L283.981,148.976 L283.981,148.976 L271.386019,149.392811 L259.023087,150.626173 L246.919223,152.650482 L235.101444,155.440134 L223.59677,158.969524 L212.432219,163.213047 L201.634808,168.145098 L191.231556,173.740074 L181.24948,179.972369 L171.715601,186.816379 L162.656934,194.246499 L154.1005,202.237125 L146.073316,210.762652 L138.602399,219.797475 L131.71477,229.31599 L125.437444,239.292593 L119.797442,249.701678 L114.821781,260.517641 L110.53748,271.714877 L106.971556,283.267782 L104.151027,295.150752 L102.102913,307.338181 L100.854231,319.804465 L100.432,332.524 L100.432,332.524 L100.848811,345.118981 L102.082174,357.481913 L104.106484,369.585777 L106.896139,381.403556 L110.425533,392.90823 L114.669063,404.072781 L119.601123,414.870192 L125.196111,425.273444 L131.428422,435.25552 L138.272451,444.789399 L145.702595,453.848066 L153.69325,462.4045 L162.218811,470.431684 L171.253674,477.902601 L180.772234,484.79023 L190.748889,491.067556 L201.158033,496.707558 L208.315103,500 L359.548894,500 Z M231.435667,0 L229.894,0 L228.352333,0 L226.810667,0 L225.269,0 L223.727333,0 L222.185667,0 L220.644,0 L219.102333,0 L217.560667,0 L216.019,0 L214.477333,0 L212.935667,0 L211.394,0 L209.852333,0 L208.310667,0 L206.769,0 L205.227333,0 L203.685667,0 L202.144,0 L200.602333,0 L199.060667,0 L197.519,0 L197.519,0 L197.715534,5.926571 L198.29706,11.744893 L199.251469,17.442188 L200.566648,23.005657 L202.230487,28.422501 L204.230875,33.679922 L206.5557,38.765119 L209.192852,43.665295 L212.130219,48.367651 L215.35569,52.859386 L218.857154,57.127703 L222.6225,61.159803 L226.639617,64.942886 L230.896394,68.464153 L235.380719,71.710806 L240.080481,74.670045 L244.983571,77.329072 L250.077875,79.675088 L255.351284,81.695293 L260.791685,83.376889 L266.386969,84.707077 L272.125023,85.673057 L277.993737,86.262031 L283.981,86.4612 L283.981,86.4612 L289.907528,86.264669 L295.72583,85.683152 L301.423107,84.728758 L306.98656,83.413598 L312.40339,81.749782 L317.660797,79.749423 L322.745983,77.42463 L327.646148,74.787513 L332.348494,71.850185 L336.840222,68.624755 L341.108532,65.123334 L345.140625,61.358033 L348.923703,57.340962 L352.444966,53.084233 L355.691615,48.599955 L358.650852,43.90024 L361.309877,38.997199 L363.655891,33.902941 L365.676095,28.629579 L367.35769,23.189221 L368.687877,17.59398 L369.653857,11.855966 L370.242831,5.987289 L370.442,0 L368.900333,0 L367.358667,0 L365.817,0 L364.275333,0 L362.733667,0 L361.192,0 L359.650333,0 L358.108667,0 L356.567,0 L355.025333,0 L353.483667,0 L351.942,0 L350.400333,0 L348.858667,0 L347.317,0 L345.775333,0 L344.233667,0 L342.692,0 L341.150333,0 L339.608667,0 L338.067,0 L336.525333,0 L334.983667,0 L333.442,0 L333.442,0 L333.328883,3.438127 L332.994269,6.80617 L332.445268,10.0974 L331.688986,13.305038 L330.732533,16.422301 L329.583016,19.442411 L328.247543,22.358585 L326.733222,25.164045 L325.047162,27.852008 L323.19647,30.415696 L321.188255,32.848326 L319.029625,35.143119 L316.727687,37.293294 L314.28955,39.29207 L311.722322,41.132668 L309.033111,42.808306 L306.229025,44.312203 L303.317172,45.63758 L300.30466,46.777656 L297.198597,47.725651 L294.006092,48.474783 L290.734252,49.018272 L287.390185,49.349338 L283.981,49.4612 L283.981,49.4612 L280.54288,49.348084 L277.174791,49.013475 L273.883514,48.46448 L270.675829,47.708206 L267.558517,46.751762 L264.538359,45.602255 L261.622137,44.266793 L258.81663,42.752483 L256.128619,41.066432 L253.564886,39.21575 L251.132211,37.207542 L248.837375,35.048917 L246.687159,32.746982 L244.688343,30.308845 L242.847709,27.741613 L241.172037,25.052395 L239.668108,22.248297 L238.342703,19.336428 L237.202603,16.323895 L236.254588,13.217805 L235.505439,10.025266 L234.961938,6.753386 L234.630865,3.409273 L234.519,0 L232.977333,0 Z" fill="#121212" fill-rule="evenodd"/>
</svg>
