<svg xmlns="http://www.w3.org/2000/svg" viewBox="125 375 125 125" width="200" height="200">
  <rect x="125" y="375" width="125" height="125" fill="#F3F3F3"/>
  <path d="M9.22273e-05 286.408L9.10602e-05 313.107L0.000113408 500L427.185 500L427.185 286.471L427.185 286.408C427.185 169.785 332.643 75.2427 216.02 75.2427L0.000101458 75.2427L9.22273e-05 286.408Z" fill="#121212" fill-rule="evenodd"/>
  <ellipse cx="211.165" cy="286.408" rx="148.058" ry="148.058" fill="#121212"/>
  <path d="M291.184429,499.59702 L290.955057,498.51493 L290.578896,497.455131 L290.060958,496.420023 L289.406255,495.412007 L288.619797,494.433484 L287.706597,493.486855 L286.671667,492.574519 L285.520018,491.698877 L284.256661,490.86233 L282.88661,490.06728 L281.414875,489.316125 L279.846468,488.611267 L278.186401,487.955107 L276.439686,487.350045 L274.611333,486.798481 L272.706356,486.302817 L270.729766,485.865453 L268.686574,485.488789 L266.581792,485.175227 L264.420432,484.927166 L262.207505,484.747008 L259.948024,484.637152 L257.647,484.6 L257.647,484.6 L257.63375,484.6 L257.6205,484.6 L257.60725,484.6 L257.594,484.6 L257.58075,484.6 L257.5675,484.6 L257.55425,484.6 L257.541,484.6 L257.52775,484.6 L257.5145,484.6 L257.50125,484.6 L257.488,484.6 L257.47475,484.6 L257.4615,484.6 L257.44825,484.6 L257.435,484.6 L257.42175,484.6 L257.4085,484.6 L257.39525,484.6 L257.382,484.6 L257.36875,484.6 L257.3555,484.6 L257.34225,484.6 L257.329,484.6 L255.027287,484.562878 L252.767234,484.453108 L250.553846,484.273082 L248.392125,484.025194 L246.287076,483.711838 L244.243703,483.335406 L242.26701,482.898292 L240.362,482.402889 L238.533678,481.85159 L236.787047,481.246788 L235.127111,480.590877 L233.558875,479.88625 L232.087342,479.1353 L230.717516,478.34042 L229.4544,477.504004 L228.303,476.628444 L227.268318,475.716135 L226.355359,474.769469 L225.569127,473.790839 L224.914625,472.782639 L224.396857,471.747262 L224.020828,470.687101 L223.791541,469.604549 L223.714,468.502 L223.714,468.502 L223.791541,467.399446 L224.020828,466.31688 L224.396857,465.256695 L224.914625,464.221287 L225.569127,463.213049 L226.355359,462.234375 L227.268318,461.287659 L228.303,460.375296 L229.4544,459.49968 L230.717516,458.663204 L232.087342,457.868262 L233.558875,457.11725 L235.127111,456.41256 L236.787047,455.756588 L238.533678,455.151727 L240.362,454.60037 L242.26701,454.104913 L244.243703,453.66775 L246.287076,453.291274 L248.392125,452.97788 L250.553846,452.729961 L252.767234,452.549912 L255.027287,452.440127 L257.329,452.403 L257.329,452.403 L257.34225,452.403 L257.3555,452.403 L257.36875,452.403 L257.382,452.403 L257.39525,452.403 L257.4085,452.403 L257.42175,452.403 L257.435,452.403 L257.44825,452.403 L257.4615,452.403 L257.47475,452.403 L257.488,452.403 L257.50125,452.403 L257.5145,452.403 L257.52775,452.403 L257.541,452.403 L257.55425,452.403 L257.5675,452.403 L257.58075,452.403 L257.594,452.403 L257.60725,452.403 L257.6205,452.403 L257.63375,452.403 L257.647,452.403 L259.948024,452.37894 L262.207505,452.306082 L264.420432,452.18341 L266.581792,452.009907 L268.686574,451.784557 L270.729766,451.506344 L272.706356,451.17425 L274.611333,450.787259 L276.439686,450.344355 L278.186401,449.844522 L279.846468,449.286742 L281.414875,448.67 L282.88661,447.993279 L284.256661,447.255561 L285.520018,446.455832 L286.671667,445.593074 L287.706597,444.666271 L288.619797,443.674406 L289.406255,442.616463 L290.060958,441.491426 L290.578896,440.298277 L290.955057,439.036001 L291.184429,437.703581 L291.262,436.3 L291.262,436.3 L291.184429,434.896439 L290.955057,433.564078 L290.578896,432.301895 L290.060958,431.10887 L289.406255,429.983985 L288.619797,428.926219 L287.706597,427.934551 L286.671667,427.007963 L285.520018,426.145434 L284.256661,425.345943 L282.88661,424.608472 L281.414875,423.932 L279.846468,423.315507 L278.186401,422.757973 L276.439686,422.258379 L274.611333,421.815704 L272.706356,421.428928 L270.729766,421.097031 L268.686574,420.818994 L266.581792,420.593796 L264.420432,420.420418 L262.207505,420.297839 L259.948024,420.22504 L257.647,420.201 L257.647,420.201 L257.63375,420.201 L257.6205,420.201 L257.60725,420.201 L257.594,420.201 L257.58075,420.201 L257.5675,420.201 L257.55425,420.201 L257.541,420.201 L257.52775,420.201 L257.5145,420.201 L257.50125,420.201 L257.488,420.201 L257.47475,420.201 L257.4615,420.201 L257.44825,420.201 L257.435,420.201 L257.42175,420.201 L257.4085,420.201 L257.39525,420.201 L257.382,420.201 L257.36875,420.201 L257.3555,420.201 L257.34225,420.201 L257.329,420.201 L255.027287,420.200208 L252.767234,420.194668 L250.553846,420.179629 L248.392125,420.150343 L246.287076,420.10206 L244.243703,420.030031 L242.26701,419.929508 L240.362,419.795741 L238.533678,419.62398 L236.787047,419.409478 L235.127111,419.147484 L233.558875,418.83325 L232.087342,418.462026 L230.717516,418.029064 L229.4544,417.529613 L228.303,416.958926 L227.268318,416.312252 L226.355359,415.584844 L225.569127,414.771951 L224.914625,413.868824 L224.396857,412.870715 L224.020828,411.772874 L223.791541,410.570552 L223.714,409.259 L223.714,409.259 L223.779956,407.951313 L223.975208,406.759939 L224.295834,405.67916 L224.737912,404.703259 L225.29752,403.826518 L225.970734,403.043219 L226.753634,402.347643 L227.642296,401.734074 L228.632799,401.196793 L229.721219,400.730082 L230.903635,400.328224 L232.176125,399.9855 L233.534766,399.696193 L234.975635,399.454584 L236.494811,399.254957 L238.08837,399.091593 L239.752392,398.958773 L241.482953,398.850781 L243.276131,398.761899 L245.128005,398.686407 L247.03465,398.61859 L248.992146,398.552728 L250.99657,398.483104 L253.044,398.404 L253.044,398.404 L253.235792,398.404 L253.427583,398.404 L253.619375,398.404 L253.811167,398.404 L254.002958,398.404 L254.19475,398.404 L254.386542,398.404 L254.578333,398.404 L254.770125,398.404 L254.961917,398.404 L255.153708,398.404 L255.3455,398.404 L255.537292,398.404 L255.729083,398.404 L255.920875,398.404 L256.112667,398.404 L256.304458,398.404 L256.49625,398.404 L256.688042,398.404 L256.879833,398.404 L257.071625,398.404 L257.263417,398.404 L257.455208,398.404 L257.647,398.404 L259.948024,398.403208 L262.207505,398.397668 L264.420432,398.382629 L266.581792,398.353343 L268.686574,398.30506 L270.729766,398.233031 L272.706356,398.132508 L274.611333,397.998741 L276.439686,397.82698 L278.186401,397.612478 L279.846468,397.350484 L281.414875,397.03625 L282.88661,396.665026 L284.256661,396.232064 L285.520018,395.732613 L286.671667,395.161926 L287.706597,394.515252 L288.619797,393.787844 L289.406255,392.974951 L290.060958,392.071824 L290.578896,391.073715 L290.955057,389.975874 L291.184429,388.773552 L291.262,387.462 L291.184429,386.150328 L290.955057,384.947896 L290.578896,383.849955 L290.060958,382.851755 L289.406255,381.948546 L288.619797,381.135578 L287.706597,380.408103 L286.671667,379.76137 L285.520018,379.190631 L284.256661,378.691135 L282.88661,378.258133 L281.414875,377.886875 L279.846468,377.572612 L278.186401,377.310594 L276.439686,377.096072 L274.611333,376.924296 L272.706356,376.790517 L270.729766,376.689984 L268.686574,376.617949 L266.581792,376.569662 L264.420432,376.540373 L262.207505,376.525333 L259.948024,376.519792 L257.647,376.519 L257.647,376.519 L257.385708,376.519 L257.124417,376.519 L256.863125,376.519 L256.601833,376.519 L256.340542,376.519 L256.07925,376.519 L255.817958,376.519 L255.556667,376.519 L255.295375,376.519 L255.034083,376.519 L254.772792,376.519 L254.5115,376.519 L254.250208,376.519 L253.988917,376.519 L253.727625,376.519 L253.466333,376.519 L253.205042,376.519 L252.94375,376.519 L252.682458,376.519 L252.421167,376.519 L252.159875,376.519 L251.898583,376.519 L251.637292,376.519 L251.376,376.519 L249.430808,376.466376 L247.528593,376.420299 L245.672891,376.377836 L243.867241,376.336056 L242.115181,376.292025 L240.42025,376.242813 L238.785986,376.185485 L237.215926,376.117111 L235.713609,376.034758 L234.282574,375.935493 L232.926358,375.816385 L231.6485,375.6745 L230.452538,375.506907 L229.342009,375.310674 L228.320453,375.082867 L227.391407,374.820556 L226.55841,374.520806 L225.825,374.180688 L225.194715,373.797266 L224.671093,373.367611 L224.257672,372.888789 L223.957991,372.357868 L223.775587,371.771916 L223.714,371.128 L223.714,371.128 L223.779956,370.571454 L223.975208,370.056402 L224.295834,369.581098 L224.737912,369.143796 L225.29752,368.742752 L225.970734,368.376219 L226.753634,368.042451 L227.642296,367.739704 L228.632799,367.46623 L229.721219,367.220286 L230.903635,367.000124 L232.176125,366.804 L233.534766,366.630167 L234.975635,366.476881 L236.494811,366.342395 L238.08837,366.224963 L239.752392,366.12284 L241.482953,366.034281 L243.276131,365.95754 L245.128005,365.89087 L247.03465,365.832527 L248.992146,365.780765 L250.99657,365.733838 L253.044,365.69 L253.044,365.69 L255.368332,365.693671 L257.695073,365.702391 L260.015217,365.712717 L262.319755,365.721208 L264.59968,365.724424 L266.845984,365.718922 L269.049662,365.701261 L271.201704,365.668 L273.293104,365.615697 L275.314854,365.540911 L277.257947,365.440201 L279.113375,365.310125 L280.872132,365.147242 L282.525209,364.948109 L284.0636,364.709287 L285.478296,364.427333 L286.760292,364.098807 L287.900578,363.720266 L288.890149,363.288269 L289.719995,362.799375 L290.381111,362.250143 L290.864489,361.63713 L291.161121,360.956896 L291.262,360.206 L291.262,360.206 L291.201013,359.548666 L291.019496,358.946076 L290.719619,358.395852 L290.303551,357.895611 L289.77346,357.442975 L289.131516,357.035563 L288.379886,356.670994 L287.520741,356.346889 L286.556248,356.060867 L285.488577,355.810549 L284.319896,355.593553 L283.052375,355.4075 L281.688182,355.25001 L280.229486,355.118701 L278.678455,355.011195 L277.037259,354.925111 L275.308067,354.858069 L273.493047,354.807688 L271.594368,354.771588 L269.614199,354.747389 L267.554709,354.732711 L265.418067,354.725174 L263.206441,354.722397 L260.922,354.722 L260.922,354.722 L260.645146,354.706218 L260.382984,354.660269 L260.136109,354.586242 L259.90512,354.486231 L259.690614,354.362328 L259.493187,354.216625 L259.313438,354.051213 L259.151963,353.868185 L259.009359,353.669633 L258.886225,353.457648 L258.783156,353.234323 L258.70075,353.00175 L258.639605,352.762021 L258.600317,352.517227 L258.583484,352.269461 L258.589704,352.020815 L258.619572,351.77338 L258.673687,351.52925 L258.752646,351.290515 L258.857046,351.059269 L258.987484,350.837602 L259.144558,350.627606 L259.328864,350.431375 L259.541,350.251 L259.541,350.251 L261.914286,348.37862 L264.214019,346.419856 L266.437758,344.377146 L268.583065,342.252931 L270.6475,340.049647 L272.628625,337.769734 L274.524,335.415632 L276.331185,332.989778 L278.047742,330.494611 L279.671231,327.932571 L281.199214,325.306096 L282.62925,322.617625 L283.958901,319.869597 L285.185727,317.06445 L286.307289,314.204623 L287.321148,311.292556 L288.224865,308.330686 L289.016,305.321453 L289.692114,302.267296 L290.250769,299.170653 L290.689523,296.033963 L291.00594,292.859665 L291.197578,289.650198 L291.262,286.408 L291.262,286.408 L291.077212,280.923993 L290.530802,275.539175 L289.634699,270.265475 L288.400833,265.114819 L286.841134,260.099138 L284.967531,255.230359 L282.791954,250.520411 L280.326333,245.981222 L277.582598,241.624721 L274.572677,237.462835 L271.308501,233.507494 L267.802,229.770625 L264.065103,226.264157 L260.10974,223 L255.94784,219.990139 L251.591333,217.246444 L247.05215,214.780865 L242.342219,212.605328 L237.47347,210.731763 L232.457833,209.172097 L227.307238,207.93826 L222.033615,207.042179 L216.648892,206.495783 L211.165,206.311 L211.165,206.311 L205.681108,206.495783 L200.296385,207.042179 L195.022762,207.93826 L189.872167,209.172097 L184.85653,210.731763 L179.987781,212.605328 L175.27785,214.780865 L170.738667,217.246444 L166.38216,219.990139 L162.22026,223 L158.264897,226.264157 L154.528,229.770625 L151.021499,233.507494 L147.757323,237.462835 L144.747402,241.624721 L142.003667,245.981222 L139.538046,250.520411 L137.362469,255.230359 L135.488866,260.099138 L133.929167,265.114819 L132.695301,270.265475 L131.799198,275.539175 L131.252788,280.923993 L131.068,286.408 L131.132422,289.650078 L131.32406,292.859435 L131.640475,296.033633 L132.079227,299.170231 L132.637877,302.266792 L133.313984,305.320875 L134.10511,308.330041 L135.008815,311.291852 L136.022658,314.203867 L137.144201,317.063648 L138.371003,319.868755 L139.700625,322.61675 L141.130627,325.305192 L142.65857,327.931644 L144.282014,330.493664 L145.998519,332.988815 L147.805645,335.414657 L149.700953,337.76875 L151.682004,340.048656 L153.746356,342.251935 L155.891572,344.376148 L158.115211,346.418856 L160.414834,348.37762 L162.788,350.25 L162.788,350.25 L163.000266,350.43049 L163.18471,350.626817 L163.341928,350.836891 L163.472514,351.05862 L163.577064,351.289916 L163.656172,351.528687 L163.710434,351.772844 L163.740444,352.020296 L163.746799,352.268953 L163.730092,352.516725 L163.690919,352.76152 L163.629875,353.00125 L163.547555,353.233823 L163.444554,353.45715 L163.321467,353.669141 L163.178889,353.867704 L163.017415,354.050749 L162.837641,354.216187 L162.64016,354.361928 L162.425569,354.48588 L162.194463,354.585953 L161.947436,354.660058 L161.685083,354.706104 L161.408,354.722 L161.408,354.722 L159.139976,354.725162 L156.941973,354.730024 L154.816348,354.739027 L152.765454,354.754611 L150.791647,354.779216 L148.897281,354.815281 L147.084713,354.865248 L145.356296,354.931556 L143.714387,355.016645 L142.161339,355.122955 L140.699509,355.252927 L139.33125,355.409 L138.058919,355.593615 L136.884869,355.809212 L135.811457,356.05823 L134.841037,356.343111 L133.975964,356.666294 L133.218594,357.030219 L132.571281,357.437326 L132.03638,357.890056 L131.616246,358.390848 L131.313235,358.942142 L131.129701,359.54638 L131.068,360.206 L131.165694,360.956896 L131.453134,361.63713 L131.921859,362.250143 L132.563407,362.799375 L133.369317,363.288269 L134.331125,363.720266 L135.440371,364.098807 L136.688593,364.427333 L138.067328,364.709287 L139.568116,364.948109 L141.182494,365.147242 L142.902,365.310125 L144.718173,365.440201 L146.622551,365.540911 L148.606672,365.615697 L150.662074,365.668 L152.780296,365.701261 L154.952875,365.718922 L157.17135,365.724424 L159.427259,365.721208 L161.712141,365.712717 L164.017532,365.702391 L166.334973,365.693671 L168.656,365.69 L168.656,365.69 L170.70343,365.733838 L172.707854,365.780765 L174.66535,365.832527 L176.571995,365.89087 L178.423869,365.95754 L180.217047,366.034281 L181.947608,366.12284 L183.61163,366.224963 L185.205189,366.342395 L186.724365,366.476881 L188.165234,366.630167 L189.523875,366.804 L190.796365,367.000124 L191.978781,367.220286 L193.067201,367.46623 L194.057704,367.739704 L194.946366,368.042451 L195.729266,368.376219 L196.40248,368.742752 L196.962088,369.143796 L197.404166,369.581098 L197.724792,370.056402 L197.920044,370.571454 L197.986,371.128 L197.986,371.128 L197.924413,371.771916 L197.74201,372.357868 L197.44233,372.888789 L197.028912,373.367611 L196.505294,373.797266 L195.875016,374.180687 L195.141615,374.520806 L194.30863,374.820556 L193.3796,375.082867 L192.358063,375.310674 L191.247559,375.506907 L190.051625,375.6745 L188.773801,375.816385 L187.417624,375.935493 L185.986635,376.034758 L184.48437,376.117111 L182.91437,376.185485 L181.280172,376.242813 L179.585315,376.292025 L177.833338,376.336056 L176.027779,376.377836 L174.172178,376.420299 L172.270072,376.466376 L170.325,376.519 L170.325,376.519 L167.995407,376.519792 L165.653483,376.525333 L163.309139,376.540373 L160.972282,376.569662 L158.652824,376.617949 L156.360672,376.689984 L154.105736,376.790517 L151.897926,376.924296 L149.74715,377.096072 L147.663319,377.310594 L145.656341,377.572612 L143.736125,377.886875 L141.912581,378.258133 L140.195619,378.691135 L138.595146,379.190631 L137.121074,379.76137 L135.783311,380.408103 L134.591766,381.135578 L133.556348,381.948546 L132.686968,382.851755 L131.993533,383.849955 L131.485954,384.947896 L131.17414,386.150328 L131.068,387.462 L131.068,387.462 L131.165694,388.773552 L131.453134,389.975874 L131.921859,391.073715 L132.563407,392.071824 L133.369317,392.974951 L134.331125,393.787844 L135.440371,394.515252 L136.688593,395.161926 L138.067328,395.732613 L139.568116,396.232064 L141.182494,396.665026 L142.902,397.03625 L144.718173,397.350484 L146.622551,397.612478 L148.606672,397.82698 L150.662074,397.998741 L152.780296,398.132508 L154.952875,398.233031 L157.17135,398.30506 L159.427259,398.353343 L161.712141,398.382629 L164.017532,398.397668 L166.334973,398.403208 L168.656,398.404 L168.656,398.404 L170.70343,398.483104 L172.707854,398.552728 L174.66535,398.61859 L176.571995,398.686407 L178.423869,398.761899 L180.217047,398.850781 L181.947608,398.958773 L183.61163,399.091593 L185.205189,399.254957 L186.724365,399.454584 L188.165234,399.696193 L189.523875,399.9855 L190.796365,400.328224 L191.978781,400.730082 L193.067201,401.196793 L194.057704,401.734074 L194.946366,402.347643 L195.729266,403.043219 L196.40248,403.826518 L196.962088,404.703259 L197.404166,405.67916 L197.724792,406.759939 L197.920044,407.951313 L197.986,409.259 L197.986,409.259 L197.909325,410.570272 L197.68258,411.771804 L197.310684,412.868418 L196.798556,413.864935 L196.151115,414.766178 L195.373281,415.576969 L194.469974,416.302129 L193.446111,416.946481 L192.306613,417.514848 L191.056399,418.01205 L189.700388,418.44291 L188.2435,418.81225 L186.690653,419.124892 L185.046767,419.385659 L183.316762,419.599371 L181.505556,419.770852 L179.618068,419.904923 L177.659219,420.006406 L175.633927,420.080124 L173.547111,420.130898 L171.403691,420.163551 L169.208587,420.182904 L166.966717,420.19378 L164.683,420.201 L164.683,420.201 L162.382091,420.218985 L160.122705,420.274674 L157.909855,420.370666 L155.748556,420.50956 L153.643818,420.693956 L151.600656,420.926453 L149.624083,421.209651 L147.719111,421.546148 L145.890754,421.938545 L144.144024,422.38944 L142.483935,422.901434 L140.9155,423.477125 L139.443731,424.119113 L138.073642,424.829997 L136.810246,425.612377 L135.658556,426.468852 L134.623584,427.402021 L133.710344,428.414484 L132.923849,429.508841 L132.269111,430.68769 L131.751145,431.953631 L131.374962,433.309263 L131.145576,434.757187 L131.068,436.3 L131.068,436.3 L131.14471,437.842424 L131.371554,439.289249 L131.743604,440.643178 L132.255931,441.906912 L132.903607,443.083155 L133.681703,444.174609 L134.585292,445.183978 L135.609444,446.113963 L136.749232,446.967268 L137.999727,447.746594 L139.356001,448.454646 L140.813125,449.094125 L142.366171,449.667734 L144.01021,450.178177 L145.740314,450.628154 L147.551556,451.02037 L149.439005,451.357527 L151.397734,451.642328 L153.422815,451.877475 L155.509319,452.065671 L157.652318,452.209619 L159.846884,452.312021 L162.088087,452.375581 L164.371,452.403 L164.371,452.403 L164.384,452.403 L164.397,452.403 L164.41,452.403 L164.423,452.403 L164.436,452.403 L164.449,452.403 L164.462,452.403 L164.475,452.403 L164.488,452.403 L164.501,452.403 L164.514,452.403 L164.527,452.403 L164.54,452.403 L164.553,452.403 L164.566,452.403 L164.579,452.403 L164.592,452.403 L164.605,452.403 L164.618,452.403 L164.631,452.403 L164.644,452.403 L164.657,452.403 L164.67,452.403 L164.683,452.403 L166.966717,452.44982 L169.208587,452.568207 L171.403691,452.755801 L173.547111,453.010241 L175.633927,453.329167 L177.659219,453.710219 L179.618068,454.151036 L181.505556,454.649259 L183.316762,455.202527 L185.046767,455.80848 L186.690653,456.464758 L188.2435,457.169 L189.700388,457.918846 L191.056399,458.711936 L192.306613,459.54591 L193.446111,460.418407 L194.469974,461.327068 L195.373281,462.269531 L196.151115,463.243437 L196.798556,464.246426 L197.310684,465.276137 L197.68258,466.330209 L197.909325,467.406284 L197.986,468.502 L197.986,468.502 L197.909325,469.597711 L197.68258,470.673771 L197.310684,471.72782 L196.798556,472.7575 L196.151115,473.760451 L195.373281,474.734312 L194.469974,475.676727 L193.446111,476.585333 L192.306613,477.457773 L191.056399,478.291687 L189.700388,479.084716 L188.2435,479.8345 L186.690653,480.53868 L185.046767,481.194896 L183.316762,481.800789 L181.505556,482.354 L179.618068,482.852169 L177.659219,483.292937 L175.633927,483.673945 L173.547111,483.992833 L171.403691,484.247242 L169.208587,484.434812 L166.966717,484.553185 L164.683,484.6 L164.683,484.6 L164.67,484.6 L164.657,484.6 L164.644,484.6 L164.631,484.6 L164.618,484.6 L164.605,484.6 L164.592,484.6 L164.579,484.6 L164.566,484.6 L164.553,484.6 L164.54,484.6 L164.527,484.6 L164.514,484.6 L164.501,484.6 L164.488,484.6 L164.475,484.6 L164.462,484.6 L164.449,484.6 L164.436,484.6 L164.423,484.6 L164.41,484.6 L164.397,484.6 L164.384,484.6 L164.371,484.6 L162.088087,484.646566 L159.846884,484.764233 L157.652318,484.950709 L155.509319,485.203699 L153.422815,485.52091 L151.397734,485.900047 L149.439005,486.338817 L147.551556,486.834926 L145.740314,487.38608 L144.01021,487.989986 L142.366171,488.644348 L140.813125,489.346875 L139.356001,490.095271 L137.999727,490.887244 L136.749232,491.720498 L135.609444,492.592741 L134.585292,493.501678 L133.681703,494.445016 L132.903607,495.42046 L132.255931,496.425718 L131.743604,497.458494 L131.371554,498.516496 L131.14471,499.597429 L131.116676,500 L291.212796,500 Z" fill="#F3F3F3" fill-rule="evenodd"/>
</svg>
