<svg xmlns="http://www.w3.org/2000/svg" viewBox="125 250 125 125" width="200" height="200">
  <rect x="125" y="250" width="125" height="125" fill="#F3F3F3"/>
  <path d="M1.90876,318.395773 L6.91866,334.506705 L12.936851,350.145797 L19.925017,365.27473 L27.84484,379.855185 L36.658001,393.848846 L46.326184,407.217393 L56.81107,419.922509 L68.074341,431.925875 L80.07768,443.189174 L92.78277,453.674086 L106.151291,463.342295 L120.144927,472.155481 L134.725359,480.075328 L149.85427,487.063516 L165.493343,493.081727 L181.604259,498.091644 L189.570515,500 L310.429511,500 L318.395773,498.091644 L334.506705,493.081727 L350.145797,487.063516 L365.27473,480.075328 L379.855185,472.155481 L393.848846,463.342295 L407.217393,453.674086 L419.922509,443.189174 L431.925875,431.925875 L443.189174,419.922509 L453.674086,407.217393 L463.342295,393.848846 L472.155481,379.855185 L480.075328,365.27473 L487.063516,350.145797 L493.081727,334.506705 L498.091644,318.395773 L500,310.429511 L500,189.570521 L498.091644,181.604267 L493.081727,165.493355 L487.063516,149.854287 L480.075328,134.725381 L472.155481,120.144954 L463.342295,106.151325 L453.674086,92.782809 L443.189174,80.077727 L431.925875,68.074394 L419.922509,56.811129 L407.217393,46.326249 L393.848846,36.658072 L379.855185,27.844916 L365.27473,19.925098 L350.145797,12.936936 L334.506705,6.918748 L318.395773,1.908851 L310.427416,0 L189.572584,0 L181.60426,1.908844 L165.493345,6.91874 L149.854273,12.936927 L134.725363,19.925089 L120.144931,27.844907 L106.151296,36.658063 L92.782776,46.32624 L80.077687,56.81112 L68.074349,68.074386 L56.811078,80.07772 L46.326193,92.782803 L36.65801,106.151319 L27.844849,120.14495 L19.925026,134.725378 L12.93686,149.854285 L6.918668,165.493353 L1.908767,181.604265 L0,189.572261 L0,310.427796 Z" fill="#121212" fill-rule="evenodd"/>
  <path d="M19.4175 250C19.4175 122.653 122.653 19.4175 250 19.4175C377.347 19.4176 480.583 122.653 480.583 250C480.583 377.347 377.347 480.583 250 480.583C122.653 480.583 19.4175 377.347 19.4175 250ZM46.1165 250C46.1165 137.398 137.398 46.1165 250 46.1165C362.602 46.1166 453.884 137.398 453.884 250C453.884 362.602 362.602 453.884 250 453.883C137.398 453.883 46.1165 362.602 46.1165 250Z" fill="#121212" fill-rule="evenodd"/>
  <path d="M70.3883 251.214C70.3884 151.347 151.347 70.3883 251.214 70.3883C351.081 70.3884 432.039 151.347 432.039 251.214C432.039 351.081 351.081 432.039 251.214 432.039C151.347 432.039 70.3883 351.081 70.3883 251.214ZM97.0874 251.214C97.0874 166.092 166.092 97.0874 251.214 97.0874C336.335 97.0874 405.34 166.092 405.34 251.214C405.34 336.335 336.335 405.34 251.214 405.34C166.092 405.34 97.0874 336.335 97.0874 251.214Z" fill="#121212" fill-rule="evenodd"/>
  <path d="M123.786 250C123.786 179.256 180.537 121.359 251.213 121.359C321.89 121.359 378.641 179.256 378.641 250C378.641 320.744 321.89 378.641 251.213 378.641C180.537 378.641 123.786 320.744 123.786 250ZM150.485 250C150.485 193.699 195.583 148.058 251.213 148.058C306.844 148.058 351.942 193.699 351.942 250C351.942 306.301 306.844 351.942 251.213 351.942C195.583 351.942 150.485 306.301 150.485 250Z" fill="#121212" fill-rule="evenodd"/>
  <path d="M172.33 251.214C172.33 208.243 206.515 172.33 250 172.33C293.485 172.33 327.67 208.243 327.67 251.214C327.67 294.184 293.485 330.097 250 330.097C206.515 330.097 172.33 294.184 172.33 251.214ZM199.029 251.214C199.029 222.393 221.85 199.029 250 199.029C278.15 199.029 300.971 222.393 300.971 251.214C300.971 280.034 278.15 303.398 250 303.398C221.85 303.398 199.029 280.034 199.029 251.214Z" fill="#F3F3F3" fill-rule="evenodd"/>
  <path d="M250 203.884C250 203.884 225.728 244.315 225.728 257.564C225.728 270.813 236.595 281.553 250 281.553C263.405 281.553 274.272 270.813 274.272 257.564C274.272 244.315 250 203.884 250 203.884Z" fill="#121212"/>
</svg>
