<svg xmlns="http://www.w3.org/2000/svg" viewBox="375 250 125 125" width="200" height="200">
  <rect x="375" y="250" width="125" height="125" fill="#F3F3F3"/>
  <path d="M500 248.787C500 199.581 485.338 151.481 457.867 110.568C430.397 69.6555 391.352 37.7679 345.671 18.9379C299.989 0.107808 249.723 -4.81899 201.228 4.78049C152.732 14.38 108.187 38.0746 73.2234 72.868C38.2603 107.661 14.4501 151.991 4.80379 200.251C1.51319 216.713 -0.0787907 233.381 0.00299541 250.003C137.776 250.65 249.338 361.132 249.996 497.573H250V248.787H500Z" fill="#121212" fill-rule="evenodd"/>
  <path d="M374.367043,250.93845 L372.540509,253.664541 L369.628906,258.044381 L365.740741,263.944079 L360.98452,271.229744 L355.46875,279.767484 L349.301939,289.42341 L342.592593,300.06363 L335.449219,311.554252 L327.980324,323.761386 L320.294416,336.551141 L312.5,349.789625 L304.705584,363.342948 L297.019676,377.077218 L289.550781,390.858545 L282.407407,404.553037 L275.698061,418.026803 L269.53125,431.145953 L264.01548,443.776595 L259.259259,455.784838 L255.371094,467.036791 L252.459491,477.398563 L250.632957,486.736263 L250,494.916 L250,494.916 L250.195643,500 L499.804357,500 L500,494.916 L500,494.916 L499.367043,486.736263 L497.540509,477.398563 L494.628906,467.036791 L490.740741,455.784838 L485.98452,443.776595 L480.46875,431.145953 L474.301939,418.026803 L467.592593,404.553037 L460.449219,390.858545 L452.980324,377.077218 L445.294416,363.342948 L437.5,349.789625 L429.705584,336.551141 L422.019676,323.761386 L414.550781,311.554252 L407.407407,300.06363 L400.698061,289.42341 L394.53125,279.767484 L389.01548,271.229744 L384.259259,263.944079 L380.371094,258.044381 L377.459491,253.664541 L375.632957,250.93845 L375,250 L375,250 Z" fill="#121212"/>
</svg>
