<svg xmlns="http://www.w3.org/2000/svg" viewBox="125 125 125 125" width="200" height="200">
  <rect x="125" y="125" width="125" height="125" fill="#F3F3F3"/>
  <path d="M39.6183 237.831C44.0569 237.831 47.7529 226.255 48.5039 211.008L48.5039 204.926C48.5039 186.929 56.5795 172.33 66.5368 172.33C76.4941 172.33 84.5696 186.929 84.5696 204.926L84.5696 209.39C85.7004 225.43 93.278 237.831 102.459 237.831C112.425 237.831 120.492 223.239 120.492 205.235L120.492 204.926C120.492 186.929 132.373 172.33 147.022 172.33C161.671 172.33 173.561 186.929 173.561 204.926L173.561 205.235C173.561 223.239 185.434 237.831 200.091 237.831C214.749 237.831 226.621 223.239 226.621 205.235L226.621 204.926C226.621 186.929 238.503 172.33 253.152 172.33C267.801 172.33 279.547 186.765 279.682 204.624L279.682 204.926C279.817 222.792 291.648 237.221 306.212 237.221C320.777 237.221 332.608 222.792 332.743 204.926L332.743 204.624C332.878 186.765 344.708 172.33 359.281 172.33C373.854 172.33 385.677 186.765 385.812 204.624L385.812 204.926C385.905 222.792 393.938 237.221 403.845 237.221C413.026 237.221 420.603 224.819 421.734 208.779L421.734 204.926C421.734 186.928 429.801 172.33 439.767 172.33C449.733 172.33 457.8 186.928 457.8 204.926L457.8 210.397C458.551 225.644 462.247 237.221 466.685 237.221C471.124 237.221 475.081 224.819 475.647 208.779L475.647 204.926C475.647 186.928 479.697 172.33 484.684 172.33C489.671 172.33 493.68 186.765 493.722 204.624L493.722 204.926C493.739 222.792 495.139 237.221 496.869 237.221C498.481 237.221 499.806 224.819 500 208.779L500 290.61C499.806 274.57 498.481 262.169 496.869 262.169C495.131 262.169 493.722 276.761 493.722 294.765L493.722 295.073C493.722 313.071 489.671 327.67 484.684 327.67C479.697 327.67 475.647 313.071 475.647 295.073L475.647 290.61C475.081 274.57 471.293 262.169 466.685 262.169C462.078 262.169 458.551 273.745 457.8 288.992L457.8 295.073C457.8 313.071 449.724 327.67 439.767 327.67C429.81 327.67 421.734 313.071 421.734 295.073L421.734 290.61C420.603 274.57 413.026 262.169 403.845 262.169C393.879 262.169 385.812 276.761 385.812 294.765L385.812 295.073C385.812 313.071 373.93 327.67 359.281 327.67C344.632 327.67 332.743 313.071 332.743 295.073L332.743 294.765C332.743 276.761 320.87 262.169 306.212 262.169C291.555 262.169 279.682 276.761 279.682 294.765L279.682 295.073C279.682 313.071 267.801 327.67 253.152 327.67C238.503 327.67 226.756 313.235 226.621 295.376L226.621 295.073C226.486 277.208 214.656 262.779 200.091 262.779C185.527 262.779 173.696 277.208 173.561 295.073L173.561 295.376C173.426 313.235 161.595 327.67 147.022 327.67C132.449 327.67 120.492 313.071 120.492 295.073C120.399 277.208 112.366 262.779 102.459 262.779C93.278 262.779 85.7004 275.181 84.5696 291.221L84.5696 295.073C84.5696 313.071 76.5025 327.67 66.5368 327.67C56.571 327.67 48.5039 313.071 48.5039 295.073L48.5039 289.603C47.7529 274.356 44.0569 262.779 39.6183 262.779C35.1797 262.779 31.2221 275.181 30.6567 291.221L30.6567 295.074C30.6567 313.071 26.6063 327.67 21.6192 327.67C16.6321 327.67 12.6239 313.235 12.5817 295.376L12.5817 295.074C12.5648 277.208 11.164 262.779 9.43418 262.779C7.82245 262.779 6.49762 275.181 6.30354 291.221L6.30354 295.074C6.30354 313.071 4.89433 327.67 3.15602 327.67C1.41771 327.67 6.0397e-05 313.071 5.96103e-05 295.074L5.56699e-05 204.926C5.48832e-05 186.929 1.40927 172.33 3.15601 172.33C4.90276 172.33 6.30353 186.929 6.30353 204.926L6.30353 209.39C6.49762 225.43 7.82245 237.831 9.43418 237.831C11.1725 237.831 12.5817 223.239 12.5817 205.235L12.5817 204.926C12.5817 186.929 16.6321 172.33 21.6192 172.33C26.6063 172.33 30.6567 186.929 30.6567 204.926L30.6567 209.39C31.2221 225.43 35.0109 237.831 39.6183 237.831Z" fill="#121212"/>
  <path d="M26.43671,10.070148 L34.132405,24.237926 L42.696155,37.835515 L52.090726,50.825681 L62.278885,63.171191 L73.223398,74.834812 L84.88703,85.779311 L97.232549,95.967455 L110.222719,105.362009 L123.820308,113.925741 L137.988081,121.621417 L152.688804,128.411805 L167.885243,134.25967 L183.540165,139.12778 L199.616336,142.978901 L216.076521,145.775801 L232.883487,147.481245 L250,148.058 L267.116513,147.481245 L283.92348,145.775801 L300.383666,142.978901 L316.459838,139.12778 L332.114762,134.25967 L347.311203,128.411805 L362.011928,121.621417 L376.179704,113.925741 L389.777295,105.362009 L402.767468,95.967455 L415.11299,85.779311 L426.776625,74.834812 L437.721141,63.171191 L447.909303,50.825681 L457.303877,37.835515 L465.86763,24.237926 L473.563327,10.070148 L478.214823,0 L21.785216,0 Z" fill="#121212"/>
</svg>
