<svg xmlns="http://www.w3.org/2000/svg" viewBox="0 0 125 125" width="200" height="200">
  <rect x="0" y="0" width="125" height="125" fill="#F3F3F3"/>
  <path d="M26.43671,10.070148 L34.132405,24.237926 L42.696155,37.835515 L52.090726,50.825681 L62.278885,63.171191 L73.223398,74.834812 L84.88703,85.779311 L97.232549,95.967455 L110.222719,105.362009 L123.820308,113.925741 L137.988081,121.621417 L152.688804,128.411805 L167.885243,134.25967 L183.540165,139.12778 L199.616336,142.978901 L216.076521,145.775801 L232.883487,147.481245 L250,148.058 L267.116513,147.481245 L283.92348,145.775801 L300.383666,142.978901 L316.459838,139.12778 L332.114762,134.25967 L347.311203,128.411805 L362.011928,121.621417 L376.179704,113.925741 L389.777295,105.362009 L402.767468,95.967455 L415.11299,85.779311 L426.776625,74.834812 L437.721141,63.171191 L447.909303,50.825681 L457.303877,37.835515 L465.86763,24.237926 L473.563327,10.070148 L478.214823,0 L21.785216,0 Z" fill="#121212"/>
</svg>
