<svg xmlns="http://www.w3.org/2000/svg" viewBox="375 375 125 125" width="200" height="200">
  <rect x="375" y="375" width="125" height="125" fill="#F3F3F3"/>
  <path d="M2.65107,499.992898 L6.9476,500 L6.9476,500 L16.786825,500 L26.62605,500 L36.465275,500 L46.3045,500 L56.143725,500 L65.98295,500 L75.822175,500 L85.6614,500 L95.500625,500 L105.33985,500 L115.179075,500 L125.0183,500 L134.857525,500 L144.69675,500 L154.535975,500 L164.3752,500 L174.214425,500 L184.05365,500 L193.892875,500 L203.7321,500 L213.571325,500 L223.41055,500 L233.249775,500 L243.089,500 L243.424761,500 L243.760277,500 L244.09552,500 L244.430463,500 L244.76508,500 L245.099344,500 L245.433227,500 L245.766704,500 L246.099746,500 L246.432328,500 L246.764421,500 L247.096,500 L247.427037,500 L247.757506,500 L248.087379,500 L248.41663,500 L248.745231,500 L249.073156,500 L249.400378,500 L249.72687,500 L250.052605,500 L250.377557,500 L250.701697,500 L251.025,500 L251.025,500 L251.349685,500 L251.674984,500 L252.000883,500 L252.32737,500 L252.654434,500 L252.982062,500 L253.310243,500 L253.638963,500 L253.968211,500 L254.297975,500 L254.628242,500 L254.959,500 L255.290238,500 L255.621942,500 L255.954102,500 L256.286704,500 L256.619736,500 L256.953187,500 L257.287045,500 L257.621296,500 L257.95593,500 L258.290933,500 L258.626294,500 L258.962,500 L258.962,500 L268.71575,500 L278.4695,500 L288.22325,500 L297.977,500 L307.73075,500 L317.4845,500 L327.23825,500 L336.992,500 L346.74575,500 L356.4995,500 L366.25325,500 L376.007,500 L385.76075,500 L395.5145,500 L405.26825,500 L415.022,500 L424.77575,500 L434.5295,500 L444.28325,500 L454.037,500 L463.79075,500 L473.5445,500 L483.29825,500 L493.052,500 L497.348611,499.992833 L500,499.979515 L500,493.806656 L497.348611,493.793228 L493.052,493.786 L493.052,493.786 L492.808917,493.786 L492.565833,493.786 L492.32275,493.786 L492.079667,493.786 L491.836583,493.786 L491.5935,493.786 L491.350417,493.786 L491.107333,493.786 L490.86425,493.786 L490.621167,493.786 L490.378083,493.786 L490.135,493.786 L489.891917,493.786 L489.648833,493.786 L489.40575,493.786 L489.162667,493.786 L488.919583,493.786 L488.6765,493.786 L488.433417,493.786 L488.190333,493.786 L487.94725,493.786 L487.704167,493.786 L487.461083,493.786 L487.218,493.786 L483.300066,493.759332 L479.462152,493.72107 L475.711967,493.67158 L472.057218,493.611227 L468.505612,493.540375 L465.064859,493.459391 L461.742666,493.368638 L458.546741,493.268481 L455.484791,493.159287 L452.564525,493.04142 L449.79365,492.915244 L447.179875,492.781125 L444.730907,492.639428 L442.454454,492.490518 L440.358225,492.33476 L438.449926,492.172519 L436.737266,492.004159 L435.227953,491.830047 L433.929695,491.650547 L432.850199,491.466023 L431.997174,491.276842 L431.378327,491.083367 L431.001366,490.885965 L430.874,490.685 L430.874,490.685 L431.017092,490.483271 L431.440255,490.283711 L432.134322,490.086883 L433.090125,489.893352 L434.298495,489.703682 L435.750266,489.518438 L437.436268,489.338183 L439.347333,489.163481 L441.474295,488.994898 L443.807984,488.832998 L446.339234,488.678343 L449.058875,488.5315 L451.95774,488.393032 L455.026661,488.263502 L458.256471,488.143477 L461.638,488.033519 L465.162081,487.934192 L468.819547,487.846062 L472.601229,487.769693 L476.497958,487.705648 L480.500568,487.654492 L484.599891,487.616789 L488.786757,487.593104 L493.052,487.584 L493.052,487.584 L493.076792,487.584 L493.101583,487.584 L493.126375,487.584 L493.151167,487.584 L493.175958,487.584 L493.20075,487.584 L493.225542,487.584 L493.250333,487.584 L493.275125,487.584 L493.299917,487.584 L493.324708,487.584 L493.3495,487.584 L493.374292,487.584 L493.399083,487.584 L493.423875,487.584 L493.448667,487.584 L493.473458,487.584 L493.49825,487.584 L493.523042,487.584 L493.547833,487.584 L493.572625,487.584 L493.597417,487.584 L493.622208,487.584 L493.647,487.584 L497.909947,487.557374 L500,487.524284 L500,469.803999 L497.348611,469.765645 L493.052,469.745 L493.052,469.745 L492.765333,469.745 L492.478667,469.745 L492.192,469.745 L491.905333,469.745 L491.618667,469.745 L491.332,469.745 L491.045333,469.745 L490.758667,469.745 L490.472,469.745 L490.185333,469.745 L489.898667,469.745 L489.612,469.745 L489.325333,469.745 L489.038667,469.745 L488.752,469.745 L488.465333,469.745 L488.178667,469.745 L487.892,469.745 L487.605333,469.745 L487.318667,469.745 L487.032,469.745 L486.745333,469.745 L486.458667,469.745 L486.172,469.745 L482.315959,469.664413 L478.540297,469.550863 L474.852457,469.40542 L471.25988,469.229153 L467.770007,469.02313 L464.390281,468.788422 L461.128144,468.526096 L457.991037,468.237222 L454.986402,467.922869 L452.121682,467.584106 L449.404317,467.222002 L446.84175,466.837625 L444.441423,466.432045 L442.210777,466.006332 L440.157254,465.561553 L438.288296,465.098778 L436.611346,464.619076 L435.133844,464.123516 L433.863232,463.613166 L432.806954,463.089097 L431.972449,462.552377 L431.367161,462.004075 L430.998531,461.445259 L430.874,460.877 L430.874,460.877 L430.987002,460.31066 L431.321723,459.757299 L431.871736,459.217531 L432.630616,458.691972 L433.591934,458.181236 L434.749266,457.685938 L436.096183,457.206691 L437.626259,456.744111 L439.333068,456.298812 L441.210183,455.87141 L443.251178,455.462517 L445.449625,455.07275 L447.799098,454.702722 L450.293171,454.353049 L452.925416,454.024344 L455.689407,453.717222 L458.578718,453.432299 L461.586922,453.170188 L464.707592,452.931503 L467.934301,452.716861 L471.260623,452.526875 L474.680131,452.36216 L478.186399,452.22333 L481.773,452.111 L481.773,452.111 L482.242958,452.111 L482.712917,452.111 L483.182875,452.111 L483.652833,452.111 L484.122792,452.111 L484.59275,452.111 L485.062708,452.111 L485.532667,452.111 L486.002625,452.111 L486.472583,452.111 L486.942542,452.111 L487.4125,452.111 L487.882458,452.111 L488.352417,452.111 L488.822375,452.111 L489.292333,452.111 L489.762292,452.111 L490.23225,452.111 L490.702208,452.111 L491.172167,452.111 L491.642125,452.111 L492.112083,452.111 L492.582042,452.111 L493.052,452.111 L497.348611,452.0699 L500,451.993523 L500,416.601092 L497.348611,416.524964 L493.052,416.484 L493.052,416.484 L492.752958,416.484 L492.453917,416.484 L492.154875,416.484 L491.855833,416.484 L491.556792,416.484 L491.25775,416.484 L490.958708,416.484 L490.659667,416.484 L490.360625,416.484 L490.061583,416.484 L489.762542,416.484 L489.4635,416.484 L489.164458,416.484 L488.865417,416.484 L488.566375,416.484 L488.267333,416.484 L487.968292,416.484 L487.66925,416.484 L487.370208,416.484 L487.071167,416.484 L486.772125,416.484 L486.473083,416.484 L486.174042,416.484 L485.875,416.484 L482.036879,416.315428 L478.279181,416.082337 L474.609275,415.786793 L471.034532,415.430861 L467.562322,415.016606 L464.200016,414.546094 L460.954982,414.021388 L457.834593,413.444556 L454.846217,412.81766 L451.997225,412.142767 L449.294988,411.421942 L446.746875,410.65725 L444.360257,409.850756 L442.142504,409.004524 L440.100986,408.120621 L438.243074,407.201111 L436.576138,406.248059 L435.107547,405.263531 L433.844672,404.249592 L432.794884,403.208306 L431.965553,402.141738 L431.364048,401.051955 L430.99774,399.94102 L430.874,398.811 L430.874,398.811 L431.017092,397.599073 L431.440255,396.408791 L432.134322,395.242777 L433.090125,394.103657 L434.298495,392.994055 L435.750266,391.916594 L437.436268,390.873898 L439.347333,389.868593 L441.474295,388.903301 L443.807984,387.980647 L446.339234,387.103255 L449.058875,386.27375 L451.95774,385.494755 L455.026661,384.768895 L458.256471,384.098793 L461.638,383.487074 L465.162081,382.936362 L468.819547,382.449281 L472.601229,382.028456 L476.497958,381.676509 L480.500568,381.396066 L484.599891,381.189751 L488.786757,381.060188 L493.052,381.01 L493.052,381.01 L493.076792,381.01 L493.101583,381.01 L493.126375,381.01 L493.151167,381.01 L493.175958,381.01 L493.20075,381.01 L493.225542,381.01 L493.250333,381.01 L493.275125,381.01 L493.299917,381.01 L493.324708,381.01 L493.3495,381.01 L493.374292,381.01 L493.399083,381.01 L493.423875,381.01 L493.448667,381.01 L493.473458,381.01 L493.49825,381.01 L493.523042,381.01 L493.547833,381.01 L493.572625,381.01 L493.597417,381.01 L493.622208,381.01 L493.647,381.01 L497.909947,380.93299 L500,380.836368 L500,328.777471 L497.909947,328.680944 L493.647,328.604 L493.647,328.604 L493.622208,328.604 L493.597417,328.604 L493.572625,328.604 L493.547833,328.604 L493.523042,328.604 L493.49825,328.604 L493.473458,328.604 L493.448667,328.604 L493.423875,328.604 L493.399083,328.604 L493.374292,328.604 L493.3495,328.604 L493.324708,328.604 L493.299917,328.604 L493.275125,328.604 L493.250333,328.604 L493.225542,328.604 L493.20075,328.604 L493.175958,328.604 L493.151167,328.604 L493.126375,328.604 L493.101583,328.604 L493.076792,328.604 L493.052,328.604 L488.786757,328.526935 L484.599891,328.333541 L480.500568,328.027645 L476.497958,327.613074 L472.601229,327.093656 L468.819547,326.473219 L465.162081,325.755588 L461.638,324.944593 L458.256471,324.044059 L455.026661,323.057814 L451.95774,321.989685 L449.058875,320.8435 L446.339234,319.623086 L443.807984,318.33227 L441.474295,316.974879 L439.347333,315.554741 L437.436268,314.075682 L435.750266,312.541531 L434.298495,310.956114 L433.090125,309.323259 L432.134322,307.646793 L431.440255,305.930543 L431.017092,304.178336 L430.874,302.394 L430.874,302.394 L431.017092,300.609676 L431.440255,298.85774 L432.134322,297.141996 L433.090125,295.46625 L434.298495,293.834306 L435.750266,292.249969 L437.436268,290.717043 L439.347333,289.239333 L441.474295,287.820645 L443.807984,286.464781 L446.339234,285.175548 L449.058875,283.95675 L451.95774,282.812191 L455.026661,281.745677 L458.256471,280.761012 L461.638,279.862 L465.162081,279.052447 L468.819547,278.336156 L472.601229,277.716934 L476.497958,277.198583 L480.500568,276.78491 L484.599891,276.479719 L488.786757,276.286814 L493.052,276.21 L493.052,276.21 L493.076792,276.21 L493.101583,276.21 L493.126375,276.21 L493.151167,276.21 L493.175958,276.21 L493.20075,276.21 L493.225542,276.21 L493.250333,276.21 L493.275125,276.21 L493.299917,276.21 L493.324708,276.21 L493.3495,276.21 L493.374292,276.21 L493.399083,276.21 L493.423875,276.21 L493.448667,276.21 L493.473458,276.21 L493.49825,276.21 L493.523042,276.21 L493.547833,276.21 L493.572625,276.21 L493.597417,276.21 L493.622208,276.21 L493.647,276.21 L497.909947,276.132875 L500,276.036205 L500,223.964137 L497.348611,223.850938 L493.052,223.79 L493.052,223.79 L493.02725,223.79 L493.0025,223.79 L492.97775,223.79 L492.953,223.79 L492.92825,223.79 L492.9035,223.79 L492.87875,223.79 L492.854,223.79 L492.82925,223.79 L492.8045,223.79 L492.77975,223.79 L492.755,223.79 L492.73025,223.79 L492.7055,223.79 L492.68075,223.79 L492.656,223.79 L492.63125,223.79 L492.6065,223.79 L492.58175,223.79 L492.557,223.79 L492.53225,223.79 L492.5075,223.79 L492.48275,223.79 L492.458,223.79 L488.161389,223.729577 L483.942296,223.550906 L479.810086,223.257885 L475.77412,222.854412 L471.843762,222.344385 L468.028375,221.731703 L464.337321,221.020263 L460.779963,220.213963 L457.365664,219.316701 L454.103787,218.332376 L451.003695,217.264884 L448.07475,216.118125 L445.326316,214.895996 L442.767755,213.602395 L440.40843,212.241221 L438.257704,210.81637 L436.32494,209.331742 L434.6195,207.791234 L433.150748,206.198745 L431.928046,204.558171 L430.960758,202.873412 L430.258245,201.148365 L429.829872,199.386928 L429.685,197.593 L429.685,197.593 L429.829872,195.799126 L430.258245,194.037609 L430.960758,192.312359 L431.928046,190.627287 L433.150748,188.986302 L434.6195,187.393313 L436.32494,185.85223 L438.257704,184.366963 L440.40843,182.941422 L442.767755,181.579516 L445.326316,180.285156 L448.07475,179.06225 L451.003695,177.914709 L454.103787,176.846442 L457.365664,175.861359 L460.779963,174.96337 L464.337321,174.156385 L468.028375,173.444313 L471.843762,172.831063 L475.77412,172.320546 L479.810086,171.916672 L483.942296,171.62335 L488.161389,171.444489 L492.458,171.384 L492.458,171.384 L492.48275,171.384 L492.5075,171.384 L492.53225,171.384 L492.557,171.384 L492.58175,171.384 L492.6065,171.384 L492.63125,171.384 L492.656,171.384 L492.68075,171.384 L492.7055,171.384 L492.73025,171.384 L492.755,171.384 L492.77975,171.384 L492.8045,171.384 L492.82925,171.384 L492.854,171.384 L492.87875,171.384 L492.9035,171.384 L492.92825,171.384 L492.953,171.384 L492.97775,171.384 L493.0025,171.384 L493.02725,171.384 L493.052,171.384 L497.348611,171.323573 L500,171.211286 L500,119.16307 L497.348611,119.050554 L493.052,118.99 L493.052,118.99 L493.02725,118.99 L493.0025,118.99 L492.97775,118.99 L492.953,118.99 L492.92825,118.99 L492.9035,118.99 L492.87875,118.99 L492.854,118.99 L492.82925,118.99 L492.8045,118.99 L492.77975,118.99 L492.755,118.99 L492.73025,118.99 L492.7055,118.99 L492.68075,118.99 L492.656,118.99 L492.63125,118.99 L492.6065,118.99 L492.58175,118.99 L492.557,118.99 L492.53225,118.99 L492.5075,118.99 L492.48275,118.99 L492.458,118.99 L488.161389,118.948906 L483.942296,118.827391 L479.810086,118.628109 L475.77412,118.353713 L471.843762,118.006855 L468.028375,117.590187 L464.337321,117.106364 L460.779963,116.558037 L457.365664,115.947859 L454.103787,115.278484 L451.003695,114.552563 L448.07475,113.77275 L445.326316,112.941697 L442.767755,112.062058 L440.40843,111.136484 L438.257704,110.16763 L436.32494,109.158146 L434.6195,108.110688 L433.150748,107.027906 L431.928046,105.912454 L430.960758,104.766984 L430.258245,103.59415 L429.829872,102.396605 L429.685,101.177 L429.685,101.177 L429.808792,100.0484 L430.175251,98.93864 L430.777002,97.849809 L431.606671,96.783994 L432.656884,95.743284 L433.920266,94.729766 L435.389441,93.745527 L437.057037,92.792656 L438.915678,91.873239 L440.957989,90.989366 L443.176596,90.143124 L445.564125,89.3366 L448.113201,88.571882 L450.816448,87.851059 L453.666494,87.176217 L456.655963,86.549444 L459.77748,85.972829 L463.023672,85.448459 L466.387163,84.978422 L469.860579,84.564806 L473.436545,84.209697 L477.107687,83.915185 L480.86663,83.683357 L484.706,83.5163 L484.706,83.5163 L485.05375,83.5163 L485.4015,83.5163 L485.74925,83.5163 L486.097,83.5163 L486.44475,83.5163 L486.7925,83.5163 L487.14025,83.5163 L487.488,83.5163 L487.83575,83.5163 L488.1835,83.5163 L488.53125,83.5163 L488.879,83.5163 L489.22675,83.5163 L489.5745,83.5163 L489.92225,83.5163 L490.27,83.5163 L490.61775,83.5163 L490.9655,83.5163 L491.31325,83.5163 L491.661,83.5163 L492.00875,83.5163 L492.3565,83.5163 L492.70425,83.5163 L493.052,83.5163 L497.348611,83.475206 L500,83.398845 L500,48.007318 L497.348611,47.930724 L493.052,47.8895 L493.052,47.8895 L492.532917,47.8895 L492.013833,47.8895 L491.49475,47.8895 L490.975667,47.8895 L490.456583,47.8895 L489.9375,47.8895 L489.418417,47.8895 L488.899333,47.8895 L488.38025,47.8895 L487.861167,47.8895 L487.342083,47.8895 L486.823,47.8895 L486.303917,47.8895 L485.784833,47.8895 L485.26575,47.8895 L484.746667,47.8895 L484.227583,47.8895 L483.7085,47.8895 L483.189417,47.8895 L482.670333,47.8895 L482.15125,47.8895 L481.632167,47.8895 L481.113083,47.8895 L480.594,47.8895 L477.007349,47.775934 L473.500935,47.633652 L470.081193,47.463579 L466.75456,47.266641 L463.52747,47.043761 L460.406359,46.795866 L457.397662,46.523879 L454.507815,46.228726 L451.743252,45.911332 L449.110409,45.572621 L446.615722,45.213519 L444.265625,44.83495 L442.066554,44.43784 L440.024945,44.023112 L438.147232,43.591693 L436.439852,43.144507 L434.909239,42.682479 L433.561828,42.206534 L432.404056,41.717597 L431.442356,41.216593 L430.683166,40.704446 L430.13292,40.182081 L429.798052,39.650424 L429.685,39.1104 L429.685,39.1104 L429.809632,38.542205 L430.178554,37.983575 L430.784309,37.435568 L431.619435,36.899242 L432.676475,36.375654 L433.947969,35.865863 L435.426457,35.370925 L437.104481,34.8919 L438.974582,34.429845 L441.0293,33.985817 L443.261175,33.560874 L445.66275,33.156075 L448.226564,32.772477 L450.945159,32.411138 L453.811074,32.073115 L456.816852,31.759467 L459.955032,31.471251 L463.218156,31.209525 L466.598765,30.975347 L470.089398,30.769775 L473.682598,30.593866 L477.370904,30.448679 L481.146858,30.335271 L485.003,30.2547 L485.003,30.2547 L485.338375,30.2547 L485.67375,30.2547 L486.009125,30.2547 L486.3445,30.2547 L486.679875,30.2547 L487.01525,30.2547 L487.350625,30.2547 L487.686,30.2547 L488.021375,30.2547 L488.35675,30.2547 L488.692125,30.2547 L489.0275,30.2547 L489.362875,30.2547 L489.69825,30.2547 L490.033625,30.2547 L490.369,30.2547 L490.704375,30.2547 L491.03975,30.2547 L491.375125,30.2547 L491.7105,30.2547 L492.045875,30.2547 L492.38125,30.2547 L492.716625,30.2547 L493.052,30.2547 L497.348611,30.234184 L500,30.196059 L500,12.474805 L497.348611,12.436445 L493.052,12.4158 L493.052,12.4158 L493.02725,12.4158 L493.0025,12.4158 L492.97775,12.4158 L492.953,12.4158 L492.92825,12.4158 L492.9035,12.4158 L492.87875,12.4158 L492.854,12.4158 L492.82925,12.4158 L492.8045,12.4158 L492.77975,12.4158 L492.755,12.4158 L492.73025,12.4158 L492.7055,12.4158 L492.68075,12.4158 L492.656,12.4158 L492.63125,12.4158 L492.6065,12.4158 L492.58175,12.4158 L492.557,12.4158 L492.53225,12.4158 L492.5075,12.4158 L492.48275,12.4158 L492.458,12.4158 L488.161389,12.408633 L483.942296,12.387443 L479.810086,12.352695 L475.77412,12.304854 L471.843762,12.244386 L468.028375,12.171755 L464.337321,12.087428 L460.779963,11.991869 L457.365664,11.885543 L454.103787,11.768916 L451.003695,11.642453 L448.07475,11.506619 L445.326316,11.361879 L442.767755,11.2087 L440.40843,11.047546 L438.257704,10.878881 L436.32494,10.703173 L434.6195,10.520885 L433.150748,10.332483 L431.928046,10.138433 L430.960758,9.939199 L430.258245,9.735247 L429.829872,9.527043 L429.685,9.31505 L429.685,9.31505 L429.812418,9.114072 L430.18953,8.916534 L430.808623,8.722817 L431.661986,8.533304 L432.741906,8.348376 L434.040672,8.168417 L435.55057,7.993807 L437.263889,7.82493 L439.172916,7.662167 L441.269939,7.5059 L443.547246,7.356512 L445.997125,7.214385 L448.611863,7.079901 L451.383748,6.953442 L454.305068,6.83539 L457.368111,6.726127 L460.565164,6.626036 L463.888516,6.535498 L467.330453,6.454897 L470.883264,6.384613 L474.539236,6.325029 L478.290658,6.276528 L482.129817,6.239491 L486.049,6.2143 L486.049,6.2143 L486.340792,6.2143 L486.632583,6.2143 L486.924375,6.2143 L487.216167,6.2143 L487.507958,6.2143 L487.79975,6.2143 L488.091542,6.2143 L488.383333,6.2143 L488.675125,6.2143 L488.966917,6.2143 L489.258708,6.2143 L489.5505,6.2143 L489.842292,6.2143 L490.134083,6.2143 L490.425875,6.2143 L490.717667,6.2143 L491.009458,6.2143 L491.30125,6.2143 L491.593042,6.2143 L491.884833,6.2143 L492.176625,6.2143 L492.468417,6.2143 L492.760208,6.2143 L493.052,6.2143 L497.348611,6.207132 L500,6.193812 L500,0.020329 L497.348611,0.007126 L493.052,0 L493.052,0 L483.29825,0 L473.5445,0 L463.79075,0 L454.037,0 L444.28325,0 L434.5295,0 L424.77575,0 L415.022,0 L405.26825,0 L395.5145,0 L385.76075,0 L376.007,0 L366.25325,0 L356.4995,0 L346.74575,0 L336.992,0 L327.23825,0 L317.4845,0 L307.73075,0 L297.977,0 L288.22325,0 L278.4695,0 L268.71575,0 L258.962,0 L258.627608,0 L258.293447,0 L257.959539,0 L257.625907,0 L257.292574,0.000139 L256.959563,0.000223 L256.626894,0.00034 L256.294593,0.000496 L255.96268,0.000697 L255.631178,0.000947 L255.300111,0.001253 L254.9695,0.001619 L254.639368,0.002052 L254.309738,0.002557 L253.980633,0.00314 L253.652074,0.003806 L253.324085,0.00456 L252.996688,0.005408 L252.669905,0.006357 L252.343759,0.00741 L252.018273,0.008574 L251.69347,0.009854 L251.369371,0.011256 L251.046,0.012786 L251.044292,0.012786 L251.042583,0.012786 L251.040875,0.012786 L251.039167,0.012786 L251.037458,0.012786 L251.03575,0.012786 L251.034042,0.012786 L251.032333,0.012786 L251.030625,0.012786 L251.028917,0.012786 L251.027208,0.012786 L251.0255,0.012786 L251.023792,0.012786 L251.022083,0.012786 L251.020375,0.012786 L251.018667,0.012786 L251.016958,0.012786 L251.01525,0.012786 L251.013542,0.012786 L251.011833,0.012786 L251.010125,0.012786 L251.008417,0.012786 L251.006708,0.012786 L251.005,0.012786 L250.681629,0.011256 L250.35753,0.009854 L250.032727,0.008574 L249.707241,0.00741 L249.381095,0.006357 L249.054313,0.005408 L248.726915,0.00456 L248.398926,0.003806 L248.070367,0.00314 L247.741262,0.002557 L247.411632,0.002052 L247.0815,0.001619 L246.750889,0.001253 L246.419822,0.000947 L246.08832,0.000697 L245.756407,0.000496 L245.424106,0.00034 L245.091438,0.000223 L244.758426,0.000139 L244.425093,0 L244.091461,0 L243.757553,0 L243.423392,0 L243.089,0 L243.089,0 L233.249775,0 L223.41055,0 L213.571325,0 L203.7321,0 L193.892875,0 L184.05365,0 L174.214425,0 L164.3752,0 L154.535975,0 L144.69675,0 L134.857525,0 L125.0183,0 L115.179075,0 L105.33985,0 L95.500625,0 L85.6614,0 L75.822175,0 L65.98295,0 L56.143725,0 L46.3045,0 L36.465275,0 L26.62605,0 L16.786825,0 L6.9476,0 L2.65107,0.00719 L0,0.020504 L0,6.193637 L2.65107,6.207069 L6.9476,6.2143 L6.9476,6.2143 L7.190696,6.2143 L7.433792,6.2143 L7.676888,6.2143 L7.919983,6.2143 L8.163079,6.2143 L8.406175,6.2143 L8.649271,6.2143 L8.892367,6.2143 L9.135463,6.2143 L9.378558,6.2143 L9.621654,6.2143 L9.86475,6.2143 L10.107846,6.2143 L10.350942,6.2143 L10.594038,6.2143 L10.837133,6.2143 L11.080229,6.2143 L11.323325,6.2143 L11.566421,6.2143 L11.809517,6.2143 L12.052613,6.2143 L12.295708,6.2143 L12.538804,6.2143 L12.7819,6.2143 L16.69981,6.239491 L20.537702,6.276528 L24.287867,6.325029 L27.942598,6.384613 L31.494187,6.454897 L34.934925,6.535498 L38.257105,6.626036 L41.453019,6.726127 L44.514958,6.83539 L47.435215,6.953442 L50.206082,7.079901 L52.81985,7.214385 L55.268812,7.356512 L57.54526,7.5059 L59.641486,7.662167 L61.549781,7.82493 L63.262439,7.993807 L64.77175,8.168417 L66.070007,8.348376 L67.149502,8.533304 L68.002527,8.722817 L68.621373,8.916534 L68.998334,9.114072 L69.1257,9.31505 L69.1257,9.31505 L68.980928,9.527043 L68.552837,9.735247 L67.850763,9.939199 L66.884043,10.138433 L65.662015,10.332483 L64.194015,10.520885 L62.489381,10.703173 L60.557448,10.878881 L58.407554,11.047546 L56.049036,11.2087 L53.49123,11.361879 L50.743474,11.506619 L47.815104,11.642453 L44.715458,11.768916 L41.453871,11.885543 L38.039682,11.991869 L34.482227,12.087428 L30.790843,12.171755 L26.974866,12.244386 L23.043634,12.304854 L19.006484,12.352695 L14.872751,12.387443 L10.651775,12.408633 L6.35289,12.4158 L6.35289,12.4158 L2.089978,12.442439 L0,12.475535 L0,30.195709 L2.65107,30.234057 L6.9476,30.2547 L6.9476,30.2547 L7.234275,30.2547 L7.52095,30.2547 L7.807625,30.2547 L8.0943,30.2547 L8.380975,30.2547 L8.66765,30.2547 L8.954325,30.2547 L9.241,30.2547 L9.527675,30.2547 L9.81435,30.2547 L10.101025,30.2547 L10.3877,30.2547 L10.674375,30.2547 L10.96105,30.2547 L11.247725,30.2547 L11.5344,30.2547 L11.821075,30.2547 L12.10775,30.2547 L12.394425,30.2547 L12.6811,30.2547 L12.967775,30.2547 L13.25445,30.2547 L13.541125,30.2547 L13.8278,30.2547 L17.683909,30.335271 L21.459627,30.448679 L25.147511,30.593866 L28.740121,30.769775 L32.230017,30.975347 L35.609756,31.209525 L38.871899,31.471251 L42.009004,31.759467 L45.01363,32.073115 L47.878336,32.411137 L50.595681,32.772477 L53.158225,33.156075 L55.558526,33.560874 L57.789143,33.985817 L59.842636,34.429845 L61.711563,34.8919 L63.388483,35.370925 L64.865956,35.865862 L66.136541,36.375654 L67.192795,36.899242 L68.02728,37.435568 L68.632553,37.983575 L69.001173,38.542205 L69.1257,39.1104 L69.1257,39.1104 L69.012752,39.676794 L68.67819,40.230334 L68.128434,40.770395 L67.369908,41.29635 L66.409032,41.807573 L65.25223,42.303439 L63.905921,42.783322 L62.37653,43.246596 L60.670476,43.692636 L58.794182,44.120815 L56.754071,44.530507 L54.556562,44.921087 L52.20808,45.29193 L49.715045,45.642408 L47.083879,45.971897 L44.321004,46.27977 L41.432842,46.565402 L38.425814,46.828167 L35.306343,47.067439 L32.08085,47.282592 L28.755758,47.473001 L25.337488,47.638039 L21.832461,47.77708 L18.2471,47.8895 L18.2471,47.8895 L17.776287,47.8895 L17.305475,47.8895 L16.834663,47.8895 L16.36385,47.8895 L15.893038,47.8895 L15.422225,47.8895 L14.951412,47.8895 L14.4806,47.8895 L14.009787,47.8895 L13.538975,47.8895 L13.068162,47.8895 L12.59735,47.8895 L12.126538,47.8895 L11.655725,47.8895 L11.184913,47.8895 L10.7141,47.8895 L10.243288,47.8895 L9.772475,47.8895 L9.301663,47.8895 L8.83085,47.8895 L8.360038,47.8895 L7.889225,47.8895 L7.418413,47.8895 L6.9476,47.8895 L6.9476,47.8895 L2.65107,47.930596 L0,48.006957 L0,83.399206 L2.65107,83.475333 L6.9476,83.5163 L6.9476,83.5163 L7.246667,83.5163 L7.545733,83.5163 L7.8448,83.5163 L8.143867,83.5163 L8.442933,83.5163 L8.742,83.5163 L9.041067,83.5163 L9.340133,83.5163 L9.6392,83.5163 L9.938267,83.5163 L10.237333,83.5163 L10.5364,83.5163 L10.835467,83.5163 L11.134533,83.5163 L11.4336,83.5163 L11.732667,83.5163 L12.031733,83.5163 L12.3308,83.5163 L12.629867,83.5163 L12.928933,83.5163 L13.228,83.5163 L13.527067,83.5163 L13.826133,83.5163 L14.1252,83.5163 L17.963318,83.683357 L21.721009,83.915185 L25.390903,84.209697 L28.965631,84.564806 L32.437822,84.978422 L35.800106,85.448459 L39.045115,85.972829 L42.165478,86.549444 L45.153825,87.176217 L48.002787,87.851059 L50.704993,88.571882 L53.253075,89.3366 L55.639662,90.143124 L57.857384,90.989366 L59.898872,91.873239 L61.756756,92.792656 L63.423665,93.745527 L64.892231,94.729766 L66.155084,95.743284 L67.204853,96.783994 L68.034169,97.849809 L68.635662,98.93864 L69.001962,100.0484 L69.1257,101.177 L69.1257,101.177 L68.980928,102.396605 L68.552837,103.59415 L67.850763,104.766984 L66.884043,105.912454 L65.662015,107.027906 L64.194015,108.110687 L62.489381,109.158146 L60.557448,110.16763 L58.407554,111.136484 L56.049036,112.062058 L53.49123,112.941697 L50.743474,113.77275 L47.815104,114.552563 L44.715458,115.278484 L41.453871,115.947859 L38.039682,116.558037 L34.482227,117.106364 L30.790843,117.590187 L26.974866,118.006855 L23.043634,118.353713 L19.006484,118.628109 L14.872751,118.827391 L10.651775,118.948906 L6.35289,118.99 L6.35289,118.99 L2.089978,119.066945 L0,119.163473 L0,171.210674 L2.089978,171.307066 L6.35289,171.384 L6.35289,171.384 L10.651775,171.444489 L14.872751,171.62335 L19.006484,171.916672 L23.043634,172.320546 L26.974866,172.831063 L30.790843,173.444312 L34.482227,174.156385 L38.039682,174.96337 L41.453871,175.861359 L44.715458,176.846442 L47.815104,177.914709 L50.743474,179.06225 L53.49123,180.285156 L56.049036,181.579516 L58.407554,182.941422 L60.557448,184.366963 L62.489381,185.85223 L64.194015,187.393312 L65.662015,188.986302 L66.884043,190.627287 L67.850763,192.312359 L68.552837,194.037609 L68.980928,195.799126 L69.1257,197.593 L69.1257,197.593 L68.980928,199.386928 L68.552837,201.148365 L67.850763,202.873412 L66.884043,204.558171 L65.662015,206.198745 L64.194015,207.791234 L62.489381,209.331742 L60.557448,210.81637 L58.407554,212.241221 L56.049036,213.602395 L53.49123,214.895996 L50.743474,216.118125 L47.815104,217.264884 L44.715458,218.332376 L41.453871,219.316701 L38.039682,220.213963 L34.482227,221.020263 L30.790843,221.731703 L26.974866,222.344385 L23.043634,222.854412 L19.006484,223.257885 L14.872751,223.550906 L10.651775,223.729577 L6.35289,223.79 L6.35289,223.79 L2.089978,223.86706 L0,223.963635 L0,276.036055 L2.65107,276.149127 L6.9476,276.21 L6.9476,276.21 L6.97238,276.21 L6.99716,276.21 L7.02194,276.21 L7.04672,276.21 L7.0715,276.21 L7.09628,276.21 L7.12106,276.21 L7.14584,276.21 L7.17062,276.21 L7.1954,276.21 L7.22018,276.21 L7.24496,276.21 L7.26974,276.21 L7.29452,276.21 L7.3193,276.21 L7.34408,276.21 L7.36886,276.21 L7.39364,276.21 L7.41842,276.21 L7.4432,276.21 L7.46798,276.21 L7.49276,276.21 L7.51754,276.21 L7.54232,276.21 L11.84003,276.270422 L16.060032,276.449087 L20.192975,276.74209 L24.22951,277.145528 L28.160285,277.655497 L31.975952,278.268094 L35.66716,278.979414 L39.224558,279.785556 L42.638796,280.682613 L45.900525,281.666684 L49.000394,282.733864 L51.929053,283.88025 L54.677151,285.101938 L57.235339,286.395024 L59.594266,287.755605 L61.744582,289.179778 L63.676938,290.663638 L65.381982,292.203281 L66.850364,293.794805 L68.072735,295.434306 L69.039745,297.117879 L69.742042,298.841622 L70.170277,300.60163 L70.3151,302.394 L70.3151,302.394 L70.170277,304.186387 L69.742042,305.94668 L69.039745,307.670951 L68.072735,309.355273 L66.850364,310.995718 L65.381982,312.588359 L63.676938,314.129269 L61.744582,315.614519 L59.594266,317.040182 L57.235339,318.40233 L54.677151,319.697037 L51.929053,320.920375 L49.000394,322.068416 L45.900525,323.137232 L42.638796,324.122896 L39.224558,325.021481 L35.66716,325.82906 L31.975952,326.541703 L28.160285,327.155485 L24.22951,327.666477 L20.192975,328.070752 L16.060032,328.364383 L11.84003,328.543441 L7.54232,328.604 L7.54232,328.604 L7.51754,328.604 L7.49276,328.604 L7.46798,328.604 L7.4432,328.604 L7.41842,328.604 L7.39364,328.604 L7.36886,328.604 L7.34408,328.604 L7.3193,328.604 L7.29452,328.604 L7.26974,328.604 L7.24496,328.604 L7.22018,328.604 L7.1954,328.604 L7.17062,328.604 L7.14584,328.604 L7.12106,328.604 L7.09628,328.604 L7.0715,328.604 L7.04672,328.604 L7.02194,328.604 L6.99716,328.604 L6.97238,328.604 L6.9476,328.604 L2.65107,328.664423 L0,328.776693 L0,380.837122 L2.65107,380.949511 L6.9476,381.01 L6.9476,381.01 L6.97238,381.01 L6.99716,381.01 L7.02194,381.01 L7.04672,381.01 L7.0715,381.01 L7.09628,381.01 L7.12106,381.01 L7.14584,381.01 L7.17062,381.01 L7.1954,381.01 L7.22018,381.01 L7.24496,381.01 L7.26974,381.01 L7.29452,381.01 L7.3193,381.01 L7.34408,381.01 L7.36886,381.01 L7.39364,381.01 L7.41842,381.01 L7.4432,381.01 L7.46798,381.01 L7.49276,381.01 L7.51754,381.01 L7.54232,381.01 L11.84003,381.051093 L16.060032,381.172602 L20.192975,381.371867 L24.22951,381.646231 L28.160285,381.993037 L31.975952,382.409625 L35.66716,382.893338 L39.224558,383.441519 L42.638796,384.051508 L45.900525,384.720648 L49.000394,385.446282 L51.929053,386.22575 L54.677151,387.056396 L57.235339,387.93556 L59.594266,388.860586 L61.744582,389.828815 L63.676938,390.837589 L65.381982,391.88425 L66.850364,392.96614 L68.072735,394.080602 L69.039745,395.224977 L69.742042,396.396606 L70.170277,397.592834 L70.3151,398.811 L70.3151,398.811 L70.19131,399.94102 L69.824861,401.051955 L69.22313,402.141738 L68.393497,403.208306 L67.343339,404.249592 L66.080036,405.263531 L64.610966,406.248059 L62.943507,407.201111 L61.085039,408.120621 L59.04294,409.004524 L56.824588,409.850756 L54.437362,410.65725 L51.888641,411.421942 L49.185804,412.142767 L46.336228,412.81766 L43.347293,413.444556 L40.226376,414.021388 L36.980858,414.546094 L33.618116,415.016606 L30.145528,415.430861 L26.570474,415.786793 L22.900333,416.082337 L19.142482,416.315428 L15.3043,416.484 L15.3043,416.484 L14.956104,416.484 L14.607908,416.484 L14.259712,416.484 L13.911517,416.484 L13.563321,416.484 L13.215125,416.484 L12.866929,416.484 L12.518733,416.484 L12.170538,416.484 L11.822342,416.484 L11.474146,416.484 L11.12595,416.484 L10.777754,416.484 L10.429558,416.484 L10.081362,416.484 L9.733167,416.484 L9.384971,416.484 L9.036775,416.484 L8.688579,416.484 L8.340383,416.484 L7.992188,416.484 L7.643992,416.484 L7.295796,416.484 L6.9476,416.484 L2.65107,416.525093 L0,416.601444 L0,451.993185 L2.65107,452.069775 L6.9476,452.111 L6.9476,452.111 L7.467117,452.111 L7.986633,452.111 L8.50615,452.111 L9.025667,452.111 L9.545183,452.111 L10.0647,452.111 L10.584217,452.111 L11.103733,452.111 L11.62325,452.111 L12.142767,452.111 L12.662283,452.111 L13.1818,452.111 L13.701317,452.111 L14.220833,452.111 L14.74035,452.111 L15.259867,452.111 L15.779383,452.111 L16.2989,452.111 L16.818417,452.111 L17.337933,452.111 L17.85745,452.111 L18.376967,452.111 L18.896483,452.111 L19.416,452.111 L23.001465,452.224478 L26.506791,452.366552 L29.925539,452.536309 L33.251269,452.732833 L36.477542,452.955212 L39.597917,453.202531 L42.605956,453.473876 L45.495219,453.768333 L48.259265,454.084988 L50.891656,454.422927 L53.385952,454.781236 L55.735713,455.159 L57.934499,455.555306 L59.975871,455.96924 L61.85339,456.399887 L63.560615,456.846333 L65.091107,457.307665 L66.438427,457.782969 L67.596134,458.271329 L68.557789,458.771833 L69.316953,459.283566 L69.867186,459.805615 L70.202048,460.337064 L70.3151,460.877 L70.190521,461.445259 L69.82175,462.004075 L69.216237,462.552377 L68.381433,463.089097 L67.324787,463.613166 L66.053748,464.123516 L64.575768,464.619076 L62.898296,465.098778 L61.028782,465.561553 L58.974676,466.006332 L56.743428,466.432045 L54.342488,466.837625 L51.779305,467.222002 L49.06133,467.584106 L46.196013,467.922869 L43.190804,468.237222 L40.053152,468.526096 L36.790508,468.788422 L33.410321,469.02313 L29.920042,469.229153 L26.327121,469.40542 L22.639006,469.550863 L18.863149,469.664413 L15.007,469.745 L15.007,469.745 L14.671192,469.745 L14.335383,469.745 L13.999575,469.745 L13.663767,469.745 L13.327958,469.745 L12.99215,469.745 L12.656342,469.745 L12.320533,469.745 L11.984725,469.745 L11.648917,469.745 L11.313108,469.745 L10.9773,469.745 L10.641492,469.745 L10.305683,469.745 L9.969875,469.745 L9.634067,469.745 L9.298258,469.745 L8.96245,469.745 L8.626642,469.745 L8.290833,469.745 L7.955025,469.745 L7.619217,469.745 L7.283408,469.745 L6.9476,469.745 L2.65107,469.76552 L0,469.803649 L0,487.524995 L2.65107,487.563354 L6.9476,487.584 L6.9476,487.584 L6.97238,487.584 L6.99716,487.584 L7.02194,487.584 L7.04672,487.584 L7.0715,487.584 L7.09628,487.584 L7.12106,487.584 L7.14584,487.584 L7.17062,487.584 L7.1954,487.584 L7.22018,487.584 L7.24496,487.584 L7.26974,487.584 L7.29452,487.584 L7.3193,487.584 L7.34408,487.584 L7.36886,487.584 L7.39364,487.584 L7.41842,487.584 L7.4432,487.584 L7.46798,487.584 L7.49276,487.584 L7.51754,487.584 L7.54232,487.584 L11.84003,487.591167 L16.060032,487.612359 L20.192975,487.647109 L24.22951,487.694954 L28.160285,487.755427 L31.975952,487.828062 L35.66716,487.912396 L39.224558,488.007963 L42.638796,488.114297 L45.900525,488.230933 L49.000394,488.357406 L51.929053,488.49325 L54.677151,488.638001 L57.235339,488.791192 L59.594266,488.952359 L61.744582,489.121037 L63.676938,489.29676 L65.381982,489.479062 L66.850364,489.66748 L68.072735,489.861546 L69.039745,490.060797 L69.742042,490.264766 L70.170277,490.472989 L70.3151,490.685 L70.3151,490.685 L70.187681,490.885965 L69.810567,491.083367 L69.191468,491.276842 L68.338099,491.466023 L67.258171,491.650547 L65.959397,491.830047 L64.449489,492.004159 L62.736159,492.172519 L60.827121,492.33476 L58.730086,492.490518 L56.452766,492.639428 L54.002875,492.781125 L51.388124,492.915244 L48.616227,493.04142 L45.694895,493.159287 L42.631841,493.268481 L39.434777,493.368638 L36.111416,493.459391 L32.66947,493.540375 L29.116651,493.611227 L25.460672,493.67158 L21.709246,493.72107 L17.870084,493.759332 L13.9509,493.786 L13.9509,493.786 L13.659096,493.786 L13.367292,493.786 L13.075488,493.786 L12.783683,493.786 L12.491879,493.786 L12.200075,493.786 L11.908271,493.786 L11.616467,493.786 L11.324663,493.786 L11.032858,493.786 L10.741054,493.786 L10.44925,493.786 L10.157446,493.786 L9.865642,493.786 L9.573837,493.786 L9.282033,493.786 L8.990229,493.786 L8.698425,493.786 L8.406621,493.786 L8.114817,493.786 L7.823013,493.786 L7.531208,493.786 L7.239404,493.786 L6.9476,493.786 L2.65107,493.793168 L0,493.806488 L0,499.979697 Z" fill="#121212"/>
</svg>
