<svg xmlns="http://www.w3.org/2000/svg" viewBox="375 0 125 125" width="200" height="200">
  <rect x="375" y="0" width="125" height="125" fill="#F3F3F3"/>
  <path d="M498.786,500 L500,499.959093 L500,2.468087 L498.786,2.42718 L498.786,2.42718 L481.75255,3.001139 L465.027153,4.698314 L448.646861,7.481651 L432.648727,11.314097 L417.069802,16.1586 L401.947141,21.978105 L387.317794,28.73556 L373.218815,36.393911 L359.687256,44.916105 L346.76017,54.26509 L334.474608,64.403811 L322.867625,75.295215 L311.976272,86.90225 L301.837601,99.187861 L292.488666,112.114996 L283.966519,125.646602 L276.308211,139.745625 L269.550797,154.375012 L263.731328,169.497711 L258.886856,185.076666 L255.054436,201.074826 L252.271117,217.455137 L250.573955,234.180546 L250,251.214 L250,251.214 L250.573955,268.24745 L252.271117,284.972847 L255.054436,301.353139 L258.886856,317.351273 L263.731328,332.930198 L269.550797,348.052859 L276.308211,362.682206 L283.966519,376.781185 L292.488666,390.312744 L301.837601,403.23983 L311.976272,415.525392 L322.867625,427.132375 L334.474608,438.023728 L346.76017,448.162399 L359.687256,457.511334 L373.218815,466.033481 L387.317794,473.691789 L401.947141,480.449203 L417.069802,486.268672 L432.648727,491.113144 L448.646861,494.945564 L465.027153,497.728883 L481.75255,499.426045 L498.786,500 Z" fill="#121212"/>
</svg>
