<svg xmlns="http://www.w3.org/2000/svg" viewBox="0 125 125 125" width="200" height="200">
  <rect x="0" y="125" width="125" height="125" fill="#F3F3F3"/>
  <path d="M250.234966,0 L0.015534,0 L0,1.290975 L0.076897,7.380241 L0.303345,13.463161 L0.679129,19.536987 L1.203978,25.598976 L1.877619,31.64638 L2.699782,37.676456 L3.670195,43.686457 L4.788585,49.673637 L6.054681,55.635252 L7.468212,61.568556 L9.028905,67.470804 L10.736489,73.339249 L12.590692,79.171147 L14.591243,84.963752 L16.737869,90.714318 L19.0303,96.4201 L19.0303,96.4201 L21.463584,102.067832 L24.031789,107.64463 L26.733155,113.148362 L29.565926,118.576896 L32.528342,123.928099 L35.618644,129.199839 L38.835074,134.389984 L42.175874,139.4964 L45.639285,144.516956 L49.223549,149.449519 L52.926907,154.291957 L56.7476,159.042137 L60.68387,163.697928 L64.733959,168.257195 L68.896109,172.717808 L73.168559,177.077633 L77.549553,181.334539 L82.037331,185.486392 L86.630136,189.531061 L91.326207,193.466413 L96.123788,197.290315 L101.02112,201.000635 L106.016443,204.595241 L111.108,208.072 L111.108,208.072 L116.284178,211.422606 L121.532942,214.639641 L126.851639,217.722303 L132.237616,220.669792 L137.68822,223.481307 L143.200797,226.156047 L148.772695,228.693212 L154.401259,231.092 L160.083838,233.351611 L165.817777,235.471245 L171.600424,237.4501 L177.429125,239.287375 L183.301227,240.98227 L189.214077,242.533984 L195.165021,243.941717 L201.151407,245.204667 L207.170582,246.322033 L213.219891,247.293016 L219.296681,248.116813 L225.398301,248.792625 L231.522096,249.31965 L237.665413,249.697089 L243.825598,249.924139 L250,250 L250,239.633898 L250,229.267796 L250,218.901694 L250,208.535592 L250,198.16949 L250,187.803387 L250,177.437285 L250,167.071183 L250,156.705081 L250,146.338979 L250,135.972877 L250,125.606775 L250,115.240673 L250,104.874571 L250,94.508469 L250,84.142367 L250,73.776265 L250,63.410163 L250,53.04406 L250,42.677958 L250,32.311856 L250,21.945754 L250,11.579652 L250,1.21355 Z" fill="#121212"/>
</svg>
