<svg xmlns="http://www.w3.org/2000/svg" viewBox="250 250 125 125" width="200" height="200">
  <rect x="250" y="250" width="125" height="125" fill="#F3F3F3"/>
  <path d="M500 250C500 319.035 472.02 381.535 426.775 426.775C381.535 472.02 319.035 500 250 500L500 500L500 250Z" fill="#121212"/>
  <path d="M418.251 375C418.251 351.634 399.311 332.7 375.95 332.7C352.59 332.7 333.65 351.634 333.65 375C333.65 398.366 352.59 417.3 375.95 417.3C387.633 417.3 398.209 412.567 405.863 404.912C413.517 397.258 418.251 386.683 418.251 375Z" fill="#121212"/>
  <path d="M375.475 250.035L250.035 250L250 374.525C319.278 374.545 375.455 318.807 375.475 250.035Z" fill="#121212"/>
</svg>
