<svg xmlns="http://www.w3.org/2000/svg" viewBox="0 125 125 125" width="200" height="200">
  <rect x="0" y="125" width="125" height="125" fill="#F3F3F3"/>
  <path d="M250 0H0V250C0 111.93 111.93 0 250 0Z" fill="#121212"/>
  <path d="M176.775 176.775C131.535 222.02 69.035 250 0 250H250V0C250 69.035 222.02 131.535 176.775 176.775Z" fill="#121212"/>
  <path d="M125 82.6996C101.639 82.6996 82.6996 101.634 82.6996 125C82.6996 148.366 101.639 167.3 125 167.3C136.683 167.3 147.258 162.567 154.912 154.912C162.567 147.258 167.3 136.683 167.3 125C167.3 101.634 148.361 82.6996 125 82.6996Z" fill="#121212"/>
</svg>
