<svg xmlns="http://www.w3.org/2000/svg" viewBox="0 250 125 125" width="200" height="200">
  <rect x="0" y="250" width="125" height="125" fill="#F3F3F3"/>
  <path d="M26 499.995H46L46 249.998H26L26 499.995Z" fill="#121212"/>
  <path d="M188.5 374.996C188.5 384.651 186.31 393.791 182.4 401.951C181.455 403.921 181 406.096 181 408.281V499.995H161V435.701C161 431.876 156.99 429.421 153.56 431.106C153.48 431.146 153.4 431.186 153.32 431.226C142.645 436.426 136.005 447.401 136.005 459.27V499.995H116.005V459.27C116.005 447.401 109.36 436.426 98.69 431.226C98.61 431.186 98.53 431.146 98.45 431.106C95.02 429.416 91.01 431.876 91.01 435.701V499.995H71.01V408.281C71.01 406.096 70.555 403.921 69.61 401.951C65.7 393.791 63.51 384.651 63.51 374.996C63.51 365.341 65.7 356.201 69.61 348.042C70.555 346.072 71.01 343.897 71.01 341.712V249.998H91.01V314.292C91.01 318.117 95.02 320.572 98.45 318.887C98.53 318.847 98.61 318.807 98.69 318.767C109.365 313.567 116.005 302.592 116.005 290.722V249.998H136.005V290.722C136.005 302.592 142.65 313.567 153.32 318.767C153.4 318.807 153.48 318.847 153.56 318.887C156.99 320.577 161 318.117 161 314.292V249.998H181V341.712C181 343.897 181.455 346.072 182.4 348.042C186.31 356.201 188.5 365.341 188.5 374.996Z" fill="#121212"/>
</svg>
