<svg xmlns="http://www.w3.org/2000/svg" viewBox="375 0 125 125" width="200" height="200">
  <rect x="375" y="0" width="125" height="125" fill="#F3F3F3"/>
  <path d="M418.787 21.335C432.182 27 444.215 35.115 454.55 45.45C464.885 55.785 473 67.8175 478.665 81.2125C484.527 95.075 487.5 109.805 487.5 125L500 125C500 55.965 444.035 5.18434e-06 375 2.16826e-06L375 12.5C390.192 12.5 404.925 15.4725 418.787 21.335Z" fill="#121212"/>
  <path d="M410.027 42.0675C420.742 46.6 430.37 53.09 438.64 61.36C446.91 69.63 453.4 79.255 457.932 89.9725C462.622 101.06 465 112.845 465 125L477.5 125C477.5 68.39 431.61 22.5 375 22.5L375 35C387.155 35 398.94 37.3775 410.027 42.0675Z" fill="#121212"/>
  <path d="M401.27 62.8C409.307 66.2 416.527 71.0675 422.73 77.27C428.932 83.4725 433.802 90.6925 437.2 98.73C440.717 107.042 442.5 115.882 442.5 125L455 125C455 80.8175 419.182 45 375 45L375 57.5C384.117 57.5 392.957 59.2825 401.27 62.8Z" fill="#121212"/>
  <path d="M406.82 93.18C415.32 101.68 420 112.98 420 125L432.5 125C432.5 93.2425 406.757 67.5 375 67.5L375 80C387.02 80 398.32 84.68 406.82 93.18Z" fill="#121212"/>
  <path d="M397.5 125L410 125C410 105.67 394.33 90 375 90L375 102.5C387.408 102.5 397.5 112.592 397.5 125Z" fill="#121212"/>
  <path d="M387.5 125C387.5 118.097 381.903 112.5 375 112.5L375 125L387.5 125Z" fill="#121212"/>
</svg>
