<svg xmlns="http://www.w3.org/2000/svg" viewBox="125 375 125 125" width="200" height="200">
  <rect x="125" y="375" width="125" height="125" fill="#F3F3F3"/>
  <path d="M250 387.5L250 375L125 375L125 387.5L250 387.5Z" fill="#121212"/>
  <path d="M250 500L250 487.5L125 487.5L125 500L250 500Z" fill="#121212"/>
  <path d="M250 477.5L250 465L125 465L125 477.5L250 477.5Z" fill="#121212"/>
  <path d="M250 455L250 442.5L125 442.5L125 455L250 455Z" fill="#121212"/>
  <path d="M250 432.5L250 420L125 420L125 432.5L250 432.5Z" fill="#121212"/>
  <path d="M250 410L250 397.5L125 397.5L125 410L250 410Z" fill="#121212"/>
  <path d="M184.838 442C184.943 440.512 185 439.012 185 437.5C185 435.987 184.943 434.487 184.838 433L184.838 442Z" fill="#121212"/>
</svg>
