<svg xmlns="http://www.w3.org/2000/svg" viewBox="375 375 125 125" width="200" height="200">
  <rect x="375" y="375" width="125" height="125" fill="#F3F3F3"/>
  <path d="M442 315.162C440.512 315.057 439.012 315 437.5 315C435.987 315 434.487 315.057 433 315.162H442Z" fill="#121212"/>
  <path d="M456.213 478.665C442.818 473 430.785 464.885 420.45 454.55C410.115 444.215 402 432.182 396.335 418.787C390.473 404.925 387.5 390.195 387.5 375L375 375C375 444.035 430.965 500 500 500L500 487.5C484.808 487.5 470.075 484.527 456.213 478.665Z" fill="#121212"/>
  <path d="M464.973 457.932C454.258 453.4 444.63 446.91 436.36 438.64C428.09 430.37 421.6 420.745 417.068 410.027C412.378 398.94 410 387.155 410 375L397.5 375C397.5 431.61 443.39 477.5 500 477.5L500 465C487.845 465 476.06 462.622 464.973 457.932Z" fill="#121212"/>
  <path d="M473.73 437.2C465.693 433.8 458.473 428.932 452.27 422.73C446.067 416.527 441.198 409.307 437.8 401.27C434.283 392.957 432.5 384.117 432.5 375L420 375C420 419.182 455.818 455 500 455L500 442.5C490.883 442.5 482.043 440.717 473.73 437.2Z" fill="#121212"/>
  <path d="M468.18 406.82C459.68 398.32 455 387.02 455 375L442.5 375C442.5 406.757 468.243 432.5 500 432.5L500 420C487.98 420 476.68 415.32 468.18 406.82Z" fill="#121212"/>
  <path d="M477.5 375L465 375C465 394.33 480.67 410 500 410L500 397.5C487.592 397.5 477.5 387.407 477.5 375Z" fill="#121212"/>
  <path d="M487.5 375C487.5 381.902 493.097 387.5 500 387.5L500 375L487.5 375Z" fill="#121212"/>
</svg>
