<svg xmlns="http://www.w3.org/2000/svg" viewBox="125 125 125 125" width="200" height="200">
  <rect x="125" y="125" width="125" height="125" fill="#F3F3F3"/>
  <path d="M271.335 81.2125C277 67.8175 285.115 55.785 295.45 45.45C305.785 35.115 317.818 27 331.213 21.335C345.075 15.4725 359.805 12.5 375 12.5V7.62939e-06C305.965 7.62939e-06 250 55.965 250 125H262.5C262.5 109.807 265.472 95.075 271.335 81.2125Z" fill="#121212"/>
  <path d="M292.068 89.9725C296.6 79.2575 303.09 69.63 311.36 61.36C319.63 53.09 329.255 46.6 339.973 42.0675C351.06 37.3775 362.845 35 375 35V22.5C318.39 22.5 272.5 68.39 272.5 125H285C285 112.845 287.378 101.06 292.068 89.9725Z" fill="#121212"/>
  <path d="M312.8 98.73C316.2 90.6925 321.067 83.4725 327.27 77.27C333.472 71.0675 340.693 66.1975 348.73 62.8C357.043 59.2825 365.883 57.5 375 57.5V45C330.818 45 295 80.8175 295 125H307.5C307.5 115.882 309.283 107.042 312.8 98.73Z" fill="#121212"/>
  <path d="M343.18 93.18C351.68 84.68 362.98 80 375 80V67.5C343.243 67.5 317.5 93.2425 317.5 125H330C330 112.98 334.68 101.68 343.18 93.18Z" fill="#121212"/>
  <path d="M375 102.5V90C355.67 90 340 105.67 340 125H352.5C352.5 112.592 362.592 102.5 375 102.5Z" fill="#121212"/>
  <path d="M146.335 331.212C152 317.817 160.115 305.785 170.45 295.45C180.785 285.115 192.818 277 206.213 271.335C220.075 265.472 234.805 262.5 250 262.5V250C180.965 250 125 305.965 125 375H137.5C137.5 359.807 140.472 345.075 146.335 331.212Z" fill="#121212"/>
  <path d="M167.068 339.972C171.6 329.257 178.09 319.63 186.36 311.36C194.63 303.09 204.255 296.6 214.973 292.067C226.06 287.377 237.845 285 250 285V272.5C193.39 272.5 147.5 318.39 147.5 375H160C160 362.845 162.378 351.06 167.068 339.972Z" fill="#121212"/>
  <path d="M187.8 348.73C191.2 340.692 196.067 333.472 202.27 327.27C208.472 321.067 215.693 316.197 223.73 312.8C232.043 309.282 240.883 307.5 250 307.5V295C205.818 295 170 330.817 170 375H182.5C182.5 365.882 184.283 357.042 187.8 348.73Z" fill="#121212"/>
  <path d="M218.18 343.18C226.68 334.68 237.98 330 250 330V317.5C218.243 317.5 192.5 343.242 192.5 375H205C205 362.98 209.68 351.68 218.18 343.18Z" fill="#121212"/>
  <path d="M250 352.5V340C230.67 340 215 355.67 215 375H227.5C227.5 362.592 237.592 352.5 250 352.5Z" fill="#121212"/>
  <path d="M228.665 168.787C223 182.182 214.885 194.215 204.55 204.55C194.215 214.885 182.182 223 168.788 228.665C154.925 234.527 140.195 237.5 125 237.5L125 250C194.035 250 250 194.035 250 125L237.5 125C237.5 140.192 234.528 154.925 228.665 168.787Z" fill="#121212"/>
  <path d="M207.933 160.027C203.4 170.742 196.91 180.37 188.64 188.64C180.37 196.91 170.745 203.4 160.027 207.932C148.94 212.622 137.155 215 125 215L125 227.5C181.61 227.5 227.5 181.61 227.5 125L215 125C215 137.155 212.623 148.94 207.933 160.027Z" fill="#121212"/>
  <path d="M187.2 151.27C183.8 159.307 178.933 166.527 172.73 172.73C166.528 178.932 159.307 183.802 151.27 187.2C142.957 190.717 134.117 192.5 125 192.5L125 205C169.182 205 205 169.182 205 125L192.5 125C192.5 134.117 190.718 142.957 187.2 151.27Z" fill="#121212"/>
  <path d="M156.82 156.82C148.32 165.32 137.02 170 125 170L125 182.5C156.757 182.5 182.5 156.757 182.5 125L170 125C170 137.02 165.32 148.32 156.82 156.82Z" fill="#121212"/>
  <path d="M125 147.5L125 160C144.33 160 160 144.33 160 125L147.5 125C147.5 137.407 137.408 147.5 125 147.5Z" fill="#121212"/>
  <path d="M125 137.5C131.903 137.5 137.5 131.902 137.5 125L125 125L125 137.5Z" fill="#121212"/>
  <path d="M21.335 206.212C27 192.817 35.115 180.785 45.45 170.45C55.785 160.115 67.8175 152 81.2125 146.335C95.075 140.472 109.805 137.5 125 137.5V125C55.965 125 0 180.965 0 250H12.5C12.5 234.807 15.4725 220.075 21.335 206.212Z" fill="#121212"/>
  <path d="M42.0675 214.972C46.6 204.257 53.09 194.63 61.36 186.36C69.63 178.09 79.255 171.6 89.9725 167.067C101.06 162.377 112.845 160 125 160V147.5C68.39 147.5 22.5 193.39 22.5 250H35C35 237.845 37.3775 226.06 42.0675 214.972Z" fill="#121212"/>
  <path d="M62.8 223.73C66.2 215.692 71.0675 208.472 77.27 202.27C83.4725 196.067 90.6925 191.197 98.73 187.8C107.043 184.282 115.883 182.5 125 182.5V170C80.8175 170 45 205.817 45 250H57.5C57.5 240.882 59.2825 232.042 62.8 223.73Z" fill="#121212"/>
  <path d="M93.18 218.18C101.68 209.68 112.98 205 125 205V192.5C93.2425 192.5 67.5 218.242 67.5 250H80C80 237.98 84.68 226.68 93.18 218.18Z" fill="#121212"/>
  <path d="M125 227.5V215C105.67 215 90 230.67 90 250H102.5C102.5 237.592 112.592 227.5 125 227.5Z" fill="#121212"/>
</svg>
