<svg xmlns="http://www.w3.org/2000/svg" viewBox="0 250 125 125" width="200" height="200">
  <rect x="0" y="250" width="125" height="125" fill="#F3F3F3"/>
  <path d="M12.5 250H0V375H12.5V250Z" fill="#121212"/>
  <path d="M125 250H112.5V375H125V250Z" fill="#121212"/>
  <path d="M102.5 250H90V375H102.5V250Z" fill="#121212"/>
  <path d="M80 250H67.5V375H80V250Z" fill="#121212"/>
  <path d="M57.5 250H45V375H57.5V250Z" fill="#121212"/>
  <path d="M35 250H22.5V375H35V250Z" fill="#121212"/>
  <path d="M67 315.162C65.5125 315.057 64.0125 315 62.5 315C60.9875 315 59.4875 315.057 58 315.162H67Z" fill="#121212"/>
  <path d="M271.335 81.2125C277 67.8175 285.115 55.785 295.45 45.45C305.785 35.115 317.818 27 331.213 21.335C345.075 15.4725 359.805 12.5 375 12.5V7.62939e-06C305.965 7.62939e-06 250 55.965 250 125H262.5C262.5 109.807 265.472 95.075 271.335 81.2125Z" fill="#121212"/>
  <path d="M292.068 89.9725C296.6 79.2575 303.09 69.63 311.36 61.36C319.63 53.09 329.255 46.6 339.973 42.0675C351.06 37.3775 362.845 35 375 35V22.5C318.39 22.5 272.5 68.39 272.5 125H285C285 112.845 287.378 101.06 292.068 89.9725Z" fill="#121212"/>
  <path d="M312.8 98.73C316.2 90.6925 321.067 83.4725 327.27 77.27C333.472 71.0675 340.693 66.1975 348.73 62.8C357.043 59.2825 365.883 57.5 375 57.5V45C330.818 45 295 80.8175 295 125H307.5C307.5 115.882 309.283 107.042 312.8 98.73Z" fill="#121212"/>
  <path d="M343.18 93.18C351.68 84.68 362.98 80 375 80V67.5C343.243 67.5 317.5 93.2425 317.5 125H330C330 112.98 334.68 101.68 343.18 93.18Z" fill="#121212"/>
  <path d="M375 102.5V90C355.67 90 340 105.67 340 125H352.5C352.5 112.592 362.592 102.5 375 102.5Z" fill="#121212"/>
</svg>
