<svg xmlns="http://www.w3.org/2000/svg" viewBox="125 250 125 125" width="200" height="200">
  <rect x="125" y="250" width="125" height="125" fill="#F3F3F3"/>
  <path d="M271.335 81.2125C277 67.8175 285.115 55.785 295.45 45.45C305.785 35.115 317.818 27 331.213 21.335C345.075 15.4725 359.805 12.5 375 12.5V7.62939e-06C305.965 7.62939e-06 250 55.965 250 125H262.5C262.5 109.807 265.472 95.075 271.335 81.2125Z" fill="#121212"/>
  <path d="M292.068 89.9725C296.6 79.2575 303.09 69.63 311.36 61.36C319.63 53.09 329.255 46.6 339.973 42.0675C351.06 37.3775 362.845 35 375 35V22.5C318.39 22.5 272.5 68.39 272.5 125H285C285 112.845 287.378 101.06 292.068 89.9725Z" fill="#121212"/>
  <path d="M312.8 98.73C316.2 90.6925 321.067 83.4725 327.27 77.27C333.472 71.0675 340.693 66.1975 348.73 62.8C357.043 59.2825 365.883 57.5 375 57.5V45C330.818 45 295 80.8175 295 125H307.5C307.5 115.882 309.283 107.042 312.8 98.73Z" fill="#121212"/>
  <path d="M343.18 93.18C351.68 84.68 362.98 80 375 80V67.5C343.243 67.5 317.5 93.2425 317.5 125H330C330 112.98 334.68 101.68 343.18 93.18Z" fill="#121212"/>
  <path d="M375 102.5V90C355.67 90 340 105.67 340 125H352.5C352.5 112.592 362.592 102.5 375 102.5Z" fill="#121212"/>
  <path d="M146.335 331.212C152 317.817 160.115 305.785 170.45 295.45C180.785 285.115 192.818 277 206.213 271.335C220.075 265.472 234.805 262.5 250 262.5V250C180.965 250 125 305.965 125 375H137.5C137.5 359.807 140.472 345.075 146.335 331.212Z" fill="#121212"/>
  <path d="M167.068 339.972C171.6 329.257 178.09 319.63 186.36 311.36C194.63 303.09 204.255 296.6 214.973 292.067C226.06 287.377 237.845 285 250 285V272.5C193.39 272.5 147.5 318.39 147.5 375H160C160 362.845 162.378 351.06 167.068 339.972Z" fill="#121212"/>
  <path d="M187.8 348.73C191.2 340.692 196.067 333.472 202.27 327.27C208.472 321.067 215.693 316.197 223.73 312.8C232.043 309.282 240.883 307.5 250 307.5V295C205.818 295 170 330.817 170 375H182.5C182.5 365.882 184.283 357.042 187.8 348.73Z" fill="#121212"/>
  <path d="M218.18 343.18C226.68 334.68 237.98 330 250 330V317.5C218.243 317.5 192.5 343.242 192.5 375H205C205 362.98 209.68 351.68 218.18 343.18Z" fill="#121212"/>
  <path d="M250 352.5V340C230.67 340 215 355.67 215 375H227.5C227.5 362.592 237.592 352.5 250 352.5Z" fill="#121212"/>
  <path d="M250 362.5C243.097 362.5 237.5 368.097 237.5 375H250V362.5Z" fill="#121212"/>
</svg>
