<svg xmlns="http://www.w3.org/2000/svg" viewBox="0 375 125 125" width="200" height="200">
  <rect x="0" y="375" width="125" height="125" fill="#F3F3F3"/>
  <path d="M81.2125 478.665C67.8175 473 55.785 464.885 45.45 454.55C35.115 444.215 27 432.182 21.335 418.787C15.4725 404.925 12.5 390.195 12.5 375L-5.46392e-06 375C-2.44631e-06 444.035 55.965 500 125 500L125 487.5C109.808 487.5 95.075 484.527 81.2125 478.665Z" fill="#121212"/>
  <path d="M89.9725 457.932C79.2575 453.4 69.63 446.91 61.36 438.64C53.09 430.37 46.6 420.745 42.0675 410.027C37.3775 398.94 35 387.155 35 375L22.5 375C22.5 431.61 68.39 477.5 125 477.5L125 465C112.845 465 101.06 462.622 89.9725 457.932Z" fill="#121212"/>
  <path d="M98.73 437.2C90.6925 433.8 83.4725 428.932 77.27 422.73C71.0675 416.527 66.1975 409.307 62.8 401.27C59.2825 392.957 57.5 384.117 57.5 375L45 375C45 419.182 80.8175 455 125 455L125 442.5C115.883 442.5 107.043 440.717 98.73 437.2Z" fill="#121212"/>
  <path d="M93.18 406.82C84.68 398.32 80 387.02 80 375L67.5 375C67.5 406.757 93.2425 432.5 125 432.5L125 420C112.98 420 101.68 415.32 93.18 406.82Z" fill="#121212"/>
  <path d="M102.5 375L90 375C90 394.33 105.67 410 125 410L125 397.5C112.592 397.5 102.5 387.407 102.5 375Z" fill="#121212"/>
  <path d="M112.5 375C112.5 381.902 118.097 387.5 125 387.5L125 375L112.5 375Z" fill="#121212"/>
</svg>
