<svg xmlns="http://www.w3.org/2000/svg" viewBox="250 125 125 125" width="200" height="200">
  <rect x="250" y="125" width="125" height="125" fill="#F3F3F3"/>
  <path d="M331.213 228.665C317.818 223 305.785 214.885 295.45 204.55C285.115 194.215 277 182.182 271.335 168.787C265.473 154.925 262.5 140.195 262.5 125L250 125C250 194.035 305.965 250 375 250L375 237.5C359.808 237.5 345.075 234.527 331.213 228.665Z" fill="#121212"/>
  <path d="M339.973 207.932C329.258 203.4 319.63 196.91 311.36 188.64C303.09 180.37 296.6 170.745 292.068 160.027C287.378 148.94 285 137.155 285 125L272.5 125C272.5 181.61 318.39 227.5 375 227.5L375 215C362.845 215 351.06 212.622 339.973 207.932Z" fill="#121212"/>
  <path d="M348.73 187.2C340.693 183.8 333.473 178.932 327.27 172.73C321.067 166.527 316.198 159.307 312.8 151.27C309.283 142.957 307.5 134.118 307.5 125L295 125C295 169.182 330.818 205 375 205L375 192.5C365.883 192.5 357.043 190.717 348.73 187.2Z" fill="#121212"/>
  <path d="M343.18 156.82C334.68 148.32 330 137.02 330 125L317.5 125C317.5 156.757 343.243 182.5 375 182.5L375 170C362.98 170 351.68 165.32 343.18 156.82Z" fill="#121212"/>
  <path d="M352.5 125L340 125C340 144.33 355.67 160 375 160L375 147.5C362.592 147.5 352.5 137.407 352.5 125Z" fill="#121212"/>
  <path d="M362.5 125C362.5 131.902 368.097 137.5 375 137.5L375 125L362.5 125Z" fill="#121212"/>
  <path d="M271.335 81.2125C277 67.8175 285.115 55.785 295.45 45.45C305.785 35.115 317.818 27 331.213 21.335C345.075 15.4725 359.805 12.5 375 12.5V7.62939e-06C305.965 7.62939e-06 250 55.965 250 125H262.5C262.5 109.807 265.472 95.075 271.335 81.2125Z" fill="#121212"/>
  <path d="M292.068 89.9725C296.6 79.2575 303.09 69.63 311.36 61.36C319.63 53.09 329.255 46.6 339.973 42.0675C351.06 37.3775 362.845 35 375 35V22.5C318.39 22.5 272.5 68.39 272.5 125H285C285 112.845 287.378 101.06 292.068 89.9725Z" fill="#121212"/>
  <path d="M312.8 98.73C316.2 90.6925 321.067 83.4725 327.27 77.27C333.472 71.0675 340.693 66.1975 348.73 62.8C357.043 59.2825 365.883 57.5 375 57.5V45C330.818 45 295 80.8175 295 125H307.5C307.5 115.882 309.283 107.042 312.8 98.73Z" fill="#121212"/>
  <path d="M343.18 93.18C351.68 84.68 362.98 80 375 80V67.5C343.243 67.5 317.5 93.2425 317.5 125H330C330 112.98 334.68 101.68 343.18 93.18Z" fill="#121212"/>
  <path d="M375 102.5V90C355.67 90 340 105.67 340 125H352.5C352.5 112.592 362.592 102.5 375 102.5Z" fill="#121212"/>
  <path d="M146.335 331.212C152 317.817 160.115 305.785 170.45 295.45C180.785 285.115 192.818 277 206.213 271.335C220.075 265.472 234.805 262.5 250 262.5V250C180.965 250 125 305.965 125 375H137.5C137.5 359.807 140.472 345.075 146.335 331.212Z" fill="#121212"/>
  <path d="M167.068 339.972C171.6 329.257 178.09 319.63 186.36 311.36C194.63 303.09 204.255 296.6 214.973 292.067C226.06 287.377 237.845 285 250 285V272.5C193.39 272.5 147.5 318.39 147.5 375H160C160 362.845 162.378 351.06 167.068 339.972Z" fill="#121212"/>
  <path d="M187.8 348.73C191.2 340.692 196.067 333.472 202.27 327.27C208.472 321.067 215.693 316.197 223.73 312.8C232.043 309.282 240.883 307.5 250 307.5V295C205.818 295 170 330.817 170 375H182.5C182.5 365.882 184.283 357.042 187.8 348.73Z" fill="#121212"/>
  <path d="M218.18 343.18C226.68 334.68 237.98 330 250 330V317.5C218.243 317.5 192.5 343.242 192.5 375H205C205 362.98 209.68 351.68 218.18 343.18Z" fill="#121212"/>
  <path d="M250 352.5V340C230.67 340 215 355.67 215 375H227.5C227.5 362.592 237.592 352.5 250 352.5Z" fill="#121212"/>
</svg>
