<svg xmlns="http://www.w3.org/2000/svg" viewBox="0 0 125 125" width="200" height="200">
  <rect x="0" y="0" width="125" height="125" fill="#F3F3F3"/>
  <path d="M67 315.162C65.5125 315.057 64.0125 315 62.5 315C60.9875 315 59.4875 315.057 58 315.162H67Z" fill="#121212"/>
  <path d="M81.2125 103.665C67.8175 98 55.785 89.885 45.45 79.55C35.115 69.215 27 57.1825 21.335 43.7875C15.4725 29.925 12.5 15.195 12.5 1.47124e-05L-5.46392e-06 1.52588e-05C-2.44631e-06 69.035 55.965 125 125 125L125 112.5C109.808 112.5 95.075 109.527 81.2125 103.665Z" fill="#121212"/>
  <path d="M89.9725 82.9325C79.2575 78.4 69.63 71.91 61.36 63.64C53.09 55.37 46.6 45.745 42.0675 35.0275C37.3775 23.94 35 12.155 35 1.85271e-05L22.5 1.90735e-05C22.5 56.61 68.39 102.5 125 102.5L125 90C112.845 90 101.06 87.6225 89.9725 82.9325Z" fill="#121212"/>
  <path d="M98.73 62.2C90.6925 58.8 83.4725 53.9325 77.27 47.73C71.0675 41.5275 66.1975 34.3075 62.8 26.27C59.2825 17.9575 57.5 9.11752 57.5 2.42491e-05L45 2.47955e-05C45 44.1825 80.8175 80 125 80L125 67.5C115.883 67.5 107.043 65.7175 98.73 62.2Z" fill="#121212"/>
  <path d="M93.18 31.82C84.68 23.32 80 12.02 80 4.22198e-06L67.5 4.76837e-06C67.5 31.7575 93.2425 57.5 125 57.5L125 45C112.98 45 101.68 40.32 93.18 31.82Z" fill="#121212"/>
  <path d="M102.5 2.61565e-05L90 2.67029e-05C90 19.33 105.67 35 125 35L125 22.5C112.592 22.5 102.5 12.4075 102.5 2.61565e-05Z" fill="#121212"/>
  <path d="M112.5 1.33514e-05C112.5 6.90251 118.097 12.5 125 12.5L125 1.2805e-05L112.5 1.33514e-05Z" fill="#121212"/>
  <path d="M271.335 81.2125C277 67.8175 285.115 55.785 295.45 45.45C305.785 35.115 317.818 27 331.213 21.335C345.075 15.4725 359.805 12.5 375 12.5V7.62939e-06C305.965 7.62939e-06 250 55.965 250 125H262.5C262.5 109.807 265.472 95.075 271.335 81.2125Z" fill="#121212"/>
  <path d="M292.068 89.9725C296.6 79.2575 303.09 69.63 311.36 61.36C319.63 53.09 329.255 46.6 339.973 42.0675C351.06 37.3775 362.845 35 375 35V22.5C318.39 22.5 272.5 68.39 272.5 125H285C285 112.845 287.378 101.06 292.068 89.9725Z" fill="#121212"/>
  <path d="M312.8 98.73C316.2 90.6925 321.067 83.4725 327.27 77.27C333.472 71.0675 340.693 66.1975 348.73 62.8C357.043 59.2825 365.883 57.5 375 57.5V45C330.818 45 295 80.8175 295 125H307.5C307.5 115.882 309.283 107.042 312.8 98.73Z" fill="#121212"/>
  <path d="M343.18 93.18C351.68 84.68 362.98 80 375 80V67.5C343.243 67.5 317.5 93.2425 317.5 125H330C330 112.98 334.68 101.68 343.18 93.18Z" fill="#121212"/>
  <path d="M375 102.5V90C355.67 90 340 105.67 340 125H352.5C352.5 112.592 362.592 102.5 375 102.5Z" fill="#121212"/>
  <path d="M21.335 206.212C27 192.817 35.115 180.785 45.45 170.45C55.785 160.115 67.8175 152 81.2125 146.335C95.075 140.472 109.805 137.5 125 137.5V125C55.965 125 0 180.965 0 250H12.5C12.5 234.807 15.4725 220.075 21.335 206.212Z" fill="#121212"/>
  <path d="M42.0675 214.972C46.6 204.257 53.09 194.63 61.36 186.36C69.63 178.09 79.255 171.6 89.9725 167.067C101.06 162.377 112.845 160 125 160V147.5C68.39 147.5 22.5 193.39 22.5 250H35C35 237.845 37.3775 226.06 42.0675 214.972Z" fill="#121212"/>
  <path d="M62.8 223.73C66.2 215.692 71.0675 208.472 77.27 202.27C83.4725 196.067 90.6925 191.197 98.73 187.8C107.043 184.282 115.883 182.5 125 182.5V170C80.8175 170 45 205.817 45 250H57.5C57.5 240.882 59.2825 232.042 62.8 223.73Z" fill="#121212"/>
  <path d="M93.18 218.18C101.68 209.68 112.98 205 125 205V192.5C93.2425 192.5 67.5 218.242 67.5 250H80C80 237.98 84.68 226.68 93.18 218.18Z" fill="#121212"/>
  <path d="M125 227.5V215C105.67 215 90 230.67 90 250H102.5C102.5 237.592 112.592 227.5 125 227.5Z" fill="#121212"/>
</svg>
