<svg xmlns="http://www.w3.org/2000/svg" viewBox="125 250 125 125" width="200" height="200">
  <rect x="125" y="250" width="125" height="125" fill="#F3F3F3"/>
  <path d="M7.62939e-06 375H125L125 250C55.9844 249.979 0.0208359 305.964 7.62939e-06 375Z" fill="#121212"/>
  <path d="M7.62939e-06 500H125L125 375C55.9844 374.979 0.0208359 430.964 7.62939e-06 500Z" fill="#121212"/>
  <path d="M375.005 225V237.5C381.911 237.5 387.505 243.094 387.505 250H400.005C400.005 236.193 388.812 225 375.005 225Z" fill="#121212"/>
  <path d="M375.005 200V212.5C395.719 212.5 412.505 229.286 412.505 250H425.005C425.005 222.385 402.62 200 375.005 200Z" fill="#121212"/>
  <path d="M375.005 175V187.5C409.526 187.5 437.505 215.479 437.505 250H450.005C450.005 208.583 416.422 175 375.005 175Z" fill="#121212"/>
  <path d="M375.005 150V162.5C423.328 162.5 462.505 201.677 462.505 250H475.005C475.005 194.771 430.234 150 375.005 150Z" fill="#121212"/>
  <path d="M375.005 125V137.5C437.135 137.5 487.505 187.87 487.505 250H500C500 180.99 443.828 125 375.005 125Z" fill="#121212"/>
  <path d="M250 250.005L125 250.005L125 375.005C125 306.177 180.99 250.01 250 250.01V250.005Z" fill="#121212"/>
  <path d="M125 500H137.5L137.5 375H125L125 500Z" fill="#121212"/>
  <path d="M225 500H237.5L237.5 375H225L225 500Z" fill="#121212"/>
  <path d="M162.5 500H150L150 375H162.5V409.995C162.5 411.026 163.687 411.625 164.557 411.078C164.865 410.88 165.182 410.693 165.495 410.505C170.625 407.505 174.995 402.604 174.995 396.656V375H187.495V396.656C187.495 402.599 191.865 407.5 196.995 410.505C197.312 410.693 197.625 410.88 197.932 411.078C198.802 411.63 199.99 411.026 199.99 409.995V375H212.49L212.49 500H199.99L199.99 465.005C199.99 463.974 198.802 463.375 197.932 463.927C197.625 464.125 197.307 464.313 196.995 464.5C191.865 467.5 187.495 472.401 187.495 478.349L187.495 500.005H174.995L174.995 478.349C174.995 472.406 170.625 467.505 165.495 464.5C165.177 464.313 164.865 464.125 164.557 463.927C163.687 463.375 162.5 463.979 162.5 465.005L162.5 500Z" fill="#121212" fill-rule="evenodd"/>
  <path d="M224.995 375H237.495C237.495 368.094 243.089 362.5 249.995 362.5V350C236.188 350 224.995 361.193 224.995 375Z" fill="#121212"/>
  <path d="M199.995 375H212.495C212.495 354.286 229.281 337.5 249.995 337.5V325C222.38 325 199.995 347.391 199.995 375Z" fill="#121212"/>
  <path d="M174.995 375H187.495C187.495 340.479 215.479 312.495 250 312.495V299.995C208.578 299.995 174.995 333.578 174.995 375Z" fill="#121212"/>
  <path d="M149.99 375H162.49C162.49 326.672 201.667 287.495 249.995 287.495V274.995C194.76 274.995 149.99 319.766 149.99 375Z" fill="#121212"/>
  <path d="M124.99 375H137.49C137.49 312.865 187.859 262.495 249.995 262.495V250C180.979 250 124.99 306.172 124.99 375Z" fill="#121212"/>
</svg>
