<svg xmlns="http://www.w3.org/2000/svg" viewBox="250 375 125 125" width="200" height="200">
  <rect x="250" y="375" width="125" height="125" fill="#F3F3F3"/>
  <path d="M500 250L375 250V375C444.016 375.021 499.979 319.036 500 250Z" fill="#121212"/>
  <path d="M7.62939e-06 500H125L125 375C55.9844 374.979 0.0208359 430.964 7.62939e-06 500Z" fill="#121212"/>
  <path d="M375.005 225V237.5C381.911 237.5 387.505 243.094 387.505 250H400.005C400.005 236.193 388.812 225 375.005 225Z" fill="#121212"/>
  <path d="M375.005 200V212.5C395.719 212.5 412.505 229.286 412.505 250H425.005C425.005 222.385 402.62 200 375.005 200Z" fill="#121212"/>
  <path d="M375.005 175V187.5C409.526 187.5 437.505 215.479 437.505 250H450.005C450.005 208.583 416.422 175 375.005 175Z" fill="#121212"/>
  <path d="M375.005 150V162.5C423.328 162.5 462.505 201.677 462.505 250H475.005C475.005 194.771 430.234 150 375.005 150Z" fill="#121212"/>
  <path d="M375.005 125V137.5C437.135 137.5 487.505 187.87 487.505 250H500C500 180.99 443.828 125 375.005 125Z" fill="#121212"/>
  <path d="M331.25 440C331.25 448.104 325 455.818 325 463.922V500H312.5V463.922C312.5 455.818 306.25 448.104 306.25 440C306.25 431.896 312.5 424.182 312.5 416.078V375H325V416.078C325 424.182 331.25 431.896 331.25 440Z" fill="#121212" fill-rule="evenodd"/>
  <path d="M306.25 415C306.25 423.104 300 430.818 300 438.922V500H287.5V438.922C287.5 430.818 281.25 423.104 281.25 415C281.25 406.896 287.5 399.182 287.5 391.078V375H300V391.078C300 399.182 306.25 406.896 306.25 415Z" fill="#121212" fill-rule="evenodd"/>
  <path d="M356.25 435C352.797 435 350 430.25 350 421.25V375H337.5V500H350V494.448C350 485.448 352.797 480.698 356.25 480.698C359.703 480.698 362.5 485.448 362.5 494.448V500H375V375H362.5V421.25C362.5 430.25 359.703 435 356.25 435ZM362.5 456.146C362.5 465.036 359.703 472.24 356.25 472.24C352.797 472.24 350 465.036 350 456.146C350 447.255 352.797 440.052 356.25 440.052C359.703 440.052 362.5 447.255 362.5 456.146Z" fill="#121212"/>
  <path d="M125 500H137.5L137.5 375H125L125 500Z" fill="#121212"/>
  <path d="M225 500H237.5L237.5 375H225L225 500Z" fill="#121212"/>
  <path d="M162.5 500H150L150 375H162.5V409.995C162.5 411.026 163.687 411.625 164.557 411.078C164.865 410.88 165.182 410.693 165.495 410.505C170.625 407.505 174.995 402.604 174.995 396.656V375H187.495V396.656C187.495 402.599 191.865 407.5 196.995 410.505C197.312 410.693 197.625 410.88 197.932 411.078C198.802 411.63 199.99 411.026 199.99 409.995V375H212.49L212.49 500H199.99L199.99 465.005C199.99 463.974 198.802 463.375 197.932 463.927C197.625 464.125 197.307 464.313 196.995 464.5C191.865 467.5 187.495 472.401 187.495 478.349L187.495 500.005H174.995L174.995 478.349C174.995 472.406 170.625 467.505 165.495 464.5C165.177 464.313 164.865 464.125 164.557 463.927C163.687 463.375 162.5 463.979 162.5 465.005L162.5 500Z" fill="#121212" fill-rule="evenodd"/>
  <path d="M274.99 375H262.49V500H274.99V375Z" fill="#121212"/>
</svg>
