<?xml version='1.0' encoding='UTF-8'?>
<svg xmlns="http://www.w3.org/2000/svg" version="1.1" width="960" height="480" viewBox="0 0 960 480">
<rect width="960" height="480" fill="#121212"/>
<g transform="translate(160.000,0.000) scale(0.80000) rotate(180,100,100)"><path d="M125 75L125 125L75 125L75 75L125 75Z" fill="#FF4F00"/></g>
<g transform="translate(320.000,0.000) scale(0.80000)"><path d="M60 200H80L80 0H60L60 200Z" fill="#FF4F00"/>
  <path d="M140 200H160L160 0H140L140 200Z" fill="#FF4F00"/>
  <path fill-rule="evenodd" clip-rule="evenodd" d="M130.114 114.849C125.388 121.241 120 128.058 120 136.007V200H100V136.007C100 128.058 94.612 121.241 89.8855 114.849C86.8153 110.697 85 105.56 85 100C85 94.4396 86.8153 89.3032 89.8855 85.1511C94.612 78.7593 100 71.9425 100 63.9929V0H120V63.9929C120 71.9424 125.388 78.7593 130.114 85.1511C133.185 89.3032 135 94.4396 135 100C135 105.56 133.185 110.697 130.114 114.849Z" fill="#FF4F00"/>
  <path d="M20 200H40L40 0H20L20 200Z" fill="#FF4F00"/>
  <path d="M180 200H200L200 0H180L180 200Z" fill="#FF4F00"/></g>
<g transform="translate(640.000,0.000) scale(-0.80000,0.80000) rotate(90,100,100)"><path d="M60 200H80L80 0H60L60 200Z" fill="#FF4F00"/>
  <path d="M140 200H160L160 0H140L140 200Z" fill="#FF4F00"/>
  <path fill-rule="evenodd" clip-rule="evenodd" d="M130.114 114.849C125.388 121.241 120 128.058 120 136.007V200H100V136.007C100 128.058 94.612 121.241 89.8855 114.849C86.8153 110.697 85 105.56 85 100C85 94.4396 86.8153 89.3032 89.8855 85.1511C94.612 78.7593 100 71.9425 100 63.9929V0H120V63.9929C120 71.9424 125.388 78.7593 130.114 85.1511C133.185 89.3032 135 94.4396 135 100C135 105.56 133.185 110.697 130.114 114.849Z" fill="#FF4F00"/>
  <path d="M20 200H40L40 0H20L20 200Z" fill="#FF4F00"/>
  <path d="M180 200H200L200 0H180L180 200Z" fill="#FF4F00"/></g>
<g transform="translate(0.000,160.000) scale(0.80000)"><path d="M100 0L100 100L0 100L0 0L100 0Z" fill="#FFFFFF"/>
  <path d="M200 100L200 200L100 200L100 100L200 100Z" fill="#FFFFFF"/></g>
<g transform="translate(320.000,160.000) scale(-0.80000,0.80000)"><path d="M100 0L100 100L0 100L0 0L100 0Z" fill="#FFFFFF"/>
  <path d="M200 100L200 200L100 200L100 100L200 100Z" fill="#FFFFFF"/></g>
<g transform="translate(320.000,160.000) scale(0.80000) rotate(90,100,100)"><path d="M60 200H80L80 0H60L60 200Z" fill="#FF4F00"/>
  <path d="M140 200H160L160 0H140L140 200Z" fill="#FF4F00"/>
  <path fill-rule="evenodd" clip-rule="evenodd" d="M130.114 114.849C125.388 121.241 120 128.058 120 136.007V200H100V136.007C100 128.058 94.612 121.241 89.8855 114.849C86.8153 110.697 85 105.56 85 100C85 94.4396 86.8153 89.3032 89.8855 85.1511C94.612 78.7593 100 71.9425 100 63.9929V0H120V63.9929C120 71.9424 125.388 78.7593 130.114 85.1511C133.185 89.3032 135 94.4396 135 100C135 105.56 133.185 110.697 130.114 114.849Z" fill="#FF4F00"/>
  <path d="M20 200H40L40 0H20L20 200Z" fill="#FF4F00"/>
  <path d="M180 200H200L200 0H180L180 200Z" fill="#FF4F00"/></g>
<g transform="translate(640.000,160.000) scale(-0.80000,0.80000) rotate(180,100,100)"><path d="M60 200H80L80 0H60L60 200Z" fill="#FF4F00"/>
  <path d="M140 200H160L160 0H140L140 200Z" fill="#FF4F00"/>
  <path fill-rule="evenodd" clip-rule="evenodd" d="M130.114 114.849C125.388 121.241 120 128.058 120 136.007V200H100V136.007C100 128.058 94.612 121.241 89.8855 114.849C86.8153 110.697 85 105.56 85 100C85 94.4396 86.8153 89.3032 89.8855 85.1511C94.612 78.7593 100 71.9425 100 63.9929V0H120V63.9929C120 71.9424 125.388 78.7593 130.114 85.1511C133.185 89.3032 135 94.4396 135 100C135 105.56 133.185 110.697 130.114 114.849Z" fill="#FF4F00"/>
  <path d="M20 200H40L40 0H20L20 200Z" fill="#FF4F00"/>
  <path d="M180 200H200L200 0H180L180 200Z" fill="#FF4F00"/></g>
<g transform="translate(800.000,160.000) scale(-0.80000,0.80000)"><path d="M100 0L100 100L0 100L0 0L100 0Z" fill="#FFFFFF"/>
  <path d="M200 100L200 200L100 200L100 100L200 100Z" fill="#FFFFFF"/></g>
<g transform="translate(800.000,160.000) scale(0.80000)"><path d="M100 0L100 100L0 100L0 0L100 0Z" fill="#FFFFFF"/>
  <path d="M200 100L200 200L100 200L100 100L200 100Z" fill="#FFFFFF"/></g>
<g transform="translate(0.000,320.000) scale(0.80000)"><path fill-rule="evenodd" clip-rule="evenodd" d="M0 100L200 0L0 0L0 200L200 200L0 100Z" fill="#FFFFFF"/></g>
<g transform="translate(320.000,320.000) scale(-0.80000,0.80000)"><path fill-rule="evenodd" clip-rule="evenodd" d="M0 100L200 0L0 0L0 200L200 200L0 100Z" fill="#FFFFFF"/></g>
<g transform="translate(800.000,320.000) scale(-0.80000,0.80000)"><path fill-rule="evenodd" clip-rule="evenodd" d="M0 100L200 0L0 0L0 200L200 200L0 100Z" fill="#FFFFFF"/></g>
<g transform="translate(800.000,320.000) scale(0.80000)"><path fill-rule="evenodd" clip-rule="evenodd" d="M0 100L200 0L0 0L0 200L200 200L0 100Z" fill="#FFFFFF"/></g>
</svg>
