<?xml version='1.0' encoding='UTF-8'?>
<svg xmlns="http://www.w3.org/2000/svg" version="1.1" width="960" height="480" viewBox="0 0 960 480">
<rect width="960" height="480" fill="#FFFFFF"/>
<rect x="320.000" y="0.000" width="640.000" height="480.000" fill="#121212"/>
<g transform="translate(0.000,0.000) scale(0.80000)"><path d="M60 200H80L80 0H60L60 200Z" fill="#121212"/>
  <path d="M100 200H120L120 0H100L100 200Z" fill="#121212"/>
  <path d="M140 200H160L160 0H140L140 200Z" fill="#121212"/>
  <path d="M20 200H40L40 0H20L20 200Z" fill="#121212"/>
  <path d="M180 200H200L200 0H180L180 200Z" fill="#121212"/></g>
<g transform="translate(320.000,0.000) scale(-0.80000,0.80000) rotate(90,100,100)"><path d="M60 200H80L80 0H60L60 200Z" fill="#121212"/>
  <path d="M100 200H120L120 0H100L100 200Z" fill="#121212"/>
  <path d="M140 200H160L160 0H140L140 200Z" fill="#121212"/>
  <path d="M20 200H40L40 0H20L20 200Z" fill="#121212"/>
  <path d="M180 200H200L200 0H180L180 200Z" fill="#121212"/></g>
<g transform="translate(320.000,0.000) scale(0.80000)"><path d="M200 200C144.772 200 0 200 0 200C0 144.772 44.7715 100 100 100C155.228 100 200 144.772 200 200Z" fill="#FFFFFF"/></g>
<g transform="translate(640.000,0.000) scale(-0.80000,0.80000)"><path d="M200 200C144.772 200 0 200 0 200C0 144.772 44.7715 100 100 100C155.228 100 200 144.772 200 200Z" fill="#FFFFFF"/></g>
<g transform="translate(640.000,0.000) scale(0.80000)"><path d="M200 200C144.772 200 0 200 0 200C0 144.772 44.7715 100 100 100C155.228 100 200 144.772 200 200Z" fill="#FFFFFF"/></g>
<g transform="translate(960.000,0.000) scale(-0.80000,0.80000)"><path d="M200 200C144.772 200 0 200 0 200C0 144.772 44.7715 100 100 100C155.228 100 200 144.772 200 200Z" fill="#FFFFFF"/></g>
<g transform="translate(0.000,160.000) scale(0.80000) rotate(90,100,100)"><path d="M60 200H80L80 0H60L60 200Z" fill="#121212"/>
  <path d="M100 200H120L120 0H100L100 200Z" fill="#121212"/>
  <path d="M140 200H160L160 0H140L140 200Z" fill="#121212"/>
  <path d="M20 200H40L40 0H20L20 200Z" fill="#121212"/>
  <path d="M180 200H200L200 0H180L180 200Z" fill="#121212"/></g>
<g transform="translate(320.000,160.000) scale(-0.80000,0.80000) rotate(180,100,100)"><path d="M60 200H80L80 0H60L60 200Z" fill="#121212"/>
  <path d="M100 200H120L120 0H100L100 200Z" fill="#121212"/>
  <path d="M140 200H160L160 0H140L140 200Z" fill="#121212"/>
  <path d="M20 200H40L40 0H20L20 200Z" fill="#121212"/>
  <path d="M180 200H200L200 0H180L180 200Z" fill="#121212"/></g>
<g transform="translate(480.000,160.000) scale(0.80000)"><path d="M100 0H0V100C0 44.772 44.772 0 100 0Z" fill="#FF4F00"/>
  <path d="M50.0001 150C50.0001 122.387 27.6192 100 0.0001 100C0.0001 100 0.0001 122.387 0.0001 150C0.0001 163.81 0.0001 200 0.0001 200C27.6192 200 50.0001 177.613 50.0001 150Z" fill="#FF4F00"/></g>
<g transform="translate(320.000,320.000) scale(0.80000)"><path fill-rule="evenodd" clip-rule="evenodd" d="M50 98.5L200 0L0 0L0 200L50 200L50 98.5Z" fill="#FF4F00"/></g>
<g transform="translate(640.000,320.000) scale(-0.80000,0.80000)"><path fill-rule="evenodd" clip-rule="evenodd" d="M50 98.5L200 0L0 0L0 200L50 200L50 98.5Z" fill="#FF4F00"/></g>
<g transform="translate(640.000,320.000) scale(0.80000)"><path fill-rule="evenodd" clip-rule="evenodd" d="M50 98.5L200 0L0 0L0 200L50 200L50 98.5Z" fill="#FF4F00"/></g>
<g transform="translate(960.000,320.000) scale(-0.80000,0.80000)"><path fill-rule="evenodd" clip-rule="evenodd" d="M50 98.5L200 0L0 0L0 200L50 200L50 98.5Z" fill="#FF4F00"/></g>
</svg>
