<?xml version='1.0' encoding='UTF-8'?>
<svg xmlns="http://www.w3.org/2000/svg" version="1.1" width="960" height="480" viewBox="0 0 960 480">
<rect width="960" height="480" fill="#121212"/>
<g transform="translate(160.000,0.000) scale(0.80000)"><path d="M60 200H80L80 0H60L60 200Z" fill="#FFFFFF"/>
  <path d="M140 200H160L160 0H140L140 200Z" fill="#FFFFFF"/>
  <path fill-rule="evenodd" clip-rule="evenodd" d="M130.114 114.849C125.388 121.241 120 128.058 120 136.007V200H100V136.007C100 128.058 94.612 121.241 89.8855 114.849C86.8153 110.697 85 105.56 85 100C85 94.4396 86.8153 89.3032 89.8855 85.1511C94.612 78.7593 100 71.9425 100 63.9929V0H120V63.9929C120 71.9424 125.388 78.7593 130.114 85.1511C133.185 89.3032 135 94.4396 135 100C135 105.56 133.185 110.697 130.114 114.849Z" fill="#FFFFFF"/>
  <path d="M20 200H40L40 0H20L20 200Z" fill="#FFFFFF"/>
  <path d="M180 200H200L200 0H180L180 200Z" fill="#FFFFFF"/></g>
<g transform="translate(320.000,0.000) scale(0.80000) rotate(90,100,100)"><path d="M60 200H80L80 0H60L60 200Z" fill="#FFFFFF"/>
  <path d="M140 200H160L160 0H140L140 200Z" fill="#FFFFFF"/>
  <path fill-rule="evenodd" clip-rule="evenodd" d="M130.114 114.849C125.388 121.241 120 128.058 120 136.007V200H100V136.007C100 128.058 94.612 121.241 89.8855 114.849C86.8153 110.697 85 105.56 85 100C85 94.4396 86.8153 89.3032 89.8855 85.1511C94.612 78.7593 100 71.9425 100 63.9929V0H120V63.9929C120 71.9424 125.388 78.7593 130.114 85.1511C133.185 89.3032 135 94.4396 135 100C135 105.56 133.185 110.697 130.114 114.849Z" fill="#FFFFFF"/>
  <path d="M20 200H40L40 0H20L20 200Z" fill="#FFFFFF"/>
  <path d="M180 200H200L200 0H180L180 200Z" fill="#FFFFFF"/></g>
<g transform="translate(640.000,0.000) scale(-0.80000,0.80000) rotate(180,100,100)"><path d="M60 200H80L80 0H60L60 200Z" fill="#FFFFFF"/>
  <path d="M140 200H160L160 0H140L140 200Z" fill="#FFFFFF"/>
  <path fill-rule="evenodd" clip-rule="evenodd" d="M130.114 114.849C125.388 121.241 120 128.058 120 136.007V200H100V136.007C100 128.058 94.612 121.241 89.8855 114.849C86.8153 110.697 85 105.56 85 100C85 94.4396 86.8153 89.3032 89.8855 85.1511C94.612 78.7593 100 71.9425 100 63.9929V0H120V63.9929C120 71.9424 125.388 78.7593 130.114 85.1511C133.185 89.3032 135 94.4396 135 100C135 105.56 133.185 110.697 130.114 114.849Z" fill="#FFFFFF"/>
  <path d="M20 200H40L40 0H20L20 200Z" fill="#FFFFFF"/>
  <path d="M180 200H200L200 0H180L180 200Z" fill="#FFFFFF"/></g>
<g transform="translate(800.000,0.000) scale(-0.80000,0.80000) rotate(270,100,100)"><path d="M60 200H80L80 0H60L60 200Z" fill="#FFFFFF"/>
  <path d="M140 200H160L160 0H140L140 200Z" fill="#FFFFFF"/>
  <path fill-rule="evenodd" clip-rule="evenodd" d="M130.114 114.849C125.388 121.241 120 128.058 120 136.007V200H100V136.007C100 128.058 94.612 121.241 89.8855 114.849C86.8153 110.697 85 105.56 85 100C85 94.4396 86.8153 89.3032 89.8855 85.1511C94.612 78.7593 100 71.9425 100 63.9929V0H120V63.9929C120 71.9424 125.388 78.7593 130.114 85.1511C133.185 89.3032 135 94.4396 135 100C135 105.56 133.185 110.697 130.114 114.849Z" fill="#FFFFFF"/>
  <path d="M20 200H40L40 0H20L20 200Z" fill="#FFFFFF"/>
  <path d="M180 200H200L200 0H180L180 200Z" fill="#FFFFFF"/></g>
<g transform="translate(160.000,160.000) scale(0.80000) rotate(90,100,100)"><path d="M60 200H80L80 0H60L60 200Z" fill="#FFFFFF"/>
  <path d="M140 200H160L160 0H140L140 200Z" fill="#FFFFFF"/>
  <path fill-rule="evenodd" clip-rule="evenodd" d="M130.114 114.849C125.388 121.241 120 128.058 120 136.007V200H100V136.007C100 128.058 94.612 121.241 89.8855 114.849C86.8153 110.697 85 105.56 85 100C85 94.4396 86.8153 89.3032 89.8855 85.1511C94.612 78.7593 100 71.9425 100 63.9929V0H120V63.9929C120 71.9424 125.388 78.7593 130.114 85.1511C133.185 89.3032 135 94.4396 135 100C135 105.56 133.185 110.697 130.114 114.849Z" fill="#FFFFFF"/>
  <path d="M20 200H40L40 0H20L20 200Z" fill="#FFFFFF"/>
  <path d="M180 200H200L200 0H180L180 200Z" fill="#FFFFFF"/></g>
<g transform="translate(320.000,160.000) scale(0.80000) rotate(180,100,100)"><path d="M60 200H80L80 0H60L60 200Z" fill="#FFFFFF"/>
  <path d="M140 200H160L160 0H140L140 200Z" fill="#FFFFFF"/>
  <path fill-rule="evenodd" clip-rule="evenodd" d="M130.114 114.849C125.388 121.241 120 128.058 120 136.007V200H100V136.007C100 128.058 94.612 121.241 89.8855 114.849C86.8153 110.697 85 105.56 85 100C85 94.4396 86.8153 89.3032 89.8855 85.1511C94.612 78.7593 100 71.9425 100 63.9929V0H120V63.9929C120 71.9424 125.388 78.7593 130.114 85.1511C133.185 89.3032 135 94.4396 135 100C135 105.56 133.185 110.697 130.114 114.849Z" fill="#FFFFFF"/>
  <path d="M20 200H40L40 0H20L20 200Z" fill="#FFFFFF"/>
  <path d="M180 200H200L200 0H180L180 200Z" fill="#FFFFFF"/></g>
<g transform="translate(640.000,160.000) scale(-0.80000,0.80000) rotate(270,100,100)"><path d="M60 200H80L80 0H60L60 200Z" fill="#FFFFFF"/>
  <path d="M140 200H160L160 0H140L140 200Z" fill="#FFFFFF"/>
  <path fill-rule="evenodd" clip-rule="evenodd" d="M130.114 114.849C125.388 121.241 120 128.058 120 136.007V200H100V136.007C100 128.058 94.612 121.241 89.8855 114.849C86.8153 110.697 85 105.56 85 100C85 94.4396 86.8153 89.3032 89.8855 85.1511C94.612 78.7593 100 71.9425 100 63.9929V0H120V63.9929C120 71.9424 125.388 78.7593 130.114 85.1511C133.185 89.3032 135 94.4396 135 100C135 105.56 133.185 110.697 130.114 114.849Z" fill="#FFFFFF"/>
  <path d="M20 200H40L40 0H20L20 200Z" fill="#FFFFFF"/>
  <path d="M180 200H200L200 0H180L180 200Z" fill="#FFFFFF"/></g>
<g transform="translate(800.000,160.000) scale(-0.80000,0.80000)"><path d="M60 200H80L80 0H60L60 200Z" fill="#FFFFFF"/>
  <path d="M140 200H160L160 0H140L140 200Z" fill="#FFFFFF"/>
  <path fill-rule="evenodd" clip-rule="evenodd" d="M130.114 114.849C125.388 121.241 120 128.058 120 136.007V200H100V136.007C100 128.058 94.612 121.241 89.8855 114.849C86.8153 110.697 85 105.56 85 100C85 94.4396 86.8153 89.3032 89.8855 85.1511C94.612 78.7593 100 71.9425 100 63.9929V0H120V63.9929C120 71.9424 125.388 78.7593 130.114 85.1511C133.185 89.3032 135 94.4396 135 100C135 105.56 133.185 110.697 130.114 114.849Z" fill="#FFFFFF"/>
  <path d="M20 200H40L40 0H20L20 200Z" fill="#FFFFFF"/>
  <path d="M180 200H200L200 0H180L180 200Z" fill="#FFFFFF"/></g>
<g transform="translate(0.000,320.000) scale(0.80000)"><path d="M200 0C200 0 169.709 10 100 10C30.2914 10 69.7086 10 0 10L0 0L100 0L200 0Z" fill="#FF4F00"/></g>
<g transform="translate(160.000,320.000) scale(0.80000)"><path d="M150 0L0.042 0L0 150C82.8188 150.024 149.976 82.842 150 0Z" fill="#FF4F00"/></g>
<g transform="translate(480.000,320.000) scale(-0.80000,0.80000)"><path d="M150 0L0.042 0L0 150C82.8188 150.024 149.976 82.842 150 0Z" fill="#FF4F00"/></g>
<g transform="translate(480.000,320.000) scale(0.80000)"><path d="M150 0L0.042 0L0 150C82.8188 150.024 149.976 82.842 150 0Z" fill="#FF4F00"/></g>
<g transform="translate(800.000,320.000) scale(-0.80000,0.80000)"><path d="M150 0L0.042 0L0 150C82.8188 150.024 149.976 82.842 150 0Z" fill="#FF4F00"/></g>
<g transform="translate(800.000,320.000) scale(0.80000) rotate(180,100,100)"><path d="M150.05 200 C105.549 200 83.2634 146.197 114.73 114.73 C146.197 83.2634 200 105.549 200 150.05 L200 200 L150.05 200 Z" fill="#FF4F00"/></g>
</svg>
