<?xml version='1.0' encoding='UTF-8'?>
<svg xmlns="http://www.w3.org/2000/svg" version="1.1" width="960" height="480" viewBox="0 0 960 480">
<rect width="960" height="480" fill="#121212"/>
<g transform="translate(160.000,0.000) scale(0.80000)"><path d="M100 0L100 150L0 200L0 0L100 0Z" fill="#FF4F00"/></g>
<g transform="translate(320.000,0.000) scale(0.80000)"><path d="M100 0L100 150L0 200L0 0L100 0Z" fill="#FF4F00"/></g>
<g transform="translate(480.000,0.000) scale(0.80000)"><path d="M100 0L100 150L0 200L0 0L100 0Z" fill="#FF4F00"/></g>
<g transform="translate(640.000,0.000) scale(0.80000)"><path d="M100 0L100 150L0 200L0 0L100 0Z" fill="#FF4F00"/></g>
<g transform="translate(0.000,160.000) scale(0.80000)"><path d="M200 0C200 55.228 177.616 105.228 141.42 141.42C105.228 177.616 55.228 200 0 200L200 200L200 0Z" fill="#FFFFFF"/>
  <path d="M141.667 100C141.667 76.9841 123.011 58.3333 100 58.3333C76.9891 58.3333 58.3333 76.9841 58.3333 100C58.3333 123.016 76.989 141.667 100 141.667C111.508 141.667 121.925 137.004 129.464 129.464C137.004 121.925 141.667 111.508 141.667 100Z" fill="#FFFFFF"/>
  <path d="M100.028 0.028L0.056 0L0.028 100C55.2405 100.016 100.012 55.256 100.028 0.028Z" fill="#FFFFFF"/></g>
<g transform="translate(320.000,160.000) scale(-0.80000,0.80000)"><path d="M200 0C200 55.228 177.616 105.228 141.42 141.42C105.228 177.616 55.228 200 0 200L200 200L200 0Z" fill="#FFFFFF"/>
  <path d="M141.667 100C141.667 76.9841 123.011 58.3333 100 58.3333C76.9891 58.3333 58.3333 76.9841 58.3333 100C58.3333 123.016 76.989 141.667 100 141.667C111.508 141.667 121.925 137.004 129.464 129.464C137.004 121.925 141.667 111.508 141.667 100Z" fill="#FFFFFF"/>
  <path d="M100.028 0.028L0.056 0L0.028 100C55.2405 100.016 100.012 55.256 100.028 0.028Z" fill="#FFFFFF"/></g>
<g transform="translate(320.000,160.000) scale(0.80000)"><path d="M200 0C200 55.228 177.616 105.228 141.42 141.42C105.228 177.616 55.228 200 0 200L200 200L200 0Z" fill="#FFFFFF"/>
  <path d="M141.667 100C141.667 76.9841 123.011 58.3333 100 58.3333C76.9891 58.3333 58.3333 76.9841 58.3333 100C58.3333 123.016 76.989 141.667 100 141.667C111.508 141.667 121.925 137.004 129.464 129.464C137.004 121.925 141.667 111.508 141.667 100Z" fill="#FFFFFF"/>
  <path d="M100.028 0.028L0.056 0L0.028 100C55.2405 100.016 100.012 55.256 100.028 0.028Z" fill="#FFFFFF"/></g>
<g transform="translate(640.000,160.000) scale(-0.80000,0.80000)"><path d="M200 0C200 55.228 177.616 105.228 141.42 141.42C105.228 177.616 55.228 200 0 200L200 200L200 0Z" fill="#FFFFFF"/>
  <path d="M141.667 100C141.667 76.9841 123.011 58.3333 100 58.3333C76.9891 58.3333 58.3333 76.9841 58.3333 100C58.3333 123.016 76.989 141.667 100 141.667C111.508 141.667 121.925 137.004 129.464 129.464C137.004 121.925 141.667 111.508 141.667 100Z" fill="#FFFFFF"/>
  <path d="M100.028 0.028L0.056 0L0.028 100C55.2405 100.016 100.012 55.256 100.028 0.028Z" fill="#FFFFFF"/></g>
<g transform="translate(640.000,160.000) scale(0.80000)"><path d="M200 0C200 55.228 177.616 105.228 141.42 141.42C105.228 177.616 55.228 200 0 200L200 200L200 0Z" fill="#FFFFFF"/>
  <path d="M141.667 100C141.667 76.9841 123.011 58.3333 100 58.3333C76.9891 58.3333 58.3333 76.9841 58.3333 100C58.3333 123.016 76.989 141.667 100 141.667C111.508 141.667 121.925 137.004 129.464 129.464C137.004 121.925 141.667 111.508 141.667 100Z" fill="#FFFFFF"/>
  <path d="M100.028 0.028L0.056 0L0.028 100C55.2405 100.016 100.012 55.256 100.028 0.028Z" fill="#FFFFFF"/></g>
<g transform="translate(960.000,160.000) scale(-0.80000,0.80000)"><path d="M200 0C200 55.228 177.616 105.228 141.42 141.42C105.228 177.616 55.228 200 0 200L200 200L200 0Z" fill="#FFFFFF"/>
  <path d="M141.667 100C141.667 76.9841 123.011 58.3333 100 58.3333C76.9891 58.3333 58.3333 76.9841 58.3333 100C58.3333 123.016 76.989 141.667 100 141.667C111.508 141.667 121.925 137.004 129.464 129.464C137.004 121.925 141.667 111.508 141.667 100Z" fill="#FFFFFF"/>
  <path d="M100.028 0.028L0.056 0L0.028 100C55.2405 100.016 100.012 55.256 100.028 0.028Z" fill="#FFFFFF"/></g>
<g transform="translate(160.000,320.000) scale(0.80000)"><path d="M0.008 0L0 0L0 200L200 200C89.876 200 0.008 110.417 0.008 0Z" fill="#FFFFFF"/>
  <path fill-rule="evenodd" clip-rule="evenodd" d="M40 0C40 88.3656 111.634 160 200 160V180C100.589 180 20 99.4113 20 0H40Z" fill="#FFFFFF"/>
  <path fill-rule="evenodd" clip-rule="evenodd" d="M80 0C80 66.2742 133.726 120 200 120V140C122.68 140 60 77.3199 60 0H80Z" fill="#FFFFFF"/>
  <path fill-rule="evenodd" clip-rule="evenodd" d="M120 0C120 44.1828 155.817 80 200 80V100C144.772 100 100 55.2285 100 0H120Z" fill="#FFFFFF"/>
  <path fill-rule="evenodd" clip-rule="evenodd" d="M160 0C160 22.0914 177.909 40 200 40V60C166.863 60 140 33.1371 140 0H160Z" fill="#FFFFFF"/>
  <path fill-rule="evenodd" clip-rule="evenodd" d="M180 0H200V20C188.954 20 180 11.0457 180 0Z" fill="#FFFFFF"/></g>
<g transform="translate(320.000,320.000) scale(0.80000) rotate(180,100,100)"><path d="M0.008 0L0 0L0 200L200 200C89.876 200 0.008 110.417 0.008 0Z" fill="#FFFFFF"/>
  <path fill-rule="evenodd" clip-rule="evenodd" d="M40 0C40 88.3656 111.634 160 200 160V180C100.589 180 20 99.4113 20 0H40Z" fill="#FFFFFF"/>
  <path fill-rule="evenodd" clip-rule="evenodd" d="M80 0C80 66.2742 133.726 120 200 120V140C122.68 140 60 77.3199 60 0H80Z" fill="#FFFFFF"/>
  <path fill-rule="evenodd" clip-rule="evenodd" d="M120 0C120 44.1828 155.817 80 200 80V100C144.772 100 100 55.2285 100 0H120Z" fill="#FFFFFF"/>
  <path fill-rule="evenodd" clip-rule="evenodd" d="M160 0C160 22.0914 177.909 40 200 40V60C166.863 60 140 33.1371 140 0H160Z" fill="#FFFFFF"/>
  <path fill-rule="evenodd" clip-rule="evenodd" d="M180 0H200V20C188.954 20 180 11.0457 180 0Z" fill="#FFFFFF"/></g>
<g transform="translate(480.000,320.000) scale(0.80000)"><path d="M0.008 0L0 0L0 200L200 200C89.876 200 0.008 110.417 0.008 0Z" fill="#FFFFFF"/>
  <path fill-rule="evenodd" clip-rule="evenodd" d="M40 0C40 88.3656 111.634 160 200 160V180C100.589 180 20 99.4113 20 0H40Z" fill="#FFFFFF"/>
  <path fill-rule="evenodd" clip-rule="evenodd" d="M80 0C80 66.2742 133.726 120 200 120V140C122.68 140 60 77.3199 60 0H80Z" fill="#FFFFFF"/>
  <path fill-rule="evenodd" clip-rule="evenodd" d="M120 0C120 44.1828 155.817 80 200 80V100C144.772 100 100 55.2285 100 0H120Z" fill="#FFFFFF"/>
  <path fill-rule="evenodd" clip-rule="evenodd" d="M160 0C160 22.0914 177.909 40 200 40V60C166.863 60 140 33.1371 140 0H160Z" fill="#FFFFFF"/>
  <path fill-rule="evenodd" clip-rule="evenodd" d="M180 0H200V20C188.954 20 180 11.0457 180 0Z" fill="#FFFFFF"/></g>
<g transform="translate(640.000,320.000) scale(0.80000) rotate(180,100,100)"><path d="M0.008 0L0 0L0 200L200 200C89.876 200 0.008 110.417 0.008 0Z" fill="#FFFFFF"/>
  <path fill-rule="evenodd" clip-rule="evenodd" d="M40 0C40 88.3656 111.634 160 200 160V180C100.589 180 20 99.4113 20 0H40Z" fill="#FFFFFF"/>
  <path fill-rule="evenodd" clip-rule="evenodd" d="M80 0C80 66.2742 133.726 120 200 120V140C122.68 140 60 77.3199 60 0H80Z" fill="#FFFFFF"/>
  <path fill-rule="evenodd" clip-rule="evenodd" d="M120 0C120 44.1828 155.817 80 200 80V100C144.772 100 100 55.2285 100 0H120Z" fill="#FFFFFF"/>
  <path fill-rule="evenodd" clip-rule="evenodd" d="M160 0C160 22.0914 177.909 40 200 40V60C166.863 60 140 33.1371 140 0H160Z" fill="#FFFFFF"/>
  <path fill-rule="evenodd" clip-rule="evenodd" d="M180 0H200V20C188.954 20 180 11.0457 180 0Z" fill="#FFFFFF"/></g>
</svg>
