<?xml version='1.0' encoding='UTF-8'?>
<svg xmlns="http://www.w3.org/2000/svg" version="1.1" width="960" height="480" viewBox="0 0 960 480">
<rect width="960" height="480" fill="#121212"/>
<g transform="translate(0.000,0.000) scale(0.80000)"><path d="M200 0L0 200L0 0L200 0Z" fill="#FFFFFF"/></g>
<g transform="translate(320.000,0.000) scale(-0.80000,0.80000)"><path d="M200 0L0 200L0 0L200 0Z" fill="#FFFFFF"/></g>
<g transform="translate(320.000,0.000) scale(0.80000)"><rect x="20" y="32.5" width="15.8333" height="15.8333" fill="#121212"/>
  <path d="M20 200H40L40 0H20L20 200Z" fill="#FFFFFF"/>
  <path d="M180 200H200L200 0H180L180 200Z" fill="#FFFFFF"/>
  <path fill-rule="evenodd" clip-rule="evenodd" d="M80 200H60V100V0H80V55.9927C80 57.6415 81.9006 58.604 83.2937 57.7221C83.7889 57.4087 84.2899 57.1037 84.7967 56.8074C93.0078 52.0057 100 44.1641 100 34.6521V0H120V34.6521C120 44.1641 126.992 52.0057 135.203 56.8074C135.71 57.1037 136.211 57.4087 136.706 57.7221C138.099 58.604 140 57.6415 140 55.9927V0H160V100V200H140V144.007C140 142.359 138.099 141.396 136.706 142.278C136.211 142.591 135.71 142.896 135.203 143.193C126.992 147.994 120 155.836 120 165.348V200H100V165.348C100 155.836 93.0079 147.994 84.7967 143.193C84.29 142.896 83.7889 142.591 83.2937 142.278C81.9006 141.396 80 142.359 80 144.007V200Z" fill="#FFFFFF"/></g>
<g transform="translate(640.000,0.000) scale(-0.80000,0.80000) rotate(90,100,100)"><rect x="20" y="32.5" width="15.8333" height="15.8333" fill="#121212"/>
  <path d="M20 200H40L40 0H20L20 200Z" fill="#FFFFFF"/>
  <path d="M180 200H200L200 0H180L180 200Z" fill="#FFFFFF"/>
  <path fill-rule="evenodd" clip-rule="evenodd" d="M80 200H60V100V0H80V55.9927C80 57.6415 81.9006 58.604 83.2937 57.7221C83.7889 57.4087 84.2899 57.1037 84.7967 56.8074C93.0078 52.0057 100 44.1641 100 34.6521V0H120V34.6521C120 44.1641 126.992 52.0057 135.203 56.8074C135.71 57.1037 136.211 57.4087 136.706 57.7221C138.099 58.604 140 57.6415 140 55.9927V0H160V100V200H140V144.007C140 142.359 138.099 141.396 136.706 142.278C136.211 142.591 135.71 142.896 135.203 143.193C126.992 147.994 120 155.836 120 165.348V200H100V165.348C100 155.836 93.0079 147.994 84.7967 143.193C84.29 142.896 83.7889 142.591 83.2937 142.278C81.9006 141.396 80 142.359 80 144.007V200Z" fill="#FFFFFF"/></g>
<g transform="translate(640.000,0.000) scale(0.80000)"><path d="M200 0L0 200L0 0L200 0Z" fill="#FFFFFF"/></g>
<g transform="translate(960.000,0.000) scale(-0.80000,0.80000)"><path d="M200 0L0 200L0 0L200 0Z" fill="#FFFFFF"/></g>
<g transform="translate(320.000,160.000) scale(0.80000) rotate(90,100,100)"><rect x="20" y="32.5" width="15.8333" height="15.8333" fill="#121212"/>
  <path d="M20 200H40L40 0H20L20 200Z" fill="#FFFFFF"/>
  <path d="M180 200H200L200 0H180L180 200Z" fill="#FFFFFF"/>
  <path fill-rule="evenodd" clip-rule="evenodd" d="M80 200H60V100V0H80V55.9927C80 57.6415 81.9006 58.604 83.2937 57.7221C83.7889 57.4087 84.2899 57.1037 84.7967 56.8074C93.0078 52.0057 100 44.1641 100 34.6521V0H120V34.6521C120 44.1641 126.992 52.0057 135.203 56.8074C135.71 57.1037 136.211 57.4087 136.706 57.7221C138.099 58.604 140 57.6415 140 55.9927V0H160V100V200H140V144.007C140 142.359 138.099 141.396 136.706 142.278C136.211 142.591 135.71 142.896 135.203 143.193C126.992 147.994 120 155.836 120 165.348V200H100V165.348C100 155.836 93.0079 147.994 84.7967 143.193C84.29 142.896 83.7889 142.591 83.2937 142.278C81.9006 141.396 80 142.359 80 144.007V200Z" fill="#FFFFFF"/></g>
<g transform="translate(640.000,160.000) scale(-0.80000,0.80000) rotate(180,100,100)"><rect x="20" y="32.5" width="15.8333" height="15.8333" fill="#121212"/>
  <path d="M20 200H40L40 0H20L20 200Z" fill="#FFFFFF"/>
  <path d="M180 200H200L200 0H180L180 200Z" fill="#FFFFFF"/>
  <path fill-rule="evenodd" clip-rule="evenodd" d="M80 200H60V100V0H80V55.9927C80 57.6415 81.9006 58.604 83.2937 57.7221C83.7889 57.4087 84.2899 57.1037 84.7967 56.8074C93.0078 52.0057 100 44.1641 100 34.6521V0H120V34.6521C120 44.1641 126.992 52.0057 135.203 56.8074C135.71 57.1037 136.211 57.4087 136.706 57.7221C138.099 58.604 140 57.6415 140 55.9927V0H160V100V200H140V144.007C140 142.359 138.099 141.396 136.706 142.278C136.211 142.591 135.71 142.896 135.203 143.193C126.992 147.994 120 155.836 120 165.348V200H100V165.348C100 155.836 93.0079 147.994 84.7967 143.193C84.29 142.896 83.7889 142.591 83.2937 142.278C81.9006 141.396 80 142.359 80 144.007V200Z" fill="#FFFFFF"/></g>
<g transform="translate(0.000,320.000) scale(0.80000)"><path d="M149.958 50L150 199.958L0 200C-0.024 117.181 67.116 50.024 149.958 50Z" fill="#4997D0"/></g>
<g transform="translate(320.000,320.000) scale(-0.80000,0.80000)"><path d="M149.958 50L150 199.958L0 200C-0.024 117.181 67.116 50.024 149.958 50Z" fill="#4997D0"/></g>
<g transform="translate(640.000,320.000) scale(0.80000)"><path d="M149.958 50L150 199.958L0 200C-0.024 117.181 67.116 50.024 149.958 50Z" fill="#4997D0"/></g>
<g transform="translate(960.000,320.000) scale(-0.80000,0.80000)"><path d="M149.958 50L150 199.958L0 200C-0.024 117.181 67.116 50.024 149.958 50Z" fill="#4997D0"/></g>
</svg>
