<?xml version='1.0' encoding='UTF-8'?>
<svg xmlns="http://www.w3.org/2000/svg" version="1.1" width="960" height="480" viewBox="0 0 960 480">
<rect width="960" height="480" fill="#121212"/>
<g transform="translate(0.000,0.000) scale(0.80000)"><path fill-rule="evenodd" clip-rule="evenodd" d="M50 100L200 0L0 0L0 200L100 200L50 100Z" fill="#FFFFFF"/></g>
<g transform="translate(160.000,0.000) scale(0.80000)"><path fill-rule="evenodd" clip-rule="evenodd" d="M50 100L200 0L0 0L0 200L100 200L50 100Z" fill="#FFFFFF"/></g>
<g transform="translate(320.000,0.000) scale(0.80000)"><path d="M0.008 0L0 0L0 200L200 200C89.876 200 0.008 110.417 0.008 0Z" fill="#FFFFFF"/>
  <path fill-rule="evenodd" clip-rule="evenodd" d="M40 0C40 88.3656 111.634 160 200 160V180C100.589 180 20 99.4113 20 0H40Z" fill="#FFFFFF"/>
  <path fill-rule="evenodd" clip-rule="evenodd" d="M80 0C80 66.2742 133.726 120 200 120V140C122.68 140 60 77.3199 60 0H80Z" fill="#FFFFFF"/>
  <path fill-rule="evenodd" clip-rule="evenodd" d="M120 0C120 44.1828 155.817 80 200 80V100C144.772 100 100 55.2285 100 0H120Z" fill="#FFFFFF"/>
  <path fill-rule="evenodd" clip-rule="evenodd" d="M160 0C160 22.0914 177.909 40 200 40V60C166.863 60 140 33.1371 140 0H160Z" fill="#FFFFFF"/>
  <path fill-rule="evenodd" clip-rule="evenodd" d="M180 0H200V20C188.954 20 180 11.0457 180 0Z" fill="#FFFFFF"/></g>
<g transform="translate(640.000,0.000) scale(-0.80000,0.80000) rotate(90,100,100)"><path d="M0.008 0L0 0L0 200L200 200C89.876 200 0.008 110.417 0.008 0Z" fill="#FFFFFF"/>
  <path fill-rule="evenodd" clip-rule="evenodd" d="M40 0C40 88.3656 111.634 160 200 160V180C100.589 180 20 99.4113 20 0H40Z" fill="#FFFFFF"/>
  <path fill-rule="evenodd" clip-rule="evenodd" d="M80 0C80 66.2742 133.726 120 200 120V140C122.68 140 60 77.3199 60 0H80Z" fill="#FFFFFF"/>
  <path fill-rule="evenodd" clip-rule="evenodd" d="M120 0C120 44.1828 155.817 80 200 80V100C144.772 100 100 55.2285 100 0H120Z" fill="#FFFFFF"/>
  <path fill-rule="evenodd" clip-rule="evenodd" d="M160 0C160 22.0914 177.909 40 200 40V60C166.863 60 140 33.1371 140 0H160Z" fill="#FFFFFF"/>
  <path fill-rule="evenodd" clip-rule="evenodd" d="M180 0H200V20C188.954 20 180 11.0457 180 0Z" fill="#FFFFFF"/></g>
<g transform="translate(640.000,0.000) scale(0.80000)"><path fill-rule="evenodd" clip-rule="evenodd" d="M50 100L200 0L0 0L0 200L100 200L50 100Z" fill="#FFFFFF"/></g>
<g transform="translate(960.000,0.000) scale(-0.80000,0.80000)"><path fill-rule="evenodd" clip-rule="evenodd" d="M50 100L200 0L0 0L0 200L100 200L50 100Z" fill="#FFFFFF"/></g>
<g transform="translate(0.000,160.000) scale(0.80000)"><path fill-rule="evenodd" clip-rule="evenodd" d="M50 100L200 0L0 0L0 200L100 200L50 100Z" fill="#FFA300"/></g>
<g transform="translate(160.000,160.000) scale(0.80000)"><path fill-rule="evenodd" clip-rule="evenodd" d="M50 100L200 0L0 0L0 200L100 200L50 100Z" fill="#FFA300"/></g>
<g transform="translate(320.000,160.000) scale(0.80000) rotate(90,100,100)"><path d="M0.008 0L0 0L0 200L200 200C89.876 200 0.008 110.417 0.008 0Z" fill="#FFFFFF"/>
  <path fill-rule="evenodd" clip-rule="evenodd" d="M40 0C40 88.3656 111.634 160 200 160V180C100.589 180 20 99.4113 20 0H40Z" fill="#FFFFFF"/>
  <path fill-rule="evenodd" clip-rule="evenodd" d="M80 0C80 66.2742 133.726 120 200 120V140C122.68 140 60 77.3199 60 0H80Z" fill="#FFFFFF"/>
  <path fill-rule="evenodd" clip-rule="evenodd" d="M120 0C120 44.1828 155.817 80 200 80V100C144.772 100 100 55.2285 100 0H120Z" fill="#FFFFFF"/>
  <path fill-rule="evenodd" clip-rule="evenodd" d="M160 0C160 22.0914 177.909 40 200 40V60C166.863 60 140 33.1371 140 0H160Z" fill="#FFFFFF"/>
  <path fill-rule="evenodd" clip-rule="evenodd" d="M180 0H200V20C188.954 20 180 11.0457 180 0Z" fill="#FFFFFF"/></g>
<g transform="translate(640.000,160.000) scale(-0.80000,0.80000) rotate(180,100,100)"><path d="M0.008 0L0 0L0 200L200 200C89.876 200 0.008 110.417 0.008 0Z" fill="#FFFFFF"/>
  <path fill-rule="evenodd" clip-rule="evenodd" d="M40 0C40 88.3656 111.634 160 200 160V180C100.589 180 20 99.4113 20 0H40Z" fill="#FFFFFF"/>
  <path fill-rule="evenodd" clip-rule="evenodd" d="M80 0C80 66.2742 133.726 120 200 120V140C122.68 140 60 77.3199 60 0H80Z" fill="#FFFFFF"/>
  <path fill-rule="evenodd" clip-rule="evenodd" d="M120 0C120 44.1828 155.817 80 200 80V100C144.772 100 100 55.2285 100 0H120Z" fill="#FFFFFF"/>
  <path fill-rule="evenodd" clip-rule="evenodd" d="M160 0C160 22.0914 177.909 40 200 40V60C166.863 60 140 33.1371 140 0H160Z" fill="#FFFFFF"/>
  <path fill-rule="evenodd" clip-rule="evenodd" d="M180 0H200V20C188.954 20 180 11.0457 180 0Z" fill="#FFFFFF"/></g>
<g transform="translate(640.000,160.000) scale(0.80000)"><path fill-rule="evenodd" clip-rule="evenodd" d="M50 100L200 0L0 0L0 200L100 200L50 100Z" fill="#FFA300"/></g>
<g transform="translate(960.000,160.000) scale(-0.80000,0.80000)"><path fill-rule="evenodd" clip-rule="evenodd" d="M50 100L200 0L0 0L0 200L100 200L50 100Z" fill="#FFA300"/></g>
<g transform="translate(0.000,320.000) scale(0.80000)"><path d="M200 0L200 50L0 50L0 0L200 0Z" fill="#FF4F00"/></g>
<g transform="translate(320.000,320.000) scale(0.80000) rotate(180,100,100)"><path d="M0.008 0L0 0L0 200L200 200C89.876 200 0.008 110.417 0.008 0Z" fill="#FFFFFF"/>
  <path fill-rule="evenodd" clip-rule="evenodd" d="M40 0C40 88.3656 111.634 160 200 160V180C100.589 180 20 99.4113 20 0H40Z" fill="#FFFFFF"/>
  <path fill-rule="evenodd" clip-rule="evenodd" d="M80 0C80 66.2742 133.726 120 200 120V140C122.68 140 60 77.3199 60 0H80Z" fill="#FFFFFF"/>
  <path fill-rule="evenodd" clip-rule="evenodd" d="M120 0C120 44.1828 155.817 80 200 80V100C144.772 100 100 55.2285 100 0H120Z" fill="#FFFFFF"/>
  <path fill-rule="evenodd" clip-rule="evenodd" d="M160 0C160 22.0914 177.909 40 200 40V60C166.863 60 140 33.1371 140 0H160Z" fill="#FFFFFF"/>
  <path fill-rule="evenodd" clip-rule="evenodd" d="M180 0H200V20C188.954 20 180 11.0457 180 0Z" fill="#FFFFFF"/></g>
<g transform="translate(640.000,320.000) scale(-0.80000,0.80000) rotate(270,100,100)"><path d="M0.008 0L0 0L0 200L200 200C89.876 200 0.008 110.417 0.008 0Z" fill="#FFFFFF"/>
  <path fill-rule="evenodd" clip-rule="evenodd" d="M40 0C40 88.3656 111.634 160 200 160V180C100.589 180 20 99.4113 20 0H40Z" fill="#FFFFFF"/>
  <path fill-rule="evenodd" clip-rule="evenodd" d="M80 0C80 66.2742 133.726 120 200 120V140C122.68 140 60 77.3199 60 0H80Z" fill="#FFFFFF"/>
  <path fill-rule="evenodd" clip-rule="evenodd" d="M120 0C120 44.1828 155.817 80 200 80V100C144.772 100 100 55.2285 100 0H120Z" fill="#FFFFFF"/>
  <path fill-rule="evenodd" clip-rule="evenodd" d="M160 0C160 22.0914 177.909 40 200 40V60C166.863 60 140 33.1371 140 0H160Z" fill="#FFFFFF"/>
  <path fill-rule="evenodd" clip-rule="evenodd" d="M180 0H200V20C188.954 20 180 11.0457 180 0Z" fill="#FFFFFF"/></g>
<g transform="translate(800.000,320.000) scale(0.80000) rotate(180,100,100)"><path d="M100 0H0V100C0 44.772 44.772 0 100 0Z" fill="#FF4F00"/>
  <path d="M62.5 25C41.7902 25 25 41.7857 25 62.5C25 83.2143 41.7902 100 62.5 100C72.8572 100 82.2321 95.8036 89.0179 89.0179C95.8036 82.2321 100 72.8572 100 62.5C100 41.7857 83.2098 25 62.5 25Z" fill="#FF4F00"/></g>
</svg>
