<?xml version='1.0' encoding='UTF-8'?>
<svg xmlns="http://www.w3.org/2000/svg" version="1.1" width="1920" height="960" viewBox="0 0 1920 960">
<rect x="0.000" y="0.000" width="320.000" height="320.000" fill="#121212"/>
<g transform="translate(0.000,0.000) scale(1.60000) rotate(270,100,100)"><path d="M200 0L200 10L0 10L0 0L200 0Z" fill="#7150D6"/></g>
<rect x="320.000" y="0.000" width="320.000" height="320.000" fill="#FFFFFF"/>
<g transform="translate(320.000,0.000) scale(1.60000) rotate(270,100,100)"><path d="M200 0L200 100L0 100L0 0L200 0Z" fill="#121212"/></g>
<rect x="640.000" y="0.000" width="320.000" height="320.000" fill="#121212"/>
<g transform="translate(640.000,0.000) scale(1.60000) rotate(180,100,100)"><path d="M200 0L200 100L0 100L0 0L200 0Z" fill="#7150D6"/></g>
<rect x="960.000" y="0.000" width="320.000" height="320.000" fill="#FFFFFF"/>
<g transform="translate(960.000,0.000) scale(1.60000)"><path d="M200 0L200 100L0 100L0 0L200 0Z" fill="#121212"/></g>
<rect x="1280.000" y="0.000" width="320.000" height="320.000" fill="#FFFFFF"/>
<g transform="translate(1280.000,0.000) scale(1.60000) rotate(180,100,100)"><path d="M200 0L200 100L0 100L0 0L200 0Z" fill="#7150D6"/></g>
<rect x="1600.000" y="0.000" width="320.000" height="320.000" fill="#121212"/>
<g transform="translate(1600.000,0.000) scale(1.60000) rotate(90,100,100)"><path d="M200 0L200 10L0 10L0 0L200 0Z" fill="#FFFFFF"/></g>
<rect x="0.000" y="320.000" width="320.000" height="320.000" fill="#121212"/>
<g transform="translate(0.000,320.000) scale(1.60000) rotate(270,100,100)"><path d="M200 0L200 100L0 100L0 0L200 0Z" fill="#FFFFFF"/></g>
<rect x="320.000" y="320.000" width="320.000" height="320.000" fill="#FFFFFF"/>
<g transform="translate(320.000,320.000) scale(1.60000) rotate(90,100,100)"><path d="M100.1 200 C11.0989 200 -33.4731 92.3937 29.4603 29.4603 C92.3937 -33.4732 200 11.0989 200 100.1 L200 200 L100.1 200 Z" fill="#7150D6"/></g>
<rect x="640.000" y="320.000" width="320.000" height="320.000" fill="#121212"/>
<g transform="translate(640.000,320.000) scale(1.60000) rotate(270,100,100)"><path d="M100.1 200 C11.0989 200 -33.4731 92.3937 29.4603 29.4603 C92.3937 -33.4732 200 11.0989 200 100.1 L200 200 L100.1 200 Z" fill="#FFFFFF"/></g>
<rect x="960.000" y="320.000" width="320.000" height="320.000" fill="#121212"/>
<g transform="translate(960.000,320.000) scale(1.60000) rotate(270,100,100)"><path d="M100.1 200 C11.0989 200 -33.4731 92.3937 29.4603 29.4603 C92.3937 -33.4732 200 11.0989 200 100.1 L200 200 L100.1 200 Z" fill="#7150D6"/></g>
<rect x="1280.000" y="320.000" width="320.000" height="320.000" fill="#121212"/>
<g transform="translate(1280.000,320.000) scale(1.60000) rotate(180,100,100)"><path d="M100.1 200 C11.0989 200 -33.4731 92.3937 29.4603 29.4603 C92.3937 -33.4732 200 11.0989 200 100.1 L200 200 L100.1 200 Z" fill="#FFFFFF"/></g>
<rect x="1600.000" y="320.000" width="320.000" height="320.000" fill="#FFFFFF"/>
<g transform="translate(1600.000,320.000) scale(1.60000) rotate(180,100,100)"><path d="M200 0L200 100L0 100L0 0L200 0Z" fill="#121212"/></g>
<rect x="0.000" y="640.000" width="320.000" height="320.000" fill="#FFFFFF"/>
<g transform="translate(0.000,640.000) scale(1.60000) rotate(90,100,100)"><path d="M200 0L200 10L0 10L0 0L200 0Z" fill="#121212"/></g>
<rect x="320.000" y="640.000" width="320.000" height="320.000" fill="#121212"/>
<g transform="translate(320.000,640.000) scale(1.60000) rotate(90,100,100)"><path d="M200 0L200 100L0 100L0 0L200 0Z" fill="#FFFFFF"/></g>
<rect x="640.000" y="640.000" width="320.000" height="320.000" fill="#121212"/>
<g transform="translate(640.000,640.000) scale(1.60000) rotate(180,100,100)"><path d="M200 0L200 100L0 100L0 0L200 0Z" fill="#7150D6"/></g>
<rect x="960.000" y="640.000" width="320.000" height="320.000" fill="#FFFFFF"/>
<g transform="translate(960.000,640.000) scale(1.60000)"><path d="M200 0L200 100L0 100L0 0L200 0Z" fill="#121212"/></g>
<rect x="1280.000" y="640.000" width="320.000" height="320.000" fill="#121212"/>
<g transform="translate(1280.000,640.000) scale(1.60000) rotate(180,100,100)"><path d="M200 0L200 100L0 100L0 0L200 0Z" fill="#7150D6"/></g>
<rect x="1600.000" y="640.000" width="320.000" height="320.000" fill="#121212"/>
<g transform="translate(1600.000,640.000) scale(1.60000) rotate(180,100,100)"><path d="M200 0H0V200C0 89.544 89.544 0 200 0Z" fill="#FFFFFF"/>
  <path d="M100 58.3333C76.9891 58.3333 58.3334 76.984 58.3334 99.9999C58.3334 123.016 76.9891 141.667 100 141.667C111.508 141.667 121.925 137.004 129.464 129.464C137.004 121.925 141.667 111.508 141.667 99.9999C141.667 76.984 123.011 58.3333 100 58.3333Z" fill="#FFFFFF"/></g>
</svg>
