<?xml version='1.0' encoding='UTF-8'?>
<svg xmlns="http://www.w3.org/2000/svg" version="1.1" width="1920" height="960" viewBox="0 0 1920 960">
<rect x="0.000" y="0.000" width="320.000" height="320.000" fill="#121212"/>
<g transform="translate(0.000,0.000) scale(1.60000)"><path d="M200 0L200 100L0 100L0 0L200 0Z" fill="#FFFFFF"/></g>
<rect x="320.000" y="0.000" width="320.000" height="320.000" fill="#FFFFFF"/>
<g transform="translate(320.000,0.000) scale(1.60000) rotate(270,100,100)"><path d="M200 0L200 100L0 100L0 0L200 0Z" fill="#7150D6"/></g>
<rect x="640.000" y="0.000" width="320.000" height="320.000" fill="#121212"/>
<g transform="translate(640.000,0.000) scale(1.60000) rotate(180,100,100)"><path d="M99.972 100L100 199.972L0 200C-0.016 144.787 44.744 100.016 99.972 100Z" fill="#FFFFFF"/></g>
<rect x="960.000" y="0.000" width="320.000" height="320.000" fill="#FFFFFF"/>
<g transform="translate(960.000,0.000) scale(1.60000) rotate(90,100,100)"><path d="M100 0L0.028 0L0 100C55.2126 100.016 99.984 55.228 100 0Z" fill="#7150D6"/></g>
<rect x="1280.000" y="0.000" width="320.000" height="320.000" fill="#FFFFFF"/>
<g transform="translate(1280.000,0.000) scale(1.60000) rotate(180,100,100)"><path d="M99.972 100L100 199.972L0 200C-0.016 144.787 44.744 100.016 99.972 100Z" fill="#121212"/></g>
<rect x="1600.000" y="0.000" width="320.000" height="320.000" fill="#FFFFFF"/>
<g transform="translate(1600.000,0.000) scale(1.60000) rotate(90,100,100)"><path fill-rule="evenodd" clip-rule="evenodd" d="M50 98.5L200 0L0 0L0 200L50 200L50 98.5Z" fill="#7150D6"/></g>
<rect x="0.000" y="320.000" width="320.000" height="320.000" fill="#FFFFFF"/>
<g transform="translate(0.000,320.000) scale(1.60000) rotate(90,100,100)"><path fill-rule="evenodd" clip-rule="evenodd" d="M50 98.5L200 0L0 0L0 200L50 200L50 98.5Z" fill="#7150D6"/></g>
<rect x="320.000" y="320.000" width="320.000" height="320.000" fill="#FFFFFF"/>
<g transform="translate(320.000,320.000) scale(1.60000)"><path d="M200 0L200 100L0 100L0 0L200 0Z" fill="#121212"/></g>
<rect x="640.000" y="320.000" width="320.000" height="320.000" fill="#121212"/>
<g transform="translate(640.000,320.000) scale(1.60000)"><path d="M99.972 100L100 199.972L0 200C-0.016 144.787 44.744 100.016 99.972 100Z" fill="#7150D6"/></g>
<rect x="960.000" y="320.000" width="320.000" height="320.000" fill="#FFFFFF"/>
<g transform="translate(960.000,320.000) scale(1.60000) rotate(180,100,100)"><path d="M100 0L0.028 0L0 100C55.2126 100.016 99.984 55.228 100 0Z" fill="#121212"/></g>
<rect x="1280.000" y="320.000" width="320.000" height="320.000" fill="#FFFFFF"/>
<g transform="translate(1280.000,320.000) scale(1.60000) rotate(270,100,100)"><path fill-rule="evenodd" clip-rule="evenodd" d="M50 98.5L200 0L0 0L0 200L50 200L50 98.5Z" fill="#7150D6"/></g>
<rect x="1600.000" y="320.000" width="320.000" height="320.000" fill="#FFFFFF"/>
<g transform="translate(1600.000,320.000) scale(1.60000)"><path d="M100 0L0.028 0L0 100C55.2126 100.016 99.984 55.228 100 0Z" fill="#121212"/></g>
<rect x="0.000" y="640.000" width="320.000" height="320.000" fill="#121212"/>
<g transform="translate(0.000,640.000) scale(1.60000) rotate(180,100,100)"><path d="M200 0L200 100L0 100L0 0L200 0Z" fill="#FFFFFF"/></g>
<rect x="320.000" y="640.000" width="320.000" height="320.000" fill="#FFFFFF"/>
<g transform="translate(320.000,640.000) scale(1.60000) rotate(180,100,100)"><path fill-rule="evenodd" clip-rule="evenodd" d="M50 98.5L200 0L0 0L0 200L50 200L50 98.5Z" fill="#7150D6"/></g>
<rect x="640.000" y="640.000" width="320.000" height="320.000" fill="#121212"/>
<g transform="translate(640.000,640.000) scale(1.60000)"><path d="M100 0L0.028 0L0 100C55.2126 100.016 99.984 55.228 100 0Z" fill="#FFFFFF"/></g>
<rect x="960.000" y="640.000" width="320.000" height="320.000" fill="#121212"/>
<g transform="translate(960.000,640.000) scale(1.60000) rotate(90,100,100)"><path d="M100 0L0.028 0L0 100C55.2126 100.016 99.984 55.228 100 0Z" fill="#7150D6"/></g>
<rect x="1280.000" y="640.000" width="320.000" height="320.000" fill="#FFFFFF"/>
<g transform="translate(1280.000,640.000) scale(1.60000) rotate(90,100,100)"><path d="M99.972 100L100 199.972L0 200C-0.016 144.787 44.744 100.016 99.972 100Z" fill="#121212"/></g>
<rect x="1600.000" y="640.000" width="320.000" height="320.000" fill="#121212"/>
<g transform="translate(1600.000,640.000) scale(1.60000)"><path d="M100 0L0.028 0L0 100C55.2126 100.016 99.984 55.228 100 0Z" fill="#FFFFFF"/></g>
</svg>
