<?xml version="1.0" encoding="UTF-8"?>
<svg xmlns="http://www.w3.org/2000/svg" width="200" height="200" viewBox="0 0 200 200">
  <path d="M7.50001 14.636C8.0629 19.144 8.66849 25.344 9.23526 33.848C10.4503 52.068 11.118 75.564 11.118 100C11.118 124.436 10.4503 147.932 9.23526 166.152C8.66849 174.656 8.06678 180.856 7.50001 185.364C6.93712 180.856 6.33153 174.656 5.76476 166.152C4.5497 147.932 3.882 124.436 3.882 100C3.882 75.564 4.5497 52.068 5.76476 33.848C6.33153 25.344 6.93324 19.144 7.50001 14.636ZM7.50001 8.74228e-06C3.35793 8.74228e-06 8.74228e-06 44.772 8.74228e-06 100C8.74228e-06 155.228 3.35793 200 7.50001 200C11.6421 200 15 155.228 15 100C15 44.772 11.6421 8.74228e-06 7.50001 8.74228e-06Z M30.8332 4.00001C32.323 4.00001 37.6175 8.80001 42.2392 30.136C46.2722 48.752 48.4949 73.564 48.4949 100C48.4949 126.436 46.2722 151.248 42.2392 169.864C37.6175 191.196 32.323 196 30.8332 196C29.3433 196 24.0488 191.2 19.4271 169.864C15.3942 151.248 13.1714 126.436 13.1714 100C13.1714 73.564 15.3942 48.752 19.4271 30.136C24.0528 8.80001 29.3433 4.00001 30.8332 4.00001ZM30.8332 8.74228e-06C18.8705 8.74228e-06 9.16651 44.772 9.16651 100C9.16651 155.228 18.8664 200 30.8332 200C42.7999 200 52.4998 155.228 52.4998 100C52.4998 44.772 42.7999 8.74228e-06 30.8332 8.74228e-06Z M53.7502 4.00001C57.3006 4.00001 60.9108 6.16401 64.4852 10.432C68.3384 15.036 71.9885 22.02 75.0368 30.628C81.5758 49.096 85.1781 73.732 85.1781 100C85.1781 126.268 81.5758 150.904 75.0368 169.372C71.9885 177.98 68.3384 184.964 64.4852 189.568C60.9108 193.836 57.3006 196 53.7502 196C50.1997 196 46.5895 193.836 43.0152 189.568C39.1619 184.964 35.5119 177.98 32.4635 169.372C25.9245 150.904 22.3223 126.268 22.3223 100C22.3223 73.732 25.9245 49.096 32.4635 30.628C35.5119 22.02 39.1619 15.036 43.0152 10.432C46.5895 6.16401 50.1997 4.00001 53.7502 4.00001ZM53.7502 8.74228e-06C34.1889 8.74228e-06 18.3335 44.772 18.3335 100C18.3335 155.228 34.1889 200 53.7502 200C73.3114 200 89.1668 155.228 89.1668 100C89.1668 44.772 73.3074 8.74228e-06 53.7502 8.74228e-06Z M77.0833 4.00001C82.7931 4.00001 88.4106 6.32001 93.7755 10.9C99.2647 15.584 104.237 22.368 108.547 31.064C117.645 49.412 122.653 73.892 122.653 100C122.653 126.108 117.645 150.592 108.547 168.936C104.237 177.632 99.2647 184.416 93.7755 189.1C88.4106 193.676 82.7931 196 77.0833 196C71.3736 196 65.7561 193.68 60.3912 189.1C54.902 184.416 49.93 177.632 45.6196 168.936C36.5217 150.588 31.5137 126.108 31.5137 100C31.5137 73.892 36.5217 49.408 45.6196 31.064C49.93 22.368 54.902 15.584 60.3912 10.9C65.7561 6.32401 71.3736 4.00001 77.0833 4.00001ZM77.0833 8.74228e-06C49.7014 8.74228e-06 27.5 44.772 27.5 100C27.5 155.228 49.6974 200 77.0833 200C104.469 200 126.667 155.228 126.667 100C126.667 44.772 104.465 8.74228e-06 77.0833 8.74228e-06Z M99.5795 4.00001C107.377 4.00001 114.974 6.41601 122.16 11.184C129.282 15.908 135.707 22.72 141.26 31.428C146.897 40.268 151.327 50.592 154.433 62.108C157.668 74.1 159.306 86.848 159.306 99.996C159.306 113.144 157.668 125.892 154.433 137.884C151.327 149.4 146.897 159.724 141.26 168.564C135.707 177.272 129.282 184.084 122.16 188.808C114.974 193.576 107.377 195.992 99.5795 195.992C91.7817 195.992 84.1852 193.576 76.999 188.808C69.8772 184.084 63.4515 177.272 57.899 168.564C52.2619 159.724 47.8319 149.4 44.7257 137.884C41.4907 125.892 39.8531 113.144 39.8531 99.996C39.8531 86.848 41.4907 74.096 44.7257 62.108C47.8319 50.592 52.2619 40.268 57.899 31.428C63.4515 22.72 69.8772 15.908 76.999 11.184C84.1852 6.41601 91.7817 4.00001 99.5795 4.00001ZM99.5795 8.74228e-06C64.3729 8.74228e-06 35.8335 44.772 35.8335 100C35.8335 155.228 64.3729 200 99.5835 200C134.794 200 163.334 155.228 163.334 100C163.334 44.772 134.786 8.74228e-06 99.5795 8.74228e-06Z M122.496 4.00001C163.019 4.00001 195.985 47.064 195.985 100C195.985 152.936 163.019 196 122.496 196C81.9731 196 49.007 152.936 49.007 100C49.007 47.064 81.9772 4.00001 122.496 4.00001ZM122.496 8.74228e-06C79.6949 8.74228e-06 45 44.772 45 100C45 155.228 79.6989 200 122.5 200C165.301 200 200 155.228 200 100C200 44.772 165.297 8.74228e-06 122.496 8.74228e-06Z" fill="#121212"/>
</svg>
