<?xml version='1.0' encoding='UTF-8'?>
<svg xmlns="http://www.w3.org/2000/svg" version="1.1" width="1920" height="960" viewBox="0 0 1920 960">
<rect width="1920" height="960" fill="#121212"/>
<g transform="translate(640.000,0.000) scale(1.60000)"><path d="M200 0 C144.149 43.2927 80.768 75.8745 13.0589 96.0993 L0 100 L0 0 L200 0 Z" fill="#FFFFFF"/></g>
<g transform="translate(1280.000,0.000) scale(-1.60000,1.60000) rotate(90,100,100)"><path d="M200 0 C144.149 43.2927 80.768 75.8745 13.0589 96.0993 L0 100 L0 0 L200 0 Z" fill="#FFFFFF"/></g>
<g transform="translate(0.000,320.000) scale(1.60000)"><path d="M50 0L50 50L0 50L0 0L50 0Z" fill="#FF4F00"/></g>
<g transform="translate(320.000,320.000) scale(1.60000)"><path d="M50 0L50 50L0 50L0 0L50 0Z" fill="#FF4F00"/></g>
<g transform="translate(640.000,320.000) scale(1.60000) rotate(90,100,100)"><path d="M200 0 C144.149 43.2927 80.768 75.8745 13.0589 96.0993 L0 100 L0 0 L200 0 Z" fill="#FFFFFF"/></g>
<g transform="translate(1280.000,320.000) scale(-1.60000,1.60000) rotate(180,100,100)"><path d="M200 0 C144.149 43.2927 80.768 75.8745 13.0589 96.0993 L0 100 L0 0 L200 0 Z" fill="#FFFFFF"/></g>
<g transform="translate(1280.000,320.000) scale(1.60000)"><path d="M50 0L50 50L0 50L0 0L50 0Z" fill="#FF4F00"/></g>
<g transform="translate(1920.000,320.000) scale(-1.60000,1.60000)"><path d="M50 0L50 50L0 50L0 0L50 0Z" fill="#FF4F00"/></g>
<g transform="translate(0.000,640.000) scale(1.60000)"><path d="M200 0 C200 5.5229 195.523 10 190 10 L0 10 L0 0 L200 0 Z" fill="#FF4F00"/></g>
<g transform="translate(640.000,640.000) scale(1.60000) rotate(180,100,100)"><path d="M200 0 C144.149 43.2927 80.768 75.8745 13.0589 96.0993 L0 100 L0 0 L200 0 Z" fill="#FFFFFF"/></g>
<g transform="translate(1280.000,640.000) scale(-1.60000,1.60000) rotate(270,100,100)"><path d="M200 0 C144.149 43.2927 80.768 75.8745 13.0589 96.0993 L0 100 L0 0 L200 0 Z" fill="#FFFFFF"/></g>
<g transform="translate(1600.000,640.000) scale(1.60000) rotate(90,100,100)"><path d="M175 200C133.579 200 25 200 25 200C25 158.579 58.5787 125 100 125C141.421 125 175 158.579 175 200Z" fill="#FF4F00"/></g>
</svg>
