<?xml version='1.0' encoding='UTF-8'?>
<svg xmlns="http://www.w3.org/2000/svg" version="1.1" width="1920" height="960" viewBox="0 0 1920 960">
<rect width="1920" height="960" fill="#121212"/>
<g transform="translate(640.000,0.000) scale(1.60000)"><path d="M0.008 0L0 0L0 200L200 200C89.876 200 0.008 110.417 0.008 0Z" fill="#FFFFFF"/>
  <path fill-rule="evenodd" clip-rule="evenodd" d="M179.933 199C85.7297 189.563 10.4137 114.42 1 20.0043C0.344 13.4246 0.008 6.7512 0.008 0L0 0L0 200L200 200C193.229 200 186.535 199.661 179.933 199ZM171.614 199C83.5333 186.485 13.5081 116.612 1 28.3523L1 199L171.614 199Z" fill="#FFFFFF"/>
  <path fill-rule="evenodd" clip-rule="evenodd" d="M35 0C35 91.127 108.873 165 200 165V175C103.35 175 25 96.6498 25 0H35Z" fill="#FFFFFF"/>
  <path fill-rule="evenodd" clip-rule="evenodd" d="M75 0C75 69.0356 130.964 125 200 125V135C125.442 135 65 74.5584 65 0H75Z" fill="#FFFFFF"/>
  <path fill-rule="evenodd" clip-rule="evenodd" d="M115 0C115 46.9442 153.056 85 200 85V95C147.533 95 105 52.4671 105 0H115Z" fill="#FFFFFF"/>
  <path fill-rule="evenodd" clip-rule="evenodd" d="M155 0C155 24.8528 175.147 45 200 45V55C169.624 55 145 30.3757 145 0H155Z" fill="#FFFFFF"/>
  <path fill-rule="evenodd" clip-rule="evenodd" d="M195 0C195 2.7614 197.239 5 200 5V15C191.716 15 185 8.2843 185 0H195Z" fill="#FFFFFF"/></g>
<g transform="translate(1280.000,0.000) scale(-1.60000,1.60000) rotate(90,100,100)"><path d="M0.008 0L0 0L0 200L200 200C89.876 200 0.008 110.417 0.008 0Z" fill="#FFFFFF"/>
  <path fill-rule="evenodd" clip-rule="evenodd" d="M179.933 199C85.7297 189.563 10.4137 114.42 1 20.0043C0.344 13.4246 0.008 6.7512 0.008 0L0 0L0 200L200 200C193.229 200 186.535 199.661 179.933 199ZM171.614 199C83.5333 186.485 13.5081 116.612 1 28.3523L1 199L171.614 199Z" fill="#FFFFFF"/>
  <path fill-rule="evenodd" clip-rule="evenodd" d="M35 0C35 91.127 108.873 165 200 165V175C103.35 175 25 96.6498 25 0H35Z" fill="#FFFFFF"/>
  <path fill-rule="evenodd" clip-rule="evenodd" d="M75 0C75 69.0356 130.964 125 200 125V135C125.442 135 65 74.5584 65 0H75Z" fill="#FFFFFF"/>
  <path fill-rule="evenodd" clip-rule="evenodd" d="M115 0C115 46.9442 153.056 85 200 85V95C147.533 95 105 52.4671 105 0H115Z" fill="#FFFFFF"/>
  <path fill-rule="evenodd" clip-rule="evenodd" d="M155 0C155 24.8528 175.147 45 200 45V55C169.624 55 145 30.3757 145 0H155Z" fill="#FFFFFF"/>
  <path fill-rule="evenodd" clip-rule="evenodd" d="M195 0C195 2.7614 197.239 5 200 5V15C191.716 15 185 8.2843 185 0H195Z" fill="#FFFFFF"/></g>
<g transform="translate(1280.000,0.000) scale(1.60000) rotate(270,100,100)"><path fill-rule="evenodd" clip-rule="evenodd" d="M100 135.417L100 149.167L190.047 149.167L190 199.953L200 200L200 0L190 0C190 107.037 159.583 135.417 100 135.417Z" fill="#FF4F00"/></g>
<g transform="translate(640.000,320.000) scale(1.60000) rotate(90,100,100)"><path d="M0.008 0L0 0L0 200L200 200C89.876 200 0.008 110.417 0.008 0Z" fill="#FFFFFF"/>
  <path fill-rule="evenodd" clip-rule="evenodd" d="M179.933 199C85.7297 189.563 10.4137 114.42 1 20.0043C0.344 13.4246 0.008 6.7512 0.008 0L0 0L0 200L200 200C193.229 200 186.535 199.661 179.933 199ZM171.614 199C83.5333 186.485 13.5081 116.612 1 28.3523L1 199L171.614 199Z" fill="#FFFFFF"/>
  <path fill-rule="evenodd" clip-rule="evenodd" d="M35 0C35 91.127 108.873 165 200 165V175C103.35 175 25 96.6498 25 0H35Z" fill="#FFFFFF"/>
  <path fill-rule="evenodd" clip-rule="evenodd" d="M75 0C75 69.0356 130.964 125 200 125V135C125.442 135 65 74.5584 65 0H75Z" fill="#FFFFFF"/>
  <path fill-rule="evenodd" clip-rule="evenodd" d="M115 0C115 46.9442 153.056 85 200 85V95C147.533 95 105 52.4671 105 0H115Z" fill="#FFFFFF"/>
  <path fill-rule="evenodd" clip-rule="evenodd" d="M155 0C155 24.8528 175.147 45 200 45V55C169.624 55 145 30.3757 145 0H155Z" fill="#FFFFFF"/>
  <path fill-rule="evenodd" clip-rule="evenodd" d="M195 0C195 2.7614 197.239 5 200 5V15C191.716 15 185 8.2843 185 0H195Z" fill="#FFFFFF"/></g>
<g transform="translate(1280.000,320.000) scale(-1.60000,1.60000) rotate(180,100,100)"><path d="M0.008 0L0 0L0 200L200 200C89.876 200 0.008 110.417 0.008 0Z" fill="#FFFFFF"/>
  <path fill-rule="evenodd" clip-rule="evenodd" d="M179.933 199C85.7297 189.563 10.4137 114.42 1 20.0043C0.344 13.4246 0.008 6.7512 0.008 0L0 0L0 200L200 200C193.229 200 186.535 199.661 179.933 199ZM171.614 199C83.5333 186.485 13.5081 116.612 1 28.3523L1 199L171.614 199Z" fill="#FFFFFF"/>
  <path fill-rule="evenodd" clip-rule="evenodd" d="M35 0C35 91.127 108.873 165 200 165V175C103.35 175 25 96.6498 25 0H35Z" fill="#FFFFFF"/>
  <path fill-rule="evenodd" clip-rule="evenodd" d="M75 0C75 69.0356 130.964 125 200 125V135C125.442 135 65 74.5584 65 0H75Z" fill="#FFFFFF"/>
  <path fill-rule="evenodd" clip-rule="evenodd" d="M115 0C115 46.9442 153.056 85 200 85V95C147.533 95 105 52.4671 105 0H115Z" fill="#FFFFFF"/>
  <path fill-rule="evenodd" clip-rule="evenodd" d="M155 0C155 24.8528 175.147 45 200 45V55C169.624 55 145 30.3757 145 0H155Z" fill="#FFFFFF"/>
  <path fill-rule="evenodd" clip-rule="evenodd" d="M195 0C195 2.7614 197.239 5 200 5V15C191.716 15 185 8.2843 185 0H195Z" fill="#FFFFFF"/></g>
<g transform="translate(0.000,640.000) scale(1.60000)"><path fill-rule="evenodd" clip-rule="evenodd" d="M25 200L25 0L35 0L35 200L25 200Z" fill="#FF4F00"/>
  <path fill-rule="evenodd" clip-rule="evenodd" d="M65 200L65 0L75 0L75 200L65 200Z" fill="#FF4F00"/>
  <path fill-rule="evenodd" clip-rule="evenodd" d="M105 200L105 0L115 0L115 200L105 200Z" fill="#FF4F00"/>
  <path fill-rule="evenodd" clip-rule="evenodd" d="M145 200L145 0L155 0L155 200L145 200Z" fill="#FF4F00"/>
  <path fill-rule="evenodd" clip-rule="evenodd" d="M185 200L185 0L195 0L195 200L185 200Z" fill="#FF4F00"/></g>
<g transform="translate(640.000,640.000) scale(-1.60000,1.60000)"><path fill-rule="evenodd" clip-rule="evenodd" d="M25 200L25 0L35 0L35 200L25 200Z" fill="#FF4F00"/>
  <path fill-rule="evenodd" clip-rule="evenodd" d="M65 200L65 0L75 0L75 200L65 200Z" fill="#FF4F00"/>
  <path fill-rule="evenodd" clip-rule="evenodd" d="M105 200L105 0L115 0L115 200L105 200Z" fill="#FF4F00"/>
  <path fill-rule="evenodd" clip-rule="evenodd" d="M145 200L145 0L155 0L155 200L145 200Z" fill="#FF4F00"/>
  <path fill-rule="evenodd" clip-rule="evenodd" d="M185 200L185 0L195 0L195 200L185 200Z" fill="#FF4F00"/></g>
<g transform="translate(1280.000,640.000) scale(1.60000)"><path fill-rule="evenodd" clip-rule="evenodd" d="M25 200L25 0L35 0L35 200L25 200Z" fill="#FF4F00"/>
  <path fill-rule="evenodd" clip-rule="evenodd" d="M65 200L65 0L75 0L75 200L65 200Z" fill="#FF4F00"/>
  <path fill-rule="evenodd" clip-rule="evenodd" d="M105 200L105 0L115 0L115 200L105 200Z" fill="#FF4F00"/>
  <path fill-rule="evenodd" clip-rule="evenodd" d="M145 200L145 0L155 0L155 200L145 200Z" fill="#FF4F00"/>
  <path fill-rule="evenodd" clip-rule="evenodd" d="M185 200L185 0L195 0L195 200L185 200Z" fill="#FF4F00"/></g>
<g transform="translate(1920.000,640.000) scale(-1.60000,1.60000)"><path fill-rule="evenodd" clip-rule="evenodd" d="M25 200L25 0L35 0L35 200L25 200Z" fill="#FF4F00"/>
  <path fill-rule="evenodd" clip-rule="evenodd" d="M65 200L65 0L75 0L75 200L65 200Z" fill="#FF4F00"/>
  <path fill-rule="evenodd" clip-rule="evenodd" d="M105 200L105 0L115 0L115 200L105 200Z" fill="#FF4F00"/>
  <path fill-rule="evenodd" clip-rule="evenodd" d="M145 200L145 0L155 0L155 200L145 200Z" fill="#FF4F00"/>
  <path fill-rule="evenodd" clip-rule="evenodd" d="M185 200L185 0L195 0L195 200L185 200Z" fill="#FF4F00"/></g>
</svg>
