<?xml version="1.0" encoding="UTF-8"?>
<svg xmlns="http://www.w3.org/2000/svg" width="200" height="200" viewBox="0 0 200 200">
  <path d="M200,0 L191.666667,0 L183.333333,0 L175,0 L166.666667,0 L158.333333,0 L150,0 L141.666667,0 L133.333333,0 L125,0 L116.666667,0 L108.333333,0 L100,0 L91.666667,0 L83.333333,0 L75,0 L66.666667,0 L58.333333,0 L50,0 L41.666667,0 L33.333333,0 L25,0 L16.666667,0 L8.333333,0 L0,0 L0,8.333333 L0,16.666667 L0,25 L0,33.333333 L0,41.666667 L0,50 L0,58.333333 L0,66.666667 L0,75 L0,83.333333 L0,91.666667 L0,100 L0,108.333333 L0,116.666667 L0,125 L0,133.333333 L0,141.666667 L0,150 L0,158.333333 L0,166.666667 L0,175 L0,183.333333 L0,191.666667 L0,200 L0.001169,195.833333 L0.002339,191.666667 L0.003508,187.5 L0.004678,183.333333 L0.005847,179.166667 L0.007016,175 L0.008186,170.833333 L0.009355,166.666667 L0.010524,162.5 L0.011694,158.333333 L0.012863,154.166667 L0.014033,150 L0.015202,145.833333 L0.016371,141.666667 L0.017541,137.5 L0.01871,133.333333 L0.01988,129.166667 L0.021049,125 L0.022218,120.833333 L0.023388,116.666667 L0.024557,112.5 L0.025727,108.333333 L0.026896,104.166667 L0.028065,100 L6.872769,99.771273 L13.593818,99.091021 L20.176318,97.974133 L26.605376,96.4355 L32.866099,94.490013 L38.943593,92.152563 L44.822966,89.438039 L50.489323,86.361334 L55.927772,82.937336 L61.123419,79.180938 L66.06137,75.107029 L70.726733,70.730501 L75.104614,66.066244 L79.18012,61.129148 L82.938357,55.934104 L86.364432,50.496003 L89.443452,44.829735 L92.160523,38.950191 L94.500752,32.872262 L96.449246,26.610838 L97.991111,20.180811 L99.111454,13.597069 L99.795381,6.874505 L100.028,0.028009 L104.1935,0.026842 L108.359,0.025675 L112.5245,0.024509 L116.69,0.023342 L120.8555,0.022175 L125.021,0.021009 L129.1865,0.019842 L133.352,0.018675 L137.5175,0.017509 L141.683,0.016342 L145.8485,0.015175 L150.014,0.014009 L154.1795,0.012842 L158.345,0.011675 L162.5105,0.010509 L166.676,0.009342 L170.8415,0.008175 L175.007,0.007009 L179.1725,0.005842 L183.338,0.004675 L187.5035,0.003509 L191.669,0.002342 L195.8345,0.001175 L200,0 Z" fill="#121212"/>
</svg>
