<?xml version='1.0' encoding='UTF-8'?>
<svg xmlns="http://www.w3.org/2000/svg" width="500" height="500" viewBox="0 0 500 500">
<rect width="500" height="500" fill="#121212"/>
<mask id="mask0_82_4780" style="mask-type:alpha" maskUnits="userSpaceOnUse" x="0" y="0" width="500" height="500">
<rect width="500" height="500" fill="#121212"/>
</mask>
<g mask="url(#mask0_82_4780)">
<g clip-path="url(#clip0_82_4780)">
<path d="M99.5289 479.976C189.625 479.976 262.662 426.187 262.662 359.835C262.662 293.483 189.625 239.694 99.5289 239.694C9.43293 239.694 -63.6042 293.483 -63.6042 359.835C-63.6042 426.187 9.43293 479.976 99.5289 479.976Z" fill="#FFA300"/>
<path d="M99.3955 380.956C127.944 380.956 151.088 371.345 151.088 359.49C151.088 347.634 127.944 338.024 99.3955 338.024C70.8466 338.024 47.7031 347.634 47.7031 359.49C47.7031 371.345 70.8466 380.956 99.3955 380.956Z" fill="#121212"/>
<path d="M400.927 380.977C429.476 380.977 452.619 371.366 452.619 359.511C452.619 347.655 429.476 338.045 400.927 338.045C372.378 338.045 349.234 347.655 349.234 359.511C349.234 371.366 372.378 380.977 400.927 380.977Z" fill="#FF4F00"/>
<path d="M99.5289 260.895C189.625 260.895 262.662 207.106 262.662 140.754C262.662 74.4016 189.625 20.6125 99.5289 20.6125C9.43293 20.6125 -63.6042 74.4016 -63.6042 140.754C-63.6042 207.106 9.43293 260.895 99.5289 260.895Z" fill="#FF4F00"/>
<path d="M386.926 260.895C477.022 260.895 550.059 207.106 550.059 140.754C550.059 74.4016 477.022 20.6125 386.926 20.6125C296.83 20.6125 223.793 74.4016 223.793 140.754C223.793 207.106 296.83 260.895 386.926 260.895Z" fill="#4997D0"/>
<path d="M374.696 195.579H375.545C325.854 195.579 285.576 171.119 285.576 140.942C285.576 110.766 325.854 86.3055 375.545 86.3055H374.696C424.387 86.3055 464.664 61.8449 464.664 31.6686C464.664 1.4924 424.373 -22.9682 374.696 -22.9682H125.893C76.2017 -22.9682 35.9246 1.4924 35.9246 31.6686C35.9246 61.8449 76.2017 86.3055 125.893 86.3055H126.742C176.434 86.3055 216.711 110.766 216.711 140.942C216.711 171.119 176.434 195.579 126.742 195.579H125.893C76.2017 195.579 35.9246 220.04 35.9246 250.216C35.9246 280.392 76.2017 304.853 125.893 304.853H126.742C176.434 304.853 216.711 329.313 216.711 359.49C216.711 387.348 171.136 410.326 126.742 413.694C77.051 413.694 35.9246 438.155 35.9246 468.331C35.9246 498.508 76.2017 522.968 125.893 522.968H374.696C424.387 522.968 464.664 498.508 464.664 468.331C464.664 438.155 424.373 413.694 374.681 413.694C330.302 410.34 285.562 387.362 285.562 359.49C285.562 329.313 325.839 304.853 375.531 304.853H374.681C424.373 304.853 464.65 280.392 464.65 250.216C464.65 220.04 424.373 195.579 374.681 195.579H374.696Z" fill="#F3F3F3"/>
<path d="M99.3955 162.408C127.944 162.408 151.088 152.798 151.088 140.942C151.088 129.087 127.944 119.476 99.3955 119.476C70.8466 119.476 47.7031 129.087 47.7031 140.942C47.7031 152.798 70.8466 162.408 99.3955 162.408Z" fill="#121212"/>
<path d="M250.295 286.808C299.083 286.808 338.634 270.329 338.634 250C338.634 229.672 299.083 213.192 250.295 213.192C201.506 213.192 161.955 229.672 161.955 250C161.955 270.329 201.506 286.808 250.295 286.808Z" fill="#121212"/>
<path d="M250.295 57.126C299.083 57.126 338.634 40.6465 338.634 20.318C338.634 -0.0104885 299.083 -16.49 250.295 -16.49C201.506 -16.49 161.955 -0.0104885 161.955 20.318C161.955 40.6465 201.506 57.126 250.295 57.126Z" fill="#121212"/>
<path d="M250.295 516.49C299.083 516.49 338.634 500.011 338.634 479.682C338.634 459.353 299.083 442.874 250.295 442.874C201.506 442.874 161.955 459.353 161.955 479.682C161.955 500.011 201.506 516.49 250.295 516.49Z" fill="#121212"/>
<path d="M401.194 162.408C429.742 162.408 452.886 152.798 452.886 140.942C452.886 129.087 429.742 119.476 401.194 119.476C372.645 119.476 349.501 129.087 349.501 140.942C349.501 152.798 372.645 162.408 401.194 162.408Z" fill="#121212"/>
</g>
</g>
<defs>
<clipPath id="clip0_82_4780">
<rect width="428.74" height="545.936" fill="#FFFFFF" transform="translate(35.9246 -22.9682)"/>
</clipPath>
</defs>
</svg>
