<?xml version='1.0' encoding='UTF-8'?>
<svg xmlns="http://www.w3.org/2000/svg" width="500" height="500" viewBox="0 0 500 500">
<g clip-path="url(#clip0_82_4837)">
<rect width="500" height="500" transform="translate(500 500) rotate(180)" fill="#F3F3F3"/>
<rect x="250" y="500" width="500" height="250" transform="rotate(-90 250 500)" fill="#FF4F00"/>
<ellipse cx="185.68" cy="298.025" rx="35.1942" ry="35.1942" fill="#4997D0"/>
<path d="M194.972 303.96C187.2 317.423 168.711 321.3 168.711 321.3C168.711 321.3 162.824 303.349 170.596 289.887C178.369 276.425 196.858 272.548 196.858 272.548C196.858 272.548 202.745 290.498 194.972 303.96Z" fill="#F3F3F3"/>
<path d="M194.059 298.025C194.059 304.504 188.807 309.756 182.328 309.756C175.849 309.756 170.596 304.504 170.596 298.025C170.596 291.546 175.849 286.293 182.328 286.293C188.807 286.293 194.059 291.546 194.059 298.025Z" fill="#121212"/>
<ellipse cx="35.1942" cy="35.1942" rx="35.1942" ry="35.1942" transform="matrix(1 -8.74228e-08 -8.74228e-08 -1 150.485 237.17)" fill="#4997D0"/>
<path d="M194.972 196.04C187.2 182.577 168.711 178.7 168.711 178.7C168.711 178.7 162.824 196.651 170.596 210.113C178.369 223.575 196.858 227.452 196.858 227.452C196.858 227.452 202.745 209.502 194.972 196.04Z" fill="#F3F3F3"/>
<path d="M194.059 201.975C194.059 195.496 188.807 190.244 182.328 190.244C175.849 190.244 170.596 195.496 170.596 201.975C170.596 208.455 175.849 213.707 182.328 213.707C188.807 213.707 194.059 208.455 194.059 201.975Z" fill="#121212"/>
<path d="M201.724 715.932C191.553 687.326 158.874 673.786 131.45 686.827C87.9041 707.527 42.4803 662.096 63.1735 618.55C76.207 591.126 62.6741 558.447 34.0679 548.276C-11.356 532.12 -11.356 467.881 34.0679 451.724C62.6741 441.553 76.214 408.875 63.1735 381.45C42.4732 337.904 87.9041 292.48 131.45 313.174C158.874 326.207 191.553 312.674 201.724 284.068C217.88 238.644 282.12 238.644 298.276 284.068C308.447 312.674 341.126 326.214 368.55 313.174C412.096 292.473 457.52 337.904 436.826 381.45C423.793 408.875 437.326 441.553 465.932 451.724C511.356 467.88 511.356 532.12 465.932 548.276C437.326 558.447 423.786 591.126 436.827 618.55C457.527 662.096 412.096 707.52 368.55 686.827C341.126 673.793 308.447 687.326 298.276 715.932C282.12 761.356 217.88 761.356 201.724 715.932Z" fill="#121212"/>
<path d="M201.724 215.932C191.553 187.326 158.874 173.786 131.45 186.827C87.9041 207.527 42.4803 162.096 63.1735 118.55C76.207 91.1256 62.6741 58.4469 34.0679 48.2761C-11.356 32.1196 -11.356 -32.1195 34.0679 -48.276C62.6741 -58.4468 76.214 -91.1255 63.1735 -118.55C42.4732 -162.096 87.9041 -207.52 131.45 -186.826C158.874 -173.793 191.553 -187.326 201.724 -215.932C217.88 -261.356 282.12 -261.356 298.276 -215.932C308.447 -187.326 341.126 -173.786 368.55 -186.826C412.096 -207.527 457.52 -162.096 436.826 -118.55C423.793 -91.1255 437.326 -58.4468 465.932 -48.276C511.356 -32.1195 511.356 32.1196 465.932 48.2761C437.326 58.4468 423.786 91.1256 436.827 118.55C457.527 162.096 412.096 207.52 368.55 186.827C341.126 173.793 308.447 187.326 298.276 215.932C282.12 261.356 217.88 261.356 201.724 215.932Z" fill="#121212"/>
<ellipse cx="399.272" cy="146.845" rx="25.4854" ry="25.4854" transform="rotate(-90 399.272 146.845)" fill="#F3F3F3"/>
<ellipse cx="399.272" cy="353.155" rx="25.4854" ry="25.4854" transform="rotate(-90 399.272 353.155)" fill="#FFA300"/>
</g>
<defs>
<clipPath id="clip0_82_4837">
<rect width="500" height="500" fill="#FFFFFF" transform="translate(500 500) rotate(180)"/>
</clipPath>
</defs>
</svg>
