<?xml version='1.0' encoding='UTF-8'?>
<svg xmlns="http://www.w3.org/2000/svg" width="500" height="500" viewBox="0 0 500 500">
<rect width="500" height="500" transform="translate(2.18557e-05 500) rotate(-90)" fill="#D9D9D6"/>
<path d="M439.456 334.738C439.456 398.956 425.21 451.038 407.636 451.038C400.946 451.038 394.771 443.512 389.663 430.672C388.341 427.354 383.728 427.486 382.609 430.885C378.432 443.601 373.42 451.045 367.986 451.045C360.634 451.045 353.994 437.419 349.257 415.489C348.502 411.98 343.46 412.112 342.857 415.651C339.167 437.485 334.009 451.045 328.335 451.045C317.14 451.045 308.081 398.971 308.081 334.746C308.081 270.521 317.14 218.446 328.335 218.446C334.016 218.446 339.174 232.006 342.857 253.841C343.453 257.379 348.494 257.511 349.257 254.002C353.986 232.073 360.626 218.446 367.986 218.446C373.42 218.446 378.44 225.891 382.609 238.607C383.721 242.006 388.341 242.138 389.663 238.82C394.771 225.972 400.946 218.454 407.636 218.454C425.21 218.454 439.456 270.528 439.456 334.753V334.738Z" fill="#121212"/>
<path d="M299.465 334.746C299.465 398.963 293.203 451.045 285.491 451.045C277.779 451.045 271.467 398.971 271.467 334.746C271.467 270.521 277.73 218.446 285.491 218.446C293.252 218.446 299.465 270.521 299.465 334.746Z" fill="#121212"/>
<path d="M258.546 334.746C258.546 398.963 254.277 451.045 249.006 451.045C248.958 451.045 248.902 451.045 248.854 451.001C248.806 451.045 248.75 451.045 248.702 451.045C243.432 451.045 239.163 398.971 239.163 334.746C239.163 270.521 243.432 218.446 248.702 218.446C248.75 218.446 248.806 218.446 248.854 218.491C248.902 218.446 248.958 218.446 249.006 218.446C254.277 218.446 258.546 270.521 258.546 334.746Z" fill="#121212"/>
<path d="M189.628 334.746C189.628 398.963 180.568 451.045 169.373 451.045C163.692 451.045 158.535 437.485 154.851 415.651C154.256 412.112 149.214 411.98 148.451 415.489C143.722 437.419 137.082 451.045 129.723 451.045C124.289 451.045 119.24 443.601 115.077 430.885C113.966 427.493 109.36 427.361 108.045 430.672C102.938 443.52 96.7627 451.045 90.0719 451.045C72.4986 451.045 58.2525 398.971 58.2525 334.746C58.2525 270.521 72.4986 218.446 90.0719 218.446C96.7627 218.446 102.938 225.972 108.045 238.82C109.36 242.131 113.966 241.999 115.077 238.607C119.24 225.891 124.282 218.446 129.723 218.446C137.075 218.446 143.715 232.073 148.451 254.002C149.207 257.511 154.248 257.379 154.851 253.841C158.542 232.006 163.7 218.446 169.373 218.446C180.568 218.446 189.628 270.521 189.628 334.746Z" fill="#121212"/>
<path d="M228.393 334.746C228.393 398.963 222.12 451.045 214.394 451.045C206.669 451.045 200.395 398.971 200.395 334.746C200.395 270.521 206.669 218.446 214.394 218.446C222.12 218.446 228.393 270.521 228.393 334.746Z" fill="#121212"/>
<path d="M247.573 135.922C228.806 135.922 213.592 151.136 213.592 169.903C213.592 188.67 228.806 203.884 247.573 203.884C266.34 203.884 281.553 188.67 281.553 169.903C281.553 151.136 266.34 135.922 247.573 135.922Z" fill="#F3F3F3"/>
<path d="M247.573 14.5631C218.082 14.5631 194.175 38.4703 194.175 67.9612C194.175 97.4521 218.082 121.359 247.573 121.359C277.064 121.359 300.971 97.4521 300.971 67.9612C300.971 38.4703 277.064 14.5631 247.573 14.5631Z" fill="#FF4F00"/>
</svg>
