<?xml version='1.0' encoding='UTF-8'?>
<svg xmlns="http://www.w3.org/2000/svg" width="500" height="500" viewBox="0 0 500 500">
<g clip-path="url(#clip0_82_4862)">
<rect width="500" height="500" transform="translate(2.18557e-05 500) rotate(-90)" fill="#121212"/>
<rect x="115" y="318" width="418" height="243" fill="#FFA300"/>
<path d="M356.932 365.985C356.932 425.747 309.057 474.194 250 474.194C190.943 474.194 143.068 425.747 143.068 365.985C143.068 306.223 190.943 257.776 250 257.776C309.057 257.776 356.932 306.223 356.932 365.985Z" fill="#4997D0"/>
<path fill-rule="evenodd" clip-rule="evenodd" d="M250 257.448C191.365 257.448 143.145 305.66 143.145 365.985V502.552H75.1446V365.985C75.1446 268.868 153.051 189.448 250 189.448C346.949 189.448 423 270.883 423 368H356.856C356.856 307.675 308.635 257.448 250 257.448Z" fill="#F3F3F3"/>
<path fill-rule="evenodd" clip-rule="evenodd" d="M250 218.642C170.331 218.642 104.797 284.452 104.797 366.815V541.358H36.7965V366.815C36.7965 247.955 131.726 150.642 250 150.642C368.274 150.642 454 249.14 454 368H395.204C395.204 285.637 329.669 218.642 250 218.642Z" fill="#FF4F00"/>
<path fill-rule="evenodd" clip-rule="evenodd" d="M250 182.821C150.869 182.821 69.3982 264.923 69.3982 367.581V577.179H1.39825V367.581C1.39825 228.604 112.089 114.821 250 114.821C387.911 114.821 498.602 229.022 498.602 368H430.602C430.602 265.341 349.131 182.821 250 182.821Z" fill="#FFA300"/>
<path fill-rule="evenodd" clip-rule="evenodd" d="M250 147C131.381 147 34 245.419 34 368.348V613H-34V368.348C-34 209.227 92.4764 79 250 79C407.524 79 534 208.88 534 368H466C466 245.071 368.619 147 250 147Z" fill="#F3F3F3"/>
<path d="M352.507 365.948C352.507 365.948 306.613 427.925 250 427.925C193.387 427.925 147.493 365.948 147.493 365.948C147.493 365.948 193.387 304.045 250 304.045C306.613 304.045 352.507 365.948 352.507 365.948Z" fill="#F3F3F3"/>
<path d="M303.835 365.985C303.835 396.072 279.733 420.463 250.001 420.463C220.268 420.463 196.166 396.072 196.166 365.985C196.166 335.898 220.268 311.508 250.001 311.508C279.733 311.508 303.835 335.898 303.835 365.985Z" fill="#121212"/>
<path d="M283.186 351.06C283.186 361.363 274.932 369.716 264.749 369.716C254.567 369.716 246.313 361.363 246.313 351.06C246.313 340.756 254.567 332.403 264.749 332.403C274.932 332.403 283.186 340.756 283.186 351.06Z" fill="#F3F3F3"/>
</g>
<defs>
<clipPath id="clip0_82_4862">
<rect width="500" height="500" fill="#FFFFFF" transform="translate(2.18557e-05 500) rotate(-90)"/>
</clipPath>
</defs>
</svg>
