<?xml version='1.0' encoding='UTF-8'?>
<svg xmlns="http://www.w3.org/2000/svg" width="500" height="500" viewBox="0 0 500 500">
<rect width="500" height="500" fill="#F3F3F3"/>
<g clip-path="url(#clip0_88_6004)">
<path d="M500 250C500 319.035 472.02 381.535 426.775 426.775C381.535 472.02 319.035 500 250 500L500 500L500 250Z" fill="#121212"/>
<path d="M418 375C418 351.8 399.195 333 376 333C352.805 333 334 351.8 334 375C334 398.2 352.805 417 376 417C387.6 417 398.1 412.3 405.7 404.7C413.3 397.1 418 386.6 418 375Z" fill="#121212"/>
<path d="M375.035 250.035L250.035 250L250 375C319.035 375.02 375.015 319.07 375.035 250.035Z" fill="#121212"/>
</g>
<g clip-path="url(#clip1_88_6004)">
<path d="M250 0H0V250C0 111.93 111.93 0 250 0Z" fill="#121212"/>
<path d="M176.775 176.775C131.535 222.02 69.035 250 0 250H250V0C250 69.035 222.02 131.535 176.775 176.775Z" fill="#121212"/>
<path d="M125 83C101.805 83 83 101.8 83 125C83 148.2 101.805 167 125 167C136.6 167 147.1 162.3 154.7 154.7C162.3 147.1 167 136.6 167 125C167 101.8 148.195 83 125 83Z" fill="#121212"/>
</g>
<g clip-path="url(#clip2_88_6004)">
<path d="M475 0H455V250H475V0Z" fill="#121212"/>
<path d="M410 0H430V250H410V156.635C410 153.96 406.76 152.615 404.88 154.52C402.87 156.555 400.655 158.385 398.265 159.975C390.055 165.445 385 174.55 385 184.415V250.005H365V184.415C365 174.55 359.945 165.45 351.735 159.975C349.345 158.385 347.13 156.555 345.12 154.52C343.24 152.615 340 153.96 340 156.635V250H320V0H340V93.365C340 96.04 343.24 97.385 345.12 95.48C347.13 93.445 349.345 91.615 351.735 90.025C359.945 84.555 365 75.45 365 65.585V0H385V65.59C385 75.38 389.915 84.52 398.09 89.91C400.475 91.48 402.69 93.29 404.7 95.3C404.75 95.35 404.8 95.4 404.85 95.45C406.745 97.365 410 96.055 410 93.36V0Z" fill="#121212"/>
<path d="M295 0H275V250H295V0Z" fill="#121212"/>
</g>
<path d="M25 500H45L45 250H25L25 500Z" fill="#121212"/>
<path d="M187.5 375C187.5 384.655 185.31 393.795 181.4 401.955C180.455 403.925 180 406.1 180 408.285V500H160V435.705C160 431.88 155.99 429.425 152.56 431.11C152.48 431.15 152.4 431.19 152.32 431.23C141.645 436.43 135.005 447.405 135.005 459.275V500H115.005V459.275C115.005 447.405 108.36 436.43 97.69 431.23C97.61 431.19 97.53 431.15 97.45 431.11C94.02 429.42 90.01 431.88 90.01 435.705V500H70.01V408.285C70.01 406.1 69.555 403.925 68.61 401.955C64.7 393.795 62.51 384.655 62.51 375C62.51 365.345 64.7 356.205 68.61 348.045C69.555 346.075 70.01 343.9 70.01 341.715V250H90.01V314.295C90.01 318.12 94.02 320.575 97.45 318.89C97.53 318.85 97.61 318.81 97.69 318.77C108.365 313.57 115.005 302.595 115.005 290.725V250H135.005V290.725C135.005 302.595 141.65 313.57 152.32 318.77C152.4 318.81 152.48 318.85 152.56 318.89C155.99 320.58 160 318.12 160 314.295V250H180V341.715C180 343.9 180.455 346.075 181.4 348.045C185.31 356.205 187.5 365.345 187.5 375Z" fill="#121212"/>
<path d="M205 500H225L225 250H205L205 500Z" fill="#121212"/>
<defs>
<clipPath id="clip0_88_6004">
<rect width="250" height="250" fill="#FFFFFF" transform="translate(500 250) rotate(90)"/>
</clipPath>
<clipPath id="clip1_88_6004">
<rect width="250" height="250" fill="#FFFFFF"/>
</clipPath>
<clipPath id="clip2_88_6004">
<rect width="250" height="250" fill="#FFFFFF" transform="translate(250)"/>
</clipPath>
</defs>
</svg>
