<?xml version='1.0' encoding='UTF-8'?>
<svg xmlns="http://www.w3.org/2000/svg" width="500" height="500" viewBox="0 0 500 500">
<g clip-path="url(#clip0_83_5067)">
<rect width="500" height="500" transform="translate(2.18557e-05 500) rotate(-90)" fill="#121212"/>
<path d="M250 529.282C95.7575 529.282 -29.2817 404.243 -29.2818 250C-29.2818 95.7573 95.7575 -29.282 250 -29.282C404.243 -29.2818 529.282 95.7575 529.282 250C529.281 404.243 404.243 529.281 250 529.282Z" stroke="#121212" stroke-width="44" stroke-miterlimit="10"/>
<path d="M250 459.383C134.361 459.383 40.617 365.639 40.617 250C40.6172 134.361 134.361 40.617 250 40.6169C365.639 40.6169 459.383 134.361 459.384 250C459.384 365.639 365.639 459.383 250 459.383Z" stroke="#4997D0" stroke-width="11" stroke-miterlimit="10"/>
<path d="M251.214 410.84C163.055 410.84 91.5871 339.373 91.5869 251.214C91.587 163.055 163.055 91.5878 251.214 91.5878C339.373 91.588 410.84 163.055 410.84 251.214C410.84 339.373 339.373 410.84 251.214 410.84Z" stroke="#FFA300" stroke-width="11" stroke-miterlimit="10"/>
<path d="M251.213 357.442C192.483 357.442 144.986 309.276 144.986 250C144.986 190.724 192.483 142.558 251.213 142.558C309.943 142.558 357.442 190.724 357.442 250C357.442 309.276 309.943 357.442 251.213 357.442Z" stroke="#FF4F00" stroke-width="11" stroke-miterlimit="10"/>
<path d="M250 308.898C218.691 308.898 193.53 282.949 193.53 251.213C193.53 219.478 218.691 193.529 250 193.529C281.309 193.529 306.471 219.478 306.471 251.213C306.471 282.949 281.309 308.898 250 308.898Z" stroke="#FF4F00" stroke-width="11" stroke-miterlimit="10"/>
<path d="M250 203.884C250 203.884 225.728 244.315 225.728 257.564C225.728 270.813 236.595 281.553 250 281.553C263.405 281.553 274.272 270.813 274.272 257.564C274.272 244.315 250 203.884 250 203.884Z" fill="#F3F3F3"/>
<path fill-rule="evenodd" clip-rule="evenodd" d="M250.018 211.165C250.018 194.188 259.611 177.212 278.796 170.388C302.961 161.797 314.399 134.195 303.383 111.031C285.897 74.2491 324.274 35.8814 361.058 53.3602C384.225 64.369 411.83 52.9383 420.421 28.7758C427.24 9.60569 444.199 0.0137543 461.165 5.34058e-05L38.8349 1.64845e-05C55.8132 1.79688e-05 72.7914 9.59197 79.6153 28.7758C88.2069 52.9383 115.812 64.375 138.978 53.3601C175.763 35.8755 214.134 74.2491 196.653 111.031C185.644 134.195 197.075 161.797 221.24 170.388C240.425 177.212 250.018 194.188 250.018 211.165Z" fill="#F3F3F3"/>
</g>
<defs>
<clipPath id="clip0_83_5067">
<rect width="500" height="500" fill="#FFFFFF" transform="translate(2.18557e-05 500) rotate(-90)"/>
</clipPath>
</defs>
</svg>
