<?xml version='1.0' encoding='UTF-8'?>
<svg xmlns="http://www.w3.org/2000/svg" width="500" height="500" viewBox="0 0 500 500">
<rect width="500" height="500" fill="#F3F3F3"/>
<path d="M500 250C500 319.035 472.02 381.535 426.775 426.775C381.535 472.02 319.035 500 250 500L500 500L500 250Z" fill="#121212"/>
<path d="M418.251 375C418.251 351.634 399.311 332.7 375.95 332.7C352.59 332.7 333.65 351.634 333.65 375C333.65 398.366 352.59 417.3 375.95 417.3C387.633 417.3 398.209 412.567 405.863 404.912C413.517 397.258 418.251 386.683 418.251 375Z" fill="#121212"/>
<path d="M375.475 250.035L250.035 250L250 374.525C319.278 374.545 375.455 318.807 375.475 250.035Z" fill="#121212"/>
<path d="M250 0H0V250C0 111.93 111.93 0 250 0Z" fill="#121212"/>
<path d="M176.775 176.775C131.535 222.02 69.035 250 0 250H250V0C250 69.035 222.02 131.535 176.775 176.775Z" fill="#121212"/>
<path d="M125 82.6996C101.639 82.6996 82.6996 101.634 82.6996 125C82.6996 148.366 101.639 167.3 125 167.3C136.683 167.3 147.258 162.567 154.912 154.912C162.567 147.258 167.3 136.683 167.3 125C167.3 101.634 148.361 82.6996 125 82.6996Z" fill="#121212"/>
<path d="M250 250L375 250L500 8.66188e-06L250 3.05176e-05L250 250Z" fill="#121212"/>
<path d="M250 250L250 375L4.48601e-05 500L9.15527e-05 250L250 250Z" fill="#121212"/>
</svg>
