<?xml version='1.0' encoding='UTF-8'?>
<svg xmlns="http://www.w3.org/2000/svg" width="500" height="500" viewBox="0 0 500 500">
<rect width="500" height="500" fill="#FF4F00"/>
<path d="M500 249.997V0H250C388.07 0 500 111.929 500 249.997Z" fill="#121212"/>
<path d="M475 249.998H455V499.995H475V249.998Z" fill="#121212"/>
<path d="M410 249.998H430V499.995H410V406.631C410 403.956 406.76 402.611 404.88 404.516C402.87 406.551 400.655 408.381 398.265 409.971C390.055 415.441 385 424.546 385 434.411V500H365V434.411C365 424.546 359.945 415.446 351.735 409.971C349.345 408.381 347.13 406.551 345.12 404.516C343.24 402.611 340 403.956 340 406.631V499.995H320V249.998H340V343.362C340 346.037 343.24 347.382 345.12 345.477C347.13 343.442 349.345 341.612 351.735 340.022C359.945 334.552 365 325.447 365 315.582V249.998H385V315.587C385 325.377 389.915 334.517 398.09 339.907C400.475 341.477 402.69 343.287 404.7 345.297C404.75 345.347 404.8 345.397 404.85 345.447C406.745 347.362 410 346.052 410 343.357V249.998Z" fill="#121212"/>
<path d="M295 249.998H275V499.995H295V249.998Z" fill="#121212"/>
<path d="M26 499.995H46L46 249.998H26L26 499.995Z" fill="#121212"/>
<path d="M188.5 374.996C188.5 384.651 186.31 393.791 182.4 401.951C181.455 403.921 181 406.096 181 408.281V499.995H161V435.701C161 431.876 156.99 429.421 153.56 431.106C153.48 431.146 153.4 431.186 153.32 431.226C142.645 436.426 136.005 447.401 136.005 459.27V499.995H116.005V459.27C116.005 447.401 109.36 436.426 98.69 431.226C98.61 431.186 98.53 431.146 98.45 431.106C95.02 429.416 91.01 431.876 91.01 435.701V499.995H71.01V408.281C71.01 406.096 70.555 403.921 69.61 401.951C65.7 393.791 63.51 384.651 63.51 374.996C63.51 365.341 65.7 356.201 69.61 348.042C70.555 346.072 71.01 343.897 71.01 341.712V249.998H91.01V314.292C91.01 318.117 95.02 320.572 98.45 318.887C98.53 318.847 98.61 318.807 98.69 318.767C109.365 313.567 116.005 302.592 116.005 290.722V249.998H136.005V290.722C136.005 302.592 142.65 313.567 153.32 318.767C153.4 318.807 153.48 318.847 153.56 318.887C156.99 320.577 161 318.117 161 314.292V249.998H181V341.712C181 343.897 181.455 346.072 182.4 348.042C186.31 356.201 188.5 365.341 188.5 374.996Z" fill="#121212"/>
<path d="M206 499.995H226L226 249.998H206L206 499.995Z" fill="#121212"/>
<path d="M206.25 249.998H226.25C226.25 236.608 236.775 225.683 250 225.028V205.013C225.765 205.678 206.25 225.598 206.25 249.993V249.998Z" fill="#121212"/>
<path d="M161.25 249.998H181.25C181.25 211.758 211.915 180.683 250 180.013V160.013C226.43 160.333 204.315 169.653 187.61 186.358C170.61 203.358 161.25 225.958 161.25 249.998Z" fill="#121212"/>
<path d="M155.79 154.538C143.385 166.943 133.645 181.383 126.85 197.458C119.815 214.082 116.25 231.762 116.25 249.997H136.25C136.25 186.903 187.065 135.683 250 135.013V115.013C232.205 115.173 214.955 118.723 198.71 125.598C182.635 132.398 168.195 142.133 155.79 154.538Z" fill="#121212"/>
<path d="M250 0.0099999V0H0V249.997H1.25C1.25 112.344 112.505 0.679993 250 0.0099999Z" fill="#121212"/>
<path d="M123.97 122.719C107.43 139.259 94.45 158.509 85.385 179.944C76.005 202.118 71.25 225.688 71.25 249.998H91.25C91.25 162.049 162.21 90.6894 250 90.0144V70.0146C226.13 70.1746 202.99 74.9146 181.195 84.1345C159.765 93.1994 140.51 106.179 123.97 122.719Z" fill="#121212"/>
<path d="M92.15 90.8991C71.48 111.569 55.25 135.634 43.92 162.423C32.195 190.148 26.25 219.608 26.25 249.998H46.25C46.25 137.199 137.355 45.6796 250 45.0096V25.0098C220.055 25.1698 191.02 31.1097 163.675 42.6746C136.885 54.0045 112.82 70.2343 92.15 90.9041V90.8991Z" fill="#121212"/>
</svg>
