<?xml version='1.0' encoding='UTF-8'?>
<svg xmlns="http://www.w3.org/2000/svg" width="500" height="500" viewBox="0 0 500 500">
<g clip-path="url(#clip0_88_6129)">
<path d="M12.5 250H0V375H12.5V250Z" fill="#121212"/>
<path d="M125 250H112.5V375H125V250Z" fill="#121212"/>
<path d="M102.5 250H90V375H102.5V250Z" fill="#121212"/>
<path d="M80 250H67.5V375H80V250Z" fill="#121212"/>
<path d="M57.5 250H45V375H57.5V250Z" fill="#121212"/>
<path d="M35 250H22.5V375H35V250Z" fill="#121212"/>
<path d="M67 315.162C65.5125 315.057 64.0125 315 62.5 315C60.9875 315 59.4875 315.057 58 315.162H67Z" fill="#121212"/>
</g>
<g clip-path="url(#clip1_88_6129)">
<path d="M387.5 250H375V375H387.5V250Z" fill="#121212"/>
<path d="M500 250H487.5V375H500V250Z" fill="#121212"/>
<path d="M477.5 250H465V375H477.5V250Z" fill="#121212"/>
<path d="M455 250H442.5V375H455V250Z" fill="#121212"/>
<path d="M432.5 250H420V375H432.5V250Z" fill="#121212"/>
<path d="M410 250H397.5V375H410V250Z" fill="#121212"/>
<path d="M442 315.162C440.512 315.057 439.012 315 437.5 315C435.987 315 434.487 315.057 433 315.162H442Z" fill="#121212"/>
</g>
<g clip-path="url(#clip2_88_6129)">
<path d="M500 137.5L500 125L375 125L375 137.5L500 137.5Z" fill="#121212"/>
<path d="M500 250L500 237.5L375 237.5L375 250L500 250Z" fill="#FF4F00"/>
<path d="M500 227.5L500 215L375 215L375 227.5L500 227.5Z" fill="#FFA300"/>
<path d="M500 205L500 192.5L375 192.5L375 205L500 205Z" fill="#D9D9D6"/>
<path d="M500 182.5L500 170L375 170L375 182.5L500 182.5Z" fill="#4997D0"/>
<path d="M500 160L500 147.5L375 147.5L375 160L500 160Z" fill="#121212"/>
<path d="M434.838 192C434.943 190.512 435 189.012 435 187.5C435 185.987 434.943 184.487 434.838 183L434.838 192Z" fill="#121212"/>
</g>
<g clip-path="url(#clip3_88_6129)">
<path d="M250 387.5L250 375L125 375L125 387.5L250 387.5Z" fill="#121212"/>
<path d="M250 500L250 487.5L125 487.5L125 500L250 500Z" fill="#FF4F00"/>
<path d="M250 477.5L250 465L125 465L125 477.5L250 477.5Z" fill="#121212"/>
<path d="M250 455L250 442.5L125 442.5L125 455L250 455Z" fill="#121212"/>
<path d="M250 432.5L250 420L125 420L125 432.5L250 432.5Z" fill="#121212"/>
<path d="M250 410L250 397.5L125 397.5L125 410L250 410Z" fill="#121212"/>
<path d="M184.838 442C184.943 440.512 185 439.012 185 437.5C185 435.987 184.943 434.487 184.838 433L184.838 442Z" fill="#121212"/>
</g>
<g clip-path="url(#clip4_88_6129)">
<path d="M81.2125 103.665C67.8175 98 55.785 89.885 45.45 79.55C35.115 69.215 27 57.1825 21.335 43.7875C15.4725 29.925 12.5 15.195 12.5 1.47124e-05L-5.46392e-06 1.52588e-05C-2.44631e-06 69.035 55.965 125 125 125L125 112.5C109.808 112.5 95.075 109.527 81.2125 103.665Z" fill="#121212"/>
<path d="M89.9725 82.9325C79.2575 78.4 69.63 71.91 61.36 63.64C53.09 55.37 46.6 45.745 42.0675 35.0275C37.3775 23.94 35 12.155 35 1.85271e-05L22.5 1.90735e-05C22.5 56.61 68.39 102.5 125 102.5L125 90C112.845 90 101.06 87.6225 89.9725 82.9325Z" fill="#121212"/>
<path d="M98.73 62.2C90.6925 58.8 83.4725 53.9325 77.27 47.73C71.0675 41.5275 66.1975 34.3075 62.8 26.27C59.2825 17.9575 57.5 9.11752 57.5 2.42491e-05L45 2.47955e-05C45 44.1825 80.8175 80 125 80L125 67.5C115.883 67.5 107.043 65.7175 98.73 62.2Z" fill="#121212"/>
<path d="M93.18 31.82C84.68 23.32 80 12.02 80 4.22198e-06L67.5 4.76837e-06C67.5 31.7575 93.2425 57.5 125 57.5L125 45C112.98 45 101.68 40.32 93.18 31.82Z" fill="#121212"/>
<path d="M102.5 2.61565e-05L90 2.67029e-05C90 19.33 105.67 35 125 35L125 22.5C112.592 22.5 102.5 12.4075 102.5 2.61565e-05Z" fill="#121212"/>
<path d="M112.5 1.33514e-05C112.5 6.90251 118.097 12.5 125 12.5L125 1.2805e-05L112.5 1.33514e-05Z" fill="#121212"/>
</g>
<g clip-path="url(#clip5_88_6129)">
<path d="M81.2125 478.665C67.8175 473 55.785 464.885 45.45 454.55C35.115 444.215 27 432.182 21.335 418.787C15.4725 404.925 12.5 390.195 12.5 375L-5.46392e-06 375C-2.44631e-06 444.035 55.965 500 125 500L125 487.5C109.808 487.5 95.075 484.527 81.2125 478.665Z" fill="#121212"/>
<path d="M89.9725 457.932C79.2575 453.4 69.63 446.91 61.36 438.64C53.09 430.37 46.6 420.745 42.0675 410.027C37.3775 398.94 35 387.155 35 375L22.5 375C22.5 431.61 68.39 477.5 125 477.5L125 465C112.845 465 101.06 462.622 89.9725 457.932Z" fill="#121212"/>
<path d="M98.73 437.2C90.6925 433.8 83.4725 428.932 77.27 422.73C71.0675 416.527 66.1975 409.307 62.8 401.27C59.2825 392.957 57.5 384.117 57.5 375L45 375C45 419.182 80.8175 455 125 455L125 442.5C115.883 442.5 107.043 440.717 98.73 437.2Z" fill="#121212"/>
<path d="M93.18 406.82C84.68 398.32 80 387.02 80 375L67.5 375C67.5 406.757 93.2425 432.5 125 432.5L125 420C112.98 420 101.68 415.32 93.18 406.82Z" fill="#121212"/>
<path d="M102.5 375L90 375C90 394.33 105.67 410 125 410L125 397.5C112.592 397.5 102.5 387.407 102.5 375Z" fill="#121212"/>
<path d="M112.5 375C112.5 381.902 118.097 387.5 125 387.5L125 375L112.5 375Z" fill="#121212"/>
</g>
<g clip-path="url(#clip6_88_6129)">
<path d="M353.665 418.787C348 432.182 339.885 444.215 329.55 454.55C319.215 464.885 307.182 473 293.787 478.665C279.925 484.527 265.195 487.5 250 487.5L250 500C319.035 500 375 444.035 375 375L362.5 375C362.5 390.192 359.527 404.925 353.665 418.787Z" fill="#FF4F00"/>
<path d="M332.932 410.027C328.4 420.742 321.91 430.37 313.64 438.64C305.37 446.91 295.745 453.4 285.027 457.932C273.94 462.622 262.155 465 250 465L250 477.5C306.61 477.5 352.5 431.61 352.5 375L340 375C340 387.155 337.622 398.94 332.932 410.027Z" fill="#FFA300"/>
<path d="M312.2 401.27C308.8 409.307 303.932 416.527 297.73 422.73C291.527 428.932 284.307 433.802 276.27 437.2C267.957 440.717 259.117 442.5 250 442.5L250 455C294.182 455 330 419.182 330 375L317.5 375C317.5 384.117 315.717 392.957 312.2 401.27Z" fill="#121212"/>
<path d="M281.82 406.82C273.32 415.32 262.02 420 250 420L250 432.5C281.757 432.5 307.5 406.757 307.5 375L295 375C295 387.02 290.32 398.32 281.82 406.82Z" fill="#121212"/>
<path d="M250 397.5L250 410C269.33 410 285 394.33 285 375L272.5 375C272.5 387.407 262.408 397.5 250 397.5Z" fill="#121212"/>
<path d="M250 387.5C256.903 387.5 262.5 381.902 262.5 375L250 375L250 387.5Z" fill="#121212"/>
</g>
<g clip-path="url(#clip7_88_6129)">
<path d="M293.787 271.335C307.182 277 319.215 285.115 329.55 295.45C339.885 305.785 348 317.817 353.665 331.212C359.527 345.075 362.5 359.805 362.5 375L375 375C375 305.965 319.035 250 250 250L250 262.5C265.192 262.5 279.925 265.472 293.787 271.335Z" fill="#FF4F00"/>
<path d="M285.027 292.067C295.742 296.6 305.37 303.09 313.64 311.36C321.91 319.63 328.4 329.255 332.932 339.972C337.622 351.06 340 362.845 340 375L352.5 375C352.5 318.39 306.61 272.5 250 272.5L250 285C262.155 285 273.94 287.377 285.027 292.067Z" fill="#FFA300"/>
<path d="M276.27 312.8C284.307 316.2 291.527 321.067 297.73 327.27C303.932 333.472 308.802 340.692 312.2 348.73C315.717 357.042 317.5 365.882 317.5 375L330 375C330 330.817 294.182 295 250 295L250 307.5C259.117 307.5 267.957 309.282 276.27 312.8Z" fill="#D9D9D6"/>
<path d="M281.82 343.18C290.32 351.68 295 362.98 295 375L307.5 375C307.5 343.242 281.757 317.5 250 317.5L250 330C262.02 330 273.32 334.68 281.82 343.18Z" fill="#121212"/>
<path d="M272.5 375L285 375C285 355.67 269.33 340 250 340L250 352.5C262.408 352.5 272.5 362.592 272.5 375Z" fill="#121212"/>
<path d="M262.5 375C262.5 368.097 256.903 362.5 250 362.5L250 375L262.5 375Z" fill="#121212"/>
</g>
<g clip-path="url(#clip8_88_6129)">
<path d="M456.213 478.665C442.818 473 430.785 464.885 420.45 454.55C410.115 444.215 402 432.182 396.335 418.787C390.473 404.925 387.5 390.195 387.5 375L375 375C375 444.035 430.965 500 500 500L500 487.5C484.808 487.5 470.075 484.527 456.213 478.665Z" fill="#121212"/>
<path d="M464.973 457.932C454.258 453.4 444.63 446.91 436.36 438.64C428.09 430.37 421.6 420.745 417.068 410.027C412.378 398.94 410 387.155 410 375L397.5 375C397.5 431.61 443.39 477.5 500 477.5L500 465C487.845 465 476.06 462.622 464.973 457.932Z" fill="#121212"/>
<path d="M473.73 437.2C465.693 433.8 458.473 428.932 452.27 422.73C446.067 416.527 441.198 409.307 437.8 401.27C434.283 392.957 432.5 384.117 432.5 375L420 375C420 419.182 455.818 455 500 455L500 442.5C490.883 442.5 482.043 440.717 473.73 437.2Z" fill="#121212"/>
<path d="M468.18 406.82C459.68 398.32 455 387.02 455 375L442.5 375C442.5 406.757 468.243 432.5 500 432.5L500 420C487.98 420 476.68 415.32 468.18 406.82Z" fill="#121212"/>
<path d="M477.5 375L465 375C465 394.33 480.67 410 500 410L500 397.5C487.592 397.5 477.5 387.407 477.5 375Z" fill="#121212"/>
<path d="M487.5 375C487.5 381.902 493.097 387.5 500 387.5L500 375L487.5 375Z" fill="#121212"/>
</g>
<g clip-path="url(#clip9_88_6129)">
<path d="M331.213 228.665C317.818 223 305.785 214.885 295.45 204.55C285.115 194.215 277 182.182 271.335 168.787C265.473 154.925 262.5 140.195 262.5 125L250 125C250 194.035 305.965 250 375 250L375 237.5C359.808 237.5 345.075 234.527 331.213 228.665Z" fill="#FF4F00"/>
<path d="M339.973 207.932C329.258 203.4 319.63 196.91 311.36 188.64C303.09 180.37 296.6 170.745 292.068 160.027C287.378 148.94 285 137.155 285 125L272.5 125C272.5 181.61 318.39 227.5 375 227.5L375 215C362.845 215 351.06 212.622 339.973 207.932Z" fill="#FFA300"/>
<path d="M348.73 187.2C340.693 183.8 333.473 178.932 327.27 172.73C321.067 166.527 316.198 159.307 312.8 151.27C309.283 142.957 307.5 134.118 307.5 125L295 125C295 169.182 330.818 205 375 205L375 192.5C365.883 192.5 357.043 190.717 348.73 187.2Z" fill="#D9D9D6"/>
<path d="M343.18 156.82C334.68 148.32 330 137.02 330 125L317.5 125C317.5 156.757 343.243 182.5 375 182.5L375 170C362.98 170 351.68 165.32 343.18 156.82Z" fill="#4997D0"/>
<path d="M352.5 125L340 125C340 144.33 355.67 160 375 160L375 147.5C362.592 147.5 352.5 137.407 352.5 125Z" fill="#121212"/>
<path d="M362.5 125C362.5 131.902 368.097 137.5 375 137.5L375 125L362.5 125Z" fill="#121212"/>
</g>
<g clip-path="url(#clip10_88_6129)">
<path d="M271.335 81.2125C277 67.8175 285.115 55.785 295.45 45.45C305.785 35.115 317.818 27 331.213 21.335C345.075 15.4725 359.805 12.5 375 12.5V7.62939e-06C305.965 7.62939e-06 250 55.965 250 125H262.5C262.5 109.807 265.472 95.075 271.335 81.2125Z" fill="#FF4F00"/>
<path d="M292.068 89.9725C296.6 79.2575 303.09 69.63 311.36 61.36C319.63 53.09 329.255 46.6 339.973 42.0675C351.06 37.3775 362.845 35 375 35V22.5C318.39 22.5 272.5 68.39 272.5 125H285C285 112.845 287.378 101.06 292.068 89.9725Z" fill="#FFA300"/>
<path d="M312.8 98.73C316.2 90.6925 321.067 83.4725 327.27 77.27C333.472 71.0675 340.693 66.1975 348.73 62.8C357.043 59.2825 365.883 57.5 375 57.5V45C330.818 45 295 80.8175 295 125H307.5C307.5 115.882 309.283 107.042 312.8 98.73Z" fill="#D9D9D6"/>
<path d="M343.18 93.18C351.68 84.68 362.98 80 375 80V67.5C343.243 67.5 317.5 93.2425 317.5 125H330C330 112.98 334.68 101.68 343.18 93.18Z" fill="#4997D0"/>
<path d="M375 102.5V90C355.67 90 340 105.67 340 125H352.5C352.5 112.592 362.592 102.5 375 102.5Z" fill="#121212"/>
<path d="M375 112.5C368.097 112.5 362.5 118.097 362.5 125H375V112.5Z" fill="#121212"/>
</g>
<g clip-path="url(#clip11_88_6129)">
<path d="M418.787 21.335C432.182 27 444.215 35.115 454.55 45.45C464.885 55.785 473 67.8175 478.665 81.2125C484.527 95.075 487.5 109.805 487.5 125L500 125C500 55.965 444.035 5.18434e-06 375 2.16826e-06L375 12.5C390.192 12.5 404.925 15.4725 418.787 21.335Z" fill="#FF4F00"/>
<path d="M410.027 42.0675C420.742 46.6 430.37 53.09 438.64 61.36C446.91 69.63 453.4 79.255 457.932 89.9725C462.622 101.06 465 112.845 465 125L477.5 125C477.5 68.39 431.61 22.5 375 22.5L375 35C387.155 35 398.94 37.3775 410.027 42.0675Z" fill="#FFA300"/>
<path d="M401.27 62.8C409.307 66.2 416.527 71.0675 422.73 77.27C428.932 83.4725 433.802 90.6925 437.2 98.73C440.717 107.042 442.5 115.882 442.5 125L455 125C455 80.8175 419.182 45 375 45L375 57.5C384.117 57.5 392.957 59.2825 401.27 62.8Z" fill="#D9D9D6"/>
<path d="M406.82 93.18C415.32 101.68 420 112.98 420 125L432.5 125C432.5 93.2425 406.757 67.5 375 67.5L375 80C387.02 80 398.32 84.68 406.82 93.18Z" fill="#4997D0"/>
<path d="M397.5 125L410 125C410 105.67 394.33 90 375 90L375 102.5C387.408 102.5 397.5 112.592 397.5 125Z" fill="#121212"/>
<path d="M387.5 125C387.5 118.097 381.903 112.5 375 112.5L375 125L387.5 125Z" fill="#121212"/>
</g>
<g clip-path="url(#clip12_88_6129)">
<path d="M146.335 331.212C152 317.817 160.115 305.785 170.45 295.45C180.785 285.115 192.818 277 206.213 271.335C220.075 265.472 234.805 262.5 250 262.5V250C180.965 250 125 305.965 125 375H137.5C137.5 359.807 140.472 345.075 146.335 331.212Z" fill="#FF4F00"/>
<path d="M167.068 339.972C171.6 329.257 178.09 319.63 186.36 311.36C194.63 303.09 204.255 296.6 214.973 292.067C226.06 287.377 237.845 285 250 285V272.5C193.39 272.5 147.5 318.39 147.5 375H160C160 362.845 162.378 351.06 167.068 339.972Z" fill="#FFA300"/>
<path d="M187.8 348.73C191.2 340.692 196.067 333.472 202.27 327.27C208.472 321.067 215.693 316.197 223.73 312.8C232.043 309.282 240.883 307.5 250 307.5V295C205.818 295 170 330.817 170 375H182.5C182.5 365.882 184.283 357.042 187.8 348.73Z" fill="#D9D9D6"/>
<path d="M218.18 343.18C226.68 334.68 237.98 330 250 330V317.5C218.243 317.5 192.5 343.242 192.5 375H205C205 362.98 209.68 351.68 218.18 343.18Z" fill="#4997D0"/>
<path d="M250 352.5V340C230.67 340 215 355.67 215 375H227.5C227.5 362.592 237.592 352.5 250 352.5Z" fill="#121212"/>
<path d="M250 362.5C243.097 362.5 237.5 368.097 237.5 375H250V362.5Z" fill="#121212"/>
</g>
<g clip-path="url(#clip13_88_6129)">
<path d="M168.787 21.335C182.182 27 194.215 35.115 204.55 45.45C214.885 55.785 223 67.8175 228.665 81.2125C234.527 95.075 237.5 109.805 237.5 125L250 125C250 55.965 194.035 5.18434e-06 125 2.16826e-06L125 12.5C140.192 12.5 154.925 15.4725 168.787 21.335Z" fill="#121212"/>
<path d="M160.027 42.0675C170.742 46.6 180.37 53.09 188.64 61.36C196.91 69.63 203.4 79.255 207.932 89.9725C212.622 101.06 215 112.845 215 125L227.5 125C227.5 68.39 181.61 22.5 125 22.5L125 35C137.155 35 148.94 37.3775 160.027 42.0675Z" fill="#121212"/>
<path d="M151.27 62.8C159.307 66.2 166.527 71.0675 172.73 77.27C178.932 83.4725 183.802 90.6925 187.2 98.73C190.717 107.042 192.5 115.882 192.5 125L205 125C205 80.8175 169.182 45 125 45L125 57.5C134.117 57.5 142.957 59.2825 151.27 62.8Z" fill="#121212"/>
<path d="M156.82 93.18C165.32 101.68 170 112.98 170 125L182.5 125C182.5 93.2425 156.757 67.5 125 67.5L125 80C137.02 80 148.32 84.68 156.82 93.18Z" fill="#121212"/>
<path d="M147.5 125L160 125C160 105.67 144.33 90 125 90L125 102.5C137.408 102.5 147.5 112.592 147.5 125Z" fill="#121212"/>
<path d="M137.5 125C137.5 118.097 131.903 112.5 125 112.5L125 125L137.5 125Z" fill="#121212"/>
</g>
<g clip-path="url(#clip14_88_6129)">
<path d="M228.665 168.787C223 182.182 214.885 194.215 204.55 204.55C194.215 214.885 182.182 223 168.788 228.665C154.925 234.527 140.195 237.5 125 237.5L125 250C194.035 250 250 194.035 250 125L237.5 125C237.5 140.192 234.528 154.925 228.665 168.787Z" fill="#121212"/>
<path d="M207.933 160.027C203.4 170.742 196.91 180.37 188.64 188.64C180.37 196.91 170.745 203.4 160.027 207.932C148.94 212.622 137.155 215 125 215L125 227.5C181.61 227.5 227.5 181.61 227.5 125L215 125C215 137.155 212.623 148.94 207.933 160.027Z" fill="#121212"/>
<path d="M187.2 151.27C183.8 159.307 178.933 166.527 172.73 172.73C166.528 178.932 159.307 183.802 151.27 187.2C142.957 190.717 134.117 192.5 125 192.5L125 205C169.182 205 205 169.182 205 125L192.5 125C192.5 134.117 190.718 142.957 187.2 151.27Z" fill="#121212"/>
<path d="M156.82 156.82C148.32 165.32 137.02 170 125 170L125 182.5C156.757 182.5 182.5 156.757 182.5 125L170 125C170 137.02 165.32 148.32 156.82 156.82Z" fill="#121212"/>
<path d="M125 147.5L125 160C144.33 160 160 144.33 160 125L147.5 125C147.5 137.407 137.408 147.5 125 147.5Z" fill="#121212"/>
<path d="M125 137.5C131.903 137.5 137.5 131.902 137.5 125L125 125L125 137.5Z" fill="#121212"/>
</g>
<g clip-path="url(#clip15_88_6129)">
<path d="M21.335 206.212C27 192.817 35.115 180.785 45.45 170.45C55.785 160.115 67.8175 152 81.2125 146.335C95.075 140.472 109.805 137.5 125 137.5V125C55.965 125 0 180.965 0 250H12.5C12.5 234.807 15.4725 220.075 21.335 206.212Z" fill="#121212"/>
<path d="M42.0675 214.972C46.6 204.257 53.09 194.63 61.36 186.36C69.63 178.09 79.255 171.6 89.9725 167.067C101.06 162.377 112.845 160 125 160V147.5C68.39 147.5 22.5 193.39 22.5 250H35C35 237.845 37.3775 226.06 42.0675 214.972Z" fill="#121212"/>
<path d="M62.8 223.73C66.2 215.692 71.0675 208.472 77.27 202.27C83.4725 196.067 90.6925 191.197 98.73 187.8C107.043 184.282 115.883 182.5 125 182.5V170C80.8175 170 45 205.817 45 250H57.5C57.5 240.882 59.2825 232.042 62.8 223.73Z" fill="#121212"/>
<path d="M93.18 218.18C101.68 209.68 112.98 205 125 205V192.5C93.2425 192.5 67.5 218.242 67.5 250H80C80 237.98 84.68 226.68 93.18 218.18Z" fill="#121212"/>
<path d="M125 227.5V215C105.67 215 90 230.67 90 250H102.5C102.5 237.592 112.592 227.5 125 227.5Z" fill="#121212"/>
<path d="M125 237.5C118.097 237.5 112.5 243.097 112.5 250H125V237.5Z" fill="#121212"/>
</g>
<defs>
<clipPath id="clip0_88_6129">
<rect width="125" height="125" fill="#FFFFFF" transform="translate(0 250)"/>
</clipPath>
<clipPath id="clip1_88_6129">
<rect width="125" height="125" fill="#FFFFFF" transform="translate(375 250)"/>
</clipPath>
<clipPath id="clip2_88_6129">
<rect width="125" height="125" fill="#FFFFFF" transform="translate(500 125) rotate(90)"/>
</clipPath>
<clipPath id="clip3_88_6129">
<rect width="125" height="125" fill="#FFFFFF" transform="translate(250 375) rotate(90)"/>
</clipPath>
<clipPath id="clip4_88_6129">
<rect width="125" height="125" fill="#FFFFFF" transform="translate(0 125) rotate(-90)"/>
</clipPath>
<clipPath id="clip5_88_6129">
<rect width="125" height="125" fill="#FFFFFF" transform="translate(0 500) rotate(-90)"/>
</clipPath>
<clipPath id="clip6_88_6129">
<rect width="125" height="125" fill="#FFFFFF" transform="translate(375 500) rotate(180)"/>
</clipPath>
<clipPath id="clip7_88_6129">
<rect width="125" height="125" fill="#FFFFFF" transform="translate(375 250) rotate(90)"/>
</clipPath>
<clipPath id="clip8_88_6129">
<rect width="125" height="125" fill="#FFFFFF" transform="translate(375 500) rotate(-90)"/>
</clipPath>
<clipPath id="clip9_88_6129">
<rect width="125" height="125" fill="#FFFFFF" transform="translate(250 250) rotate(-90)"/>
</clipPath>
<clipPath id="clip10_88_6129">
<rect width="125" height="125" fill="#FFFFFF" transform="translate(250 7.62939e-06)"/>
</clipPath>
<clipPath id="clip11_88_6129">
<rect width="125" height="125" fill="#FFFFFF" transform="translate(500 7.62939e-06) rotate(90)"/>
</clipPath>
<clipPath id="clip12_88_6129">
<rect width="125" height="125" fill="#FFFFFF" transform="translate(125 250)"/>
</clipPath>
<clipPath id="clip13_88_6129">
<rect width="125" height="125" fill="#FFFFFF" transform="translate(250 7.62939e-06) rotate(90)"/>
</clipPath>
<clipPath id="clip14_88_6129">
<rect width="125" height="125" fill="#FFFFFF" transform="translate(250 250) rotate(-180)"/>
</clipPath>
<clipPath id="clip15_88_6129">
<rect width="125" height="125" fill="#FFFFFF" transform="translate(0 125)"/>
</clipPath>
</defs>
</svg>
