<?xml version='1.0' encoding='UTF-8'?>
<svg xmlns="http://www.w3.org/2000/svg" width="200" height="200" viewBox="0 0 200 200">
  <rect width="200" height="200" fill="#F3F3F3" x="0" y="0"/>
  <path d="M99.241987,194.768987 L102.904,185.896 L102.904,185.896 L105.333939,180.271687 L107.321176,174.577829 L108.873844,168.834047 L110,163.059963 L110.707999,157.275198 L111.00575,151.499375 L110.901459,145.752114 L110.403259,140.053037 L109.519281,134.421766 L108.257657,128.877921 L106.62652,123.441126 L104.634,118.131 L102.28823,112.967166 L99.597343,107.969245 L96.569469,103.156859 L93.212741,98.54963 L89.535291,94.167178 L85.54525,90.029125 L81.250751,86.155093 L76.659926,82.564704 L71.780906,79.277578 L66.621824,76.313338 L61.190811,73.691605 L55.496,71.432 L55.496,71.432 L51.293749,69.821584 L47.256996,68.042843 L43.385735,66.102531 L39.679964,64.007407 L36.139679,61.764228 L32.764877,59.37975 L29.555554,56.860731 L26.511706,54.213926 L23.633332,51.446094 L20.920425,48.563991 L18.372985,45.574375 L15.991006,42.484001 L13.774485,39.299628 L11.723419,36.028011 L9.837805,32.675908 L8.117638,29.250077 L6.562916,25.757273 L5.173635,22.204254 L3.949792,18.597776 L2.891382,14.944598 L1.998403,11.251475 L1.270851,7.525164 L0.708722,3.772423 L0.312014,0 L0.312014,0 L0.299014,0 L0.286014,0 L0.273014,0 L0.260014,0 L0.247014,0 L0.234014,0 L0.221014,0 L0.208014,0 L0.195014,0 L0.182014,0 L0.169014,0 L0.156014,0 L0.143014,0 L0.130014,0 L0.117014,0 L0.104014,0 L0.091014,0 L0.078014,0 L0.065014,0 L0.052014,0 L0.039014,0 L0.026014,0 L0.013014,0 L0,0 L0,0 L0,16.666675 L0,33.333341 L0,50 L0,66.666674 L0,83.33334 L0,100 L0,116.666673 L0,133.333339 L0,150 L0,166.666672 L0,183.333338 L0,200 L97.713423,200 Z" fill="#121212"/>
</svg>
