<?xml version='1.0' encoding='UTF-8'?>
<svg xmlns="http://www.w3.org/2000/svg" width="200" height="200" viewBox="0 0 200 200">
  <rect width="200" height="200" fill="#F3F3F3" x="0" y="0"/>
  <path d="M126.3094,138.8092 L123.6885,133.3782 L120.725,128.2191 L117.4386,123.3401 L113.8489,118.7492 L109.9754,114.4548 L105.8378,110.4647 L101.4557,106.7873 L96.8488,103.4305 L92.0366,100.4027 L87.0388,97.7118 L81.875,95.366 L76.5648,93.3735 L71.1279,91.7423 L65.5839,90.4807 L59.9523,89.5967 L54.2528,89.0985 L48.5051,88.9942 L42.7288,89.292 L36.9434,90 L31.1686,91.1262 L25.424,92.6788 L19.7293,94.6661 L14.104,97.096 L14.104,97.096 L5.2301,100.7571 L0,102.2847 L0,200 L16.6667,200 L33.3333,200 L50,200 L66.6667,200 L83.3333,200 L100,200 L116.6667,200 L133.3333,200 L150,200 L166.6667,200 L183.3333,200 L200,200 L200,199.987 L200,199.974 L200,199.961 L200,199.948 L200,199.935 L200,199.922 L200,199.909 L200,199.896 L200,199.883 L200,199.87 L200,199.857 L200,199.844 L200,199.831 L200,199.818 L200,199.805 L200,199.792 L200,199.779 L200,199.766 L200,199.753 L200,199.74 L200,199.727 L200,199.714 L200,199.701 L200,199.688 L196.2276,199.2904 L192.4748,198.7275 L188.7485,197.9993 L185.0554,197.1059 L181.4022,196.0471 L177.7957,194.823 L174.2427,193.4336 L170.7499,191.8788 L167.3241,190.1587 L163.972,188.2732 L160.7004,186.2223 L157.516,184.006 L154.4256,181.6243 L151.436,179.0771 L148.5539,176.3646 L145.7861,173.4865 L143.1393,170.443 L140.6202,167.234 L138.2358,163.8595 L135.9926,160.3195 L133.8975,156.6139 L131.9572,152.7429 L130.1784,148.7062 L128.568,144.504 Z" fill="#121212"/>
</svg>
