<?xml version='1.0' encoding='UTF-8'?>
<svg xmlns="http://www.w3.org/2000/svg" width="200" height="200" viewBox="0 0 200 200">
<g clip-path="url(#clip0_81_2192)">
<rect width="200" height="200" transform="translate(200 8.74228e-06) rotate(90)" fill="#F3F3F3"/>
<path fill-rule="evenodd" clip-rule="evenodd" d="M255.223 29.8897C233.63 29.2654 217.234 29.8896 217.234 22.5031C217.234 16.1702 234.798 15.5235 257.514 15.0535C283.004 15.0535 310 16.1702 310 7.54072C310 0.0279655 293.823 0.0279348 268.333 0.0279345C266.333 0.0279344 259.428 0.0207017 257.494 0.00672461L200 1.0054e-05C139.249 9.32956e-06 142.495 9.36827e-06 142.495 9.36827e-06C140.426 0.0172518 133.815 0.0267427 131.667 0.0279328C106.373 0.0629972 90 0.0279323 90 0.0279323C90 0.0279323 90 15.0535 120 15.0535C142.717 15.5234 181.902 16.1701 181.902 22.5031C181.902 29.8896 165.506 29.2653 143.913 29.8897C118.423 29.8897 90 29.8896 90 44.8801C90 59.8706 116.132 59.8706 141.621 59.8706C164.338 60.8106 181.902 59.7513 181.902 74.7418C181.902 89.7324 161.467 89.6552 136.165 89.7323C110.675 89.7323 90 94.348 90 111.787C90 129.225 110.443 133.736 135.737 133.848L136.165 133.848C161.467 133.96 181.902 143.795 181.902 155.902C181.902 168.01 161.467 177.844 136.165 177.957L135.737 177.957C110.443 178.069 90 187.833 90 200.011C90 212.188 110.675 222.065 136.165 222.065L136.602 222.065C162.1 222.065 182.766 231.935 182.766 244.119C182.766 256.304 162.1 266.174 136.602 266.174L136.165 266.174C110.675 266.174 90 276.057 90 288.235C90 300.413 110.675 310.289 136.165 310.289L136.602 310.289C162.1 310.289 182.766 316.995 182.766 325.28C182.766 332.912 165.203 339.211 142.486 340.151L136.165 340.151C110.675 340.151 90 346.864 90 355.142C90 363.419 110.675 370.132 136.165 370.132L144.777 370.132C166.371 370.756 182.766 373.689 182.766 377.519C182.766 381.349 165.203 384.498 142.486 384.968L136.165 384.968C110.675 384.968 90 384.968 90 392.481C90 399.994 110.675 399.994 136.165 399.994L136.602 399.994C162.1 399.994 182.766 399.994 182.766 399.994L215.473 399.994C215.473 399.994 238.533 400.008 263.836 399.994L264.263 399.994C289.557 399.959 310 399.994 310 392.481C310 384.968 289.325 384.968 263.836 384.968L258.379 384.968C235.662 384.498 218.099 381.208 218.099 377.519C218.099 373.829 234.494 370.756 256.088 370.132L263.836 370.132C289.325 370.132 310 363.426 310 355.142C310 346.857 289.325 340.151 263.836 340.151L258.379 340.151C235.662 339.211 218.099 332.912 218.099 325.28C218.099 317.044 238.533 310.366 263.836 310.289L264.263 310.289C289.557 310.177 310 300.349 310 288.235C310 276.121 289.557 266.286 264.263 266.174L263.836 266.174C238.533 266.061 218.099 256.227 218.099 244.119C218.099 232.012 238.533 222.177 263.836 222.065L264.263 222.065C289.557 221.953 310 212.188 310 200.011C310 187.833 289.325 177.957 263.836 177.957L263.399 177.957C237.9 177.957 217.234 168.087 217.234 155.902C217.234 143.718 237.9 133.848 263.399 133.848L263.836 133.848C289.325 133.848 310 127.563 310 111.787C310 96.0105 289.325 89.7323 263.836 89.7323L263.399 89.7323C237.9 89.7323 217.234 89.7324 217.234 74.7419C217.234 59.7514 234.798 60.8106 257.514 59.8706L263.836 59.8706C289.325 59.8706 310 59.8706 310 44.8801C310 29.8896 289.325 29.8897 263.836 29.8897L255.223 29.8897Z" fill="#121212"/>
</g>
<defs>
<clipPath id="clip0_81_2192">
<rect width="200" height="200" fill="#FFFFFF" transform="translate(200 8.74228e-06) rotate(90)"/>
</clipPath>
</defs>
</svg>
