<?xml version='1.0' encoding='UTF-8'?>
<svg xmlns="http://www.w3.org/2000/svg" width="1920" height="960" viewBox="0 0 1920 960">
  <rect width="1920" height="960" fill="#F3F3F3"/>
  <rect width="320" height="320" fill="#D9D9D6" x="1280" y="0"/>
  <path d="M1600 0L1520 0L1440 320L1600 320L1600 0Z" fill="#121212"/>
  <rect width="320" height="320" fill="#FF4F00" x="640" y="0"/>
  <path d="M960 0L880 0L800 320L960 320L960 0Z" fill="#D9D9D6"/>
  <rect width="320" height="320" fill="#121212" x="960" y="640"/>
  <path fill-rule="evenodd" clip-rule="evenodd" d="M1120 800L1280 640L960 640L960 960L1040 960L1120 800Z" fill="#FFA300"/>
  <rect width="320" height="320" fill="#4997D0" x="1280" y="640"/>
  <path d="M1280 960L1360 960L1440 640L1280 640L1280 960Z" fill="#121212"/>
  <path d="M1600 640L1520 960L1600 960L1600 640Z" fill="#121212"/>
  <rect width="320" height="320" fill="#FF4F00" x="640" y="320"/>
  <rect width="320" height="320" fill="#FF4F00" x="320" y="0"/>
  <path fill-rule="evenodd" clip-rule="evenodd" d="M480 22L400 22.0746L400 0.0746425L320 0L320 320L400 320C400.043 172.725 400 102 480 22Z" fill="#121212"/>
  <rect width="320" height="320" fill="#4997D0" x="0" y="0"/>
  <path fill-rule="evenodd" clip-rule="evenodd" d="M160 22L240 22.0746L240 0.0746425L320 0L320 320L240 320C239.957 172.725 240 102 160 22Z" fill="#121212"/>
  <rect width="320" height="320" fill="#FF4F00" x="320" y="320"/>
  <path d="M320 320L400 320L480 640L320 640L320 320Z" fill="#121212"/>
  <rect width="320" height="320" fill="#FF4F00" x="0" y="640"/>
  <path d="M320 640L240 640L160 960L320 960L320 640Z" fill="#121212"/>
  <rect width="320" height="320" fill="#FFA300" x="320" y="640"/>
  <path d="M320 640L400 640L480 960L320 960L320 640Z" fill="#121212"/>
  <rect width="320" height="320" fill="#4997D0" x="0" y="320"/>
  <path d="M320 320L240 320L160 640L320 640L320 320Z" fill="#121212"/>
  <rect width="320" height="320" fill="#FFA300" x="640" y="640"/>
  <path d="M920 960C853.726 960 680 960 680 960C680 893.726 733.726 840 800 840C866.274 840 920 893.726 920 960Z" fill="#121212"/>
  <rect width="320" height="320" fill="#F3F3F3" x="1600" y="640"/>
  <rect x="1600" y="640" width="320" height="320" fill="#121212"/>
  <rect width="320" height="320" fill="#D9D9D6" x="1280" y="320"/>
  <path d="M1440 640L1440 480L1600 480L1600 640L1440 640Z" fill="#121212"/>
  <rect width="320" height="320" fill="#121212" x="1600" y="0"/>
  <path d="M1812.8 186.667H1866.13C1866.13 127.757 1818.38 80 1759.47 80C1700.56 80 1652.8 127.757 1652.8 186.667H1706.13C1706.13 216.124 1730.01 240 1759.47 240C1788.92 240 1812.8 216.124 1812.8 186.667Z" fill="#FFA300"/>
  <rect width="320" height="320" fill="#121212" x="1600" y="320"/>
  <path d="M1840 640L1600 640L1600 400C1600 532.547 1707.45 640 1840 640Z" fill="#D9D9D6"/>
  <rect width="320" height="320" fill="#D9D9D6" x="960" y="0"/>
  <path d="M1172.8 186.667H1226.13C1226.13 127.757 1178.38 80 1119.47 80C1060.56 80 1012.8 127.757 1012.8 186.667H1066.13C1066.13 216.124 1090.01 240 1119.47 240C1148.92 240 1172.8 216.124 1172.8 186.667Z" fill="#121212"/>
  <rect width="320" height="320" fill="#D9D9D6" x="960" y="320"/>
  <path d="M960 400L960 640L1200 640C1067.45 640 960 532.547 960 400Z" fill="#FF4F00"/>
</svg>
