<?xml version='1.0' encoding='UTF-8'?>
<svg xmlns="http://www.w3.org/2000/svg" width="1920" height="960" viewBox="0 0 1920 960">
<g clip-path="url(#clip0_16_8134)">
<rect width="1920" height="960" fill="#F3F3F3"/>
<rect width="320" height="320" transform="translate(0 320) rotate(-90)" fill="#F3F3F3"/>
<path d="M320 224L320 192L0 192L1.39876e-06 224L320 224Z" fill="#121212"/>
<path d="M320 160L320 128L0 128L1.39876e-06 160L320 160Z" fill="#121212"/>
<path d="M320 96L320 64L0 64L1.39876e-06 96L320 96Z" fill="#121212"/>
<path d="M320 288L320 256L0 256L1.39876e-06 288L320 288Z" fill="#121212"/>
<path d="M320 32L320 0L0 1.39876e-05L1.39876e-06 32L320 32Z" fill="#121212"/>
<rect width="320" height="320" transform="translate(320 640) rotate(90)" fill="#F3F3F3"/>
<g clip-path="url(#clip1_16_8134)">
<path d="M319.987 960L320 960L320 640L0 640C176.198 640 319.987 783.333 319.987 960Z" fill="#121212"/>
<path fill-rule="evenodd" clip-rule="evenodd" d="M256 960C256 818.615 141.385 704 2.23802e-05 704L2.51778e-05 672C159.058 672 288 800.942 288 960L256 960Z" fill="#121212"/>
</g>
<path fill-rule="evenodd" clip-rule="evenodd" d="M192 960C192 853.961 106.039 768 3.2044e-05 768L3.48415e-05 736C123.712 736 224 836.288 224 960L192 960Z" fill="#121212"/>
<path fill-rule="evenodd" clip-rule="evenodd" d="M128 960C128 889.308 70.6925 832 1.11901e-05 832L1.39876e-05 800C88.3656 800 160 871.634 160 960L128 960Z" fill="#121212"/>
<path fill-rule="evenodd" clip-rule="evenodd" d="M64 960C64 924.654 35.3462 896 -2.03434e-06 896L7.63192e-07 864C53.0193 864 96 906.981 96 960L64 960Z" fill="#121212"/>
<path fill-rule="evenodd" clip-rule="evenodd" d="M32 960L1.90735e-06 960L4.70488e-06 928C17.6731 928 32 942.327 32 960Z" fill="#121212"/>
<rect width="320" height="320" transform="translate(320 640) rotate(-180)" fill="#F3F3F3"/>
<g clip-path="url(#clip2_16_8134)">
<path d="M1.11902e-09 639.987L0 640L320 640L320 320C320 496.198 176.667 639.987 1.11902e-09 639.987Z" fill="#121212"/>
<path fill-rule="evenodd" clip-rule="evenodd" d="M4.19629e-06 576C141.385 576 256 461.385 256 320L288 320C288 479.058 159.058 608 0 608L4.19629e-06 576Z" fill="#121212"/>
</g>
<path fill-rule="evenodd" clip-rule="evenodd" d="M4.19629e-06 512C106.039 512 192 426.039 192 320L224 320C224 443.712 123.712 544 0 544L4.19629e-06 512Z" fill="#121212"/>
<path fill-rule="evenodd" clip-rule="evenodd" d="M4.19629e-06 448C70.6925 448 128 390.692 128 320L160 320C160 408.366 88.3656 480 0 480L4.19629e-06 448Z" fill="#121212"/>
<path fill-rule="evenodd" clip-rule="evenodd" d="M4.19629e-06 384C35.3462 384 64 355.346 64 320L96 320C96 373.019 53.0193 416 0 416L4.19629e-06 384Z" fill="#121212"/>
<path fill-rule="evenodd" clip-rule="evenodd" d="M0 352L4.19629e-06 320L32 320C32 337.673 17.6731 352 0 352Z" fill="#121212"/>
<rect width="320" height="320" transform="translate(640 320) rotate(-90)" fill="#F3F3F3"/>
<g clip-path="url(#clip3_16_8134)">
<path d="M640.013 -5.5951e-10L640 0L640 320L960 320C783.802 320 640.013 176.667 640.013 -5.5951e-10Z" fill="#121212"/>
<path fill-rule="evenodd" clip-rule="evenodd" d="M704 0C704 141.385 818.615 256 960 256V288C800.942 288 672 159.058 672 0H704Z" fill="#121212"/>
</g>
<g clip-path="url(#clip4_16_8134)">
<path fill-rule="evenodd" clip-rule="evenodd" d="M768 0C768 106.039 853.961 192 960 192V224C836.288 224 736 123.712 736 0H768Z" fill="#121212"/>
<path fill-rule="evenodd" clip-rule="evenodd" d="M832 0C832 70.6925 889.308 128 960 128V160C871.634 160 800 88.3656 800 0H832Z" fill="#121212"/>
<path fill-rule="evenodd" clip-rule="evenodd" d="M896 0C896 35.3462 924.654 64 960 64L960 96C906.981 96 864 53.0193 864 0L896 0Z" fill="#121212"/>
<path fill-rule="evenodd" clip-rule="evenodd" d="M928 0H960V32C942.327 32 928 17.6731 928 0Z" fill="#121212"/>
</g>
<rect width="320" height="320" transform="translate(640 640)" fill="#F3F3F3"/>
<g clip-path="url(#clip5_16_8134)">
<path d="M960 640.013V640H640V960C640 783.802 783.333 640.013 960 640.013Z" fill="#121212"/>
<path fill-rule="evenodd" clip-rule="evenodd" d="M960 704C818.615 704 704 818.615 704 960L672 960C672 800.942 800.942 672 960 672L960 704Z" fill="#121212"/>
</g>
<g clip-path="url(#clip6_16_8134)">
<path fill-rule="evenodd" clip-rule="evenodd" d="M960 768C853.961 768 768 853.961 768 960L736 960C736 836.288 836.288 736 960 736L960 768Z" fill="#121212"/>
<path fill-rule="evenodd" clip-rule="evenodd" d="M960 832C889.308 832 832 889.308 832 960L800 960C800 871.634 871.634 800 960 800L960 832Z" fill="#121212"/>
<path fill-rule="evenodd" clip-rule="evenodd" d="M960 896C924.654 896 896 924.654 896 960L864 960C864 906.981 906.981 864 960 864L960 896Z" fill="#121212"/>
<path fill-rule="evenodd" clip-rule="evenodd" d="M960 928L960 960L928 960C928 942.327 942.327 928 960 928Z" fill="#121212"/>
</g>
<rect width="320" height="320" transform="translate(960 320) rotate(90)" fill="#F3F3F3"/>
<path d="M640 416L640 448L960 448L960 416L640 416Z" fill="#121212"/>
<path d="M640 480L640 512L960 512L960 480L640 480Z" fill="#121212"/>
<path d="M640 544L640 576L960 576L960 544L640 544Z" fill="#121212"/>
<path d="M640 352L640 384L960 384L960 352L640 352Z" fill="#121212"/>
<path d="M640 608L640 640L960 640L960 608L640 608Z" fill="#121212"/>
<rect width="320" height="320" transform="translate(1280)" fill="#F3F3F3"/>
<path d="M1376 320H1408V0H1376V320Z" fill="#121212"/>
<path d="M1440 320H1472V0H1440V320Z" fill="#121212"/>
<path d="M1504 320H1536V0H1504V320Z" fill="#121212"/>
<path d="M1312 320H1344V0H1312V320Z" fill="#121212"/>
<path d="M1568 320H1600V0H1568V320Z" fill="#121212"/>
<rect width="320" height="320" transform="translate(1600 640) rotate(90)" fill="#F3F3F3"/>
<g clip-path="url(#clip7_16_8134)">
<path d="M1599.99 960L1600 960L1600 640L1280 640C1456.2 640 1599.99 783.333 1599.99 960Z" fill="#121212"/>
<path fill-rule="evenodd" clip-rule="evenodd" d="M1536 960C1536 818.615 1421.38 704 1280 704L1280 672C1439.06 672 1568 800.942 1568 960L1536 960Z" fill="#121212"/>
</g>
<path fill-rule="evenodd" clip-rule="evenodd" d="M1472 960C1472 853.961 1386.04 768 1280 768L1280 736C1403.71 736 1504 836.288 1504 960L1472 960Z" fill="#121212"/>
<path fill-rule="evenodd" clip-rule="evenodd" d="M1408 960C1408 889.308 1350.69 832 1280 832L1280 800C1368.37 800 1440 871.634 1440 960L1408 960Z" fill="#121212"/>
<path fill-rule="evenodd" clip-rule="evenodd" d="M1344 960C1344 924.654 1315.35 896 1280 896L1280 864C1333.02 864 1376 906.981 1376 960L1344 960Z" fill="#121212"/>
<path fill-rule="evenodd" clip-rule="evenodd" d="M1312 960L1280 960L1280 928C1297.67 928 1312 942.327 1312 960Z" fill="#121212"/>
<rect width="320" height="320" transform="translate(640 320) rotate(-180)" fill="#F3F3F3"/>
<g clip-path="url(#clip8_16_8134)">
<path d="M320 319.987L320 320L640 320L640 0C640 176.198 496.667 319.987 320 319.987Z" fill="#121212"/>
<path fill-rule="evenodd" clip-rule="evenodd" d="M320 256C461.385 256 576 141.385 576 3.35703e-05L608 3.77666e-05C608 159.058 479.058 288 320 288L320 256Z" fill="#121212"/>
</g>
<path fill-rule="evenodd" clip-rule="evenodd" d="M320 192C426.039 192 512 106.039 512 4.04365e-05L544 4.46328e-05C544 123.712 443.712 224 320 224L320 192Z" fill="#121212"/>
<path fill-rule="evenodd" clip-rule="evenodd" d="M320 128C390.692 128 448 70.6925 448 1.67852e-05L480 2.09815e-05C480 88.3656 408.366 160 320 160L320 128Z" fill="#121212"/>
<path fill-rule="evenodd" clip-rule="evenodd" d="M320 64C355.346 64 384 35.3462 384 7.63192e-07L416 4.95948e-06C416 53.0193 373.019 96 320 96L320 64Z" fill="#121212"/>
<path fill-rule="evenodd" clip-rule="evenodd" d="M320 32L320 1.90735e-06L352 6.10364e-06C352 17.6731 337.673 32 320 32Z" fill="#121212"/>
<rect width="320" height="320" transform="translate(320 640)" fill="#F3F3F3"/>
<path d="M416 960H448L448 640H416L416 960Z" fill="#121212"/>
<path d="M480 960H512L512 640H480L480 960Z" fill="#121212"/>
<path d="M544 960H576V640H544V960Z" fill="#121212"/>
<path d="M352 960H384L384 640H352L352 960Z" fill="#121212"/>
<path d="M608 960H640V640H608V960Z" fill="#121212"/>
<rect width="320" height="320" transform="translate(320 320)" fill="#F3F3F3"/>
<g clip-path="url(#clip9_16_8134)">
<path d="M640 320.013V320H320V640C320 463.802 463.333 320.013 640 320.013Z" fill="#121212"/>
<path fill-rule="evenodd" clip-rule="evenodd" d="M640 384C498.615 384 384 498.615 384 640L352 640C352 480.942 480.942 352 640 352L640 384Z" fill="#121212"/>
</g>
<g clip-path="url(#clip10_16_8134)">
<path fill-rule="evenodd" clip-rule="evenodd" d="M640 448C533.961 448 448 533.961 448 640L416 640C416 516.288 516.288 416 640 416L640 448Z" fill="#121212"/>
<path fill-rule="evenodd" clip-rule="evenodd" d="M640 512C569.308 512 512 569.308 512 640L480 640C480 551.634 551.634 480 640 480L640 512Z" fill="#121212"/>
<path fill-rule="evenodd" clip-rule="evenodd" d="M640 576C604.654 576 576 604.654 576 640L544 640C544 586.981 586.981 544 640 544L640 576Z" fill="#121212"/>
<path fill-rule="evenodd" clip-rule="evenodd" d="M640 608L640 640L608 640C608 622.327 622.327 608 640 608Z" fill="#121212"/>
</g>
<rect width="320" height="320" transform="translate(1280 320) rotate(-180)" fill="#F3F3F3"/>
<g clip-path="url(#clip11_16_8134)">
<path d="M960 319.987L960 320L1280 320L1280 0C1280 176.198 1136.67 319.987 960 319.987Z" fill="#121212"/>
<path fill-rule="evenodd" clip-rule="evenodd" d="M960 256C1101.38 256 1216 141.385 1216 3.35703e-05L1248 3.77666e-05C1248 159.058 1119.06 288 960 288L960 256Z" fill="#121212"/>
</g>
<path fill-rule="evenodd" clip-rule="evenodd" d="M960 192C1066.04 192 1152 106.039 1152 4.04365e-05L1184 4.46328e-05C1184 123.712 1083.71 224 960 224L960 192Z" fill="#121212"/>
<path fill-rule="evenodd" clip-rule="evenodd" d="M960 128C1030.69 128 1088 70.6925 1088 1.67852e-05L1120 2.09815e-05C1120 88.3656 1048.37 160 960 160L960 128Z" fill="#121212"/>
<path fill-rule="evenodd" clip-rule="evenodd" d="M960 64C995.346 64 1024 35.3462 1024 7.63192e-07L1056 4.95948e-06C1056 53.0193 1013.02 96 960 96L960 64Z" fill="#121212"/>
<path fill-rule="evenodd" clip-rule="evenodd" d="M960 32L960 1.90735e-06L992 6.10364e-06C992 17.6731 977.673 32 960 32Z" fill="#121212"/>
<rect width="320" height="320" transform="translate(1280 640) rotate(90)" fill="#F3F3F3"/>
<path d="M960 736L960 768L1280 768L1280 736L960 736Z" fill="#121212"/>
<path d="M960 800L960 832L1280 832L1280 800L960 800Z" fill="#121212"/>
<path d="M960 864L960 896L1280 896L1280 864L960 864Z" fill="#121212"/>
<path d="M960 672L960 704L1280 704L1280 672L960 672Z" fill="#121212"/>
<path d="M960 928L960 960L1280 960L1280 928L960 928Z" fill="#121212"/>
<rect width="320" height="320" transform="translate(1280 320) rotate(90)" fill="#F3F3F3"/>
<g clip-path="url(#clip12_16_8134)">
<path d="M1279.99 640L1280 640L1280 320L960 320C1136.2 320 1279.99 463.333 1279.99 640Z" fill="#121212"/>
<path fill-rule="evenodd" clip-rule="evenodd" d="M1216 640C1216 498.615 1101.38 384 960 384L960 352C1119.06 352 1248 480.942 1248 640L1216 640Z" fill="#121212"/>
</g>
<path fill-rule="evenodd" clip-rule="evenodd" d="M1152 640C1152 533.961 1066.04 448 960 448L960 416C1083.71 416 1184 516.288 1184 640L1152 640Z" fill="#121212"/>
<path fill-rule="evenodd" clip-rule="evenodd" d="M1088 640C1088 569.308 1030.69 512 960 512L960 480C1048.37 480 1120 551.634 1120 640L1088 640Z" fill="#121212"/>
<path fill-rule="evenodd" clip-rule="evenodd" d="M1024 640C1024 604.654 995.346 576 960 576L960 544C1013.02 544 1056 586.981 1056 640L1024 640Z" fill="#121212"/>
<path fill-rule="evenodd" clip-rule="evenodd" d="M992 640L960 640L960 608C977.673 608 992 622.327 992 640Z" fill="#121212"/>
<rect width="320" height="320" transform="translate(1280 640) rotate(-90)" fill="#F3F3F3"/>
<g clip-path="url(#clip13_16_8134)">
<path d="M1280.01 320L1280 320L1280 640L1600 640C1423.8 640 1280.01 496.667 1280.01 320Z" fill="#121212"/>
<path fill-rule="evenodd" clip-rule="evenodd" d="M1344 320C1344 461.385 1458.62 576 1600 576L1600 608C1440.94 608 1312 479.058 1312 320L1344 320Z" fill="#121212"/>
</g>
<g clip-path="url(#clip14_16_8134)">
<path fill-rule="evenodd" clip-rule="evenodd" d="M1408 320C1408 426.039 1493.96 512 1600 512L1600 544C1476.29 544 1376 443.712 1376 320L1408 320Z" fill="#121212"/>
<path fill-rule="evenodd" clip-rule="evenodd" d="M1472 320C1472 390.692 1529.31 448 1600 448L1600 480C1511.63 480 1440 408.366 1440 320L1472 320Z" fill="#121212"/>
<path fill-rule="evenodd" clip-rule="evenodd" d="M1536 320C1536 355.346 1564.65 384 1600 384L1600 416C1546.98 416 1504 373.019 1504 320L1536 320Z" fill="#121212"/>
<path fill-rule="evenodd" clip-rule="evenodd" d="M1568 320L1600 320L1600 352C1582.33 352 1568 337.673 1568 320Z" fill="#121212"/>
</g>
<rect width="320" height="320" transform="translate(1600 320) rotate(-90)" fill="#F3F3F3"/>
<g clip-path="url(#clip15_16_8134)">
<path d="M1600.01 -5.5951e-10L1600 0L1600 320L1920 320C1743.8 320 1600.01 176.667 1600.01 -5.5951e-10Z" fill="#121212"/>
<path fill-rule="evenodd" clip-rule="evenodd" d="M1664 0C1664 141.385 1778.62 256 1920 256V288C1760.94 288 1632 159.058 1632 0H1664Z" fill="#121212"/>
</g>
<g clip-path="url(#clip16_16_8134)">
<path fill-rule="evenodd" clip-rule="evenodd" d="M1728 0C1728 106.039 1813.96 192 1920 192V224C1796.29 224 1696 123.712 1696 0H1728Z" fill="#121212"/>
<path fill-rule="evenodd" clip-rule="evenodd" d="M1792 0C1792 70.6925 1849.31 128 1920 128V160C1831.63 160 1760 88.3656 1760 0H1792Z" fill="#121212"/>
<path fill-rule="evenodd" clip-rule="evenodd" d="M1856 0C1856 35.3462 1884.65 64 1920 64L1920 96C1866.98 96 1824 53.0193 1824 0L1856 0Z" fill="#121212"/>
<path fill-rule="evenodd" clip-rule="evenodd" d="M1888 0H1920V32C1902.33 32 1888 17.6731 1888 0Z" fill="#121212"/>
</g>
<rect width="320" height="320" transform="translate(1600 640)" fill="#F3F3F3"/>
<g clip-path="url(#clip17_16_8134)">
<path d="M1920 640.013V640H1600V960C1600 783.802 1743.33 640.013 1920 640.013Z" fill="#121212"/>
<path fill-rule="evenodd" clip-rule="evenodd" d="M1920 704C1778.62 704 1664 818.615 1664 960L1632 960C1632 800.942 1760.94 672 1920 672L1920 704Z" fill="#121212"/>
</g>
<g clip-path="url(#clip18_16_8134)">
<path fill-rule="evenodd" clip-rule="evenodd" d="M1920 768C1813.96 768 1728 853.961 1728 960L1696 960C1696 836.288 1796.29 736 1920 736L1920 768Z" fill="#121212"/>
<path fill-rule="evenodd" clip-rule="evenodd" d="M1920 832C1849.31 832 1792 889.308 1792 960L1760 960C1760 871.634 1831.63 800 1920 800L1920 832Z" fill="#121212"/>
<path fill-rule="evenodd" clip-rule="evenodd" d="M1920 896C1884.65 896 1856 924.654 1856 960L1824 960C1824 906.981 1866.98 864 1920 864L1920 896Z" fill="#121212"/>
<path fill-rule="evenodd" clip-rule="evenodd" d="M1920 928L1920 960L1888 960C1888 942.327 1902.33 928 1920 928Z" fill="#121212"/>
</g>
<rect width="320" height="320" transform="translate(1600 640) rotate(-90)" fill="#F3F3F3"/>
<path d="M1920 544L1920 512L1600 512L1600 544L1920 544Z" fill="#121212"/>
<path d="M1920 480L1920 448L1600 448L1600 480L1920 480Z" fill="#121212"/>
<path d="M1920 416L1920 384L1600 384L1600 416L1920 416Z" fill="#121212"/>
<path d="M1920 608L1920 576L1600 576L1600 608L1920 608Z" fill="#121212"/>
<path d="M1920 352L1920 320L1600 320L1600 352L1920 352Z" fill="#121212"/>
</g>
<defs>
<clipPath id="clip0_16_8134">
<rect width="1920" height="960" fill="#FFFFFF"/>
</clipPath>
<clipPath id="clip1_16_8134">
<rect width="320" height="320" fill="#FFFFFF" transform="translate(320 640) rotate(90)"/>
</clipPath>
<clipPath id="clip2_16_8134">
<rect width="320" height="320" fill="#FFFFFF" transform="translate(320 640) rotate(-180)"/>
</clipPath>
<clipPath id="clip3_16_8134">
<rect width="320" height="320" fill="#FFFFFF" transform="translate(640 320) rotate(-90)"/>
</clipPath>
<clipPath id="clip4_16_8134">
<rect width="320" height="320" fill="#FFFFFF" transform="translate(640 320) rotate(-90)"/>
</clipPath>
<clipPath id="clip5_16_8134">
<rect width="320" height="320" fill="#FFFFFF" transform="translate(640 640)"/>
</clipPath>
<clipPath id="clip6_16_8134">
<rect width="320" height="320" fill="#FFFFFF" transform="translate(640 640)"/>
</clipPath>
<clipPath id="clip7_16_8134">
<rect width="320" height="320" fill="#FFFFFF" transform="translate(1600 640) rotate(90)"/>
</clipPath>
<clipPath id="clip8_16_8134">
<rect width="320" height="320" fill="#FFFFFF" transform="translate(640 320) rotate(-180)"/>
</clipPath>
<clipPath id="clip9_16_8134">
<rect width="320" height="320" fill="#FFFFFF" transform="translate(320 320)"/>
</clipPath>
<clipPath id="clip10_16_8134">
<rect width="320" height="320" fill="#FFFFFF" transform="translate(320 320)"/>
</clipPath>
<clipPath id="clip11_16_8134">
<rect width="320" height="320" fill="#FFFFFF" transform="translate(1280 320) rotate(-180)"/>
</clipPath>
<clipPath id="clip12_16_8134">
<rect width="320" height="320" fill="#FFFFFF" transform="translate(1280 320) rotate(90)"/>
</clipPath>
<clipPath id="clip13_16_8134">
<rect width="320" height="320" fill="#FFFFFF" transform="translate(1280 640) rotate(-90)"/>
</clipPath>
<clipPath id="clip14_16_8134">
<rect width="320" height="320" fill="#FFFFFF" transform="translate(1280 640) rotate(-90)"/>
</clipPath>
<clipPath id="clip15_16_8134">
<rect width="320" height="320" fill="#FFFFFF" transform="translate(1600 320) rotate(-90)"/>
</clipPath>
<clipPath id="clip16_16_8134">
<rect width="320" height="320" fill="#FFFFFF" transform="translate(1600 320) rotate(-90)"/>
</clipPath>
<clipPath id="clip17_16_8134">
<rect width="320" height="320" fill="#FFFFFF" transform="translate(1600 640)"/>
</clipPath>
<clipPath id="clip18_16_8134">
<rect width="320" height="320" fill="#FFFFFF" transform="translate(1600 640)"/>
</clipPath>
</defs>
</svg>
