<?xml version='1.0' encoding='UTF-8'?>
<svg xmlns="http://www.w3.org/2000/svg" width="1920" height="960" viewBox="0 0 1920 960">
  <rect width="1920" height="960" fill="#F3F3F3"/>
  <rect width="320" height="320" fill="#F3F3F3" x="960" y="0"/>
  <path d="M1040 80C1040 35.8172 1075.82 1.52588e-05 1120 1.52588e-05C1164.18 1.52588e-05 1200 35.8172 1200 80V240C1200 284.183 1164.18 320 1120 320C1075.82 320 1040 284.183 1040 240V80Z" fill="#121212"/>
  <circle cx="1120" cy="160" r="53.3333" fill="#FF4F00"/>
  <rect width="320" height="320" fill="#121212" x="0" y="320"/>
  <rect x="80" y="320" width="160" height="320" rx="80" fill="#F3F3F3"/>
  <rect width="320" height="320" fill="#121212" x="1280" y="320"/>
  <rect x="1360" y="320" width="160" height="320" rx="80" fill="#F3F3F3"/>
  <rect width="320" height="320" fill="#FF4F00" x="320" y="640"/>
  <path d="M400 720C400 675.817 435.817 640 480 640C524.183 640 560 675.817 560 720V880C560 924.183 524.183 960 480 960C435.817 960 400 924.183 400 880V720Z" fill="#121212"/>
  <circle cx="480" cy="800" r="53.3333" fill="#F3F3F3"/>
  <rect width="320" height="320" fill="#4997D0" x="0" y="0"/>
  <rect width="160" height="160" fill="#FFA300"/>
  <rect x="160" width="160" height="160" fill="#4997D0"/>
  <path fill-rule="evenodd" clip-rule="evenodd" d="M160 -6.99382e-06C71.6344 -6.99382e-06 -3.13124e-06 71.6344 -6.99382e-06 160L-1.39876e-05 320L320 320L320 160C320 71.6344 248.366 -6.99382e-06 160 -6.99382e-06Z" fill="#121212"/>
  <rect width="320" height="320" fill="#4997D0" x="320" y="0"/>
  <rect width="320" height="320" fill="#121212" x="640" y="320"/>
  <rect width="320" height="320" fill="#FF4F00" x="960" y="640"/>
  <rect width="320" height="320" fill="#FFA300" x="1600" y="640"/>
  <rect width="320" height="320" fill="#4997D0" x="1600" y="0"/>
  <rect width="320" height="320" fill="#4997D0" x="640" y="0"/>
  <rect x="640" width="160" height="160" fill="#4997D0"/>
  <rect x="800" width="160" height="160" fill="#F3F3F3"/>
  <path fill-rule="evenodd" clip-rule="evenodd" d="M800 -6.99382e-06C711.634 -6.99382e-06 640 71.6344 640 160L640 320L960 320L960 160C960 71.6344 888.366 -6.99382e-06 800 -6.99382e-06Z" fill="#121212"/>
  <rect width="320" height="320" fill="#F3F3F3" x="1280" y="0"/>
  <rect x="1280" width="160" height="160" fill="#F3F3F3"/>
  <rect x="1440" width="160" height="160" fill="#4997D0"/>
  <path fill-rule="evenodd" clip-rule="evenodd" d="M1440 -6.99382e-06C1351.63 -6.99382e-06 1280 71.6344 1280 160L1280 320L1600 320L1600 160C1600 71.6344 1528.37 -6.99382e-06 1440 -6.99382e-06Z" fill="#121212"/>
  <rect width="320" height="320" fill="#FF4F00" x="640" y="640"/>
  <rect x="800" y="800" width="160" height="160" fill="#FF4F00"/>
  <rect x="640" y="800" width="160" height="160" fill="#FF4F00"/>
  <path fill-rule="evenodd" clip-rule="evenodd" d="M800 960C888.366 960 960 888.366 960 800L960 640L640 640L640 800C640 888.366 711.634 960 800 960Z" fill="#121212"/>
  <rect width="320" height="320" fill="#FFA300" x="0" y="640"/>
  <rect x="160" y="800" width="160" height="160" fill="#FFA300"/>
  <rect x="0" y="800" width="160" height="160" fill="#FFA300"/>
  <path fill-rule="evenodd" clip-rule="evenodd" d="M160 960C248.366 960 320 888.366 320 800L320 640L3.81596e-06 640L1.90798e-06 800C4.71681e-06 888.366 71.6345 960 160 960Z" fill="#121212"/>
  <rect width="320" height="320" fill="#F3F3F3" x="1280" y="640"/>
  <rect x="1440" y="800" width="160" height="160" fill="#FFA300"/>
  <rect x="1280" y="800" width="160" height="160" fill="#FFA300"/>
  <path fill-rule="evenodd" clip-rule="evenodd" d="M1440 960C1528.37 960 1600 888.366 1600 800L1600 640L1280 640L1280 800C1280 888.366 1351.63 960 1440 960Z" fill="#121212"/>
  <rect width="320" height="320" fill="#121212" x="320" y="320"/>
  <path d="M640 640C551.634 640 320 640 320 640C320 551.634 391.634 480 480 480C568.366 480 640 551.634 640 640Z" fill="#FF4F00"/>
  <path d="M320 320C408.366 320 640 320 640 320C640 408.366 568.366 480 480 480C391.634 480 320 408.366 320 320Z" fill="#4997D0"/>
  <rect width="320" height="320" fill="#121212" x="1600" y="320"/>
  <path d="M1920 640C1831.63 640 1600 640 1600 640C1600 551.634 1671.63 480 1760 480C1848.37 480 1920 551.634 1920 640Z" fill="#FFA300"/>
  <path d="M1600 320C1688.37 320 1920 320 1920 320C1920 408.366 1848.37 480 1760 480C1671.63 480 1600 408.366 1600 320Z" fill="#4997D0"/>
  <rect width="320" height="320" fill="#121212" x="960" y="320"/>
  <path d="M1280 640C1191.63 640 960 640 960 640C960 551.634 1031.63 480 1120 480C1208.37 480 1280 551.634 1280 640Z" fill="#FF4F00"/>
  <path d="M960 320C1048.37 320 1280 320 1280 320C1280 408.366 1208.37 480 1120 480C1031.63 480 960 408.366 960 320Z" fill="#F3F3F3"/>
</svg>
