<?xml version='1.0' encoding='UTF-8'?>
<svg xmlns="http://www.w3.org/2000/svg" width="1920" height="960" viewBox="0 0 1920 960">
  <rect width="1920" height="960" fill="#F3F3F3"/>
  <rect width="320" height="320" fill="#121212" x="1280" y="640"/>
  <circle cx="1440" cy="800" r="160" fill="#F3F3F3"/>
  <rect width="320" height="320" fill="#121212" x="0" y="0"/>
  <circle cx="160" cy="160" r="160" transform="rotate(-180 160 160)" fill="#F3F3F3"/>
  <rect width="320" height="320" fill="#121212" x="640" y="640"/>
  <circle cx="800" cy="800" r="160" fill="#FF4F00"/>
  <rect width="320" height="320" fill="#4997D0" x="320" y="0"/>
  <path d="M640 320C551.634 320 320 320 320 320C320 231.634 391.634 160 480 160C568.366 160 640 231.634 640 320Z" fill="#121212"/>
  <rect width="320" height="320" fill="#4997D0" x="320" y="640"/>
  <rect x="480" y="800" width="160" height="160" fill="#FF4F00"/>
  <rect x="320" y="800" width="160" height="160" fill="#FF4F00"/>
  <path fill-rule="evenodd" clip-rule="evenodd" d="M480 960C568.366 960 640 888.366 640 800L640 640L320 640L320 800C320 888.366 391.634 960 480 960Z" fill="#121212"/>
  <rect width="320" height="320" fill="#121212" x="1600" y="320"/>
  <path d="M1600 320C1688.37 320 1920 320 1920 320C1920 408.366 1848.37 480 1760 480C1671.63 480 1600 408.366 1600 320Z" fill="#4997D0"/>
  <rect width="320" height="320" fill="#121212" x="960" y="640"/>
  <path d="M960 640C1048.37 640 1280 640 1280 640C1280 728.366 1208.37 800 1120 800C1031.63 800 960 728.366 960 640Z" fill="#FF4F00"/>
  <rect width="320" height="320" fill="#F3F3F3" x="1280" y="0"/>
  <rect x="1280" width="160" height="160" fill="#FFA300"/>
  <rect x="1440" width="160" height="160" fill="#FFA300"/>
  <path fill-rule="evenodd" clip-rule="evenodd" d="M1440 -6.99382e-06C1351.63 -6.99382e-06 1280 71.6344 1280 160L1280 320L1600 320L1600 160C1600 71.6344 1528.37 -6.99382e-06 1440 -6.99382e-06Z" fill="#121212"/>
  <rect width="320" height="320" fill="#F3F3F3" x="0" y="640"/>
  <rect x="160" y="800" width="160" height="160" fill="#FFA300"/>
  <rect x="0" y="800" width="160" height="160" fill="#FFA300"/>
  <path fill-rule="evenodd" clip-rule="evenodd" d="M160 960C248.366 960 320 888.366 320 800L320 640L4.19629e-05 640L2.09815e-05 800C1.32563e-05 888.366 71.6345 960 160 960Z" fill="#121212"/>
  <rect width="320" height="320" fill="#F3F3F3" x="640" y="0"/>
  <rect x="640" width="160" height="160" fill="#FFA300"/>
  <rect x="800" width="160" height="160" fill="#FFA300"/>
  <path fill-rule="evenodd" clip-rule="evenodd" d="M800 -6.99382e-06C711.634 -6.99382e-06 640 71.6344 640 160L640 320L960 320L960 160C960 71.6344 888.366 -6.99382e-06 800 -6.99382e-06Z" fill="#121212"/>
  <rect width="320" height="320" fill="#FFA300" x="960" y="0"/>
  <path d="M1280 320C1191.63 320 960 320 960 320C960 231.634 1031.63 160 1120 160C1208.37 160 1280 231.634 1280 320Z" fill="#FF4F00"/>
  <rect width="320" height="320" fill="#121212" x="1280" y="320"/>
  <rect width="320" height="320" fill="#121212" x="0" y="320"/>
  <rect width="320" height="320" fill="#121212" x="640" y="320"/>
  <rect width="320" height="320" fill="#121212" x="320" y="320"/>
  <rect width="320" height="320" fill="#121212" x="1600" y="640"/>
  <rect width="320" height="320" fill="#4997D0" x="1600" y="0"/>
  <rect width="320" height="320" fill="#FF4F00" x="960" y="320"/>
  <path d="M960 416L960 448L1280 448L1280 416L960 416Z" fill="#FF4F00"/>
  <path d="M960 480L960 512L1280 512L1280 480L960 480Z" fill="#FF4F00"/>
  <path d="M960 544L960 576L1280 576L1280 544L960 544Z" fill="#FF4F00"/>
  <path d="M960 352L960 384L1280 384L1280 352L960 352Z" fill="#FF4F00"/>
  <path d="M960 608L960 640L1280 640L1280 608L960 608Z" fill="#FF4F00"/>
</svg>
