<?xml version='1.0' encoding='UTF-8'?>
<svg xmlns="http://www.w3.org/2000/svg" width="1920" height="960" viewBox="0 0 1920 960">
  <rect width="1920" height="960" fill="#D9D9D6"/>
  <rect width="320" height="320" fill="#D9D9D6" x="640" y="0"/>
  <path d="M645.804595,154.648805 L659.874195,152.150482 L673.764093,151.21644 L687.397358,151.76975 L700.697063,153.733484 L713.586277,157.030717 L725.988074,161.584519 L737.825523,167.317963 L749.021697,174.154122 L759.499665,182.016069 L769.1825,190.826875 L777.993272,200.509614 L785.855053,210.987357 L792.690914,222.183178 L798.423926,234.020148 L802.97716,246.421341 L806.273688,259.309828 L808.23658,272.608683 L808.788907,286.240977 L807.853742,300.129783 L805.354155,314.198174 L803.658797,320 L960,320 L960,293.333333 L960,266.666667 L960,240 L960,213.333333 L960,186.666667 L960,160 L960,133.333333 L960,106.666667 L960,80 L960,53.333333 L960,26.666667 L960,0 L933.333333,0 L906.666667,0 L880,0 L853.333333,0 L826.666667,0 L800,0 L773.333333,0 L746.666667,0 L720,0 L693.333333,0 L666.666667,0 L640,0 L640,156.344237 Z" fill="#121212"/>
  <rect width="320" height="320" fill="#FF4F00" x="320" y="320"/>
  <path d="M325.804595,474.648805 L339.874195,472.150482 L353.764093,471.21644 L367.397358,471.76975 L380.697063,473.733484 L393.586277,477.030717 L405.988074,481.584519 L417.825523,487.317963 L429.021697,494.154122 L439.499665,502.016069 L449.1825,510.826875 L457.993272,520.509614 L465.855053,530.987357 L472.690914,542.183178 L478.423926,554.020148 L482.97716,566.421341 L486.273688,579.309828 L488.23658,592.608683 L488.788907,606.240977 L487.853742,620.129783 L485.354155,634.198174 L483.658797,640 L640,640 L640,613.333333 L640,586.666667 L640,560 L640,533.333333 L640,506.666667 L640,480 L640,453.333333 L640,426.666667 L640,400 L640,373.333333 L640,346.666667 L640,320 L613.333333,320 L586.666667,320 L560,320 L533.333333,320 L506.666667,320 L480,320 L453.333333,320 L426.666667,320 L400,320 L373.333333,320 L346.666667,320 L320,320 L320,476.344237 Z" fill="#D9D9D6"/>
  <rect width="320" height="320" fill="#FF4F00" x="1280" y="320"/>
  <path d="M1434.64805,634.198174 L1432.147715,620.129783 L1431.211898,606.240977 L1431.763668,592.608683 L1433.726094,579.309828 L1437.022243,566.421341 L1441.575185,554.020148 L1447.307988,542.183178 L1454.143721,530.987357 L1462.005452,520.509614 L1470.81625,510.826875 L1480.499183,502.016069 L1490.977321,494.154122 L1502.17373,487.317963 L1514.011481,481.584519 L1526.413642,477.030717 L1539.303281,473.733484 L1552.603467,471.76975 L1566.237269,471.21644 L1580.127754,472.150482 L1594.197992,474.648805 L1600,476.343399 L1600,320 L1573.333333,320 L1546.666667,320 L1520,320 L1493.333333,320 L1466.666667,320 L1440,320 L1413.333333,320 L1386.666667,320 L1360,320 L1333.333333,320 L1306.666667,320 L1280,320 L1280,346.666667 L1280,373.333333 L1280,400 L1280,426.666667 L1280,453.333333 L1280,480 L1280,506.666667 L1280,533.333333 L1280,560 L1280,586.666667 L1280,613.333333 L1280,640 L1436.343754,640 Z" fill="#D9D9D6"/>
  <rect width="320" height="320" fill="#D9D9D6" x="960" y="0"/>
  <path d="M1114.652442,314.195405 L1112.153867,300.125805 L1111.219537,286.235907 L1111.772533,272.602642 L1113.735938,259.302937 L1117.032831,246.413723 L1121.586296,234.011926 L1127.319414,222.174477 L1134.155266,210.978303 L1142.016934,200.500335 L1150.8275,190.8175 L1160.510045,182.006728 L1170.98765,174.144947 L1182.183398,167.309086 L1194.02037,161.576074 L1206.421648,157.02284 L1219.310312,153.726313 L1232.609446,151.76342 L1246.24213,151.211093 L1260.131445,152.146258 L1274.200475,154.645845 L1280,156.340438 L1280,0 L1253.333333,0 L1226.666667,0 L1200,0 L1173.333333,0 L1146.666667,0 L1120,0 L1093.333333,0 L1066.666667,0 L1040,0 L1013.333333,0 L986.666667,0 L960,0 L960,26.666667 L960,53.333333 L960,80 L960,106.666667 L960,133.333333 L960,160 L960,186.666667 L960,213.333333 L960,240 L960,266.666667 L960,293.333333 L960,320 L1116.347959,320 Z" fill="#121212"/>
  <rect width="320" height="320" fill="#D9D9D6" x="320" y="0"/>
  <path d="M326.035865,1.133804 L332.040252,2.033212 L338.00235,3.197298 L343.911347,4.626067 L349.756433,6.319525 L355.526797,8.277678 L361.211627,10.500531 L366.800111,12.988089 L372.281439,15.740358 L377.6448,18.757344 L382.879383,22.039053 L387.974375,25.585489 L392.918966,29.396658 L397.702345,33.472566 L402.313701,37.813218 L406.742222,42.41862 L410.977097,47.288778 L415.007516,52.423697 L418.822666,57.823382 L422.411736,63.487839 L425.763916,69.417074 L428.868394,75.611092 L431.714359,82.069899 L434.291,88.7935 L434.291,88.7935 L437.906414,97.905235 L442.101225,106.594891 L446.844041,114.849456 L452.103468,122.655919 L457.848111,130.001268 L464.046578,136.872492 L470.667475,143.256579 L477.679407,149.140519 L485.050982,154.511298 L492.750806,159.355906 L500.747485,163.661331 L509.009625,167.414562 L517.505833,170.602588 L526.204715,173.212396 L535.074877,175.230976 L544.084926,176.645315 L553.203468,177.442402 L562.399109,177.609227 L571.640457,177.132776 L580.896116,176 L590.134693,174.198005 L599.324796,171.713661 L608.435029,168.533997 L617.434,164.646 L617.434,164.646 L631.630778,158.786783 L640,156.341203 L640,0 L320,0 L320,0.020668 L320,0.041468 L320,0.062268 L320,0.083068 L320,0.103868 L320,0.124668 L320,0.145468 L320,0.166268 L320,0.187068 L320,0.207868 L320,0.228668 L320,0.249468 L320,0.270268 L320,0.291068 L320,0.311868 L320,0.332668 L320,0.353468 L320,0.374268 L320,0.395068 L320,0.415868 L320,0.436668 L320,0.457468 L320,0.478268 L320,0.499068 L320,0.499068 Z" fill="#121212"/>
  <rect width="320" height="320" fill="#FF4F00" x="0" y="320"/>
  <path d="M320,320 L293.3333,320 L266.666631,320 L240,320 L213.333293,320 L186.666623,320 L160,320 L133.333285,320 L106.666616,320 L80,320 L53.333277,320 L26.666608,320 L0,320 L0,320.499006 L6.03581,321.133709 L12.040203,322.033091 L18.002305,323.19715 L23.911305,324.625894 L29.756393,326.319326 L35.526757,328.277453 L41.211587,330.500281 L46.800071,332.987815 L52.281398,335.740061 L57.644758,338.757024 L62.879339,342.03871 L67.97433,345.585125 L72.91892,349.396274 L77.702299,353.472164 L82.313654,357.812799 L86.742176,362.418185 L90.977052,367.288328 L95.007472,372.423234 L98.822626,377.822908 L102.411701,383.487356 L105.763887,389.416584 L108.868373,395.610597 L111.714348,402.0694 L114.291,408.793 L114.291,408.793 L117.906414,417.904795 L122.101225,426.594506 L126.844041,434.849121 L132.103468,442.65563 L137.848111,450.00102 L144.046578,456.872281 L150.667475,463.256402 L157.679407,469.14037 L165.050982,474.511176 L172.750806,479.355807 L180.747485,483.661252 L189.009625,487.4145 L197.505833,490.60254 L206.204715,493.21236 L215.074877,495.230949 L224.084926,496.645296 L233.203468,497.44239 L242.399109,497.609219 L251.640457,497.132772 L260.896116,496 L270.134693,494.198004 L279.324796,491.713661 L288.435029,488.533997 L297.434,484.646 L297.434,484.646 L311.630778,478.786783 L320,476.341203 L320,320 Z" fill="#D9D9D6"/>
  <rect width="320" height="320" fill="#FF4F00" x="1600" y="320"/>
  <path d="M1608.372299,478.786783 L1622.57,484.646 L1622.57,484.646 L1631.568621,488.533997 L1640.678553,491.713661 L1649.868398,494.198004 L1659.106759,496 L1668.362238,497.132772 L1677.603437,497.609219 L1686.79896,497.44239 L1695.917407,496.645296 L1704.927383,495.230949 L1713.797488,493.21236 L1722.496327,490.60254 L1730.9925,487.4145 L1739.254611,483.661252 L1747.251262,479.355807 L1754.951055,474.511176 L1762.322593,469.14037 L1769.334478,463.256402 L1775.955313,456.872281 L1782.153699,450.00102 L1787.898241,442.65563 L1793.157539,434.849121 L1797.900197,426.594506 L1802.094816,417.904795 L1805.71,408.793 L1805.71,408.793 L1808.287,402.0694 L1811.133293,395.610597 L1814.238066,389.416584 L1817.590509,383.487356 L1821.17981,377.822908 L1824.995156,372.423234 L1829.025737,367.288328 L1833.260741,362.418185 L1837.689355,357.812799 L1842.30077,353.472164 L1847.084172,349.396274 L1852.02875,345.585125 L1857.123693,342.03871 L1862.358189,338.757024 L1867.721426,335.740061 L1873.202593,332.987815 L1878.790877,330.500281 L1884.475469,328.277453 L1890.245555,326.319326 L1896.090324,324.625894 L1901.998965,323.19715 L1907.960666,322.033091 L1913.964614,321.133709 L1920,320.499 L1920,320.478208 L1920,320.457417 L1920,320.436625 L1920,320.415833 L1920,320.395042 L1920,320.37425 L1920,320.353458 L1920,320.332667 L1920,320.311875 L1920,320.291083 L1920,320.270292 L1920,320.2495 L1920,320.228708 L1920,320.207917 L1920,320.187125 L1920,320.166333 L1920,320.145542 L1920,320.12475 L1920,320.103958 L1920,320.083167 L1920,320.062375 L1920,320.041583 L1920,320.020792 L1920,320 L1893.333333,320 L1866.666667,320 L1840,320 L1813.333333,320 L1786.666667,320 L1760,320 L1733.333333,320 L1706.666667,320 L1680,320 L1653.333333,320 L1626.666667,320 L1600,320 L1600,476.340438 Z" fill="#D9D9D6"/>
  <rect width="320" height="320" fill="#D9D9D6" x="1280" y="0"/>
  <path d="M1288.372299,158.786783 L1302.57,164.646 L1302.57,164.646 L1311.568621,168.533997 L1320.678553,171.713661 L1329.868398,174.198005 L1339.106759,176 L1348.362238,177.132777 L1357.603437,177.609228 L1366.79896,177.442405 L1375.917407,176.645319 L1384.927383,175.230981 L1393.797488,173.212403 L1402.496327,170.602598 L1410.9925,167.414575 L1419.254611,163.661347 L1427.251262,159.355926 L1434.951055,154.511322 L1442.322593,149.140548 L1449.334478,143.256615 L1455.955313,136.872534 L1462.153699,130.001318 L1467.898241,122.655977 L1473.157539,114.849523 L1477.900197,106.594968 L1482.094816,97.905323 L1485.71,88.7936 L1485.71,88.7936 L1488.287,82.069999 L1491.133293,75.611193 L1494.238066,69.417176 L1497.590509,63.487943 L1501.17981,57.823488 L1504.995156,52.423805 L1509.025737,47.288889 L1513.260741,42.418734 L1517.689355,37.813335 L1522.30077,33.472686 L1527.084172,29.396781 L1532.02875,25.585616 L1537.123693,22.039184 L1542.358189,18.757479 L1547.721426,15.740497 L1553.202593,12.988231 L1558.790877,10.500677 L1564.475469,8.277828 L1570.245555,6.319679 L1576.090324,4.626224 L1581.998965,3.197458 L1587.960666,2.033375 L1593.964614,1.133969 L1600,0.499236 L1600,0.499236 L1600,0.478436 L1600,0.457636 L1600,0.436836 L1600,0.416036 L1600,0.395236 L1600,0.374436 L1600,0.353636 L1600,0.332836 L1600,0.312036 L1600,0.291236 L1600,0.270436 L1600,0.249636 L1600,0.228836 L1600,0.208036 L1600,0.187236 L1600,0.166436 L1600,0.145636 L1600,0.124836 L1600,0.104036 L1600,0.083236 L1600,0.062436 L1600,0.041636 L1600,0.020836 L1600,0 L1600,0 L1573.333333,0 L1546.666667,0 L1520,0 L1493.333333,0 L1466.666667,0 L1440,0 L1413.333333,0 L1386.666667,0 L1360,0 L1333.333333,0 L1306.666667,0 L1280,0 L1280,156.340438 Z" fill="#121212"/>
  <rect width="320" height="320" fill="#D9D9D6" x="960" y="320"/>
  <path d="M1057.90205,522.095144 L1066.592025,517.901754 L1074.846914,513.160225 L1082.653704,507.901949 L1089.999382,502.158321 L1096.870937,495.960734 L1103.255357,489.340583 L1109.13963,482.329259 L1114.510742,474.958158 L1119.355683,467.258673 L1123.66144,459.262197 L1127.415,451.000125 L1130.603352,442.503849 L1133.213484,433.804764 L1135.232383,424.934264 L1136.647037,415.923741 L1137.444434,406.804589 L1137.611563,397.608203 L1137.135409,388.365976 L1136.002963,379.109301 L1134.201211,369.869572 L1131.717141,360.678183 L1128.537742,351.566528 L1124.65,342.566 L1124.65,342.566 L1118.79218,328.36778 L1116.347959,320 L960,320 L960,346.666667 L960,373.333333 L960,400 L960,426.666667 L960,453.333333 L960,480 L960,506.666667 L960,533.333333 L960,560 L960,586.666667 L960,613.333333 L960,640 L960.020792,640 L960.041583,640 L960.062375,640 L960.083167,640 L960.103958,640 L960.12475,640 L960.145542,640 L960.166333,640 L960.187125,640 L960.207917,640 L960.228708,640 L960.2495,640 L960.270292,640 L960.291083,640 L960.311875,640 L960.332667,640 L960.353458,640 L960.37425,640 L960.395042,640 L960.415833,640 L960.436625,640 L960.457417,640 L960.478208,640 L960.499,640 L961.135206,633.964135 L962.035839,627.959748 L963.200918,621.99765 L964.630463,616.088653 L966.324494,610.243567 L968.283031,604.473203 L970.506094,598.788373 L972.993704,593.199889 L975.745879,587.718561 L978.76264,582.3552 L982.044007,577.120617 L985.59,572.025625 L989.400639,567.081034 L993.475943,562.297655 L997.815934,557.686299 L1002.42063,553.257778 L1007.290051,549.022903 L1012.424219,544.992484 L1017.823152,541.177334 L1023.48687,537.588264 L1029.415395,534.236084 L1035.608744,531.131606 L1042.066939,528.285641 L1048.79,525.709 L1048.79,525.709 Z" fill="#121212"/>
  <rect width="320" height="320" fill="#D9D9D6" x="640" y="320"/>
  <path d="M801.211665,328.36778 L795.354,342.566 L795.354,342.566 L791.466003,351.566528 L788.286339,360.678183 L785.801994,369.869572 L784,379.109301 L782.867219,388.365976 L782.390766,397.608203 L782.557585,406.804589 L783.354667,415.923741 L784.768998,424.934264 L786.787568,433.804764 L789.397364,442.503849 L792.585375,451.000125 L796.338589,459.262197 L800.643995,467.258673 L805.48858,474.958158 L810.859333,482.329259 L816.743243,489.340583 L823.127297,495.960734 L829.998484,502.158321 L837.343792,507.901949 L845.150209,513.160225 L853.404724,517.901754 L862.094325,522.095144 L871.206,525.709 L871.206,525.709 L877.92954,528.285641 L884.388175,531.131606 L890.581926,534.236084 L896.510815,537.588264 L902.174864,541.177334 L907.574094,544.992484 L912.708527,549.022903 L917.578185,553.257778 L922.18309,557.686299 L926.523263,562.297655 L930.598726,567.081034 L934.4095,572.025625 L937.955608,577.120617 L941.237071,582.3552 L944.25391,587.718561 L947.006148,593.199889 L949.493806,598.788373 L951.716906,604.473203 L953.67547,610.243567 L955.369519,616.088653 L956.799074,621.99765 L957.964159,627.959748 L958.864793,633.964135 L959.501,640 L959.521792,640 L959.542583,640 L959.563375,640 L959.584167,640 L959.604958,640 L959.62575,640 L959.646542,640 L959.667333,640 L959.688125,640 L959.708917,640 L959.729708,640 L959.7505,640 L959.771292,640 L959.792083,640 L959.812875,640 L959.833667,640 L959.854458,640 L959.87525,640 L959.896042,640 L959.916833,640 L959.937625,640 L959.958417,640 L959.979208,640 L960,640 L960,613.333333 L960,586.666667 L960,560 L960,533.333333 L960,506.666667 L960,480 L960,453.333333 L960,426.666667 L960,400 L960,373.333333 L960,346.666667 L960,320 L803.655763,320 Z" fill="#121212"/>
  <rect width="320" height="320" fill="#FF4F00" x="320" y="640"/>
  <path d="M481.211665,648.36778 L475.354,662.566 L471.466003,671.566528 L468.286339,680.678183 L465.801994,689.869572 L464,699.109301 L462.867219,708.365976 L462.390766,717.608203 L462.557585,726.804589 L463.354667,735.923741 L464.768998,744.934264 L466.787568,753.804764 L469.397364,762.503849 L472.585375,771.000125 L476.338589,779.262197 L480.643995,787.258673 L485.48858,794.958158 L490.859333,802.329259 L496.743243,809.340583 L503.127297,815.960734 L509.998484,822.158321 L517.343792,827.901949 L525.150209,833.160225 L533.404724,837.901754 L542.094325,842.095144 L551.206,845.709 L551.206,845.709 L557.92954,848.285641 L564.388175,851.131606 L570.581926,854.236084 L576.510815,857.588264 L582.174864,861.177334 L587.574094,864.992484 L592.708527,869.022903 L597.578185,873.257778 L602.18309,877.686299 L606.523263,882.297655 L610.598726,887.081034 L614.4095,892.025625 L617.955608,897.120617 L621.237071,902.3552 L624.25391,907.718561 L627.006148,913.199889 L629.493806,918.788373 L631.716906,924.473203 L633.67547,930.243567 L635.369519,936.088653 L636.799074,941.99765 L637.964159,947.959748 L638.864793,953.964135 L639.501,960 L639.521792,960 L639.542583,960 L639.563375,960 L639.584167,960 L639.604958,960 L639.62575,960 L639.646542,960 L639.667333,960 L639.688125,960 L639.708917,960 L639.729708,960 L639.7505,960 L639.771292,960 L639.792083,960 L639.812875,960 L639.833667,960 L639.854458,960 L639.87525,960 L639.896042,960 L639.916833,960 L639.937625,960 L639.958417,960 L639.979208,960 L640,960 L640,933.333333 L640,906.666667 L640,880 L640,853.333333 L640,826.666667 L640,800 L640,773.333333 L640,746.666667 L640,720 L640,693.333333 L640,666.666667 L640,640 L483.655763,640 Z" fill="#D9D9D6"/>
  <rect width="320" height="320" fill="#FF4F00" x="1280" y="640"/>
  <path d="M1377.90205,842.095144 L1386.592025,837.901754 L1394.846914,833.160225 L1402.653704,827.901949 L1409.999382,822.158321 L1416.870937,815.960734 L1423.255357,809.340583 L1429.13963,802.329259 L1434.510742,794.958158 L1439.355683,787.258673 L1443.66144,779.262197 L1447.415,771.000125 L1450.603352,762.503849 L1453.213484,753.804764 L1455.232383,744.934264 L1456.647037,735.923741 L1457.444434,726.804589 L1457.611563,717.608203 L1457.135409,708.365976 L1456.002963,699.109301 L1454.201211,689.869572 L1451.717141,680.678183 L1448.537742,671.566528 L1444.65,662.566 L1444.65,662.566 L1438.79218,648.36778 L1436.347959,640 L1280,640 L1280,666.666667 L1280,693.333333 L1280,720 L1280,746.666667 L1280,773.333333 L1280,800 L1280,826.666667 L1280,853.333333 L1280,880 L1280,906.666667 L1280,933.333333 L1280,960 L1280.020833,960 L1280.041667,960 L1280.0625,960 L1280.083333,960 L1280.104167,960 L1280.125,960 L1280.145833,960 L1280.166667,960 L1280.1875,960 L1280.208333,960 L1280.229167,960 L1280.25,960 L1280.270833,960 L1280.291667,960 L1280.3125,960 L1280.333333,960 L1280.354167,960 L1280.375,960 L1280.395833,960 L1280.416667,960 L1280.4375,960 L1280.458333,960 L1280.479167,960 L1280.5,960 L1281.135992,953.964135 L1282.036476,947.959748 L1283.201465,941.99765 L1284.630972,936.088653 L1286.325011,930.243567 L1288.283594,924.473203 L1290.506734,918.788373 L1292.994444,913.199889 L1295.746738,907.718561 L1298.763628,902.3552 L1302.045128,897.120617 L1305.59125,892.025625 L1309.402007,887.081034 L1313.477413,882.297655 L1317.81748,877.686299 L1322.422222,873.257778 L1327.291651,869.022903 L1332.425781,864.992484 L1337.824625,861.177334 L1343.488194,857.588264 L1349.416504,854.236084 L1355.609566,851.131606 L1362.067394,848.285641 L1368.79,845.709 L1368.79,845.709 Z" fill="#D9D9D6"/>
  <rect width="320" height="320" fill="#D9D9D6" x="960" y="640"/>
  <path d="M1279.99 960L1280 960L1280 640L960 640C1136.2 640 1279.99 783.333 1279.99 960Z" fill="#D9D9D6"/>
  <path fill-rule="evenodd" clip-rule="evenodd" d="M1216 960C1216 818.615 1101.38 704 960 704L960 672C1119.06 672 1248 800.942 1248 960L1216 960Z" fill="#121212"/>
  <path fill-rule="evenodd" clip-rule="evenodd" d="M1152 960C1152 853.961 1066.04 768 960 768L960 736C1083.71 736 1184 836.288 1184 960L1152 960Z" fill="#121212"/>
  <path fill-rule="evenodd" clip-rule="evenodd" d="M1088 960C1088 889.308 1030.69 832 960 832L960 800C1048.37 800 1120 871.634 1120 960L1088 960Z" fill="#121212"/>
  <path fill-rule="evenodd" clip-rule="evenodd" d="M1024 960C1024 924.654 995.346 896 960 896L960 864C1013.02 864 1056 906.981 1056 960L1024 960Z" fill="#121212"/>
  <path fill-rule="evenodd" clip-rule="evenodd" d="M992 960L960 960L960 928C977.673 928 992 942.327 992 960Z" fill="#121212"/>
  <rect width="320" height="320" fill="#D9D9D6" x="640" y="640"/>
  <path d="M640.013 960L640 960L640 640L960 640C783.802 640 640.013 783.333 640.013 960Z" fill="#D9D9D6"/>
  <path fill-rule="evenodd" clip-rule="evenodd" d="M704 960C704 818.615 818.615 704 960 704L960 672C800.942 672 672 800.942 672 960L704 960Z" fill="#121212"/>
  <path fill-rule="evenodd" clip-rule="evenodd" d="M768 960C768 853.961 853.961 768 960 768L960 736C836.288 736 736 836.288 736 960L768 960Z" fill="#121212"/>
  <path fill-rule="evenodd" clip-rule="evenodd" d="M832 960C832 889.308 889.308 832 960 832L960 800C871.634 800 800 871.634 800 960L832 960Z" fill="#121212"/>
  <path fill-rule="evenodd" clip-rule="evenodd" d="M896 960C896 924.654 924.654 896 960 896L960 864C906.981 864 864 906.981 864 960L896 960Z" fill="#121212"/>
  <path fill-rule="evenodd" clip-rule="evenodd" d="M928 960L960 960L960 928C942.327 928 928 942.327 928 960Z" fill="#121212"/>
  <rect width="320" height="320" fill="#FF4F00" x="0" y="640"/>
  <path d="M275.818 902.81C238.516 889.545 220.863 846.933 237.862 811.167C264.853 754.38 205.613 695.141 148.833 722.138C113.074 739.137 70.4614 721.484 57.1902 684.182C47.429 656.736 24.2109 642.011 0 640L-1.39876e-05 960L320 960C317.982 935.789 303.264 912.571 275.818 902.81Z" fill="#FFA300"/>
  <rect width="320" height="320" fill="#FF4F00" x="1600" y="640"/>
  <path d="M1644.18 902.81C1681.48 889.545 1699.14 846.933 1682.14 811.167C1655.15 754.38 1714.39 695.141 1771.17 722.138C1806.93 739.137 1849.54 721.484 1862.81 684.182C1872.57 656.736 1895.79 642.011 1920 640L1920 960L1600 960C1602.02 935.789 1616.74 912.571 1644.18 902.81Z" fill="#4997D0"/>
</svg>
