<?xml version='1.0' encoding='UTF-8'?>
<svg xmlns="http://www.w3.org/2000/svg" width="1920" height="960" viewBox="0 0 1920 960">
<g clip-path="url(#clip0_75_3904)">
<rect width="1920" height="960" fill="#F3F3F3"/>
<g clip-path="url(#clip1_75_3904)">
<rect width="320" height="320" fill="#121212"/>
<path d="M320 0L0 0L0 320C0 143.27 143.27 0 320 0Z" fill="#D9D9D6"/>
</g>
<g clip-path="url(#clip2_75_3904)">
<rect width="320" height="320" transform="translate(640)" fill="#121212"/>
<path d="M960 0L640 0V320C640 143.27 783.27 0 960 0Z" fill="#D9D9D6"/>
</g>
<g clip-path="url(#clip3_75_3904)">
<rect width="320" height="320" transform="translate(1280)" fill="#121212"/>
<path d="M1600 0L1280 0V320C1280 143.27 1423.27 0 1600 0Z" fill="#D9D9D6"/>
</g>
<g clip-path="url(#clip4_75_3904)">
<rect width="320" height="320" transform="translate(960 320)" fill="#121212"/>
<path d="M1280 320L960 320V640C960 463.27 1103.27 320 1280 320Z" fill="#D9D9D6"/>
</g>
<g clip-path="url(#clip5_75_3904)">
<rect width="320" height="320" transform="translate(960 640) rotate(90)" fill="#FFA300"/>
<path fill-rule="evenodd" clip-rule="evenodd" d="M640.045 800L640 960L960 960L960 640L800.045 640.045C800.019 728.41 728.385 800.026 640.045 800Z" fill="#FF4F00"/>
</g>
<g clip-path="url(#clip6_75_3904)">
<rect width="320" height="320" transform="matrix(4.37114e-08 -1 -1 -4.37114e-08 640 320)" fill="#D9D9D6"/>
<path d="M640 319.91L320.09 320L320 -4.45052e-05C496.68 -0.0512148 639.949 143.181 640 319.91Z" fill="#121212"/>
<ellipse cx="80" cy="40" rx="80" ry="40" transform="matrix(-1 0 0 1 512 176)" fill="#F3F3F3"/>
<ellipse cx="40" cy="40" rx="40" ry="40" transform="matrix(1 8.74228e-08 8.74228e-08 -1 392 256)" fill="#121212"/>
</g>
<g clip-path="url(#clip7_75_3904)">
<rect width="320" height="320" transform="matrix(4.37114e-08 -1 -1 -4.37114e-08 1280 320)" fill="#D9D9D6"/>
<path d="M1280 319.91L960.09 320L960 -4.45052e-05C1136.68 -0.0512148 1279.95 143.181 1280 319.91Z" fill="#121212"/>
<ellipse cx="80" cy="40" rx="80" ry="40" transform="matrix(-1 0 0 1 1152 176)" fill="#F3F3F3"/>
<ellipse cx="40" cy="40" rx="40" ry="40" transform="matrix(1 8.74228e-08 8.74228e-08 -1 1032 256)" fill="#121212"/>
</g>
<g clip-path="url(#clip8_75_3904)">
<rect width="320" height="320" transform="matrix(4.37114e-08 -1 -1 -4.37114e-08 1920 320)" fill="#D9D9D6"/>
<path d="M1920 319.91L1600.09 320L1600 -4.45052e-05C1776.68 -0.0512148 1919.95 143.181 1920 319.91Z" fill="#121212"/>
<ellipse cx="80" cy="40" rx="80" ry="40" transform="matrix(-1 0 0 1 1792 176)" fill="#F3F3F3"/>
<ellipse cx="40" cy="40" rx="40" ry="40" transform="matrix(1 8.74228e-08 8.74228e-08 -1 1672 256)" fill="#121212"/>
</g>
<g clip-path="url(#clip9_75_3904)">
<rect width="320" height="320" transform="matrix(4.37114e-08 -1 -1 -4.37114e-08 1600 640)" fill="#FF4F00"/>
<path d="M1600 639.91L1280.09 640L1280 320C1456.68 319.949 1599.95 463.181 1600 639.91Z" fill="#121212"/>
<ellipse cx="80" cy="40" rx="80" ry="40" transform="matrix(-1 0 0 1 1472 496)" fill="#F3F3F3"/>
<ellipse cx="40" cy="40" rx="40" ry="40" transform="matrix(1 8.74228e-08 8.74228e-08 -1 1352 576)" fill="#121212"/>
</g>
<g clip-path="url(#clip10_75_3904)">
<rect width="320" height="320" transform="translate(640 960) rotate(-180)" fill="#FFA300"/>
<path fill-rule="evenodd" clip-rule="evenodd" d="M480 640.045L320 640L320 960L640 960L639.955 800.045C551.59 800.019 479.974 728.385 480 640.045Z" fill="#D9D9D6"/>
</g>
<g clip-path="url(#clip11_75_3904)">
<rect width="320" height="320" transform="matrix(-1 0 0 1 640 320)" fill="#D9D9D6"/>
<path d="M640 320Lnan nanL640 320C570.732 409.361 518.601 510.771 486.241 619.106L480 640L640 640L640 320Z" fill="#FFA300"/>
</g>
<g clip-path="url(#clip12_75_3904)">
<rect width="320" height="320" transform="matrix(-1 0 0 1 1600 640)" fill="#FF4F00"/>
<path d="M1600 640Lnan nanL1600 640C1530.73 729.361 1478.6 830.771 1446.24 939.106L1440 960L1600 960L1600 640Z" fill="#FFA300"/>
</g>
<g clip-path="url(#clip13_75_3904)">
<rect width="320" height="320" transform="translate(1920 640) rotate(90)" fill="#D9D9D6"/>
<path d="M1600 640L-nan -nanL1600 640C1669.27 729.361 1721.4 830.771 1753.76 939.106L1760 960L1600 960V640Z" fill="#FFA300"/>
<path d="M1919.96 800L1920 640.045L1760 640C1759.97 728.34 1831.59 799.974 1919.96 800Z" fill="#FFA300"/>
</g>
<g clip-path="url(#clip14_75_3904)">
<rect width="320" height="320" transform="translate(640 320)" fill="#FF4F00"/>
<path d="M640 320Lnan nanL640 320C709.268 409.361 761.399 510.771 793.759 619.106L800 640L640 640L640 320Z" fill="#FFA300"/>
</g>
<g clip-path="url(#clip15_75_3904)">
<rect width="320" height="320" transform="matrix(-1 0 0 1 1920 320)" fill="#D9D9D6"/>
<path d="M1920 320Lnan nanL1920 320C1850.73 409.361 1798.6 510.771 1766.24 619.106L1760 640L1920 640L1920 320Z" fill="#FFA300"/>
</g>
<rect width="320" height="320" transform="translate(320 320) rotate(90)" fill="#F3F3F3"/>
<g clip-path="url(#clip16_75_3904)">
<path d="M319.987 640L320 640L320 320L0 320C176.198 320 319.987 463.333 319.987 640Z" fill="#121212"/>
<path fill-rule="evenodd" clip-rule="evenodd" d="M256 640C256 498.615 141.385 384 2.23802e-05 384L2.51778e-05 352C159.058 352 288 480.942 288 640L256 640Z" fill="#121212"/>
</g>
<path fill-rule="evenodd" clip-rule="evenodd" d="M192 640C192 533.961 106.039 448 3.2044e-05 448L3.48415e-05 416C123.712 416 224 516.288 224 640L192 640Z" fill="#121212"/>
<path fill-rule="evenodd" clip-rule="evenodd" d="M128 640C128 569.308 70.6925 512 1.11901e-05 512L1.39876e-05 480C88.3656 480 160 551.634 160 640L128 640Z" fill="#121212"/>
<path fill-rule="evenodd" clip-rule="evenodd" d="M64 640C64 604.654 35.3462 576 -2.03434e-06 576L7.63192e-07 544C53.0193 544 96 586.981 96 640L64 640Z" fill="#121212"/>
<path fill-rule="evenodd" clip-rule="evenodd" d="M32 640L1.90735e-06 640L4.70488e-06 608C17.6731 608 32 622.327 32 640Z" fill="#121212"/>
<rect width="320" height="320" transform="translate(1280 640) rotate(90)" fill="#F3F3F3"/>
<g clip-path="url(#clip17_75_3904)">
<path d="M1279.99 960L1280 960L1280 640L960 640C1136.2 640 1279.99 783.333 1279.99 960Z" fill="#121212"/>
<path fill-rule="evenodd" clip-rule="evenodd" d="M1216 960C1216 818.615 1101.38 704 960 704L960 672C1119.06 672 1248 800.942 1248 960L1216 960Z" fill="#121212"/>
</g>
<path fill-rule="evenodd" clip-rule="evenodd" d="M1152 960C1152 853.961 1066.04 768 960 768L960 736C1083.71 736 1184 836.288 1184 960L1152 960Z" fill="#121212"/>
<path fill-rule="evenodd" clip-rule="evenodd" d="M1088 960C1088 889.308 1030.69 832 960 832L960 800C1048.37 800 1120 871.634 1120 960L1088 960Z" fill="#121212"/>
<path fill-rule="evenodd" clip-rule="evenodd" d="M1024 960C1024 924.654 995.346 896 960 896L960 864C1013.02 864 1056 906.981 1056 960L1024 960Z" fill="#121212"/>
<path fill-rule="evenodd" clip-rule="evenodd" d="M992 960L960 960L960 928C977.673 928 992 942.327 992 960Z" fill="#121212"/>
<rect width="320" height="320" transform="translate(0 640)" fill="#F3F3F3"/>
<g clip-path="url(#clip18_75_3904)">
<path d="M320 640.013V640H0L0 960C0 783.802 143.333 640.013 320 640.013Z" fill="#121212"/>
<path fill-rule="evenodd" clip-rule="evenodd" d="M320 704C178.615 704 64 818.615 64 960L32 960C32 800.942 160.942 672 320 672L320 704Z" fill="#121212"/>
</g>
<g clip-path="url(#clip19_75_3904)">
<path fill-rule="evenodd" clip-rule="evenodd" d="M320 768C213.961 768 128 853.961 128 960L96 960C96 836.288 196.288 736 320 736L320 768Z" fill="#121212"/>
<path fill-rule="evenodd" clip-rule="evenodd" d="M320 832C249.308 832 192 889.308 192 960L160 960C160 871.634 231.634 800 320 800L320 832Z" fill="#121212"/>
<path fill-rule="evenodd" clip-rule="evenodd" d="M320 896C284.654 896 256 924.654 256 960L224 960C224 906.981 266.981 864 320 864L320 896Z" fill="#121212"/>
<path fill-rule="evenodd" clip-rule="evenodd" d="M320 928L320 960L288 960C288 942.327 302.327 928 320 928Z" fill="#121212"/>
</g>
</g>
<defs>
<clipPath id="clip0_75_3904">
<rect width="1920" height="960" fill="#FFFFFF"/>
</clipPath>
<clipPath id="clip1_75_3904">
<rect width="320" height="320" fill="#FFFFFF"/>
</clipPath>
<clipPath id="clip2_75_3904">
<rect width="320" height="320" fill="#FFFFFF" transform="translate(640)"/>
</clipPath>
<clipPath id="clip3_75_3904">
<rect width="320" height="320" fill="#FFFFFF" transform="translate(1280)"/>
</clipPath>
<clipPath id="clip4_75_3904">
<rect width="320" height="320" fill="#FFFFFF" transform="translate(960 320)"/>
</clipPath>
<clipPath id="clip5_75_3904">
<rect width="320" height="320" fill="#FFFFFF" transform="translate(960 640) rotate(90)"/>
</clipPath>
<clipPath id="clip6_75_3904">
<rect width="320" height="320" fill="#FFFFFF" transform="matrix(4.37114e-08 -1 -1 -4.37114e-08 640 320)"/>
</clipPath>
<clipPath id="clip7_75_3904">
<rect width="320" height="320" fill="#FFFFFF" transform="matrix(4.37114e-08 -1 -1 -4.37114e-08 1280 320)"/>
</clipPath>
<clipPath id="clip8_75_3904">
<rect width="320" height="320" fill="#FFFFFF" transform="matrix(4.37114e-08 -1 -1 -4.37114e-08 1920 320)"/>
</clipPath>
<clipPath id="clip9_75_3904">
<rect width="320" height="320" fill="#FFFFFF" transform="matrix(4.37114e-08 -1 -1 -4.37114e-08 1600 640)"/>
</clipPath>
<clipPath id="clip10_75_3904">
<rect width="320" height="320" fill="#FFFFFF" transform="translate(640 960) rotate(-180)"/>
</clipPath>
<clipPath id="clip11_75_3904">
<rect width="320" height="320" fill="#FFFFFF" transform="matrix(-1 0 0 1 640 320)"/>
</clipPath>
<clipPath id="clip12_75_3904">
<rect width="320" height="320" fill="#FFFFFF" transform="matrix(-1 0 0 1 1600 640)"/>
</clipPath>
<clipPath id="clip13_75_3904">
<rect width="320" height="320" fill="#FFFFFF" transform="translate(1920 640) rotate(90)"/>
</clipPath>
<clipPath id="clip14_75_3904">
<rect width="320" height="320" fill="#FFFFFF" transform="translate(640 320)"/>
</clipPath>
<clipPath id="clip15_75_3904">
<rect width="320" height="320" fill="#FFFFFF" transform="matrix(-1 0 0 1 1920 320)"/>
</clipPath>
<clipPath id="clip16_75_3904">
<rect width="320" height="320" fill="#FFFFFF" transform="translate(320 320) rotate(90)"/>
</clipPath>
<clipPath id="clip17_75_3904">
<rect width="320" height="320" fill="#FFFFFF" transform="translate(1280 640) rotate(90)"/>
</clipPath>
<clipPath id="clip18_75_3904">
<rect width="320" height="320" fill="#FFFFFF" transform="translate(0 640)"/>
</clipPath>
<clipPath id="clip19_75_3904">
<rect width="320" height="320" fill="#FFFFFF" transform="translate(0 640)"/>
</clipPath>
</defs>
</svg>
