<?xml version='1.0' encoding='UTF-8'?>
<svg xmlns="http://www.w3.org/2000/svg" width="1920" height="960" viewBox="0 0 1920 960">
<g clip-path="url(#clip0_75_3941)">
<rect width="1920" height="960" fill="#F3F3F3"/>
<g clip-path="url(#clip1_75_3941)">
<rect width="320" height="320" fill="#FF4F00"/>
<g clip-path="url(#clip2_75_3941)">
<path d="M23.4176 308C30.6304 307.099 40.5504 306.13 54.1568 305.224C83.3088 303.279 120.902 302.211 160 302.211C199.098 302.211 236.691 303.279 265.843 305.224C279.45 306.13 289.37 307.093 296.582 308C289.37 308.901 279.45 309.87 265.843 310.776C236.691 312.72 199.098 313.789 160 313.789C120.902 313.789 83.3088 312.72 54.1568 310.776C40.5504 309.87 30.6304 308.907 23.4176 308ZM-5.24537e-07 308C-2.34847e-07 314.627 71.6352 320 160 320C248.365 320 320 314.627 320 308C320 301.373 248.365 296 160 296C71.6352 296 -8.14226e-07 301.373 -5.24537e-07 308Z" fill="#121212"/>
<path d="M6.4 270.667C6.4 268.283 14.08 259.812 48.2176 252.417C78.0032 245.964 117.702 242.408 160 242.408C202.298 242.408 241.997 245.964 271.782 252.417C305.914 259.812 313.6 268.283 313.6 270.667C313.6 273.05 305.92 281.522 271.782 288.916C241.997 295.369 202.298 298.925 160 298.925C117.702 298.925 78.0032 295.369 48.2176 288.916C14.08 281.515 6.4 273.05 6.4 270.667ZM-1.51533e-06 270.667C-6.78676e-07 289.807 71.6352 305.333 160 305.333C248.365 305.333 320 289.813 320 270.667C320 251.52 248.365 236 160 236C71.6352 236 -2.35226e-06 251.52 -1.51533e-06 270.667Z" fill="#121212"/>
<path d="M6.4 234C6.4 228.319 9.8624 222.543 16.6912 216.824C24.0576 210.659 35.232 204.819 49.0048 199.941C78.5536 189.479 117.971 183.715 160 183.715C202.029 183.715 241.446 189.479 270.995 199.941C284.768 204.819 295.942 210.659 303.309 216.824C310.138 222.543 313.6 228.319 313.6 234C313.6 239.681 310.138 245.457 303.309 251.176C295.942 257.341 284.768 263.181 270.995 268.059C241.446 278.521 202.029 284.285 160 284.285C117.971 284.285 78.5536 278.521 49.0048 268.059C35.232 263.181 24.0576 257.341 16.6912 251.176C9.8624 245.457 6.4 239.681 6.4 234ZM-2.47698e-06 234C-1.1089e-06 265.298 71.6352 290.667 160 290.667C248.365 290.667 320 265.298 320 234C320 202.702 248.365 177.333 160 177.333C71.6352 177.333 -3.84478e-06 202.708 -2.47698e-06 234Z" fill="#121212"/>
<path d="M6.4 196.667C6.4 187.531 10.112 178.543 17.44 169.959C24.9344 161.176 35.7888 153.221 49.7024 146.325C79.0592 131.768 118.227 123.755 160 123.755C201.773 123.755 240.947 131.768 270.298 146.325C284.211 153.221 295.066 161.176 302.56 169.959C309.882 178.543 313.6 187.531 313.6 196.667C313.6 205.802 309.888 214.79 302.56 223.374C295.066 232.157 284.211 240.112 270.298 247.009C240.941 261.565 201.773 269.578 160 269.578C118.227 269.578 79.0528 261.565 49.7024 247.009C35.7888 240.112 24.9344 232.157 17.44 223.374C10.1184 214.79 6.4 205.802 6.4 196.667ZM-3.46777e-06 196.667C-1.55273e-06 240.478 71.6352 276 160 276C248.365 276 320 240.484 320 196.667C320 152.849 248.365 117.333 160 117.333C71.6352 117.333 -5.38281e-06 152.856 -3.46777e-06 196.667Z" fill="#121212"/>
<path d="M6.4 160.673C6.39999 148.197 10.2656 136.042 17.8944 124.544C25.4528 113.15 36.352 102.868 50.2848 93.9843C64.4288 84.9649 80.9472 77.877 99.3728 72.907C118.56 67.731 138.957 65.1109 159.994 65.1109C181.03 65.1109 201.427 67.731 220.614 72.907C239.04 77.877 255.558 84.9649 269.702 93.9843C283.635 102.868 294.534 113.15 302.093 124.544C309.722 136.042 313.587 148.197 313.587 160.673C313.587 173.15 309.722 185.304 302.093 196.802C294.534 208.197 283.635 218.478 269.702 227.362C255.558 236.381 239.04 243.469 220.614 248.439C201.427 253.615 181.03 256.235 159.994 256.235C138.957 256.235 118.554 253.615 99.3728 248.439C80.9472 243.469 64.4288 236.381 50.2848 227.362C36.352 218.478 25.4528 208.197 17.8944 196.802C10.2656 185.304 6.4 173.15 6.4 160.673ZM-4.45828e-06 160.673C-1.996e-06 217.004 71.6352 262.667 160 262.667C248.365 262.667 320 217.004 320 160.667C320 104.33 248.365 58.6667 160 58.6667C71.6352 58.6667 -6.92056e-06 104.343 -4.45828e-06 160.673Z" fill="#121212"/>
<path d="M6.39999 124.006C6.39999 59.1699 75.3024 6.42398 160 6.42397C244.698 6.42397 313.6 59.1698 313.6 124.006C313.6 188.843 244.698 241.589 160 241.589C75.3024 241.589 6.4 188.837 6.39999 124.006ZM-5.41993e-06 124.006C-2.4265e-06 192.488 71.6352 248 160 248C248.365 248 320 192.482 320 124C320 55.5183 248.365 -1.08564e-05 160 -6.99382e-06C71.6352 -3.13127e-06 -8.41336e-06 55.5247 -5.41993e-06 124.006Z" fill="#121212"/>
</g>
</g>
<g clip-path="url(#clip3_75_3941)">
<rect width="320" height="320" transform="matrix(0 -1 1 0 0 960)" fill="#4997D0"/>
<g clip-path="url(#clip4_75_3941)">
<path d="M308 936.582C307.099 929.37 306.13 919.45 305.224 905.843C303.279 876.691 302.211 839.098 302.211 800C302.211 760.902 303.279 723.309 305.224 694.157C306.13 680.55 307.093 670.63 308 663.418C308.901 670.63 309.87 680.55 310.776 694.157C312.72 723.309 313.789 760.902 313.789 800C313.789 839.098 312.72 876.691 310.776 905.843C309.87 919.45 308.907 929.37 308 936.582ZM308 960C314.627 960 320 888.365 320 800C320 711.635 314.627 640 308 640C301.373 640 296 711.635 296 800C296 888.365 301.373 960 308 960Z" fill="#121212"/>
<path d="M270.666 953.6C268.283 953.6 259.811 945.92 252.417 911.782C245.964 881.997 242.408 842.298 242.408 800C242.408 757.702 245.964 718.003 252.417 688.218C259.811 654.086 268.283 646.4 270.666 646.4C273.05 646.4 281.521 654.08 288.916 688.218C295.369 718.003 298.925 757.702 298.925 800C298.925 842.298 295.369 881.997 288.916 911.782C281.515 945.92 273.05 953.6 270.666 953.6ZM270.666 960C289.807 960 305.333 888.365 305.333 800C305.333 711.635 289.813 640 270.666 640C251.52 640 236 711.635 236 800C236 888.365 251.52 960 270.666 960Z" fill="#121212"/>
<path d="M234 953.6C228.32 953.6 222.543 950.138 216.824 943.309C210.659 935.942 204.819 924.768 199.942 910.995C189.479 881.446 183.716 842.029 183.716 800C183.716 757.971 189.479 718.554 199.942 689.005C204.819 675.232 210.659 664.058 216.824 656.691C222.543 649.862 228.32 646.4 234 646.4C239.681 646.4 245.457 649.862 251.176 656.691C257.342 664.058 263.182 675.232 268.059 689.005C278.521 718.554 284.285 757.971 284.285 800C284.285 842.029 278.521 881.446 268.059 910.995C263.182 924.768 257.342 935.942 251.176 943.309C245.457 950.138 239.681 953.6 234 953.6ZM234 960C265.298 960 290.667 888.365 290.667 800C290.667 711.635 265.298 640 234 640C202.702 640 177.334 711.635 177.334 800C177.334 888.365 202.709 960 234 960Z" fill="#121212"/>
<path d="M196.667 953.6C187.531 953.6 178.543 949.888 169.959 942.56C161.176 935.066 153.221 924.211 146.325 910.298C131.768 880.941 123.755 841.773 123.755 800C123.755 758.227 131.768 719.053 146.325 689.702C153.221 675.789 161.176 664.934 169.959 657.44C178.543 650.118 187.531 646.4 196.667 646.4C205.802 646.4 214.79 650.112 223.374 657.44C232.157 664.934 240.112 675.789 247.009 689.702C261.565 719.059 269.578 758.227 269.578 800C269.578 841.773 261.565 880.947 247.009 910.298C240.112 924.211 232.157 935.066 223.374 942.56C214.79 949.882 205.802 953.6 196.667 953.6ZM196.667 960C240.478 960 276 888.365 276 800C276 711.635 240.484 640 196.667 640C152.849 640 117.333 711.635 117.333 800C117.333 888.365 152.856 960 196.667 960Z" fill="#121212"/>
<path d="M160.673 953.6C148.197 953.6 136.043 949.734 124.545 942.106C113.15 934.547 102.869 923.648 93.9846 909.715C84.9653 895.571 77.8773 879.053 72.9073 860.627C67.7313 841.44 65.1112 821.043 65.1112 800.006C65.1112 778.97 67.7313 758.573 72.9073 739.386C77.8773 720.96 84.9652 704.442 93.9846 690.298C102.869 676.365 113.15 665.466 124.545 657.907C136.043 650.278 148.197 646.413 160.673 646.413C173.15 646.413 185.304 650.278 196.802 657.907C208.197 665.466 218.478 676.365 227.362 690.298C236.382 704.442 243.47 720.96 248.44 739.386C253.615 758.573 256.236 778.97 256.236 800.006C256.236 821.043 253.615 841.446 248.44 860.627C243.47 879.053 236.382 895.571 227.362 909.715C218.478 923.648 208.197 934.547 196.802 942.106C185.304 949.734 173.15 953.6 160.673 953.6ZM160.673 960C217.004 960 262.667 888.365 262.667 800C262.667 711.635 217.004 640 160.667 640C104.33 640 58.667 711.635 58.667 800C58.667 888.365 104.343 960 160.673 960Z" fill="#121212"/>
<path d="M124.006 953.6C59.1699 953.6 6.42398 884.698 6.42397 800C6.42397 715.302 59.1698 646.4 124.006 646.4C188.843 646.4 241.589 715.302 241.589 800C241.589 884.698 188.837 953.6 124.006 953.6ZM124.006 960C192.488 960 248 888.365 248 800C248 711.635 192.482 640 124 640C55.5183 640 -1.08564e-05 711.635 -6.99382e-06 800C-3.13127e-06 888.365 55.5247 960 124.006 960Z" fill="#121212"/>
</g>
</g>
<rect width="320" height="320" transform="translate(0 320)" fill="#4997D0"/>
<path fill-rule="evenodd" clip-rule="evenodd" d="M16 640L16 320L24 320L24 640L16 640Z" fill="#121212"/>
<path fill-rule="evenodd" clip-rule="evenodd" d="M192 640L192 320L200 320L200 640L192 640Z" fill="#121212"/>
<path fill-rule="evenodd" clip-rule="evenodd" d="M56 640L56 320L64 320L64 640L56 640Z" fill="#121212"/>
<path fill-rule="evenodd" clip-rule="evenodd" d="M224 640L224 320L232 320L232 640L224 640Z" fill="#121212"/>
<path fill-rule="evenodd" clip-rule="evenodd" d="M96 640L96 320L104 320L104 640L96 640Z" fill="#121212"/>
<path fill-rule="evenodd" clip-rule="evenodd" d="M256 640L256 320L264 320L264 640L256 640Z" fill="#121212"/>
<path fill-rule="evenodd" clip-rule="evenodd" d="M128 640L128 320L136 320L136 640L128 640Z" fill="#121212"/>
<path fill-rule="evenodd" clip-rule="evenodd" d="M280 640L280 320L288 320L288 640L280 640Z" fill="#121212"/>
<path fill-rule="evenodd" clip-rule="evenodd" d="M304 640L304 320L312 320L312 640L304 640Z" fill="#121212"/>
<path fill-rule="evenodd" clip-rule="evenodd" d="M160 640L160 320L168 320L168 640L160 640Z" fill="#121212"/>
<rect width="320" height="320" transform="translate(640)" fill="#FF4F00"/>
<path fill-rule="evenodd" clip-rule="evenodd" d="M656 320L656 3.49691e-07L664 0L664 320L656 320Z" fill="#121212"/>
<path fill-rule="evenodd" clip-rule="evenodd" d="M832 320L832 3.49691e-07L840 0L840 320L832 320Z" fill="#121212"/>
<path fill-rule="evenodd" clip-rule="evenodd" d="M696 320L696 3.49691e-07L704 0L704 320L696 320Z" fill="#121212"/>
<path fill-rule="evenodd" clip-rule="evenodd" d="M864 320L864 3.49691e-07L872 0L872 320L864 320Z" fill="#121212"/>
<path fill-rule="evenodd" clip-rule="evenodd" d="M736 320L736 3.49691e-07L744 0L744 320L736 320Z" fill="#121212"/>
<path fill-rule="evenodd" clip-rule="evenodd" d="M896 320L896 3.49691e-07L904 0L904 320L896 320Z" fill="#121212"/>
<path fill-rule="evenodd" clip-rule="evenodd" d="M768 320L768 3.49691e-07L776 0L776 320L768 320Z" fill="#121212"/>
<path fill-rule="evenodd" clip-rule="evenodd" d="M920 320L920 3.49691e-07L928 0L928 320L920 320Z" fill="#121212"/>
<path fill-rule="evenodd" clip-rule="evenodd" d="M944 320L944 3.49691e-07L952 0L952 320L944 320Z" fill="#121212"/>
<path fill-rule="evenodd" clip-rule="evenodd" d="M800 320L800 3.49691e-07L808 0L808 320L800 320Z" fill="#121212"/>
<rect width="320" height="320" transform="matrix(0 -1 1 0 640 960)" fill="#FF4F00"/>
<path fill-rule="evenodd" clip-rule="evenodd" d="M960 944L640 944L640 936L960 936L960 944Z" fill="#121212"/>
<path fill-rule="evenodd" clip-rule="evenodd" d="M960 768L640 768L640 760L960 760L960 768Z" fill="#121212"/>
<path fill-rule="evenodd" clip-rule="evenodd" d="M960 904L640 904L640 896L960 896L960 904Z" fill="#121212"/>
<path fill-rule="evenodd" clip-rule="evenodd" d="M960 736L640 736L640 728L960 728L960 736Z" fill="#121212"/>
<path fill-rule="evenodd" clip-rule="evenodd" d="M960 864L640 864L640 856L960 856L960 864Z" fill="#121212"/>
<path fill-rule="evenodd" clip-rule="evenodd" d="M960 704L640 704L640 696L960 696L960 704Z" fill="#121212"/>
<path fill-rule="evenodd" clip-rule="evenodd" d="M960 832L640 832L640 824L960 824L960 832Z" fill="#121212"/>
<path fill-rule="evenodd" clip-rule="evenodd" d="M960 680L640 680L640 672L960 672L960 680Z" fill="#121212"/>
<path fill-rule="evenodd" clip-rule="evenodd" d="M960 656L640 656L640 648L960 648L960 656Z" fill="#121212"/>
<path fill-rule="evenodd" clip-rule="evenodd" d="M960 800L640 800L640 792L960 792L960 800Z" fill="#121212"/>
<g clip-path="url(#clip5_75_3941)">
<rect width="320" height="320" transform="matrix(0 1 -1 0 959.999 320)" fill="#4997D0"/>
<g clip-path="url(#clip6_75_3941)">
<path d="M651.999 343.417C652.9 350.63 653.869 360.55 654.775 374.157C656.72 403.309 657.788 440.902 657.788 480C657.788 519.097 656.72 556.691 654.775 585.843C653.869 599.449 652.906 609.37 651.999 616.582C651.098 609.37 650.129 599.449 649.223 585.843C647.279 556.691 646.21 519.097 646.21 480C646.21 440.902 647.279 403.309 649.223 374.157C650.129 360.55 651.092 350.63 651.999 343.417ZM651.999 320C645.372 320 639.999 391.635 639.999 480C639.999 568.365 645.372 640 651.999 640C658.626 640 663.999 568.365 663.999 480C663.999 391.635 658.626 320 651.999 320Z" fill="#121212"/>
<path d="M689.333 326.4C691.716 326.4 700.188 334.08 707.582 368.217C714.035 398.003 717.591 437.702 717.591 480C717.591 522.297 714.035 561.997 707.582 591.782C700.188 625.914 691.716 633.6 689.333 633.6C686.949 633.6 678.478 625.92 671.083 591.782C664.63 561.997 661.074 522.297 661.074 480C661.074 437.702 664.63 398.003 671.083 368.217C678.484 334.08 686.949 326.4 689.333 326.4ZM689.333 320C670.192 320 654.666 391.635 654.666 480C654.666 568.365 670.186 640 689.333 640C708.479 640 723.999 568.365 723.999 480C723.999 391.635 708.479 320 689.333 320Z" fill="#121212"/>
<path d="M725.999 326.4C731.679 326.4 737.456 329.862 743.175 336.691C749.34 344.057 755.18 355.232 760.057 369.005C770.52 398.553 776.283 437.971 776.283 480C776.283 522.029 770.52 561.446 760.057 590.995C755.18 604.768 749.34 615.942 743.175 623.309C737.456 630.138 731.679 633.6 725.999 633.6C720.318 633.6 714.542 630.138 708.823 623.309C702.658 615.942 696.817 604.768 691.94 590.995C681.478 561.446 675.714 522.029 675.714 480C675.714 437.971 681.478 398.553 691.94 369.005C696.817 355.232 702.657 344.057 708.823 336.691C714.542 329.862 720.318 326.4 725.999 326.4ZM725.999 320C694.701 320 669.332 391.635 669.332 480C669.332 568.365 694.701 640 725.999 640C757.297 640 782.665 568.365 782.665 480C782.665 391.635 757.29 320 725.999 320Z" fill="#121212"/>
<path d="M763.332 326.4C772.468 326.4 781.456 330.112 790.04 337.44C798.823 344.934 806.778 355.789 813.674 369.702C828.231 399.059 836.244 438.227 836.244 480C836.244 521.773 828.231 560.947 813.674 590.297C806.778 604.211 798.823 615.065 790.04 622.56C781.456 629.882 772.468 633.6 763.332 633.6C754.197 633.6 745.209 629.888 736.625 622.56C727.842 615.065 719.887 604.211 712.99 590.297C698.434 560.941 690.421 521.773 690.421 480C690.421 438.227 698.434 399.053 712.99 369.702C719.887 355.789 727.842 344.934 736.625 337.44C745.209 330.118 754.197 326.4 763.332 326.4ZM763.332 320C719.521 320 683.999 391.635 683.999 480C683.999 568.365 719.515 640 763.332 640C807.15 640 842.666 568.365 842.666 480C842.666 391.635 807.143 320 763.332 320Z" fill="#121212"/>
<path d="M799.326 326.4C811.802 326.4 823.957 330.265 835.454 337.894C846.849 345.453 857.13 356.352 866.014 370.285C875.034 384.429 882.122 400.947 887.092 419.373C892.268 438.56 894.888 458.957 894.888 479.993C894.888 501.03 892.268 521.427 887.092 540.614C882.122 559.04 875.034 575.558 866.014 589.702C857.13 603.635 846.849 614.534 835.454 622.093C823.957 629.721 811.802 633.587 799.326 633.587C786.849 633.587 774.695 629.721 763.197 622.093C751.802 614.534 741.521 603.635 732.637 589.702C723.617 575.558 716.529 559.04 711.56 540.614C706.384 521.427 703.763 501.03 703.763 479.994C703.763 458.957 706.384 438.553 711.56 419.373C716.529 400.947 723.617 384.429 732.637 370.285C741.521 356.352 751.802 345.453 763.197 337.894C774.695 330.265 786.849 326.4 799.326 326.4ZM799.326 320C742.995 320 697.332 391.635 697.332 480C697.332 568.365 742.995 640 799.332 640C855.669 640 901.332 568.365 901.332 480C901.332 391.635 855.656 320 799.326 320Z" fill="#121212"/>
<path d="M835.993 326.4C900.829 326.4 953.575 395.302 953.575 480C953.575 564.697 900.829 633.6 835.993 633.6C771.156 633.6 718.41 564.697 718.41 480C718.41 395.302 771.162 326.4 835.993 326.4ZM835.993 320C767.511 320 711.999 391.635 711.999 480C711.999 568.365 767.517 640 835.999 640C904.481 640 959.999 568.365 959.999 480C959.999 391.635 904.474 320 835.993 320Z" fill="#121212"/>
</g>
</g>
<g clip-path="url(#clip7_75_3941)">
<rect width="320" height="320" transform="matrix(0 1 -1 0 1600 6.10352e-05)" fill="#F3F3F3"/>
<g clip-path="url(#clip8_75_3941)">
<path d="M1292 23.4177C1292.9 30.6305 1293.87 40.5505 1294.78 54.1569C1296.72 83.3089 1297.79 120.902 1297.79 160C1297.79 199.098 1296.72 236.691 1294.78 265.843C1293.87 279.45 1292.91 289.37 1292 296.582C1291.1 289.37 1290.13 279.45 1289.22 265.843C1287.28 236.691 1286.21 199.098 1286.21 160C1286.21 120.902 1287.28 83.3089 1289.22 54.1569C1290.13 40.5505 1291.09 30.6305 1292 23.4177ZM1292 6.05106e-05C1285.37 6.08003e-05 1280 71.6353 1280 160C1280 248.365 1285.37 320 1292 320C1298.63 320 1304 248.365 1304 160C1304 71.6353 1298.63 6.02209e-05 1292 6.05106e-05Z" fill="#121212"/>
<path d="M1329.33 6.40006C1331.72 6.40006 1340.19 14.0801 1347.58 48.2177C1354.04 78.0033 1357.59 117.702 1357.59 160C1357.59 202.298 1354.04 241.997 1347.58 271.783C1340.19 305.914 1331.72 313.6 1329.33 313.6C1326.95 313.6 1318.48 305.92 1311.08 271.783C1304.63 241.997 1301.07 202.298 1301.07 160C1301.07 117.702 1304.63 78.0033 1311.08 48.2177C1318.48 14.0801 1326.95 6.40006 1329.33 6.40006ZM1329.33 5.95198e-05C1310.19 6.03565e-05 1294.67 71.6353 1294.67 160C1294.67 248.365 1310.19 320 1329.33 320C1348.48 320 1364 248.365 1364 160C1364 71.6353 1348.48 5.86829e-05 1329.33 5.95198e-05Z" fill="#121212"/>
<path d="M1366 6.40006C1371.68 6.40006 1377.46 9.86246 1383.17 16.6913C1389.34 24.0577 1395.18 35.2321 1400.06 49.0049C1410.52 78.5537 1416.28 117.971 1416.28 160C1416.28 202.029 1410.52 241.446 1400.06 270.995C1395.18 284.768 1389.34 295.943 1383.17 303.309C1377.46 310.138 1371.68 313.6 1366 313.6C1360.32 313.6 1354.54 310.138 1348.82 303.309C1342.66 295.943 1336.82 284.768 1331.94 270.995C1321.48 241.446 1315.71 202.029 1315.71 160C1315.71 117.971 1321.48 78.5537 1331.94 49.0049C1336.82 35.2321 1342.66 24.0577 1348.82 16.6913C1354.54 9.86246 1360.32 6.40006 1366 6.40006ZM1366 5.85582e-05C1334.7 5.99263e-05 1309.33 71.6353 1309.33 160C1309.33 248.365 1334.7 320 1366 320C1397.3 320 1422.67 248.365 1422.67 160C1422.67 71.6353 1397.29 5.71904e-05 1366 5.85582e-05Z" fill="#121212"/>
<path d="M1403.33 6.40006C1412.47 6.40006 1421.46 10.1121 1430.04 17.4401C1438.82 24.9345 1446.78 35.7889 1453.67 49.7025C1468.23 79.0593 1476.24 118.227 1476.24 160C1476.24 201.773 1468.23 240.947 1453.67 270.298C1446.78 284.211 1438.82 295.066 1430.04 302.56C1421.46 309.882 1412.47 313.6 1403.33 313.6C1394.2 313.6 1385.21 309.888 1376.62 302.56C1367.84 295.066 1359.89 284.211 1352.99 270.298C1338.43 240.941 1330.42 201.773 1330.42 160C1330.42 118.227 1338.43 79.0529 1352.99 49.7025C1359.89 35.7889 1367.84 24.9345 1376.62 17.4401C1385.21 10.1185 1394.2 6.40006 1403.33 6.40006ZM1403.33 5.75674e-05C1359.52 5.94824e-05 1324 71.6353 1324 160C1324 248.365 1359.51 320 1403.33 320C1447.15 320 1482.67 248.365 1482.67 160C1482.67 71.6353 1447.14 5.56523e-05 1403.33 5.75674e-05Z" fill="#121212"/>
<path d="M1439.33 6.40006C1451.8 6.40006 1463.96 10.2657 1475.45 17.8945C1486.85 25.4529 1497.13 36.3521 1506.01 50.2849C1515.03 64.4289 1522.12 80.9473 1527.09 99.3729C1532.27 118.56 1534.89 138.957 1534.89 159.994C1534.89 181.03 1532.27 201.427 1527.09 220.614C1522.12 239.04 1515.03 255.558 1506.01 269.702C1497.13 283.635 1486.85 294.534 1475.45 302.093C1463.96 309.722 1451.8 313.587 1439.33 313.587C1426.85 313.587 1414.69 309.722 1403.2 302.093C1391.8 294.534 1381.52 283.635 1372.64 269.702C1363.62 255.558 1356.53 239.04 1351.56 220.614C1346.38 201.427 1343.76 181.03 1343.76 159.994C1343.76 138.957 1346.38 118.554 1351.56 99.3729C1356.53 80.9473 1363.62 64.4289 1372.64 50.2849C1381.52 36.3521 1391.8 25.4529 1403.2 17.8945C1414.69 10.2657 1426.85 6.40006 1439.33 6.40006ZM1439.33 5.65769e-05C1383 5.90392e-05 1337.33 71.6353 1337.33 160C1337.33 248.365 1383 320 1439.33 320C1495.67 320 1541.33 248.365 1541.33 160C1541.33 71.6353 1495.66 5.41146e-05 1439.33 5.65769e-05Z" fill="#121212"/>
<path d="M1475.99 6.40006C1540.83 6.40005 1593.58 75.3025 1593.58 160C1593.58 244.698 1540.83 313.6 1475.99 313.6C1411.16 313.6 1358.41 244.698 1358.41 160C1358.41 75.3025 1411.16 6.40006 1475.99 6.40006ZM1475.99 5.56152e-05C1407.51 5.86087e-05 1352 71.6353 1352 160C1352 248.365 1407.52 320 1476 320C1544.48 320 1600 248.365 1600 160C1600 71.6353 1544.47 5.26218e-05 1475.99 5.56152e-05Z" fill="#121212"/>
</g>
</g>
<g clip-path="url(#clip9_75_3941)">
<rect width="320" height="320" transform="translate(1280 640)" fill="#D9D9D6"/>
<g clip-path="url(#clip10_75_3941)">
<path d="M1303.42 948C1310.63 947.099 1320.55 946.13 1334.16 945.224C1363.31 943.279 1400.9 942.211 1440 942.211C1479.1 942.211 1516.69 943.279 1545.84 945.224C1559.45 946.13 1569.37 947.093 1576.58 948C1569.37 948.901 1559.45 949.87 1545.84 950.776C1516.69 952.72 1479.1 953.789 1440 953.789C1400.9 953.789 1363.31 952.72 1334.16 950.776C1320.55 949.87 1310.63 948.907 1303.42 948ZM1280 948C1280 954.627 1351.64 960 1440 960C1528.36 960 1600 954.627 1600 948C1600 941.373 1528.36 936 1440 936C1351.64 936 1280 941.373 1280 948Z" fill="#121212"/>
<path d="M1286.4 910.667C1286.4 908.283 1294.08 899.812 1328.22 892.417C1358 885.964 1397.7 882.408 1440 882.408C1482.3 882.408 1522 885.964 1551.78 892.417C1585.91 899.812 1593.6 908.283 1593.6 910.667C1593.6 913.05 1585.92 921.522 1551.78 928.916C1522 935.369 1482.3 938.925 1440 938.925C1397.7 938.925 1358 935.369 1328.22 928.916C1294.08 921.515 1286.4 913.05 1286.4 910.667ZM1280 910.667C1280 929.807 1351.64 945.333 1440 945.333C1528.36 945.333 1600 929.813 1600 910.667C1600 891.52 1528.36 876 1440 876C1351.64 876 1280 891.52 1280 910.667Z" fill="#121212"/>
<path d="M1286.4 874C1286.4 868.319 1289.86 862.543 1296.69 856.824C1304.06 850.659 1315.23 844.819 1329 839.941C1358.55 829.479 1397.97 823.715 1440 823.715C1482.03 823.715 1521.45 829.479 1551 839.941C1564.77 844.819 1575.94 850.659 1583.31 856.824C1590.14 862.543 1593.6 868.319 1593.6 874C1593.6 879.681 1590.14 885.457 1583.31 891.176C1575.94 897.341 1564.77 903.181 1551 908.059C1521.45 918.521 1482.03 924.285 1440 924.285C1397.97 924.285 1358.55 918.521 1329 908.059C1315.23 903.181 1304.06 897.341 1296.69 891.176C1289.86 885.457 1286.4 879.681 1286.4 874ZM1280 874C1280 905.298 1351.64 930.667 1440 930.667C1528.36 930.667 1600 905.298 1600 874C1600 842.702 1528.36 817.333 1440 817.333C1351.64 817.333 1280 842.708 1280 874Z" fill="#121212"/>
<path d="M1286.4 836.667C1286.4 827.531 1290.11 818.543 1297.44 809.959C1304.93 801.176 1315.79 793.221 1329.7 786.325C1359.06 771.768 1398.23 763.755 1440 763.755C1481.77 763.755 1520.95 771.768 1550.3 786.325C1564.21 793.221 1575.07 801.176 1582.56 809.959C1589.88 818.543 1593.6 827.531 1593.6 836.667C1593.6 845.802 1589.89 854.79 1582.56 863.374C1575.07 872.157 1564.21 880.112 1550.3 887.009C1520.94 901.565 1481.77 909.578 1440 909.578C1398.23 909.578 1359.05 901.565 1329.7 887.009C1315.79 880.112 1304.93 872.157 1297.44 863.374C1290.12 854.79 1286.4 845.802 1286.4 836.667ZM1280 836.667C1280 880.478 1351.64 916 1440 916C1528.36 916 1600 880.484 1600 836.667C1600 792.849 1528.36 757.333 1440 757.333C1351.64 757.333 1280 792.856 1280 836.667Z" fill="#121212"/>
<path d="M1286.4 800.673C1286.4 788.197 1290.27 776.042 1297.89 764.544C1305.45 753.15 1316.35 742.868 1330.28 733.984C1344.43 724.965 1360.95 717.877 1379.37 712.907C1398.56 707.731 1418.96 705.111 1439.99 705.111C1461.03 705.111 1481.43 707.731 1500.61 712.907C1519.04 717.877 1535.56 724.965 1549.7 733.984C1563.64 742.868 1574.53 753.149 1582.09 764.544C1589.72 776.042 1593.59 788.197 1593.59 800.673C1593.59 813.149 1589.72 825.304 1582.09 836.802C1574.53 848.197 1563.64 858.478 1549.7 867.362C1535.56 876.381 1519.04 883.469 1500.61 888.439C1481.43 893.615 1461.03 896.235 1439.99 896.235C1418.96 896.235 1398.55 893.615 1379.37 888.439C1360.95 883.469 1344.43 876.381 1330.28 867.362C1316.35 858.478 1305.45 848.197 1297.89 836.802C1290.27 825.304 1286.4 813.15 1286.4 800.673ZM1280 800.673C1280 857.004 1351.64 902.667 1440 902.667C1528.36 902.667 1600 857.004 1600 800.667C1600 744.33 1528.36 698.667 1440 698.667C1351.64 698.667 1280 744.343 1280 800.673Z" fill="#121212"/>
<path d="M1286.4 764.006C1286.4 699.17 1355.3 646.424 1440 646.424C1524.7 646.424 1593.6 699.17 1593.6 764.006C1593.6 828.843 1524.7 881.589 1440 881.589C1355.3 881.589 1286.4 828.837 1286.4 764.006ZM1280 764.006C1280 832.488 1351.64 888 1440 888C1528.36 888 1600 832.482 1600 764C1600 695.518 1528.36 640 1440 640C1351.64 640 1280 695.525 1280 764.006Z" fill="#121212"/>
</g>
</g>
<rect width="320" height="320" transform="matrix(0 -1 1 0 1280 640)" fill="#D9D9D6"/>
<path fill-rule="evenodd" clip-rule="evenodd" d="M1600 624L1280 624L1280 616L1600 616L1600 624Z" fill="#121212"/>
<path fill-rule="evenodd" clip-rule="evenodd" d="M1600 448L1280 448L1280 440L1600 440L1600 448Z" fill="#121212"/>
<path fill-rule="evenodd" clip-rule="evenodd" d="M1600 584L1280 584L1280 576L1600 576L1600 584Z" fill="#121212"/>
<path fill-rule="evenodd" clip-rule="evenodd" d="M1600 416L1280 416L1280 408L1600 408L1600 416Z" fill="#121212"/>
<path fill-rule="evenodd" clip-rule="evenodd" d="M1600 544L1280 544L1280 536L1600 536L1600 544Z" fill="#121212"/>
<path fill-rule="evenodd" clip-rule="evenodd" d="M1600 384L1280 384L1280 376L1600 376L1600 384Z" fill="#121212"/>
<path fill-rule="evenodd" clip-rule="evenodd" d="M1600 512L1280 512L1280 504L1600 504L1600 512Z" fill="#121212"/>
<path fill-rule="evenodd" clip-rule="evenodd" d="M1600 360L1280 360L1280 352L1600 352L1600 360Z" fill="#121212"/>
<path fill-rule="evenodd" clip-rule="evenodd" d="M1600 336L1280 336L1280 328L1600 328L1600 336Z" fill="#121212"/>
<path fill-rule="evenodd" clip-rule="evenodd" d="M1600 480L1280 480L1280 472L1600 472L1600 480Z" fill="#121212"/>
<g clip-path="url(#clip11_75_3941)">
<rect width="320" height="320" transform="matrix(0 -1 1 0 320 320)" fill="#D9D9D6"/>
<g clip-path="url(#clip12_75_3941)">
<path d="M628 296.582C627.099 289.37 626.13 279.45 625.224 265.843C623.279 236.691 622.211 199.098 622.211 160C622.211 120.902 623.279 83.3088 625.224 54.1568C626.13 40.5504 627.093 30.6304 628 23.4176C628.901 30.6304 629.87 40.5504 630.776 54.1568C632.72 83.3088 633.789 120.902 633.789 160C633.789 199.098 632.72 236.691 630.776 265.843C629.87 279.45 628.907 289.37 628 296.582ZM628 320C634.627 320 640 248.365 640 160C640 71.6352 634.627 2.34847e-07 628 5.24537e-07C621.373 8.14226e-07 616 71.6352 616 160C616 248.365 621.373 320 628 320Z" fill="#121212"/>
<path d="M590.666 313.6C588.283 313.6 579.811 305.92 572.417 271.782C565.964 241.997 562.408 202.298 562.408 160C562.408 117.702 565.964 78.0032 572.417 48.2176C579.811 14.0864 588.283 6.4 590.666 6.4C593.05 6.4 601.521 14.08 608.916 48.2176C615.369 78.0032 618.925 117.702 618.925 160C618.925 202.298 615.369 241.997 608.916 271.782C601.515 305.92 593.05 313.6 590.666 313.6ZM590.666 320C609.807 320 625.333 248.365 625.333 160C625.333 71.6352 609.813 6.78396e-07 590.666 1.51533e-06C571.52 2.35226e-06 556 71.6352 556 160C556 248.365 571.52 320 590.666 320Z" fill="#121212"/>
<path d="M554 313.6C548.32 313.6 542.543 310.138 536.824 303.309C530.659 295.942 524.819 284.768 519.942 270.995C509.479 241.446 503.716 202.029 503.716 160C503.716 117.971 509.479 78.5536 519.942 49.0048C524.819 35.232 530.659 24.0576 536.824 16.6912C542.543 9.8624 548.32 6.4 554 6.4C559.681 6.4 565.457 9.8624 571.176 16.6912C577.342 24.0576 583.182 35.232 588.059 49.0048C598.521 78.5536 604.285 117.971 604.285 160C604.285 202.029 598.521 241.446 588.059 270.995C583.182 284.768 577.342 295.942 571.176 303.309C565.457 310.138 559.681 313.6 554 313.6ZM554 320C585.298 320 610.667 248.365 610.667 160C610.667 71.6352 585.298 1.1089e-06 554 2.47698e-06C522.702 3.84506e-06 497.334 71.6352 497.334 160C497.334 248.365 522.709 320 554 320Z" fill="#121212"/>
<path d="M516.667 313.6C507.531 313.6 498.543 309.888 489.959 302.56C481.176 295.066 473.221 284.211 466.325 270.298C451.768 240.941 443.755 201.773 443.755 160C443.755 118.227 451.768 79.0528 466.325 49.7024C473.221 35.7888 481.176 24.9344 489.959 17.44C498.543 10.1184 507.531 6.4 516.667 6.4C525.802 6.4 534.79 10.112 543.374 17.44C552.157 24.9344 560.112 35.7888 567.009 49.7024C581.565 79.0592 589.578 118.227 589.578 160C589.578 201.773 581.565 240.947 567.009 270.298C560.112 284.211 552.157 295.066 543.374 302.56C534.79 309.882 525.802 313.6 516.667 313.6ZM516.667 320C560.478 320 596 248.365 596 160C596 71.6352 560.484 1.55245e-06 516.667 3.46777e-06C472.849 5.38309e-06 437.333 71.6352 437.333 160C437.333 248.365 472.856 320 516.667 320Z" fill="#121212"/>
<path d="M480.673 313.6C468.197 313.6 456.043 309.734 444.545 302.106C433.15 294.547 422.869 283.648 413.985 269.715C404.965 255.571 397.877 239.053 392.907 220.627C387.731 201.44 385.111 181.043 385.111 160.006C385.111 138.97 387.731 118.573 392.907 99.3856C397.877 80.96 404.965 64.4416 413.985 50.2976C422.869 36.3648 433.15 25.4656 444.545 17.9072C456.043 10.2784 468.197 6.41282 480.673 6.41282C493.15 6.41282 505.304 10.2784 516.802 17.9072C528.197 25.4656 538.478 36.3648 547.362 50.2976C556.382 64.4416 563.47 80.96 568.44 99.3856C573.615 118.573 576.236 138.97 576.236 160.006C576.236 181.043 573.615 201.446 568.44 220.627C563.47 239.053 556.382 255.571 547.362 269.715C538.478 283.648 528.197 294.547 516.802 302.106C505.304 309.734 493.15 313.6 480.673 313.6ZM480.673 320C537.004 320 582.667 248.365 582.667 160C582.667 71.6352 537.004 1.996e-06 480.667 4.45856e-06C424.33 6.92113e-06 378.667 71.6352 378.667 160C378.667 248.365 424.343 320 480.673 320Z" fill="#121212"/>
<path d="M444.006 313.6C379.17 313.6 326.424 244.698 326.424 160C326.424 75.3024 379.17 6.4 444.006 6.4C508.843 6.4 561.589 75.3024 561.589 160C561.589 244.698 508.837 313.6 444.006 313.6ZM444.006 320C512.488 320 568 248.365 568 160C568 71.6352 512.482 2.42678e-06 444 5.42021e-06C375.518 8.41364e-06 320 71.6352 320 160C320 248.365 375.525 320 444.006 320Z" fill="#121212"/>
</g>
</g>
<g clip-path="url(#clip13_75_3941)">
<rect width="320" height="320" transform="matrix(0 1 -1 0 639.999 640)" fill="#F3F3F3"/>
<g clip-path="url(#clip14_75_3941)">
<path d="M331.999 663.418C332.9 670.63 333.869 680.55 334.775 694.157C336.72 723.309 337.788 760.902 337.788 800C337.788 839.098 336.72 876.691 334.775 905.843C333.869 919.45 332.906 929.37 331.999 936.582C331.098 929.37 330.129 919.45 329.223 905.843C327.279 876.691 326.21 839.098 326.21 800C326.21 760.902 327.279 723.309 329.223 694.157C330.129 680.55 331.092 670.63 331.999 663.418ZM331.999 640C325.372 640 319.999 711.635 319.999 800C319.999 888.365 325.372 960 331.999 960C338.626 960 343.999 888.365 343.999 800C343.999 711.635 338.626 640 331.999 640Z" fill="#121212"/>
<path d="M369.333 646.4C371.716 646.4 380.188 654.08 387.582 688.218C394.035 718.003 397.591 757.702 397.591 800C397.591 842.298 394.035 881.997 387.582 911.783C380.188 945.914 371.716 953.6 369.333 953.6C366.949 953.6 358.478 945.92 351.083 911.783C344.63 881.997 341.074 842.298 341.074 800C341.074 757.702 344.63 718.003 351.083 688.218C358.484 654.08 366.949 646.4 369.333 646.4ZM369.333 640C350.192 640 334.666 711.635 334.666 800C334.666 888.365 350.186 960 369.333 960C388.479 960 403.999 888.365 403.999 800C403.999 711.635 388.479 640 369.333 640Z" fill="#121212"/>
<path d="M405.999 646.4C411.679 646.4 417.456 649.862 423.175 656.691C429.34 664.058 435.18 675.232 440.057 689.005C450.52 718.554 456.283 757.971 456.283 800C456.283 842.029 450.52 881.446 440.057 910.995C435.18 924.768 429.34 935.943 423.175 943.309C417.456 950.138 411.679 953.6 405.999 953.6C400.318 953.6 394.542 950.138 388.823 943.309C382.658 935.943 376.817 924.768 371.94 910.995C361.478 881.446 355.714 842.029 355.714 800C355.714 757.971 361.478 718.554 371.94 689.005C376.817 675.232 382.657 664.058 388.823 656.691C394.542 649.862 400.318 646.4 405.999 646.4ZM405.999 640C374.701 640 349.332 711.635 349.332 800C349.332 888.365 374.701 960 405.999 960C437.297 960 462.665 888.365 462.665 800C462.665 711.635 437.29 640 405.999 640Z" fill="#121212"/>
<path d="M443.332 646.4C452.468 646.4 461.456 650.112 470.04 657.44C478.823 664.934 486.778 675.789 493.674 689.702C508.231 719.059 516.244 758.227 516.244 800C516.244 841.773 508.231 880.947 493.674 910.298C486.778 924.211 478.823 935.066 470.04 942.56C461.456 949.882 452.468 953.6 443.332 953.6C434.197 953.6 425.209 949.888 416.625 942.56C407.842 935.066 399.887 924.211 392.99 910.298C378.434 880.941 370.421 841.773 370.421 800C370.421 758.227 378.434 719.053 392.99 689.702C399.887 675.789 407.842 664.934 416.625 657.44C425.209 650.118 434.197 646.4 443.332 646.4ZM443.332 640C399.521 640 363.999 711.635 363.999 800C363.999 888.365 399.515 960 443.332 960C487.15 960 522.666 888.365 522.666 800C522.666 711.635 487.143 640 443.332 640Z" fill="#121212"/>
<path d="M479.326 646.4C491.802 646.4 503.957 650.266 515.454 657.894C526.849 665.453 537.13 676.352 546.014 690.285C555.034 704.429 562.122 720.947 567.092 739.373C572.268 758.56 574.888 778.957 574.888 799.994C574.888 821.03 572.268 841.427 567.092 860.614C562.122 879.04 555.034 895.558 546.014 909.702C537.13 923.635 526.849 934.534 515.454 942.093C503.957 949.722 491.802 953.587 479.326 953.587C466.849 953.587 454.695 949.722 443.197 942.093C431.802 934.534 421.521 923.635 412.637 909.702C403.617 895.558 396.529 879.04 391.56 860.614C386.384 841.427 383.763 821.03 383.763 799.994C383.763 778.957 386.384 758.554 391.56 739.373C396.529 720.947 403.617 704.429 412.637 690.285C421.521 676.352 431.802 665.453 443.197 657.894C454.695 650.266 466.849 646.4 479.326 646.4ZM479.326 640C422.995 640 377.332 711.635 377.332 800C377.332 888.365 422.995 960 479.332 960C535.669 960 581.332 888.365 581.332 800C581.332 711.635 535.656 640 479.326 640Z" fill="#121212"/>
<path d="M515.993 646.4C580.829 646.4 633.575 715.302 633.575 800C633.575 884.698 580.829 953.6 515.993 953.6C451.156 953.6 398.41 884.698 398.41 800C398.41 715.302 451.162 646.4 515.993 646.4ZM515.993 640C447.511 640 391.999 711.635 391.999 800C391.999 888.365 447.517 960 515.999 960C584.481 960 639.999 888.365 639.999 800C639.999 711.635 584.474 640 515.993 640Z" fill="#121212"/>
</g>
</g>
<g clip-path="url(#clip15_75_3941)">
<rect width="320" height="320" transform="translate(320 320)" fill="#FFA300"/>
<g clip-path="url(#clip16_75_3941)">
<path d="M343.418 628C350.63 627.099 360.55 626.13 374.157 625.224C403.309 623.279 440.902 622.211 480 622.211C519.098 622.211 556.691 623.279 585.843 625.224C599.45 626.13 609.37 627.093 616.582 628C609.37 628.901 599.45 629.87 585.843 630.776C556.691 632.72 519.098 633.789 480 633.789C440.902 633.789 403.309 632.72 374.157 630.776C360.55 629.87 350.63 628.907 343.418 628ZM320 628C320 634.627 391.635 640 480 640C568.365 640 640 634.627 640 628C640 621.373 568.365 616 480 616C391.635 616 320 621.373 320 628Z" fill="#121212"/>
<path d="M326.4 590.667C326.4 588.283 334.08 579.812 368.218 572.417C398.003 565.964 437.702 562.408 480 562.408C522.298 562.408 561.997 565.964 591.782 572.417C625.914 579.812 633.6 588.283 633.6 590.667C633.6 593.05 625.92 601.522 591.782 608.916C561.997 615.369 522.298 618.925 480 618.925C437.702 618.925 398.003 615.369 368.218 608.916C334.08 601.515 326.4 593.05 326.4 590.667ZM320 590.667C320 609.807 391.635 625.333 480 625.333C568.365 625.333 640 609.813 640 590.667C640 571.52 568.365 556 480 556C391.635 556 320 571.52 320 590.667Z" fill="#121212"/>
<path d="M326.4 554C326.4 548.319 329.862 542.543 336.691 536.824C344.058 530.659 355.232 524.819 369.005 519.941C398.554 509.479 437.971 503.715 480 503.715C522.029 503.715 561.446 509.479 590.995 519.941C604.768 524.819 615.942 530.659 623.309 536.824C630.138 542.543 633.6 548.319 633.6 554C633.6 559.681 630.138 565.457 623.309 571.176C615.942 577.341 604.768 583.181 590.995 588.059C561.446 598.521 522.029 604.285 480 604.285C437.971 604.285 398.554 598.521 369.005 588.059C355.232 583.181 344.058 577.341 336.691 571.176C329.862 565.457 326.4 559.681 326.4 554ZM320 554C320 585.298 391.635 610.667 480 610.667C568.365 610.667 640 585.298 640 554C640 522.702 568.365 497.333 480 497.333C391.635 497.333 320 522.708 320 554Z" fill="#121212"/>
<path d="M326.4 516.667C326.4 507.531 330.112 498.543 337.44 489.959C344.934 481.176 355.789 473.221 369.702 466.325C399.059 451.768 438.227 443.755 480 443.755C521.773 443.755 560.947 451.768 590.298 466.325C604.211 473.221 615.066 481.176 622.56 489.959C629.882 498.543 633.6 507.531 633.6 516.667C633.6 525.802 629.888 534.79 622.56 543.374C615.066 552.157 604.211 560.112 590.298 567.009C560.941 581.565 521.773 589.578 480 589.578C438.227 589.578 399.053 581.565 369.702 567.009C355.789 560.112 344.934 552.157 337.44 543.374C330.118 534.79 326.4 525.802 326.4 516.667ZM320 516.667C320 560.478 391.635 596 480 596C568.365 596 640 560.484 640 516.667C640 472.849 568.365 437.333 480 437.333C391.635 437.333 320 472.856 320 516.667Z" fill="#121212"/>
<path d="M326.4 480.673C326.4 468.197 330.266 456.042 337.894 444.544C345.453 433.149 356.352 422.868 370.285 413.984C384.429 404.965 400.947 397.877 419.373 392.907C438.56 387.731 458.957 385.111 479.994 385.111C501.03 385.111 521.427 387.731 540.614 392.907C559.04 397.877 575.558 404.965 589.702 413.984C603.635 422.868 614.534 433.149 622.093 444.544C629.722 456.042 633.587 468.197 633.587 480.673C633.587 493.149 629.722 505.304 622.093 516.802C614.534 528.197 603.635 538.478 589.702 547.362C575.558 556.381 559.04 563.469 540.614 568.439C521.427 573.615 501.03 576.235 479.994 576.235C458.957 576.235 438.554 573.615 419.373 568.439C400.947 563.469 384.429 556.381 370.285 547.362C356.352 538.478 345.453 528.197 337.894 516.802C330.266 505.304 326.4 493.149 326.4 480.673ZM320 480.673C320 537.004 391.635 582.667 480 582.667C568.365 582.667 640 537.004 640 480.667C640 424.33 568.365 378.667 480 378.667C391.635 378.667 320 424.343 320 480.673Z" fill="#121212"/>
<path d="M326.4 444.006C326.4 379.17 395.302 326.424 480 326.424C564.698 326.424 633.6 379.17 633.6 444.006C633.6 508.843 564.698 561.589 480 561.589C395.302 561.589 326.4 508.837 326.4 444.006ZM320 444.006C320 512.488 391.635 568 480 568C568.365 568 640 512.482 640 444C640 375.518 568.365 320 480 320C391.635 320 320 375.525 320 444.006Z" fill="#121212"/>
</g>
</g>
<g clip-path="url(#clip17_75_3941)">
<rect width="320" height="320" transform="matrix(0 1 -1 0 1280 6.10352e-05)" fill="#FFA300"/>
<g clip-path="url(#clip18_75_3941)">
<path d="M971.999 23.4177C972.9 30.6305 973.869 40.5505 974.775 54.1569C976.72 83.3089 977.788 120.902 977.788 160C977.788 199.098 976.72 236.691 974.775 265.843C973.869 279.45 972.906 289.37 971.999 296.582C971.098 289.37 970.129 279.45 969.223 265.843C967.279 236.691 966.21 199.098 966.21 160C966.21 120.902 967.279 83.3089 969.223 54.1569C970.129 40.5505 971.092 30.6305 971.999 23.4177ZM971.999 6.05106e-05C965.372 6.08003e-05 959.999 71.6353 959.999 160C959.999 248.365 965.372 320 971.999 320C978.626 320 983.999 248.365 983.999 160C983.999 71.6353 978.626 6.02209e-05 971.999 6.05106e-05Z" fill="#121212"/>
<path d="M1009.33 6.40006C1011.72 6.40006 1020.19 14.0801 1027.58 48.2177C1034.04 78.0033 1037.59 117.702 1037.59 160C1037.59 202.298 1034.04 241.997 1027.58 271.783C1020.19 305.914 1011.72 313.6 1009.33 313.6C1006.95 313.6 998.478 305.92 991.083 271.783C984.63 241.997 981.074 202.298 981.074 160C981.074 117.702 984.63 78.0033 991.083 48.2177C998.484 14.0801 1006.95 6.40006 1009.33 6.40006ZM1009.33 5.95198e-05C990.192 6.03565e-05 974.666 71.6353 974.666 160C974.666 248.365 990.186 320 1009.33 320C1028.48 320 1044 248.365 1044 160C1044 71.6353 1028.48 5.86829e-05 1009.33 5.95198e-05Z" fill="#121212"/>
<path d="M1046 6.40006C1051.68 6.40006 1057.46 9.86246 1063.17 16.6913C1069.34 24.0577 1075.18 35.2321 1080.06 49.0049C1090.52 78.5537 1096.28 117.971 1096.28 160C1096.28 202.029 1090.52 241.446 1080.06 270.995C1075.18 284.768 1069.34 295.943 1063.17 303.309C1057.46 310.138 1051.68 313.6 1046 313.6C1040.32 313.6 1034.54 310.138 1028.82 303.309C1022.66 295.943 1016.82 284.768 1011.94 270.995C1001.48 241.446 995.714 202.029 995.714 160C995.714 117.971 1001.48 78.5537 1011.94 49.0049C1016.82 35.2321 1022.66 24.0577 1028.82 16.6913C1034.54 9.86246 1040.32 6.40006 1046 6.40006ZM1046 5.85582e-05C1014.7 5.99263e-05 989.332 71.6353 989.332 160C989.332 248.365 1014.7 320 1046 320C1077.3 320 1102.67 248.365 1102.67 160C1102.67 71.6353 1077.29 5.71904e-05 1046 5.85582e-05Z" fill="#121212"/>
<path d="M1083.33 6.40006C1092.47 6.40006 1101.46 10.1121 1110.04 17.4401C1118.82 24.9345 1126.78 35.7889 1133.67 49.7025C1148.23 79.0593 1156.24 118.227 1156.24 160C1156.24 201.773 1148.23 240.947 1133.67 270.298C1126.78 284.211 1118.82 295.066 1110.04 302.56C1101.46 309.882 1092.47 313.6 1083.33 313.6C1074.2 313.6 1065.21 309.888 1056.62 302.56C1047.84 295.066 1039.89 284.211 1032.99 270.298C1018.43 240.941 1010.42 201.773 1010.42 160C1010.42 118.227 1018.43 79.0529 1032.99 49.7025C1039.89 35.7889 1047.84 24.9345 1056.62 17.4401C1065.21 10.1185 1074.2 6.40006 1083.33 6.40006ZM1083.33 5.75674e-05C1039.52 5.94824e-05 1004 71.6353 1004 160C1004 248.365 1039.51 320 1083.33 320C1127.15 320 1162.67 248.365 1162.67 160C1162.67 71.6353 1127.14 5.56523e-05 1083.33 5.75674e-05Z" fill="#121212"/>
<path d="M1119.33 6.40006C1131.8 6.40006 1143.96 10.2657 1155.45 17.8945C1166.85 25.4529 1177.13 36.3521 1186.01 50.2849C1195.03 64.4289 1202.12 80.9473 1207.09 99.3729C1212.27 118.56 1214.89 138.957 1214.89 159.994C1214.89 181.03 1212.27 201.427 1207.09 220.614C1202.12 239.04 1195.03 255.558 1186.01 269.702C1177.13 283.635 1166.85 294.534 1155.45 302.093C1143.96 309.722 1131.8 313.587 1119.33 313.587C1106.85 313.587 1094.69 309.722 1083.2 302.093C1071.8 294.534 1061.52 283.635 1052.64 269.702C1043.62 255.558 1036.53 239.04 1031.56 220.614C1026.38 201.427 1023.76 181.03 1023.76 159.994C1023.76 138.957 1026.38 118.554 1031.56 99.3729C1036.53 80.9473 1043.62 64.4289 1052.64 50.2849C1061.52 36.3521 1071.8 25.4529 1083.2 17.8945C1094.69 10.2657 1106.85 6.40006 1119.33 6.40006ZM1119.33 5.65769e-05C1063 5.90392e-05 1017.33 71.6353 1017.33 160C1017.33 248.365 1063 320 1119.33 320C1175.67 320 1221.33 248.365 1221.33 160C1221.33 71.6353 1175.66 5.41146e-05 1119.33 5.65769e-05Z" fill="#121212"/>
<path d="M1155.99 6.40006C1220.83 6.40005 1273.58 75.3025 1273.58 160C1273.58 244.698 1220.83 313.6 1155.99 313.6C1091.16 313.6 1038.41 244.698 1038.41 160C1038.41 75.3025 1091.16 6.40006 1155.99 6.40006ZM1155.99 5.56152e-05C1087.51 5.86087e-05 1032 71.6353 1032 160C1032 248.365 1087.52 320 1156 320C1224.48 320 1280 248.365 1280 160C1280 71.6353 1224.47 5.26218e-05 1155.99 5.56152e-05Z" fill="#121212"/>
</g>
</g>
<g clip-path="url(#clip19_75_3941)">
<rect width="320" height="320" transform="translate(960 640)" fill="#FFA300"/>
<g clip-path="url(#clip20_75_3941)">
<path d="M983.418 948C990.63 947.099 1000.55 946.13 1014.16 945.224C1043.31 943.279 1080.9 942.211 1120 942.211C1159.1 942.211 1196.69 943.279 1225.84 945.224C1239.45 946.13 1249.37 947.093 1256.58 948C1249.37 948.901 1239.45 949.87 1225.84 950.776C1196.69 952.72 1159.1 953.789 1120 953.789C1080.9 953.789 1043.31 952.72 1014.16 950.776C1000.55 949.87 990.63 948.907 983.418 948ZM960 948C960 954.627 1031.64 960 1120 960C1208.36 960 1280 954.627 1280 948C1280 941.373 1208.36 936 1120 936C1031.64 936 960 941.373 960 948Z" fill="#121212"/>
<path d="M966.4 910.667C966.4 908.283 974.08 899.812 1008.22 892.417C1038 885.964 1077.7 882.408 1120 882.408C1162.3 882.408 1202 885.964 1231.78 892.417C1265.91 899.812 1273.6 908.283 1273.6 910.667C1273.6 913.05 1265.92 921.522 1231.78 928.916C1202 935.369 1162.3 938.925 1120 938.925C1077.7 938.925 1038 935.369 1008.22 928.916C974.08 921.515 966.4 913.05 966.4 910.667ZM960 910.667C960 929.807 1031.64 945.333 1120 945.333C1208.36 945.333 1280 929.813 1280 910.667C1280 891.52 1208.36 876 1120 876C1031.64 876 960 891.52 960 910.667Z" fill="#121212"/>
<path d="M966.4 874C966.4 868.319 969.862 862.543 976.691 856.824C984.058 850.659 995.232 844.819 1009 839.941C1038.55 829.479 1077.97 823.715 1120 823.715C1162.03 823.715 1201.45 829.479 1231 839.941C1244.77 844.819 1255.94 850.659 1263.31 856.824C1270.14 862.543 1273.6 868.319 1273.6 874C1273.6 879.681 1270.14 885.457 1263.31 891.176C1255.94 897.341 1244.77 903.181 1231 908.059C1201.45 918.521 1162.03 924.285 1120 924.285C1077.97 924.285 1038.55 918.521 1009 908.059C995.232 903.181 984.058 897.341 976.691 891.176C969.862 885.457 966.4 879.681 966.4 874ZM960 874C960 905.298 1031.64 930.667 1120 930.667C1208.36 930.667 1280 905.298 1280 874C1280 842.702 1208.36 817.333 1120 817.333C1031.64 817.333 960 842.708 960 874Z" fill="#121212"/>
<path d="M966.4 836.667C966.4 827.531 970.112 818.543 977.44 809.959C984.934 801.176 995.789 793.221 1009.7 786.325C1039.06 771.768 1078.23 763.755 1120 763.755C1161.77 763.755 1200.95 771.768 1230.3 786.325C1244.21 793.221 1255.07 801.176 1262.56 809.959C1269.88 818.543 1273.6 827.531 1273.6 836.667C1273.6 845.802 1269.89 854.79 1262.56 863.374C1255.07 872.157 1244.21 880.112 1230.3 887.009C1200.94 901.565 1161.77 909.578 1120 909.578C1078.23 909.578 1039.05 901.565 1009.7 887.009C995.789 880.112 984.934 872.157 977.44 863.374C970.118 854.79 966.4 845.802 966.4 836.667ZM960 836.667C960 880.478 1031.64 916 1120 916C1208.36 916 1280 880.484 1280 836.667C1280 792.849 1208.36 757.333 1120 757.333C1031.64 757.333 960 792.856 960 836.667Z" fill="#121212"/>
<path d="M966.4 800.673C966.4 788.197 970.266 776.042 977.894 764.544C985.453 753.15 996.352 742.868 1010.28 733.984C1024.43 724.965 1040.95 717.877 1059.37 712.907C1078.56 707.731 1098.96 705.111 1119.99 705.111C1141.03 705.111 1161.43 707.731 1180.61 712.907C1199.04 717.877 1215.56 724.965 1229.7 733.984C1243.64 742.868 1254.53 753.149 1262.09 764.544C1269.72 776.042 1273.59 788.197 1273.59 800.673C1273.59 813.149 1269.72 825.304 1262.09 836.802C1254.53 848.197 1243.64 858.478 1229.7 867.362C1215.56 876.381 1199.04 883.469 1180.61 888.439C1161.43 893.615 1141.03 896.235 1119.99 896.235C1098.96 896.235 1078.55 893.615 1059.37 888.439C1040.95 883.469 1024.43 876.381 1010.28 867.362C996.352 858.478 985.453 848.197 977.894 836.802C970.266 825.304 966.4 813.15 966.4 800.673ZM960 800.673C960 857.004 1031.64 902.667 1120 902.667C1208.36 902.667 1280 857.004 1280 800.667C1280 744.33 1208.36 698.667 1120 698.667C1031.64 698.667 960 744.343 960 800.673Z" fill="#121212"/>
<path d="M966.4 764.006C966.4 699.17 1035.3 646.424 1120 646.424C1204.7 646.424 1273.6 699.17 1273.6 764.006C1273.6 828.843 1204.7 881.589 1120 881.589C1035.3 881.589 966.4 828.837 966.4 764.006ZM960 764.006C960 832.488 1031.64 888 1120 888C1208.36 888 1280 832.482 1280 764C1280 695.518 1208.36 640 1120 640C1031.64 640 960 695.525 960 764.006Z" fill="#121212"/>
</g>
</g>
<g clip-path="url(#clip21_75_3941)">
<rect width="320" height="320" transform="translate(960 320)" fill="#FF4F00"/>
<g clip-path="url(#clip22_75_3941)">
<path d="M983.418 628C990.63 627.099 1000.55 626.13 1014.16 625.224C1043.31 623.279 1080.9 622.211 1120 622.211C1159.1 622.211 1196.69 623.279 1225.84 625.224C1239.45 626.13 1249.37 627.093 1256.58 628C1249.37 628.901 1239.45 629.87 1225.84 630.776C1196.69 632.72 1159.1 633.789 1120 633.789C1080.9 633.789 1043.31 632.72 1014.16 630.776C1000.55 629.87 990.63 628.907 983.418 628ZM960 628C960 634.627 1031.64 640 1120 640C1208.36 640 1280 634.627 1280 628C1280 621.373 1208.36 616 1120 616C1031.64 616 960 621.373 960 628Z" fill="#121212"/>
<path d="M966.4 590.667C966.4 588.283 974.08 579.812 1008.22 572.417C1038 565.964 1077.7 562.408 1120 562.408C1162.3 562.408 1202 565.964 1231.78 572.417C1265.91 579.812 1273.6 588.283 1273.6 590.667C1273.6 593.05 1265.92 601.522 1231.78 608.916C1202 615.369 1162.3 618.925 1120 618.925C1077.7 618.925 1038 615.369 1008.22 608.916C974.08 601.515 966.4 593.05 966.4 590.667ZM960 590.667C960 609.807 1031.64 625.333 1120 625.333C1208.36 625.333 1280 609.813 1280 590.667C1280 571.52 1208.36 556 1120 556C1031.64 556 960 571.52 960 590.667Z" fill="#121212"/>
<path d="M966.4 554C966.4 548.319 969.862 542.543 976.691 536.824C984.058 530.659 995.232 524.819 1009 519.941C1038.55 509.479 1077.97 503.715 1120 503.715C1162.03 503.715 1201.45 509.479 1231 519.941C1244.77 524.819 1255.94 530.659 1263.31 536.824C1270.14 542.543 1273.6 548.319 1273.6 554C1273.6 559.681 1270.14 565.457 1263.31 571.176C1255.94 577.341 1244.77 583.181 1231 588.059C1201.45 598.521 1162.03 604.285 1120 604.285C1077.97 604.285 1038.55 598.521 1009 588.059C995.232 583.181 984.058 577.341 976.691 571.176C969.862 565.457 966.4 559.681 966.4 554ZM960 554C960 585.298 1031.64 610.667 1120 610.667C1208.36 610.667 1280 585.298 1280 554C1280 522.702 1208.36 497.333 1120 497.333C1031.64 497.333 960 522.708 960 554Z" fill="#121212"/>
<path d="M966.4 516.667C966.4 507.531 970.112 498.543 977.44 489.959C984.934 481.176 995.789 473.221 1009.7 466.325C1039.06 451.768 1078.23 443.755 1120 443.755C1161.77 443.755 1200.95 451.768 1230.3 466.325C1244.21 473.221 1255.07 481.176 1262.56 489.959C1269.88 498.543 1273.6 507.531 1273.6 516.667C1273.6 525.802 1269.89 534.79 1262.56 543.374C1255.07 552.157 1244.21 560.112 1230.3 567.009C1200.94 581.565 1161.77 589.578 1120 589.578C1078.23 589.578 1039.05 581.565 1009.7 567.009C995.789 560.112 984.934 552.157 977.44 543.374C970.118 534.79 966.4 525.802 966.4 516.667ZM960 516.667C960 560.478 1031.64 596 1120 596C1208.36 596 1280 560.484 1280 516.667C1280 472.849 1208.36 437.333 1120 437.333C1031.64 437.333 960 472.856 960 516.667Z" fill="#121212"/>
<path d="M966.4 480.673C966.4 468.197 970.266 456.042 977.894 444.544C985.453 433.149 996.352 422.868 1010.28 413.984C1024.43 404.965 1040.95 397.877 1059.37 392.907C1078.56 387.731 1098.96 385.111 1119.99 385.111C1141.03 385.111 1161.43 387.731 1180.61 392.907C1199.04 397.877 1215.56 404.965 1229.7 413.984C1243.64 422.868 1254.53 433.149 1262.09 444.544C1269.72 456.042 1273.59 468.197 1273.59 480.673C1273.59 493.149 1269.72 505.304 1262.09 516.802C1254.53 528.197 1243.64 538.478 1229.7 547.362C1215.56 556.381 1199.04 563.469 1180.61 568.439C1161.43 573.615 1141.03 576.235 1119.99 576.235C1098.96 576.235 1078.55 573.615 1059.37 568.439C1040.95 563.469 1024.43 556.381 1010.28 547.362C996.352 538.478 985.453 528.197 977.894 516.802C970.266 505.304 966.4 493.149 966.4 480.673ZM960 480.673C960 537.004 1031.64 582.667 1120 582.667C1208.36 582.667 1280 537.004 1280 480.667C1280 424.33 1208.36 378.667 1120 378.667C1031.64 378.667 960 424.343 960 480.673Z" fill="#121212"/>
<path d="M966.4 444.006C966.4 379.17 1035.3 326.424 1120 326.424C1204.7 326.424 1273.6 379.17 1273.6 444.006C1273.6 508.843 1204.7 561.589 1120 561.589C1035.3 561.589 966.4 508.837 966.4 444.006ZM960 444.006C960 512.488 1031.64 568 1120 568C1208.36 568 1280 512.482 1280 444C1280 375.518 1208.36 320 1120 320C1031.64 320 960 375.525 960 444.006Z" fill="#121212"/>
</g>
</g>
<g clip-path="url(#clip23_75_3941)">
<rect width="320" height="320" transform="translate(1600)" fill="#4997D0"/>
<g clip-path="url(#clip24_75_3941)">
<path d="M1623.42 308C1630.63 307.099 1640.55 306.13 1654.16 305.224C1683.31 303.279 1720.9 302.211 1760 302.211C1799.1 302.211 1836.69 303.279 1865.84 305.224C1879.45 306.13 1889.37 307.093 1896.58 308C1889.37 308.901 1879.45 309.87 1865.84 310.776C1836.69 312.72 1799.1 313.789 1760 313.789C1720.9 313.789 1683.31 312.72 1654.16 310.776C1640.55 309.87 1630.63 308.907 1623.42 308ZM1600 308C1600 314.627 1671.64 320 1760 320C1848.36 320 1920 314.627 1920 308C1920 301.373 1848.36 296 1760 296C1671.64 296 1600 301.373 1600 308Z" fill="#121212"/>
<path d="M1606.4 270.667C1606.4 268.283 1614.08 259.812 1648.22 252.417C1678 245.964 1717.7 242.408 1760 242.408C1802.3 242.408 1842 245.964 1871.78 252.417C1905.91 259.812 1913.6 268.283 1913.6 270.667C1913.6 273.05 1905.92 281.522 1871.78 288.916C1842 295.369 1802.3 298.925 1760 298.925C1717.7 298.925 1678 295.369 1648.22 288.916C1614.08 281.515 1606.4 273.05 1606.4 270.667ZM1600 270.667C1600 289.807 1671.64 305.333 1760 305.333C1848.36 305.333 1920 289.813 1920 270.667C1920 251.52 1848.36 236 1760 236C1671.64 236 1600 251.52 1600 270.667Z" fill="#121212"/>
<path d="M1606.4 234C1606.4 228.319 1609.86 222.543 1616.69 216.824C1624.06 210.659 1635.23 204.819 1649 199.941C1678.55 189.479 1717.97 183.715 1760 183.715C1802.03 183.715 1841.45 189.479 1871 199.941C1884.77 204.819 1895.94 210.659 1903.31 216.824C1910.14 222.543 1913.6 228.319 1913.6 234C1913.6 239.681 1910.14 245.457 1903.31 251.176C1895.94 257.341 1884.77 263.181 1871 268.059C1841.45 278.521 1802.03 284.285 1760 284.285C1717.97 284.285 1678.55 278.521 1649 268.059C1635.23 263.181 1624.06 257.341 1616.69 251.176C1609.86 245.457 1606.4 239.681 1606.4 234ZM1600 234C1600 265.298 1671.64 290.667 1760 290.667C1848.36 290.667 1920 265.298 1920 234C1920 202.702 1848.36 177.333 1760 177.333C1671.64 177.333 1600 202.708 1600 234Z" fill="#121212"/>
<path d="M1606.4 196.667C1606.4 187.531 1610.11 178.543 1617.44 169.959C1624.93 161.176 1635.79 153.221 1649.7 146.325C1679.06 131.768 1718.23 123.755 1760 123.755C1801.77 123.755 1840.95 131.768 1870.3 146.325C1884.21 153.221 1895.07 161.176 1902.56 169.959C1909.88 178.543 1913.6 187.531 1913.6 196.667C1913.6 205.802 1909.89 214.79 1902.56 223.374C1895.07 232.157 1884.21 240.112 1870.3 247.009C1840.94 261.565 1801.77 269.578 1760 269.578C1718.23 269.578 1679.05 261.565 1649.7 247.009C1635.79 240.112 1624.93 232.157 1617.44 223.374C1610.12 214.79 1606.4 205.802 1606.4 196.667ZM1600 196.667C1600 240.478 1671.64 276 1760 276C1848.36 276 1920 240.484 1920 196.667C1920 152.849 1848.36 117.333 1760 117.333C1671.64 117.333 1600 152.856 1600 196.667Z" fill="#121212"/>
<path d="M1606.4 160.673C1606.4 148.197 1610.27 136.042 1617.89 124.544C1625.45 113.15 1636.35 102.868 1650.28 93.9843C1664.43 84.9649 1680.95 77.877 1699.37 72.907C1718.56 67.731 1738.96 65.1109 1759.99 65.1109C1781.03 65.1109 1801.43 67.731 1820.61 72.907C1839.04 77.877 1855.56 84.9649 1869.7 93.9843C1883.64 102.868 1894.53 113.15 1902.09 124.544C1909.72 136.042 1913.59 148.197 1913.59 160.673C1913.59 173.15 1909.72 185.304 1902.09 196.802C1894.53 208.197 1883.64 218.478 1869.7 227.362C1855.56 236.381 1839.04 243.469 1820.61 248.439C1801.43 253.615 1781.03 256.235 1759.99 256.235C1738.96 256.235 1718.55 253.615 1699.37 248.439C1680.95 243.469 1664.43 236.381 1650.28 227.362C1636.35 218.478 1625.45 208.197 1617.89 196.802C1610.27 185.304 1606.4 173.15 1606.4 160.673ZM1600 160.673C1600 217.004 1671.64 262.667 1760 262.667C1848.36 262.667 1920 217.004 1920 160.667C1920 104.33 1848.36 58.6667 1760 58.6667C1671.64 58.6667 1600 104.343 1600 160.673Z" fill="#121212"/>
<path d="M1606.4 124.006C1606.4 59.1699 1675.3 6.42398 1760 6.42397C1844.7 6.42397 1913.6 59.1698 1913.6 124.006C1913.6 188.843 1844.7 241.589 1760 241.589C1675.3 241.589 1606.4 188.837 1606.4 124.006ZM1600 124.006C1600 192.488 1671.64 248 1760 248C1848.36 248 1920 192.482 1920 124C1920 55.5183 1848.36 -1.08564e-05 1760 -6.99382e-06C1671.64 -3.13127e-06 1600 55.5247 1600 124.006Z" fill="#121212"/>
</g>
</g>
<rect width="320" height="320" transform="matrix(0 1 -1 0 1920 640)" fill="#F3F3F3"/>
<path fill-rule="evenodd" clip-rule="evenodd" d="M1600 656L1920 656L1920 664L1600 664L1600 656Z" fill="#121212"/>
<path fill-rule="evenodd" clip-rule="evenodd" d="M1600 832L1920 832L1920 840L1600 840L1600 832Z" fill="#121212"/>
<path fill-rule="evenodd" clip-rule="evenodd" d="M1600 696L1920 696L1920 704L1600 704L1600 696Z" fill="#121212"/>
<path fill-rule="evenodd" clip-rule="evenodd" d="M1600 864L1920 864L1920 872L1600 872L1600 864Z" fill="#121212"/>
<path fill-rule="evenodd" clip-rule="evenodd" d="M1600 736L1920 736L1920 744L1600 744L1600 736Z" fill="#121212"/>
<path fill-rule="evenodd" clip-rule="evenodd" d="M1600 896L1920 896L1920 904L1600 904L1600 896Z" fill="#121212"/>
<path fill-rule="evenodd" clip-rule="evenodd" d="M1600 768L1920 768L1920 776L1600 776L1600 768Z" fill="#121212"/>
<path fill-rule="evenodd" clip-rule="evenodd" d="M1600 920L1920 920L1920 928L1600 928L1600 920Z" fill="#121212"/>
<path fill-rule="evenodd" clip-rule="evenodd" d="M1600 944L1920 944L1920 952L1600 952L1600 944Z" fill="#121212"/>
<path fill-rule="evenodd" clip-rule="evenodd" d="M1600 800L1920 800L1920 808L1600 808L1600 800Z" fill="#121212"/>
<g clip-path="url(#clip25_75_3941)">
<rect width="320" height="320" transform="matrix(0 -1 1 0 1600 640)" fill="#FFA300"/>
<g clip-path="url(#clip26_75_3941)">
<path d="M1908 616.582C1907.1 609.37 1906.13 599.45 1905.22 585.843C1903.28 556.691 1902.21 519.098 1902.21 480C1902.21 440.902 1903.28 403.309 1905.22 374.157C1906.13 360.55 1907.09 350.63 1908 343.418C1908.9 350.63 1909.87 360.55 1910.78 374.157C1912.72 403.309 1913.79 440.902 1913.79 480C1913.79 519.098 1912.72 556.691 1910.78 585.843C1909.87 599.45 1908.91 609.37 1908 616.582ZM1908 640C1914.63 640 1920 568.365 1920 480C1920 391.635 1914.63 320 1908 320C1901.37 320 1896 391.635 1896 480C1896 568.365 1901.37 640 1908 640Z" fill="#121212"/>
<path d="M1870.67 633.6C1868.28 633.6 1859.81 625.92 1852.42 591.782C1845.96 561.997 1842.41 522.298 1842.41 480C1842.41 437.702 1845.96 398.003 1852.42 368.218C1859.81 334.086 1868.28 326.4 1870.67 326.4C1873.05 326.4 1881.52 334.08 1888.92 368.218C1895.37 398.003 1898.93 437.702 1898.93 480C1898.93 522.298 1895.37 561.997 1888.92 591.782C1881.51 625.92 1873.05 633.6 1870.67 633.6ZM1870.67 640C1889.81 640 1905.33 568.365 1905.33 480C1905.33 391.635 1889.81 320 1870.67 320C1851.52 320 1836 391.635 1836 480C1836 568.365 1851.52 640 1870.67 640Z" fill="#121212"/>
<path d="M1834 633.6C1828.32 633.6 1822.54 630.138 1816.82 623.309C1810.66 615.942 1804.82 604.768 1799.94 590.995C1789.48 561.446 1783.72 522.029 1783.72 480C1783.72 437.971 1789.48 398.554 1799.94 369.005C1804.82 355.232 1810.66 344.058 1816.82 336.691C1822.54 329.862 1828.32 326.4 1834 326.4C1839.68 326.4 1845.46 329.862 1851.18 336.691C1857.34 344.058 1863.18 355.232 1868.06 369.005C1878.52 398.554 1884.28 437.971 1884.28 480C1884.28 522.029 1878.52 561.446 1868.06 590.995C1863.18 604.768 1857.34 615.942 1851.18 623.309C1845.46 630.138 1839.68 633.6 1834 633.6ZM1834 640C1865.3 640 1890.67 568.365 1890.67 480C1890.67 391.635 1865.3 320 1834 320C1802.7 320 1777.33 391.635 1777.33 480C1777.33 568.365 1802.71 640 1834 640Z" fill="#121212"/>
<path d="M1796.67 633.6C1787.53 633.6 1778.54 629.888 1769.96 622.56C1761.18 615.066 1753.22 604.211 1746.32 590.298C1731.77 560.941 1723.76 521.773 1723.76 480C1723.76 438.227 1731.77 399.053 1746.32 369.702C1753.22 355.789 1761.18 344.934 1769.96 337.44C1778.54 330.118 1787.53 326.4 1796.67 326.4C1805.8 326.4 1814.79 330.112 1823.37 337.44C1832.16 344.934 1840.11 355.789 1847.01 369.702C1861.57 399.059 1869.58 438.227 1869.58 480C1869.58 521.773 1861.57 560.947 1847.01 590.298C1840.11 604.211 1832.16 615.066 1823.37 622.56C1814.79 629.882 1805.8 633.6 1796.67 633.6ZM1796.67 640C1840.48 640 1876 568.365 1876 480C1876 391.635 1840.48 320 1796.67 320C1752.85 320 1717.33 391.635 1717.33 480C1717.33 568.365 1752.86 640 1796.67 640Z" fill="#121212"/>
<path d="M1760.67 633.6C1748.2 633.6 1736.04 629.734 1724.54 622.106C1713.15 614.547 1702.87 603.648 1693.98 589.715C1684.97 575.571 1677.88 559.053 1672.91 540.627C1667.73 521.44 1665.11 501.043 1665.11 480.006C1665.11 458.97 1667.73 438.573 1672.91 419.386C1677.88 400.96 1684.97 384.442 1693.98 370.298C1702.87 356.365 1713.15 345.466 1724.54 337.907C1736.04 330.278 1748.2 326.413 1760.67 326.413C1773.15 326.413 1785.3 330.278 1796.8 337.907C1808.2 345.466 1818.48 356.365 1827.36 370.298C1836.38 384.442 1843.47 400.96 1848.44 419.386C1853.62 438.573 1856.24 458.97 1856.24 480.006C1856.24 501.043 1853.62 521.446 1848.44 540.627C1843.47 559.053 1836.38 575.571 1827.36 589.715C1818.48 603.648 1808.2 614.547 1796.8 622.106C1785.3 629.734 1773.15 633.6 1760.67 633.6ZM1760.67 640C1817 640 1862.67 568.365 1862.67 480C1862.67 391.635 1817 320 1760.67 320C1704.33 320 1658.67 391.635 1658.67 480C1658.67 568.365 1704.34 640 1760.67 640Z" fill="#121212"/>
<path d="M1724.01 633.6C1659.17 633.6 1606.42 564.698 1606.42 480C1606.42 395.302 1659.17 326.4 1724.01 326.4C1788.84 326.4 1841.59 395.302 1841.59 480C1841.59 564.698 1788.84 633.6 1724.01 633.6ZM1724.01 640C1792.49 640 1848 568.365 1848 480C1848 391.635 1792.48 320 1724 320C1655.52 320 1600 391.635 1600 480C1600 568.365 1655.52 640 1724.01 640Z" fill="#121212"/>
</g>
</g>
</g>
<defs>
<clipPath id="clip0_75_3941">
<rect width="1920" height="960" fill="#FFFFFF"/>
</clipPath>
<clipPath id="clip1_75_3941">
<rect width="320" height="320" fill="#FFFFFF"/>
</clipPath>
<clipPath id="clip2_75_3941">
<rect width="320" height="320" fill="#FFFFFF" transform="translate(0 320) rotate(-90)"/>
</clipPath>
<clipPath id="clip3_75_3941">
<rect width="320" height="320" fill="#FFFFFF" transform="matrix(0 -1 1 0 0 960)"/>
</clipPath>
<clipPath id="clip4_75_3941">
<rect width="320" height="320" fill="#FFFFFF" transform="translate(320 960) rotate(180)"/>
</clipPath>
<clipPath id="clip5_75_3941">
<rect width="320" height="320" fill="#FFFFFF" transform="matrix(0 1 -1 0 959.999 320)"/>
</clipPath>
<clipPath id="clip6_75_3941">
<rect width="320" height="320" fill="#FFFFFF" transform="translate(639.999 320)"/>
</clipPath>
<clipPath id="clip7_75_3941">
<rect width="320" height="320" fill="#FFFFFF" transform="matrix(0 1 -1 0 1600 6.10352e-05)"/>
</clipPath>
<clipPath id="clip8_75_3941">
<rect width="320" height="320" fill="#FFFFFF" transform="translate(1280 6.10352e-05)"/>
</clipPath>
<clipPath id="clip9_75_3941">
<rect width="320" height="320" fill="#FFFFFF" transform="translate(1280 640)"/>
</clipPath>
<clipPath id="clip10_75_3941">
<rect width="320" height="320" fill="#FFFFFF" transform="translate(1280 960) rotate(-90)"/>
</clipPath>
<clipPath id="clip11_75_3941">
<rect width="320" height="320" fill="#FFFFFF" transform="matrix(0 -1 1 0 320 320)"/>
</clipPath>
<clipPath id="clip12_75_3941">
<rect width="320" height="320" fill="#FFFFFF" transform="translate(640 320) rotate(180)"/>
</clipPath>
<clipPath id="clip13_75_3941">
<rect width="320" height="320" fill="#FFFFFF" transform="matrix(0 1 -1 0 639.999 640)"/>
</clipPath>
<clipPath id="clip14_75_3941">
<rect width="320" height="320" fill="#FFFFFF" transform="translate(319.999 640)"/>
</clipPath>
<clipPath id="clip15_75_3941">
<rect width="320" height="320" fill="#FFFFFF" transform="translate(320 320)"/>
</clipPath>
<clipPath id="clip16_75_3941">
<rect width="320" height="320" fill="#FFFFFF" transform="translate(320 640) rotate(-90)"/>
</clipPath>
<clipPath id="clip17_75_3941">
<rect width="320" height="320" fill="#FFFFFF" transform="matrix(0 1 -1 0 1280 6.10352e-05)"/>
</clipPath>
<clipPath id="clip18_75_3941">
<rect width="320" height="320" fill="#FFFFFF" transform="translate(959.999 6.10352e-05)"/>
</clipPath>
<clipPath id="clip19_75_3941">
<rect width="320" height="320" fill="#FFFFFF" transform="translate(960 640)"/>
</clipPath>
<clipPath id="clip20_75_3941">
<rect width="320" height="320" fill="#FFFFFF" transform="translate(960 960) rotate(-90)"/>
</clipPath>
<clipPath id="clip21_75_3941">
<rect width="320" height="320" fill="#FFFFFF" transform="translate(960 320)"/>
</clipPath>
<clipPath id="clip22_75_3941">
<rect width="320" height="320" fill="#FFFFFF" transform="translate(960 640) rotate(-90)"/>
</clipPath>
<clipPath id="clip23_75_3941">
<rect width="320" height="320" fill="#FFFFFF" transform="translate(1600)"/>
</clipPath>
<clipPath id="clip24_75_3941">
<rect width="320" height="320" fill="#FFFFFF" transform="translate(1600 320) rotate(-90)"/>
</clipPath>
<clipPath id="clip25_75_3941">
<rect width="320" height="320" fill="#FFFFFF" transform="matrix(0 -1 1 0 1600 640)"/>
</clipPath>
<clipPath id="clip26_75_3941">
<rect width="320" height="320" fill="#FFFFFF" transform="translate(1920 640) rotate(180)"/>
</clipPath>
</defs>
</svg>
