<?xml version='1.0' encoding='UTF-8'?>
<svg xmlns="http://www.w3.org/2000/svg" width="1920" height="960" viewBox="0 0 1920 960">
  <rect width="1920" height="960" fill="#F3F3F3"/>
  <rect width="320" height="320" fill="#F3F3F3" x="960" y="0"/>
  <path fill-rule="evenodd" clip-rule="evenodd" d="M1120 103.333L1120 81.3333L1264.07 81.3333L1264 0.0746432L1280 0L1280 320L1264 320C1264 148.741 1215.33 103.333 1120 103.333Z" fill="#121212"/>
  <rect width="320" height="320" fill="#F3F3F3" x="320" y="0"/>
  <path d="M480 7.31136e-05L640 0.00012207L640 160C640 71.6353 568.365 0.000100151 480 7.31136e-05Z" fill="#121212"/>
  <path d="M560 240C560 195.819 595.81 160 640 160C640 160 640 195.819 640 240C640 262.095 640 320 640 320C595.809 320 560 284.181 560 240Z" fill="#121212"/>
  <rect width="320" height="320" fill="#F3F3F3" x="1600" y="0.000122"/>
  <path d="M1760 0.000195184L1920 0.000244141L1920 160C1920 71.6354 1848.36 0.000222222 1760 0.000195184Z" fill="#121212"/>
  <path d="M1840 240C1840 195.819 1875.81 160 1920 160C1920 160 1920 195.819 1920 240C1920 262.096 1920 320 1920 320C1875.81 320 1840 284.181 1840 240Z" fill="#121212"/>
  <rect width="320" height="320" fill="#D9D9D6" x="640" y="640"/>
  <path fill-rule="evenodd" clip-rule="evenodd" d="M800 662L720 662.075L720 640.075L640 640L640 960L720 960C720.043 812.725 720 742 800 662Z" fill="#121212"/>
  <rect width="320" height="320" fill="#D9D9D6" x="0" y="640"/>
  <path fill-rule="evenodd" clip-rule="evenodd" d="M160 662L80 662.075L80 640.075L4.20106e-05 640L0 960L80 960C80.0427 812.725 80 742 160 662Z" fill="#121212"/>
  <rect width="320" height="320" fill="#F3F3F3" x="641" y="320"/>
  <path d="M641 320 C710.268 409.361 762.399 510.771 794.759 619.106 L801 640 L641 640 L641 320 Z" fill="#121212"/>
  <rect width="320" height="320" fill="#F3F3F3" x="1" y="320"/>
  <path d="M1.00008 320 C70.2683 409.361 122.399 510.771 154.759 619.106 L161 640 L1 640 L1.00008 320 Z" fill="#121212"/>
  <rect width="320" height="320" fill="#D9D9D6" x="640" y="0"/>
  <path d="M800 -8.71012e-05L640 -0.00012207L640 160C640 71.6351 711.635 -0.000106414 800 -8.71012e-05Z" fill="#121212"/>
  <path d="M720 240C720 195.819 684.19 160 640 160C640 160 640 195.819 640 240C640 262.095 640 320 640 320C684.19 320 720 284.181 720 240Z" fill="#121212"/>
  <rect width="320" height="320" fill="#D9D9D6" x="0" y="0"/>
  <path fill-rule="evenodd" clip-rule="evenodd" d="M160 103.333L160 81.3333L15.9254 81.3333L16 0.0746488L5.59506e-05 0L1.39876e-05 320L16 320C16 148.741 64.6667 103.333 160 103.333Z" fill="#121212"/>
  <rect width="320" height="320" fill="#F3F3F3" x="960" y="640"/>
  <path fill-rule="evenodd" clip-rule="evenodd" d="M1120 662L1200 662.075L1200 640.075L1280 640L1280 960L1200 960C1199.96 812.725 1200 742 1120 662Z" fill="#121212"/>
  <rect width="320" height="320" fill="#F3F3F3" x="320" y="640"/>
  <path fill-rule="evenodd" clip-rule="evenodd" d="M480 662L560 662.075L560 640.075L640 640L640 960L560 960C559.957 812.725 560 742 480 662Z" fill="#121212"/>
  <rect width="320" height="320" fill="#D9D9D6" x="961" y="320"/>
  <path d="M1281 320 C1211.73 409.361 1159.6 510.771 1127.24 619.106 L1121 640 L1281 640 L1281 320 Z" fill="#121212"/>
  <rect width="320" height="320" fill="#D9D9D6" x="321" y="320"/>
  <path d="M641 320 C571.732 409.361 519.601 510.771 487.241 619.106 L481 640 L641 640 L641 320 Z" fill="#121212"/>
  <rect width="320" height="320" fill="#D9D9D6" x="1280" y="640"/>
  <path fill-rule="evenodd" clip-rule="evenodd" d="M1440 662L1360 662.075L1360 640.075L1280 640L1280 960L1360 960C1360.04 812.725 1360 742 1440 662Z" fill="#121212"/>
  <rect width="320" height="320" fill="#F3F3F3" x="1281" y="320"/>
  <path d="M1281 320 C1350.27 409.361 1402.4 510.771 1434.76 619.106 L1441 640 L1281 640 L1281 320 Z" fill="#121212"/>
  <rect width="320" height="320" fill="#D9D9D6" x="1280" y="0"/>
  <path fill-rule="evenodd" clip-rule="evenodd" d="M1440 103.333L1440 81.3333L1295.93 81.3333L1296 0.0746488L1280 0L1280 320L1296 320C1296 148.741 1344.67 103.333 1440 103.333Z" fill="#121212"/>
  <rect width="320" height="320" fill="#F3F3F3" x="1600" y="640"/>
  <path fill-rule="evenodd" clip-rule="evenodd" d="M1760 662L1840 662.075L1840 640.075L1920 640L1920 960L1840 960C1839.96 812.725 1840 742 1760 662Z" fill="#121212"/>
  <path d="M1601,320 L1601,640 L1920,640 L1920,320 Z" fill="#D9D9D6"/>
  <path d="M1912.430711,331.23251 L1904.041105,342.588306 L1895.832324,354.065164 L1887.805509,365.660861 L1879.961802,377.373173 L1872.302344,389.199875 L1864.828276,401.138744 L1857.540741,413.187556 L1850.440879,425.344086 L1843.529832,437.606111 L1836.808742,449.971407 L1830.27875,462.43775 L1823.940998,475.002916 L1817.796626,487.664681 L1811.846777,500.42082 L1806.092593,513.269111 L1800.535213,526.207329 L1795.175781,539.23325 L1790.015438,552.34465 L1785.055324,565.539306 L1780.296582,578.814992 L1775.740353,592.169486 L1771.387779,605.600563 L1767.24,619.106 L1767.24,619.106 L1766.98,619.976583 L1766.72,620.847167 L1766.46,621.71775 L1766.2,622.588333 L1765.94,623.458917 L1765.68,624.3295 L1765.42,625.200083 L1765.16,626.070667 L1764.9,626.94125 L1764.64,627.811833 L1764.38,628.682417 L1764.12,629.553 L1763.86,630.423583 L1763.6,631.294167 L1763.34,632.16475 L1763.08,633.035333 L1762.82,633.905917 L1762.56,634.7765 L1762.3,635.647083 L1762.04,636.517667 L1761.78,637.38825 L1761.52,638.258833 L1761.26,639.129417 L1761,640 L1767.666667,640 L1774.333333,640 L1781,640 L1787.666667,640 L1794.333333,640 L1801,640 L1807.666667,640 L1814.333333,640 L1821,640 L1827.666667,640 L1834.333333,640 L1841,640 L1847.666667,640 L1854.333333,640 L1861,640 L1867.666667,640 L1874.333333,640 L1881,640 L1887.666667,640 L1894.333333,640 L1901,640 L1907.666667,640 L1914.333333,640 L1920,640 L1920,321.310787 Z" fill="#121212"/>
</svg>
