<?xml version="1.0" encoding="UTF-8"?>
<svg id="Layer_1" xmlns="http://www.w3.org/2000/svg" version="1.1" viewBox="0 0 1920 960">
  <!-- Generator: Adobe Illustrator 30.2.1, SVG Export Plug-In . SVG Version: 2.1.1 Build 1)  -->
  <defs>
    <style>
      .st0 {
        fill-rule: evenodd;
      }

      .st0, .st1 {
        fill: #121212;
      }

      .st2 {
        fill: #d9d9d6;
      }

      .st3 {
        fill: #ffa300;
      }

      .st4 {
        fill: #f3f3f3;
      }
    </style>
  </defs>
  <rect class="st2" width="1920" height="960"/>
  <path class="st4" d="M1280,320c-24.21,2.02-47.43,16.74-57.19,44.18-13.26,37.3-55.88,54.96-91.64,37.96-56.79-26.99-116.03,32.25-89.03,89.03,17,35.76-.66,78.37-37.96,91.64-27.44,9.76-42.17,32.98-44.18,57.19h-32l-1.57-.02-1.57-.06-1.57-.09-1.56-.14-1.56-.17-1.56-.21-1.55-.25-1.55-.29-1.53-.33-1.53-.36-1.52-.4-1.51-.44-1.5-.47-1.48-.51-1.47-.55-1.46-.58-1.45-.62-1.42-.65-1.42-.69-1.39-.73-1.38-.75-1.35-.8-1.34-.82-1.32-.86-1.29-.88-1.27-.92-1.25-.96-1.23-.98-1.2-1.01-1.18-1.04-1.15-1.07-1.12-1.1-1.1-1.12-1.07-1.15-1.04-1.18-1.01-1.2-.98-1.23-.96-1.25-.92-1.27-.88-1.29-.86-1.32-.82-1.34-.8-1.35-.75-1.38-.73-1.39-.69-1.42-.65-1.42-.62-1.45-.58-1.46-.55-1.47-.51-1.48-.47-1.5-.44-1.51-.4-1.52-.36-1.53-.33-1.53-.29-1.55-.25-1.55-.21-1.56-.17-1.56-.14-1.56-.09-1.57-.06-1.57-.02-1.57.02-1.57.06-1.57.09-1.57.14-1.56.17-1.56.21-1.56.25-1.55.29-1.55.33-1.53.36-1.53.4-1.52.44-1.51.47-1.5.51-1.48.55-1.47.58-1.46.62-1.45.65-1.42.69-1.42.73-1.39.75-1.38.8-1.35.82-1.34.86-1.32.88-1.29.92-1.27.96-1.25.98-1.23,1.01-1.2,1.04-1.18,1.07-1.15,1.1-1.12,1.12-1.1,1.15-1.07,1.18-1.04,1.2-1.01,1.23-.98,1.25-.96,1.27-.92,1.29-.88,1.32-.86,1.34-.82,1.35-.8,1.38-.75,1.39-.73,1.42-.69,1.42-.65,1.45-.62,1.46-.58,1.47-.55,1.48-.51,1.5-.47,1.51-.44,1.52-.4,1.53-.36,1.53-.33,1.55-.29,1.55-.25,1.56-.21,1.56-.17,1.56-.14,1.57-.09,1.57-.06,1.57-.02-1.57-.02-1.57-.06-1.57-.09-1.56-.14-1.56-.17-1.56-.21-1.55-.25-1.55-.29-1.53-.33-1.53-.36-1.52-.4-1.51-.44-1.5-.47-1.48-.51-1.47-.55-1.46-.58-1.45-.62-1.42-.65-1.42-.69-1.39-.73-1.38-.75-1.35-.8-1.34-.82-1.32-.86-1.29-.88-1.27-.92-1.25-.96-1.23-.98-1.2-1.01-1.18-1.04-1.15-1.07-1.12-1.1-1.1-1.12-1.07-1.15-1.04-1.18-1.01-1.2-.98-1.23-.96-1.25-.92-1.27-.88-1.29-.86-1.32-.82-1.34-.8-1.35-.75-1.38-.73-1.39-.69-1.42-.65-1.42-.62-1.45-.58-1.46-.55-1.47-.51-1.48-.47-1.5-.44-1.51-.4-1.52-.36-1.53-.33-1.53-.29-1.55-.25-1.55-.21-1.56-.17-1.56-.14-1.56-.09-1.57-.06-1.57-.02-1.57.02-1.57.06-1.57.09-1.57.14-1.56.17-1.56.21-1.56.25-1.55.29-1.55.33-1.53.36-1.53.4-1.52.44-1.51.47-1.5.51-1.48.55-1.47.58-1.46.62-1.45.65-1.42.69-1.42.73-1.39.75-1.38.8-1.35.82-1.34.86-1.32.88-1.29.92-1.27.96-1.25.98-1.23,1.01-1.2,1.04-1.18,1.07-1.15,1.1-1.12,1.12-1.1,1.15-1.07,1.18-1.04,1.2-1.01,1.23-.98.03-.03c-42.16-19.21-82.73-5.73-116.4,8.02-23.8,9.73-49.09,20.06-79.33,20.06-15.06,0-27.27-11.82-27.27-26.4s12.21-26.4,27.27-26.4c-29.23,0-52.93-23.64-52.93-52.8s23.7-52.8,52.93-52.8c-15.06,0-27.27-11.82-27.27-26.4s12.21-26.4,27.27-26.4c30.24,0,55.53,10.33,79.33,20.06,33.67,13.75,74.24,27.23,116.4,8.02l-.03-.03-1.23-.98-1.2-1.01-1.18-1.04-1.15-1.07-1.12-1.1-1.1-1.12-1.07-1.15-1.04-1.18-1.01-1.2-.98-1.23-.96-1.25-.92-1.27-.88-1.29-.86-1.32-.82-1.34-.8-1.35-.75-1.38-.73-1.39-.69-1.42-.65-1.42-.62-1.45-.58-1.46-.55-1.47-.51-1.48-.47-1.5-.44-1.51-.4-1.52-.36-1.53-.33-1.53-.29-1.55-.25-1.55-.21-1.56-.17-1.56-.14-1.56-.09-1.57-.06-1.57-.02-1.57.02-1.57.06-1.57.09-1.57.14-1.56.17-1.56.21-1.56.25-1.55.29-1.55.33-1.53.36-1.53.4-1.52.44-1.51.47-1.5.51-1.48.55-1.47.58-1.46.62-1.45.65-1.42.69-1.42.73-1.39.75-1.38.8-1.35.82-1.34.86-1.32.88-1.29.92-1.27.96-1.25.98-1.23,1.01-1.2,1.04-1.18,1.07-1.15,1.1-1.12,1.12-1.1,1.15-1.07,1.18-1.04,1.2-1.01,1.23-.98,1.25-.96,1.27-.92,1.29-.88,1.32-.86,1.34-.82,1.35-.8,1.38-.75,1.39-.73,1.42-.69,1.42-.65,1.45-.62,1.46-.58,1.47-.55,1.48-.51,1.5-.47,1.51-.44,1.52-.4,1.53-.36,1.53-.33,1.55-.29,1.55-.25,1.56-.21,1.56-.17,1.56-.14,1.57-.09,1.57-.06,1.57-.02-1.57-.02-1.57-.06-1.57-.09-1.56-.14-1.56-.17-1.56-.21-1.55-.25-1.55-.29-1.53-.33-1.53-.36-1.52-.4-1.51-.44-1.5-.47-1.48-.51-1.47-.55-1.46-.58-1.45-.62-1.42-.65-1.42-.69-1.39-.73-1.38-.75-1.35-.8-1.34-.82-1.32-.86-1.29-.88-1.27-.92-1.25-.96-1.23-.98-1.2-1.01-1.18-1.04-1.15-1.07-1.12-1.1-1.1-1.12-1.07-1.15-1.04-1.18-1.01-1.2-.98-1.23-.96-1.25-.92-1.27-.88-1.29-.86-1.32-.82-1.34-.8-1.35-.75-1.38-.73-1.39-.69-1.42-.65-1.42-.62-1.45-.58-1.46-.55-1.47-.51-1.48-.47-1.5-.44-1.51-.4-1.52-.36-1.53-.33-1.53-.29-1.55-.25-1.55-.21-1.56-.17-1.56-.14-1.56-.09-1.57-.06-1.57-.02-1.57.02-1.57.06-1.57.09-1.57.14-1.56.17-1.56.21-1.56.25-1.55.29-1.55.33-1.53.36-1.53.4-1.52.44-1.51.47-1.5.51-1.48.55-1.47.58-1.46.62-1.45.65-1.42.69-1.42.73-1.39.75-1.38.8-1.35.82-1.34.86-1.32.88-1.29.92-1.27.96-1.25.98-1.23,1.01-1.2,1.04-1.18,1.07-1.15,1.1-1.12,1.12-1.1,1.15-1.07,1.18-1.04,1.2-1.01,1.23-.98,1.25-.96,1.27-.92,1.29-.88,1.32-.86,1.34-.82,1.35-.8,1.38-.75,1.39-.73,1.42-.69,1.42-.65,1.45-.62,1.46-.58,1.47-.55,1.48-.51,1.5-.47,1.51-.44,1.52-.4,1.53-.36,1.53-.33,1.55-.29,1.55-.25,1.56-.21,1.56-.17,1.56-.14,1.57-.09,1.57-.06,1.57-.02h32c2.01,24.21,16.74,47.43,44.18,57.19,37.3,13.27,54.96,55.88,37.96,91.64-27,56.78,32.24,116.02,89.03,89.03,35.76-17,78.38.66,91.64,37.96,9.76,27.44,32.98,42.16,57.19,44.18Z"/>
  <path class="st0" d="M1440,480l160-160v320h-320v-80l160-80Z"/>
  <path class="st0" d="M1760,480l160-160v320h-320v-80l160-80Z"/>
  <polygon class="st1" points="960 960 1280 960 1120 800 960 960"/>
  <path class="st0" d="M160,160L320,0v320H0v-160h160Z"/>
  <path class="st0" d="M480,480l160,160h-320v-320h160v160Z"/>
  <path class="st0" d="M797.6,880l-157.6-240v320h320v-80h-162.4Z"/>
  <path class="st1" d="M320,0l160,320h-160V0Z"/>
  <rect class="st1" x="320" y="640" width="320" height="320"/>
  <path class="st3" d="M320,720h240v240h-240v-240Z"/>
  <rect class="st1" x="1600" y="640" width="320" height="320"/>
  <path class="st3" d="M1710,750h100v100h-100v-100Z"/>
  <rect class="st1" x="1280" y="640" width="320" height="320"/>
  <path class="st3" d="M1390,750h100v100h-100v-100Z"/>
  <circle class="st3" cx="1760" cy="160" r="120"/>
  <rect class="st1" y="640" width="320" height="320"/>
  <path class="st3" d="M0,720h240v240H0v-240Z"/>
  <rect class="st1" y="320" width="320" height="320"/>
  <path class="st3" d="M0,400h240v240H0v-240Z"/>
</svg>