<?xml version='1.0' encoding='UTF-8'?>
<svg xmlns="http://www.w3.org/2000/svg" width="1920" height="960" viewBox="0 0 1920 960">
<g clip-path="url(#clip0_76_3057)">
<rect width="1920" height="960" fill="#F3F3F3"/>
<rect width="320" height="320" fill="#F3F3F3"/>
<rect width="320" height="320" fill="#F3F3F3"/>
<rect width="320" height="320" transform="translate(0 320)" fill="#F3F3F3"/>
<rect y="320" width="320" height="320" fill="#F3F3F3"/>
<rect width="320" height="320" transform="translate(640)" fill="#4997D0"/>
<rect x="640" width="320" height="320" fill="#4997D0"/>
<rect width="320" height="320" transform="translate(640 640)" fill="#F3F3F3"/>
<rect x="640" y="640" width="320" height="320" fill="#F3F3F3"/>
<rect width="320" height="320" transform="translate(640 320)" fill="#F3F3F3"/>
<rect x="640" y="320" width="320" height="320" fill="#F3F3F3"/>
<rect width="320" height="320" transform="translate(1920) rotate(90)" fill="#F3F3F3"/>
<path d="M1600 96L1600 128L1920 128L1920 96L1600 96Z" fill="#121212"/>
<path d="M1600 160L1600 192L1920 192L1920 160L1600 160Z" fill="#121212"/>
<path d="M1600 224L1600 256L1920 256L1920 224L1600 224Z" fill="#121212"/>
<path d="M1600 32L1600 64L1920 64L1920 32L1600 32Z" fill="#121212"/>
<path d="M1600 288L1600 320L1920 320L1920 288L1600 288Z" fill="#121212"/>
<rect width="320" height="320" transform="translate(320)" fill="#F3F3F3"/>
<rect x="320" width="320" height="320" fill="#F3F3F3"/>
<rect width="320" height="320" transform="translate(320 320)" fill="#F3F3F3"/>
<rect x="320" y="320" width="320" height="320" fill="#F3F3F3"/>
<rect width="320" height="320" transform="translate(960)" fill="#F3F3F3"/>
<rect width="320" height="320" transform="translate(960 640)" fill="#F3F3F3"/>
<path d="M1056 960H1088V640H1056V960Z" fill="#121212"/>
<path d="M1120 960H1152V640H1120V960Z" fill="#121212"/>
<path d="M1184 960H1216V640H1184V960Z" fill="#121212"/>
<path d="M992 960H1024V640H992V960Z" fill="#121212"/>
<path d="M1248 960H1280V640H1248V960Z" fill="#121212"/>
<rect width="320" height="320" transform="translate(960 320)" fill="#F3F3F3"/>
<path d="M1056 640H1088V320H1056V640Z" fill="#121212"/>
<path d="M1120 640H1152V320H1120V640Z" fill="#121212"/>
<path d="M1184 640H1216V320H1184V640Z" fill="#121212"/>
<path d="M992 640H1024V320H992V640Z" fill="#121212"/>
<path d="M1248 640H1280V320H1248V640Z" fill="#121212"/>
<rect width="320" height="320" transform="translate(1600) rotate(90)" fill="#F3F3F3"/>
<path d="M1280 96L1280 128L1600 128L1600 96L1280 96Z" fill="#121212"/>
<path d="M1280 160L1280 192L1600 192L1600 160L1280 160Z" fill="#121212"/>
<path d="M1280 224L1280 256L1600 256L1600 224L1280 224Z" fill="#121212"/>
<path d="M1280 32L1280 64L1600 64L1600 32L1280 32Z" fill="#121212"/>
<path d="M1280 288L1280 320L1600 320L1600 288L1280 288Z" fill="#121212"/>
<g clip-path="url(#clip1_76_3057)">
<rect width="320" height="320" transform="translate(640) rotate(90)" fill="#FF4F00"/>
<path d="M320 320C320 187.452 320 80 320 80C452.548 80 560 187.452 560 320C560 320 452.548 320 320 320Z" fill="#F3F3F3"/>
<path d="M320 320C320 253.726 320 200 320 200C386.274 200 440 253.726 440 320C440 320 386.274 320 320 320Z" fill="#121212"/>
<path d="M640 320L640 0L320 -1.39876e-05C496.73 -6.26255e-06 640 143.27 640 320Z" fill="#4997D0"/>
</g>
<g clip-path="url(#clip2_76_3057)">
<rect width="320" height="320" transform="translate(1280 320)" fill="#FF4F00"/>
<path d="M1600 640C1467.45 640 1360 640 1360 640C1360 507.452 1467.45 400 1600 400C1600 400 1600 507.452 1600 640Z" fill="#F3F3F3"/>
<path d="M1600 640C1533.73 640 1480 640 1480 640C1480 573.726 1533.73 520 1600 520C1600 520 1600 573.726 1600 640Z" fill="#121212"/>
<path d="M1600 320L1280 320L1280 640C1280 463.27 1423.27 320 1600 320Z" fill="#121212"/>
</g>
<g clip-path="url(#clip3_76_3057)">
<rect width="320" height="320" fill="#FF4F00"/>
<path d="M320 320C187.452 320 80 320 80 320C80 187.452 187.452 80 320 80C320 80 320 187.452 320 320Z" fill="#F3F3F3"/>
<path d="M320 320C253.726 320 200 320 200 320C200 253.726 253.726 200 320 200C320 200 320 253.726 320 320Z" fill="#121212"/>
<path d="M320 0L0 0L0 320C0 143.27 143.27 0 320 0Z" fill="#FF4F00"/>
</g>
<g clip-path="url(#clip4_76_3057)">
<rect width="320" height="320" transform="translate(320 640) rotate(90)" fill="#FF4F00"/>
<path fill-rule="evenodd" clip-rule="evenodd" d="M408.357 687.823C373.807 686.825 347.574 687.823 347.574 676.005C347.574 665.872 375.676 664.838 412.023 664.086C452.806 664.086 496 665.872 496 652.065C496 640.045 470.117 640.045 429.333 640.045C426.133 640.045 415.084 640.033 411.991 640.011L320 640C222.798 640 227.992 640 227.992 640C224.682 640.028 214.104 640.043 210.667 640.045C170.197 640.101 144 640.045 144 640.045C144 640.045 144 664.086 192 664.086C228.347 664.838 291.042 665.872 291.042 676.005C291.042 687.823 264.81 686.825 230.26 687.823C189.477 687.823 144 687.823 144 711.808C144 735.793 185.811 735.793 226.594 735.793C262.941 737.297 291.042 735.602 291.042 759.587C291.042 783.572 258.347 783.448 217.864 783.572C177.08 783.572 144 790.957 144 818.859C144 846.761 176.709 853.977 217.179 854.157L217.864 854.157C258.347 854.336 291.042 870.072 291.042 889.444C291.042 908.816 258.347 924.551 217.864 924.73L217.179 924.73C176.709 924.91 144 940.533 144 960.017C144 979.501 177.08 995.304 217.864 995.304L218.563 995.304C259.36 995.304 292.426 1011.1 292.426 1030.59C292.426 1050.09 259.36 1065.88 218.563 1065.88L217.864 1065.88C177.08 1065.88 144 1081.69 144 1101.18C144 1120.66 177.08 1136.46 217.864 1136.46L218.563 1136.46C259.36 1136.46 292.426 1147.19 292.426 1160.45C292.426 1172.66 264.324 1182.74 227.977 1184.24L217.864 1184.24C177.08 1184.24 144 1194.98 144 1208.23C144 1221.47 177.08 1232.21 217.864 1232.21L231.644 1232.21C266.193 1233.21 292.426 1237.9 292.426 1244.03C292.426 1250.16 264.324 1255.2 227.977 1255.95L217.864 1255.95C177.08 1255.95 144 1255.95 144 1267.97C144 1279.99 177.08 1279.99 217.864 1279.99L218.563 1279.99C259.36 1279.99 292.426 1279.99 292.426 1279.99L344.757 1279.99C344.757 1279.99 381.653 1280.01 422.137 1279.99L422.821 1279.99C463.291 1279.93 496 1279.99 496 1267.97C496 1255.95 462.92 1255.95 422.137 1255.95L413.407 1255.95C377.06 1255.2 348.958 1249.93 348.958 1244.03C348.958 1238.13 375.191 1233.21 409.74 1232.21L422.137 1232.21C462.92 1232.21 496 1221.48 496 1208.23C496 1194.97 462.92 1184.24 422.137 1184.24L413.407 1184.24C377.06 1182.74 348.958 1172.66 348.958 1160.45C348.958 1147.27 381.653 1136.59 422.137 1136.46L422.821 1136.46C463.291 1136.28 496 1120.56 496 1101.18C496 1081.79 463.291 1066.06 422.821 1065.88L422.137 1065.88C381.653 1065.7 348.958 1049.96 348.958 1030.59C348.958 1011.22 381.653 995.484 422.137 995.304L422.821 995.304C463.291 995.124 496 979.501 496 960.017C496 940.533 462.92 924.73 422.137 924.73L421.438 924.73C380.64 924.73 347.574 908.939 347.574 889.444C347.574 869.948 380.64 854.157 421.438 854.157L422.137 854.157C462.92 854.157 496 844.1 496 818.859C496 793.617 462.92 783.572 422.137 783.572L421.438 783.572C380.64 783.572 347.574 783.572 347.574 759.587C347.574 735.602 375.676 737.297 412.023 735.793L422.137 735.793C462.92 735.793 496 735.793 496 711.808C496 687.823 462.92 687.823 422.137 687.823L408.357 687.823Z" fill="#121212"/>
</g>
<g clip-path="url(#clip5_76_3057)">
<rect width="320" height="320" transform="matrix(4.37114e-08 1 1 -4.37114e-08 320 640)" fill="#FF4F00"/>
<path fill-rule="evenodd" clip-rule="evenodd" d="M231.643 687.823C266.193 686.825 292.426 687.823 292.426 676.005C292.426 665.872 264.324 664.838 227.977 664.086C187.194 664.086 144 665.872 144 652.065C144 640.045 169.883 640.045 210.667 640.045C213.867 640.045 224.916 640.033 228.009 640.011L320 640C417.202 640 412.008 640 412.008 640C415.318 640.028 425.896 640.043 429.333 640.045C469.803 640.101 496 640.045 496 640.045C496 640.045 496 664.086 448 664.086C411.653 664.838 348.958 665.872 348.958 676.005C348.958 687.823 375.19 686.825 409.74 687.823C450.523 687.823 496 687.823 496 711.808C496 735.793 454.189 735.793 413.406 735.793C377.059 737.297 348.958 735.602 348.958 759.587C348.958 783.572 381.653 783.448 422.136 783.572C462.92 783.572 496 790.957 496 818.859C496 846.761 463.291 853.977 422.821 854.157L422.136 854.157C381.653 854.336 348.958 870.072 348.958 889.444C348.958 908.816 381.653 924.551 422.136 924.73L422.821 924.73C463.291 924.91 496 940.533 496 960.017C496 979.501 462.92 995.304 422.136 995.304L421.437 995.304C380.64 995.304 347.574 1011.1 347.574 1030.59C347.574 1050.09 380.64 1065.88 421.437 1065.88L422.136 1065.88C462.92 1065.88 496 1081.69 496 1101.18C496 1120.66 462.92 1136.46 422.136 1136.46L421.437 1136.46C380.64 1136.46 347.574 1147.19 347.574 1160.45C347.574 1172.66 375.676 1182.74 412.023 1184.24L422.136 1184.24C462.92 1184.24 496 1194.98 496 1208.23C496 1221.47 462.92 1232.21 422.136 1232.21L408.356 1232.21C373.807 1233.21 347.574 1237.9 347.574 1244.03C347.574 1250.16 375.676 1255.2 412.023 1255.95L422.136 1255.95C462.92 1255.95 496 1255.95 496 1267.97C496 1279.99 462.92 1279.99 422.136 1279.99L421.437 1279.99C380.64 1279.99 347.574 1279.99 347.574 1279.99L295.243 1279.99C295.243 1279.99 258.347 1280.01 217.863 1279.99L217.179 1279.99C176.709 1279.93 144 1279.99 144 1267.97C144 1255.95 177.08 1255.95 217.863 1255.95L226.593 1255.95C262.94 1255.2 291.042 1249.93 291.042 1244.03C291.042 1238.13 264.809 1233.21 230.26 1232.21L217.863 1232.21C177.08 1232.21 144 1221.48 144 1208.23C144 1194.97 177.08 1184.24 217.863 1184.24L226.593 1184.24C262.94 1182.74 291.042 1172.66 291.042 1160.45C291.042 1147.27 258.347 1136.59 217.863 1136.46L217.179 1136.46C176.709 1136.28 144 1120.56 144 1101.18C144 1081.79 176.709 1066.06 217.179 1065.88L217.863 1065.88C258.347 1065.7 291.042 1049.96 291.042 1030.59C291.042 1011.22 258.347 995.484 217.863 995.304L217.179 995.304C176.709 995.124 144 979.501 144 960.017C144 940.533 177.08 924.73 217.863 924.73L218.562 924.73C259.36 924.73 292.426 908.939 292.426 889.444C292.426 869.948 259.36 854.157 218.562 854.157L217.863 854.157C177.08 854.157 144 844.1 144 818.859C144 793.617 177.08 783.572 217.863 783.572L218.562 783.572C259.36 783.572 292.426 783.572 292.426 759.587C292.426 735.602 264.324 737.297 227.977 735.793L217.863 735.793C177.08 735.793 144 735.793 144 711.808C144 687.823 177.08 687.823 217.863 687.823L231.643 687.823Z" fill="#121212"/>
</g>
<rect width="320" height="320" transform="translate(640 960) rotate(-90)" fill="#F3F3F3"/>
<g clip-path="url(#clip6_76_3057)">
<path d="M640.013 640L640 640L640 960L960 960C783.802 960 640.013 816.667 640.013 640Z" fill="#FF4F00"/>
<path fill-rule="evenodd" clip-rule="evenodd" d="M704 640C704 781.385 818.615 896 960 896L960 928C800.942 928 672 799.058 672 640L704 640Z" fill="#121212"/>
</g>
<path fill-rule="evenodd" clip-rule="evenodd" d="M768 640C768 746.039 853.961 832 960 832L960 864C836.288 864 736 763.712 736 640L768 640Z" fill="#121212"/>
<path fill-rule="evenodd" clip-rule="evenodd" d="M832 640C832 710.692 889.308 768 960 768L960 800C871.634 800 800 728.366 800 640L832 640Z" fill="#121212"/>
<path fill-rule="evenodd" clip-rule="evenodd" d="M896 640C896 675.346 924.654 704 960 704L960 736C906.981 736 864 693.019 864 640L896 640Z" fill="#121212"/>
<path fill-rule="evenodd" clip-rule="evenodd" d="M928 640L960 640L960 672C942.327 672 928 657.673 928 640Z" fill="#121212"/>
<rect width="320" height="320" transform="translate(640 320)" fill="#F3F3F3"/>
<g clip-path="url(#clip7_76_3057)">
<path d="M960 320.013L960 320L640 320L640 640C640 463.802 783.333 320.013 960 320.013Z" fill="#4997D0"/>
<path fill-rule="evenodd" clip-rule="evenodd" d="M960 384C818.615 384 704 498.615 704 640L672 640C672 480.942 800.942 352 960 352L960 384Z" fill="#121212"/>
</g>
<path fill-rule="evenodd" clip-rule="evenodd" d="M960 448C853.961 448 768 533.961 768 640L736 640C736 516.288 836.288 416 960 416L960 448Z" fill="#121212"/>
<path fill-rule="evenodd" clip-rule="evenodd" d="M960 512C889.308 512 832 569.308 832 640L800 640C800 551.634 871.634 480 960 480L960 512Z" fill="#121212"/>
<path fill-rule="evenodd" clip-rule="evenodd" d="M960 576C924.654 576 896 604.654 896 640L864 640C864 586.981 906.981 544 960 544L960 576Z" fill="#121212"/>
<path fill-rule="evenodd" clip-rule="evenodd" d="M960 608L960 640L928 640C928 622.327 942.327 608 960 608Z" fill="#121212"/>
<rect width="320" height="320" transform="translate(960)" fill="#F3F3F3"/>
<g clip-path="url(#clip8_76_3057)">
<path d="M1280 0.012856L1280 5.59506e-05L960 0L960 320C960 143.802 1103.33 0.0128251 1280 0.012856Z" fill="#4997D0"/>
<path fill-rule="evenodd" clip-rule="evenodd" d="M1280 64.0001C1138.62 64 1024 178.615 1024 320L992 320C992 160.942 1120.94 32 1280 32.0001L1280 64.0001Z" fill="#121212"/>
</g>
<path fill-rule="evenodd" clip-rule="evenodd" d="M1280 128C1173.96 128 1088 213.961 1088 320L1056 320C1056 196.288 1156.29 96 1280 96.0001L1280 128Z" fill="#121212"/>
<path fill-rule="evenodd" clip-rule="evenodd" d="M1280 192C1209.31 192 1152 249.308 1152 320L1120 320C1120 231.634 1191.63 160 1280 160L1280 192Z" fill="#121212"/>
<path fill-rule="evenodd" clip-rule="evenodd" d="M1280 256C1244.65 256 1216 284.654 1216 320L1184 320C1184 266.981 1226.98 224 1280 224L1280 256Z" fill="#121212"/>
<path fill-rule="evenodd" clip-rule="evenodd" d="M1280 288L1280 320L1248 320C1248 302.327 1262.33 288 1280 288Z" fill="#121212"/>
<g clip-path="url(#clip9_76_3057)">
<rect width="320" height="320" transform="translate(1920 320) rotate(90)" fill="#FF4F00"/>
<path d="M1600 640C1600 507.452 1600 400 1600 400C1732.55 400 1840 507.452 1840 640C1840 640 1732.55 640 1600 640Z" fill="#F3F3F3"/>
<path d="M1600 640C1600 573.726 1600 520 1600 520C1666.27 520 1720 573.726 1720 640C1720 640 1666.27 640 1600 640Z" fill="#121212"/>
<path d="M1920 640L1920 320L1600 320C1776.73 320 1920 463.27 1920 640Z" fill="#FF4F00"/>
</g>
<g clip-path="url(#clip10_76_3057)">
<rect width="320" height="320" transform="translate(1600 640) rotate(90)" fill="#FF4F00"/>
<path d="M1600 640C1600 772.548 1600 880 1600 880C1467.45 880 1360 772.548 1360 640C1360 640 1467.45 640 1600 640Z" fill="#F3F3F3"/>
<path fill-rule="evenodd" clip-rule="evenodd" d="M1600 640L1480 640C1480 679.706 1499.28 714.908 1529 736.75C1530.56 737.898 1529.84 740.45 1527.9 740.523C1510.77 741.168 1491.51 741.387 1475.97 741.564C1474.62 741.579 1473.29 741.594 1472 741.609C1424 741.609 1424 751.2 1424 755.2C1424 755.228 1424.01 755.255 1424.03 755.282C1424.01 755.309 1424 755.336 1424 755.364C1424 759.332 1424 768.847 1472 768.847C1473.29 768.862 1474.62 768.877 1475.97 768.892C1512.95 769.309 1571.04 769.964 1571.2 776H1600V760L1600 755.2V734.4L1600 640Z" fill="#121212"/>
<path fill-rule="evenodd" clip-rule="evenodd" d="M1571.2 923.2C1571.04 933.963 1512.95 935.131 1475.97 935.875C1474.62 935.902 1473.29 935.929 1472 935.955C1424 935.955 1424 960 1424 960L1600 960L1600 923.2L1571.2 923.2Z" fill="#121212"/>
<path fill-rule="evenodd" clip-rule="evenodd" d="M1571.2 849.6C1571.04 860.363 1512.95 861.531 1475.97 862.275C1474.62 862.302 1473.29 862.329 1472 862.355C1424 862.355 1424 886.4 1424 886.4L1600 886.4L1600 849.6L1571.2 849.6Z" fill="#121212"/>
<path fill-rule="evenodd" clip-rule="evenodd" d="M1571.2 776C1571.04 786.763 1512.95 787.931 1475.97 788.675C1474.62 788.702 1473.29 788.729 1472 788.755C1424 788.755 1424 812.8 1424 812.8L1600 812.8L1600 776L1571.2 776Z" fill="#121212"/>
<path fill-rule="evenodd" clip-rule="evenodd" d="M1571.2 849.6C1571.04 838.837 1512.95 837.669 1475.97 836.925C1474.62 836.898 1473.29 836.871 1472 836.845C1424 836.845 1424 812.8 1424 812.8L1600 812.8L1600 849.6L1571.2 849.6Z" fill="#121212"/>
<path fill-rule="evenodd" clip-rule="evenodd" d="M1571.2 923.2C1571.04 912.437 1512.95 911.269 1475.97 910.525C1474.62 910.498 1473.29 910.471 1472 910.445C1424 910.445 1424 886.4 1424 886.4L1600 886.4L1600 923.2L1571.2 923.2Z" fill="#121212"/>
</g>
<g clip-path="url(#clip11_76_3057)">
<rect width="320" height="320" transform="matrix(4.37114e-08 1 1 -4.37114e-08 1600 640)" fill="#FF4F00"/>
<path d="M1600 640C1600 772.548 1600 880 1600 880C1732.55 880 1840 772.548 1840 640C1840 640 1732.55 640 1600 640Z" fill="#F3F3F3"/>
<path fill-rule="evenodd" clip-rule="evenodd" d="M1600 640L1720 640C1720 679.706 1700.72 714.908 1671 736.75C1669.44 737.898 1670.16 740.45 1672.1 740.523C1689.23 741.168 1708.49 741.387 1724.03 741.564C1725.38 741.579 1726.71 741.594 1728 741.609C1776 741.609 1776 751.2 1776 755.2C1776 755.228 1775.99 755.255 1775.97 755.282C1775.99 755.309 1776 755.336 1776 755.364C1776 759.332 1776 768.847 1728 768.847C1726.71 768.862 1725.38 768.877 1724.03 768.892C1687.05 769.309 1628.96 769.964 1628.8 776H1600V760L1600 755.2V734.4L1600 640Z" fill="#121212"/>
<path fill-rule="evenodd" clip-rule="evenodd" d="M1628.8 923.2C1628.96 933.963 1687.05 935.131 1724.03 935.875C1725.38 935.902 1726.71 935.929 1728 935.955C1776 935.955 1776 960 1776 960L1600 960L1600 923.2L1628.8 923.2Z" fill="#121212"/>
<path fill-rule="evenodd" clip-rule="evenodd" d="M1628.8 849.6C1628.96 860.363 1687.05 861.531 1724.03 862.275C1725.38 862.302 1726.71 862.329 1728 862.355C1776 862.355 1776 886.4 1776 886.4L1600 886.4L1600 849.6L1628.8 849.6Z" fill="#121212"/>
<path fill-rule="evenodd" clip-rule="evenodd" d="M1628.8 776C1628.96 786.763 1687.05 787.931 1724.03 788.675C1725.38 788.702 1726.71 788.729 1728 788.755C1776 788.755 1776 812.8 1776 812.8L1600 812.8L1600 776L1628.8 776Z" fill="#121212"/>
<path fill-rule="evenodd" clip-rule="evenodd" d="M1628.8 849.6C1628.96 838.837 1687.05 837.669 1724.03 836.925C1725.38 836.898 1726.71 836.871 1728 836.845C1776 836.845 1776 812.8 1776 812.8L1600 812.8L1600 849.6L1628.8 849.6Z" fill="#121212"/>
<path fill-rule="evenodd" clip-rule="evenodd" d="M1628.8 923.2C1628.96 912.437 1687.05 911.269 1724.03 910.525C1725.38 910.498 1726.71 910.471 1728 910.445C1776 910.445 1776 886.4 1776 886.4L1600 886.4L1600 923.2L1628.8 923.2Z" fill="#121212"/>
</g>
<g clip-path="url(#clip12_76_3057)">
<rect width="320" height="320" transform="translate(320 320) rotate(90)" fill="#FF4F00"/>
<path d="M320 320C320 452.548 320 560 320 560C187.452 560 80 452.548 80 320C80 320 187.452 320 320 320Z" fill="#F3F3F3"/>
<path fill-rule="evenodd" clip-rule="evenodd" d="M320 320L200 320C200 359.706 219.284 394.908 248.998 416.75C250.559 417.898 249.837 420.45 247.901 420.523C230.773 421.168 211.509 421.387 195.974 421.564C194.62 421.579 193.294 421.594 192 421.609C144 421.609 144 431.2 144 435.2C144 435.228 144.008 435.255 144.025 435.282C144.008 435.309 144 435.336 144 435.364C144 439.332 144 448.847 192 448.847C193.294 448.862 194.62 448.877 195.974 448.892C232.946 449.309 291.039 449.964 291.2 456H320V440L320 435.2V414.4L320 320Z" fill="#121212"/>
<path fill-rule="evenodd" clip-rule="evenodd" d="M291.2 603.2C291.039 613.963 232.946 615.131 195.974 615.875C194.62 615.902 193.294 615.929 192 615.955C144 615.955 144 640 144 640L320 640L320 603.2L291.2 603.2Z" fill="#121212"/>
<path fill-rule="evenodd" clip-rule="evenodd" d="M291.2 529.6C291.039 540.363 232.946 541.531 195.974 542.275C194.62 542.302 193.294 542.329 192 542.355C144 542.355 144 566.4 144 566.4L320 566.4L320 529.6L291.2 529.6Z" fill="#121212"/>
<path fill-rule="evenodd" clip-rule="evenodd" d="M291.2 456C291.039 466.763 232.946 467.931 195.974 468.675C194.62 468.702 193.294 468.729 192 468.755C144 468.755 144 492.8 144 492.8L320 492.8L320 456L291.2 456Z" fill="#121212"/>
<path fill-rule="evenodd" clip-rule="evenodd" d="M291.2 529.6C291.039 518.837 232.946 517.669 195.974 516.925C194.62 516.898 193.294 516.871 192 516.845C144 516.845 144 492.8 144 492.8L320 492.8L320 529.6L291.2 529.6Z" fill="#121212"/>
<path fill-rule="evenodd" clip-rule="evenodd" d="M291.2 603.2C291.039 592.437 232.946 591.269 195.974 590.525C194.62 590.498 193.294 590.471 192 590.445C144 590.445 144 566.4 144 566.4L320 566.4L320 603.2L291.2 603.2Z" fill="#121212"/>
</g>
<g clip-path="url(#clip13_76_3057)">
<rect width="320" height="320" transform="matrix(4.37114e-08 1 1 -4.37114e-08 320 320)" fill="#FF4F00"/>
<path d="M320 320C320 452.548 320 560 320 560C452.548 560 560 452.548 560 320C560 320 452.548 320 320 320Z" fill="#F3F3F3"/>
<path fill-rule="evenodd" clip-rule="evenodd" d="M320 320L440 320C440 359.706 420.716 394.908 391.002 416.75C389.441 417.898 390.163 420.45 392.099 420.523C409.227 421.168 428.491 421.387 444.026 421.564C445.38 421.579 446.706 421.594 448 421.609C496 421.609 496 431.2 496 435.2C496 435.228 495.992 435.255 495.975 435.282C495.992 435.309 496 435.336 496 435.364C496 439.332 496 448.847 448 448.847C446.706 448.862 445.38 448.877 444.026 448.892C407.054 449.309 348.961 449.964 348.8 456H320V440L320 435.2V414.4L320 320Z" fill="#121212"/>
<path fill-rule="evenodd" clip-rule="evenodd" d="M348.8 603.2C348.961 613.963 407.054 615.131 444.026 615.875C445.38 615.902 446.706 615.929 448 615.955C496 615.955 496 640 496 640L320 640L320 603.2L348.8 603.2Z" fill="#121212"/>
<path fill-rule="evenodd" clip-rule="evenodd" d="M348.8 529.6C348.961 540.363 407.054 541.531 444.026 542.275C445.38 542.302 446.706 542.329 448 542.355C496 542.355 496 566.4 496 566.4L320 566.4L320 529.6L348.8 529.6Z" fill="#121212"/>
<path fill-rule="evenodd" clip-rule="evenodd" d="M348.8 456C348.961 466.763 407.054 467.931 444.026 468.675C445.38 468.702 446.706 468.729 448 468.755C496 468.755 496 492.8 496 492.8L320 492.8L320 456L348.8 456Z" fill="#121212"/>
<path fill-rule="evenodd" clip-rule="evenodd" d="M348.8 529.6C348.961 518.837 407.054 517.669 444.026 516.925C445.38 516.898 446.706 516.871 448 516.845C496 516.845 496 492.8 496 492.8L320 492.8L320 529.6L348.8 529.6Z" fill="#121212"/>
<path fill-rule="evenodd" clip-rule="evenodd" d="M348.8 603.2C348.961 592.437 407.054 591.269 444.026 590.525C445.38 590.498 446.706 590.471 448 590.445C496 590.445 496 566.4 496 566.4L320 566.4L320 603.2L348.8 603.2Z" fill="#121212"/>
</g>
</g>
<defs>
<clipPath id="clip0_76_3057">
<rect width="1920" height="960" fill="#FFFFFF"/>
</clipPath>
<clipPath id="clip1_76_3057">
<rect width="320" height="320" fill="#FFFFFF" transform="translate(640) rotate(90)"/>
</clipPath>
<clipPath id="clip2_76_3057">
<rect width="320" height="320" fill="#FFFFFF" transform="translate(1280 320)"/>
</clipPath>
<clipPath id="clip3_76_3057">
<rect width="320" height="320" fill="#FFFFFF"/>
</clipPath>
<clipPath id="clip4_76_3057">
<rect width="320" height="320" fill="#FFFFFF" transform="translate(320 640) rotate(90)"/>
</clipPath>
<clipPath id="clip5_76_3057">
<rect width="320" height="320" fill="#FFFFFF" transform="matrix(4.37114e-08 1 1 -4.37114e-08 320 640)"/>
</clipPath>
<clipPath id="clip6_76_3057">
<rect width="320" height="320" fill="#FFFFFF" transform="translate(640 960) rotate(-90)"/>
</clipPath>
<clipPath id="clip7_76_3057">
<rect width="320" height="320" fill="#FFFFFF" transform="translate(640 320)"/>
</clipPath>
<clipPath id="clip8_76_3057">
<rect width="320" height="320" fill="#FFFFFF" transform="translate(960)"/>
</clipPath>
<clipPath id="clip9_76_3057">
<rect width="320" height="320" fill="#FFFFFF" transform="translate(1920 320) rotate(90)"/>
</clipPath>
<clipPath id="clip10_76_3057">
<rect width="320" height="320" fill="#FFFFFF" transform="translate(1600 640) rotate(90)"/>
</clipPath>
<clipPath id="clip11_76_3057">
<rect width="320" height="320" fill="#FFFFFF" transform="matrix(4.37114e-08 1 1 -4.37114e-08 1600 640)"/>
</clipPath>
<clipPath id="clip12_76_3057">
<rect width="320" height="320" fill="#FFFFFF" transform="translate(320 320) rotate(90)"/>
</clipPath>
<clipPath id="clip13_76_3057">
<rect width="320" height="320" fill="#FFFFFF" transform="matrix(4.37114e-08 1 1 -4.37114e-08 320 320)"/>
</clipPath>
</defs>
</svg>
