<?xml version='1.0' encoding='UTF-8'?>
<svg xmlns="http://www.w3.org/2000/svg" width="1920" height="960" viewBox="0 0 1920 960">
  <rect width="1920" height="960" fill="#F3F3F3"/>
  <rect width="320" height="320" fill="#121212" x="0" y="640"/>
  <path d="M-1.39876e-05 880L-3.05176e-05 720L320 720L320 880L-1.39876e-05 880Z" fill="#FF4F00"/>
  <rect width="320" height="320" fill="#121212" x="640" y="0"/>
  <path d="M640 320L960 320L960 -1.39876e-05C783.32 -0.0512148 640.051 143.27 640 320Z" fill="#F3F3F3"/>
  <rect width="320" height="320" fill="#121212" x="960" y="640"/>
  <path d="M1280 640L960 640L960 960C1136.68 960.051 1279.95 816.73 1280 640Z" fill="#F3F3F3"/>
  <rect width="320" height="320" fill="#FF4F00" x="1280" y="640"/>
  <path d="M1520 640L1520 720L1600 720L1600 640L1520 640Z" fill="#121212"/>
  <rect width="320" height="320" fill="#FF4F00" x="320" y="640"/>
  <path d="M400 640L400 720L320 720L320 640L400 640Z" fill="#121212"/>
  <rect width="320" height="320" fill="#121212" x="960" y="0"/>
  <path d="M960 -1.52549e-05L960 320L1280 320C1280.05 143.32 1136.73 0.0511704 960 -1.52549e-05Z" fill="#F3F3F3"/>
  <rect width="320" height="320" fill="#121212" x="640" y="640"/>
  <path d="M960 960L960 640L640 640C639.949 816.68 783.27 959.949 960 960Z" fill="#F3F3F3"/>
  <rect width="320" height="320" fill="#121212" x="1600" y="640"/>
  <path d="M1600 880L1600 720L1920 720L1920 880L1600 880Z" fill="#FF4F00"/>
  <rect width="320" height="320" fill="#F3F3F3" x="960" y="320"/>
  <path d="M1280 439.88 C1280 546.681 1150.87 600.168 1075.35 524.648 C999.832 449.128 1053.32 320 1160.12 320 H1280 V439.88 Z" fill="#FF4F00"/>
  <rect width="320" height="320" fill="#F3F3F3" x="640" y="320"/>
  <path d="M759.88 320 C866.681 320 920.168 449.128 844.648 524.648 C769.128 600.168 640 546.681 640 439.88 V320 H759.88 Z" fill="#FF4F00"/>
  <rect width="320" height="320" fill="#FF4F00" x="320" y="0"/>
  <path d="M320 320C320 187.452 320 80 320 80C452.548 80 560 187.452 560 320C560 320 452.548 320 320 320Z" fill="#F3F3F3"/>
  <path d="M320 320C320 253.726 320 200 320 200C386.274 200 440 253.726 440 320C440 320 386.274 320 320 320Z" fill="#121212"/>
  <path d="M640 320L640 0L320 -1.39876e-05C496.73 -6.26255e-06 640 143.27 640 320Z" fill="#121212"/>
  <rect width="320" height="320" fill="#FF4F00" x="1600" y="320"/>
  <path d="M1600 320C1732.55 320 1840 320 1840 320C1840 452.548 1732.55 560 1600 560C1600 560 1600 452.548 1600 320Z" fill="#F3F3F3"/>
  <path d="M1600 320C1666.27 320 1720 320 1720 320C1720 386.274 1666.27 440 1600 440C1600 440 1600 386.274 1600 320Z" fill="#121212"/>
  <path d="M1600 640L1920 640L1920 320C1920 496.73 1776.73 640 1600 640Z" fill="#121212"/>
  <rect width="320" height="320" fill="#FF4F00" x="0" y="0"/>
  <path d="M320 320C320 187.452 320 80 320 80C187.452 80 80 187.452 80 320C80 320 187.452 320 320 320Z" fill="#F3F3F3"/>
  <path d="M320 320C320 253.726 320 200 320 200C253.726 200 200 253.726 200 320C200 320 253.726 320 320 320Z" fill="#121212"/>
  <path d="M1.39876e-05 320L0 0L320 -1.39876e-05C143.27 -6.26255e-06 6.26255e-06 143.27 1.39876e-05 320Z" fill="#121212"/>
  <rect width="320" height="320" fill="#FF4F00" x="1280" y="320"/>
  <path d="M1600 320C1467.45 320 1360 320 1360 320C1360 452.548 1467.45 560 1600 560C1600 560 1600 452.548 1600 320Z" fill="#F3F3F3"/>
  <path d="M1600 320C1533.73 320 1480 320 1480 320C1480 386.274 1533.73 440 1600 440C1600 440 1600 386.274 1600 320Z" fill="#121212"/>
  <path d="M1600 640L1280 640L1280 320C1280 496.73 1423.27 640 1600 640Z" fill="#FF4F00"/>
  <rect width="320" height="320" fill="#FF4F00" x="1600" y="0"/>
  <path d="M1600 320C1600 187.452 1600 80 1600 80C1732.55 80 1840 187.452 1840 320C1840 320 1732.55 320 1600 320Z" fill="#F3F3F3"/>
  <path d="M1600 320C1600 253.726 1600 200 1600 200C1666.27 200 1720 253.726 1720 320C1720 320 1666.27 320 1600 320Z" fill="#121212"/>
  <path d="M1920 320L1920 0L1600 -1.39876e-05C1776.73 -6.26255e-06 1920 143.27 1920 320Z" fill="#121212"/>
  <rect width="320" height="320" fill="#FF4F00" x="1280" y="0"/>
  <path d="M1600 320C1600 187.452 1600 80 1600 80C1467.45 80 1360 187.452 1360 320C1360 320 1467.45 320 1600 320Z" fill="#F3F3F3"/>
  <path d="M1600 320C1600 253.726 1600 200 1600 200C1533.73 200 1480 253.726 1480 320C1480 320 1533.73 320 1600 320Z" fill="#121212"/>
  <path d="M1280 320L1280 0L1600 -1.39876e-05C1423.27 -6.26255e-06 1280 143.27 1280 320Z" fill="#121212"/>
  <rect width="320" height="320" fill="#FF4F00" x="0" y="320"/>
  <path d="M320 320C320 452.548 320 560 320 560C187.452 560 80 452.548 80 320C80 320 187.452 320 320 320Z" fill="#F3F3F3"/>
  <path d="M320 320C320 386.274 320 440 320 440C253.726 440 200 386.274 200 320C200 320 253.726 320 320 320Z" fill="#121212"/>
  <path d="M4.19629e-05 320L0 640L320 640C143.27 640 1.87876e-05 496.73 4.19629e-05 320Z" fill="#121212"/>
  <rect width="320" height="320" fill="#FF4F00" x="320" y="320"/>
  <path d="M320 320C320 452.548 320 560 320 560C452.548 560 560 452.548 560 320C560 320 452.548 320 320 320Z" fill="#F3F3F3"/>
  <path d="M320 320C320 386.274 320 440 320 440C386.274 440 440 386.274 440 320C440 320 386.274 320 320 320Z" fill="#121212"/>
  <path d="M640 320L640 640L320 640C496.73 640 640 496.73 640 320Z" fill="#FF4F00"/>
</svg>
