<?xml version='1.0' encoding='UTF-8'?>
<svg xmlns="http://www.w3.org/2000/svg" width="1920" height="960" viewBox="0 0 1920 960">
  <rect width="1920" height="960" fill="#F3F3F3"/>
  <rect width="320" height="320" fill="#4997D0" x="0" y="320"/>
  <path d="M0 320L0 640H320C143.27 640 0 496.73 0 320Z" fill="#121212"/>
  <path d="M226.272 413.728C284.186 471.635 320 551.635 320 640V320H0C88.3648 320 168.365 355.814 226.272 413.728Z" fill="#121212"/>
  <path d="M93.333 480C93.333 516.817 123.174 546.667 160 546.667C196.825 546.667 226.666 516.817 226.666 480C226.666 461.587 219.206 444.92 207.143 432.857C195.079 420.793 178.412 413.333 160 413.333C123.174 413.333 93.333 443.182 93.333 480Z" fill="#121212"/>
  <rect width="320" height="320" fill="#FF4F00" x="320" y="320"/>
  <path d="M320 640L640 640L640 320C640 496.73 496.73 640 320 640Z" fill="#121212"/>
  <path d="M413.728 413.728C471.635 355.814 551.635 320 640 320L320 320L320 640C320 551.635 355.814 471.635 413.728 413.728Z" fill="#121212"/>
  <path d="M480 546.667C516.818 546.667 546.667 516.825 546.667 480C546.667 443.174 516.818 413.333 480 413.333C461.588 413.333 444.921 420.793 432.857 432.857C420.794 444.92 413.334 461.587 413.334 480C413.334 516.825 443.183 546.667 480 546.667Z" fill="#121212"/>
  <rect width="320" height="320" fill="#D9D9D6" x="640" y="320"/>
  <path d="M960 320L640 320L640 640C640 463.27 783.27 320 960 320Z" fill="#121212"/>
  <path d="M866.272 546.272C808.365 604.186 728.365 640 640 640L960 640L960 320C960 408.365 924.186 488.365 866.272 546.272Z" fill="#121212"/>
  <path d="M800 413.333C763.182 413.333 733.333 443.175 733.333 480C733.333 516.825 763.182 546.667 800 546.667C818.412 546.667 835.079 539.206 847.143 527.143C859.206 515.079 866.666 498.413 866.666 480C866.666 443.175 836.817 413.333 800 413.333Z" fill="#121212"/>
  <rect width="320" height="320" fill="#F3F3F3" x="1600" y="320"/>
  <path d="M1920 640L1920 320L1600 320C1776.73 320 1920 463.27 1920 640Z" fill="#121212"/>
  <path d="M1693.73 546.272C1635.81 488.365 1600 408.365 1600 320L1600 640L1920 640C1831.64 640 1751.64 604.186 1693.73 546.272Z" fill="#121212"/>
  <path d="M1826.67 480C1826.67 443.183 1796.83 413.333 1760 413.333C1723.17 413.333 1693.33 443.183 1693.33 480C1693.33 498.413 1700.79 515.08 1712.86 527.143C1724.92 539.207 1741.59 546.667 1760 546.667C1796.83 546.667 1826.67 516.818 1826.67 480Z" fill="#121212"/>
  <rect width="320" height="320" fill="#D9D9D6" x="1" y="640"/>
  <path d="M0.999986 640L1 960L321 960C144.27 960 0.999994 816.73 0.999986 640Z" fill="#121212"/>
  <path d="M227.272 733.728C285.186 791.635 321 871.635 321 960L321 640L0.999986 640C89.3648 640 169.365 675.814 227.272 733.728Z" fill="#121212"/>
  <path d="M94.333 800C94.333 836.817 124.174 866.667 161 866.667C197.825 866.666 227.666 836.817 227.666 800C227.666 781.587 220.206 764.92 208.143 752.857C196.079 740.793 179.412 733.333 161 733.333C124.174 733.333 94.333 763.182 94.333 800Z" fill="#121212"/>
  <rect width="320" height="320" fill="#4997D0" x="1600" y="0"/>
  <path d="M1920 320L1920 0L1600 -1.39876e-05C1776.73 -6.26255e-06 1920 143.27 1920 320Z" fill="#121212"/>
  <path d="M1693.73 226.272C1635.81 168.365 1600 88.3648 1600 -1.39876e-05L1600 320L1920 320C1831.64 320 1751.64 284.186 1693.73 226.272Z" fill="#121212"/>
  <path d="M1826.67 160C1826.67 123.183 1796.83 93.3335 1760 93.3335C1723.17 93.3335 1693.33 123.183 1693.33 160C1693.33 178.413 1700.79 195.08 1712.86 207.143C1724.92 219.207 1741.59 226.667 1760 226.667C1796.83 226.667 1826.67 196.818 1826.67 160Z" fill="#121212"/>
  <rect width="320" height="320" fill="#F3F3F3" x="321" y="640"/>
  <path d="M641 640H321V960C321 783.27 464.27 640 641 640Z" fill="#121212"/>
  <path d="M547.272 866.272C489.365 924.186 409.365 960 321 960H641V640C641 728.365 605.186 808.365 547.272 866.272Z" fill="#121212"/>
  <path d="M481 733.333C444.182 733.333 414.333 763.175 414.333 800C414.333 836.826 444.182 866.667 481 866.667C499.412 866.667 516.079 859.207 528.143 847.143C540.206 835.08 547.666 818.413 547.666 800C547.666 763.175 517.817 733.333 481 733.333Z" fill="#121212"/>
  <rect width="320" height="320" fill="#FF4F00" x="1280" y="0"/>
  <path d="M1280 320L1600 320L1600 0C1600 176.73 1456.73 320 1280 320Z" fill="#121212"/>
  <path d="M1373.73 93.728C1431.64 35.8144 1511.64 -7.7251e-06 1600 0L1280 -2.79753e-05L1280 320C1280 231.635 1315.81 151.635 1373.73 93.728Z" fill="#121212"/>
  <path d="M1440 226.667C1476.82 226.667 1506.67 196.825 1506.67 160C1506.67 123.175 1476.82 93.3334 1440 93.3334C1421.59 93.3334 1404.92 100.794 1392.86 112.857C1380.79 124.921 1373.33 141.587 1373.33 160C1373.33 196.825 1403.18 226.667 1440 226.667Z" fill="#121212"/>
  <rect width="320" height="320" fill="#FF4F00"/>
  <path d="M320 0H0V320C0 143.27 143.27 0 320 0Z" fill="#121212"/>
  <path d="M226.272 226.272C168.365 284.186 88.3648 320 0 320H320V0C320 88.3648 284.186 168.365 226.272 226.272Z" fill="#121212"/>
  <path d="M160 93.3333C123.182 93.3333 93.333 123.175 93.333 160C93.333 196.825 123.182 226.667 160 226.667C178.412 226.667 195.079 219.206 207.143 207.143C219.206 195.079 226.666 178.413 226.666 160C226.666 123.175 196.817 93.3333 160 93.3333Z" fill="#121212"/>
  <rect width="320" height="320" fill="#F3F3F3" x="320" y="0"/>
  <path d="M640 0H320V320C320 143.27 463.27 0 640 0Z" fill="#121212"/>
  <path d="M546.272 226.272C488.365 284.186 408.365 320 320 320H640V0C640 88.3648 604.186 168.365 546.272 226.272Z" fill="#121212"/>
  <path d="M480 93.3333C443.182 93.3333 413.333 123.175 413.333 160C413.333 196.825 443.182 226.667 480 226.667C498.412 226.667 515.079 219.206 527.143 207.143C539.206 195.079 546.666 178.413 546.666 160C546.666 123.175 516.817 93.3333 480 93.3333Z" fill="#121212"/>
  <rect width="320" height="320" fill="#FFA300" x="640" y="0"/>
  <path d="M960 0H640V320C640 143.27 783.27 0 960 0Z" fill="#121212"/>
  <path d="M866.272 226.272C808.365 284.186 728.365 320 640 320H960V0C960 88.3648 924.186 168.365 866.272 226.272Z" fill="#121212"/>
  <path d="M800 93.3333C763.182 93.3333 733.333 123.175 733.333 160C733.333 196.825 763.182 226.667 800 226.667C818.412 226.667 835.079 219.206 847.143 207.143C859.206 195.079 866.666 178.413 866.666 160C866.666 123.175 836.817 93.3333 800 93.3333Z" fill="#121212"/>
  <rect width="320" height="320" fill="#F3F3F3" x="641" y="640"/>
  <path d="M961 640H641V960C641 783.27 784.27 640 961 640Z" fill="#121212"/>
  <path d="M867.272 866.272C809.365 924.186 729.365 960 641 960H961V640C961 728.365 925.186 808.365 867.272 866.272Z" fill="#121212"/>
  <path d="M801 733.333C764.182 733.333 734.333 763.175 734.333 800C734.333 836.826 764.182 866.667 801 866.667C819.412 866.667 836.079 859.207 848.143 847.143C860.206 835.08 867.666 818.413 867.666 800C867.666 763.175 837.817 733.333 801 733.333Z" fill="#121212"/>
  <rect width="320" height="320" fill="#4997D0" x="960" y="0"/>
  <path d="M1280 0H960V320C960 143.27 1103.27 0 1280 0Z" fill="#121212"/>
  <path d="M1186.27 226.272C1128.36 284.186 1048.36 320 960 320H1280V0C1280 88.3648 1244.19 168.365 1186.27 226.272Z" fill="#121212"/>
  <path d="M1120 93.3333C1083.18 93.3333 1053.33 123.175 1053.33 160C1053.33 196.825 1083.18 226.667 1120 226.667C1138.41 226.667 1155.08 219.206 1167.14 207.143C1179.21 195.079 1186.67 178.413 1186.67 160C1186.67 123.175 1156.82 93.3333 1120 93.3333Z" fill="#121212"/>
  <path d="M1920,960 L1920,640 L1601,640 L1601,960 Z" fill="#F3F3F3"/>
  <path d="M1907.666667,640 L1894.333333,640 L1881,640 L1867.666667,640 L1854.333333,640 L1841,640 L1827.666667,640 L1814.333333,640 L1801,640 L1787.666667,640 L1774.333333,640 L1761,640 L1747.666667,640 L1734.333333,640 L1721,640 L1707.666667,640 L1694.333333,640 L1681,640 L1667.666667,640 L1654.333333,640 L1641,640 L1627.666667,640 L1614.333333,640 L1601,640 L1601,653.333333 L1601,666.666667 L1601,680 L1601,693.333333 L1601,706.666667 L1601,720 L1601,733.333333 L1601,746.666667 L1601,760 L1601,773.333333 L1601,786.666667 L1601,800 L1601,813.333333 L1601,826.666667 L1601,840 L1601,853.333333 L1601,866.666667 L1601,880 L1601,893.333333 L1601,906.666667 L1601,920 L1601,933.333333 L1601,946.666667 L1601,960 L1601.738254,938.090964 L1603.921244,916.578131 L1607.501309,895.50916 L1612.430787,874.931713 L1618.662019,854.89345 L1626.147344,835.442031 L1634.839101,816.625118 L1644.68963,798.49037 L1655.65127,781.085449 L1667.67636,764.458015 L1680.71724,748.655728 L1694.72625,733.72625 L1709.655728,719.71724 L1725.458015,706.67636 L1742.085449,694.65127 L1759.49037,683.68963 L1777.625118,673.839101 L1796.442031,665.147344 L1815.89345,657.662019 L1835.931713,651.430787 L1856.50916,646.501309 L1877.578131,642.921244 L1899.090964,640.738254 L1920,640.033696 L1920,640 Z" fill="#121212"/>
  <path d="M1819.917191,873.395154 L1812.340237,880.282147 L1804.545098,886.927027 L1796.537731,893.323843 L1788.324098,899.46664 L1779.910156,905.349469 L1771.301866,910.966375 L1762.505185,916.311407 L1753.526074,921.378613 L1744.370492,926.162041 L1735.044397,930.655737 L1725.55375,934.85375 L1715.904509,938.750128 L1706.102633,942.338918 L1696.154082,945.614168 L1686.064815,948.569926 L1675.840791,951.200239 L1665.487969,953.499156 L1655.012308,955.460724 L1644.419769,957.078991 L1633.716309,958.348004 L1622.907888,959.261811 L1612.000465,959.814461 L1601,960 L1601,960 L1614.333333,960 L1627.666667,960 L1641,960 L1654.333333,960 L1667.666667,960 L1681,960 L1694.333333,960 L1707.666667,960 L1721,960 L1734.333333,960 L1747.666667,960 L1761,960 L1774.333333,960 L1787.666667,960 L1801,960 L1814.333333,960 L1827.666667,960 L1841,960 L1854.333333,960 L1867.666667,960 L1881,960 L1894.333333,960 L1907.666667,960 L1920,960 L1920,665.007033 L1919.348164,672.717953 L1918.079259,683.421861 L1916.461118,694.0148 L1914.499687,704.490812 L1912.200913,714.843939 L1909.570741,725.068222 L1906.615117,735.157703 L1903.339988,745.106424 L1899.751301,754.908425 L1895.855,764.55775 L1891.657033,774.048439 L1887.163345,783.374535 L1882.379883,792.530078 L1877.312593,801.509111 L1871.96742,810.305675 L1866.350312,818.913812 L1860.467215,827.327564 L1854.324074,835.540972 L1847.926836,843.548078 L1841.281447,851.342924 L1834.393853,858.91955 L1827.27,866.272 L1827.27,866.272 Z" fill="#121212"/>
  <path d="M1761 733.333C1724.18 733.333 1694.33 763.175 1694.33 800C1694.33 836.826 1724.18 866.667 1761 866.667C1779.41 866.667 1796.08 859.207 1808.14 847.143C1820.21 835.08 1827.67 818.413 1827.67 800C1827.67 763.175 1797.82 733.333 1761 733.333Z" fill="#121212"/>
  <rect width="320" height="320" fill="#FF4F00" x="961" y="640"/>
  <path d="M1281 960L1281 640L961 640C1137.73 640 1281 783.27 1281 960Z" fill="#121212"/>
  <path d="M1054.73 866.272C996.814 808.365 961 728.365 961 640L961 960L1281 960C1192.64 960 1112.64 924.186 1054.73 866.272Z" fill="#121212"/>
  <path d="M1187.67 800C1187.67 763.183 1157.83 733.333 1121 733.333C1084.17 733.333 1054.33 763.183 1054.33 800C1054.33 818.413 1061.79 835.08 1073.86 847.143C1085.92 859.207 1102.59 866.667 1121 866.667C1157.83 866.667 1187.67 836.818 1187.67 800Z" fill="#121212"/>
  <rect width="320" height="320" fill="#4997D0" x="960" y="320"/>
  <path d="M960 320L960 640L1280 640C1103.27 640 960 496.73 960 320Z" fill="#121212"/>
  <path d="M1186.27 413.728C1244.19 471.635 1280 551.635 1280 640L1280 320L960 320C1048.36 320 1128.36 355.814 1186.27 413.728Z" fill="#121212"/>
  <path d="M1053.33 480C1053.33 516.817 1083.17 546.667 1120 546.667C1156.83 546.667 1186.67 516.817 1186.67 480C1186.67 461.587 1179.21 444.92 1167.14 432.857C1155.08 420.793 1138.41 413.333 1120 413.333C1083.17 413.333 1053.33 443.182 1053.33 480Z" fill="#121212"/>
  <rect width="320" height="320" fill="#D9D9D6" x="1281" y="640"/>
  <path d="M1601 960L1601 640L1281 640C1457.73 640 1601 783.27 1601 960Z" fill="#121212"/>
  <path d="M1374.73 866.272C1316.81 808.365 1281 728.365 1281 640L1281 960L1601 960C1512.64 960 1432.64 924.186 1374.73 866.272Z" fill="#121212"/>
  <path d="M1507.67 800C1507.67 763.183 1477.83 733.333 1441 733.333C1404.17 733.333 1374.33 763.183 1374.33 800C1374.33 818.413 1381.79 835.08 1393.86 847.143C1405.92 859.207 1422.59 866.667 1441 866.667C1477.83 866.667 1507.67 836.818 1507.67 800Z" fill="#121212"/>
  <rect width="320" height="320" fill="#FFA300" x="1280" y="320"/>
  <path d="M1280 640L1280 320L1600 320C1423.27 320 1280 463.27 1280 640Z" fill="#121212"/>
  <path d="M1506.27 546.272C1564.19 488.365 1600 408.365 1600 320L1600 640L1280 640C1368.36 640 1448.36 604.186 1506.27 546.272Z" fill="#121212"/>
  <path d="M1373.33 480C1373.33 443.183 1403.17 413.333 1440 413.333C1476.83 413.334 1506.67 443.183 1506.67 480C1506.67 498.413 1499.21 515.08 1487.14 527.143C1475.08 539.207 1458.41 546.667 1440 546.667C1403.17 546.667 1373.33 516.818 1373.33 480Z" fill="#121212"/>
</svg>
