<?xml version='1.0' encoding='UTF-8'?>
<svg xmlns="http://www.w3.org/2000/svg" width="1920" height="960" viewBox="0 0 1920 960">
<g clip-path="url(#clip0_76_3188)">
<rect width="1920" height="960" fill="#F3F3F3"/>
<g clip-path="url(#clip1_76_3188)">
<rect width="320" height="320" transform="translate(640 320) rotate(-90)" fill="#4997D0"/>
<path d="M640 320L960 320L960 -1.39876e-05C783.32 -0.0512148 640.051 143.27 640 320Z" fill="#121212"/>
</g>
<g clip-path="url(#clip2_76_3188)">
<rect width="320" height="320" transform="translate(640 640) rotate(90)" fill="#FFA300"/>
<path d="M640 640L320 640L320 960C496.68 960.051 639.949 816.73 640 640Z" fill="#121212"/>
</g>
<g clip-path="url(#clip3_76_3188)">
<rect width="320" height="320" transform="translate(1920 640) rotate(90)" fill="#FFA300"/>
<path d="M1920 640L1600 640L1600 960C1776.68 960.051 1919.95 816.73 1920 640Z" fill="#121212"/>
</g>
<g clip-path="url(#clip4_76_3188)">
<rect width="320" height="320" transform="matrix(-1 0 0 1 960 640)" fill="#D9D9D6"/>
<path d="M728.794 754.291C803.341 780.8 838.618 865.958 804.646 937.434C750.707 1050.92 869.094 1169.31 982.566 1115.35C1054.03 1081.38 1139.19 1116.66 1165.71 1191.21C1185.22 1246.05 1231.62 1275.48 1280 1279.5L1280 1280L640 1280L640 640L640.499 640C644.531 688.384 673.946 734.784 728.794 754.291Z" fill="#FFA300"/>
</g>
<g clip-path="url(#clip5_76_3188)">
<rect width="320" height="320" transform="matrix(1 8.74228e-08 8.74228e-08 -1 320 320)" fill="#D9D9D6"/>
<path d="M551.206 205.709C476.659 179.2 441.382 94.0416 475.354 22.5664C529.293 -90.9184 410.906 -209.306 297.434 -155.354C225.971 -121.382 140.813 -156.659 114.291 -231.206C94.784 -286.054 48.384 -315.482 -5.95093e-08 -319.501L0 -320L640 -320L640 320L639.501 320C635.469 271.616 606.054 225.216 551.206 205.709Z" fill="#4997D0"/>
</g>
<g clip-path="url(#clip6_76_3188)">
<rect width="320" height="320" transform="matrix(1 8.74228e-08 8.74228e-08 -1 1600 320)" fill="#D9D9D6"/>
<path d="M1831.21 205.709C1756.66 179.2 1721.38 94.0416 1755.35 22.5664C1809.29 -90.9184 1690.91 -209.306 1577.43 -155.354C1505.97 -121.382 1420.81 -156.659 1394.29 -231.206C1374.78 -286.054 1328.38 -315.482 1280 -319.501L1280 -320L1920 -320L1920 320L1919.5 320C1915.47 271.616 1886.05 225.216 1831.21 205.709Z" fill="#FFA300"/>
</g>
<g clip-path="url(#clip7_76_3188)">
<rect width="320" height="320" transform="translate(960)" fill="#4997D0"/>
<path d="M960 3.91738e-09L960 320L1280 320C1280.05 143.32 1136.73 0.0511857 960 3.91738e-09Z" fill="#121212"/>
</g>
<g clip-path="url(#clip8_76_3188)">
<rect width="320" height="320" transform="translate(320 960) rotate(-180)" fill="#4997D0"/>
<path d="M320 960L320 640L2.79753e-05 640C-0.051196 816.68 143.27 959.949 320 960Z" fill="#121212"/>
</g>
<g clip-path="url(#clip9_76_3188)">
<rect width="320" height="320" transform="translate(1600 960) rotate(-180)" fill="#FF4F00"/>
<path d="M1600 960L1600 640L1280 640C1279.95 816.68 1423.27 959.949 1600 960Z" fill="#121212"/>
</g>
<g clip-path="url(#clip10_76_3188)">
<rect width="320" height="320" transform="translate(960 640)" fill="#D9D9D6"/>
<path d="M1191.21 754.291C1116.66 780.8 1081.38 865.958 1115.35 937.434C1169.29 1050.92 1050.91 1169.31 937.434 1115.35C865.971 1081.38 780.813 1116.66 754.291 1191.21C734.784 1246.05 688.384 1275.48 640 1279.5L640 1280L1280 1280L1280 640L1279.5 640C1275.47 688.384 1246.05 734.784 1191.21 754.291Z" fill="#FF4F00"/>
</g>
<g clip-path="url(#clip11_76_3188)">
<rect width="320" height="320" transform="translate(320 320) rotate(-180)" fill="#D9D9D6"/>
<path d="M88.7936 205.709C163.341 179.2 198.618 94.0416 164.646 22.5664C110.707 -90.9184 229.094 -209.306 342.566 -155.354C414.029 -121.382 499.187 -156.659 525.709 -231.206C545.216 -286.054 591.616 -315.482 640 -319.501L640 -320L0 -320L-3.56072e-05 320L0.499164 320C4.53117 271.616 33.9456 225.216 88.7936 205.709Z" fill="#FF4F00"/>
</g>
<g clip-path="url(#clip12_76_3188)">
<rect width="320" height="320" transform="translate(1600 320) rotate(-180)" fill="#D9D9D6"/>
<path d="M1368.79 205.709C1443.34 179.2 1478.62 94.0416 1444.65 22.5664C1390.71 -90.9184 1509.09 -209.306 1622.57 -155.354C1694.03 -121.382 1779.19 -156.659 1805.71 -231.206C1825.22 -286.054 1871.62 -315.482 1920 -319.501L1920 -320L1280 -320L1280 320L1280.5 320C1284.53 271.616 1313.95 225.216 1368.79 205.709Z" fill="#4997D0"/>
</g>
<g clip-path="url(#clip13_76_3188)">
<rect width="320" height="320" transform="translate(960 320)" fill="#D9D9D6"/>
<path d="M1280 320C1280 408.366 1280 640 1280 640C1191.63 640 1120 568.366 1120 480C1120 391.634 1191.63 320 1280 320Z" fill="#121212"/>
<path d="M960 640C960 551.634 960 320 960 320C1048.37 320 1120 391.634 1120 480C1120 568.366 1048.37 640 960 640Z" fill="#121212"/>
</g>
<g clip-path="url(#clip14_76_3188)">
<rect width="320" height="320" transform="translate(320 320)" fill="#D9D9D6"/>
<path d="M640 320C640 408.366 640 640 640 640C551.634 640 480 568.366 480 480C480 391.634 551.634 320 640 320Z" fill="#121212"/>
<path d="M320 640C320 551.634 320 320 320 320C408.366 320 480 391.634 480 480C480 568.366 408.366 640 320 640Z" fill="#121212"/>
</g>
<g clip-path="url(#clip15_76_3188)">
<rect width="320" height="320" transform="translate(1600 320)" fill="#D9D9D6"/>
<path d="M1920 320C1920 408.366 1920 640 1920 640C1831.63 640 1760 568.366 1760 480C1760 391.634 1831.63 320 1920 320Z" fill="#121212"/>
<path d="M1600 640C1600 551.634 1600 320 1600 320C1688.37 320 1760 391.634 1760 480C1760 568.366 1688.37 640 1600 640Z" fill="#121212"/>
</g>
<g clip-path="url(#clip16_76_3188)">
<rect width="320" height="320" transform="matrix(-1 3.17865e-08 3.17865e-08 1 320 320)" fill="#D9D9D6"/>
<path d="M1.90747e-05 320C1.8021e-05 408.366 1.52588e-05 640 1.52588e-05 640C88.3656 640 160 568.366 160 480C160 391.634 88.3656 320 1.90747e-05 320Z" fill="#121212"/>
<path d="M320 640C320 551.634 320 320 320 320C231.634 320 160 391.634 160 480C160 568.366 231.634 640 320 640Z" fill="#121212"/>
</g>
<g clip-path="url(#clip17_76_3188)">
<rect width="320" height="320" transform="matrix(-1 3.17865e-08 3.17865e-08 1 960 320)" fill="#D9D9D6"/>
<path d="M640 320C640 408.366 640 640 640 640C728.366 640 800 568.366 800 480C800 391.634 728.366 320 640 320Z" fill="#121212"/>
<path d="M960 640C960 551.634 960 320 960 320C871.634 320 800 391.634 800 480C800 568.366 871.634 640 960 640Z" fill="#121212"/>
</g>
<g clip-path="url(#clip18_76_3188)">
<rect width="320" height="320" transform="matrix(-1 3.17865e-08 3.17865e-08 1 1600 320)" fill="#D9D9D6"/>
<path d="M1280 320C1280 408.366 1280 640 1280 640C1368.37 640 1440 568.366 1440 480C1440 391.634 1368.37 320 1280 320Z" fill="#121212"/>
<path d="M1600 640C1600 551.634 1600 320 1600 320C1511.63 320 1440 391.634 1440 480C1440 568.366 1511.63 640 1600 640Z" fill="#121212"/>
</g>
</g>
<defs>
<clipPath id="clip0_76_3188">
<rect width="1920" height="960" fill="#FFFFFF"/>
</clipPath>
<clipPath id="clip1_76_3188">
<rect width="320" height="320" fill="#FFFFFF" transform="translate(640 320) rotate(-90)"/>
</clipPath>
<clipPath id="clip2_76_3188">
<rect width="320" height="320" fill="#FFFFFF" transform="translate(640 640) rotate(90)"/>
</clipPath>
<clipPath id="clip3_76_3188">
<rect width="320" height="320" fill="#FFFFFF" transform="translate(1920 640) rotate(90)"/>
</clipPath>
<clipPath id="clip4_76_3188">
<rect width="320" height="320" fill="#FFFFFF" transform="matrix(-1 0 0 1 960 640)"/>
</clipPath>
<clipPath id="clip5_76_3188">
<rect width="320" height="320" fill="#FFFFFF" transform="matrix(1 8.74228e-08 8.74228e-08 -1 320 320)"/>
</clipPath>
<clipPath id="clip6_76_3188">
<rect width="320" height="320" fill="#FFFFFF" transform="matrix(1 8.74228e-08 8.74228e-08 -1 1600 320)"/>
</clipPath>
<clipPath id="clip7_76_3188">
<rect width="320" height="320" fill="#FFFFFF" transform="translate(960)"/>
</clipPath>
<clipPath id="clip8_76_3188">
<rect width="320" height="320" fill="#FFFFFF" transform="translate(320 960) rotate(-180)"/>
</clipPath>
<clipPath id="clip9_76_3188">
<rect width="320" height="320" fill="#FFFFFF" transform="translate(1600 960) rotate(-180)"/>
</clipPath>
<clipPath id="clip10_76_3188">
<rect width="320" height="320" fill="#FFFFFF" transform="translate(960 640)"/>
</clipPath>
<clipPath id="clip11_76_3188">
<rect width="320" height="320" fill="#FFFFFF" transform="translate(320 320) rotate(-180)"/>
</clipPath>
<clipPath id="clip12_76_3188">
<rect width="320" height="320" fill="#FFFFFF" transform="translate(1600 320) rotate(-180)"/>
</clipPath>
<clipPath id="clip13_76_3188">
<rect width="320" height="320" fill="#FFFFFF" transform="translate(960 320)"/>
</clipPath>
<clipPath id="clip14_76_3188">
<rect width="320" height="320" fill="#FFFFFF" transform="translate(320 320)"/>
</clipPath>
<clipPath id="clip15_76_3188">
<rect width="320" height="320" fill="#FFFFFF" transform="translate(1600 320)"/>
</clipPath>
<clipPath id="clip16_76_3188">
<rect width="320" height="320" fill="#FFFFFF" transform="matrix(-1 3.17865e-08 3.17865e-08 1 320 320)"/>
</clipPath>
<clipPath id="clip17_76_3188">
<rect width="320" height="320" fill="#FFFFFF" transform="matrix(-1 3.17865e-08 3.17865e-08 1 960 320)"/>
</clipPath>
<clipPath id="clip18_76_3188">
<rect width="320" height="320" fill="#FFFFFF" transform="matrix(-1 3.17865e-08 3.17865e-08 1 1600 320)"/>
</clipPath>
</defs>
</svg>
