<?xml version='1.0' encoding='UTF-8'?>
<svg xmlns="http://www.w3.org/2000/svg" width="1920" height="960" viewBox="0 0 1920 960">
<g clip-path="url(#clip0_81_2392)">
<rect width="1920" height="960" fill="#F3F3F3"/>
<rect width="320" height="320" transform="matrix(0 -1 1 0 0 320)" fill="#121212"/>
<path d="M107.2 133.333L53.8668 133.333C53.8668 192.243 101.624 240 160.534 240C219.443 240 267.2 192.243 267.2 133.333L213.867 133.333C213.867 103.876 189.991 80 160.534 80C131.076 80 107.2 103.876 107.2 133.333Z" fill="#121212"/>
<rect width="320" height="320" transform="translate(0 640)" fill="#121212"/>
<path d="M186.667 747.2L186.667 693.867C127.757 693.867 80 741.623 80 800.533C80 859.443 127.757 907.2 186.667 907.2L186.667 853.867C216.124 853.867 240 829.99 240 800.533C240 771.076 216.124 747.2 186.667 747.2Z" fill="#121212"/>
<rect width="320" height="320" transform="translate(0 320)" fill="#4997D0"/>
<path d="M186.667 427.2L186.667 373.867C127.757 373.867 80 421.623 80 480.533C80 539.443 127.757 587.2 186.667 587.2L186.667 533.867C216.124 533.867 240 509.99 240 480.533C240 451.076 216.124 427.2 186.667 427.2Z" fill="#121212"/>
<rect width="320" height="320" transform="translate(640)" fill="#4997D0"/>
<path d="M826.667 107.2L826.667 53.8667C767.757 53.8667 720 101.623 720 160.533C720 219.443 767.757 267.2 826.667 267.2L826.667 213.867C856.124 213.867 880 189.99 880 160.533C880 131.076 856.124 107.2 826.667 107.2Z" fill="#121212"/>
<rect width="320" height="320" transform="translate(640 640)" fill="#4997D0"/>
<path d="M826.667 747.2L826.667 693.867C767.757 693.867 720 741.623 720 800.533C720 859.443 767.757 907.2 826.667 907.2L826.667 853.867C856.124 853.867 880 829.99 880 800.533C880 771.076 856.124 747.2 826.667 747.2Z" fill="#121212"/>
<rect width="320" height="320" transform="translate(960 320) rotate(90)" fill="#121212"/>
<path d="M852.8 506.667H906.133C906.133 447.757 858.376 400 799.466 400C740.557 400 692.8 447.757 692.8 506.667H746.133C746.133 536.124 770.009 560 799.466 560C828.924 560 852.8 536.124 852.8 506.667Z" fill="#FF4F00"/>
<rect width="320" height="320" transform="translate(1280)" fill="#121212"/>
<path d="M1466.67 107.2L1466.67 53.8667C1407.76 53.8667 1360 101.623 1360 160.533C1360 219.443 1407.76 267.2 1466.67 267.2L1466.67 213.867C1496.12 213.867 1520 189.99 1520 160.533C1520 131.076 1496.12 107.2 1466.67 107.2Z" fill="#121212"/>
<rect width="320" height="320" transform="translate(1280 960) rotate(-90)" fill="#121212"/>
<path d="M1387.2 773.333L1333.87 773.333C1333.87 832.243 1381.62 880 1440.53 880C1499.44 880 1547.2 832.243 1547.2 773.333L1493.87 773.333C1493.87 743.876 1469.99 720 1440.53 720C1411.08 720 1387.2 743.876 1387.2 773.333Z" fill="#FF4F00"/>
<rect width="320" height="320" transform="translate(1280 320)" fill="#4997D0"/>
<path d="M1466.67 427.2L1466.67 373.867C1407.76 373.867 1360 421.623 1360 480.533C1360 539.443 1407.76 587.2 1466.67 587.2L1466.67 533.867C1496.12 533.867 1520 509.99 1520 480.533C1520 451.076 1496.12 427.2 1466.67 427.2Z" fill="#121212"/>
<rect width="320" height="320" transform="translate(320 320)" fill="#121212"/>
<path d="M506.667 427.2L506.667 373.867C447.757 373.867 400 421.623 400 480.533C400 539.443 447.757 587.2 506.667 587.2L506.667 533.867C536.124 533.867 560 509.99 560 480.533C560 451.076 536.124 427.2 506.667 427.2Z" fill="#121212"/>
<g clip-path="url(#clip1_81_2392)">
<rect width="320" height="320" transform="matrix(0 -1 1 0 960 640)" fill="#121212"/>
<path fill-rule="evenodd" clip-rule="evenodd" d="M1118.33 639.992C1118.64 639.997 1118.96 640 1119.27 640L1119.28 640L1119.29 640L1119.36 640L1119.43 640L1119.44 640L1119.5 640L1119.51 640L1119.52 640L1119.58 640L1119.6 640L1119.64 640C1119.66 640 1119.69 640 1119.71 640C1119.72 640 1119.74 640 1119.75 640C1119.76 640 1119.77 640 1119.78 640L1119.79 640C1119.81 640 1119.84 640 1119.86 640C1119.88 640 1119.89 640 1119.91 640C1119.94 640 1119.97 640 1120 640L1120.1 640L1120.14 640C1120.18 640 1120.22 640 1120.27 640C1208.51 639.856 1280 568.277 1280 480C1280 391.731 1208.52 320.157 1120.29 320L1120.21 320L1120.14 320L1120.08 320L1120 320L1120 320L1119.93 320L1119.9 320C1119.88 320 1119.87 320 1119.85 320C1119.84 320 1119.83 320 1119.82 320L1119.79 320C1119.77 320 1119.75 320 1119.72 320L1119.68 320L1119.65 320L1119.64 320L1119.64 320L1119.58 320L1119.52 320L1119.51 320L1119.5 320L1119.44 320L1119.38 320L1119.35 320L1119.29 320L1119.28 320L1119.27 320C1118.96 320 1118.65 320.003 1118.34 320.008L1118.23 320.009L1118.12 320.011C1030.62 321.02 960 392.263 960 480C960 567.758 1030.65 639.014 1118.18 639.99C1118.23 639.991 1118.28 639.991 1118.33 639.992ZM1186.29 614.977C1220.7 586.566 1243.52 536.731 1243.52 480C1243.52 423.262 1220.69 373.422 1186.27 345.013C1229.37 370.946 1258.88 421.416 1258.88 480C1258.88 538.576 1229.38 589.041 1186.29 614.977ZM1067.16 617.204C1037.68 589.22 1017.96 538.244 1017.96 480C1017.96 421.763 1037.67 370.793 1067.15 342.806C1028.89 368.128 1002.59 420.116 1002.59 480C1002.59 539.892 1028.89 591.886 1067.16 617.204ZM1185.65 589.702C1177.77 602.127 1168.79 612.138 1158.91 619.52C1183.01 592.094 1199.28 539.889 1199.28 480C1199.28 420.079 1182.99 367.851 1158.87 340.436C1168.77 347.821 1177.76 357.844 1185.65 370.285C1194.62 384.429 1201.66 400.947 1206.6 419.373C1211.75 438.56 1214.35 458.957 1214.35 479.994C1214.35 501.03 1211.75 521.427 1206.6 540.614C1201.66 559.04 1194.62 575.558 1185.65 589.702ZM1094.21 336.838C1093.97 337.036 1093.73 337.237 1093.5 337.44C1084.74 344.934 1076.8 355.789 1069.92 369.702C1055.4 399.053 1047.4 438.227 1047.4 480C1047.4 521.773 1055.4 560.941 1069.92 590.298C1076.8 604.211 1084.74 615.066 1093.5 622.56C1093.73 622.764 1093.97 622.965 1094.21 623.163C1075.56 596.903 1062.76 542.657 1062.76 480C1062.76 417.344 1075.56 363.099 1094.21 336.838ZM1154.41 480C1154.41 545.821 1145.8 602.359 1133.51 626.924C1134.64 625.848 1135.76 624.642 1136.88 623.309C1143.07 615.942 1148.93 604.768 1153.83 590.995C1164.33 561.446 1170.12 522.029 1170.12 480C1170.12 437.971 1164.33 398.554 1153.83 369.005C1148.93 355.232 1143.07 344.058 1136.88 336.691C1135.76 335.358 1134.64 334.152 1133.51 333.076C1145.8 357.641 1154.41 414.179 1154.41 480ZM1114.81 629.222C1110.19 606.033 1106.92 547.965 1106.92 480C1106.92 412.038 1110.19 353.973 1114.81 330.782C1111.11 336.091 1106.13 347.084 1101.55 368.218C1095.11 398.003 1091.56 437.702 1091.56 480C1091.56 522.298 1095.11 561.997 1101.55 591.782C1106.13 612.92 1111.11 623.914 1114.81 629.222ZM1051.6 346.319C1009.66 372.616 981.12 422.384 981.12 480C981.12 537.624 1009.67 587.397 1051.62 613.692C1018.06 585.079 995.916 535.885 995.916 480C995.916 424.122 1018.06 374.934 1051.6 346.319ZM1170.2 618.539C1200.47 590.861 1220.84 539.182 1220.84 480C1220.84 420.811 1200.47 369.127 1170.19 341.451C1209.58 366.24 1236.84 419.027 1236.84 480C1236.84 540.965 1209.59 593.747 1170.2 618.539ZM1040.79 480C1040.79 418.193 1058.13 364.571 1083.5 337.922C1072.18 345.48 1061.97 356.374 1053.14 370.298C1044.18 384.442 1037.13 400.96 1032.19 419.386C1027.05 438.573 1024.44 458.97 1024.44 480.006C1024.44 501.043 1027.05 521.44 1032.19 540.627C1037.13 559.053 1044.18 575.571 1053.14 589.715C1061.98 603.648 1072.2 614.547 1083.53 622.106L1083.54 622.118C1058.15 595.483 1040.79 541.838 1040.79 480ZM1144.33 335.605C1145.08 336.189 1145.83 336.801 1146.58 337.44C1155.34 344.934 1163.28 355.789 1170.16 369.702C1184.68 399.059 1192.67 438.227 1192.67 480C1192.67 521.773 1184.68 560.947 1170.16 590.298C1163.28 604.211 1155.34 615.066 1146.58 622.56C1145.83 623.198 1145.08 623.809 1144.33 624.392C1163.46 598.623 1176.68 543.652 1176.68 480C1176.68 416.346 1163.46 361.373 1144.33 335.605ZM1102.55 336.691C1103.67 335.358 1104.8 334.152 1105.92 333.076C1093.63 357.641 1085.03 414.179 1085.03 480C1085.03 545.821 1093.63 602.359 1105.92 626.924C1104.8 625.848 1103.67 624.642 1102.55 623.309C1096.36 615.942 1090.5 604.768 1085.61 590.995C1075.1 561.446 1069.32 522.029 1069.32 480C1069.32 437.971 1075.1 398.554 1085.61 369.005C1090.5 355.232 1096.36 344.058 1102.55 336.691ZM1123.74 329.58C1127.5 334.344 1132.93 345.34 1137.88 368.218C1144.33 398.003 1147.88 437.702 1147.88 480C1147.88 522.298 1144.33 561.997 1137.88 591.782C1132.93 614.656 1127.5 625.652 1123.74 630.417C1128.49 608.08 1131.88 549.165 1131.88 480C1131.88 410.833 1128.49 351.915 1123.74 329.58ZM1022.93 360.952C993.335 390.243 974.72 432.727 974.72 480C974.72 527.273 993.335 569.758 1022.93 599.048C988.43 570.882 966.4 528.014 966.4 480C966.4 431.987 988.43 389.119 1022.93 360.952ZM1217.07 360.952C1246.66 390.242 1265.28 432.727 1265.28 480C1265.28 527.273 1246.66 569.758 1217.07 599.048C1251.57 570.882 1273.6 528.014 1273.6 480C1273.6 431.987 1251.57 389.118 1217.07 360.952ZM1122.14 374.157C1121.25 361.11 1120.29 351.453 1119.4 344.321C1118.5 351.453 1117.55 361.11 1116.65 374.157C1114.65 403.309 1113.55 440.902 1113.55 480C1113.55 519.098 1114.65 556.691 1116.65 585.843C1117.55 598.89 1118.5 608.547 1119.4 615.679C1120.3 608.547 1121.25 598.89 1122.14 585.843C1124.15 556.691 1125.25 519.098 1125.25 480C1125.25 440.902 1124.15 403.309 1122.14 374.157Z" fill="#F3F3F3"/>
</g>
<rect width="320" height="320" transform="translate(640) rotate(90)" fill="#FFA300"/>
<path d="M532.8 186.667H586.133C586.133 127.757 538.376 80 479.466 80C420.557 80 372.8 127.757 372.8 186.667H426.133C426.133 216.124 450.009 240 479.466 240C508.924 240 532.8 216.124 532.8 186.667Z" fill="#121212"/>
<rect width="320" height="320" transform="translate(960 320) rotate(-90)" fill="#FFA300"/>
<path d="M1067.2 133.333L1013.87 133.333C1013.87 192.243 1061.62 240 1120.53 240C1179.44 240 1227.2 192.243 1227.2 133.333L1173.87 133.333C1173.87 103.876 1149.99 80 1120.53 80C1091.08 80 1067.2 103.876 1067.2 133.333Z" fill="#121212"/>
<rect width="320" height="320" transform="translate(1920) rotate(90)" fill="#FF4F00"/>
<path d="M1812.8 186.667H1866.13C1866.13 127.757 1818.38 80 1759.47 80C1700.56 80 1652.8 127.757 1652.8 186.667H1706.13C1706.13 216.124 1730.01 240 1759.47 240C1788.92 240 1812.8 216.124 1812.8 186.667Z" fill="#121212"/>
<rect width="320" height="320" transform="matrix(0 -1 1 0 320 960)" fill="#FFA300"/>
<path d="M427.2 773.333L373.867 773.333C373.867 832.243 421.624 880 480.534 880C539.443 880 587.2 832.243 587.2 773.333L533.867 773.333C533.867 743.876 509.991 720 480.534 720C451.076 720 427.2 743.876 427.2 773.333Z" fill="#121212"/>
<rect width="320" height="320" transform="translate(960 640)" fill="#FFA300"/>
<path d="M1146.67 747.2L1146.67 693.867C1087.76 693.867 1040 741.623 1040 800.533C1040 859.443 1087.76 907.2 1146.67 907.2L1146.67 853.867C1176.12 853.867 1200 829.99 1200 800.533C1200 771.076 1176.12 747.2 1146.67 747.2Z" fill="#121212"/>
<rect width="320" height="320" transform="translate(1600 640)" fill="#FFA300"/>
<path d="M1786.67 747.2L1786.67 693.867C1727.76 693.867 1680 741.623 1680 800.533C1680 859.443 1727.76 907.2 1786.67 907.2L1786.67 853.867C1816.12 853.867 1840 829.99 1840 800.533C1840 771.076 1816.12 747.2 1786.67 747.2Z" fill="#121212"/>
<rect width="320" height="320" transform="matrix(0 -1 1 0 1600 640)" fill="#121212"/>
<path d="M1707.2 453.333L1653.87 453.333C1653.87 512.243 1701.62 560 1760.53 560C1819.44 560 1867.2 512.243 1867.2 453.333L1813.87 453.333C1813.87 423.876 1789.99 400 1760.53 400C1731.08 400 1707.2 423.876 1707.2 453.333Z" fill="#121212"/>
</g>
<defs>
<clipPath id="clip0_81_2392">
<rect width="1920" height="960" fill="#FFFFFF"/>
</clipPath>
<clipPath id="clip1_81_2392">
<rect width="320" height="320" fill="#FFFFFF" transform="matrix(0 -1 1 0 960 640)"/>
</clipPath>
</defs>
</svg>
