<?xml version='1.0' encoding='UTF-8'?>
<svg xmlns="http://www.w3.org/2000/svg" width="1920" height="960" viewBox="0 0 1920 960">
  <rect width="1920" height="960" fill="#F3F3F3"/>
  <rect width="320" height="320" fill="#D9D9D6" x="320" y="0"/>
  <path fill-rule="evenodd" clip-rule="evenodd" d="M640 32L640 9.68897e-06L320 2.79753e-05L320 48.9223L320 267.068L320 320C349.161 320 372.8 296.301 372.8 267.068C372.8 282.127 384.62 294.336 399.2 294.336C413.781 294.336 425.6 282.127 425.6 267.068C425.6 236.832 415.268 211.541 405.543 187.738C387.541 143.674 370.022 87.7896 425.6 32C425.6 32 450.84 32 480 32C509.161 32 532.8 32 532.8 32C532.8 32 589.598 32 619.2 32L640 32Z" fill="#121212"/>
  <path d="M392.314428,0.454521 L391.557035,1.830614 L390.833641,3.22488 L390.144681,4.636479 L389.490572,6.064561 L388.871706,7.508266 L388.288457,8.966723 L387.741176,10.439055 L387.230193,11.924374 L386.755815,13.421786 L386.318328,14.930389 L385.917996,16.449274 L385.55506,17.977526 L385.229739,19.514225 L384.942228,21.058445 L384.6927,22.609255 L384.481307,24.165722 L384.308174,25.726909 L384.173408,27.291874 L384.077088,28.859674 L384.019273,30.429367 L384,32 L384.019273,33.570644 L384.077088,35.140337 L384.173408,36.708138 L384.308175,38.273103 L384.481307,39.834289 L384.692701,41.390756 L384.942229,42.941566 L385.22974,44.485786 L385.555061,46.022485 L385.917998,47.550737 L386.31833,49.069622 L386.755817,50.578225 L387.230195,52.075637 L387.741178,53.560956 L388.288459,55.033288 L388.871708,56.491745 L389.490574,57.935449 L390.144684,59.363531 L390.833643,60.77513 L391.557038,62.169396 L392.314431,63.54549 L393.105368,64.902581 L393.929371,66.239853 L394.785944,67.5565 L395.674571,68.851729 L396.594717,70.124761 L397.545828,71.374827 L398.52733,72.601175 L399.538633,73.803067 L400.579127,74.979778 L401.648186,76.1306 L402.745165,77.254839 L403.869404,78.351818 L405.020226,79.420877 L406.196937,80.461371 L407.398829,81.472674 L408.625178,82.454176 L409.875244,83.405286 L411.148275,84.325432 L412.443505,85.21406 L413.760152,86.070632 L415.097424,86.894635 L416.454515,87.685572 L417.830609,88.442965 L419.224875,89.166359 L420.636474,89.855319 L422.064556,90.509428 L423.50826,91.128294 L424.966717,91.711543 L426.439049,92.258824 L427.924368,92.769807 L429.421781,93.244185 L430.930383,93.681672 L432.449268,94.082004 L433.977521,94.44494 L435.514219,94.770261 L437.058439,95.057772 L438.60925,95.3073 L440.165717,95.518693 L441.726903,95.691826 L443.291868,95.826592 L444.859669,95.922912 L446.429361,95.980727 L448,96 L449.570639,95.980727 L451.140331,95.922912 L452.708132,95.826592 L454.273097,95.691825 L455.834283,95.518693 L457.39075,95.307299 L458.941561,95.057771 L460.485781,94.77026 L462.022479,94.444939 L463.550731,94.082002 L465.069616,93.68167 L466.578219,93.244183 L468.075631,92.769805 L469.56095,92.258822 L471.033282,91.711541 L472.491739,91.128292 L473.935444,90.509426 L475.363526,89.855316 L476.775125,89.166357 L478.169391,88.442962 L479.545484,87.685569 L480.902575,86.894632 L482.239847,86.070629 L483.556494,85.214056 L484.851724,84.325429 L486.124755,83.405283 L487.374821,82.454172 L488.60117,81.47267 L489.803061,80.461367 L490.979772,79.420873 L492.130594,78.351814 L493.254833,77.254835 L494.351812,76.130596 L495.420871,74.979774 L496.461365,73.803063 L497.472668,72.601171 L498.45417,71.374822 L499.405281,70.124756 L500.325427,68.851725 L501.214054,67.556495 L502.070627,66.239848 L502.89463,64.902576 L503.685566,63.545485 L504.442959,62.169391 L505.166354,60.775125 L505.855313,59.363526 L506.509423,57.935444 L507.128288,56.49174 L507.711537,55.033283 L508.258818,53.560951 L508.769802,52.075632 L509.24418,50.578219 L509.681666,49.069617 L510.081998,47.550732 L510.444934,46.022479 L510.770256,44.485781 L511.057767,42.941561 L511.307294,41.39075 L511.518688,39.834283 L511.69182,38.273097 L511.826587,36.708132 L511.922907,35.140331 L511.980722,33.570639 L512,32 L511.980722,30.429361 L511.922906,28.859669 L511.826586,27.291868 L511.691819,25.726903 L511.518687,24.165717 L511.307293,22.60925 L511.057766,21.058439 L510.770255,19.514219 L510.444933,17.977521 L510.081997,16.449269 L509.681665,14.930384 L509.244178,13.421781 L508.7698,11.924369 L508.258816,10.43905 L507.711535,8.966718 L507.128286,7.508261 L506.50942,6.064556 L505.855311,4.636474 L505.166351,3.224875 L504.442957,1.830609 L503.685563,0.454516 L503.420663,0 L392.579331,0 Z" fill="#121212"/>
  <path d="M520.314428,0.454521 L519.557035,1.830614 L518.833641,3.22488 L518.144681,4.636479 L517.490572,6.064561 L516.871706,7.508266 L516.288457,8.966723 L515.741176,10.439055 L515.230193,11.924374 L514.755815,13.421786 L514.318328,14.930389 L513.917996,16.449274 L513.55506,17.977526 L513.229739,19.514225 L512.942228,21.058445 L512.6927,22.609255 L512.481307,24.165722 L512.308174,25.726909 L512.173408,27.291874 L512.077088,28.859674 L512.019273,30.429367 L512,32 L512.019273,33.570644 L512.077088,35.140337 L512.173408,36.708138 L512.308175,38.273103 L512.481307,39.834289 L512.692701,41.390756 L512.942229,42.941566 L513.22974,44.485786 L513.555061,46.022485 L513.917998,47.550737 L514.31833,49.069622 L514.755817,50.578225 L515.230195,52.075637 L515.741178,53.560956 L516.288459,55.033288 L516.871708,56.491745 L517.490574,57.935449 L518.144684,59.363531 L518.833643,60.77513 L519.557038,62.169396 L520.314431,63.54549 L521.105368,64.902581 L521.929371,66.239853 L522.785944,67.5565 L523.674571,68.851729 L524.594717,70.124761 L525.545828,71.374827 L526.52733,72.601175 L527.538633,73.803067 L528.579127,74.979778 L529.648186,76.1306 L530.745165,77.254839 L531.869404,78.351818 L533.020226,79.420877 L534.196937,80.461371 L535.398829,81.472674 L536.625178,82.454176 L537.875244,83.405286 L539.148275,84.325432 L540.443505,85.21406 L541.760152,86.070632 L543.097424,86.894635 L544.454515,87.685572 L545.830609,88.442965 L547.224875,89.166359 L548.636474,89.855319 L550.064556,90.509428 L551.50826,91.128294 L552.966717,91.711543 L554.439049,92.258824 L555.924368,92.769807 L557.421781,93.244185 L558.930383,93.681672 L560.449268,94.082004 L561.977521,94.44494 L563.514219,94.770261 L565.058439,95.057772 L566.60925,95.3073 L568.165717,95.518693 L569.726903,95.691826 L571.291868,95.826592 L572.859669,95.922912 L574.429361,95.980727 L576,96 L577.570639,95.980727 L579.140331,95.922912 L580.708132,95.826592 L582.273097,95.691825 L583.834283,95.518693 L585.39075,95.307299 L586.941561,95.057771 L588.485781,94.77026 L590.022479,94.444939 L591.550731,94.082002 L593.069616,93.68167 L594.578219,93.244183 L596.075631,92.769805 L597.56095,92.258822 L599.033282,91.711541 L600.491739,91.128292 L601.935444,90.509426 L603.363526,89.855316 L604.775125,89.166357 L606.169391,88.442962 L607.545484,87.685569 L608.902575,86.894632 L610.239847,86.070629 L611.556494,85.214056 L612.851724,84.325429 L614.124755,83.405283 L615.374821,82.454172 L616.60117,81.47267 L617.803061,80.461367 L618.979772,79.420873 L620.130594,78.351814 L621.254833,77.254835 L622.351812,76.130596 L623.420871,74.979774 L624.461365,73.803063 L625.472668,72.601171 L626.45417,71.374822 L627.405281,70.124756 L628.325427,68.851725 L629.214054,67.556495 L630.070627,66.239848 L630.89463,64.902576 L631.685566,63.545485 L632.442959,62.169391 L633.166354,60.775125 L633.855313,59.363526 L634.509423,57.935444 L635.128288,56.49174 L635.711537,55.033283 L636.258818,53.560951 L636.769802,52.075632 L637.24418,50.578219 L637.681666,49.069617 L638.081998,47.550732 L638.444934,46.022479 L638.770256,44.485781 L639.057767,42.941561 L639.307294,41.39075 L639.518688,39.834283 L639.69182,38.273097 L639.826587,36.708132 L639.922907,35.140331 L639.980722,33.570639 L640,32 L639.980722,30.429361 L639.922906,28.859669 L639.826586,27.291868 L639.691819,25.726903 L639.518687,24.165717 L639.307293,22.60925 L639.057766,21.058439 L638.770255,19.514219 L638.444933,17.977521 L638.081997,16.449269 L637.681665,14.930384 L637.244178,13.421781 L636.7698,11.924369 L636.258816,10.43905 L635.711535,8.966718 L635.128286,7.508261 L634.50942,6.064556 L633.855311,4.636474 L633.166351,3.224875 L632.442957,1.830609 L631.685563,0.454516 L631.420663,0 L520.579331,0 Z" fill="#121212"/>
  <rect width="320" height="320" fill="#D9D9D6" x="640" y="320"/>
  <path fill-rule="evenodd" clip-rule="evenodd" d="M800 618L720 617.925L720 639.925L640 640L640 320L720 320C720.043 467.275 720 538 800 618Z" fill="#121212"/>
  <rect width="320" height="320" fill="#D9D9D6" x="640" y="640"/>
  <path d="M641.963284,879.975899 L643.9254,879.90363 L645.885151,879.78323 L647.841357,879.614772 L649.79284,879.398357 L651.738424,879.134115 L653.676937,878.822206 L655.607212,878.462817 L657.528085,878.056165 L659.438401,877.602495 L661.337007,877.10208 L663.22276,876.555222 L665.094526,875.96225 L666.951175,875.323521 L668.791589,874.639419 L670.614661,873.910358 L672.419292,873.136776 L674.204394,872.319139 L675.968893,871.45794 L677.711726,870.553697 L679.431842,869.606956 L681.128207,868.618285 L682.799797,867.588282 L684.445606,866.517566 L686.064643,865.406782 L687.655932,864.2566 L689.218515,863.067712 L690.75145,861.840834 L692.253815,860.576705 L693.724704,859.276088 L695.163232,857.939764 L696.568531,856.56854 L697.939755,855.163242 L699.276078,853.724715 L700.576696,852.253826 L701.840825,850.751461 L703.067703,849.218526 L704.256591,847.655943 L705.406774,846.064654 L706.517558,844.445617 L707.588274,842.799809 L708.618278,841.128219 L709.606949,839.431854 L710.553691,837.711738 L711.457934,835.968906 L712.319133,834.204407 L713.136771,832.419305 L713.910353,830.614674 L714.639414,828.791602 L715.323516,826.951188 L715.962245,825.094539 L716.555218,823.222774 L717.102076,821.33702 L717.602492,819.438414 L718.056162,817.528099 L718.462814,815.607226 L718.822203,813.676951 L719.134113,811.738438 L719.398355,809.792854 L719.61477,807.841371 L719.783229,805.885165 L719.903629,803.925414 L719.975898,801.963298 L720,800 L719.975899,798.036702 L719.90363,796.074586 L719.78323,794.114835 L719.614772,792.158629 L719.398357,790.207146 L719.134115,788.261562 L718.822206,786.323049 L718.462817,784.392774 L718.056165,782.471901 L717.602495,780.561585 L717.10208,778.662979 L716.555222,776.777226 L715.96225,774.90546 L715.323521,773.048811 L714.639419,771.208397 L713.910358,769.385325 L713.136776,767.580694 L712.319139,765.795592 L711.45794,764.031093 L710.553697,762.28826 L709.606956,760.568144 L708.618285,758.871779 L707.588282,757.200189 L706.517566,755.55438 L705.406782,753.935343 L704.2566,752.344054 L703.067712,750.781471 L701.840834,749.248536 L700.576705,747.746171 L699.276088,746.275282 L697.939764,744.836754 L696.56854,743.431455 L695.163242,742.060231 L693.724715,740.723908 L692.253826,739.42329 L690.751461,738.159161 L689.218526,736.932283 L687.655943,735.743395 L686.064654,734.593212 L684.445617,733.482428 L682.799809,732.411712 L681.128219,731.381708 L679.431854,730.393037 L677.711738,729.446295 L675.968906,728.542052 L674.204407,727.680853 L672.419305,726.863215 L670.614674,726.089633 L668.791602,725.360572 L666.951188,724.67647 L665.094539,724.037741 L663.222774,723.444768 L661.33702,722.89791 L659.438414,722.397494 L657.528099,721.943824 L655.607226,721.537172 L653.676951,721.177783 L651.738438,720.865873 L649.792854,720.601631 L647.841371,720.385216 L645.885165,720.216757 L643.925414,720.096357 L641.963298,720.024088 L640,720 L640,880 Z" fill="#121212"/>
  <path d="M641.963284,719.975899 L643.9254,719.90363 L645.885151,719.78323 L647.841357,719.614772 L649.79284,719.398357 L651.738424,719.134115 L653.676937,718.822206 L655.607212,718.462817 L657.528085,718.056165 L659.438401,717.602495 L661.337007,717.10208 L663.22276,716.555222 L665.094526,715.96225 L666.951175,715.323521 L668.791589,714.639419 L670.614661,713.910358 L672.419292,713.136776 L674.204394,712.319139 L675.968893,711.45794 L677.711726,710.553697 L679.431842,709.606956 L681.128207,708.618285 L682.799797,707.588282 L684.445606,706.517566 L686.064643,705.406782 L687.655932,704.2566 L689.218515,703.067712 L690.75145,701.840834 L692.253815,700.576705 L693.724704,699.276088 L695.163232,697.939764 L696.568531,696.56854 L697.939755,695.163242 L699.276078,693.724715 L700.576696,692.253826 L701.840825,690.751461 L703.067703,689.218526 L704.256591,687.655943 L705.406774,686.064654 L706.517558,684.445617 L707.588274,682.799809 L708.618278,681.128219 L709.606949,679.431854 L710.553691,677.711738 L711.457934,675.968906 L712.319133,674.204407 L713.136771,672.419305 L713.910353,670.614674 L714.639414,668.791602 L715.323516,666.951188 L715.962245,665.094539 L716.555218,663.222774 L717.102076,661.33702 L717.602492,659.438414 L718.056162,657.528099 L718.462814,655.607226 L718.822203,653.676951 L719.134113,651.738438 L719.398355,649.792854 L719.61477,647.841371 L719.783229,645.885165 L719.903629,643.925414 L719.975898,641.963298 L720,640 L640,640 L640,720 Z" fill="#121212"/>
  <path d="M719.975899,958.036702 L719.90363,956.074586 L719.78323,954.114835 L719.614772,952.158629 L719.398357,950.207146 L719.134115,948.261562 L718.822206,946.323049 L718.462817,944.392774 L718.056165,942.471901 L717.602495,940.561585 L717.10208,938.662979 L716.555222,936.777226 L715.96225,934.90546 L715.323521,933.048811 L714.639419,931.208397 L713.910358,929.385325 L713.136776,927.580694 L712.319139,925.795592 L711.45794,924.031093 L710.553697,922.28826 L709.606956,920.568144 L708.618285,918.871779 L707.588282,917.200189 L706.517566,915.55438 L705.406782,913.935343 L704.2566,912.344054 L703.067712,910.781471 L701.840834,909.248536 L700.576705,907.746171 L699.276088,906.275282 L697.939764,904.836754 L696.56854,903.431455 L695.163242,902.060231 L693.724715,900.723908 L692.253826,899.42329 L690.751461,898.159161 L689.218526,896.932283 L687.655943,895.743395 L686.064654,894.593212 L684.445617,893.482428 L682.799809,892.411712 L681.128219,891.381708 L679.431854,890.393037 L677.711738,889.446295 L675.968906,888.542052 L674.204407,887.680853 L672.419305,886.863215 L670.614674,886.089633 L668.791602,885.360572 L666.951188,884.67647 L665.094539,884.037741 L663.222774,883.444768 L661.33702,882.89791 L659.438414,882.397494 L657.528099,881.943824 L655.607226,881.537172 L653.676951,881.177783 L651.738438,880.865873 L649.792854,880.601631 L647.841371,880.385216 L645.885165,880.216757 L643.925414,880.096357 L641.963298,880.024088 L640,880 L640,960 L720,960 Z" fill="#121212"/>
  <rect width="320" height="320" fill="#D9D9D6" x="0" y="320"/>
  <rect y="480" width="160" height="160" fill="#D9D9D6" x="0"/>
  <rect y="320" width="160" height="160" fill="#D9D9D6" x="0"/>
  <path fill-rule="evenodd" clip-rule="evenodd" d="M0 480C3.86258e-06 568.366 71.6344 640 160 640H320L320 320L160 320C71.6344 320 -3.86258e-06 391.634 0 480Z" fill="#121212"/>
  <rect width="320" height="320" fill="#121212" x="1280" y="640"/>
  <rect x="1440" y="800" width="160" height="160" fill="#121212"/>
  <rect x="1280" y="800" width="160" height="160" fill="#121212"/>
  <path fill-rule="evenodd" clip-rule="evenodd" d="M1440 960C1528.37 960 1600 888.366 1600 800L1600 640L1280 640L1280 800C1280 888.366 1351.63 960 1440 960Z" fill="#F3F3F3"/>
  <rect width="320" height="320" fill="#D9D9D6" x="0" y="0"/>
  <path d="M320 2.77201e-05 C231.634 -1.2525e-06 160 71.6344 160 160 L160 320 L320 320 L320 2.77201e-05 Z" fill="#121212"/>
  <rect width="320" height="320" fill="#D9D9D6" x="640" y="0"/>
  <path d="M640 8.13734e-06 L648.446 16.8916 L640 320 L640 160 L640 8.13734e-06 Z" fill="#121212"/>
  <rect width="320" height="320" fill="#D9D9D6" x="320" y="320"/>
  <path d="M532.8 506.667H586.133C586.133 447.757 538.376 400 479.466 400C420.557 400 372.8 447.757 372.8 506.667H426.133C426.133 536.124 450.009 560 479.466 560C508.924 560 532.8 536.124 532.8 506.667Z" fill="#121212"/>
  <rect width="320" height="320" fill="#F3F3F3" x="0" y="640"/>
  <path d="M1.39876e-05 960L0 640L320 640C143.27 640 6.26255e-06 783.27 1.39876e-05 960Z" fill="#D9D9D6"/>
  <rect width="320" height="320" fill="#F3F3F3" x="320" y="640"/>
  <path d="M639.987 960L640 960L640 640L320 640C496.198 640 639.987 783.333 639.987 960Z" fill="#121212"/>
  <path fill-rule="evenodd" clip-rule="evenodd" d="M576 960C576 818.615 461.385 704 320 704L320 672C479.058 672 608 800.942 608 960L576 960Z" fill="#121212"/>
  <path fill-rule="evenodd" clip-rule="evenodd" d="M512 960C512 853.961 426.039 768 320 768L320 736C443.712 736 544 836.288 544 960L512 960Z" fill="#121212"/>
  <path fill-rule="evenodd" clip-rule="evenodd" d="M448 960C448 889.308 390.692 832 320 832L320 800C408.366 800 480 871.634 480 960L448 960Z" fill="#121212"/>
  <path fill-rule="evenodd" clip-rule="evenodd" d="M384 960C384 924.654 355.346 896 320 896L320 864C373.019 864 416 906.981 416 960L384 960Z" fill="#121212"/>
  <path fill-rule="evenodd" clip-rule="evenodd" d="M352 960L320 960L320 928C337.673 928 352 942.327 352 960Z" fill="#121212"/>
  <rect width="320" height="320" fill="#D9D9D6" x="1280" y="0"/>
  <path d="M1600 320L1600 -3.05176e-05L1280 -2.79753e-05C1279.95 176.68 1423.27 319.949 1600 320Z" fill="#121212"/>
  <rect width="320" height="320" fill="#D9D9D6" x="960" y="320"/>
  <path fill-rule="evenodd" clip-rule="evenodd" d="M1120 536.667L1120 558.667L1264.07 558.667L1264 639.925L1280 640L1280 320L1264 320C1264 491.259 1215.33 536.667 1120 536.667Z" fill="#121212"/>
  <rect width="320" height="320" fill="#D9D9D6" x="1600" y="320"/>
  <path d="M1600 640 C1732.55 640 1840 532.548 1840 400 L1840 320 L1600 320 L1600 640 Z" fill="#121212"/>
  <rect width="320" height="320" fill="#D9D9D6" x="1600" y="0"/>
  <path d="M1600 2.77201e-05 C1688.37 -1.2525e-06 1760 71.6344 1760 160 L1760 320 L1600 320 L1600 2.77201e-05 Z" fill="#121212"/>
  <rect width="320" height="320" fill="#D9D9D6" x="960" y="0"/>
  <path d="M1280 -4.47606e-06 C1271.16 -3.25216e-05 1264 7.16342 1264 16 L1264 320 L1280 320 L1280 -4.47606e-06 Z" fill="#121212"/>
  <rect width="320" height="320" fill="#D9D9D6" x="1280" y="320"/>
  <path d="M1413.33 427.2L1413.33 373.867C1472.24 373.867 1520 421.623 1520 480.533C1520 539.443 1472.24 587.2 1413.33 587.2L1413.33 533.867C1383.88 533.867 1360 509.99 1360 480.533C1360 451.076 1383.88 427.2 1413.33 427.2Z" fill="#121212"/>
  <rect width="320" height="320" fill="#121212" x="1600" y="640"/>
  <path d="M1920 960L1920 640L1600 640C1776.73 640 1920 783.27 1920 960Z" fill="#D9D9D6"/>
  <rect width="320" height="320" fill="#F3F3F3" x="960" y="640"/>
  <path d="M960.013 960L960 960L960 640L1280 640C1103.8 640 960.013 783.333 960.013 960Z" fill="#D9D9D6"/>
  <path fill-rule="evenodd" clip-rule="evenodd" d="M1024 960C1024 818.615 1138.62 704 1280 704L1280 672C1120.94 672 992 800.942 992 960L1024 960Z" fill="#121212"/>
  <path fill-rule="evenodd" clip-rule="evenodd" d="M1088 960C1088 853.961 1173.96 768 1280 768L1280 736C1156.29 736 1056 836.288 1056 960L1088 960Z" fill="#121212"/>
  <path fill-rule="evenodd" clip-rule="evenodd" d="M1152 960C1152 889.308 1209.31 832 1280 832L1280 800C1191.63 800 1120 871.634 1120 960L1152 960Z" fill="#121212"/>
  <path fill-rule="evenodd" clip-rule="evenodd" d="M1216 960C1216 924.654 1244.65 896 1280 896L1280 864C1226.98 864 1184 906.981 1184 960L1216 960Z" fill="#121212"/>
  <path fill-rule="evenodd" clip-rule="evenodd" d="M1248 960L1280 960L1280 928C1262.33 928 1248 942.327 1248 960Z" fill="#121212"/>
</svg>
