<?xml version='1.0' encoding='UTF-8'?>
<svg xmlns="http://www.w3.org/2000/svg" width="1920" height="960" viewBox="0 0 1920 960">
  <rect width="1920" height="960" fill="#F3F3F3"/>
  <rect width="320" height="320" fill="#F3F3F3" x="320" y="320"/>
  <path d="M320 640L320 320L640 320C463.27 320 320 463.27 320 640Z" fill="#FF4F00"/>
  <rect width="320" height="320" fill="#F3F3F3" x="320" y="640"/>
  <path d="M560 640L400 640L400 960L560 960V640Z" fill="#D9D9D6"/>
  <rect width="320" height="320" fill="#F3F3F3" x="960" y="640"/>
  <path d="M1200 640L1040 640L1040 960L1200 960V640Z" fill="#D9D9D6"/>
  <rect width="320" height="320" fill="#F3F3F3" x="1280" y="640"/>
  <path d="M1520 640L1360 640L1360 960L1520 960V640Z" fill="#D9D9D6"/>
  <rect width="320" height="320" fill="#F3F3F3" x="640" y="640"/>
  <path d="M880 640L720 640L720 960L880 960V640Z" fill="#D9D9D6"/>
  <rect width="320" height="320" fill="#F3F3F3" x="640" y="320"/>
  <rect width="320" height="320" fill="#F3F3F3" x="960" y="320"/>
  <rect width="320" height="320" fill="#F3F3F3" x="1280" y="320"/>
  <path d="M1600 640L1600 320L1280 320C1456.73 320 1600 463.27 1600 640Z" fill="#FF4F00"/>
  <rect width="320" height="320" fill="#FF4F00" x="640" y="0"/>
  <rect width="320" height="160" fill="#D9D9D6" x="640" y="160"/>
  <path fill-rule="evenodd" clip-rule="evenodd" d="M640 320L672 320L672 160L640 160L640 320ZM799.955 160L640 159.955C640 159.955 711.615 159.974 799.955 160ZM799.955 160L774.4 160L774.4 320L806.4 320L806.4 160L841.6 160L841.6 320L873.6 320L873.6 160L908.8 160L908.8 320L940.8 320L940.8 160L799.955 160ZM707.2 320L739.2 320L739.2 160L707.2 160L707.2 320Z" fill="#F3F3F3"/>
  <path d="M640 159.955L960 160L960 1.14428e-05L800 1.33508e-05C711.66 -0.0255898 640.026 71.5902 640 159.955Z" fill="#F3F3F3"/>
  <rect width="320" height="320" fill="#FF4F00" x="320" y="0"/>
  <rect width="320" height="320" fill="#FF4F00" x="1600" y="0"/>
  <ellipse cx="120" cy="120" rx="120" ry="120" transform="matrix(-1 0 0 1 1880 40)" fill="#FFA300"/>
  <rect width="320" height="320" fill="#FF4F00" x="960" y="0"/>
  <rect x="960" y="160" width="320" height="160" fill="#D9D9D6"/>
  <path fill-rule="evenodd" clip-rule="evenodd" d="M1280 320L1248 320L1248 160L1280 160L1280 320ZM1120.04 160L1280 159.955C1280 159.955 1208.38 159.974 1120.04 160ZM1120.04 160L1145.6 160L1145.6 320L1113.6 320L1113.6 160L1078.4 160L1078.4 320L1046.4 320L1046.4 160L1011.2 160L1011.2 320L979.2 320L979.2 160L1120.04 160ZM1212.8 320L1180.8 320L1180.8 160L1212.8 160L1212.8 320Z" fill="#F3F3F3"/>
  <path d="M1280 159.955L960 160L960 1.14428e-05L1120 1.33508e-05C1208.34 -0.0255898 1279.97 71.5902 1280 159.955Z" fill="#F3F3F3"/>
  <rect width="320" height="320" fill="#FF4F00" x="1280" y="0"/>
  <rect width="320" height="320" fill="#FF4F00" x="1600" y="320"/>
  <rect width="320" height="320" fill="#FF4F00" x="1600" y="640"/>
  <path fill-rule="evenodd" clip-rule="evenodd" d="M1600 656L1920 656V664L1600 664V656Z" fill="#F3F3F3"/>
  <path fill-rule="evenodd" clip-rule="evenodd" d="M1600 832L1920 832L1920 840L1600 840L1600 832Z" fill="#F3F3F3"/>
  <path fill-rule="evenodd" clip-rule="evenodd" d="M1600 696L1920 696V704L1600 704V696Z" fill="#F3F3F3"/>
  <path fill-rule="evenodd" clip-rule="evenodd" d="M1600 864L1920 864L1920 872L1600 872L1600 864Z" fill="#F3F3F3"/>
  <path fill-rule="evenodd" clip-rule="evenodd" d="M1600 736L1920 736V744L1600 744V736Z" fill="#F3F3F3"/>
  <path fill-rule="evenodd" clip-rule="evenodd" d="M1600 896L1920 896L1920 904L1600 904L1600 896Z" fill="#F3F3F3"/>
  <path fill-rule="evenodd" clip-rule="evenodd" d="M1600 768L1920 768V776L1600 776V768Z" fill="#F3F3F3"/>
  <path fill-rule="evenodd" clip-rule="evenodd" d="M1600 920L1920 920L1920 928L1600 928L1600 920Z" fill="#F3F3F3"/>
  <path fill-rule="evenodd" clip-rule="evenodd" d="M1600 944L1920 944L1920 952L1600 952L1600 944Z" fill="#F3F3F3"/>
  <path fill-rule="evenodd" clip-rule="evenodd" d="M1600 800L1920 800L1920 808L1600 808L1600 800Z" fill="#F3F3F3"/>
  <rect width="320" height="320" fill="#FF4F00" x="0" y="0"/>
  <rect width="320" height="320" fill="#FF4F00" x="0" y="320"/>
  <rect width="320" height="320" fill="#FF4F00" x="0" y="640"/>
  <path fill-rule="evenodd" clip-rule="evenodd" d="M0 656L320 656L320 664L0 664L0 656Z" fill="#F3F3F3"/>
  <path fill-rule="evenodd" clip-rule="evenodd" d="M0 832L320 832L320 840L0 840L0 832Z" fill="#F3F3F3"/>
  <path fill-rule="evenodd" clip-rule="evenodd" d="M0 696L320 696L320 704L0 704L0 696Z" fill="#F3F3F3"/>
  <path fill-rule="evenodd" clip-rule="evenodd" d="M0 864L320 864L320 872L0 872L0 864Z" fill="#F3F3F3"/>
  <path fill-rule="evenodd" clip-rule="evenodd" d="M0 736L320 736L320 744L0 744L0 736Z" fill="#F3F3F3"/>
  <path fill-rule="evenodd" clip-rule="evenodd" d="M0 896L320 896L320 904L0 904L0 896Z" fill="#F3F3F3"/>
  <path fill-rule="evenodd" clip-rule="evenodd" d="M0 768L320 768L320 776L0 776L0 768Z" fill="#F3F3F3"/>
  <path fill-rule="evenodd" clip-rule="evenodd" d="M0 920L320 920L320 928L0 928L0 920Z" fill="#F3F3F3"/>
  <path fill-rule="evenodd" clip-rule="evenodd" d="M0 944L320 944L320 952L0 952L0 944Z" fill="#F3F3F3"/>
  <path fill-rule="evenodd" clip-rule="evenodd" d="M0 800L320 800L320 808L0 808L0 800Z" fill="#F3F3F3"/>
</svg>
