<?xml version='1.0' encoding='UTF-8'?>
<svg xmlns="http://www.w3.org/2000/svg" width="1920" height="960" viewBox="0 0 1920 960">
  <rect width="1920" height="960" fill="#F3F3F3"/>
  <rect width="320" height="320" fill="#121212" x="960" y="0"/>
  <rect width="320" height="320" fill="#121212" x="320" y="0"/>
  <rect width="320" height="320" fill="#F3F3F3" x="960" y="640"/>
  <path d="M960,868.057269 L960,868.288553 L960,868.699219 L960,869.335963 L960,870.245481 L960,871.474473 L960,873.069633 L960,875.07766 L960,877.54525 L960,880.519101 L960,884.045909 L960,888.172371 L960,892.945185 L960,898.411048 L960,904.616656 L960,911.608707 L960,919.433898 L960,928.138926 L960,937.770487 L960,948.37528 L960,960 L1280,960 L1280,784.001396 L1277.604743,784.168555 L1275.234821,784.667 L1272.915254,785.484508 L1270.651065,786.61025 L1268.447275,788.033398 L1266.308906,789.743125 L1264.24098,791.728602 L1262.248519,793.979 L1260.336543,796.483492 L1258.510075,799.23125 L1256.774137,802.211445 L1255.13375,805.41325 L1253.593936,808.825836 L1252.159716,812.438375 L1250.836113,816.240039 L1249.628148,820.22 L1248.540843,824.36743 L1247.579219,828.6715 L1246.748298,833.121383 L1246.053102,837.70625 L1245.498652,842.415273 L1245.089971,847.237625 L1244.83208,852.162477 L1244.73,857.179 L1244.73,857.207542 L1244.73,857.236083 L1244.73,857.264625 L1244.73,857.293167 L1244.73,857.321708 L1244.73,857.35025 L1244.73,857.378792 L1244.73,857.407333 L1244.73,857.435875 L1244.73,857.464417 L1244.73,857.492958 L1244.73,857.5215 L1244.73,857.550042 L1244.73,857.578583 L1244.73,857.607125 L1244.73,857.635667 L1244.73,857.664208 L1244.73,857.69275 L1244.73,857.721292 L1244.73,857.749833 L1244.73,857.778375 L1244.73,857.806917 L1244.73,857.835458 L1244.73,857.864 L1244.73,857.864 L1244.627371,862.882011 L1244.367928,867.808086 L1243.956836,872.631416 L1243.399259,877.34119 L1242.700363,881.926597 L1241.865312,886.376828 L1240.899272,890.681072 L1239.807407,894.828519 L1238.594883,898.808357 L1237.266863,902.609778 L1235.828514,906.221971 L1234.285,909.634125 L1232.641486,912.83543 L1230.903137,915.815076 L1229.075117,918.562252 L1227.162593,921.066148 L1225.170728,923.315954 L1223.104687,925.300859 L1220.969637,927.010054 L1218.770741,928.432727 L1216.513164,929.558068 L1214.202072,930.375268 L1211.842629,930.873515 L1209.44,931.042 L1209.44,931.042 L1207.03857,930.873515 L1204.680226,930.375268 L1202.370137,929.558068 L1200.113472,928.432727 L1197.915401,927.010054 L1195.781094,925.300859 L1193.715718,923.315954 L1191.724444,921.066148 L1189.812441,918.562252 L1187.984878,915.815076 L1186.246925,912.83543 L1184.60375,909.634125 L1183.060523,906.221971 L1181.622413,902.609778 L1180.29459,898.808357 L1179.082222,894.828519 L1177.99048,890.681072 L1177.024531,886.376828 L1176.189546,881.926597 L1175.490694,877.34119 L1174.933145,872.631416 L1174.522066,867.808086 L1174.262628,862.882011 L1174.16,857.864 L1174.16,857.835458 L1174.16,857.806917 L1174.16,857.778375 L1174.16,857.749833 L1174.16,857.721292 L1174.16,857.69275 L1174.16,857.664208 L1174.16,857.635667 L1174.16,857.607125 L1174.16,857.578583 L1174.16,857.550042 L1174.16,857.5215 L1174.16,857.492958 L1174.16,857.464417 L1174.16,857.435875 L1174.16,857.407333 L1174.16,857.378792 L1174.16,857.35025 L1174.16,857.321708 L1174.16,857.293167 L1174.16,857.264625 L1174.16,857.236083 L1174.16,857.207542 L1174.16,857.179 L1174.16,857.179 L1174.099847,852.162477 L1173.96044,847.237625 L1173.735859,842.415273 L1173.420185,837.70625 L1173.007497,833.121383 L1172.491875,828.6715 L1171.867399,824.36743 L1171.128148,820.22 L1170.268203,816.240039 L1169.281644,812.438375 L1168.162549,808.825836 L1166.905,805.41325 L1165.503076,802.211445 L1163.950856,799.23125 L1162.242422,796.483492 L1160.371852,793.979 L1158.333226,791.728602 L1156.120625,789.743125 L1153.728128,788.033398 L1151.149815,786.61025 L1148.379766,785.484508 L1145.41206,784.667 L1142.240778,784.168555 L1138.86,784 L1138.86,784 L1135.478374,784.170456 L1132.304699,784.674481 L1129.333281,785.501063 L1126.558426,786.639185 L1123.974439,788.077836 L1121.575625,789.806 L1119.356291,791.812664 L1117.310741,794.086815 L1115.433281,796.617438 L1113.718218,799.393519 L1112.159855,802.404044 L1110.7525,805.638 L1109.490457,809.084373 L1108.368032,812.732148 L1107.379531,816.570312 L1106.519259,820.587852 L1105.781522,824.773752 L1105.160625,829.117 L1104.650874,833.606581 L1104.246574,838.231481 L1103.942031,842.980688 L1103.731551,847.843185 L1103.609439,852.807961 L1103.57,857.864 L1103.57,857.864 L1103.554489,862.882011 L1103.530914,867.808086 L1103.488711,872.631416 L1103.417315,877.34119 L1103.306162,881.926597 L1103.144687,886.376828 L1102.922328,890.681072 L1102.628519,894.828519 L1102.252695,898.808357 L1101.784294,902.609778 L1101.21275,906.221971 L1100.5275,909.634125 L1099.717979,912.83543 L1098.773623,915.815076 L1097.683867,918.562252 L1096.438148,921.066148 L1095.025901,923.315954 L1093.436562,925.300859 L1091.659567,927.010054 L1089.684352,928.432727 L1087.500352,929.558068 L1085.097002,930.375268 L1082.46374,930.873515 L1079.59,931.042 L1079.59,931.042 L1076.722962,930.897077 L1074.110984,930.468053 L1071.741523,929.763545 L1069.602037,928.792171 L1067.679981,927.562549 L1065.962813,926.083297 L1064.437988,924.363031 L1063.092963,922.41037 L1061.915195,920.233932 L1060.892141,917.842333 L1060.011257,915.244191 L1059.26,912.448125 L1058.625826,909.462751 L1058.096192,906.296688 L1057.658555,902.958553 L1057.30037,899.456963 L1057.009096,895.800536 L1056.772187,891.997891 L1056.577102,888.057643 L1056.411296,883.988412 L1056.262227,879.798814 L1056.11735,875.497468 L1055.964122,871.092991 L1055.79,866.594 L1055.79,866.594 L1055.788265,861.49387 L1055.776123,856.401624 L1055.743164,851.335857 L1055.678981,846.315162 L1055.573167,841.358132 L1055.415312,836.483359 L1055.19501,831.709439 L1054.901852,827.054963 L1054.52543,822.538525 L1054.055336,818.178719 L1053.481162,813.994138 L1052.7925,810.003375 L1051.978942,806.225023 L1051.030081,802.677677 L1049.935508,799.379928 L1048.684815,796.35037 L1047.267594,793.607598 L1045.673437,791.170203 L1043.891937,789.05678 L1041.912685,787.285921 L1039.725273,785.876221 L1037.319294,784.846271 L1034.684339,784.214667 L1031.81,784 L1031.81,784 L1028.934463,784.23323 L1026.298409,784.918403 L1023.891426,786.033744 L1021.703102,787.557477 L1019.723024,789.467826 L1017.940781,791.743016 L1016.34596,794.36127 L1014.928148,797.300815 L1013.676934,800.539873 L1012.581904,804.05667 L1011.632647,807.829429 L1010.81875,811.836375 L1010.129801,816.055733 L1009.555388,820.465726 L1009.085098,825.04458 L1008.708519,829.770519 L1008.415238,834.621766 L1008.194844,839.576547 L1008.036923,844.613086 L1007.931065,849.709606 L1007.866855,854.844334 L1007.833883,859.995492 L1007.821735,865.141306 L1007.82,870.26 L1007.82,870.26 L1007.704345,874.534016 L1007.603093,878.713631 L1007.509814,882.791068 L1007.418079,886.758551 L1007.321456,890.608303 L1007.213516,894.332547 L1007.087828,897.923507 L1006.937963,901.373407 L1006.75749,904.674471 L1006.53998,907.818921 L1006.279001,910.798981 L1005.968125,913.606875 L1005.600921,916.234826 L1005.170958,918.675058 L1004.671807,920.919795 L1004.097037,922.961259 L1003.440219,924.791675 L1002.694922,926.403266 L1001.854716,927.788255 L1000.913171,928.938866 L999.863857,929.847322 L998.700344,930.505848 L997.416202,930.906666 L996.005,931.042 L996.005,931.042 L994.785128,930.721905 L993.65621,929.787384 L992.61442,928.277084 L991.655931,926.229653 L990.776915,923.683737 L989.973547,920.677984 L989.241999,917.251041 L988.578444,913.441556 L987.979057,909.288174 L987.440009,904.829543 L986.957474,900.104311 L986.527625,895.151125 L986.146636,890.008631 L985.810679,884.715477 L985.515928,879.310311 L985.258556,873.831778 L985.034735,868.318526 L984.840641,862.809203 L984.672444,857.342456 L984.526319,851.956931 L984.398439,846.691275 L984.284977,841.584137 L984.182107,836.674163 L984.086,832 L984.086,832 L983.964265,826.246528 L983.612971,820.972222 L983.052988,816.15625 L982.305185,811.777778 L981.390431,807.815972 L980.329594,804.25 L979.143543,801.059028 L977.853148,798.222222 L976.479277,795.71875 L975.0428,793.527778 L973.564584,791.628472 L972.0655,790 L970.566416,788.621528 L969.0882,787.472222 L967.651723,786.53125 L966.277852,785.777778 L964.987457,785.190972 L963.801406,784.75 L962.740569,784.434028 L961.825815,784.222222 L961.078012,784.09375 L960.518029,784.027778 L960.166735,784.003472 L960.045,784 L960.045,784 L960.04528,784.13558 L960.046069,784.53887 L960.047297,785.204695 L960.048889,786.12788 L960.050773,787.303248 L960.052875,788.725625 L960.055123,790.389835 L960.057444,792.290704 L960.059766,794.423055 L960.062014,796.781713 L960.064116,799.361503 L960.066,802.15725 L960.067592,805.163778 L960.068819,808.375912 L960.069609,811.788477 L960.069889,815.396296 L960.069585,819.194196 L960.068625,823.177 L960.066936,827.339533 L960.064444,831.67662 L960.061078,836.183086 L960.056764,840.853755 L960.051429,845.683451 L960.045,850.667 L960.045,850.667 L960.044682,851.132775 L960.044229,851.666682 L960.043641,852.262467 L960.042917,852.913875 L960.042057,853.614653 L960.041063,854.358547 L960.039932,855.139303 L960.038667,855.950667 L960.037266,856.786385 L960.035729,857.640203 L960.034057,858.505868 L960.03225,859.377125 L960.030307,860.247721 L960.028229,861.111401 L960.026016,861.961912 L960.023667,862.793 L960.021182,863.598411 L960.018563,864.371891 L960.015807,865.107186 L960.012917,865.798042 L960.009891,866.438205 L960.006729,867.021422 L960.003432,867.541438 L960,867.992 Z" fill="#121212" fill-rule="evenodd" clip-rule="evenodd"/>
  <rect width="320" height="320" fill="#F3F3F3" x="0" y="320"/>
  <path d="M8.368086,478.788335 L22.5664,484.646 L22.5664,484.646 L31.566834,488.533997 L40.678408,491.713661 L49.869725,494.198006 L59.109394,496 L68.366018,497.132781 L77.608203,497.609234 L86.804556,497.442415 L95.923681,496.645333 L104.934186,495.231002 L113.804674,493.212432 L122.503752,490.602636 L131,487.414625 L139.262099,483.661411 L147.25858,479.356005 L154.958074,474.51142 L162.329185,469.140667 L169.34052,463.256757 L175.960684,456.872703 L182.158283,450.001516 L187.901923,442.656208 L193.160209,434.849791 L197.901747,426.595276 L202.095142,417.905675 L205.709,408.794 L205.709,408.794 L208.285641,402.07046 L211.131606,395.611825 L214.236084,389.418074 L217.588264,383.489185 L221.177334,377.825136 L224.992484,372.425906 L229.022903,367.291473 L233.257778,362.421815 L237.686299,357.81691 L242.297655,353.476737 L247.081034,349.401274 L252.025625,345.5905 L257.120617,342.044392 L262.3552,338.762929 L267.718561,335.74609 L273.199889,332.993852 L278.788373,330.506194 L284.473203,328.283094 L290.243567,326.32453 L296.088653,324.630481 L301.99765,323.200926 L307.959748,322.035841 L313.964135,321.135207 L320,320.499 L320,320.478208 L320,320.457417 L320,320.436625 L320,320.415833 L320,320.395042 L320,320.37425 L320,320.353458 L320,320.332667 L320,320.311875 L320,320.291083 L320,320.270292 L320,320.2495 L320,320.228708 L320,320.207917 L320,320.187125 L320,320.166333 L320,320.145542 L320,320.12475 L320,320.103958 L320,320.083167 L320,320.062375 L320,320.041583 L320,320.020792 L320,320 L293.333333,320 L266.666667,320 L240,320 L213.333333,320 L186.666667,320 L160,320 L133.333333,320 L106.666667,320 L80,320 L53.333333,320 L26.666667,320 L0,320 L0,476.344162 Z" fill="#121212"/>
  <rect width="320" height="320" fill="#F3F3F3" x="640" y="320"/>
  <path d="M648.36778,478.788335 L662.566,484.646 L662.566,484.646 L671.566528,488.533997 L680.678183,491.713661 L689.869572,494.198006 L699.109301,496 L708.365976,497.132781 L717.608203,497.609234 L726.804589,497.442415 L735.923741,496.645333 L744.934264,495.231002 L753.804764,493.212432 L762.503849,490.602636 L771.000125,487.414625 L779.262197,483.661411 L787.258673,479.356005 L794.958158,474.51142 L802.329259,469.140667 L809.340583,463.256757 L815.960734,456.872703 L822.158321,450.001516 L827.901949,442.656208 L833.160225,434.849791 L837.901754,426.595276 L842.095144,417.905675 L845.709,408.794 L845.709,408.794 L848.285641,402.07046 L851.131606,395.611825 L854.236084,389.418074 L857.588264,383.489185 L861.177334,377.825136 L864.992484,372.425906 L869.022903,367.291473 L873.257778,362.421815 L877.686299,357.81691 L882.297655,353.476737 L887.081034,349.401274 L892.025625,345.5905 L897.120617,342.044392 L902.3552,338.762929 L907.718561,335.74609 L913.199889,332.993852 L918.788373,330.506194 L924.473203,328.283094 L930.243567,326.32453 L936.088653,324.630481 L941.99765,323.200926 L947.959748,322.035841 L953.964135,321.135207 L960,320.499 L960,320.478208 L960,320.457417 L960,320.436625 L960,320.415833 L960,320.395042 L960,320.37425 L960,320.353458 L960,320.332667 L960,320.311875 L960,320.291083 L960,320.270292 L960,320.2495 L960,320.228708 L960,320.207917 L960,320.187125 L960,320.166333 L960,320.145542 L960,320.12475 L960,320.103958 L960,320.083167 L960,320.062375 L960,320.041583 L960,320.020792 L960,320 L933.333333,320 L906.666667,320 L880,320 L853.333333,320 L826.666667,320 L800,320 L773.333333,320 L746.666667,320 L720,320 L693.333333,320 L666.666667,320 L640,320 L640,476.344237 Z" fill="#121212"/>
  <rect width="320" height="320" fill="#F3F3F3" x="1280" y="320"/>
  <path d="M1288.371051,478.788335 L1302.57,484.646 L1302.57,484.646 L1311.569819,488.533997 L1320.680845,491.713661 L1329.87168,494.198006 L1339.110926,496 L1348.367186,497.132781 L1357.609062,497.609234 L1366.805158,497.442415 L1375.924074,496.645333 L1384.934414,495.231002 L1393.80478,493.212432 L1402.503775,490.602636 L1411,487.414625 L1419.262059,483.661411 L1427.258553,479.356005 L1434.958086,474.51142 L1442.329259,469.140667 L1449.340676,463.256757 L1455.960938,456.872703 L1462.158647,450.001516 L1467.902407,442.656208 L1473.16082,434.849791 L1477.902488,426.595276 L1482.096014,417.905675 L1485.71,408.794 L1485.71,408.794 L1488.287,402.07046 L1491.133293,395.611825 L1494.238066,389.418074 L1497.590509,383.489185 L1501.17981,377.825136 L1504.995156,372.425906 L1509.025737,367.291473 L1513.260741,362.421815 L1517.689355,357.81691 L1522.30077,353.476737 L1527.084172,349.401274 L1532.02875,345.5905 L1537.123693,342.044392 L1542.358189,338.762929 L1547.721426,335.74609 L1553.202593,332.993852 L1558.790877,330.506194 L1564.475469,328.283094 L1570.245555,326.32453 L1576.090324,324.630481 L1581.998965,323.200926 L1587.960666,322.035841 L1593.964614,321.135207 L1600,320.499 L1600,320.478208 L1600,320.457417 L1600,320.436625 L1600,320.415833 L1600,320.395042 L1600,320.37425 L1600,320.353458 L1600,320.332667 L1600,320.311875 L1600,320.291083 L1600,320.270292 L1600,320.2495 L1600,320.228708 L1600,320.207917 L1600,320.187125 L1600,320.166333 L1600,320.145542 L1600,320.12475 L1600,320.103958 L1600,320.083167 L1600,320.062375 L1600,320.041583 L1600,320.020792 L1600,320 L1573.333333,320 L1546.666667,320 L1520,320 L1493.333333,320 L1466.666667,320 L1440,320 L1413.333333,320 L1386.666667,320 L1360,320 L1333.333333,320 L1306.666667,320 L1280,320 L1280,476.343399 Z" fill="#121212"/>
  <rect width="320" height="320" fill="#121212" x="1280" y="0"/>
  <path fill-rule="evenodd" clip-rule="evenodd" d="M1326.03 160C1326.03 97.0562 1377.06 46.0301 1440 46.0301C1502.94 46.0301 1553.97 97.0562 1553.97 160C1553.97 222.944 1502.94 273.97 1440 273.97C1377.06 273.97 1326.03 222.944 1326.03 160ZM1320 160C1320 93.7258 1373.73 40 1440 40C1506.27 40 1560 93.7258 1560 160C1560 226.274 1506.27 280 1440 280C1373.73 280 1320 226.274 1320 160Z" fill="#F3F3F3"/>
  <rect width="320" height="320" fill="#121212" x="640" y="0"/>
  <rect width="320" height="320" fill="#121212" x="1600" y="0"/>
  <rect width="320" height="320" fill="#4997D0" x="1600" y="640"/>
  <path d="M1600.01 960L1600 960L1600 640L1920 640C1743.8 640 1600.01 783.333 1600.01 960Z" fill="#F3F3F3"/>
  <path fill-rule="evenodd" clip-rule="evenodd" d="M1887.89 641.6C1737.17 656.699 1616.66 776.928 1601.6 927.993C1600.55 938.521 1600.01 949.198 1600.01 960L1600 960L1600 640L1920 640C1909.17 640 1898.46 640.542 1887.89 641.6ZM1874.58 641.6C1733.65 661.624 1621.61 773.421 1601.6 914.636L1601.6 641.6L1874.58 641.6Z" fill="#F3F3F3"/>
  <path fill-rule="evenodd" clip-rule="evenodd" d="M1656 960C1656 814.197 1774.2 696 1920 696V680C1765.36 680 1640 805.36 1640 960H1656Z" fill="#F3F3F3"/>
  <path fill-rule="evenodd" clip-rule="evenodd" d="M1720 960C1720 849.543 1809.54 760 1920 760V744C1800.71 744 1704 840.707 1704 960L1720 960Z" fill="#F3F3F3"/>
  <path fill-rule="evenodd" clip-rule="evenodd" d="M1784 960C1784 884.889 1844.89 824 1920 824V808C1836.05 808 1768 876.053 1768 960L1784 960Z" fill="#F3F3F3"/>
  <path fill-rule="evenodd" clip-rule="evenodd" d="M1848 960C1848 920.235 1880.24 888 1920 888V872C1871.4 872 1832 911.399 1832 960L1848 960Z" fill="#F3F3F3"/>
  <path fill-rule="evenodd" clip-rule="evenodd" d="M1912 960C1912 955.582 1915.58 952 1920 952V936C1906.75 936 1896 946.745 1896 960H1912Z" fill="#F3F3F3"/>
  <rect width="320" height="320" fill="#4997D0" x="320" y="640"/>
  <path d="M639.987 640L640 640L640 960L320 960C496.198 960 639.987 816.667 639.987 640Z" fill="#F3F3F3"/>
  <path fill-rule="evenodd" clip-rule="evenodd" d="M352.107 958.4C502.833 943.301 623.338 823.072 638.4 672.007C639.45 661.479 639.987 650.802 639.987 640L640 640L640 960L320 960C330.834 960 341.545 959.458 352.107 958.4ZM365.418 958.4C506.347 938.376 618.387 826.579 638.4 685.364L638.4 958.4L365.418 958.4Z" fill="#F3F3F3"/>
  <path fill-rule="evenodd" clip-rule="evenodd" d="M584 640C584 785.803 465.803 904 320 904L320 920C474.64 920 600 794.64 600 640L584 640Z" fill="#F3F3F3"/>
  <path fill-rule="evenodd" clip-rule="evenodd" d="M520 640C520 750.457 430.457 840 320 840L320 856C439.294 856 536 759.293 536 640L520 640Z" fill="#F3F3F3"/>
  <path fill-rule="evenodd" clip-rule="evenodd" d="M456 640C456 715.111 395.111 776 320 776L320 792C403.947 792 472 723.947 472 640L456 640Z" fill="#F3F3F3"/>
  <path fill-rule="evenodd" clip-rule="evenodd" d="M392 640C392 679.765 359.765 712 320 712L320 728C368.601 728 408 688.601 408 640L392 640Z" fill="#F3F3F3"/>
  <path fill-rule="evenodd" clip-rule="evenodd" d="M328 640C328 644.418 324.418 648 320 648L320 664C333.255 664 344 653.255 344 640L328 640Z" fill="#F3F3F3"/>
  <rect width="320" height="320" fill="#121212" x="0" y="0"/>
  <rect width="320" height="320" fill="#4997D0" x="0" y="640"/>
  <path d="M320,948.37528 L320,937.770487 L320,928.138926 L320,919.433898 L320,911.608707 L320,904.616656 L320,898.411048 L320,892.945185 L320,888.172371 L320,884.045909 L320,880.519101 L320,877.54525 L320,875.07766 L320,873.069633 L320,871.474473 L320,870.245481 L320,869.335963 L320,868.699219 L320,868.288553 L320,868.057269 L320,867.992 L319.996568,867.541438 L319.993271,867.021422 L319.990109,866.438205 L319.987083,865.798042 L319.984193,865.107186 L319.981437,864.371891 L319.978818,863.598411 L319.976333,862.793 L319.973984,861.961912 L319.971771,861.111401 L319.969693,860.247721 L319.96775,859.377125 L319.965943,858.505868 L319.964271,857.640203 L319.962734,856.786385 L319.961333,855.950667 L319.960068,855.139303 L319.958938,854.358547 L319.957943,853.614653 L319.957083,852.913875 L319.956359,852.262467 L319.955771,851.666682 L319.955318,851.132775 L319.955,850.667 L319.955,850.667 L319.948571,845.683451 L319.943236,840.853755 L319.938922,836.183086 L319.935556,831.67662 L319.933064,827.339533 L319.931375,823.177 L319.930415,819.194196 L319.930111,815.396296 L319.930391,811.788477 L319.931181,808.375912 L319.932408,805.163778 L319.934,802.15725 L319.935884,799.361503 L319.937986,796.781713 L319.940234,794.423055 L319.942556,792.290704 L319.944877,790.389835 L319.947125,788.725625 L319.949227,787.303248 L319.951111,786.12788 L319.952703,785.204695 L319.953931,784.53887 L319.95472,784.13558 L319.955,784 L319.955,784 L319.833265,784.003472 L319.481971,784.027778 L318.921988,784.09375 L318.174185,784.222222 L317.259431,784.434028 L316.198594,784.75 L315.012543,785.190972 L313.722148,785.777778 L312.348277,786.53125 L310.9118,787.472222 L309.433584,788.621528 L307.9345,790 L306.435416,791.628472 L304.9572,793.527778 L303.520723,795.71875 L302.146852,798.222222 L300.856457,801.059028 L299.670406,804.25 L298.609569,807.815972 L297.694815,811.777778 L296.947012,816.15625 L296.387029,820.972222 L296.035735,826.246528 L295.914,832 L295.914,832 L295.817893,836.674163 L295.715023,841.584137 L295.601561,846.691275 L295.473681,851.956931 L295.327556,857.342456 L295.159359,862.809203 L294.965265,868.318526 L294.741444,873.831778 L294.484072,879.310311 L294.189321,884.715477 L293.853364,890.008631 L293.472375,895.151125 L293.042526,900.104311 L292.559991,904.829543 L292.020943,909.288174 L291.421556,913.441556 L290.758001,917.251041 L290.026453,920.677984 L289.223085,923.683737 L288.344069,926.229653 L287.38558,928.277084 L286.34379,929.787384 L285.214872,930.721905 L283.995,931.042 L283.995,931.042 L282.583429,930.906671 L281.298928,930.505867 L280.13507,929.847363 L279.085426,928.938935 L278.143566,927.788358 L277.303063,926.403406 L276.557486,924.791856 L275.900407,922.961481 L275.325398,920.920059 L274.82603,918.675362 L274.395874,916.235168 L274.0285,913.60725 L273.717481,910.799384 L273.456387,907.819346 L273.238789,904.67491 L273.058259,901.373852 L272.908368,897.923946 L272.782688,894.332969 L272.674788,890.608694 L272.578241,886.758898 L272.486617,882.791355 L272.393488,878.713841 L272.292426,874.534131 L272.177,870.26 L272.177,870.26 L272.175265,865.141306 L272.16312,859.995492 L272.130154,854.844334 L272.065958,849.709606 L271.960122,844.613086 L271.802234,839.576547 L271.581886,834.621766 L271.288667,829.770519 L270.912166,825.04458 L270.441974,820.465726 L269.86768,816.055733 L269.178875,811.836375 L268.365148,807.829429 L267.416089,804.05667 L266.321287,800.539873 L265.070333,797.300815 L263.652817,794.36127 L262.058328,791.743016 L260.276456,789.467826 L258.296792,787.557477 L256.108924,786.033744 L253.702443,784.918403 L251.066938,784.23323 L248.192,784 L248.192,784 L245.317062,784.214667 L242.681557,784.846271 L240.275076,785.876221 L238.087208,787.285921 L236.107544,789.05678 L234.325672,791.170203 L232.731183,793.607598 L231.313667,796.35037 L230.062713,799.379928 L228.967911,802.677677 L228.018852,806.225023 L227.205125,810.003375 L226.51632,813.994138 L225.942026,818.178719 L225.471834,822.538525 L225.095333,827.054963 L224.802114,831.709439 L224.581766,836.483359 L224.423878,841.358132 L224.318042,846.315162 L224.253846,851.335857 L224.22088,856.401624 L224.208735,861.49387 L224.207,866.594 L224.207,866.594 L224.033572,871.092991 L223.880933,875.497468 L223.736549,879.798814 L223.587884,883.988412 L223.422405,888.057643 L223.227578,891.997891 L222.990868,895.800536 L222.699741,899.456963 L222.341662,902.958553 L221.904098,906.296688 L221.374514,909.462751 L220.740375,912.448125 L219.989148,915.244191 L219.108298,917.842333 L218.085291,920.233932 L216.907593,922.41037 L215.562668,924.363031 L214.037984,926.083297 L212.321006,927.562549 L210.399199,928.792171 L208.260029,929.763545 L205.890962,930.468053 L203.279464,930.897077 L200.413,931.042 L200.413,931.042 L197.538681,930.873515 L194.904925,930.375268 L192.501162,929.558068 L190.316819,928.432727 L188.341326,927.010054 L186.564109,925.300859 L184.974599,923.315954 L183.562222,921.066148 L182.316408,918.562252 L181.226585,915.815076 L180.282181,912.83543 L179.472625,909.634125 L178.787345,906.221971 L178.215769,902.609778 L177.747326,898.808357 L177.371444,894.828519 L177.077552,890.681072 L176.855078,886.376828 L176.69345,881.926597 L176.582097,877.34119 L176.510447,872.631416 L176.467929,867.808086 L176.44397,862.882011 L176.428,857.864 L176.428,857.864 L176.388587,852.807961 L176.266546,847.843185 L176.05618,842.980688 L175.751787,838.231481 L175.347669,833.606581 L174.838125,829.117 L174.217456,824.773752 L173.479963,820.587852 L172.619945,816.570312 L171.631704,812.732148 L170.509538,809.084373 L169.24775,805.638 L167.840639,802.404044 L166.282505,799.393519 L164.567648,796.617438 L162.69037,794.086815 L160.644971,791.812664 L158.42575,789.806 L156.027008,788.077836 L153.443046,786.639185 L150.668164,785.501063 L147.696662,784.674481 L144.522841,784.170456 L141.141,784 L141.141,784 L137.760002,784.168555 L134.588559,784.667 L131.620746,785.484508 L128.850639,786.61025 L126.272313,788.033398 L123.879844,789.743125 L121.667307,791.728602 L119.628778,793.979 L117.758332,796.483492 L116.050045,799.23125 L114.497993,802.211445 L113.09625,805.41325 L111.838893,808.825836 L110.719997,812.438375 L109.733637,816.240039 L108.873889,820.22 L108.134829,824.36743 L107.510531,828.6715 L106.995072,833.121383 L106.582528,837.70625 L106.266973,842.415273 L106.042483,847.237625 L105.903133,852.162477 L105.843,857.179 L105.843,857.179 L105.843,857.207542 L105.843,857.236083 L105.843,857.264625 L105.843,857.293167 L105.843,857.321708 L105.843,857.35025 L105.843,857.378792 L105.843,857.407333 L105.843,857.435875 L105.843,857.464417 L105.843,857.492958 L105.843,857.5215 L105.843,857.550042 L105.843,857.578583 L105.843,857.607125 L105.843,857.635667 L105.843,857.664208 L105.843,857.69275 L105.843,857.721292 L105.843,857.749833 L105.843,857.778375 L105.843,857.806917 L105.843,857.835458 L105.843,857.864 L105.740462,862.882011 L105.481049,867.808086 L105.069933,872.631416 L104.512288,877.34119 L103.81329,881.926597 L102.978111,886.376828 L102.011925,890.681072 L100.919907,894.828519 L99.707231,898.808357 L98.379069,902.609778 L96.940597,906.221971 L95.396988,909.634125 L93.753415,912.83543 L92.015054,915.815076 L90.187077,918.562252 L88.274659,921.066148 L86.282974,923.315954 L84.217195,925.300859 L82.082497,927.010054 L79.884053,928.432727 L77.627038,929.558068 L75.316624,930.375268 L72.957987,930.873515 L70.5563,931.042 L70.5563,931.042 L68.154615,930.873515 L65.795985,930.375268 L63.485583,929.558068 L61.228581,928.432727 L59.030154,927.010054 L56.895473,925.300859 L54.829714,923.315954 L52.838048,921.066148 L50.925649,918.562252 L49.097691,915.815076 L47.359346,912.83543 L45.715787,909.634125 L44.172189,906.221971 L42.733724,902.609778 L41.405565,898.808357 L40.192885,894.828519 L39.100858,890.681072 L38.134658,886.376828 L37.299456,881.926597 L36.600427,877.34119 L36.042744,872.631416 L35.631579,867.808086 L35.372107,862.882011 L35.2695,857.864 L35.2695,857.864 L35.2695,857.835458 L35.2695,857.806917 L35.2695,857.778375 L35.2695,857.749833 L35.2695,857.721292 L35.2695,857.69275 L35.2695,857.664208 L35.2695,857.635667 L35.2695,857.607125 L35.2695,857.578583 L35.2695,857.550042 L35.2695,857.5215 L35.2695,857.492958 L35.2695,857.464417 L35.2695,857.435875 L35.2695,857.407333 L35.2695,857.378792 L35.2695,857.35025 L35.2695,857.321708 L35.2695,857.293167 L35.2695,857.264625 L35.2695,857.236083 L35.2695,857.207542 L35.2695,857.179 L35.167465,852.162477 L34.909588,847.237625 L34.500895,842.415273 L33.946414,837.70625 L33.251171,833.121383 L32.420193,828.6715 L31.458509,824.36743 L30.371144,820.22 L29.163125,816.240039 L27.839481,812.438375 L26.405238,808.825836 L24.865422,805.41325 L23.225062,802.211445 L21.489184,799.23125 L19.662815,796.483492 L17.750983,793.979 L15.758714,791.728602 L13.691035,789.743125 L11.552974,788.033398 L9.349558,786.61025 L7.085813,785.484508 L4.766767,784.667 L2.397447,784.168555 L0,784.001195 L0,960 L320,960 Z" fill="#121212" fill-rule="evenodd" clip-rule="evenodd"/>
  <rect width="320" height="320" fill="#4997D0" x="640" y="640"/>
  <path d="M960,948.37528 L960,937.770487 L960,928.138926 L960,919.433898 L960,911.608707 L960,904.616656 L960,898.411048 L960,892.945185 L960,888.172371 L960,884.045909 L960,880.519101 L960,877.54525 L960,875.07766 L960,873.069633 L960,871.474473 L960,870.245481 L960,869.335963 L960,868.699219 L960,868.288553 L960,868.057269 L960,867.992 L959.996568,867.541438 L959.993271,867.021422 L959.990109,866.438205 L959.987083,865.798042 L959.984193,865.107186 L959.981437,864.371891 L959.978818,863.598411 L959.976333,862.793 L959.973984,861.961912 L959.971771,861.111401 L959.969693,860.247721 L959.96775,859.377125 L959.965943,858.505868 L959.964271,857.640203 L959.962734,856.786385 L959.961333,855.950667 L959.960068,855.139303 L959.958937,854.358547 L959.957943,853.614653 L959.957083,852.913875 L959.956359,852.262467 L959.955771,851.666682 L959.955318,851.132775 L959.955,850.667 L959.955,850.667 L959.948571,845.683451 L959.943236,840.853755 L959.938922,836.183086 L959.935556,831.67662 L959.933064,827.339533 L959.931375,823.177 L959.930415,819.194196 L959.930111,815.396296 L959.930391,811.788477 L959.931181,808.375912 L959.932408,805.163778 L959.934,802.15725 L959.935884,799.361503 L959.937986,796.781713 L959.940234,794.423055 L959.942556,792.290704 L959.944877,790.389835 L959.947125,788.725625 L959.949227,787.303248 L959.951111,786.12788 L959.952703,785.204695 L959.953931,784.53887 L959.95472,784.13558 L959.955,784 L959.955,784 L959.833265,784.003472 L959.481971,784.027778 L958.921988,784.09375 L958.174185,784.222222 L957.259431,784.434028 L956.198594,784.75 L955.012543,785.190972 L953.722148,785.777778 L952.348277,786.53125 L950.9118,787.472222 L949.433584,788.621528 L947.9345,790 L946.435416,791.628472 L944.9572,793.527778 L943.520723,795.71875 L942.146852,798.222222 L940.856457,801.059028 L939.670406,804.25 L938.609569,807.815972 L937.694815,811.777778 L936.947012,816.15625 L936.387029,820.972222 L936.035735,826.246528 L935.914,832 L935.914,832 L935.817893,836.674163 L935.715023,841.584137 L935.601561,846.691275 L935.473681,851.956931 L935.327556,857.342456 L935.159359,862.809203 L934.965265,868.318526 L934.741444,873.831778 L934.484072,879.310311 L934.189321,884.715477 L933.853364,890.008631 L933.472375,895.151125 L933.042526,900.104311 L932.559991,904.829543 L932.020943,909.288174 L931.421556,913.441556 L930.758001,917.251041 L930.026453,920.677984 L929.223085,923.683737 L928.344069,926.229653 L927.38558,928.277084 L926.34379,929.787384 L925.214872,930.721905 L923.995,931.042 L923.995,931.042 L922.583429,930.906671 L921.298928,930.505867 L920.13507,929.847363 L919.085426,928.938935 L918.143566,927.788358 L917.303063,926.403406 L916.557486,924.791856 L915.900407,922.961481 L915.325398,920.920059 L914.82603,918.675362 L914.395874,916.235168 L914.0285,913.60725 L913.717481,910.799384 L913.456387,907.819346 L913.238789,904.67491 L913.058259,901.373852 L912.908368,897.923946 L912.782688,894.332969 L912.674788,890.608694 L912.578241,886.758898 L912.486617,882.791355 L912.393488,878.713841 L912.292426,874.534131 L912.177,870.26 L912.177,870.26 L912.175265,865.141306 L912.16312,859.995492 L912.130154,854.844334 L912.065958,849.709606 L911.960122,844.613086 L911.802234,839.576547 L911.581886,834.621766 L911.288667,829.770519 L910.912166,825.04458 L910.441974,820.465726 L909.86768,816.055733 L909.178875,811.836375 L908.365148,807.829429 L907.416089,804.05667 L906.321287,800.539873 L905.070333,797.300815 L903.652817,794.36127 L902.058328,791.743016 L900.276456,789.467826 L898.296792,787.557477 L896.108924,786.033744 L893.702443,784.918403 L891.066938,784.23323 L888.192,784 L888.192,784 L885.317062,784.214667 L882.681557,784.846271 L880.275076,785.876221 L878.087208,787.285921 L876.107544,789.05678 L874.325672,791.170203 L872.731183,793.607598 L871.313667,796.35037 L870.062713,799.379928 L868.967911,802.677677 L868.018852,806.225023 L867.205125,810.003375 L866.51632,813.994138 L865.942026,818.178719 L865.471834,822.538525 L865.095333,827.054963 L864.802114,831.709439 L864.581766,836.483359 L864.423878,841.358132 L864.318042,846.315162 L864.253846,851.335857 L864.22088,856.401624 L864.208735,861.49387 L864.207,866.594 L864.207,866.594 L864.033572,871.092991 L863.880933,875.497468 L863.736549,879.798814 L863.587884,883.988412 L863.422405,888.057643 L863.227578,891.997891 L862.990868,895.800536 L862.699741,899.456963 L862.341662,902.958553 L861.904098,906.296688 L861.374514,909.462751 L860.740375,912.448125 L859.989148,915.244191 L859.108298,917.842333 L858.085291,920.233932 L856.907593,922.41037 L855.562668,924.363031 L854.037984,926.083297 L852.321006,927.562549 L850.399199,928.792171 L848.260029,929.763545 L845.890962,930.468053 L843.279464,930.897077 L840.413,931.042 L840.413,931.042 L837.538681,930.873515 L834.904925,930.375268 L832.501162,929.558068 L830.316819,928.432727 L828.341326,927.010054 L826.564109,925.300859 L824.974599,923.315954 L823.562222,921.066148 L822.316408,918.562252 L821.226585,915.815076 L820.282181,912.83543 L819.472625,909.634125 L818.787345,906.221971 L818.215769,902.609778 L817.747326,898.808357 L817.371444,894.828519 L817.077552,890.681072 L816.855078,886.376828 L816.69345,881.926597 L816.582097,877.34119 L816.510447,872.631416 L816.467929,867.808086 L816.44397,862.882011 L816.428,857.864 L816.428,857.864 L816.388587,852.807961 L816.266546,847.843185 L816.05618,842.980688 L815.751787,838.231481 L815.347669,833.606581 L814.838125,829.117 L814.217456,824.773752 L813.479963,820.587852 L812.619945,816.570312 L811.631704,812.732148 L810.509538,809.084373 L809.24775,805.638 L807.840639,802.404044 L806.282505,799.393519 L804.567648,796.617438 L802.69037,794.086815 L800.644971,791.812664 L798.42575,789.806 L796.027008,788.077836 L793.443046,786.639185 L790.668164,785.501063 L787.696662,784.674481 L784.522841,784.170456 L781.141,784 L781.141,784 L777.760002,784.168555 L774.588559,784.667 L771.620746,785.484508 L768.850639,786.61025 L766.272313,788.033398 L763.879844,789.743125 L761.667307,791.728602 L759.628778,793.979 L757.758332,796.483492 L756.050045,799.23125 L754.497993,802.211445 L753.09625,805.41325 L751.838893,808.825836 L750.719997,812.438375 L749.733637,816.240039 L748.873889,820.22 L748.134829,824.36743 L747.510531,828.6715 L746.995072,833.121383 L746.582528,837.70625 L746.266973,842.415273 L746.042483,847.237625 L745.903133,852.162477 L745.843,857.179 L745.843,857.179 L745.843,857.207542 L745.843,857.236083 L745.843,857.264625 L745.843,857.293167 L745.843,857.321708 L745.843,857.35025 L745.843,857.378792 L745.843,857.407333 L745.843,857.435875 L745.843,857.464417 L745.843,857.492958 L745.843,857.5215 L745.843,857.550042 L745.843,857.578583 L745.843,857.607125 L745.843,857.635667 L745.843,857.664208 L745.843,857.69275 L745.843,857.721292 L745.843,857.749833 L745.843,857.778375 L745.843,857.806917 L745.843,857.835458 L745.843,857.864 L745.740461,862.882011 L745.481045,867.808086 L745.069924,872.631416 L744.512273,877.34119 L743.813267,881.926597 L742.978078,886.376828 L742.011882,890.681072 L740.919852,894.828519 L739.707162,898.808357 L738.378987,902.609778 L736.9405,906.221971 L735.396875,909.634125 L733.753287,912.83543 L732.014909,915.815076 L730.186916,918.562252 L728.274481,921.066148 L726.28278,923.315954 L724.216984,925.300859 L722.08227,927.010054 L719.88381,928.432727 L717.626779,929.558068 L715.316351,930.375268 L712.9577,930.873515 L710.556,931.042 L710.556,931.042 L708.154305,930.873515 L705.795668,930.375268 L703.485264,929.558068 L701.228264,928.432727 L699.029842,927.010054 L696.895172,925.300859 L694.829426,923.315954 L692.837778,921.066148 L690.9254,918.562252 L689.097467,915.815076 L687.359151,912.83543 L685.715625,909.634125 L684.172063,906.221971 L682.733637,902.609778 L681.405521,898.808357 L680.192889,894.828519 L679.100913,890.681072 L678.134766,886.376828 L677.299621,881.926597 L676.600653,877.34119 L676.043033,872.631416 L675.631936,867.808086 L675.372534,862.882011 L675.27,857.864 L675.27,857.864 L675.27,857.835458 L675.27,857.806917 L675.27,857.778375 L675.27,857.749833 L675.27,857.721292 L675.27,857.69275 L675.27,857.664208 L675.27,857.635667 L675.27,857.607125 L675.27,857.578583 L675.27,857.550042 L675.27,857.5215 L675.27,857.492958 L675.27,857.464417 L675.27,857.435875 L675.27,857.407333 L675.27,857.378792 L675.27,857.35025 L675.27,857.321708 L675.27,857.293167 L675.27,857.264625 L675.27,857.236083 L675.27,857.207542 L675.27,857.179 L675.167906,852.162477 L674.909973,847.237625 L674.50123,842.415273 L673.946704,837.70625 L673.25142,833.121383 L672.420406,828.6715 L671.458689,824.36743 L670.371296,820.22 L669.163254,816.240039 L667.839589,812.438375 L666.405329,808.825836 L664.8655,805.41325 L663.225129,802.211445 L661.489244,799.23125 L659.662871,796.483492 L657.751037,793.979 L655.758769,791.728602 L653.691094,789.743125 L651.553038,788.033398 L649.34963,786.61025 L647.085895,785.484508 L644.76686,784.667 L642.397553,784.168555 L640,784.001187 L640,960 L960,960 Z" fill="#121212" fill-rule="evenodd" clip-rule="evenodd"/>
  <rect width="320" height="320" fill="#4997D0" x="1280" y="640"/>
  <path d="M1599.99,958.5915 L1599.99,956.411042 L1599.99,954.230583 L1599.99,952.050125 L1599.99,949.869667 L1599.99,947.689208 L1599.99,945.50875 L1599.99,943.328292 L1599.99,941.147833 L1599.99,938.967375 L1599.99,936.786917 L1599.99,934.606458 L1599.99,932.426 L1599.99,932.426 L1599.99,932.255614 L1599.99,931.751786 L1599.99,930.925514 L1599.99,929.787792 L1599.99,928.349617 L1599.99,926.621984 L1599.99,924.615891 L1599.99,922.342333 L1599.99,919.812307 L1599.99,917.036807 L1599.99,914.026831 L1599.99,910.793375 L1599.99,907.347434 L1599.99,903.700005 L1599.99,899.862084 L1599.99,895.844667 L1599.99,891.658749 L1599.99,887.315328 L1599.99,882.825399 L1599.99,878.199958 L1599.99,873.450002 L1599.99,868.586526 L1599.99,863.620527 L1599.99,858.563 L1599.99,858.533875 L1599.99,858.50475 L1599.99,858.475625 L1599.99,858.4465 L1599.99,858.417375 L1599.99,858.38825 L1599.99,858.359125 L1599.99,858.33 L1599.99,858.300875 L1599.99,858.27175 L1599.99,858.242625 L1599.99,858.2135 L1599.99,858.184375 L1599.99,858.15525 L1599.99,858.126125 L1599.99,858.097 L1599.99,858.067875 L1599.99,858.03875 L1599.99,858.009625 L1599.99,857.9805 L1599.99,857.951375 L1599.99,857.92225 L1599.99,857.893125 L1599.99,857.864 L1599.99,857.864 L1599.99,852.807961 L1599.99,847.843185 L1599.99,842.980687 L1599.99,838.231481 L1599.99,833.606581 L1599.99,829.117 L1599.99,824.773752 L1599.99,820.587852 L1599.99,816.570312 L1599.99,812.732148 L1599.99,809.084373 L1599.99,805.638 L1599.99,802.404044 L1599.99,799.393519 L1599.99,796.617437 L1599.99,794.086815 L1599.99,791.812664 L1599.99,789.806 L1599.99,788.077836 L1599.99,786.639185 L1599.99,785.501062 L1599.99,784.674481 L1599.99,784.170456 L1599.99,784 L1599.99,784 L1599.86827,784.003472 L1599.516991,784.027778 L1598.957031,784.09375 L1598.209259,784.222222 L1597.294543,784.434028 L1596.23375,784.75 L1595.047749,785.190972 L1593.757407,785.777778 L1592.383594,786.53125 L1590.947176,787.472222 L1589.469022,788.621528 L1587.97,790 L1586.470978,791.628472 L1584.992824,793.527778 L1583.556406,795.71875 L1582.182593,798.222222 L1580.892251,801.059028 L1579.70625,804.25 L1578.645457,807.815972 L1577.730741,811.777778 L1576.982969,816.15625 L1576.423009,820.972222 L1576.07173,826.246528 L1575.95,832 L1575.95,833.499042 L1575.95,834.998083 L1575.95,836.497125 L1575.95,837.996167 L1575.95,839.495208 L1575.95,840.99425 L1575.95,842.493292 L1575.95,843.992333 L1575.95,845.491375 L1575.95,846.990417 L1575.95,848.489458 L1575.95,849.9885 L1575.95,851.487542 L1575.95,852.986583 L1575.95,854.485625 L1575.95,855.984667 L1575.95,857.483708 L1575.95,858.98275 L1575.95,860.481792 L1575.95,861.980833 L1575.95,863.479875 L1575.95,864.978917 L1575.95,866.477958 L1575.95,867.977 L1575.834138,872.475996 L1575.674977,876.880488 L1575.473906,881.181857 L1575.232315,885.371486 L1574.951591,889.440755 L1574.633125,893.381047 L1574.278304,897.183742 L1573.888519,900.840222 L1573.465156,904.341869 L1573.009606,907.680064 L1572.523258,910.846189 L1572.0075,913.831625 L1571.463721,916.627754 L1570.89331,919.225957 L1570.297656,921.617615 L1569.678148,923.794111 L1569.036175,925.746826 L1568.373125,927.467141 L1567.690388,928.946437 L1566.989352,930.176097 L1566.271406,931.147502 L1565.53794,931.852033 L1564.790341,932.281072 L1564.03,932.426 L1564.03,932.426 L1563.271413,932.290666 L1562.528802,931.889848 L1561.803145,931.231322 L1561.095417,930.322866 L1560.406595,929.172255 L1559.737656,927.787266 L1559.089577,926.175675 L1558.463333,924.345259 L1557.859902,922.303795 L1557.28026,920.059058 L1556.725384,917.618826 L1556.19625,914.990875 L1555.693835,912.182981 L1555.219115,909.202921 L1554.773066,906.058471 L1554.356667,902.757407 L1553.970892,899.307507 L1553.616719,895.716547 L1553.295124,891.992303 L1553.007083,888.142551 L1552.753574,884.175068 L1552.535573,880.097631 L1552.354056,875.918016 L1552.21,871.644 L1552.21,871.069833 L1552.21,870.495667 L1552.21,869.9215 L1552.21,869.347333 L1552.21,868.773167 L1552.21,868.199 L1552.21,867.624833 L1552.21,867.050667 L1552.21,866.4765 L1552.21,865.902333 L1552.21,865.328167 L1552.21,864.754 L1552.21,864.179833 L1552.21,863.605667 L1552.21,863.0315 L1552.21,862.457333 L1552.21,861.883167 L1552.21,861.309 L1552.21,860.734833 L1552.21,860.160667 L1552.21,859.5865 L1552.21,859.012333 L1552.21,858.438167 L1552.21,857.864 L1552.21,857.864 L1552.154659,852.807961 L1551.991019,847.843185 L1551.722656,842.980687 L1551.353148,838.231481 L1550.886071,833.606581 L1550.325,829.117 L1549.673513,824.773752 L1548.935185,820.587852 L1548.113594,816.570312 L1547.212315,812.732148 L1546.234925,809.084373 L1545.185,805.638 L1544.066117,802.404044 L1542.881852,799.393519 L1541.635781,796.617437 L1540.331481,794.086815 L1538.972529,791.812664 L1537.5625,789.806 L1536.104971,788.077836 L1534.603519,786.639185 L1533.061719,785.501062 L1531.483148,784.674481 L1529.871383,784.170456 L1528.23,784 L1528.23,784 L1526.587418,784.170456 L1524.974554,784.674481 L1523.39498,785.501063 L1521.852269,786.639185 L1520.349991,788.077836 L1518.891719,789.806 L1517.481025,791.812664 L1516.121481,794.086815 L1514.81666,796.617438 L1513.570133,799.393519 L1512.385472,802.404044 L1511.26625,805.638 L1510.216038,809.084373 L1509.238409,812.732148 L1508.336934,816.570312 L1507.515185,820.587852 L1506.776735,824.773752 L1506.125156,829.117 L1505.56402,833.606581 L1505.096898,838.231481 L1504.727363,842.980688 L1504.458987,847.843185 L1504.295342,852.807961 L1504.24,857.864 L1504.24,858.285375 L1504.24,858.70675 L1504.24,859.128125 L1504.24,859.5495 L1504.24,859.970875 L1504.24,860.39225 L1504.24,860.813625 L1504.24,861.235 L1504.24,861.656375 L1504.24,862.07775 L1504.24,862.499125 L1504.24,862.9205 L1504.24,863.341875 L1504.24,863.76325 L1504.24,864.184625 L1504.24,864.606 L1504.24,865.027375 L1504.24,865.44875 L1504.24,865.870125 L1504.24,866.2915 L1504.24,866.712875 L1504.24,867.13425 L1504.24,867.555625 L1504.24,867.977 L1504.24,867.977 L1504.008279,872.475996 L1503.689983,876.880488 L1503.28791,881.181857 L1502.804861,885.371486 L1502.243635,889.440755 L1501.607031,893.381047 L1500.897849,897.183742 L1500.118889,900.840222 L1499.272949,904.341869 L1498.36283,907.680064 L1497.39133,910.846189 L1496.36125,913.831625 L1495.275388,916.627754 L1494.136545,919.225957 L1492.94752,921.617615 L1491.711111,923.794111 L1490.430119,925.746826 L1489.107344,927.467141 L1487.745584,928.946437 L1486.347639,930.176097 L1484.916309,931.147502 L1483.454392,931.852033 L1481.96469,932.281072 L1480.45,932.426 L1480.45,932.426 L1478.80627,932.255614 L1477.192454,931.751786 L1475.612109,930.925514 L1474.068796,929.787792 L1472.566073,928.349617 L1471.1075,926.621984 L1469.696635,924.615891 L1468.337037,922.342333 L1467.032266,919.812307 L1465.78588,917.036807 L1464.601438,914.026831 L1463.4825,910.793375 L1462.432624,907.347434 L1461.45537,903.700005 L1460.554297,899.862084 L1459.732963,895.844667 L1458.994928,891.658749 L1458.34375,887.315328 L1457.782989,882.825399 L1457.316204,878.199958 L1456.946953,873.450002 L1456.678796,868.586526 L1456.515292,863.620527 L1456.46,858.563 L1456.46,858.533875 L1456.46,858.50475 L1456.46,858.475625 L1456.46,858.4465 L1456.46,858.417375 L1456.46,858.38825 L1456.46,858.359125 L1456.46,858.33 L1456.46,858.300875 L1456.46,858.27175 L1456.46,858.242625 L1456.46,858.2135 L1456.46,858.184375 L1456.46,858.15525 L1456.46,858.126125 L1456.46,858.097 L1456.46,858.067875 L1456.46,858.03875 L1456.46,858.009625 L1456.46,857.9805 L1456.46,857.951375 L1456.46,857.92225 L1456.46,857.893125 L1456.46,857.864 L1456.46,857.864 L1456.378585,852.807961 L1456.137847,847.843185 L1455.743047,842.980687 L1455.199444,838.231481 L1454.5123,833.606581 L1453.686875,829.117 L1452.728429,824.773752 L1451.642222,820.587852 L1450.433516,816.570312 L1449.107569,812.732148 L1447.669644,809.084373 L1446.125,805.638 L1444.478898,802.404044 L1442.736597,799.393519 L1440.903359,796.617437 L1438.984444,794.086815 L1436.985113,791.812664 L1434.910625,789.806 L1432.766241,788.077836 L1430.557222,786.639185 L1428.288828,785.501062 L1425.966319,784.674481 L1423.594957,784.170456 L1421.18,784 L1421.18,784 L1418.763794,784.170456 L1416.391186,784.674481 L1414.067441,785.501063 L1411.797824,786.639185 L1409.587599,788.077836 L1407.442031,789.806 L1405.366385,791.812664 L1403.365926,794.086815 L1401.445918,796.617438 L1399.611626,799.393519 L1397.868315,802.404044 L1396.22125,805.638 L1394.675695,809.084373 L1393.236916,812.732148 L1391.910176,816.570312 L1390.700741,820.587852 L1389.613875,824.773752 L1388.654844,829.117 L1387.828911,833.606581 L1387.141343,838.231481 L1386.597402,842.980688 L1386.202355,847.843185 L1385.961466,852.807961 L1385.88,857.864 L1385.88,857.893125 L1385.88,857.92225 L1385.88,857.951375 L1385.88,857.9805 L1385.88,858.009625 L1385.88,858.03875 L1385.88,858.067875 L1385.88,858.097 L1385.88,858.126125 L1385.88,858.15525 L1385.88,858.184375 L1385.88,858.2135 L1385.88,858.242625 L1385.88,858.27175 L1385.88,858.300875 L1385.88,858.33 L1385.88,858.359125 L1385.88,858.38825 L1385.88,858.417375 L1385.88,858.4465 L1385.88,858.475625 L1385.88,858.50475 L1385.88,858.533875 L1385.88,858.563 L1385.88,858.563 L1385.798634,863.620527 L1385.558032,868.586526 L1385.163438,873.450002 L1384.620093,878.199958 L1383.933241,882.825399 L1383.108125,887.315328 L1382.149988,891.658749 L1381.064074,895.844667 L1379.855625,899.862084 L1378.529884,903.700005 L1377.092095,907.347434 L1375.5475,910.793375 L1373.901343,914.026831 L1372.158866,917.036807 L1370.325313,919.812307 L1368.405926,922.342333 L1366.405949,924.615891 L1364.330625,926.621984 L1362.185197,928.349617 L1359.974907,929.787792 L1357.705,930.925514 L1355.380718,931.751786 L1353.007303,932.255614 L1350.59,932.426 L1350.59,932.426 L1348.173845,932.255614 L1345.801383,931.751786 L1343.477871,930.925514 L1341.208565,929.787792 L1338.99872,928.349617 L1336.853594,926.621984 L1334.778441,924.615891 L1332.778519,922.342333 L1330.859082,919.812307 L1329.025388,917.036807 L1327.282692,914.026831 L1325.63625,910.793375 L1324.091319,907.347434 L1322.653154,903.700005 L1321.327012,899.862084 L1320.118148,895.844667 L1319.031819,891.658749 L1318.073281,887.315328 L1317.24779,882.825399 L1316.560602,878.199958 L1316.016973,873.450002 L1315.622159,868.586526 L1315.381416,863.620527 L1315.3,858.563 L1315.3,858.533875 L1315.3,858.50475 L1315.3,858.475625 L1315.3,858.4465 L1315.3,858.417375 L1315.3,858.38825 L1315.3,858.359125 L1315.3,858.33 L1315.3,858.300875 L1315.3,858.27175 L1315.3,858.242625 L1315.3,858.2135 L1315.3,858.184375 L1315.3,858.15525 L1315.3,858.126125 L1315.3,858.097 L1315.3,858.067875 L1315.3,858.03875 L1315.3,858.009625 L1315.3,857.9805 L1315.3,857.951375 L1315.3,857.92225 L1315.3,857.893125 L1315.3,857.864 L1315.3,857.864 L1315.218585,852.807961 L1314.977847,847.843185 L1314.583047,842.980687 L1314.039444,838.231481 L1313.3523,833.606581 L1312.526875,829.117 L1311.568429,824.773752 L1310.482222,820.587852 L1309.273516,816.570312 L1307.947569,812.732148 L1306.509644,809.084373 L1304.965,805.638 L1303.318898,802.404044 L1301.576597,799.393519 L1299.743359,796.617437 L1297.824444,794.086815 L1295.825113,791.812664 L1293.750625,789.806 L1291.606241,788.077836 L1289.397222,786.639185 L1287.128828,785.501062 L1284.806319,784.674481 L1282.434957,784.170456 L1280.02,784 L1280.02,784 L1280,784.001396 L1280,960 L1599.99,960 Z" fill="#121212" fill-rule="evenodd" clip-rule="evenodd"/>
  <rect width="320" height="320" fill="#4997D0" x="320" y="320"/>
  <path d="M437.904856,417.905675 L442.098246,426.595276 L446.839775,434.849791 L452.098051,442.656208 L457.841679,450.001516 L464.039266,456.872703 L470.659417,463.256757 L477.670741,469.140667 L485.041842,474.51142 L492.741327,479.356005 L500.737803,483.661411 L508.999875,487.414625 L517.496151,490.602636 L526.195236,493.212432 L535.065736,495.231002 L544.076259,496.645333 L553.195411,497.442415 L562.391797,497.609234 L571.634024,497.132781 L580.890699,496 L590.130428,494.198006 L599.321817,491.713661 L608.433472,488.533997 L617.434,484.646 L617.434,484.646 L631.63222,478.788335 L640,476.344237 L640,320 L613.333333,320 L586.666667,320 L560,320 L533.333333,320 L506.666667,320 L480,320 L453.333333,320 L426.666667,320 L400,320 L373.333333,320 L346.666667,320 L320,320 L320,320.020792 L320,320.041583 L320,320.062375 L320,320.083167 L320,320.103958 L320,320.12475 L320,320.145542 L320,320.166333 L320,320.187125 L320,320.207917 L320,320.228708 L320,320.2495 L320,320.270292 L320,320.291083 L320,320.311875 L320,320.332667 L320,320.353458 L320,320.37425 L320,320.395042 L320,320.415833 L320,320.436625 L320,320.457417 L320,320.478208 L320,320.499 L326.035865,321.135207 L332.040252,322.035841 L338.00235,323.200926 L343.911347,324.630481 L349.756433,326.32453 L355.526797,328.283094 L361.211627,330.506194 L366.800111,332.993852 L372.281439,335.74609 L377.6448,338.762929 L382.879383,342.044392 L387.974375,345.5905 L392.918966,349.401274 L397.702345,353.476737 L402.313701,357.81691 L406.742222,362.421815 L410.977097,367.291473 L415.007516,372.425906 L418.822666,377.825136 L422.411736,383.489185 L425.763916,389.418074 L428.868394,395.611825 L431.714359,402.07046 L434.291,408.794 L434.291,408.794 Z" fill="#121212"/>
  <rect width="320" height="320" fill="#4997D0" x="960" y="320"/>
  <path d="M1077.903986,417.905675 L1082.097512,426.595276 L1086.83918,434.849791 L1092.097593,442.656208 L1097.841353,450.001516 L1104.039062,456.872703 L1110.659324,463.256757 L1117.670741,469.140667 L1125.041914,474.51142 L1132.741447,479.356005 L1140.737941,483.661411 L1149,487.414625 L1157.496225,490.602636 L1166.19522,493.212432 L1175.065586,495.231002 L1184.075926,496.645333 L1193.194842,497.442415 L1202.390938,497.609234 L1211.632814,497.132781 L1220.889074,496 L1230.12832,494.198006 L1239.319155,491.713661 L1248.430181,488.533997 L1257.43,484.646 L1257.43,484.646 L1271.628949,478.788335 L1280,476.343399 L1280,320 L1253.333333,320 L1226.666667,320 L1200,320 L1173.333333,320 L1146.666667,320 L1120,320 L1093.333333,320 L1066.666667,320 L1040,320 L1013.333333,320 L986.666667,320 L960,320 L960,320.020792 L960,320.041583 L960,320.062375 L960,320.083167 L960,320.103958 L960,320.12475 L960,320.145542 L960,320.166333 L960,320.187125 L960,320.207917 L960,320.228708 L960,320.2495 L960,320.270292 L960,320.291083 L960,320.311875 L960,320.332667 L960,320.353458 L960,320.37425 L960,320.395042 L960,320.415833 L960,320.436625 L960,320.457417 L960,320.478208 L960,320.499 L966.035386,321.135207 L972.039334,322.035841 L978.001035,323.200926 L983.909676,324.630481 L989.754445,326.32453 L995.524531,328.283094 L1001.209123,330.506194 L1006.797407,332.993852 L1012.278574,335.74609 L1017.641811,338.762929 L1022.876307,342.044392 L1027.97125,345.5905 L1032.915828,349.401274 L1037.69923,353.476737 L1042.310645,357.81691 L1046.739259,362.421815 L1050.974263,367.291473 L1055.004844,372.425906 L1058.82019,377.825136 L1062.409491,383.489185 L1065.761934,389.418074 L1068.866707,395.611825 L1071.713,402.07046 L1074.29,408.794 L1074.29,408.794 Z" fill="#121212"/>
  <rect width="320" height="320" fill="#4997D0" x="1600" y="320"/>
  <path d="M1717.903986,417.905675 L1722.097512,426.595276 L1726.83918,434.849791 L1732.097593,442.656208 L1737.841353,450.001516 L1744.039062,456.872703 L1750.659324,463.256757 L1757.670741,469.140667 L1765.041914,474.51142 L1772.741447,479.356005 L1780.737941,483.661411 L1789,487.414625 L1797.496225,490.602636 L1806.19522,493.212432 L1815.065586,495.231002 L1824.075926,496.645333 L1833.194842,497.442415 L1842.390938,497.609234 L1851.632814,497.132781 L1860.889074,496 L1870.12832,494.198006 L1879.319155,491.713661 L1888.430181,488.533997 L1897.43,484.646 L1897.43,484.646 L1911.628949,478.788335 L1920,476.343399 L1920,320 L1893.333333,320 L1866.666667,320 L1840,320 L1813.333333,320 L1786.666667,320 L1760,320 L1733.333333,320 L1706.666667,320 L1680,320 L1653.333333,320 L1626.666667,320 L1600,320 L1600,320.020792 L1600,320.041583 L1600,320.062375 L1600,320.083167 L1600,320.103958 L1600,320.12475 L1600,320.145542 L1600,320.166333 L1600,320.187125 L1600,320.207917 L1600,320.228708 L1600,320.2495 L1600,320.270292 L1600,320.291083 L1600,320.311875 L1600,320.332667 L1600,320.353458 L1600,320.37425 L1600,320.395042 L1600,320.415833 L1600,320.436625 L1600,320.457417 L1600,320.478208 L1600,320.499 L1606.035386,321.135207 L1612.039334,322.035841 L1618.001035,323.200926 L1623.909676,324.630481 L1629.754445,326.32453 L1635.524531,328.283094 L1641.209123,330.506194 L1646.797407,332.993852 L1652.278574,335.74609 L1657.641811,338.762929 L1662.876307,342.044392 L1667.97125,345.5905 L1672.915828,349.401274 L1677.69923,353.476737 L1682.310645,357.81691 L1686.739259,362.421815 L1690.974263,367.291473 L1695.004844,372.425906 L1698.82019,377.825136 L1702.409491,383.489185 L1705.761934,389.418074 L1708.866707,395.611825 L1711.713,402.07046 L1714.29,408.794 L1714.29,408.794 Z" fill="#121212"/>
</svg>
