<?xml version='1.0' encoding='UTF-8'?>
<svg xmlns="http://www.w3.org/2000/svg" width="1920" height="960" viewBox="0 0 1920 960">
  <rect width="1920" height="960" fill="#F3F3F3"/>
  <rect width="320" height="320" fill="#FFA300" x="960" y="640"/>
  <path d="M1280 640 C1210.73 729.361 1158.6 830.771 1126.24 939.106 L1120 960 L1280 960 L1280 640 Z" fill="#121212"/>
  <path d="M960.045 800L960 640.045L1120 640C1120.03 728.34 1048.41 799.974 960.045 800Z" fill="#121212"/>
  <rect width="320" height="320" fill="#F3F3F3" x="960" y="320"/>
  <path d="M960 640 C1029.27 550.639 1081.4 449.229 1113.76 340.894 L1120 320 L960 320 L960 640 Z" fill="#121212"/>
  <path d="M1279.96 480L1280 639.955L1120 640C1119.97 551.66 1191.59 480.026 1279.96 480Z" fill="#121212"/>
  <rect width="320" height="320" fill="#FFA300" x="0" y="640"/>
  <path d="M-3.05176e-05 640 C69.2682 729.361 121.399 830.771 153.759 939.106 L160 960 L-3.05176e-05 960 L-3.05176e-05 640 Z" fill="#121212"/>
  <path d="M319.955 800L320 640.045L160 640C159.974 728.34 231.59 799.974 319.955 800Z" fill="#121212"/>
  <rect width="320" height="320" fill="#FFA300" x="640" y="320"/>
  <path d="M960 320 C870.639 389.268 769.229 441.399 660.894 473.759 L640 480 L640 320 L960 320 Z" fill="#121212"/>
  <path d="M800 639.955L959.955 640L960 480C871.66 479.974 800.026 551.59 800 639.955Z" fill="#121212"/>
  <rect width="320" height="320" fill="#FFA300" x="320" y="320"/>
  <path d="M640 320 C550.639 389.268 449.229 441.399 340.894 473.759 L320 480 L320 320 L640 320 Z" fill="#121212"/>
  <path d="M480 639.955L639.955 640L640 480C551.66 479.974 480.026 551.59 480 639.955Z" fill="#121212"/>
  <rect width="320" height="320" fill="#4997D0" x="0" y="320"/>
  <path d="M320 640 C250.732 550.639 198.601 449.229 166.241 340.894 L160 320 L320 320 L320 640 Z" fill="#121212"/>
  <path d="M0.0448 480L-5.08442e-06 639.955L160 640C160.026 551.66 88.4096 480.026 0.0448 480Z" fill="#FF4F00"/>
  <rect width="320" height="320" fill="#D9D9D6" x="960" y="0"/>
  <path d="M1280 320 C1210.73 230.639 1158.6 129.229 1126.24 20.8942 L1120 0 L1280 1.77315e-05 L1280 320 Z" fill="#121212"/>
  <path d="M960.045 160L960 319.955L1120 320C1120.03 231.66 1048.41 160.026 960.045 160Z" fill="#121212"/>
  <rect width="320" height="320" fill="#FFA300" x="1280" y="0"/>
  <path d="M1280 1.65299e-05 C1349.27 89.3613 1401.4 190.771 1433.76 299.106 L1440 320 L1280 320 L1280 1.65299e-05 Z" fill="#121212"/>
  <path d="M1599.96 160L1600 0.0448151L1440 1.27114e-06C1439.97 88.3401 1511.59 159.974 1599.96 160Z" fill="#121212"/>
  <rect width="320" height="320" fill="#FFA300" x="1600" y="0"/>
  <path d="M1600 1.65299e-05 C1669.27 89.3613 1721.4 190.771 1753.76 299.106 L1760 320 L1600 320 L1600 1.65299e-05 Z" fill="#121212"/>
  <path d="M1919.96 160L1920 0.0448151L1760 1.27114e-06C1759.97 88.3401 1831.59 159.974 1919.96 160Z" fill="#121212"/>
  <rect width="320" height="320" fill="#FFA300" x="0" y="0"/>
  <path d="M-2.54229e-06 1.65299e-05 C69.2682 89.3613 121.399 190.771 153.759 299.106 L160 320 L-3.05176e-05 320 L-2.54229e-06 1.65299e-05 Z" fill="#121212"/>
  <path d="M319.955 160L320 0.0448151L160 1.27114e-06C159.974 88.3401 231.59 159.974 319.955 160Z" fill="#121212"/>
  <rect width="320" height="320" fill="#4997D0" x="1280" y="320"/>
  <path d="M1600 640 C1530.73 550.639 1478.6 449.229 1446.24 340.894 L1440 320 L1600 320 L1600 640 Z" fill="#FF4F00"/>
  <path d="M1280.04 480L1280 639.955L1440 640C1440.03 551.66 1368.41 480.026 1280.04 480Z" fill="#121212"/>
  <rect width="320" height="320" fill="#FFA300" x="1600" y="320"/>
  <path d="M1920 640 C1850.73 550.639 1798.6 449.229 1766.24 340.894 L1760 320 L1920 320 V640 Z" fill="#4997D0"/>
  <path d="M1600.04 480L1600 639.955L1760 640C1760.03 551.66 1688.41 480.026 1600.04 480Z" fill="#121212"/>
  <rect width="320" height="320" fill="#FFA300" x="1280" y="640"/>
  <path d="M1280 640 C1349.27 729.361 1401.4 830.771 1433.76 939.106 L1440 960 L1280 960 L1280 640 Z" fill="#4997D0"/>
  <path d="M1599.96 800L1600 640.045L1440 640C1439.97 728.34 1511.59 799.974 1599.96 800Z" fill="#121212"/>
  <rect width="320" height="320" fill="#D9D9D6" x="640" y="640"/>
  <path d="M640 960 C729.361 890.732 830.771 838.601 939.106 806.241 L960 800 L960 960 L640 960 Z" fill="#121212"/>
  <path d="M800 640.045L640.045 640L640 800C728.34 800.026 799.974 728.41 800 640.045Z" fill="#FF4F00"/>
  <rect width="320" height="320" fill="#D9D9D6" x="320" y="640"/>
  <path d="M320 960 C409.361 890.732 510.771 838.601 619.106 806.241 L640 800 L640 960 L320 960 Z" fill="#121212"/>
  <path d="M480 640.045L320.045 640L320 800C408.34 800.026 479.974 728.41 480 640.045Z" fill="#121212"/>
  <rect width="320" height="320" fill="#F3F3F3" x="320" y="0"/>
  <path d="M320 320 C409.361 250.732 510.771 198.601 619.106 166.241 L640 160 L640 320 L320 320 Z" fill="#121212"/>
  <path d="M480 0.0448L320.045 -6.99186e-06L320 160C408.34 160.026 479.974 88.4096 480 0.0448Z" fill="#121212"/>
  <rect width="320" height="320" fill="#FFA300" x="640" y="0"/>
  <path d="M960 1.14454e-05 C870.639 69.2682 769.229 121.399 660.894 153.759 L640 160 L640 -3.05176e-05 L960 1.14454e-05 Z" fill="#FF4F00"/>
  <path d="M800 319.955L959.955 320L960 160C871.66 159.974 800.026 231.59 800 319.955Z" fill="#121212"/>
  <rect width="320" height="320" fill="#F3F3F3" x="1600" y="640"/>
  <path d="M1600 960 C1689.36 890.732 1790.77 838.601 1899.11 806.241 L1920 800 L1920 960 L1600 960 Z" fill="#121212"/>
  <path d="M1760 640.045L1600.04 640L1600 800C1688.34 800.026 1759.97 728.41 1760 640.045Z" fill="#121212"/>
</svg>
