<?xml version='1.0' encoding='UTF-8'?>
<svg xmlns="http://www.w3.org/2000/svg" width="1920" height="960" viewBox="0 0 1920 960">
  <rect width="1920" height="960" fill="#F3F3F3"/>
  <rect width="320" height="320" fill="#FFA300" x="1280" y="640"/>
  <ellipse cx="80" cy="80" rx="80" ry="80" transform="matrix(-1 -8.74228e-08 -8.74228e-08 1 1440 720)" fill="#121212"/>
  <path d="M1280.024087,641.963284 L1280.096356,643.9254 L1280.216756,645.885151 L1280.385214,647.841357 L1280.601629,649.79284 L1280.865871,651.738424 L1281.17778,653.676937 L1281.537169,655.607212 L1281.943821,657.528085 L1282.397491,659.438401 L1282.897906,661.337007 L1283.444764,663.22276 L1284.037736,665.094526 L1284.676465,666.951175 L1285.360567,668.791589 L1286.089628,670.614661 L1286.86321,672.419292 L1287.680847,674.204394 L1288.542046,675.968893 L1289.446289,677.711726 L1290.39303,679.431842 L1291.381701,681.128207 L1292.411704,682.799797 L1293.48242,684.445606 L1294.593204,686.064643 L1295.743386,687.655932 L1296.932274,689.218515 L1298.159152,690.75145 L1299.423281,692.253815 L1300.723898,693.724704 L1302.060222,695.163232 L1303.431446,696.568531 L1304.836744,697.939755 L1306.275271,699.276078 L1307.74616,700.576696 L1309.248525,701.840825 L1310.78146,703.067703 L1312.344043,704.256591 L1313.935332,705.406774 L1315.554369,706.517558 L1317.200178,707.588274 L1318.871767,708.618278 L1320.568132,709.606949 L1322.288248,710.553691 L1324.03108,711.457934 L1325.795579,712.319133 L1327.580681,713.136771 L1329.385312,713.910353 L1331.208384,714.639414 L1333.048798,715.323516 L1334.905447,715.962245 L1336.777212,716.555218 L1338.662966,717.102076 L1340.561572,717.602492 L1342.471887,718.056162 L1344.39276,718.462814 L1346.323035,718.822203 L1348.261548,719.134113 L1350.207132,719.398355 L1352.158615,719.61477 L1354.114821,719.783229 L1356.074572,719.903629 L1358.036688,719.975898 L1360,720 L1361.963284,719.975899 L1363.9254,719.90363 L1365.885151,719.78323 L1367.841357,719.614772 L1369.79284,719.398357 L1371.738424,719.134115 L1373.676937,718.822206 L1375.607212,718.462817 L1377.528085,718.056165 L1379.438401,717.602495 L1381.337007,717.10208 L1383.22276,716.555222 L1385.094526,715.96225 L1386.951175,715.323521 L1388.791589,714.639419 L1390.614661,713.910358 L1392.419292,713.136776 L1394.204394,712.319139 L1395.968893,711.45794 L1397.711726,710.553697 L1399.431842,709.606956 L1401.128207,708.618285 L1402.799797,707.588282 L1404.445606,706.517566 L1406.064643,705.406782 L1407.655932,704.2566 L1409.218515,703.067712 L1410.75145,701.840834 L1412.253815,700.576705 L1413.724704,699.276088 L1415.163232,697.939764 L1416.568531,696.56854 L1417.939755,695.163242 L1419.276078,693.724715 L1420.576696,692.253826 L1421.840825,690.751461 L1423.067703,689.218526 L1424.256591,687.655943 L1425.406774,686.064654 L1426.517558,684.445617 L1427.588274,682.799809 L1428.618278,681.128219 L1429.606949,679.431854 L1430.553691,677.711738 L1431.457934,675.968906 L1432.319133,674.204407 L1433.136771,672.419305 L1433.910353,670.614674 L1434.639414,668.791602 L1435.323516,666.951188 L1435.962245,665.094539 L1436.555218,663.222774 L1437.102076,661.33702 L1437.602492,659.438414 L1438.056162,657.528099 L1438.462814,655.607226 L1438.822203,653.676951 L1439.134113,651.738438 L1439.398355,649.792854 L1439.61477,647.841371 L1439.783229,645.885165 L1439.903629,643.925414 L1439.975898,641.963298 L1440,640 L1280,640 L1280,640.000556 Z" fill="#121212"/>
  <path d="M1439.975899,958.036702 L1439.90363,956.074586 L1439.78323,954.114835 L1439.614772,952.158629 L1439.398357,950.207146 L1439.134115,948.261562 L1438.822206,946.323049 L1438.462817,944.392774 L1438.056165,942.471901 L1437.602495,940.561585 L1437.10208,938.662979 L1436.555222,936.777226 L1435.96225,934.90546 L1435.323521,933.048811 L1434.639419,931.208397 L1433.910358,929.385325 L1433.136776,927.580694 L1432.319139,925.795592 L1431.45794,924.031093 L1430.553697,922.28826 L1429.606956,920.568144 L1428.618285,918.871779 L1427.588282,917.200189 L1426.517566,915.55438 L1425.406782,913.935343 L1424.2566,912.344054 L1423.067712,910.781471 L1421.840834,909.248536 L1420.576705,907.746171 L1419.276088,906.275282 L1417.939764,904.836754 L1416.56854,903.431455 L1415.163242,902.060231 L1413.724715,900.723908 L1412.253826,899.42329 L1410.751461,898.159161 L1409.218526,896.932283 L1407.655943,895.743395 L1406.064654,894.593212 L1404.445617,893.482428 L1402.799809,892.411712 L1401.128219,891.381708 L1399.431854,890.393037 L1397.711738,889.446295 L1395.968906,888.542052 L1394.204407,887.680853 L1392.419305,886.863215 L1390.614674,886.089633 L1388.791602,885.360572 L1386.951188,884.67647 L1385.094539,884.037741 L1383.222774,883.444768 L1381.33702,882.89791 L1379.438414,882.397494 L1377.528099,881.943824 L1375.607226,881.537172 L1373.676951,881.177783 L1371.738438,880.865873 L1369.792854,880.601631 L1367.841371,880.385216 L1365.885165,880.216757 L1363.925414,880.096357 L1361.963298,880.024088 L1360,880 L1358.036702,880.024087 L1356.074586,880.096356 L1354.114835,880.216756 L1352.158629,880.385214 L1350.207146,880.601629 L1348.261562,880.865871 L1346.323049,881.17778 L1344.392774,881.537169 L1342.471901,881.943821 L1340.561585,882.397491 L1338.662979,882.897906 L1336.777226,883.444764 L1334.90546,884.037736 L1333.048811,884.676465 L1331.208397,885.360567 L1329.385325,886.089628 L1327.580694,886.86321 L1325.795592,887.680847 L1324.031093,888.542046 L1322.28826,889.446289 L1320.568144,890.39303 L1318.871779,891.381701 L1317.200189,892.411704 L1315.55438,893.48242 L1313.935343,894.593204 L1312.344054,895.743386 L1310.781471,896.932274 L1309.248536,898.159152 L1307.746171,899.423281 L1306.275282,900.723898 L1304.836754,902.060222 L1303.431455,903.431446 L1302.060231,904.836744 L1300.723908,906.275271 L1299.42329,907.74616 L1298.159161,909.248525 L1296.932283,910.78146 L1295.743395,912.344043 L1294.593212,913.935332 L1293.482428,915.554369 L1292.411712,917.200178 L1291.381708,918.871767 L1290.393037,920.568132 L1289.446295,922.288248 L1288.542052,924.03108 L1287.680853,925.795579 L1286.863215,927.580681 L1286.089633,929.385312 L1285.360572,931.208384 L1284.67647,933.048798 L1284.037741,934.905447 L1283.444768,936.777212 L1282.89791,938.662966 L1282.397494,940.561572 L1281.943824,942.471887 L1281.537172,944.39276 L1281.177783,946.323035 L1280.865873,948.261548 L1280.601631,950.207132 L1280.385216,952.158615 L1280.216757,954.114821 L1280.096357,956.074572 L1280.024088,958.036688 L1280,959.999416 L1280,960 L1440,960 Z" fill="#121212"/>
  <path d="M1360,640 L1280,640 L1280,960 L1360,960 Z" fill="#121212"/>
  <rect width="320" height="320" fill="#121212" x="1280" y="320"/>
  <path fill-rule="evenodd" clip-rule="evenodd" d="M1280.04 480L1280 320L1600 320L1600 640L1440.04 639.955C1440.02 551.59 1368.38 479.974 1280.04 480Z" fill="#FFA300"/>
  <rect width="320" height="320" fill="#FFA300" x="320" y="640"/>
  <ellipse cx="560" cy="800" rx="80" ry="80" fill="#121212"/>
  <path d="M480.024095,641.963298 L480.096364,643.925414 L480.216763,645.885165 L480.385222,647.841371 L480.601637,649.792854 L480.865879,651.738438 L481.177789,653.676951 L481.537178,655.607226 L481.94383,657.528099 L482.3975,659.438414 L482.897915,661.337021 L483.444773,663.222774 L484.037746,665.094539 L484.676475,666.951188 L485.360576,668.791603 L486.089637,670.614675 L486.86322,672.419305 L487.680857,674.204407 L488.542056,675.968906 L489.446299,677.711739 L490.393041,679.431855 L491.381711,681.12822 L492.411715,682.79981 L493.482431,684.445619 L494.593215,686.064655 L495.743397,687.655944 L496.932286,689.218527 L498.159164,690.751463 L499.423292,692.253827 L500.72391,693.724716 L502.060233,695.163244 L503.431458,696.568542 L504.836756,697.939767 L506.275284,699.27609 L507.746173,700.576708 L509.248537,701.840836 L510.781473,703.067714 L512.344056,704.256603 L513.935345,705.406785 L515.554381,706.517569 L517.20019,707.588285 L518.87178,708.618289 L520.568145,709.606959 L522.288261,710.553701 L524.031094,711.457944 L525.795593,712.319143 L527.580695,713.13678 L529.385325,713.910363 L531.208397,714.639424 L533.048812,715.323525 L534.905461,715.962254 L536.777226,716.555227 L538.662979,717.102085 L540.561586,717.6025 L542.471901,718.05617 L544.392774,718.462822 L546.323049,718.822211 L548.261562,719.134121 L550.207146,719.398363 L552.158629,719.614778 L554.114835,719.783237 L556.074586,719.903636 L558.036702,719.975905 L560,720 L561.963298,719.975905 L563.925414,719.903636 L565.885165,719.783237 L567.841371,719.614778 L569.792854,719.398363 L571.738438,719.134121 L573.676951,718.822211 L575.607226,718.462822 L577.528099,718.05617 L579.438414,717.6025 L581.337021,717.102085 L583.222774,716.555227 L585.094539,715.962254 L586.951188,715.323525 L588.791603,714.639424 L590.614675,713.910363 L592.419305,713.13678 L594.204407,712.319143 L595.968906,711.457944 L597.711739,710.553701 L599.431855,709.606959 L601.12822,708.618289 L602.79981,707.588285 L604.445619,706.517569 L606.064655,705.406785 L607.655944,704.256603 L609.218527,703.067714 L610.751463,701.840836 L612.253827,700.576708 L613.724716,699.27609 L615.163244,697.939767 L616.568542,696.568542 L617.939767,695.163244 L619.27609,693.724716 L620.576708,692.253827 L621.840836,690.751463 L623.067714,689.218527 L624.256603,687.655944 L625.406785,686.064655 L626.517569,684.445619 L627.588285,682.79981 L628.618289,681.12822 L629.606959,679.431855 L630.553701,677.711739 L631.457944,675.968906 L632.319143,674.204407 L633.13678,672.419305 L633.910363,670.614675 L634.639424,668.791603 L635.323525,666.951188 L635.962254,665.094539 L636.555227,663.222774 L637.102085,661.337021 L637.6025,659.438414 L638.05617,657.528099 L638.462822,655.607226 L638.822211,653.676951 L639.134121,651.738438 L639.398363,649.792854 L639.614778,647.841371 L639.783237,645.885165 L639.903636,643.925414 L639.975905,641.963298 L640,640 L480,640 Z" fill="#121212"/>
  <path d="M639.975905,958.036702 L639.903636,956.074586 L639.783237,954.114835 L639.614778,952.158629 L639.398363,950.207146 L639.134121,948.261562 L638.822211,946.323049 L638.462822,944.392774 L638.05617,942.471901 L637.6025,940.561586 L637.102085,938.662979 L636.555227,936.777226 L635.962254,934.905461 L635.323525,933.048812 L634.639424,931.208397 L633.910363,929.385325 L633.13678,927.580695 L632.319143,925.795593 L631.457944,924.031094 L630.553701,922.288261 L629.606959,920.568145 L628.618289,918.87178 L627.588285,917.20019 L626.517569,915.554381 L625.406785,913.935345 L624.256603,912.344056 L623.067714,910.781473 L621.840836,909.248537 L620.576708,907.746173 L619.27609,906.275284 L617.939767,904.836756 L616.568542,903.431458 L615.163244,902.060233 L613.724716,900.72391 L612.253827,899.423292 L610.751463,898.159164 L609.218527,896.932286 L607.655944,895.743397 L606.064655,894.593215 L604.445619,893.482431 L602.79981,892.411715 L601.12822,891.381711 L599.431855,890.393041 L597.711739,889.446299 L595.968906,888.542056 L594.204407,887.680857 L592.419305,886.86322 L590.614675,886.089637 L588.791603,885.360576 L586.951188,884.676475 L585.094539,884.037746 L583.222774,883.444773 L581.337021,882.897915 L579.438414,882.3975 L577.528099,881.94383 L575.607226,881.537178 L573.676951,881.177789 L571.738438,880.865879 L569.792854,880.601637 L567.841371,880.385222 L565.885165,880.216763 L563.925414,880.096364 L561.963298,880.024095 L560,880 L558.036702,880.024095 L556.074586,880.096364 L554.114835,880.216763 L552.158629,880.385222 L550.207146,880.601637 L548.261562,880.865879 L546.323049,881.177789 L544.392774,881.537178 L542.471901,881.94383 L540.561586,882.3975 L538.662979,882.897915 L536.777226,883.444773 L534.905461,884.037746 L533.048812,884.676475 L531.208397,885.360576 L529.385325,886.089637 L527.580695,886.86322 L525.795593,887.680857 L524.031094,888.542056 L522.288261,889.446299 L520.568145,890.393041 L518.87178,891.381711 L517.20019,892.411715 L515.554381,893.482431 L513.935345,894.593215 L512.344056,895.743397 L510.781473,896.932286 L509.248537,898.159164 L507.746173,899.423292 L506.275284,900.72391 L504.836756,902.060233 L503.431458,903.431458 L502.060233,904.836756 L500.72391,906.275284 L499.423292,907.746173 L498.159164,909.248537 L496.932286,910.781473 L495.743397,912.344056 L494.593215,913.935345 L493.482431,915.554381 L492.411715,917.20019 L491.381711,918.87178 L490.393041,920.568145 L489.446299,922.288261 L488.542056,924.031094 L487.680857,925.795593 L486.86322,927.580695 L486.089637,929.385325 L485.360576,931.208397 L484.676475,933.048812 L484.037746,934.905461 L483.444773,936.777226 L482.897915,938.662979 L482.3975,940.561586 L481.94383,942.471901 L481.537178,944.392774 L481.177789,946.323049 L480.865879,948.261562 L480.601637,950.207146 L480.385222,952.158629 L480.216763,954.114835 L480.096364,956.074586 L480.024095,958.036702 L480,960 L640,960 Z" fill="#121212"/>
  <path d="M640,640 L560,640 L560,960 L640,960 Z" fill="#121212"/>
  <rect width="320" height="320" fill="#FFA300" x="960" y="320"/>
  <ellipse cx="1120" cy="560" rx="80" ry="80" transform="rotate(90 1120 560)" fill="#121212"/>
  <path d="M1278.036702,480.024095 L1276.074586,480.096364 L1274.114835,480.216763 L1272.158629,480.385222 L1270.207146,480.601637 L1268.261562,480.865879 L1266.323049,481.177789 L1264.392774,481.537178 L1262.471901,481.94383 L1260.561586,482.3975 L1258.662979,482.897915 L1256.777226,483.444773 L1254.905461,484.037746 L1253.048812,484.676475 L1251.208397,485.360576 L1249.385325,486.089637 L1247.580695,486.86322 L1245.795593,487.680857 L1244.031094,488.542056 L1242.288261,489.446299 L1240.568145,490.393041 L1238.87178,491.381711 L1237.20019,492.411715 L1235.554381,493.482431 L1233.935345,494.593215 L1232.344056,495.743397 L1230.781473,496.932286 L1229.248537,498.159164 L1227.746173,499.423292 L1226.275284,500.72391 L1224.836756,502.060233 L1223.431458,503.431458 L1222.060233,504.836756 L1220.72391,506.275284 L1219.423292,507.746173 L1218.159164,509.248537 L1216.932286,510.781473 L1215.743397,512.344056 L1214.593215,513.935345 L1213.482431,515.554381 L1212.411715,517.20019 L1211.381711,518.87178 L1210.393041,520.568145 L1209.446299,522.288261 L1208.542056,524.031094 L1207.680857,525.795593 L1206.86322,527.580695 L1206.089637,529.385325 L1205.360576,531.208397 L1204.676475,533.048812 L1204.037746,534.905461 L1203.444773,536.777226 L1202.897915,538.662979 L1202.3975,540.561586 L1201.94383,542.471901 L1201.537178,544.392774 L1201.177789,546.323049 L1200.865879,548.261562 L1200.601637,550.207146 L1200.385222,552.158629 L1200.216763,554.114835 L1200.096364,556.074586 L1200.024095,558.036702 L1200,560 L1200.024095,561.963298 L1200.096364,563.925414 L1200.216763,565.885165 L1200.385222,567.841371 L1200.601637,569.792854 L1200.865879,571.738438 L1201.177789,573.676951 L1201.537178,575.607226 L1201.94383,577.528099 L1202.3975,579.438414 L1202.897915,581.337021 L1203.444773,583.222774 L1204.037746,585.094539 L1204.676475,586.951188 L1205.360576,588.791603 L1206.089637,590.614675 L1206.86322,592.419305 L1207.680857,594.204407 L1208.542056,595.968906 L1209.446299,597.711739 L1210.393041,599.431855 L1211.381711,601.12822 L1212.411715,602.79981 L1213.482431,604.445619 L1214.593215,606.064655 L1215.743397,607.655944 L1216.932286,609.218527 L1218.159164,610.751463 L1219.423292,612.253827 L1220.72391,613.724716 L1222.060233,615.163244 L1223.431458,616.568542 L1224.836756,617.939767 L1226.275284,619.27609 L1227.746173,620.576708 L1229.248537,621.840836 L1230.781473,623.067714 L1232.344056,624.256603 L1233.935345,625.406785 L1235.554381,626.517569 L1237.20019,627.588285 L1238.87178,628.618289 L1240.568145,629.606959 L1242.288261,630.553701 L1244.031094,631.457944 L1245.795593,632.319143 L1247.580695,633.13678 L1249.385325,633.910363 L1251.208397,634.639424 L1253.048812,635.323525 L1254.905461,635.962254 L1256.777226,636.555227 L1258.662979,637.102085 L1260.561586,637.6025 L1262.471901,638.05617 L1264.392774,638.462822 L1266.323049,638.822211 L1268.261562,639.134121 L1270.207146,639.398363 L1272.158629,639.614778 L1274.114835,639.783237 L1276.074586,639.903636 L1278.036702,639.975905 L1280,640 L1280,480 Z" fill="#121212"/>
  <path d="M961.963298,639.975905 L963.925414,639.903636 L965.885165,639.783237 L967.841371,639.614778 L969.792854,639.398363 L971.738438,639.134121 L973.676951,638.822211 L975.607226,638.462822 L977.528099,638.05617 L979.438414,637.6025 L981.337021,637.102085 L983.222774,636.555227 L985.094539,635.962254 L986.951188,635.323525 L988.791603,634.639424 L990.614675,633.910363 L992.419305,633.13678 L994.204407,632.319143 L995.968906,631.457944 L997.711739,630.553701 L999.431855,629.606959 L1001.12822,628.618289 L1002.79981,627.588285 L1004.445619,626.517569 L1006.064655,625.406785 L1007.655944,624.256603 L1009.218527,623.067714 L1010.751463,621.840836 L1012.253827,620.576708 L1013.724716,619.27609 L1015.163244,617.939767 L1016.568542,616.568542 L1017.939767,615.163244 L1019.27609,613.724716 L1020.576708,612.253827 L1021.840836,610.751463 L1023.067714,609.218527 L1024.256603,607.655944 L1025.406785,606.064655 L1026.517569,604.445619 L1027.588285,602.79981 L1028.618289,601.12822 L1029.606959,599.431855 L1030.553701,597.711739 L1031.457944,595.968906 L1032.319143,594.204407 L1033.13678,592.419305 L1033.910363,590.614675 L1034.639424,588.791603 L1035.323525,586.951188 L1035.962254,585.094539 L1036.555227,583.222774 L1037.102085,581.337021 L1037.6025,579.438414 L1038.05617,577.528099 L1038.462822,575.607226 L1038.822211,573.676951 L1039.134121,571.738438 L1039.398363,569.792854 L1039.614778,567.841371 L1039.783237,565.885165 L1039.903636,563.925414 L1039.975905,561.963298 L1040,560 L1039.975905,558.036702 L1039.903636,556.074586 L1039.783237,554.114835 L1039.614778,552.158629 L1039.398363,550.207146 L1039.134121,548.261562 L1038.822211,546.323049 L1038.462822,544.392774 L1038.05617,542.471901 L1037.6025,540.561586 L1037.102085,538.662979 L1036.555227,536.777226 L1035.962254,534.905461 L1035.323525,533.048812 L1034.639424,531.208397 L1033.910363,529.385325 L1033.13678,527.580695 L1032.319143,525.795593 L1031.457944,524.031094 L1030.553701,522.288261 L1029.606959,520.568145 L1028.618289,518.87178 L1027.588285,517.20019 L1026.517569,515.554381 L1025.406785,513.935345 L1024.256603,512.344056 L1023.067714,510.781473 L1021.840836,509.248537 L1020.576708,507.746173 L1019.27609,506.275284 L1017.939767,504.836756 L1016.568542,503.431458 L1015.163244,502.060233 L1013.724716,500.72391 L1012.253827,499.423292 L1010.751463,498.159164 L1009.218527,496.932286 L1007.655944,495.743397 L1006.064655,494.593215 L1004.445619,493.482431 L1002.79981,492.411715 L1001.12822,491.381711 L999.431855,490.393041 L997.711739,489.446299 L995.968906,488.542056 L994.204407,487.680857 L992.419305,486.86322 L990.614675,486.089637 L988.791603,485.360576 L986.951188,484.676475 L985.094539,484.037746 L983.222774,483.444773 L981.337021,482.897915 L979.438414,482.3975 L977.528099,481.94383 L975.607226,481.537178 L973.676951,481.177789 L971.738438,480.865879 L969.792854,480.601637 L967.841371,480.385222 L965.885165,480.216763 L963.925414,480.096364 L961.963298,480.024095 L960,480 L960,640 Z" fill="#121212"/>
  <path d="M1280,640 L1280,560 L960,560 L960,640 Z" fill="#121212"/>
  <rect width="320" height="320" fill="#FFA300" x="640" y="320"/>
  <ellipse cx="800" cy="560" rx="80" ry="80" transform="rotate(90 800 560)" fill="#121212"/>
  <path d="M958.036702,480.024095 L956.074586,480.096364 L954.114835,480.216763 L952.158629,480.385222 L950.207146,480.601637 L948.261562,480.865879 L946.323049,481.177789 L944.392774,481.537178 L942.471901,481.94383 L940.561586,482.3975 L938.662979,482.897915 L936.777226,483.444773 L934.905461,484.037746 L933.048812,484.676475 L931.208397,485.360576 L929.385325,486.089637 L927.580695,486.86322 L925.795593,487.680857 L924.031094,488.542056 L922.288261,489.446299 L920.568145,490.393041 L918.87178,491.381711 L917.20019,492.411715 L915.554381,493.482431 L913.935345,494.593215 L912.344056,495.743397 L910.781473,496.932286 L909.248537,498.159164 L907.746173,499.423292 L906.275284,500.72391 L904.836756,502.060233 L903.431458,503.431458 L902.060233,504.836756 L900.72391,506.275284 L899.423292,507.746173 L898.159164,509.248537 L896.932286,510.781473 L895.743397,512.344056 L894.593215,513.935345 L893.482431,515.554381 L892.411715,517.20019 L891.381711,518.87178 L890.393041,520.568145 L889.446299,522.288261 L888.542056,524.031094 L887.680857,525.795593 L886.86322,527.580695 L886.089637,529.385325 L885.360576,531.208397 L884.676475,533.048812 L884.037746,534.905461 L883.444773,536.777226 L882.897915,538.662979 L882.3975,540.561586 L881.94383,542.471901 L881.537178,544.392774 L881.177789,546.323049 L880.865879,548.261562 L880.601637,550.207146 L880.385222,552.158629 L880.216763,554.114835 L880.096364,556.074586 L880.024095,558.036702 L880,560 L880.024095,561.963298 L880.096364,563.925414 L880.216763,565.885165 L880.385222,567.841371 L880.601637,569.792854 L880.865879,571.738438 L881.177789,573.676951 L881.537178,575.607226 L881.94383,577.528099 L882.3975,579.438414 L882.897915,581.337021 L883.444773,583.222774 L884.037746,585.094539 L884.676475,586.951188 L885.360576,588.791603 L886.089637,590.614675 L886.86322,592.419305 L887.680857,594.204407 L888.542056,595.968906 L889.446299,597.711739 L890.393041,599.431855 L891.381711,601.12822 L892.411715,602.79981 L893.482431,604.445619 L894.593215,606.064655 L895.743397,607.655944 L896.932286,609.218527 L898.159164,610.751463 L899.423292,612.253827 L900.72391,613.724716 L902.060233,615.163244 L903.431458,616.568542 L904.836756,617.939767 L906.275284,619.27609 L907.746173,620.576708 L909.248537,621.840836 L910.781473,623.067714 L912.344056,624.256603 L913.935345,625.406785 L915.554381,626.517569 L917.20019,627.588285 L918.87178,628.618289 L920.568145,629.606959 L922.288261,630.553701 L924.031094,631.457944 L925.795593,632.319143 L927.580695,633.13678 L929.385325,633.910363 L931.208397,634.639424 L933.048812,635.323525 L934.905461,635.962254 L936.777226,636.555227 L938.662979,637.102085 L940.561586,637.6025 L942.471901,638.05617 L944.392774,638.462822 L946.323049,638.822211 L948.261562,639.134121 L950.207146,639.398363 L952.158629,639.614778 L954.114835,639.783237 L956.074586,639.903636 L958.036702,639.975905 L960,640 L960,480 Z" fill="#121212"/>
  <path d="M641.963298,639.975905 L643.925414,639.903636 L645.885165,639.783237 L647.841371,639.614778 L649.792854,639.398363 L651.738438,639.134121 L653.676951,638.822211 L655.607226,638.462822 L657.528099,638.05617 L659.438414,637.6025 L661.337021,637.102085 L663.222774,636.555227 L665.094539,635.962254 L666.951188,635.323525 L668.791603,634.639424 L670.614675,633.910363 L672.419305,633.13678 L674.204407,632.319143 L675.968906,631.457944 L677.711739,630.553701 L679.431855,629.606959 L681.12822,628.618289 L682.79981,627.588285 L684.445619,626.517569 L686.064655,625.406785 L687.655944,624.256603 L689.218527,623.067714 L690.751463,621.840836 L692.253827,620.576708 L693.724716,619.27609 L695.163244,617.939767 L696.568542,616.568542 L697.939767,615.163244 L699.27609,613.724716 L700.576708,612.253827 L701.840836,610.751463 L703.067714,609.218527 L704.256603,607.655944 L705.406785,606.064655 L706.517569,604.445619 L707.588285,602.79981 L708.618289,601.12822 L709.606959,599.431855 L710.553701,597.711739 L711.457944,595.968906 L712.319143,594.204407 L713.13678,592.419305 L713.910363,590.614675 L714.639424,588.791603 L715.323525,586.951188 L715.962254,585.094539 L716.555227,583.222774 L717.102085,581.337021 L717.6025,579.438414 L718.05617,577.528099 L718.462822,575.607226 L718.822211,573.676951 L719.134121,571.738438 L719.398363,569.792854 L719.614778,567.841371 L719.783237,565.885165 L719.903636,563.925414 L719.975905,561.963298 L720,560 L719.975905,558.036702 L719.903636,556.074586 L719.783237,554.114835 L719.614778,552.158629 L719.398363,550.207146 L719.134121,548.261562 L718.822211,546.323049 L718.462822,544.392774 L718.05617,542.471901 L717.6025,540.561586 L717.102085,538.662979 L716.555227,536.777226 L715.962254,534.905461 L715.323525,533.048812 L714.639424,531.208397 L713.910363,529.385325 L713.13678,527.580695 L712.319143,525.795593 L711.457944,524.031094 L710.553701,522.288261 L709.606959,520.568145 L708.618289,518.87178 L707.588285,517.20019 L706.517569,515.554381 L705.406785,513.935345 L704.256603,512.344056 L703.067714,510.781473 L701.840836,509.248537 L700.576708,507.746173 L699.27609,506.275284 L697.939767,504.836756 L696.568542,503.431458 L695.163244,502.060233 L693.724716,500.72391 L692.253827,499.423292 L690.751463,498.159164 L689.218527,496.932286 L687.655944,495.743397 L686.064655,494.593215 L684.445619,493.482431 L682.79981,492.411715 L681.12822,491.381711 L679.431855,490.393041 L677.711739,489.446299 L675.968906,488.542056 L674.204407,487.680857 L672.419305,486.86322 L670.614675,486.089637 L668.791603,485.360576 L666.951188,484.676475 L665.094539,484.037746 L663.222774,483.444773 L661.337021,482.897915 L659.438414,482.3975 L657.528099,481.94383 L655.607226,481.537178 L653.676951,481.177789 L651.738438,480.865879 L649.792854,480.601637 L647.841371,480.385222 L645.885165,480.216763 L643.925414,480.096364 L641.963298,480.024095 L640,480 L640,640 Z" fill="#121212"/>
  <path d="M960,640 L960,560 L640,560 L640,640 Z" fill="#121212"/>
  <rect width="320" height="320" fill="#121212" x="320" y="320"/>
  <path fill-rule="evenodd" clip-rule="evenodd" d="M639.955 480L640 320L320 320L320 640L479.955 639.955C479.981 551.59 551.615 479.974 639.955 480Z" fill="#FFA300"/>
  <rect width="320" height="320" fill="#FF4F00" x="960" y="640"/>
  <ellipse cx="1120" cy="800" rx="120" ry="80" fill="#F3F3F3"/>
  <ellipse cx="1152" cy="800" rx="53.3333" ry="53.3333" transform="rotate(-90 1152 800)" fill="#121212"/>
  <rect width="320" height="320" fill="#FF4F00" x="640" y="640"/>
  <ellipse cx="800" cy="800" rx="120" ry="80" fill="#F3F3F3"/>
  <ellipse cx="831.999" cy="800" rx="53.3333" ry="53.3333" transform="rotate(-90 831.999 800)" fill="#121212"/>
  <rect width="320" height="320" fill="#FFA300" x="0" y="640"/>
  <path d="M239.975902,958.036709 L239.903633,956.074593 L239.783233,954.114842 L239.614775,952.158636 L239.39836,950.207153 L239.134118,948.261569 L238.822208,946.323056 L238.46282,944.392781 L238.056168,942.471908 L237.602498,940.561592 L237.102083,938.662986 L236.555224,936.777233 L235.962252,934.905468 L235.323523,933.048819 L234.639422,931.208404 L233.91036,929.385332 L233.136778,927.580702 L232.319141,925.795599 L231.457942,924.0311 L230.553699,922.288268 L229.606958,920.568151 L228.618287,918.871787 L227.588284,917.200197 L226.517567,915.554388 L225.406784,913.935351 L224.256601,912.344062 L223.067713,910.781479 L221.840835,909.248543 L220.576707,907.746179 L219.276089,906.27529 L217.939766,904.836762 L216.568541,903.431463 L215.163243,902.060239 L213.724715,900.723916 L212.253827,899.423298 L210.751462,898.159169 L209.218527,896.932291 L207.655944,895.743403 L206.064655,894.59322 L204.445618,893.482436 L202.799809,892.41172 L201.128219,891.381716 L199.431855,890.393046 L197.711739,889.446304 L195.968906,888.542061 L194.204407,887.680862 L192.419305,886.863224 L190.614674,886.089642 L188.791603,885.360581 L186.951188,884.676479 L185.094539,884.03775 L183.222774,883.444778 L181.33702,882.897919 L179.438414,882.397504 L177.528099,881.943834 L175.607226,881.537182 L173.676951,881.177793 L171.738438,880.865883 L169.792854,880.601641 L167.841371,880.385226 L165.885165,880.216767 L163.925414,880.096367 L161.963298,880.024098 L160,880 L158.036702,880.024098 L156.074586,880.096367 L154.114835,880.216767 L152.158629,880.385225 L150.207146,880.60164 L148.261562,880.865882 L146.323049,881.177792 L144.392774,881.53718 L142.471901,881.943832 L140.561586,882.397502 L138.662979,882.897917 L136.777226,883.444776 L134.905461,884.037748 L133.048812,884.676477 L131.208397,885.360578 L129.385325,886.08964 L127.580695,886.863222 L125.795592,887.680859 L124.031093,888.542058 L122.288261,889.446301 L120.568144,890.393042 L118.87178,891.381713 L117.20019,892.411716 L115.554381,893.482433 L113.935344,894.593216 L112.344055,895.743399 L110.781472,896.932287 L109.248536,898.159165 L107.746172,899.423293 L106.275283,900.723911 L104.836755,902.060234 L103.431456,903.431459 L102.060232,904.836757 L100.723909,906.275285 L99.423291,907.746173 L98.159162,909.248538 L96.932284,910.781473 L95.743396,912.344056 L94.593213,913.935345 L93.482429,915.554382 L92.411713,917.200191 L91.38171,918.871781 L90.393039,920.568145 L89.446297,922.288261 L88.542054,924.031094 L87.680855,925.795593 L86.863217,927.580695 L86.089635,929.385326 L85.360574,931.208397 L84.676472,933.048812 L84.037743,934.905461 L83.444771,936.777226 L82.897912,938.66298 L82.397497,940.561586 L81.943827,942.471901 L81.537175,944.392774 L81.177786,946.323049 L80.865876,948.261562 L80.601634,950.207146 L80.385219,952.158629 L80.21676,954.114835 L80.09636,956.074586 L80.024091,958.036702 L80,960 L240,960 Z" fill="#FF4F00"/>
  <path d="M79.975902,958.036709 L79.903633,956.074593 L79.783233,954.114842 L79.614775,952.158636 L79.39836,950.207153 L79.134118,948.261569 L78.822208,946.323056 L78.46282,944.392781 L78.056168,942.471908 L77.602498,940.561592 L77.102083,938.662986 L76.555224,936.777233 L75.962252,934.905468 L75.323523,933.048819 L74.639422,931.208404 L73.91036,929.385332 L73.136778,927.580702 L72.319141,925.795599 L71.457942,924.0311 L70.553699,922.288268 L69.606958,920.568151 L68.618287,918.871787 L67.588284,917.200197 L66.517567,915.554388 L65.406784,913.935351 L64.256601,912.344062 L63.067713,910.781479 L61.840835,909.248543 L60.576707,907.746179 L59.276089,906.27529 L57.939766,904.836762 L56.568541,903.431463 L55.163243,902.060239 L53.724715,900.723916 L52.253827,899.423298 L50.751462,898.159169 L49.218527,896.932291 L47.655944,895.743403 L46.064655,894.59322 L44.445618,893.482436 L42.799809,892.41172 L41.128219,891.381716 L39.431855,890.393046 L37.711739,889.446304 L35.968906,888.542061 L34.204407,887.680862 L32.419305,886.863224 L30.614674,886.089642 L28.791603,885.360581 L26.951188,884.676479 L25.094539,884.03775 L23.222774,883.444778 L21.33702,882.897919 L19.438414,882.397504 L17.528099,881.943834 L15.607226,881.537182 L13.676951,881.177793 L11.738438,880.865883 L9.792854,880.601641 L7.841371,880.385226 L5.885165,880.216767 L3.925414,880.096367 L1.963298,880.024098 L0,880 L0,960 L80,960 Z" fill="#FF4F00"/>
  <path d="M318.036702,880.024098 L316.074586,880.096367 L314.114835,880.216767 L312.158629,880.385225 L310.207146,880.60164 L308.261562,880.865882 L306.323049,881.177792 L304.392774,881.53718 L302.471901,881.943832 L300.561586,882.397502 L298.662979,882.897917 L296.777226,883.444776 L294.905461,884.037748 L293.048812,884.676477 L291.208397,885.360578 L289.385325,886.08964 L287.580695,886.863222 L285.795592,887.680859 L284.031093,888.542058 L282.288261,889.446301 L280.568144,890.393042 L278.87178,891.381713 L277.20019,892.411716 L275.554381,893.482433 L273.935344,894.593216 L272.344055,895.743399 L270.781472,896.932287 L269.248536,898.159165 L267.746172,899.423293 L266.275283,900.723911 L264.836755,902.060234 L263.431456,903.431459 L262.060232,904.836757 L260.723909,906.275285 L259.423291,907.746173 L258.159162,909.248538 L256.932284,910.781473 L255.743396,912.344056 L254.593213,913.935345 L253.482429,915.554382 L252.411713,917.200191 L251.38171,918.871781 L250.393039,920.568145 L249.446297,922.288261 L248.542054,924.031094 L247.680855,925.795593 L246.863217,927.580695 L246.089635,929.385326 L245.360574,931.208397 L244.676472,933.048812 L244.037743,934.905461 L243.444771,936.777226 L242.897912,938.66298 L242.397497,940.561586 L241.943827,942.471901 L241.537175,944.392774 L241.177786,946.323049 L240.865876,948.261562 L240.601634,950.207146 L240.385219,952.158629 L240.21676,954.114835 L240.09636,956.074586 L240.024091,958.036702 L240,960 L320,960 L320,880 Z" fill="#FF4F00"/>
  <rect width="320" height="320" fill="#FFA300" x="1600" y="640"/>
  <path d="M1839.975902,958.036709 L1839.903633,956.074593 L1839.783233,954.114842 L1839.614775,952.158636 L1839.39836,950.207153 L1839.134118,948.261569 L1838.822208,946.323056 L1838.46282,944.392781 L1838.056168,942.471908 L1837.602498,940.561592 L1837.102083,938.662986 L1836.555224,936.777233 L1835.962252,934.905468 L1835.323523,933.048819 L1834.639422,931.208404 L1833.91036,929.385332 L1833.136778,927.580702 L1832.319141,925.795599 L1831.457942,924.0311 L1830.553699,922.288268 L1829.606958,920.568151 L1828.618287,918.871787 L1827.588284,917.200197 L1826.517567,915.554388 L1825.406784,913.935351 L1824.256601,912.344062 L1823.067713,910.781479 L1821.840835,909.248543 L1820.576707,907.746179 L1819.276089,906.27529 L1817.939766,904.836762 L1816.568541,903.431463 L1815.163243,902.060239 L1813.724715,900.723916 L1812.253827,899.423298 L1810.751462,898.159169 L1809.218527,896.932291 L1807.655944,895.743403 L1806.064655,894.59322 L1804.445618,893.482436 L1802.799809,892.41172 L1801.128219,891.381716 L1799.431855,890.393046 L1797.711739,889.446304 L1795.968906,888.542061 L1794.204407,887.680862 L1792.419305,886.863224 L1790.614674,886.089642 L1788.791603,885.360581 L1786.951188,884.676479 L1785.094539,884.03775 L1783.222774,883.444778 L1781.33702,882.897919 L1779.438414,882.397504 L1777.528099,881.943834 L1775.607226,881.537182 L1773.676951,881.177793 L1771.738438,880.865883 L1769.792854,880.601641 L1767.841371,880.385226 L1765.885165,880.216767 L1763.925414,880.096367 L1761.963298,880.024098 L1760,880 L1758.036702,880.024098 L1756.074586,880.096367 L1754.114835,880.216767 L1752.158629,880.385225 L1750.207146,880.60164 L1748.261562,880.865882 L1746.323049,881.177792 L1744.392774,881.53718 L1742.471901,881.943832 L1740.561586,882.397502 L1738.662979,882.897917 L1736.777226,883.444776 L1734.905461,884.037748 L1733.048812,884.676477 L1731.208397,885.360578 L1729.385325,886.08964 L1727.580695,886.863222 L1725.795592,887.680859 L1724.031093,888.542058 L1722.288261,889.446301 L1720.568144,890.393042 L1718.87178,891.381713 L1717.20019,892.411716 L1715.554381,893.482433 L1713.935344,894.593216 L1712.344055,895.743399 L1710.781472,896.932287 L1709.248536,898.159165 L1707.746172,899.423293 L1706.275283,900.723911 L1704.836755,902.060234 L1703.431456,903.431459 L1702.060232,904.836757 L1700.723909,906.275285 L1699.423291,907.746173 L1698.159162,909.248538 L1696.932284,910.781473 L1695.743396,912.344056 L1694.593213,913.935345 L1693.482429,915.554382 L1692.411713,917.200191 L1691.38171,918.871781 L1690.393039,920.568145 L1689.446297,922.288261 L1688.542054,924.031094 L1687.680855,925.795593 L1686.863217,927.580695 L1686.089635,929.385326 L1685.360574,931.208397 L1684.676472,933.048812 L1684.037743,934.905461 L1683.444771,936.777226 L1682.897912,938.66298 L1682.397497,940.561586 L1681.943827,942.471901 L1681.537175,944.392774 L1681.177786,946.323049 L1680.865876,948.261562 L1680.601634,950.207146 L1680.385219,952.158629 L1680.21676,954.114835 L1680.09636,956.074586 L1680.024091,958.036702 L1680,960 L1840,960 Z" fill="#FF4F00"/>
  <path d="M1679.975902,958.036709 L1679.903633,956.074593 L1679.783233,954.114842 L1679.614775,952.158636 L1679.39836,950.207153 L1679.134118,948.261569 L1678.822208,946.323056 L1678.46282,944.392781 L1678.056168,942.471908 L1677.602498,940.561592 L1677.102083,938.662986 L1676.555224,936.777233 L1675.962252,934.905468 L1675.323523,933.048819 L1674.639422,931.208404 L1673.91036,929.385332 L1673.136778,927.580702 L1672.319141,925.795599 L1671.457942,924.0311 L1670.553699,922.288268 L1669.606958,920.568151 L1668.618287,918.871787 L1667.588284,917.200197 L1666.517567,915.554388 L1665.406784,913.935351 L1664.256601,912.344062 L1663.067713,910.781479 L1661.840835,909.248543 L1660.576707,907.746179 L1659.276089,906.27529 L1657.939766,904.836762 L1656.568541,903.431463 L1655.163243,902.060239 L1653.724715,900.723916 L1652.253827,899.423298 L1650.751462,898.159169 L1649.218527,896.932291 L1647.655944,895.743403 L1646.064655,894.59322 L1644.445618,893.482436 L1642.799809,892.41172 L1641.128219,891.381716 L1639.431855,890.393046 L1637.711739,889.446304 L1635.968906,888.542061 L1634.204407,887.680862 L1632.419305,886.863224 L1630.614674,886.089642 L1628.791603,885.360581 L1626.951188,884.676479 L1625.094539,884.03775 L1623.222774,883.444778 L1621.33702,882.897919 L1619.438414,882.397504 L1617.528099,881.943834 L1615.607226,881.537182 L1613.676951,881.177793 L1611.738438,880.865883 L1609.792854,880.601641 L1607.841371,880.385226 L1605.885165,880.216767 L1603.925414,880.096367 L1601.963298,880.024098 L1600,880 L1600,960 L1680,960 Z" fill="#FF4F00"/>
  <path d="M1918.036702,880.024098 L1916.074586,880.096367 L1914.114835,880.216767 L1912.158629,880.385225 L1910.207146,880.60164 L1908.261562,880.865882 L1906.323049,881.177792 L1904.392774,881.53718 L1902.471901,881.943832 L1900.561586,882.397502 L1898.662979,882.897917 L1896.777226,883.444776 L1894.905461,884.037748 L1893.048812,884.676477 L1891.208397,885.360578 L1889.385325,886.08964 L1887.580695,886.863222 L1885.795592,887.680859 L1884.031093,888.542058 L1882.288261,889.446301 L1880.568144,890.393042 L1878.87178,891.381713 L1877.20019,892.411716 L1875.554381,893.482433 L1873.935344,894.593216 L1872.344055,895.743399 L1870.781472,896.932287 L1869.248536,898.159165 L1867.746172,899.423293 L1866.275283,900.723911 L1864.836755,902.060234 L1863.431456,903.431459 L1862.060232,904.836757 L1860.723909,906.275285 L1859.423291,907.746173 L1858.159162,909.248538 L1856.932284,910.781473 L1855.743396,912.344056 L1854.593213,913.935345 L1853.482429,915.554382 L1852.411713,917.200191 L1851.38171,918.871781 L1850.393039,920.568145 L1849.446297,922.288261 L1848.542054,924.031094 L1847.680855,925.795593 L1846.863217,927.580695 L1846.089635,929.385326 L1845.360574,931.208397 L1844.676472,933.048812 L1844.037743,934.905461 L1843.444771,936.777226 L1842.897912,938.66298 L1842.397497,940.561586 L1841.943827,942.471901 L1841.537175,944.392774 L1841.177786,946.323049 L1840.865876,948.261562 L1840.601634,950.207146 L1840.385219,952.158629 L1840.21676,954.114835 L1840.09636,956.074586 L1840.024091,958.036702 L1840,960 L1920,960 L1920,880 Z" fill="#FF4F00"/>
  <rect width="320" height="320" fill="#FFA300" x="1600" y="320"/>
  <path d="M1904 320L1904 624L1600 624L1600 320L1904 320Z" fill="#4997D0"/>
  <rect width="320" height="320" fill="#FFA300" x="1600" y="0"/>
  <path d="M1616 320L1616 16L1920 16L1920 320L1616 320Z" fill="#FF4F00"/>
  <rect width="320" height="320" fill="#FFA300" x="320" y="0"/>
  <path d="M336 320L336 16L640 16L640 320L336 320Z" fill="#FF4F00"/>
  <rect width="320" height="320" fill="#FFA300" x="1280" y="0"/>
  <path d="M1296 320L1296 16L1600 16L1600 320L1296 320Z" fill="#F3F3F3"/>
  <rect width="320" height="320" fill="#FFA300" x="960" y="0"/>
  <path d="M960 16.0001L1264 16.0001L1264 320L960 320L960 16.0001Z" fill="#121212"/>
  <rect width="320" height="320" fill="#FFA300"/>
  <path d="M2.65765e-05 16.0001L304 16.0001L304 320L0 320L2.65765e-05 16.0001Z" fill="#121212"/>
  <rect width="320" height="320" fill="#FFA300" x="0" y="320"/>
  <path d="M16.0001 640L16.0001 336L320 336L320 640L16.0001 640Z" fill="#F3F3F3"/>
  <rect width="320" height="320" fill="#FFA300" x="640" y="0"/>
  <path d="M648 312L648 7.99998L952 7.99997L952 312L648 312Z" fill="#4997D0"/>
  <path d="M640 320L960 0L960 320L640 320Z" fill="#121212"/>
  <path d="M800 0L640 160L640 6.99382e-06L800 0Z" fill="#121212"/>
</svg>
