<?xml version='1.0' encoding='UTF-8'?>
<svg xmlns="http://www.w3.org/2000/svg" width="1920" height="960" viewBox="0 0 1920 960">
  <rect width="1920" height="960" fill="#F3F3F3"/>
  <rect width="320" height="320" fill="#F3F3F3"/>
  <path d="M44.1817 57.1902C81.4843 70.455 99.1365 113.067 82.1377 148.833C55.147 205.62 114.387 264.859 171.167 237.862C206.926 220.863 249.539 238.516 262.81 275.818C272.571 303.264 295.789 317.989 320 320L320 -1.39876e-05L-1.39876e-05 0C2.01756 24.2109 16.7362 47.429 44.1817 57.1902Z" fill="#121212"/>
  <rect width="320" height="320" fill="#121212" x="320" y="0"/>
  <path d="M638.036702,80.024095 L636.074586,80.096364 L634.114835,80.216763 L632.158629,80.385222 L630.207146,80.601637 L628.261562,80.865879 L626.323049,81.177789 L624.392774,81.537178 L622.471901,81.94383 L620.561586,82.3975 L618.662979,82.897915 L616.777226,83.444773 L614.905461,84.037746 L613.048812,84.676475 L611.208397,85.360576 L609.385325,86.089637 L607.580695,86.86322 L605.795593,87.680857 L604.031094,88.542056 L602.288261,89.446299 L600.568145,90.393041 L598.87178,91.381711 L597.20019,92.411715 L595.554381,93.482431 L593.935345,94.593215 L592.344056,95.743397 L590.781473,96.932286 L589.248537,98.159164 L587.746173,99.423292 L586.275284,100.72391 L584.836756,102.060233 L583.431458,103.431458 L582.060233,104.836756 L580.72391,106.275284 L579.423292,107.746173 L578.159164,109.248537 L576.932286,110.781473 L575.743397,112.344056 L574.593215,113.935345 L573.482431,115.554381 L572.411715,117.20019 L571.381711,118.87178 L570.393041,120.568145 L569.446299,122.288261 L568.542056,124.031094 L567.680857,125.795593 L566.86322,127.580695 L566.089637,129.385325 L565.360576,131.208397 L564.676475,133.048812 L564.037746,134.905461 L563.444773,136.777226 L562.897915,138.662979 L562.3975,140.561586 L561.94383,142.471901 L561.537178,144.392774 L561.177789,146.323049 L560.865879,148.261562 L560.601637,150.207146 L560.385222,152.158629 L560.216763,154.114835 L560.096364,156.074586 L560.024095,158.036702 L560,160 L560.024095,161.963298 L560.096364,163.925414 L560.216763,165.885165 L560.385222,167.841371 L560.601637,169.792854 L560.865879,171.738438 L561.177789,173.676951 L561.537178,175.607226 L561.94383,177.528099 L562.3975,179.438414 L562.897915,181.337021 L563.444773,183.222774 L564.037746,185.094539 L564.676475,186.951188 L565.360576,188.791603 L566.089637,190.614675 L566.86322,192.419305 L567.680857,194.204407 L568.542056,195.968906 L569.446299,197.711739 L570.393041,199.431855 L571.381711,201.12822 L572.411715,202.79981 L573.482431,204.445619 L574.593215,206.064655 L575.743397,207.655944 L576.932286,209.218527 L578.159164,210.751463 L579.423292,212.253827 L580.72391,213.724716 L582.060233,215.163244 L583.431458,216.568542 L584.836756,217.939767 L586.275284,219.27609 L587.746173,220.576708 L589.248537,221.840836 L590.781473,223.067714 L592.344056,224.256603 L593.935345,225.406785 L595.554381,226.517569 L597.20019,227.588285 L598.87178,228.618289 L600.568145,229.606959 L602.288261,230.553701 L604.031094,231.457944 L605.795593,232.319143 L607.580695,233.13678 L609.385325,233.910363 L611.208397,234.639424 L613.048812,235.323525 L614.905461,235.962254 L616.777226,236.555227 L618.662979,237.102085 L620.561586,237.6025 L622.471901,238.05617 L624.392774,238.462822 L626.323049,238.822211 L628.261562,239.134121 L630.207146,239.398363 L632.158629,239.614778 L634.114835,239.783237 L636.074586,239.903636 L638.036702,239.975905 L640,240 L640,80 Z" fill="#FF4F00"/>
  <path d="M560.024095,1.963298 L560.096364,3.925414 L560.216763,5.885165 L560.385222,7.841371 L560.601637,9.792854 L560.865879,11.738438 L561.177789,13.676951 L561.537178,15.607226 L561.94383,17.528099 L562.3975,19.438414 L562.897915,21.337021 L563.444773,23.222774 L564.037746,25.094539 L564.676475,26.951188 L565.360576,28.791603 L566.089637,30.614675 L566.86322,32.419305 L567.680857,34.204407 L568.542056,35.968906 L569.446299,37.711739 L570.393041,39.431855 L571.381711,41.12822 L572.411715,42.79981 L573.482431,44.445619 L574.593215,46.064655 L575.743397,47.655944 L576.932286,49.218527 L578.159164,50.751463 L579.423292,52.253827 L580.72391,53.724716 L582.060233,55.163244 L583.431458,56.568542 L584.836756,57.939767 L586.275284,59.27609 L587.746173,60.576708 L589.248537,61.840836 L590.781473,63.067714 L592.344056,64.256603 L593.935345,65.406785 L595.554381,66.517569 L597.20019,67.588285 L598.87178,68.618289 L600.568145,69.606959 L602.288261,70.553701 L604.031094,71.457944 L605.795593,72.319143 L607.580695,73.13678 L609.385325,73.910363 L611.208397,74.639424 L613.048812,75.323525 L614.905461,75.962254 L616.777226,76.555227 L618.662979,77.102085 L620.561586,77.6025 L622.471901,78.05617 L624.392774,78.462822 L626.323049,78.822211 L628.261562,79.134121 L630.207146,79.398363 L632.158629,79.614778 L634.114835,79.783237 L636.074586,79.903636 L638.036702,79.975905 L640,80 L640,0 L560,0 Z" fill="#FF4F00"/>
  <path d="M638.036702,240.024095 L636.074586,240.096364 L634.114835,240.216763 L632.158629,240.385222 L630.207146,240.601637 L628.261562,240.865879 L626.323049,241.177789 L624.392774,241.537178 L622.471901,241.94383 L620.561586,242.3975 L618.662979,242.897915 L616.777226,243.444773 L614.905461,244.037746 L613.048812,244.676475 L611.208397,245.360576 L609.385325,246.089637 L607.580695,246.86322 L605.795593,247.680857 L604.031094,248.542056 L602.288261,249.446299 L600.568145,250.393041 L598.87178,251.381711 L597.20019,252.411715 L595.554381,253.482431 L593.935345,254.593215 L592.344056,255.743397 L590.781473,256.932286 L589.248537,258.159164 L587.746173,259.423292 L586.275284,260.72391 L584.836756,262.060233 L583.431458,263.431458 L582.060233,264.836756 L580.72391,266.275284 L579.423292,267.746173 L578.159164,269.248537 L576.932286,270.781473 L575.743397,272.344056 L574.593215,273.935345 L573.482431,275.554381 L572.411715,277.20019 L571.381711,278.87178 L570.393041,280.568145 L569.446299,282.288261 L568.542056,284.031094 L567.680857,285.795593 L566.86322,287.580695 L566.089637,289.385325 L565.360576,291.208397 L564.676475,293.048812 L564.037746,294.905461 L563.444773,296.777226 L562.897915,298.662979 L562.3975,300.561586 L561.94383,302.471901 L561.537178,304.392774 L561.177789,306.323049 L560.865879,308.261562 L560.601637,310.207146 L560.385222,312.158629 L560.216763,314.114835 L560.096364,316.074586 L560.024095,318.036702 L560,320 L640,320 L640,240 Z" fill="#FF4F00"/>
  <rect width="320" height="320" fill="#FF4F00" x="640" y="0"/>
  <path d="M684.182 57.1902C721.484 70.455 739.137 113.067 722.138 148.833C695.147 205.62 754.387 264.859 811.167 237.862C846.926 220.863 889.539 238.516 902.81 275.818C912.571 303.264 935.789 317.989 960 320L960 -1.39876e-05L640 0C642.018 24.2109 656.736 47.429 684.182 57.1902Z" fill="#FFA300"/>
  <rect width="320" height="320" fill="#FF4F00" x="960" y="0"/>
  <path d="M1017.19 275.818C1030.45 238.516 1073.07 220.863 1108.83 237.862C1165.62 264.853 1224.86 205.613 1197.86 148.833C1180.86 113.074 1198.52 70.4614 1235.82 57.1902C1263.26 47.429 1277.99 24.2109 1280 0L960 1.01717e-05L960 320C984.211 317.982 1007.43 303.264 1017.19 275.818Z" fill="#FFA300"/>
  <rect width="320" height="320" fill="#121212" x="1280" y="0"/>
  <path d="M1281.963298,239.975905 L1283.925414,239.903636 L1285.885165,239.783237 L1287.841371,239.614778 L1289.792854,239.398363 L1291.738438,239.134121 L1293.676951,238.822211 L1295.607226,238.462822 L1297.528099,238.05617 L1299.438414,237.6025 L1301.337021,237.102085 L1303.222774,236.555227 L1305.094539,235.962254 L1306.951188,235.323525 L1308.791603,234.639424 L1310.614675,233.910363 L1312.419305,233.13678 L1314.204407,232.319143 L1315.968906,231.457944 L1317.711739,230.553701 L1319.431855,229.606959 L1321.12822,228.618289 L1322.79981,227.588285 L1324.445619,226.517569 L1326.064655,225.406785 L1327.655944,224.256603 L1329.218527,223.067714 L1330.751463,221.840836 L1332.253827,220.576708 L1333.724716,219.27609 L1335.163244,217.939767 L1336.568542,216.568542 L1337.939767,215.163244 L1339.27609,213.724716 L1340.576708,212.253827 L1341.840836,210.751463 L1343.067714,209.218527 L1344.256603,207.655944 L1345.406785,206.064655 L1346.517569,204.445619 L1347.588285,202.79981 L1348.618289,201.12822 L1349.606959,199.431855 L1350.553701,197.711739 L1351.457944,195.968906 L1352.319143,194.204407 L1353.13678,192.419305 L1353.910363,190.614675 L1354.639424,188.791603 L1355.323525,186.951188 L1355.962254,185.094539 L1356.555227,183.222774 L1357.102085,181.337021 L1357.6025,179.438414 L1358.05617,177.528099 L1358.462822,175.607226 L1358.822211,173.676951 L1359.134121,171.738438 L1359.398363,169.792854 L1359.614778,167.841371 L1359.783237,165.885165 L1359.903636,163.925414 L1359.975905,161.963298 L1360,160 L1359.975905,158.036702 L1359.903636,156.074586 L1359.783237,154.114835 L1359.614778,152.158629 L1359.398363,150.207146 L1359.134121,148.261562 L1358.822211,146.323049 L1358.462822,144.392774 L1358.05617,142.471901 L1357.6025,140.561586 L1357.102085,138.662979 L1356.555227,136.777226 L1355.962254,134.905461 L1355.323525,133.048812 L1354.639424,131.208397 L1353.910363,129.385325 L1353.13678,127.580695 L1352.319143,125.795593 L1351.457944,124.031094 L1350.553701,122.288261 L1349.606959,120.568145 L1348.618289,118.87178 L1347.588285,117.20019 L1346.517569,115.554381 L1345.406785,113.935345 L1344.256603,112.344056 L1343.067714,110.781473 L1341.840836,109.248537 L1340.576708,107.746173 L1339.27609,106.275284 L1337.939767,104.836756 L1336.568542,103.431458 L1335.163244,102.060233 L1333.724716,100.72391 L1332.253827,99.423292 L1330.751463,98.159164 L1329.218527,96.932286 L1327.655944,95.743397 L1326.064655,94.593215 L1324.445619,93.482431 L1322.79981,92.411715 L1321.12822,91.381711 L1319.431855,90.393041 L1317.711739,89.446299 L1315.968906,88.542056 L1314.204407,87.680857 L1312.419305,86.86322 L1310.614675,86.089637 L1308.791603,85.360576 L1306.951188,84.676475 L1305.094539,84.037746 L1303.222774,83.444773 L1301.337021,82.897915 L1299.438414,82.3975 L1297.528099,81.94383 L1295.607226,81.537178 L1293.676951,81.177789 L1291.738438,80.865879 L1289.792854,80.601637 L1287.841371,80.385222 L1285.885165,80.216763 L1283.925414,80.096364 L1281.963298,80.024095 L1280,80 L1280,240 Z" fill="#FF4F00"/>
  <path d="M1359.975905,318.036702 L1359.903636,316.074586 L1359.783237,314.114835 L1359.614778,312.158629 L1359.398363,310.207146 L1359.134121,308.261562 L1358.822211,306.323049 L1358.462822,304.392774 L1358.05617,302.471901 L1357.6025,300.561586 L1357.102085,298.662979 L1356.555227,296.777226 L1355.962254,294.905461 L1355.323525,293.048812 L1354.639424,291.208397 L1353.910363,289.385325 L1353.13678,287.580695 L1352.319143,285.795593 L1351.457944,284.031094 L1350.553701,282.288261 L1349.606959,280.568145 L1348.618289,278.87178 L1347.588285,277.20019 L1346.517569,275.554381 L1345.406785,273.935345 L1344.256603,272.344056 L1343.067714,270.781473 L1341.840836,269.248537 L1340.576708,267.746173 L1339.27609,266.275284 L1337.939767,264.836756 L1336.568542,263.431458 L1335.163244,262.060233 L1333.724716,260.72391 L1332.253827,259.423292 L1330.751463,258.159164 L1329.218527,256.932286 L1327.655944,255.743397 L1326.064655,254.593215 L1324.445619,253.482431 L1322.79981,252.411715 L1321.12822,251.381711 L1319.431855,250.393041 L1317.711739,249.446299 L1315.968906,248.542056 L1314.204407,247.680857 L1312.419305,246.86322 L1310.614675,246.089637 L1308.791603,245.360576 L1306.951188,244.676475 L1305.094539,244.037746 L1303.222774,243.444773 L1301.337021,242.897915 L1299.438414,242.3975 L1297.528099,241.94383 L1295.607226,241.537178 L1293.676951,241.177789 L1291.738438,240.865879 L1289.792854,240.601637 L1287.841371,240.385222 L1285.885165,240.216763 L1283.925414,240.096364 L1281.963298,240.024095 L1280,240 L1280,320 L1360,320 Z" fill="#FF4F00"/>
  <path d="M1281.963298,79.975908 L1283.925414,79.903639 L1285.885165,79.783239 L1287.841371,79.614781 L1289.792854,79.398365 L1291.738438,79.134123 L1293.676951,78.822214 L1295.607226,78.462825 L1297.528099,78.056173 L1299.438414,77.602503 L1301.337021,77.102088 L1303.222774,76.555229 L1305.094539,75.962257 L1306.951188,75.323528 L1308.791603,74.639426 L1310.614675,73.910365 L1312.419305,73.136783 L1314.204407,72.319146 L1315.968906,71.457947 L1317.711739,70.553704 L1319.431855,69.606962 L1321.12822,68.618291 L1322.79981,67.588288 L1324.445619,66.517572 L1326.064655,65.406788 L1327.655944,64.256605 L1329.218527,63.067717 L1330.751463,61.840839 L1332.253827,60.57671 L1333.724716,59.276093 L1335.163244,57.939769 L1336.568542,56.568545 L1337.939767,55.163246 L1339.27609,53.724719 L1340.576708,52.25383 L1341.840836,50.751465 L1343.067714,49.21853 L1344.256603,47.655947 L1345.406785,46.064658 L1346.517569,44.445621 L1347.588285,42.799812 L1348.618289,41.128222 L1349.606959,39.431858 L1350.553701,37.711741 L1351.457944,35.968909 L1352.319143,34.20441 L1353.13678,32.419308 L1353.910363,30.614677 L1354.639424,28.791605 L1355.323525,26.951191 L1355.962254,25.094542 L1356.555227,23.222777 L1357.102085,21.337023 L1357.6025,19.438417 L1358.05617,17.528102 L1358.462822,15.607228 L1358.822211,13.676954 L1359.134121,11.73844 L1359.398363,9.792857 L1359.614778,7.841374 L1359.783237,5.885168 L1359.903636,3.925416 L1359.975905,1.963301 L1360,0 L1360,0 L1280,0 L1280,80 Z" fill="#FF4F00"/>
  <rect width="320" height="320" fill="#F3F3F3" x="1600" y="0"/>
  <path d="M1657.19 275.818C1670.45 238.516 1713.07 220.863 1748.83 237.862C1805.62 264.853 1864.86 205.613 1837.86 148.833C1820.86 113.074 1838.52 70.4614 1875.82 57.1902C1903.26 47.429 1917.99 24.2109 1920 0L1600 2.79753e-05L1600 320C1624.21 317.982 1647.43 303.264 1657.19 275.818Z" fill="#121212"/>
  <rect width="320" height="320" fill="#FFA300" x="0" y="320"/>
  <path d="M57.1456 364.397C70.4 401.67 112.979 419.309 148.717 402.323C205.459 375.354 264.653 434.547 237.677 491.283C220.691 527.014 238.33 569.594 275.603 582.854C303.027 592.608 317.741 615.808 319.75 640L320 640L320 320L-3.05176e-05 320L-3.04987e-05 320.25C24.192 322.266 47.392 336.973 57.1456 364.397Z" fill="#F3F3F3"/>
  <rect width="320" height="320" fill="#F3F3F3" x="320" y="320"/>
  <path d="M377.146 364.397C390.4 401.67 432.979 419.309 468.717 402.323C525.459 375.354 584.653 434.547 557.677 491.283C540.691 527.014 558.33 569.594 595.603 582.854C623.027 592.608 637.741 615.808 639.75 640L640 640L640 320L320 320L320 320.25C344.192 322.266 367.392 336.973 377.146 364.397Z" fill="#121212"/>
  <rect width="320" height="320" fill="#FF4F00" x="640" y="320"/>
  <path d="M915.818 582.81C878.516 569.545 860.863 526.933 877.862 491.167C904.853 434.38 845.613 375.141 788.833 402.138C753.074 419.137 710.461 401.484 697.19 364.182C687.429 336.736 664.211 322.011 640 320L640 640L960 640C957.982 615.789 943.264 592.571 915.818 582.81Z" fill="#121212"/>
  <rect width="320" height="320" fill="#FF4F00" x="960" y="320"/>
  <path d="M1222.81 364.182C1209.55 401.484 1166.93 419.137 1131.17 402.138C1074.38 375.147 1015.14 434.387 1042.14 491.167C1059.14 526.926 1041.48 569.539 1004.18 582.81C976.736 592.571 962.011 615.789 960 640L1280 640L1280 320C1255.79 322.018 1232.57 336.736 1222.81 364.182Z" fill="#121212"/>
  <rect width="320" height="320" fill="#F3F3F3" x="1280" y="320"/>
  <path d="M1324.4 582.854C1361.67 569.6 1379.31 527.021 1362.32 491.283C1335.35 434.541 1394.55 375.347 1451.28 402.323C1487.01 419.309 1529.59 401.67 1542.85 364.397C1552.61 336.973 1575.81 322.259 1600 320.25L1600 320L1280 320L1280 640L1280.25 640C1282.27 615.808 1296.97 592.608 1324.4 582.854Z" fill="#121212"/>
  <rect width="320" height="320" fill="#F3F3F3" x="1600" y="320"/>
  <path d="M1862.81 364.182C1849.55 401.484 1806.93 419.137 1771.17 402.138C1714.38 375.147 1655.14 434.387 1682.14 491.167C1699.14 526.926 1681.48 569.539 1644.18 582.81C1616.74 592.571 1602.01 615.789 1600 640L1920 640L1920 320C1895.79 322.018 1872.57 336.736 1862.81 364.182Z" fill="#FFA300"/>
  <rect width="320" height="320" fill="#FFA300" x="0" y="640"/>
  <path d="M-1.27367e-06 960L-1.58956e-05 800L320 640L320 960L-1.27367e-06 960Z" fill="#121212"/>
  <rect width="320" height="320" fill="#F3F3F3" x="320" y="640"/>
  <path d="M320 960L320 800L640 720L640 960L320 960Z" fill="#121212"/>
  <rect width="320" height="320" fill="#121212" x="640" y="640"/>
  <path d="M640 960L640 800L960 640L960 960L640 960Z" fill="#D9D9D6"/>
  <rect width="320" height="320" fill="#121212" x="960" y="640"/>
  <path d="M960 960L960 800L1280 640L1280 960L960 960Z" fill="#D9D9D6"/>
  <rect width="320" height="320" fill="#F3F3F3" x="1280" y="640"/>
  <path d="M1280 960L1280 800L1600 720L1600 960L1280 960Z" fill="#121212"/>
  <rect width="320" height="320" fill="#FFA300" x="1600" y="640"/>
  <path d="M1600 960L1600 800L1920 640L1920 960L1600 960Z" fill="#121212"/>
</svg>
