<?xml version='1.0' encoding='UTF-8'?>
<svg xmlns="http://www.w3.org/2000/svg" width="1920" height="960" viewBox="0 0 1920 960">
  <rect width="320" height="320" fill="#F3F3F3" x="0" y="640"/>
  <path d="M3.91721e-09 960L320 960L320 640C143.32 639.949 0.0511878 783.27 3.91721e-09 960Z" fill="#D9D9D6"/>
  <rect width="320" height="320" fill="#F3F3F3" x="1280" y="640"/>
  <path d="M1280 960L1600 960L1600 640C1423.32 639.949 1280.05 783.27 1280 960Z" fill="#F3F3F3"/>
  <rect width="320" height="320" fill="#F3F3F3" x="640" y="0"/>
  <path d="M640 320L960 320L960 4.19629e-05C783.32 -0.0511897 640.051 143.27 640 320Z" fill="#F3F3F3"/>
  <rect width="320" height="320" fill="#F3F3F3" x="960" y="640"/>
  <path d="M960 640L960 960L1280 960C1280.05 783.32 1136.73 640.051 960 640Z" fill="#D9D9D6"/>
  <rect width="320" height="320" fill="#F3F3F3" x="320" y="640"/>
  <path d="M479.955 800L480 640.045L320 640C319.974 728.34 391.59 799.974 479.955 800Z" fill="#121212"/>
  <rect width="320" height="320" fill="#F3F3F3" x="0" y="0"/>
  <path d="M320 320L-3.05176e-05 320L0 0C176.68 -0.0512085 319.949 143.27 320 320Z" fill="#121212"/>
  <rect width="320" height="320" fill="#F3F3F3" x="960" y="320"/>
  <path d="M960 320L1280 320L1280 640C1103.32 640.051 960.051 496.73 960 320Z" fill="#121212"/>
  <rect width="320" height="320" fill="#F3F3F3" x="1600" y="0"/>
  <path d="M1760.04 160L1760 319.955L1920 320C1920.03 231.66 1848.41 160.026 1760.04 160Z" fill="#121212"/>
  <rect width="320" height="320" fill="#F3F3F3" x="1280" y="320"/>
  <path d="M1520 640L1280.07 640L1280 400C1412.51 399.962 1519.96 507.453 1520 640Z" fill="#D9D9D6"/>
  <rect width="320" height="320" fill="#F3F3F3" x="1280" y="0"/>
  <circle cx="160" cy="160" r="160" transform="matrix(1 1.74846e-07 1.74846e-07 -1 1280 320)" fill="#121212"/>
  <rect width="320" height="320" fill="#F3F3F3" x="1600" y="640"/>
  <path d="M1680 640L1919.93 640L1920 880C1787.49 880.038 1680.04 772.547 1680 640Z" fill="#121212"/>
  <rect width="320" height="320" fill="#F3F3F3" x="640" y="640"/>
  <path d="M880 960L640.067 960L640 720C772.51 719.962 879.962 827.453 880 960Z" fill="#D9D9D6"/>
  <rect width="320" height="320" fill="#F3F3F3" x="0" y="320"/>
  <path d="M240 640L0.0671844 640L-1.04907e-05 400C132.51 399.962 239.962 507.453 240 640Z" fill="#F3F3F3"/>
  <rect width="320" height="320" fill="#F3F3F3" x="320" y="320"/>
  <path d="M640 640L640 320L320 320C319.949 496.68 463.27 639.949 640 640Z" fill="#D9D9D6"/>
  <rect width="320" height="320" fill="#F3F3F3" x="320" y="0"/>
  <path d="M400 320L639.933 320L640 80C507.49 79.9616 400.038 187.453 400 320Z" fill="#D9D9D6"/>
  <rect width="320" height="320" fill="#F3F3F3" x="640" y="320"/>
  <path d="M640 640L960 640L960 320C783.32 319.949 640.051 463.27 640 640Z" fill="#D9D9D6"/>
  <rect width="320" height="320" fill="#F3F3F3" x="960" y="0"/>
  <path d="M1280 -1.39837e-05L960 -2.79714e-05L960 320C1136.68 320.051 1279.95 176.73 1280 -1.39837e-05Z" fill="#D9D9D6"/>
  <rect width="320" height="320" fill="#F3F3F3" x="1600" y="320"/>
  <path d="M1600 640L1920 640L1920 320C1743.32 319.949 1600.05 463.27 1600 640Z" fill="#F3F3F3"/>
</svg>
