<?xml version='1.0' encoding='UTF-8'?>
<svg xmlns="http://www.w3.org/2000/svg" width="200" height="200" viewBox="0 0 200 200">
  <rect width="200" height="200" fill="#F3F3F3" x="0" y="0"/>
  <path d="M0.008 0L0 0L0 200L200 200C89.876 200 0.008 110.417 0.008 0Z" fill="#121212"/>
  <path fill-rule="evenodd" clip-rule="evenodd" d="M179.933 199C85.7297 189.563 10.4137 114.42 1 20.0043C0.344 13.4246 0.008 6.7512 0.008 0L0 0L0 200L200 200C193.229 200 186.535 199.661 179.933 199ZM171.614 199C83.5333 186.485 13.5081 116.612 1 28.3523L1 199L171.614 199Z" fill="#121212"/>
  <path fill-rule="evenodd" clip-rule="evenodd" d="M35 0C35 91.127 108.873 165 200 165V175C103.35 175 25 96.6498 25 0H35Z" fill="#121212"/>
  <path fill-rule="evenodd" clip-rule="evenodd" d="M75 0C75 69.0356 130.964 125 200 125V135C125.442 135 65 74.5584 65 0H75Z" fill="#121212"/>
  <path fill-rule="evenodd" clip-rule="evenodd" d="M115 0C115 46.9442 153.056 85 200 85V95C147.533 95 105 52.4671 105 0H115Z" fill="#121212"/>
  <path fill-rule="evenodd" clip-rule="evenodd" d="M155 0C155 24.8528 175.147 45 200 45V55C169.624 55 145 30.3757 145 0H155Z" fill="#121212"/>
  <path fill-rule="evenodd" clip-rule="evenodd" d="M195 0C195 2.7614 197.239 5 200 5V15C191.716 15 185 8.2843 185 0H195Z" fill="#121212"/>
</svg>
