<svg xmlns="http://www.w3.org/2000/svg" viewBox="0 0 200 200" width="200" height="200">
  <rect width="200" height="200" fill="#F3F3F3"/>
  <path d="M256 0H288V400H256V250.616C256 246.336 250.816 244.184 247.808 247.232C244.592 250.488 241.048 253.416 237.224 255.96C224.088 264.712 216 279.28 216 295.064V400.008H184V295.064C184 279.28 175.912 264.72 162.776 255.96C158.952 253.416 155.408 250.488 152.192 247.232C149.184 244.184 144 246.336 144 250.616V400H112V0H144V149.384C144 153.664 149.184 155.816 152.192 152.768C155.408 149.512 158.952 146.584 162.776 144.04C175.912 135.288 184 120.72 184 104.936V0H216V104.944C216 120.608 223.864 135.232 236.944 143.856C240.76 146.368 244.304 149.264 247.52 152.48C247.6 152.56 247.68 152.64 247.76 152.72C250.792 155.784 256 153.688 256 149.376V0Z" fill="#121212"/>
  <path d="M72 0H40V400H72V0Z" fill="#121212"/>
  <path d="M-100 600C-100 615.448 -103.504 630.072 -109.76 643.128C-111.272 646.28 -112 649.76 -112 653.256V800H-144V697.128C-144 691.008 -150.416 687.08 -155.904 689.776C-156.032 689.84 -156.16 689.904 -156.288 689.968C-173.368 698.288 -183.992 715.848 -183.992 734.84V800H-215.992V734.84C-215.992 715.848 -226.624 698.288 -243.696 689.968C-243.824 689.904 -243.952 689.84 -244.08 689.776C-249.568 687.072 -255.984 691.008 -255.984 697.128V800H-287.984V653.256C-287.984 649.76 -288.712 646.28 -290.224 643.128C-296.48 630.072 -299.984 615.448 -299.984 600C-299.984 584.552 -296.48 569.928 -290.224 556.872C-288.712 553.72 -287.984 550.24 -287.984 546.744V400H-255.984V502.872C-255.984 508.992 -249.568 512.92 -244.08 510.224C-243.952 510.16 -243.824 510.096 -243.696 510.032C-226.616 501.712 -215.992 484.152 -215.992 465.16V400H-183.992V465.16C-183.992 484.152 -173.36 501.712 -156.288 510.032C-156.16 510.096 -156.032 510.16 -155.904 510.224C-150.416 512.928 -144 508.992 -144 502.872V400H-112V546.744C-112 550.24 -111.272 553.72 -109.76 556.872C-103.504 569.928 -100 584.552 -100 600Z" fill="#121212"/>
</svg>
