<svg xmlns="http://www.w3.org/2000/svg" viewBox="0 0 200 200" width="200" height="200">
  <rect width="200" height="200" fill="#F3F3F3"/>
  <path d="M400 -200C400 -89.544 355.232 10.456 282.84 82.84C210.456 155.232 110.456 200 0 200L400 200L400 -200Z" fill="#121212"/>
  <path d="M268.8 0C268.8 -37.12 238.712 -67.2 201.6 -67.2C164.488 -67.2 134.4 -37.12 134.4 0C134.4 37.12 164.488 67.2 201.6 67.2C220.16 67.2 236.96 59.68 249.12 47.52C261.28 35.36 268.8 18.56 268.8 0Z" fill="#121212"/>
  <path d="M200.056 -199.944L0.056 -200L0 0C110.456 0.032 200.024 -89.488 200.056 -199.944Z" fill="#121212"/>
  <path d="M256 -600H288V-200H256V-349.384C256 -353.664 250.816 -355.816 247.808 -352.768C244.592 -349.512 241.048 -346.584 237.224 -344.04C224.088 -335.288 216 -320.72 216 -304.936V-199.992H184V-304.936C184 -320.72 175.912 -335.28 162.776 -344.04C158.952 -346.584 155.408 -349.512 152.192 -352.768C149.184 -355.816 144 -353.664 144 -349.384V-200H112V-600H144V-450.616C144 -446.336 149.184 -444.184 152.192 -447.232C155.408 -450.488 158.952 -453.416 162.776 -455.96C175.912 -464.712 184 -479.28 184 -495.064V-600H216V-495.056C216 -479.392 223.864 -464.768 236.944 -456.144C240.76 -453.632 244.304 -450.736 247.52 -447.52C247.6 -447.44 247.68 -447.36 247.76 -447.28C250.792 -444.216 256 -446.312 256 -450.624V-600Z" fill="#121212"/>
  <path d="M-100 0C-100 15.448 -103.504 30.072 -109.76 43.128C-111.272 46.28 -112 49.76 -112 53.256V200H-144V97.128C-144 91.008 -150.416 87.08 -155.904 89.776C-156.032 89.84 -156.16 89.904 -156.288 89.968C-173.368 98.288 -183.992 115.848 -183.992 134.84V200H-215.992V134.84C-215.992 115.848 -226.624 98.288 -243.696 89.968C-243.824 89.904 -243.952 89.84 -244.08 89.776C-249.568 87.072 -255.984 91.008 -255.984 97.128V200H-287.984V53.256C-287.984 49.76 -288.712 46.28 -290.224 43.128C-296.48 30.072 -299.984 15.448 -299.984 0C-299.984 -15.448 -296.48 -30.072 -290.224 -43.128C-288.712 -46.28 -287.984 -49.76 -287.984 -53.256V-200H-255.984V-97.128C-255.984 -91.008 -249.568 -87.08 -244.08 -89.776C-243.952 -89.84 -243.824 -89.904 -243.696 -89.968C-226.616 -98.288 -215.992 -115.848 -215.992 -134.84V-200H-183.992V-134.84C-183.992 -115.848 -173.36 -98.288 -156.288 -89.968C-156.16 -89.904 -156.032 -89.84 -155.904 -89.776C-150.416 -87.072 -144 -91.008 -144 -97.128V-200H-112V-53.256C-112 -49.76 -111.272 -46.28 -109.76 -43.128C-103.504 -30.072 -100 -15.448 -100 0Z" fill="#121212"/>
</svg>
