<svg xmlns="http://www.w3.org/2000/svg" viewBox="0 0 200 200" width="200" height="200">
  <rect width="200" height="200" fill="#F3F3F3"/>
  <path d="M213.674 335.594C213.674 438.341 206.843 521.672 198.41 521.672C198.333 521.672 198.243 521.672 198.166 521.602C198.09 521.672 198 521.672 197.923 521.672C189.491 521.672 182.661 438.354 182.661 335.594C182.661 232.834 189.491 149.514 197.923 149.514C198 149.514 198.09 149.514 198.166 149.586C198.243 149.514 198.333 149.514 198.41 149.514C206.843 149.514 213.674 232.834 213.674 335.594Z" fill="#121212"/>
  <path d="M103.405 335.594C103.405 438.341 88.909 521.672 70.997 521.672C61.907 521.672 53.656 499.976 47.762 465.042C46.81 459.379 38.742 459.168 37.522 464.782C29.955 499.87 19.331 521.672 7.557 521.672C-1.138 521.672 -9.216 509.762 -15.877 489.416C-17.654 483.989 -25.024 483.778 -27.128 489.075C-35.299 509.632 -45.18 521.672 -55.885 521.672C-84.002 521.672 -106.796 438.354 -106.796 335.594C-106.796 232.834 -84.002 149.514 -55.885 149.514C-45.18 149.514 -35.299 161.555 -27.128 182.112C-25.024 187.41 -17.654 187.198 -15.877 181.771C-9.216 161.426 -1.149 149.514 7.557 149.514C19.32 149.514 29.944 171.317 37.522 206.403C38.731 212.018 46.797 211.806 47.762 206.146C53.667 171.21 61.92 149.514 70.997 149.514C88.909 149.514 103.405 232.834 103.405 335.594Z" fill="#121212"/>
  <path d="M165.429 335.594C165.429 438.341 155.392 521.672 143.03 521.672C130.67 521.672 120.632 438.354 120.632 335.594C120.632 232.834 130.67 149.514 143.03 149.514C155.392 149.514 165.429 232.834 165.429 335.594Z" fill="#121212"/>
  <path d="M196.117 17.475C166.09 17.475 141.747 41.818 141.747 71.845C141.747 101.872 166.09 126.214 196.117 126.214C226.144 126.214 250.485 101.872 250.485 71.845C250.485 41.818 226.144 17.475 196.117 17.475Z" fill="#121212"/>
</svg>
