<svg xmlns="http://www.w3.org/2000/svg" viewBox="0 0 200 200" width="200" height="200">
  <rect width="200" height="200" fill="#F3F3F3"/>
  <path d="M303.13 335.581C303.13 438.33 280.336 521.661 252.218 521.661C241.514 521.661 231.634 509.619 223.461 489.075C221.346 483.766 213.965 483.978 212.174 489.416C205.491 509.762 197.472 521.672 188.778 521.672C177.014 521.672 166.39 499.87 158.811 464.782C157.603 459.168 149.536 459.379 148.571 465.042C142.667 499.976 134.414 521.672 125.336 521.672C107.424 521.672 92.93 438.354 92.93 335.594C92.93 232.834 107.424 149.514 125.336 149.514C134.426 149.514 142.678 171.21 148.571 206.146C149.525 211.806 157.59 212.018 158.811 206.403C166.378 171.317 177.002 149.514 188.778 149.514C197.472 149.514 205.504 161.426 212.174 181.771C213.954 187.21 221.346 187.421 223.461 182.112C231.634 161.555 241.514 149.526 252.218 149.526C280.336 149.526 303.13 232.845 303.13 335.605V335.581Z" fill="#121212"/>
  <path d="M79.144 335.594C79.144 438.341 69.125 521.672 56.786 521.672C44.446 521.672 34.347 438.354 34.347 335.594C34.347 232.834 44.368 149.514 56.786 149.514C69.203 149.514 79.144 232.834 79.144 335.594Z" fill="#121212"/>
  <path d="M13.674 335.594C13.674 438.341 6.843 521.672 -1.59 521.672C-1.667 521.672 -1.757 521.672 -1.834 521.602C-1.91 521.672 -2 521.672 -2.077 521.672C-10.509 521.672 -17.339 438.354 -17.339 335.594C-17.339 232.834 -10.509 149.514 -2.077 149.514C-2 149.514 -1.91 149.514 -1.834 149.586C-1.757 149.514 -1.667 149.514 -1.59 149.514C6.843 149.514 13.674 232.834 13.674 335.594Z" fill="#121212"/>
  <path d="M-3.883 17.475C-33.91 17.475 -58.253 41.818 -58.253 71.845C-58.253 101.872 -33.91 126.214 -3.883 126.214C26.144 126.214 50.485 101.872 50.485 71.845C50.485 41.818 26.144 17.475 -3.883 17.475Z" fill="#121212"/>
</svg>
