<svg xmlns="http://www.w3.org/2000/svg" viewBox="0 0 200 200" width="200" height="200">
  <rect width="200" height="200" fill="#F3F3F3"/>
  <path d="M20 0H0V200H20V0Z" fill="#121212"/>
  <path d="M200 0H180V200H200V0Z" fill="#121212"/>
  <path d="M164 0H144V200H164V0Z" fill="#121212"/>
  <path d="M128 0H108V200H128V0Z" fill="#121212"/>
  <path d="M92 0H72V200H92V0Z" fill="#121212"/>
  <path d="M56 0H36V200H56V0Z" fill="#121212"/>
  <path d="M107.2 104.259C104.82 104.091 102.42 104 100 104C97.58 104 95.18 104.091 92.8 104.259H107.2Z" fill="#121212"/>
  <path d="M434.136 -270.06C443.2 -291.492 456.184 -310.744 472.72 -327.28C489.256 -343.816 508.509 -356.8 529.941 -365.864C552.12 -375.244 575.688 -380 600 -380V-400C489.544 -400 400 -310.456 400 -200H420C420 -224.309 424.755 -247.88 434.136 -270.06Z" fill="#121212"/>
  <path d="M467.309 -256.044C474.56 -273.188 484.944 -288.592 498.176 -301.824C511.408 -315.056 526.808 -325.44 543.957 -332.692C561.696 -340.196 580.552 -344 600 -344V-364C509.424 -364 436 -290.576 436 -200H456C456 -219.448 459.805 -238.304 467.309 -256.044Z" fill="#121212"/>
  <path d="M500.48 -242.032C505.92 -254.892 513.707 -266.444 523.632 -276.368C533.555 -286.292 545.109 -294.084 557.968 -299.52C571.269 -305.148 585.413 -308 600 -308V-328C529.309 -328 472 -270.692 472 -200H492C492 -214.589 494.853 -228.733 500.48 -242.032Z" fill="#121212"/>
  <path d="M549.088 -250.912C562.688 -264.512 580.768 -272 600 -272V-292C549.189 -292 508 -250.812 508 -200H528C528 -219.232 535.488 -237.312 549.088 -250.912Z" fill="#121212"/>
  <path d="M600 -236V-256C569.072 -256 544 -230.928 544 -200H564C564 -219.853 580.147 -236 600 -236Z" fill="#121212"/>
</svg>
