<?xml version='1.0' encoding='UTF-8'?>
<svg xmlns="http://www.w3.org/2000/svg" version="1.1" width="1920" height="960" viewBox="0 0 1920 960">
<rect x="0.000" y="0.000" width="320.000" height="320.000" fill="#F3F3F3"/>
<g transform="translate(0.000,0.000) scale(1.60000)"><path d="M150 100H200C200 44.772 155.228 0 100 0C44.772 0 0 44.772 0 100H50C50 100 72.384 100 100 100C127.616 100 150 100 150 100Z" fill="#121212"/>
  <path d="M45 200H65V100H45V200Z" fill="#121212"/>
  <path d="M90 200H110V100H90V200Z" fill="#121212"/>
  <path d="M135 200H155V100H135V200Z" fill="#121212"/>
  <path d="M0 200H20V100H0V200Z" fill="#121212"/>
  <path d="M180 200H200V100H180V200Z" fill="#121212"/></g>
<rect x="320.000" y="0.000" width="320.000" height="320.000" fill="#121212"/>
<g transform="translate(320.000,0.000) scale(1.60000) rotate(180,100,100)"><path d="M150 100H200C200 44.772 155.228 0 100 0C44.772 0 0 44.772 0 100H50C50 100 72.384 100 100 100C127.616 100 150 100 150 100Z" fill="#D9D9D6"/>
  <path d="M45 200H65V100H45V200Z" fill="#D9D9D6"/>
  <path d="M90 200H110V100H90V200Z" fill="#D9D9D6"/>
  <path d="M135 200H155V100H135V200Z" fill="#D9D9D6"/>
  <path d="M0 200H20V100H0V200Z" fill="#D9D9D6"/>
  <path d="M180 200H200V100H180V200Z" fill="#D9D9D6"/></g>
<rect x="640.000" y="0.000" width="320.000" height="320.000" fill="#FFFFFF"/>
<g transform="translate(640.000,0.000) scale(1.60000) rotate(270,100,100)"><path d="M150 100H200C200 44.772 155.228 0 100 0C44.772 0 0 44.772 0 100H50C50 100 72.384 100 100 100C127.616 100 150 100 150 100Z" fill="#4997D0"/>
  <path d="M45 200H65V100H45V200Z" fill="#4997D0"/>
  <path d="M90 200H110V100H90V200Z" fill="#4997D0"/>
  <path d="M135 200H155V100H135V200Z" fill="#4997D0"/>
  <path d="M0 200H20V100H0V200Z" fill="#4997D0"/>
  <path d="M180 200H200V100H180V200Z" fill="#4997D0"/></g>
<rect x="960.000" y="0.000" width="320.000" height="320.000" fill="#FFFFFF"/>
<g transform="translate(960.000,0.000) scale(1.60000)"><path fill-rule="evenodd" clip-rule="evenodd" d="M100 135.417L100 149.167L190.047 149.167L190 199.953L200 200L200 0L190 0C190 107.037 159.583 135.417 100 135.417Z" fill="#FFA300"/></g>
<rect x="1280.000" y="0.000" width="320.000" height="320.000" fill="#FFFFFF"/>
<g transform="translate(1280.000,0.000) scale(1.60000) rotate(270,100,100)"><path d="M166.667 200C129.848 200 33.3333 200 33.3333 200C33.3333 163.181 63.1809 133.333 99.9999 133.333C136.819 133.333 166.667 163.181 166.667 200Z" fill="#FF4F00"/></g>
<rect x="1600.000" y="0.000" width="320.000" height="320.000" fill="#FFFFFF"/>
<g transform="translate(1600.000,0.000) scale(1.60000) rotate(90,100,100)"><path d="M166.667 200C129.848 200 33.3333 200 33.3333 200C33.3333 163.181 63.1809 133.333 99.9999 133.333C136.819 133.333 166.667 163.181 166.667 200Z" fill="#121212"/></g>
<rect x="0.000" y="320.000" width="320.000" height="320.000" fill="#F3F3F3"/>
<g transform="translate(0.000,320.000) scale(1.60000) rotate(90,100,100)"><path d="M200 0L0 200L0 0L200 0Z" fill="#4997D0"/>
  <path d="M100 200L200 100L200 200L100 200Z" fill="#4997D0"/></g>
<rect x="320.000" y="320.000" width="320.000" height="320.000" fill="#F3F3F3"/>
<g transform="translate(320.000,320.000) scale(1.60000) rotate(90,100,100)"><path d="M200 0L0 200L0 0L200 0Z" fill="#FFA300"/>
  <path d="M100 200L200 100L200 200L100 200Z" fill="#FFA300"/></g>
<rect x="640.000" y="320.000" width="320.000" height="320.000" fill="#FFFFFF"/>
<g transform="translate(640.000,320.000) scale(1.60000) rotate(270,100,100)"><path fill-rule="evenodd" clip-rule="evenodd" d="M100 135.417L100 149.167L190.047 149.167L190 199.953L200 200L200 0L190 0C190 107.037 159.583 135.417 100 135.417Z" fill="#121212"/></g>
<rect x="960.000" y="320.000" width="320.000" height="320.000" fill="#FFFFFF"/>
<g transform="translate(960.000,320.000) scale(1.60000)"><path fill-rule="evenodd" clip-rule="evenodd" d="M100 135.417L100 149.167L190.047 149.167L190 199.953L200 200L200 0L190 0C190 107.037 159.583 135.417 100 135.417Z" fill="#FF4F00"/></g>
<rect x="1280.000" y="320.000" width="320.000" height="320.000" fill="#D9D9D6"/>
<g transform="translate(1280.000,320.000) scale(1.60000) rotate(270,100,100)"><path d="M166.667 200C129.848 200 33.3333 200 33.3333 200C33.3333 163.181 63.1809 133.333 99.9999 133.333C136.819 133.333 166.667 163.181 166.667 200Z" fill="#F3F3F3"/></g>
<rect x="1600.000" y="320.000" width="320.000" height="320.000" fill="#F3F3F3"/>
<g transform="translate(1600.000,320.000) scale(1.60000) rotate(180,100,100)"><path d="M200 0L0 200L0 0L200 0Z" fill="#FFA300"/>
  <path d="M100 200L200 100L200 200L100 200Z" fill="#FFA300"/></g>
<rect x="0.000" y="640.000" width="320.000" height="320.000" fill="#121212"/>
<g transform="translate(0.000,640.000) scale(1.60000) rotate(180,100,100)"><path d="M200 0L0 200L0 0L200 0Z" fill="#FFFFFF"/>
  <path d="M100 200L200 100L200 200L100 200Z" fill="#FFFFFF"/></g>
<rect x="320.000" y="640.000" width="320.000" height="320.000" fill="#FFFFFF"/>
<g transform="translate(320.000,640.000) scale(1.60000) rotate(180,100,100)"><path d="M166.667 200C129.848 200 33.3333 200 33.3333 200C33.3333 163.181 63.1809 133.333 99.9999 133.333C136.819 133.333 166.667 163.181 166.667 200Z" fill="#FF4F00"/></g>
<rect x="640.000" y="640.000" width="320.000" height="320.000" fill="#121212"/>
<g transform="translate(640.000,640.000) scale(1.60000) rotate(270,100,100)"><path d="M166.667 200C129.848 200 33.3333 200 33.3333 200C33.3333 163.181 63.1809 133.333 99.9999 133.333C136.819 133.333 166.667 163.181 166.667 200Z" fill="#FFFFFF"/></g>
<rect x="960.000" y="640.000" width="320.000" height="320.000" fill="#D9D9D6"/>
<g transform="translate(960.000,640.000) scale(1.60000)"><path fill-rule="evenodd" clip-rule="evenodd" d="M100 135.417L100 149.167L190.047 149.167L190 199.953L200 200L200 0L190 0C190 107.037 159.583 135.417 100 135.417Z" fill="#F3F3F3"/></g>
<rect x="1280.000" y="640.000" width="320.000" height="320.000" fill="#FFFFFF"/>
<g transform="translate(1280.000,640.000) scale(1.60000)"><path d="M150 100H200C200 44.772 155.228 0 100 0C44.772 0 0 44.772 0 100H50C50 100 72.384 100 100 100C127.616 100 150 100 150 100Z" fill="#FFA300"/>
  <path d="M45 200H65V100H45V200Z" fill="#FFA300"/>
  <path d="M90 200H110V100H90V200Z" fill="#FFA300"/>
  <path d="M135 200H155V100H135V200Z" fill="#FFA300"/>
  <path d="M0 200H20V100H0V200Z" fill="#FFA300"/>
  <path d="M180 200H200V100H180V200Z" fill="#FFA300"/></g>
<rect x="1600.000" y="640.000" width="320.000" height="320.000" fill="#F3F3F3"/>
<g transform="translate(1600.000,640.000) scale(1.60000)"><path d="M150 100H200C200 44.772 155.228 0 100 0C44.772 0 0 44.772 0 100H50C50 100 72.384 100 100 100C127.616 100 150 100 150 100Z" fill="#FF4F00"/>
  <path d="M45 200H65V100H45V200Z" fill="#FF4F00"/>
  <path d="M90 200H110V100H90V200Z" fill="#FF4F00"/>
  <path d="M135 200H155V100H135V200Z" fill="#FF4F00"/>
  <path d="M0 200H20V100H0V200Z" fill="#FF4F00"/>
  <path d="M180 200H200V100H180V200Z" fill="#FF4F00"/></g>
</svg>
