<?xml version='1.0' encoding='UTF-8'?>
<svg xmlns="http://www.w3.org/2000/svg" version="1.1" width="1920" height="960" viewBox="0 0 1920 960">
<rect width="1920" height="960" fill="#FFFFFF"/>
<rect x="0.000" y="0.000" width="640.000" height="640.000" fill="#F3F3F3"/>
<g transform="translate(0.000,0.000) scale(3.20000)"><path d="M100.1 200 C11.0989 200 -33.4731 92.3937 29.4603 29.4603 C92.3937 -33.4732 200 11.0989 200 100.1 L200 200 L100.1 200 Z" fill="#FF4F00"/></g>
<rect x="640.000" y="0.000" width="320.000" height="320.000" fill="#FFFFFF"/>
<g transform="translate(640.000,0.000) scale(1.60000) rotate(270,100,100)"><path d="M150 0L150 150L0 150L0 0L150 0Z" fill="#FF4F00"/></g>
<rect x="1600.000" y="0.000" width="320.000" height="320.000" fill="#F3F3F3"/>
<g transform="translate(1600.000,0.000) scale(1.60000) rotate(90,100,100)"><path d="M164.256 27.6135C155.966 50.9277 129.333 61.9603 106.979 51.3361C71.4878 34.4669 34.4629 71.4918 51.3361 106.979C61.9603 129.329 50.9277 155.962 27.6135 164.256C10.4602 170.357 1.257 184.868 0 200H200V0C184.868 1.261 170.357 10.4602 164.256 27.6135Z" fill="#3A4A6B"/></g>
<rect x="640.000" y="320.000" width="320.000" height="320.000" fill="#FFFFFF"/>
<g transform="translate(640.000,320.000) scale(1.60000) rotate(90,100,100)"><path d="M50 50C50 22.3858 72.3858 0 100 0C127.614 0 150 22.3858 150 50V150C150 177.614 127.614 200 100 200C72.3858 200 50 177.614 50 150V50Z" fill="#D63A8C"/>
  <circle cx="99.9998" cy="146.333" r="33.3333" fill="#FFFFFF"/></g>
<rect x="960.000" y="320.000" width="320.000" height="320.000" fill="#D9D9D6"/>
<g transform="translate(960.000,320.000) scale(1.60000)"><path d="M50 50C50 22.3858 72.3858 0 100 0C127.614 0 150 22.3858 150 50V150C150 177.614 127.614 200 100 200C72.3858 200 50 177.614 50 150V50Z" fill="#F3F3F3"/>
  <circle cx="99.9998" cy="146.333" r="33.3333" fill="#D9D9D6"/></g>
<rect x="1280.000" y="320.000" width="320.000" height="320.000" fill="#F3F3F3"/>
<g transform="translate(1280.000,320.000) scale(1.60000) rotate(90,100,100)"><path d="M150 0L150 150L0 150L0 0L150 0Z" fill="#FF4F00"/></g>
<rect x="1600.000" y="320.000" width="320.000" height="320.000" fill="#F3F3F3"/>
<g transform="translate(1600.000,320.000) scale(1.60000)"><path d="M150 0L150 150L0 150L0 0L150 0Z" fill="#4997D0"/></g>
<rect x="0.000" y="640.000" width="320.000" height="320.000" fill="#F3F3F3"/>
<g transform="translate(0.000,640.000) scale(1.60000) rotate(90,100,100)"><path d="M150 0L150 150L0 150L0 0L150 0Z" fill="#D63A8C"/></g>
<rect x="320.000" y="640.000" width="320.000" height="320.000" fill="#FFFFFF"/>
<g transform="translate(320.000,640.000) scale(1.60000)"><path d="M164.256 27.6135C155.966 50.9277 129.333 61.9603 106.979 51.3361C71.4878 34.4669 34.4629 71.4918 51.3361 106.979C61.9603 129.329 50.9277 155.962 27.6135 164.256C10.4602 170.357 1.257 184.868 0 200H200V0C184.868 1.261 170.357 10.4602 164.256 27.6135Z" fill="#FFA300"/></g>
<rect x="640.000" y="640.000" width="320.000" height="320.000" fill="#121212"/>
<g transform="translate(640.000,640.000) scale(1.60000) rotate(180,100,100)"><path d="M50 50C50 22.3858 72.3858 0 100 0C127.614 0 150 22.3858 150 50V150C150 177.614 127.614 200 100 200C72.3858 200 50 177.614 50 150V50Z" fill="#F3F3F3"/>
  <circle cx="99.9998" cy="146.333" r="33.3333" fill="#121212"/></g>
<rect x="1600.000" y="640.000" width="320.000" height="320.000" fill="#F3F3F3"/>
<g transform="translate(1600.000,640.000) scale(1.60000) rotate(90,100,100)"><path d="M150 0L150 150L0 150L0 0L150 0Z" fill="#3A4A6B"/></g>
</svg>
