<?xml version='1.0' encoding='UTF-8'?>
<svg xmlns="http://www.w3.org/2000/svg" version="1.1" width="1920" height="960" viewBox="0 0 1920 960">
<rect width="1920" height="960" fill="#FFFFFF"/>
<rect x="640.000" y="0.000" width="320.000" height="320.000" fill="#FFFFFF"/>
<g transform="translate(640.000,0.000) scale(1.60000) rotate(270,100,100)"><path d="M101 143C101 149.075 96.0751 154 90 154C83.9249 154 79 149.075 79 143C79 136.925 83.9249 132 90 132C96.0751 132 101 136.925 101 143Z" fill="#2EA84F"/>
  <path fill-rule="evenodd" clip-rule="evenodd" d="M25 200L25 0L35 0L35 200L25 200Z" fill="#2EA84F"/>
  <path fill-rule="evenodd" clip-rule="evenodd" d="M65 200L65 0L75 0L75 200L65 200Z" fill="#2EA84F"/>
  <path fill-rule="evenodd" clip-rule="evenodd" d="M105 200L105 0L115 0L115 200L105 200Z" fill="#2EA84F"/>
  <path fill-rule="evenodd" clip-rule="evenodd" d="M145 200L145 0L155 0L155 200L145 200Z" fill="#2EA84F"/>
  <path fill-rule="evenodd" clip-rule="evenodd" d="M185 200L185 0L195 0L195 200L185 200Z" fill="#2EA84F"/></g>
<rect x="960.000" y="0.000" width="320.000" height="320.000" fill="#FFFFFF"/>
<g transform="translate(960.000,0.000) scale(1.60000) rotate(90,100,100)"><!-- Generator: Adobe Illustrator 30.2.1, SVG Export Plug-In . SVG Version: 2.1.1 Build 1)  -->
  
  <path d="M179.02,79.99h.98s-.98.02-.98.02l-.98.04-.98.06-.98.08-.98.11-.97.13-.97.16-.96.18-.96.2-.96.23-.95.25-.94.27-.94.3-.93.32-.92.34-.91.36-.9.39-.89.41-.88.43-.88.45-.86.48-.84.49-.84.52-.82.53-.81.56-.8.57-.78.6-.77.61-.75.63-.73.65-.72.67-.7.69-.69.7-.67.72-.65.73-.63.75-.61.77-.6.78-.57.8-.56.81-.53.82-.52.84-.49.84-.48.86-.45.88-.43.88-.41.89-.39.9-.36.91-.34.92-.32.93-.3.94-.27.94-.25.95-.23.96-.2.96-.18.96-.16.97-.13.97-.11.98-.08.98-.06.98-.04.98v.98s0,.98,0,.98l.04.98.06.98.08.98.11.98.13.97.16.97.18.96.2.96.23.96.25.95.27.94.3.94.32.93.34.92.36.91.39.9.41.89.43.88.45.88.48.86.49.84.52.84.53.82.56.81.57.8.6.78.61.77.63.75.65.73.67.72.69.7.7.69.72.67.73.65.75.63.77.61.02.02c-26.35,12-51.7,3.58-72.75-5.01-14.87-6.08-30.68-12.54-49.58-12.54-9.41,0-17.04,7.39-17.04,16.5s7.63,16.5,17.04,16.5c-18.27,0-33.08,14.77-33.08,33V0h180-.98s-.98.05-.98.05l-.98.06-.98.08-.98.11-.97.13-.97.16-.96.18-.96.2-.96.23-.95.25-.94.27-.94.3-.93.32-.92.34-.91.36-.9.39-.89.41-.88.43-.88.45-.86.48-.84.49-.84.52-.82.53-.81.56-.8.57-.78.6-.77.61-.75.63-.73.65-.72.67-.7.69-.69.7-.67.72-.65.73-.63.75-.61.77-.6.78-.57.8-.56.81-.53.82-.52.84-.49.84-.48.86-.45.88-.43.88-.41.89-.39.9-.36.91-.34.92-.32.93-.3.94-.27.94-.25.95-.23.96-.2.96-.18.96-.16.97-.13.97-.11.98-.08.98-.06.98-.04.98v.98s0,.98,0,.98l.04.98.06.98.08.98.11.98.13.97.16.97.18.96.2.96.23.96.25.95.27.94.3.94.32.93.34.92.36.91.39.9.41.89.43.88.45.88.48.86.49.84.52.84.53.82.56.81.57.8.6.78.61.77.63.75.65.73.67.72.69.7.7.69.72.67.73.65.75.63.77.61.78.6.8.57.81.56.82.53.84.52.84.49.86.48.88.45.88.43.89.41.9.39.91.36.92.34.93.32.94.3.94.27.95.25.96.23.96.2.96.18.97.16.97.13.98.11.98.08.98.06.98.04Z" fill="#FFFFFF"/>
  <path d="M200,0v200H0c0-18.23,14.81-33,33.08-33-9.41,0-17.04-7.39-17.04-16.5s7.63-16.5,17.04-16.5c18.9,0,34.71,6.46,49.58,12.54,21.05,8.59,46.4,17.01,72.75,5.01l-.02-.02-.77-.61-.75-.63-.73-.65-.72-.67-.7-.69-.69-.7-.67-.72-.65-.73-.63-.75-.61-.77-.6-.78-.57-.8-.56-.81-.53-.82-.52-.84-.49-.84-.48-.86-.45-.88-.43-.88-.41-.89-.39-.9-.36-.91-.34-.92-.32-.93-.3-.94-.27-.94-.25-.95-.23-.96-.2-.96-.18-.96-.16-.97-.13-.97-.11-.98-.08-.98-.06-.98-.04-.98v-.98s0-.98,0-.98l.04-.98.06-.98.08-.98.11-.98.13-.97.16-.97.18-.96.2-.96.23-.96.25-.95.27-.94.3-.94.32-.93.34-.92.36-.91.39-.9.41-.89.43-.88.45-.88.48-.86.49-.84.52-.84.53-.82.56-.81.57-.8.6-.78.61-.77.63-.75.65-.73.67-.72.69-.7.7-.69.72-.67.73-.65.75-.63.77-.61.78-.6.8-.57.81-.56.82-.53.84-.52.84-.49.86-.48.88-.45.88-.43.89-.41.9-.39.91-.36.92-.34.93-.32.94-.3.94-.27.95-.25.96-.23.96-.2.96-.18.97-.16.97-.13.98-.11.98-.08.98-.06.98-.04h.98s-.98-.02-.98-.02l-.98-.04-.98-.06-.98-.08-.98-.11-.97-.13-.97-.16-.96-.18-.96-.2-.96-.23-.95-.25-.94-.27-.94-.3-.93-.32-.92-.34-.91-.36-.9-.39-.89-.41-.88-.43-.88-.45-.86-.48-.84-.49-.84-.52-.82-.53-.81-.56-.8-.57-.78-.6-.77-.61-.75-.63-.73-.65-.72-.67-.7-.69-.69-.7-.67-.72-.65-.73-.63-.75-.61-.77-.6-.78-.57-.8-.56-.81-.53-.82-.52-.84-.49-.84-.48-.86-.45-.88-.43-.88-.41-.89-.39-.9-.36-.91-.34-.92-.32-.93-.3-.94-.27-.94-.25-.95-.23-.96-.2-.96-.18-.96-.16-.97-.13-.97-.11-.98-.08-.98-.06-.98-.04-.98v-.98s0-.98,0-.98l.04-.98.06-.98.08-.98.11-.98.13-.97.16-.97.18-.96.2-.96.23-.96.25-.95.27-.94.3-.94.32-.93.34-.92.36-.91.39-.9.41-.89.43-.88.45-.88.48-.86.49-.84.52-.84.53-.82.56-.81.57-.8.6-.78.61-.77.63-.75.65-.73.67-.72.69-.7.7-.69.72-.67.73-.65.75-.63.77-.61.78-.6.8-.57.81-.56.82-.53.84-.52.84-.49.86-.48.88-.45.88-.43.89-.41.9-.39.91-.36.92-.34.93-.32.94-.3.94-.27.95-.25.96-.23.96-.2.96-.18.97-.16.97-.13.98-.11.98-.08.98-.06.98-.04h.98s20-.01,20-.01Z" fill="#FFA300"/></g>
<rect x="1280.000" y="0.000" width="320.000" height="320.000" fill="#FFFFFF"/>
<g transform="translate(1280.000,0.000) scale(1.60000) rotate(270,100,100)"><!-- Generator: Adobe Illustrator 30.2.1, SVG Export Plug-In . SVG Version: 2.1.1 Build 1)  -->
  
  <path d="M179.02,79.99h.98s-.98.02-.98.02l-.98.04-.98.06-.98.08-.98.11-.97.13-.97.16-.96.18-.96.2-.96.23-.95.25-.94.27-.94.3-.93.32-.92.34-.91.36-.9.39-.89.41-.88.43-.88.45-.86.48-.84.49-.84.52-.82.53-.81.56-.8.57-.78.6-.77.61-.75.63-.73.65-.72.67-.7.69-.69.7-.67.72-.65.73-.63.75-.61.77-.6.78-.57.8-.56.81-.53.82-.52.84-.49.84-.48.86-.45.88-.43.88-.41.89-.39.9-.36.91-.34.92-.32.93-.3.94-.27.94-.25.95-.23.96-.2.96-.18.96-.16.97-.13.97-.11.98-.08.98-.06.98-.04.98v.98s0,.98,0,.98l.04.98.06.98.08.98.11.98.13.97.16.97.18.96.2.96.23.96.25.95.27.94.3.94.32.93.34.92.36.91.39.9.41.89.43.88.45.88.48.86.49.84.52.84.53.82.56.81.57.8.6.78.61.77.63.75.65.73.67.72.69.7.7.69.72.67.73.65.75.63.77.61.02.02c-26.35,12-51.7,3.58-72.75-5.01-14.87-6.08-30.68-12.54-49.58-12.54-9.41,0-17.04,7.39-17.04,16.5s7.63,16.5,17.04,16.5c-18.27,0-33.08,14.77-33.08,33V0h180-.98s-.98.05-.98.05l-.98.06-.98.08-.98.11-.97.13-.97.16-.96.18-.96.2-.96.23-.95.25-.94.27-.94.3-.93.32-.92.34-.91.36-.9.39-.89.41-.88.43-.88.45-.86.48-.84.49-.84.52-.82.53-.81.56-.8.57-.78.6-.77.61-.75.63-.73.65-.72.67-.7.69-.69.7-.67.72-.65.73-.63.75-.61.77-.6.78-.57.8-.56.81-.53.82-.52.84-.49.84-.48.86-.45.88-.43.88-.41.89-.39.9-.36.91-.34.92-.32.93-.3.94-.27.94-.25.95-.23.96-.2.96-.18.96-.16.97-.13.97-.11.98-.08.98-.06.98-.04.98v.98s0,.98,0,.98l.04.98.06.98.08.98.11.98.13.97.16.97.18.96.2.96.23.96.25.95.27.94.3.94.32.93.34.92.36.91.39.9.41.89.43.88.45.88.48.86.49.84.52.84.53.82.56.81.57.8.6.78.61.77.63.75.65.73.67.72.69.7.7.69.72.67.73.65.75.63.77.61.78.6.8.57.81.56.82.53.84.52.84.49.86.48.88.45.88.43.89.41.9.39.91.36.92.34.93.32.94.3.94.27.95.25.96.23.96.2.96.18.97.16.97.13.98.11.98.08.98.06.98.04Z" fill="#FFFFFF"/>
  <path d="M200,0v200H0c0-18.23,14.81-33,33.08-33-9.41,0-17.04-7.39-17.04-16.5s7.63-16.5,17.04-16.5c18.9,0,34.71,6.46,49.58,12.54,21.05,8.59,46.4,17.01,72.75,5.01l-.02-.02-.77-.61-.75-.63-.73-.65-.72-.67-.7-.69-.69-.7-.67-.72-.65-.73-.63-.75-.61-.77-.6-.78-.57-.8-.56-.81-.53-.82-.52-.84-.49-.84-.48-.86-.45-.88-.43-.88-.41-.89-.39-.9-.36-.91-.34-.92-.32-.93-.3-.94-.27-.94-.25-.95-.23-.96-.2-.96-.18-.96-.16-.97-.13-.97-.11-.98-.08-.98-.06-.98-.04-.98v-.98s0-.98,0-.98l.04-.98.06-.98.08-.98.11-.98.13-.97.16-.97.18-.96.2-.96.23-.96.25-.95.27-.94.3-.94.32-.93.34-.92.36-.91.39-.9.41-.89.43-.88.45-.88.48-.86.49-.84.52-.84.53-.82.56-.81.57-.8.6-.78.61-.77.63-.75.65-.73.67-.72.69-.7.7-.69.72-.67.73-.65.75-.63.77-.61.78-.6.8-.57.81-.56.82-.53.84-.52.84-.49.86-.48.88-.45.88-.43.89-.41.9-.39.91-.36.92-.34.93-.32.94-.3.94-.27.95-.25.96-.23.96-.2.96-.18.97-.16.97-.13.98-.11.98-.08.98-.06.98-.04h.98s-.98-.02-.98-.02l-.98-.04-.98-.06-.98-.08-.98-.11-.97-.13-.97-.16-.96-.18-.96-.2-.96-.23-.95-.25-.94-.27-.94-.3-.93-.32-.92-.34-.91-.36-.9-.39-.89-.41-.88-.43-.88-.45-.86-.48-.84-.49-.84-.52-.82-.53-.81-.56-.8-.57-.78-.6-.77-.61-.75-.63-.73-.65-.72-.67-.7-.69-.69-.7-.67-.72-.65-.73-.63-.75-.61-.77-.6-.78-.57-.8-.56-.81-.53-.82-.52-.84-.49-.84-.48-.86-.45-.88-.43-.88-.41-.89-.39-.9-.36-.91-.34-.92-.32-.93-.3-.94-.27-.94-.25-.95-.23-.96-.2-.96-.18-.96-.16-.97-.13-.97-.11-.98-.08-.98-.06-.98-.04-.98v-.98s0-.98,0-.98l.04-.98.06-.98.08-.98.11-.98.13-.97.16-.97.18-.96.2-.96.23-.96.25-.95.27-.94.3-.94.32-.93.34-.92.36-.91.39-.9.41-.89.43-.88.45-.88.48-.86.49-.84.52-.84.53-.82.56-.81.57-.8.6-.78.61-.77.63-.75.65-.73.67-.72.69-.7.7-.69.72-.67.73-.65.75-.63.77-.61.78-.6.8-.57.81-.56.82-.53.84-.52.84-.49.86-.48.88-.45.88-.43.89-.41.9-.39.91-.36.92-.34.93-.32.94-.3.94-.27.95-.25.96-.23.96-.2.96-.18.97-.16.97-.13.98-.11.98-.08.98-.06.98-.04h.98s20-.01,20-.01Z" fill="#121212"/></g>
<rect x="1600.000" y="0.000" width="320.000" height="320.000" fill="#121212"/>
<g transform="translate(1600.000,0.000) scale(1.60000) rotate(90,100,100)"><rect x="0" y="100" width="200" height="100" fill="#121212"/>
  <path fill-rule="evenodd" clip-rule="evenodd" d="M200 200L180 200L180 100L200 100L200 200ZM100.028 100L200 99.972C200 99.972 155.241 99.984 100.028 100ZM100.028 100L116 100L116 200L96 200L96 100L74 100L74 200L54 200L54 100L32 100L32 200L12 200L12 100L100.028 100ZM158 200L138 200L138 100L158 100L158 200Z" fill="#FFFFFF"/>
  <path d="M200 99.9719L0 100L0 0L100 0C155.213 -0.016 199.984 44.7439 200 99.9719Z" fill="#FFFFFF"/></g>
<rect x="320.000" y="320.000" width="320.000" height="320.000" fill="#F3F3F3"/>
<g transform="translate(320.000,320.000) scale(1.60000)"><path d="M101 143C101 149.075 96.0751 154 90 154C83.9249 154 79 149.075 79 143C79 136.925 83.9249 132 90 132C96.0751 132 101 136.925 101 143Z" fill="#3A4A6B"/>
  <path fill-rule="evenodd" clip-rule="evenodd" d="M25 200L25 0L35 0L35 200L25 200Z" fill="#3A4A6B"/>
  <path fill-rule="evenodd" clip-rule="evenodd" d="M65 200L65 0L75 0L75 200L65 200Z" fill="#3A4A6B"/>
  <path fill-rule="evenodd" clip-rule="evenodd" d="M105 200L105 0L115 0L115 200L105 200Z" fill="#3A4A6B"/>
  <path fill-rule="evenodd" clip-rule="evenodd" d="M145 200L145 0L155 0L155 200L145 200Z" fill="#3A4A6B"/>
  <path fill-rule="evenodd" clip-rule="evenodd" d="M185 200L185 0L195 0L195 200L185 200Z" fill="#3A4A6B"/></g>
<rect x="640.000" y="320.000" width="320.000" height="320.000" fill="#121212"/>
<g transform="translate(640.000,320.000) scale(1.60000) rotate(180,100,100)"><!-- Generator: Adobe Illustrator 30.2.1, SVG Export Plug-In . SVG Version: 2.1.1 Build 1)  -->
  
  <path d="M179.02,79.99h.98s-.98.02-.98.02l-.98.04-.98.06-.98.08-.98.11-.97.13-.97.16-.96.18-.96.2-.96.23-.95.25-.94.27-.94.3-.93.32-.92.34-.91.36-.9.39-.89.41-.88.43-.88.45-.86.48-.84.49-.84.52-.82.53-.81.56-.8.57-.78.6-.77.61-.75.63-.73.65-.72.67-.7.69-.69.7-.67.72-.65.73-.63.75-.61.77-.6.78-.57.8-.56.81-.53.82-.52.84-.49.84-.48.86-.45.88-.43.88-.41.89-.39.9-.36.91-.34.92-.32.93-.3.94-.27.94-.25.95-.23.96-.2.96-.18.96-.16.97-.13.97-.11.98-.08.98-.06.98-.04.98v.98s0,.98,0,.98l.04.98.06.98.08.98.11.98.13.97.16.97.18.96.2.96.23.96.25.95.27.94.3.94.32.93.34.92.36.91.39.9.41.89.43.88.45.88.48.86.49.84.52.84.53.82.56.81.57.8.6.78.61.77.63.75.65.73.67.72.69.7.7.69.72.67.73.65.75.63.77.61.02.02c-26.35,12-51.7,3.58-72.75-5.01-14.87-6.08-30.68-12.54-49.58-12.54-9.41,0-17.04,7.39-17.04,16.5s7.63,16.5,17.04,16.5c-18.27,0-33.08,14.77-33.08,33V0h180-.98s-.98.05-.98.05l-.98.06-.98.08-.98.11-.97.13-.97.16-.96.18-.96.2-.96.23-.95.25-.94.27-.94.3-.93.32-.92.34-.91.36-.9.39-.89.41-.88.43-.88.45-.86.48-.84.49-.84.52-.82.53-.81.56-.8.57-.78.6-.77.61-.75.63-.73.65-.72.67-.7.69-.69.7-.67.72-.65.73-.63.75-.61.77-.6.78-.57.8-.56.81-.53.82-.52.84-.49.84-.48.86-.45.88-.43.88-.41.89-.39.9-.36.91-.34.92-.32.93-.3.94-.27.94-.25.95-.23.96-.2.96-.18.96-.16.97-.13.97-.11.98-.08.98-.06.98-.04.98v.98s0,.98,0,.98l.04.98.06.98.08.98.11.98.13.97.16.97.18.96.2.96.23.96.25.95.27.94.3.94.32.93.34.92.36.91.39.9.41.89.43.88.45.88.48.86.49.84.52.84.53.82.56.81.57.8.6.78.61.77.63.75.65.73.67.72.69.7.7.69.72.67.73.65.75.63.77.61.78.6.8.57.81.56.82.53.84.52.84.49.86.48.88.45.88.43.89.41.9.39.91.36.92.34.93.32.94.3.94.27.95.25.96.23.96.2.96.18.97.16.97.13.98.11.98.08.98.06.98.04Z" fill="#121212"/>
  <path d="M200,0v200H0c0-18.23,14.81-33,33.08-33-9.41,0-17.04-7.39-17.04-16.5s7.63-16.5,17.04-16.5c18.9,0,34.71,6.46,49.58,12.54,21.05,8.59,46.4,17.01,72.75,5.01l-.02-.02-.77-.61-.75-.63-.73-.65-.72-.67-.7-.69-.69-.7-.67-.72-.65-.73-.63-.75-.61-.77-.6-.78-.57-.8-.56-.81-.53-.82-.52-.84-.49-.84-.48-.86-.45-.88-.43-.88-.41-.89-.39-.9-.36-.91-.34-.92-.32-.93-.3-.94-.27-.94-.25-.95-.23-.96-.2-.96-.18-.96-.16-.97-.13-.97-.11-.98-.08-.98-.06-.98-.04-.98v-.98s0-.98,0-.98l.04-.98.06-.98.08-.98.11-.98.13-.97.16-.97.18-.96.2-.96.23-.96.25-.95.27-.94.3-.94.32-.93.34-.92.36-.91.39-.9.41-.89.43-.88.45-.88.48-.86.49-.84.52-.84.53-.82.56-.81.57-.8.6-.78.61-.77.63-.75.65-.73.67-.72.69-.7.7-.69.72-.67.73-.65.75-.63.77-.61.78-.6.8-.57.81-.56.82-.53.84-.52.84-.49.86-.48.88-.45.88-.43.89-.41.9-.39.91-.36.92-.34.93-.32.94-.3.94-.27.95-.25.96-.23.96-.2.96-.18.97-.16.97-.13.98-.11.98-.08.98-.06.98-.04h.98s-.98-.02-.98-.02l-.98-.04-.98-.06-.98-.08-.98-.11-.97-.13-.97-.16-.96-.18-.96-.2-.96-.23-.95-.25-.94-.27-.94-.3-.93-.32-.92-.34-.91-.36-.9-.39-.89-.41-.88-.43-.88-.45-.86-.48-.84-.49-.84-.52-.82-.53-.81-.56-.8-.57-.78-.6-.77-.61-.75-.63-.73-.65-.72-.67-.7-.69-.69-.7-.67-.72-.65-.73-.63-.75-.61-.77-.6-.78-.57-.8-.56-.81-.53-.82-.52-.84-.49-.84-.48-.86-.45-.88-.43-.88-.41-.89-.39-.9-.36-.91-.34-.92-.32-.93-.3-.94-.27-.94-.25-.95-.23-.96-.2-.96-.18-.96-.16-.97-.13-.97-.11-.98-.08-.98-.06-.98-.04-.98v-.98s0-.98,0-.98l.04-.98.06-.98.08-.98.11-.98.13-.97.16-.97.18-.96.2-.96.23-.96.25-.95.27-.94.3-.94.32-.93.34-.92.36-.91.39-.9.41-.89.43-.88.45-.88.48-.86.49-.84.52-.84.53-.82.56-.81.57-.8.6-.78.61-.77.63-.75.65-.73.67-.72.69-.7.7-.69.72-.67.73-.65.75-.63.77-.61.78-.6.8-.57.81-.56.82-.53.84-.52.84-.49.86-.48.88-.45.88-.43.89-.41.9-.39.91-.36.92-.34.93-.32.94-.3.94-.27.95-.25.96-.23.96-.2.96-.18.97-.16.97-.13.98-.11.98-.08.98-.06.98-.04h.98s20-.01,20-.01Z" fill="#D9D9D6"/></g>
<rect x="960.000" y="320.000" width="640.000" height="640.000" fill="#FFFFFF"/>
<g transform="translate(960.000,320.000) scale(3.20000) rotate(270,100,100)"><!-- Generator: Adobe Illustrator 30.2.1, SVG Export Plug-In . SVG Version: 2.1.1 Build 1)  -->
  
  <path d="M179.02,79.99h.98s-.98.02-.98.02l-.98.04-.98.06-.98.08-.98.11-.97.13-.97.16-.96.18-.96.2-.96.23-.95.25-.94.27-.94.3-.93.32-.92.34-.91.36-.9.39-.89.41-.88.43-.88.45-.86.48-.84.49-.84.52-.82.53-.81.56-.8.57-.78.6-.77.61-.75.63-.73.65-.72.67-.7.69-.69.7-.67.72-.65.73-.63.75-.61.77-.6.78-.57.8-.56.81-.53.82-.52.84-.49.84-.48.86-.45.88-.43.88-.41.89-.39.9-.36.91-.34.92-.32.93-.3.94-.27.94-.25.95-.23.96-.2.96-.18.96-.16.97-.13.97-.11.98-.08.98-.06.98-.04.98v.98s0,.98,0,.98l.04.98.06.98.08.98.11.98.13.97.16.97.18.96.2.96.23.96.25.95.27.94.3.94.32.93.34.92.36.91.39.9.41.89.43.88.45.88.48.86.49.84.52.84.53.82.56.81.57.8.6.78.61.77.63.75.65.73.67.72.69.7.7.69.72.67.73.65.75.63.77.61.02.02c-26.35,12-51.7,3.58-72.75-5.01-14.87-6.08-30.68-12.54-49.58-12.54-9.41,0-17.04,7.39-17.04,16.5s7.63,16.5,17.04,16.5c-18.27,0-33.08,14.77-33.08,33V0h180-.98s-.98.05-.98.05l-.98.06-.98.08-.98.11-.97.13-.97.16-.96.18-.96.2-.96.23-.95.25-.94.27-.94.3-.93.32-.92.34-.91.36-.9.39-.89.41-.88.43-.88.45-.86.48-.84.49-.84.52-.82.53-.81.56-.8.57-.78.6-.77.61-.75.63-.73.65-.72.67-.7.69-.69.7-.67.72-.65.73-.63.75-.61.77-.6.78-.57.8-.56.81-.53.82-.52.84-.49.84-.48.86-.45.88-.43.88-.41.89-.39.9-.36.91-.34.92-.32.93-.3.94-.27.94-.25.95-.23.96-.2.96-.18.96-.16.97-.13.97-.11.98-.08.98-.06.98-.04.98v.98s0,.98,0,.98l.04.98.06.98.08.98.11.98.13.97.16.97.18.96.2.96.23.96.25.95.27.94.3.94.32.93.34.92.36.91.39.9.41.89.43.88.45.88.48.86.49.84.52.84.53.82.56.81.57.8.6.78.61.77.63.75.65.73.67.72.69.7.7.69.72.67.73.65.75.63.77.61.78.6.8.57.81.56.82.53.84.52.84.49.86.48.88.45.88.43.89.41.9.39.91.36.92.34.93.32.94.3.94.27.95.25.96.23.96.2.96.18.97.16.97.13.98.11.98.08.98.06.98.04Z" fill="#FFFFFF"/>
  <path d="M200,0v200H0c0-18.23,14.81-33,33.08-33-9.41,0-17.04-7.39-17.04-16.5s7.63-16.5,17.04-16.5c18.9,0,34.71,6.46,49.58,12.54,21.05,8.59,46.4,17.01,72.75,5.01l-.02-.02-.77-.61-.75-.63-.73-.65-.72-.67-.7-.69-.69-.7-.67-.72-.65-.73-.63-.75-.61-.77-.6-.78-.57-.8-.56-.81-.53-.82-.52-.84-.49-.84-.48-.86-.45-.88-.43-.88-.41-.89-.39-.9-.36-.91-.34-.92-.32-.93-.3-.94-.27-.94-.25-.95-.23-.96-.2-.96-.18-.96-.16-.97-.13-.97-.11-.98-.08-.98-.06-.98-.04-.98v-.98s0-.98,0-.98l.04-.98.06-.98.08-.98.11-.98.13-.97.16-.97.18-.96.2-.96.23-.96.25-.95.27-.94.3-.94.32-.93.34-.92.36-.91.39-.9.41-.89.43-.88.45-.88.48-.86.49-.84.52-.84.53-.82.56-.81.57-.8.6-.78.61-.77.63-.75.65-.73.67-.72.69-.7.7-.69.72-.67.73-.65.75-.63.77-.61.78-.6.8-.57.81-.56.82-.53.84-.52.84-.49.86-.48.88-.45.88-.43.89-.41.9-.39.91-.36.92-.34.93-.32.94-.3.94-.27.95-.25.96-.23.96-.2.96-.18.97-.16.97-.13.98-.11.98-.08.98-.06.98-.04h.98s-.98-.02-.98-.02l-.98-.04-.98-.06-.98-.08-.98-.11-.97-.13-.97-.16-.96-.18-.96-.2-.96-.23-.95-.25-.94-.27-.94-.3-.93-.32-.92-.34-.91-.36-.9-.39-.89-.41-.88-.43-.88-.45-.86-.48-.84-.49-.84-.52-.82-.53-.81-.56-.8-.57-.78-.6-.77-.61-.75-.63-.73-.65-.72-.67-.7-.69-.69-.7-.67-.72-.65-.73-.63-.75-.61-.77-.6-.78-.57-.8-.56-.81-.53-.82-.52-.84-.49-.84-.48-.86-.45-.88-.43-.88-.41-.89-.39-.9-.36-.91-.34-.92-.32-.93-.3-.94-.27-.94-.25-.95-.23-.96-.2-.96-.18-.96-.16-.97-.13-.97-.11-.98-.08-.98-.06-.98-.04-.98v-.98s0-.98,0-.98l.04-.98.06-.98.08-.98.11-.98.13-.97.16-.97.18-.96.2-.96.23-.96.25-.95.27-.94.3-.94.32-.93.34-.92.36-.91.39-.9.41-.89.43-.88.45-.88.48-.86.49-.84.52-.84.53-.82.56-.81.57-.8.6-.78.61-.77.63-.75.65-.73.67-.72.69-.7.7-.69.72-.67.73-.65.75-.63.77-.61.78-.6.8-.57.81-.56.82-.53.84-.52.84-.49.86-.48.88-.45.88-.43.89-.41.9-.39.91-.36.92-.34.93-.32.94-.3.94-.27.95-.25.96-.23.96-.2.96-.18.97-.16.97-.13.98-.11.98-.08.98-.06.98-.04h.98s20-.01,20-.01Z" fill="#2EA84F"/></g>
<rect x="1600.000" y="320.000" width="320.000" height="320.000" fill="#FFFFFF"/>
<g transform="translate(1600.000,320.000) scale(1.60000)"><!-- Generator: Adobe Illustrator 30.2.1, SVG Export Plug-In . SVG Version: 2.1.1 Build 1)  -->
  
  <path d="M100.03,100l-.03-100H0v200c-.02-55.21,44.74-99.98,99.97-100l.03,99.97-100,.03h200v-100.03l-99.97.03Z" fill="#FFFFFF"/>
  <path d="M99.97,100C44.74,100.02-.02,144.79,0,200l100-.03-.03-99.97Z" fill="#FF4F00"/>
  <path d="M100,0c55.21-.02,99.98,44.74,100,99.97V0h-100Z" fill="#FFFFFF"/>
  <path d="M100,0l.03,100,99.97-.03C199.98,44.74,155.21-.02,100,0Z" fill="#FF4F00"/></g>
<rect x="0.000" y="640.000" width="320.000" height="320.000" fill="#FFFFFF"/>
<g transform="translate(0.000,640.000) scale(1.60000)"><!-- Generator: Adobe Illustrator 30.2.1, SVG Export Plug-In . SVG Version: 2.1.1 Build 1)  -->
  
  <path d="M100.03,100l-.03-100H0v200c-.02-55.21,44.74-99.98,99.97-100l.03,99.97-100,.03h200v-100.03l-99.97.03Z" fill="#FFFFFF"/>
  <path d="M99.97,100C44.74,100.02-.02,144.79,0,200l100-.03-.03-99.97Z" fill="#4997D0"/>
  <path d="M100,0c55.21-.02,99.98,44.74,100,99.97V0h-100Z" fill="#FFFFFF"/>
  <path d="M100,0l.03,100,99.97-.03C199.98,44.74,155.21-.02,100,0Z" fill="#4997D0"/></g>
<rect x="320.000" y="640.000" width="320.000" height="320.000" fill="#F3F3F3"/>
<g transform="translate(320.000,640.000) scale(1.60000) rotate(180,100,100)"><!-- Generator: Adobe Illustrator 30.2.1, SVG Export Plug-In . SVG Version: 2.1.1 Build 1)  -->
  
  <path d="M179.02,79.99h.98s-.98.02-.98.02l-.98.04-.98.06-.98.08-.98.11-.97.13-.97.16-.96.18-.96.2-.96.23-.95.25-.94.27-.94.3-.93.32-.92.34-.91.36-.9.39-.89.41-.88.43-.88.45-.86.48-.84.49-.84.52-.82.53-.81.56-.8.57-.78.6-.77.61-.75.63-.73.65-.72.67-.7.69-.69.7-.67.72-.65.73-.63.75-.61.77-.6.78-.57.8-.56.81-.53.82-.52.84-.49.84-.48.86-.45.88-.43.88-.41.89-.39.9-.36.91-.34.92-.32.93-.3.94-.27.94-.25.95-.23.96-.2.96-.18.96-.16.97-.13.97-.11.98-.08.98-.06.98-.04.98v.98s0,.98,0,.98l.04.98.06.98.08.98.11.98.13.97.16.97.18.96.2.96.23.96.25.95.27.94.3.94.32.93.34.92.36.91.39.9.41.89.43.88.45.88.48.86.49.84.52.84.53.82.56.81.57.8.6.78.61.77.63.75.65.73.67.72.69.7.7.69.72.67.73.65.75.63.77.61.02.02c-26.35,12-51.7,3.58-72.75-5.01-14.87-6.08-30.68-12.54-49.58-12.54-9.41,0-17.04,7.39-17.04,16.5s7.63,16.5,17.04,16.5c-18.27,0-33.08,14.77-33.08,33V0h180-.98s-.98.05-.98.05l-.98.06-.98.08-.98.11-.97.13-.97.16-.96.18-.96.2-.96.23-.95.25-.94.27-.94.3-.93.32-.92.34-.91.36-.9.39-.89.41-.88.43-.88.45-.86.48-.84.49-.84.52-.82.53-.81.56-.8.57-.78.6-.77.61-.75.63-.73.65-.72.67-.7.69-.69.7-.67.72-.65.73-.63.75-.61.77-.6.78-.57.8-.56.81-.53.82-.52.84-.49.84-.48.86-.45.88-.43.88-.41.89-.39.9-.36.91-.34.92-.32.93-.3.94-.27.94-.25.95-.23.96-.2.96-.18.96-.16.97-.13.97-.11.98-.08.98-.06.98-.04.98v.98s0,.98,0,.98l.04.98.06.98.08.98.11.98.13.97.16.97.18.96.2.96.23.96.25.95.27.94.3.94.32.93.34.92.36.91.39.9.41.89.43.88.45.88.48.86.49.84.52.84.53.82.56.81.57.8.6.78.61.77.63.75.65.73.67.72.69.7.7.69.72.67.73.65.75.63.77.61.78.6.8.57.81.56.82.53.84.52.84.49.86.48.88.45.88.43.89.41.9.39.91.36.92.34.93.32.94.3.94.27.95.25.96.23.96.2.96.18.97.16.97.13.98.11.98.08.98.06.98.04Z" fill="#F3F3F3"/>
  <path d="M200,0v200H0c0-18.23,14.81-33,33.08-33-9.41,0-17.04-7.39-17.04-16.5s7.63-16.5,17.04-16.5c18.9,0,34.71,6.46,49.58,12.54,21.05,8.59,46.4,17.01,72.75,5.01l-.02-.02-.77-.61-.75-.63-.73-.65-.72-.67-.7-.69-.69-.7-.67-.72-.65-.73-.63-.75-.61-.77-.6-.78-.57-.8-.56-.81-.53-.82-.52-.84-.49-.84-.48-.86-.45-.88-.43-.88-.41-.89-.39-.9-.36-.91-.34-.92-.32-.93-.3-.94-.27-.94-.25-.95-.23-.96-.2-.96-.18-.96-.16-.97-.13-.97-.11-.98-.08-.98-.06-.98-.04-.98v-.98s0-.98,0-.98l.04-.98.06-.98.08-.98.11-.98.13-.97.16-.97.18-.96.2-.96.23-.96.25-.95.27-.94.3-.94.32-.93.34-.92.36-.91.39-.9.41-.89.43-.88.45-.88.48-.86.49-.84.52-.84.53-.82.56-.81.57-.8.6-.78.61-.77.63-.75.65-.73.67-.72.69-.7.7-.69.72-.67.73-.65.75-.63.77-.61.78-.6.8-.57.81-.56.82-.53.84-.52.84-.49.86-.48.88-.45.88-.43.89-.41.9-.39.91-.36.92-.34.93-.32.94-.3.94-.27.95-.25.96-.23.96-.2.96-.18.97-.16.97-.13.98-.11.98-.08.98-.06.98-.04h.98s-.98-.02-.98-.02l-.98-.04-.98-.06-.98-.08-.98-.11-.97-.13-.97-.16-.96-.18-.96-.2-.96-.23-.95-.25-.94-.27-.94-.3-.93-.32-.92-.34-.91-.36-.9-.39-.89-.41-.88-.43-.88-.45-.86-.48-.84-.49-.84-.52-.82-.53-.81-.56-.8-.57-.78-.6-.77-.61-.75-.63-.73-.65-.72-.67-.7-.69-.69-.7-.67-.72-.65-.73-.63-.75-.61-.77-.6-.78-.57-.8-.56-.81-.53-.82-.52-.84-.49-.84-.48-.86-.45-.88-.43-.88-.41-.89-.39-.9-.36-.91-.34-.92-.32-.93-.3-.94-.27-.94-.25-.95-.23-.96-.2-.96-.18-.96-.16-.97-.13-.97-.11-.98-.08-.98-.06-.98-.04-.98v-.98s0-.98,0-.98l.04-.98.06-.98.08-.98.11-.98.13-.97.16-.97.18-.96.2-.96.23-.96.25-.95.27-.94.3-.94.32-.93.34-.92.36-.91.39-.9.41-.89.43-.88.45-.88.48-.86.49-.84.52-.84.53-.82.56-.81.57-.8.6-.78.61-.77.63-.75.65-.73.67-.72.69-.7.7-.69.72-.67.73-.65.75-.63.77-.61.78-.6.8-.57.81-.56.82-.53.84-.52.84-.49.86-.48.88-.45.88-.43.89-.41.9-.39.91-.36.92-.34.93-.32.94-.3.94-.27.95-.25.96-.23.96-.2.96-.18.97-.16.97-.13.98-.11.98-.08.98-.06.98-.04h.98s20-.01,20-.01Z" fill="#7150D6"/></g>
<rect x="640.000" y="640.000" width="320.000" height="320.000" fill="#F3F3F3"/>
<g transform="translate(640.000,640.000) scale(1.60000) rotate(270,100,100)"><!-- Generator: Adobe Illustrator 30.2.1, SVG Export Plug-In . SVG Version: 2.1.1 Build 1)  -->
  
  <path d="M100.03,100l-.03-100H0v200c-.02-55.21,44.74-99.98,99.97-100l.03,99.97-100,.03h200v-100.03l-99.97.03Z" fill="#F3F3F3"/>
  <path d="M99.97,100C44.74,100.02-.02,144.79,0,200l100-.03-.03-99.97Z" fill="#2EA84F"/>
  <path d="M100,0c55.21-.02,99.98,44.74,100,99.97V0h-100Z" fill="#F3F3F3"/>
  <path d="M100,0l.03,100,99.97-.03C199.98,44.74,155.21-.02,100,0Z" fill="#2EA84F"/></g>
</svg>
