<?xml version='1.0' encoding='UTF-8'?>
<svg xmlns="http://www.w3.org/2000/svg" version="1.1" width="1920" height="960" viewBox="0 0 1920 960">
  <rect x="0" y="0" width="320" height="320" fill="#121212"/>
  <g transform="translate(0,0) scale(1.6)"><path xmlns="http://www.w3.org/2000/svg" d="M100 4.37114e-06C44.7715 4.37114e-06 6.78525e-06 44.7715 4.37114e-06 100L0 200L200 200L200 100C200 44.7715 155.228 4.37114e-06 100 4.37114e-06Z M8.74228e-06,8.74228e-06 L100.00000874228,8.74228e-06 L100.00000874228,100.00000874228 L8.74228e-06,100.00000874228 Z M100.0,8.74228e-06 L200.0,8.74228e-06 L200.0,100.00000874228 L100.0,100.00000874228 Z" fill="#FFFFFF" fill-rule="evenodd"/>
</g>
  <rect x="320" y="0" width="320" height="320" fill="#121212"/>
  <g transform="translate(320,0) scale(1.6) rotate(90,100,100)"><path xmlns="http://www.w3.org/2000/svg" d="M149.958 50L150 199.958L6.59691e-06 200C-0.0240027 117.181 67.116 50.024 149.958 50Z" fill="#4997D0"/>
</g>
  <rect x="640" y="0" width="320" height="320" fill="#FF4F00"/>
  <g transform="translate(640,0) scale(1.6) rotate(180,100,100)"><path xmlns="http://www.w3.org/2000/svg" d="M200 3.49691e-05L196.918 1.67485C114.352 46.5417 46.5417 114.352 1.67482 196.918L8.74228e-06 200L3.49691e-05 8.74228e-06L200 3.49691e-05Z M69.5147 199.167C54.8302 122.315 122.662 54.9099 200 69.502L69.5147 199.167Z" fill="#F3F3F3"/>
</g>
  <rect x="960" y="0" width="320" height="320" fill="#FFFFFF"/>
  <g transform="translate(960,0) scale(1.6) rotate(270,100,100)"><path xmlns="http://www.w3.org/2000/svg" d="M100 -1.03249e-06L100 100L8.74228e-06 100L2.84124e-05 -1.41459e-05L100 -1.03249e-06Z M200 100L200 200L100 200L100 100L200 100Z" fill="#FF4F00"/>
</g>
  <rect x="1280" y="0" width="320" height="320" fill="#FF4F00"/>
  <g transform="translate(1280,0) scale(1.6)"><path xmlns="http://www.w3.org/2000/svg" d="M200 2.44739e-09L-6.51651e-06 2.4471e-09L0 200C110.425 200.032 199.968 110.456 200 2.44739e-09Z" fill="#FFFFFF"/>
</g>
  <rect x="1600" y="0" width="320" height="320" fill="#121212"/>
  <g transform="translate(1600,0) scale(1.6) rotate(90,100,100)"><path xmlns="http://www.w3.org/2000/svg" d="M200 1.97103e-05L200 50L8.74228e-06 100L3.49691e-05 -6.51651e-06L200 1.97103e-05Z M200 1.97103e-05L200 50L8.74228e-06 100L3.49691e-05 -6.51651e-06L200 1.97103e-05Z M-2.18558e-06 200L200 150L200 200L-2.18558e-06 200Z" fill="#FF4F00"/>
</g>
  <rect x="0" y="320" width="320" height="320" fill="#4997D0"/>
  <g transform="translate(0,320) scale(1.6) rotate(180,100,100)"><path xmlns="http://www.w3.org/2000/svg" d="M200 1.97103e-05L200 50L8.74228e-06 100L3.49691e-05 -6.51651e-06L200 1.97103e-05Z M200 1.97103e-05L200 50L8.74228e-06 100L3.49691e-05 -6.51651e-06L200 1.97103e-05Z M-2.18558e-06 200L200 150L200 200L-2.18558e-06 200Z" fill="#D9D9D6"/>
</g>
  <rect x="320" y="320" width="320" height="320" fill="#FF4F00"/>
  <g transform="translate(320,320) scale(1.6) rotate(270,100,100)"><path xmlns="http://www.w3.org/2000/svg" d="M100 6.5969e-06L8.74228e-06 100L2.18557e-05 -6.51651e-06L100 6.5969e-06Z M100 200L200 100L200 200L100 200Z" fill="#4997D0"/>
</g>
  <rect x="640" y="320" width="320" height="320" fill="#FFFFFF"/>
  <g transform="translate(640,320) scale(1.6)"><path xmlns="http://www.w3.org/2000/svg" d="M150 8.70392e-06L0.0420009 8.70392e-06L2.18557e-06 150C82.8188 150.024 149.976 82.842 150 8.70392e-06Z" fill="#4997D0"/>
</g>
  <rect x="960" y="320" width="320" height="320" fill="#121212"/>
  <g transform="translate(960,320) scale(1.6) rotate(90,100,100)"><path xmlns="http://www.w3.org/2000/svg" d="M175 200C133.579 200 25 200 25 200C25 158.579 58.5787 125 100 125C141.421 125 175 158.579 175 200Z" fill="#FFA300"/>
</g>
  <rect x="1280" y="320" width="320" height="320" fill="#FF4F00"/>
  <g transform="translate(1280,320) scale(1.6) rotate(180,100,100)"><path xmlns="http://www.w3.org/2000/svg" d="M150 8.70392e-06L0.0420009 8.70392e-06L2.18557e-06 150C82.8188 150.024 149.976 82.842 150 8.70392e-06Z" fill="#D9D9D6"/>
</g>
  <rect x="1600" y="320" width="320" height="320" fill="#F3F3F3"/>
  <g transform="translate(1600,320) scale(1.6) rotate(270,100,100)"><path xmlns="http://www.w3.org/2000/svg" d="M200 3.49691e-05L8.74228e-06 200L3.49691e-05 8.74228e-06L200 3.49691e-05Z M200 100L100 200L100 200C100 144.772 144.772 100 200 100L200 100Z M100 200L200 100L200 200L100 200Z" fill="#FF4F00"/>
</g>
  <rect x="0" y="640" width="320" height="320" fill="#4997D0"/>
  <g transform="translate(0,640) scale(1.6)"><path xmlns="http://www.w3.org/2000/svg" d="M100 6.5969e-06L8.74228e-06 100L2.18557e-05 -6.51651e-06L100 6.5969e-06Z M100 200L200 100L200 200L100 200Z" fill="#D9D9D6"/>
</g>
  <rect x="320" y="640" width="320" height="320" fill="#121212"/>
  <g transform="translate(320,640) scale(1.6) rotate(90,100,100)"><path xmlns="http://www.w3.org/2000/svg" d="M200 200C144.772 200 8.74228e-06 200 8.74228e-06 200C8.74228e-06 144.772 44.7715 100 100 100C155.228 100 200 144.772 200 200Z" fill="#FF4F00"/>
</g>
  <rect x="640" y="640" width="320" height="320" fill="#FF4F00"/>
  <g transform="translate(640,640) scale(1.6) rotate(180,100,100)"><path xmlns="http://www.w3.org/2000/svg" d="M100 6.5969e-06L8.74228e-06 100L2.18557e-05 -6.51651e-06L100 6.5969e-06Z M100 200L200 100L200 200L100 200Z" fill="#D9D9D6"/>
</g>
  <rect x="960" y="640" width="320" height="320" fill="#FFFFFF"/>
  <g transform="translate(960,640) scale(1.6) rotate(270,100,100)"><path xmlns="http://www.w3.org/2000/svg" d="M200 1.97103e-05L8.74228e-06 200L3.49691e-05 -6.51651e-06L200 1.97103e-05Z M100 200L200 100L200 200L100 200Z" fill="#4997D0"/>
</g>
  <rect x="1280" y="640" width="320" height="320" fill="#F3F3F3"/>
  <g transform="translate(1280,640) scale(1.6)"><path xmlns="http://www.w3.org/2000/svg" d="M100 6.5969e-06L8.74228e-06 100L2.18557e-05 -6.51651e-06L100 6.5969e-06Z M100 200L200 100L200 200L100 200Z" fill="#4997D0"/>
</g>
  <rect x="1600" y="640" width="320" height="320" fill="#121212"/>
  <g transform="translate(1600,640) scale(1.6) rotate(90,100,100)"><path xmlns="http://www.w3.org/2000/svg" d="M175 200C133.579 200 25 200 25 200C25 158.579 58.5787 125 100 125C141.421 125 175 158.579 175 200Z" fill="#FFFFFF"/>
</g>
</svg>
