<?xml version='1.0' encoding='UTF-8'?>
<svg xmlns="http://www.w3.org/2000/svg" version="1.1" width="1920" height="960" viewBox="0 0 1920 960">
  <svg x="0.0" y="0.0" width="320.0" height="320.0" viewBox="0 0 200 200"><ns0:g xmlns:ns0="http://www.w3.org/2000/svg" clip-path="url(#clip0_3_533)">
<ns0:rect width="200" height="200" transform="translate(200 8.74228e-06) rotate(90)" fill="#FFFFFF"/>
<ns0:path fill-rule="evenodd" clip-rule="evenodd" d="M0.0280653 100L0 200L200 200L200 8.74228e-06L100.028 0.0280087C100.012 55.256 55.2406 100.016 0.0280653 100Z" fill="#121212"/>
</ns0:g>
<ns1:defs xmlns:ns1="http://www.w3.org/2000/svg">
<ns1:clipPath id="clip0_3_533">
<ns1:rect width="200" height="200" fill="#FFFFFF" transform="translate(200 8.74228e-06) rotate(90)"/>
</ns1:clipPath>
</ns1:defs>
</svg>
  <svg x="320.0" y="0.0" width="320.0" height="320.0" viewBox="0 0 200 200"><ns2:g xmlns:ns2="http://www.w3.org/2000/svg" clip-path="url(#clip0_88_5626)">
<ns2:rect width="200" height="200" transform="translate(200 8.74228e-06) rotate(90)" fill="#121212"/>
<ns2:path d="M149 100C149 155.218 139.484 200 127.725 200C121.757 200 116.339 188.34 112.47 169.566C111.844 166.524 106.549 166.41 105.747 169.427C100.779 188.284 93.8046 200 86.0744 200C80.3664 200 75.0627 193.599 70.6901 182.665C69.5225 179.749 64.6845 179.635 63.3033 182.482C57.9386 193.529 51.4522 200 44.4241 200C25.9645 200 11 155.224 11 100C11 44.7763 25.9645 8.74228e-06 44.4241 8.74228e-06C51.4522 8.74228e-06 57.9386 6.47056 63.3033 17.5178C64.6845 20.3649 69.5225 20.2512 70.6901 17.3348C75.0627 6.4011 80.3587 8.74228e-06 86.0744 8.74228e-06C93.797 8.74228e-06 100.772 11.7164 105.747 30.5726C106.541 33.5901 111.837 33.4764 112.47 30.4337C116.347 11.6596 121.765 8.74228e-06 127.725 8.74228e-06C139.484 8.74228e-06 149 44.7763 149 100Z" fill="#FFFFFF"/>
<ns2:path d="M183 100C183 155.218 176.502 200 168.5 200C160.498 200 154 155.224 154 100C154 44.7763 160.498 8.74228e-06 168.5 8.74228e-06C176.502 8.74228e-06 183 44.7763 183 100Z" fill="#FFFFFF"/>
<ns2:path d="M215 100C215 155.218 208.502 200 200.5 200C192.498 200 186 155.224 186 100C186 44.7763 192.498 8.74228e-06 200.5 8.74228e-06C208.502 8.74228e-06 215 44.7763 215 100Z" fill="#FFFFFF"/>
</ns2:g>
<ns3:defs xmlns:ns3="http://www.w3.org/2000/svg">
<ns3:clipPath id="clip0_88_5626">
<ns3:rect width="200" height="200" fill="#FFFFFF" transform="translate(200 8.74228e-06) rotate(90)"/>
</ns3:clipPath>
</ns3:defs>
</svg>
  <svg x="640.0" y="0.0" width="320.0" height="320.0" viewBox="0 0 200 200"><ns4:rect xmlns:ns4="http://www.w3.org/2000/svg" width="200" height="200" transform="translate(200 8.74228e-06) rotate(90)" fill="#121212"/>
<ns5:path xmlns:ns5="http://www.w3.org/2000/svg" d="M100 4.37236e-06L0.0280239 4.37236e-06L1.96299e-05 100C55.2126 100.016 99.984 55.228 100 4.37236e-06Z" fill="#FFFFFF"/>
</svg>
  <svg x="960.0" y="0.0" width="320.0" height="320.0" viewBox="0 0 200 200"><ns6:g xmlns:ns6="http://www.w3.org/2000/svg" clip-path="url(#clip0_20_1274)">
<ns6:rect width="200" height="200" transform="translate(200 8.74228e-06) rotate(90)" fill="#121212"/>
<ns6:path d="M100 2.18557e-05L100 100L8.74228e-06 200L2.18557e-05 100L3.49691e-05 8.74228e-06L100 2.18557e-05Z" fill="#FFFFFF"/>
</ns6:g>
<ns7:defs xmlns:ns7="http://www.w3.org/2000/svg">
<ns7:clipPath id="clip0_20_1274">
<ns7:rect width="200" height="200" fill="#FFFFFF" transform="translate(200 8.74228e-06) rotate(90)"/>
</ns7:clipPath>
</ns7:defs>
</svg>
  <svg x="1280.0" y="0.0" width="320.0" height="320.0" viewBox="0 0 200 200"><ns8:rect xmlns:ns8="http://www.w3.org/2000/svg" width="200" height="200" fill="#121212"/>
<ns9:path xmlns:ns9="http://www.w3.org/2000/svg" d="M45 200H65L65 0H45L45 200Z" fill="#FFFFFF"/>
<ns10:path xmlns:ns10="http://www.w3.org/2000/svg" d="M90 200H110L110 0H90L90 200Z" fill="#FFFFFF"/>
<ns11:path xmlns:ns11="http://www.w3.org/2000/svg" d="M135 200H155L155 0H135L135 200Z" fill="#FFFFFF"/>
<ns12:path xmlns:ns12="http://www.w3.org/2000/svg" d="M0 200H20L20 0H0L0 200Z" fill="#FFFFFF"/>
<ns13:path xmlns:ns13="http://www.w3.org/2000/svg" d="M180 200H200L200 0H180L180 200Z" fill="#FFFFFF"/>
</svg>
  <svg x="1600.0" y="0.0" width="320.0" height="320.0" viewBox="0 0 200 200"><ns14:g xmlns:ns14="http://www.w3.org/2000/svg" clip-path="url(#clip0_20_1280)">
<ns14:rect width="200" height="200" transform="translate(200 8.74228e-06) rotate(90)" fill="#121212"/>
<ns14:path fill-rule="evenodd" clip-rule="evenodd" d="M100 100L200 2.62268e-05L3.92599e-05 0L1.52588e-05 200L100 200L100 100Z" fill="#FFFFFF"/>
</ns14:g>
<ns15:defs xmlns:ns15="http://www.w3.org/2000/svg">
<ns15:clipPath id="clip0_20_1280">
<ns15:rect width="200" height="200" fill="#FFFFFF" transform="translate(200 8.74228e-06) rotate(90)"/>
</ns15:clipPath>
</ns15:defs>
</svg>
  <svg x="0.0" y="320.0" width="320.0" height="320.0" viewBox="0 0 200 200"><ns16:g xmlns:ns16="http://www.w3.org/2000/svg" clip-path="url(#clip0_95_6386)">
<ns16:rect width="200" height="200" transform="translate(200 8.74228e-06) rotate(90)" fill="#121212"/>
<ns16:path fill-rule="evenodd" clip-rule="evenodd" d="M3.48887e-05 100L200 2.62268e-05L3.92599e-05 0L1.52588e-05 200L200 200L3.48887e-05 100Z" fill="#FFFFFF"/>
</ns16:g>
<ns17:defs xmlns:ns17="http://www.w3.org/2000/svg">
<ns17:clipPath id="clip0_95_6386">
<ns17:rect width="200" height="200" fill="#FFFFFF" transform="translate(200 8.74228e-06) rotate(90)"/>
</ns17:clipPath>
</ns17:defs>
</svg>
  <svg x="320.0" y="320.0" width="320.0" height="320.0" viewBox="0 0 200 200"><ns18:g xmlns:ns18="http://www.w3.org/2000/svg" clip-path="url(#clip0_85_2273)">
<ns18:rect width="200" height="200" transform="translate(200 1.52588e-05) rotate(90)" fill="#121212"/>
<ns18:rect x="8.74228e-06" y="100" width="200" height="100" fill="#121212"/>
<ns18:path fill-rule="evenodd" clip-rule="evenodd" d="M200 200L180 200L180 100L200 100L200 200ZM100.028 100L200 99.972C200 99.972 155.241 99.984 100.028 100ZM100.028 100L116 100L116 200L96 200L96 100L74 100L74 200L54 200L54 100L32 100L32 200L12 200L12 100L100.028 100ZM158 200L138 200L138 100L158 100L158 200Z" fill="#FFFFFF"/>
<ns18:path d="M200 99.9719L8.74228e-06 100L9.93477e-06 -2.38498e-06L100 -1.19249e-06C155.213 -0.0159994 199.984 44.7439 200 99.9719Z" fill="#FFFFFF"/>
</ns18:g>
<ns19:defs xmlns:ns19="http://www.w3.org/2000/svg">
<ns19:clipPath id="clip0_85_2273">
<ns19:rect width="200" height="200" fill="#FFFFFF" transform="translate(200 1.52588e-05) rotate(90)"/>
</ns19:clipPath>
</ns19:defs>
</svg>
  <svg x="640.0" y="320.0" width="320.0" height="320.0" viewBox="0 0 200 200"><ns20:g xmlns:ns20="http://www.w3.org/2000/svg" clip-path="url(#clip0_5_5485)">
<ns20:rect width="200" height="200" transform="translate(200 8.74228e-06) rotate(90)" fill="#121212"/>
<ns20:path d="M150.05 200C105.549 200 83.2634 146.197 114.73 114.73Lnan nanL114.73 114.73C146.197 83.2634 200 105.549 200 150.05L200 200L150.05 200Z" fill="#FFFFFF"/>
</ns20:g>
<ns21:defs xmlns:ns21="http://www.w3.org/2000/svg">
<ns21:clipPath id="clip0_5_5485">
<ns21:rect width="200" height="200" fill="#FFFFFF" transform="translate(200 8.74228e-06) rotate(90)"/>
</ns21:clipPath>
</ns21:defs>
</svg>
  <svg x="960.0" y="320.0" width="320.0" height="320.0" viewBox="0 0 200 200"><ns22:g xmlns:ns22="http://www.w3.org/2000/svg" clip-path="url(#clip0_81_2191)">
<ns22:rect width="200" height="200" transform="translate(200 8.74228e-06) rotate(90)" fill="#FFFFFF"/>
<ns22:path d="M200 2.18557e-06C200 82.8427 200 150 200 150C117.157 150 50 82.8427 50 8.74228e-06C50 8.74228e-06 117.157 5.80674e-06 200 2.18557e-06Z" fill="#121212"/>
<ns22:path fill-rule="evenodd" clip-rule="evenodd" d="M200 1.5299e-05L125 8.74228e-06C125 23.9875 136.261 45.3448 153.785 59.0736C155.31 60.2684 154.568 62.8436 152.631 62.9089C142.53 63.2496 131.501 63.375 122.484 63.4775C121.637 63.4871 120.809 63.4965 120 63.5059C90.0001 63.5059 90 69.4999 90 71.9999C90 72.0173 90.0053 72.0343 90.0158 72.0512C90.0053 72.068 90 72.0851 90 72.1023C90 74.5826 90.0001 80.5294 120 80.5294C120.809 80.5387 121.637 80.5481 122.484 80.5576C145.591 80.8182 181.9 81.2276 182 84.9999H200V75L200 71.9999V59L200 1.5299e-05Z" fill="#FFFFFF"/>
<ns22:path fill-rule="evenodd" clip-rule="evenodd" d="M182 177C181.899 183.727 145.591 184.457 122.484 184.922C121.637 184.939 120.809 184.955 120 184.972C90.0001 184.972 90 200 90 200H200V177H182Z" fill="#FFFFFF"/>
<ns22:path fill-rule="evenodd" clip-rule="evenodd" d="M182 131C181.899 137.727 145.591 138.457 122.484 138.922C121.637 138.939 120.809 138.955 120 138.972C90.0001 138.972 90 154 90 154H200V131H182Z" fill="#FFFFFF"/>
<ns22:path fill-rule="evenodd" clip-rule="evenodd" d="M182 85C181.899 91.727 145.591 92.4571 122.484 92.9218C121.637 92.9388 120.809 92.9555 120 92.9721C90.0001 92.9721 90 108 90 108H200V85H182Z" fill="#FFFFFF"/>
<ns22:path fill-rule="evenodd" clip-rule="evenodd" d="M182 131C181.899 124.273 145.591 123.543 122.484 123.078C121.637 123.061 120.809 123.045 120 123.028C90.0001 123.028 90 108 90 108H200V131H182Z" fill="#FFFFFF"/>
<ns22:path fill-rule="evenodd" clip-rule="evenodd" d="M182 177C181.899 170.273 145.591 169.543 122.484 169.078C121.637 169.061 120.809 169.045 120 169.028C90.0001 169.028 90 154 90 154H200V177H182Z" fill="#FFFFFF"/>
</ns22:g>
<ns23:defs xmlns:ns23="http://www.w3.org/2000/svg">
<ns23:clipPath id="clip0_81_2191">
<ns23:rect width="200" height="200" fill="#FFFFFF" transform="translate(200 8.74228e-06) rotate(90)"/>
</ns23:clipPath>
</ns23:defs>
</svg>
  <svg x="1280.0" y="320.0" width="320.0" height="320.0" viewBox="0 0 200 200"><ns24:rect xmlns:ns24="http://www.w3.org/2000/svg" width="200" height="200" transform="translate(200 8.74228e-06) rotate(90)" fill="#121212"/>
<ns25:path xmlns:ns25="http://www.w3.org/2000/svg" d="M50 1.5299e-05L50 50L8.74228e-06 50L1.85773e-05 8.74228e-06L50 1.5299e-05Z" fill="#FFFFFF"/>
</svg>
  <svg x="1600.0" y="320.0" width="320.0" height="320.0" viewBox="0 0 200 200"><ns26:g xmlns:ns26="http://www.w3.org/2000/svg" clip-path="url(#clip0_74_2300)">
<ns26:rect width="200" height="200" transform="translate(200 8.74228e-06) rotate(90)" fill="#121212"/>
<ns26:path d="M328.568 144.504C312 97.912 258.776 75.864 214.104 97.096C143.176 130.808 69.184 56.816 102.904 -14.104C124.136 -58.768 102.088 -111.992 55.496 -128.568C21.216 -140.76 2.82401 -169.76 0.312014 -200L1.35122e-05 -200L8.74228e-06 200L400 200L400 199.688C369.76 197.168 340.76 178.784 328.568 144.504Z" fill="#FFFFFF"/>
</ns26:g>
<ns27:defs xmlns:ns27="http://www.w3.org/2000/svg">
<ns27:clipPath id="clip0_74_2300">
<ns27:rect width="200" height="200" fill="#FFFFFF" transform="translate(200 8.74228e-06) rotate(90)"/>
</ns27:clipPath>
</ns27:defs>
</svg>
  <svg x="0.0" y="640.0" width="320.0" height="320.0" viewBox="0 0 200 200"><ns28:g xmlns:ns28="http://www.w3.org/2000/svg" clip-path="url(#clip0_35_1275)">
<ns28:rect width="200" height="200" transform="translate(200 8.74228e-06) rotate(90)" fill="#121212"/>
<ns28:path d="M200 9.16683e-06L189.443 5.27866C130.623 34.6887 65.7629 50 8.74228e-06 50Lnan nanL8.74228e-06 50L2.92866e-05 -1.41459e-05L100 -2.48954e-06L200 9.16683e-06Z" fill="#FFFFFF"/>
</ns28:g>
<ns29:defs xmlns:ns29="http://www.w3.org/2000/svg">
<ns29:clipPath id="clip0_35_1275">
<ns29:rect width="200" height="200" fill="#FFFFFF" transform="translate(200 8.74228e-06) rotate(90)"/>
</ns29:clipPath>
</ns29:defs>
</svg>
  <svg x="320.0" y="640.0" width="320.0" height="320.0" viewBox="0 0 200 200"><ns30:g xmlns:ns30="http://www.w3.org/2000/svg" clip-path="url(#clip0_3_625)">
<ns30:rect width="200" height="200" transform="translate(200 8.74228e-06) rotate(90)" fill="#121212"/>
<ns30:path d="M200 95L200 105L8.74228e-06 105L2.3167e-05 95L200 95Z" fill="#FFFFFF"/>
</ns30:g>
<ns31:defs xmlns:ns31="http://www.w3.org/2000/svg">
<ns31:clipPath id="clip0_3_625">
<ns31:rect width="200" height="200" fill="#FFFFFF" transform="translate(200 8.74228e-06) rotate(90)"/>
</ns31:clipPath>
</ns31:defs>
</svg>
  <svg x="640.0" y="640.0" width="320.0" height="320.0" viewBox="0 0 200 200"><ns32:g xmlns:ns32="http://www.w3.org/2000/svg" clip-path="url(#clip0_20_1334)">
<ns32:rect width="200" height="200" transform="translate(200 8.74228e-06) rotate(90)" fill="#121212"/>
<ns32:path d="M100 8.74228e-06H8.74228e-06V100C8.74228e-06 44.772 44.772 8.74228e-06 100 8.74228e-06Z" fill="#FFFFFF"/>
<ns32:path d="M50.0001 150C50.0001 122.387 27.6192 100 0.000126998 100C0.000126998 100 0.000126019 122.387 0.000124812 150C0.000128023 163.81 0.000126441 200 0.000126441 200C27.6192 200 50.0001 177.613 50.0001 150Z" fill="#FFFFFF"/>
</ns32:g>
<ns33:defs xmlns:ns33="http://www.w3.org/2000/svg">
<ns33:clipPath id="clip0_20_1334">
<ns33:rect width="200" height="200" fill="#FFFFFF" transform="translate(200 8.74228e-06) rotate(90)"/>
</ns33:clipPath>
</ns33:defs>
</svg>
  <svg x="960.0" y="640.0" width="320.0" height="320.0" viewBox="0 0 200 200"><ns34:rect xmlns:ns34="http://www.w3.org/2000/svg" width="200" height="200" transform="translate(200 8.74228e-06) rotate(90)" fill="#121212"/>
<ns35:ellipse xmlns:ns35="http://www.w3.org/2000/svg" cx="100" cy="100" rx="75" ry="50" transform="rotate(90 100 100)" fill="#FFFFFF"/>
<ns36:circle xmlns:ns36="http://www.w3.org/2000/svg" cx="99.9998" cy="120" r="33.3333" fill="#121212"/>
</svg>
  <svg x="1280.0" y="640.0" width="320.0" height="320.0" viewBox="0 0 200 200"><ns37:g xmlns:ns37="http://www.w3.org/2000/svg" clip-path="url(#clip0_4_5448)">
<ns37:rect width="200" height="200" transform="translate(200 8.74228e-06) rotate(90)" fill="#FFFFFF"/>
<ns37:path d="M200 1.97103e-05L8.74228e-06 200L3.49691e-05 -6.51651e-06L200 1.97103e-05Z" fill="#FF4F00"/>
<ns37:path d="M100 200L200 100L200 200L100 200Z" fill="#FF4F00"/>
</ns37:g>
<ns38:defs xmlns:ns38="http://www.w3.org/2000/svg">
<ns38:clipPath id="clip0_4_5448">
<ns38:rect width="200" height="200" fill="#FFFFFF" transform="translate(200 8.74228e-06) rotate(90)"/>
</ns38:clipPath>
</ns38:defs>
</svg>
  <svg x="1600.0" y="640.0" width="320.0" height="320.0" viewBox="0 0 200 200"><ns39:g xmlns:ns39="http://www.w3.org/2000/svg" clip-path="url(#clip0_20_1216)">
<ns39:rect width="200" height="200" transform="translate(200 8.74228e-06) rotate(90)" fill="#121212"/>
<ns39:path fill-rule="evenodd" clip-rule="evenodd" d="M100 186.25L150 186.203L150 199.953L200 200L200 1.6969e-05L150 1.6969e-05C149.973 92.0467 150 136.25 100 186.25Z" fill="#FFFFFF"/>
</ns39:g>
<ns40:defs xmlns:ns40="http://www.w3.org/2000/svg">
<ns40:clipPath id="clip0_20_1216">
<ns40:rect width="200" height="200" fill="#FFFFFF" transform="translate(200 8.74228e-06) rotate(90)"/>
</ns40:clipPath>
</ns40:defs>
</svg>
</svg>
