<?xml version='1.0' encoding='UTF-8'?>
<svg xmlns="http://www.w3.org/2000/svg" version="1.1" width="1920" height="960" viewBox="0 0 1920 960">
  <svg x="0.0" y="0.0" width="320.0" height="320.0" viewBox="0 0 200 200"><ns0:rect xmlns:ns0="http://www.w3.org/2000/svg" width="200" height="200" transform="translate(200 8.74228e-06) rotate(90)" fill="#121212"/>
<ns1:circle xmlns:ns1="http://www.w3.org/2000/svg" cx="100" cy="100" r="50" fill="#D9D9D6"/>
</svg>
  <svg x="320.0" y="0.0" width="320.0" height="320.0" viewBox="0 0 200 200"><ns2:g xmlns:ns2="http://www.w3.org/2000/svg" clip-path="url(#clip0_5_5484)">
<ns2:rect width="200" height="200" transform="translate(200 8.74228e-06) rotate(90)" fill="#F3F3F3"/>
<ns2:path d="M175.025 200C152.775 200 141.632 173.098 157.365 157.365Lnan nanL157.365 157.365C173.098 141.632 200 152.775 200 175.025L200 200L175.025 200Z" fill="#FF4F00"/>
</ns2:g>
<ns3:defs xmlns:ns3="http://www.w3.org/2000/svg">
<ns3:clipPath id="clip0_5_5484">
<ns3:rect width="200" height="200" fill="#FFFFFF" transform="translate(200 8.74228e-06) rotate(90)"/>
</ns3:clipPath>
</ns3:defs>
</svg>
  <svg x="640.0" y="0.0" width="320.0" height="320.0" viewBox="0 0 200 200"><ns4:g xmlns:ns4="http://www.w3.org/2000/svg" clip-path="url(#clip0_4_5464)">
<ns4:rect width="200" height="200" transform="translate(200 8.74228e-06) rotate(90)" fill="#4997D0"/>
<ns4:path d="M164.256 27.6135C155.966 50.9277 129.333 61.9603 106.979 51.3361C71.4878 34.4669 34.4629 71.4918 51.3361 106.979C61.9603 129.329 50.9277 155.962 27.6135 164.256C10.4602 170.357 1.25699 184.868 8.74228e-06 200H200V8.74228e-06C184.868 1.26099 170.357 10.4602 164.256 27.6135Z" fill="#F3F3F3"/>
</ns4:g>
<ns5:defs xmlns:ns5="http://www.w3.org/2000/svg">
<ns5:clipPath id="clip0_4_5464">
<ns5:rect width="200" height="200" fill="#FFFFFF" transform="translate(200 8.74228e-06) rotate(90)"/>
</ns5:clipPath>
</ns5:defs>
</svg>
  <svg x="960.0" y="0.0" width="320.0" height="320.0" viewBox="0 0 200 200"><ns6:g xmlns:ns6="http://www.w3.org/2000/svg" clip-path="url(#clip0_3_624)">
<ns6:rect width="200" height="200" transform="translate(200 8.74228e-06) rotate(90)" fill="#F3F3F3"/>
<ns6:path d="M200 1.67962e-05L200 150L8.74228e-06 150L4.41485e-05 -6.51651e-06L200 1.67962e-05Z" fill="#FF4F00"/>
</ns6:g>
<ns7:defs xmlns:ns7="http://www.w3.org/2000/svg">
<ns7:clipPath id="clip0_3_624">
<ns7:rect width="200" height="200" fill="#FFFFFF" transform="translate(200 8.74228e-06) rotate(90)"/>
</ns7:clipPath>
</ns7:defs>
</svg>
  <svg x="1280.0" y="0.0" width="320.0" height="320.0" viewBox="0 0 200 200"><ns8:rect xmlns:ns8="http://www.w3.org/2000/svg" width="200" height="200" fill="#121212"/>
<ns9:path xmlns:ns9="http://www.w3.org/2000/svg" d="M60 200H80L80 0H60L60 200Z" fill="#FFFFFF"/>
<ns10:path xmlns:ns10="http://www.w3.org/2000/svg" d="M100 200H120L120 0H100L100 200Z" fill="#FFFFFF"/>
<ns11:path xmlns:ns11="http://www.w3.org/2000/svg" d="M140 200H160L160 0H140L140 200Z" fill="#FFFFFF"/>
<ns12:path xmlns:ns12="http://www.w3.org/2000/svg" d="M20 200H40L40 0H20L20 200Z" fill="#FFFFFF"/>
<ns13:path xmlns:ns13="http://www.w3.org/2000/svg" d="M180 200H200L200 0H180L180 200Z" fill="#FFFFFF"/>
</svg>
  <svg x="1600.0" y="0.0" width="320.0" height="320.0" viewBox="0 0 200 200"><ns14:rect xmlns:ns14="http://www.w3.org/2000/svg" width="200" height="200" transform="translate(200 8.74228e-06) rotate(90)" fill="#121212"/>
<ns15:path xmlns:ns15="http://www.w3.org/2000/svg" d="M50 50C50 22.3858 72.3858 8.74228e-06 100 8.74228e-06C127.614 8.74228e-06 150 22.3858 150 50V150C150 177.614 127.614 200 100 200C72.3858 200 50 177.614 50 150V50Z" fill="#F3F3F3"/>
<ns16:circle xmlns:ns16="http://www.w3.org/2000/svg" cx="99.9998" cy="146.333" r="33.3333" fill="#121212"/>
</svg>
  <svg x="0.0" y="320.0" width="320.0" height="320.0" viewBox="0 0 200 200"><ns17:g xmlns:ns17="http://www.w3.org/2000/svg" clip-path="url(#clip0_95_6386)">
<ns17:rect width="200" height="200" transform="translate(200 8.74228e-06) rotate(90)" fill="#F3F3F3"/>
<ns17:path fill-rule="evenodd" clip-rule="evenodd" d="M3.48887e-05 100L200 2.62268e-05L3.92599e-05 0L1.52588e-05 200L200 200L3.48887e-05 100Z" fill="#FF4F00"/>
</ns17:g>
<ns18:defs xmlns:ns18="http://www.w3.org/2000/svg">
<ns18:clipPath id="clip0_95_6386">
<ns18:rect width="200" height="200" fill="#FFFFFF" transform="translate(200 8.74228e-06) rotate(90)"/>
</ns18:clipPath>
</ns18:defs>
</svg>
  <svg x="320.0" y="320.0" width="320.0" height="320.0" viewBox="0 0 200 200"><ns19:g xmlns:ns19="http://www.w3.org/2000/svg" clip-path="url(#clip0_75_4208)">
<ns19:rect width="200" height="200" transform="translate(200 8.74228e-06) rotate(90)" fill="#FF4F00"/>
<ns19:path d="M200 0.0560087L0.0560085 2.44783e-09L0 200C110.425 200.032 199.968 110.512 200 0.0560087Z" fill="#F3F3F3"/>
<ns19:ellipse cx="70" cy="65" rx="50" ry="25" transform="rotate(-180 70 65)" fill="#FF4F00"/>
<ns19:circle cx="70" cy="65" r="25" fill="#F3F3F3"/>
</ns19:g>
<ns20:defs xmlns:ns20="http://www.w3.org/2000/svg">
<ns20:clipPath id="clip0_75_4208">
<ns20:rect width="200" height="200" fill="#FFFFFF" transform="translate(200 8.74228e-06) rotate(90)"/>
</ns20:clipPath>
</ns20:defs>
</svg>
  <svg x="640.0" y="320.0" width="320.0" height="320.0" viewBox="0 0 200 200"><ns21:g xmlns:ns21="http://www.w3.org/2000/svg" clip-path="url(#clip0_4_198)">
<ns21:rect width="200" height="200" transform="translate(200 8.74228e-06) rotate(90)" fill="#4997D0"/>
<ns21:path d="M190 1.8399e-05L190 190L8.74228e-06 190L4.61155e-05 -6.51651e-06L190 1.8399e-05Z" fill="#FFFFFF"/>
</ns21:g>
<ns22:defs xmlns:ns22="http://www.w3.org/2000/svg">
<ns22:clipPath id="clip0_4_198">
<ns22:rect width="200" height="200" fill="#FFFFFF" transform="translate(200 8.74228e-06) rotate(90)"/>
</ns22:clipPath>
</ns22:defs>
</svg>
  <svg x="960.0" y="320.0" width="320.0" height="320.0" viewBox="0 0 200 200"><ns23:g xmlns:ns23="http://www.w3.org/2000/svg" clip-path="url(#clip0_75_4254)">
<ns23:rect width="200" height="200" transform="translate(200 8.74228e-06) rotate(90)" fill="#4997D0"/>
<ns23:path d="M200 3.49691e-05Lnan nanL200 3.49691e-05C144.149 43.2927 80.768 75.8745 13.0589 96.0993L8.74228e-06 100L2.73743e-05 8.74228e-06L200 3.49691e-05Z" fill="#D9D9D6"/>
</ns23:g>
<ns24:defs xmlns:ns24="http://www.w3.org/2000/svg">
<ns24:clipPath id="clip0_75_4254">
<ns24:rect width="200" height="200" fill="#FFFFFF" transform="translate(200 8.74228e-06) rotate(90)"/>
</ns24:clipPath>
</ns24:defs>
</svg>
  <svg x="1280.0" y="320.0" width="320.0" height="320.0" viewBox="0 0 200 200"><ns25:g xmlns:ns25="http://www.w3.org/2000/svg" clip-path="url(#clip0_35_1227)">
<ns25:rect width="200" height="200" transform="translate(200 8.74228e-06) rotate(90)" fill="#D9D9D6"/>
<ns25:path d="M200 9.16684e-06Lnan nanL200 9.16684e-06C200 5.52286 195.523 10 190 10L8.74228e-06 10L2.33419e-05 -1.41459e-05L200 9.16684e-06Z" fill="#121212"/>
</ns25:g>
<ns26:defs xmlns:ns26="http://www.w3.org/2000/svg">
<ns26:clipPath id="clip0_35_1227">
<ns26:rect width="200" height="200" fill="#FFFFFF" transform="translate(200 8.74228e-06) rotate(90)"/>
</ns26:clipPath>
</ns26:defs>
</svg>
  <svg x="1600.0" y="320.0" width="320.0" height="320.0" viewBox="0 0 200 200"><ns27:g xmlns:ns27="http://www.w3.org/2000/svg" clip-path="url(#clip0_76_2087)">
<ns27:rect width="200" height="200" transform="translate(200 8.74228e-06) rotate(90)" fill="#F3F3F3"/>
<ns27:circle cx="40" cy="200" r="40" fill="#FF4F00"/>
<ns27:circle cx="120" cy="200" r="40" fill="#FF4F00"/>
<ns27:circle cx="200" cy="120" r="40" fill="#FF4F00"/>
<ns27:circle cx="200" cy="40" r="40" fill="#FF4F00"/>
<ns27:circle cx="200" cy="200" r="40" fill="#FF4F00"/>
</ns27:g>
<ns28:defs xmlns:ns28="http://www.w3.org/2000/svg">
<ns28:clipPath id="clip0_76_2087">
<ns28:rect width="200" height="200" fill="#FFFFFF" transform="translate(200 8.74228e-06) rotate(90)"/>
</ns28:clipPath>
</ns28:defs>
</svg>
  <svg x="0.0" y="640.0" width="320.0" height="320.0" viewBox="0 0 200 200"><ns29:g xmlns:ns29="http://www.w3.org/2000/svg" clip-path="url(#clip0_85_2234)">
<ns29:rect width="200" height="200" transform="translate(200 8.74228e-06) rotate(90)" fill="#121212"/>
<ns29:path d="M150 100H200C200 44.772 155.228 8.74228e-06 100 8.74228e-06C44.772 8.74228e-06 8.74228e-06 44.772 8.74228e-06 100H50C50 100 72.384 100 100 100C127.616 100 150 100 150 100Z" fill="#FFFFFF"/>
<ns29:path d="M45 200H65V100H45V200Z" fill="#FFFFFF"/>
<ns29:path d="M90 200H110V100H90V200Z" fill="#FFFFFF"/>
<ns29:path d="M135 200H155V100H135V200Z" fill="#FFFFFF"/>
<ns29:path d="M8.74228e-06 200H20V100H8.74228e-06V200Z" fill="#FFFFFF"/>
<ns29:path d="M180 200H200V100H180V200Z" fill="#FFFFFF"/>
</ns29:g>
<ns30:defs xmlns:ns30="http://www.w3.org/2000/svg">
<ns30:clipPath id="clip0_85_2234">
<ns30:rect width="200" height="200" fill="#FFFFFF" transform="translate(200 8.74228e-06) rotate(90)"/>
</ns30:clipPath>
</ns30:defs>
</svg>
  <svg x="320.0" y="640.0" width="320.0" height="320.0" viewBox="0 0 200 200"><ns31:g xmlns:ns31="http://www.w3.org/2000/svg" clip-path="url(#clip0_4_5462)">
<ns31:rect width="200" height="200" transform="translate(200 8.74228e-06) rotate(90)" fill="#FFFFFF"/>
<ns31:path d="M164.284 172.252C156 148.956 129.388 137.932 107.052 148.548C71.588 165.404 34.592 128.408 51.452 92.948C62.068 70.616 51.044 44.004 27.748 35.716C10.608 29.62 1.41201 15.12 0.156011 8.74414e-06L1.11273e-05 8.74228e-06L8.74228e-06 200L200 200L200 199.844C184.88 198.584 170.38 189.392 164.284 172.252Z" fill="#FF4F00"/>
</ns31:g>
<ns32:defs xmlns:ns32="http://www.w3.org/2000/svg">
<ns32:clipPath id="clip0_4_5462">
<ns32:rect width="200" height="200" fill="#FFFFFF" transform="translate(200 8.74228e-06) rotate(90)"/>
</ns32:clipPath>
</ns32:defs>
</svg>
  <svg x="640.0" y="640.0" width="320.0" height="320.0" viewBox="0 0 200 200"><ns33:g xmlns:ns33="http://www.w3.org/2000/svg" clip-path="url(#clip0_85_4348)">
<ns33:rect width="200" height="200" transform="translate(200 8.74228e-06) rotate(90)" fill="#FF4F00"/>
<ns33:circle cx="150" cy="100" r="50" fill="#D9D9D6"/>
<ns33:circle cx="150" cy="1.11288e-06" r="50" fill="#D9D9D6"/>
<ns33:circle cx="150" cy="200" r="50" fill="#D9D9D6"/>
<ns33:rect x="150" y="-10" width="50" height="220" fill="#D9D9D6"/>
</ns33:g>
<ns34:defs xmlns:ns34="http://www.w3.org/2000/svg">
<ns34:clipPath id="clip0_85_4348">
<ns34:rect width="200" height="200" fill="#FFFFFF" transform="translate(200 8.74228e-06) rotate(90)"/>
</ns34:clipPath>
</ns34:defs>
</svg>
  <svg x="960.0" y="640.0" width="320.0" height="320.0" viewBox="0 0 200 200"><ns35:g xmlns:ns35="http://www.w3.org/2000/svg" clip-path="url(#clip0_20_1271)">
<ns35:rect width="200" height="200" transform="translate(200 8.74228e-06) rotate(90)" fill="#F3F3F3"/>
<ns35:path d="M100 1.42263e-05L100 50L8.74228e-06 100L3.49691e-05 -1.41459e-05L100 1.42263e-05Z" fill="#FF4F00"/>
</ns35:g>
<ns36:defs xmlns:ns36="http://www.w3.org/2000/svg">
<ns36:clipPath id="clip0_20_1271">
<ns36:rect width="200" height="200" fill="#FFFFFF" transform="translate(200 8.74228e-06) rotate(90)"/>
</ns36:clipPath>
</ns36:defs>
</svg>
  <svg x="1280.0" y="640.0" width="320.0" height="320.0" viewBox="0 0 200 200"><ns37:g xmlns:ns37="http://www.w3.org/2000/svg" clip-path="url(#clip0_3_503)">
<ns37:rect width="200" height="200" transform="translate(200 8.74228e-06) rotate(90)" fill="#FF4F00"/>
<ns37:path d="M200 2.44739e-09L-6.51651e-06 2.4471e-09L0 200C110.425 200.032 199.968 110.456 200 2.44739e-09Z" fill="#D9D9D6"/>
</ns37:g>
<ns38:defs xmlns:ns38="http://www.w3.org/2000/svg">
<ns38:clipPath id="clip0_3_503">
<ns38:rect width="200" height="200" fill="#FFFFFF" transform="translate(200 8.74228e-06) rotate(90)"/>
</ns38:clipPath>
</ns38:defs>
</svg>
  <svg x="1600.0" y="640.0" width="320.0" height="320.0" viewBox="0 0 200 200"><ns39:g xmlns:ns39="http://www.w3.org/2000/svg" clip-path="url(#clip0_3_634)">
<ns39:rect width="200" height="200" transform="translate(200 8.74228e-06) rotate(90)" fill="#FF4F00"/>
<ns39:path d="M100 -1.03249e-06L100 100L8.74228e-06 100L2.84124e-05 -1.41459e-05L100 -1.03249e-06Z" fill="#FFFFFF"/>
<ns39:path d="M200 100L200 200L100 200L100 100L200 100Z" fill="#FFFFFF"/>
</ns39:g>
<ns40:defs xmlns:ns40="http://www.w3.org/2000/svg">
<ns40:clipPath id="clip0_3_634">
<ns40:rect width="200" height="200" fill="#FFFFFF" transform="translate(200 8.74228e-06) rotate(90)"/>
</ns40:clipPath>
</ns40:defs>
</svg>
</svg>
