<?xml version='1.0' encoding='UTF-8'?>
<svg xmlns="http://www.w3.org/2000/svg" version="1.1" width="1920" height="960" viewBox="0 0 1920 960">
  <svg x="0.0" y="0.0" width="320.0" height="320.0" viewBox="0 0 200 200"><ns0:g xmlns:ns0="http://www.w3.org/2000/svg" clip-path="url(#clip0_81_3073)">
<ns0:rect width="200" height="200" transform="translate(200 1.52588e-05) rotate(90)" fill="#121212"/>
<ns0:circle cx="200" cy="100" r="50" fill="#FF4F00"/>
<ns0:circle cx="200" r="50" fill="#FF4F00"/>
<ns0:circle cx="200" cy="200" r="50" fill="#FF4F00"/>
</ns0:g>
<ns1:defs xmlns:ns1="http://www.w3.org/2000/svg">
<ns1:clipPath id="clip0_81_3073">
<ns1:rect width="200" height="200" fill="#FFFFFF" transform="translate(200 1.52588e-05) rotate(90)"/>
</ns1:clipPath>
</ns1:defs>
</svg>
  <svg x="320.0" y="0.0" width="320.0" height="320.0" viewBox="0 0 200 200"><ns2:g xmlns:ns2="http://www.w3.org/2000/svg" clip-path="url(#clip0_4_198)">
<ns2:rect width="200" height="200" transform="translate(200 8.74228e-06) rotate(90)" fill="#F3F3F3"/>
<ns2:path d="M190 1.8399e-05L190 190L8.74228e-06 190L4.61155e-05 -6.51651e-06L190 1.8399e-05Z" fill="#121212"/>
</ns2:g>
<ns3:defs xmlns:ns3="http://www.w3.org/2000/svg">
<ns3:clipPath id="clip0_4_198">
<ns3:rect width="200" height="200" fill="#FFFFFF" transform="translate(200 8.74228e-06) rotate(90)"/>
</ns3:clipPath>
</ns3:defs>
</svg>
  <svg x="640.0" y="0.0" width="320.0" height="320.0" viewBox="0 0 200 200"><ns4:g xmlns:ns4="http://www.w3.org/2000/svg" clip-path="url(#clip0_5_6405)">
<ns4:rect width="200" height="200" transform="translate(200 8.74228e-06) rotate(90)" fill="#121212"/>
<ns4:ellipse cx="100" cy="100" rx="100" ry="50" transform="rotate(90 100 100)" fill="#F3F3F3"/>
<ns4:circle cx="99.9998" cy="100" r="33.3333" fill="#121212"/>
</ns4:g>
<ns5:defs xmlns:ns5="http://www.w3.org/2000/svg">
<ns5:clipPath id="clip0_5_6405">
<ns5:rect width="200" height="200" fill="#FFFFFF" transform="translate(200 8.74228e-06) rotate(90)"/>
</ns5:clipPath>
</ns5:defs>
</svg>
  <svg x="960.0" y="0.0" width="320.0" height="320.0" viewBox="0 0 200 200"><ns6:g xmlns:ns6="http://www.w3.org/2000/svg" clip-path="url(#clip0_81_2190)">
<ns6:rect width="200" height="200" transform="translate(200 8.74228e-06) rotate(90)" fill="#121212"/>
<ns6:path d="M200 200C117.157 200 50 200 50 200C50 117.157 117.157 50 200 50C200 50 200 117.157 200 200Z" fill="#D9D9D6"/>
<ns6:path d="M200 200C158.579 200 125 200 125 200C125 158.579 158.579 125 200 125C200 125 200 158.579 200 200Z" fill="#121212"/>
</ns6:g>
<ns7:defs xmlns:ns7="http://www.w3.org/2000/svg">
<ns7:clipPath id="clip0_81_2190">
<ns7:rect width="200" height="200" fill="#FFFFFF" transform="translate(200 8.74228e-06) rotate(90)"/>
</ns7:clipPath>
</ns7:defs>
</svg>
  <svg x="1280.0" y="0.0" width="320.0" height="320.0" viewBox="0 0 200 200"><ns8:g xmlns:ns8="http://www.w3.org/2000/svg" clip-path="url(#clip0_75_3747)">
<ns8:rect width="200" height="200" transform="translate(200 8.74228e-06) rotate(90)" fill="#FFFFFF"/>
<ns8:path d="M99.972 100L100 199.972L1.74846e-05 200C-0.0159862 144.787 44.744 100.016 99.972 100Z" fill="#FFA300"/>
</ns8:g>
<ns9:defs xmlns:ns9="http://www.w3.org/2000/svg">
<ns9:clipPath id="clip0_75_3747">
<ns9:rect width="200" height="200" fill="#FFFFFF" transform="translate(200 8.74228e-06) rotate(90)"/>
</ns9:clipPath>
</ns9:defs>
</svg>
  <svg x="1600.0" y="0.0" width="320.0" height="320.0" viewBox="0 0 200 200"><ns10:rect xmlns:ns10="http://www.w3.org/2000/svg" width="200" height="200" transform="translate(8.74228e-06 200) rotate(-90)" fill="#121212"/>
<ns11:path xmlns:ns11="http://www.w3.org/2000/svg" d="M77 67C77 73.0751 72.0751 78 66 78C59.9249 78 55 73.0751 55 67C55 60.9249 59.9249 56 66 56C72.0751 56 77 60.9249 77 67Z" fill="#D9D9D6"/>
<ns12:path xmlns:ns12="http://www.w3.org/2000/svg" d="M200 109C200 115.075 195.075 120 189 120C182.925 120 178 115.075 178 109C178 102.925 182.925 98 189 98C195.075 98 200 102.925 200 109Z" fill="#D9D9D6"/>
<ns13:path xmlns:ns13="http://www.w3.org/2000/svg" d="M0.008 8.74193e-06L0 8.74228e-06L8.74228e-06 200L200 200C89.876 200 0.00800483 110.417 0.008 8.74193e-06Z" fill="#D9D9D6"/>
<ns14:path xmlns:ns14="http://www.w3.org/2000/svg" fill-rule="evenodd" clip-rule="evenodd" d="M179.933 199C85.7297 189.563 10.4137 114.42 1 20.0043C0.343971 13.4246 0.00800029 6.75124 0.008 8.74193e-06L0 8.74228e-06L8.74228e-06 200L200 200C193.229 200 186.535 199.661 179.933 199ZM171.614 199C83.5333 186.485 13.5081 116.612 1 28.3523L1.00001 199L171.614 199Z" fill="#D9D9D6"/>
<ns15:path xmlns:ns15="http://www.w3.org/2000/svg" fill-rule="evenodd" clip-rule="evenodd" d="M35 8.74228e-06C35 91.127 108.873 165 200 165V175C103.35 175 25 96.6498 25 8.74228e-06H35Z" fill="#D9D9D6"/>
<ns16:path xmlns:ns16="http://www.w3.org/2000/svg" fill-rule="evenodd" clip-rule="evenodd" d="M75 8.74228e-06C75 69.0356 130.964 125 200 125V135C125.442 135 65 74.5584 65 8.74228e-06H75Z" fill="#D9D9D6"/>
<ns17:path xmlns:ns17="http://www.w3.org/2000/svg" fill-rule="evenodd" clip-rule="evenodd" d="M115 8.74228e-06C115 46.9442 153.056 85 200 85V95C147.533 95 105 52.4671 105 8.74228e-06H115Z" fill="#D9D9D6"/>
<ns18:path xmlns:ns18="http://www.w3.org/2000/svg" fill-rule="evenodd" clip-rule="evenodd" d="M155 8.74228e-06C155 24.8528 175.147 45 200 45V55C169.624 55 145 30.3757 145 8.74228e-06H155Z" fill="#D9D9D6"/>
<ns19:path xmlns:ns19="http://www.w3.org/2000/svg" fill-rule="evenodd" clip-rule="evenodd" d="M195 8.74228e-06C195 2.76143 197.239 5.00001 200 5.00001V15C191.716 15 185 8.28428 185 8.74228e-06H195Z" fill="#D9D9D6"/>
</svg>
  <svg x="0.0" y="320.0" width="320.0" height="320.0" viewBox="0 0 200 200"><ns20:g xmlns:ns20="http://www.w3.org/2000/svg" clip-path="url(#clip0_35_1277)">
<ns20:rect width="200" height="200" transform="translate(200 8.74228e-06) rotate(90)" fill="#FF4F00"/>
<ns20:path d="M200 3.2055e-05L155.47 66.7949C120.815 118.777 62.4745 150 8.74228e-06 150Lnan nanL8.74228e-06 150L4.41485e-05 8.74228e-06L100 2.03986e-05L200 3.2055e-05Z" fill="#121212"/>
</ns20:g>
<ns21:defs xmlns:ns21="http://www.w3.org/2000/svg">
<ns21:clipPath id="clip0_35_1277">
<ns21:rect width="200" height="200" fill="#FFFFFF" transform="translate(200 8.74228e-06) rotate(90)"/>
</ns21:clipPath>
</ns21:defs>
</svg>
  <svg x="320.0" y="320.0" width="320.0" height="320.0" viewBox="0 0 200 200"><ns22:g xmlns:ns22="http://www.w3.org/2000/svg" clip-path="url(#clip0_5_5486)">
<ns22:rect width="200" height="200" transform="translate(200 1.52588e-05) rotate(90)" fill="#FF4F00"/>
<ns22:path d="M125.075 200C58.3242 200 24.8952 119.295 72.0952 72.0952Lnan nanL72.0952 72.0952C119.295 24.8951 200 58.3242 200 125.075L200 200L125.075 200Z" fill="#4997D0"/>
</ns22:g>
<ns23:defs xmlns:ns23="http://www.w3.org/2000/svg">
<ns23:clipPath id="clip0_5_5486">
<ns23:rect width="200" height="200" fill="#FFFFFF" transform="translate(200 1.52588e-05) rotate(90)"/>
</ns23:clipPath>
</ns23:defs>
</svg>
  <svg x="640.0" y="320.0" width="320.0" height="320.0" viewBox="0 0 200 200"><ns24:g xmlns:ns24="http://www.w3.org/2000/svg" clip-path="url(#clip0_2403_3121)">
<ns24:rect width="200" height="200" transform="translate(200 8.74228e-06) rotate(90)" fill="#F3F3F3"/>
<ns24:path fill-rule="evenodd" clip-rule="evenodd" d="M50 100L200 2.62268e-05L2.40011e-05 0L3.05176e-05 200L100 200L50 100Z" fill="#FF4F00"/>
</ns24:g>
<ns25:defs xmlns:ns25="http://www.w3.org/2000/svg">
<ns25:clipPath id="clip0_2403_3121">
<ns25:rect width="200" height="200" fill="#FFFFFF" transform="translate(200 8.74228e-06) rotate(90)"/>
</ns25:clipPath>
</ns25:defs>
</svg>
  <svg x="960.0" y="320.0" width="320.0" height="320.0" viewBox="0 0 200 200"><ns26:g xmlns:ns26="http://www.w3.org/2000/svg" clip-path="url(#clip0_3_497)">
<ns26:rect width="200" height="200" fill="#FFFFFF"/>
<ns26:path d="M200 0H0V200C0 89.544 89.544 0 200 0Z" fill="#4997D0"/>
<ns26:path d="M100 58.3333C76.9891 58.3333 58.3334 76.9841 58.3334 100C58.3334 123.016 76.9891 141.667 100 141.667C111.508 141.667 121.925 137.004 129.464 129.464C137.004 121.925 141.667 111.508 141.667 100C141.667 76.9841 123.011 58.3333 100 58.3333Z" fill="#4997D0"/>
</ns26:g>
<ns27:defs xmlns:ns27="http://www.w3.org/2000/svg">
<ns27:clipPath id="clip0_3_497">
<ns27:rect width="200" height="200" fill="#FFFFFF"/>
</ns27:clipPath>
</ns27:defs>
</svg>
  <svg x="1280.0" y="320.0" width="320.0" height="320.0" viewBox="0 0 200 200"><ns28:g xmlns:ns28="http://www.w3.org/2000/svg" clip-path="url(#clip0_85_2273)">
<ns28:rect width="200" height="200" transform="translate(200 1.52588e-05) rotate(90)" fill="#F3F3F3"/>
<ns28:rect x="8.74228e-06" y="100" width="200" height="100" fill="#F3F3F3"/>
<ns28:path fill-rule="evenodd" clip-rule="evenodd" d="M200 200L180 200L180 100L200 100L200 200ZM100.028 100L200 99.972C200 99.972 155.241 99.984 100.028 100ZM100.028 100L116 100L116 200L96 200L96 100L74 100L74 200L54 200L54 100L32 100L32 200L12 200L12 100L100.028 100ZM158 200L138 200L138 100L158 100L158 200Z" fill="#FF4F00"/>
<ns28:path d="M200 99.9719L8.74228e-06 100L9.93477e-06 -2.38498e-06L100 -1.19249e-06C155.213 -0.0159994 199.984 44.7439 200 99.9719Z" fill="#FF4F00"/>
</ns28:g>
<ns29:defs xmlns:ns29="http://www.w3.org/2000/svg">
<ns29:clipPath id="clip0_85_2273">
<ns29:rect width="200" height="200" fill="#FFFFFF" transform="translate(200 1.52588e-05) rotate(90)"/>
</ns29:clipPath>
</ns29:defs>
</svg>
  <svg x="1600.0" y="320.0" width="320.0" height="320.0" viewBox="0 0 200 200"><ns30:g xmlns:ns30="http://www.w3.org/2000/svg" clip-path="url(#clip0_35_1228)">
<ns30:rect width="200" height="200" transform="translate(200 8.74228e-06) rotate(90)" fill="#121212"/>
<ns30:path d="M200 25L200 175L8.74228e-06 175L4.15258e-05 25L200 25Z" fill="#F3F3F3"/>
</ns30:g>
<ns31:defs xmlns:ns31="http://www.w3.org/2000/svg">
<ns31:clipPath id="clip0_35_1228">
<ns31:rect width="200" height="200" fill="#FFFFFF" transform="translate(200 8.74228e-06) rotate(90)"/>
</ns31:clipPath>
</ns31:defs>
</svg>
  <svg x="0.0" y="640.0" width="320.0" height="320.0" viewBox="0 0 200 200"><ns32:g xmlns:ns32="http://www.w3.org/2000/svg" clip-path="url(#clip0_4_5448)">
<ns32:rect width="200" height="200" transform="translate(200 8.74228e-06) rotate(90)" fill="#121212"/>
<ns32:path d="M200 1.97103e-05L8.74228e-06 200L3.49691e-05 -6.51651e-06L200 1.97103e-05Z" fill="#D9D9D6"/>
<ns32:path d="M100 200L200 100L200 200L100 200Z" fill="#D9D9D6"/>
</ns32:g>
<ns33:defs xmlns:ns33="http://www.w3.org/2000/svg">
<ns33:clipPath id="clip0_4_5448">
<ns33:rect width="200" height="200" fill="#FFFFFF" transform="translate(200 8.74228e-06) rotate(90)"/>
</ns33:clipPath>
</ns33:defs>
</svg>
  <svg x="320.0" y="640.0" width="320.0" height="320.0" viewBox="0 0 200 200"><ns34:g xmlns:ns34="http://www.w3.org/2000/svg" clip-path="url(#clip0_85_4348)">
<ns34:rect width="200" height="200" transform="translate(200 8.74228e-06) rotate(90)" fill="#F3F3F3"/>
<ns34:circle cx="150" cy="100" r="50" fill="#FF4F00"/>
<ns34:circle cx="150" cy="1.11288e-06" r="50" fill="#FF4F00"/>
<ns34:circle cx="150" cy="200" r="50" fill="#FF4F00"/>
<ns34:rect x="150" y="-10" width="50" height="220" fill="#FF4F00"/>
</ns34:g>
<ns35:defs xmlns:ns35="http://www.w3.org/2000/svg">
<ns35:clipPath id="clip0_85_4348">
<ns35:rect width="200" height="200" fill="#FFFFFF" transform="translate(200 8.74228e-06) rotate(90)"/>
</ns35:clipPath>
</ns35:defs>
</svg>
  <svg x="640.0" y="640.0" width="320.0" height="320.0" viewBox="0 0 200 200"><ns36:g xmlns:ns36="http://www.w3.org/2000/svg" clip-path="url(#clip0_3_607)">
<ns36:rect width="200" height="200" transform="translate(200 1.52588e-05) rotate(90)" fill="#D9D9D6"/>
<ns36:path d="M200 2.62268e-05L200 10L2.23802e-05 100L2.18557e-05 0L200 2.62268e-05Z" fill="#121212"/>
</ns36:g>
<ns37:defs xmlns:ns37="http://www.w3.org/2000/svg">
<ns37:clipPath id="clip0_3_607">
<ns37:rect width="200" height="200" fill="#FFFFFF" transform="translate(200 1.52588e-05) rotate(90)"/>
</ns37:clipPath>
</ns37:defs>
</svg>
  <svg x="960.0" y="640.0" width="320.0" height="320.0" viewBox="0 0 200 200"><ns38:g xmlns:ns38="http://www.w3.org/2000/svg" clip-path="url(#clip0_74_2300)">
<ns38:rect width="200" height="200" transform="translate(200 8.74228e-06) rotate(90)" fill="#121212"/>
<ns38:path d="M328.568 144.504C312 97.912 258.776 75.864 214.104 97.096C143.176 130.808 69.184 56.816 102.904 -14.104C124.136 -58.768 102.088 -111.992 55.496 -128.568C21.216 -140.76 2.82401 -169.76 0.312014 -200L1.35122e-05 -200L8.74228e-06 200L400 200L400 199.688C369.76 197.168 340.76 178.784 328.568 144.504Z" fill="#F3F3F3"/>
</ns38:g>
<ns39:defs xmlns:ns39="http://www.w3.org/2000/svg">
<ns39:clipPath id="clip0_74_2300">
<ns39:rect width="200" height="200" fill="#FFFFFF" transform="translate(200 8.74228e-06) rotate(90)"/>
</ns39:clipPath>
</ns39:defs>
</svg>
  <svg x="1280.0" y="640.0" width="320.0" height="320.0" viewBox="0 0 200 200"><ns40:g xmlns:ns40="http://www.w3.org/2000/svg" clip-path="url(#clip0_4_206)">
<ns40:rect width="200" height="200" transform="translate(200 8.74228e-06) rotate(90)" fill="#FFFFFF"/>
<ns40:path fill-rule="evenodd" clip-rule="evenodd" d="M101.046 0.0050954C100.849 0.00199645 100.652 0.000313685 100.455 5.32538e-05L100.449 2.23595e-05L100.444 4.03871e-05L100.401 1.74946e-05L100.358 3.94186e-05L100.349 3.83041e-05L100.309 5.70389e-05L100.305 3.83041e-05L100.302 5.223e-05L100.261 3.83041e-05L100.248 4.17448e-05L100.225 1.9927e-05C100.211 1.99258e-05 100.197 4.28125e-05 100.183 8.85747e-05C100.173 7.36736e-05 100.163 6.10756e-05 100.153 5.07809e-05C100.148 3.10244e-05 100.142 2.11437e-05 100.137 2.11432e-05L100.131 3.07249e-05C100.117 2.10955e-05 100.103 1.62796e-05 100.089 1.62783e-05C100.078 1.62774e-05 100.067 1.90319e-05 100.057 2.45413e-05C100.038 1.40118e-05 100.019 8.74498e-06 100 8.74228e-06L99.9354 2.91409e-05L99.9126 1.87108e-05C99.8861 1.87085e-05 99.8596 6.08214e-05 99.8331 0.000145018C44.6814 0.0902254 1.68803e-05 44.8271 8.74228e-06 100C2.63876e-06 155.168 44.6734 199.902 99.8183 200L99.8698 200L99.9126 200L99.9502 200L100 200H100L100.041 200L100.065 200C100.074 200 100.083 200 100.093 200C100.099 200 100.106 200 100.113 200L100.129 200C100.143 200 100.158 200 100.172 200L100.197 200L100.217 200L100.225 200H100.227L100.265 200L100.302 200L100.305 200L100.31 200L100.353 200L100.391 200H100.405L100.444 200L100.449 200L100.454 200C100.648 200 100.842 199.998 101.035 199.995L101.108 199.994L101.177 199.993C155.863 199.362 200 154.836 200 100C200 45.1514 155.842 0.616484 101.138 0.00635371C101.108 0.00591104 101.077 0.0054916 101.046 0.0050954ZM58.5705 15.6393C37.0635 33.3961 22.8006 64.5432 22.8006 100C22.8006 135.461 37.0685 166.611 58.581 184.367C31.6435 168.159 13.2 136.615 13.2 100C13.2 63.3897 31.6387 31.8492 58.5705 15.6393ZM133.023 14.2473C151.45 31.7377 163.777 63.5976 163.777 100C163.777 136.398 151.453 168.255 133.031 185.746C156.944 169.92 173.381 137.428 173.381 100C173.381 62.5673 156.941 30.071 133.023 14.2473ZM58.9686 31.436C63.8909 23.6709 69.5034 17.4135 75.6812 12.7998C60.6203 29.9415 50.4486 62.5693 50.4486 100C50.4486 137.45 60.6329 170.093 75.7069 187.227C69.5189 182.612 63.8977 176.348 58.9686 168.572C53.3646 159.732 48.9606 149.408 45.8726 137.892C42.6566 125.9 41.0286 113.152 41.0286 100.004C41.0286 86.856 42.6566 74.108 45.8726 62.116C48.9606 50.6 53.3646 40.276 58.9686 31.436ZM116.118 189.476C116.267 189.352 116.416 189.227 116.565 189.1C122.041 184.416 127.001 177.632 131.301 168.936C140.377 150.592 145.373 126.108 145.373 100C145.373 73.892 140.377 49.412 131.301 31.064C127.001 22.368 122.041 15.584 116.565 10.9C116.416 10.7727 116.267 10.6471 116.118 10.5233C127.774 26.9357 135.777 60.8393 135.777 100C135.777 139.16 127.775 173.063 116.118 189.476ZM78.4966 100C78.4966 58.862 83.8719 23.5254 91.5543 8.17257C90.8515 8.84517 90.1494 9.59846 89.4487 10.432C85.5807 15.036 81.9167 22.02 78.8567 30.628C72.2926 49.096 68.6767 73.732 68.6766 100C68.6766 126.268 72.2926 150.904 78.8566 169.372C81.9166 177.98 85.5806 184.964 89.4486 189.568C90.1494 190.402 90.8515 191.155 91.5543 191.827C83.8719 176.475 78.4966 141.138 78.4966 100ZM103.243 6.73626C106.13 21.2293 108.177 57.5219 108.177 100C108.177 142.476 106.13 178.767 103.243 193.262C105.554 189.943 108.669 183.072 111.529 169.864C115.557 151.248 117.777 126.436 117.777 100C117.777 73.564 115.557 48.752 111.529 30.136C108.67 16.9249 105.555 10.0537 103.243 6.73626ZM142.748 183.551C168.961 167.115 186.8 136.01 186.8 100C186.8 63.9853 168.956 32.8768 142.737 16.4426C163.71 34.3259 177.553 65.0719 177.553 100C177.553 134.924 163.715 165.666 142.748 183.551ZM68.6244 13.413C49.7034 30.7121 36.9766 63.0109 36.9766 100C36.9766 136.993 49.7063 169.295 68.6321 186.593C44.0104 171.1 26.9726 138.108 26.9726 100C26.9726 61.8967 44.0081 28.9082 68.6244 13.413ZM149.505 100C149.505 138.629 138.671 172.143 122.81 188.799C129.885 184.075 136.268 177.266 141.785 168.564C147.389 159.724 151.793 149.4 154.881 137.884C158.097 125.892 159.725 113.144 159.725 99.996C159.725 86.848 158.097 74.1 154.881 62.108C151.793 50.592 147.389 40.268 141.785 31.428C136.265 22.72 129.877 15.908 122.797 11.184L122.785 11.1761C138.658 27.8232 149.505 61.3514 149.505 100ZM84.7949 190.247C84.3243 189.882 83.8555 189.5 83.3886 189.1C77.9126 184.416 72.9526 177.632 68.6526 168.936C59.5766 150.588 54.5806 126.108 54.5806 100C54.5806 73.892 59.5766 49.408 68.6526 31.064C72.9526 22.368 77.9126 15.584 83.3886 10.9C83.855 10.5013 84.3233 10.1196 84.7934 9.75515C72.835 25.8609 64.5766 60.2178 64.5766 100C64.5766 139.784 72.8357 174.142 84.7949 190.247ZM110.905 189.568C110.204 190.402 109.502 191.155 108.799 191.827C116.481 176.475 121.857 141.138 121.857 100C121.857 58.862 116.481 23.5254 108.799 8.1726C109.502 8.8452 110.204 9.59849 110.905 10.432C114.773 15.036 118.437 22.02 121.497 30.628C128.061 49.096 131.677 73.732 131.677 100C131.677 126.268 128.061 150.904 121.497 169.372C118.437 177.98 114.773 184.964 110.905 189.568ZM97.6645 194.012C95.3134 191.035 91.9181 184.163 88.8246 169.864C84.7966 151.248 82.5766 126.436 82.5766 100C82.5766 73.564 84.7966 48.752 88.8246 30.136C91.9203 15.8397 95.314 8.96768 97.6642 5.98922C94.6964 19.9499 92.5766 56.772 92.5766 100C92.5766 143.23 94.6966 180.053 97.6645 194.012ZM160.667 174.405C179.166 156.098 190.8 129.546 190.8 100C190.8 70.4544 179.166 43.9015 160.667 25.595C182.231 43.199 196 69.9916 196 100C196 130.008 182.231 156.801 160.667 174.405ZM39.3331 174.405C20.8345 156.099 9.20003 129.546 9.20003 100C9.20003 70.4543 20.8346 43.9013 39.3333 25.5949C17.7687 43.1988 4.00001 69.9915 4.00001 100C4 130.008 17.7686 156.801 39.3331 174.405ZM98.6606 166.152C99.2206 174.306 99.8174 180.342 100.377 184.799C100.94 180.342 101.533 174.306 102.093 166.152C103.345 147.932 104.033 124.436 104.033 100C104.033 75.564 103.345 52.068 102.093 33.848C101.533 25.6938 100.936 19.658 100.376 15.2009C99.8137 19.658 99.2206 25.6938 98.6607 33.848C97.4086 52.068 96.7206 75.564 96.7206 100C96.7206 124.436 97.4086 147.932 98.6606 166.152Z" fill="#121212"/>
</ns40:g>
<ns41:defs xmlns:ns41="http://www.w3.org/2000/svg">
<ns41:clipPath id="clip0_4_206">
<ns41:rect width="200" height="200" fill="#FFFFFF" transform="translate(200 8.74228e-06) rotate(90)"/>
</ns41:clipPath>
</ns41:defs>
</svg>
  <svg x="1600.0" y="640.0" width="320.0" height="320.0" viewBox="0 0 200 200"><ns42:rect xmlns:ns42="http://www.w3.org/2000/svg" width="200" height="200" transform="translate(200 8.74228e-06) rotate(90)" fill="#4997D0"/>
<ns43:ellipse xmlns:ns43="http://www.w3.org/2000/svg" cx="100" cy="100" rx="75" ry="50" transform="rotate(90 100 100)" fill="#FFFFFF"/>
<ns44:circle xmlns:ns44="http://www.w3.org/2000/svg" cx="99.9998" cy="120" r="33.3333" fill="#4997D0"/>
</svg>
</svg>
