<?xml version='1.0' encoding='UTF-8'?>
<svg xmlns="http://www.w3.org/2000/svg" version="1.1" width="1920" height="960" viewBox="0 0 1920 960">
  <rect x="0" y="0" width="320" height="320" fill="#F3F3F3"/>
  <g transform="translate(0,0) scale(1.6)">
    <path d="M100 100L200 2.62268e-05L3.92599e-05 0L1.52588e-05 200L200 200L100 100Z" fill="#121212" fill-rule="evenodd"/>
  </g>
  <rect x="320" y="0" width="320" height="320" fill="#FFFFFF"/>
  <g transform="translate(320,0) scale(1.6) rotate(90,100,100)">
    <path d="M100 100L200 2.62268e-05L3.92599e-05 0L1.52588e-05 200L200 200L100 100Z" fill="#FF4F00" fill-rule="evenodd"/>
  </g>
  <rect x="640" y="0" width="320" height="320" fill="#FFFFFF"/>
  <g transform="translate(640,0) scale(1.6) rotate(180,100,100)">
    <path d="M100 100L200 2.62268e-05L3.92599e-05 0L1.52588e-05 200L100 200L100 100Z" fill="#121212" fill-rule="evenodd"/>
  </g>
  <rect x="960" y="0" width="320" height="320" fill="#FFFFFF"/>
  <g transform="translate(960,0) scale(1.6) rotate(180,100,100)">
    <path d="M100 100L200 2.62268e-05L3.92599e-05 0L1.52588e-05 200L100 200L100 100Z" fill="#121212" fill-rule="evenodd"/>
  </g>
  <rect x="1280" y="0" width="320" height="320" fill="#FFFFFF"/>
  <g transform="translate(1280,0) scale(1.6) rotate(90,100,100)">
    <path d="M100 100L200 2.62268e-05L3.92599e-05 0L1.52588e-05 200L200 200L100 100Z" fill="#121212" fill-rule="evenodd"/>
  </g>
  <rect x="1600" y="0" width="320" height="320" fill="#F3F3F3"/>
  <g transform="translate(1600,0) scale(1.6)">
    <path d="M100 100L200 2.62268e-05L3.92599e-05 0L1.52588e-05 200L200 200L100 100Z" fill="#D9D9D6" fill-rule="evenodd"/>
  </g>
  <rect x="0" y="320" width="320" height="320" fill="#F3F3F3"/>
  <g transform="translate(0,320) scale(1.6)">
    <path d="M100 100L200 2.62268e-05L3.92599e-05 0L1.52588e-05 200L200 200L100 100Z" fill="#D9D9D6" fill-rule="evenodd"/>
  </g>
  <rect x="320" y="320" width="320" height="320" fill="#FFFFFF"/>
  <g transform="translate(320,320) scale(1.6) rotate(90,100,100)">
    <path d="M100 100L200 2.62268e-05L3.92599e-05 0L1.52588e-05 200L100 200L100 100Z" fill="#121212" fill-rule="evenodd"/>
  </g>
  <rect x="640" y="320" width="320" height="320" fill="#F3F3F3"/>
  <g transform="translate(640,320) scale(1.6) rotate(180,100,100)">
    <path d="M100 100L200 2.62268e-05L3.92599e-05 0L1.52588e-05 200L200 200L100 100Z" fill="#FF4F00" fill-rule="evenodd"/>
  </g>
  <rect x="960" y="320" width="320" height="320" fill="#F3F3F3"/>
  <g transform="translate(960,320) scale(1.6) rotate(180,100,100)">
    <path d="M100 100L200 2.62268e-05L3.92599e-05 0L1.52588e-05 200L200 200L100 100Z" fill="#121212" fill-rule="evenodd"/>
  </g>
  <rect x="1280" y="320" width="320" height="320" fill="#FFFFFF"/>
  <g transform="translate(1280,320) scale(1.6) rotate(90,100,100)">
    <path d="M100 100L200 2.62268e-05L3.92599e-05 0L1.52588e-05 200L100 200L100 100Z" fill="#FF4F00" fill-rule="evenodd"/>
  </g>
  <rect x="1600" y="320" width="320" height="320" fill="#F3F3F3"/>
  <g transform="translate(1600,320) scale(1.6)">
    <path d="M100 100L200 2.62268e-05L3.92599e-05 0L1.52588e-05 200L200 200L100 100Z" fill="#121212" fill-rule="evenodd"/>
  </g>
  <rect x="0" y="640" width="320" height="320" fill="#FFFFFF"/>
  <g transform="translate(0,640) scale(1.6)">
    <path d="M100 100L200 2.62268e-05L3.92599e-05 0L1.52588e-05 200L200 200L100 100Z" fill="#121212" fill-rule="evenodd"/>
  </g>
  <rect x="320" y="640" width="320" height="320" fill="#FF4F00"/>
  <g transform="translate(320,640) scale(1.6) rotate(90,100,100)">
    <path d="M50 100L200 2.62268e-05L2.40011e-05 0L3.05176e-05 200L100 200L50 100Z" fill="#D9D9D6" fill-rule="evenodd"/>
  </g>
  <rect x="640" y="640" width="320" height="320" fill="#FFFFFF"/>
  <g transform="translate(640,640) scale(1.6) rotate(180,100,100)">
    <path d="M50 100L200 2.62268e-05L2.40011e-05 0L3.05176e-05 200L100 200L50 100Z" fill="#121212" fill-rule="evenodd"/>
  </g>
  <rect x="960" y="640" width="320" height="320" fill="#FFFFFF"/>
  <g transform="translate(960,640) scale(1.6) rotate(180,100,100)">
    <path d="M50 100L200 2.62268e-05L2.40011e-05 0L3.05176e-05 200L100 200L50 100Z" fill="#FF4F00" fill-rule="evenodd"/>
  </g>
  <rect x="1280" y="640" width="320" height="320" fill="#FF4F00"/>
  <g transform="translate(1280,640) scale(1.6) rotate(90,100,100)">
    <path d="M50 100L200 2.62268e-05L2.40011e-05 0L3.05176e-05 200L100 200L50 100Z" fill="#121212" fill-rule="evenodd"/>
  </g>
  <rect x="1600" y="640" width="320" height="320" fill="#FFFFFF"/>
  <g transform="translate(1600,640) scale(1.6)">
    <path d="M100 100L200 2.62268e-05L3.92599e-05 0L1.52588e-05 200L200 200L100 100Z" fill="#D9D9D6" fill-rule="evenodd"/>
  </g>
</svg>
