<?xml version='1.0' encoding='UTF-8'?>
<svg xmlns="http://www.w3.org/2000/svg" version="1.1" width="1920" height="960" viewBox="0 0 1920 960">
  <rect x="0" y="0" width="320" height="320" fill="#FFFFFF"/>
  <svg x="0" y="0" width="320" height="320" viewBox="0 0 200 200" overflow="hidden"><path xmlns="http://www.w3.org/2000/svg" d="M200 3.2055e-05L155.47 66.7949C120.815 118.777 62.4745 150 8.74228e-06 150L8.74228e-06 150L4.41485e-05 8.74228e-06L100 2.03986e-05L200 3.2055e-05Z" fill="#121212"/>
</svg>
  <rect x="320" y="0" width="320" height="320" fill="#121212"/>
  <svg x="320" y="0" width="320" height="320" viewBox="0 0 200 200" overflow="hidden"><path xmlns="http://www.w3.org/2000/svg" d="M200 1.67962e-05L200 150L8.74228e-06 150L4.41485e-05 -6.51651e-06L200 1.67962e-05Z" fill="#FF4F00" transform="rotate(270,100,100)"/>
</svg>
  <rect x="640" y="0" width="320" height="320" fill="#F3F3F3"/>
  <svg x="640" y="0" width="320" height="320" viewBox="0 0 200 200" overflow="hidden"><path xmlns="http://www.w3.org/2000/svg" d="M200 2.44739e-09L-6.51651e-06 2.4471e-09L0 200C110.425 200.032 199.968 110.456 200 2.44739e-09Z" fill="#FFA300" transform="rotate(180,100,100)"/>
</svg>
  <rect x="960" y="0" width="320" height="320" fill="#F3F3F3"/>
  <svg x="960" y="0" width="320" height="320" viewBox="0 0 200 200" overflow="hidden"><path xmlns="http://www.w3.org/2000/svg" d="M200 2.73397e-05L200 100L8.74228e-06 200L3.49691e-05 1.11288e-06L200 2.73397e-05Z" fill="#FFA300"/>
</svg>
  <rect x="1280" y="0" width="320" height="320" fill="#FF4F00"/>
  <svg x="1280" y="0" width="320" height="320" viewBox="0 0 200 200" overflow="hidden"><path xmlns="http://www.w3.org/2000/svg" d="M195 5.00003L195 195L5.00001 195L5.00005 5.00001L195 5.00003Z M200 8.74228e-06L8.74228e-06 200V8.74228e-06H200Z M100 200L200 100V200H100Z" fill="#121212" transform="rotate(180,100,100)"/>
</svg>
  <rect x="1600" y="0" width="320" height="320" fill="#FF4F00"/>
  <svg x="1600" y="0" width="320" height="320" viewBox="0 0 200 200" overflow="hidden"><path xmlns="http://www.w3.org/2000/svg" d="M100 100L200 2.62268e-05L3.92599e-05 0L1.52588e-05 200L200 200L100 100Z" fill="#121212"/>
</svg>
  <rect x="0" y="320" width="320" height="320" fill="#121212"/>
  <svg x="0" y="320" width="320" height="320" viewBox="0 0 200 200" overflow="hidden"><path xmlns="http://www.w3.org/2000/svg" d="M200 0H0V200C0 89.544 89.544 0 200 0Z M141.42 141.42C105.228 177.616 55.228 200 0 200H200V0C200 55.228 177.616 105.228 141.42 141.42Z M100 58.3333C76.9893 58.3333 58.3335 76.9841 58.3335 100C58.3335 123.016 76.9893 141.667 100 141.667C111.508 141.667 121.925 137.004 129.464 129.464C137.004 121.925 141.667 111.508 141.667 100C141.667 76.9841 123.011 58.3333 100 58.3333Z" fill="#FF4F00" transform="rotate(180,100,100)"/>
</svg>
  <rect x="320" y="320" width="320" height="320" fill="#F3F3F3"/>
  <svg x="320" y="320" width="320" height="320" viewBox="0 0 200 200" overflow="hidden"><path xmlns="http://www.w3.org/2000/svg" d="M200 200C132.395 150.473 132.395 49.5275 200 2.62268e-05L-5.22929e-05 0L-6.10352e-05 200L200 200Z" fill="#FFA300" transform="rotate(90,100,100)"/>
</svg>
  <rect x="640" y="320" width="320" height="320" fill="#121212"/>
  <svg x="640" y="320" width="320" height="320" viewBox="0 0 200 200" overflow="hidden"><path xmlns="http://www.w3.org/2000/svg" d="M190 1.8399e-05L190 190L8.74228e-06 190L4.61155e-05 -6.51651e-06L190 1.8399e-05Z" fill="#FFA300"/>
</svg>
  <rect x="960" y="320" width="320" height="320" fill="#FF4F00"/>
  <svg x="960" y="320" width="320" height="320" viewBox="0 0 200 200" overflow="hidden"><path xmlns="http://www.w3.org/2000/svg" d="M200 3.49691e-05L8.74228e-06 200L3.49691e-05 8.74228e-06L200 3.49691e-05Z M50 200L200 50L200 200L50 200Z" fill="#121212" transform="rotate(270,100,100)"/>
</svg>
  <rect x="1280" y="320" width="320" height="320" fill="#FFFFFF"/>
  <svg x="1280" y="320" width="320" height="320" viewBox="0 0 200 200" overflow="hidden"><path xmlns="http://www.w3.org/2000/svg" d="M200 200C144.772 200 8.74228e-06 200 8.74228e-06 200C8.74228e-06 144.772 44.7715 100 100 100C155.228 100 200 144.772 200 200Z M1.74846e-05 -8.74228e-06C55.2285 -3.91405e-06 200 8.74228e-06 200 8.74228e-06C200 55.2285 155.228 100 100 100C44.7715 100 1.26563e-05 55.2285 1.74846e-05 -8.74228e-06Z" fill="#121212"/>
</svg>
  <rect x="1600" y="320" width="320" height="320" fill="#121212"/>
  <svg x="1600" y="320" width="320" height="320" viewBox="0 0 200 200" overflow="hidden"><path xmlns="http://www.w3.org/2000/svg" d="M101.046 0.0050954C100.849 0.00199645 100.652 0.000313685 100.455 5.32538e-05L100.449 2.23595e-05L100.444 4.03871e-05L100.401 1.74946e-05L100.358 3.94186e-05L100.349 3.83041e-05L100.309 5.70389e-05L100.305 3.83041e-05L100.302 5.223e-05L100.261 3.83041e-05L100.248 4.17448e-05L100.225 1.9927e-05C100.211 1.99258e-05 100.197 4.28125e-05 100.183 8.85747e-05C100.173 7.36736e-05 100.163 6.10756e-05 100.153 5.07809e-05C100.148 3.10244e-05 100.142 2.11437e-05 100.137 2.11432e-05L100.131 3.07249e-05C100.117 2.10955e-05 100.103 1.62796e-05 100.089 1.62783e-05C100.078 1.62774e-05 100.067 1.90319e-05 100.057 2.45413e-05C100.038 1.40118e-05 100.019 8.74498e-06 100 8.74228e-06L99.9354 2.91409e-05L99.9126 1.87108e-05C99.8861 1.87085e-05 99.8596 6.08214e-05 99.8331 0.000145018C44.6814 0.0902254 1.68803e-05 44.8271 8.74228e-06 100C2.63876e-06 155.168 44.6734 199.902 99.8183 200L99.8698 200L99.9126 200L99.9502 200L100 200H100L100.041 200L100.065 200C100.074 200 100.083 200 100.093 200C100.099 200 100.106 200 100.113 200L100.129 200C100.143 200 100.158 200 100.172 200L100.197 200L100.217 200L100.225 200H100.227L100.265 200L100.302 200L100.305 200L100.31 200L100.353 200L100.391 200H100.405L100.444 200L100.449 200L100.454 200C100.648 200 100.842 199.998 101.035 199.995L101.108 199.994L101.177 199.993C155.863 199.362 200 154.836 200 100C200 45.1514 155.842 0.616484 101.138 0.00635371C101.108 0.00591104 101.077 0.0054916 101.046 0.0050954ZM58.5705 15.6393C37.0635 33.3961 22.8006 64.5432 22.8006 100C22.8006 135.461 37.0685 166.611 58.581 184.367C31.6435 168.159 13.2 136.615 13.2 100C13.2 63.3897 31.6387 31.8492 58.5705 15.6393ZM133.023 14.2473C151.45 31.7377 163.777 63.5976 163.777 100C163.777 136.398 151.453 168.255 133.031 185.746C156.944 169.92 173.381 137.428 173.381 100C173.381 62.5673 156.941 30.071 133.023 14.2473ZM58.9686 31.436C63.8909 23.6709 69.5034 17.4135 75.6812 12.7998C60.6203 29.9415 50.4486 62.5693 50.4486 100C50.4486 137.45 60.6329 170.093 75.7069 187.227C69.5189 182.612 63.8977 176.348 58.9686 168.572C53.3646 159.732 48.9606 149.408 45.8726 137.892C42.6566 125.9 41.0286 113.152 41.0286 100.004C41.0286 86.856 42.6566 74.108 45.8726 62.116C48.9606 50.6 53.3646 40.276 58.9686 31.436ZM116.118 189.476C116.267 189.352 116.416 189.227 116.565 189.1C122.041 184.416 127.001 177.632 131.301 168.936C140.377 150.592 145.373 126.108 145.373 100C145.373 73.892 140.377 49.412 131.301 31.064C127.001 22.368 122.041 15.584 116.565 10.9C116.416 10.7727 116.267 10.6471 116.118 10.5233C127.774 26.9357 135.777 60.8393 135.777 100C135.777 139.16 127.775 173.063 116.118 189.476ZM78.4966 100C78.4966 58.862 83.8719 23.5254 91.5543 8.17257C90.8515 8.84517 90.1494 9.59846 89.4487 10.432C85.5807 15.036 81.9167 22.02 78.8567 30.628C72.2926 49.096 68.6767 73.732 68.6766 100C68.6766 126.268 72.2926 150.904 78.8566 169.372C81.9166 177.98 85.5806 184.964 89.4486 189.568C90.1494 190.402 90.8515 191.155 91.5543 191.827C83.8719 176.475 78.4966 141.138 78.4966 100ZM103.243 6.73626C106.13 21.2293 108.177 57.5219 108.177 100C108.177 142.476 106.13 178.767 103.243 193.262C105.554 189.943 108.669 183.072 111.529 169.864C115.557 151.248 117.777 126.436 117.777 100C117.777 73.564 115.557 48.752 111.529 30.136C108.67 16.9249 105.555 10.0537 103.243 6.73626ZM142.748 183.551C168.961 167.115 186.8 136.01 186.8 100C186.8 63.9853 168.956 32.8768 142.737 16.4426C163.71 34.3259 177.553 65.0719 177.553 100C177.553 134.924 163.715 165.666 142.748 183.551ZM68.6244 13.413C49.7034 30.7121 36.9766 63.0109 36.9766 100C36.9766 136.993 49.7063 169.295 68.6321 186.593C44.0104 171.1 26.9726 138.108 26.9726 100C26.9726 61.8967 44.0081 28.9082 68.6244 13.413ZM149.505 100C149.505 138.629 138.671 172.143 122.81 188.799C129.885 184.075 136.268 177.266 141.785 168.564C147.389 159.724 151.793 149.4 154.881 137.884C158.097 125.892 159.725 113.144 159.725 99.996C159.725 86.848 158.097 74.1 154.881 62.108C151.793 50.592 147.389 40.268 141.785 31.428C136.265 22.72 129.877 15.908 122.797 11.184L122.785 11.1761C138.658 27.8232 149.505 61.3514 149.505 100ZM84.7949 190.247C84.3243 189.882 83.8555 189.5 83.3886 189.1C77.9126 184.416 72.9526 177.632 68.6526 168.936C59.5766 150.588 54.5806 126.108 54.5806 100C54.5806 73.892 59.5766 49.408 68.6526 31.064C72.9526 22.368 77.9126 15.584 83.3886 10.9C83.855 10.5013 84.3233 10.1196 84.7934 9.75515C72.835 25.8609 64.5766 60.2178 64.5766 100C64.5766 139.784 72.8357 174.142 84.7949 190.247ZM110.905 189.568C110.204 190.402 109.502 191.155 108.799 191.827C116.481 176.475 121.857 141.138 121.857 100C121.857 58.862 116.481 23.5254 108.799 8.1726C109.502 8.8452 110.204 9.59849 110.905 10.432C114.773 15.036 118.437 22.02 121.497 30.628C128.061 49.096 131.677 73.732 131.677 100C131.677 126.268 128.061 150.904 121.497 169.372C118.437 177.98 114.773 184.964 110.905 189.568ZM97.6645 194.012C95.3134 191.035 91.9181 184.163 88.8246 169.864C84.7966 151.248 82.5766 126.436 82.5766 100C82.5766 73.564 84.7966 48.752 88.8246 30.136C91.9203 15.8397 95.314 8.96768 97.6642 5.98922C94.6964 19.9499 92.5766 56.772 92.5766 100C92.5766 143.23 94.6966 180.053 97.6645 194.012ZM160.667 174.405C179.166 156.098 190.8 129.546 190.8 100C190.8 70.4544 179.166 43.9015 160.667 25.595C182.231 43.199 196 69.9916 196 100C196 130.008 182.231 156.801 160.667 174.405ZM39.3331 174.405C20.8345 156.099 9.20003 129.546 9.20003 100C9.20003 70.4543 20.8346 43.9013 39.3333 25.5949C17.7687 43.1988 4.00001 69.9915 4.00001 100C4 130.008 17.7686 156.801 39.3331 174.405ZM98.6606 166.152C99.2206 174.306 99.8174 180.342 100.377 184.799C100.94 180.342 101.533 174.306 102.093 166.152C103.345 147.932 104.033 124.436 104.033 100C104.033 75.564 103.345 52.068 102.093 33.848C101.533 25.6938 100.936 19.658 100.376 15.2009C99.8137 19.658 99.2206 25.6938 98.6607 33.848C97.4086 52.068 96.7206 75.564 96.7206 100C96.7206 124.436 97.4086 147.932 98.6606 166.152Z" fill="#FF4F00" transform="rotate(180,100,100)"/>
</svg>
  <rect x="0" y="640" width="320" height="320" fill="#121212"/>
  <svg x="0" y="640" width="320" height="320" viewBox="0 0 200 200" overflow="hidden"><path xmlns="http://www.w3.org/2000/svg" d="M200 2.73397e-05L200 100L8.74228e-06 200L3.49691e-05 1.11288e-06L200 2.73397e-05Z" fill="#FF4F00" transform="rotate(270,100,100)"/>
</svg>
  <rect x="320" y="640" width="320" height="320" fill="#FFFFFF"/>
  <svg x="320" y="640" width="320" height="320" viewBox="0 0 200 200" overflow="hidden"><path xmlns="http://www.w3.org/2000/svg" d="M150 100H200C200 44.772 155.228 8.74228e-06 100 8.74228e-06C44.772 8.74228e-06 8.74228e-06 44.772 8.74228e-06 100H50C50 127.616 72.384 150 100 150C127.616 150 150 127.616 150 100Z" fill="#FFA300" transform="rotate(270,100,100)"/>
</svg>
  <rect x="640" y="640" width="320" height="320" fill="#FFFFFF"/>
  <svg x="640" y="640" width="320" height="320" viewBox="0 0 200 200" overflow="hidden"><path xmlns="http://www.w3.org/2000/svg" d="M100 100L200 2.62268e-05L3.92599e-05 0L1.52588e-05 200L200 200L100 100Z" fill="#FFA300" transform="rotate(180,100,100)"/>
</svg>
  <rect x="960" y="640" width="320" height="320" fill="#121212"/>
  <svg x="960" y="640" width="320" height="320" viewBox="0 0 200 200" overflow="hidden"><path xmlns="http://www.w3.org/2000/svg" d="M128.1730,143.4165 L127.7647,142.3380 L127.3432,141.2687 L126.9087,140.2085 L126.4613,139.1575 L126.0012,138.1157 L125.5283,137.0833 L125.0430,136.0602 L124.5452,135.0465 L124.0352,134.0423 L123.5131,133.0477 L122.9790,132.0626 L122.4330,131.0871 L121.8752,130.1214 L121.3059,129.1653 L120.7250,128.2191 L120.1329,127.2827 L119.5294,126.3562 L118.9149,125.4397 L118.2894,124.5331 L117.6531,123.6367 L117.0061,122.7503 L116.3485,121.8741 L115.6804,121.0081 L115.0021,120.1524 L114.3135,119.3071 L113.6149,118.4721 L112.9063,117.6475 L112.1880,116.8335 L111.4599,116.0299 L110.7224,115.2370 L109.9754,114.4548 L109.2191,113.6832 L108.4537,112.9224 L107.6792,112.1724 L106.8959,111.4332 L106.1037,110.7050 L105.3030,109.9878 L104.4937,109.2815 L103.6761,108.5864 L102.8502,107.9024 L102.0162,107.2296 L101.1742,106.5680 L100.3243,105.9177 L99.4667,105.2787 L98.6015,104.6512 L97.7288,104.0351 L96.8488,103.4305 L95.9615,102.8375 L95.0672,102.2561 L94.1659,101.6864 L93.2578,101.1284 L92.3430,100.5821 L91.4216,100.0477 L90.4938,99.5252 L89.5597,99.0146 L88.6194,98.5160 L87.6730,98.0294 L86.7207,97.5550 L85.7626,97.0927 L84.7989,96.6426 L83.8296,96.2047 L82.8550,95.7792 L81.8750,95.3660 L80.8899,94.9652 L79.8998,94.5770 L78.9048,94.2012 L77.9050,93.8380 L76.9006,93.4875 L75.8917,93.1497 L74.8785,92.8245 L73.8610,92.5122 L72.8394,92.2128 L71.8138,91.9262 L70.7843,91.6526 L69.7512,91.3920 L68.7144,91.1444 L67.6742,90.9100 L66.6306,90.6888 L65.5839,90.4807 L64.5340,90.2860 L63.4812,90.1045 L62.4256,89.9365 L61.3673,89.7819 L60.3065,89.6408 L59.2432,89.5132 L58.1776,89.3992 L57.1098,89.2989 L56.0400,89.2123 L54.9683,89.1394 L53.8948,89.0804 L52.8197,89.0352 L51.7430,89.0040 L50.6649,88.9867 L49.5856,88.9834 L48.5051,88.9943 L47.4236,89.0192 L46.3413,89.0584 L45.2582,89.1117 L44.1745,89.1794 L43.0903,89.2615 L42.0057,89.3579 L40.9209,89.4688 L39.8360,89.5942 L38.7511,89.7341 L37.6664,89.8887 L36.5819,90.0580 L35.4979,90.2419 L34.4144,90.4407 L33.3316,90.6543 L32.2496,90.8828 L31.1686,91.1262 L30.0886,91.3846 L29.0098,91.6580 L27.9323,91.9465 L26.8562,92.2502 L25.7818,92.5691 L24.7090,92.9033 L23.6381,93.2528 L22.5692,93.6176 L21.5023,93.9979 L20.4377,94.3936 L19.3755,94.8049 L18.3157,95.2317 L17.2585,95.6742 L16.2041,96.1324 L15.1525,96.6063 L14.1040,97.0960 L14.1040,97.0960 L12.4411,97.8665 L10.7774,98.5978 L9.1133,99.2903 L7.4489,99.9443 L5.7847,100.5602 L4.1210,101.1382 L2.4580,101.6787 L0.7961,102.1819 L0.0000,102.4055 L0.0000,200.0000 L3.1250,200.0000 L6.2500,200.0000 L9.3750,200.0000 L12.5000,200.0000 L15.6250,200.0000 L18.7500,200.0000 L21.8750,200.0000 L25.0000,200.0000 L28.1250,200.0000 L31.2500,200.0000 L34.3750,200.0000 L37.5000,200.0000 L40.6250,200.0000 L43.7500,200.0000 L46.8750,200.0000 L50.0000,200.0000 L53.1250,200.0000 L56.2500,200.0000 L59.3750,200.0000 L62.5000,200.0000 L65.6250,200.0000 L68.7500,200.0000 L71.8750,200.0000 L75.0000,200.0000 L78.1250,200.0000 L81.2500,200.0000 L84.3750,200.0000 L87.5000,200.0000 L90.6250,200.0000 L93.7500,200.0000 L96.8750,200.0000 L100.0000,200.0000 L103.1250,200.0000 L106.2500,200.0000 L109.3750,200.0000 L112.5000,200.0000 L115.6250,200.0000 L118.7500,200.0000 L121.8750,200.0000 L125.0000,200.0000 L128.1250,200.0000 L131.2500,200.0000 L134.3750,200.0000 L137.5000,200.0000 L140.6250,200.0000 L143.7500,200.0000 L146.8750,200.0000 L150.0000,200.0000 L153.1250,200.0000 L156.2500,200.0000 L159.3750,200.0000 L162.5000,200.0000 L165.6250,200.0000 L168.7500,200.0000 L171.8750,200.0000 L175.0000,200.0000 L178.1250,200.0000 L181.2500,200.0000 L184.3750,200.0000 L187.5000,200.0000 L190.6250,200.0000 L193.7500,200.0000 L196.8750,200.0000 L200.0000,200.0000 L200.0000,199.9976 L200.0000,199.9951 L200.0000,199.9927 L200.0000,199.9903 L200.0000,199.9878 L200.0000,199.9854 L200.0000,199.9829 L200.0000,199.9805 L200.0000,199.9781 L200.0000,199.9756 L200.0000,199.9732 L200.0000,199.9708 L200.0000,199.9683 L200.0000,199.9659 L200.0000,199.9634 L200.0000,199.9610 L200.0000,199.9586 L200.0000,199.9561 L200.0000,199.9537 L200.0000,199.9512 L200.0000,199.9488 L200.0000,199.9464 L200.0000,199.9439 L200.0000,199.9415 L200.0000,199.9391 L200.0000,199.9366 L200.0000,199.9342 L200.0000,199.9317 L200.0000,199.9293 L200.0000,199.9269 L200.0000,199.9244 L200.0000,199.9220 L200.0000,199.9196 L200.0000,199.9171 L200.0000,199.9147 L200.0000,199.9123 L200.0000,199.9098 L200.0000,199.9074 L200.0000,199.9049 L200.0000,199.9025 L200.0000,199.9001 L200.0000,199.8976 L200.0000,199.8952 L200.0000,199.8928 L200.0000,199.8903 L200.0000,199.8879 L200.0000,199.8854 L200.0000,199.8830 L200.0000,199.8806 L200.0000,199.8781 L200.0000,199.8757 L200.0000,199.8732 L200.0000,199.8708 L200.0000,199.8684 L200.0000,199.8659 L200.0000,199.8635 L200.0000,199.8611 L200.0000,199.8586 L200.0000,199.8562 L200.0000,199.8537 L200.0000,199.8513 L200.0000,199.8489 L200.0000,199.8464 L200.0000,199.8440 L200.0000,199.8416 L200.0000,199.8391 L200.0000,199.8367 L200.0000,199.8342 L200.0000,199.8318 L200.0000,199.8294 L200.0000,199.8269 L200.0000,199.8245 L200.0000,199.8221 L200.0000,199.8196 L200.0000,199.8172 L200.0000,199.8148 L200.0000,199.8123 L200.0000,199.8099 L200.0000,199.8074 L200.0000,199.8050 L200.0000,199.8026 L200.0000,199.8001 L200.0000,199.7977 L200.0000,199.7952 L200.0000,199.7928 L200.0000,199.7904 L200.0000,199.7879 L200.0000,199.7855 L200.0000,199.7831 L200.0000,199.7806 L200.0000,199.7782 L200.0000,199.7757 L200.0000,199.7733 L200.0000,199.7709 L200.0000,199.7684 L200.0000,199.7660 L200.0000,199.7636 L200.0000,199.7611 L200.0000,199.7587 L200.0000,199.7562 L200.0000,199.7538 L200.0000,199.7514 L200.0000,199.7489 L200.0000,199.7465 L200.0000,199.7441 L200.0000,199.7416 L200.0000,199.7392 L200.0000,199.7368 L200.0000,199.7343 L200.0000,199.7319 L200.0000,199.7294 L200.0000,199.7270 L200.0000,199.7246 L200.0000,199.7221 L200.0000,199.7197 L200.0000,199.7172 L200.0000,199.7148 L200.0000,199.7124 L200.0000,199.7099 L200.0000,199.7075 L200.0000,199.7051 L200.0000,199.7026 L200.0000,199.7002 L200.0000,199.6977 L200.0000,199.6953 L200.0000,199.6929 L200.0000,199.6904 L200.0000,199.6880 L199.2915,199.6260 L198.5835,199.5583 L197.8760,199.4847 L197.1691,199.4053 L196.4629,199.3201 L195.7573,199.2290 L195.0524,199.1322 L194.3483,199.0296 L193.6451,198.9211 L192.9426,198.8069 L192.2411,198.6868 L191.5405,198.5609 L190.8409,198.4292 L190.1424,198.2917 L189.4449,198.1484 L188.7485,197.9993 L188.0533,197.8444 L187.3594,197.6836 L186.6666,197.5171 L185.9752,197.3447 L185.2851,197.1665 L184.5964,196.9825 L183.9092,196.7927 L183.2234,196.5971 L182.5391,196.3957 L181.8565,196.1885 L181.1754,195.9754 L180.4960,195.7566 L179.8182,195.5319 L179.1423,195.3014 L178.4681,195.0651 L177.7957,194.8230 L177.1253,194.5751 L176.4567,194.3213 L175.7902,194.0618 L175.1256,193.7964 L174.4631,193.5253 L173.8027,193.2483 L173.1444,192.9655 L172.4884,192.6769 L171.8346,192.3824 L171.1830,192.0822 L170.5338,191.7762 L169.8869,191.4643 L169.2425,191.1466 L168.6005,190.8231 L167.9610,190.4938 L167.3241,190.1587 L166.6898,189.8178 L166.0581,189.4710 L165.4290,189.1184 L164.8027,188.7601 L164.1792,188.3959 L163.5585,188.0259 L162.9406,187.6500 L162.3257,187.2684 L161.7137,186.8810 L161.1047,186.4877 L160.4987,186.0886 L159.8958,185.6837 L159.2961,185.2730 L158.6995,184.8565 L158.1061,184.4342 L157.5160,184.0060 L156.9292,183.5720 L156.3457,183.1322 L155.7657,182.6866 L155.1890,182.2352 L154.6159,181.7780 L154.0463,181.3149 L153.4802,180.8461 L152.9178,180.3714 L152.3590,179.8909 L151.8040,179.4046 L151.2527,178.9125 L150.7051,178.4145 L150.1615,177.9108 L149.6217,177.4012 L149.0858,176.8858 L148.5539,176.3646 L148.0260,175.8375 L147.5022,175.3047 L146.9825,174.7660 L146.4669,174.2215 L145.9556,173.6712 L145.4485,173.1151 L144.9456,172.5532 L144.4471,171.9854 L143.9530,171.4119 L143.4633,170.8325 L142.9780,170.2473 L142.4973,169.6563 L142.0211,169.0594 L141.5495,168.4568 L141.0825,167.8483 L140.6202,167.2340 L140.1627,166.6139 L139.7099,165.9880 L139.2620,165.3562 L138.8189,164.7186 L138.3807,164.0753 L137.9475,163.4260 L137.5193,162.7710 L137.0961,162.1102 L136.6780,161.4435 L136.2650,160.7710 L135.8572,160.0927 L135.4547,159.4086 L135.0574,158.7187 L134.6654,158.0229 L134.2787,157.3213 L133.8975,156.6139 L133.5217,155.9007 L133.1513,155.1817 L132.7866,154.4568 L132.4274,153.7261 L132.0738,152.9896 L131.7258,152.2473 L131.3836,151.4992 L131.0472,150.7452 L130.7165,149.9854 L130.3917,149.2198 L130.0728,148.4484 L129.7598,147.6712 L129.4527,146.8881 L129.1518,146.0992 L128.8568,145.3045 L128.5680,144.5040 Z" fill="#FFA300"/>
</svg>
  <rect x="1280" y="640" width="320" height="320" fill="#121212"/>
  <svg x="1280" y="640" width="320" height="320" viewBox="0 0 200 200" overflow="hidden"><path xmlns="http://www.w3.org/2000/svg" d="M20 200H40L40 0H20L20 200Z M180 200H200L200 0H180L180 200Z M80 200H60V100V0H80V55.9927C80 57.6415 81.9006 58.604 83.2937 57.7221C83.7889 57.4087 84.2899 57.1037 84.7967 56.8074C93.0078 52.0057 100 44.1641 100 34.6521V0H120V34.6521C120 44.1641 126.992 52.0057 135.203 56.8074C135.71 57.1037 136.211 57.4087 136.706 57.7221C138.099 58.604 140 57.6415 140 55.9927V0H160V100V200H140V144.007C140 142.359 138.099 141.396 136.706 142.278C136.211 142.591 135.71 142.896 135.203 143.193C126.992 147.994 120 155.836 120 165.348V200H100V165.348C100 155.836 93.0079 147.994 84.7967 143.193C84.29 142.896 83.7889 142.591 83.2937 142.278C81.9006 141.396 80 142.359 80 144.007V200Z M20.0,32.5 L35.8333,32.5 L35.8333,48.3333 L20.0,48.3333 Z" fill="#FF4F00" fill-rule="evenodd" transform="rotate(270,100,100)"/>
</svg>
  <rect x="1600" y="640" width="320" height="320" fill="#FFFFFF"/>
  <svg x="1600" y="640" width="320" height="320" viewBox="0 0 200 200" overflow="hidden"><path xmlns="http://www.w3.org/2000/svg" d="M200 1.97103e-05L200 50L8.74228e-06 100L3.49691e-05 -6.51651e-06L200 1.97103e-05Z M200 1.97103e-05L200 50L8.74228e-06 100L3.49691e-05 -6.51651e-06L200 1.97103e-05Z M-2.18558e-06 200L200 150L200 200L-2.18558e-06 200Z" fill="#FF4F00"/>
</svg>
</svg>
