<?xml version='1.0' encoding='UTF-8'?>
<svg xmlns="http://www.w3.org/2000/svg" version="1.1" width="1920" height="960" viewBox="0 0 1920 960">
  <svg x="0.0" y="0.0" width="320.0" height="320.0" viewBox="0 0 200 200"><ns0:rect xmlns:ns0="http://www.w3.org/2000/svg" width="200" height="200" transform="translate(200 8.74228e-06) rotate(90)" fill="#4997D0"/>
<ns1:path xmlns:ns1="http://www.w3.org/2000/svg" d="M100 4.37236e-06L0.0280239 4.37236e-06L1.96299e-05 100C55.2126 100.016 99.984 55.228 100 4.37236e-06Z" fill="#F3F3F3"/>
</svg>
  <svg x="320.0" y="0.0" width="320.0" height="320.0" viewBox="0 0 200 200"><ns2:g xmlns:ns2="http://www.w3.org/2000/svg" clip-path="url(#clip0_2205_39)">
<ns2:path d="M160 199.99H180C180 188.94 188.95 179.99 200 179.99V159.99C177.91 159.99 160 177.9 160 199.99Z" fill="#FF4F00"/>
<ns2:path d="M120 199.99H140C140 166.85 166.86 139.99 200 139.99V119.99C155.82 119.99 120 155.81 120 199.99Z" fill="#FF4F00"/>
<ns2:path d="M80 199.99H100C100 144.76 144.77 99.99 200 99.99V79.99C133.73 79.99 80 133.72 80 199.99Z" fill="#FF4F00"/>
<ns2:path d="M40 199.99H60C60 122.67 122.68 59.99 200 59.99V39.99C111.63 39.99 40 111.62 40 199.99Z" fill="#FF4F00"/>
<ns2:path d="M0 199.99H20C20 100.58 100.59 19.99 200 19.99V0C89.58 0 0 89.87 0 199.99Z" fill="#FF4F00"/>
</ns2:g>
<ns3:defs xmlns:ns3="http://www.w3.org/2000/svg">
<ns3:clipPath id="clip0_2205_39">
<ns3:rect width="200" height="199.99" fill="#FFFFFF"/>
</ns3:clipPath>
</ns3:defs>
</svg>
  <svg x="640.0" y="0.0" width="320.0" height="320.0" viewBox="0 0 200 200"><ns4:g xmlns:ns4="http://www.w3.org/2000/svg" clip-path="url(#clip0_20_1283)">
<ns4:rect width="200" height="200" transform="translate(200 8.74228e-06) rotate(90)" fill="#FFFFFF"/>
<ns4:path fill-rule="evenodd" clip-rule="evenodd" d="M50 100L200 2.62268e-05L2.40011e-05 0L3.05176e-05 200L100 200L50 100Z" fill="#FFA300"/>
</ns4:g>
<ns5:defs xmlns:ns5="http://www.w3.org/2000/svg">
<ns5:clipPath id="clip0_20_1283">
<ns5:rect width="200" height="200" fill="#FFFFFF" transform="translate(200 8.74228e-06) rotate(90)"/>
</ns5:clipPath>
</ns5:defs>
</svg>
  <svg x="960.0" y="0.0" width="320.0" height="320.0" viewBox="0 0 200 200"><ns6:g xmlns:ns6="http://www.w3.org/2000/svg" clip-path="url(#clip0_74_2298)">
<ns6:rect width="200" height="200" transform="translate(200 8.74228e-06) rotate(90)" fill="#4997D0"/>
<ns6:path d="M328.568 344.504C312 297.912 258.776 275.864 214.104 297.096C143.176 330.808 69.184 256.816 102.904 185.896C124.136 141.232 102.088 88.008 55.496 71.432C21.216 59.24 2.82401 30.24 0.312014 8.746e-06L1.35122e-05 8.74228e-06L8.74228e-06 400L400 400L400 399.688C369.76 397.168 340.76 378.784 328.568 344.504Z" fill="#FFFFFF"/>
</ns6:g>
<ns7:defs xmlns:ns7="http://www.w3.org/2000/svg">
<ns7:clipPath id="clip0_74_2298">
<ns7:rect width="200" height="200" fill="#FFFFFF" transform="translate(200 8.74228e-06) rotate(90)"/>
</ns7:clipPath>
</ns7:defs>
</svg>
  <svg x="1280.0" y="0.0" width="320.0" height="320.0" viewBox="0 0 200 200"><ns8:g xmlns:ns8="http://www.w3.org/2000/svg" clip-path="url(#clip0_3_606)">
<ns8:rect width="200" height="200" transform="translate(200 8.74228e-06) rotate(90)" fill="#FFFFFF"/>
<ns8:path d="M200 5.02279e-05L200 100L2.82157e-05 150L2.84124e-05 2.40011e-05L200 5.02279e-05Z" fill="#121212"/>
</ns8:g>
<ns9:defs xmlns:ns9="http://www.w3.org/2000/svg">
<ns9:clipPath id="clip0_3_606">
<ns9:rect width="200" height="200" fill="#FFFFFF" transform="translate(200 8.74228e-06) rotate(90)"/>
</ns9:clipPath>
</ns9:defs>
</svg>
  <svg x="1600.0" y="0.0" width="320.0" height="320.0" viewBox="0 0 200 200"><ns10:g xmlns:ns10="http://www.w3.org/2000/svg" clip-path="url(#clip0_5_5484)">
<ns10:rect width="200" height="200" transform="translate(200 8.74228e-06) rotate(90)" fill="#FF4F00"/>
<ns10:path d="M175.025 200C152.775 200 141.632 173.098 157.365 157.365Lnan nanL157.365 157.365C173.098 141.632 200 152.775 200 175.025L200 200L175.025 200Z" fill="#FFFFFF"/>
</ns10:g>
<ns11:defs xmlns:ns11="http://www.w3.org/2000/svg">
<ns11:clipPath id="clip0_5_5484">
<ns11:rect width="200" height="200" fill="#FFFFFF" transform="translate(200 8.74228e-06) rotate(90)"/>
</ns11:clipPath>
</ns11:defs>
</svg>
  <svg x="0.0" y="320.0" width="320.0" height="320.0" viewBox="0 0 200 200"><ns12:g xmlns:ns12="http://www.w3.org/2000/svg" clip-path="url(#clip0_35_1227)">
<ns12:rect width="200" height="200" transform="translate(200 8.74228e-06) rotate(90)" fill="#D9D9D6"/>
<ns12:path d="M200 9.16684e-06Lnan nanL200 9.16684e-06C200 5.52286 195.523 10 190 10L8.74228e-06 10L2.33419e-05 -1.41459e-05L200 9.16684e-06Z" fill="#FFA300"/>
</ns12:g>
<ns13:defs xmlns:ns13="http://www.w3.org/2000/svg">
<ns13:clipPath id="clip0_35_1227">
<ns13:rect width="200" height="200" fill="#FFFFFF" transform="translate(200 8.74228e-06) rotate(90)"/>
</ns13:clipPath>
</ns13:defs>
</svg>
  <svg x="320.0" y="320.0" width="320.0" height="320.0" viewBox="0 0 200 200"><ns14:g xmlns:ns14="http://www.w3.org/2000/svg" clip-path="url(#clip0_35_1228)">
<ns14:rect width="200" height="200" transform="translate(200 8.74228e-06) rotate(90)" fill="#D9D9D6"/>
<ns14:path d="M200 25L200 175L8.74228e-06 175L4.15258e-05 25L200 25Z" fill="#121212"/>
</ns14:g>
<ns15:defs xmlns:ns15="http://www.w3.org/2000/svg">
<ns15:clipPath id="clip0_35_1228">
<ns15:rect width="200" height="200" fill="#FFFFFF" transform="translate(200 8.74228e-06) rotate(90)"/>
</ns15:clipPath>
</ns15:defs>
</svg>
  <svg x="640.0" y="320.0" width="320.0" height="320.0" viewBox="0 0 200 200"><ns16:rect xmlns:ns16="http://www.w3.org/2000/svg" width="200" height="200" transform="translate(200 8.74228e-06) rotate(90)" fill="#121212"/>
<ns17:path xmlns:ns17="http://www.w3.org/2000/svg" d="M50 8.74228e-06H8.74228e-06V50C8.74228e-06 22.386 22.386 8.74228e-06 50 8.74228e-06Z" fill="#F3F3F3"/>
</svg>
  <svg x="960.0" y="320.0" width="320.0" height="320.0" viewBox="0 0 200 200"><ns18:rect xmlns:ns18="http://www.w3.org/2000/svg" width="200" height="200" transform="translate(200 8.74228e-06) rotate(90)" fill="#F3F3F3"/>
<ns19:path xmlns:ns19="http://www.w3.org/2000/svg" fill-rule="evenodd" clip-rule="evenodd" d="M56.6891 150C58.8006 157.3 61.3602 164.017 64.2928 170L1.31134e-06 170L1.56959e-05 190L78.1794 190C84.7732 196.407 92.1768 200 100 200C127.614 200 150 155.228 150 100C150 44.7715 127.614 7.76377e-06 100 6.55671e-06C92.1768 6.21474e-06 84.7732 3.59343 78.1794 10L8.30516e-06 10L7.43094e-06 30L64.2928 30C61.3603 35.9829 58.8006 42.6998 56.6891 50L6.55671e-06 50L5.68248e-06 70L52.289 70C51.282 76.4124 50.5893 83.1031 50.2469 90L4.80825e-06 90L3.93402e-06 110L50.2469 110C50.5893 116.897 51.282 123.588 52.289 130L3.0598e-06 130L1.74444e-05 150L56.6891 150Z" fill="#FF4F00"/>
<ns20:circle xmlns:ns20="http://www.w3.org/2000/svg" cx="99.9998" cy="100" r="33.3333" fill="#F3F3F3"/>
</svg>
  <svg x="1280.0" y="320.0" width="320.0" height="320.0" viewBox="0 0 200 200"><ns21:g xmlns:ns21="http://www.w3.org/2000/svg" clip-path="url(#clip0_4_5446)">
<ns21:rect width="200" height="200" transform="translate(200 8.74228e-06) rotate(90)" fill="#FFFFFF"/>
<ns21:path d="M100 6.5969e-06L8.74228e-06 100L2.18557e-05 -6.51651e-06L100 6.5969e-06Z" fill="#FFA300"/>
<ns21:path d="M100 200L200 100L200 200L100 200Z" fill="#FFA300"/>
</ns21:g>
<ns22:defs xmlns:ns22="http://www.w3.org/2000/svg">
<ns22:clipPath id="clip0_4_5446">
<ns22:rect width="200" height="200" fill="#FFFFFF" transform="translate(200 8.74228e-06) rotate(90)"/>
</ns22:clipPath>
</ns22:defs>
</svg>
  <svg x="1600.0" y="320.0" width="320.0" height="320.0" viewBox="0 0 200 200"><ns23:g xmlns:ns23="http://www.w3.org/2000/svg" clip-path="url(#clip0_3_498)">
<ns23:rect width="200" height="200" transform="translate(200 8.74228e-06) rotate(90)" fill="#121212"/>
<ns23:path d="M200 8.74228e-06C200 55.228 177.616 105.228 141.42 141.42C105.228 177.616 55.228 200 0 200L200 200L200 8.74228e-06Z" fill="#FF4F00"/>
<ns23:path d="M100.028 0.0280087L0.0559627 4.37236e-06L0.0279585 100C55.2405 100.016 100.012 55.256 100.028 0.0280087Z" fill="#FF4F00"/>
</ns23:g>
<ns24:defs xmlns:ns24="http://www.w3.org/2000/svg">
<ns24:clipPath id="clip0_3_498">
<ns24:rect width="200" height="200" fill="#FFFFFF" transform="translate(200 8.74228e-06) rotate(90)"/>
</ns24:clipPath>
</ns24:defs>
</svg>
  <svg x="0.0" y="640.0" width="320.0" height="320.0" viewBox="0 0 200 200"><ns25:rect xmlns:ns25="http://www.w3.org/2000/svg" width="200" height="200" transform="translate(200 8.74228e-06) rotate(90)" fill="#FF4F00"/>
<ns26:path xmlns:ns26="http://www.w3.org/2000/svg" d="M175 25L175 175L25 175L25 25L175 25Z" fill="#121212"/>
</svg>
  <svg x="320.0" y="640.0" width="320.0" height="320.0" viewBox="0 0 200 200"><ns27:rect xmlns:ns27="http://www.w3.org/2000/svg" width="200" height="200" transform="translate(200 8.74228e-06) rotate(90)" fill="#F3F3F3"/>
<ns28:path xmlns:ns28="http://www.w3.org/2000/svg" d="M50 50C50 22.3858 72.3858 8.74228e-06 100 8.74228e-06C127.614 8.74228e-06 150 22.3858 150 50V150C150 177.614 127.614 200 100 200C72.3858 200 50 177.614 50 150V50Z" fill="#FF4F00"/>
<ns29:circle xmlns:ns29="http://www.w3.org/2000/svg" cx="99.9998" cy="100" r="33.3333" fill="#F3F3F3"/>
</svg>
  <svg x="640.0" y="640.0" width="320.0" height="320.0" viewBox="0 0 200 200"><ns30:rect xmlns:ns30="http://www.w3.org/2000/svg" width="200" height="200" transform="translate(200 8.74228e-06) rotate(90)" fill="#121212"/>
<ns31:circle xmlns:ns31="http://www.w3.org/2000/svg" cx="100" cy="100" r="25" fill="#FFA300"/>
</svg>
  <svg x="960.0" y="640.0" width="320.0" height="320.0" viewBox="0 0 200 200"><ns32:g xmlns:ns32="http://www.w3.org/2000/svg" clip-path="url(#clip0_4_206)">
<ns32:rect width="200" height="200" transform="translate(200 8.74228e-06) rotate(90)" fill="#FF4F00"/>
<ns32:path fill-rule="evenodd" clip-rule="evenodd" d="M101.046 0.0050954C100.849 0.00199645 100.652 0.000313685 100.455 5.32538e-05L100.449 2.23595e-05L100.444 4.03871e-05L100.401 1.74946e-05L100.358 3.94186e-05L100.349 3.83041e-05L100.309 5.70389e-05L100.305 3.83041e-05L100.302 5.223e-05L100.261 3.83041e-05L100.248 4.17448e-05L100.225 1.9927e-05C100.211 1.99258e-05 100.197 4.28125e-05 100.183 8.85747e-05C100.173 7.36736e-05 100.163 6.10756e-05 100.153 5.07809e-05C100.148 3.10244e-05 100.142 2.11437e-05 100.137 2.11432e-05L100.131 3.07249e-05C100.117 2.10955e-05 100.103 1.62796e-05 100.089 1.62783e-05C100.078 1.62774e-05 100.067 1.90319e-05 100.057 2.45413e-05C100.038 1.40118e-05 100.019 8.74498e-06 100 8.74228e-06L99.9354 2.91409e-05L99.9126 1.87108e-05C99.8861 1.87085e-05 99.8596 6.08214e-05 99.8331 0.000145018C44.6814 0.0902254 1.68803e-05 44.8271 8.74228e-06 100C2.63876e-06 155.168 44.6734 199.902 99.8183 200L99.8698 200L99.9126 200L99.9502 200L100 200H100L100.041 200L100.065 200C100.074 200 100.083 200 100.093 200C100.099 200 100.106 200 100.113 200L100.129 200C100.143 200 100.158 200 100.172 200L100.197 200L100.217 200L100.225 200H100.227L100.265 200L100.302 200L100.305 200L100.31 200L100.353 200L100.391 200H100.405L100.444 200L100.449 200L100.454 200C100.648 200 100.842 199.998 101.035 199.995L101.108 199.994L101.177 199.993C155.863 199.362 200 154.836 200 100C200 45.1514 155.842 0.616484 101.138 0.00635371C101.108 0.00591104 101.077 0.0054916 101.046 0.0050954ZM58.5705 15.6393C37.0635 33.3961 22.8006 64.5432 22.8006 100C22.8006 135.461 37.0685 166.611 58.581 184.367C31.6435 168.159 13.2 136.615 13.2 100C13.2 63.3897 31.6387 31.8492 58.5705 15.6393ZM133.023 14.2473C151.45 31.7377 163.777 63.5976 163.777 100C163.777 136.398 151.453 168.255 133.031 185.746C156.944 169.92 173.381 137.428 173.381 100C173.381 62.5673 156.941 30.071 133.023 14.2473ZM58.9686 31.436C63.8909 23.6709 69.5034 17.4135 75.6812 12.7998C60.6203 29.9415 50.4486 62.5693 50.4486 100C50.4486 137.45 60.6329 170.093 75.7069 187.227C69.5189 182.612 63.8977 176.348 58.9686 168.572C53.3646 159.732 48.9606 149.408 45.8726 137.892C42.6566 125.9 41.0286 113.152 41.0286 100.004C41.0286 86.856 42.6566 74.108 45.8726 62.116C48.9606 50.6 53.3646 40.276 58.9686 31.436ZM116.118 189.476C116.267 189.352 116.416 189.227 116.565 189.1C122.041 184.416 127.001 177.632 131.301 168.936C140.377 150.592 145.373 126.108 145.373 100C145.373 73.892 140.377 49.412 131.301 31.064C127.001 22.368 122.041 15.584 116.565 10.9C116.416 10.7727 116.267 10.6471 116.118 10.5233C127.774 26.9357 135.777 60.8393 135.777 100C135.777 139.16 127.775 173.063 116.118 189.476ZM78.4966 100C78.4966 58.862 83.8719 23.5254 91.5543 8.17257C90.8515 8.84517 90.1494 9.59846 89.4487 10.432C85.5807 15.036 81.9167 22.02 78.8567 30.628C72.2926 49.096 68.6767 73.732 68.6766 100C68.6766 126.268 72.2926 150.904 78.8566 169.372C81.9166 177.98 85.5806 184.964 89.4486 189.568C90.1494 190.402 90.8515 191.155 91.5543 191.827C83.8719 176.475 78.4966 141.138 78.4966 100ZM103.243 6.73626C106.13 21.2293 108.177 57.5219 108.177 100C108.177 142.476 106.13 178.767 103.243 193.262C105.554 189.943 108.669 183.072 111.529 169.864C115.557 151.248 117.777 126.436 117.777 100C117.777 73.564 115.557 48.752 111.529 30.136C108.67 16.9249 105.555 10.0537 103.243 6.73626ZM142.748 183.551C168.961 167.115 186.8 136.01 186.8 100C186.8 63.9853 168.956 32.8768 142.737 16.4426C163.71 34.3259 177.553 65.0719 177.553 100C177.553 134.924 163.715 165.666 142.748 183.551ZM68.6244 13.413C49.7034 30.7121 36.9766 63.0109 36.9766 100C36.9766 136.993 49.7063 169.295 68.6321 186.593C44.0104 171.1 26.9726 138.108 26.9726 100C26.9726 61.8967 44.0081 28.9082 68.6244 13.413ZM149.505 100C149.505 138.629 138.671 172.143 122.81 188.799C129.885 184.075 136.268 177.266 141.785 168.564C147.389 159.724 151.793 149.4 154.881 137.884C158.097 125.892 159.725 113.144 159.725 99.996C159.725 86.848 158.097 74.1 154.881 62.108C151.793 50.592 147.389 40.268 141.785 31.428C136.265 22.72 129.877 15.908 122.797 11.184L122.785 11.1761C138.658 27.8232 149.505 61.3514 149.505 100ZM84.7949 190.247C84.3243 189.882 83.8555 189.5 83.3886 189.1C77.9126 184.416 72.9526 177.632 68.6526 168.936C59.5766 150.588 54.5806 126.108 54.5806 100C54.5806 73.892 59.5766 49.408 68.6526 31.064C72.9526 22.368 77.9126 15.584 83.3886 10.9C83.855 10.5013 84.3233 10.1196 84.7934 9.75515C72.835 25.8609 64.5766 60.2178 64.5766 100C64.5766 139.784 72.8357 174.142 84.7949 190.247ZM110.905 189.568C110.204 190.402 109.502 191.155 108.799 191.827C116.481 176.475 121.857 141.138 121.857 100C121.857 58.862 116.481 23.5254 108.799 8.1726C109.502 8.8452 110.204 9.59849 110.905 10.432C114.773 15.036 118.437 22.02 121.497 30.628C128.061 49.096 131.677 73.732 131.677 100C131.677 126.268 128.061 150.904 121.497 169.372C118.437 177.98 114.773 184.964 110.905 189.568ZM97.6645 194.012C95.3134 191.035 91.9181 184.163 88.8246 169.864C84.7966 151.248 82.5766 126.436 82.5766 100C82.5766 73.564 84.7966 48.752 88.8246 30.136C91.9203 15.8397 95.314 8.96768 97.6642 5.98922C94.6964 19.9499 92.5766 56.772 92.5766 100C92.5766 143.23 94.6966 180.053 97.6645 194.012ZM160.667 174.405C179.166 156.098 190.8 129.546 190.8 100C190.8 70.4544 179.166 43.9015 160.667 25.595C182.231 43.199 196 69.9916 196 100C196 130.008 182.231 156.801 160.667 174.405ZM39.3331 174.405C20.8345 156.099 9.20003 129.546 9.20003 100C9.20003 70.4543 20.8346 43.9013 39.3333 25.5949C17.7687 43.1988 4.00001 69.9915 4.00001 100C4 130.008 17.7686 156.801 39.3331 174.405ZM98.6606 166.152C99.2206 174.306 99.8174 180.342 100.377 184.799C100.94 180.342 101.533 174.306 102.093 166.152C103.345 147.932 104.033 124.436 104.033 100C104.033 75.564 103.345 52.068 102.093 33.848C101.533 25.6938 100.936 19.658 100.376 15.2009C99.8137 19.658 99.2206 25.6938 98.6607 33.848C97.4086 52.068 96.7206 75.564 96.7206 100C96.7206 124.436 97.4086 147.932 98.6606 166.152Z" fill="#F3F3F3"/>
</ns32:g>
<ns33:defs xmlns:ns33="http://www.w3.org/2000/svg">
<ns33:clipPath id="clip0_4_206">
<ns33:rect width="200" height="200" fill="#FFFFFF" transform="translate(200 8.74228e-06) rotate(90)"/>
</ns33:clipPath>
</ns33:defs>
</svg>
  <svg x="1280.0" y="640.0" width="320.0" height="320.0" viewBox="0 0 200 200"><ns34:g xmlns:ns34="http://www.w3.org/2000/svg" clip-path="url(#clip0_4_5443)">
<ns34:rect width="200" height="200" transform="translate(200 8.74228e-06) rotate(90)" fill="#F3F3F3"/>
<ns34:path d="M200 1.97103e-05L200 50L8.74228e-06 100L3.49691e-05 -6.51651e-06L200 1.97103e-05Z" fill="#FF4F00"/>
<ns34:path d="M200 1.97103e-05L200 50L8.74228e-06 100L3.49691e-05 -6.51651e-06L200 1.97103e-05Z" fill="#FF4F00"/>
<ns34:path d="M-2.18558e-06 200L200 150L200 200L-2.18558e-06 200Z" fill="#FF4F00"/>
</ns34:g>
<ns35:defs xmlns:ns35="http://www.w3.org/2000/svg">
<ns35:clipPath id="clip0_4_5443">
<ns35:rect width="200" height="200" fill="#FFFFFF" transform="translate(200 8.74228e-06) rotate(90)"/>
</ns35:clipPath>
</ns35:defs>
</svg>
  <svg x="1600.0" y="640.0" width="320.0" height="320.0" viewBox="0 0 200 200"><ns36:g xmlns:ns36="http://www.w3.org/2000/svg" clip-path="url(#clip0_20_1334)">
<ns36:rect width="200" height="200" transform="translate(200 8.74228e-06) rotate(90)" fill="#FFFFFF"/>
<ns36:path d="M100 8.74228e-06H8.74228e-06V100C8.74228e-06 44.772 44.772 8.74228e-06 100 8.74228e-06Z" fill="#FFA300"/>
<ns36:path d="M50.0001 150C50.0001 122.387 27.6192 100 0.000126998 100C0.000126998 100 0.000126019 122.387 0.000124812 150C0.000128023 163.81 0.000126441 200 0.000126441 200C27.6192 200 50.0001 177.613 50.0001 150Z" fill="#FFA300"/>
</ns36:g>
<ns37:defs xmlns:ns37="http://www.w3.org/2000/svg">
<ns37:clipPath id="clip0_20_1334">
<ns37:rect width="200" height="200" fill="#FFFFFF" transform="translate(200 8.74228e-06) rotate(90)"/>
</ns37:clipPath>
</ns37:defs>
</svg>
</svg>
