<?xml version='1.0' encoding='UTF-8'?>
<svg xmlns="http://www.w3.org/2000/svg" version="1.1" width="1920" height="960" viewBox="0 0 1920 960">
  <rect x="0" y="0" width="320" height="320" fill="#FF4F00"/>
  <g transform="translate(0,0) scale(1.6)">
    <path d="M150 50L150 150L50 150L50 50L150 50Z" fill="#F3F3F3"/>
  </g>
  <rect x="320" y="0" width="320" height="320" fill="#FFFFFF"/>
  <g transform="translate(320,0) scale(1.6) rotate(90,100,100)">
    <path d="M100 2.18557e-05L100 100L8.74228e-06 100L2.84124e-05 8.74228e-06L100 2.18557e-05Z" fill="#121212"/>
  </g>
  <rect x="640" y="0" width="320" height="320" fill="#4997D0"/>
  <g transform="translate(640,0) scale(1.6) rotate(180,100,100)">
    <path d="M100 2.18557e-05L100 100L8.74228e-06 100L2.84124e-05 8.74228e-06L100 2.18557e-05Z" fill="#FFFFFF"/>
  </g>
  <rect x="960" y="0" width="320" height="320" fill="#4997D0"/>
  <g transform="translate(960,0) scale(1.6) rotate(180,100,100)">
    <path d="M100 2.18557e-05L100 100L8.74228e-06 100L2.84124e-05 8.74228e-06L100 2.18557e-05Z" fill="#FF4F00"/>
  </g>
  <rect x="1280" y="0" width="320" height="320" fill="#FFFFFF"/>
  <g transform="translate(1280,0) scale(1.6) rotate(90,100,100)">
    <path d="M100 2.18557e-05L100 100L8.74228e-06 100L2.84124e-05 8.74228e-06L100 2.18557e-05Z" fill="#FF4F00"/>
  </g>
  <rect x="1600" y="0" width="320" height="320" fill="#FF4F00"/>
  <g transform="translate(1600,0) scale(1.6)">
    <path d="M150 50L150 150L50 150L50 50L150 50Z" fill="#FFFFFF"/>
  </g>
  <rect x="0" y="320" width="320" height="320" fill="#FFFFFF"/>
  <g transform="translate(0,320) scale(1.6)">
    <path d="M190 1.8399e-05L190 190L8.74228e-06 190L4.61155e-05 -6.51651e-06L190 1.8399e-05Z" fill="#121212"/>
  </g>
  <rect x="320" y="320" width="320" height="320" fill="#121212"/>
  <g transform="translate(320,320) scale(1.6) rotate(90,100,100)">
    <path d="M150 50L150 150L50 150L50 50L150 50Z" fill="#FF4F00"/>
  </g>
  <rect x="640" y="320" width="320" height="320" fill="#FF4F00"/>
  <g transform="translate(640,320) scale(1.6) rotate(180,100,100)">
    <path d="M190 1.8399e-05L190 190L8.74228e-06 190L4.61155e-05 -6.51651e-06L190 1.8399e-05Z" fill="#F3F3F3"/>
  </g>
  <rect x="960" y="320" width="320" height="320" fill="#FF4F00"/>
  <g transform="translate(960,320) scale(1.6) rotate(180,100,100)">
    <path d="M190 1.8399e-05L190 190L8.74228e-06 190L4.61155e-05 -6.51651e-06L190 1.8399e-05Z" fill="#121212"/>
  </g>
  <rect x="1280" y="320" width="320" height="320" fill="#121212"/>
  <g transform="translate(1280,320) scale(1.6) rotate(90,100,100)">
    <path d="M150 50L150 150L50 150L50 50L150 50Z" fill="#F3F3F3"/>
  </g>
  <rect x="1600" y="320" width="320" height="320" fill="#FFFFFF"/>
  <g transform="translate(1600,320) scale(1.6)">
    <path d="M190 1.8399e-05L190 190L8.74228e-06 190L4.61155e-05 -6.51651e-06L190 1.8399e-05Z" fill="#FFA300"/>
  </g>
  <rect x="0" y="640" width="320" height="320" fill="#FF4F00"/>
  <g transform="translate(0,640) scale(1.6)">
    <path d="M100 2.18557e-05L100 100L8.74228e-06 100L2.84124e-05 8.74228e-06L100 2.18557e-05Z" fill="#F3F3F3"/>
  </g>
  <rect x="320" y="640" width="320" height="320" fill="#4997D0"/>
  <g transform="translate(320,640) scale(1.6) rotate(90,100,100)">
    <path d="M150 50L150 150L50 150L50 50L150 50Z" fill="#FFFFFF"/>
  </g>
  <rect x="640" y="640" width="320" height="320" fill="#D9D9D6"/>
  <g transform="translate(640,640) scale(1.6) rotate(180,100,100)">
    <path d="M100 2.18557e-05L100 100L8.74228e-06 100L2.84124e-05 8.74228e-06L100 2.18557e-05Z" fill="#121212"/>
  </g>
  <rect x="960" y="640" width="320" height="320" fill="#D9D9D6"/>
  <g transform="translate(960,640) scale(1.6) rotate(180,100,100)">
    <path d="M100 2.18557e-05L100 100L8.74228e-06 100L2.84124e-05 8.74228e-06L100 2.18557e-05Z" fill="#F3F3F3"/>
  </g>
  <rect x="1280" y="640" width="320" height="320" fill="#4997D0"/>
  <g transform="translate(1280,640) scale(1.6) rotate(90,100,100)">
    <path d="M150 50L150 150L50 150L50 50L150 50Z" fill="#FFFFFF"/>
  </g>
  <rect x="1600" y="640" width="320" height="320" fill="#FF4F00"/>
  <g transform="translate(1600,640) scale(1.6)">
    <path d="M100 2.18557e-05L100 100L8.74228e-06 100L2.84124e-05 8.74228e-06L100 2.18557e-05Z" fill="#F3F3F3"/>
  </g>
</svg>
