<?xml version='1.0' encoding='UTF-8'?>
<svg xmlns="http://www.w3.org/2000/svg" version="1.1" width="1920" height="960" viewBox="0 0 1920 960">
  <svg x="0.0" y="0.0" width="320.0" height="320.0" viewBox="0 0 200 200"><ns0:g xmlns:ns0="http://www.w3.org/2000/svg" clip-path="url(#clip0_3_533)">
<ns0:rect width="200" height="200" transform="translate(200 8.74228e-06) rotate(90)" fill="#121212"/>
<ns0:path fill-rule="evenodd" clip-rule="evenodd" d="M0.0280653 100L0 200L200 200L200 8.74228e-06L100.028 0.0280087C100.012 55.256 55.2406 100.016 0.0280653 100Z" fill="#F3F3F3"/>
</ns0:g>
<ns1:defs xmlns:ns1="http://www.w3.org/2000/svg">
<ns1:clipPath id="clip0_3_533">
<ns1:rect width="200" height="200" fill="#FFFFFF" transform="translate(200 8.74228e-06) rotate(90)"/>
</ns1:clipPath>
</ns1:defs>
</svg>
  <svg x="320.0" y="0.0" width="320.0" height="320.0" viewBox="0 0 200 200"><ns2:g xmlns:ns2="http://www.w3.org/2000/svg" clip-path="url(#clip0_5_5487)">
<ns2:rect width="200" height="200" transform="translate(200 8.74228e-06) rotate(90)" fill="#F3F3F3"/>
<ns2:path d="M100.1 200C11.0989 200 -33.4731 92.3937 29.4603 29.4603Lnan nanL29.4603 29.4603C92.3937 -33.4732 200 11.0989 200 100.1L200 200L100.1 200Z" fill="#121212"/>
</ns2:g>
<ns3:defs xmlns:ns3="http://www.w3.org/2000/svg">
<ns3:clipPath id="clip0_5_5487">
<ns3:rect width="200" height="200" fill="#FFFFFF" transform="translate(200 8.74228e-06) rotate(90)"/>
</ns3:clipPath>
</ns3:defs>
</svg>
  <svg x="640.0" y="0.0" width="320.0" height="320.0" viewBox="0 0 200 200"><ns4:rect xmlns:ns4="http://www.w3.org/2000/svg" width="200" height="200" transform="translate(200 8.74228e-06) rotate(90)" fill="#F3F3F3"/>
<ns5:path xmlns:ns5="http://www.w3.org/2000/svg" d="M50 50C50 22.3858 72.3858 8.74228e-06 100 8.74228e-06C127.614 8.74228e-06 150 22.3858 150 50V150C150 177.614 127.614 200 100 200C72.3858 200 50 177.614 50 150V50Z" fill="#121212"/>
<ns6:circle xmlns:ns6="http://www.w3.org/2000/svg" cx="99.9998" cy="100" r="33.3333" fill="#F3F3F3"/>
</svg>
  <svg x="960.0" y="0.0" width="320.0" height="320.0" viewBox="0 0 200 200"><ns7:g xmlns:ns7="http://www.w3.org/2000/svg" clip-path="url(#clip0_3_624)">
<ns7:rect width="200" height="200" transform="translate(200 8.74228e-06) rotate(90)" fill="#F3F3F3"/>
<ns7:path d="M200 1.67962e-05L200 150L8.74228e-06 150L4.41485e-05 -6.51651e-06L200 1.67962e-05Z" fill="#121212"/>
</ns7:g>
<ns8:defs xmlns:ns8="http://www.w3.org/2000/svg">
<ns8:clipPath id="clip0_3_624">
<ns8:rect width="200" height="200" fill="#FFFFFF" transform="translate(200 8.74228e-06) rotate(90)"/>
</ns8:clipPath>
</ns8:defs>
</svg>
  <svg x="1280.0" y="0.0" width="320.0" height="320.0" viewBox="0 0 200 200"><ns9:g xmlns:ns9="http://www.w3.org/2000/svg" clip-path="url(#clip0_20_1209)">
<ns9:rect width="200" height="200" transform="translate(200 8.74228e-06) rotate(90)" fill="#F3F3F3"/>
<ns9:path fill-rule="evenodd" clip-rule="evenodd" d="M100 135.417L100 149.167L190.047 149.167L190 199.953L200 200L200 8.30516e-06L190 9.4496e-06C190 107.037 159.583 135.417 100 135.417Z" fill="#121212"/>
</ns9:g>
<ns10:defs xmlns:ns10="http://www.w3.org/2000/svg">
<ns10:clipPath id="clip0_20_1209">
<ns10:rect width="200" height="200" fill="#FFFFFF" transform="translate(200 8.74228e-06) rotate(90)"/>
</ns10:clipPath>
</ns10:defs>
</svg>
  <svg x="1600.0" y="0.0" width="320.0" height="320.0" viewBox="0 0 200 200"><ns11:g xmlns:ns11="http://www.w3.org/2000/svg" clip-path="url(#clip0_4_5443)">
<ns11:rect width="200" height="200" transform="translate(200 8.74228e-06) rotate(90)" fill="#F3F3F3"/>
<ns11:path d="M200 1.97103e-05L200 50L8.74228e-06 100L3.49691e-05 -6.51651e-06L200 1.97103e-05Z" fill="#121212"/>
<ns11:path d="M200 1.97103e-05L200 50L8.74228e-06 100L3.49691e-05 -6.51651e-06L200 1.97103e-05Z" fill="#121212"/>
<ns11:path d="M-2.18558e-06 200L200 150L200 200L-2.18558e-06 200Z" fill="#121212"/>
</ns11:g>
<ns12:defs xmlns:ns12="http://www.w3.org/2000/svg">
<ns12:clipPath id="clip0_4_5443">
<ns12:rect width="200" height="200" fill="#FFFFFF" transform="translate(200 8.74228e-06) rotate(90)"/>
</ns12:clipPath>
</ns12:defs>
</svg>
  <svg x="0.0" y="320.0" width="320.0" height="320.0" viewBox="0 0 200 200"><ns13:g xmlns:ns13="http://www.w3.org/2000/svg" clip-path="url(#clip0_5_6178)">
<ns13:rect width="200" height="200" transform="translate(200 8.74228e-06) rotate(90)" fill="#F3F3F3"/>
<ns13:g clip-path="url(#clip1_5_6178)">
<ns13:path d="M7.50001 14.636C8.0629 19.144 8.66849 25.344 9.23526 33.848C10.4503 52.068 11.118 75.564 11.118 100C11.118 124.436 10.4503 147.932 9.23526 166.152C8.66849 174.656 8.06678 180.856 7.50001 185.364C6.93712 180.856 6.33153 174.656 5.76476 166.152C4.5497 147.932 3.882 124.436 3.882 100C3.882 75.564 4.5497 52.068 5.76476 33.848C6.33153 25.344 6.93324 19.144 7.50001 14.636ZM7.50001 8.74228e-06C3.35793 8.74228e-06 8.74228e-06 44.772 8.74228e-06 100C8.74228e-06 155.228 3.35793 200 7.50001 200C11.6421 200 15 155.228 15 100C15 44.772 11.6421 8.74228e-06 7.50001 8.74228e-06Z" fill="#121212"/>
<ns13:path d="M30.8332 4.00001C32.323 4.00001 37.6175 8.80001 42.2392 30.136C46.2722 48.752 48.4949 73.564 48.4949 100C48.4949 126.436 46.2722 151.248 42.2392 169.864C37.6175 191.196 32.323 196 30.8332 196C29.3433 196 24.0488 191.2 19.4271 169.864C15.3942 151.248 13.1714 126.436 13.1714 100C13.1714 73.564 15.3942 48.752 19.4271 30.136C24.0528 8.80001 29.3433 4.00001 30.8332 4.00001ZM30.8332 8.74228e-06C18.8705 8.74228e-06 9.16651 44.772 9.16651 100C9.16651 155.228 18.8664 200 30.8332 200C42.7999 200 52.4998 155.228 52.4998 100C52.4998 44.772 42.7999 8.74228e-06 30.8332 8.74228e-06Z" fill="#121212"/>
<ns13:path d="M53.7502 4.00001C57.3006 4.00001 60.9108 6.16401 64.4852 10.432C68.3384 15.036 71.9885 22.02 75.0368 30.628C81.5758 49.096 85.1781 73.732 85.1781 100C85.1781 126.268 81.5758 150.904 75.0368 169.372C71.9885 177.98 68.3384 184.964 64.4852 189.568C60.9108 193.836 57.3006 196 53.7502 196C50.1997 196 46.5895 193.836 43.0152 189.568C39.1619 184.964 35.5119 177.98 32.4635 169.372C25.9245 150.904 22.3223 126.268 22.3223 100C22.3223 73.732 25.9245 49.096 32.4635 30.628C35.5119 22.02 39.1619 15.036 43.0152 10.432C46.5895 6.16401 50.1997 4.00001 53.7502 4.00001ZM53.7502 8.74228e-06C34.1889 8.74228e-06 18.3335 44.772 18.3335 100C18.3335 155.228 34.1889 200 53.7502 200C73.3114 200 89.1668 155.228 89.1668 100C89.1668 44.772 73.3074 8.74228e-06 53.7502 8.74228e-06Z" fill="#121212"/>
<ns13:path d="M77.0833 4.00001C82.7931 4.00001 88.4106 6.32001 93.7755 10.9C99.2647 15.584 104.237 22.368 108.547 31.064C117.645 49.412 122.653 73.892 122.653 100C122.653 126.108 117.645 150.592 108.547 168.936C104.237 177.632 99.2647 184.416 93.7755 189.1C88.4106 193.676 82.7931 196 77.0833 196C71.3736 196 65.7561 193.68 60.3912 189.1C54.902 184.416 49.93 177.632 45.6196 168.936C36.5217 150.588 31.5137 126.108 31.5137 100C31.5137 73.892 36.5217 49.408 45.6196 31.064C49.93 22.368 54.902 15.584 60.3912 10.9C65.7561 6.32401 71.3736 4.00001 77.0833 4.00001ZM77.0833 8.74228e-06C49.7014 8.74228e-06 27.5 44.772 27.5 100C27.5 155.228 49.6974 200 77.0833 200C104.469 200 126.667 155.228 126.667 100C126.667 44.772 104.465 8.74228e-06 77.0833 8.74228e-06Z" fill="#121212"/>
<ns13:path d="M99.5795 4.00001C107.377 4.00001 114.974 6.41601 122.16 11.184C129.282 15.908 135.707 22.72 141.26 31.428C146.897 40.268 151.327 50.592 154.433 62.108C157.668 74.1 159.306 86.848 159.306 99.996C159.306 113.144 157.668 125.892 154.433 137.884C151.327 149.4 146.897 159.724 141.26 168.564C135.707 177.272 129.282 184.084 122.16 188.808C114.974 193.576 107.377 195.992 99.5795 195.992C91.7817 195.992 84.1852 193.576 76.999 188.808C69.8772 184.084 63.4515 177.272 57.899 168.564C52.2619 159.724 47.8319 149.4 44.7257 137.884C41.4907 125.892 39.8531 113.144 39.8531 99.996C39.8531 86.848 41.4907 74.096 44.7257 62.108C47.8319 50.592 52.2619 40.268 57.899 31.428C63.4515 22.72 69.8772 15.908 76.999 11.184C84.1852 6.41601 91.7817 4.00001 99.5795 4.00001ZM99.5795 8.74228e-06C64.3729 8.74228e-06 35.8335 44.772 35.8335 100C35.8335 155.228 64.3729 200 99.5835 200C134.794 200 163.334 155.228 163.334 100C163.334 44.772 134.786 8.74228e-06 99.5795 8.74228e-06Z" fill="#121212"/>
<ns13:path d="M122.496 4.00001C163.019 4.00001 195.985 47.064 195.985 100C195.985 152.936 163.019 196 122.496 196C81.9731 196 49.007 152.936 49.007 100C49.007 47.064 81.9772 4.00001 122.496 4.00001ZM122.496 8.74228e-06C79.6949 8.74228e-06 45 44.772 45 100C45 155.228 79.6989 200 122.5 200C165.301 200 200 155.228 200 100C200 44.772 165.297 8.74228e-06 122.496 8.74228e-06Z" fill="#121212"/>
</ns13:g>
</ns13:g>
<ns14:defs xmlns:ns14="http://www.w3.org/2000/svg">
<ns14:clipPath id="clip0_5_6178">
<ns14:rect width="200" height="200" fill="#FFFFFF" transform="translate(200 8.74228e-06) rotate(90)"/>
</ns14:clipPath>
<ns14:clipPath id="clip1_5_6178">
<ns14:rect width="200" height="200" fill="#FFFFFF"/>
</ns14:clipPath>
</ns14:defs>
</svg>
  <svg x="320.0" y="320.0" width="320.0" height="320.0" viewBox="0 0 200 200"><ns15:g xmlns:ns15="http://www.w3.org/2000/svg" clip-path="url(#clip0_88_5626)">
<ns15:rect width="200" height="200" transform="translate(200 8.74228e-06) rotate(90)" fill="#F3F3F3"/>
<ns15:path d="M149 100C149 155.218 139.484 200 127.725 200C121.757 200 116.339 188.34 112.47 169.566C111.844 166.524 106.549 166.41 105.747 169.427C100.779 188.284 93.8046 200 86.0744 200C80.3664 200 75.0627 193.599 70.6901 182.665C69.5225 179.749 64.6845 179.635 63.3033 182.482C57.9386 193.529 51.4522 200 44.4241 200C25.9645 200 11 155.224 11 100C11 44.7763 25.9645 8.74228e-06 44.4241 8.74228e-06C51.4522 8.74228e-06 57.9386 6.47056 63.3033 17.5178C64.6845 20.3649 69.5225 20.2512 70.6901 17.3348C75.0627 6.4011 80.3587 8.74228e-06 86.0744 8.74228e-06C93.797 8.74228e-06 100.772 11.7164 105.747 30.5726C106.541 33.5901 111.837 33.4764 112.47 30.4337C116.347 11.6596 121.765 8.74228e-06 127.725 8.74228e-06C139.484 8.74228e-06 149 44.7763 149 100Z" fill="#121212"/>
<ns15:path d="M183 100C183 155.218 176.502 200 168.5 200C160.498 200 154 155.224 154 100C154 44.7763 160.498 8.74228e-06 168.5 8.74228e-06C176.502 8.74228e-06 183 44.7763 183 100Z" fill="#121212"/>
<ns15:path d="M215 100C215 155.218 208.502 200 200.5 200C192.498 200 186 155.224 186 100C186 44.7763 192.498 8.74228e-06 200.5 8.74228e-06C208.502 8.74228e-06 215 44.7763 215 100Z" fill="#121212"/>
</ns15:g>
<ns16:defs xmlns:ns16="http://www.w3.org/2000/svg">
<ns16:clipPath id="clip0_88_5626">
<ns16:rect width="200" height="200" fill="#FFFFFF" transform="translate(200 8.74228e-06) rotate(90)"/>
</ns16:clipPath>
</ns16:defs>
</svg>
  <svg x="640.0" y="320.0" width="320.0" height="320.0" viewBox="0 0 200 200"><ns17:g xmlns:ns17="http://www.w3.org/2000/svg" clip-path="url(#clip0_85_2234)">
<ns17:rect width="200" height="200" transform="translate(200 8.74228e-06) rotate(90)" fill="#F3F3F3"/>
<ns17:path d="M150 100H200C200 44.772 155.228 8.74228e-06 100 8.74228e-06C44.772 8.74228e-06 8.74228e-06 44.772 8.74228e-06 100H50C50 100 72.384 100 100 100C127.616 100 150 100 150 100Z" fill="#121212"/>
<ns17:path d="M45 200H65V100H45V200Z" fill="#121212"/>
<ns17:path d="M90 200H110V100H90V200Z" fill="#121212"/>
<ns17:path d="M135 200H155V100H135V200Z" fill="#121212"/>
<ns17:path d="M8.74228e-06 200H20V100H8.74228e-06V200Z" fill="#121212"/>
<ns17:path d="M180 200H200V100H180V200Z" fill="#121212"/>
</ns17:g>
<ns18:defs xmlns:ns18="http://www.w3.org/2000/svg">
<ns18:clipPath id="clip0_85_2234">
<ns18:rect width="200" height="200" fill="#FFFFFF" transform="translate(200 8.74228e-06) rotate(90)"/>
</ns18:clipPath>
</ns18:defs>
</svg>
  <svg x="960.0" y="320.0" width="320.0" height="320.0" viewBox="0 0 200 200"><ns19:g xmlns:ns19="http://www.w3.org/2000/svg" clip-path="url(#clip0_35_1225)">
<ns19:rect width="200" height="200" transform="translate(200 1.52588e-05) rotate(90)" fill="#F3F3F3"/>
<ns19:path d="M200 1.56833e-05Lnan nanL200 1.56833e-05C200 55.2285 155.228 100 100 100L8.74228e-06 100L3.67176e-05 -7.62939e-06L200 1.56833e-05Z" fill="#121212"/>
</ns19:g>
<ns20:defs xmlns:ns20="http://www.w3.org/2000/svg">
<ns20:clipPath id="clip0_35_1225">
<ns20:rect width="200" height="200" fill="#FFFFFF" transform="translate(200 1.52588e-05) rotate(90)"/>
</ns20:clipPath>
</ns20:defs>
</svg>
  <svg x="1280.0" y="320.0" width="320.0" height="320.0" viewBox="0 0 200 200"><ns21:rect xmlns:ns21="http://www.w3.org/2000/svg" width="200" height="200" fill="#F3F3F3"/>
<ns22:path xmlns:ns22="http://www.w3.org/2000/svg" fill-rule="evenodd" clip-rule="evenodd" d="M10 200L10 2.18557e-07L15 0L15 200L10 200Z" fill="#121212"/>
<ns23:path xmlns:ns23="http://www.w3.org/2000/svg" fill-rule="evenodd" clip-rule="evenodd" d="M120 200L120 2.18557e-07L125 0L125 200L120 200Z" fill="#121212"/>
<ns24:path xmlns:ns24="http://www.w3.org/2000/svg" fill-rule="evenodd" clip-rule="evenodd" d="M35 200L35 2.18557e-07L40 0L40 200L35 200Z" fill="#121212"/>
<ns25:path xmlns:ns25="http://www.w3.org/2000/svg" fill-rule="evenodd" clip-rule="evenodd" d="M140 200L140 2.18557e-07L145 0L145 200L140 200Z" fill="#121212"/>
<ns26:path xmlns:ns26="http://www.w3.org/2000/svg" fill-rule="evenodd" clip-rule="evenodd" d="M60 200L60 2.18557e-07L65 0L65 200L60 200Z" fill="#121212"/>
<ns27:path xmlns:ns27="http://www.w3.org/2000/svg" fill-rule="evenodd" clip-rule="evenodd" d="M160 200L160 2.18557e-07L165 0L165 200L160 200Z" fill="#121212"/>
<ns28:path xmlns:ns28="http://www.w3.org/2000/svg" fill-rule="evenodd" clip-rule="evenodd" d="M80 200L80 2.18557e-07L85 0L85 200L80 200Z" fill="#121212"/>
<ns29:path xmlns:ns29="http://www.w3.org/2000/svg" fill-rule="evenodd" clip-rule="evenodd" d="M175 200L175 2.18557e-07L180 0L180 200L175 200Z" fill="#121212"/>
<ns30:path xmlns:ns30="http://www.w3.org/2000/svg" fill-rule="evenodd" clip-rule="evenodd" d="M190 200L190 2.18557e-07L195 0L195 200L190 200Z" fill="#121212"/>
<ns31:path xmlns:ns31="http://www.w3.org/2000/svg" fill-rule="evenodd" clip-rule="evenodd" d="M100 200L100 2.18557e-07L105 0L105 200L100 200Z" fill="#121212"/>
</svg>
  <svg x="1600.0" y="320.0" width="320.0" height="320.0" viewBox="0 0 200 200"><ns32:g xmlns:ns32="http://www.w3.org/2000/svg" clip-path="url(#clip0_5_6418)">
<ns32:rect width="200" height="200" transform="translate(200 8.74228e-06) rotate(90)" fill="#121212"/>
<ns32:rect x="8.74228e-06" y="8.74228e-06" width="100" height="100" fill="#121212"/>
<ns32:rect x="100" y="8.74228e-06" width="100" height="100" fill="#121212"/>
<ns32:path fill-rule="evenodd" clip-rule="evenodd" d="M100 4.37114e-06C44.7715 4.37114e-06 6.78525e-06 44.7715 4.37114e-06 100L0 200L200 200L200 100C200 44.7715 155.228 4.37114e-06 100 4.37114e-06Z" fill="#FF4F00"/>
</ns32:g>
<ns33:defs xmlns:ns33="http://www.w3.org/2000/svg">
<ns33:clipPath id="clip0_5_6418">
<ns33:rect width="200" height="200" fill="#FFFFFF" transform="translate(200 8.74228e-06) rotate(90)"/>
</ns33:clipPath>
</ns33:defs>
</svg>
  <svg x="0.0" y="640.0" width="320.0" height="320.0" viewBox="0 0 200 200"><ns34:g xmlns:ns34="http://www.w3.org/2000/svg" clip-path="url(#clip0_20_1324)">
<ns34:rect width="200" height="200" fill="#F3F3F3"/>
<ns34:path d="M200 0H0V200C0 89.544 89.544 0 200 0Z" fill="#121212"/>
<ns34:path d="M100 58.3333C76.9891 58.3333 58.3334 76.984 58.3334 99.9999C58.3334 123.016 76.9891 141.667 100 141.667C111.508 141.667 121.925 137.004 129.464 129.464C137.004 121.925 141.667 111.508 141.667 99.9999C141.667 76.984 123.011 58.3333 100 58.3333Z" fill="#121212"/>
</ns34:g>
<ns35:defs xmlns:ns35="http://www.w3.org/2000/svg">
<ns35:clipPath id="clip0_20_1324">
<ns35:rect width="200" height="200" fill="#FFFFFF"/>
</ns35:clipPath>
</ns35:defs>
</svg>
  <svg x="320.0" y="640.0" width="320.0" height="320.0" viewBox="0 0 200 200"><ns36:g xmlns:ns36="http://www.w3.org/2000/svg" clip-path="url(#clip0_85_2273)">
<ns36:rect width="200" height="200" transform="translate(200 1.52588e-05) rotate(90)" fill="#F3F3F3"/>
<ns36:rect x="8.74228e-06" y="100" width="200" height="100" fill="#F3F3F3"/>
<ns36:path fill-rule="evenodd" clip-rule="evenodd" d="M200 200L180 200L180 100L200 100L200 200ZM100.028 100L200 99.972C200 99.972 155.241 99.984 100.028 100ZM100.028 100L116 100L116 200L96 200L96 100L74 100L74 200L54 200L54 100L32 100L32 200L12 200L12 100L100.028 100ZM158 200L138 200L138 100L158 100L158 200Z" fill="#121212"/>
<ns36:path d="M200 99.9719L8.74228e-06 100L9.93477e-06 -2.38498e-06L100 -1.19249e-06C155.213 -0.0159994 199.984 44.7439 200 99.9719Z" fill="#121212"/>
</ns36:g>
<ns37:defs xmlns:ns37="http://www.w3.org/2000/svg">
<ns37:clipPath id="clip0_85_2273">
<ns37:rect width="200" height="200" fill="#FFFFFF" transform="translate(200 1.52588e-05) rotate(90)"/>
</ns37:clipPath>
</ns37:defs>
</svg>
  <svg x="640.0" y="640.0" width="320.0" height="320.0" viewBox="0 0 200 200"><ns38:g xmlns:ns38="http://www.w3.org/2000/svg" clip-path="url(#clip0_35_2275)">
<ns38:rect width="200" height="200" transform="translate(200 1.52588e-05) rotate(90)" fill="#F3F3F3"/>
<ns38:path fill-rule="evenodd" clip-rule="evenodd" d="M100.538 79.1952C108.405 89.9719 115.713 99.9825 130.461 100C115.713 100.017 108.405 110.028 100.538 120.805C91.3581 133.381 81.4163 147 58.0001 147C24.129 147 1.41209 184.88 0.156097 200L9.15527e-05 200L9.59239e-05 100L0.000100295 0.000192662L0.156091 0.000192668C1.4121 15.1202 24.1291 53.0002 58.0001 53.0002C81.4163 53.0002 91.3581 66.6193 100.538 79.1952Z" fill="#121212"/>
</ns38:g>
<ns39:defs xmlns:ns39="http://www.w3.org/2000/svg">
<ns39:clipPath id="clip0_35_2275">
<ns39:rect width="200" height="200" fill="#FFFFFF" transform="translate(200 1.52588e-05) rotate(90)"/>
</ns39:clipPath>
</ns39:defs>
</svg>
  <svg x="960.0" y="640.0" width="320.0" height="320.0" viewBox="0 0 200 200"><ns40:g xmlns:ns40="http://www.w3.org/2000/svg" clip-path="url(#clip0_2403_2990)">
<ns40:rect width="200" height="200" transform="translate(200 8.74228e-06) rotate(90)" fill="#F3F3F3"/>
<ns40:path fill-rule="evenodd" clip-rule="evenodd" d="M100 100L200 2.62268e-05L3.92599e-05 0L1.52588e-05 200L200 200L100 100Z" fill="#121212"/>
</ns40:g>
<ns41:defs xmlns:ns41="http://www.w3.org/2000/svg">
<ns41:clipPath id="clip0_2403_2990">
<ns41:rect width="200" height="200" fill="#FFFFFF" transform="translate(200 8.74228e-06) rotate(90)"/>
</ns41:clipPath>
</ns41:defs>
</svg>
  <svg x="1280.0" y="640.0" width="320.0" height="320.0" viewBox="0 0 200 200"><ns42:g xmlns:ns42="http://www.w3.org/2000/svg" clip-path="url(#clip0_5_5482)">
<ns42:rect width="200" height="200" transform="translate(200 8.74228e-06) rotate(90)" fill="#F3F3F3"/>
<ns42:path d="M150 100H200C200 44.772 155.228 8.74228e-06 100 8.74228e-06C44.772 8.74228e-06 8.74228e-06 44.772 8.74228e-06 100H50C50 127.616 72.384 150 100 150C127.616 150 150 127.616 150 100Z" fill="#121212"/>
</ns42:g>
<ns43:defs xmlns:ns43="http://www.w3.org/2000/svg">
<ns43:clipPath id="clip0_5_5482">
<ns43:rect width="200" height="200" fill="#FFFFFF" transform="translate(200 8.74228e-06) rotate(90)"/>
</ns43:clipPath>
</ns43:defs>
</svg>
  <svg x="1600.0" y="640.0" width="320.0" height="320.0" viewBox="0 0 200 200"><ns44:rect xmlns:ns44="http://www.w3.org/2000/svg" width="200" height="200" transform="translate(200 8.74228e-06) rotate(90)" fill="#F3F3F3"/>
<ns45:circle xmlns:ns45="http://www.w3.org/2000/svg" cx="100" cy="100" r="75" fill="#121212"/>
</svg>
</svg>
