<?xml version='1.0' encoding='UTF-8'?>
<svg xmlns="http://www.w3.org/2000/svg" version="1.1" width="1920" height="960" viewBox="0 0 1920 960">
  <rect x="0" y="0" width="320" height="320" fill="#FFFFFF"/>
  <svg x="0" y="0" width="320" height="320" viewBox="0 0 200 200" overflow="hidden"><path xmlns="http://www.w3.org/2000/svg" d="M190 1.8399e-05L190 190L8.74228e-06 190L4.61155e-05 -6.51651e-06L190 1.8399e-05Z" fill="#121212"/>
</svg>
  <rect x="320" y="0" width="320" height="320" fill="#121212"/>
  <svg x="320" y="0" width="320" height="320" viewBox="0 0 200 200" overflow="hidden"><path xmlns="http://www.w3.org/2000/svg" d="M200 2.44739e-09L-6.51651e-06 2.4471e-09L0 200C110.425 200.032 199.968 110.456 200 2.44739e-09Z" fill="#4997D0" transform="rotate(270,100,100)"/>
</svg>
  <rect x="640" y="0" width="320" height="320" fill="#FFFFFF"/>
  <svg x="640" y="0" width="320" height="320" viewBox="0 0 200 200" overflow="hidden"><path xmlns="http://www.w3.org/2000/svg" d="M100 100L200 2.62268e-05L3.92599e-05 0L1.52588e-05 200L200 200L100 100Z" fill="#4997D0"/>
</svg>
  <rect x="960" y="0" width="320" height="320" fill="#F3F3F3"/>
  <svg x="960" y="0" width="320" height="320" viewBox="0 0 200 200" overflow="hidden"><path xmlns="http://www.w3.org/2000/svg" d="M200 1.67962e-05L200 150L8.74228e-06 150L4.41485e-05 -6.51651e-06L200 1.67962e-05Z" fill="#4997D0" transform="rotate(180,100,100)"/>
</svg>
  <rect x="1280" y="0" width="320" height="320" fill="#FFFFFF"/>
  <svg x="1280" y="0" width="320" height="320" viewBox="0 0 200 200" overflow="hidden"><path xmlns="http://www.w3.org/2000/svg" d="M200 3.49691e-05L8.74228e-06 200L3.49691e-05 8.74228e-06L200 3.49691e-05Z M50 200L200 50L200 200L50 200Z" fill="#4997D0"/>
</svg>
  <rect x="1600" y="0" width="320" height="320" fill="#FF4F00"/>
  <svg x="1600" y="0" width="320" height="320" viewBox="0 0 200 200" overflow="hidden"><path xmlns="http://www.w3.org/2000/svg" d="M149 100C149 155.218 139.484 200 127.725 200C121.757 200 116.339 188.34 112.47 169.566C111.844 166.524 106.549 166.41 105.747 169.427C100.779 188.284 93.8046 200 86.0744 200C80.3664 200 75.0627 193.599 70.6901 182.665C69.5225 179.749 64.6845 179.635 63.3033 182.482C57.9386 193.529 51.4522 200 44.4241 200C25.9645 200 11 155.224 11 100C11 44.7763 25.9645 8.74228e-06 44.4241 8.74228e-06C51.4522 8.74228e-06 57.9386 6.47056 63.3033 17.5178C64.6845 20.3649 69.5225 20.2512 70.6901 17.3348C75.0627 6.4011 80.3587 8.74228e-06 86.0744 8.74228e-06C93.797 8.74228e-06 100.772 11.7164 105.747 30.5726C106.541 33.5901 111.837 33.4764 112.47 30.4337C116.347 11.6596 121.765 8.74228e-06 127.725 8.74228e-06C139.484 8.74228e-06 149 44.7763 149 100Z M183 100C183 155.218 176.502 200 168.5 200C160.498 200 154 155.224 154 100C154 44.7763 160.498 8.74228e-06 168.5 8.74228e-06C176.502 8.74228e-06 183 44.7763 183 100Z M199.9399,0.0734 L199.7544,0.1301 L199.5694,0.2029 L199.3851,0.2916 L199.2015,0.3961 L199.0185,0.5163 L198.8361,0.6522 L198.6545,0.8035 L198.4735,0.9703 L198.2932,1.1523 L198.1137,1.3496 L197.9349,1.5621 L197.7568,1.7895 L197.5795,2.0318 L197.4030,2.2890 L197.2273,2.5609 L197.0524,2.8475 L196.8783,3.1486 L196.7050,3.4641 L196.5326,3.7939 L196.3611,4.1380 L196.1904,4.4962 L196.0207,4.8685 L195.8518,5.2547 L195.6839,5.6547 L195.5169,6.0685 L195.3508,6.4960 L195.1857,6.9369 L195.0216,7.3914 L194.8585,7.8592 L194.6964,8.3402 L194.5354,8.8344 L194.3753,9.3417 L194.2163,9.8619 L194.0584,10.3950 L193.9016,10.9408 L193.7458,11.4993 L193.5912,12.0704 L193.4376,12.6540 L193.2852,13.2499 L193.1340,13.8581 L192.9839,14.4785 L192.8351,15.1109 L192.6874,15.7553 L192.5409,16.4116 L192.3956,17.0797 L192.2516,17.7595 L192.1088,18.4508 L191.9673,19.1536 L191.8271,19.8679 L191.6881,20.5934 L191.5505,21.3301 L191.4142,22.0779 L191.2792,22.8367 L191.1456,23.6064 L191.0133,24.3869 L190.8824,25.1781 L190.7530,25.9799 L190.6249,26.7922 L190.4982,27.6149 L190.3730,28.4479 L190.2492,29.2911 L190.1269,30.1445 L190.0061,31.0078 L189.8868,31.8811 L189.7690,32.7642 L189.6527,33.6570 L189.5379,34.5594 L189.4247,35.4713 L189.3131,36.3927 L189.2030,37.3234 L189.0945,38.2633 L188.9877,39.2124 L188.8824,40.1705 L188.7788,41.1375 L188.6769,42.1133 L188.5766,43.0979 L188.4780,44.0912 L188.3811,45.0929 L188.2859,46.1031 L188.1924,47.1217 L188.1006,48.1485 L188.0106,49.1834 L187.9224,50.2264 L187.8360,51.2774 L187.7513,52.3362 L187.6685,53.4027 L187.5874,54.4769 L187.5082,55.5587 L187.4309,56.6479 L187.3554,57.7445 L187.2818,58.8484 L187.2101,59.9594 L187.1403,61.0775 L187.0725,62.2026 L187.0065,63.3345 L186.9426,64.4732 L186.8805,65.6186 L186.8205,66.7705 L186.7625,67.9289 L186.7064,69.0937 L186.6524,70.2648 L186.6004,71.4421 L186.5505,72.6255 L186.5027,73.8148 L186.4569,75.0100 L186.4132,76.2111 L186.3716,77.4178 L186.3322,78.6301 L186.2948,79.8479 L186.2597,81.0711 L186.2267,82.2996 L186.1958,83.5333 L186.1672,84.7721 L186.1408,86.0159 L186.1166,87.2646 L186.0946,88.5181 L186.0749,89.7764 L186.0575,91.0392 L186.0423,92.3066 L186.0294,93.5783 L186.0189,94.8544 L186.0106,96.1347 L186.0047,97.4192 L186.0012,98.7076 L186.0000,100.0000 L186.0000,100.0000 L186.0012,101.2924 L186.0047,102.5808 L186.0106,103.8653 L186.0189,105.1456 L186.0294,106.4217 L186.0423,107.6935 L186.0575,108.9608 L186.0749,110.2237 L186.0946,111.4819 L186.1166,112.7354 L186.1408,113.9842 L186.1672,115.2280 L186.1958,116.4668 L186.2267,117.7005 L186.2597,118.9290 L186.2948,120.1522 L186.3322,121.3700 L186.3716,122.5823 L186.4132,123.7890 L186.4569,124.9901 L186.5027,126.1853 L186.5505,127.3746 L186.6004,128.5580 L186.6524,129.7353 L186.7064,130.9064 L186.7625,132.0712 L186.8205,133.2296 L186.8805,134.3816 L186.9426,135.5269 L187.0065,136.6656 L187.0725,137.7976 L187.1403,138.9226 L187.2101,140.0407 L187.2818,141.1517 L187.3554,142.2556 L187.4309,143.3522 L187.5082,144.4414 L187.5874,145.5232 L187.6685,146.5974 L187.7513,147.6640 L187.8360,148.7228 L187.9224,149.7737 L188.0106,150.8167 L188.1006,151.8517 L188.1924,152.8785 L188.2859,153.8970 L188.3811,154.9072 L188.4780,155.9090 L188.5766,156.9022 L188.6769,157.8868 L188.7788,158.8627 L188.8824,159.8297 L188.9877,160.7878 L189.0945,161.7368 L189.2030,162.6767 L189.3131,163.6074 L189.4247,164.5288 L189.5379,165.4407 L189.6527,166.3432 L189.7690,167.2360 L189.8868,168.1190 L190.0061,168.9923 L190.1269,169.8557 L190.2493,170.7090 L190.3730,171.5522 L190.4982,172.3852 L190.6249,173.2079 L190.7530,174.0202 L190.8824,174.8220 L191.0133,175.6132 L191.1456,176.3937 L191.2792,177.1634 L191.4142,177.9222 L191.5505,178.6700 L191.6881,179.4067 L191.8271,180.1322 L191.9673,180.8464 L192.1088,181.5493 L192.2516,182.2406 L192.3956,182.9204 L192.5409,183.5885 L192.6874,184.2448 L192.8351,184.8892 L192.9839,185.5216 L193.1340,186.1420 L193.2852,186.7502 L193.4376,187.3461 L193.5912,187.9296 L193.7458,188.5007 L193.9016,189.0592 L194.0584,189.6051 L194.2163,190.1382 L194.3753,190.6584 L194.5354,191.1656 L194.6964,191.6598 L194.8585,192.1409 L195.0216,192.6087 L195.1857,193.0631 L195.3508,193.5041 L195.5169,193.9315 L195.6839,194.3453 L195.8518,194.7454 L196.0207,195.1316 L196.1904,195.5038 L196.3611,195.8620 L196.5326,196.2061 L196.7050,196.5360 L196.8783,196.8515 L197.0524,197.1525 L197.2273,197.4391 L197.4030,197.7110 L197.5795,197.9682 L197.7568,198.2105 L197.9349,198.4380 L198.1137,198.6504 L198.2932,198.8477 L198.4735,199.0297 L198.6545,199.1965 L198.8361,199.3478 L199.0185,199.4837 L199.2015,199.6039 L199.3851,199.7084 L199.5694,199.7971 L199.7544,199.8699 L199.9399,199.9267 L200.0000,199.9398 L200.0000,0.0602 Z" fill="#4997D0" transform="rotate(180,100,100)"/>
</svg>
  <rect x="0" y="320" width="320" height="320" fill="#121212"/>
  <svg x="0" y="320" width="320" height="320" viewBox="0 0 200 200" overflow="hidden"><path xmlns="http://www.w3.org/2000/svg" d="M200 200L180 200L180 100L200 100L200 200ZM100.028 100L200 99.972C200 99.972 155.241 99.984 100.028 100ZM100.028 100L116 100L116 200L96 200L96 100L74 100L74 200L54 200L54 100L32 100L32 200L12 200L12 100L100.028 100ZM158 200L138 200L138 100L158 100L158 200Z M200 99.9719L8.74228e-06 100L9.93477e-06 -2.38498e-06L100 -1.19249e-06C155.213 -0.0159994 199.984 44.7439 200 99.9719Z M8.74228e-06,100.0 L200.00000874228,100.0 L200.00000874228,200.0 L8.74228e-06,200.0 Z" fill="#F3F3F3" fill-rule="evenodd" transform="rotate(90,100,100)"/>
</svg>
  <rect x="320" y="320" width="320" height="320" fill="#FFFFFF"/>
  <svg x="320" y="320" width="320" height="320" viewBox="0 0 200 200" overflow="hidden"><path xmlns="http://www.w3.org/2000/svg" d="M200 0H0V200C0 89.544 89.544 0 200 0Z M141.42 141.42C105.228 177.616 55.228 200 0 200H200V0C200 55.228 177.616 105.228 141.42 141.42Z M100 58.3333C76.9893 58.3333 58.3335 76.9841 58.3335 100C58.3335 123.016 76.9893 141.667 100 141.667C111.508 141.667 121.925 137.004 129.464 129.464C137.004 121.925 141.667 111.508 141.667 100C141.667 76.9841 123.011 58.3333 100 58.3333Z" fill="#FF4F00" transform="rotate(180,100,100)"/>
</svg>
  <rect x="640" y="320" width="320" height="320" fill="#FFFFFF"/>
  <svg x="640" y="320" width="320" height="320" viewBox="0 0 200 200" overflow="hidden"><path xmlns="http://www.w3.org/2000/svg" d="M164.284 172.252C156 148.956 129.388 137.932 107.052 148.548C71.588 165.404 34.592 128.408 51.452 92.948C62.068 70.616 51.044 44.004 27.748 35.716C10.608 29.62 1.41201 15.12 0.156011 8.74414e-06L1.11273e-05 8.74228e-06L8.74228e-06 200L200 200L200 199.844C184.88 198.584 170.38 189.392 164.284 172.252Z" fill="#FF4F00"/>
</svg>
  <rect x="960" y="320" width="320" height="320" fill="#FFFFFF"/>
  <svg x="960" y="320" width="320" height="320" viewBox="0 0 200 200" overflow="hidden"><path xmlns="http://www.w3.org/2000/svg" d="M0.008 8.74193e-06L0 8.74228e-06L8.74228e-06 200L200 200C89.876 200 0.00800483 110.417 0.008 8.74193e-06Z M40 8.74228e-06C40 88.3656 111.634 160 200 160V180C100.589 180 20 99.4113 20 8.74228e-06H40Z M80 8.74228e-06C80 66.2742 133.726 120 200 120V140C122.68 140 60 77.3199 60 8.74228e-06H80Z M120 8.74228e-06C120 44.1828 155.817 80 200 80V100C144.772 100 100 55.2285 100 8.74228e-06H120Z M160 8.74228e-06C160 22.0914 177.909 40 200 40V60C166.863 60 140 33.1371 140 8.74228e-06H160Z M180 8.74228e-06H200V20C188.954 20 180 11.0457 180 8.74228e-06Z" fill="#FF4F00" transform="rotate(270,100,100)"/>
</svg>
  <rect x="1280" y="320" width="320" height="320" fill="#F3F3F3"/>
  <svg x="1280" y="320" width="320" height="320" viewBox="0 0 200 200" overflow="hidden"><path xmlns="http://www.w3.org/2000/svg" d="M0.0,100.0 A100.0,50.0 0 1,0 200.0,100.0 A100.0,50.0 0 1,0 0.0,100.0 Z" fill="#4997D0"/>
</svg>
  <rect x="1600" y="320" width="320" height="320" fill="#121212"/>
  <svg x="1600" y="320" width="320" height="320" viewBox="0 0 200 200" overflow="hidden"><path xmlns="http://www.w3.org/2000/svg" d="M200.0000,100.1000 L199.9804,98.0222 L199.9218,95.9609 L199.8246,93.9161 L199.6894,91.8882 L199.5165,89.8773 L199.3064,87.8836 L199.0594,85.9072 L198.7762,83.9483 L198.4570,82.0072 L198.1023,80.0840 L197.7125,78.1788 L197.2882,76.2919 L196.8297,74.4234 L196.3374,72.5735 L195.8118,70.7425 L195.2534,68.9304 L194.6625,67.1375 L194.0396,65.3639 L193.3852,63.6098 L192.6996,61.8754 L191.9833,60.1609 L191.2368,58.4665 L190.4604,56.7923 L189.6547,55.1385 L188.8200,53.5054 L187.9568,51.8930 L187.0655,50.3016 L186.1466,48.7313 L185.2005,47.1823 L184.2276,45.6549 L183.2283,44.1491 L182.2032,42.6652 L181.1526,41.2033 L180.0769,39.7637 L178.9767,38.3465 L177.8523,36.9518 L176.7042,35.5799 L175.5328,34.2310 L174.3386,32.9052 L173.1219,31.6027 L171.8833,30.3237 L170.6231,29.0684 L169.3418,27.8369 L168.0398,26.6295 L166.7176,25.4462 L165.3756,24.2874 L164.0142,23.1531 L162.6339,22.0436 L161.2351,20.9590 L159.8183,19.8995 L158.3838,18.8653 L156.9322,17.8566 L155.4637,16.8735 L153.9790,15.9163 L152.4784,14.9851 L150.9623,14.0801 L149.4313,13.2014 L147.8856,12.3494 L146.3259,11.5240 L144.7524,10.7256 L143.1656,9.9543 L141.5661,9.2102 L139.9541,8.4936 L138.3302,7.8047 L136.6947,7.1435 L135.0482,6.5104 L133.3910,5.9055 L131.7236,5.3289 L130.0464,4.7808 L128.3599,4.2615 L126.6644,3.7711 L124.9605,3.3098 L123.2486,2.8777 L121.5290,2.4751 L119.8023,2.1021 L118.0688,1.7589 L116.3291,1.4457 L114.5835,1.1626 L112.8324,0.9099 L111.0764,0.6877 L109.3158,0.4963 L107.5511,0.3357 L105.7828,0.2062 L104.0111,0.1079 L102.2367,0.0411 L100.4599,0.0059 L98.6812,0.0024 L96.9009,0.0310 L95.1196,0.0917 L93.3377,0.1847 L91.5555,0.3102 L89.7736,0.4685 L87.9924,0.6596 L86.2123,0.8837 L84.4337,1.1411 L82.6572,1.4319 L80.8830,1.7563 L79.1117,2.1145 L77.3437,2.5066 L75.5794,2.9329 L73.8192,3.3934 L72.0637,3.8885 L70.3132,4.4183 L68.5681,4.9829 L66.8290,5.5826 L65.0962,6.2174 L63.3702,6.8877 L61.6514,7.5935 L59.9402,8.3352 L58.2371,9.1127 L56.5426,9.9264 L54.8569,10.7764 L53.1807,11.6628 L51.5143,12.5859 L49.8582,13.5459 L48.2127,14.5429 L46.5784,15.5771 L44.9557,16.6487 L43.3449,17.7578 L41.7466,18.9047 L40.1612,20.0895 L38.5891,21.3124 L37.0307,22.5736 L35.4865,23.8733 L33.9570,25.2116 L32.4424,26.5888 L30.9434,28.0050 L29.4603,29.4603 L29.4603,29.4603 L28.0050,30.9434 L26.5888,32.4424 L25.2116,33.9570 L23.8733,35.4865 L22.5737,37.0307 L21.3124,38.5891 L20.0895,40.1612 L18.9047,41.7466 L17.7578,43.3449 L16.6487,44.9557 L15.5771,46.5784 L14.5429,48.2127 L13.5459,49.8582 L12.5860,51.5143 L11.6629,53.1807 L10.7764,54.8569 L9.9264,56.5426 L9.1127,58.2371 L8.3352,59.9402 L7.5936,61.6514 L6.8877,63.3702 L6.2175,65.0962 L5.5826,66.8290 L4.9829,68.5681 L4.4183,70.3132 L3.8886,72.0637 L3.3935,73.8192 L2.9329,75.5794 L2.5066,77.3437 L2.1145,79.1117 L1.7563,80.8830 L1.4319,82.6572 L1.1411,84.4337 L0.8838,86.2123 L0.6596,87.9924 L0.4685,89.7736 L0.3103,91.5555 L0.1847,93.3377 L0.0917,95.1196 L0.0310,96.9009 L0.0025,98.6812 L0.0059,100.4599 L0.0411,102.2367 L0.1080,104.0111 L0.2062,105.7828 L0.3357,107.5511 L0.4963,109.3158 L0.6878,111.0764 L0.9099,112.8324 L1.1626,114.5835 L1.4457,116.3291 L1.7589,118.0688 L2.1021,119.8023 L2.4751,121.5290 L2.8777,123.2486 L3.3098,124.9605 L3.7711,126.6644 L4.2616,128.3599 L4.7809,130.0464 L5.3289,131.7236 L5.9055,133.3910 L6.5105,135.0482 L7.1436,136.6947 L7.8047,138.3302 L8.4937,139.9541 L9.2102,141.5661 L9.9543,143.1656 L10.7256,144.7524 L11.5240,146.3259 L12.3494,147.8856 L13.2015,149.4313 L14.0801,150.9623 L14.9851,152.4784 L15.9163,153.9790 L16.8735,155.4637 L17.8566,156.9322 L18.8653,158.3838 L19.8995,159.8183 L20.9590,161.2351 L22.0436,162.6339 L23.1531,164.0142 L24.2874,165.3756 L25.4462,166.7176 L26.6295,168.0398 L27.8369,169.3418 L29.0684,170.6231 L30.3237,171.8833 L31.6027,173.1219 L32.9052,174.3386 L34.2310,175.5328 L35.5800,176.7042 L36.9518,177.8523 L38.3465,178.9767 L39.7637,180.0769 L41.2033,181.1526 L42.6652,182.2032 L44.1491,183.2283 L45.6549,184.2276 L47.1823,185.2005 L48.7313,186.1466 L50.3016,187.0655 L51.8930,187.9568 L53.5054,188.8200 L55.1385,189.6547 L56.7923,190.4604 L58.4665,191.2368 L60.1609,191.9833 L61.8754,192.6996 L63.6098,193.3852 L65.3639,194.0396 L67.1375,194.6625 L68.9304,195.2534 L70.7425,195.8118 L72.5735,196.3374 L74.4234,196.8297 L76.2919,197.2882 L78.1788,197.7125 L80.0840,198.1023 L82.0072,198.4570 L83.9483,198.7762 L85.9072,199.0594 L87.8836,199.3064 L89.8773,199.5165 L91.8882,199.6894 L93.9161,199.8246 L95.9609,199.9218 L98.0222,199.9804 L100.1000,200.0000 L100.8805,200.0000 L101.6609,200.0000 L102.4414,200.0000 L103.2219,200.0000 L104.0023,200.0000 L104.7828,200.0000 L105.5633,200.0000 L106.3438,200.0000 L107.1242,200.0000 L107.9047,200.0000 L108.6852,200.0000 L109.4656,200.0000 L110.2461,200.0000 L111.0266,200.0000 L111.8070,200.0000 L112.5875,200.0000 L113.3680,200.0000 L114.1484,200.0000 L114.9289,200.0000 L115.7094,200.0000 L116.4898,200.0000 L117.2703,200.0000 L118.0508,200.0000 L118.8312,200.0000 L119.6117,200.0000 L120.3922,200.0000 L121.1727,200.0000 L121.9531,200.0000 L122.7336,200.0000 L123.5141,200.0000 L124.2945,200.0000 L125.0750,200.0000 L125.8555,200.0000 L126.6359,200.0000 L127.4164,200.0000 L128.1969,200.0000 L128.9773,200.0000 L129.7578,200.0000 L130.5383,200.0000 L131.3187,200.0000 L132.0992,200.0000 L132.8797,200.0000 L133.6602,200.0000 L134.4406,200.0000 L135.2211,200.0000 L136.0016,200.0000 L136.7820,200.0000 L137.5625,200.0000 L138.3430,200.0000 L139.1234,200.0000 L139.9039,200.0000 L140.6844,200.0000 L141.4648,200.0000 L142.2453,200.0000 L143.0258,200.0000 L143.8063,200.0000 L144.5867,200.0000 L145.3672,200.0000 L146.1477,200.0000 L146.9281,200.0000 L147.7086,200.0000 L148.4891,200.0000 L149.2695,200.0000 L150.0500,200.0000 L150.8305,200.0000 L151.6109,200.0000 L152.3914,200.0000 L153.1719,200.0000 L153.9523,200.0000 L154.7328,200.0000 L155.5133,200.0000 L156.2937,200.0000 L157.0742,200.0000 L157.8547,200.0000 L158.6352,200.0000 L159.4156,200.0000 L160.1961,200.0000 L160.9766,200.0000 L161.7570,200.0000 L162.5375,200.0000 L163.3180,200.0000 L164.0984,200.0000 L164.8789,200.0000 L165.6594,200.0000 L166.4398,200.0000 L167.2203,200.0000 L168.0008,200.0000 L168.7812,200.0000 L169.5617,200.0000 L170.3422,200.0000 L171.1227,200.0000 L171.9031,200.0000 L172.6836,200.0000 L173.4641,200.0000 L174.2445,200.0000 L175.0250,200.0000 L175.8055,200.0000 L176.5859,200.0000 L177.3664,200.0000 L178.1469,200.0000 L178.9273,200.0000 L179.7078,200.0000 L180.4883,200.0000 L181.2688,200.0000 L182.0492,200.0000 L182.8297,200.0000 L183.6102,200.0000 L184.3906,200.0000 L185.1711,200.0000 L185.9516,200.0000 L186.7320,200.0000 L187.5125,200.0000 L188.2930,200.0000 L189.0734,200.0000 L189.8539,200.0000 L190.6344,200.0000 L191.4148,200.0000 L192.1953,200.0000 L192.9758,200.0000 L193.7562,200.0000 L194.5367,200.0000 L195.3172,200.0000 L196.0977,200.0000 L196.8781,200.0000 L197.6586,200.0000 L198.4391,200.0000 L199.2195,200.0000 L200.0000,200.0000 L200.0000,199.2195 L200.0000,198.4391 L200.0000,197.6586 L200.0000,196.8781 L200.0000,196.0977 L200.0000,195.3172 L200.0000,194.5367 L200.0000,193.7562 L200.0000,192.9758 L200.0000,192.1953 L200.0000,191.4148 L200.0000,190.6344 L200.0000,189.8539 L200.0000,189.0734 L200.0000,188.2930 L200.0000,187.5125 L200.0000,186.7320 L200.0000,185.9516 L200.0000,185.1711 L200.0000,184.3906 L200.0000,183.6102 L200.0000,182.8297 L200.0000,182.0492 L200.0000,181.2688 L200.0000,180.4883 L200.0000,179.7078 L200.0000,178.9273 L200.0000,178.1469 L200.0000,177.3664 L200.0000,176.5859 L200.0000,175.8055 L200.0000,175.0250 L200.0000,174.2445 L200.0000,173.4641 L200.0000,172.6836 L200.0000,171.9031 L200.0000,171.1227 L200.0000,170.3422 L200.0000,169.5617 L200.0000,168.7812 L200.0000,168.0008 L200.0000,167.2203 L200.0000,166.4398 L200.0000,165.6594 L200.0000,164.8789 L200.0000,164.0984 L200.0000,163.3180 L200.0000,162.5375 L200.0000,161.7570 L200.0000,160.9766 L200.0000,160.1961 L200.0000,159.4156 L200.0000,158.6352 L200.0000,157.8547 L200.0000,157.0742 L200.0000,156.2937 L200.0000,155.5133 L200.0000,154.7328 L200.0000,153.9523 L200.0000,153.1719 L200.0000,152.3914 L200.0000,151.6109 L200.0000,150.8305 L200.0000,150.0500 L200.0000,149.2695 L200.0000,148.4891 L200.0000,147.7086 L200.0000,146.9281 L200.0000,146.1477 L200.0000,145.3672 L200.0000,144.5867 L200.0000,143.8063 L200.0000,143.0258 L200.0000,142.2453 L200.0000,141.4648 L200.0000,140.6844 L200.0000,139.9039 L200.0000,139.1234 L200.0000,138.3430 L200.0000,137.5625 L200.0000,136.7820 L200.0000,136.0016 L200.0000,135.2211 L200.0000,134.4406 L200.0000,133.6602 L200.0000,132.8797 L200.0000,132.0992 L200.0000,131.3187 L200.0000,130.5383 L200.0000,129.7578 L200.0000,128.9773 L200.0000,128.1969 L200.0000,127.4164 L200.0000,126.6359 L200.0000,125.8555 L200.0000,125.0750 L200.0000,124.2945 L200.0000,123.5141 L200.0000,122.7336 L200.0000,121.9531 L200.0000,121.1727 L200.0000,120.3922 L200.0000,119.6117 L200.0000,118.8312 L200.0000,118.0508 L200.0000,117.2703 L200.0000,116.4898 L200.0000,115.7094 L200.0000,114.9289 L200.0000,114.1484 L200.0000,113.3680 L200.0000,112.5875 L200.0000,111.8070 L200.0000,111.0266 L200.0000,110.2461 L200.0000,109.4656 L200.0000,108.6852 L200.0000,107.9047 L200.0000,107.1242 L200.0000,106.3438 L200.0000,105.5633 L200.0000,104.7828 L200.0000,104.0023 L200.0000,103.2219 L200.0000,102.4414 L200.0000,101.6609 L200.0000,100.8805 L200.0000,100.1000 Z" fill="#4997D0" transform="rotate(270,100,100)"/>
</svg>
  <rect x="0" y="640" width="320" height="320" fill="#121212"/>
  <svg x="0" y="640" width="320" height="320" viewBox="0 0 200 200" overflow="hidden"><path xmlns="http://www.w3.org/2000/svg" d="M101.046 0.0050954C100.849 0.00199645 100.652 0.000313685 100.455 5.32538e-05L100.449 2.23595e-05L100.444 4.03871e-05L100.401 1.74946e-05L100.358 3.94186e-05L100.349 3.83041e-05L100.309 5.70389e-05L100.305 3.83041e-05L100.302 5.223e-05L100.261 3.83041e-05L100.248 4.17448e-05L100.225 1.9927e-05C100.211 1.99258e-05 100.197 4.28125e-05 100.183 8.85747e-05C100.173 7.36736e-05 100.163 6.10756e-05 100.153 5.07809e-05C100.148 3.10244e-05 100.142 2.11437e-05 100.137 2.11432e-05L100.131 3.07249e-05C100.117 2.10955e-05 100.103 1.62796e-05 100.089 1.62783e-05C100.078 1.62774e-05 100.067 1.90319e-05 100.057 2.45413e-05C100.038 1.40118e-05 100.019 8.74498e-06 100 8.74228e-06L99.9354 2.91409e-05L99.9126 1.87108e-05C99.8861 1.87085e-05 99.8596 6.08214e-05 99.8331 0.000145018C44.6814 0.0902254 1.68803e-05 44.8271 8.74228e-06 100C2.63876e-06 155.168 44.6734 199.902 99.8183 200L99.8698 200L99.9126 200L99.9502 200L100 200H100L100.041 200L100.065 200C100.074 200 100.083 200 100.093 200C100.099 200 100.106 200 100.113 200L100.129 200C100.143 200 100.158 200 100.172 200L100.197 200L100.217 200L100.225 200H100.227L100.265 200L100.302 200L100.305 200L100.31 200L100.353 200L100.391 200H100.405L100.444 200L100.449 200L100.454 200C100.648 200 100.842 199.998 101.035 199.995L101.108 199.994L101.177 199.993C155.863 199.362 200 154.836 200 100C200 45.1514 155.842 0.616484 101.138 0.00635371C101.108 0.00591104 101.077 0.0054916 101.046 0.0050954ZM58.5705 15.6393C37.0635 33.3961 22.8006 64.5432 22.8006 100C22.8006 135.461 37.0685 166.611 58.581 184.367C31.6435 168.159 13.2 136.615 13.2 100C13.2 63.3897 31.6387 31.8492 58.5705 15.6393ZM133.023 14.2473C151.45 31.7377 163.777 63.5976 163.777 100C163.777 136.398 151.453 168.255 133.031 185.746C156.944 169.92 173.381 137.428 173.381 100C173.381 62.5673 156.941 30.071 133.023 14.2473ZM58.9686 31.436C63.8909 23.6709 69.5034 17.4135 75.6812 12.7998C60.6203 29.9415 50.4486 62.5693 50.4486 100C50.4486 137.45 60.6329 170.093 75.7069 187.227C69.5189 182.612 63.8977 176.348 58.9686 168.572C53.3646 159.732 48.9606 149.408 45.8726 137.892C42.6566 125.9 41.0286 113.152 41.0286 100.004C41.0286 86.856 42.6566 74.108 45.8726 62.116C48.9606 50.6 53.3646 40.276 58.9686 31.436ZM116.118 189.476C116.267 189.352 116.416 189.227 116.565 189.1C122.041 184.416 127.001 177.632 131.301 168.936C140.377 150.592 145.373 126.108 145.373 100C145.373 73.892 140.377 49.412 131.301 31.064C127.001 22.368 122.041 15.584 116.565 10.9C116.416 10.7727 116.267 10.6471 116.118 10.5233C127.774 26.9357 135.777 60.8393 135.777 100C135.777 139.16 127.775 173.063 116.118 189.476ZM78.4966 100C78.4966 58.862 83.8719 23.5254 91.5543 8.17257C90.8515 8.84517 90.1494 9.59846 89.4487 10.432C85.5807 15.036 81.9167 22.02 78.8567 30.628C72.2926 49.096 68.6767 73.732 68.6766 100C68.6766 126.268 72.2926 150.904 78.8566 169.372C81.9166 177.98 85.5806 184.964 89.4486 189.568C90.1494 190.402 90.8515 191.155 91.5543 191.827C83.8719 176.475 78.4966 141.138 78.4966 100ZM103.243 6.73626C106.13 21.2293 108.177 57.5219 108.177 100C108.177 142.476 106.13 178.767 103.243 193.262C105.554 189.943 108.669 183.072 111.529 169.864C115.557 151.248 117.777 126.436 117.777 100C117.777 73.564 115.557 48.752 111.529 30.136C108.67 16.9249 105.555 10.0537 103.243 6.73626ZM142.748 183.551C168.961 167.115 186.8 136.01 186.8 100C186.8 63.9853 168.956 32.8768 142.737 16.4426C163.71 34.3259 177.553 65.0719 177.553 100C177.553 134.924 163.715 165.666 142.748 183.551ZM68.6244 13.413C49.7034 30.7121 36.9766 63.0109 36.9766 100C36.9766 136.993 49.7063 169.295 68.6321 186.593C44.0104 171.1 26.9726 138.108 26.9726 100C26.9726 61.8967 44.0081 28.9082 68.6244 13.413ZM149.505 100C149.505 138.629 138.671 172.143 122.81 188.799C129.885 184.075 136.268 177.266 141.785 168.564C147.389 159.724 151.793 149.4 154.881 137.884C158.097 125.892 159.725 113.144 159.725 99.996C159.725 86.848 158.097 74.1 154.881 62.108C151.793 50.592 147.389 40.268 141.785 31.428C136.265 22.72 129.877 15.908 122.797 11.184L122.785 11.1761C138.658 27.8232 149.505 61.3514 149.505 100ZM84.7949 190.247C84.3243 189.882 83.8555 189.5 83.3886 189.1C77.9126 184.416 72.9526 177.632 68.6526 168.936C59.5766 150.588 54.5806 126.108 54.5806 100C54.5806 73.892 59.5766 49.408 68.6526 31.064C72.9526 22.368 77.9126 15.584 83.3886 10.9C83.855 10.5013 84.3233 10.1196 84.7934 9.75515C72.835 25.8609 64.5766 60.2178 64.5766 100C64.5766 139.784 72.8357 174.142 84.7949 190.247ZM110.905 189.568C110.204 190.402 109.502 191.155 108.799 191.827C116.481 176.475 121.857 141.138 121.857 100C121.857 58.862 116.481 23.5254 108.799 8.1726C109.502 8.8452 110.204 9.59849 110.905 10.432C114.773 15.036 118.437 22.02 121.497 30.628C128.061 49.096 131.677 73.732 131.677 100C131.677 126.268 128.061 150.904 121.497 169.372C118.437 177.98 114.773 184.964 110.905 189.568ZM97.6645 194.012C95.3134 191.035 91.9181 184.163 88.8246 169.864C84.7966 151.248 82.5766 126.436 82.5766 100C82.5766 73.564 84.7966 48.752 88.8246 30.136C91.9203 15.8397 95.314 8.96768 97.6642 5.98922C94.6964 19.9499 92.5766 56.772 92.5766 100C92.5766 143.23 94.6966 180.053 97.6645 194.012ZM160.667 174.405C179.166 156.098 190.8 129.546 190.8 100C190.8 70.4544 179.166 43.9015 160.667 25.595C182.231 43.199 196 69.9916 196 100C196 130.008 182.231 156.801 160.667 174.405ZM39.3331 174.405C20.8345 156.099 9.20003 129.546 9.20003 100C9.20003 70.4543 20.8346 43.9013 39.3333 25.5949C17.7687 43.1988 4.00001 69.9915 4.00001 100C4 130.008 17.7686 156.801 39.3331 174.405ZM98.6606 166.152C99.2206 174.306 99.8174 180.342 100.377 184.799C100.94 180.342 101.533 174.306 102.093 166.152C103.345 147.932 104.033 124.436 104.033 100C104.033 75.564 103.345 52.068 102.093 33.848C101.533 25.6938 100.936 19.658 100.376 15.2009C99.8137 19.658 99.2206 25.6938 98.6607 33.848C97.4086 52.068 96.7206 75.564 96.7206 100C96.7206 124.436 97.4086 147.932 98.6606 166.152Z" fill="#F3F3F3" transform="rotate(270,100,100)"/>
</svg>
  <rect x="320" y="640" width="320" height="320" fill="#121212"/>
  <svg x="320" y="640" width="320" height="320" viewBox="0 0 200 200" overflow="hidden"><path xmlns="http://www.w3.org/2000/svg" d="M200 5.02279e-05L200 100L2.82157e-05 150L2.84124e-05 2.40011e-05L200 5.02279e-05Z" fill="#F3F3F3"/>
</svg>
  <rect x="640" y="640" width="320" height="320" fill="#121212"/>
  <svg x="640" y="640" width="320" height="320" viewBox="0 0 200 200" overflow="hidden"><path xmlns="http://www.w3.org/2000/svg" d="M2.18557e-06 150L0 200L200 200L200 8.74228e-06L150 0.0373421C150 91.5 75 150 2.18557e-06 150Z" fill="#FF4F00" transform="rotate(180,100,100)"/>
</svg>
  <rect x="960" y="640" width="320" height="320" fill="#4997D0"/>
  <svg x="960" y="640" width="320" height="320" viewBox="0 0 200 200" overflow="hidden"><path xmlns="http://www.w3.org/2000/svg" d="M200 1.67962e-05L200 1.67962e-05C200 82.8427 132.843 150 50 150L8.74228e-06 150L4.41485e-05 -6.51651e-06L200 1.67962e-05Z" fill="#FF4F00" transform="rotate(90,100,100)"/>
</svg>
  <rect x="1280" y="640" width="320" height="320" fill="#FFFFFF"/>
  <svg x="1280" y="640" width="320" height="320" viewBox="0 0 200 200" overflow="hidden"><path xmlns="http://www.w3.org/2000/svg" d="M150.0151,101.2271 L150.0602,102.4534 L150.1355,103.6782 L150.2408,104.9009 L150.3760,106.1205 L150.5412,107.3365 L150.7361,108.5481 L150.9607,109.7545 L151.2149,110.9551 L151.4984,112.1490 L151.8112,113.3356 L152.1530,114.5142 L152.5236,115.6841 L152.9228,116.8445 L153.3504,117.9948 L153.8060,119.1342 L154.2895,120.2621 L154.8005,121.3778 L155.3388,122.4806 L155.9039,123.5698 L156.4957,124.6449 L157.1136,125.7051 L157.7573,126.7499 L158.4265,127.7785 L159.1208,128.7904 L159.8396,129.7850 L160.5827,130.7616 L161.3495,131.7197 L162.1396,132.6586 L162.9524,133.5779 L163.7876,134.4770 L164.6447,135.3553 L165.5230,136.2124 L166.4221,137.0476 L167.3414,137.8604 L168.2803,138.6505 L169.2384,139.4173 L170.2150,140.1604 L171.2096,140.8792 L172.2215,141.5735 L173.2501,142.2427 L174.2949,142.8864 L175.3551,143.5043 L176.4302,144.0961 L177.5194,144.6612 L178.6222,145.1995 L179.7379,145.7105 L180.8658,146.1940 L182.0052,146.6496 L183.1555,147.0772 L184.3159,147.4764 L185.4858,147.8470 L186.6644,148.1888 L187.8510,148.5016 L189.0449,148.7851 L190.2455,149.0393 L191.4519,149.2639 L192.6635,149.4588 L193.8795,149.6240 L195.0991,149.7592 L196.3218,149.8645 L197.5466,149.9398 L198.7729,149.9849 L200.0000,150.0000 L200.0000,50.0000 L198.7729,50.0151 L197.5466,50.0602 L196.3218,50.1355 L195.0991,50.2408 L193.8795,50.3760 L192.6635,50.5412 L191.4519,50.7361 L190.2455,50.9607 L189.0449,51.2149 L187.8510,51.4984 L186.6644,51.8112 L185.4858,52.1530 L184.3159,52.5236 L183.1555,52.9228 L182.0052,53.3504 L180.8658,53.8060 L179.7379,54.2895 L178.6222,54.8005 L177.5194,55.3388 L176.4302,55.9039 L175.3551,56.4957 L174.2949,57.1136 L173.2501,57.7573 L172.2215,58.4265 L171.2096,59.1208 L170.2150,59.8396 L169.2384,60.5827 L168.2803,61.3495 L167.3414,62.1396 L166.4221,62.9524 L165.5230,63.7876 L164.6447,64.6447 L163.7876,65.5230 L162.9524,66.4221 L162.1396,67.3414 L161.3495,68.2803 L160.5827,69.2384 L159.8396,70.2150 L159.1208,71.2096 L158.4265,72.2215 L157.7573,73.2501 L157.1136,74.2949 L156.4957,75.3551 L155.9039,76.4302 L155.3388,77.5194 L154.8005,78.6222 L154.2895,79.7379 L153.8060,80.8658 L153.3504,82.0052 L152.9228,83.1555 L152.5236,84.3159 L152.1530,85.4858 L151.8112,86.6644 L151.4984,87.8510 L151.2149,89.0449 L150.9607,90.2455 L150.7361,91.4519 L150.5412,92.6635 L150.3760,93.8795 L150.2408,95.0991 L150.1355,96.3218 L150.0602,97.5466 L150.0151,98.7729 L150.0000,100.0000 Z M150.0151,1.2271 L150.0602,2.4534 L150.1355,3.6782 L150.2408,4.9009 L150.3760,6.1205 L150.5412,7.3365 L150.7361,8.5481 L150.9607,9.7545 L151.2149,10.9551 L151.4984,12.1490 L151.8112,13.3356 L152.1530,14.5142 L152.5236,15.6841 L152.9228,16.8445 L153.3504,17.9948 L153.8060,19.1342 L154.2895,20.2621 L154.8005,21.3778 L155.3388,22.4806 L155.9039,23.5698 L156.4957,24.6449 L157.1136,25.7051 L157.7573,26.7499 L158.4265,27.7785 L159.1208,28.7904 L159.8396,29.7850 L160.5827,30.7616 L161.3495,31.7197 L162.1396,32.6586 L162.9524,33.5779 L163.7876,34.4770 L164.6447,35.3553 L165.5230,36.2124 L166.4221,37.0476 L167.3414,37.8604 L168.2803,38.6505 L169.2384,39.4173 L170.2150,40.1604 L171.2096,40.8792 L172.2215,41.5735 L173.2501,42.2427 L174.2949,42.8864 L175.3551,43.5043 L176.4302,44.0961 L177.5194,44.6612 L178.6222,45.1995 L179.7379,45.7105 L180.8658,46.1940 L182.0052,46.6496 L183.1555,47.0772 L184.3159,47.4764 L185.4858,47.8470 L186.6644,48.1888 L187.8510,48.5016 L189.0449,48.7851 L190.2455,49.0393 L191.4519,49.2639 L192.6635,49.4588 L193.8795,49.6240 L195.0991,49.7592 L196.3218,49.8645 L197.5466,49.9398 L198.7729,49.9849 L200.0000,50.0000 L200.0000,0.0000 L150.0000,0.0000 L150.0000,0.0000 Z M198.7729,150.0151 L197.5466,150.0602 L196.3218,150.1355 L195.0991,150.2408 L193.8795,150.3760 L192.6635,150.5412 L191.4519,150.7361 L190.2455,150.9607 L189.0449,151.2149 L187.8510,151.4984 L186.6644,151.8112 L185.4858,152.1530 L184.3159,152.5236 L183.1555,152.9228 L182.0052,153.3504 L180.8658,153.8060 L179.7379,154.2895 L178.6222,154.8005 L177.5194,155.3388 L176.4302,155.9039 L175.3551,156.4957 L174.2949,157.1136 L173.2501,157.7573 L172.2215,158.4265 L171.2096,159.1208 L170.2150,159.8396 L169.2384,160.5827 L168.2803,161.3495 L167.3414,162.1396 L166.4221,162.9524 L165.5230,163.7876 L164.6447,164.6447 L163.7876,165.5230 L162.9524,166.4221 L162.1396,167.3414 L161.3495,168.2803 L160.5827,169.2384 L159.8396,170.2150 L159.1208,171.2096 L158.4265,172.2215 L157.7573,173.2501 L157.1136,174.2949 L156.4957,175.3551 L155.9039,176.4302 L155.3388,177.5194 L154.8005,178.6222 L154.2895,179.7379 L153.8060,180.8658 L153.3504,182.0052 L152.9228,183.1555 L152.5236,184.3159 L152.1530,185.4858 L151.8112,186.6644 L151.4984,187.8510 L151.2149,189.0449 L150.9607,190.2455 L150.7361,191.4519 L150.5412,192.6635 L150.3760,193.8795 L150.2408,195.0991 L150.1355,196.3218 L150.0602,197.5466 L150.0151,198.7729 L150.0000,200.0000 L200.0000,200.0000 L200.0000,150.0000 Z" fill="#FF4F00" transform="rotate(270,100,100)"/>
</svg>
  <rect x="1600" y="640" width="320" height="320" fill="#121212"/>
  <svg x="1600" y="640" width="320" height="320" viewBox="0 0 200 200" overflow="hidden"><path xmlns="http://www.w3.org/2000/svg" d="M0.0,100.0 A100.0,50.0 0 1,0 200.0,100.0 A100.0,50.0 0 1,0 0.0,100.0 Z M66.66649999999998,100.0 A33.3333,33.3333 0 1,0 133.3331,100.0 A33.3333,33.3333 0 1,0 66.66649999999998,100.0 Z" fill="#4997D0" fill-rule="evenodd"/>
</svg>
</svg>
