<?xml version='1.0' encoding='UTF-8'?>
<svg xmlns="http://www.w3.org/2000/svg" version="1.1" width="1920" height="960" viewBox="0 0 1920 960">
  <rect x="0" y="0" width="320" height="320" fill="#FFFFFF"/>
  <g transform="translate(0,0) scale(1.6)"><path xmlns="http://www.w3.org/2000/svg" d="M200 9.16683e-06L170.711 29.2893C125.435 74.5646 64.0289 100 8.74228e-06 100L8.74228e-06 100L3.67176e-05 -1.41459e-05L100 -2.48954e-06L200 9.16683e-06Z" fill="#4997D0"/>
</g>
  <rect x="320" y="0" width="320" height="320" fill="#FFFFFF"/>
  <g transform="translate(320,0) scale(1.6) rotate(90,100,100)"><path xmlns="http://www.w3.org/2000/svg" d="M200 1.56833e-05L200 1.56833e-05C200 55.2285 155.228 100 100 100L8.74228e-06 100L3.67176e-05 -7.62939e-06L200 1.56833e-05Z" fill="#FF4F00"/>
</g>
  <rect x="640" y="0" width="320" height="320" fill="#121212"/>
  <g transform="translate(640,0) scale(1.6) rotate(180,100,100)"><path xmlns="http://www.w3.org/2000/svg" d="M100 2.18557e-05L100 100L8.74228e-06 100L2.84124e-05 8.74228e-06L100 2.18557e-05Z" fill="#FFFFFF"/>
</g>
  <rect x="960" y="0" width="320" height="320" fill="#121212"/>
  <g transform="translate(960,0) scale(1.6) rotate(180,100,100)"><path xmlns="http://www.w3.org/2000/svg" d="M200 3.2055e-05L155.47 66.7949C120.815 118.777 62.4745 150 8.74228e-06 150L8.74228e-06 150L4.41485e-05 8.74228e-06L100 2.03986e-05L200 3.2055e-05Z" fill="#F3F3F3"/>
</g>
  <rect x="1280" y="0" width="320" height="320" fill="#FFFFFF"/>
  <g transform="translate(1280,0) scale(1.6) rotate(90,100,100)"><path xmlns="http://www.w3.org/2000/svg" d="M195 5.00003L195 195L5.00001 195L5.00005 5.00001L195 5.00003Z M200 8.74228e-06L8.74228e-06 200V8.74228e-06H200Z M100 200L200 100V200H100Z" fill="#F3F3F3"/>
</g>
  <rect x="1600" y="0" width="320" height="320" fill="#121212"/>
  <g transform="translate(1600,0) scale(1.6)"><path xmlns="http://www.w3.org/2000/svg" d="M125 75L125 125L75 125L75 75L125 75Z" fill="#FFFFFF"/>
</g>
  <rect x="0" y="320" width="320" height="320" fill="#121212"/>
  <g transform="translate(0,320) scale(1.6)"><path xmlns="http://www.w3.org/2000/svg" d="M200 9.16683e-06L170.711 29.2893C125.435 74.5646 64.0289 100 8.74228e-06 100L8.74228e-06 100L3.67176e-05 -1.41459e-05L100 -2.48954e-06L200 9.16683e-06Z" fill="#FF4F00"/>
</g>
  <rect x="320" y="320" width="320" height="320" fill="#4997D0"/>
  <g transform="translate(320,320) scale(1.6) rotate(90,100,100)"><path xmlns="http://www.w3.org/2000/svg" d="M200 1.67962e-05L200 1.67962e-05C200 82.8427 132.843 150 50 150L8.74228e-06 150L4.41485e-05 -6.51651e-06L200 1.67962e-05Z" fill="#FFFFFF"/>
</g>
  <rect x="640" y="320" width="320" height="320" fill="#FFFFFF"/>
  <g transform="translate(640,320) scale(1.6) rotate(180,100,100)"><path xmlns="http://www.w3.org/2000/svg" d="M200 1.56833e-05L200 1.56833e-05C200 55.2285 155.228 100 100 100L8.74228e-06 100L3.67176e-05 -7.62939e-06L200 1.56833e-05Z" fill="#121212"/>
</g>
  <rect x="960" y="320" width="320" height="320" fill="#FFFFFF"/>
  <g transform="translate(960,320) scale(1.6) rotate(180,100,100)"><path xmlns="http://www.w3.org/2000/svg" d="M100 2.18557e-05L100 100L8.74228e-06 100L2.84124e-05 8.74228e-06L100 2.18557e-05Z" fill="#FF4F00"/>
</g>
  <rect x="1280" y="320" width="320" height="320" fill="#121212"/>
  <g transform="translate(1280,320) scale(1.6) rotate(90,100,100)"><path xmlns="http://www.w3.org/2000/svg" d="M200 9.16683e-06L189.443 5.27866C130.623 34.6887 65.7629 50 8.74228e-06 50L8.74228e-06 50L2.92866e-05 -1.41459e-05L100 -2.48954e-06L200 9.16683e-06Z" fill="#4997D0"/>
</g>
  <rect x="1600" y="320" width="320" height="320" fill="#FFFFFF"/>
  <g transform="translate(1600,320) scale(1.6)"><path xmlns="http://www.w3.org/2000/svg" d="M150 50L150 150L50 150L50 50L150 50Z" fill="#121212"/>
</g>
  <rect x="0" y="640" width="320" height="320" fill="#4997D0"/>
  <g transform="translate(0,640) scale(1.6)"><path xmlns="http://www.w3.org/2000/svg" d="M200 1.67962e-05L200 1.67962e-05C200 82.8427 132.843 150 50 150L8.74228e-06 150L4.41485e-05 -6.51651e-06L200 1.67962e-05Z" fill="#F3F3F3"/>
</g>
  <rect x="320" y="640" width="320" height="320" fill="#FFFFFF"/>
  <g transform="translate(320,640) scale(1.6) rotate(90,100,100)"><path xmlns="http://www.w3.org/2000/svg" d="M200 1.56833e-05L200 1.56833e-05C200 55.2285 155.228 100 100 100L8.74228e-06 100L3.67176e-05 -7.62939e-06L200 1.56833e-05Z" fill="#121212"/>
</g>
  <rect x="640" y="640" width="320" height="320" fill="#FFFFFF"/>
  <g transform="translate(640,640) scale(1.6) rotate(180,100,100)"><path xmlns="http://www.w3.org/2000/svg" d="M200 9.16683e-06L189.443 5.27866C130.623 34.6887 65.7629 50 8.74228e-06 50L8.74228e-06 50L2.92866e-05 -1.41459e-05L100 -2.48954e-06L200 9.16683e-06Z" fill="#FF4F00"/>
</g>
  <rect x="960" y="640" width="320" height="320" fill="#121212"/>
  <g transform="translate(960,640) scale(1.6) rotate(180,100,100)"><path xmlns="http://www.w3.org/2000/svg" d="M150 4.25583e-05L150 150L8.74228e-06 150L3.82475e-05 2.28882e-05L150 4.25583e-05Z" fill="#FFFFFF"/>
</g>
  <rect x="1280" y="640" width="320" height="320" fill="#FFFFFF"/>
  <g transform="translate(1280,640) scale(1.6) rotate(90,100,100)"><path xmlns="http://www.w3.org/2000/svg" d="M175 25L175 175L25 175L25 25L175 25Z" fill="#121212"/>
</g>
  <rect x="1600" y="640" width="320" height="320" fill="#121212"/>
  <g transform="translate(1600,640) scale(1.6)"><path xmlns="http://www.w3.org/2000/svg" d="M100 2.18557e-05L100 100L8.74228e-06 100L2.84124e-05 8.74228e-06L100 2.18557e-05Z" fill="#FF4F00"/>
</g>
</svg>
