<?xml version='1.0' encoding='UTF-8'?>
<svg xmlns="http://www.w3.org/2000/svg" version="1.1" width="1920" height="960" viewBox="0 0 1920 960">
  <rect x="0" y="0" width="320" height="320" fill="#4997D0"/>
  <g transform="translate(0,0) scale(1.6)"><path xmlns="http://www.w3.org/2000/svg" d="M150 100H200C200 44.772 155.228 8.74228e-06 100 8.74228e-06C44.772 8.74228e-06 8.74228e-06 44.772 8.74228e-06 100H50C50 127.616 72.384 150 100 150C127.616 150 150 127.616 150 100Z" fill="#F3F3F3"/>
</g>
  <rect x="320" y="0" width="320" height="320" fill="#FFFFFF"/>
  <g transform="translate(320,0) scale(1.6) rotate(90,100,100)"><path xmlns="http://www.w3.org/2000/svg" d="M150 100H200C200 44.772 155.228 8.74228e-06 100 8.74228e-06C44.772 8.74228e-06 8.74228e-06 44.772 8.74228e-06 100H50C50 127.616 72.384 150 100 150C127.616 150 150 127.616 150 100Z" fill="#FFA300"/>
</g>
  <rect x="640" y="0" width="320" height="320" fill="#FF4F00"/>
  <g transform="translate(640,0) scale(1.6) rotate(180,100,100)"><path xmlns="http://www.w3.org/2000/svg" d="M100 100L200 2.62268e-05L3.92599e-05 0L1.52588e-05 200L100 200L100 100Z" fill="#D9D9D6"/>
</g>
  <rect x="960" y="0" width="320" height="320" fill="#121212"/>
  <g transform="translate(960,0) scale(1.6) rotate(270,100,100)"><path xmlns="http://www.w3.org/2000/svg" d="M50 100L200 2.62268e-05L2.40011e-05 0L3.05176e-05 200L100 200L50 100Z" fill="#FF4F00"/>
</g>
  <rect x="1280" y="0" width="320" height="320" fill="#4997D0"/>
  <g transform="translate(1280,0) scale(1.6)"><path xmlns="http://www.w3.org/2000/svg" d="M150 100H200C200 44.772 155.228 8.74228e-06 100 8.74228e-06C44.772 8.74228e-06 8.74228e-06 44.772 8.74228e-06 100H50C50 100 72.384 100 100 100C127.616 100 150 100 150 100Z M45 200H65V100H45V200Z M90 200H110V100H90V200Z M135 200H155V100H135V200Z M8.74228e-06 200H20V100H8.74228e-06V200Z M180 200H200V100H180V200Z" fill="#FF4F00"/>
</g>
  <rect x="1600" y="0" width="320" height="320" fill="#121212"/>
  <g transform="translate(1600,0) scale(1.6) rotate(90,100,100)"><path xmlns="http://www.w3.org/2000/svg" d="M3.48887e-05 100L200 2.62268e-05L3.92599e-05 0L1.52588e-05 200L200 200L3.48887e-05 100Z" fill="#F3F3F3"/>
</g>
  <rect x="0" y="320" width="320" height="320" fill="#FFFFFF"/>
  <g transform="translate(0,320) scale(1.6)"><path xmlns="http://www.w3.org/2000/svg" d="M200 2.73397e-05L8.74228e-06 200L3.49691e-05 1.11288e-06L200 2.73397e-05Z" fill="#FF4F00"/>
</g>
  <rect x="320" y="320" width="320" height="320" fill="#F3F3F3"/>
  <g transform="translate(320,320) scale(1.6) rotate(90,100,100)"><path xmlns="http://www.w3.org/2000/svg" d="M100 100L200 2.62268e-05L3.92599e-05 0L1.52588e-05 200L200 200L100 100Z" fill="#FF4F00"/>
</g>
  <rect x="640" y="320" width="320" height="320" fill="#121212"/>
  <g transform="translate(640,320) scale(1.6) rotate(180,100,100)"><path xmlns="http://www.w3.org/2000/svg" d="M150 100H200C200 44.772 155.228 8.74228e-06 100 8.74228e-06C44.772 8.74228e-06 8.74228e-06 44.772 8.74228e-06 100H50C50 100 72.384 100 100 100C127.616 100 150 100 150 100Z M45 200H65V100H45V200Z M90 200H110V100H90V200Z M135 200H155V100H135V200Z M8.74228e-06 200H20V100H8.74228e-06V200Z M180 200H200V100H180V200Z" fill="#FFA300"/>
</g>
  <rect x="960" y="320" width="320" height="320" fill="#4997D0"/>
  <g transform="translate(960,320) scale(1.6) rotate(270,100,100)"><path xmlns="http://www.w3.org/2000/svg" d="M200 200L180 200L180 100L200 100L200 200ZM100.028 100L200 99.972C200 99.972 155.241 99.984 100.028 100ZM100.028 100L116 100L116 200L96 200L96 100L74 100L74 200L54 200L54 100L32 100L32 200L12 200L12 100L100.028 100ZM158 200L138 200L138 100L158 100L158 200Z M200 99.9719L8.74228e-06 100L9.93477e-06 -2.38498e-06L100 -1.19249e-06C155.213 -0.0159994 199.984 44.7439 200 99.9719Z M8.74228e-06,100.0 L200.00000874228,100.0 L200.00000874228,200.0 L8.74228e-06,200.0 Z" fill="#F3F3F3" fill-rule="evenodd"/>
</g>
  <rect x="1280" y="320" width="320" height="320" fill="#4997D0"/>
  <g transform="translate(1280,320) scale(1.6)"><path xmlns="http://www.w3.org/2000/svg" d="M100 100L200 2.62268e-05L3.92599e-05 0L1.52588e-05 200L200 200L100 100Z" fill="#F3F3F3"/>
</g>
  <rect x="1600" y="320" width="320" height="320" fill="#121212"/>
  <g transform="translate(1600,320) scale(1.6) rotate(90,100,100)"><path xmlns="http://www.w3.org/2000/svg" d="M150 100H200C200 44.772 155.228 8.74228e-06 100 8.74228e-06C44.772 8.74228e-06 8.74228e-06 44.772 8.74228e-06 100H50C50 127.616 72.384 150 100 150C127.616 150 150 127.616 150 100Z" fill="#FF4F00"/>
</g>
  <rect x="0" y="640" width="320" height="320" fill="#4997D0"/>
  <g transform="translate(0,640) scale(1.6)"><path xmlns="http://www.w3.org/2000/svg" d="M100 100L200 2.62268e-05L2.40011e-05 0L3.05176e-05 200L50 200L100 100Z" fill="#F3F3F3"/>
</g>
  <rect x="320" y="640" width="320" height="320" fill="#121212"/>
  <g transform="translate(320,640) scale(1.6) rotate(90,100,100)"><path xmlns="http://www.w3.org/2000/svg" d="M100 100L200 2.62268e-05L2.40011e-05 0L3.05176e-05 200L50 200L100 100Z" fill="#FFA300"/>
</g>
  <rect x="640" y="640" width="320" height="320" fill="#121212"/>
  <g transform="translate(640,640) scale(1.6) rotate(180,100,100)"><path xmlns="http://www.w3.org/2000/svg" d="M200 2.73397e-05L8.74228e-06 200L3.49691e-05 1.11288e-06L200 2.73397e-05Z" fill="#F3F3F3"/>
</g>
  <rect x="960" y="640" width="320" height="320" fill="#FF4F00"/>
  <g transform="translate(960,640) scale(1.6) rotate(270,100,100)"><path xmlns="http://www.w3.org/2000/svg" d="M100 100L200 2.62268e-05L3.92599e-05 0L1.52588e-05 200L200 200L100 100Z" fill="#D9D9D6"/>
</g>
  <rect x="1280" y="640" width="320" height="320" fill="#F3F3F3"/>
  <g transform="translate(1280,640) scale(1.6)"><path xmlns="http://www.w3.org/2000/svg" d="M100 100L200 2.62268e-05L3.92599e-05 0L1.52588e-05 200L200 200L100 100Z" fill="#FF4F00"/>
</g>
  <rect x="1600" y="640" width="320" height="320" fill="#FFFFFF"/>
  <g transform="translate(1600,640) scale(1.6) rotate(270,100,100)"><path xmlns="http://www.w3.org/2000/svg" d="M150 100H200C200 44.772 155.228 8.74228e-06 100 8.74228e-06C44.772 8.74228e-06 8.74228e-06 44.772 8.74228e-06 100H50C50 100 72.384 100 100 100C127.616 100 150 100 150 100Z M45 200H65V100H45V200Z M90 200H110V100H90V200Z M135 200H155V100H135V200Z M8.74228e-06 200H20V100H8.74228e-06V200Z M180 200H200V100H180V200Z" fill="#FFA300"/>
</g>
</svg>
