<?xml version='1.0' encoding='UTF-8'?>
<svg xmlns="http://www.w3.org/2000/svg" version="1.1" width="1920" height="960" viewBox="0 0 1920 960">
  <rect x="0" y="0" width="320" height="320" fill="#F3F3F3"/>
  <svg x="0" y="0" width="320" height="320" viewBox="0 0 200 200" overflow="hidden"><path xmlns="http://www.w3.org/2000/svg" d="M100 8.74228e-06H8.74228e-06V100C8.74228e-06 44.772 44.772 8.74228e-06 100 8.74228e-06Z" fill="#4997D0"/>
</svg>
  <rect x="320" y="0" width="320" height="320" fill="#121212"/>
  <rect x="640" y="0" width="320" height="320" fill="#F3F3F3"/>
  <svg x="640" y="0" width="320" height="320" viewBox="0 0 200 200" overflow="hidden"><path xmlns="http://www.w3.org/2000/svg" d="M195 5.00003L195 195L5.00001 195L5.00005 5.00001L195 5.00003Z M200 8.74228e-06L8.74228e-06 200V8.74228e-06H200Z M100 200L200 100V200H100Z" fill="#FFA300" transform="rotate(270,100,100)"/>
</svg>
  <rect x="960" y="0" width="320" height="320" fill="#FF4F00"/>
  <svg x="960" y="0" width="320" height="320" viewBox="0 0 200 200" overflow="hidden"><path xmlns="http://www.w3.org/2000/svg" d="M200 3.49691e-05L8.74228e-06 200L3.49691e-05 8.74228e-06L200 3.49691e-05Z M50 200L200 50L200 200L50 200Z" fill="#FFA300"/>
</svg>
  <rect x="1280" y="0" width="320" height="320" fill="#F3F3F3"/>
  <svg x="1280" y="0" width="320" height="320" viewBox="0 0 200 200" overflow="hidden"><path xmlns="http://www.w3.org/2000/svg" d="M200.0000,100.1000 L199.9804,98.0222 L199.9218,95.9609 L199.8246,93.9161 L199.6894,91.8882 L199.5165,89.8773 L199.3064,87.8836 L199.0594,85.9072 L198.7762,83.9483 L198.4570,82.0072 L198.1023,80.0840 L197.7125,78.1788 L197.2882,76.2919 L196.8297,74.4234 L196.3374,72.5735 L195.8118,70.7425 L195.2534,68.9304 L194.6625,67.1375 L194.0396,65.3639 L193.3852,63.6098 L192.6996,61.8754 L191.9833,60.1609 L191.2368,58.4665 L190.4604,56.7923 L189.6547,55.1385 L188.8200,53.5054 L187.9568,51.8930 L187.0655,50.3016 L186.1466,48.7313 L185.2005,47.1823 L184.2276,45.6549 L183.2283,44.1491 L182.2032,42.6652 L181.1526,41.2033 L180.0769,39.7637 L178.9767,38.3465 L177.8523,36.9518 L176.7042,35.5799 L175.5328,34.2310 L174.3386,32.9052 L173.1219,31.6027 L171.8833,30.3237 L170.6231,29.0684 L169.3418,27.8369 L168.0398,26.6295 L166.7176,25.4462 L165.3756,24.2874 L164.0142,23.1531 L162.6339,22.0436 L161.2351,20.9590 L159.8183,19.8995 L158.3838,18.8653 L156.9322,17.8566 L155.4637,16.8735 L153.9790,15.9163 L152.4784,14.9851 L150.9623,14.0801 L149.4313,13.2014 L147.8856,12.3494 L146.3259,11.5240 L144.7524,10.7256 L143.1656,9.9543 L141.5661,9.2102 L139.9541,8.4936 L138.3302,7.8047 L136.6947,7.1435 L135.0482,6.5104 L133.3910,5.9055 L131.7236,5.3289 L130.0464,4.7808 L128.3599,4.2615 L126.6644,3.7711 L124.9605,3.3098 L123.2486,2.8777 L121.5290,2.4751 L119.8023,2.1021 L118.0688,1.7589 L116.3291,1.4457 L114.5835,1.1626 L112.8324,0.9099 L111.0764,0.6877 L109.3158,0.4963 L107.5511,0.3357 L105.7828,0.2062 L104.0111,0.1079 L102.2367,0.0411 L100.4599,0.0059 L98.6812,0.0024 L96.9009,0.0310 L95.1196,0.0917 L93.3377,0.1847 L91.5555,0.3102 L89.7736,0.4685 L87.9924,0.6596 L86.2123,0.8837 L84.4337,1.1411 L82.6572,1.4319 L80.8830,1.7563 L79.1117,2.1145 L77.3437,2.5066 L75.5794,2.9329 L73.8192,3.3934 L72.0637,3.8885 L70.3132,4.4183 L68.5681,4.9829 L66.8290,5.5826 L65.0962,6.2174 L63.3702,6.8877 L61.6514,7.5935 L59.9402,8.3352 L58.2371,9.1127 L56.5426,9.9264 L54.8569,10.7764 L53.1807,11.6628 L51.5143,12.5859 L49.8582,13.5459 L48.2127,14.5429 L46.5784,15.5771 L44.9557,16.6487 L43.3449,17.7578 L41.7466,18.9047 L40.1612,20.0895 L38.5891,21.3124 L37.0307,22.5736 L35.4865,23.8733 L33.9570,25.2116 L32.4424,26.5888 L30.9434,28.0050 L29.4603,29.4603 L29.4603,29.4603 L28.0050,30.9434 L26.5888,32.4424 L25.2116,33.9570 L23.8733,35.4865 L22.5737,37.0307 L21.3124,38.5891 L20.0895,40.1612 L18.9047,41.7466 L17.7578,43.3449 L16.6487,44.9557 L15.5771,46.5784 L14.5429,48.2127 L13.5459,49.8582 L12.5860,51.5143 L11.6629,53.1807 L10.7764,54.8569 L9.9264,56.5426 L9.1127,58.2371 L8.3352,59.9402 L7.5936,61.6514 L6.8877,63.3702 L6.2175,65.0962 L5.5826,66.8290 L4.9829,68.5681 L4.4183,70.3132 L3.8886,72.0637 L3.3935,73.8192 L2.9329,75.5794 L2.5066,77.3437 L2.1145,79.1117 L1.7563,80.8830 L1.4319,82.6572 L1.1411,84.4337 L0.8838,86.2123 L0.6596,87.9924 L0.4685,89.7736 L0.3103,91.5555 L0.1847,93.3377 L0.0917,95.1196 L0.0310,96.9009 L0.0025,98.6812 L0.0059,100.4599 L0.0411,102.2367 L0.1080,104.0111 L0.2062,105.7828 L0.3357,107.5511 L0.4963,109.3158 L0.6878,111.0764 L0.9099,112.8324 L1.1626,114.5835 L1.4457,116.3291 L1.7589,118.0688 L2.1021,119.8023 L2.4751,121.5290 L2.8777,123.2486 L3.3098,124.9605 L3.7711,126.6644 L4.2616,128.3599 L4.7809,130.0464 L5.3289,131.7236 L5.9055,133.3910 L6.5105,135.0482 L7.1436,136.6947 L7.8047,138.3302 L8.4937,139.9541 L9.2102,141.5661 L9.9543,143.1656 L10.7256,144.7524 L11.5240,146.3259 L12.3494,147.8856 L13.2015,149.4313 L14.0801,150.9623 L14.9851,152.4784 L15.9163,153.9790 L16.8735,155.4637 L17.8566,156.9322 L18.8653,158.3838 L19.8995,159.8183 L20.9590,161.2351 L22.0436,162.6339 L23.1531,164.0142 L24.2874,165.3756 L25.4462,166.7176 L26.6295,168.0398 L27.8369,169.3418 L29.0684,170.6231 L30.3237,171.8833 L31.6027,173.1219 L32.9052,174.3386 L34.2310,175.5328 L35.5800,176.7042 L36.9518,177.8523 L38.3465,178.9767 L39.7637,180.0769 L41.2033,181.1526 L42.6652,182.2032 L44.1491,183.2283 L45.6549,184.2276 L47.1823,185.2005 L48.7313,186.1466 L50.3016,187.0655 L51.8930,187.9568 L53.5054,188.8200 L55.1385,189.6547 L56.7923,190.4604 L58.4665,191.2368 L60.1609,191.9833 L61.8754,192.6996 L63.6098,193.3852 L65.3639,194.0396 L67.1375,194.6625 L68.9304,195.2534 L70.7425,195.8118 L72.5735,196.3374 L74.4234,196.8297 L76.2919,197.2882 L78.1788,197.7125 L80.0840,198.1023 L82.0072,198.4570 L83.9483,198.7762 L85.9072,199.0594 L87.8836,199.3064 L89.8773,199.5165 L91.8882,199.6894 L93.9161,199.8246 L95.9609,199.9218 L98.0222,199.9804 L100.1000,200.0000 L100.8805,200.0000 L101.6609,200.0000 L102.4414,200.0000 L103.2219,200.0000 L104.0023,200.0000 L104.7828,200.0000 L105.5633,200.0000 L106.3438,200.0000 L107.1242,200.0000 L107.9047,200.0000 L108.6852,200.0000 L109.4656,200.0000 L110.2461,200.0000 L111.0266,200.0000 L111.8070,200.0000 L112.5875,200.0000 L113.3680,200.0000 L114.1484,200.0000 L114.9289,200.0000 L115.7094,200.0000 L116.4898,200.0000 L117.2703,200.0000 L118.0508,200.0000 L118.8312,200.0000 L119.6117,200.0000 L120.3922,200.0000 L121.1727,200.0000 L121.9531,200.0000 L122.7336,200.0000 L123.5141,200.0000 L124.2945,200.0000 L125.0750,200.0000 L125.8555,200.0000 L126.6359,200.0000 L127.4164,200.0000 L128.1969,200.0000 L128.9773,200.0000 L129.7578,200.0000 L130.5383,200.0000 L131.3187,200.0000 L132.0992,200.0000 L132.8797,200.0000 L133.6602,200.0000 L134.4406,200.0000 L135.2211,200.0000 L136.0016,200.0000 L136.7820,200.0000 L137.5625,200.0000 L138.3430,200.0000 L139.1234,200.0000 L139.9039,200.0000 L140.6844,200.0000 L141.4648,200.0000 L142.2453,200.0000 L143.0258,200.0000 L143.8063,200.0000 L144.5867,200.0000 L145.3672,200.0000 L146.1477,200.0000 L146.9281,200.0000 L147.7086,200.0000 L148.4891,200.0000 L149.2695,200.0000 L150.0500,200.0000 L150.8305,200.0000 L151.6109,200.0000 L152.3914,200.0000 L153.1719,200.0000 L153.9523,200.0000 L154.7328,200.0000 L155.5133,200.0000 L156.2937,200.0000 L157.0742,200.0000 L157.8547,200.0000 L158.6352,200.0000 L159.4156,200.0000 L160.1961,200.0000 L160.9766,200.0000 L161.7570,200.0000 L162.5375,200.0000 L163.3180,200.0000 L164.0984,200.0000 L164.8789,200.0000 L165.6594,200.0000 L166.4398,200.0000 L167.2203,200.0000 L168.0008,200.0000 L168.7812,200.0000 L169.5617,200.0000 L170.3422,200.0000 L171.1227,200.0000 L171.9031,200.0000 L172.6836,200.0000 L173.4641,200.0000 L174.2445,200.0000 L175.0250,200.0000 L175.8055,200.0000 L176.5859,200.0000 L177.3664,200.0000 L178.1469,200.0000 L178.9273,200.0000 L179.7078,200.0000 L180.4883,200.0000 L181.2688,200.0000 L182.0492,200.0000 L182.8297,200.0000 L183.6102,200.0000 L184.3906,200.0000 L185.1711,200.0000 L185.9516,200.0000 L186.7320,200.0000 L187.5125,200.0000 L188.2930,200.0000 L189.0734,200.0000 L189.8539,200.0000 L190.6344,200.0000 L191.4148,200.0000 L192.1953,200.0000 L192.9758,200.0000 L193.7562,200.0000 L194.5367,200.0000 L195.3172,200.0000 L196.0977,200.0000 L196.8781,200.0000 L197.6586,200.0000 L198.4391,200.0000 L199.2195,200.0000 L200.0000,200.0000 L200.0000,199.2195 L200.0000,198.4391 L200.0000,197.6586 L200.0000,196.8781 L200.0000,196.0977 L200.0000,195.3172 L200.0000,194.5367 L200.0000,193.7562 L200.0000,192.9758 L200.0000,192.1953 L200.0000,191.4148 L200.0000,190.6344 L200.0000,189.8539 L200.0000,189.0734 L200.0000,188.2930 L200.0000,187.5125 L200.0000,186.7320 L200.0000,185.9516 L200.0000,185.1711 L200.0000,184.3906 L200.0000,183.6102 L200.0000,182.8297 L200.0000,182.0492 L200.0000,181.2688 L200.0000,180.4883 L200.0000,179.7078 L200.0000,178.9273 L200.0000,178.1469 L200.0000,177.3664 L200.0000,176.5859 L200.0000,175.8055 L200.0000,175.0250 L200.0000,174.2445 L200.0000,173.4641 L200.0000,172.6836 L200.0000,171.9031 L200.0000,171.1227 L200.0000,170.3422 L200.0000,169.5617 L200.0000,168.7812 L200.0000,168.0008 L200.0000,167.2203 L200.0000,166.4398 L200.0000,165.6594 L200.0000,164.8789 L200.0000,164.0984 L200.0000,163.3180 L200.0000,162.5375 L200.0000,161.7570 L200.0000,160.9766 L200.0000,160.1961 L200.0000,159.4156 L200.0000,158.6352 L200.0000,157.8547 L200.0000,157.0742 L200.0000,156.2937 L200.0000,155.5133 L200.0000,154.7328 L200.0000,153.9523 L200.0000,153.1719 L200.0000,152.3914 L200.0000,151.6109 L200.0000,150.8305 L200.0000,150.0500 L200.0000,149.2695 L200.0000,148.4891 L200.0000,147.7086 L200.0000,146.9281 L200.0000,146.1477 L200.0000,145.3672 L200.0000,144.5867 L200.0000,143.8063 L200.0000,143.0258 L200.0000,142.2453 L200.0000,141.4648 L200.0000,140.6844 L200.0000,139.9039 L200.0000,139.1234 L200.0000,138.3430 L200.0000,137.5625 L200.0000,136.7820 L200.0000,136.0016 L200.0000,135.2211 L200.0000,134.4406 L200.0000,133.6602 L200.0000,132.8797 L200.0000,132.0992 L200.0000,131.3187 L200.0000,130.5383 L200.0000,129.7578 L200.0000,128.9773 L200.0000,128.1969 L200.0000,127.4164 L200.0000,126.6359 L200.0000,125.8555 L200.0000,125.0750 L200.0000,124.2945 L200.0000,123.5141 L200.0000,122.7336 L200.0000,121.9531 L200.0000,121.1727 L200.0000,120.3922 L200.0000,119.6117 L200.0000,118.8312 L200.0000,118.0508 L200.0000,117.2703 L200.0000,116.4898 L200.0000,115.7094 L200.0000,114.9289 L200.0000,114.1484 L200.0000,113.3680 L200.0000,112.5875 L200.0000,111.8070 L200.0000,111.0266 L200.0000,110.2461 L200.0000,109.4656 L200.0000,108.6852 L200.0000,107.9047 L200.0000,107.1242 L200.0000,106.3438 L200.0000,105.5633 L200.0000,104.7828 L200.0000,104.0023 L200.0000,103.2219 L200.0000,102.4414 L200.0000,101.6609 L200.0000,100.8805 L200.0000,100.1000 Z" fill="#4997D0" transform="rotate(270,100,100)"/>
</svg>
  <rect x="1600" y="0" width="320" height="320" fill="#F3F3F3"/>
  <svg x="1600" y="0" width="320" height="320" viewBox="0 0 200 200" overflow="hidden"><path xmlns="http://www.w3.org/2000/svg" d="M0.0,100.0 A100.0,100.0 0 1,0 200.0,100.0 A100.0,100.0 0 1,0 0.0,100.0 Z" fill="#4997D0"/>
</svg>
  <rect x="0" y="320" width="320" height="320" fill="#121212"/>
  <svg x="0" y="320" width="320" height="320" viewBox="0 0 200 200" overflow="hidden"><path xmlns="http://www.w3.org/2000/svg" d="M100.0,100.0 A50.0,50.0 0 1,0 200.0,100.0 A50.0,50.0 0 1,0 100.0,100.0 Z M100.0,1.11288e-06 A50.0,50.0 0 1,0 200.0,1.11288e-06 A50.0,50.0 0 1,0 100.0,1.11288e-06 Z M100.0,200.0 A50.0,50.0 0 1,0 200.0,200.0 A50.0,50.0 0 1,0 100.0,200.0 Z M200.0000,0.0000 L150.0000,0.0000 L150.0000,0.3125 L150.0000,2.0312 L150.0000,3.7500 L150.0000,5.4688 L150.0000,7.1875 L150.0000,8.9062 L150.0000,10.6250 L150.0000,12.3438 L150.0000,14.0625 L150.0000,15.7812 L150.0000,17.5000 L150.0000,19.2188 L150.0000,20.9375 L150.0000,22.6562 L150.0000,24.3750 L150.0000,26.0938 L150.0000,27.8125 L150.0000,29.5312 L150.0000,31.2500 L150.0000,32.9688 L150.0000,34.6875 L150.0000,36.4062 L150.0000,38.1250 L150.0000,39.8438 L150.0000,41.5625 L150.0000,43.2812 L150.0000,45.0000 L150.0000,46.7188 L150.0000,48.4375 L150.0000,50.1562 L150.0000,51.8750 L150.0000,53.5938 L150.0000,55.3125 L150.0000,57.0312 L150.0000,58.7500 L150.0000,60.4688 L150.0000,62.1875 L150.0000,63.9062 L150.0000,65.6250 L150.0000,67.3438 L150.0000,69.0625 L150.0000,70.7812 L150.0000,72.5000 L150.0000,74.2188 L150.0000,75.9375 L150.0000,77.6562 L150.0000,79.3750 L150.0000,81.0938 L150.0000,82.8125 L150.0000,84.5312 L150.0000,86.2500 L150.0000,87.9688 L150.0000,89.6875 L150.0000,91.4062 L150.0000,93.1250 L150.0000,94.8438 L150.0000,96.5625 L150.0000,98.2812 L150.0000,100.0000 L150.0000,101.7188 L150.0000,103.4375 L150.0000,105.1562 L150.0000,106.8750 L150.0000,108.5938 L150.0000,110.3125 L150.0000,112.0312 L150.0000,113.7500 L150.0000,115.4688 L150.0000,117.1875 L150.0000,118.9062 L150.0000,120.6250 L150.0000,122.3438 L150.0000,124.0625 L150.0000,125.7812 L150.0000,127.5000 L150.0000,129.2188 L150.0000,130.9375 L150.0000,132.6562 L150.0000,134.3750 L150.0000,136.0938 L150.0000,137.8125 L150.0000,139.5312 L150.0000,141.2500 L150.0000,142.9688 L150.0000,144.6875 L150.0000,146.4062 L150.0000,148.1250 L150.0000,149.8438 L150.0000,151.5625 L150.0000,153.2812 L150.0000,155.0000 L150.0000,156.7188 L150.0000,158.4375 L150.0000,160.1562 L150.0000,161.8750 L150.0000,163.5938 L150.0000,165.3125 L150.0000,167.0312 L150.0000,168.7500 L150.0000,170.4688 L150.0000,172.1875 L150.0000,173.9062 L150.0000,175.6250 L150.0000,177.3438 L150.0000,179.0625 L150.0000,180.7812 L150.0000,182.5000 L150.0000,184.2188 L150.0000,185.9375 L150.0000,187.6562 L150.0000,189.3750 L150.0000,191.0938 L150.0000,192.8125 L150.0000,194.5312 L150.0000,196.2500 L150.0000,197.9688 L150.0000,199.6875 L150.0000,200.0000 L200.0000,200.0000 L200.0000,199.6875 L200.0000,197.9688 L200.0000,196.2500 L200.0000,194.5312 L200.0000,192.8125 L200.0000,191.0938 L200.0000,189.3750 L200.0000,187.6562 L200.0000,185.9375 L200.0000,184.2188 L200.0000,182.5000 L200.0000,180.7812 L200.0000,179.0625 L200.0000,177.3438 L200.0000,175.6250 L200.0000,173.9062 L200.0000,172.1875 L200.0000,170.4688 L200.0000,168.7500 L200.0000,167.0312 L200.0000,165.3125 L200.0000,163.5938 L200.0000,161.8750 L200.0000,160.1562 L200.0000,158.4375 L200.0000,156.7188 L200.0000,155.0000 L200.0000,153.2812 L200.0000,151.5625 L200.0000,149.8438 L200.0000,148.1250 L200.0000,146.4062 L200.0000,144.6875 L200.0000,142.9688 L200.0000,141.2500 L200.0000,139.5312 L200.0000,137.8125 L200.0000,136.0938 L200.0000,134.3750 L200.0000,132.6562 L200.0000,130.9375 L200.0000,129.2188 L200.0000,127.5000 L200.0000,125.7812 L200.0000,124.0625 L200.0000,122.3438 L200.0000,120.6250 L200.0000,118.9062 L200.0000,117.1875 L200.0000,115.4688 L200.0000,113.7500 L200.0000,112.0312 L200.0000,110.3125 L200.0000,108.5938 L200.0000,106.8750 L200.0000,105.1562 L200.0000,103.4375 L200.0000,101.7188 L200.0000,100.0000 L200.0000,98.2812 L200.0000,96.5625 L200.0000,94.8438 L200.0000,93.1250 L200.0000,91.4062 L200.0000,89.6875 L200.0000,87.9688 L200.0000,86.2500 L200.0000,84.5312 L200.0000,82.8125 L200.0000,81.0938 L200.0000,79.3750 L200.0000,77.6562 L200.0000,75.9375 L200.0000,74.2188 L200.0000,72.5000 L200.0000,70.7812 L200.0000,69.0625 L200.0000,67.3438 L200.0000,65.6250 L200.0000,63.9062 L200.0000,62.1875 L200.0000,60.4688 L200.0000,58.7500 L200.0000,57.0312 L200.0000,55.3125 L200.0000,53.5938 L200.0000,51.8750 L200.0000,50.1562 L200.0000,48.4375 L200.0000,46.7188 L200.0000,45.0000 L200.0000,43.2812 L200.0000,41.5625 L200.0000,39.8438 L200.0000,38.1250 L200.0000,36.4062 L200.0000,34.6875 L200.0000,32.9688 L200.0000,31.2500 L200.0000,29.5312 L200.0000,27.8125 L200.0000,26.0938 L200.0000,24.3750 L200.0000,22.6562 L200.0000,20.9375 L200.0000,19.2188 L200.0000,17.5000 L200.0000,15.7812 L200.0000,14.0625 L200.0000,12.3438 L200.0000,10.6250 L200.0000,8.9062 L200.0000,7.1875 L200.0000,5.4688 L200.0000,3.7500 L200.0000,2.0312 L200.0000,0.3125 Z" fill="#FFA300" transform="rotate(90,100,100)"/>
</svg>
  <rect x="320" y="320" width="320" height="320" fill="#F3F3F3"/>
  <svg x="320" y="320" width="320" height="320" viewBox="0 0 200 200" overflow="hidden"><path xmlns="http://www.w3.org/2000/svg" d="M100 100L200 2.62268e-05L3.92599e-05 0L1.52588e-05 200L200 200L100 100Z" fill="#4997D0" transform="rotate(180,100,100)"/>
</svg>
  <rect x="640" y="320" width="320" height="320" fill="#FF4F00"/>
  <svg x="640" y="320" width="320" height="320" viewBox="0 0 200 200" overflow="hidden"><path xmlns="http://www.w3.org/2000/svg" d="M200 95L200 105L8.74228e-06 105L2.3167e-05 95L200 95Z" fill="#4997D0"/>
</svg>
  <rect x="960" y="320" width="320" height="320" fill="#F3F3F3"/>
  <svg x="960" y="320" width="320" height="320" viewBox="0 0 200 200" overflow="hidden"><path xmlns="http://www.w3.org/2000/svg" d="M175.025 200C152.775 200 141.632 173.098 157.365 157.365L157.365 157.365C173.098 141.632 200 152.775 200 175.025L200 200L175.025 200Z" fill="#FF4F00"/>
</svg>
  <rect x="1280" y="320" width="320" height="320" fill="#4997D0"/>
  <svg x="1280" y="320" width="320" height="320" viewBox="0 0 200 200" overflow="hidden"><path xmlns="http://www.w3.org/2000/svg" d="M199.1357,102.6482 L197.4770,103.0780 L195.8203,103.4714 L194.1660,103.8289 L192.5144,104.1508 L190.8657,104.4373 L189.2204,104.6889 L187.5787,104.9057 L185.9410,105.0882 L184.3075,105.2366 L182.6786,105.3513 L181.0547,105.4326 L179.4359,105.4808 L177.8227,105.4961 L176.2153,105.4791 L174.6141,105.4298 L173.0193,105.3487 L171.4314,105.2361 L169.8506,105.0923 L168.2772,104.9176 L166.7116,104.7124 L165.1540,104.4769 L163.6048,104.2114 L162.0644,103.9164 L160.5329,103.5920 L159.0108,103.2387 L157.4984,102.8567 L155.9959,102.4463 L154.5037,102.0079 L153.0221,101.5418 L151.5514,101.0483 L150.0920,100.5277 L148.6441,99.9804 L147.2081,99.4066 L145.7842,98.8066 L144.3729,98.1809 L142.9744,97.5296 L141.5891,96.8532 L140.2172,96.1519 L138.8591,95.4261 L137.5150,94.6760 L136.1854,93.9020 L134.8705,93.1045 L133.5707,92.2836 L132.2862,91.4398 L131.0174,90.5733 L129.7645,89.6846 L128.5280,88.7738 L127.3081,87.8413 L126.1052,86.8874 L124.9195,85.9125 L123.7513,84.9168 L122.6011,83.9007 L121.4691,82.8645 L120.3556,81.8085 L119.2610,80.7330 L118.1855,79.6384 L117.1295,78.5249 L116.0933,77.3929 L115.0772,76.2427 L114.0816,75.0746 L113.1067,73.8889 L112.1528,72.6860 L111.2203,71.4661 L110.3096,70.2296 L109.4208,68.9768 L108.5544,67.7080 L107.7106,66.4235 L106.8898,65.1237 L106.0923,63.8089 L105.3183,62.4793 L104.5683,61.1353 L103.8425,59.7772 L103.1413,58.4054 L102.4649,57.0201 L101.8137,55.6217 L101.1880,54.2104 L100.5882,52.7866 L100.0144,51.3507 L99.4671,49.9029 L98.9466,48.4435 L98.4532,46.9729 L97.9872,45.4914 L97.5488,43.9993 L97.1386,42.4969 L96.7566,40.9845 L96.4034,39.4625 L96.0791,37.9311 L95.7842,36.3908 L95.5188,34.8417 L95.2834,33.2842 L95.0783,31.7187 L94.9037,30.1454 L94.7600,28.5647 L94.6475,26.9769 L94.5665,25.3823 L94.5174,23.7812 L94.5004,22.1739 L94.5159,20.5608 L94.5642,18.9422 L94.6456,17.3183 L94.7605,15.6896 L94.9090,14.0562 L95.0916,12.4186 L95.3086,10.7771 L95.5603,9.1319 L95.8470,7.4834 L96.1690,5.8320 L96.5267,4.1778 L96.9203,2.5213 L97.3502,0.8627 L97.5926,0.0000 L0.0000,0.0000 L0.0000,3.1250 L0.0000,6.2500 L0.0000,9.3750 L0.0000,12.5000 L0.0000,15.6250 L0.0000,18.7500 L0.0000,21.8750 L0.0000,25.0000 L0.0000,28.1250 L0.0000,31.2500 L0.0000,34.3750 L0.0000,37.5000 L0.0000,40.6250 L0.0000,43.7500 L0.0000,46.8750 L0.0000,50.0000 L0.0000,53.1250 L0.0000,56.2500 L0.0000,59.3750 L0.0000,62.5000 L0.0000,65.6250 L0.0000,68.7500 L0.0000,71.8750 L0.0000,75.0000 L0.0000,78.1250 L0.0000,81.2500 L0.0000,84.3750 L0.0000,87.5000 L0.0000,90.6250 L0.0000,93.7500 L0.0000,96.8750 L0.0000,100.0000 L0.0000,103.1250 L0.0000,106.2500 L0.0000,109.3750 L0.0000,112.5000 L0.0000,115.6250 L0.0000,118.7500 L0.0000,121.8750 L0.0000,125.0000 L0.0000,128.1250 L0.0000,131.2500 L0.0000,134.3750 L0.0000,137.5000 L0.0000,140.6250 L0.0000,143.7500 L0.0000,146.8750 L0.0000,150.0000 L0.0000,153.1250 L0.0000,156.2500 L0.0000,159.3750 L0.0000,162.5000 L0.0000,165.6250 L0.0000,168.7500 L0.0000,171.8750 L0.0000,175.0000 L0.0000,178.1250 L0.0000,181.2500 L0.0000,184.3750 L0.0000,187.5000 L0.0000,190.6250 L0.0000,193.7500 L0.0000,196.8750 L0.0000,200.0000 L3.1250,200.0000 L6.2500,200.0000 L9.3750,200.0000 L12.5000,200.0000 L15.6250,200.0000 L18.7500,200.0000 L21.8750,200.0000 L25.0000,200.0000 L28.1250,200.0000 L31.2500,200.0000 L34.3750,200.0000 L37.5000,200.0000 L40.6250,200.0000 L43.7500,200.0000 L46.8750,200.0000 L50.0000,200.0000 L53.1250,200.0000 L56.2500,200.0000 L59.3750,200.0000 L62.5000,200.0000 L65.6250,200.0000 L68.7500,200.0000 L71.8750,200.0000 L75.0000,200.0000 L78.1250,200.0000 L81.2500,200.0000 L84.3750,200.0000 L87.5000,200.0000 L90.6250,200.0000 L93.7500,200.0000 L96.8750,200.0000 L100.0000,200.0000 L103.1250,200.0000 L106.2500,200.0000 L109.3750,200.0000 L112.5000,200.0000 L115.6250,200.0000 L118.7500,200.0000 L121.8750,200.0000 L125.0000,200.0000 L128.1250,200.0000 L131.2500,200.0000 L134.3750,200.0000 L137.5000,200.0000 L140.6250,200.0000 L143.7500,200.0000 L146.8750,200.0000 L150.0000,200.0000 L153.1250,200.0000 L156.2500,200.0000 L159.3750,200.0000 L162.5000,200.0000 L165.6250,200.0000 L168.7500,200.0000 L171.8750,200.0000 L175.0000,200.0000 L178.1250,200.0000 L181.2500,200.0000 L184.3750,200.0000 L187.5000,200.0000 L190.6250,200.0000 L193.7500,200.0000 L196.8750,200.0000 L200.0000,200.0000 L200.0000,102.4055 Z" fill="#F3F3F3" transform="rotate(180,100,100)"/>
</svg>
  <rect x="1600" y="320" width="320" height="320" fill="#FF4F00"/>
  <svg x="1600" y="320" width="320" height="320" viewBox="0 0 200 200" overflow="hidden"><path xmlns="http://www.w3.org/2000/svg" d="M200 9.16684e-06L200 9.16684e-06C200 5.52286 195.523 10 190 10L8.74228e-06 10L2.33419e-05 -1.41459e-05L200 9.16684e-06Z" fill="#F3F3F3"/>
</svg>
  <rect x="0" y="640" width="320" height="320" fill="#FFFFFF"/>
  <svg x="0" y="640" width="320" height="320" viewBox="0 0 200 200" overflow="hidden"><path xmlns="http://www.w3.org/2000/svg" d="M90.0000,0.0307 L90.0001,0.0388 L90.0004,0.0523 L90.0009,0.0710 L90.0018,0.0949 L90.0031,0.1239 L90.0049,0.1578 L90.0073,0.1967 L90.0104,0.2403 L90.0143,0.2887 L90.0190,0.3418 L90.0247,0.3994 L90.0314,0.4614 L90.0393,0.5279 L90.0483,0.5986 L90.0586,0.6736 L90.0703,0.7526 L90.0834,0.8358 L90.0981,0.9229 L90.1144,1.0138 L90.1325,1.1085 L90.1523,1.2070 L90.1741,1.3090 L90.1978,1.4146 L90.2235,1.5236 L90.2514,1.6359 L90.2816,1.7516 L90.3140,1.8704 L90.3489,1.9923 L90.3862,2.1172 L90.4262,2.2450 L90.4688,2.3757 L90.5141,2.5091 L90.5622,2.6452 L90.6133,2.7839 L90.6674,2.9250 L90.7246,3.0686 L90.7850,3.2145 L90.8486,3.3626 L90.9155,3.5129 L90.9859,3.6652 L91.0598,3.8195 L91.1374,3.9757 L91.2186,4.1337 L91.3036,4.2935 L91.3924,4.4548 L91.4852,4.6177 L91.5820,4.7821 L91.6830,4.9479 L91.7881,5.1149 L91.8976,5.2831 L92.0114,5.4525 L92.1297,5.6229 L92.2525,5.7942 L92.3800,5.9664 L92.5122,6.1394 L92.6492,6.3131 L92.7911,6.4873 L92.9380,6.6621 L93.0899,6.8373 L93.2470,7.0129 L93.4093,7.1887 L93.5770,7.3646 L93.7500,7.5407 L93.9285,7.7168 L94.1127,7.8928 L94.3024,8.0686 L94.4980,8.2441 L94.6994,8.4193 L94.9067,8.5941 L95.1200,8.7684 L95.3394,8.9420 L95.5649,9.1150 L95.7968,9.2872 L96.0350,9.4585 L96.2796,9.6289 L96.5308,9.7983 L96.7885,9.9665 L97.0530,10.1336 L97.3242,10.2993 L97.6023,10.4637 L97.8874,10.6266 L98.1795,10.7880 L98.4787,10.9477 L98.7851,11.1057 L99.0989,11.2619 L99.4200,11.4162 L99.7485,11.5686 L100.0847,11.7188 L100.4284,11.8670 L100.7799,12.0129 L101.1392,12.1564 L101.5064,12.2976 L101.8816,12.4362 L102.2648,12.5723 L102.6562,12.7058 L103.0559,12.8364 L103.4639,12.9643 L103.8802,13.0892 L104.3051,13.2111 L104.7386,13.3299 L105.1807,13.4455 L105.6316,13.5579 L106.0913,13.6669 L106.5600,13.7724 L107.0376,13.8745 L107.5244,13.9729 L108.0203,14.0676 L108.5255,14.1586 L109.0401,14.2457 L109.5641,14.3288 L110.0977,14.4079 L110.6408,14.4828 L111.1937,14.5536 L111.7563,14.6200 L112.3288,14.6821 L112.9113,14.7397 L113.5038,14.7927 L114.1064,14.8411 L114.7192,14.8848 L115.3424,14.9236 L115.9759,14.9575 L116.6199,14.9865 L117.2745,15.0104 L117.9397,15.0291 L118.6156,15.0426 L119.3024,15.0508 L120.0000,15.0535 L120.0000,15.0535 L120.5354,15.0645 L121.0767,15.0757 L121.6237,15.0869 L122.1763,15.0982 L122.7342,15.1097 L123.2974,15.1213 L123.8657,15.1331 L124.4388,15.1450 L125.0168,15.1572 L125.5993,15.1695 L126.1863,15.1821 L126.7775,15.1949 L127.3729,15.2079 L127.9722,15.2212 L128.5753,15.2348 L129.1821,15.2488 L129.7924,15.2630 L130.4060,15.2775 L131.0227,15.2925 L131.6424,15.3077 L132.2650,15.3234 L132.8903,15.3394 L133.5181,15.3559 L134.1483,15.3728 L134.7807,15.3901 L135.4151,15.4079 L136.0515,15.4262 L136.6895,15.4449 L137.3292,15.4642 L137.9702,15.4840 L138.6125,15.5043 L139.2559,15.5252 L139.9003,15.5466 L140.5454,15.5686 L141.1911,15.5913 L141.8373,15.6145 L142.4838,15.6384 L143.1304,15.6629 L143.7770,15.6881 L144.4234,15.7140 L145.0695,15.7405 L145.7151,15.7678 L146.3600,15.7958 L147.0041,15.8245 L147.6473,15.8541 L148.2893,15.8843 L148.9300,15.9154 L149.5692,15.9473 L150.2069,15.9800 L150.8428,16.0135 L151.4767,16.0479 L152.1086,16.0831 L152.7382,16.1193 L153.3654,16.1563 L153.9900,16.1942 L154.6119,16.2331 L155.2309,16.2730 L155.8469,16.3138 L156.4597,16.3555 L157.0691,16.3983 L157.6750,16.4421 L158.2772,16.4869 L158.8755,16.5327 L159.4699,16.5796 L160.0601,16.6276 L160.6460,16.6767 L161.2274,16.7269 L161.8041,16.7782 L162.3761,16.8306 L162.9431,16.8842 L163.5050,16.9389 L164.0616,16.9949 L164.6128,17.0520 L165.1584,17.1103 L165.6983,17.1699 L166.2322,17.2307 L166.7601,17.2928 L167.2817,17.3562 L167.7970,17.4209 L168.3057,17.4868 L168.8076,17.5541 L169.3028,17.6228 L169.7909,17.6928 L170.2718,17.7642 L170.7454,17.8369 L171.2114,17.9111 L171.6698,17.9867 L172.1204,18.0637 L172.5630,18.1422 L172.9975,18.2221 L173.4236,18.3035 L173.8413,18.3864 L174.2504,18.4709 L174.6507,18.5569 L175.0421,18.6444 L175.4244,18.7334 L175.7974,18.8241 L176.1610,18.9164 L176.5151,19.0102 L176.8594,19.1057 L177.1938,19.2028 L177.5181,19.3016 L177.8323,19.4021 L178.1361,19.5042 L178.4293,19.6080 L178.7119,19.7136 L178.9836,19.8209 L179.2443,19.9300 L179.4938,20.0408 L179.7321,20.1534 L179.9588,20.2678 L180.1739,20.3840 L180.3772,20.5021 L180.5685,20.6219 L180.7477,20.7437 L180.9147,20.8673 L181.0691,20.9929 L181.2110,21.1203 L181.3402,21.2497 L181.4564,21.3810 L181.5595,21.5142 L181.6494,21.6494 L181.7259,21.7867 L181.7889,21.9259 L181.8381,22.0671 L181.8735,22.2104 L181.8949,22.3557 L181.9020,22.5031 L181.9020,22.5031 L181.8990,22.6748 L181.8900,22.8435 L181.8751,23.0094 L181.8543,23.1724 L181.8276,23.3326 L181.7951,23.4900 L181.7567,23.6446 L181.7126,23.7965 L181.6627,23.9456 L181.6071,24.0920 L181.5458,24.2358 L181.4789,24.3770 L181.4064,24.5155 L181.3282,24.6514 L181.2445,24.7848 L181.1553,24.9156 L181.0606,25.0439 L180.9604,25.1698 L180.8548,25.2932 L180.7438,25.4141 L180.6275,25.5327 L180.5058,25.6488 L180.3788,25.7627 L180.2466,25.8742 L180.1091,25.9834 L179.9664,26.0903 L179.8185,26.1950 L179.6655,26.2974 L179.5074,26.3977 L179.3442,26.4958 L179.1760,26.5918 L179.0027,26.6856 L178.8245,26.7774 L178.6413,26.8671 L178.4533,26.9548 L178.2603,27.0405 L178.0625,27.1241 L177.8598,27.2059 L177.6524,27.2857 L177.4403,27.3636 L177.2234,27.4396 L177.0018,27.5138 L176.7755,27.5862 L176.5446,27.6568 L176.3092,27.7256 L176.0691,27.7926 L175.8246,27.8580 L175.5755,27.9217 L175.3220,27.9836 L175.0640,28.0440 L174.8017,28.1028 L174.5349,28.1599 L174.2638,28.2155 L173.9885,28.2696 L173.7088,28.3222 L173.4249,28.3733 L173.1368,28.4230 L172.8445,28.4712 L172.5481,28.5180 L172.2476,28.5635 L171.9429,28.6076 L171.6342,28.6504 L171.3216,28.6919 L171.0049,28.7322 L170.6842,28.7712 L170.3597,28.8090 L170.0312,28.8456 L169.6989,28.8811 L169.3628,28.9154 L169.0229,28.9486 L168.6792,28.9807 L168.3318,29.0118 L167.9807,29.0419 L167.6259,29.0709 L167.2675,29.0990 L166.9055,29.1261 L166.5399,29.1524 L166.1708,29.1777 L165.7982,29.2021 L165.4221,29.2258 L165.0425,29.2486 L164.6596,29.2706 L164.2733,29.2918 L163.8836,29.3123 L163.4906,29.3321 L163.0944,29.3513 L162.6948,29.3697 L162.2921,29.3876 L161.8862,29.4048 L161.4771,29.4215 L161.0649,29.4376 L160.6497,29.4532 L160.2313,29.4683 L159.8100,29.4829 L159.3856,29.4971 L158.9583,29.5109 L158.5281,29.5242 L158.0950,29.5372 L157.6590,29.5499 L157.2201,29.5623 L156.7785,29.5743 L156.3341,29.5862 L155.8870,29.5978 L155.4371,29.6091 L154.9846,29.6203 L154.5295,29.6314 L154.0717,29.6423 L153.6114,29.6531 L153.1485,29.6639 L152.6831,29.6746 L152.2152,29.6853 L151.7449,29.6960 L151.2722,29.7067 L150.7970,29.7175 L150.3196,29.7284 L149.8398,29.7394 L149.3577,29.7505 L148.8734,29.7618 L148.3868,29.7733 L147.8981,29.7850 L147.4071,29.7969 L146.9141,29.8092 L146.4190,29.8217 L145.9218,29.8345 L145.4225,29.8477 L144.9213,29.8613 L144.4181,29.8753 L143.9130,29.8897 L143.9130,29.8897 L143.3151,29.8897 L142.7161,29.8898 L142.1163,29.8899 L141.5157,29.8902 L140.9143,29.8906 L140.3124,29.8912 L139.7099,29.8922 L139.1069,29.8934 L138.5036,29.8949 L137.9000,29.8968 L137.2963,29.8992 L136.6924,29.9020 L136.0886,29.9054 L135.4849,29.9093 L134.8813,29.9138 L134.2780,29.9190 L133.6751,29.9248 L133.0726,29.9314 L132.4707,29.9387 L131.8694,29.9469 L131.2688,29.9559 L130.6690,29.9658 L130.0701,29.9767 L129.4722,29.9885 L128.8754,30.0014 L128.2798,30.0153 L127.6854,30.0304 L127.0924,30.0466 L126.5008,30.0640 L125.9107,30.0827 L125.3222,30.1026 L124.7355,30.1239 L124.1506,30.1466 L123.5675,30.1706 L122.9864,30.1962 L122.4074,30.2232 L121.8305,30.2517 L121.2559,30.2819 L120.6836,30.3137 L120.1138,30.3472 L119.5464,30.3823 L118.9817,30.4193 L118.4196,30.4580 L117.8604,30.4986 L117.3040,30.5410 L116.7505,30.5854 L116.2002,30.6318 L115.6529,30.6802 L115.1089,30.7306 L114.5682,30.7832 L114.0310,30.8379 L113.4972,30.8947 L112.9670,30.9538 L112.4405,31.0152 L111.9178,31.0789 L111.3990,31.1450 L110.8840,31.2134 L110.3732,31.2843 L109.8664,31.3577 L109.3639,31.4336 L108.8657,31.5121 L108.3718,31.5932 L107.8825,31.6770 L107.3978,31.7635 L106.9177,31.8527 L106.4423,31.9447 L105.9718,32.0395 L105.5063,32.1372 L105.0458,32.2378 L104.5904,32.3414 L104.1402,32.4480 L103.6953,32.5576 L103.2557,32.6703 L102.8217,32.7862 L102.3932,32.9052 L101.9704,33.0274 L101.5533,33.1529 L101.1421,33.2817 L100.7367,33.4139 L100.3374,33.5494 L99.9442,33.6884 L99.5572,33.8308 L99.1764,33.9768 L98.8021,34.1263 L98.4342,34.2794 L98.0728,34.4362 L97.7181,34.5966 L97.3701,34.7608 L97.0290,34.9288 L96.6947,35.1005 L96.3675,35.2762 L96.0473,35.4557 L95.7343,35.6392 L95.4286,35.8267 L95.1303,36.0182 L94.8394,36.2137 L94.5560,36.4134 L94.2803,36.6173 L94.0122,36.8253 L93.7520,37.0376 L93.4997,37.2542 L93.2554,37.4752 L93.0191,37.7005 L92.7910,37.9302 L92.5712,38.1643 L92.3597,38.4030 L92.1567,38.6462 L91.9621,38.8941 L91.7762,39.1465 L91.5990,39.4036 L91.4306,39.6655 L91.2711,39.9321 L91.1205,40.2035 L90.9790,40.4797 L90.8467,40.7609 L90.7236,41.0469 L90.6098,41.3380 L90.5055,41.6340 L90.4107,41.9352 L90.3254,42.2414 L90.2499,42.5528 L90.1841,42.8693 L90.1282,43.1911 L90.0823,43.5182 L90.0464,43.8506 L90.0207,44.1883 L90.0052,44.5315 L90.0000,44.8801 L90.0048,45.2287 L90.0190,45.5719 L90.0427,45.9096 L90.0757,46.2420 L90.1180,46.5691 L90.1695,46.8909 L90.2301,47.2074 L90.2997,47.5188 L90.3783,47.8250 L90.4657,48.1262 L90.5620,48.4222 L90.6670,48.7133 L90.7806,48.9993 L90.9028,49.2805 L91.0335,49.5567 L91.1726,49.8281 L91.3201,50.0947 L91.4759,50.3566 L91.6398,50.6137 L91.8118,50.8661 L91.9919,51.1140 L92.1800,51.3572 L92.3759,51.5959 L92.5796,51.8300 L92.7911,52.0598 L93.0102,52.2851 L93.2369,52.5060 L93.4711,52.7226 L93.7127,52.9349 L93.9617,53.1429 L94.2179,53.3468 L94.4814,53.5465 L94.7520,53.7421 L95.0296,53.9336 L95.3141,54.1210 L95.6056,54.3045 L95.9038,54.4841 L96.2088,54.6597 L96.5205,54.8315 L96.8388,54.9994 L97.1635,55.1636 L97.4947,55.3241 L97.8322,55.4808 L98.1760,55.6339 L98.5260,55.7835 L98.8822,55.9294 L99.2443,56.0718 L99.6125,56.2108 L99.9865,56.3463 L100.3664,56.4785 L100.7520,56.6073 L101.1432,56.7328 L101.5401,56.8550 L101.9424,56.9740 L102.3502,57.0899 L102.7633,57.2026 L103.1818,57.3122 L103.6054,57.4188 L104.0341,57.5224 L104.4679,57.6230 L104.9067,57.7207 L105.3504,57.8156 L105.7989,57.9076 L106.2521,57.9968 L106.7100,58.0833 L107.1725,58.1670 L107.6395,58.2481 L108.1110,58.3266 L108.5868,58.4025 L109.0669,58.4759 L109.5512,58.5468 L110.0396,58.6153 L110.5321,58.6813 L111.0286,58.7450 L111.5289,58.8064 L112.0331,58.8655 L112.5410,58.9224 L113.0527,58.9771 L113.5679,59.0296 L114.0866,59.0801 L114.6087,59.1285 L115.1343,59.1748 L115.6631,59.2192 L116.1951,59.2617 L116.7303,59.3023 L117.2685,59.3410 L117.8097,59.3780 L118.3538,59.4131 L118.9007,59.4466 L119.4504,59.4784 L120.0028,59.5085 L120.5577,59.5371 L121.1152,59.5641 L121.6752,59.5897 L122.2375,59.6137 L122.8020,59.6364 L123.3689,59.6577 L123.9378,59.6776 L124.5088,59.6963 L125.0818,59.7137 L125.6567,59.7299 L126.2334,59.7450 L126.8119,59.7589 L127.3921,59.7718 L127.9739,59.7836 L128.5572,59.7945 L129.1419,59.8044 L129.7281,59.8134 L130.3155,59.8216 L130.9041,59.8289 L131.4939,59.8355 L132.0848,59.8413 L132.6766,59.8465 L133.2694,59.8510 L133.8630,59.8549 L134.4573,59.8582 L135.0524,59.8611 L135.6480,59.8635 L136.2442,59.8654 L136.8408,59.8669 L137.4378,59.8681 L138.0351,59.8691 L138.6327,59.8697 L139.2303,59.8701 L139.8281,59.8704 L140.4258,59.8705 L141.0235,59.8706 L141.6210,59.8706 L141.6210,59.8706 L142.1525,59.8923 L142.6820,59.9133 L143.2096,59.9336 L143.7352,59.9534 L144.2588,59.9727 L144.7803,59.9915 L145.2997,60.0098 L145.8170,60.0278 L146.3321,60.0455 L146.8450,60.0629 L147.3557,60.0801 L147.8641,60.0971 L148.3701,60.1140 L148.8738,60.1309 L149.3752,60.1477 L149.8741,60.1646 L150.3705,60.1816 L150.8645,60.1987 L151.3560,60.2161 L151.8448,60.2336 L152.3311,60.2515 L152.8148,60.2697 L153.2957,60.2884 L153.7740,60.3075 L154.2496,60.3271 L154.7223,60.3472 L155.1923,60.3680 L155.6594,60.3894 L156.1236,60.4115 L156.5849,60.4344 L157.0433,60.4582 L157.4986,60.4827 L157.9510,60.5083 L158.4003,60.5347 L158.8465,60.5622 L159.2895,60.5908 L159.7294,60.6205 L160.1661,60.6514 L160.5996,60.6835 L161.0298,60.7169 L161.4566,60.7517 L161.8802,60.7878 L162.3003,60.8253 L162.7171,60.8644 L163.1304,60.9050 L163.5402,60.9471 L163.9465,60.9909 L164.3492,61.0365 L164.7484,61.0837 L165.1439,61.1328 L165.5357,61.1837 L165.9239,61.2365 L166.3083,61.2912 L166.6890,61.3480 L167.0658,61.4068 L167.4388,61.4678 L167.8079,61.5308 L168.1732,61.5961 L168.5344,61.6637 L168.8917,61.7336 L169.2450,61.8058 L169.5942,61.8805 L169.9394,61.9576 L170.2804,62.0373 L170.6172,62.1195 L170.9499,62.2043 L171.2783,62.2919 L171.6025,62.3821 L171.9223,62.4751 L172.2378,62.5710 L172.5490,62.6697 L172.8557,62.7714 L173.1580,62.8761 L173.4558,62.9838 L173.7491,63.0946 L174.0379,63.2085 L174.3220,63.3256 L174.6016,63.4460 L174.8765,63.5697 L175.1467,63.6967 L175.4121,63.8271 L175.6728,63.9610 L175.9287,64.0983 L176.1798,64.2392 L176.4260,64.3838 L176.6673,64.5319 L176.9037,64.6838 L177.1351,64.8395 L177.3614,64.9989 L177.5827,65.1623 L177.7990,65.3295 L178.0101,65.5007 L178.2161,65.6759 L178.4168,65.8552 L178.6124,66.0387 L178.8027,66.2262 L178.9877,66.4181 L179.1673,66.6142 L179.3416,66.8146 L179.5105,67.0194 L179.6740,67.2286 L179.8320,67.4423 L179.9844,67.6606 L180.1314,67.8834 L180.2727,68.1109 L180.4084,68.3431 L180.5385,68.5800 L180.6629,68.8217 L180.7816,69.0682 L180.8945,69.3197 L181.0016,69.5761 L181.1029,69.8374 L181.1984,70.1039 L181.2879,70.3754 L181.3715,70.6521 L181.4491,70.9340 L181.5207,71.2212 L181.5863,71.5137 L181.6458,71.8115 L181.6992,72.1148 L181.7464,72.4235 L181.7875,72.7377 L181.8223,73.0575 L181.8509,73.3829 L181.8732,73.7140 L181.8892,74.0508 L181.8988,74.3934 L181.9020,74.7418 L181.9020,74.7418 L181.8983,75.0904 L181.8871,75.4335 L181.8685,75.7712 L181.8426,76.1035 L181.8094,76.4304 L181.7689,76.7521 L181.7212,77.0685 L181.6663,77.3797 L181.6043,77.6857 L181.5352,77.9866 L181.4591,78.2824 L181.3760,78.5732 L181.2860,78.8589 L181.1890,79.1397 L181.0852,79.4157 L180.9745,79.6867 L180.8571,79.9529 L180.7330,80.2144 L180.6021,80.4711 L180.4647,80.7231 L180.3206,80.9705 L180.1700,81.2133 L180.0129,81.4515 L179.8494,81.6852 L179.6794,81.9144 L179.5030,82.1392 L179.3204,82.3596 L179.1314,82.5757 L178.9362,82.7874 L178.7348,82.9949 L178.5273,83.1982 L178.3137,83.3974 L178.0940,83.5924 L177.8683,83.7833 L177.6366,83.9702 L177.3990,84.1531 L177.1555,84.3321 L176.9062,84.5071 L176.6511,84.6783 L176.3903,84.8456 L176.1237,85.0092 L175.8515,85.1691 L175.5737,85.3252 L175.2903,85.4777 L175.0014,85.6267 L174.7070,85.7720 L174.4072,85.9139 L174.1020,86.0522 L173.7914,86.1872 L173.4755,86.3187 L173.1544,86.4469 L172.8281,86.5719 L172.4966,86.6935 L172.1599,86.8120 L171.8182,86.9273 L171.4715,87.0395 L171.1198,87.1485 L170.7631,87.2546 L170.4015,87.3577 L170.0351,87.4578 L169.6639,87.5550 L169.2879,87.6493 L168.9072,87.7409 L168.5218,87.8296 L168.1317,87.9156 L167.7371,87.9990 L167.3379,88.0797 L166.9343,88.1578 L166.5261,88.2333 L166.1136,88.3063 L165.6967,88.3769 L165.2755,88.4450 L164.8500,88.5108 L164.4203,88.5742 L163.9863,88.6353 L163.5483,88.6941 L163.1061,88.7508 L162.6599,88.8053 L162.2097,88.8576 L161.7555,88.9079 L161.2974,88.9562 L160.8354,89.0025 L160.3696,89.0468 L159.9000,89.0892 L159.4267,89.1297 L158.9496,89.1685 L158.4689,89.2054 L157.9846,89.2407 L157.4968,89.2742 L157.0054,89.3061 L156.5105,89.3365 L156.0123,89.3652 L155.5106,89.3925 L155.0056,89.4182 L154.4973,89.4426 L153.9857,89.4656 L153.4709,89.4872 L152.9530,89.5075 L152.4319,89.5266 L151.9078,89.5445 L151.3806,89.5612 L150.8505,89.5768 L150.3174,89.5914 L149.7814,89.6049 L149.2426,89.6174 L148.7010,89.6289 L148.1566,89.6396 L147.6095,89.6494 L147.0597,89.6584 L146.5072,89.6666 L145.9522,89.6741 L145.3947,89.6809 L144.8347,89.6871 L144.2722,89.6926 L143.7073,89.6976 L143.1400,89.7021 L142.5705,89.7062 L141.9986,89.7098 L141.4245,89.7130 L140.8483,89.7159 L140.2699,89.7185 L139.6894,89.7209 L139.1069,89.7231 L138.5223,89.7251 L137.9358,89.7269 L137.3474,89.7287 L136.7571,89.7305 L136.1650,89.7323 L136.1650,89.7323 L135.5685,89.7331 L134.9737,89.7357 L134.3809,89.7400 L133.7899,89.7461 L133.2009,89.7539 L132.6138,89.7636 L132.0288,89.7751 L131.4459,89.7884 L130.8651,89.8036 L130.2865,89.8207 L129.7101,89.8398 L129.1360,89.8608 L128.5641,89.8837 L127.9946,89.9087 L127.4276,89.9357 L126.8629,89.9647 L126.3008,89.9958 L125.7412,90.0290 L125.1841,90.0642 L124.6297,90.1017 L124.0780,90.1413 L123.5290,90.1830 L122.9827,90.2270 L122.4393,90.2732 L121.8987,90.3217 L121.3609,90.3724 L120.8262,90.4255 L120.2944,90.4808 L119.7657,90.5385 L119.2400,90.5986 L118.7175,90.6611 L118.1981,90.7260 L117.6820,90.7933 L117.1691,90.8631 L116.6595,90.9354 L116.1533,91.0102 L115.6504,91.0876 L115.1511,91.1675 L114.6551,91.2499 L114.1628,91.3350 L113.6740,91.4227 L113.1888,91.5131 L112.7073,91.6062 L112.2295,91.7019 L111.7555,91.8004 L111.2853,91.9016 L110.8189,92.0056 L110.3564,92.1124 L109.8979,92.2220 L109.4434,92.3344 L108.9929,92.4497 L108.5464,92.5679 L108.1041,92.6890 L107.6660,92.8131 L107.2320,92.9400 L106.8024,93.0700 L106.3770,93.2030 L105.9560,93.3390 L105.5393,93.4781 L105.1272,93.6202 L104.7195,93.7655 L104.3163,93.9138 L103.9177,94.0653 L103.5238,94.2200 L103.1345,94.3779 L102.7499,94.5390 L102.3700,94.7033 L101.9950,94.8709 L101.6248,95.0418 L101.2596,95.2160 L100.8992,95.3935 L100.5439,95.5744 L100.1935,95.7586 L99.8483,95.9463 L99.5081,96.1374 L99.1732,96.3320 L98.8434,96.5300 L98.5189,96.7315 L98.1997,96.9365 L97.8859,97.1451 L97.5774,97.3573 L97.2744,97.5730 L96.9769,97.7924 L96.6849,98.0154 L96.3985,98.2421 L96.1177,98.4724 L95.8425,98.7065 L95.5731,98.9443 L95.3095,99.1858 L95.0516,99.4312 L94.7996,99.6803 L94.5534,99.9333 L94.3132,100.1901 L94.0790,100.4508 L93.8509,100.7154 L93.6288,100.9839 L93.4128,101.2563 L93.2029,101.5327 L92.9993,101.8132 L92.8020,102.0976 L92.6109,102.3861 L92.4262,102.6786 L92.2479,102.9752 L92.0760,103.2759 L91.9106,103.5808 L91.7518,103.8898 L91.5995,104.2030 L91.4538,104.5204 L91.3148,104.8420 L91.1825,105.1679 L91.0569,105.4980 L90.9382,105.8324 L90.8263,106.1712 L90.7212,106.5143 L90.6232,106.8618 L90.5321,107.2136 L90.4480,107.5699 L90.3710,107.9306 L90.3011,108.2958 L90.2384,108.6655 L90.1829,109.0396 L90.1347,109.4183 L90.0937,109.8016 L90.0601,110.1894 L90.0339,110.5818 L90.0151,110.9789 L90.0038,111.3806 L90.0000,111.7870 L90.0000,111.7870 L90.0037,112.1933 L90.0149,112.5950 L90.0335,112.9919 L90.0594,113.3842 L90.0927,113.7718 L90.1332,114.1549 L90.1809,114.5333 L90.2358,114.9072 L90.2978,115.2766 L90.3669,115.6414 L90.4430,116.0017 L90.5262,116.3576 L90.6163,116.7091 L90.7133,117.0561 L90.8171,117.3987 L90.9278,117.7370 L91.0453,118.0709 L91.1694,118.4005 L91.3003,118.7258 L91.4378,119.0468 L91.5819,119.3636 L91.7326,119.6761 L91.8897,119.9845 L92.0533,120.2887 L92.2233,120.5887 L92.3997,120.8847 L92.5825,121.1765 L92.7715,121.4642 L92.9667,121.7479 L93.1682,122.0276 L93.3757,122.3032 L93.5894,122.5749 L93.8092,122.8427 L94.0349,123.1065 L94.2667,123.3664 L94.5043,123.6224 L94.7479,123.8746 L94.9973,124.1229 L95.2524,124.3674 L95.5133,124.6082 L95.7799,124.8452 L96.0522,125.0784 L96.3301,125.3080 L96.6136,125.5338 L96.9025,125.7560 L97.1970,125.9746 L97.4969,126.1895 L97.8022,126.4009 L98.1128,126.6087 L98.4287,126.8130 L98.7499,127.0137 L99.0763,127.2110 L99.4078,127.4048 L99.7445,127.5951 L100.0863,127.7820 L100.4331,127.9656 L100.7849,128.1458 L101.1416,128.3226 L101.5032,128.4961 L101.8697,128.6663 L102.2410,128.8333 L102.6170,128.9970 L102.9978,129.1575 L103.3832,129.3148 L103.7733,129.4689 L104.1680,129.6198 L104.5672,129.7677 L104.9709,129.9124 L105.3791,130.0541 L105.7917,130.1927 L106.2086,130.3283 L106.6298,130.4609 L107.0554,130.5905 L107.4851,130.7171 L107.9191,130.8409 L108.3571,130.9617 L108.7993,131.0796 L109.2456,131.1947 L109.6958,131.3070 L110.1500,131.4165 L110.6081,131.5231 L111.0701,131.6270 L111.5359,131.7282 L112.0055,131.8267 L112.4789,131.9225 L112.9559,132.0156 L113.4366,132.1061 L113.9209,132.1940 L114.4088,132.2793 L114.9001,132.3620 L115.3950,132.4422 L115.8932,132.5199 L116.3949,132.5951 L116.8999,132.6678 L117.4082,132.7381 L117.9197,132.8059 L118.4344,132.8714 L118.9523,132.9345 L119.4733,132.9953 L119.9974,133.0537 L120.5245,133.1099 L121.0546,133.1638 L121.5876,133.2154 L122.1235,133.2648 L122.6623,133.3120 L123.2039,133.3571 L123.7482,133.4000 L124.2952,133.4408 L124.8449,133.4795 L125.3972,133.5161 L125.9522,133.5506 L126.5096,133.5831 L127.0695,133.6137 L127.6319,133.6422 L128.1967,133.6688 L128.7638,133.6935 L129.3333,133.7162 L129.9050,133.7371 L130.4789,133.7562 L131.0550,133.7734 L131.6333,133.7888 L132.2136,133.8024 L132.7960,133.8142 L133.3804,133.8244 L133.9667,133.8328 L134.5550,133.8395 L135.1451,133.8446 L135.7370,133.8480 L135.7370,133.8480 L135.7403,133.8480 L135.7437,133.8480 L135.7470,133.8480 L135.7504,133.8480 L135.7537,133.8480 L135.7571,133.8480 L135.7604,133.8480 L135.7637,133.8480 L135.7671,133.8480 L135.7704,133.8480 L135.7738,133.8480 L135.7771,133.8480 L135.7805,133.8480 L135.7838,133.8480 L135.7872,133.8480 L135.7905,133.8480 L135.7938,133.8480 L135.7972,133.8480 L135.8005,133.8480 L135.8039,133.8480 L135.8072,133.8480 L135.8106,133.8480 L135.8139,133.8480 L135.8173,133.8480 L135.8206,133.8480 L135.8239,133.8480 L135.8273,133.8480 L135.8306,133.8480 L135.8340,133.8480 L135.8373,133.8480 L135.8407,133.8480 L135.8440,133.8480 L135.8473,133.8480 L135.8507,133.8480 L135.8540,133.8480 L135.8574,133.8480 L135.8607,133.8480 L135.8641,133.8480 L135.8674,133.8480 L135.8707,133.8480 L135.8741,133.8480 L135.8774,133.8480 L135.8808,133.8480 L135.8841,133.8480 L135.8875,133.8480 L135.8908,133.8480 L135.8942,133.8480 L135.8975,133.8480 L135.9008,133.8480 L135.9042,133.8480 L135.9075,133.8480 L135.9109,133.8480 L135.9142,133.8480 L135.9176,133.8480 L135.9209,133.8480 L135.9243,133.8480 L135.9276,133.8480 L135.9309,133.8480 L135.9343,133.8480 L135.9376,133.8480 L135.9410,133.8480 L135.9443,133.8480 L135.9477,133.8480 L135.9510,133.8480 L135.9543,133.8480 L135.9577,133.8480 L135.9610,133.8480 L135.9644,133.8480 L135.9677,133.8480 L135.9711,133.8480 L135.9744,133.8480 L135.9777,133.8480 L135.9811,133.8480 L135.9844,133.8480 L135.9878,133.8480 L135.9911,133.8480 L135.9945,133.8480 L135.9978,133.8480 L136.0012,133.8480 L136.0045,133.8480 L136.0078,133.8480 L136.0112,133.8480 L136.0145,133.8480 L136.0179,133.8480 L136.0212,133.8480 L136.0246,133.8480 L136.0279,133.8480 L136.0312,133.8480 L136.0346,133.8480 L136.0379,133.8480 L136.0413,133.8480 L136.0446,133.8480 L136.0480,133.8480 L136.0513,133.8480 L136.0547,133.8480 L136.0580,133.8480 L136.0613,133.8480 L136.0647,133.8480 L136.0680,133.8480 L136.0714,133.8480 L136.0747,133.8480 L136.0781,133.8480 L136.0814,133.8480 L136.0847,133.8480 L136.0881,133.8480 L136.0914,133.8480 L136.0948,133.8480 L136.0981,133.8480 L136.1015,133.8480 L136.1048,133.8480 L136.1082,133.8480 L136.1115,133.8480 L136.1148,133.8480 L136.1182,133.8480 L136.1215,133.8480 L136.1249,133.8480 L136.1282,133.8480 L136.1316,133.8480 L136.1349,133.8480 L136.1382,133.8480 L136.1416,133.8480 L136.1449,133.8480 L136.1483,133.8480 L136.1516,133.8480 L136.1550,133.8480 L136.1583,133.8480 L136.1617,133.8480 L136.1650,133.8480 L136.7571,133.8524 L137.3474,133.8603 L137.9358,133.8718 L138.5223,133.8868 L139.1069,133.9052 L139.6894,133.9271 L140.2699,133.9524 L140.8483,133.9811 L141.4245,134.0132 L141.9986,134.0487 L142.5705,134.0876 L143.1400,134.1297 L143.7073,134.1752 L144.2722,134.2239 L144.8347,134.2760 L145.3947,134.3312 L145.9522,134.3897 L146.5072,134.4514 L147.0597,134.5162 L147.6095,134.5842 L148.1566,134.6553 L148.7010,134.7296 L149.2426,134.8069 L149.7814,134.8874 L150.3174,134.9708 L150.8505,135.0573 L151.3806,135.1468 L151.9078,135.2393 L152.4319,135.3347 L152.9530,135.4331 L153.4709,135.5344 L153.9857,135.6386 L154.4973,135.7457 L155.0056,135.8557 L155.5106,135.9685 L156.0123,136.0840 L156.5105,136.2024 L157.0054,136.3236 L157.4968,136.4475 L157.9846,136.5741 L158.4689,136.7035 L158.9496,136.8355 L159.4267,136.9702 L159.9000,137.1076 L160.3696,137.2475 L160.8354,137.3901 L161.2974,137.5353 L161.7555,137.6830 L162.2097,137.8332 L162.6599,137.9860 L163.1061,138.1412 L163.5483,138.2990 L163.9863,138.4591 L164.4203,138.6217 L164.8500,138.7868 L165.2755,138.9542 L165.6967,139.1240 L166.1136,139.2961 L166.5261,139.4705 L166.9343,139.6473 L167.3379,139.8263 L167.7371,140.0076 L168.1317,140.1911 L168.5217,140.3769 L168.9072,140.5648 L169.2879,140.7549 L169.6639,140.9472 L170.0351,141.1416 L170.4015,141.3381 L170.7631,141.5367 L171.1198,141.7374 L171.4715,141.9401 L171.8182,142.1449 L172.1599,142.3516 L172.4966,142.5604 L172.8281,142.7711 L173.1544,142.9837 L173.4755,143.1983 L173.7914,143.4147 L174.1020,143.6330 L174.4072,143.8532 L174.7070,144.0753 L175.0014,144.2991 L175.2903,144.5247 L175.5737,144.7521 L175.8515,144.9813 L176.1237,145.2121 L176.3903,145.4447 L176.6511,145.6790 L176.9062,145.9149 L177.1555,146.1525 L177.3990,146.3916 L177.6366,146.6324 L177.8683,146.8748 L178.0940,147.1187 L178.3137,147.3642 L178.5273,147.6111 L178.7348,147.8596 L178.9362,148.1095 L179.1314,148.3609 L179.3204,148.6137 L179.5030,148.8680 L179.6794,149.1236 L179.8494,149.3806 L180.0129,149.6389 L180.1700,149.8985 L180.3206,150.1595 L180.4647,150.4217 L180.6021,150.6852 L180.7330,150.9499 L180.8571,151.2158 L180.9745,151.4829 L181.0852,151.7512 L181.1890,152.0207 L181.2860,152.2913 L181.3760,152.5630 L181.4591,152.8357 L181.5352,153.1096 L181.6043,153.3845 L181.6663,153.6604 L181.7212,153.9373 L181.7689,154.2152 L181.8094,154.4941 L181.8426,154.7739 L181.8685,155.0546 L181.8871,155.3362 L181.8983,155.6187 L181.9020,155.9020 L181.9020,155.9020 L181.8983,156.1854 L181.8871,156.4679 L181.8685,156.7495 L181.8426,157.0302 L181.8094,157.3101 L181.7689,157.5889 L181.7212,157.8668 L181.6663,158.1438 L181.6043,158.4197 L181.5352,158.6946 L181.4591,158.9685 L181.3760,159.2413 L181.2860,159.5130 L181.1890,159.7836 L181.0852,160.0530 L180.9745,160.3214 L180.8571,160.5885 L180.7330,160.8544 L180.6021,161.1192 L180.4647,161.3827 L180.3206,161.6449 L180.1700,161.9058 L180.0129,162.1655 L179.8494,162.4238 L179.6794,162.6808 L179.5030,162.9364 L179.3204,163.1907 L179.1314,163.4435 L178.9362,163.6949 L178.7348,163.9448 L178.5273,164.1933 L178.3137,164.4403 L178.0940,164.6857 L177.8683,164.9297 L177.6366,165.1720 L177.3990,165.4128 L177.1555,165.6520 L176.9062,165.8896 L176.6511,166.1255 L176.3903,166.3598 L176.1237,166.5924 L175.8515,166.8232 L175.5737,167.0524 L175.2903,167.2798 L175.0014,167.5054 L174.7070,167.7292 L174.4072,167.9513 L174.1020,168.1714 L173.7914,168.3898 L173.4755,168.6062 L173.1544,168.8208 L172.8281,169.0334 L172.4966,169.2441 L172.1599,169.4529 L171.8182,169.6596 L171.4715,169.8644 L171.1198,170.0671 L170.7631,170.2678 L170.4015,170.4664 L170.0351,170.6629 L169.6639,170.8573 L169.2879,171.0496 L168.9072,171.2397 L168.5218,171.4276 L168.1317,171.6134 L167.7371,171.7969 L167.3379,171.9782 L166.9343,172.1572 L166.5261,172.3340 L166.1136,172.5084 L165.6967,172.6805 L165.2755,172.8503 L164.8500,173.0177 L164.4203,173.1828 L163.9863,173.3454 L163.5483,173.5055 L163.1061,173.6633 L162.6599,173.8185 L162.2097,173.9713 L161.7555,174.1215 L161.2974,174.2692 L160.8354,174.4144 L160.3696,174.5570 L159.9000,174.6969 L159.4267,174.8343 L158.9496,174.9690 L158.4689,175.1010 L157.9846,175.2304 L157.4968,175.3570 L157.0054,175.4809 L156.5105,175.6021 L156.0123,175.7205 L155.5106,175.8361 L155.0056,175.9489 L154.4973,176.0588 L153.9857,176.1659 L153.4709,176.2701 L152.9530,176.3715 L152.4319,176.4698 L151.9078,176.5653 L151.3806,176.6578 L150.8505,176.7473 L150.3174,176.8338 L149.7814,176.9173 L149.2426,176.9977 L148.7010,177.0750 L148.1566,177.1493 L147.6095,177.2205 L147.0597,177.2885 L146.5072,177.3533 L145.9522,177.4150 L145.3947,177.4735 L144.8347,177.5288 L144.2722,177.5808 L143.7073,177.6296 L143.1400,177.6750 L142.5705,177.7172 L141.9986,177.7561 L141.4245,177.7916 L140.8483,177.8237 L140.2699,177.8525 L139.6894,177.8778 L139.1069,177.8997 L138.5223,177.9182 L137.9358,177.9331 L137.3474,177.9446 L136.7571,177.9526 L136.1650,177.9570 L136.1650,177.9570 L136.1617,177.9570 L136.1583,177.9570 L136.1550,177.9570 L136.1516,177.9570 L136.1483,177.9570 L136.1449,177.9570 L136.1416,177.9570 L136.1382,177.9570 L136.1349,177.9570 L136.1316,177.9570 L136.1282,177.9570 L136.1249,177.9570 L136.1215,177.9570 L136.1182,177.9570 L136.1148,177.9570 L136.1115,177.9570 L136.1082,177.9570 L136.1048,177.9570 L136.1015,177.9570 L136.0981,177.9570 L136.0948,177.9570 L136.0914,177.9570 L136.0881,177.9570 L136.0847,177.9570 L136.0814,177.9570 L136.0781,177.9570 L136.0747,177.9570 L136.0714,177.9570 L136.0680,177.9570 L136.0647,177.9570 L136.0613,177.9570 L136.0580,177.9570 L136.0547,177.9570 L136.0513,177.9570 L136.0480,177.9570 L136.0446,177.9570 L136.0413,177.9570 L136.0379,177.9570 L136.0346,177.9570 L136.0312,177.9570 L136.0279,177.9570 L136.0246,177.9570 L136.0212,177.9570 L136.0179,177.9570 L136.0145,177.9570 L136.0112,177.9570 L136.0078,177.9570 L136.0045,177.9570 L136.0012,177.9570 L135.9978,177.9570 L135.9945,177.9570 L135.9911,177.9570 L135.9878,177.9570 L135.9844,177.9570 L135.9811,177.9570 L135.9777,177.9570 L135.9744,177.9570 L135.9711,177.9570 L135.9677,177.9570 L135.9644,177.9570 L135.9610,177.9570 L135.9577,177.9570 L135.9543,177.9570 L135.9510,177.9570 L135.9477,177.9570 L135.9443,177.9570 L135.9410,177.9570 L135.9376,177.9570 L135.9343,177.9570 L135.9309,177.9570 L135.9276,177.9570 L135.9243,177.9570 L135.9209,177.9570 L135.9176,177.9570 L135.9142,177.9570 L135.9109,177.9570 L135.9075,177.9570 L135.9042,177.9570 L135.9008,177.9570 L135.8975,177.9570 L135.8942,177.9570 L135.8908,177.9570 L135.8875,177.9570 L135.8841,177.9570 L135.8808,177.9570 L135.8774,177.9570 L135.8741,177.9570 L135.8707,177.9570 L135.8674,177.9570 L135.8641,177.9570 L135.8607,177.9570 L135.8574,177.9570 L135.8540,177.9570 L135.8507,177.9570 L135.8473,177.9570 L135.8440,177.9570 L135.8407,177.9570 L135.8373,177.9570 L135.8340,177.9570 L135.8306,177.9570 L135.8273,177.9570 L135.8239,177.9570 L135.8206,177.9570 L135.8173,177.9570 L135.8139,177.9570 L135.8106,177.9570 L135.8072,177.9570 L135.8039,177.9570 L135.8005,177.9570 L135.7972,177.9570 L135.7938,177.9570 L135.7905,177.9570 L135.7872,177.9570 L135.7838,177.9570 L135.7805,177.9570 L135.7771,177.9570 L135.7738,177.9570 L135.7704,177.9570 L135.7671,177.9570 L135.7637,177.9570 L135.7604,177.9570 L135.7571,177.9570 L135.7537,177.9570 L135.7504,177.9570 L135.7470,177.9570 L135.7437,177.9570 L135.7403,177.9570 L135.7370,177.9570 L135.1451,177.9614 L134.5550,177.9693 L133.9667,177.9807 L133.3804,177.9956 L132.7960,178.0139 L132.2136,178.0356 L131.6333,178.0608 L131.0550,178.0893 L130.4789,178.1213 L129.9050,178.1565 L129.3333,178.1951 L128.7638,178.2370 L128.1967,178.2822 L127.6319,178.3307 L127.0695,178.3824 L126.5096,178.4373 L125.9522,178.4954 L125.3972,178.5567 L124.8449,178.6212 L124.2952,178.6888 L123.7482,178.7596 L123.2039,178.8334 L122.6623,178.9103 L122.1235,178.9903 L121.5876,179.0733 L121.0546,179.1593 L120.5245,179.2483 L119.9974,179.3403 L119.4733,179.4353 L118.9523,179.5332 L118.4344,179.6340 L117.9197,179.7377 L117.4082,179.8442 L116.8999,179.9536 L116.3949,180.0659 L115.8932,180.1809 L115.3950,180.2988 L114.9001,180.4194 L114.4088,180.5428 L113.9209,180.6688 L113.4366,180.7976 L112.9559,180.9291 L112.4789,181.0633 L112.0055,181.2001 L111.5359,181.3395 L111.0701,181.4815 L110.6081,181.6261 L110.1500,181.7732 L109.6958,181.9229 L109.2456,182.0752 L108.7993,182.2299 L108.3571,182.3871 L107.9191,182.5467 L107.4851,182.7088 L107.0554,182.8733 L106.6298,183.0402 L106.2086,183.2095 L105.7917,183.3812 L105.3791,183.5551 L104.9709,183.7314 L104.5672,183.9100 L104.1680,184.0908 L103.7733,184.2739 L103.3833,184.4592 L102.9978,184.6468 L102.6170,184.8365 L102.2410,185.0284 L101.8697,185.2224 L101.5032,185.4186 L101.1416,185.6169 L100.7849,185.8172 L100.4331,186.0197 L100.0863,186.2241 L99.7445,186.4306 L99.4078,186.6391 L99.0763,186.8496 L98.7499,187.0620 L98.4287,187.2764 L98.1128,187.4927 L97.8022,187.7108 L97.4969,187.9309 L97.1970,188.1528 L96.9025,188.3766 L96.6136,188.6022 L96.3301,188.8296 L96.0522,189.0587 L95.7799,189.2896 L95.5133,189.5222 L95.2524,189.7566 L94.9973,189.9926 L94.7479,190.2303 L94.5043,190.4697 L94.2667,190.7107 L94.0349,190.9533 L93.8092,191.1975 L93.5894,191.4432 L93.3757,191.6905 L93.1682,191.9393 L92.9667,192.1897 L92.7715,192.4415 L92.5825,192.6948 L92.3997,192.9495 L92.2233,193.2056 L92.0533,193.4632 L91.8897,193.7221 L91.7326,193.9824 L91.5819,194.2440 L91.4378,194.5070 L91.3003,194.7712 L91.1694,195.0367 L91.0453,195.3035 L90.9278,195.5715 L90.8171,195.8408 L90.7133,196.1112 L90.6163,196.3828 L90.5262,196.6556 L90.4430,196.9294 L90.3669,197.2044 L90.2978,197.4805 L90.2358,197.7577 L90.1809,198.0359 L90.1332,198.3151 L90.0927,198.5954 L90.0594,198.8766 L90.0335,199.1588 L90.0149,199.4420 L90.0037,199.7260 L90.0001,200.0000 L200.0000,200.0000 L200.0000,0.0000 L198.5878,0.0000 L197.1989,0.0000 L195.8330,0.0000 L194.4900,0.0000 L193.1697,0.0000 L191.8718,0.0000 L190.5962,0.0000 L189.3427,0.0000 L188.1111,0.0000 L186.9012,0.0000 L185.7129,0.0000 L184.5458,0.0000 L183.3999,0.0000 L182.2749,0.0000 L181.1706,0.0000 L180.0869,0.0000 L179.0236,0.0000 L177.9804,0.0000 L176.9572,0.0000 L175.9537,0.0000 L174.9699,0.0000 L174.0055,0.0000 L173.0602,0.0000 L172.1340,0.0000 L171.2266,0.0000 L170.3378,0.0000 L169.4675,0.0000 L168.6154,0.0000 L167.7813,0.0000 L166.9651,0.0000 L166.1666,0.0000 L165.3855,0.0000 L164.6217,0.0000 L163.8750,0.0000 L163.1452,0.0000 L162.4322,0.0000 L161.7356,0.0000 L161.0553,0.0000 L160.3912,0.0000 L159.7430,0.0000 L159.1105,0.0000 L158.4936,0.0000 L157.8920,0.0000 L157.3056,0.0000 L156.7342,0.0000 L156.1776,0.0000 L155.6355,0.0000 L155.1078,0.0000 L154.5944,0.0000 L154.0949,0.0000 L153.6093,0.0000 L153.1373,0.0000 L152.6787,0.0000 L152.2334,0.0000 L151.8011,0.0000 L151.3816,0.0000 L150.9749,0.0000 L150.5806,0.0000 L150.1986,0.0000 L149.8286,0.0000 L149.4706,0.0000 L149.1242,0.0000 L148.7894,0.0000 L148.4659,0.0000 L148.1535,0.0000 L147.8520,0.0000 L147.5613,0.0000 L147.2811,0.0000 L147.0113,0.0000 L146.7516,0.0000 L146.5019,0.0000 L146.2620,0.0000 L146.0317,0.0000 L145.8108,0.0000 L145.5990,0.0000 L145.3963,0.0000 L145.2024,0.0000 L145.0171,0.0000 L144.8402,0.0000 L144.6716,0.0000 L144.5110,0.0000 L144.3583,0.0000 L144.2132,0.0000 L144.0757,0.0000 L143.9453,0.0000 L143.8221,0.0000 L143.7058,0.0000 L143.5961,0.0000 L143.4930,0.0000 L143.3962,0.0000 L143.3055,0.0000 L143.2207,0.0000 L143.1417,0.0000 L143.0682,0.0000 L143.0000,0.0000 L142.9370,0.0000 L142.8790,0.0000 L142.8258,0.0000 L142.7772,0.0000 L142.7329,0.0000 L142.6928,0.0000 L142.6568,0.0000 L142.6245,0.0000 L142.5959,0.0000 L142.5707,0.0000 L142.5487,0.0000 L142.5298,0.0000 L142.5138,0.0000 L142.5004,0.0000 L142.4894,0.0000 L142.4808,0.0000 L142.4742,0.0000 L142.4695,0.0000 L142.4665,0.0000 L142.4650,0.0000 L142.4648,0.0000 L142.4658,0.0000 L142.4676,0.0000 L142.4702,0.0000 L142.4734,0.0000 L142.4769,0.0000 L142.4805,0.0000 L142.4841,0.0000 L142.4875,0.0000 L142.4905,0.0000 L142.4929,0.0000 L142.4944,0.0000 L142.4950,0.0000 L142.4457,0.0004 L142.3947,0.0008 L142.3422,0.0012 L142.2880,0.0016 L142.2323,0.0020 L142.1750,0.0024 L142.1163,0.0028 L142.0560,0.0032 L141.9943,0.0035 L141.9312,0.0039 L141.8667,0.0043 L141.8008,0.0047 L141.7335,0.0050 L141.6649,0.0054 L141.5950,0.0058 L141.5238,0.0061 L141.4514,0.0065 L141.3777,0.0068 L141.3029,0.0072 L141.2268,0.0075 L141.1497,0.0079 L141.0714,0.0082 L140.9920,0.0086 L140.9115,0.0089 L140.8300,0.0092 L140.7475,0.0096 L140.6639,0.0099 L140.5795,0.0102 L140.4940,0.0105 L140.4077,0.0108 L140.3204,0.0112 L140.2323,0.0115 L140.1434,0.0118 L140.0536,0.0121 L139.9631,0.0124 L139.8718,0.0127 L139.7797,0.0130 L139.6870,0.0133 L139.5936,0.0136 L139.4995,0.0139 L139.4047,0.0142 L139.3094,0.0145 L139.2135,0.0147 L139.1170,0.0150 L139.0200,0.0153 L138.9225,0.0156 L138.8245,0.0158 L138.7261,0.0161 L138.6272,0.0164 L138.5280,0.0166 L138.4283,0.0169 L138.3283,0.0171 L138.2280,0.0174 L138.1274,0.0177 L138.0265,0.0179 L137.9254,0.0181 L137.8241,0.0184 L137.7225,0.0186 L137.6208,0.0189 L137.5190,0.0191 L137.4170,0.0193 L137.3149,0.0195 L137.2128,0.0198 L137.1106,0.0200 L137.0084,0.0202 L136.9063,0.0204 L136.8041,0.0206 L136.7021,0.0208 L136.6001,0.0211 L136.4982,0.0213 L136.3965,0.0215 L136.2949,0.0217 L136.1935,0.0218 L136.0924,0.0220 L135.9915,0.0222 L135.8908,0.0224 L135.7905,0.0226 L135.6904,0.0228 L135.5908,0.0229 L135.4915,0.0231 L135.3925,0.0233 L135.2941,0.0235 L135.1960,0.0236 L135.0985,0.0238 L135.0014,0.0239 L134.9048,0.0241 L134.8089,0.0243 L134.7135,0.0244 L134.6187,0.0245 L134.5245,0.0247 L134.4310,0.0248 L134.3381,0.0250 L134.2460,0.0251 L134.1546,0.0252 L134.0640,0.0254 L133.9741,0.0255 L133.8851,0.0256 L133.7969,0.0257 L133.7095,0.0259 L133.6230,0.0260 L133.5375,0.0261 L133.4529,0.0262 L133.3693,0.0263 L133.2866,0.0264 L133.2050,0.0265 L133.1244,0.0266 L133.0448,0.0267 L132.9664,0.0268 L132.8891,0.0269 L132.8129,0.0269 L132.7379,0.0270 L132.6641,0.0271 L132.5915,0.0272 L132.5202,0.0272 L132.4501,0.0273 L132.3814,0.0274 L132.3139,0.0274 L132.2479,0.0275 L132.1832,0.0276 L132.1199,0.0276 L132.0580,0.0277 L131.9976,0.0277 L131.9386,0.0278 L131.8812,0.0278 L131.8253,0.0278 L131.7709,0.0279 L131.7182,0.0279 L131.6670,0.0279 L131.6670,0.0279 L131.0758,0.0287 L130.4879,0.0295 L129.9033,0.0303 L129.3221,0.0310 L128.7441,0.0317 L128.1696,0.0324 L127.5985,0.0331 L127.0307,0.0337 L126.4664,0.0343 L125.9056,0.0349 L125.3483,0.0355 L124.7944,0.0360 L124.2441,0.0366 L123.6973,0.0371 L123.1541,0.0375 L122.6145,0.0380 L122.0785,0.0384 L121.5461,0.0389 L121.0173,0.0393 L120.4923,0.0396 L119.9709,0.0400 L119.4532,0.0403 L118.9393,0.0407 L118.4291,0.0410 L117.9227,0.0412 L117.4202,0.0415 L116.9214,0.0417 L116.4265,0.0420 L115.9354,0.0422 L115.4482,0.0424 L114.9650,0.0426 L114.4856,0.0427 L114.0102,0.0429 L113.5388,0.0430 L113.0714,0.0431 L112.6080,0.0432 L112.1486,0.0433 L111.6933,0.0434 L111.2420,0.0434 L110.7949,0.0435 L110.3518,0.0435 L109.9129,0.0435 L109.4782,0.0435 L109.0477,0.0435 L108.6213,0.0435 L108.1992,0.0434 L107.7814,0.0434 L107.3678,0.0433 L106.9585,0.0433 L106.5535,0.0432 L106.1528,0.0431 L105.7565,0.0430 L105.3646,0.0429 L104.9771,0.0428 L104.5939,0.0426 L104.2153,0.0425 L103.8410,0.0423 L103.4713,0.0422 L103.1061,0.0420 L102.7454,0.0418 L102.3892,0.0417 L102.0376,0.0415 L101.6906,0.0413 L101.3482,0.0411 L101.0105,0.0409 L100.6774,0.0407 L100.3490,0.0404 L100.0252,0.0402 L99.7062,0.0400 L99.3919,0.0397 L99.0824,0.0395 L98.7777,0.0393 L98.4777,0.0390 L98.1826,0.0388 L97.8923,0.0385 L97.6069,0.0382 L97.3264,0.0380 L97.0508,0.0377 L96.7801,0.0374 L96.5144,0.0372 L96.2536,0.0369 L95.9979,0.0366 L95.7471,0.0364 L95.5014,0.0361 L95.2608,0.0358 L95.0252,0.0355 L94.7947,0.0353 L94.5694,0.0350 L94.3492,0.0347 L94.1341,0.0345 L93.9243,0.0342 L93.7196,0.0339 L93.5202,0.0336 L93.3260,0.0334 L93.1371,0.0331 L92.9535,0.0329 L92.7752,0.0326 L92.6022,0.0324 L92.4346,0.0321 L92.2724,0.0319 L92.1156,0.0316 L91.9642,0.0314 L91.8182,0.0312 L91.6777,0.0309 L91.5427,0.0307 L91.4132,0.0305 L91.2892,0.0303 L91.1708,0.0301 L91.0579,0.0299 L90.9506,0.0297 L90.8490,0.0295 L90.7529,0.0294 L90.6626,0.0292 L90.5779,0.0291 L90.4989,0.0289 L90.4256,0.0288 L90.3580,0.0286 L90.2962,0.0285 L90.2402,0.0284 L90.1901,0.0283 L90.1457,0.0282 L90.1072,0.0282 L90.0745,0.0281 L90.0477,0.0280 L90.0269,0.0280 L90.0120,0.0280 L90.0030,0.0279 L90.0000,0.0279 Z" fill="#FF4F00" transform="rotate(90,100,100)"/>
</svg>
  <rect x="320" y="640" width="320" height="320" fill="#FF4F00"/>
  <svg x="320" y="640" width="320" height="320" viewBox="0 0 200 200" overflow="hidden"><path xmlns="http://www.w3.org/2000/svg" d="M150 100H200C200 44.772 155.228 8.74228e-06 100 8.74228e-06C44.772 8.74228e-06 8.74228e-06 44.772 8.74228e-06 100H50C50 100 72.384 100 100 100C127.616 100 150 100 150 100Z M45 200H65V100H45V200Z M90 200H110V100H90V200Z M135 200H155V100H135V200Z M8.74228e-06 200H20V100H8.74228e-06V200Z M180 200H200V100H180V200Z" fill="#4997D0" transform="rotate(270,100,100)"/>
</svg>
  <rect x="640" y="640" width="320" height="320" fill="#121212"/>
  <svg x="640" y="640" width="320" height="320" viewBox="0 0 200 200" overflow="hidden"><path xmlns="http://www.w3.org/2000/svg" d="M200 25L200 175L8.74228e-06 175L4.15258e-05 25L200 25Z" fill="#4997D0"/>
</svg>
  <rect x="960" y="640" width="320" height="320" fill="#FFFFFF"/>
  <svg x="960" y="640" width="320" height="320" viewBox="0 0 200 200" overflow="hidden"><path xmlns="http://www.w3.org/2000/svg" d="M200 200C144.772 200 8.74228e-06 200 8.74228e-06 200C8.74228e-06 144.772 44.7715 100 100 100C155.228 100 200 144.772 200 200Z M1.74846e-05 -8.74228e-06C55.2285 -3.91405e-06 200 8.74228e-06 200 8.74228e-06C200 55.2285 155.228 100 100 100C44.7715 100 1.26563e-05 55.2285 1.74846e-05 -8.74228e-06Z" fill="#4997D0" transform="rotate(180,100,100)"/>
</svg>
  <rect x="1280" y="640" width="320" height="320" fill="#FFFFFF"/>
  <svg x="1280" y="640" width="320" height="320" viewBox="0 0 200 200" overflow="hidden"><path xmlns="http://www.w3.org/2000/svg" d="M200 1.97103e-05L200 50L8.74228e-06 100L3.49691e-05 -6.51651e-06L200 1.97103e-05Z" fill="#F3F3F3"/>
</svg>
  <rect x="1600" y="640" width="320" height="320" fill="#F3F3F3"/>
  <svg x="1600" y="640" width="320" height="320" viewBox="0 0 200 200" overflow="hidden"><path xmlns="http://www.w3.org/2000/svg" d="M200 0H0V200C0 89.544 89.544 0 200 0Z M141.42 141.42C105.228 177.616 55.228 200 0 200H200V0C200 55.228 177.616 105.228 141.42 141.42Z" fill="#FF4F00" transform="rotate(180,100,100)"/>
</svg>
</svg>
