<?xml version='1.0' encoding='UTF-8'?>
<svg xmlns="http://www.w3.org/2000/svg" version="1.1" width="1920" height="960" viewBox="0 0 1920 960">
  <rect x="0" y="0" width="320" height="320" fill="#FFFFFF"/>
  <g transform="translate(0,0) scale(1.6)"><path xmlns="http://www.w3.org/2000/svg" d="M160 199.99H180C180 188.94 188.95 179.99 200 179.99V159.99C177.91 159.99 160 177.9 160 199.99Z M120 199.99H140C140 166.85 166.86 139.99 200 139.99V119.99C155.82 119.99 120 155.81 120 199.99Z M80 199.99H100C100 144.76 144.77 99.99 200 99.99V79.99C133.73 79.99 80 133.72 80 199.99Z M40 199.99H60C60 122.67 122.68 59.99 200 59.99V39.99C111.63 39.99 40 111.62 40 199.99Z M0 199.99H20C20 100.58 100.59 19.99 200 19.99V0C89.58 0 0 89.87 0 199.99Z" fill="#4997D0"/>
</g>
  <rect x="320" y="0" width="320" height="320" fill="#121212"/>
  <g transform="translate(320,0) scale(1.6) rotate(90,100,100)"><path xmlns="http://www.w3.org/2000/svg" d="M200 8.74228e-06C200 55.228 177.616 105.228 141.42 141.42C105.228 177.616 55.228 200 0 200L200 200L200 8.74228e-06Z M100.028 0.0280087L0.0559627 4.37236e-06L0.0279585 100C55.2405 100.016 100.012 55.256 100.028 0.0280087Z" fill="#FFA300"/>
</g>
  <rect x="640" y="0" width="320" height="320" fill="#121212"/>
  <g transform="translate(640,0) scale(1.6) rotate(180,100,100)"><path xmlns="http://www.w3.org/2000/svg" d="M200 0H0V200C0 89.544 89.544 0 200 0Z M141.42 141.42C105.228 177.616 55.228 200 0 200H200V0C200 55.228 177.616 105.228 141.42 141.42Z" fill="#F3F3F3"/>
</g>
  <rect x="960" y="0" width="320" height="320" fill="#FF4F00"/>
  <g transform="translate(960,0) scale(1.6) rotate(270,100,100)"><path xmlns="http://www.w3.org/2000/svg" d="M60 200H80L80 0H60L60 200Z M140 200H160L160 0H140L140 200Z M130.114 114.849C125.388 121.241 120 128.058 120 136.007V200H100V136.007C100 128.058 94.612 121.241 89.8855 114.849C86.8153 110.697 85 105.56 85 100C85 94.4396 86.8153 89.3032 89.8855 85.1511C94.612 78.7593 100 71.9425 100 63.9929V0H120V63.9929C120 71.9424 125.388 78.7593 130.114 85.1511C133.185 89.3032 135 94.4396 135 100C135 105.56 133.185 110.697 130.114 114.849Z M20 200H40L40 0H20L20 200Z M180 200H200L200 0H180L180 200Z" fill="#D9D9D6"/>
</g>
  <rect x="1280" y="0" width="320" height="320" fill="#F3F3F3"/>
  <g transform="translate(1280,0) scale(1.6)"><path xmlns="http://www.w3.org/2000/svg" d="M200 0H0V200C0 89.544 89.544 0 200 0Z M100 58.3333C76.9891 58.3333 58.3334 76.9841 58.3334 100C58.3334 123.016 76.9891 141.667 100 141.667C111.508 141.667 121.925 137.004 129.464 129.464C137.004 121.925 141.667 111.508 141.667 100C141.667 76.9841 123.011 58.3333 100 58.3333Z" fill="#D9D9D6"/>
</g>
  <rect x="1600" y="0" width="320" height="320" fill="#121212"/>
  <g transform="translate(1600,0) scale(1.6) rotate(90,100,100)"><path xmlns="http://www.w3.org/2000/svg" d="M160 199.99H180C180 188.94 188.95 179.99 200 179.99V159.99C177.91 159.99 160 177.9 160 199.99Z M120 199.99H140C140 166.85 166.86 139.99 200 139.99V119.99C155.82 119.99 120 155.81 120 199.99Z M80 199.99H100C100 144.76 144.77 99.99 200 99.99V79.99C133.73 79.99 80 133.72 80 199.99Z M40 199.99H60C60 122.67 122.68 59.99 200 59.99V39.99C111.63 39.99 40 111.62 40 199.99Z M0 199.99H20C20 100.58 100.59 19.99 200 19.99V0C89.58 0 0 89.87 0 199.99Z" fill="#F3F3F3"/>
</g>
  <rect x="0" y="320" width="320" height="320" fill="#121212"/>
  <g transform="translate(0,320) scale(1.6)"><path xmlns="http://www.w3.org/2000/svg" d="M160 199.99H180C180 188.94 188.95 179.99 200 179.99V159.99C177.91 159.99 160 177.9 160 199.99Z M120 199.99H140C140 166.85 166.86 139.99 200 139.99V119.99C155.82 119.99 120 155.81 120 199.99Z M80 199.99H100C100 144.76 144.77 99.99 200 99.99V79.99C133.73 79.99 80 133.72 80 199.99Z M40 199.99H60C60 122.67 122.68 59.99 200 59.99V39.99C111.63 39.99 40 111.62 40 199.99Z M0 199.99H20C20 100.58 100.59 19.99 200 19.99V0C89.58 0 0 89.87 0 199.99Z" fill="#FF4F00"/>
</g>
  <rect x="320" y="320" width="320" height="320" fill="#FF4F00"/>
  <g transform="translate(320,320) scale(1.6) rotate(90,100,100)"><path xmlns="http://www.w3.org/2000/svg" d="M200 0H0V200C0 89.544 89.544 0 200 0Z M141.42 141.42C105.228 177.616 55.228 200 0 200H200V0C200 55.228 177.616 105.228 141.42 141.42Z" fill="#F3F3F3"/>
</g>
  <rect x="640" y="320" width="320" height="320" fill="#FF4F00"/>
  <g transform="translate(640,320) scale(1.6) rotate(180,100,100)"><path xmlns="http://www.w3.org/2000/svg" d="M60 200H80L80 0H60L60 200Z M140 200H160L160 0H140L140 200Z M130.114 114.849C125.388 121.241 120 128.058 120 136.007V200H100V136.007C100 128.058 94.612 121.241 89.8855 114.849C86.8153 110.697 85 105.56 85 100C85 94.4396 86.8153 89.3032 89.8855 85.1511C94.612 78.7593 100 71.9425 100 63.9929V0H120V63.9929C120 71.9424 125.388 78.7593 130.114 85.1511C133.185 89.3032 135 94.4396 135 100C135 105.56 133.185 110.697 130.114 114.849Z M20 200H40L40 0H20L20 200Z M180 200H200L200 0H180L180 200Z" fill="#4997D0"/>
</g>
  <rect x="960" y="320" width="320" height="320" fill="#FF4F00"/>
  <g transform="translate(960,320) scale(1.6) rotate(270,100,100)"><path xmlns="http://www.w3.org/2000/svg" d="M10 200L10 2.18557e-07L15 0L15 200L10 200Z M120 200L120 2.18557e-07L125 0L125 200L120 200Z M35 200L35 2.18557e-07L40 0L40 200L35 200Z M140 200L140 2.18557e-07L145 0L145 200L140 200Z M60 200L60 2.18557e-07L65 0L65 200L60 200Z M160 200L160 2.18557e-07L165 0L165 200L160 200Z M80 200L80 2.18557e-07L85 0L85 200L80 200Z M175 200L175 2.18557e-07L180 0L180 200L175 200Z M190 200L190 2.18557e-07L195 0L195 200L190 200Z M100 200L100 2.18557e-07L105 0L105 200L100 200Z" fill="#121212"/>
</g>
  <rect x="1280" y="320" width="320" height="320" fill="#FF4F00"/>
  <g transform="translate(1280,320) scale(1.6)"><path xmlns="http://www.w3.org/2000/svg" d="M200 8.74228e-06C200 55.228 177.616 105.228 141.42 141.42C105.228 177.616 55.228 200 0 200L200 200L200 8.74228e-06Z M141.667 100C141.667 76.9841 123.011 58.3333 100 58.3333C76.9891 58.3333 58.3333 76.9841 58.3333 100C58.3333 123.016 76.989 141.667 100 141.667C111.508 141.667 121.925 137.004 129.464 129.464C137.004 121.925 141.667 111.508 141.667 100Z M100.028 0.0280087L0.0559627 4.37236e-06L0.0279585 100C55.2405 100.016 100.012 55.256 100.028 0.0280087Z" fill="#121212"/>
</g>
  <rect x="1600" y="320" width="320" height="320" fill="#FFFFFF"/>
  <g transform="translate(1600,320) scale(1.6) rotate(90,100,100)"><path xmlns="http://www.w3.org/2000/svg" d="M45 200H65L65 0H45L45 200Z M90 200H110L110 0H90L90 200Z M135 200H155L155 0H135L135 200Z M0 200H20L20 0H0L0 200Z M180 200H200L200 0H180L180 200Z" fill="#FF4F00"/>
</g>
  <rect x="0" y="640" width="320" height="320" fill="#F3F3F3"/>
  <g transform="translate(0,640) scale(1.6)"><path xmlns="http://www.w3.org/2000/svg" d="M100 171.231C139.34 171.231 171.231 139.34 171.231 100C171.231 60.6601 139.34 28.7688 100 28.7688C60.6601 28.7688 28.7688 60.6601 28.7688 100C28.7688 139.34 60.6601 171.231 100 171.231ZM100 175C141.421 175 175 141.421 175 100C175 58.5786 141.421 25 100 25C58.5786 25 25 58.5786 25 100C25 141.421 58.5786 175 100 175Z" fill="#FFA300"/>
</g>
  <rect x="320" y="640" width="320" height="320" fill="#121212"/>
  <g transform="translate(320,640) scale(1.6) rotate(90,100,100)"><path xmlns="http://www.w3.org/2000/svg" d="M200 8.74228e-06C200 55.228 177.616 105.228 141.42 141.42C105.228 177.616 55.228 200 0 200L200 200L200 8.74228e-06Z M100.028 0.0280087L0.0559627 4.37236e-06L0.0279585 100C55.2405 100.016 100.012 55.256 100.028 0.0280087Z" fill="#D9D9D6"/>
</g>
  <rect x="640" y="640" width="320" height="320" fill="#121212"/>
  <g transform="translate(640,640) scale(1.6) rotate(180,100,100)"><path xmlns="http://www.w3.org/2000/svg" d="M45 200H65L65 0H45L45 200Z M90 200H110L110 0H90L90 200Z M135 200H155L155 0H135L135 200Z M0 200H20L20 0H0L0 200Z M180 200H200L200 0H180L180 200Z" fill="#FF4F00"/>
</g>
  <rect x="960" y="640" width="320" height="320" fill="#121212"/>
  <g transform="translate(960,640) scale(1.6) rotate(270,100,100)"><path xmlns="http://www.w3.org/2000/svg" d="M60 200H80L80 0H60L60 200Z M140 200H160L160 0H140L140 200Z M130.114 114.849C125.388 121.241 120 128.058 120 136.007V200H100V136.007C100 128.058 94.612 121.241 89.8855 114.849C86.8153 110.697 85 105.56 85 100C85 94.4396 86.8153 89.3032 89.8855 85.1511C94.612 78.7593 100 71.9425 100 63.9929V0H120V63.9929C120 71.9424 125.388 78.7593 130.114 85.1511C133.185 89.3032 135 94.4396 135 100C135 105.56 133.185 110.697 130.114 114.849Z M20 200H40L40 0H20L20 200Z M180 200H200L200 0H180L180 200Z" fill="#D9D9D6"/>
</g>
  <rect x="1280" y="640" width="320" height="320" fill="#121212"/>
  <g transform="translate(1280,640) scale(1.6)"><path xmlns="http://www.w3.org/2000/svg" d="M77 67C77 73.0751 72.0751 78 66 78C59.9249 78 55 73.0751 55 67C55 60.9249 59.9249 56 66 56C72.0751 56 77 60.9249 77 67Z M200 109C200 115.075 195.075 120 189 120C182.925 120 178 115.075 178 109C178 102.925 182.925 98 189 98C195.075 98 200 102.925 200 109Z M0.008 8.74193e-06L0 8.74228e-06L8.74228e-06 200L200 200C89.876 200 0.00800483 110.417 0.008 8.74193e-06Z M179.933 199C85.7297 189.563 10.4137 114.42 1 20.0043C0.343971 13.4246 0.00800029 6.75124 0.008 8.74193e-06L0 8.74228e-06L8.74228e-06 200L200 200C193.229 200 186.535 199.661 179.933 199ZM171.614 199C83.5333 186.485 13.5081 116.612 1 28.3523L1.00001 199L171.614 199Z M35 8.74228e-06C35 91.127 108.873 165 200 165V175C103.35 175 25 96.6498 25 8.74228e-06H35Z M75 8.74228e-06C75 69.0356 130.964 125 200 125V135C125.442 135 65 74.5584 65 8.74228e-06H75Z M115 8.74228e-06C115 46.9442 153.056 85 200 85V95C147.533 95 105 52.4671 105 8.74228e-06H115Z M155 8.74228e-06C155 24.8528 175.147 45 200 45V55C169.624 55 145 30.3757 145 8.74228e-06H155Z M195 8.74228e-06C195 2.76143 197.239 5.00001 200 5.00001V15C191.716 15 185 8.28428 185 8.74228e-06H195Z" fill="#FF4F00"/>
</g>
  <rect x="1600" y="640" width="320" height="320" fill="#121212"/>
  <g transform="translate(1600,640) scale(1.6) rotate(90,100,100)"><path xmlns="http://www.w3.org/2000/svg" d="M200 8.74228e-06C200 55.228 177.616 105.228 141.42 141.42C105.228 177.616 55.228 200 0 200L200 200L200 8.74228e-06Z M141.667 100C141.667 76.9841 123.011 58.3333 100 58.3333C76.9891 58.3333 58.3333 76.9841 58.3333 100C58.3333 123.016 76.989 141.667 100 141.667C111.508 141.667 121.925 137.004 129.464 129.464C137.004 121.925 141.667 111.508 141.667 100Z M100.028 0.0280087L0.0559627 4.37236e-06L0.0279585 100C55.2405 100.016 100.012 55.256 100.028 0.0280087Z" fill="#4997D0"/>
</g>
</svg>
