<?xml version='1.0' encoding='UTF-8'?>
<svg xmlns="http://www.w3.org/2000/svg" version="1.1" width="1920" height="960" viewBox="0 0 1920 960">
  <rect x="0" y="0" width="320" height="320" fill="#121212"/>
  <g transform="translate(0,0) scale(1.6)">
    <path d="M77 67C77 73.0751 72.0751 78 66 78C59.9249 78 55 73.0751 55 67C55 60.9249 59.9249 56 66 56C72.0751 56 77 60.9249 77 67Z M200 109C200 115.075 195.075 120 189 120C182.925 120 178 115.075 178 109C178 102.925 182.925 98 189 98C195.075 98 200 102.925 200 109Z M0.008 8.74193e-06L0 8.74228e-06L8.74228e-06 200L200 200C89.876 200 0.00800483 110.417 0.008 8.74193e-06Z M179.933 199C85.7297 189.563 10.4137 114.42 1 20.0043C0.343971 13.4246 0.00800029 6.75124 0.008 8.74193e-06L0 8.74228e-06L8.74228e-06 200L200 200C193.229 200 186.535 199.661 179.933 199ZM171.614 199C83.5333 186.485 13.5081 116.612 1 28.3523L1.00001 199L171.614 199Z M35 8.74228e-06C35 91.127 108.873 165 200 165V175C103.35 175 25 96.6498 25 8.74228e-06H35Z M75 8.74228e-06C75 69.0356 130.964 125 200 125V135C125.442 135 65 74.5584 65 8.74228e-06H75Z M115 8.74228e-06C115 46.9442 153.056 85 200 85V95C147.533 95 105 52.4671 105 8.74228e-06H115Z M155 8.74228e-06C155 24.8528 175.147 45 200 45V55C169.624 55 145 30.3757 145 8.74228e-06H155Z M195 8.74228e-06C195 2.76143 197.239 5.00001 200 5.00001V15C191.716 15 185 8.28428 185 8.74228e-06H195Z" fill="#FF4F00"/>
  </g>
  <rect x="320" y="0" width="320" height="320" fill="#121212"/>
  <g transform="translate(320,0) scale(1.6) rotate(90,100,100)">
    <path d="M195 5.00003L195 195L5.00001 195L5.00005 5.00001L195 5.00003Z M200 8.74228e-06L8.74228e-06 200V8.74228e-06H200Z M100 200L200 100V200H100Z" fill="#F3F3F3"/>
  </g>
  <rect x="640" y="0" width="320" height="320" fill="#FFFFFF"/>
  <g transform="translate(640,0) scale(1.6) rotate(180,100,100)">
    <path d="M195 5.00003L195 195L5.00001 195L5.00005 5.00001L195 5.00003Z M200 8.74228e-06L8.74228e-06 200V8.74228e-06H200Z M100 200L200 100V200H100Z" fill="#FF4F00"/>
  </g>
  <rect x="960" y="0" width="320" height="320" fill="#121212"/>
  <g transform="translate(960,0) scale(1.6) rotate(180,100,100)">
    <path d="M100 2.18557e-05L100 100L8.74228e-06 100L2.84124e-05 8.74228e-06L100 2.18557e-05Z" fill="#F3F3F3"/>
  </g>
  <rect x="1280" y="0" width="320" height="320" fill="#FFFFFF"/>
  <g transform="translate(1280,0) scale(1.6) rotate(90,100,100)">
    <path d="M195 5.00003L195 195L5.00001 195L5.00005 5.00001L195 5.00003Z M200 8.74228e-06L8.74228e-06 200V8.74228e-06H200Z M100 200L200 100V200H100Z" fill="#121212"/>
  </g>
  <rect x="1600" y="0" width="320" height="320" fill="#121212"/>
  <g transform="translate(1600,0) scale(1.6)">
    <path d="M195 5.00003L195 195L5.00001 195L5.00005 5.00001L195 5.00003Z M200 8.74228e-06L8.74228e-06 200V8.74228e-06H200Z M100 200L200 100V200H100Z" fill="#FFA300"/>
  </g>
  <rect x="0" y="320" width="320" height="320" fill="#F3F3F3"/>
  <g transform="translate(0,320) scale(1.6)">
    <path d="M100 2.18557e-05L100 100L8.74228e-06 100L2.84124e-05 8.74228e-06L100 2.18557e-05Z" fill="#FFA300"/>
  </g>
  <rect x="320" y="320" width="320" height="320" fill="#FFFFFF"/>
  <g transform="translate(320,320) scale(1.6) rotate(90,100,100)">
    <path d="M195 5.00003L195 195L5.00001 195L5.00005 5.00001L195 5.00003Z M200 8.74228e-06L8.74228e-06 200V8.74228e-06H200Z M100 200L200 100V200H100Z" fill="#121212"/>
  </g>
  <rect x="640" y="320" width="320" height="320" fill="#FF4F00"/>
  <g transform="translate(640,320) scale(1.6) rotate(180,100,100)">
    <path d="M100 2.18557e-05L100 100L8.74228e-06 100L2.84124e-05 8.74228e-06L100 2.18557e-05Z" fill="#D9D9D6"/>
  </g>
  <rect x="960" y="320" width="320" height="320" fill="#FFFFFF"/>
  <g transform="translate(960,320) scale(1.6) rotate(180,100,100)">
    <path d="M77 67C77 73.0751 72.0751 78 66 78C59.9249 78 55 73.0751 55 67C55 60.9249 59.9249 56 66 56C72.0751 56 77 60.9249 77 67Z M200 109C200 115.075 195.075 120 189 120C182.925 120 178 115.075 178 109C178 102.925 182.925 98 189 98C195.075 98 200 102.925 200 109Z M0.008 8.74193e-06L0 8.74228e-06L8.74228e-06 200L200 200C89.876 200 0.00800483 110.417 0.008 8.74193e-06Z M179.933 199C85.7297 189.563 10.4137 114.42 1 20.0043C0.343971 13.4246 0.00800029 6.75124 0.008 8.74193e-06L0 8.74228e-06L8.74228e-06 200L200 200C193.229 200 186.535 199.661 179.933 199ZM171.614 199C83.5333 186.485 13.5081 116.612 1 28.3523L1.00001 199L171.614 199Z M35 8.74228e-06C35 91.127 108.873 165 200 165V175C103.35 175 25 96.6498 25 8.74228e-06H35Z M75 8.74228e-06C75 69.0356 130.964 125 200 125V135C125.442 135 65 74.5584 65 8.74228e-06H75Z M115 8.74228e-06C115 46.9442 153.056 85 200 85V95C147.533 95 105 52.4671 105 8.74228e-06H115Z M155 8.74228e-06C155 24.8528 175.147 45 200 45V55C169.624 55 145 30.3757 145 8.74228e-06H155Z M195 8.74228e-06C195 2.76143 197.239 5.00001 200 5.00001V15C191.716 15 185 8.28428 185 8.74228e-06H195Z" fill="#121212"/>
  </g>
  <rect x="1280" y="320" width="320" height="320" fill="#4997D0"/>
  <g transform="translate(1280,320) scale(1.6) rotate(90,100,100)">
    <path d="M77 67C77 73.0751 72.0751 78 66 78C59.9249 78 55 73.0751 55 67C55 60.9249 59.9249 56 66 56C72.0751 56 77 60.9249 77 67Z M200 109C200 115.075 195.075 120 189 120C182.925 120 178 115.075 178 109C178 102.925 182.925 98 189 98C195.075 98 200 102.925 200 109Z M0.008 8.74193e-06L0 8.74228e-06L8.74228e-06 200L200 200C89.876 200 0.00800483 110.417 0.008 8.74193e-06Z M179.933 199C85.7297 189.563 10.4137 114.42 1 20.0043C0.343971 13.4246 0.00800029 6.75124 0.008 8.74193e-06L0 8.74228e-06L8.74228e-06 200L200 200C193.229 200 186.535 199.661 179.933 199ZM171.614 199C83.5333 186.485 13.5081 116.612 1 28.3523L1.00001 199L171.614 199Z M35 8.74228e-06C35 91.127 108.873 165 200 165V175C103.35 175 25 96.6498 25 8.74228e-06H35Z M75 8.74228e-06C75 69.0356 130.964 125 200 125V135C125.442 135 65 74.5584 65 8.74228e-06H75Z M115 8.74228e-06C115 46.9442 153.056 85 200 85V95C147.533 95 105 52.4671 105 8.74228e-06H115Z M155 8.74228e-06C155 24.8528 175.147 45 200 45V55C169.624 55 145 30.3757 145 8.74228e-06H155Z M195 8.74228e-06C195 2.76143 197.239 5.00001 200 5.00001V15C191.716 15 185 8.28428 185 8.74228e-06H195Z" fill="#D9D9D6"/>
  </g>
  <rect x="1600" y="320" width="320" height="320" fill="#121212"/>
  <g transform="translate(1600,320) scale(1.6)">
    <path d="M195 5.00003L195 195L5.00001 195L5.00005 5.00001L195 5.00003Z M200 8.74228e-06L8.74228e-06 200V8.74228e-06H200Z M100 200L200 100V200H100Z" fill="#FF4F00"/>
  </g>
  <rect x="0" y="640" width="320" height="320" fill="#FFFFFF"/>
  <g transform="translate(0,640) scale(1.6)">
    <path d="M195 5.00003L195 195L5.00001 195L5.00005 5.00001L195 5.00003Z M200 8.74228e-06L8.74228e-06 200V8.74228e-06H200Z M100 200L200 100V200H100Z" fill="#FF4F00"/>
  </g>
  <rect x="320" y="640" width="320" height="320" fill="#FFFFFF"/>
  <g transform="translate(320,640) scale(1.6) rotate(90,100,100)">
    <path d="M77 67C77 73.0751 72.0751 78 66 78C59.9249 78 55 73.0751 55 67C55 60.9249 59.9249 56 66 56C72.0751 56 77 60.9249 77 67Z M200 109C200 115.075 195.075 120 189 120C182.925 120 178 115.075 178 109C178 102.925 182.925 98 189 98C195.075 98 200 102.925 200 109Z M0.008 8.74193e-06L0 8.74228e-06L8.74228e-06 200L200 200C89.876 200 0.00800483 110.417 0.008 8.74193e-06Z M179.933 199C85.7297 189.563 10.4137 114.42 1 20.0043C0.343971 13.4246 0.00800029 6.75124 0.008 8.74193e-06L0 8.74228e-06L8.74228e-06 200L200 200C193.229 200 186.535 199.661 179.933 199ZM171.614 199C83.5333 186.485 13.5081 116.612 1 28.3523L1.00001 199L171.614 199Z M35 8.74228e-06C35 91.127 108.873 165 200 165V175C103.35 175 25 96.6498 25 8.74228e-06H35Z M75 8.74228e-06C75 69.0356 130.964 125 200 125V135C125.442 135 65 74.5584 65 8.74228e-06H75Z M115 8.74228e-06C115 46.9442 153.056 85 200 85V95C147.533 95 105 52.4671 105 8.74228e-06H115Z M155 8.74228e-06C155 24.8528 175.147 45 200 45V55C169.624 55 145 30.3757 145 8.74228e-06H155Z M195 8.74228e-06C195 2.76143 197.239 5.00001 200 5.00001V15C191.716 15 185 8.28428 185 8.74228e-06H195Z" fill="#FFA300"/>
  </g>
  <rect x="640" y="640" width="320" height="320" fill="#4997D0"/>
  <g transform="translate(640,640) scale(1.6) rotate(180,100,100)">
    <path d="M77 67C77 73.0751 72.0751 78 66 78C59.9249 78 55 73.0751 55 67C55 60.9249 59.9249 56 66 56C72.0751 56 77 60.9249 77 67Z M200 109C200 115.075 195.075 120 189 120C182.925 120 178 115.075 178 109C178 102.925 182.925 98 189 98C195.075 98 200 102.925 200 109Z M0.008 8.74193e-06L0 8.74228e-06L8.74228e-06 200L200 200C89.876 200 0.00800483 110.417 0.008 8.74193e-06Z M179.933 199C85.7297 189.563 10.4137 114.42 1 20.0043C0.343971 13.4246 0.00800029 6.75124 0.008 8.74193e-06L0 8.74228e-06L8.74228e-06 200L200 200C193.229 200 186.535 199.661 179.933 199ZM171.614 199C83.5333 186.485 13.5081 116.612 1 28.3523L1.00001 199L171.614 199Z M35 8.74228e-06C35 91.127 108.873 165 200 165V175C103.35 175 25 96.6498 25 8.74228e-06H35Z M75 8.74228e-06C75 69.0356 130.964 125 200 125V135C125.442 135 65 74.5584 65 8.74228e-06H75Z M115 8.74228e-06C115 46.9442 153.056 85 200 85V95C147.533 95 105 52.4671 105 8.74228e-06H115Z M155 8.74228e-06C155 24.8528 175.147 45 200 45V55C169.624 55 145 30.3757 145 8.74228e-06H155Z M195 8.74228e-06C195 2.76143 197.239 5.00001 200 5.00001V15C191.716 15 185 8.28428 185 8.74228e-06H195Z" fill="#F3F3F3"/>
  </g>
  <rect x="960" y="640" width="320" height="320" fill="#FFFFFF"/>
  <g transform="translate(960,640) scale(1.6) rotate(180,100,100)">
    <path d="M77 67C77 73.0751 72.0751 78 66 78C59.9249 78 55 73.0751 55 67C55 60.9249 59.9249 56 66 56C72.0751 56 77 60.9249 77 67Z M200 109C200 115.075 195.075 120 189 120C182.925 120 178 115.075 178 109C178 102.925 182.925 98 189 98C195.075 98 200 102.925 200 109Z M0.008 8.74193e-06L0 8.74228e-06L8.74228e-06 200L200 200C89.876 200 0.00800483 110.417 0.008 8.74193e-06Z M179.933 199C85.7297 189.563 10.4137 114.42 1 20.0043C0.343971 13.4246 0.00800029 6.75124 0.008 8.74193e-06L0 8.74228e-06L8.74228e-06 200L200 200C193.229 200 186.535 199.661 179.933 199ZM171.614 199C83.5333 186.485 13.5081 116.612 1 28.3523L1.00001 199L171.614 199Z M35 8.74228e-06C35 91.127 108.873 165 200 165V175C103.35 175 25 96.6498 25 8.74228e-06H35Z M75 8.74228e-06C75 69.0356 130.964 125 200 125V135C125.442 135 65 74.5584 65 8.74228e-06H75Z M115 8.74228e-06C115 46.9442 153.056 85 200 85V95C147.533 95 105 52.4671 105 8.74228e-06H115Z M155 8.74228e-06C155 24.8528 175.147 45 200 45V55C169.624 55 145 30.3757 145 8.74228e-06H155Z M195 8.74228e-06C195 2.76143 197.239 5.00001 200 5.00001V15C191.716 15 185 8.28428 185 8.74228e-06H195Z" fill="#FFA300"/>
  </g>
  <rect x="1280" y="640" width="320" height="320" fill="#F3F3F3"/>
  <g transform="translate(1280,640) scale(1.6) rotate(90,100,100)">
    <path d="M195 5.00003L195 195L5.00001 195L5.00005 5.00001L195 5.00003Z M200 8.74228e-06L8.74228e-06 200V8.74228e-06H200Z M100 200L200 100V200H100Z" fill="#FFA300"/>
  </g>
  <rect x="1600" y="640" width="320" height="320" fill="#121212"/>
  <g transform="translate(1600,640) scale(1.6)">
    <path d="M77 67C77 73.0751 72.0751 78 66 78C59.9249 78 55 73.0751 55 67C55 60.9249 59.9249 56 66 56C72.0751 56 77 60.9249 77 67Z M200 109C200 115.075 195.075 120 189 120C182.925 120 178 115.075 178 109C178 102.925 182.925 98 189 98C195.075 98 200 102.925 200 109Z M0.008 8.74193e-06L0 8.74228e-06L8.74228e-06 200L200 200C89.876 200 0.00800483 110.417 0.008 8.74193e-06Z M179.933 199C85.7297 189.563 10.4137 114.42 1 20.0043C0.343971 13.4246 0.00800029 6.75124 0.008 8.74193e-06L0 8.74228e-06L8.74228e-06 200L200 200C193.229 200 186.535 199.661 179.933 199ZM171.614 199C83.5333 186.485 13.5081 116.612 1 28.3523L1.00001 199L171.614 199Z M35 8.74228e-06C35 91.127 108.873 165 200 165V175C103.35 175 25 96.6498 25 8.74228e-06H35Z M75 8.74228e-06C75 69.0356 130.964 125 200 125V135C125.442 135 65 74.5584 65 8.74228e-06H75Z M115 8.74228e-06C115 46.9442 153.056 85 200 85V95C147.533 95 105 52.4671 105 8.74228e-06H115Z M155 8.74228e-06C155 24.8528 175.147 45 200 45V55C169.624 55 145 30.3757 145 8.74228e-06H155Z M195 8.74228e-06C195 2.76143 197.239 5.00001 200 5.00001V15C191.716 15 185 8.28428 185 8.74228e-06H195Z" fill="#F3F3F3"/>
  </g>
</svg>
