<?xml version='1.0' encoding='UTF-8'?>
<svg xmlns="http://www.w3.org/2000/svg" version="1.1" width="1920" height="960" viewBox="0 0 1920 960">
  <svg x="0.0" y="0.0" width="320.0" height="320.0" viewBox="0 0 200 200"><ns0:g xmlns:ns0="http://www.w3.org/2000/svg" clip-path="url(#clip0_85_2234)">
<ns0:rect width="200" height="200" transform="translate(200 8.74228e-06) rotate(90)" fill="#121212"/>
<ns0:path d="M150 100H200C200 44.772 155.228 8.74228e-06 100 8.74228e-06C44.772 8.74228e-06 8.74228e-06 44.772 8.74228e-06 100H50C50 100 72.384 100 100 100C127.616 100 150 100 150 100Z" fill="#FF4F00"/>
<ns0:path d="M45 200H65V100H45V200Z" fill="#FF4F00"/>
<ns0:path d="M90 200H110V100H90V200Z" fill="#FF4F00"/>
<ns0:path d="M135 200H155V100H135V200Z" fill="#FF4F00"/>
<ns0:path d="M8.74228e-06 200H20V100H8.74228e-06V200Z" fill="#FF4F00"/>
<ns0:path d="M180 200H200V100H180V200Z" fill="#FF4F00"/>
</ns0:g>
<ns1:defs xmlns:ns1="http://www.w3.org/2000/svg">
<ns1:clipPath id="clip0_85_2234">
<ns1:rect width="200" height="200" fill="#FFFFFF" transform="translate(200 8.74228e-06) rotate(90)"/>
</ns1:clipPath>
</ns1:defs>
</svg>
  <svg x="320.0" y="0.0" width="320.0" height="320.0" viewBox="0 0 200 200"><ns2:g xmlns:ns2="http://www.w3.org/2000/svg" clip-path="url(#clip0_20_1274)">
<ns2:rect width="200" height="200" transform="translate(200 8.74228e-06) rotate(90)" fill="#F3F3F3"/>
<ns2:path d="M100 2.18557e-05L100 100L8.74228e-06 200L2.18557e-05 100L3.49691e-05 8.74228e-06L100 2.18557e-05Z" fill="#4997D0"/>
</ns2:g>
<ns3:defs xmlns:ns3="http://www.w3.org/2000/svg">
<ns3:clipPath id="clip0_20_1274">
<ns3:rect width="200" height="200" fill="#FFFFFF" transform="translate(200 8.74228e-06) rotate(90)"/>
</ns3:clipPath>
</ns3:defs>
</svg>
  <svg x="640.0" y="0.0" width="320.0" height="320.0" viewBox="0 0 200 200"><ns4:g xmlns:ns4="http://www.w3.org/2000/svg" clip-path="url(#clip0_4_5449)">
<ns4:rect width="200" height="200" transform="translate(200 1.52588e-05) rotate(90)" fill="#FF4F00"/>
<ns4:path d="M200 3.38562e-05L8.74228e-06 200L3.49691e-05 7.62939e-06L200 3.38562e-05Z" fill="#F3F3F3"/>
<ns4:path d="M150.05 200C105.549 200 83.2634 146.197 114.73 114.73Lnan nanL114.73 114.73C146.197 83.2634 200 105.549 200 150.05L200 200L150.05 200Z" fill="#F3F3F3"/>
</ns4:g>
<ns5:defs xmlns:ns5="http://www.w3.org/2000/svg">
<ns5:clipPath id="clip0_4_5449">
<ns5:rect width="200" height="200" fill="#FFFFFF" transform="translate(200 1.52588e-05) rotate(90)"/>
</ns5:clipPath>
</ns5:defs>
</svg>
  <svg x="960.0" y="0.0" width="320.0" height="320.0" viewBox="0 0 200 200"><ns6:g xmlns:ns6="http://www.w3.org/2000/svg" clip-path="url(#clip0_4_197)">
<ns6:rect width="200" height="200" transform="translate(200 8.74228e-06) rotate(90)" fill="#FF4F00"/>
<ns6:path d="M195 5.00003L195 195L5.00001 195L5.00005 5.00001L195 5.00003Z" fill="#D9D9D6"/>
<ns6:g clip-path="url(#clip1_4_197)">
<ns6:path d="M200 8.74228e-06L8.74228e-06 200V8.74228e-06H200Z" fill="#D9D9D6"/>
<ns6:path d="M100 200L200 100V200H100Z" fill="#D9D9D6"/>
</ns6:g>
</ns6:g>
<ns7:defs xmlns:ns7="http://www.w3.org/2000/svg">
<ns7:clipPath id="clip0_4_197">
<ns7:rect width="200" height="200" fill="#FFFFFF" transform="translate(200 8.74228e-06) rotate(90)"/>
</ns7:clipPath>
<ns7:clipPath id="clip1_4_197">
<ns7:rect width="200" height="200" fill="#FFFFFF"/>
</ns7:clipPath>
</ns7:defs>
</svg>
  <svg x="1280.0" y="0.0" width="320.0" height="320.0" viewBox="0 0 200 200"><ns8:rect xmlns:ns8="http://www.w3.org/2000/svg" width="200" height="200" transform="translate(200 8.74228e-06) rotate(90)" fill="#D9D9D6"/>
<ns9:path xmlns:ns9="http://www.w3.org/2000/svg" d="M100 8.74228e-06H8.74228e-06V100C8.74228e-06 44.772 44.772 8.74228e-06 100 8.74228e-06Z" fill="#FF4F00"/>
</svg>
  <svg x="1600.0" y="0.0" width="320.0" height="320.0" viewBox="0 0 200 200"><ns10:g xmlns:ns10="http://www.w3.org/2000/svg" clip-path="url(#clip0_81_2190)">
<ns10:rect width="200" height="200" transform="translate(200 8.74228e-06) rotate(90)" fill="#121212"/>
<ns10:path d="M200 200C117.157 200 50 200 50 200C50 117.157 117.157 50 200 50C200 50 200 117.157 200 200Z" fill="#4997D0"/>
<ns10:path d="M200 200C158.579 200 125 200 125 200C125 158.579 158.579 125 200 125C200 125 200 158.579 200 200Z" fill="#121212"/>
</ns10:g>
<ns11:defs xmlns:ns11="http://www.w3.org/2000/svg">
<ns11:clipPath id="clip0_81_2190">
<ns11:rect width="200" height="200" fill="#FFFFFF" transform="translate(200 8.74228e-06) rotate(90)"/>
</ns11:clipPath>
</ns11:defs>
</svg>
  <svg x="0.0" y="320.0" width="320.0" height="320.0" viewBox="0 0 200 200"><ns12:rect xmlns:ns12="http://www.w3.org/2000/svg" width="200" height="200" transform="translate(200 8.74228e-06) rotate(90)" fill="#FF4F00"/>
<ns13:path xmlns:ns13="http://www.w3.org/2000/svg" d="M133 116.667H166.333C166.333 79.848 136.485 50 99.6667 50C62.848 50 33 79.848 33 116.667H66.3333C66.3333 135.077 81.256 150 99.6667 150C118.077 150 133 135.077 133 116.667Z" fill="#4997D0"/>
</svg>
  <svg x="320.0" y="320.0" width="320.0" height="320.0" viewBox="0 0 200 200"><ns14:g xmlns:ns14="http://www.w3.org/2000/svg" clip-path="url(#clip0_3_608)">
<ns14:rect width="200" height="200" transform="translate(200 8.74228e-06) rotate(90)" fill="#FFFFFF"/>
<ns14:path d="M200 2.73397e-05L200 100L8.74228e-06 200L3.49691e-05 1.11288e-06L200 2.73397e-05Z" fill="#121212"/>
</ns14:g>
<ns15:defs xmlns:ns15="http://www.w3.org/2000/svg">
<ns15:clipPath id="clip0_3_608">
<ns15:rect width="200" height="200" fill="#FFFFFF" transform="translate(200 8.74228e-06) rotate(90)"/>
</ns15:clipPath>
</ns15:defs>
</svg>
  <svg x="640.0" y="320.0" width="320.0" height="320.0" viewBox="0 0 200 200"><ns16:g xmlns:ns16="http://www.w3.org/2000/svg" clip-path="url(#clip0_75_3747)">
<ns16:rect width="200" height="200" transform="translate(200 8.74228e-06) rotate(90)" fill="#4997D0"/>
<ns16:path d="M99.972 100L100 199.972L1.74846e-05 200C-0.0159862 144.787 44.744 100.016 99.972 100Z" fill="#D9D9D6"/>
</ns16:g>
<ns17:defs xmlns:ns17="http://www.w3.org/2000/svg">
<ns17:clipPath id="clip0_75_3747">
<ns17:rect width="200" height="200" fill="#FFFFFF" transform="translate(200 8.74228e-06) rotate(90)"/>
</ns17:clipPath>
</ns17:defs>
</svg>
  <svg x="960.0" y="320.0" width="320.0" height="320.0" viewBox="0 0 200 200"><ns18:g xmlns:ns18="http://www.w3.org/2000/svg" clip-path="url(#clip0_74_2298)">
<ns18:rect width="200" height="200" transform="translate(200 8.74228e-06) rotate(90)" fill="#D9D9D6"/>
<ns18:path d="M328.568 344.504C312 297.912 258.776 275.864 214.104 297.096C143.176 330.808 69.184 256.816 102.904 185.896C124.136 141.232 102.088 88.008 55.496 71.432C21.216 59.24 2.82401 30.24 0.312014 8.746e-06L1.35122e-05 8.74228e-06L8.74228e-06 400L400 400L400 399.688C369.76 397.168 340.76 378.784 328.568 344.504Z" fill="#FF4F00"/>
</ns18:g>
<ns19:defs xmlns:ns19="http://www.w3.org/2000/svg">
<ns19:clipPath id="clip0_74_2298">
<ns19:rect width="200" height="200" fill="#FFFFFF" transform="translate(200 8.74228e-06) rotate(90)"/>
</ns19:clipPath>
</ns19:defs>
</svg>
  <svg x="1280.0" y="320.0" width="320.0" height="320.0" viewBox="0 0 200 200"><ns20:g xmlns:ns20="http://www.w3.org/2000/svg" clip-path="url(#clip0_2403_2993)">
<ns20:rect width="200" height="200" transform="translate(200 8.74228e-06) rotate(90)" fill="#FFFFFF"/>
<ns20:path fill-rule="evenodd" clip-rule="evenodd" d="M100 100L200 2.62268e-05L3.92599e-05 0L1.52588e-05 200L200 200L100 100Z" fill="#4997D0"/>
</ns20:g>
<ns21:defs xmlns:ns21="http://www.w3.org/2000/svg">
<ns21:clipPath id="clip0_2403_2993">
<ns21:rect width="200" height="200" fill="#FFFFFF" transform="translate(200 8.74228e-06) rotate(90)"/>
</ns21:clipPath>
</ns21:defs>
</svg>
  <svg x="1600.0" y="320.0" width="320.0" height="320.0" viewBox="0 0 200 200"><ns22:rect xmlns:ns22="http://www.w3.org/2000/svg" width="200" height="200" transform="translate(200 1.52588e-05) rotate(90)" fill="#D9D9D6"/>
<ns23:path xmlns:ns23="http://www.w3.org/2000/svg" d="M150 1.52588e-05H8.74228e-06V150C8.74228e-06 67.158 67.158 1.52588e-05 150 1.52588e-05Z" fill="#FF4F00"/>
</svg>
  <svg x="0.0" y="640.0" width="320.0" height="320.0" viewBox="0 0 200 200"><ns24:g xmlns:ns24="http://www.w3.org/2000/svg" clip-path="url(#clip0_81_2189)">
<ns24:rect width="200" height="200" transform="translate(200 8.74228e-06) rotate(90)" fill="#121212"/>
<ns24:path d="M2.18557e-06 200C5.80674e-06 117.157 8.74228e-06 50 8.74228e-06 50C82.8427 50 150 117.157 150 200C150 200 82.8427 200 2.18557e-06 200Z" fill="#F3F3F3"/>
<ns24:path d="M5.46392e-06 200C7.27451e-06 158.579 8.74228e-06 125 8.74228e-06 125C41.4214 125 75 158.579 75 200C75 200 41.4214 200 5.46392e-06 200Z" fill="#121212"/>
<ns24:path d="M200 200L200 8.74228e-06L2.40011e-05 0C110.456 4.82819e-06 200 89.544 200 200Z" fill="#F3F3F3"/>
</ns24:g>
<ns25:defs xmlns:ns25="http://www.w3.org/2000/svg">
<ns25:clipPath id="clip0_81_2189">
<ns25:rect width="200" height="200" fill="#FFFFFF" transform="translate(200 8.74228e-06) rotate(90)"/>
</ns25:clipPath>
</ns25:defs>
</svg>
  <svg x="320.0" y="640.0" width="320.0" height="320.0" viewBox="0 0 200 200"><ns26:g xmlns:ns26="http://www.w3.org/2000/svg" clip-path="url(#clip0_3_497)">
<ns26:rect width="200" height="200" fill="#121212"/>
<ns26:path d="M200 0H0V200C0 89.544 89.544 0 200 0Z" fill="#FF4F00"/>
<ns26:path d="M100 58.3333C76.9891 58.3333 58.3334 76.9841 58.3334 100C58.3334 123.016 76.9891 141.667 100 141.667C111.508 141.667 121.925 137.004 129.464 129.464C137.004 121.925 141.667 111.508 141.667 100C141.667 76.9841 123.011 58.3333 100 58.3333Z" fill="#FF4F00"/>
</ns26:g>
<ns27:defs xmlns:ns27="http://www.w3.org/2000/svg">
<ns27:clipPath id="clip0_3_497">
<ns27:rect width="200" height="200" fill="#FFFFFF"/>
</ns27:clipPath>
</ns27:defs>
</svg>
  <svg x="640.0" y="640.0" width="320.0" height="320.0" viewBox="0 0 200 200"><ns28:g xmlns:ns28="http://www.w3.org/2000/svg" clip-path="url(#clip0_25_1201)">
<ns28:rect width="200" height="200" transform="translate(200 8.74228e-06) rotate(90)" fill="#F3F3F3"/>
<ns28:path d="M200 50L200 150L8.74228e-06 150L3.49691e-05 50L200 50Z" fill="#121212"/>
</ns28:g>
<ns29:defs xmlns:ns29="http://www.w3.org/2000/svg">
<ns29:clipPath id="clip0_25_1201">
<ns29:rect width="200" height="200" fill="#FFFFFF" transform="translate(200 8.74228e-06) rotate(90)"/>
</ns29:clipPath>
</ns29:defs>
</svg>
  <svg x="960.0" y="640.0" width="320.0" height="320.0" viewBox="0 0 200 200"><ns30:g xmlns:ns30="http://www.w3.org/2000/svg" clip-path="url(#clip0_35_1274)">
<ns30:rect width="200" height="200" transform="translate(200 8.74228e-06) rotate(90)" fill="#FFFFFF"/>
<ns30:path d="M200 9.16683e-06C200 9.16683e-06 169.709 10 100 10C30.2914 10 69.7086 10 8.74228e-06 10L2.33419e-05 -1.41459e-05L100 -2.48954e-06L200 9.16683e-06Z" fill="#4997D0"/>
</ns30:g>
<ns31:defs xmlns:ns31="http://www.w3.org/2000/svg">
<ns31:clipPath id="clip0_35_1274">
<ns31:rect width="200" height="200" fill="#FFFFFF" transform="translate(200 8.74228e-06) rotate(90)"/>
</ns31:clipPath>
</ns31:defs>
</svg>
  <svg x="1280.0" y="640.0" width="320.0" height="320.0" viewBox="0 0 200 200"><ns32:rect xmlns:ns32="http://www.w3.org/2000/svg" width="200" height="200" transform="translate(8.74228e-06 200) rotate(-90)" fill="#F3F3F3"/>
<ns33:g xmlns:ns33="http://www.w3.org/2000/svg" clip-path="url(#clip0_4_30)">
<ns33:path d="M0.008 8.74193e-06L0 8.74228e-06L8.74228e-06 200L200 200C89.876 200 0.00800483 110.417 0.008 8.74193e-06Z" fill="#FF4F00"/>
<ns33:path fill-rule="evenodd" clip-rule="evenodd" d="M40 8.74228e-06C40 88.3656 111.634 160 200 160V180C100.589 180 20 99.4113 20 8.74228e-06H40Z" fill="#FF4F00"/>
</ns33:g>
<ns34:path xmlns:ns34="http://www.w3.org/2000/svg" fill-rule="evenodd" clip-rule="evenodd" d="M80 8.74228e-06C80 66.2742 133.726 120 200 120V140C122.68 140 60 77.3199 60 8.74228e-06H80Z" fill="#FF4F00"/>
<ns35:path xmlns:ns35="http://www.w3.org/2000/svg" fill-rule="evenodd" clip-rule="evenodd" d="M120 8.74228e-06C120 44.1828 155.817 80 200 80V100C144.772 100 100 55.2285 100 8.74228e-06H120Z" fill="#FF4F00"/>
<ns36:path xmlns:ns36="http://www.w3.org/2000/svg" fill-rule="evenodd" clip-rule="evenodd" d="M160 8.74228e-06C160 22.0914 177.909 40 200 40V60C166.863 60 140 33.1371 140 8.74228e-06H160Z" fill="#FF4F00"/>
<ns37:path xmlns:ns37="http://www.w3.org/2000/svg" fill-rule="evenodd" clip-rule="evenodd" d="M180 8.74228e-06H200V20C188.954 20 180 11.0457 180 8.74228e-06Z" fill="#FF4F00"/>
<ns38:defs xmlns:ns38="http://www.w3.org/2000/svg">
<ns38:clipPath id="clip0_4_30">
<ns38:rect width="200" height="200" fill="#FFFFFF" transform="translate(8.74228e-06 200) rotate(-90)"/>
</ns38:clipPath>
</ns38:defs>
</svg>
  <svg x="1600.0" y="640.0" width="320.0" height="320.0" viewBox="0 0 200 200"><ns39:g xmlns:ns39="http://www.w3.org/2000/svg" clip-path="url(#clip0_5_5485)">
<ns39:rect width="200" height="200" transform="translate(200 8.74228e-06) rotate(90)" fill="#F3F3F3"/>
<ns39:path d="M150.05 200C105.549 200 83.2634 146.197 114.73 114.73Lnan nanL114.73 114.73C146.197 83.2634 200 105.549 200 150.05L200 200L150.05 200Z" fill="#4997D0"/>
</ns39:g>
<ns40:defs xmlns:ns40="http://www.w3.org/2000/svg">
<ns40:clipPath id="clip0_5_5485">
<ns40:rect width="200" height="200" fill="#FFFFFF" transform="translate(200 8.74228e-06) rotate(90)"/>
</ns40:clipPath>
</ns40:defs>
</svg>
</svg>
