<?xml version='1.0' encoding='UTF-8'?>
<svg xmlns="http://www.w3.org/2000/svg" version="1.1" width="1920" height="960" viewBox="0 0 1920 960">
  <rect x="0" y="0" width="320" height="320" fill="#FF4F00"/>
  <svg x="0" y="0" width="320" height="320" viewBox="0 0 200 200" overflow="hidden"><path xmlns="http://www.w3.org/2000/svg" d="M100.0,100.0 A50.0,50.0 0 1,0 200.0,100.0 A50.0,50.0 0 1,0 100.0,100.0 Z M100.0,1.11288e-06 A50.0,50.0 0 1,0 200.0,1.11288e-06 A50.0,50.0 0 1,0 100.0,1.11288e-06 Z M100.0,200.0 A50.0,50.0 0 1,0 200.0,200.0 A50.0,50.0 0 1,0 100.0,200.0 Z M200.0000,0.0000 L150.0000,0.0000 L150.0000,0.3125 L150.0000,2.0312 L150.0000,3.7500 L150.0000,5.4688 L150.0000,7.1875 L150.0000,8.9062 L150.0000,10.6250 L150.0000,12.3438 L150.0000,14.0625 L150.0000,15.7812 L150.0000,17.5000 L150.0000,19.2188 L150.0000,20.9375 L150.0000,22.6562 L150.0000,24.3750 L150.0000,26.0938 L150.0000,27.8125 L150.0000,29.5312 L150.0000,31.2500 L150.0000,32.9688 L150.0000,34.6875 L150.0000,36.4062 L150.0000,38.1250 L150.0000,39.8438 L150.0000,41.5625 L150.0000,43.2812 L150.0000,45.0000 L150.0000,46.7188 L150.0000,48.4375 L150.0000,50.1562 L150.0000,51.8750 L150.0000,53.5938 L150.0000,55.3125 L150.0000,57.0312 L150.0000,58.7500 L150.0000,60.4688 L150.0000,62.1875 L150.0000,63.9062 L150.0000,65.6250 L150.0000,67.3438 L150.0000,69.0625 L150.0000,70.7812 L150.0000,72.5000 L150.0000,74.2188 L150.0000,75.9375 L150.0000,77.6562 L150.0000,79.3750 L150.0000,81.0938 L150.0000,82.8125 L150.0000,84.5312 L150.0000,86.2500 L150.0000,87.9688 L150.0000,89.6875 L150.0000,91.4062 L150.0000,93.1250 L150.0000,94.8438 L150.0000,96.5625 L150.0000,98.2812 L150.0000,100.0000 L150.0000,101.7188 L150.0000,103.4375 L150.0000,105.1562 L150.0000,106.8750 L150.0000,108.5938 L150.0000,110.3125 L150.0000,112.0312 L150.0000,113.7500 L150.0000,115.4688 L150.0000,117.1875 L150.0000,118.9062 L150.0000,120.6250 L150.0000,122.3438 L150.0000,124.0625 L150.0000,125.7812 L150.0000,127.5000 L150.0000,129.2188 L150.0000,130.9375 L150.0000,132.6562 L150.0000,134.3750 L150.0000,136.0938 L150.0000,137.8125 L150.0000,139.5312 L150.0000,141.2500 L150.0000,142.9688 L150.0000,144.6875 L150.0000,146.4062 L150.0000,148.1250 L150.0000,149.8438 L150.0000,151.5625 L150.0000,153.2812 L150.0000,155.0000 L150.0000,156.7188 L150.0000,158.4375 L150.0000,160.1562 L150.0000,161.8750 L150.0000,163.5938 L150.0000,165.3125 L150.0000,167.0312 L150.0000,168.7500 L150.0000,170.4688 L150.0000,172.1875 L150.0000,173.9062 L150.0000,175.6250 L150.0000,177.3438 L150.0000,179.0625 L150.0000,180.7812 L150.0000,182.5000 L150.0000,184.2188 L150.0000,185.9375 L150.0000,187.6562 L150.0000,189.3750 L150.0000,191.0938 L150.0000,192.8125 L150.0000,194.5312 L150.0000,196.2500 L150.0000,197.9688 L150.0000,199.6875 L150.0000,200.0000 L200.0000,200.0000 L200.0000,199.6875 L200.0000,197.9688 L200.0000,196.2500 L200.0000,194.5312 L200.0000,192.8125 L200.0000,191.0938 L200.0000,189.3750 L200.0000,187.6562 L200.0000,185.9375 L200.0000,184.2188 L200.0000,182.5000 L200.0000,180.7812 L200.0000,179.0625 L200.0000,177.3438 L200.0000,175.6250 L200.0000,173.9062 L200.0000,172.1875 L200.0000,170.4688 L200.0000,168.7500 L200.0000,167.0312 L200.0000,165.3125 L200.0000,163.5938 L200.0000,161.8750 L200.0000,160.1562 L200.0000,158.4375 L200.0000,156.7188 L200.0000,155.0000 L200.0000,153.2812 L200.0000,151.5625 L200.0000,149.8438 L200.0000,148.1250 L200.0000,146.4062 L200.0000,144.6875 L200.0000,142.9688 L200.0000,141.2500 L200.0000,139.5312 L200.0000,137.8125 L200.0000,136.0938 L200.0000,134.3750 L200.0000,132.6562 L200.0000,130.9375 L200.0000,129.2188 L200.0000,127.5000 L200.0000,125.7812 L200.0000,124.0625 L200.0000,122.3438 L200.0000,120.6250 L200.0000,118.9062 L200.0000,117.1875 L200.0000,115.4688 L200.0000,113.7500 L200.0000,112.0312 L200.0000,110.3125 L200.0000,108.5938 L200.0000,106.8750 L200.0000,105.1562 L200.0000,103.4375 L200.0000,101.7188 L200.0000,100.0000 L200.0000,98.2812 L200.0000,96.5625 L200.0000,94.8438 L200.0000,93.1250 L200.0000,91.4062 L200.0000,89.6875 L200.0000,87.9688 L200.0000,86.2500 L200.0000,84.5312 L200.0000,82.8125 L200.0000,81.0938 L200.0000,79.3750 L200.0000,77.6562 L200.0000,75.9375 L200.0000,74.2188 L200.0000,72.5000 L200.0000,70.7812 L200.0000,69.0625 L200.0000,67.3438 L200.0000,65.6250 L200.0000,63.9062 L200.0000,62.1875 L200.0000,60.4688 L200.0000,58.7500 L200.0000,57.0312 L200.0000,55.3125 L200.0000,53.5938 L200.0000,51.8750 L200.0000,50.1562 L200.0000,48.4375 L200.0000,46.7188 L200.0000,45.0000 L200.0000,43.2812 L200.0000,41.5625 L200.0000,39.8438 L200.0000,38.1250 L200.0000,36.4062 L200.0000,34.6875 L200.0000,32.9688 L200.0000,31.2500 L200.0000,29.5312 L200.0000,27.8125 L200.0000,26.0938 L200.0000,24.3750 L200.0000,22.6562 L200.0000,20.9375 L200.0000,19.2188 L200.0000,17.5000 L200.0000,15.7812 L200.0000,14.0625 L200.0000,12.3438 L200.0000,10.6250 L200.0000,8.9062 L200.0000,7.1875 L200.0000,5.4688 L200.0000,3.7500 L200.0000,2.0312 L200.0000,0.3125 Z" fill="#121212" transform="rotate(90,100,100)"/>
</svg>
  <rect x="320" y="0" width="320" height="320" fill="#FFFFFF"/>
  <svg x="320" y="0" width="320" height="320" viewBox="0 0 200 200" overflow="hidden"><path xmlns="http://www.w3.org/2000/svg" d="M125 75L125 125L75 125L75 75L125 75Z" fill="#FF4F00"/>
</svg>
  <rect x="640" y="0" width="320" height="320" fill="#FF4F00"/>
  <svg x="640" y="0" width="320" height="320" viewBox="0 0 200 200" overflow="hidden"><path xmlns="http://www.w3.org/2000/svg" d="M175.025 200C152.775 200 141.632 173.098 157.365 157.365L157.365 157.365C173.098 141.632 200 152.775 200 175.025L200 200L175.025 200Z" fill="#F3F3F3"/>
</svg>
  <rect x="960" y="0" width="320" height="320" fill="#FFFFFF"/>
  <svg x="960" y="0" width="320" height="320" viewBox="0 0 200 200" overflow="hidden"><path xmlns="http://www.w3.org/2000/svg" d="M150.05 200C105.549 200 83.2634 146.197 114.73 114.73L114.73 114.73C146.197 83.2634 200 105.549 200 150.05L200 200L150.05 200Z" fill="#FF4F00"/>
</svg>
  <rect x="1280" y="0" width="320" height="320" fill="#121212"/>
  <svg x="1280" y="0" width="320" height="320" viewBox="0 0 200 200" overflow="hidden"><path xmlns="http://www.w3.org/2000/svg" d="M200 200C132.395 150.473 132.395 49.5275 200 2.62268e-05L-5.22929e-05 0L-6.10352e-05 200L200 200Z" fill="#D9D9D6" transform="rotate(180,100,100)"/>
</svg>
  <rect x="1600" y="0" width="320" height="320" fill="#F3F3F3"/>
  <svg x="1600" y="0" width="320" height="320" viewBox="0 0 200 200" overflow="hidden"><path xmlns="http://www.w3.org/2000/svg" d="M200 9.16683e-06C200 9.16683e-06 169.709 10 100 10C30.2914 10 69.7086 10 8.74228e-06 10L2.33419e-05 -1.41459e-05L100 -2.48954e-06L200 9.16683e-06Z" fill="#D9D9D6"/>
</svg>
  <rect x="0" y="320" width="320" height="320" fill="#F3F3F3"/>
  <svg x="0" y="320" width="320" height="320" viewBox="0 0 200 200" overflow="hidden"><path xmlns="http://www.w3.org/2000/svg" d="M75.0,100.0 A25.0,25.0 0 1,0 125.0,100.0 A25.0,25.0 0 1,0 75.0,100.0 Z" fill="#FF4F00"/>
</svg>
  <rect x="320" y="320" width="320" height="320" fill="#FF4F00"/>
  <svg x="320" y="320" width="320" height="320" viewBox="0 0 200 200" overflow="hidden"><path xmlns="http://www.w3.org/2000/svg" d="M200 25L200 175L8.74228e-06 175L4.15258e-05 25L200 25Z" fill="#FFFFFF" transform="rotate(90,100,100)"/>
</svg>
  <rect x="640" y="320" width="320" height="320" fill="#F3F3F3"/>
  <svg x="640" y="320" width="320" height="320" viewBox="0 0 200 200" overflow="hidden"><path xmlns="http://www.w3.org/2000/svg" d="M200 3.49691e-05L8.74228e-06 200L3.49691e-05 8.74228e-06L200 3.49691e-05Z M50 200L200 50L200 200L50 200Z" fill="#121212" transform="rotate(180,100,100)"/>
</svg>
  <rect x="960" y="320" width="320" height="320" fill="#121212"/>
  <svg x="960" y="320" width="320" height="320" viewBox="0 0 200 200" overflow="hidden"><path xmlns="http://www.w3.org/2000/svg" d="M164.284 172.252C156 148.956 129.388 137.932 107.052 148.548C71.588 165.404 34.592 128.408 51.452 92.948C62.068 70.616 51.044 44.004 27.748 35.716C10.608 29.62 1.41201 15.12 0.156011 8.74414e-06L1.11273e-05 8.74228e-06L8.74228e-06 200L200 200L200 199.844C184.88 198.584 170.38 189.392 164.284 172.252Z" fill="#D9D9D6"/>
</svg>
  <rect x="1280" y="320" width="320" height="320" fill="#121212"/>
  <svg x="1280" y="320" width="320" height="320" viewBox="0 0 200 200" overflow="hidden"><path xmlns="http://www.w3.org/2000/svg" d="M150 100H200C200 44.772 155.228 8.74228e-06 100 8.74228e-06C44.772 8.74228e-06 8.74228e-06 44.772 8.74228e-06 100H50C50 100 72.384 100 100 100C127.616 100 150 100 150 100Z M45 200H65V100H45V200Z M90 200H110V100H90V200Z M135 200H155V100H135V200Z M8.74228e-06 200H20V100H8.74228e-06V200Z M180 200H200V100H180V200Z" fill="#F3F3F3" transform="rotate(270,100,100)"/>
</svg>
  <rect x="1600" y="320" width="320" height="320" fill="#121212"/>
  <svg x="1600" y="320" width="320" height="320" viewBox="0 0 200 200" overflow="hidden"><path xmlns="http://www.w3.org/2000/svg" d="M100 100L200 2.62268e-05L3.92599e-05 0L1.52588e-05 200L200 200L100 100Z" fill="#F3F3F3" transform="rotate(90,100,100)"/>
</svg>
  <rect x="0" y="640" width="320" height="320" fill="#FF4F00"/>
  <rect x="320" y="640" width="320" height="320" fill="#4997D0"/>
  <svg x="320" y="640" width="320" height="320" viewBox="0 0 200 200" overflow="hidden"><path xmlns="http://www.w3.org/2000/svg" d="M2.18557e-06 200C5.80674e-06 117.157 8.74228e-06 50 8.74228e-06 50C82.8427 50 150 117.157 150 200C150 200 82.8427 200 2.18557e-06 200Z M200 200L200 8.74228e-06L2.40011e-05 0C110.456 4.82819e-06 200 89.544 200 200Z M5.46392e-06 200C7.27451e-06 158.579 8.74228e-06 125 8.74228e-06 125C41.4214 125 75 158.579 75 200C75 200 41.4214 200 5.46392e-06 200Z" fill="#FFFFFF" fill-rule="evenodd" transform="rotate(270,100,100)"/>
</svg>
  <rect x="640" y="640" width="320" height="320" fill="#121212"/>
  <svg x="640" y="640" width="320" height="320" viewBox="0 0 200 200" overflow="hidden"><path xmlns="http://www.w3.org/2000/svg" d="M200 2.73397e-05L200 100L8.74228e-06 200L3.49691e-05 1.11288e-06L200 2.73397e-05Z" fill="#FF4F00"/>
</svg>
  <rect x="960" y="640" width="320" height="320" fill="#4997D0"/>
  <svg x="960" y="640" width="320" height="320" viewBox="0 0 200 200" overflow="hidden"><path xmlns="http://www.w3.org/2000/svg" d="M0.0,100.0 A100.0,50.0 0 1,0 200.0,100.0 A100.0,50.0 0 1,0 0.0,100.0 Z" fill="#FFFFFF" transform="rotate(90,100,100)"/>
</svg>
  <rect x="1280" y="640" width="320" height="320" fill="#121212"/>
  <svg x="1280" y="640" width="320" height="320" viewBox="0 0 200 200" overflow="hidden"><path xmlns="http://www.w3.org/2000/svg" d="M200 0H0V200C0 89.544 89.544 0 200 0Z M141.42 141.42C105.228 177.616 55.228 200 0 200H200V0C200 55.228 177.616 105.228 141.42 141.42Z" fill="#FF4F00" transform="rotate(180,100,100)"/>
</svg>
  <rect x="1600" y="640" width="320" height="320" fill="#121212"/>
  <svg x="1600" y="640" width="320" height="320" viewBox="0 0 200 200" overflow="hidden"><path xmlns="http://www.w3.org/2000/svg" d="M200 9.16684e-06L200 9.16684e-06C200 5.52286 195.523 10 190 10L8.74228e-06 10L2.33419e-05 -1.41459e-05L200 9.16684e-06Z" fill="#FF4F00"/>
</svg>
</svg>
