<?xml version='1.0' encoding='UTF-8'?>
<svg xmlns="http://www.w3.org/2000/svg" version="1.1" width="1920" height="960" viewBox="0 0 1920 960">
  <rect x="0" y="0" width="320" height="320" fill="#FFFFFF"/>
  <g transform="translate(0,0) scale(1.6) rotate(90,100,100)"><path xmlns="http://www.w3.org/2000/svg" d="M200 200C132.395 150.473 132.395 49.5275 200 2.62268e-05L-5.22929e-05 0L-6.10352e-05 200L200 200Z" fill="#121212"/>
</g>
  <rect x="320" y="0" width="320" height="320" fill="#FFFFFF"/>
  <g transform="translate(320,0) scale(1.6) rotate(90,100,100)"><path xmlns="http://www.w3.org/2000/svg" d="M4.37118e-07 190L-3.05176e-05 200L200 200L200 8.74228e-06L190 8.74524e-06C189.97 104.933 104.904 190.03 4.37118e-07 190Z" fill="#121212"/>
</g>
  <rect x="640" y="0" width="320" height="320" fill="#FFFFFF"/>
  <g transform="translate(640,0) scale(1.6) rotate(180,100,100)"><path xmlns="http://www.w3.org/2000/svg" d="M200 200C132.395 150.473 132.395 49.5275 200 2.62268e-05L-5.22929e-05 0L-6.10352e-05 200L200 200Z" fill="#121212"/>
</g>
  <rect x="960" y="0" width="320" height="320" fill="#FFFFFF"/>
  <g transform="translate(960,0) scale(1.6) rotate(180,100,100)"><path xmlns="http://www.w3.org/2000/svg" d="M200 3.49691e-05L200 3.49691e-05C144.149 43.2927 80.768 75.8745 13.0589 96.0993L8.74228e-06 100L2.73743e-05 8.74228e-06L200 3.49691e-05Z" fill="#121212"/>
</g>
  <rect x="1280" y="0" width="320" height="320" fill="#FFFFFF"/>
  <g transform="translate(1280,0) scale(1.6) rotate(90,100,100)"><path xmlns="http://www.w3.org/2000/svg" d="M150 1.52588e-05H8.74228e-06V150C8.74228e-06 67.158 67.158 1.52588e-05 150 1.52588e-05Z" fill="#121212"/>
</g>
  <rect x="1600" y="0" width="320" height="320" fill="#FFFFFF"/>
  <g transform="translate(1600,0) scale(1.6)"><path xmlns="http://www.w3.org/2000/svg" d="M100 8.74228e-06H8.74228e-06V100C8.74228e-06 44.772 44.772 8.74228e-06 100 8.74228e-06Z" fill="#121212"/>
</g>
  <rect x="0" y="320" width="320" height="320" fill="#FFFFFF"/>
  <g transform="translate(0,320) scale(1.6)"><path xmlns="http://www.w3.org/2000/svg" d="M200 0H0V200C0 89.544 89.544 0 200 0Z" fill="#121212"/>
</g>
  <rect x="320" y="320" width="320" height="320" fill="#FFFFFF"/>
  <g transform="translate(320,320) scale(1.6) rotate(90,100,100)"><path xmlns="http://www.w3.org/2000/svg" d="M2.18557e-06 150L0 200L200 200L200 8.74228e-06L150 0.0373421C150 91.5 75 150 2.18557e-06 150Z" fill="#121212"/>
</g>
  <rect x="640" y="320" width="320" height="320" fill="#121212"/>
  <g transform="translate(640,320) scale(1.6) rotate(180,100,100)"><path xmlns="http://www.w3.org/2000/svg" d="M200 200C132.395 150.473 132.395 49.5275 200 2.62268e-05L-5.22929e-05 0L-6.10352e-05 200L200 200Z" fill="#FF4F00"/>
</g>
  <rect x="960" y="320" width="320" height="320" fill="#FFFFFF"/>
  <g transform="translate(960,320) scale(1.6)"><path xmlns="http://www.w3.org/2000/svg" d="M200 3.49691e-05L200 3.49691e-05C144.149 43.2927 80.768 75.8745 13.0589 96.0993L8.74228e-06 100L2.73743e-05 8.74228e-06L200 3.49691e-05Z" fill="#121212"/>
</g>
  <rect x="1280" y="320" width="320" height="320" fill="#FFFFFF"/>
  <g transform="translate(1280,320) scale(1.6) rotate(90,100,100)"><path xmlns="http://www.w3.org/2000/svg" d="M4.37118e-07 190L-3.05176e-05 200L200 200L200 8.74228e-06L190 8.74524e-06C189.97 104.933 104.904 190.03 4.37118e-07 190Z" fill="#121212"/>
</g>
  <rect x="1600" y="320" width="320" height="320" fill="#FFFFFF"/>
  <g transform="translate(1600,320) scale(1.6)"><path xmlns="http://www.w3.org/2000/svg" d="M200 3.49691e-05L200 3.49691e-05C144.149 43.2927 80.768 75.8745 13.0589 96.0993L8.74228e-06 100L2.73743e-05 8.74228e-06L200 3.49691e-05Z" fill="#121212"/>
</g>
  <rect x="0" y="640" width="320" height="320" fill="#FFFFFF"/>
  <g transform="translate(0,640) scale(1.6) rotate(180,100,100)"><path xmlns="http://www.w3.org/2000/svg" d="M200 200C132.395 150.473 132.395 49.5275 200 2.62268e-05L-5.22929e-05 0L-6.10352e-05 200L200 200Z" fill="#121212"/>
</g>
  <rect x="320" y="640" width="320" height="320" fill="#F3F3F3"/>
  <g transform="translate(320,640) scale(1.6) rotate(90,100,100)"><path xmlns="http://www.w3.org/2000/svg" d="M4.37118e-07 190L-3.05176e-05 200L200 200L200 8.74228e-06L190 8.74524e-06C189.97 104.933 104.904 190.03 4.37118e-07 190Z" fill="#121212"/>
</g>
  <rect x="640" y="640" width="320" height="320" fill="#FFFFFF"/>
  <g transform="translate(640,640) scale(1.6) rotate(180,100,100)"><path xmlns="http://www.w3.org/2000/svg" d="M150 1.52588e-05H8.74228e-06V150C8.74228e-06 67.158 67.158 1.52588e-05 150 1.52588e-05Z" fill="#121212"/>
</g>
  <rect x="960" y="640" width="320" height="320" fill="#FFFFFF"/>
  <g transform="translate(960,640) scale(1.6) rotate(180,100,100)"><path xmlns="http://www.w3.org/2000/svg" d="M150 1.52588e-05H8.74228e-06V150C8.74228e-06 67.158 67.158 1.52588e-05 150 1.52588e-05Z" fill="#121212"/>
</g>
  <rect x="1280" y="640" width="320" height="320" fill="#FFFFFF"/>
  <g transform="translate(1280,640) scale(1.6) rotate(90,100,100)"><path xmlns="http://www.w3.org/2000/svg" d="M200 200C132.395 150.473 132.395 49.5275 200 2.62268e-05L-5.22929e-05 0L-6.10352e-05 200L200 200Z" fill="#121212"/>
</g>
  <rect x="1600" y="640" width="320" height="320" fill="#FFFFFF"/>
  <g transform="translate(1600,640) scale(1.6)"><path xmlns="http://www.w3.org/2000/svg" d="M100 8.74228e-06H8.74228e-06V100C8.74228e-06 44.772 44.772 8.74228e-06 100 8.74228e-06Z" fill="#121212"/>
</g>
</svg>
