<?xml version='1.0' encoding='UTF-8'?>
<svg xmlns="http://www.w3.org/2000/svg" version="1.1" width="1920" height="960" viewBox="0 0 1920 960">
  <rect x="0" y="0" width="320" height="320" fill="#FF4F00"/>
  <g transform="translate(0,0) scale(1.6)">
    <path d="M200 200C144.772 200 8.74228e-06 200 8.74228e-06 200C8.74228e-06 144.772 44.7715 100 100 100C155.228 100 200 144.772 200 200Z M1.74846e-05 -8.74228e-06C55.2285 -3.91405e-06 200 8.74228e-06 200 8.74228e-06C200 55.2285 155.228 100 100 100C44.7715 100 1.26563e-05 55.2285 1.74846e-05 -8.74228e-06Z" fill="#FFFFFF"/>
  </g>
  <rect x="320" y="0" width="320" height="320" fill="#121212"/>
  <g transform="translate(320,0) scale(1.6) rotate(90,100,100)">
    <path d="M1.0968e-05 6.67572e-06L1.0968e-05 6.67572e-06C43.2927 55.8508 75.8745 119.232 96.0993 186.941L100 200L-6.51651e-06 200L1.0968e-05 6.67572e-06Z M199.972 100L200 0.0280229L100 1.43051e-05C99.984 55.2126 144.744 99.984 199.972 100Z" fill="#FFA300"/>
  </g>
  <rect x="640" y="0" width="320" height="320" fill="#4997D0"/>
  <g transform="translate(640,0) scale(1.6) rotate(180,100,100)">
    <path d="M200 200C144.772 200 8.74228e-06 200 8.74228e-06 200C8.74228e-06 144.772 44.7715 100 100 100C155.228 100 200 144.772 200 200Z M1.74846e-05 -8.74228e-06C55.2285 -3.91405e-06 200 8.74228e-06 200 8.74228e-06C200 55.2285 155.228 100 100 100C44.7715 100 1.26563e-05 55.2285 1.74846e-05 -8.74228e-06Z" fill="#FFFFFF"/>
  </g>
  <rect x="960" y="0" width="320" height="320" fill="#F3F3F3"/>
  <g transform="translate(960,0) scale(1.6) rotate(270,100,100)">
    <path d="M1.0968e-05 6.67572e-06L1.0968e-05 6.67572e-06C43.2927 55.8508 75.8745 119.232 96.0993 186.941L100 200L-6.51651e-06 200L1.0968e-05 6.67572e-06Z M199.972 100L200 0.0280229L100 1.43051e-05C99.984 55.2126 144.744 99.984 199.972 100Z" fill="#FF4F00"/>
  </g>
  <rect x="1280" y="0" width="320" height="320" fill="#F3F3F3"/>
  <g transform="translate(1280,0) scale(1.6)">
    <path d="M200 0.0560087L0.0560085 2.44783e-09L0 200C110.425 200.032 199.968 110.512 200 0.0560087Z M45.0,65.0 A25.0,25.0 0 1,0 95.0,65.0 A25.0,25.0 0 1,0 45.0,65.0 Z M20.0,65.0 A50.0,25.0 0 1,0 120.0,65.0 A50.0,25.0 0 1,0 20.0,65.0 Z" fill="#FFA300" fill-rule="evenodd"/>
  </g>
  <rect x="1600" y="0" width="320" height="320" fill="#4997D0"/>
  <g transform="translate(1600,0) scale(1.6) rotate(90,100,100)">
    <path d="M200 200C144.772 200 8.74228e-06 200 8.74228e-06 200C8.74228e-06 144.772 44.7715 100 100 100C155.228 100 200 144.772 200 200Z M1.74846e-05 -8.74228e-06C55.2285 -3.91405e-06 200 8.74228e-06 200 8.74228e-06C200 55.2285 155.228 100 100 100C44.7715 100 1.26563e-05 55.2285 1.74846e-05 -8.74228e-06Z" fill="#FFFFFF"/>
  </g>
  <rect x="0" y="320" width="320" height="320" fill="#D9D9D6"/>
  <g transform="translate(0,320) scale(1.6)">
    <path d="M1.0968e-05 6.67572e-06L1.0968e-05 6.67572e-06C43.2927 55.8508 75.8745 119.232 96.0993 186.941L100 200L-6.51651e-06 200L1.0968e-05 6.67572e-06Z M199.972 100L200 0.0280229L100 1.43051e-05C99.984 55.2126 144.744 99.984 199.972 100Z" fill="#121212"/>
  </g>
  <rect x="320" y="320" width="320" height="320" fill="#F3F3F3"/>
  <g transform="translate(320,320) scale(1.6) rotate(90,100,100)">
    <path d="M1.0968e-05 6.67572e-06L1.0968e-05 6.67572e-06C43.2927 55.8508 75.8745 119.232 96.0993 186.941L100 200L-6.51651e-06 200L1.0968e-05 6.67572e-06Z M199.972 100L200 0.0280229L100 1.43051e-05C99.984 55.2126 144.744 99.984 199.972 100Z" fill="#FF4F00"/>
  </g>
  <rect x="640" y="320" width="320" height="320" fill="#FF4F00"/>
  <g transform="translate(640,320) scale(1.6) rotate(180,100,100)">
    <path d="M1.0968e-05 6.67572e-06L1.0968e-05 6.67572e-06C43.2927 55.8508 75.8745 119.232 96.0993 186.941L100 200L-6.51651e-06 200L1.0968e-05 6.67572e-06Z M199.972 100L200 0.0280229L100 1.43051e-05C99.984 55.2126 144.744 99.984 199.972 100Z" fill="#D9D9D6"/>
  </g>
  <rect x="960" y="320" width="320" height="320" fill="#121212"/>
  <g transform="translate(960,320) scale(1.6) rotate(270,100,100)">
    <path d="M1.0968e-05 6.67572e-06L1.0968e-05 6.67572e-06C43.2927 55.8508 75.8745 119.232 96.0993 186.941L100 200L-6.51651e-06 200L1.0968e-05 6.67572e-06Z M199.972 100L200 0.0280229L100 1.43051e-05C99.984 55.2126 144.744 99.984 199.972 100Z" fill="#FFA300"/>
  </g>
  <rect x="1280" y="320" width="320" height="320" fill="#FF4F00"/>
  <g transform="translate(1280,320) scale(1.6)">
    <path d="M50 0.0140087L0.0140125 6.55732e-06L1.03714e-05 50C27.6063 50.008 49.992 27.628 50 0.0140087Z" fill="#D9D9D6"/>
  </g>
  <rect x="1600" y="320" width="320" height="320" fill="#D9D9D6"/>
  <g transform="translate(1600,320) scale(1.6) rotate(90,100,100)">
    <path d="M200 0.0560087L0.0560085 2.44783e-09L0 200C110.425 200.032 199.968 110.512 200 0.0560087Z M45.0,65.0 A25.0,25.0 0 1,0 95.0,65.0 A25.0,25.0 0 1,0 45.0,65.0 Z M20.0,65.0 A50.0,25.0 0 1,0 120.0,65.0 A50.0,25.0 0 1,0 20.0,65.0 Z" fill="#121212" fill-rule="evenodd"/>
  </g>
  <rect x="0" y="640" width="320" height="320" fill="#121212"/>
  <g transform="translate(0,640) scale(1.6)">
    <path d="M200 200C144.772 200 8.74228e-06 200 8.74228e-06 200C8.74228e-06 144.772 44.7715 100 100 100C155.228 100 200 144.772 200 200Z M1.74846e-05 -8.74228e-06C55.2285 -3.91405e-06 200 8.74228e-06 200 8.74228e-06C200 55.2285 155.228 100 100 100C44.7715 100 1.26563e-05 55.2285 1.74846e-05 -8.74228e-06Z" fill="#FF4F00"/>
  </g>
  <rect x="320" y="640" width="320" height="320" fill="#4997D0"/>
  <g transform="translate(320,640) scale(1.6) rotate(90,100,100)">
    <path d="M200 0.0560087L0.0560085 2.44783e-09L0 200C110.425 200.032 199.968 110.512 200 0.0560087Z M45.0,65.0 A25.0,25.0 0 1,0 95.0,65.0 A25.0,25.0 0 1,0 45.0,65.0 Z M20.0,65.0 A50.0,25.0 0 1,0 120.0,65.0 A50.0,25.0 0 1,0 20.0,65.0 Z" fill="#D9D9D6" fill-rule="evenodd"/>
  </g>
  <rect x="640" y="640" width="320" height="320" fill="#121212"/>
  <g transform="translate(640,640) scale(1.6) rotate(180,100,100)">
    <path d="M200 0.0560087L0.0560085 2.44783e-09L0 200C110.425 200.032 199.968 110.512 200 0.0560087Z M45.0,65.0 A25.0,25.0 0 1,0 95.0,65.0 A25.0,25.0 0 1,0 45.0,65.0 Z M20.0,65.0 A50.0,25.0 0 1,0 120.0,65.0 A50.0,25.0 0 1,0 20.0,65.0 Z" fill="#FF4F00" fill-rule="evenodd"/>
  </g>
  <rect x="960" y="640" width="320" height="320" fill="#FFFFFF"/>
  <g transform="translate(960,640) scale(1.6) rotate(270,100,100)">
    <path d="M200 200C144.772 200 8.74228e-06 200 8.74228e-06 200C8.74228e-06 144.772 44.7715 100 100 100C155.228 100 200 144.772 200 200Z M1.74846e-05 -8.74228e-06C55.2285 -3.91405e-06 200 8.74228e-06 200 8.74228e-06C200 55.2285 155.228 100 100 100C44.7715 100 1.26563e-05 55.2285 1.74846e-05 -8.74228e-06Z" fill="#121212"/>
  </g>
  <rect x="1280" y="640" width="320" height="320" fill="#FFFFFF"/>
  <g transform="translate(1280,640) scale(1.6)">
    <path d="M1.0968e-05 6.67572e-06L1.0968e-05 6.67572e-06C43.2927 55.8508 75.8745 119.232 96.0993 186.941L100 200L-6.51651e-06 200L1.0968e-05 6.67572e-06Z M199.972 100L200 0.0280229L100 1.43051e-05C99.984 55.2126 144.744 99.984 199.972 100Z" fill="#121212"/>
  </g>
  <rect x="1600" y="640" width="320" height="320" fill="#121212"/>
  <g transform="translate(1600,640) scale(1.6) rotate(90,100,100)">
    <path d="M200 200C144.772 200 8.74228e-06 200 8.74228e-06 200C8.74228e-06 144.772 44.7715 100 100 100C155.228 100 200 144.772 200 200Z M1.74846e-05 -8.74228e-06C55.2285 -3.91405e-06 200 8.74228e-06 200 8.74228e-06C200 55.2285 155.228 100 100 100C44.7715 100 1.26563e-05 55.2285 1.74846e-05 -8.74228e-06Z" fill="#FF4F00"/>
  </g>
</svg>
