<?xml version='1.0' encoding='UTF-8'?>
<svg xmlns="http://www.w3.org/2000/svg" version="1.1" width="1920" height="960" viewBox="0 0 1920 960">
  <rect x="0" y="0" width="320" height="320" fill="#FFFFFF"/>
  <g transform="translate(0,0) scale(1.6)">
    <path d="M50 98.5L200 2.62268e-05L2.40011e-05 0L3.05176e-05 200L50 200L50 98.5Z" fill="#FF4F00"/>
  </g>
  <rect x="320" y="0" width="320" height="320" fill="#D9D9D6"/>
  <g transform="translate(320,0) scale(1.6) rotate(90,100,100)">
    <path d="M200 2.73397e-05L8.74228e-06 200L3.49691e-05 1.11288e-06L200 2.73397e-05Z" fill="#121212"/>
  </g>
  <rect x="640" y="0" width="320" height="320" fill="#F3F3F3"/>
  <g transform="translate(640,0) scale(1.6) rotate(180,100,100)">
    <path d="M200 2.73397e-05L8.74228e-06 200L3.49691e-05 1.11288e-06L200 2.73397e-05Z" fill="#FF4F00"/>
  </g>
  <rect x="960" y="0" width="320" height="320" fill="#4997D0"/>
  <g transform="translate(960,0) scale(1.6) rotate(270,100,100)">
    <path d="M200 3.49691e-05L8.74228e-06 100L2.73743e-05 8.74228e-06L200 3.49691e-05Z" fill="#FFFFFF"/>
  </g>
  <rect x="1280" y="0" width="320" height="320" fill="#121212"/>
  <g transform="translate(1280,0) scale(1.6)">
    <path d="M200 2.73397e-05L8.74228e-06 200L3.49691e-05 1.11288e-06L200 2.73397e-05Z" fill="#FF4F00"/>
  </g>
  <rect x="1600" y="0" width="320" height="320" fill="#FF4F00"/>
  <g transform="translate(1600,0) scale(1.6) rotate(90,100,100)">
    <path d="M200 2.73397e-05L8.74228e-06 200L3.49691e-05 1.11288e-06L200 2.73397e-05Z" fill="#F3F3F3"/>
  </g>
  <rect x="0" y="320" width="320" height="320" fill="#4997D0"/>
  <g transform="translate(0,320) scale(1.6) rotate(180,100,100)">
    <path d="M50 98.5L200 2.62268e-05L2.40011e-05 0L3.05176e-05 200L50 200L50 98.5Z" fill="#FFFFFF"/>
  </g>
  <rect x="320" y="320" width="320" height="320" fill="#D9D9D6"/>
  <g transform="translate(320,320) scale(1.6) rotate(270,100,100)">
    <path d="M200 1.97103e-05L200 50L8.74228e-06 100L3.49691e-05 -6.51651e-06L200 1.97103e-05Z" fill="#121212"/>
  </g>
  <rect x="640" y="320" width="320" height="320" fill="#FFFFFF"/>
  <g transform="translate(640,320) scale(1.6)">
    <path d="M200 9.16684e-06L200 9.16684e-06C200 5.52286 195.523 10 190 10L8.74228e-06 10L2.33419e-05 -1.41459e-05L200 9.16684e-06Z" fill="#FFA300"/>
  </g>
  <rect x="960" y="320" width="320" height="320" fill="#FFFFFF"/>
  <g transform="translate(960,320) scale(1.6) rotate(90,100,100)">
    <path d="M200 1.97103e-05L200 50L8.74228e-06 100L3.49691e-05 -6.51651e-06L200 1.97103e-05Z" fill="#121212"/>
  </g>
  <rect x="1280" y="320" width="320" height="320" fill="#FFFFFF"/>
  <g transform="translate(1280,320) scale(1.6) rotate(180,100,100)">
    <path d="M50 98.5L200 2.62268e-05L2.40011e-05 0L3.05176e-05 200L50 200L50 98.5Z" fill="#4997D0"/>
  </g>
  <rect x="1600" y="320" width="320" height="320" fill="#121212"/>
  <g transform="translate(1600,320) scale(1.6) rotate(270,100,100)">
    <path d="M50 98.5L200 2.62268e-05L2.40011e-05 0L3.05176e-05 200L50 200L50 98.5Z" fill="#F3F3F3"/>
  </g>
  <rect x="0" y="640" width="320" height="320" fill="#121212"/>
  <g transform="translate(0,640) scale(1.6)">
    <path d="M200 1.97103e-05L200 50L8.74228e-06 100L3.49691e-05 -6.51651e-06L200 1.97103e-05Z" fill="#FFA300"/>
  </g>
  <rect x="320" y="640" width="320" height="320" fill="#F3F3F3"/>
  <g transform="translate(320,640) scale(1.6) rotate(90,100,100)">
    <path d="M50 98.5L200 2.62268e-05L2.40011e-05 0L3.05176e-05 200L50 200L50 98.5Z" fill="#FF4F00"/>
  </g>
  <rect x="640" y="640" width="320" height="320" fill="#FF4F00"/>
  <g transform="translate(640,640) scale(1.6) rotate(180,100,100)">
    <path d="M200 2.73397e-05L8.74228e-06 200L3.49691e-05 1.11288e-06L200 2.73397e-05Z" fill="#D9D9D6"/>
  </g>
  <rect x="960" y="640" width="320" height="320" fill="#D9D9D6"/>
  <g transform="translate(960,640) scale(1.6) rotate(270,100,100)">
    <path d="M50 98.5L200 2.62268e-05L2.40011e-05 0L3.05176e-05 200L50 200L50 98.5Z" fill="#121212"/>
  </g>
  <rect x="1280" y="640" width="320" height="320" fill="#121212"/>
  <g transform="translate(1280,640) scale(1.6)">
    <path d="M200 9.16684e-06L200 9.16684e-06C200 5.52286 195.523 10 190 10L8.74228e-06 10L2.33419e-05 -1.41459e-05L200 9.16684e-06Z" fill="#FF4F00"/>
  </g>
  <rect x="1600" y="640" width="320" height="320" fill="#4997D0"/>
  <g transform="translate(1600,640) scale(1.6) rotate(90,100,100)">
    <path d="M200 1.97103e-05L200 50L8.74228e-06 100L3.49691e-05 -6.51651e-06L200 1.97103e-05Z" fill="#D9D9D6"/>
  </g>
</svg>
