<?xml version='1.0' encoding='UTF-8'?>
<svg xmlns="http://www.w3.org/2000/svg" version="1.1" width="1920" height="960" viewBox="0 0 1920 960">
  <rect x="0" y="0" width="320" height="320" fill="#FFFFFF"/>
  <g transform="translate(0,0) scale(1.6) rotate(270,100,100)"><path xmlns="http://www.w3.org/2000/svg" d="M195 5.00003L195 195L5.00001 195L5.00005 5.00001L195 5.00003Z M200 8.74228e-06L8.74228e-06 200V8.74228e-06H200Z M100 200L200 100V200H100Z" fill="#121212"/>
</g>
  <rect x="320" y="0" width="320" height="320" fill="#121212"/>
  <g transform="translate(320,0) scale(1.6)"><path xmlns="http://www.w3.org/2000/svg" d="M200 200C132.395 150.473 132.395 49.5275 200 2.62268e-05L-5.22929e-05 0L-6.10352e-05 200L200 200Z" fill="#4997D0"/>
</g>
  <rect x="640" y="0" width="320" height="320" fill="#4997D0"/>
  <g transform="translate(640,0) scale(1.6) rotate(180,100,100)"><path xmlns="http://www.w3.org/2000/svg" d="M195 5.00003L195 195L5.00001 195L5.00005 5.00001L195 5.00003Z M200 8.74228e-06L8.74228e-06 200V8.74228e-06H200Z M100 200L200 100V200H100Z" fill="#D9D9D6"/>
</g>
  <rect x="960" y="0" width="320" height="320" fill="#121212"/>
  <g transform="translate(960,0) scale(1.6) rotate(90,100,100)"><path xmlns="http://www.w3.org/2000/svg" d="M190 1.8399e-05L190 190L8.74228e-06 190L4.61155e-05 -6.51651e-06L190 1.8399e-05Z" fill="#D9D9D6"/>
</g>
  <rect x="1280" y="0" width="320" height="320" fill="#121212"/>
  <g transform="translate(1280,0) scale(1.6) rotate(270,100,100)"><path xmlns="http://www.w3.org/2000/svg" d="M190 1.8399e-05L190 190L8.74228e-06 190L4.61155e-05 -6.51651e-06L190 1.8399e-05Z" fill="#4997D0"/>
</g>
  <rect x="1600" y="0" width="320" height="320" fill="#121212"/>
  <g transform="translate(1600,0) scale(1.6)"><path xmlns="http://www.w3.org/2000/svg" d="M200 200C132.395 150.473 132.395 49.5275 200 2.62268e-05L-5.22929e-05 0L-6.10352e-05 200L200 200Z" fill="#4997D0"/>
</g>
  <rect x="0" y="320" width="320" height="320" fill="#121212"/>
  <g transform="translate(0,320) scale(1.6) rotate(90,100,100)"><path xmlns="http://www.w3.org/2000/svg" d="M190 1.8399e-05L190 190L8.74228e-06 190L4.61155e-05 -6.51651e-06L190 1.8399e-05Z" fill="#D9D9D6"/>
</g>
  <rect x="320" y="320" width="320" height="320" fill="#F3F3F3"/>
  <g transform="translate(320,320) scale(1.6) rotate(180,100,100)"><path xmlns="http://www.w3.org/2000/svg" d="M0.0,100.0 A100.0,100.0 0 1,0 200.0,100.0 A100.0,100.0 0 1,0 0.0,100.0 Z" fill="#FFA300"/>
</g>
  <rect x="640" y="320" width="320" height="320" fill="#121212"/>
  <g transform="translate(640,320) scale(1.6)"><path xmlns="http://www.w3.org/2000/svg" d="M200 3.49691e-05L158.802 14.981C131.366 24.9578 105.224 38.1843 80.9328 54.3781C56.3423 70.7718 30.613 85.3893 3.9409 98.1191L8.74228e-06 100L2.73743e-05 8.74228e-06L200 3.49691e-05Z" fill="#FFA300"/>
</g>
  <rect x="960" y="320" width="320" height="320" fill="#4997D0"/>
  <g transform="translate(960,320) scale(1.6) rotate(270,100,100)"><path xmlns="http://www.w3.org/2000/svg" d="M45 200H65L65 0H45L45 200Z M90 200H110L110 0H90L90 200Z M135 200H155L155 0H135L135 200Z M0 200H20L20 0H0L0 200Z M180 200H200L200 0H180L180 200Z" fill="#D9D9D6"/>
</g>
  <rect x="1280" y="320" width="320" height="320" fill="#121212"/>
  <g transform="translate(1280,320) scale(1.6) rotate(90,100,100)"><path xmlns="http://www.w3.org/2000/svg" d="M100 4.37114e-06C44.7715 4.37114e-06 6.78525e-06 44.7715 4.37114e-06 100L0 200L200 200L200 100C200 44.7715 155.228 4.37114e-06 100 4.37114e-06Z M8.74228e-06,8.74228e-06 L100.00000874228,8.74228e-06 L100.00000874228,100.00000874228 L8.74228e-06,100.00000874228 Z M100.0,8.74228e-06 L200.0,8.74228e-06 L200.0,100.00000874228 L100.0,100.00000874228 Z" fill="#FF4F00" fill-rule="evenodd"/>
</g>
  <rect x="1600" y="320" width="320" height="320" fill="#F3F3F3"/>
  <g transform="translate(1600,320) scale(1.6) rotate(180,100,100)"><path xmlns="http://www.w3.org/2000/svg" d="M2.18557e-06 150L0 200L200 200L200 8.74228e-06L150 0.0373421C150 91.5 75 150 2.18557e-06 150Z" fill="#4997D0"/>
</g>
  <rect x="0" y="640" width="320" height="320" fill="#F3F3F3"/>
  <g transform="translate(0,640) scale(1.6) rotate(270,100,100)"><path xmlns="http://www.w3.org/2000/svg" d="M2.18557e-06 150L0 200L200 200L200 8.74228e-06L150 0.0373421C150 91.5 75 150 2.18557e-06 150Z" fill="#FF4F00"/>
</g>
  <rect x="320" y="640" width="320" height="320" fill="#F3F3F3"/>
  <g transform="translate(320,640) scale(1.6)"><path xmlns="http://www.w3.org/2000/svg" d="M150 8.70392e-06L0.0420009 8.70392e-06L2.18557e-06 150C82.8188 150.024 149.976 82.842 150 8.70392e-06Z" fill="#FF4F00"/>
</g>
  <rect x="640" y="640" width="320" height="320" fill="#FFFFFF"/>
  <g transform="translate(640,640) scale(1.6) rotate(180,100,100)"><path xmlns="http://www.w3.org/2000/svg" d="M175 25L175 175L25 175L25 25L175 25Z" fill="#FF4F00"/>
</g>
  <rect x="960" y="640" width="320" height="320" fill="#4997D0"/>
  <g transform="translate(960,640) scale(1.6) rotate(90,100,100)"><path xmlns="http://www.w3.org/2000/svg" d="M166.667 200C129.848 200 33.3333 200 33.3333 200C33.3333 163.181 63.1809 133.333 99.9999 133.333C136.819 133.333 166.667 163.181 166.667 200Z" fill="#D9D9D6"/>
</g>
  <rect x="1280" y="640" width="320" height="320" fill="#F3F3F3"/>
  <g transform="translate(1280,640) scale(1.6) rotate(270,100,100)"><path xmlns="http://www.w3.org/2000/svg" d="M150 4.25583e-05L150 150L8.74228e-06 150L3.82475e-05 2.28882e-05L150 4.25583e-05Z" fill="#FF4F00"/>
</g>
  <rect x="1600" y="640" width="320" height="320" fill="#FFFFFF"/>
  <g transform="translate(1600,640) scale(1.6)"><path xmlns="http://www.w3.org/2000/svg" d="M190 1.8399e-05L190 190L8.74228e-06 190L4.61155e-05 -6.51651e-06L190 1.8399e-05Z" fill="#4997D0"/>
</g>
</svg>
