<?xml version='1.0' encoding='UTF-8'?>
<svg xmlns="http://www.w3.org/2000/svg" version="1.1" width="1920" height="960" viewBox="0 0 1920 960">
  <rect x="0" y="0" width="320" height="320" fill="#F3F3F3"/>
  <svg x="0" y="0" width="320" height="320" viewBox="0 0 200 200" overflow="hidden"><path xmlns="http://www.w3.org/2000/svg" d="M20 200H40L40 0H20L20 200Z M180 200H200L200 0H180L180 200Z M80 200H60V100V0H80V55.9927C80 57.6415 81.9006 58.604 83.2937 57.7221C83.7889 57.4087 84.2899 57.1037 84.7967 56.8074C93.0078 52.0057 100 44.1641 100 34.6521V0H120V34.6521C120 44.1641 126.992 52.0057 135.203 56.8074C135.71 57.1037 136.211 57.4087 136.706 57.7221C138.099 58.604 140 57.6415 140 55.9927V0H160V100V200H140V144.007C140 142.359 138.099 141.396 136.706 142.278C136.211 142.591 135.71 142.896 135.203 143.193C126.992 147.994 120 155.836 120 165.348V200H100V165.348C100 155.836 93.0079 147.994 84.7967 143.193C84.29 142.896 83.7889 142.591 83.2937 142.278C81.9006 141.396 80 142.359 80 144.007V200Z M20.0,32.5 L35.8333,32.5 L35.8333,48.3333 L20.0,48.3333 Z" fill="#121212" fill-rule="evenodd"/>
</svg>
  <rect x="320" y="0" width="320" height="320" fill="#FFFFFF"/>
  <svg x="320" y="0" width="320" height="320" viewBox="0 0 200 200" overflow="hidden"><path xmlns="http://www.w3.org/2000/svg" d="M200 2.73397e-05L200 100L8.74228e-06 200L3.49691e-05 1.11288e-06L200 2.73397e-05Z" fill="#FF4F00"/>
</svg>
  <rect x="640" y="0" width="320" height="320" fill="#121212"/>
  <svg x="640" y="0" width="320" height="320" viewBox="0 0 200 200" overflow="hidden"><path xmlns="http://www.w3.org/2000/svg" d="M200 2.44739e-09L-6.51651e-06 2.4471e-09L0 200C110.425 200.032 199.968 110.456 200 2.44739e-09Z" fill="#FFFFFF"/>
</svg>
  <rect x="960" y="0" width="320" height="320" fill="#FFFFFF"/>
  <svg x="960" y="0" width="320" height="320" viewBox="0 0 200 200" overflow="hidden"><path xmlns="http://www.w3.org/2000/svg" d="M200 3.49691e-05L8.74228e-06 200L3.49691e-05 8.74228e-06L200 3.49691e-05Z M50 200L200 50L200 200L50 200Z" fill="#FF4F00" transform="rotate(270,100,100)"/>
</svg>
  <rect x="1280" y="0" width="320" height="320" fill="#121212"/>
  <svg x="1280" y="0" width="320" height="320" viewBox="0 0 200 200" overflow="hidden"><path xmlns="http://www.w3.org/2000/svg" d="M195 5.00003L195 195L5.00001 195L5.00005 5.00001L195 5.00003Z M200 8.74228e-06L8.74228e-06 200V8.74228e-06H200Z M100 200L200 100V200H100Z" fill="#FFFFFF"/>
</svg>
  <rect x="1600" y="0" width="320" height="320" fill="#121212"/>
  <svg x="1600" y="0" width="320" height="320" viewBox="0 0 200 200" overflow="hidden"><path xmlns="http://www.w3.org/2000/svg" d="M200 0H0V200C0 89.544 89.544 0 200 0Z M141.42 141.42C105.228 177.616 55.228 200 0 200H200V0C200 55.228 177.616 105.228 141.42 141.42Z" fill="#FF4F00" transform="rotate(270,100,100)"/>
</svg>
  <rect x="0" y="320" width="320" height="320" fill="#121212"/>
  <svg x="0" y="320" width="320" height="320" viewBox="0 0 200 200" overflow="hidden"><path xmlns="http://www.w3.org/2000/svg" d="M199.1357,102.6482 L197.4770,103.0780 L195.8203,103.4714 L194.1660,103.8289 L192.5144,104.1508 L190.8657,104.4373 L189.2204,104.6889 L187.5787,104.9057 L185.9410,105.0882 L184.3075,105.2366 L182.6786,105.3513 L181.0547,105.4326 L179.4359,105.4808 L177.8227,105.4961 L176.2153,105.4791 L174.6141,105.4298 L173.0193,105.3487 L171.4314,105.2361 L169.8506,105.0923 L168.2772,104.9176 L166.7116,104.7124 L165.1540,104.4769 L163.6048,104.2114 L162.0644,103.9164 L160.5329,103.5920 L159.0108,103.2387 L157.4984,102.8567 L155.9959,102.4463 L154.5037,102.0079 L153.0221,101.5418 L151.5514,101.0483 L150.0920,100.5277 L148.6441,99.9804 L147.2081,99.4066 L145.7842,98.8066 L144.3729,98.1809 L142.9744,97.5296 L141.5891,96.8532 L140.2172,96.1519 L138.8591,95.4261 L137.5150,94.6760 L136.1854,93.9020 L134.8705,93.1045 L133.5707,92.2836 L132.2862,91.4398 L131.0174,90.5733 L129.7645,89.6846 L128.5280,88.7738 L127.3081,87.8413 L126.1052,86.8874 L124.9195,85.9125 L123.7513,84.9168 L122.6011,83.9007 L121.4691,82.8645 L120.3556,81.8085 L119.2610,80.7330 L118.1855,79.6384 L117.1295,78.5249 L116.0933,77.3929 L115.0772,76.2427 L114.0816,75.0746 L113.1067,73.8889 L112.1528,72.6860 L111.2203,71.4661 L110.3096,70.2296 L109.4208,68.9768 L108.5544,67.7080 L107.7106,66.4235 L106.8898,65.1237 L106.0923,63.8089 L105.3183,62.4793 L104.5683,61.1353 L103.8425,59.7772 L103.1413,58.4054 L102.4649,57.0201 L101.8137,55.6217 L101.1880,54.2104 L100.5882,52.7866 L100.0144,51.3507 L99.4671,49.9029 L98.9466,48.4435 L98.4532,46.9729 L97.9872,45.4914 L97.5488,43.9993 L97.1386,42.4969 L96.7566,40.9845 L96.4034,39.4625 L96.0791,37.9311 L95.7842,36.3908 L95.5188,34.8417 L95.2834,33.2842 L95.0783,31.7187 L94.9037,30.1454 L94.7600,28.5647 L94.6475,26.9769 L94.5665,25.3823 L94.5174,23.7812 L94.5004,22.1739 L94.5159,20.5608 L94.5642,18.9422 L94.6456,17.3183 L94.7605,15.6896 L94.9090,14.0562 L95.0916,12.4186 L95.3086,10.7771 L95.5603,9.1319 L95.8470,7.4834 L96.1690,5.8320 L96.5267,4.1778 L96.9203,2.5213 L97.3502,0.8627 L97.5926,0.0000 L0.0000,0.0000 L0.0000,3.1250 L0.0000,6.2500 L0.0000,9.3750 L0.0000,12.5000 L0.0000,15.6250 L0.0000,18.7500 L0.0000,21.8750 L0.0000,25.0000 L0.0000,28.1250 L0.0000,31.2500 L0.0000,34.3750 L0.0000,37.5000 L0.0000,40.6250 L0.0000,43.7500 L0.0000,46.8750 L0.0000,50.0000 L0.0000,53.1250 L0.0000,56.2500 L0.0000,59.3750 L0.0000,62.5000 L0.0000,65.6250 L0.0000,68.7500 L0.0000,71.8750 L0.0000,75.0000 L0.0000,78.1250 L0.0000,81.2500 L0.0000,84.3750 L0.0000,87.5000 L0.0000,90.6250 L0.0000,93.7500 L0.0000,96.8750 L0.0000,100.0000 L0.0000,103.1250 L0.0000,106.2500 L0.0000,109.3750 L0.0000,112.5000 L0.0000,115.6250 L0.0000,118.7500 L0.0000,121.8750 L0.0000,125.0000 L0.0000,128.1250 L0.0000,131.2500 L0.0000,134.3750 L0.0000,137.5000 L0.0000,140.6250 L0.0000,143.7500 L0.0000,146.8750 L0.0000,150.0000 L0.0000,153.1250 L0.0000,156.2500 L0.0000,159.3750 L0.0000,162.5000 L0.0000,165.6250 L0.0000,168.7500 L0.0000,171.8750 L0.0000,175.0000 L0.0000,178.1250 L0.0000,181.2500 L0.0000,184.3750 L0.0000,187.5000 L0.0000,190.6250 L0.0000,193.7500 L0.0000,196.8750 L0.0000,200.0000 L3.1250,200.0000 L6.2500,200.0000 L9.3750,200.0000 L12.5000,200.0000 L15.6250,200.0000 L18.7500,200.0000 L21.8750,200.0000 L25.0000,200.0000 L28.1250,200.0000 L31.2500,200.0000 L34.3750,200.0000 L37.5000,200.0000 L40.6250,200.0000 L43.7500,200.0000 L46.8750,200.0000 L50.0000,200.0000 L53.1250,200.0000 L56.2500,200.0000 L59.3750,200.0000 L62.5000,200.0000 L65.6250,200.0000 L68.7500,200.0000 L71.8750,200.0000 L75.0000,200.0000 L78.1250,200.0000 L81.2500,200.0000 L84.3750,200.0000 L87.5000,200.0000 L90.6250,200.0000 L93.7500,200.0000 L96.8750,200.0000 L100.0000,200.0000 L103.1250,200.0000 L106.2500,200.0000 L109.3750,200.0000 L112.5000,200.0000 L115.6250,200.0000 L118.7500,200.0000 L121.8750,200.0000 L125.0000,200.0000 L128.1250,200.0000 L131.2500,200.0000 L134.3750,200.0000 L137.5000,200.0000 L140.6250,200.0000 L143.7500,200.0000 L146.8750,200.0000 L150.0000,200.0000 L153.1250,200.0000 L156.2500,200.0000 L159.3750,200.0000 L162.5000,200.0000 L165.6250,200.0000 L168.7500,200.0000 L171.8750,200.0000 L175.0000,200.0000 L178.1250,200.0000 L181.2500,200.0000 L184.3750,200.0000 L187.5000,200.0000 L190.6250,200.0000 L193.7500,200.0000 L196.8750,200.0000 L200.0000,200.0000 L200.0000,102.4055 Z" fill="#FF4F00" transform="rotate(180,100,100)"/>
</svg>
  <rect x="320" y="320" width="320" height="320" fill="#121212"/>
  <svg x="320" y="320" width="320" height="320" viewBox="0 0 200 200" overflow="hidden"><path xmlns="http://www.w3.org/2000/svg" d="M200.0000,100.1000 L199.9804,98.0222 L199.9218,95.9609 L199.8246,93.9161 L199.6894,91.8882 L199.5165,89.8773 L199.3064,87.8836 L199.0594,85.9072 L198.7762,83.9483 L198.4570,82.0072 L198.1023,80.0840 L197.7125,78.1788 L197.2882,76.2919 L196.8297,74.4234 L196.3374,72.5735 L195.8118,70.7425 L195.2534,68.9304 L194.6625,67.1375 L194.0396,65.3639 L193.3852,63.6098 L192.6996,61.8754 L191.9833,60.1609 L191.2368,58.4665 L190.4604,56.7923 L189.6547,55.1385 L188.8200,53.5054 L187.9568,51.8930 L187.0655,50.3016 L186.1466,48.7313 L185.2005,47.1823 L184.2276,45.6549 L183.2283,44.1491 L182.2032,42.6652 L181.1526,41.2033 L180.0769,39.7637 L178.9767,38.3465 L177.8523,36.9518 L176.7042,35.5799 L175.5328,34.2310 L174.3386,32.9052 L173.1219,31.6027 L171.8833,30.3237 L170.6231,29.0684 L169.3418,27.8369 L168.0398,26.6295 L166.7176,25.4462 L165.3756,24.2874 L164.0142,23.1531 L162.6339,22.0436 L161.2351,20.9590 L159.8183,19.8995 L158.3838,18.8653 L156.9322,17.8566 L155.4637,16.8735 L153.9790,15.9163 L152.4784,14.9851 L150.9623,14.0801 L149.4313,13.2014 L147.8856,12.3494 L146.3259,11.5240 L144.7524,10.7256 L143.1656,9.9543 L141.5661,9.2102 L139.9541,8.4936 L138.3302,7.8047 L136.6947,7.1435 L135.0482,6.5104 L133.3910,5.9055 L131.7236,5.3289 L130.0464,4.7808 L128.3599,4.2615 L126.6644,3.7711 L124.9605,3.3098 L123.2486,2.8777 L121.5290,2.4751 L119.8023,2.1021 L118.0688,1.7589 L116.3291,1.4457 L114.5835,1.1626 L112.8324,0.9099 L111.0764,0.6877 L109.3158,0.4963 L107.5511,0.3357 L105.7828,0.2062 L104.0111,0.1079 L102.2367,0.0411 L100.4599,0.0059 L98.6812,0.0024 L96.9009,0.0310 L95.1196,0.0917 L93.3377,0.1847 L91.5555,0.3102 L89.7736,0.4685 L87.9924,0.6596 L86.2123,0.8837 L84.4337,1.1411 L82.6572,1.4319 L80.8830,1.7563 L79.1117,2.1145 L77.3437,2.5066 L75.5794,2.9329 L73.8192,3.3934 L72.0637,3.8885 L70.3132,4.4183 L68.5681,4.9829 L66.8290,5.5826 L65.0962,6.2174 L63.3702,6.8877 L61.6514,7.5935 L59.9402,8.3352 L58.2371,9.1127 L56.5426,9.9264 L54.8569,10.7764 L53.1807,11.6628 L51.5143,12.5859 L49.8582,13.5459 L48.2127,14.5429 L46.5784,15.5771 L44.9557,16.6487 L43.3449,17.7578 L41.7466,18.9047 L40.1612,20.0895 L38.5891,21.3124 L37.0307,22.5736 L35.4865,23.8733 L33.9570,25.2116 L32.4424,26.5888 L30.9434,28.0050 L29.4603,29.4603 L29.4603,29.4603 L28.0050,30.9434 L26.5888,32.4424 L25.2116,33.9570 L23.8733,35.4865 L22.5737,37.0307 L21.3124,38.5891 L20.0895,40.1612 L18.9047,41.7466 L17.7578,43.3449 L16.6487,44.9557 L15.5771,46.5784 L14.5429,48.2127 L13.5459,49.8582 L12.5860,51.5143 L11.6629,53.1807 L10.7764,54.8569 L9.9264,56.5426 L9.1127,58.2371 L8.3352,59.9402 L7.5936,61.6514 L6.8877,63.3702 L6.2175,65.0962 L5.5826,66.8290 L4.9829,68.5681 L4.4183,70.3132 L3.8886,72.0637 L3.3935,73.8192 L2.9329,75.5794 L2.5066,77.3437 L2.1145,79.1117 L1.7563,80.8830 L1.4319,82.6572 L1.1411,84.4337 L0.8838,86.2123 L0.6596,87.9924 L0.4685,89.7736 L0.3103,91.5555 L0.1847,93.3377 L0.0917,95.1196 L0.0310,96.9009 L0.0025,98.6812 L0.0059,100.4599 L0.0411,102.2367 L0.1080,104.0111 L0.2062,105.7828 L0.3357,107.5511 L0.4963,109.3158 L0.6878,111.0764 L0.9099,112.8324 L1.1626,114.5835 L1.4457,116.3291 L1.7589,118.0688 L2.1021,119.8023 L2.4751,121.5290 L2.8777,123.2486 L3.3098,124.9605 L3.7711,126.6644 L4.2616,128.3599 L4.7809,130.0464 L5.3289,131.7236 L5.9055,133.3910 L6.5105,135.0482 L7.1436,136.6947 L7.8047,138.3302 L8.4937,139.9541 L9.2102,141.5661 L9.9543,143.1656 L10.7256,144.7524 L11.5240,146.3259 L12.3494,147.8856 L13.2015,149.4313 L14.0801,150.9623 L14.9851,152.4784 L15.9163,153.9790 L16.8735,155.4637 L17.8566,156.9322 L18.8653,158.3838 L19.8995,159.8183 L20.9590,161.2351 L22.0436,162.6339 L23.1531,164.0142 L24.2874,165.3756 L25.4462,166.7176 L26.6295,168.0398 L27.8369,169.3418 L29.0684,170.6231 L30.3237,171.8833 L31.6027,173.1219 L32.9052,174.3386 L34.2310,175.5328 L35.5800,176.7042 L36.9518,177.8523 L38.3465,178.9767 L39.7637,180.0769 L41.2033,181.1526 L42.6652,182.2032 L44.1491,183.2283 L45.6549,184.2276 L47.1823,185.2005 L48.7313,186.1466 L50.3016,187.0655 L51.8930,187.9568 L53.5054,188.8200 L55.1385,189.6547 L56.7923,190.4604 L58.4665,191.2368 L60.1609,191.9833 L61.8754,192.6996 L63.6098,193.3852 L65.3639,194.0396 L67.1375,194.6625 L68.9304,195.2534 L70.7425,195.8118 L72.5735,196.3374 L74.4234,196.8297 L76.2919,197.2882 L78.1788,197.7125 L80.0840,198.1023 L82.0072,198.4570 L83.9483,198.7762 L85.9072,199.0594 L87.8836,199.3064 L89.8773,199.5165 L91.8882,199.6894 L93.9161,199.8246 L95.9609,199.9218 L98.0222,199.9804 L100.1000,200.0000 L100.8805,200.0000 L101.6609,200.0000 L102.4414,200.0000 L103.2219,200.0000 L104.0023,200.0000 L104.7828,200.0000 L105.5633,200.0000 L106.3438,200.0000 L107.1242,200.0000 L107.9047,200.0000 L108.6852,200.0000 L109.4656,200.0000 L110.2461,200.0000 L111.0266,200.0000 L111.8070,200.0000 L112.5875,200.0000 L113.3680,200.0000 L114.1484,200.0000 L114.9289,200.0000 L115.7094,200.0000 L116.4898,200.0000 L117.2703,200.0000 L118.0508,200.0000 L118.8312,200.0000 L119.6117,200.0000 L120.3922,200.0000 L121.1727,200.0000 L121.9531,200.0000 L122.7336,200.0000 L123.5141,200.0000 L124.2945,200.0000 L125.0750,200.0000 L125.8555,200.0000 L126.6359,200.0000 L127.4164,200.0000 L128.1969,200.0000 L128.9773,200.0000 L129.7578,200.0000 L130.5383,200.0000 L131.3187,200.0000 L132.0992,200.0000 L132.8797,200.0000 L133.6602,200.0000 L134.4406,200.0000 L135.2211,200.0000 L136.0016,200.0000 L136.7820,200.0000 L137.5625,200.0000 L138.3430,200.0000 L139.1234,200.0000 L139.9039,200.0000 L140.6844,200.0000 L141.4648,200.0000 L142.2453,200.0000 L143.0258,200.0000 L143.8063,200.0000 L144.5867,200.0000 L145.3672,200.0000 L146.1477,200.0000 L146.9281,200.0000 L147.7086,200.0000 L148.4891,200.0000 L149.2695,200.0000 L150.0500,200.0000 L150.8305,200.0000 L151.6109,200.0000 L152.3914,200.0000 L153.1719,200.0000 L153.9523,200.0000 L154.7328,200.0000 L155.5133,200.0000 L156.2937,200.0000 L157.0742,200.0000 L157.8547,200.0000 L158.6352,200.0000 L159.4156,200.0000 L160.1961,200.0000 L160.9766,200.0000 L161.7570,200.0000 L162.5375,200.0000 L163.3180,200.0000 L164.0984,200.0000 L164.8789,200.0000 L165.6594,200.0000 L166.4398,200.0000 L167.2203,200.0000 L168.0008,200.0000 L168.7812,200.0000 L169.5617,200.0000 L170.3422,200.0000 L171.1227,200.0000 L171.9031,200.0000 L172.6836,200.0000 L173.4641,200.0000 L174.2445,200.0000 L175.0250,200.0000 L175.8055,200.0000 L176.5859,200.0000 L177.3664,200.0000 L178.1469,200.0000 L178.9273,200.0000 L179.7078,200.0000 L180.4883,200.0000 L181.2688,200.0000 L182.0492,200.0000 L182.8297,200.0000 L183.6102,200.0000 L184.3906,200.0000 L185.1711,200.0000 L185.9516,200.0000 L186.7320,200.0000 L187.5125,200.0000 L188.2930,200.0000 L189.0734,200.0000 L189.8539,200.0000 L190.6344,200.0000 L191.4148,200.0000 L192.1953,200.0000 L192.9758,200.0000 L193.7562,200.0000 L194.5367,200.0000 L195.3172,200.0000 L196.0977,200.0000 L196.8781,200.0000 L197.6586,200.0000 L198.4391,200.0000 L199.2195,200.0000 L200.0000,200.0000 L200.0000,199.2195 L200.0000,198.4391 L200.0000,197.6586 L200.0000,196.8781 L200.0000,196.0977 L200.0000,195.3172 L200.0000,194.5367 L200.0000,193.7562 L200.0000,192.9758 L200.0000,192.1953 L200.0000,191.4148 L200.0000,190.6344 L200.0000,189.8539 L200.0000,189.0734 L200.0000,188.2930 L200.0000,187.5125 L200.0000,186.7320 L200.0000,185.9516 L200.0000,185.1711 L200.0000,184.3906 L200.0000,183.6102 L200.0000,182.8297 L200.0000,182.0492 L200.0000,181.2688 L200.0000,180.4883 L200.0000,179.7078 L200.0000,178.9273 L200.0000,178.1469 L200.0000,177.3664 L200.0000,176.5859 L200.0000,175.8055 L200.0000,175.0250 L200.0000,174.2445 L200.0000,173.4641 L200.0000,172.6836 L200.0000,171.9031 L200.0000,171.1227 L200.0000,170.3422 L200.0000,169.5617 L200.0000,168.7812 L200.0000,168.0008 L200.0000,167.2203 L200.0000,166.4398 L200.0000,165.6594 L200.0000,164.8789 L200.0000,164.0984 L200.0000,163.3180 L200.0000,162.5375 L200.0000,161.7570 L200.0000,160.9766 L200.0000,160.1961 L200.0000,159.4156 L200.0000,158.6352 L200.0000,157.8547 L200.0000,157.0742 L200.0000,156.2937 L200.0000,155.5133 L200.0000,154.7328 L200.0000,153.9523 L200.0000,153.1719 L200.0000,152.3914 L200.0000,151.6109 L200.0000,150.8305 L200.0000,150.0500 L200.0000,149.2695 L200.0000,148.4891 L200.0000,147.7086 L200.0000,146.9281 L200.0000,146.1477 L200.0000,145.3672 L200.0000,144.5867 L200.0000,143.8063 L200.0000,143.0258 L200.0000,142.2453 L200.0000,141.4648 L200.0000,140.6844 L200.0000,139.9039 L200.0000,139.1234 L200.0000,138.3430 L200.0000,137.5625 L200.0000,136.7820 L200.0000,136.0016 L200.0000,135.2211 L200.0000,134.4406 L200.0000,133.6602 L200.0000,132.8797 L200.0000,132.0992 L200.0000,131.3187 L200.0000,130.5383 L200.0000,129.7578 L200.0000,128.9773 L200.0000,128.1969 L200.0000,127.4164 L200.0000,126.6359 L200.0000,125.8555 L200.0000,125.0750 L200.0000,124.2945 L200.0000,123.5141 L200.0000,122.7336 L200.0000,121.9531 L200.0000,121.1727 L200.0000,120.3922 L200.0000,119.6117 L200.0000,118.8312 L200.0000,118.0508 L200.0000,117.2703 L200.0000,116.4898 L200.0000,115.7094 L200.0000,114.9289 L200.0000,114.1484 L200.0000,113.3680 L200.0000,112.5875 L200.0000,111.8070 L200.0000,111.0266 L200.0000,110.2461 L200.0000,109.4656 L200.0000,108.6852 L200.0000,107.9047 L200.0000,107.1242 L200.0000,106.3438 L200.0000,105.5633 L200.0000,104.7828 L200.0000,104.0023 L200.0000,103.2219 L200.0000,102.4414 L200.0000,101.6609 L200.0000,100.8805 L200.0000,100.1000 Z" fill="#FF4F00" transform="rotate(90,100,100)"/>
</svg>
  <rect x="640" y="320" width="320" height="320" fill="#F3F3F3"/>
  <svg x="640" y="320" width="320" height="320" viewBox="0 0 200 200" overflow="hidden"><path xmlns="http://www.w3.org/2000/svg" d="M190 1.8399e-05L190 190L8.74228e-06 190L4.61155e-05 -6.51651e-06L190 1.8399e-05Z" fill="#121212" transform="rotate(270,100,100)"/>
</svg>
  <rect x="960" y="320" width="320" height="320" fill="#F3F3F3"/>
  <svg x="960" y="320" width="320" height="320" viewBox="0 0 200 200" overflow="hidden"><path xmlns="http://www.w3.org/2000/svg" d="M200 200C132.395 150.473 132.395 49.5275 200 2.62268e-05L-5.22929e-05 0L-6.10352e-05 200L200 200Z" fill="#FFA300"/>
</svg>
  <rect x="1280" y="320" width="320" height="320" fill="#FF4F00"/>
  <svg x="1280" y="320" width="320" height="320" viewBox="0 0 200 200" overflow="hidden"><path xmlns="http://www.w3.org/2000/svg" d="M100 100L200 2.62268e-05L3.92599e-05 0L1.52588e-05 200L200 200L100 100Z" fill="#D9D9D6" transform="rotate(180,100,100)"/>
</svg>
  <rect x="1600" y="320" width="320" height="320" fill="#121212"/>
  <svg x="1600" y="320" width="320" height="320" viewBox="0 0 200 200" overflow="hidden"><path xmlns="http://www.w3.org/2000/svg" d="M200 3.2055e-05L155.47 66.7949C120.815 118.777 62.4745 150 8.74228e-06 150L8.74228e-06 150L4.41485e-05 8.74228e-06L100 2.03986e-05L200 3.2055e-05Z" fill="#D9D9D6"/>
</svg>
  <rect x="0" y="640" width="320" height="320" fill="#FFFFFF"/>
  <svg x="0" y="640" width="320" height="320" viewBox="0 0 200 200" overflow="hidden"><path xmlns="http://www.w3.org/2000/svg" d="M7.50001 14.636C8.0629 19.144 8.66849 25.344 9.23526 33.848C10.4503 52.068 11.118 75.564 11.118 100C11.118 124.436 10.4503 147.932 9.23526 166.152C8.66849 174.656 8.06678 180.856 7.50001 185.364C6.93712 180.856 6.33153 174.656 5.76476 166.152C4.5497 147.932 3.882 124.436 3.882 100C3.882 75.564 4.5497 52.068 5.76476 33.848C6.33153 25.344 6.93324 19.144 7.50001 14.636ZM7.50001 8.74228e-06C3.35793 8.74228e-06 8.74228e-06 44.772 8.74228e-06 100C8.74228e-06 155.228 3.35793 200 7.50001 200C11.6421 200 15 155.228 15 100C15 44.772 11.6421 8.74228e-06 7.50001 8.74228e-06Z M30.8332 4.00001C32.323 4.00001 37.6175 8.80001 42.2392 30.136C46.2722 48.752 48.4949 73.564 48.4949 100C48.4949 126.436 46.2722 151.248 42.2392 169.864C37.6175 191.196 32.323 196 30.8332 196C29.3433 196 24.0488 191.2 19.4271 169.864C15.3942 151.248 13.1714 126.436 13.1714 100C13.1714 73.564 15.3942 48.752 19.4271 30.136C24.0528 8.80001 29.3433 4.00001 30.8332 4.00001ZM30.8332 8.74228e-06C18.8705 8.74228e-06 9.16651 44.772 9.16651 100C9.16651 155.228 18.8664 200 30.8332 200C42.7999 200 52.4998 155.228 52.4998 100C52.4998 44.772 42.7999 8.74228e-06 30.8332 8.74228e-06Z M53.7502 4.00001C57.3006 4.00001 60.9108 6.16401 64.4852 10.432C68.3384 15.036 71.9885 22.02 75.0368 30.628C81.5758 49.096 85.1781 73.732 85.1781 100C85.1781 126.268 81.5758 150.904 75.0368 169.372C71.9885 177.98 68.3384 184.964 64.4852 189.568C60.9108 193.836 57.3006 196 53.7502 196C50.1997 196 46.5895 193.836 43.0152 189.568C39.1619 184.964 35.5119 177.98 32.4635 169.372C25.9245 150.904 22.3223 126.268 22.3223 100C22.3223 73.732 25.9245 49.096 32.4635 30.628C35.5119 22.02 39.1619 15.036 43.0152 10.432C46.5895 6.16401 50.1997 4.00001 53.7502 4.00001ZM53.7502 8.74228e-06C34.1889 8.74228e-06 18.3335 44.772 18.3335 100C18.3335 155.228 34.1889 200 53.7502 200C73.3114 200 89.1668 155.228 89.1668 100C89.1668 44.772 73.3074 8.74228e-06 53.7502 8.74228e-06Z M77.0833 4.00001C82.7931 4.00001 88.4106 6.32001 93.7755 10.9C99.2647 15.584 104.237 22.368 108.547 31.064C117.645 49.412 122.653 73.892 122.653 100C122.653 126.108 117.645 150.592 108.547 168.936C104.237 177.632 99.2647 184.416 93.7755 189.1C88.4106 193.676 82.7931 196 77.0833 196C71.3736 196 65.7561 193.68 60.3912 189.1C54.902 184.416 49.93 177.632 45.6196 168.936C36.5217 150.588 31.5137 126.108 31.5137 100C31.5137 73.892 36.5217 49.408 45.6196 31.064C49.93 22.368 54.902 15.584 60.3912 10.9C65.7561 6.32401 71.3736 4.00001 77.0833 4.00001ZM77.0833 8.74228e-06C49.7014 8.74228e-06 27.5 44.772 27.5 100C27.5 155.228 49.6974 200 77.0833 200C104.469 200 126.667 155.228 126.667 100C126.667 44.772 104.465 8.74228e-06 77.0833 8.74228e-06Z M99.5795 4.00001C107.377 4.00001 114.974 6.41601 122.16 11.184C129.282 15.908 135.707 22.72 141.26 31.428C146.897 40.268 151.327 50.592 154.433 62.108C157.668 74.1 159.306 86.848 159.306 99.996C159.306 113.144 157.668 125.892 154.433 137.884C151.327 149.4 146.897 159.724 141.26 168.564C135.707 177.272 129.282 184.084 122.16 188.808C114.974 193.576 107.377 195.992 99.5795 195.992C91.7817 195.992 84.1852 193.576 76.999 188.808C69.8772 184.084 63.4515 177.272 57.899 168.564C52.2619 159.724 47.8319 149.4 44.7257 137.884C41.4907 125.892 39.8531 113.144 39.8531 99.996C39.8531 86.848 41.4907 74.096 44.7257 62.108C47.8319 50.592 52.2619 40.268 57.899 31.428C63.4515 22.72 69.8772 15.908 76.999 11.184C84.1852 6.41601 91.7817 4.00001 99.5795 4.00001ZM99.5795 8.74228e-06C64.3729 8.74228e-06 35.8335 44.772 35.8335 100C35.8335 155.228 64.3729 200 99.5835 200C134.794 200 163.334 155.228 163.334 100C163.334 44.772 134.786 8.74228e-06 99.5795 8.74228e-06Z M122.496 4.00001C163.019 4.00001 195.985 47.064 195.985 100C195.985 152.936 163.019 196 122.496 196C81.9731 196 49.007 152.936 49.007 100C49.007 47.064 81.9772 4.00001 122.496 4.00001ZM122.496 8.74228e-06C79.6949 8.74228e-06 45 44.772 45 100C45 155.228 79.6989 200 122.5 200C165.301 200 200 155.228 200 100C200 44.772 165.297 8.74228e-06 122.496 8.74228e-06Z" fill="#FFA300" transform="rotate(270,100,100)"/>
</svg>
  <rect x="320" y="640" width="320" height="320" fill="#F3F3F3"/>
  <svg x="320" y="640" width="320" height="320" viewBox="0 0 200 200" overflow="hidden"><path xmlns="http://www.w3.org/2000/svg" d="M150 100H200C200 44.772 155.228 8.74228e-06 100 8.74228e-06C44.772 8.74228e-06 8.74228e-06 44.772 8.74228e-06 100H50C50 100 72.384 100 100 100C127.616 100 150 100 150 100Z M45 200H65V100H45V200Z M90 200H110V100H90V200Z M135 200H155V100H135V200Z M8.74228e-06 200H20V100H8.74228e-06V200Z M180 200H200V100H180V200Z" fill="#4997D0" transform="rotate(270,100,100)"/>
</svg>
  <rect x="640" y="640" width="320" height="320" fill="#F3F3F3"/>
  <svg x="640" y="640" width="320" height="320" viewBox="0 0 200 200" overflow="hidden"><path xmlns="http://www.w3.org/2000/svg" d="M200 1.67962e-05L200 150L8.74228e-06 150L4.41485e-05 -6.51651e-06L200 1.67962e-05Z" fill="#4997D0" transform="rotate(90,100,100)"/>
</svg>
  <rect x="960" y="640" width="320" height="320" fill="#121212"/>
  <svg x="960" y="640" width="320" height="320" viewBox="0 0 200 200" overflow="hidden"><path xmlns="http://www.w3.org/2000/svg" d="M0.0,0.0 L200.0,0.0 L200.0,200.0 L0.0,200.0 Z M200 1.5299e-05L125 8.74228e-06C125 23.9875 136.261 45.3448 153.785 59.0736C155.31 60.2684 154.568 62.8436 152.631 62.9089C142.53 63.2496 131.501 63.375 122.484 63.4775C121.637 63.4871 120.809 63.4965 120 63.5059C90.0001 63.5059 90 69.4999 90 71.9999C90 72.0173 90.0053 72.0343 90.0158 72.0512C90.0053 72.068 90 72.0851 90 72.1023C90 74.5826 90.0001 80.5294 120 80.5294C120.809 80.5387 121.637 80.5481 122.484 80.5576C145.591 80.8182 181.9 81.2276 182 84.9999H200V75L200 71.9999V59L200 1.5299e-05Z M182 177C181.899 183.727 145.591 184.457 122.484 184.922C121.637 184.939 120.809 184.955 120 184.972C90.0001 184.972 90 200 90 200H200V177H182Z M182 131C181.899 137.727 145.591 138.457 122.484 138.922C121.637 138.939 120.809 138.955 120 138.972C90.0001 138.972 90 154 90 154H200V131H182Z M182 85C181.899 91.727 145.591 92.4571 122.484 92.9218C121.637 92.9388 120.809 92.9555 120 92.9721C90.0001 92.9721 90 108 90 108H200V85H182Z M182 131C181.899 124.273 145.591 123.543 122.484 123.078C121.637 123.061 120.809 123.045 120 123.028C90.0001 123.028 90 108 90 108H200V131H182Z M182 177C181.899 170.273 145.591 169.543 122.484 169.078C121.637 169.061 120.809 169.045 120 169.028C90.0001 169.028 90 154 90 154H200V177H182Z M200 2.18557e-06C200 82.8427 200 150 200 150C117.157 150 50 82.8427 50 8.74228e-06C50 8.74228e-06 117.157 5.80674e-06 200 2.18557e-06Z" fill="#FF4F00" fill-rule="evenodd" transform="rotate(180,100,100)"/>
</svg>
  <rect x="1280" y="640" width="320" height="320" fill="#4997D0"/>
  <svg x="1280" y="640" width="320" height="320" viewBox="0 0 200 200" overflow="hidden"><path xmlns="http://www.w3.org/2000/svg" d="M100 100L200 2.62268e-05L3.92599e-05 0L1.52588e-05 200L200 200L100 100Z" fill="#FF4F00"/>
</svg>
  <rect x="1600" y="640" width="320" height="320" fill="#121212"/>
  <svg x="1600" y="640" width="320" height="320" viewBox="0 0 200 200" overflow="hidden"><path xmlns="http://www.w3.org/2000/svg" d="M50 50C50 22.3858 72.3858 8.74228e-06 100 8.74228e-06C127.614 8.74228e-06 150 22.3858 150 50V150C150 177.614 127.614 200 100 200C72.3858 200 50 177.614 50 150V50Z M66.66649999999998,146.333 A33.3333,33.3333 0 1,0 133.3331,146.333 A33.3333,33.3333 0 1,0 66.66649999999998,146.333 Z" fill="#F3F3F3" fill-rule="evenodd" transform="rotate(270,100,100)"/>
</svg>
</svg>
