<?xml version='1.0' encoding='UTF-8'?>
<svg xmlns="http://www.w3.org/2000/svg" version="1.1" width="1920" height="960" viewBox="0 0 1920 960">
  <rect x="0" y="0" width="320" height="320" fill="#FFFFFF"/>
  <g transform="translate(0,0) scale(1.6)"><path xmlns="http://www.w3.org/2000/svg" d="M200 3.38562e-05L8.74228e-06 200L3.49691e-05 7.62939e-06L200 3.38562e-05Z M150.05 200C105.549 200 83.2634 146.197 114.73 114.73L114.73 114.73C146.197 83.2634 200 105.549 200 150.05L200 200L150.05 200Z" fill="#121212"/>
</g>
  <rect x="320" y="0" width="320" height="320" fill="#FF4F00"/>
  <g transform="translate(320,0) scale(1.6) rotate(180,100,100)"><path xmlns="http://www.w3.org/2000/svg" d="M200 3.49691e-05L196.918 1.67485C114.352 46.5417 46.5417 114.352 1.67482 196.918L8.74228e-06 200L3.49691e-05 8.74228e-06L200 3.49691e-05Z M69.5147 199.167C54.8302 122.315 122.662 54.9099 200 69.502L69.5147 199.167Z" fill="#FFFFFF"/>
</g>
  <rect x="640" y="0" width="320" height="320" fill="#F3F3F3"/>
  <g transform="translate(640,0) scale(1.6)"><path xmlns="http://www.w3.org/2000/svg" d="M100 6.5969e-06L8.74228e-06 100L2.18557e-05 -6.51651e-06L100 6.5969e-06Z M100 200L200 100L200 200L100 200Z" fill="#FFFFFF"/>
</g>
  <rect x="960" y="0" width="320" height="320" fill="#F3F3F3"/>
  <g transform="translate(960,0) scale(1.6) rotate(180,100,100)"><path xmlns="http://www.w3.org/2000/svg" d="M200 3.49691e-05L8.74228e-06 200L3.49691e-05 8.74228e-06L200 3.49691e-05Z M200 100L100 200L100 200C100 144.772 144.772 100 200 100L200 100Z M100 200L200 100L200 200L100 200Z" fill="#121212"/>
</g>
  <rect x="1280" y="0" width="320" height="320" fill="#FFFFFF"/>
  <g transform="translate(1280,0) scale(1.6)"><path xmlns="http://www.w3.org/2000/svg" d="M2.18557e-06 150L0 200L200 200L200 8.74228e-06L150 0.0373421C150 91.5 75 150 2.18557e-06 150Z" fill="#FF4F00"/>
</g>
  <rect x="1600" y="0" width="320" height="320" fill="#121212"/>
  <g transform="translate(1600,0) scale(1.6) rotate(180,100,100)"><path xmlns="http://www.w3.org/2000/svg" d="M200 1.97103e-05L200 50L8.74228e-06 100L3.49691e-05 -6.51651e-06L200 1.97103e-05Z M200 1.97103e-05L200 50L8.74228e-06 100L3.49691e-05 -6.51651e-06L200 1.97103e-05Z M-2.18558e-06 200L200 150L200 200L-2.18558e-06 200Z" fill="#FFFFFF"/>
</g>
  <rect x="0" y="320" width="320" height="320" fill="#FF4F00"/>
  <g transform="translate(0,320) scale(1.6) rotate(180,100,100)"><path xmlns="http://www.w3.org/2000/svg" d="M200 1.97103e-05L200 50L8.74228e-06 100L3.49691e-05 -6.51651e-06L200 1.97103e-05Z M200 1.97103e-05L200 50L8.74228e-06 100L3.49691e-05 -6.51651e-06L200 1.97103e-05Z M-2.18558e-06 200L200 150L200 200L-2.18558e-06 200Z" fill="#4997D0"/>
</g>
  <rect x="320" y="320" width="320" height="320" fill="#121212"/>
  <g transform="translate(320,320) scale(1.6)"><path xmlns="http://www.w3.org/2000/svg" d="M200 0H0V200C0 89.544 89.544 0 200 0Z" fill="#4997D0"/>
</g>
  <rect x="640" y="320" width="320" height="320" fill="#FFFFFF"/>
  <g transform="translate(640,320) scale(1.6) rotate(180,100,100)"><path xmlns="http://www.w3.org/2000/svg" d="M200 1.97103e-05L200 50L8.74228e-06 100L3.49691e-05 -6.51651e-06L200 1.97103e-05Z M200 1.97103e-05L200 50L8.74228e-06 100L3.49691e-05 -6.51651e-06L200 1.97103e-05Z M-2.18558e-06 200L200 150L200 200L-2.18558e-06 200Z" fill="#121212"/>
</g>
  <rect x="960" y="320" width="320" height="320" fill="#FFFFFF"/>
  <g transform="translate(960,320) scale(1.6)"><path xmlns="http://www.w3.org/2000/svg" d="M200 3.38562e-05L8.74228e-06 200L3.49691e-05 7.62939e-06L200 3.38562e-05Z M150.05 200C105.549 200 83.2634 146.197 114.73 114.73L114.73 114.73C146.197 83.2634 200 105.549 200 150.05L200 200L150.05 200Z" fill="#121212"/>
</g>
  <rect x="1280" y="320" width="320" height="320" fill="#121212"/>
  <g transform="translate(1280,320) scale(1.6) rotate(180,100,100)"><path xmlns="http://www.w3.org/2000/svg" d="M200 3.49691e-05L196.918 1.67485C114.352 46.5417 46.5417 114.352 1.67482 196.918L8.74228e-06 200L3.49691e-05 8.74228e-06L200 3.49691e-05Z M69.5147 199.167C54.8302 122.315 122.662 54.9099 200 69.502L69.5147 199.167Z" fill="#FFFFFF"/>
</g>
  <rect x="1600" y="320" width="320" height="320" fill="#FF4F00"/>
  <g transform="translate(1600,320) scale(1.6)"><path xmlns="http://www.w3.org/2000/svg" d="M200 200C132.395 150.473 132.395 49.5275 200 2.62268e-05L-5.22929e-05 0L-6.10352e-05 200L200 200Z" fill="#FFFFFF"/>
</g>
  <rect x="0" y="640" width="320" height="320" fill="#FF4F00"/>
  <g transform="translate(0,640) scale(1.6)"><path xmlns="http://www.w3.org/2000/svg" d="M200 1.97103e-05L8.74228e-06 200L3.49691e-05 -6.51651e-06L200 1.97103e-05Z M100 200L200 100L200 200L100 200Z" fill="#4997D0"/>
</g>
  <rect x="320" y="640" width="320" height="320" fill="#FFFFFF"/>
  <g transform="translate(320,640) scale(1.6) rotate(180,100,100)"><path xmlns="http://www.w3.org/2000/svg" d="M200 3.49691e-05L8.74228e-06 200L3.49691e-05 8.74228e-06L200 3.49691e-05Z M50 200L200 50L200 200L50 200Z" fill="#121212"/>
</g>
  <rect x="640" y="640" width="320" height="320" fill="#F3F3F3"/>
  <g transform="translate(640,640) scale(1.6)"><path xmlns="http://www.w3.org/2000/svg" d="M200 1.97103e-05L200 50L8.74228e-06 100L3.49691e-05 -6.51651e-06L200 1.97103e-05Z M200 1.97103e-05L200 50L8.74228e-06 100L3.49691e-05 -6.51651e-06L200 1.97103e-05Z M-2.18558e-06 200L200 150L200 200L-2.18558e-06 200Z" fill="#121212"/>
</g>
  <rect x="960" y="640" width="320" height="320" fill="#FF4F00"/>
  <g transform="translate(960,640) scale(1.6) rotate(180,100,100)"><path xmlns="http://www.w3.org/2000/svg" d="M200 1.97103e-05L200 50L8.74228e-06 100L3.49691e-05 -6.51651e-06L200 1.97103e-05Z M200 1.97103e-05L200 50L8.74228e-06 100L3.49691e-05 -6.51651e-06L200 1.97103e-05Z M-2.18558e-06 200L200 150L200 200L-2.18558e-06 200Z" fill="#FFFFFF"/>
</g>
  <rect x="1280" y="640" width="320" height="320" fill="#F3F3F3"/>
  <g transform="translate(1280,640) scale(1.6)"><path xmlns="http://www.w3.org/2000/svg" d="M200 3.49691e-05L8.74228e-06 200L3.49691e-05 8.74228e-06L200 3.49691e-05Z M200 100L100 200L100 200C100 144.772 144.772 100 200 100L200 100Z M100 200L200 100L200 200L100 200Z" fill="#FFFFFF"/>
</g>
  <rect x="1600" y="640" width="320" height="320" fill="#F3F3F3"/>
  <g transform="translate(1600,640) scale(1.6) rotate(180,100,100)"><path xmlns="http://www.w3.org/2000/svg" d="M100 6.5969e-06L8.74228e-06 100L2.18557e-05 -6.51651e-06L100 6.5969e-06Z M100 200L200 100L200 200L100 200Z" fill="#FF4F00"/>
</g>
</svg>
