<?xml version='1.0' encoding='UTF-8'?>
<svg xmlns="http://www.w3.org/2000/svg" version="1.1" width="1920" height="960" viewBox="0 0 1920 960">
  <rect x="0" y="0" width="320" height="320" fill="#FFFFFF"/>
  <svg x="0" y="0" width="320" height="320" viewBox="0 0 200 200" overflow="hidden"><path xmlns="http://www.w3.org/2000/svg" d="M190 1.8399e-05L190 190L8.74228e-06 190L4.61155e-05 -6.51651e-06L190 1.8399e-05Z" fill="#121212"/>
</svg>
  <rect x="320" y="0" width="320" height="320" fill="#FFFFFF"/>
  <svg x="320" y="0" width="320" height="320" viewBox="0 0 200 200" overflow="hidden"><path xmlns="http://www.w3.org/2000/svg" d="M200 2.73397e-05L200 100L8.74228e-06 200L3.49691e-05 1.11288e-06L200 2.73397e-05Z" fill="#FF4F00" transform="rotate(180,100,100)"/>
</svg>
  <rect x="640" y="0" width="320" height="320" fill="#FFFFFF"/>
  <svg x="640" y="0" width="320" height="320" viewBox="0 0 200 200" overflow="hidden"><path xmlns="http://www.w3.org/2000/svg" d="M100 100L200 2.62268e-05L3.92599e-05 0L1.52588e-05 200L200 200L100 100Z" fill="#FF4F00"/>
</svg>
  <rect x="960" y="0" width="320" height="320" fill="#FFFFFF"/>
  <svg x="960" y="0" width="320" height="320" viewBox="0 0 200 200" overflow="hidden"><path xmlns="http://www.w3.org/2000/svg" d="M200 8.74228e-06C200 55.228 177.616 105.228 141.42 141.42C105.228 177.616 55.228 200 0 200L200 200L200 8.74228e-06Z M141.667 100C141.667 76.9841 123.011 58.3333 100 58.3333C76.9891 58.3333 58.3333 76.9841 58.3333 100C58.3333 123.016 76.989 141.667 100 141.667C111.508 141.667 121.925 137.004 129.464 129.464C137.004 121.925 141.667 111.508 141.667 100Z M100.028 0.0280087L0.0559627 4.37236e-06L0.0279585 100C55.2405 100.016 100.012 55.256 100.028 0.0280087Z" fill="#FF4F00" transform="rotate(180,100,100)"/>
</svg>
  <rect x="1280" y="0" width="320" height="320" fill="#FFFFFF"/>
  <svg x="1280" y="0" width="320" height="320" viewBox="0 0 200 200" overflow="hidden"><path xmlns="http://www.w3.org/2000/svg" d="M200 1.56833e-05L200 1.56833e-05C200 55.2285 155.228 100 100 100L8.74228e-06 100L3.67176e-05 -7.62939e-06L200 1.56833e-05Z" fill="#FF4F00"/>
</svg>
  <rect x="1600" y="0" width="320" height="320" fill="#FF4F00"/>
  <svg x="1600" y="0" width="320" height="320" viewBox="0 0 200 200" overflow="hidden"><path xmlns="http://www.w3.org/2000/svg" d="M101.046 0.0050954C100.849 0.00199645 100.652 0.000313685 100.455 5.32538e-05L100.449 2.23595e-05L100.444 4.03871e-05L100.401 1.74946e-05L100.358 3.94186e-05L100.349 3.83041e-05L100.309 5.70389e-05L100.305 3.83041e-05L100.302 5.223e-05L100.261 3.83041e-05L100.248 4.17448e-05L100.225 1.9927e-05C100.211 1.99258e-05 100.197 4.28125e-05 100.183 8.85747e-05C100.173 7.36736e-05 100.163 6.10756e-05 100.153 5.07809e-05C100.148 3.10244e-05 100.142 2.11437e-05 100.137 2.11432e-05L100.131 3.07249e-05C100.117 2.10955e-05 100.103 1.62796e-05 100.089 1.62783e-05C100.078 1.62774e-05 100.067 1.90319e-05 100.057 2.45413e-05C100.038 1.40118e-05 100.019 8.74498e-06 100 8.74228e-06L99.9354 2.91409e-05L99.9126 1.87108e-05C99.8861 1.87085e-05 99.8596 6.08214e-05 99.8331 0.000145018C44.6814 0.0902254 1.68803e-05 44.8271 8.74228e-06 100C2.63876e-06 155.168 44.6734 199.902 99.8183 200L99.8698 200L99.9126 200L99.9502 200L100 200H100L100.041 200L100.065 200C100.074 200 100.083 200 100.093 200C100.099 200 100.106 200 100.113 200L100.129 200C100.143 200 100.158 200 100.172 200L100.197 200L100.217 200L100.225 200H100.227L100.265 200L100.302 200L100.305 200L100.31 200L100.353 200L100.391 200H100.405L100.444 200L100.449 200L100.454 200C100.648 200 100.842 199.998 101.035 199.995L101.108 199.994L101.177 199.993C155.863 199.362 200 154.836 200 100C200 45.1514 155.842 0.616484 101.138 0.00635371C101.108 0.00591104 101.077 0.0054916 101.046 0.0050954ZM58.5705 15.6393C37.0635 33.3961 22.8006 64.5432 22.8006 100C22.8006 135.461 37.0685 166.611 58.581 184.367C31.6435 168.159 13.2 136.615 13.2 100C13.2 63.3897 31.6387 31.8492 58.5705 15.6393ZM133.023 14.2473C151.45 31.7377 163.777 63.5976 163.777 100C163.777 136.398 151.453 168.255 133.031 185.746C156.944 169.92 173.381 137.428 173.381 100C173.381 62.5673 156.941 30.071 133.023 14.2473ZM58.9686 31.436C63.8909 23.6709 69.5034 17.4135 75.6812 12.7998C60.6203 29.9415 50.4486 62.5693 50.4486 100C50.4486 137.45 60.6329 170.093 75.7069 187.227C69.5189 182.612 63.8977 176.348 58.9686 168.572C53.3646 159.732 48.9606 149.408 45.8726 137.892C42.6566 125.9 41.0286 113.152 41.0286 100.004C41.0286 86.856 42.6566 74.108 45.8726 62.116C48.9606 50.6 53.3646 40.276 58.9686 31.436ZM116.118 189.476C116.267 189.352 116.416 189.227 116.565 189.1C122.041 184.416 127.001 177.632 131.301 168.936C140.377 150.592 145.373 126.108 145.373 100C145.373 73.892 140.377 49.412 131.301 31.064C127.001 22.368 122.041 15.584 116.565 10.9C116.416 10.7727 116.267 10.6471 116.118 10.5233C127.774 26.9357 135.777 60.8393 135.777 100C135.777 139.16 127.775 173.063 116.118 189.476ZM78.4966 100C78.4966 58.862 83.8719 23.5254 91.5543 8.17257C90.8515 8.84517 90.1494 9.59846 89.4487 10.432C85.5807 15.036 81.9167 22.02 78.8567 30.628C72.2926 49.096 68.6767 73.732 68.6766 100C68.6766 126.268 72.2926 150.904 78.8566 169.372C81.9166 177.98 85.5806 184.964 89.4486 189.568C90.1494 190.402 90.8515 191.155 91.5543 191.827C83.8719 176.475 78.4966 141.138 78.4966 100ZM103.243 6.73626C106.13 21.2293 108.177 57.5219 108.177 100C108.177 142.476 106.13 178.767 103.243 193.262C105.554 189.943 108.669 183.072 111.529 169.864C115.557 151.248 117.777 126.436 117.777 100C117.777 73.564 115.557 48.752 111.529 30.136C108.67 16.9249 105.555 10.0537 103.243 6.73626ZM142.748 183.551C168.961 167.115 186.8 136.01 186.8 100C186.8 63.9853 168.956 32.8768 142.737 16.4426C163.71 34.3259 177.553 65.0719 177.553 100C177.553 134.924 163.715 165.666 142.748 183.551ZM68.6244 13.413C49.7034 30.7121 36.9766 63.0109 36.9766 100C36.9766 136.993 49.7063 169.295 68.6321 186.593C44.0104 171.1 26.9726 138.108 26.9726 100C26.9726 61.8967 44.0081 28.9082 68.6244 13.413ZM149.505 100C149.505 138.629 138.671 172.143 122.81 188.799C129.885 184.075 136.268 177.266 141.785 168.564C147.389 159.724 151.793 149.4 154.881 137.884C158.097 125.892 159.725 113.144 159.725 99.996C159.725 86.848 158.097 74.1 154.881 62.108C151.793 50.592 147.389 40.268 141.785 31.428C136.265 22.72 129.877 15.908 122.797 11.184L122.785 11.1761C138.658 27.8232 149.505 61.3514 149.505 100ZM84.7949 190.247C84.3243 189.882 83.8555 189.5 83.3886 189.1C77.9126 184.416 72.9526 177.632 68.6526 168.936C59.5766 150.588 54.5806 126.108 54.5806 100C54.5806 73.892 59.5766 49.408 68.6526 31.064C72.9526 22.368 77.9126 15.584 83.3886 10.9C83.855 10.5013 84.3233 10.1196 84.7934 9.75515C72.835 25.8609 64.5766 60.2178 64.5766 100C64.5766 139.784 72.8357 174.142 84.7949 190.247ZM110.905 189.568C110.204 190.402 109.502 191.155 108.799 191.827C116.481 176.475 121.857 141.138 121.857 100C121.857 58.862 116.481 23.5254 108.799 8.1726C109.502 8.8452 110.204 9.59849 110.905 10.432C114.773 15.036 118.437 22.02 121.497 30.628C128.061 49.096 131.677 73.732 131.677 100C131.677 126.268 128.061 150.904 121.497 169.372C118.437 177.98 114.773 184.964 110.905 189.568ZM97.6645 194.012C95.3134 191.035 91.9181 184.163 88.8246 169.864C84.7966 151.248 82.5766 126.436 82.5766 100C82.5766 73.564 84.7966 48.752 88.8246 30.136C91.9203 15.8397 95.314 8.96768 97.6642 5.98922C94.6964 19.9499 92.5766 56.772 92.5766 100C92.5766 143.23 94.6966 180.053 97.6645 194.012ZM160.667 174.405C179.166 156.098 190.8 129.546 190.8 100C190.8 70.4544 179.166 43.9015 160.667 25.595C182.231 43.199 196 69.9916 196 100C196 130.008 182.231 156.801 160.667 174.405ZM39.3331 174.405C20.8345 156.099 9.20003 129.546 9.20003 100C9.20003 70.4543 20.8346 43.9013 39.3333 25.5949C17.7687 43.1988 4.00001 69.9915 4.00001 100C4 130.008 17.7686 156.801 39.3331 174.405ZM98.6606 166.152C99.2206 174.306 99.8174 180.342 100.377 184.799C100.94 180.342 101.533 174.306 102.093 166.152C103.345 147.932 104.033 124.436 104.033 100C104.033 75.564 103.345 52.068 102.093 33.848C101.533 25.6938 100.936 19.658 100.376 15.2009C99.8137 19.658 99.2206 25.6938 98.6607 33.848C97.4086 52.068 96.7206 75.564 96.7206 100C96.7206 124.436 97.4086 147.932 98.6606 166.152Z" fill="#FFFFFF" transform="rotate(270,100,100)"/>
</svg>
  <rect x="0" y="320" width="320" height="320" fill="#121212"/>
  <svg x="0" y="320" width="320" height="320" viewBox="0 0 200 200" overflow="hidden"><path xmlns="http://www.w3.org/2000/svg" d="M20 200H40L40 0H20L20 200Z M180 200H200L200 0H180L180 200Z M80 200H60V100V0H80V55.9927C80 57.6415 81.9006 58.604 83.2937 57.7221C83.7889 57.4087 84.2899 57.1037 84.7967 56.8074C93.0078 52.0057 100 44.1641 100 34.6521V0H120V34.6521C120 44.1641 126.992 52.0057 135.203 56.8074C135.71 57.1037 136.211 57.4087 136.706 57.7221C138.099 58.604 140 57.6415 140 55.9927V0H160V100V200H140V144.007C140 142.359 138.099 141.396 136.706 142.278C136.211 142.591 135.71 142.896 135.203 143.193C126.992 147.994 120 155.836 120 165.348V200H100V165.348C100 155.836 93.0079 147.994 84.7967 143.193C84.29 142.896 83.7889 142.591 83.2937 142.278C81.9006 141.396 80 142.359 80 144.007V200Z M20.0,32.5 L35.8333,32.5 L35.8333,48.3333 L20.0,48.3333 Z" fill="#FFFFFF" fill-rule="evenodd" transform="rotate(180,100,100)"/>
</svg>
  <rect x="320" y="320" width="320" height="320" fill="#F3F3F3"/>
  <svg x="320" y="320" width="320" height="320" viewBox="0 0 200 200" overflow="hidden"><path xmlns="http://www.w3.org/2000/svg" d="M0.0,0.0 L200.0,0.0 L200.0,200.0 L0.0,200.0 Z M200 1.5299e-05L125 8.74228e-06C125 23.9875 136.261 45.3448 153.785 59.0736C155.31 60.2684 154.568 62.8436 152.631 62.9089C142.53 63.2496 131.501 63.375 122.484 63.4775C121.637 63.4871 120.809 63.4965 120 63.5059C90.0001 63.5059 90 69.4999 90 71.9999C90 72.0173 90.0053 72.0343 90.0158 72.0512C90.0053 72.068 90 72.0851 90 72.1023C90 74.5826 90.0001 80.5294 120 80.5294C120.809 80.5387 121.637 80.5481 122.484 80.5576C145.591 80.8182 181.9 81.2276 182 84.9999H200V75L200 71.9999V59L200 1.5299e-05Z M182 177C181.899 183.727 145.591 184.457 122.484 184.922C121.637 184.939 120.809 184.955 120 184.972C90.0001 184.972 90 200 90 200H200V177H182Z M182 131C181.899 137.727 145.591 138.457 122.484 138.922C121.637 138.939 120.809 138.955 120 138.972C90.0001 138.972 90 154 90 154H200V131H182Z M182 85C181.899 91.727 145.591 92.4571 122.484 92.9218C121.637 92.9388 120.809 92.9555 120 92.9721C90.0001 92.9721 90 108 90 108H200V85H182Z M182 131C181.899 124.273 145.591 123.543 122.484 123.078C121.637 123.061 120.809 123.045 120 123.028C90.0001 123.028 90 108 90 108H200V131H182Z M182 177C181.899 170.273 145.591 169.543 122.484 169.078C121.637 169.061 120.809 169.045 120 169.028C90.0001 169.028 90 154 90 154H200V177H182Z M200 2.18557e-06C200 82.8427 200 150 200 150C117.157 150 50 82.8427 50 8.74228e-06C50 8.74228e-06 117.157 5.80674e-06 200 2.18557e-06Z" fill="#FF4F00" fill-rule="evenodd" transform="rotate(270,100,100)"/>
</svg>
  <rect x="640" y="320" width="320" height="320" fill="#121212"/>
  <svg x="640" y="320" width="320" height="320" viewBox="0 0 200 200" overflow="hidden"><path xmlns="http://www.w3.org/2000/svg" d="M200.0000,100.1000 L199.9804,98.0222 L199.9218,95.9609 L199.8246,93.9161 L199.6894,91.8882 L199.5165,89.8773 L199.3064,87.8836 L199.0594,85.9072 L198.7762,83.9483 L198.4570,82.0072 L198.1023,80.0840 L197.7125,78.1788 L197.2882,76.2919 L196.8297,74.4234 L196.3374,72.5735 L195.8118,70.7425 L195.2534,68.9304 L194.6625,67.1375 L194.0396,65.3639 L193.3852,63.6098 L192.6996,61.8754 L191.9833,60.1609 L191.2368,58.4665 L190.4604,56.7923 L189.6547,55.1385 L188.8200,53.5054 L187.9568,51.8930 L187.0655,50.3016 L186.1466,48.7313 L185.2005,47.1823 L184.2276,45.6549 L183.2283,44.1491 L182.2032,42.6652 L181.1526,41.2033 L180.0769,39.7637 L178.9767,38.3465 L177.8523,36.9518 L176.7042,35.5799 L175.5328,34.2310 L174.3386,32.9052 L173.1219,31.6027 L171.8833,30.3237 L170.6231,29.0684 L169.3418,27.8369 L168.0398,26.6295 L166.7176,25.4462 L165.3756,24.2874 L164.0142,23.1531 L162.6339,22.0436 L161.2351,20.9590 L159.8183,19.8995 L158.3838,18.8653 L156.9322,17.8566 L155.4637,16.8735 L153.9790,15.9163 L152.4784,14.9851 L150.9623,14.0801 L149.4313,13.2014 L147.8856,12.3494 L146.3259,11.5240 L144.7524,10.7256 L143.1656,9.9543 L141.5661,9.2102 L139.9541,8.4936 L138.3302,7.8047 L136.6947,7.1435 L135.0482,6.5104 L133.3910,5.9055 L131.7236,5.3289 L130.0464,4.7808 L128.3599,4.2615 L126.6644,3.7711 L124.9605,3.3098 L123.2486,2.8777 L121.5290,2.4751 L119.8023,2.1021 L118.0688,1.7589 L116.3291,1.4457 L114.5835,1.1626 L112.8324,0.9099 L111.0764,0.6877 L109.3158,0.4963 L107.5511,0.3357 L105.7828,0.2062 L104.0111,0.1079 L102.2367,0.0411 L100.4599,0.0059 L98.6812,0.0024 L96.9009,0.0310 L95.1196,0.0917 L93.3377,0.1847 L91.5555,0.3102 L89.7736,0.4685 L87.9924,0.6596 L86.2123,0.8837 L84.4337,1.1411 L82.6572,1.4319 L80.8830,1.7563 L79.1117,2.1145 L77.3437,2.5066 L75.5794,2.9329 L73.8192,3.3934 L72.0637,3.8885 L70.3132,4.4183 L68.5681,4.9829 L66.8290,5.5826 L65.0962,6.2174 L63.3702,6.8877 L61.6514,7.5935 L59.9402,8.3352 L58.2371,9.1127 L56.5426,9.9264 L54.8569,10.7764 L53.1807,11.6628 L51.5143,12.5859 L49.8582,13.5459 L48.2127,14.5429 L46.5784,15.5771 L44.9557,16.6487 L43.3449,17.7578 L41.7466,18.9047 L40.1612,20.0895 L38.5891,21.3124 L37.0307,22.5736 L35.4865,23.8733 L33.9570,25.2116 L32.4424,26.5888 L30.9434,28.0050 L29.4603,29.4603 L29.4603,29.4603 L28.0050,30.9434 L26.5888,32.4424 L25.2116,33.9570 L23.8733,35.4865 L22.5737,37.0307 L21.3124,38.5891 L20.0895,40.1612 L18.9047,41.7466 L17.7578,43.3449 L16.6487,44.9557 L15.5771,46.5784 L14.5429,48.2127 L13.5459,49.8582 L12.5860,51.5143 L11.6629,53.1807 L10.7764,54.8569 L9.9264,56.5426 L9.1127,58.2371 L8.3352,59.9402 L7.5936,61.6514 L6.8877,63.3702 L6.2175,65.0962 L5.5826,66.8290 L4.9829,68.5681 L4.4183,70.3132 L3.8886,72.0637 L3.3935,73.8192 L2.9329,75.5794 L2.5066,77.3437 L2.1145,79.1117 L1.7563,80.8830 L1.4319,82.6572 L1.1411,84.4337 L0.8838,86.2123 L0.6596,87.9924 L0.4685,89.7736 L0.3103,91.5555 L0.1847,93.3377 L0.0917,95.1196 L0.0310,96.9009 L0.0025,98.6812 L0.0059,100.4599 L0.0411,102.2367 L0.1080,104.0111 L0.2062,105.7828 L0.3357,107.5511 L0.4963,109.3158 L0.6878,111.0764 L0.9099,112.8324 L1.1626,114.5835 L1.4457,116.3291 L1.7589,118.0688 L2.1021,119.8023 L2.4751,121.5290 L2.8777,123.2486 L3.3098,124.9605 L3.7711,126.6644 L4.2616,128.3599 L4.7809,130.0464 L5.3289,131.7236 L5.9055,133.3910 L6.5105,135.0482 L7.1436,136.6947 L7.8047,138.3302 L8.4937,139.9541 L9.2102,141.5661 L9.9543,143.1656 L10.7256,144.7524 L11.5240,146.3259 L12.3494,147.8856 L13.2015,149.4313 L14.0801,150.9623 L14.9851,152.4784 L15.9163,153.9790 L16.8735,155.4637 L17.8566,156.9322 L18.8653,158.3838 L19.8995,159.8183 L20.9590,161.2351 L22.0436,162.6339 L23.1531,164.0142 L24.2874,165.3756 L25.4462,166.7176 L26.6295,168.0398 L27.8369,169.3418 L29.0684,170.6231 L30.3237,171.8833 L31.6027,173.1219 L32.9052,174.3386 L34.2310,175.5328 L35.5800,176.7042 L36.9518,177.8523 L38.3465,178.9767 L39.7637,180.0769 L41.2033,181.1526 L42.6652,182.2032 L44.1491,183.2283 L45.6549,184.2276 L47.1823,185.2005 L48.7313,186.1466 L50.3016,187.0655 L51.8930,187.9568 L53.5054,188.8200 L55.1385,189.6547 L56.7923,190.4604 L58.4665,191.2368 L60.1609,191.9833 L61.8754,192.6996 L63.6098,193.3852 L65.3639,194.0396 L67.1375,194.6625 L68.9304,195.2534 L70.7425,195.8118 L72.5735,196.3374 L74.4234,196.8297 L76.2919,197.2882 L78.1788,197.7125 L80.0840,198.1023 L82.0072,198.4570 L83.9483,198.7762 L85.9072,199.0594 L87.8836,199.3064 L89.8773,199.5165 L91.8882,199.6894 L93.9161,199.8246 L95.9609,199.9218 L98.0222,199.9804 L100.1000,200.0000 L100.8805,200.0000 L101.6609,200.0000 L102.4414,200.0000 L103.2219,200.0000 L104.0023,200.0000 L104.7828,200.0000 L105.5633,200.0000 L106.3438,200.0000 L107.1242,200.0000 L107.9047,200.0000 L108.6852,200.0000 L109.4656,200.0000 L110.2461,200.0000 L111.0266,200.0000 L111.8070,200.0000 L112.5875,200.0000 L113.3680,200.0000 L114.1484,200.0000 L114.9289,200.0000 L115.7094,200.0000 L116.4898,200.0000 L117.2703,200.0000 L118.0508,200.0000 L118.8312,200.0000 L119.6117,200.0000 L120.3922,200.0000 L121.1727,200.0000 L121.9531,200.0000 L122.7336,200.0000 L123.5141,200.0000 L124.2945,200.0000 L125.0750,200.0000 L125.8555,200.0000 L126.6359,200.0000 L127.4164,200.0000 L128.1969,200.0000 L128.9773,200.0000 L129.7578,200.0000 L130.5383,200.0000 L131.3187,200.0000 L132.0992,200.0000 L132.8797,200.0000 L133.6602,200.0000 L134.4406,200.0000 L135.2211,200.0000 L136.0016,200.0000 L136.7820,200.0000 L137.5625,200.0000 L138.3430,200.0000 L139.1234,200.0000 L139.9039,200.0000 L140.6844,200.0000 L141.4648,200.0000 L142.2453,200.0000 L143.0258,200.0000 L143.8063,200.0000 L144.5867,200.0000 L145.3672,200.0000 L146.1477,200.0000 L146.9281,200.0000 L147.7086,200.0000 L148.4891,200.0000 L149.2695,200.0000 L150.0500,200.0000 L150.8305,200.0000 L151.6109,200.0000 L152.3914,200.0000 L153.1719,200.0000 L153.9523,200.0000 L154.7328,200.0000 L155.5133,200.0000 L156.2937,200.0000 L157.0742,200.0000 L157.8547,200.0000 L158.6352,200.0000 L159.4156,200.0000 L160.1961,200.0000 L160.9766,200.0000 L161.7570,200.0000 L162.5375,200.0000 L163.3180,200.0000 L164.0984,200.0000 L164.8789,200.0000 L165.6594,200.0000 L166.4398,200.0000 L167.2203,200.0000 L168.0008,200.0000 L168.7812,200.0000 L169.5617,200.0000 L170.3422,200.0000 L171.1227,200.0000 L171.9031,200.0000 L172.6836,200.0000 L173.4641,200.0000 L174.2445,200.0000 L175.0250,200.0000 L175.8055,200.0000 L176.5859,200.0000 L177.3664,200.0000 L178.1469,200.0000 L178.9273,200.0000 L179.7078,200.0000 L180.4883,200.0000 L181.2688,200.0000 L182.0492,200.0000 L182.8297,200.0000 L183.6102,200.0000 L184.3906,200.0000 L185.1711,200.0000 L185.9516,200.0000 L186.7320,200.0000 L187.5125,200.0000 L188.2930,200.0000 L189.0734,200.0000 L189.8539,200.0000 L190.6344,200.0000 L191.4148,200.0000 L192.1953,200.0000 L192.9758,200.0000 L193.7562,200.0000 L194.5367,200.0000 L195.3172,200.0000 L196.0977,200.0000 L196.8781,200.0000 L197.6586,200.0000 L198.4391,200.0000 L199.2195,200.0000 L200.0000,200.0000 L200.0000,199.2195 L200.0000,198.4391 L200.0000,197.6586 L200.0000,196.8781 L200.0000,196.0977 L200.0000,195.3172 L200.0000,194.5367 L200.0000,193.7562 L200.0000,192.9758 L200.0000,192.1953 L200.0000,191.4148 L200.0000,190.6344 L200.0000,189.8539 L200.0000,189.0734 L200.0000,188.2930 L200.0000,187.5125 L200.0000,186.7320 L200.0000,185.9516 L200.0000,185.1711 L200.0000,184.3906 L200.0000,183.6102 L200.0000,182.8297 L200.0000,182.0492 L200.0000,181.2688 L200.0000,180.4883 L200.0000,179.7078 L200.0000,178.9273 L200.0000,178.1469 L200.0000,177.3664 L200.0000,176.5859 L200.0000,175.8055 L200.0000,175.0250 L200.0000,174.2445 L200.0000,173.4641 L200.0000,172.6836 L200.0000,171.9031 L200.0000,171.1227 L200.0000,170.3422 L200.0000,169.5617 L200.0000,168.7812 L200.0000,168.0008 L200.0000,167.2203 L200.0000,166.4398 L200.0000,165.6594 L200.0000,164.8789 L200.0000,164.0984 L200.0000,163.3180 L200.0000,162.5375 L200.0000,161.7570 L200.0000,160.9766 L200.0000,160.1961 L200.0000,159.4156 L200.0000,158.6352 L200.0000,157.8547 L200.0000,157.0742 L200.0000,156.2937 L200.0000,155.5133 L200.0000,154.7328 L200.0000,153.9523 L200.0000,153.1719 L200.0000,152.3914 L200.0000,151.6109 L200.0000,150.8305 L200.0000,150.0500 L200.0000,149.2695 L200.0000,148.4891 L200.0000,147.7086 L200.0000,146.9281 L200.0000,146.1477 L200.0000,145.3672 L200.0000,144.5867 L200.0000,143.8063 L200.0000,143.0258 L200.0000,142.2453 L200.0000,141.4648 L200.0000,140.6844 L200.0000,139.9039 L200.0000,139.1234 L200.0000,138.3430 L200.0000,137.5625 L200.0000,136.7820 L200.0000,136.0016 L200.0000,135.2211 L200.0000,134.4406 L200.0000,133.6602 L200.0000,132.8797 L200.0000,132.0992 L200.0000,131.3187 L200.0000,130.5383 L200.0000,129.7578 L200.0000,128.9773 L200.0000,128.1969 L200.0000,127.4164 L200.0000,126.6359 L200.0000,125.8555 L200.0000,125.0750 L200.0000,124.2945 L200.0000,123.5141 L200.0000,122.7336 L200.0000,121.9531 L200.0000,121.1727 L200.0000,120.3922 L200.0000,119.6117 L200.0000,118.8312 L200.0000,118.0508 L200.0000,117.2703 L200.0000,116.4898 L200.0000,115.7094 L200.0000,114.9289 L200.0000,114.1484 L200.0000,113.3680 L200.0000,112.5875 L200.0000,111.8070 L200.0000,111.0266 L200.0000,110.2461 L200.0000,109.4656 L200.0000,108.6852 L200.0000,107.9047 L200.0000,107.1242 L200.0000,106.3438 L200.0000,105.5633 L200.0000,104.7828 L200.0000,104.0023 L200.0000,103.2219 L200.0000,102.4414 L200.0000,101.6609 L200.0000,100.8805 L200.0000,100.1000 Z" fill="#FF4F00" transform="rotate(180,100,100)"/>
</svg>
  <rect x="960" y="320" width="320" height="320" fill="#121212"/>
  <svg x="960" y="320" width="320" height="320" viewBox="0 0 200 200" overflow="hidden"><path xmlns="http://www.w3.org/2000/svg" d="M200 25L200 175L8.74228e-06 175L4.15258e-05 25L200 25Z" fill="#FF4F00"/>
</svg>
  <rect x="1280" y="320" width="320" height="320" fill="#FF4F00"/>
  <svg x="1280" y="320" width="320" height="320" viewBox="0 0 200 200" overflow="hidden"><path xmlns="http://www.w3.org/2000/svg" d="M200 3.49691e-05L8.74228e-06 200L3.49691e-05 8.74228e-06L200 3.49691e-05Z M50 200L200 50L200 200L50 200Z" fill="#D9D9D6" transform="rotate(180,100,100)"/>
</svg>
  <rect x="1600" y="320" width="320" height="320" fill="#121212"/>
  <svg x="1600" y="320" width="320" height="320" viewBox="0 0 200 200" overflow="hidden"><path xmlns="http://www.w3.org/2000/svg" d="M0.0,100.0 A100.0,50.0 0 1,0 200.0,100.0 A100.0,50.0 0 1,0 0.0,100.0 Z" fill="#D9D9D6"/>
</svg>
  <rect x="0" y="640" width="320" height="320" fill="#4997D0"/>
  <svg x="0" y="640" width="320" height="320" viewBox="0 0 200 200" overflow="hidden"><path xmlns="http://www.w3.org/2000/svg" d="M200 200C144.772 200 8.74228e-06 200 8.74228e-06 200C8.74228e-06 144.772 44.7715 100 100 100C155.228 100 200 144.772 200 200Z M1.74846e-05 -8.74228e-06C55.2285 -3.91405e-06 200 8.74228e-06 200 8.74228e-06C200 55.2285 155.228 100 100 100C44.7715 100 1.26563e-05 55.2285 1.74846e-05 -8.74228e-06Z" fill="#FFFFFF" transform="rotate(270,100,100)"/>
</svg>
  <rect x="320" y="640" width="320" height="320" fill="#121212"/>
  <svg x="320" y="640" width="320" height="320" viewBox="0 0 200 200" overflow="hidden"><path xmlns="http://www.w3.org/2000/svg" d="M200 200L180 200L180 100L200 100L200 200ZM100.028 100L200 99.972C200 99.972 155.241 99.984 100.028 100ZM100.028 100L116 100L116 200L96 200L96 100L74 100L74 200L54 200L54 100L32 100L32 200L12 200L12 100L100.028 100ZM158 200L138 200L138 100L158 100L158 200Z M200 99.9719L8.74228e-06 100L9.93477e-06 -2.38498e-06L100 -1.19249e-06C155.213 -0.0159994 199.984 44.7439 200 99.9719Z M8.74228e-06,100.0 L200.00000874228,100.0 L200.00000874228,200.0 L8.74228e-06,200.0 Z" fill="#FFFFFF" fill-rule="evenodd" transform="rotate(90,100,100)"/>
</svg>
  <rect x="640" y="640" width="320" height="320" fill="#121212"/>
  <svg x="640" y="640" width="320" height="320" viewBox="0 0 200 200" overflow="hidden"><path xmlns="http://www.w3.org/2000/svg" d="M195 5.00003L195 195L5.00001 195L5.00005 5.00001L195 5.00003Z M200 8.74228e-06L8.74228e-06 200V8.74228e-06H200Z M100 200L200 100V200H100Z" fill="#FF4F00" transform="rotate(270,100,100)"/>
</svg>
  <rect x="960" y="640" width="320" height="320" fill="#FFFFFF"/>
  <svg x="960" y="640" width="320" height="320" viewBox="0 0 200 200" overflow="hidden"><path xmlns="http://www.w3.org/2000/svg" d="M164.256 27.6135C155.966 50.9277 129.333 61.9603 106.979 51.3361C71.4878 34.4669 34.4629 71.4918 51.3361 106.979C61.9603 129.329 50.9277 155.962 27.6135 164.256C10.4602 170.357 1.25699 184.868 8.74228e-06 200H200V8.74228e-06C184.868 1.26099 170.357 10.4602 164.256 27.6135Z" fill="#121212" transform="rotate(180,100,100)"/>
</svg>
  <rect x="1280" y="640" width="320" height="320" fill="#F3F3F3"/>
  <svg x="1280" y="640" width="320" height="320" viewBox="0 0 200 200" overflow="hidden"><path xmlns="http://www.w3.org/2000/svg" d="M0.0,100.0 A100.0,100.0 0 1,0 200.0,100.0 A100.0,100.0 0 1,0 0.0,100.0 Z" fill="#FF4F00" transform="rotate(90,100,100)"/>
</svg>
  <rect x="1600" y="640" width="320" height="320" fill="#4997D0"/>
  <svg x="1600" y="640" width="320" height="320" viewBox="0 0 200 200" overflow="hidden"><path xmlns="http://www.w3.org/2000/svg" d="M200 200C132.395 150.473 132.395 49.5275 200 2.62268e-05L-5.22929e-05 0L-6.10352e-05 200L200 200Z" fill="#FFFFFF" transform="rotate(270,100,100)"/>
</svg>
</svg>
