<?xml version='1.0' encoding='UTF-8'?>
<svg xmlns="http://www.w3.org/2000/svg" version="1.1" width="1920" height="960" viewBox="0 0 1920 960">
  <svg x="0.0" y="0.0" width="320.0" height="320.0" viewBox="0 0 200 200"><ns0:g xmlns:ns0="http://www.w3.org/2000/svg" clip-path="url(#clip0_20_1394)">
<ns0:rect width="200" height="200" transform="translate(200 8.74228e-06) rotate(90)" fill="#121212"/>
<ns0:path d="M200 9.16683e-06L200 10L8.74228e-06 10L2.33419e-05 -1.41459e-05L200 9.16683e-06Z" fill="#FF4F00"/>
</ns0:g>
<ns1:defs xmlns:ns1="http://www.w3.org/2000/svg">
<ns1:clipPath id="clip0_20_1394">
<ns1:rect width="200" height="200" fill="#FFFFFF" transform="translate(200 8.74228e-06) rotate(90)"/>
</ns1:clipPath>
</ns1:defs>
</svg>
  <svg x="320.0" y="0.0" width="320.0" height="320.0" viewBox="0 0 200 200"><ns2:g xmlns:ns2="http://www.w3.org/2000/svg" clip-path="url(#clip0_3_533)">
<ns2:rect width="200" height="200" transform="translate(200 8.74228e-06) rotate(90)" fill="#D9D9D6"/>
<ns2:path fill-rule="evenodd" clip-rule="evenodd" d="M0.0280653 100L0 200L200 200L200 8.74228e-06L100.028 0.0280087C100.012 55.256 55.2406 100.016 0.0280653 100Z" fill="#4997D0"/>
</ns2:g>
<ns3:defs xmlns:ns3="http://www.w3.org/2000/svg">
<ns3:clipPath id="clip0_3_533">
<ns3:rect width="200" height="200" fill="#FFFFFF" transform="translate(200 8.74228e-06) rotate(90)"/>
</ns3:clipPath>
</ns3:defs>
</svg>
  <svg x="640.0" y="0.0" width="320.0" height="320.0" viewBox="0 0 200 200"><ns4:rect xmlns:ns4="http://www.w3.org/2000/svg" width="200" height="200" transform="translate(200 8.74228e-06) rotate(90)" fill="#D9D9D6"/>
<ns5:ellipse xmlns:ns5="http://www.w3.org/2000/svg" cx="100" cy="100" rx="75" ry="50" transform="rotate(90 100 100)" fill="#FF4F00"/>
<ns6:circle xmlns:ns6="http://www.w3.org/2000/svg" cx="99.9998" cy="120" r="33.3333" fill="#D9D9D6"/>
</svg>
  <svg x="960.0" y="0.0" width="320.0" height="320.0" viewBox="0 0 200 200"><ns7:rect xmlns:ns7="http://www.w3.org/2000/svg" width="200" height="200" transform="translate(200 1.52588e-05) rotate(90)" fill="#F3F3F3"/>
<ns8:path xmlns:ns8="http://www.w3.org/2000/svg" d="M150 4.25583e-05L150 150L8.74228e-06 150L3.82475e-05 2.28882e-05L150 4.25583e-05Z" fill="#FFA300"/>
</svg>
  <svg x="1280.0" y="0.0" width="320.0" height="320.0" viewBox="0 0 200 200"><ns9:rect xmlns:ns9="http://www.w3.org/2000/svg" width="200" height="200" transform="translate(200 8.74228e-06) rotate(90)" fill="#D9D9D6"/>
<ns10:path xmlns:ns10="http://www.w3.org/2000/svg" d="M150 50L150 150L50 150L50 50L150 50Z" fill="#FF4F00"/>
</svg>
  <svg x="1600.0" y="0.0" width="320.0" height="320.0" viewBox="0 0 200 200"><ns11:g xmlns:ns11="http://www.w3.org/2000/svg" clip-path="url(#clip0_5_6418)">
<ns11:rect width="200" height="200" transform="translate(200 8.74228e-06) rotate(90)" fill="#121212"/>
<ns11:rect x="8.74228e-06" y="8.74228e-06" width="100" height="100" fill="#121212"/>
<ns11:rect x="100" y="8.74228e-06" width="100" height="100" fill="#121212"/>
<ns11:path fill-rule="evenodd" clip-rule="evenodd" d="M100 4.37114e-06C44.7715 4.37114e-06 6.78525e-06 44.7715 4.37114e-06 100L0 200L200 200L200 100C200 44.7715 155.228 4.37114e-06 100 4.37114e-06Z" fill="#FFA300"/>
</ns11:g>
<ns12:defs xmlns:ns12="http://www.w3.org/2000/svg">
<ns12:clipPath id="clip0_5_6418">
<ns12:rect width="200" height="200" fill="#FFFFFF" transform="translate(200 8.74228e-06) rotate(90)"/>
</ns12:clipPath>
</ns12:defs>
</svg>
  <svg x="0.0" y="320.0" width="320.0" height="320.0" viewBox="0 0 200 200"><ns13:g xmlns:ns13="http://www.w3.org/2000/svg" clip-path="url(#clip0_20_1216)">
<ns13:rect width="200" height="200" transform="translate(200 8.74228e-06) rotate(90)" fill="#121212"/>
<ns13:path fill-rule="evenodd" clip-rule="evenodd" d="M100 186.25L150 186.203L150 199.953L200 200L200 1.6969e-05L150 1.6969e-05C149.973 92.0467 150 136.25 100 186.25Z" fill="#FFA300"/>
</ns13:g>
<ns14:defs xmlns:ns14="http://www.w3.org/2000/svg">
<ns14:clipPath id="clip0_20_1216">
<ns14:rect width="200" height="200" fill="#FFFFFF" transform="translate(200 8.74228e-06) rotate(90)"/>
</ns14:clipPath>
</ns14:defs>
</svg>
  <svg x="320.0" y="320.0" width="320.0" height="320.0" viewBox="0 0 200 200"><ns15:g xmlns:ns15="http://www.w3.org/2000/svg" clip-path="url(#clip0_20_1334)">
<ns15:rect width="200" height="200" transform="translate(200 8.74228e-06) rotate(90)" fill="#F3F3F3"/>
<ns15:path d="M100 8.74228e-06H8.74228e-06V100C8.74228e-06 44.772 44.772 8.74228e-06 100 8.74228e-06Z" fill="#121212"/>
<ns15:path d="M50.0001 150C50.0001 122.387 27.6192 100 0.000126998 100C0.000126998 100 0.000126019 122.387 0.000124812 150C0.000128023 163.81 0.000126441 200 0.000126441 200C27.6192 200 50.0001 177.613 50.0001 150Z" fill="#121212"/>
</ns15:g>
<ns16:defs xmlns:ns16="http://www.w3.org/2000/svg">
<ns16:clipPath id="clip0_20_1334">
<ns16:rect width="200" height="200" fill="#FFFFFF" transform="translate(200 8.74228e-06) rotate(90)"/>
</ns16:clipPath>
</ns16:defs>
</svg>
  <svg x="640.0" y="320.0" width="320.0" height="320.0" viewBox="0 0 200 200"><ns17:g xmlns:ns17="http://www.w3.org/2000/svg" clip-path="url(#clip0_35_2275)">
<ns17:rect width="200" height="200" transform="translate(200 1.52588e-05) rotate(90)" fill="#D9D9D6"/>
<ns17:path fill-rule="evenodd" clip-rule="evenodd" d="M100.538 79.1952C108.405 89.9719 115.713 99.9825 130.461 100C115.713 100.017 108.405 110.028 100.538 120.805C91.3581 133.381 81.4163 147 58.0001 147C24.129 147 1.41209 184.88 0.156097 200L9.15527e-05 200L9.59239e-05 100L0.000100295 0.000192662L0.156091 0.000192668C1.4121 15.1202 24.1291 53.0002 58.0001 53.0002C81.4163 53.0002 91.3581 66.6193 100.538 79.1952Z" fill="#FFA300"/>
</ns17:g>
<ns18:defs xmlns:ns18="http://www.w3.org/2000/svg">
<ns18:clipPath id="clip0_35_2275">
<ns18:rect width="200" height="200" fill="#FFFFFF" transform="translate(200 1.52588e-05) rotate(90)"/>
</ns18:clipPath>
</ns18:defs>
</svg>
  <svg x="960.0" y="320.0" width="320.0" height="320.0" viewBox="0 0 200 200"><ns19:g xmlns:ns19="http://www.w3.org/2000/svg" clip-path="url(#clip0_4_5445)">
<ns19:rect width="200" height="200" transform="translate(200 8.74228e-06) rotate(90)" fill="#FFFFFF"/>
<ns19:path d="M200 3.49691e-05L8.74228e-06 200L3.49691e-05 8.74228e-06L200 3.49691e-05Z" fill="#121212"/>
<ns19:path d="M200 100L100 200Lnan nanL100 200C100 144.772 144.772 100 200 100Lnan nanL200 100Z" fill="#121212"/>
<ns19:path d="M100 200L200 100L200 200L100 200Z" fill="#121212"/>
</ns19:g>
<ns20:defs xmlns:ns20="http://www.w3.org/2000/svg">
<ns20:clipPath id="clip0_4_5445">
<ns20:rect width="200" height="200" fill="#FFFFFF" transform="translate(200 8.74228e-06) rotate(90)"/>
</ns20:clipPath>
</ns20:defs>
</svg>
  <svg x="1280.0" y="320.0" width="320.0" height="320.0" viewBox="0 0 200 200"><ns21:g xmlns:ns21="http://www.w3.org/2000/svg" clip-path="url(#clip0_4_206)">
<ns21:rect width="200" height="200" transform="translate(200 8.74228e-06) rotate(90)" fill="#FF4F00"/>
<ns21:path fill-rule="evenodd" clip-rule="evenodd" d="M101.046 0.0050954C100.849 0.00199645 100.652 0.000313685 100.455 5.32538e-05L100.449 2.23595e-05L100.444 4.03871e-05L100.401 1.74946e-05L100.358 3.94186e-05L100.349 3.83041e-05L100.309 5.70389e-05L100.305 3.83041e-05L100.302 5.223e-05L100.261 3.83041e-05L100.248 4.17448e-05L100.225 1.9927e-05C100.211 1.99258e-05 100.197 4.28125e-05 100.183 8.85747e-05C100.173 7.36736e-05 100.163 6.10756e-05 100.153 5.07809e-05C100.148 3.10244e-05 100.142 2.11437e-05 100.137 2.11432e-05L100.131 3.07249e-05C100.117 2.10955e-05 100.103 1.62796e-05 100.089 1.62783e-05C100.078 1.62774e-05 100.067 1.90319e-05 100.057 2.45413e-05C100.038 1.40118e-05 100.019 8.74498e-06 100 8.74228e-06L99.9354 2.91409e-05L99.9126 1.87108e-05C99.8861 1.87085e-05 99.8596 6.08214e-05 99.8331 0.000145018C44.6814 0.0902254 1.68803e-05 44.8271 8.74228e-06 100C2.63876e-06 155.168 44.6734 199.902 99.8183 200L99.8698 200L99.9126 200L99.9502 200L100 200H100L100.041 200L100.065 200C100.074 200 100.083 200 100.093 200C100.099 200 100.106 200 100.113 200L100.129 200C100.143 200 100.158 200 100.172 200L100.197 200L100.217 200L100.225 200H100.227L100.265 200L100.302 200L100.305 200L100.31 200L100.353 200L100.391 200H100.405L100.444 200L100.449 200L100.454 200C100.648 200 100.842 199.998 101.035 199.995L101.108 199.994L101.177 199.993C155.863 199.362 200 154.836 200 100C200 45.1514 155.842 0.616484 101.138 0.00635371C101.108 0.00591104 101.077 0.0054916 101.046 0.0050954ZM58.5705 15.6393C37.0635 33.3961 22.8006 64.5432 22.8006 100C22.8006 135.461 37.0685 166.611 58.581 184.367C31.6435 168.159 13.2 136.615 13.2 100C13.2 63.3897 31.6387 31.8492 58.5705 15.6393ZM133.023 14.2473C151.45 31.7377 163.777 63.5976 163.777 100C163.777 136.398 151.453 168.255 133.031 185.746C156.944 169.92 173.381 137.428 173.381 100C173.381 62.5673 156.941 30.071 133.023 14.2473ZM58.9686 31.436C63.8909 23.6709 69.5034 17.4135 75.6812 12.7998C60.6203 29.9415 50.4486 62.5693 50.4486 100C50.4486 137.45 60.6329 170.093 75.7069 187.227C69.5189 182.612 63.8977 176.348 58.9686 168.572C53.3646 159.732 48.9606 149.408 45.8726 137.892C42.6566 125.9 41.0286 113.152 41.0286 100.004C41.0286 86.856 42.6566 74.108 45.8726 62.116C48.9606 50.6 53.3646 40.276 58.9686 31.436ZM116.118 189.476C116.267 189.352 116.416 189.227 116.565 189.1C122.041 184.416 127.001 177.632 131.301 168.936C140.377 150.592 145.373 126.108 145.373 100C145.373 73.892 140.377 49.412 131.301 31.064C127.001 22.368 122.041 15.584 116.565 10.9C116.416 10.7727 116.267 10.6471 116.118 10.5233C127.774 26.9357 135.777 60.8393 135.777 100C135.777 139.16 127.775 173.063 116.118 189.476ZM78.4966 100C78.4966 58.862 83.8719 23.5254 91.5543 8.17257C90.8515 8.84517 90.1494 9.59846 89.4487 10.432C85.5807 15.036 81.9167 22.02 78.8567 30.628C72.2926 49.096 68.6767 73.732 68.6766 100C68.6766 126.268 72.2926 150.904 78.8566 169.372C81.9166 177.98 85.5806 184.964 89.4486 189.568C90.1494 190.402 90.8515 191.155 91.5543 191.827C83.8719 176.475 78.4966 141.138 78.4966 100ZM103.243 6.73626C106.13 21.2293 108.177 57.5219 108.177 100C108.177 142.476 106.13 178.767 103.243 193.262C105.554 189.943 108.669 183.072 111.529 169.864C115.557 151.248 117.777 126.436 117.777 100C117.777 73.564 115.557 48.752 111.529 30.136C108.67 16.9249 105.555 10.0537 103.243 6.73626ZM142.748 183.551C168.961 167.115 186.8 136.01 186.8 100C186.8 63.9853 168.956 32.8768 142.737 16.4426C163.71 34.3259 177.553 65.0719 177.553 100C177.553 134.924 163.715 165.666 142.748 183.551ZM68.6244 13.413C49.7034 30.7121 36.9766 63.0109 36.9766 100C36.9766 136.993 49.7063 169.295 68.6321 186.593C44.0104 171.1 26.9726 138.108 26.9726 100C26.9726 61.8967 44.0081 28.9082 68.6244 13.413ZM149.505 100C149.505 138.629 138.671 172.143 122.81 188.799C129.885 184.075 136.268 177.266 141.785 168.564C147.389 159.724 151.793 149.4 154.881 137.884C158.097 125.892 159.725 113.144 159.725 99.996C159.725 86.848 158.097 74.1 154.881 62.108C151.793 50.592 147.389 40.268 141.785 31.428C136.265 22.72 129.877 15.908 122.797 11.184L122.785 11.1761C138.658 27.8232 149.505 61.3514 149.505 100ZM84.7949 190.247C84.3243 189.882 83.8555 189.5 83.3886 189.1C77.9126 184.416 72.9526 177.632 68.6526 168.936C59.5766 150.588 54.5806 126.108 54.5806 100C54.5806 73.892 59.5766 49.408 68.6526 31.064C72.9526 22.368 77.9126 15.584 83.3886 10.9C83.855 10.5013 84.3233 10.1196 84.7934 9.75515C72.835 25.8609 64.5766 60.2178 64.5766 100C64.5766 139.784 72.8357 174.142 84.7949 190.247ZM110.905 189.568C110.204 190.402 109.502 191.155 108.799 191.827C116.481 176.475 121.857 141.138 121.857 100C121.857 58.862 116.481 23.5254 108.799 8.1726C109.502 8.8452 110.204 9.59849 110.905 10.432C114.773 15.036 118.437 22.02 121.497 30.628C128.061 49.096 131.677 73.732 131.677 100C131.677 126.268 128.061 150.904 121.497 169.372C118.437 177.98 114.773 184.964 110.905 189.568ZM97.6645 194.012C95.3134 191.035 91.9181 184.163 88.8246 169.864C84.7966 151.248 82.5766 126.436 82.5766 100C82.5766 73.564 84.7966 48.752 88.8246 30.136C91.9203 15.8397 95.314 8.96768 97.6642 5.98922C94.6964 19.9499 92.5766 56.772 92.5766 100C92.5766 143.23 94.6966 180.053 97.6645 194.012ZM160.667 174.405C179.166 156.098 190.8 129.546 190.8 100C190.8 70.4544 179.166 43.9015 160.667 25.595C182.231 43.199 196 69.9916 196 100C196 130.008 182.231 156.801 160.667 174.405ZM39.3331 174.405C20.8345 156.099 9.20003 129.546 9.20003 100C9.20003 70.4543 20.8346 43.9013 39.3333 25.5949C17.7687 43.1988 4.00001 69.9915 4.00001 100C4 130.008 17.7686 156.801 39.3331 174.405ZM98.6606 166.152C99.2206 174.306 99.8174 180.342 100.377 184.799C100.94 180.342 101.533 174.306 102.093 166.152C103.345 147.932 104.033 124.436 104.033 100C104.033 75.564 103.345 52.068 102.093 33.848C101.533 25.6938 100.936 19.658 100.376 15.2009C99.8137 19.658 99.2206 25.6938 98.6607 33.848C97.4086 52.068 96.7206 75.564 96.7206 100C96.7206 124.436 97.4086 147.932 98.6606 166.152Z" fill="#D9D9D6"/>
</ns21:g>
<ns22:defs xmlns:ns22="http://www.w3.org/2000/svg">
<ns22:clipPath id="clip0_4_206">
<ns22:rect width="200" height="200" fill="#FFFFFF" transform="translate(200 8.74228e-06) rotate(90)"/>
</ns22:clipPath>
</ns22:defs>
</svg>
  <svg x="1600.0" y="320.0" width="320.0" height="320.0" viewBox="0 0 200 200"><ns23:rect xmlns:ns23="http://www.w3.org/2000/svg" width="200" height="200" transform="translate(200 8.74228e-06) rotate(90)" fill="#F3F3F3"/>
<ns24:path xmlns:ns24="http://www.w3.org/2000/svg" fill-rule="evenodd" clip-rule="evenodd" d="M56.6891 150C58.8006 157.3 61.3602 164.017 64.2928 170L1.31134e-06 170L1.56959e-05 190L78.1794 190C84.7732 196.407 92.1768 200 100 200C127.614 200 150 155.228 150 100C150 44.7715 127.614 7.76377e-06 100 6.55671e-06C92.1768 6.21474e-06 84.7732 3.59343 78.1794 10L8.30516e-06 10L7.43094e-06 30L64.2928 30C61.3603 35.9829 58.8006 42.6998 56.6891 50L6.55671e-06 50L5.68248e-06 70L52.289 70C51.282 76.4124 50.5893 83.1031 50.2469 90L4.80825e-06 90L3.93402e-06 110L50.2469 110C50.5893 116.897 51.282 123.588 52.289 130L3.0598e-06 130L1.74444e-05 150L56.6891 150Z" fill="#FF4F00"/>
<ns25:circle xmlns:ns25="http://www.w3.org/2000/svg" cx="99.9998" cy="100" r="33.3333" fill="#F3F3F3"/>
</svg>
  <svg x="0.0" y="640.0" width="320.0" height="320.0" viewBox="0 0 200 200"><ns26:rect xmlns:ns26="http://www.w3.org/2000/svg" width="200" height="200" fill="#FFFFFF"/>
<ns27:path xmlns:ns27="http://www.w3.org/2000/svg" fill-rule="evenodd" clip-rule="evenodd" d="M100 171.231C139.34 171.231 171.231 139.34 171.231 100C171.231 60.6601 139.34 28.7688 100 28.7688C60.6601 28.7688 28.7688 60.6601 28.7688 100C28.7688 139.34 60.6601 171.231 100 171.231ZM100 175C141.421 175 175 141.421 175 100C175 58.5786 141.421 25 100 25C58.5786 25 25 58.5786 25 100C25 141.421 58.5786 175 100 175Z" fill="#121212"/>
</svg>
  <svg x="320.0" y="640.0" width="320.0" height="320.0" viewBox="0 0 200 200"><ns28:g xmlns:ns28="http://www.w3.org/2000/svg" clip-path="url(#clip0_5_5487)">
<ns28:rect width="200" height="200" transform="translate(200 8.74228e-06) rotate(90)" fill="#121212"/>
<ns28:path d="M100.1 200C11.0989 200 -33.4731 92.3937 29.4603 29.4603Lnan nanL29.4603 29.4603C92.3937 -33.4732 200 11.0989 200 100.1L200 200L100.1 200Z" fill="#FF4F00"/>
</ns28:g>
<ns29:defs xmlns:ns29="http://www.w3.org/2000/svg">
<ns29:clipPath id="clip0_5_5487">
<ns29:rect width="200" height="200" fill="#FFFFFF" transform="translate(200 8.74228e-06) rotate(90)"/>
</ns29:clipPath>
</ns29:defs>
</svg>
  <svg x="640.0" y="640.0" width="320.0" height="320.0" viewBox="0 0 200 200"><ns30:g xmlns:ns30="http://www.w3.org/2000/svg" clip-path="url(#clip0_20_1280)">
<ns30:rect width="200" height="200" transform="translate(200 8.74228e-06) rotate(90)" fill="#D9D9D6"/>
<ns30:path fill-rule="evenodd" clip-rule="evenodd" d="M100 100L200 2.62268e-05L3.92599e-05 0L1.52588e-05 200L100 200L100 100Z" fill="#121212"/>
</ns30:g>
<ns31:defs xmlns:ns31="http://www.w3.org/2000/svg">
<ns31:clipPath id="clip0_20_1280">
<ns31:rect width="200" height="200" fill="#FFFFFF" transform="translate(200 8.74228e-06) rotate(90)"/>
</ns31:clipPath>
</ns31:defs>
</svg>
  <svg x="960.0" y="640.0" width="320.0" height="320.0" viewBox="0 0 200 200"><ns32:g xmlns:ns32="http://www.w3.org/2000/svg" clip-path="url(#clip0_35_1274)">
<ns32:rect width="200" height="200" transform="translate(200 8.74228e-06) rotate(90)" fill="#121212"/>
<ns32:path d="M200 9.16683e-06C200 9.16683e-06 169.709 10 100 10C30.2914 10 69.7086 10 8.74228e-06 10L2.33419e-05 -1.41459e-05L100 -2.48954e-06L200 9.16683e-06Z" fill="#FF4F00"/>
</ns32:g>
<ns33:defs xmlns:ns33="http://www.w3.org/2000/svg">
<ns33:clipPath id="clip0_35_1274">
<ns33:rect width="200" height="200" fill="#FFFFFF" transform="translate(200 8.74228e-06) rotate(90)"/>
</ns33:clipPath>
</ns33:defs>
</svg>
  <svg x="1280.0" y="640.0" width="320.0" height="320.0" viewBox="0 0 200 200"><ns34:g xmlns:ns34="http://www.w3.org/2000/svg" clip-path="url(#clip0_20_1271)">
<ns34:rect width="200" height="200" transform="translate(200 8.74228e-06) rotate(90)" fill="#FFFFFF"/>
<ns34:path d="M100 1.42263e-05L100 50L8.74228e-06 100L3.49691e-05 -1.41459e-05L100 1.42263e-05Z" fill="#4997D0"/>
</ns34:g>
<ns35:defs xmlns:ns35="http://www.w3.org/2000/svg">
<ns35:clipPath id="clip0_20_1271">
<ns35:rect width="200" height="200" fill="#FFFFFF" transform="translate(200 8.74228e-06) rotate(90)"/>
</ns35:clipPath>
</ns35:defs>
</svg>
  <svg x="1600.0" y="640.0" width="320.0" height="320.0" viewBox="0 0 200 200"><ns36:g xmlns:ns36="http://www.w3.org/2000/svg" clip-path="url(#clip0_5_5486)">
<ns36:rect width="200" height="200" transform="translate(200 1.52588e-05) rotate(90)" fill="#D9D9D6"/>
<ns36:path d="M125.075 200C58.3242 200 24.8952 119.295 72.0952 72.0952Lnan nanL72.0952 72.0952C119.295 24.8951 200 58.3242 200 125.075L200 200L125.075 200Z" fill="#FFA300"/>
</ns36:g>
<ns37:defs xmlns:ns37="http://www.w3.org/2000/svg">
<ns37:clipPath id="clip0_5_5486">
<ns37:rect width="200" height="200" fill="#FFFFFF" transform="translate(200 1.52588e-05) rotate(90)"/>
</ns37:clipPath>
</ns37:defs>
</svg>
</svg>
