<?xml version='1.0' encoding='UTF-8'?>
<svg xmlns="http://www.w3.org/2000/svg" version="1.1" width="1920" height="960" viewBox="0 0 1920 960">
  <svg x="0.0" y="0.0" width="320.0" height="320.0" viewBox="0 0 200 200"><ns0:rect xmlns:ns0="http://www.w3.org/2000/svg" width="200" height="200" transform="translate(200 1.52588e-05) rotate(90)" fill="#121212"/>
<ns1:path xmlns:ns1="http://www.w3.org/2000/svg" d="M150 8.70392e-06L0.0420009 8.70392e-06L2.18557e-06 150C82.8188 150.024 149.976 82.842 150 8.70392e-06Z" fill="#D9D9D6"/>
</svg>
  <svg x="320.0" y="0.0" width="320.0" height="320.0" viewBox="0 0 200 200"><ns2:g xmlns:ns2="http://www.w3.org/2000/svg" clip-path="url(#clip0_2403_3121)">
<ns2:rect width="200" height="200" transform="translate(200 8.74228e-06) rotate(90)" fill="#FFFFFF"/>
<ns2:path fill-rule="evenodd" clip-rule="evenodd" d="M50 100L200 2.62268e-05L2.40011e-05 0L3.05176e-05 200L100 200L50 100Z" fill="#4997D0"/>
</ns2:g>
<ns3:defs xmlns:ns3="http://www.w3.org/2000/svg">
<ns3:clipPath id="clip0_2403_3121">
<ns3:rect width="200" height="200" fill="#FFFFFF" transform="translate(200 8.74228e-06) rotate(90)"/>
</ns3:clipPath>
</ns3:defs>
</svg>
  <svg x="640.0" y="0.0" width="320.0" height="320.0" viewBox="0 0 200 200"><ns4:rect xmlns:ns4="http://www.w3.org/2000/svg" width="200" height="200" transform="translate(8.74228e-06 200) rotate(-90)" fill="#FF4F00"/>
<ns5:path xmlns:ns5="http://www.w3.org/2000/svg" d="M0.008 8.74193e-06L0 8.74228e-06L8.74228e-06 200L200 200C89.876 200 0.00800483 110.417 0.008 8.74193e-06Z" fill="#FFFFFF"/>
<ns6:path xmlns:ns6="http://www.w3.org/2000/svg" fill-rule="evenodd" clip-rule="evenodd" d="M179.933 199C85.7297 189.563 10.4137 114.42 1 20.0043C0.343971 13.4246 0.00800029 6.75124 0.008 8.74193e-06L0 8.74228e-06L8.74228e-06 200L200 200C193.229 200 186.535 199.661 179.933 199ZM171.614 199C83.5333 186.485 13.5081 116.612 1 28.3523L1.00001 199L171.614 199Z" fill="#FFFFFF"/>
<ns7:path xmlns:ns7="http://www.w3.org/2000/svg" fill-rule="evenodd" clip-rule="evenodd" d="M35 8.74228e-06C35 91.127 108.873 165 200 165V175C103.35 175 25 96.6498 25 8.74228e-06H35Z" fill="#FFFFFF"/>
<ns8:path xmlns:ns8="http://www.w3.org/2000/svg" fill-rule="evenodd" clip-rule="evenodd" d="M75 8.74228e-06C75 69.0356 130.964 125 200 125V135C125.442 135 65 74.5584 65 8.74228e-06H75Z" fill="#FFFFFF"/>
<ns9:path xmlns:ns9="http://www.w3.org/2000/svg" fill-rule="evenodd" clip-rule="evenodd" d="M115 8.74228e-06C115 46.9442 153.056 85 200 85V95C147.533 95 105 52.4671 105 8.74228e-06H115Z" fill="#FFFFFF"/>
<ns10:path xmlns:ns10="http://www.w3.org/2000/svg" fill-rule="evenodd" clip-rule="evenodd" d="M155 8.74228e-06C155 24.8528 175.147 45 200 45V55C169.624 55 145 30.3757 145 8.74228e-06H155Z" fill="#FFFFFF"/>
<ns11:path xmlns:ns11="http://www.w3.org/2000/svg" fill-rule="evenodd" clip-rule="evenodd" d="M195 8.74228e-06C195 2.76143 197.239 5.00001 200 5.00001V15C191.716 15 185 8.28428 185 8.74228e-06H195Z" fill="#FFFFFF"/>
</svg>
  <svg x="960.0" y="0.0" width="320.0" height="320.0" viewBox="0 0 200 200"><ns12:g xmlns:ns12="http://www.w3.org/2000/svg" clip-path="url(#clip0_3_439)">
<ns12:rect width="200" height="200" transform="translate(200 8.74228e-06) rotate(90)" fill="#4997D0"/>
<ns12:path d="M200 8.74228e-06C200 55.228 177.616 105.228 141.42 141.42C105.228 177.616 55.228 200 0 200L200 200L200 8.74228e-06Z" fill="#D9D9D6"/>
<ns12:path d="M141.667 100C141.667 76.9841 123.011 58.3333 100 58.3333C76.9891 58.3333 58.3333 76.9841 58.3333 100C58.3333 123.016 76.989 141.667 100 141.667C111.508 141.667 121.925 137.004 129.464 129.464C137.004 121.925 141.667 111.508 141.667 100Z" fill="#D9D9D6"/>
<ns12:path d="M100.028 0.0280087L0.0559627 4.37236e-06L0.0279585 100C55.2405 100.016 100.012 55.256 100.028 0.0280087Z" fill="#D9D9D6"/>
</ns12:g>
<ns13:defs xmlns:ns13="http://www.w3.org/2000/svg">
<ns13:clipPath id="clip0_3_439">
<ns13:rect width="200" height="200" fill="#FFFFFF" transform="translate(200 8.74228e-06) rotate(90)"/>
</ns13:clipPath>
</ns13:defs>
</svg>
  <svg x="1280.0" y="0.0" width="320.0" height="320.0" viewBox="0 0 200 200"><ns14:g xmlns:ns14="http://www.w3.org/2000/svg" clip-path="url(#clip0_75_4208)">
<ns14:rect width="200" height="200" transform="translate(200 8.74228e-06) rotate(90)" fill="#121212"/>
<ns14:path d="M200 0.0560087L0.0560085 2.44783e-09L0 200C110.425 200.032 199.968 110.512 200 0.0560087Z" fill="#F3F3F3"/>
<ns14:ellipse cx="70" cy="65" rx="50" ry="25" transform="rotate(-180 70 65)" fill="#121212"/>
<ns14:circle cx="70" cy="65" r="25" fill="#F3F3F3"/>
</ns14:g>
<ns15:defs xmlns:ns15="http://www.w3.org/2000/svg">
<ns15:clipPath id="clip0_75_4208">
<ns15:rect width="200" height="200" fill="#FFFFFF" transform="translate(200 8.74228e-06) rotate(90)"/>
</ns15:clipPath>
</ns15:defs>
</svg>
  <svg x="1600.0" y="0.0" width="320.0" height="320.0" viewBox="0 0 200 200"><ns16:g xmlns:ns16="http://www.w3.org/2000/svg" clip-path="url(#clip0_74_2301)">
<ns16:rect width="200" height="200" transform="translate(200 8.74228e-06) rotate(90)" fill="#FF4F00"/>
<ns16:path d="M128.568 144.504C112 97.912 58.776 75.864 14.104 97.096C-56.824 130.808 -130.816 56.816 -97.096 -14.104C-75.864 -58.768 -97.912 -111.992 -144.504 -128.568C-178.784 -140.76 -197.176 -169.76 -199.688 -200L-200 -200L-200 200L200 200L200 199.688C169.76 197.168 140.76 178.784 128.568 144.504Z" fill="#D9D9D6"/>
</ns16:g>
<ns17:defs xmlns:ns17="http://www.w3.org/2000/svg">
<ns17:clipPath id="clip0_74_2301">
<ns17:rect width="200" height="200" fill="#FFFFFF" transform="translate(200 8.74228e-06) rotate(90)"/>
</ns17:clipPath>
</ns17:defs>
</svg>
  <svg x="0.0" y="320.0" width="320.0" height="320.0" viewBox="0 0 200 200"><ns18:g xmlns:ns18="http://www.w3.org/2000/svg" clip-path="url(#clip0_4_197)">
<ns18:rect width="200" height="200" transform="translate(200 8.74228e-06) rotate(90)" fill="#D9D9D6"/>
<ns18:path d="M195 5.00003L195 195L5.00001 195L5.00005 5.00001L195 5.00003Z" fill="#FFA300"/>
<ns18:g clip-path="url(#clip1_4_197)">
<ns18:path d="M200 8.74228e-06L8.74228e-06 200V8.74228e-06H200Z" fill="#FFA300"/>
<ns18:path d="M100 200L200 100V200H100Z" fill="#FFA300"/>
</ns18:g>
</ns18:g>
<ns19:defs xmlns:ns19="http://www.w3.org/2000/svg">
<ns19:clipPath id="clip0_4_197">
<ns19:rect width="200" height="200" fill="#FFFFFF" transform="translate(200 8.74228e-06) rotate(90)"/>
</ns19:clipPath>
<ns19:clipPath id="clip1_4_197">
<ns19:rect width="200" height="200" fill="#FFFFFF"/>
</ns19:clipPath>
</ns19:defs>
</svg>
  <svg x="320.0" y="320.0" width="320.0" height="320.0" viewBox="0 0 200 200"><ns20:rect xmlns:ns20="http://www.w3.org/2000/svg" width="200" height="200" transform="translate(200 8.74228e-06) rotate(90)" fill="#F3F3F3"/>
<ns21:path xmlns:ns21="http://www.w3.org/2000/svg" d="M50 50C50 22.3858 72.3858 8.74228e-06 100 8.74228e-06C127.614 8.74228e-06 150 22.3858 150 50V150C150 177.614 127.614 200 100 200C72.3858 200 50 177.614 50 150V50Z" fill="#FF4F00"/>
</svg>
  <svg x="640.0" y="320.0" width="320.0" height="320.0" viewBox="0 0 200 200"><ns22:rect xmlns:ns22="http://www.w3.org/2000/svg" width="200" height="200" transform="translate(200 8.74228e-06) rotate(90)" fill="#4997D0"/>
<ns23:path xmlns:ns23="http://www.w3.org/2000/svg" d="M100 8.74228e-06H8.74228e-06V100C8.74228e-06 44.772 44.772 8.74228e-06 100 8.74228e-06Z" fill="#D9D9D6"/>
</svg>
  <svg x="960.0" y="320.0" width="320.0" height="320.0" viewBox="0 0 200 200"><ns24:g xmlns:ns24="http://www.w3.org/2000/svg" clip-path="url(#clip0_3_625)">
<ns24:rect width="200" height="200" transform="translate(200 8.74228e-06) rotate(90)" fill="#FFFFFF"/>
<ns24:path d="M200 95L200 105L8.74228e-06 105L2.3167e-05 95L200 95Z" fill="#FFA300"/>
</ns24:g>
<ns25:defs xmlns:ns25="http://www.w3.org/2000/svg">
<ns25:clipPath id="clip0_3_625">
<ns25:rect width="200" height="200" fill="#FFFFFF" transform="translate(200 8.74228e-06) rotate(90)"/>
</ns25:clipPath>
</ns25:defs>
</svg>
  <svg x="1280.0" y="320.0" width="320.0" height="320.0" viewBox="0 0 200 200"><ns26:g xmlns:ns26="http://www.w3.org/2000/svg" clip-path="url(#clip0_3_606)">
<ns26:rect width="200" height="200" transform="translate(200 8.74228e-06) rotate(90)" fill="#D9D9D6"/>
<ns26:path d="M200 5.02279e-05L200 100L2.82157e-05 150L2.84124e-05 2.40011e-05L200 5.02279e-05Z" fill="#FF4F00"/>
</ns26:g>
<ns27:defs xmlns:ns27="http://www.w3.org/2000/svg">
<ns27:clipPath id="clip0_3_606">
<ns27:rect width="200" height="200" fill="#FFFFFF" transform="translate(200 8.74228e-06) rotate(90)"/>
</ns27:clipPath>
</ns27:defs>
</svg>
  <svg x="1600.0" y="320.0" width="320.0" height="320.0" viewBox="0 0 200 200"><ns28:g xmlns:ns28="http://www.w3.org/2000/svg" clip-path="url(#clip0_35_1275)">
<ns28:rect width="200" height="200" transform="translate(200 8.74228e-06) rotate(90)" fill="#4997D0"/>
<ns28:path d="M200 9.16683e-06L189.443 5.27866C130.623 34.6887 65.7629 50 8.74228e-06 50Lnan nanL8.74228e-06 50L2.92866e-05 -1.41459e-05L100 -2.48954e-06L200 9.16683e-06Z" fill="#FFFFFF"/>
</ns28:g>
<ns29:defs xmlns:ns29="http://www.w3.org/2000/svg">
<ns29:clipPath id="clip0_35_1275">
<ns29:rect width="200" height="200" fill="#FFFFFF" transform="translate(200 8.74228e-06) rotate(90)"/>
</ns29:clipPath>
</ns29:defs>
</svg>
  <svg x="0.0" y="640.0" width="320.0" height="320.0" viewBox="0 0 200 200"><ns30:rect xmlns:ns30="http://www.w3.org/2000/svg" width="200" height="200" transform="translate(200 1.52588e-05) rotate(90)" fill="#121212"/>
<ns31:ellipse xmlns:ns31="http://www.w3.org/2000/svg" cx="100" cy="100" rx="100" ry="50" transform="rotate(90 100 100)" fill="#FF4F00"/>
</svg>
  <svg x="320.0" y="640.0" width="320.0" height="320.0" viewBox="0 0 200 200"><ns32:g xmlns:ns32="http://www.w3.org/2000/svg" clip-path="url(#clip0_5_5485)">
<ns32:rect width="200" height="200" transform="translate(200 8.74228e-06) rotate(90)" fill="#121212"/>
<ns32:path d="M150.05 200C105.549 200 83.2634 146.197 114.73 114.73Lnan nanL114.73 114.73C146.197 83.2634 200 105.549 200 150.05L200 200L150.05 200Z" fill="#F3F3F3"/>
</ns32:g>
<ns33:defs xmlns:ns33="http://www.w3.org/2000/svg">
<ns33:clipPath id="clip0_5_5485">
<ns33:rect width="200" height="200" fill="#FFFFFF" transform="translate(200 8.74228e-06) rotate(90)"/>
</ns33:clipPath>
</ns33:defs>
</svg>
  <svg x="640.0" y="640.0" width="320.0" height="320.0" viewBox="0 0 200 200"><ns34:g xmlns:ns34="http://www.w3.org/2000/svg" clip-path="url(#clip0_4_5448)">
<ns34:rect width="200" height="200" transform="translate(200 8.74228e-06) rotate(90)" fill="#121212"/>
<ns34:path d="M200 1.97103e-05L8.74228e-06 200L3.49691e-05 -6.51651e-06L200 1.97103e-05Z" fill="#FFA300"/>
<ns34:path d="M100 200L200 100L200 200L100 200Z" fill="#FFA300"/>
</ns34:g>
<ns35:defs xmlns:ns35="http://www.w3.org/2000/svg">
<ns35:clipPath id="clip0_4_5448">
<ns35:rect width="200" height="200" fill="#FFFFFF" transform="translate(200 8.74228e-06) rotate(90)"/>
</ns35:clipPath>
</ns35:defs>
</svg>
  <svg x="960.0" y="640.0" width="320.0" height="320.0" viewBox="0 0 200 200"><ns36:g xmlns:ns36="http://www.w3.org/2000/svg" clip-path="url(#clip0_4_5446)">
<ns36:rect width="200" height="200" transform="translate(200 8.74228e-06) rotate(90)" fill="#F3F3F3"/>
<ns36:path d="M100 6.5969e-06L8.74228e-06 100L2.18557e-05 -6.51651e-06L100 6.5969e-06Z" fill="#FF4F00"/>
<ns36:path d="M100 200L200 100L200 200L100 200Z" fill="#FF4F00"/>
</ns36:g>
<ns37:defs xmlns:ns37="http://www.w3.org/2000/svg">
<ns37:clipPath id="clip0_4_5446">
<ns37:rect width="200" height="200" fill="#FFFFFF" transform="translate(200 8.74228e-06) rotate(90)"/>
</ns37:clipPath>
</ns37:defs>
</svg>
  <svg x="1280.0" y="640.0" width="320.0" height="320.0" viewBox="0 0 200 200"><ns38:rect xmlns:ns38="http://www.w3.org/2000/svg" width="200" height="200" transform="translate(200 8.74228e-06) rotate(90)" fill="#FF4F00"/>
<ns39:path xmlns:ns39="http://www.w3.org/2000/svg" d="M50 0.0140087L0.0140125 6.55732e-06L1.03714e-05 50C27.6063 50.008 49.992 27.628 50 0.0140087Z" fill="#FFFFFF"/>
</svg>
  <svg x="1600.0" y="640.0" width="320.0" height="320.0" viewBox="0 0 200 200"><ns40:g xmlns:ns40="http://www.w3.org/2000/svg" clip-path="url(#clip0_3_503)">
<ns40:rect width="200" height="200" transform="translate(200 8.74228e-06) rotate(90)" fill="#D9D9D6"/>
<ns40:path d="M200 2.44739e-09L-6.51651e-06 2.4471e-09L0 200C110.425 200.032 199.968 110.456 200 2.44739e-09Z" fill="#FF4F00"/>
</ns40:g>
<ns41:defs xmlns:ns41="http://www.w3.org/2000/svg">
<ns41:clipPath id="clip0_3_503">
<ns41:rect width="200" height="200" fill="#FFFFFF" transform="translate(200 8.74228e-06) rotate(90)"/>
</ns41:clipPath>
</ns41:defs>
</svg>
</svg>
