<?xml version='1.0' encoding='UTF-8'?>
<svg xmlns="http://www.w3.org/2000/svg" version="1.1" width="1920" height="960" viewBox="0 0 1920 960">
  <svg x="0.0" y="0.0" width="320.0" height="320.0" viewBox="0 0 200 200"><ns0:g xmlns:ns0="http://www.w3.org/2000/svg" clip-path="url(#clip0_3_497)">
<ns0:rect width="200" height="200" fill="#4997D0"/>
<ns0:path d="M200 0H0V200C0 89.544 89.544 0 200 0Z" fill="#FFFFFF"/>
<ns0:path d="M100 58.3333C76.9891 58.3333 58.3334 76.9841 58.3334 100C58.3334 123.016 76.9891 141.667 100 141.667C111.508 141.667 121.925 137.004 129.464 129.464C137.004 121.925 141.667 111.508 141.667 100C141.667 76.9841 123.011 58.3333 100 58.3333Z" fill="#FFFFFF"/>
</ns0:g>
<ns1:defs xmlns:ns1="http://www.w3.org/2000/svg">
<ns1:clipPath id="clip0_3_497">
<ns1:rect width="200" height="200" fill="#FFFFFF"/>
</ns1:clipPath>
</ns1:defs>
</svg>
  <svg x="320.0" y="0.0" width="320.0" height="320.0" viewBox="0 0 200 200"><ns2:g xmlns:ns2="http://www.w3.org/2000/svg" clip-path="url(#clip0_20_1208)">
<ns2:rect width="200" height="200" transform="translate(200 8.74228e-06) rotate(90)" fill="#F3F3F3"/>
<ns2:path fill-rule="evenodd" clip-rule="evenodd" d="M200 200C132.395 150.473 132.395 49.5275 200 2.62268e-05L-5.22929e-05 0L-6.10352e-05 200L200 200Z" fill="#FFA300"/>
</ns2:g>
<ns3:defs xmlns:ns3="http://www.w3.org/2000/svg">
<ns3:clipPath id="clip0_20_1208">
<ns3:rect width="200" height="200" fill="#FFFFFF" transform="translate(200 8.74228e-06) rotate(90)"/>
</ns3:clipPath>
</ns3:defs>
</svg>
  <svg x="640.0" y="0.0" width="320.0" height="320.0" viewBox="0 0 200 200"><ns4:g xmlns:ns4="http://www.w3.org/2000/svg" clip-path="url(#clip0_3_550)">
<ns4:rect width="200" height="200" transform="translate(200 1.52588e-05) rotate(90)" fill="#FF4F00"/>
<ns4:path d="M200 4.9115e-05L8.74228e-06 150L2.95598e-05 2.28882e-05L200 4.9115e-05Z" fill="#121212"/>
</ns4:g>
<ns5:defs xmlns:ns5="http://www.w3.org/2000/svg">
<ns5:clipPath id="clip0_3_550">
<ns5:rect width="200" height="200" fill="#FFFFFF" transform="translate(200 1.52588e-05) rotate(90)"/>
</ns5:clipPath>
</ns5:defs>
</svg>
  <svg x="960.0" y="0.0" width="320.0" height="320.0" viewBox="0 0 200 200"><ns6:rect xmlns:ns6="http://www.w3.org/2000/svg" width="200" height="200" transform="translate(8.74228e-06 200) rotate(-90)" fill="#4997D0"/>
<ns7:path xmlns:ns7="http://www.w3.org/2000/svg" d="M77 67C77 73.0751 72.0751 78 66 78C59.9249 78 55 73.0751 55 67C55 60.9249 59.9249 56 66 56C72.0751 56 77 60.9249 77 67Z" fill="#FFFFFF"/>
<ns8:path xmlns:ns8="http://www.w3.org/2000/svg" d="M200 109C200 115.075 195.075 120 189 120C182.925 120 178 115.075 178 109C178 102.925 182.925 98 189 98C195.075 98 200 102.925 200 109Z" fill="#FFFFFF"/>
<ns9:path xmlns:ns9="http://www.w3.org/2000/svg" d="M0.008 8.74193e-06L0 8.74228e-06L8.74228e-06 200L200 200C89.876 200 0.00800483 110.417 0.008 8.74193e-06Z" fill="#FFFFFF"/>
<ns10:path xmlns:ns10="http://www.w3.org/2000/svg" fill-rule="evenodd" clip-rule="evenodd" d="M179.933 199C85.7297 189.563 10.4137 114.42 1 20.0043C0.343971 13.4246 0.00800029 6.75124 0.008 8.74193e-06L0 8.74228e-06L8.74228e-06 200L200 200C193.229 200 186.535 199.661 179.933 199ZM171.614 199C83.5333 186.485 13.5081 116.612 1 28.3523L1.00001 199L171.614 199Z" fill="#FFFFFF"/>
<ns11:path xmlns:ns11="http://www.w3.org/2000/svg" fill-rule="evenodd" clip-rule="evenodd" d="M35 8.74228e-06C35 91.127 108.873 165 200 165V175C103.35 175 25 96.6498 25 8.74228e-06H35Z" fill="#FFFFFF"/>
<ns12:path xmlns:ns12="http://www.w3.org/2000/svg" fill-rule="evenodd" clip-rule="evenodd" d="M75 8.74228e-06C75 69.0356 130.964 125 200 125V135C125.442 135 65 74.5584 65 8.74228e-06H75Z" fill="#FFFFFF"/>
<ns13:path xmlns:ns13="http://www.w3.org/2000/svg" fill-rule="evenodd" clip-rule="evenodd" d="M115 8.74228e-06C115 46.9442 153.056 85 200 85V95C147.533 95 105 52.4671 105 8.74228e-06H115Z" fill="#FFFFFF"/>
<ns14:path xmlns:ns14="http://www.w3.org/2000/svg" fill-rule="evenodd" clip-rule="evenodd" d="M155 8.74228e-06C155 24.8528 175.147 45 200 45V55C169.624 55 145 30.3757 145 8.74228e-06H155Z" fill="#FFFFFF"/>
<ns15:path xmlns:ns15="http://www.w3.org/2000/svg" fill-rule="evenodd" clip-rule="evenodd" d="M195 8.74228e-06C195 2.76143 197.239 5.00001 200 5.00001V15C191.716 15 185 8.28428 185 8.74228e-06H195Z" fill="#FFFFFF"/>
</svg>
  <svg x="1280.0" y="0.0" width="320.0" height="320.0" viewBox="0 0 200 200"><ns16:rect xmlns:ns16="http://www.w3.org/2000/svg" width="200" height="200" transform="translate(200 8.74228e-06) rotate(90)" fill="#FFFFFF"/>
<ns17:path xmlns:ns17="http://www.w3.org/2000/svg" d="M50 50C50 22.3858 72.3858 8.74228e-06 100 8.74228e-06C127.614 8.74228e-06 150 22.3858 150 50V150C150 177.614 127.614 200 100 200C72.3858 200 50 177.614 50 150V50Z" fill="#121212"/>
<ns18:circle xmlns:ns18="http://www.w3.org/2000/svg" cx="99.9998" cy="146.333" r="33.3333" fill="#FFFFFF"/>
</svg>
  <svg x="1600.0" y="0.0" width="320.0" height="320.0" viewBox="0 0 200 200"><ns19:g xmlns:ns19="http://www.w3.org/2000/svg" clip-path="url(#clip0_20_1271)">
<ns19:rect width="200" height="200" transform="translate(200 8.74228e-06) rotate(90)" fill="#D9D9D6"/>
<ns19:path d="M100 1.42263e-05L100 50L8.74228e-06 100L3.49691e-05 -1.41459e-05L100 1.42263e-05Z" fill="#FF4F00"/>
</ns19:g>
<ns20:defs xmlns:ns20="http://www.w3.org/2000/svg">
<ns20:clipPath id="clip0_20_1271">
<ns20:rect width="200" height="200" fill="#FFFFFF" transform="translate(200 8.74228e-06) rotate(90)"/>
</ns20:clipPath>
</ns20:defs>
</svg>
  <svg x="0.0" y="320.0" width="320.0" height="320.0" viewBox="0 0 200 200"><ns21:rect xmlns:ns21="http://www.w3.org/2000/svg" width="200" height="200" transform="translate(200 8.74228e-06) rotate(90)" fill="#D9D9D6"/>
<ns22:path xmlns:ns22="http://www.w3.org/2000/svg" d="M175 25L175 175L25 175L25 25L175 25Z" fill="#FF4F00"/>
</svg>
  <svg x="320.0" y="320.0" width="320.0" height="320.0" viewBox="0 0 200 200"><ns23:g xmlns:ns23="http://www.w3.org/2000/svg" clip-path="url(#clip0_35_1277)">
<ns23:rect width="200" height="200" transform="translate(200 8.74228e-06) rotate(90)" fill="#FF4F00"/>
<ns23:path d="M200 3.2055e-05L155.47 66.7949C120.815 118.777 62.4745 150 8.74228e-06 150Lnan nanL8.74228e-06 150L4.41485e-05 8.74228e-06L100 2.03986e-05L200 3.2055e-05Z" fill="#121212"/>
</ns23:g>
<ns24:defs xmlns:ns24="http://www.w3.org/2000/svg">
<ns24:clipPath id="clip0_35_1277">
<ns24:rect width="200" height="200" fill="#FFFFFF" transform="translate(200 8.74228e-06) rotate(90)"/>
</ns24:clipPath>
</ns24:defs>
</svg>
  <svg x="640.0" y="320.0" width="320.0" height="320.0" viewBox="0 0 200 200"><ns25:g xmlns:ns25="http://www.w3.org/2000/svg" clip-path="url(#clip0_3_634)">
<ns25:rect width="200" height="200" transform="translate(200 8.74228e-06) rotate(90)" fill="#121212"/>
<ns25:path d="M100 -1.03249e-06L100 100L8.74228e-06 100L2.84124e-05 -1.41459e-05L100 -1.03249e-06Z" fill="#FFA300"/>
<ns25:path d="M200 100L200 200L100 200L100 100L200 100Z" fill="#FFA300"/>
</ns25:g>
<ns26:defs xmlns:ns26="http://www.w3.org/2000/svg">
<ns26:clipPath id="clip0_3_634">
<ns26:rect width="200" height="200" fill="#FFFFFF" transform="translate(200 8.74228e-06) rotate(90)"/>
</ns26:clipPath>
</ns26:defs>
</svg>
  <svg x="960.0" y="320.0" width="320.0" height="320.0" viewBox="0 0 200 200"><ns27:g xmlns:ns27="http://www.w3.org/2000/svg" clip-path="url(#clip0_81_2190)">
<ns27:rect width="200" height="200" transform="translate(200 8.74228e-06) rotate(90)" fill="#F3F3F3"/>
<ns27:path d="M200 200C117.157 200 50 200 50 200C50 117.157 117.157 50 200 50C200 50 200 117.157 200 200Z" fill="#FF4F00"/>
<ns27:path d="M200 200C158.579 200 125 200 125 200C125 158.579 158.579 125 200 125C200 125 200 158.579 200 200Z" fill="#F3F3F3"/>
</ns27:g>
<ns28:defs xmlns:ns28="http://www.w3.org/2000/svg">
<ns28:clipPath id="clip0_81_2190">
<ns28:rect width="200" height="200" fill="#FFFFFF" transform="translate(200 8.74228e-06) rotate(90)"/>
</ns28:clipPath>
</ns28:defs>
</svg>
  <svg x="1280.0" y="320.0" width="320.0" height="320.0" viewBox="0 0 200 200"><ns29:rect xmlns:ns29="http://www.w3.org/2000/svg" width="200" height="200" transform="translate(200 8.74228e-06) rotate(90)" fill="#FF4F00"/>
<ns30:circle xmlns:ns30="http://www.w3.org/2000/svg" cx="100" cy="100" r="50" fill="#FFFFFF"/>
</svg>
  <svg x="1600.0" y="320.0" width="320.0" height="320.0" viewBox="0 0 200 200"><ns31:g xmlns:ns31="http://www.w3.org/2000/svg" clip-path="url(#clip0_85_4348)">
<ns31:rect width="200" height="200" transform="translate(200 8.74228e-06) rotate(90)" fill="#D9D9D6"/>
<ns31:circle cx="150" cy="100" r="50" fill="#FFA300"/>
<ns31:circle cx="150" cy="1.11288e-06" r="50" fill="#FFA300"/>
<ns31:circle cx="150" cy="200" r="50" fill="#FFA300"/>
<ns31:rect x="150" y="-10" width="50" height="220" fill="#FFA300"/>
</ns31:g>
<ns32:defs xmlns:ns32="http://www.w3.org/2000/svg">
<ns32:clipPath id="clip0_85_4348">
<ns32:rect width="200" height="200" fill="#FFFFFF" transform="translate(200 8.74228e-06) rotate(90)"/>
</ns32:clipPath>
</ns32:defs>
</svg>
  <svg x="0.0" y="640.0" width="320.0" height="320.0" viewBox="0 0 200 200"><ns33:g xmlns:ns33="http://www.w3.org/2000/svg" clip-path="url(#clip0_4_5449)">
<ns33:rect width="200" height="200" transform="translate(200 1.52588e-05) rotate(90)" fill="#F3F3F3"/>
<ns33:path d="M200 3.38562e-05L8.74228e-06 200L3.49691e-05 7.62939e-06L200 3.38562e-05Z" fill="#4997D0"/>
<ns33:path d="M150.05 200C105.549 200 83.2634 146.197 114.73 114.73Lnan nanL114.73 114.73C146.197 83.2634 200 105.549 200 150.05L200 200L150.05 200Z" fill="#4997D0"/>
</ns33:g>
<ns34:defs xmlns:ns34="http://www.w3.org/2000/svg">
<ns34:clipPath id="clip0_4_5449">
<ns34:rect width="200" height="200" fill="#FFFFFF" transform="translate(200 1.52588e-05) rotate(90)"/>
</ns34:clipPath>
</ns34:defs>
</svg>
  <svg x="320.0" y="640.0" width="320.0" height="320.0" viewBox="0 0 200 200"><ns35:rect xmlns:ns35="http://www.w3.org/2000/svg" width="200" height="200" transform="translate(200 8.74228e-06) rotate(90)" fill="#4997D0"/>
<ns36:path xmlns:ns36="http://www.w3.org/2000/svg" d="M50 50C50 22.3858 72.3858 8.74228e-06 100 8.74228e-06C127.614 8.74228e-06 150 22.3858 150 50V150C150 177.614 127.614 200 100 200C72.3858 200 50 177.614 50 150V50Z" fill="#FFFFFF"/>
</svg>
  <svg x="640.0" y="640.0" width="320.0" height="320.0" viewBox="0 0 200 200"><ns37:g xmlns:ns37="http://www.w3.org/2000/svg" clip-path="url(#clip0_81_2192)">
<ns37:rect width="200" height="200" transform="translate(200 8.74228e-06) rotate(90)" fill="#121212"/>
<ns37:path fill-rule="evenodd" clip-rule="evenodd" d="M255.223 29.8897C233.63 29.2654 217.234 29.8896 217.234 22.5031C217.234 16.1702 234.798 15.5235 257.514 15.0535C283.004 15.0535 310 16.1702 310 7.54072C310 0.0279655 293.823 0.0279348 268.333 0.0279345C266.333 0.0279344 259.428 0.0207017 257.494 0.00672461L200 1.0054e-05C139.249 9.32956e-06 142.495 9.36827e-06 142.495 9.36827e-06C140.426 0.0172518 133.815 0.0267427 131.667 0.0279328C106.373 0.0629972 90 0.0279323 90 0.0279323C90 0.0279323 90 15.0535 120 15.0535C142.717 15.5234 181.902 16.1701 181.902 22.5031C181.902 29.8896 165.506 29.2653 143.913 29.8897C118.423 29.8897 90 29.8896 90 44.8801C90 59.8706 116.132 59.8706 141.621 59.8706C164.338 60.8106 181.902 59.7513 181.902 74.7418C181.902 89.7324 161.467 89.6552 136.165 89.7323C110.675 89.7323 90 94.348 90 111.787C90 129.225 110.443 133.736 135.737 133.848L136.165 133.848C161.467 133.96 181.902 143.795 181.902 155.902C181.902 168.01 161.467 177.844 136.165 177.957L135.737 177.957C110.443 178.069 90 187.833 90 200.011C90 212.188 110.675 222.065 136.165 222.065L136.602 222.065C162.1 222.065 182.766 231.935 182.766 244.119C182.766 256.304 162.1 266.174 136.602 266.174L136.165 266.174C110.675 266.174 90 276.057 90 288.235C90 300.413 110.675 310.289 136.165 310.289L136.602 310.289C162.1 310.289 182.766 316.995 182.766 325.28C182.766 332.912 165.203 339.211 142.486 340.151L136.165 340.151C110.675 340.151 90 346.864 90 355.142C90 363.419 110.675 370.132 136.165 370.132L144.777 370.132C166.371 370.756 182.766 373.689 182.766 377.519C182.766 381.349 165.203 384.498 142.486 384.968L136.165 384.968C110.675 384.968 90 384.968 90 392.481C90 399.994 110.675 399.994 136.165 399.994L136.602 399.994C162.1 399.994 182.766 399.994 182.766 399.994L215.473 399.994C215.473 399.994 238.533 400.008 263.836 399.994L264.263 399.994C289.557 399.959 310 399.994 310 392.481C310 384.968 289.325 384.968 263.836 384.968L258.379 384.968C235.662 384.498 218.099 381.208 218.099 377.519C218.099 373.829 234.494 370.756 256.088 370.132L263.836 370.132C289.325 370.132 310 363.426 310 355.142C310 346.857 289.325 340.151 263.836 340.151L258.379 340.151C235.662 339.211 218.099 332.912 218.099 325.28C218.099 317.044 238.533 310.366 263.836 310.289L264.263 310.289C289.557 310.177 310 300.349 310 288.235C310 276.121 289.557 266.286 264.263 266.174L263.836 266.174C238.533 266.061 218.099 256.227 218.099 244.119C218.099 232.012 238.533 222.177 263.836 222.065L264.263 222.065C289.557 221.953 310 212.188 310 200.011C310 187.833 289.325 177.957 263.836 177.957L263.399 177.957C237.9 177.957 217.234 168.087 217.234 155.902C217.234 143.718 237.9 133.848 263.399 133.848L263.836 133.848C289.325 133.848 310 127.563 310 111.787C310 96.0105 289.325 89.7323 263.836 89.7323L263.399 89.7323C237.9 89.7323 217.234 89.7324 217.234 74.7419C217.234 59.7514 234.798 60.8106 257.514 59.8706L263.836 59.8706C289.325 59.8706 310 59.8706 310 44.8801C310 29.8896 289.325 29.8897 263.836 29.8897L255.223 29.8897Z" fill="#FF4F00"/>
</ns37:g>
<ns38:defs xmlns:ns38="http://www.w3.org/2000/svg">
<ns38:clipPath id="clip0_81_2192">
<ns38:rect width="200" height="200" fill="#FFFFFF" transform="translate(200 8.74228e-06) rotate(90)"/>
</ns38:clipPath>
</ns38:defs>
</svg>
  <svg x="960.0" y="640.0" width="320.0" height="320.0" viewBox="0 0 200 200"><ns39:rect xmlns:ns39="http://www.w3.org/2000/svg" width="200" height="200" transform="translate(200 8.74228e-06) rotate(90)" fill="#4997D0"/>
<ns40:path xmlns:ns40="http://www.w3.org/2000/svg" d="M175 200C133.579 200 25 200 25 200C25 158.579 58.5787 125 100 125C141.421 125 175 158.579 175 200Z" fill="#FFFFFF"/>
</svg>
  <svg x="1280.0" y="640.0" width="320.0" height="320.0" viewBox="0 0 200 200"><ns41:g xmlns:ns41="http://www.w3.org/2000/svg" clip-path="url(#clip0_5_5486)">
<ns41:rect width="200" height="200" transform="translate(200 1.52588e-05) rotate(90)" fill="#F3F3F3"/>
<ns41:path d="M125.075 200C58.3242 200 24.8952 119.295 72.0952 72.0952Lnan nanL72.0952 72.0952C119.295 24.8951 200 58.3242 200 125.075L200 200L125.075 200Z" fill="#FFA300"/>
</ns41:g>
<ns42:defs xmlns:ns42="http://www.w3.org/2000/svg">
<ns42:clipPath id="clip0_5_5486">
<ns42:rect width="200" height="200" fill="#FFFFFF" transform="translate(200 1.52588e-05) rotate(90)"/>
</ns42:clipPath>
</ns42:defs>
</svg>
  <svg x="1600.0" y="640.0" width="320.0" height="320.0" viewBox="0 0 200 200"><ns43:g xmlns:ns43="http://www.w3.org/2000/svg" clip-path="url(#clip0_20_1395)">
<ns43:rect width="200" height="200" transform="translate(200 8.74228e-06) rotate(90)" fill="#F3F3F3"/>
<ns43:path d="M200 9.16683e-06L200 50L8.74228e-06 50L2.92866e-05 -1.41459e-05L200 9.16683e-06Z" fill="#FF4F00"/>
</ns43:g>
<ns44:defs xmlns:ns44="http://www.w3.org/2000/svg">
<ns44:clipPath id="clip0_20_1395">
<ns44:rect width="200" height="200" fill="#FFFFFF" transform="translate(200 8.74228e-06) rotate(90)"/>
</ns44:clipPath>
</ns44:defs>
</svg>
</svg>
