<?xml version='1.0' encoding='UTF-8'?>
<svg xmlns="http://www.w3.org/2000/svg" version="1.1" width="1920" height="960" viewBox="0 0 1920 960">
  <svg x="0.0" y="0.0" width="320.0" height="320.0" viewBox="0 0 200 200"><ns0:g xmlns:ns0="http://www.w3.org/2000/svg" clip-path="url(#clip0_5_5486)">
<ns0:rect width="200" height="200" transform="translate(200 1.52588e-05) rotate(90)" fill="#121212"/>
<ns0:path d="M125.075 200C58.3242 200 24.8952 119.295 72.0952 72.0952Lnan nanL72.0952 72.0952C119.295 24.8951 200 58.3242 200 125.075L200 200L125.075 200Z" fill="#FFA300"/>
</ns0:g>
<ns1:defs xmlns:ns1="http://www.w3.org/2000/svg">
<ns1:clipPath id="clip0_5_5486">
<ns1:rect width="200" height="200" fill="#FFFFFF" transform="translate(200 1.52588e-05) rotate(90)"/>
</ns1:clipPath>
</ns1:defs>
</svg>
  <svg x="320.0" y="0.0" width="320.0" height="320.0" viewBox="0 0 200 200"><ns2:g xmlns:ns2="http://www.w3.org/2000/svg" clip-path="url(#clip0_3_607)">
<ns2:rect width="200" height="200" transform="translate(200 1.52588e-05) rotate(90)" fill="#FFFFFF"/>
<ns2:path d="M200 2.62268e-05L200 10L2.23802e-05 100L2.18557e-05 0L200 2.62268e-05Z" fill="#FF4F00"/>
</ns2:g>
<ns3:defs xmlns:ns3="http://www.w3.org/2000/svg">
<ns3:clipPath id="clip0_3_607">
<ns3:rect width="200" height="200" fill="#FFFFFF" transform="translate(200 1.52588e-05) rotate(90)"/>
</ns3:clipPath>
</ns3:defs>
</svg>
  <svg x="640.0" y="0.0" width="320.0" height="320.0" viewBox="0 0 200 200"><ns4:rect xmlns:ns4="http://www.w3.org/2000/svg" width="200" height="200" fill="#FF4F00"/>
<ns5:path xmlns:ns5="http://www.w3.org/2000/svg" fill-rule="evenodd" clip-rule="evenodd" d="M10 200L10 2.18557e-07L15 0L15 200L10 200Z" fill="#121212"/>
<ns6:path xmlns:ns6="http://www.w3.org/2000/svg" fill-rule="evenodd" clip-rule="evenodd" d="M120 200L120 2.18557e-07L125 0L125 200L120 200Z" fill="#121212"/>
<ns7:path xmlns:ns7="http://www.w3.org/2000/svg" fill-rule="evenodd" clip-rule="evenodd" d="M35 200L35 2.18557e-07L40 0L40 200L35 200Z" fill="#121212"/>
<ns8:path xmlns:ns8="http://www.w3.org/2000/svg" fill-rule="evenodd" clip-rule="evenodd" d="M140 200L140 2.18557e-07L145 0L145 200L140 200Z" fill="#121212"/>
<ns9:path xmlns:ns9="http://www.w3.org/2000/svg" fill-rule="evenodd" clip-rule="evenodd" d="M60 200L60 2.18557e-07L65 0L65 200L60 200Z" fill="#121212"/>
<ns10:path xmlns:ns10="http://www.w3.org/2000/svg" fill-rule="evenodd" clip-rule="evenodd" d="M160 200L160 2.18557e-07L165 0L165 200L160 200Z" fill="#121212"/>
<ns11:path xmlns:ns11="http://www.w3.org/2000/svg" fill-rule="evenodd" clip-rule="evenodd" d="M80 200L80 2.18557e-07L85 0L85 200L80 200Z" fill="#121212"/>
<ns12:path xmlns:ns12="http://www.w3.org/2000/svg" fill-rule="evenodd" clip-rule="evenodd" d="M175 200L175 2.18557e-07L180 0L180 200L175 200Z" fill="#121212"/>
<ns13:path xmlns:ns13="http://www.w3.org/2000/svg" fill-rule="evenodd" clip-rule="evenodd" d="M190 200L190 2.18557e-07L195 0L195 200L190 200Z" fill="#121212"/>
<ns14:path xmlns:ns14="http://www.w3.org/2000/svg" fill-rule="evenodd" clip-rule="evenodd" d="M100 200L100 2.18557e-07L105 0L105 200L100 200Z" fill="#121212"/>
</svg>
  <svg x="960.0" y="0.0" width="320.0" height="320.0" viewBox="0 0 200 200"><ns15:g xmlns:ns15="http://www.w3.org/2000/svg" clip-path="url(#clip0_25_1201)">
<ns15:rect width="200" height="200" transform="translate(200 8.74228e-06) rotate(90)" fill="#121212"/>
<ns15:path d="M200 50L200 150L8.74228e-06 150L3.49691e-05 50L200 50Z" fill="#D9D9D6"/>
</ns15:g>
<ns16:defs xmlns:ns16="http://www.w3.org/2000/svg">
<ns16:clipPath id="clip0_25_1201">
<ns16:rect width="200" height="200" fill="#FFFFFF" transform="translate(200 8.74228e-06) rotate(90)"/>
</ns16:clipPath>
</ns16:defs>
</svg>
  <svg x="1280.0" y="0.0" width="320.0" height="320.0" viewBox="0 0 200 200"><ns17:rect xmlns:ns17="http://www.w3.org/2000/svg" width="200" height="200" transform="translate(200 8.74228e-06) rotate(90)" fill="#FFFFFF"/>
<ns18:path xmlns:ns18="http://www.w3.org/2000/svg" d="M166.667 200C129.848 200 33.3333 200 33.3333 200C33.3333 163.181 63.1809 133.333 99.9999 133.333C136.819 133.333 166.667 163.181 166.667 200Z" fill="#FF4F00"/>
</svg>
  <svg x="1600.0" y="0.0" width="320.0" height="320.0" viewBox="0 0 200 200"><ns19:g xmlns:ns19="http://www.w3.org/2000/svg" clip-path="url(#clip0_4_5443)">
<ns19:rect width="200" height="200" transform="translate(200 8.74228e-06) rotate(90)" fill="#121212"/>
<ns19:path d="M200 1.97103e-05L200 50L8.74228e-06 100L3.49691e-05 -6.51651e-06L200 1.97103e-05Z" fill="#D9D9D6"/>
<ns19:path d="M200 1.97103e-05L200 50L8.74228e-06 100L3.49691e-05 -6.51651e-06L200 1.97103e-05Z" fill="#D9D9D6"/>
<ns19:path d="M-2.18558e-06 200L200 150L200 200L-2.18558e-06 200Z" fill="#D9D9D6"/>
</ns19:g>
<ns20:defs xmlns:ns20="http://www.w3.org/2000/svg">
<ns20:clipPath id="clip0_4_5443">
<ns20:rect width="200" height="200" fill="#FFFFFF" transform="translate(200 8.74228e-06) rotate(90)"/>
</ns20:clipPath>
</ns20:defs>
</svg>
  <svg x="0.0" y="320.0" width="320.0" height="320.0" viewBox="0 0 200 200"><ns21:rect xmlns:ns21="http://www.w3.org/2000/svg" width="200" height="200" transform="translate(200 1.52588e-05) rotate(90)" fill="#D9D9D6"/>
<ns22:path xmlns:ns22="http://www.w3.org/2000/svg" d="M150 4.25583e-05L150 150L8.74228e-06 150L3.82475e-05 2.28882e-05L150 4.25583e-05Z" fill="#FF4F00"/>
</svg>
  <svg x="320.0" y="320.0" width="320.0" height="320.0" viewBox="0 0 200 200"><ns23:rect xmlns:ns23="http://www.w3.org/2000/svg" width="200" height="200" transform="translate(200 8.74228e-06) rotate(90)" fill="#FFFFFF"/>
<ns24:path xmlns:ns24="http://www.w3.org/2000/svg" d="M100 8.74228e-06H8.74228e-06V100C8.74228e-06 44.772 44.772 8.74228e-06 100 8.74228e-06Z" fill="#121212"/>
<ns25:path xmlns:ns25="http://www.w3.org/2000/svg" d="M62.5 25C41.7902 25 25 41.7857 25 62.5C25 83.2143 41.7902 100 62.5 100C72.8572 100 82.2321 95.8036 89.0179 89.0179C95.8036 82.2321 100 72.8572 100 62.5C100 41.7857 83.2098 25 62.5 25Z" fill="#121212"/>
</svg>
  <svg x="640.0" y="320.0" width="320.0" height="320.0" viewBox="0 0 200 200"><ns26:g xmlns:ns26="http://www.w3.org/2000/svg" clip-path="url(#clip0_20_1271)">
<ns26:rect width="200" height="200" transform="translate(200 8.74228e-06) rotate(90)" fill="#D9D9D6"/>
<ns26:path d="M100 1.42263e-05L100 50L8.74228e-06 100L3.49691e-05 -1.41459e-05L100 1.42263e-05Z" fill="#FF4F00"/>
</ns26:g>
<ns27:defs xmlns:ns27="http://www.w3.org/2000/svg">
<ns27:clipPath id="clip0_20_1271">
<ns27:rect width="200" height="200" fill="#FFFFFF" transform="translate(200 8.74228e-06) rotate(90)"/>
</ns27:clipPath>
</ns27:defs>
</svg>
  <svg x="960.0" y="320.0" width="320.0" height="320.0" viewBox="0 0 200 200"><ns28:g xmlns:ns28="http://www.w3.org/2000/svg" clip-path="url(#clip0_5_6178)">
<ns28:rect width="200" height="200" transform="translate(200 8.74228e-06) rotate(90)" fill="#121212"/>
<ns28:g clip-path="url(#clip1_5_6178)">
<ns28:path d="M7.50001 14.636C8.0629 19.144 8.66849 25.344 9.23526 33.848C10.4503 52.068 11.118 75.564 11.118 100C11.118 124.436 10.4503 147.932 9.23526 166.152C8.66849 174.656 8.06678 180.856 7.50001 185.364C6.93712 180.856 6.33153 174.656 5.76476 166.152C4.5497 147.932 3.882 124.436 3.882 100C3.882 75.564 4.5497 52.068 5.76476 33.848C6.33153 25.344 6.93324 19.144 7.50001 14.636ZM7.50001 8.74228e-06C3.35793 8.74228e-06 8.74228e-06 44.772 8.74228e-06 100C8.74228e-06 155.228 3.35793 200 7.50001 200C11.6421 200 15 155.228 15 100C15 44.772 11.6421 8.74228e-06 7.50001 8.74228e-06Z" fill="#FFA300"/>
<ns28:path d="M30.8332 4.00001C32.323 4.00001 37.6175 8.80001 42.2392 30.136C46.2722 48.752 48.4949 73.564 48.4949 100C48.4949 126.436 46.2722 151.248 42.2392 169.864C37.6175 191.196 32.323 196 30.8332 196C29.3433 196 24.0488 191.2 19.4271 169.864C15.3942 151.248 13.1714 126.436 13.1714 100C13.1714 73.564 15.3942 48.752 19.4271 30.136C24.0528 8.80001 29.3433 4.00001 30.8332 4.00001ZM30.8332 8.74228e-06C18.8705 8.74228e-06 9.16651 44.772 9.16651 100C9.16651 155.228 18.8664 200 30.8332 200C42.7999 200 52.4998 155.228 52.4998 100C52.4998 44.772 42.7999 8.74228e-06 30.8332 8.74228e-06Z" fill="#FFA300"/>
<ns28:path d="M53.7502 4.00001C57.3006 4.00001 60.9108 6.16401 64.4852 10.432C68.3384 15.036 71.9885 22.02 75.0368 30.628C81.5758 49.096 85.1781 73.732 85.1781 100C85.1781 126.268 81.5758 150.904 75.0368 169.372C71.9885 177.98 68.3384 184.964 64.4852 189.568C60.9108 193.836 57.3006 196 53.7502 196C50.1997 196 46.5895 193.836 43.0152 189.568C39.1619 184.964 35.5119 177.98 32.4635 169.372C25.9245 150.904 22.3223 126.268 22.3223 100C22.3223 73.732 25.9245 49.096 32.4635 30.628C35.5119 22.02 39.1619 15.036 43.0152 10.432C46.5895 6.16401 50.1997 4.00001 53.7502 4.00001ZM53.7502 8.74228e-06C34.1889 8.74228e-06 18.3335 44.772 18.3335 100C18.3335 155.228 34.1889 200 53.7502 200C73.3114 200 89.1668 155.228 89.1668 100C89.1668 44.772 73.3074 8.74228e-06 53.7502 8.74228e-06Z" fill="#FFA300"/>
<ns28:path d="M77.0833 4.00001C82.7931 4.00001 88.4106 6.32001 93.7755 10.9C99.2647 15.584 104.237 22.368 108.547 31.064C117.645 49.412 122.653 73.892 122.653 100C122.653 126.108 117.645 150.592 108.547 168.936C104.237 177.632 99.2647 184.416 93.7755 189.1C88.4106 193.676 82.7931 196 77.0833 196C71.3736 196 65.7561 193.68 60.3912 189.1C54.902 184.416 49.93 177.632 45.6196 168.936C36.5217 150.588 31.5137 126.108 31.5137 100C31.5137 73.892 36.5217 49.408 45.6196 31.064C49.93 22.368 54.902 15.584 60.3912 10.9C65.7561 6.32401 71.3736 4.00001 77.0833 4.00001ZM77.0833 8.74228e-06C49.7014 8.74228e-06 27.5 44.772 27.5 100C27.5 155.228 49.6974 200 77.0833 200C104.469 200 126.667 155.228 126.667 100C126.667 44.772 104.465 8.74228e-06 77.0833 8.74228e-06Z" fill="#FFA300"/>
<ns28:path d="M99.5795 4.00001C107.377 4.00001 114.974 6.41601 122.16 11.184C129.282 15.908 135.707 22.72 141.26 31.428C146.897 40.268 151.327 50.592 154.433 62.108C157.668 74.1 159.306 86.848 159.306 99.996C159.306 113.144 157.668 125.892 154.433 137.884C151.327 149.4 146.897 159.724 141.26 168.564C135.707 177.272 129.282 184.084 122.16 188.808C114.974 193.576 107.377 195.992 99.5795 195.992C91.7817 195.992 84.1852 193.576 76.999 188.808C69.8772 184.084 63.4515 177.272 57.899 168.564C52.2619 159.724 47.8319 149.4 44.7257 137.884C41.4907 125.892 39.8531 113.144 39.8531 99.996C39.8531 86.848 41.4907 74.096 44.7257 62.108C47.8319 50.592 52.2619 40.268 57.899 31.428C63.4515 22.72 69.8772 15.908 76.999 11.184C84.1852 6.41601 91.7817 4.00001 99.5795 4.00001ZM99.5795 8.74228e-06C64.3729 8.74228e-06 35.8335 44.772 35.8335 100C35.8335 155.228 64.3729 200 99.5835 200C134.794 200 163.334 155.228 163.334 100C163.334 44.772 134.786 8.74228e-06 99.5795 8.74228e-06Z" fill="#FFA300"/>
<ns28:path d="M122.496 4.00001C163.019 4.00001 195.985 47.064 195.985 100C195.985 152.936 163.019 196 122.496 196C81.9731 196 49.007 152.936 49.007 100C49.007 47.064 81.9772 4.00001 122.496 4.00001ZM122.496 8.74228e-06C79.6949 8.74228e-06 45 44.772 45 100C45 155.228 79.6989 200 122.5 200C165.301 200 200 155.228 200 100C200 44.772 165.297 8.74228e-06 122.496 8.74228e-06Z" fill="#FFA300"/>
</ns28:g>
</ns28:g>
<ns29:defs xmlns:ns29="http://www.w3.org/2000/svg">
<ns29:clipPath id="clip0_5_6178">
<ns29:rect width="200" height="200" fill="#FFFFFF" transform="translate(200 8.74228e-06) rotate(90)"/>
</ns29:clipPath>
<ns29:clipPath id="clip1_5_6178">
<ns29:rect width="200" height="200" fill="#FFFFFF"/>
</ns29:clipPath>
</ns29:defs>
</svg>
  <svg x="1280.0" y="320.0" width="320.0" height="320.0" viewBox="0 0 200 200"><ns30:g xmlns:ns30="http://www.w3.org/2000/svg" clip-path="url(#clip0_20_1283)">
<ns30:rect width="200" height="200" transform="translate(200 8.74228e-06) rotate(90)" fill="#FF4F00"/>
<ns30:path fill-rule="evenodd" clip-rule="evenodd" d="M50 100L200 2.62268e-05L2.40011e-05 0L3.05176e-05 200L100 200L50 100Z" fill="#F3F3F3"/>
</ns30:g>
<ns31:defs xmlns:ns31="http://www.w3.org/2000/svg">
<ns31:clipPath id="clip0_20_1283">
<ns31:rect width="200" height="200" fill="#FFFFFF" transform="translate(200 8.74228e-06) rotate(90)"/>
</ns31:clipPath>
</ns31:defs>
</svg>
  <svg x="1600.0" y="320.0" width="320.0" height="320.0" viewBox="0 0 200 200"><ns32:rect xmlns:ns32="http://www.w3.org/2000/svg" width="200" height="200" transform="translate(200 8.74228e-06) rotate(90)" fill="#D9D9D6"/>
<ns33:path xmlns:ns33="http://www.w3.org/2000/svg" d="M50 50C50 22.3858 72.3858 8.74228e-06 100 8.74228e-06C127.614 8.74228e-06 150 22.3858 150 50V150C150 177.614 127.614 200 100 200C72.3858 200 50 177.614 50 150V50Z" fill="#121212"/>
</svg>
  <svg x="0.0" y="640.0" width="320.0" height="320.0" viewBox="0 0 200 200"><ns34:g xmlns:ns34="http://www.w3.org/2000/svg" clip-path="url(#clip0_35_1276)">
<ns34:rect width="200" height="200" transform="translate(200 8.74228e-06) rotate(90)" fill="#D9D9D6"/>
<ns34:path d="M200 9.16683e-06L170.711 29.2893C125.435 74.5646 64.0289 100 8.74228e-06 100Lnan nanL8.74228e-06 100L3.67176e-05 -1.41459e-05L100 -2.48954e-06L200 9.16683e-06Z" fill="#121212"/>
</ns34:g>
<ns35:defs xmlns:ns35="http://www.w3.org/2000/svg">
<ns35:clipPath id="clip0_35_1276">
<ns35:rect width="200" height="200" fill="#FFFFFF" transform="translate(200 8.74228e-06) rotate(90)"/>
</ns35:clipPath>
</ns35:defs>
</svg>
  <svg x="320.0" y="640.0" width="320.0" height="320.0" viewBox="0 0 200 200"><ns36:g xmlns:ns36="http://www.w3.org/2000/svg" clip-path="url(#clip0_74_2301)">
<ns36:rect width="200" height="200" transform="translate(200 8.74228e-06) rotate(90)" fill="#F3F3F3"/>
<ns36:path d="M128.568 144.504C112 97.912 58.776 75.864 14.104 97.096C-56.824 130.808 -130.816 56.816 -97.096 -14.104C-75.864 -58.768 -97.912 -111.992 -144.504 -128.568C-178.784 -140.76 -197.176 -169.76 -199.688 -200L-200 -200L-200 200L200 200L200 199.688C169.76 197.168 140.76 178.784 128.568 144.504Z" fill="#FF4F00"/>
</ns36:g>
<ns37:defs xmlns:ns37="http://www.w3.org/2000/svg">
<ns37:clipPath id="clip0_74_2301">
<ns37:rect width="200" height="200" fill="#FFFFFF" transform="translate(200 8.74228e-06) rotate(90)"/>
</ns37:clipPath>
</ns37:defs>
</svg>
  <svg x="640.0" y="640.0" width="320.0" height="320.0" viewBox="0 0 200 200"><ns38:g xmlns:ns38="http://www.w3.org/2000/svg" clip-path="url(#clip0_20_1209)">
<ns38:rect width="200" height="200" transform="translate(200 8.74228e-06) rotate(90)" fill="#FF4F00"/>
<ns38:path fill-rule="evenodd" clip-rule="evenodd" d="M100 135.417L100 149.167L190.047 149.167L190 199.953L200 200L200 8.30516e-06L190 9.4496e-06C190 107.037 159.583 135.417 100 135.417Z" fill="#121212"/>
</ns38:g>
<ns39:defs xmlns:ns39="http://www.w3.org/2000/svg">
<ns39:clipPath id="clip0_20_1209">
<ns39:rect width="200" height="200" fill="#FFFFFF" transform="translate(200 8.74228e-06) rotate(90)"/>
</ns39:clipPath>
</ns39:defs>
</svg>
  <svg x="960.0" y="640.0" width="320.0" height="320.0" viewBox="0 0 200 200"><ns40:g xmlns:ns40="http://www.w3.org/2000/svg" clip-path="url(#clip0_75_4332)">
<ns40:rect width="200" height="200" transform="translate(200 8.74228e-06) rotate(90)" fill="#FF4F00"/>
<ns40:path d="M1.0968e-05 6.67572e-06Lnan nanL1.0968e-05 6.67572e-06C43.2927 55.8508 75.8745 119.232 96.0993 186.941L100 200L-6.51651e-06 200L1.0968e-05 6.67572e-06Z" fill="#D9D9D6"/>
<ns40:path d="M199.972 100L200 0.0280229L100 1.43051e-05C99.984 55.2126 144.744 99.984 199.972 100Z" fill="#D9D9D6"/>
</ns40:g>
<ns41:defs xmlns:ns41="http://www.w3.org/2000/svg">
<ns41:clipPath id="clip0_75_4332">
<ns41:rect width="200" height="200" fill="#FFFFFF" transform="translate(200 8.74228e-06) rotate(90)"/>
</ns41:clipPath>
</ns41:defs>
</svg>
  <svg x="1280.0" y="640.0" width="320.0" height="320.0" viewBox="0 0 200 200"><ns42:rect xmlns:ns42="http://www.w3.org/2000/svg" width="200" height="200" transform="translate(200 8.74228e-06) rotate(90)" fill="#F3F3F3"/>
<ns43:circle xmlns:ns43="http://www.w3.org/2000/svg" cx="100" cy="100" r="50" fill="#FFA300"/>
</svg>
  <svg x="1600.0" y="640.0" width="320.0" height="320.0" viewBox="0 0 200 200"><ns44:g xmlns:ns44="http://www.w3.org/2000/svg" clip-path="url(#clip0_3_605)">
<ns44:rect width="200" height="200" transform="translate(200 8.74228e-06) rotate(90)" fill="#121212"/>
<ns44:path d="M200 1.97103e-05L200 50L8.74228e-06 100L3.49691e-05 -6.51651e-06L200 1.97103e-05Z" fill="#FF4F00"/>
</ns44:g>
<ns45:defs xmlns:ns45="http://www.w3.org/2000/svg">
<ns45:clipPath id="clip0_3_605">
<ns45:rect width="200" height="200" fill="#FFFFFF" transform="translate(200 8.74228e-06) rotate(90)"/>
</ns45:clipPath>
</ns45:defs>
</svg>
</svg>
