<?xml version='1.0' encoding='UTF-8'?>
<svg xmlns="http://www.w3.org/2000/svg" version="1.1" width="1920" height="960" viewBox="0 0 1920 960">
  <svg x="0.0" y="0.0" width="320.0" height="320.0" viewBox="0 0 200 200"><ns0:g xmlns:ns0="http://www.w3.org/2000/svg" clip-path="url(#clip0_5_6323)">
<ns0:rect width="200" height="200" transform="translate(200 8.74228e-06) rotate(90)" fill="#4997D0"/>
<ns0:path d="M200 200C144.772 200 8.74228e-06 200 8.74228e-06 200C8.74228e-06 144.772 44.7715 100 100 100C155.228 100 200 144.772 200 200Z" fill="#FFFFFF"/>
<ns0:path d="M1.74846e-05 -8.74228e-06C55.2285 -3.91405e-06 200 8.74228e-06 200 8.74228e-06C200 55.2285 155.228 100 100 100C44.7715 100 1.26563e-05 55.2285 1.74846e-05 -8.74228e-06Z" fill="#FFFFFF"/>
</ns0:g>
<ns1:defs xmlns:ns1="http://www.w3.org/2000/svg">
<ns1:clipPath id="clip0_5_6323">
<ns1:rect width="200" height="200" fill="#FFFFFF" transform="translate(200 8.74228e-06) rotate(90)"/>
</ns1:clipPath>
</ns1:defs>
</svg>
  <svg x="320.0" y="0.0" width="320.0" height="320.0" viewBox="0 0 200 200"><ns2:g xmlns:ns2="http://www.w3.org/2000/svg" clip-path="url(#clip0_35_1225)">
<ns2:rect width="200" height="200" transform="translate(200 1.52588e-05) rotate(90)" fill="#FFFFFF"/>
<ns2:path d="M200 1.56833e-05Lnan nanL200 1.56833e-05C200 55.2285 155.228 100 100 100L8.74228e-06 100L3.67176e-05 -7.62939e-06L200 1.56833e-05Z" fill="#121212"/>
</ns2:g>
<ns3:defs xmlns:ns3="http://www.w3.org/2000/svg">
<ns3:clipPath id="clip0_35_1225">
<ns3:rect width="200" height="200" fill="#FFFFFF" transform="translate(200 1.52588e-05) rotate(90)"/>
</ns3:clipPath>
</ns3:defs>
</svg>
  <svg x="640.0" y="0.0" width="320.0" height="320.0" viewBox="0 0 200 200"><ns4:rect xmlns:ns4="http://www.w3.org/2000/svg" width="200" height="200" transform="translate(200 8.74228e-06) rotate(90)" fill="#D9D9D6"/>
<ns5:path xmlns:ns5="http://www.w3.org/2000/svg" d="M50 50C50 22.3858 72.3858 8.74228e-06 100 8.74228e-06C127.614 8.74228e-06 150 22.3858 150 50V150C150 177.614 127.614 200 100 200C72.3858 200 50 177.614 50 150V50Z" fill="#FF4F00"/>
</svg>
  <svg x="960.0" y="0.0" width="320.0" height="320.0" viewBox="0 0 200 200"><ns6:g xmlns:ns6="http://www.w3.org/2000/svg" clip-path="url(#clip0_3_607)">
<ns6:rect width="200" height="200" transform="translate(200 1.52588e-05) rotate(90)" fill="#FFFFFF"/>
<ns6:path d="M200 2.62268e-05L200 10L2.23802e-05 100L2.18557e-05 0L200 2.62268e-05Z" fill="#FF4F00"/>
</ns6:g>
<ns7:defs xmlns:ns7="http://www.w3.org/2000/svg">
<ns7:clipPath id="clip0_3_607">
<ns7:rect width="200" height="200" fill="#FFFFFF" transform="translate(200 1.52588e-05) rotate(90)"/>
</ns7:clipPath>
</ns7:defs>
</svg>
  <svg x="1280.0" y="0.0" width="320.0" height="320.0" viewBox="0 0 200 200"><ns8:rect xmlns:ns8="http://www.w3.org/2000/svg" width="200" height="200" transform="translate(200 8.74228e-06) rotate(90)" fill="#F3F3F3"/>
<ns9:path xmlns:ns9="http://www.w3.org/2000/svg" d="M175 25L175 175L25 175L25 25L175 25Z" fill="#FFA300"/>
</svg>
  <svg x="1600.0" y="0.0" width="320.0" height="320.0" viewBox="0 0 200 200"><ns10:g xmlns:ns10="http://www.w3.org/2000/svg" clip-path="url(#clip0_20_1272)">
<ns10:rect width="200" height="200" transform="translate(200 8.74228e-06) rotate(90)" fill="#F3F3F3"/>
<ns10:path d="M100 2.18557e-05L100 100L1.47744e-05 150L2.84124e-05 -6.51651e-06L100 2.18557e-05Z" fill="#FF4F00"/>
</ns10:g>
<ns11:defs xmlns:ns11="http://www.w3.org/2000/svg">
<ns11:clipPath id="clip0_20_1272">
<ns11:rect width="200" height="200" fill="#FFFFFF" transform="translate(200 8.74228e-06) rotate(90)"/>
</ns11:clipPath>
</ns11:defs>
</svg>
  <svg x="0.0" y="320.0" width="320.0" height="320.0" viewBox="0 0 200 200"><ns12:rect xmlns:ns12="http://www.w3.org/2000/svg" width="200" height="200" fill="#121212"/>
<ns13:path xmlns:ns13="http://www.w3.org/2000/svg" d="M60 200H80L80 0H60L60 200Z" fill="#FF4F00"/>
<ns14:path xmlns:ns14="http://www.w3.org/2000/svg" d="M140 200H160L160 0H140L140 200Z" fill="#FF4F00"/>
<ns15:path xmlns:ns15="http://www.w3.org/2000/svg" fill-rule="evenodd" clip-rule="evenodd" d="M130.114 114.849C125.388 121.241 120 128.058 120 136.007V200H100V136.007C100 128.058 94.612 121.241 89.8855 114.849C86.8153 110.697 85 105.56 85 100C85 94.4396 86.8153 89.3032 89.8855 85.1511C94.612 78.7593 100 71.9425 100 63.9929V0H120V63.9929C120 71.9424 125.388 78.7593 130.114 85.1511C133.185 89.3032 135 94.4396 135 100C135 105.56 133.185 110.697 130.114 114.849Z" fill="#FF4F00"/>
<ns16:path xmlns:ns16="http://www.w3.org/2000/svg" d="M20 200H40L40 0H20L20 200Z" fill="#FF4F00"/>
<ns17:path xmlns:ns17="http://www.w3.org/2000/svg" d="M180 200H200L200 0H180L180 200Z" fill="#FF4F00"/>
</svg>
  <svg x="320.0" y="320.0" width="320.0" height="320.0" viewBox="0 0 200 200"><ns18:g xmlns:ns18="http://www.w3.org/2000/svg" clip-path="url(#clip0_20_1334)">
<ns18:rect width="200" height="200" transform="translate(200 8.74228e-06) rotate(90)" fill="#121212"/>
<ns18:path d="M100 8.74228e-06H8.74228e-06V100C8.74228e-06 44.772 44.772 8.74228e-06 100 8.74228e-06Z" fill="#FFFFFF"/>
<ns18:path d="M50.0001 150C50.0001 122.387 27.6192 100 0.000126998 100C0.000126998 100 0.000126019 122.387 0.000124812 150C0.000128023 163.81 0.000126441 200 0.000126441 200C27.6192 200 50.0001 177.613 50.0001 150Z" fill="#FFFFFF"/>
</ns18:g>
<ns19:defs xmlns:ns19="http://www.w3.org/2000/svg">
<ns19:clipPath id="clip0_20_1334">
<ns19:rect width="200" height="200" fill="#FFFFFF" transform="translate(200 8.74228e-06) rotate(90)"/>
</ns19:clipPath>
</ns19:defs>
</svg>
  <svg x="640.0" y="320.0" width="320.0" height="320.0" viewBox="0 0 200 200"><ns20:g xmlns:ns20="http://www.w3.org/2000/svg" clip-path="url(#clip0_3_503)">
<ns20:rect width="200" height="200" transform="translate(200 8.74228e-06) rotate(90)" fill="#FFFFFF"/>
<ns20:path d="M200 2.44739e-09L-6.51651e-06 2.4471e-09L0 200C110.425 200.032 199.968 110.456 200 2.44739e-09Z" fill="#121212"/>
</ns20:g>
<ns21:defs xmlns:ns21="http://www.w3.org/2000/svg">
<ns21:clipPath id="clip0_3_503">
<ns21:rect width="200" height="200" fill="#FFFFFF" transform="translate(200 8.74228e-06) rotate(90)"/>
</ns21:clipPath>
</ns21:defs>
</svg>
  <svg x="960.0" y="320.0" width="320.0" height="320.0" viewBox="0 0 200 200"><ns22:g xmlns:ns22="http://www.w3.org/2000/svg" clip-path="url(#clip0_3_551)">
<ns22:rect width="200" height="200" transform="translate(200 8.74228e-06) rotate(90)" fill="#FFFFFF"/>
<ns22:path d="M200 2.73397e-05L8.74228e-06 200L3.49691e-05 1.11288e-06L200 2.73397e-05Z" fill="#FFA300"/>
</ns22:g>
<ns23:defs xmlns:ns23="http://www.w3.org/2000/svg">
<ns23:clipPath id="clip0_3_551">
<ns23:rect width="200" height="200" fill="#FFFFFF" transform="translate(200 8.74228e-06) rotate(90)"/>
</ns23:clipPath>
</ns23:defs>
</svg>
  <svg x="1280.0" y="320.0" width="320.0" height="320.0" viewBox="0 0 200 200"><ns24:g xmlns:ns24="http://www.w3.org/2000/svg" clip-path="url(#clip0_4_5444)">
<ns24:rect width="200" height="200" transform="translate(200 8.74228e-06) rotate(90)" fill="#FF4F00"/>
<ns24:path d="M200 3.49691e-05L8.74228e-06 200L3.49691e-05 8.74228e-06L200 3.49691e-05Z" fill="#121212"/>
<ns24:path d="M50 200L200 50L200 200L50 200Z" fill="#121212"/>
</ns24:g>
<ns25:defs xmlns:ns25="http://www.w3.org/2000/svg">
<ns25:clipPath id="clip0_4_5444">
<ns25:rect width="200" height="200" fill="#FFFFFF" transform="translate(200 8.74228e-06) rotate(90)"/>
</ns25:clipPath>
</ns25:defs>
</svg>
  <svg x="1600.0" y="320.0" width="320.0" height="320.0" viewBox="0 0 200 200"><ns26:g xmlns:ns26="http://www.w3.org/2000/svg" clip-path="url(#clip0_3_535)">
<ns26:rect width="200" height="200" transform="translate(200 8.74228e-06) rotate(90)" fill="#FF4F00"/>
<ns26:path fill-rule="evenodd" clip-rule="evenodd" d="M4.37118e-07 190L-3.05176e-05 200L200 200L200 8.74228e-06L190 8.74524e-06C189.97 104.933 104.904 190.03 4.37118e-07 190Z" fill="#FFFFFF"/>
</ns26:g>
<ns27:defs xmlns:ns27="http://www.w3.org/2000/svg">
<ns27:clipPath id="clip0_3_535">
<ns27:rect width="200" height="200" fill="#FFFFFF" transform="translate(200 8.74228e-06) rotate(90)"/>
</ns27:clipPath>
</ns27:defs>
</svg>
  <svg x="0.0" y="640.0" width="320.0" height="320.0" viewBox="0 0 200 200"><ns28:g xmlns:ns28="http://www.w3.org/2000/svg" clip-path="url(#clip0_85_4348)">
<ns28:rect width="200" height="200" transform="translate(200 8.74228e-06) rotate(90)" fill="#D9D9D6"/>
<ns28:circle cx="150" cy="100" r="50" fill="#FFA300"/>
<ns28:circle cx="150" cy="1.11288e-06" r="50" fill="#FFA300"/>
<ns28:circle cx="150" cy="200" r="50" fill="#FFA300"/>
<ns28:rect x="150" y="-10" width="50" height="220" fill="#FFA300"/>
</ns28:g>
<ns29:defs xmlns:ns29="http://www.w3.org/2000/svg">
<ns29:clipPath id="clip0_85_4348">
<ns29:rect width="200" height="200" fill="#FFFFFF" transform="translate(200 8.74228e-06) rotate(90)"/>
</ns29:clipPath>
</ns29:defs>
</svg>
  <svg x="320.0" y="640.0" width="320.0" height="320.0" viewBox="0 0 200 200"><ns30:g xmlns:ns30="http://www.w3.org/2000/svg" clip-path="url(#clip0_35_1274)">
<ns30:rect width="200" height="200" transform="translate(200 8.74228e-06) rotate(90)" fill="#FFFFFF"/>
<ns30:path d="M200 9.16683e-06C200 9.16683e-06 169.709 10 100 10C30.2914 10 69.7086 10 8.74228e-06 10L2.33419e-05 -1.41459e-05L100 -2.48954e-06L200 9.16683e-06Z" fill="#FF4F00"/>
</ns30:g>
<ns31:defs xmlns:ns31="http://www.w3.org/2000/svg">
<ns31:clipPath id="clip0_35_1274">
<ns31:rect width="200" height="200" fill="#FFFFFF" transform="translate(200 8.74228e-06) rotate(90)"/>
</ns31:clipPath>
</ns31:defs>
</svg>
  <svg x="640.0" y="640.0" width="320.0" height="320.0" viewBox="0 0 200 200"><ns32:rect xmlns:ns32="http://www.w3.org/2000/svg" width="200" height="200" fill="#FF4F00"/>
<ns33:path xmlns:ns33="http://www.w3.org/2000/svg" d="M45 200H65L65 0H45L45 200Z" fill="#FFFFFF"/>
<ns34:path xmlns:ns34="http://www.w3.org/2000/svg" d="M90 200H110L110 0H90L90 200Z" fill="#FFFFFF"/>
<ns35:path xmlns:ns35="http://www.w3.org/2000/svg" d="M135 200H155L155 0H135L135 200Z" fill="#FFFFFF"/>
<ns36:path xmlns:ns36="http://www.w3.org/2000/svg" d="M0 200H20L20 0H0L0 200Z" fill="#FFFFFF"/>
<ns37:path xmlns:ns37="http://www.w3.org/2000/svg" d="M180 200H200L200 0H180L180 200Z" fill="#FFFFFF"/>
</svg>
  <svg x="960.0" y="640.0" width="320.0" height="320.0" viewBox="0 0 200 200"><ns38:g xmlns:ns38="http://www.w3.org/2000/svg" clip-path="url(#clip0_81_2190)">
<ns38:rect width="200" height="200" transform="translate(200 8.74228e-06) rotate(90)" fill="#F3F3F3"/>
<ns38:path d="M200 200C117.157 200 50 200 50 200C50 117.157 117.157 50 200 50C200 50 200 117.157 200 200Z" fill="#121212"/>
<ns38:path d="M200 200C158.579 200 125 200 125 200C125 158.579 158.579 125 200 125C200 125 200 158.579 200 200Z" fill="#F3F3F3"/>
</ns38:g>
<ns39:defs xmlns:ns39="http://www.w3.org/2000/svg">
<ns39:clipPath id="clip0_81_2190">
<ns39:rect width="200" height="200" fill="#FFFFFF" transform="translate(200 8.74228e-06) rotate(90)"/>
</ns39:clipPath>
</ns39:defs>
</svg>
  <svg x="1280.0" y="640.0" width="320.0" height="320.0" viewBox="0 0 200 200"><ns40:g xmlns:ns40="http://www.w3.org/2000/svg" clip-path="url(#clip0_5_6405)">
<ns40:rect width="200" height="200" transform="translate(200 8.74228e-06) rotate(90)" fill="#121212"/>
<ns40:ellipse cx="100" cy="100" rx="100" ry="50" transform="rotate(90 100 100)" fill="#FF4F00"/>
<ns40:circle cx="99.9998" cy="100" r="33.3333" fill="#121212"/>
</ns40:g>
<ns41:defs xmlns:ns41="http://www.w3.org/2000/svg">
<ns41:clipPath id="clip0_5_6405">
<ns41:rect width="200" height="200" fill="#FFFFFF" transform="translate(200 8.74228e-06) rotate(90)"/>
</ns41:clipPath>
</ns41:defs>
</svg>
  <svg x="1600.0" y="640.0" width="320.0" height="320.0" viewBox="0 0 200 200"><ns42:g xmlns:ns42="http://www.w3.org/2000/svg" clip-path="url(#clip0_35_2276)">
<ns42:rect width="200" height="200" transform="translate(200 8.74228e-06) rotate(90)" fill="#F3F3F3"/>
<ns42:path fill-rule="evenodd" clip-rule="evenodd" d="M154.082 79.1951C166.139 89.9719 177.338 99.9825 199.941 100C177.338 100.017 166.139 110.028 154.082 120.805C140.012 133.381 124.776 147 88.889 147C36.9794 147 2.16415 184.88 0.239243 200L0.000167847 200L0.000172218 100L0.000176589 2.28984e-05L0.239251 2.29012e-05C2.16416 15.12 36.9794 53.0001 88.8891 53.0001C124.776 53.0001 140.012 66.6193 154.082 79.1951Z" fill="#121212"/>
</ns42:g>
<ns43:defs xmlns:ns43="http://www.w3.org/2000/svg">
<ns43:clipPath id="clip0_35_2276">
<ns43:rect width="200" height="200" fill="#FFFFFF" transform="translate(200 8.74228e-06) rotate(90)"/>
</ns43:clipPath>
</ns43:defs>
</svg>
</svg>
