<?xml version='1.0' encoding='UTF-8'?>
<svg xmlns="http://www.w3.org/2000/svg" version="1.1" width="1920" height="960" viewBox="0 0 1920 960">
  <rect x="0" y="0" width="320" height="320" fill="#F3F3F3"/>
  <svg x="0" y="0" width="320" height="320" viewBox="0 0 200 200" overflow="hidden"><path xmlns="http://www.w3.org/2000/svg" d="M195 5.00003L195 195L5.00001 195L5.00005 5.00001L195 5.00003Z M200 8.74228e-06L8.74228e-06 200V8.74228e-06H200Z M100 200L200 100V200H100Z" fill="#121212"/>
</svg>
  <rect x="320" y="0" width="320" height="320" fill="#F3F3F3"/>
  <svg x="320" y="0" width="320" height="320" viewBox="0 0 200 200" overflow="hidden"><path xmlns="http://www.w3.org/2000/svg" d="M200 2.44739e-09L-6.51651e-06 2.4471e-09L0 200C110.425 200.032 199.968 110.456 200 2.44739e-09Z" fill="#121212" transform="rotate(180,100,100)"/>
</svg>
  <rect x="640" y="0" width="320" height="320" fill="#F3F3F3"/>
  <svg x="640" y="0" width="320" height="320" viewBox="0 0 200 200" overflow="hidden"><path xmlns="http://www.w3.org/2000/svg" d="M200 200C144.772 200 8.74228e-06 200 8.74228e-06 200C8.74228e-06 144.772 44.7715 100 100 100C155.228 100 200 144.772 200 200Z M1.74846e-05 -8.74228e-06C55.2285 -3.91405e-06 200 8.74228e-06 200 8.74228e-06C200 55.2285 155.228 100 100 100C44.7715 100 1.26563e-05 55.2285 1.74846e-05 -8.74228e-06Z" fill="#121212"/>
</svg>
  <rect x="960" y="0" width="320" height="320" fill="#F3F3F3"/>
  <svg x="960" y="0" width="320" height="320" viewBox="0 0 200 200" overflow="hidden"><path xmlns="http://www.w3.org/2000/svg" d="M200 1.67962e-05L200 150L8.74228e-06 150L4.41485e-05 -6.51651e-06L200 1.67962e-05Z" fill="#121212" transform="rotate(180,100,100)"/>
</svg>
  <rect x="1280" y="0" width="320" height="320" fill="#F3F3F3"/>
  <svg x="1280" y="0" width="320" height="320" viewBox="0 0 200 200" overflow="hidden"><path xmlns="http://www.w3.org/2000/svg" d="M200 2.73397e-05L200 100L8.74228e-06 200L3.49691e-05 1.11288e-06L200 2.73397e-05Z" fill="#121212"/>
</svg>
  <rect x="1600" y="0" width="320" height="320" fill="#F3F3F3"/>
  <svg x="1600" y="0" width="320" height="320" viewBox="0 0 200 200" overflow="hidden"><path xmlns="http://www.w3.org/2000/svg" d="M200 200C132.395 150.473 132.395 49.5275 200 2.62268e-05L-5.22929e-05 0L-6.10352e-05 200L200 200Z" fill="#121212" transform="rotate(270,100,100)"/>
</svg>
  <rect x="0" y="320" width="320" height="320" fill="#F3F3F3"/>
  <svg x="0" y="320" width="320" height="320" viewBox="0 0 200 200" overflow="hidden"><path xmlns="http://www.w3.org/2000/svg" d="M100 100L200 2.62268e-05L3.92599e-05 0L1.52588e-05 200L200 200L100 100Z" fill="#121212" transform="rotate(90,100,100)"/>
</svg>
  <rect x="320" y="320" width="320" height="320" fill="#F3F3F3"/>
  <svg x="320" y="320" width="320" height="320" viewBox="0 0 200 200" overflow="hidden"><path xmlns="http://www.w3.org/2000/svg" d="M200 3.49691e-05L8.74228e-06 200L3.49691e-05 8.74228e-06L200 3.49691e-05Z M50 200L200 50L200 200L50 200Z" fill="#121212" transform="rotate(270,100,100)"/>
</svg>
  <rect x="640" y="320" width="320" height="320" fill="#F3F3F3"/>
  <svg x="640" y="320" width="320" height="320" viewBox="0 0 200 200" overflow="hidden"><path xmlns="http://www.w3.org/2000/svg" d="M97.8167,199.2025 L98.3201,197.5408 L98.8607,195.8780 L99.4389,194.2144 L100.0549,192.5504 L100.7091,190.8862 L101.4018,189.2222 L102.1334,187.5587 L102.9040,185.8960 L102.9040,185.8960 L103.3937,184.8476 L103.8676,183.7963 L104.3258,182.7420 L104.7683,181.6851 L105.1951,180.6254 L105.6064,179.5634 L106.0021,178.4989 L106.3824,177.4322 L106.7472,176.3634 L107.0967,175.2927 L107.4309,174.2201 L107.7498,173.1458 L108.0535,172.0699 L108.3420,170.9926 L108.6154,169.9139 L108.8738,168.8340 L109.1172,167.7531 L109.3457,166.6713 L109.5593,165.5886 L109.7581,164.5053 L109.9420,163.4214 L110.1113,162.3370 L110.2659,161.2524 L110.4058,160.1677 L110.5312,159.0829 L110.6421,157.9982 L110.7385,156.9137 L110.8206,155.8296 L110.8883,154.7460 L110.9416,153.6630 L110.9808,152.5808 L111.0057,151.4994 L111.0166,150.4190 L111.0133,149.3398 L110.9960,148.2618 L110.9648,147.1852 L110.9196,146.1101 L110.8606,145.0367 L110.7877,143.9651 L110.7011,142.8953 L110.6008,141.8276 L110.4868,140.7621 L110.3592,139.6989 L110.2181,138.6381 L110.0635,137.5799 L109.8955,136.5243 L109.7140,135.4716 L109.5193,134.4218 L109.3112,133.3750 L109.0900,132.3315 L108.8556,131.2913 L108.6080,130.2546 L108.3474,129.2215 L108.0738,128.1921 L107.7872,127.1665 L107.4878,126.1449 L107.1755,125.1274 L106.8503,124.1142 L106.5125,123.1053 L106.1620,122.1010 L105.7988,121.1012 L105.4230,120.1062 L105.0348,119.1161 L104.6340,118.1310 L104.2208,117.1510 L103.7953,116.1764 L103.3574,115.2071 L102.9073,114.2433 L102.4450,113.2852 L101.9706,112.3330 L101.4840,111.3866 L100.9854,110.4462 L100.4748,109.5121 L99.9523,108.5842 L99.4179,107.6628 L98.8716,106.7480 L98.3136,105.8398 L97.7439,104.9385 L97.1625,104.0441 L96.5695,103.1569 L95.9649,102.2768 L95.3488,101.4041 L94.7213,100.5388 L94.0823,99.6811 L93.4320,98.8312 L92.7704,97.9891 L92.0976,97.1550 L91.4136,96.3291 L90.7185,95.5114 L90.0122,94.7020 L89.2950,93.9012 L88.5668,93.1090 L87.8276,92.3256 L87.0776,91.5510 L86.3168,90.7855 L85.5452,90.0291 L84.7630,89.2820 L83.9701,88.5444 L83.1665,87.8162 L82.3525,87.0978 L81.5279,86.3891 L80.6929,85.6904 L79.8476,85.0017 L78.9919,84.3232 L78.1259,83.6550 L77.2497,82.9973 L76.3633,82.3502 L75.4669,81.7137 L74.5603,81.0881 L73.6438,80.4735 L72.7173,79.8699 L71.7809,79.2776 L70.8347,78.6966 L69.8786,78.1271 L68.9129,77.5692 L67.9374,77.0231 L66.9523,76.4888 L65.9577,75.9665 L64.9535,75.4563 L63.9398,74.9584 L62.9167,74.4729 L61.8843,73.9999 L60.8425,73.5396 L59.7915,73.0920 L58.7313,72.6573 L57.6620,72.2357 L56.5835,71.8272 L55.4960,71.4320 L55.4960,71.4320 L54.6955,71.1432 L53.9008,70.8482 L53.1119,70.5473 L52.3288,70.2402 L51.5515,69.9272 L50.7801,69.6083 L50.0145,69.2835 L49.2547,68.9528 L48.5007,68.6164 L47.7525,68.2742 L47.0102,67.9262 L46.2737,67.5726 L45.5430,67.2134 L44.8181,66.8487 L44.0990,66.4783 L43.3857,66.1025 L42.6783,65.7213 L41.9767,65.3346 L41.2809,64.9426 L40.5909,64.5453 L39.9067,64.1428 L39.2284,63.7350 L38.5558,63.3220 L37.8891,62.9039 L37.2282,62.4807 L36.5732,62.0525 L35.9239,61.6193 L35.2805,61.1811 L34.6428,60.7380 L34.0110,60.2901 L33.3850,59.8373 L32.7649,59.3798 L32.1505,58.9175 L31.5420,58.4505 L30.9393,57.9789 L30.3424,57.5027 L29.7513,57.0220 L29.1660,56.5367 L28.5866,56.0470 L28.0129,55.5529 L27.4451,55.0544 L26.8831,54.5515 L26.3270,54.0444 L25.7766,53.5331 L25.2321,53.0175 L24.6933,52.4978 L24.1604,51.9740 L23.6333,51.4461 L23.1121,50.9142 L22.5966,50.3783 L22.0870,49.8385 L21.5831,49.2949 L21.0851,48.7473 L20.5929,48.1960 L20.1066,47.6410 L19.6260,47.0822 L19.1513,46.5198 L18.6824,45.9537 L18.2193,45.3841 L17.7620,44.8110 L17.3105,44.2343 L16.8649,43.6543 L16.4250,43.0708 L15.9910,42.4840 L15.5628,41.8939 L15.1404,41.3005 L14.7239,40.7039 L14.3131,40.1042 L13.9082,39.5013 L13.5091,38.8953 L13.1158,38.2863 L12.7283,37.6743 L12.3466,37.0594 L11.9708,36.4415 L11.6007,35.8208 L11.2365,35.1973 L10.8781,34.5710 L10.5255,33.9419 L10.1788,33.3102 L9.8378,32.6759 L9.5027,32.0390 L9.1734,31.3995 L8.8499,30.7575 L8.5322,30.1131 L8.2203,29.4662 L7.9143,28.8170 L7.6140,28.1655 L7.3196,27.5116 L7.0310,26.8556 L6.7482,26.1973 L6.4712,25.5369 L6.2001,24.8744 L5.9347,24.2098 L5.6752,23.5433 L5.4215,22.8747 L5.1736,22.2043 L4.9316,21.5319 L4.6953,20.8577 L4.4649,20.1818 L4.2402,19.5040 L4.0214,18.8246 L3.8084,18.1435 L3.6013,17.4609 L3.3999,16.7766 L3.2044,16.0908 L3.0146,15.4036 L2.8307,14.7149 L2.6526,14.0248 L2.4803,13.3334 L2.3139,12.6406 L2.1532,11.9467 L1.9984,11.2515 L1.8494,10.5551 L1.7062,9.8576 L1.5688,9.1591 L1.4372,8.4595 L1.3115,7.7589 L1.1915,7.0574 L1.0774,6.3550 L0.9691,5.6517 L0.8666,4.9476 L0.7699,4.2427 L0.6791,3.5372 L0.5940,2.8309 L0.5148,2.1240 L0.4414,1.4165 L0.3738,0.7085 L0.3120,0.0000 L0.3120,0.0000 L0.3096,0.0000 L0.3071,0.0000 L0.3047,0.0000 L0.3023,0.0000 L0.2998,0.0000 L0.2974,0.0000 L0.2950,0.0000 L0.2925,0.0000 L0.2901,0.0000 L0.2876,0.0000 L0.2852,0.0000 L0.2828,0.0000 L0.2803,0.0000 L0.2779,0.0000 L0.2755,0.0000 L0.2730,0.0000 L0.2706,0.0000 L0.2681,0.0000 L0.2657,0.0000 L0.2633,0.0000 L0.2608,0.0000 L0.2584,0.0000 L0.2560,0.0000 L0.2535,0.0000 L0.2511,0.0000 L0.2486,0.0000 L0.2462,0.0000 L0.2438,0.0000 L0.2413,0.0000 L0.2389,0.0000 L0.2365,0.0000 L0.2340,0.0000 L0.2316,0.0000 L0.2291,0.0000 L0.2267,0.0000 L0.2243,0.0000 L0.2218,0.0000 L0.2194,0.0000 L0.2170,0.0000 L0.2145,0.0000 L0.2121,0.0000 L0.2096,0.0000 L0.2072,0.0000 L0.2048,0.0000 L0.2023,0.0000 L0.1999,0.0000 L0.1975,0.0000 L0.1950,0.0000 L0.1926,0.0000 L0.1901,0.0000 L0.1877,0.0000 L0.1853,0.0000 L0.1828,0.0000 L0.1804,0.0000 L0.1780,0.0000 L0.1755,0.0000 L0.1731,0.0000 L0.1706,0.0000 L0.1682,0.0000 L0.1658,0.0000 L0.1633,0.0000 L0.1609,0.0000 L0.1585,0.0000 L0.1560,0.0000 L0.1536,0.0000 L0.1511,0.0000 L0.1487,0.0000 L0.1463,0.0000 L0.1438,0.0000 L0.1414,0.0000 L0.1390,0.0000 L0.1365,0.0000 L0.1341,0.0000 L0.1316,0.0000 L0.1292,0.0000 L0.1268,0.0000 L0.1243,0.0000 L0.1219,0.0000 L0.1195,0.0000 L0.1170,0.0000 L0.1146,0.0000 L0.1121,0.0000 L0.1097,0.0000 L0.1073,0.0000 L0.1048,0.0000 L0.1024,0.0000 L0.1000,0.0000 L0.0975,0.0000 L0.0951,0.0000 L0.0926,0.0000 L0.0902,0.0000 L0.0878,0.0000 L0.0853,0.0000 L0.0829,0.0000 L0.0805,0.0000 L0.0780,0.0000 L0.0756,0.0000 L0.0731,0.0000 L0.0707,0.0000 L0.0683,0.0000 L0.0658,0.0000 L0.0634,0.0000 L0.0610,0.0000 L0.0585,0.0000 L0.0561,0.0000 L0.0536,0.0000 L0.0512,0.0000 L0.0488,0.0000 L0.0463,0.0000 L0.0439,0.0000 L0.0415,0.0000 L0.0390,0.0000 L0.0366,0.0000 L0.0341,0.0000 L0.0317,0.0000 L0.0293,0.0000 L0.0268,0.0000 L0.0244,0.0000 L0.0220,0.0000 L0.0195,0.0000 L0.0171,0.0000 L0.0146,0.0000 L0.0122,0.0000 L0.0098,0.0000 L0.0073,0.0000 L0.0049,0.0000 L0.0025,0.0000 L0.0000,0.0000 L0.0000,0.0000 L0.0000,3.1250 L0.0000,6.2500 L0.0000,9.3750 L0.0000,12.5000 L0.0000,15.6250 L0.0000,18.7500 L0.0000,21.8750 L0.0000,25.0000 L0.0000,28.1250 L0.0000,31.2500 L0.0000,34.3750 L0.0000,37.5000 L0.0000,40.6250 L0.0000,43.7500 L0.0000,46.8750 L0.0000,50.0000 L0.0000,53.1250 L0.0000,56.2500 L0.0000,59.3750 L0.0000,62.5000 L0.0000,65.6250 L0.0000,68.7500 L0.0000,71.8750 L0.0000,75.0000 L0.0000,78.1250 L0.0000,81.2500 L0.0000,84.3750 L0.0000,87.5000 L0.0000,90.6250 L0.0000,93.7500 L0.0000,96.8750 L0.0000,100.0000 L0.0000,103.1250 L0.0000,106.2500 L0.0000,109.3750 L0.0000,112.5000 L0.0000,115.6250 L0.0000,118.7500 L0.0000,121.8750 L0.0000,125.0000 L0.0000,128.1250 L0.0000,131.2500 L0.0000,134.3750 L0.0000,137.5000 L0.0000,140.6250 L0.0000,143.7500 L0.0000,146.8750 L0.0000,150.0000 L0.0000,153.1250 L0.0000,156.2500 L0.0000,159.3750 L0.0000,162.5000 L0.0000,165.6250 L0.0000,168.7500 L0.0000,171.8750 L0.0000,175.0000 L0.0000,178.1250 L0.0000,181.2500 L0.0000,184.3750 L0.0000,187.5000 L0.0000,190.6250 L0.0000,193.7500 L0.0000,196.8750 L0.0000,200.0000 L97.5926,200.0000 Z" fill="#121212"/>
</svg>
  <rect x="960" y="320" width="320" height="320" fill="#F3F3F3"/>
  <svg x="960" y="320" width="320" height="320" viewBox="0 0 200 200" overflow="hidden"><path xmlns="http://www.w3.org/2000/svg" d="M200.0000,100.1000 L199.9804,98.0222 L199.9218,95.9609 L199.8246,93.9161 L199.6894,91.8882 L199.5165,89.8773 L199.3064,87.8836 L199.0594,85.9072 L198.7762,83.9483 L198.4570,82.0072 L198.1023,80.0840 L197.7125,78.1788 L197.2882,76.2919 L196.8297,74.4234 L196.3374,72.5735 L195.8118,70.7425 L195.2534,68.9304 L194.6625,67.1375 L194.0396,65.3639 L193.3852,63.6098 L192.6996,61.8754 L191.9833,60.1609 L191.2368,58.4665 L190.4604,56.7923 L189.6547,55.1385 L188.8200,53.5054 L187.9568,51.8930 L187.0655,50.3016 L186.1466,48.7313 L185.2005,47.1823 L184.2276,45.6549 L183.2283,44.1491 L182.2032,42.6652 L181.1526,41.2033 L180.0769,39.7637 L178.9767,38.3465 L177.8523,36.9518 L176.7042,35.5799 L175.5328,34.2310 L174.3386,32.9052 L173.1219,31.6027 L171.8833,30.3237 L170.6231,29.0684 L169.3418,27.8369 L168.0398,26.6295 L166.7176,25.4462 L165.3756,24.2874 L164.0142,23.1531 L162.6339,22.0436 L161.2351,20.9590 L159.8183,19.8995 L158.3838,18.8653 L156.9322,17.8566 L155.4637,16.8735 L153.9790,15.9163 L152.4784,14.9851 L150.9623,14.0801 L149.4313,13.2014 L147.8856,12.3494 L146.3259,11.5240 L144.7524,10.7256 L143.1656,9.9543 L141.5661,9.2102 L139.9541,8.4936 L138.3302,7.8047 L136.6947,7.1435 L135.0482,6.5104 L133.3910,5.9055 L131.7236,5.3289 L130.0464,4.7808 L128.3599,4.2615 L126.6644,3.7711 L124.9605,3.3098 L123.2486,2.8777 L121.5290,2.4751 L119.8023,2.1021 L118.0688,1.7589 L116.3291,1.4457 L114.5835,1.1626 L112.8324,0.9099 L111.0764,0.6877 L109.3158,0.4963 L107.5511,0.3357 L105.7828,0.2062 L104.0111,0.1079 L102.2367,0.0411 L100.4599,0.0059 L98.6812,0.0024 L96.9009,0.0310 L95.1196,0.0917 L93.3377,0.1847 L91.5555,0.3102 L89.7736,0.4685 L87.9924,0.6596 L86.2123,0.8837 L84.4337,1.1411 L82.6572,1.4319 L80.8830,1.7563 L79.1117,2.1145 L77.3437,2.5066 L75.5794,2.9329 L73.8192,3.3934 L72.0637,3.8885 L70.3132,4.4183 L68.5681,4.9829 L66.8290,5.5826 L65.0962,6.2174 L63.3702,6.8877 L61.6514,7.5935 L59.9402,8.3352 L58.2371,9.1127 L56.5426,9.9264 L54.8569,10.7764 L53.1807,11.6628 L51.5143,12.5859 L49.8582,13.5459 L48.2127,14.5429 L46.5784,15.5771 L44.9557,16.6487 L43.3449,17.7578 L41.7466,18.9047 L40.1612,20.0895 L38.5891,21.3124 L37.0307,22.5736 L35.4865,23.8733 L33.9570,25.2116 L32.4424,26.5888 L30.9434,28.0050 L29.4603,29.4603 L29.4603,29.4603 L28.0050,30.9434 L26.5888,32.4424 L25.2116,33.9570 L23.8733,35.4865 L22.5737,37.0307 L21.3124,38.5891 L20.0895,40.1612 L18.9047,41.7466 L17.7578,43.3449 L16.6487,44.9557 L15.5771,46.5784 L14.5429,48.2127 L13.5459,49.8582 L12.5860,51.5143 L11.6629,53.1807 L10.7764,54.8569 L9.9264,56.5426 L9.1127,58.2371 L8.3352,59.9402 L7.5936,61.6514 L6.8877,63.3702 L6.2175,65.0962 L5.5826,66.8290 L4.9829,68.5681 L4.4183,70.3132 L3.8886,72.0637 L3.3935,73.8192 L2.9329,75.5794 L2.5066,77.3437 L2.1145,79.1117 L1.7563,80.8830 L1.4319,82.6572 L1.1411,84.4337 L0.8838,86.2123 L0.6596,87.9924 L0.4685,89.7736 L0.3103,91.5555 L0.1847,93.3377 L0.0917,95.1196 L0.0310,96.9009 L0.0025,98.6812 L0.0059,100.4599 L0.0411,102.2367 L0.1080,104.0111 L0.2062,105.7828 L0.3357,107.5511 L0.4963,109.3158 L0.6878,111.0764 L0.9099,112.8324 L1.1626,114.5835 L1.4457,116.3291 L1.7589,118.0688 L2.1021,119.8023 L2.4751,121.5290 L2.8777,123.2486 L3.3098,124.9605 L3.7711,126.6644 L4.2616,128.3599 L4.7809,130.0464 L5.3289,131.7236 L5.9055,133.3910 L6.5105,135.0482 L7.1436,136.6947 L7.8047,138.3302 L8.4937,139.9541 L9.2102,141.5661 L9.9543,143.1656 L10.7256,144.7524 L11.5240,146.3259 L12.3494,147.8856 L13.2015,149.4313 L14.0801,150.9623 L14.9851,152.4784 L15.9163,153.9790 L16.8735,155.4637 L17.8566,156.9322 L18.8653,158.3838 L19.8995,159.8183 L20.9590,161.2351 L22.0436,162.6339 L23.1531,164.0142 L24.2874,165.3756 L25.4462,166.7176 L26.6295,168.0398 L27.8369,169.3418 L29.0684,170.6231 L30.3237,171.8833 L31.6027,173.1219 L32.9052,174.3386 L34.2310,175.5328 L35.5800,176.7042 L36.9518,177.8523 L38.3465,178.9767 L39.7637,180.0769 L41.2033,181.1526 L42.6652,182.2032 L44.1491,183.2283 L45.6549,184.2276 L47.1823,185.2005 L48.7313,186.1466 L50.3016,187.0655 L51.8930,187.9568 L53.5054,188.8200 L55.1385,189.6547 L56.7923,190.4604 L58.4665,191.2368 L60.1609,191.9833 L61.8754,192.6996 L63.6098,193.3852 L65.3639,194.0396 L67.1375,194.6625 L68.9304,195.2534 L70.7425,195.8118 L72.5735,196.3374 L74.4234,196.8297 L76.2919,197.2882 L78.1788,197.7125 L80.0840,198.1023 L82.0072,198.4570 L83.9483,198.7762 L85.9072,199.0594 L87.8836,199.3064 L89.8773,199.5165 L91.8882,199.6894 L93.9161,199.8246 L95.9609,199.9218 L98.0222,199.9804 L100.1000,200.0000 L100.8805,200.0000 L101.6609,200.0000 L102.4414,200.0000 L103.2219,200.0000 L104.0023,200.0000 L104.7828,200.0000 L105.5633,200.0000 L106.3438,200.0000 L107.1242,200.0000 L107.9047,200.0000 L108.6852,200.0000 L109.4656,200.0000 L110.2461,200.0000 L111.0266,200.0000 L111.8070,200.0000 L112.5875,200.0000 L113.3680,200.0000 L114.1484,200.0000 L114.9289,200.0000 L115.7094,200.0000 L116.4898,200.0000 L117.2703,200.0000 L118.0508,200.0000 L118.8312,200.0000 L119.6117,200.0000 L120.3922,200.0000 L121.1727,200.0000 L121.9531,200.0000 L122.7336,200.0000 L123.5141,200.0000 L124.2945,200.0000 L125.0750,200.0000 L125.8555,200.0000 L126.6359,200.0000 L127.4164,200.0000 L128.1969,200.0000 L128.9773,200.0000 L129.7578,200.0000 L130.5383,200.0000 L131.3187,200.0000 L132.0992,200.0000 L132.8797,200.0000 L133.6602,200.0000 L134.4406,200.0000 L135.2211,200.0000 L136.0016,200.0000 L136.7820,200.0000 L137.5625,200.0000 L138.3430,200.0000 L139.1234,200.0000 L139.9039,200.0000 L140.6844,200.0000 L141.4648,200.0000 L142.2453,200.0000 L143.0258,200.0000 L143.8063,200.0000 L144.5867,200.0000 L145.3672,200.0000 L146.1477,200.0000 L146.9281,200.0000 L147.7086,200.0000 L148.4891,200.0000 L149.2695,200.0000 L150.0500,200.0000 L150.8305,200.0000 L151.6109,200.0000 L152.3914,200.0000 L153.1719,200.0000 L153.9523,200.0000 L154.7328,200.0000 L155.5133,200.0000 L156.2937,200.0000 L157.0742,200.0000 L157.8547,200.0000 L158.6352,200.0000 L159.4156,200.0000 L160.1961,200.0000 L160.9766,200.0000 L161.7570,200.0000 L162.5375,200.0000 L163.3180,200.0000 L164.0984,200.0000 L164.8789,200.0000 L165.6594,200.0000 L166.4398,200.0000 L167.2203,200.0000 L168.0008,200.0000 L168.7812,200.0000 L169.5617,200.0000 L170.3422,200.0000 L171.1227,200.0000 L171.9031,200.0000 L172.6836,200.0000 L173.4641,200.0000 L174.2445,200.0000 L175.0250,200.0000 L175.8055,200.0000 L176.5859,200.0000 L177.3664,200.0000 L178.1469,200.0000 L178.9273,200.0000 L179.7078,200.0000 L180.4883,200.0000 L181.2688,200.0000 L182.0492,200.0000 L182.8297,200.0000 L183.6102,200.0000 L184.3906,200.0000 L185.1711,200.0000 L185.9516,200.0000 L186.7320,200.0000 L187.5125,200.0000 L188.2930,200.0000 L189.0734,200.0000 L189.8539,200.0000 L190.6344,200.0000 L191.4148,200.0000 L192.1953,200.0000 L192.9758,200.0000 L193.7562,200.0000 L194.5367,200.0000 L195.3172,200.0000 L196.0977,200.0000 L196.8781,200.0000 L197.6586,200.0000 L198.4391,200.0000 L199.2195,200.0000 L200.0000,200.0000 L200.0000,199.2195 L200.0000,198.4391 L200.0000,197.6586 L200.0000,196.8781 L200.0000,196.0977 L200.0000,195.3172 L200.0000,194.5367 L200.0000,193.7562 L200.0000,192.9758 L200.0000,192.1953 L200.0000,191.4148 L200.0000,190.6344 L200.0000,189.8539 L200.0000,189.0734 L200.0000,188.2930 L200.0000,187.5125 L200.0000,186.7320 L200.0000,185.9516 L200.0000,185.1711 L200.0000,184.3906 L200.0000,183.6102 L200.0000,182.8297 L200.0000,182.0492 L200.0000,181.2688 L200.0000,180.4883 L200.0000,179.7078 L200.0000,178.9273 L200.0000,178.1469 L200.0000,177.3664 L200.0000,176.5859 L200.0000,175.8055 L200.0000,175.0250 L200.0000,174.2445 L200.0000,173.4641 L200.0000,172.6836 L200.0000,171.9031 L200.0000,171.1227 L200.0000,170.3422 L200.0000,169.5617 L200.0000,168.7812 L200.0000,168.0008 L200.0000,167.2203 L200.0000,166.4398 L200.0000,165.6594 L200.0000,164.8789 L200.0000,164.0984 L200.0000,163.3180 L200.0000,162.5375 L200.0000,161.7570 L200.0000,160.9766 L200.0000,160.1961 L200.0000,159.4156 L200.0000,158.6352 L200.0000,157.8547 L200.0000,157.0742 L200.0000,156.2937 L200.0000,155.5133 L200.0000,154.7328 L200.0000,153.9523 L200.0000,153.1719 L200.0000,152.3914 L200.0000,151.6109 L200.0000,150.8305 L200.0000,150.0500 L200.0000,149.2695 L200.0000,148.4891 L200.0000,147.7086 L200.0000,146.9281 L200.0000,146.1477 L200.0000,145.3672 L200.0000,144.5867 L200.0000,143.8063 L200.0000,143.0258 L200.0000,142.2453 L200.0000,141.4648 L200.0000,140.6844 L200.0000,139.9039 L200.0000,139.1234 L200.0000,138.3430 L200.0000,137.5625 L200.0000,136.7820 L200.0000,136.0016 L200.0000,135.2211 L200.0000,134.4406 L200.0000,133.6602 L200.0000,132.8797 L200.0000,132.0992 L200.0000,131.3187 L200.0000,130.5383 L200.0000,129.7578 L200.0000,128.9773 L200.0000,128.1969 L200.0000,127.4164 L200.0000,126.6359 L200.0000,125.8555 L200.0000,125.0750 L200.0000,124.2945 L200.0000,123.5141 L200.0000,122.7336 L200.0000,121.9531 L200.0000,121.1727 L200.0000,120.3922 L200.0000,119.6117 L200.0000,118.8312 L200.0000,118.0508 L200.0000,117.2703 L200.0000,116.4898 L200.0000,115.7094 L200.0000,114.9289 L200.0000,114.1484 L200.0000,113.3680 L200.0000,112.5875 L200.0000,111.8070 L200.0000,111.0266 L200.0000,110.2461 L200.0000,109.4656 L200.0000,108.6852 L200.0000,107.9047 L200.0000,107.1242 L200.0000,106.3438 L200.0000,105.5633 L200.0000,104.7828 L200.0000,104.0023 L200.0000,103.2219 L200.0000,102.4414 L200.0000,101.6609 L200.0000,100.8805 L200.0000,100.1000 Z" fill="#121212" transform="rotate(270,100,100)"/>
</svg>
  <rect x="1280" y="320" width="320" height="320" fill="#F3F3F3"/>
  <svg x="1280" y="320" width="320" height="320" viewBox="0 0 200 200" overflow="hidden"><path xmlns="http://www.w3.org/2000/svg" d="M200 25L200 175L8.74228e-06 175L4.15258e-05 25L200 25Z" fill="#121212"/>
</svg>
  <rect x="1600" y="320" width="320" height="320" fill="#F3F3F3"/>
  <svg x="1600" y="320" width="320" height="320" viewBox="0 0 200 200" overflow="hidden"><path xmlns="http://www.w3.org/2000/svg" d="M190 1.8399e-05L190 190L8.74228e-06 190L4.61155e-05 -6.51651e-06L190 1.8399e-05Z" fill="#121212" transform="rotate(180,100,100)"/>
</svg>
  <rect x="0" y="640" width="320" height="320" fill="#F3F3F3"/>
  <svg x="0" y="640" width="320" height="320" viewBox="0 0 200 200" overflow="hidden"><path xmlns="http://www.w3.org/2000/svg" d="M200 1.67962e-05L200 1.67962e-05C200 82.8427 132.843 150 50 150L8.74228e-06 150L4.41485e-05 -6.51651e-06L200 1.67962e-05Z" fill="#121212" transform="rotate(270,100,100)"/>
</svg>
  <rect x="320" y="640" width="320" height="320" fill="#FF4F00"/>
  <svg x="320" y="640" width="320" height="320" viewBox="0 0 200 200" overflow="hidden"><path xmlns="http://www.w3.org/2000/svg" d="M128.1730,143.4165 L127.7647,142.3380 L127.3432,141.2687 L126.9087,140.2085 L126.4613,139.1575 L126.0012,138.1157 L125.5283,137.0833 L125.0430,136.0602 L124.5452,135.0465 L124.0352,134.0423 L123.5131,133.0477 L122.9790,132.0626 L122.4330,131.0871 L121.8752,130.1214 L121.3059,129.1653 L120.7250,128.2191 L120.1329,127.2827 L119.5294,126.3562 L118.9149,125.4397 L118.2894,124.5331 L117.6531,123.6367 L117.0061,122.7503 L116.3485,121.8741 L115.6804,121.0081 L115.0021,120.1524 L114.3135,119.3071 L113.6149,118.4721 L112.9063,117.6475 L112.1880,116.8335 L111.4599,116.0299 L110.7224,115.2370 L109.9754,114.4548 L109.2191,113.6832 L108.4537,112.9224 L107.6792,112.1724 L106.8959,111.4332 L106.1037,110.7050 L105.3030,109.9878 L104.4937,109.2815 L103.6761,108.5864 L102.8502,107.9024 L102.0162,107.2296 L101.1742,106.5680 L100.3243,105.9177 L99.4667,105.2787 L98.6015,104.6512 L97.7288,104.0351 L96.8488,103.4305 L95.9615,102.8375 L95.0672,102.2561 L94.1659,101.6864 L93.2578,101.1284 L92.3430,100.5821 L91.4216,100.0477 L90.4938,99.5252 L89.5597,99.0146 L88.6194,98.5160 L87.6730,98.0294 L86.7207,97.5550 L85.7626,97.0927 L84.7989,96.6426 L83.8296,96.2047 L82.8550,95.7792 L81.8750,95.3660 L80.8899,94.9652 L79.8998,94.5770 L78.9048,94.2012 L77.9050,93.8380 L76.9006,93.4875 L75.8917,93.1497 L74.8785,92.8245 L73.8610,92.5122 L72.8394,92.2128 L71.8138,91.9262 L70.7843,91.6526 L69.7512,91.3920 L68.7144,91.1444 L67.6742,90.9100 L66.6306,90.6888 L65.5839,90.4807 L64.5340,90.2860 L63.4812,90.1045 L62.4256,89.9365 L61.3673,89.7819 L60.3065,89.6408 L59.2432,89.5132 L58.1776,89.3992 L57.1098,89.2989 L56.0400,89.2123 L54.9683,89.1394 L53.8948,89.0804 L52.8197,89.0352 L51.7430,89.0040 L50.6649,88.9867 L49.5856,88.9834 L48.5051,88.9943 L47.4236,89.0192 L46.3413,89.0584 L45.2582,89.1117 L44.1745,89.1794 L43.0903,89.2615 L42.0057,89.3579 L40.9209,89.4688 L39.8360,89.5942 L38.7511,89.7341 L37.6664,89.8887 L36.5819,90.0580 L35.4979,90.2419 L34.4144,90.4407 L33.3316,90.6543 L32.2496,90.8828 L31.1686,91.1262 L30.0886,91.3846 L29.0098,91.6580 L27.9323,91.9465 L26.8562,92.2502 L25.7818,92.5691 L24.7090,92.9033 L23.6381,93.2528 L22.5692,93.6176 L21.5023,93.9979 L20.4377,94.3936 L19.3755,94.8049 L18.3157,95.2317 L17.2585,95.6742 L16.2041,96.1324 L15.1525,96.6063 L14.1040,97.0960 L14.1040,97.0960 L12.4411,97.8665 L10.7774,98.5978 L9.1133,99.2903 L7.4489,99.9443 L5.7847,100.5602 L4.1210,101.1382 L2.4580,101.6787 L0.7961,102.1819 L0.0000,102.4055 L0.0000,200.0000 L3.1250,200.0000 L6.2500,200.0000 L9.3750,200.0000 L12.5000,200.0000 L15.6250,200.0000 L18.7500,200.0000 L21.8750,200.0000 L25.0000,200.0000 L28.1250,200.0000 L31.2500,200.0000 L34.3750,200.0000 L37.5000,200.0000 L40.6250,200.0000 L43.7500,200.0000 L46.8750,200.0000 L50.0000,200.0000 L53.1250,200.0000 L56.2500,200.0000 L59.3750,200.0000 L62.5000,200.0000 L65.6250,200.0000 L68.7500,200.0000 L71.8750,200.0000 L75.0000,200.0000 L78.1250,200.0000 L81.2500,200.0000 L84.3750,200.0000 L87.5000,200.0000 L90.6250,200.0000 L93.7500,200.0000 L96.8750,200.0000 L100.0000,200.0000 L103.1250,200.0000 L106.2500,200.0000 L109.3750,200.0000 L112.5000,200.0000 L115.6250,200.0000 L118.7500,200.0000 L121.8750,200.0000 L125.0000,200.0000 L128.1250,200.0000 L131.2500,200.0000 L134.3750,200.0000 L137.5000,200.0000 L140.6250,200.0000 L143.7500,200.0000 L146.8750,200.0000 L150.0000,200.0000 L153.1250,200.0000 L156.2500,200.0000 L159.3750,200.0000 L162.5000,200.0000 L165.6250,200.0000 L168.7500,200.0000 L171.8750,200.0000 L175.0000,200.0000 L178.1250,200.0000 L181.2500,200.0000 L184.3750,200.0000 L187.5000,200.0000 L190.6250,200.0000 L193.7500,200.0000 L196.8750,200.0000 L200.0000,200.0000 L200.0000,199.9976 L200.0000,199.9951 L200.0000,199.9927 L200.0000,199.9903 L200.0000,199.9878 L200.0000,199.9854 L200.0000,199.9829 L200.0000,199.9805 L200.0000,199.9781 L200.0000,199.9756 L200.0000,199.9732 L200.0000,199.9708 L200.0000,199.9683 L200.0000,199.9659 L200.0000,199.9634 L200.0000,199.9610 L200.0000,199.9586 L200.0000,199.9561 L200.0000,199.9537 L200.0000,199.9512 L200.0000,199.9488 L200.0000,199.9464 L200.0000,199.9439 L200.0000,199.9415 L200.0000,199.9391 L200.0000,199.9366 L200.0000,199.9342 L200.0000,199.9317 L200.0000,199.9293 L200.0000,199.9269 L200.0000,199.9244 L200.0000,199.9220 L200.0000,199.9196 L200.0000,199.9171 L200.0000,199.9147 L200.0000,199.9123 L200.0000,199.9098 L200.0000,199.9074 L200.0000,199.9049 L200.0000,199.9025 L200.0000,199.9001 L200.0000,199.8976 L200.0000,199.8952 L200.0000,199.8928 L200.0000,199.8903 L200.0000,199.8879 L200.0000,199.8854 L200.0000,199.8830 L200.0000,199.8806 L200.0000,199.8781 L200.0000,199.8757 L200.0000,199.8732 L200.0000,199.8708 L200.0000,199.8684 L200.0000,199.8659 L200.0000,199.8635 L200.0000,199.8611 L200.0000,199.8586 L200.0000,199.8562 L200.0000,199.8537 L200.0000,199.8513 L200.0000,199.8489 L200.0000,199.8464 L200.0000,199.8440 L200.0000,199.8416 L200.0000,199.8391 L200.0000,199.8367 L200.0000,199.8342 L200.0000,199.8318 L200.0000,199.8294 L200.0000,199.8269 L200.0000,199.8245 L200.0000,199.8221 L200.0000,199.8196 L200.0000,199.8172 L200.0000,199.8148 L200.0000,199.8123 L200.0000,199.8099 L200.0000,199.8074 L200.0000,199.8050 L200.0000,199.8026 L200.0000,199.8001 L200.0000,199.7977 L200.0000,199.7952 L200.0000,199.7928 L200.0000,199.7904 L200.0000,199.7879 L200.0000,199.7855 L200.0000,199.7831 L200.0000,199.7806 L200.0000,199.7782 L200.0000,199.7757 L200.0000,199.7733 L200.0000,199.7709 L200.0000,199.7684 L200.0000,199.7660 L200.0000,199.7636 L200.0000,199.7611 L200.0000,199.7587 L200.0000,199.7562 L200.0000,199.7538 L200.0000,199.7514 L200.0000,199.7489 L200.0000,199.7465 L200.0000,199.7441 L200.0000,199.7416 L200.0000,199.7392 L200.0000,199.7368 L200.0000,199.7343 L200.0000,199.7319 L200.0000,199.7294 L200.0000,199.7270 L200.0000,199.7246 L200.0000,199.7221 L200.0000,199.7197 L200.0000,199.7172 L200.0000,199.7148 L200.0000,199.7124 L200.0000,199.7099 L200.0000,199.7075 L200.0000,199.7051 L200.0000,199.7026 L200.0000,199.7002 L200.0000,199.6977 L200.0000,199.6953 L200.0000,199.6929 L200.0000,199.6904 L200.0000,199.6880 L199.2915,199.6260 L198.5835,199.5583 L197.8760,199.4847 L197.1691,199.4053 L196.4629,199.3201 L195.7573,199.2290 L195.0524,199.1322 L194.3483,199.0296 L193.6451,198.9211 L192.9426,198.8069 L192.2411,198.6868 L191.5405,198.5609 L190.8409,198.4292 L190.1424,198.2917 L189.4449,198.1484 L188.7485,197.9993 L188.0533,197.8444 L187.3594,197.6836 L186.6666,197.5171 L185.9752,197.3447 L185.2851,197.1665 L184.5964,196.9825 L183.9092,196.7927 L183.2234,196.5971 L182.5391,196.3957 L181.8565,196.1885 L181.1754,195.9754 L180.4960,195.7566 L179.8182,195.5319 L179.1423,195.3014 L178.4681,195.0651 L177.7957,194.8230 L177.1253,194.5751 L176.4567,194.3213 L175.7902,194.0618 L175.1256,193.7964 L174.4631,193.5253 L173.8027,193.2483 L173.1444,192.9655 L172.4884,192.6769 L171.8346,192.3824 L171.1830,192.0822 L170.5338,191.7762 L169.8869,191.4643 L169.2425,191.1466 L168.6005,190.8231 L167.9610,190.4938 L167.3241,190.1587 L166.6898,189.8178 L166.0581,189.4710 L165.4290,189.1184 L164.8027,188.7601 L164.1792,188.3959 L163.5585,188.0259 L162.9406,187.6500 L162.3257,187.2684 L161.7137,186.8810 L161.1047,186.4877 L160.4987,186.0886 L159.8958,185.6837 L159.2961,185.2730 L158.6995,184.8565 L158.1061,184.4342 L157.5160,184.0060 L156.9292,183.5720 L156.3457,183.1322 L155.7657,182.6866 L155.1890,182.2352 L154.6159,181.7780 L154.0463,181.3149 L153.4802,180.8461 L152.9178,180.3714 L152.3590,179.8909 L151.8040,179.4046 L151.2527,178.9125 L150.7051,178.4145 L150.1615,177.9108 L149.6217,177.4012 L149.0858,176.8858 L148.5539,176.3646 L148.0260,175.8375 L147.5022,175.3047 L146.9825,174.7660 L146.4669,174.2215 L145.9556,173.6712 L145.4485,173.1151 L144.9456,172.5532 L144.4471,171.9854 L143.9530,171.4119 L143.4633,170.8325 L142.9780,170.2473 L142.4973,169.6563 L142.0211,169.0594 L141.5495,168.4568 L141.0825,167.8483 L140.6202,167.2340 L140.1627,166.6139 L139.7099,165.9880 L139.2620,165.3562 L138.8189,164.7186 L138.3807,164.0753 L137.9475,163.4260 L137.5193,162.7710 L137.0961,162.1102 L136.6780,161.4435 L136.2650,160.7710 L135.8572,160.0927 L135.4547,159.4086 L135.0574,158.7187 L134.6654,158.0229 L134.2787,157.3213 L133.8975,156.6139 L133.5217,155.9007 L133.1513,155.1817 L132.7866,154.4568 L132.4274,153.7261 L132.0738,152.9896 L131.7258,152.2473 L131.3836,151.4992 L131.0472,150.7452 L130.7165,149.9854 L130.3917,149.2198 L130.0728,148.4484 L129.7598,147.6712 L129.4527,146.8881 L129.1518,146.0992 L128.8568,145.3045 L128.5680,144.5040 Z" fill="#121212"/>
</svg>
  <rect x="640" y="640" width="320" height="320" fill="#F3F3F3"/>
  <svg x="640" y="640" width="320" height="320" viewBox="0 0 200 200" overflow="hidden"><path xmlns="http://www.w3.org/2000/svg" d="M20 200H40L40 0H20L20 200Z M180 200H200L200 0H180L180 200Z M80 200H60V100V0H80V55.9927C80 57.6415 81.9006 58.604 83.2937 57.7221C83.7889 57.4087 84.2899 57.1037 84.7967 56.8074C93.0078 52.0057 100 44.1641 100 34.6521V0H120V34.6521C120 44.1641 126.992 52.0057 135.203 56.8074C135.71 57.1037 136.211 57.4087 136.706 57.7221C138.099 58.604 140 57.6415 140 55.9927V0H160V100V200H140V144.007C140 142.359 138.099 141.396 136.706 142.278C136.211 142.591 135.71 142.896 135.203 143.193C126.992 147.994 120 155.836 120 165.348V200H100V165.348C100 155.836 93.0079 147.994 84.7967 143.193C84.29 142.896 83.7889 142.591 83.2937 142.278C81.9006 141.396 80 142.359 80 144.007V200Z M20.0,32.5 L35.8333,32.5 L35.8333,48.3333 L20.0,48.3333 Z" fill="#121212" fill-rule="evenodd" transform="rotate(270,100,100)"/>
</svg>
  <rect x="960" y="640" width="320" height="320" fill="#F3F3F3"/>
  <svg x="960" y="640" width="320" height="320" viewBox="0 0 200 200" overflow="hidden"><path xmlns="http://www.w3.org/2000/svg" d="M200 2.44739e-09L-6.51651e-06 2.4471e-09L0 200C110.425 200.032 199.968 110.456 200 2.44739e-09Z" fill="#121212" transform="rotate(90,100,100)"/>
</svg>
  <rect x="1280" y="640" width="320" height="320" fill="#F3F3F3"/>
  <svg x="1280" y="640" width="320" height="320" viewBox="0 0 200 200" overflow="hidden"><path xmlns="http://www.w3.org/2000/svg" d="M150 100H200C200 44.772 155.228 8.74228e-06 100 8.74228e-06C44.772 8.74228e-06 8.74228e-06 44.772 8.74228e-06 100H50C50 100 72.384 100 100 100C127.616 100 150 100 150 100Z M45 200H65V100H45V200Z M90 200H110V100H90V200Z M135 200H155V100H135V200Z M8.74228e-06 200H20V100H8.74228e-06V200Z M180 200H200V100H180V200Z" fill="#121212" transform="rotate(180,100,100)"/>
</svg>
  <rect x="1600" y="640" width="320" height="320" fill="#F3F3F3"/>
  <svg x="1600" y="640" width="320" height="320" viewBox="0 0 200 200" overflow="hidden"><path xmlns="http://www.w3.org/2000/svg" d="M200 0.0560087L0.0560085 2.44783e-09L0 200C110.425 200.032 199.968 110.512 200 0.0560087Z M45.0,65.0 A25.0,25.0 0 1,0 95.0,65.0 A25.0,25.0 0 1,0 45.0,65.0 Z M20.0,65.0 A50.0,25.0 0 1,0 120.0,65.0 A50.0,25.0 0 1,0 20.0,65.0 Z" fill="#121212" fill-rule="evenodd"/>
</svg>
</svg>
