<?xml version='1.0' encoding='UTF-8'?>
<svg xmlns="http://www.w3.org/2000/svg" version="1.1" width="1920" height="960" viewBox="0 0 1920 960">
  <svg x="0.0" y="0.0" width="320.0" height="320.0" viewBox="0 0 200 200"><ns0:g xmlns:ns0="http://www.w3.org/2000/svg" clip-path="url(#clip0_3_550)">
<ns0:rect width="200" height="200" transform="translate(200 1.52588e-05) rotate(90)" fill="#121212"/>
<ns0:path d="M200 4.9115e-05L8.74228e-06 150L2.95598e-05 2.28882e-05L200 4.9115e-05Z" fill="#D9D9D6"/>
</ns0:g>
<ns1:defs xmlns:ns1="http://www.w3.org/2000/svg">
<ns1:clipPath id="clip0_3_550">
<ns1:rect width="200" height="200" fill="#FFFFFF" transform="translate(200 1.52588e-05) rotate(90)"/>
</ns1:clipPath>
</ns1:defs>
</svg>
  <svg x="320.0" y="0.0" width="320.0" height="320.0" viewBox="0 0 200 200"><ns2:g xmlns:ns2="http://www.w3.org/2000/svg" clip-path="url(#clip0_5_6323)">
<ns2:rect width="200" height="200" transform="translate(200 8.74228e-06) rotate(90)" fill="#D9D9D6"/>
<ns2:path d="M200 200C144.772 200 8.74228e-06 200 8.74228e-06 200C8.74228e-06 144.772 44.7715 100 100 100C155.228 100 200 144.772 200 200Z" fill="#FF4F00"/>
<ns2:path d="M1.74846e-05 -8.74228e-06C55.2285 -3.91405e-06 200 8.74228e-06 200 8.74228e-06C200 55.2285 155.228 100 100 100C44.7715 100 1.26563e-05 55.2285 1.74846e-05 -8.74228e-06Z" fill="#FF4F00"/>
</ns2:g>
<ns3:defs xmlns:ns3="http://www.w3.org/2000/svg">
<ns3:clipPath id="clip0_5_6323">
<ns3:rect width="200" height="200" fill="#FFFFFF" transform="translate(200 8.74228e-06) rotate(90)"/>
</ns3:clipPath>
</ns3:defs>
</svg>
  <svg x="640.0" y="0.0" width="320.0" height="320.0" viewBox="0 0 200 200"><ns4:g xmlns:ns4="http://www.w3.org/2000/svg" clip-path="url(#clip0_75_4253)">
<ns4:rect width="200" height="200" transform="translate(200 8.74228e-06) rotate(90)" fill="#D9D9D6"/>
<ns4:path d="M200 3.49691e-05L158.802 14.981C131.366 24.9578 105.224 38.1843 80.9328 54.3781C56.3423 70.7718 30.613 85.3893 3.9409 98.1191L8.74228e-06 100L2.73743e-05 8.74228e-06L200 3.49691e-05Z" fill="#121212"/>
</ns4:g>
<ns5:defs xmlns:ns5="http://www.w3.org/2000/svg">
<ns5:clipPath id="clip0_75_4253">
<ns5:rect width="200" height="200" fill="#FFFFFF" transform="translate(200 8.74228e-06) rotate(90)"/>
</ns5:clipPath>
</ns5:defs>
</svg>
  <svg x="960.0" y="0.0" width="320.0" height="320.0" viewBox="0 0 200 200"><ns6:g xmlns:ns6="http://www.w3.org/2000/svg" clip-path="url(#clip0_3_608)">
<ns6:rect width="200" height="200" transform="translate(200 8.74228e-06) rotate(90)" fill="#F3F3F3"/>
<ns6:path d="M200 2.73397e-05L200 100L8.74228e-06 200L3.49691e-05 1.11288e-06L200 2.73397e-05Z" fill="#FF4F00"/>
</ns6:g>
<ns7:defs xmlns:ns7="http://www.w3.org/2000/svg">
<ns7:clipPath id="clip0_3_608">
<ns7:rect width="200" height="200" fill="#FFFFFF" transform="translate(200 8.74228e-06) rotate(90)"/>
</ns7:clipPath>
</ns7:defs>
</svg>
  <svg x="1280.0" y="0.0" width="320.0" height="320.0" viewBox="0 0 200 200"><ns8:g xmlns:ns8="http://www.w3.org/2000/svg" clip-path="url(#clip0_35_1228)">
<ns8:rect width="200" height="200" transform="translate(200 8.74228e-06) rotate(90)" fill="#FF4F00"/>
<ns8:path d="M200 25L200 175L8.74228e-06 175L4.15258e-05 25L200 25Z" fill="#4997D0"/>
</ns8:g>
<ns9:defs xmlns:ns9="http://www.w3.org/2000/svg">
<ns9:clipPath id="clip0_35_1228">
<ns9:rect width="200" height="200" fill="#FFFFFF" transform="translate(200 8.74228e-06) rotate(90)"/>
</ns9:clipPath>
</ns9:defs>
</svg>
  <svg x="1600.0" y="0.0" width="320.0" height="320.0" viewBox="0 0 200 200"><ns10:rect xmlns:ns10="http://www.w3.org/2000/svg" width="200" height="200" fill="#FFFFFF"/>
<ns11:path xmlns:ns11="http://www.w3.org/2000/svg" fill-rule="evenodd" clip-rule="evenodd" d="M100 171.231C139.34 171.231 171.231 139.34 171.231 100C171.231 60.6601 139.34 28.7688 100 28.7688C60.6601 28.7688 28.7688 60.6601 28.7688 100C28.7688 139.34 60.6601 171.231 100 171.231ZM100 175C141.421 175 175 141.421 175 100C175 58.5786 141.421 25 100 25C58.5786 25 25 58.5786 25 100C25 141.421 58.5786 175 100 175Z" fill="#121212"/>
</svg>
  <svg x="0.0" y="320.0" width="320.0" height="320.0" viewBox="0 0 200 200"><ns12:g xmlns:ns12="http://www.w3.org/2000/svg" clip-path="url(#clip0_20_1216)">
<ns12:rect width="200" height="200" transform="translate(200 8.74228e-06) rotate(90)" fill="#FFFFFF"/>
<ns12:path fill-rule="evenodd" clip-rule="evenodd" d="M100 186.25L150 186.203L150 199.953L200 200L200 1.6969e-05L150 1.6969e-05C149.973 92.0467 150 136.25 100 186.25Z" fill="#121212"/>
</ns12:g>
<ns13:defs xmlns:ns13="http://www.w3.org/2000/svg">
<ns13:clipPath id="clip0_20_1216">
<ns13:rect width="200" height="200" fill="#FFFFFF" transform="translate(200 8.74228e-06) rotate(90)"/>
</ns13:clipPath>
</ns13:defs>
</svg>
  <svg x="320.0" y="320.0" width="320.0" height="320.0" viewBox="0 0 200 200"><ns14:g xmlns:ns14="http://www.w3.org/2000/svg" clip-path="url(#clip0_2403_2993)">
<ns14:rect width="200" height="200" transform="translate(200 8.74228e-06) rotate(90)" fill="#FFFFFF"/>
<ns14:path fill-rule="evenodd" clip-rule="evenodd" d="M100 100L200 2.62268e-05L3.92599e-05 0L1.52588e-05 200L200 200L100 100Z" fill="#4997D0"/>
</ns14:g>
<ns15:defs xmlns:ns15="http://www.w3.org/2000/svg">
<ns15:clipPath id="clip0_2403_2993">
<ns15:rect width="200" height="200" fill="#FFFFFF" transform="translate(200 8.74228e-06) rotate(90)"/>
</ns15:clipPath>
</ns15:defs>
</svg>
  <svg x="640.0" y="320.0" width="320.0" height="320.0" viewBox="0 0 200 200"><ns16:g xmlns:ns16="http://www.w3.org/2000/svg" clip-path="url(#clip0_20_1334)">
<ns16:rect width="200" height="200" transform="translate(200 8.74228e-06) rotate(90)" fill="#4997D0"/>
<ns16:path d="M100 8.74228e-06H8.74228e-06V100C8.74228e-06 44.772 44.772 8.74228e-06 100 8.74228e-06Z" fill="#D9D9D6"/>
<ns16:path d="M50.0001 150C50.0001 122.387 27.6192 100 0.000126998 100C0.000126998 100 0.000126019 122.387 0.000124812 150C0.000128023 163.81 0.000126441 200 0.000126441 200C27.6192 200 50.0001 177.613 50.0001 150Z" fill="#D9D9D6"/>
</ns16:g>
<ns17:defs xmlns:ns17="http://www.w3.org/2000/svg">
<ns17:clipPath id="clip0_20_1334">
<ns17:rect width="200" height="200" fill="#FFFFFF" transform="translate(200 8.74228e-06) rotate(90)"/>
</ns17:clipPath>
</ns17:defs>
</svg>
  <svg x="960.0" y="320.0" width="320.0" height="320.0" viewBox="0 0 200 200"><ns18:rect xmlns:ns18="http://www.w3.org/2000/svg" width="200" height="200" transform="translate(200 8.74228e-06) rotate(90)" fill="#D9D9D6"/>
<ns19:path xmlns:ns19="http://www.w3.org/2000/svg" d="M100 4.37236e-06L0.0280239 4.37236e-06L1.96299e-05 100C55.2126 100.016 99.984 55.228 100 4.37236e-06Z" fill="#121212"/>
</svg>
  <svg x="1280.0" y="320.0" width="320.0" height="320.0" viewBox="0 0 200 200"><ns20:rect xmlns:ns20="http://www.w3.org/2000/svg" width="200" height="200" fill="#4997D0"/>
<ns21:path xmlns:ns21="http://www.w3.org/2000/svg" fill-rule="evenodd" clip-rule="evenodd" d="M25 200L25 4.37114e-07L35 0L35 200L25 200Z" fill="#D9D9D6"/>
<ns22:path xmlns:ns22="http://www.w3.org/2000/svg" fill-rule="evenodd" clip-rule="evenodd" d="M65 200L65 4.37114e-07L75 0L75 200L65 200Z" fill="#D9D9D6"/>
<ns23:path xmlns:ns23="http://www.w3.org/2000/svg" fill-rule="evenodd" clip-rule="evenodd" d="M105 200L105 4.37114e-07L115 0L115 200L105 200Z" fill="#D9D9D6"/>
<ns24:path xmlns:ns24="http://www.w3.org/2000/svg" fill-rule="evenodd" clip-rule="evenodd" d="M145 200L145 4.37114e-07L155 0L155 200L145 200Z" fill="#D9D9D6"/>
<ns25:path xmlns:ns25="http://www.w3.org/2000/svg" fill-rule="evenodd" clip-rule="evenodd" d="M185 200L185 4.37114e-07L195 0L195 200L185 200Z" fill="#D9D9D6"/>
</svg>
  <svg x="1600.0" y="320.0" width="320.0" height="320.0" viewBox="0 0 200 200"><ns26:g xmlns:ns26="http://www.w3.org/2000/svg" clip-path="url(#clip0_20_1394)">
<ns26:rect width="200" height="200" transform="translate(200 8.74228e-06) rotate(90)" fill="#FFFFFF"/>
<ns26:path d="M200 9.16683e-06L200 10L8.74228e-06 10L2.33419e-05 -1.41459e-05L200 9.16683e-06Z" fill="#4997D0"/>
</ns26:g>
<ns27:defs xmlns:ns27="http://www.w3.org/2000/svg">
<ns27:clipPath id="clip0_20_1394">
<ns27:rect width="200" height="200" fill="#FFFFFF" transform="translate(200 8.74228e-06) rotate(90)"/>
</ns27:clipPath>
</ns27:defs>
</svg>
  <svg x="0.0" y="640.0" width="320.0" height="320.0" viewBox="0 0 200 200"><ns28:rect xmlns:ns28="http://www.w3.org/2000/svg" width="200" height="200" transform="translate(200 1.52588e-05) rotate(90)" fill="#121212"/>
<ns29:path xmlns:ns29="http://www.w3.org/2000/svg" d="M150 4.25583e-05L150 150L8.74228e-06 150L3.82475e-05 2.28882e-05L150 4.25583e-05Z" fill="#D9D9D6"/>
</svg>
  <svg x="320.0" y="640.0" width="320.0" height="320.0" viewBox="0 0 200 200"><ns30:g xmlns:ns30="http://www.w3.org/2000/svg" clip-path="url(#clip0_4_5443)">
<ns30:rect width="200" height="200" transform="translate(200 8.74228e-06) rotate(90)" fill="#FFFFFF"/>
<ns30:path d="M200 1.97103e-05L200 50L8.74228e-06 100L3.49691e-05 -6.51651e-06L200 1.97103e-05Z" fill="#FF4F00"/>
<ns30:path d="M200 1.97103e-05L200 50L8.74228e-06 100L3.49691e-05 -6.51651e-06L200 1.97103e-05Z" fill="#FF4F00"/>
<ns30:path d="M-2.18558e-06 200L200 150L200 200L-2.18558e-06 200Z" fill="#FF4F00"/>
</ns30:g>
<ns31:defs xmlns:ns31="http://www.w3.org/2000/svg">
<ns31:clipPath id="clip0_4_5443">
<ns31:rect width="200" height="200" fill="#FFFFFF" transform="translate(200 8.74228e-06) rotate(90)"/>
</ns31:clipPath>
</ns31:defs>
</svg>
  <svg x="640.0" y="640.0" width="320.0" height="320.0" viewBox="0 0 200 200"><ns32:g xmlns:ns32="http://www.w3.org/2000/svg" clip-path="url(#clip0_85_4348)">
<ns32:rect width="200" height="200" transform="translate(200 8.74228e-06) rotate(90)" fill="#FF4F00"/>
<ns32:circle cx="150" cy="100" r="50" fill="#121212"/>
<ns32:circle cx="150" cy="1.11288e-06" r="50" fill="#121212"/>
<ns32:circle cx="150" cy="200" r="50" fill="#121212"/>
<ns32:rect x="150" y="-10" width="50" height="220" fill="#121212"/>
</ns32:g>
<ns33:defs xmlns:ns33="http://www.w3.org/2000/svg">
<ns33:clipPath id="clip0_85_4348">
<ns33:rect width="200" height="200" fill="#FFFFFF" transform="translate(200 8.74228e-06) rotate(90)"/>
</ns33:clipPath>
</ns33:defs>
</svg>
  <svg x="960.0" y="640.0" width="320.0" height="320.0" viewBox="0 0 200 200"><ns34:g xmlns:ns34="http://www.w3.org/2000/svg" clip-path="url(#clip0_76_2088)">
<ns34:rect width="200" height="200" transform="translate(200 8.74228e-06) rotate(90)" fill="#121212"/>
<ns34:path fill-rule="evenodd" clip-rule="evenodd" d="M180 8.74228e-06L200 8.74228e-06L200 200L169.424 200L33.0827 200L1.52588e-05 200C1.60555e-05 181.775 14.8116 167 33.0827 167C23.6704 167 16.0401 159.613 16.0401 150.5C16.0401 141.387 23.6703 134 33.0827 134C51.9803 134 67.7871 140.458 82.6637 146.536C110.204 157.787 145.132 168.736 180 134C180 134 180 118.225 180 99.9999C180 81.7745 180 66.9999 180 66.9999C180 66.9999 180 31.5015 180 13L180 8.74228e-06Z" fill="#FF4F00"/>
<ns34:circle cx="180" cy="120" r="40" fill="#FF4F00"/>
<ns34:circle cx="180" cy="40" r="40" fill="#FF4F00"/>
</ns34:g>
<ns35:defs xmlns:ns35="http://www.w3.org/2000/svg">
<ns35:clipPath id="clip0_76_2088">
<ns35:rect width="200" height="200" fill="#FFFFFF" transform="translate(200 8.74228e-06) rotate(90)"/>
</ns35:clipPath>
</ns35:defs>
</svg>
  <svg x="1280.0" y="640.0" width="320.0" height="320.0" viewBox="0 0 200 200"><ns36:g xmlns:ns36="http://www.w3.org/2000/svg" clip-path="url(#clip0_3_606)">
<ns36:rect width="200" height="200" transform="translate(200 8.74228e-06) rotate(90)" fill="#FF4F00"/>
<ns36:path d="M200 5.02279e-05L200 100L2.82157e-05 150L2.84124e-05 2.40011e-05L200 5.02279e-05Z" fill="#121212"/>
</ns36:g>
<ns37:defs xmlns:ns37="http://www.w3.org/2000/svg">
<ns37:clipPath id="clip0_3_606">
<ns37:rect width="200" height="200" fill="#FFFFFF" transform="translate(200 8.74228e-06) rotate(90)"/>
</ns37:clipPath>
</ns37:defs>
</svg>
  <svg x="1600.0" y="640.0" width="320.0" height="320.0" viewBox="0 0 200 200"><ns38:g xmlns:ns38="http://www.w3.org/2000/svg" clip-path="url(#clip0_35_1276)">
<ns38:rect width="200" height="200" transform="translate(200 8.74228e-06) rotate(90)" fill="#FFFFFF"/>
<ns38:path d="M200 9.16683e-06L170.711 29.2893C125.435 74.5646 64.0289 100 8.74228e-06 100Lnan nanL8.74228e-06 100L3.67176e-05 -1.41459e-05L100 -2.48954e-06L200 9.16683e-06Z" fill="#FF4F00"/>
</ns38:g>
<ns39:defs xmlns:ns39="http://www.w3.org/2000/svg">
<ns39:clipPath id="clip0_35_1276">
<ns39:rect width="200" height="200" fill="#FFFFFF" transform="translate(200 8.74228e-06) rotate(90)"/>
</ns39:clipPath>
</ns39:defs>
</svg>
</svg>
