<?xml version='1.0' encoding='UTF-8'?>
<svg xmlns="http://www.w3.org/2000/svg" version="1.1" width="1920" height="960" viewBox="0 0 1920 960">
  <svg x="0.0" y="0.0" width="320.0" height="320.0" viewBox="0 0 200 200"><ns0:g xmlns:ns0="http://www.w3.org/2000/svg" clip-path="url(#clip0_3_624)">
<ns0:rect width="200" height="200" transform="translate(200 8.74228e-06) rotate(90)" fill="#121212"/>
<ns0:path d="M200 1.67962e-05L200 150L8.74228e-06 150L4.41485e-05 -6.51651e-06L200 1.67962e-05Z" fill="#F3F3F3"/>
</ns0:g>
<ns1:defs xmlns:ns1="http://www.w3.org/2000/svg">
<ns1:clipPath id="clip0_3_624">
<ns1:rect width="200" height="200" fill="#FFFFFF" transform="translate(200 8.74228e-06) rotate(90)"/>
</ns1:clipPath>
</ns1:defs>
</svg>
  <svg x="320.0" y="0.0" width="320.0" height="320.0" viewBox="0 0 200 200"><ns2:rect xmlns:ns2="http://www.w3.org/2000/svg" width="200" height="200" fill="#121212"/>
<ns3:path xmlns:ns3="http://www.w3.org/2000/svg" fill-rule="evenodd" clip-rule="evenodd" d="M10 200L10 2.18557e-07L15 0L15 200L10 200Z" fill="#F3F3F3"/>
<ns4:path xmlns:ns4="http://www.w3.org/2000/svg" fill-rule="evenodd" clip-rule="evenodd" d="M120 200L120 2.18557e-07L125 0L125 200L120 200Z" fill="#F3F3F3"/>
<ns5:path xmlns:ns5="http://www.w3.org/2000/svg" fill-rule="evenodd" clip-rule="evenodd" d="M35 200L35 2.18557e-07L40 0L40 200L35 200Z" fill="#F3F3F3"/>
<ns6:path xmlns:ns6="http://www.w3.org/2000/svg" fill-rule="evenodd" clip-rule="evenodd" d="M140 200L140 2.18557e-07L145 0L145 200L140 200Z" fill="#F3F3F3"/>
<ns7:path xmlns:ns7="http://www.w3.org/2000/svg" fill-rule="evenodd" clip-rule="evenodd" d="M60 200L60 2.18557e-07L65 0L65 200L60 200Z" fill="#F3F3F3"/>
<ns8:path xmlns:ns8="http://www.w3.org/2000/svg" fill-rule="evenodd" clip-rule="evenodd" d="M160 200L160 2.18557e-07L165 0L165 200L160 200Z" fill="#F3F3F3"/>
<ns9:path xmlns:ns9="http://www.w3.org/2000/svg" fill-rule="evenodd" clip-rule="evenodd" d="M80 200L80 2.18557e-07L85 0L85 200L80 200Z" fill="#F3F3F3"/>
<ns10:path xmlns:ns10="http://www.w3.org/2000/svg" fill-rule="evenodd" clip-rule="evenodd" d="M175 200L175 2.18557e-07L180 0L180 200L175 200Z" fill="#F3F3F3"/>
<ns11:path xmlns:ns11="http://www.w3.org/2000/svg" fill-rule="evenodd" clip-rule="evenodd" d="M190 200L190 2.18557e-07L195 0L195 200L190 200Z" fill="#F3F3F3"/>
<ns12:path xmlns:ns12="http://www.w3.org/2000/svg" fill-rule="evenodd" clip-rule="evenodd" d="M100 200L100 2.18557e-07L105 0L105 200L100 200Z" fill="#F3F3F3"/>
</svg>
  <svg x="640.0" y="0.0" width="320.0" height="320.0" viewBox="0 0 200 200"><ns13:g xmlns:ns13="http://www.w3.org/2000/svg" clip-path="url(#clip0_4_5445)">
<ns13:rect width="200" height="200" transform="translate(200 8.74228e-06) rotate(90)" fill="#121212"/>
<ns13:path d="M200 3.49691e-05L8.74228e-06 200L3.49691e-05 8.74228e-06L200 3.49691e-05Z" fill="#F3F3F3"/>
<ns13:path d="M200 100L100 200Lnan nanL100 200C100 144.772 144.772 100 200 100Lnan nanL200 100Z" fill="#F3F3F3"/>
<ns13:path d="M100 200L200 100L200 200L100 200Z" fill="#F3F3F3"/>
</ns13:g>
<ns14:defs xmlns:ns14="http://www.w3.org/2000/svg">
<ns14:clipPath id="clip0_4_5445">
<ns14:rect width="200" height="200" fill="#FFFFFF" transform="translate(200 8.74228e-06) rotate(90)"/>
</ns14:clipPath>
</ns14:defs>
</svg>
  <svg x="960.0" y="0.0" width="320.0" height="320.0" viewBox="0 0 200 200"><ns15:g xmlns:ns15="http://www.w3.org/2000/svg" clip-path="url(#clip0_4_197)">
<ns15:rect width="200" height="200" transform="translate(200 8.74228e-06) rotate(90)" fill="#121212"/>
<ns15:path d="M195 5.00003L195 195L5.00001 195L5.00005 5.00001L195 5.00003Z" fill="#F3F3F3"/>
<ns15:g clip-path="url(#clip1_4_197)">
<ns15:path d="M200 8.74228e-06L8.74228e-06 200V8.74228e-06H200Z" fill="#F3F3F3"/>
<ns15:path d="M100 200L200 100V200H100Z" fill="#F3F3F3"/>
</ns15:g>
</ns15:g>
<ns16:defs xmlns:ns16="http://www.w3.org/2000/svg">
<ns16:clipPath id="clip0_4_197">
<ns16:rect width="200" height="200" fill="#FFFFFF" transform="translate(200 8.74228e-06) rotate(90)"/>
</ns16:clipPath>
<ns16:clipPath id="clip1_4_197">
<ns16:rect width="200" height="200" fill="#FFFFFF"/>
</ns16:clipPath>
</ns16:defs>
</svg>
  <svg x="1280.0" y="0.0" width="320.0" height="320.0" viewBox="0 0 200 200"><ns17:rect xmlns:ns17="http://www.w3.org/2000/svg" width="200" height="200" transform="translate(200 1.52588e-05) rotate(90)" fill="#121212"/>
<ns18:path xmlns:ns18="http://www.w3.org/2000/svg" d="M141.667 100C141.667 76.9842 123.011 58.3334 100 58.3334C76.9891 58.3334 58.3333 76.9841 58.3333 100C58.3333 123.016 76.989 141.667 100 141.667C111.508 141.667 121.925 137.004 129.464 129.464C137.004 121.925 141.667 111.508 141.667 100Z" fill="#F3F3F3"/>
<ns19:path xmlns:ns19="http://www.w3.org/2000/svg" d="M100.028 0.0280153L0.0559627 1.08889e-05L0.0279585 100C55.2405 100.016 100.012 55.256 100.028 0.0280153Z" fill="#F3F3F3"/>
</svg>
  <svg x="1600.0" y="0.0" width="320.0" height="320.0" viewBox="0 0 200 200"><ns20:g xmlns:ns20="http://www.w3.org/2000/svg" clip-path="url(#clip0_3_503)">
<ns20:rect width="200" height="200" transform="translate(200 8.74228e-06) rotate(90)" fill="#121212"/>
<ns20:path d="M200 2.44739e-09L-6.51651e-06 2.4471e-09L0 200C110.425 200.032 199.968 110.456 200 2.44739e-09Z" fill="#F3F3F3"/>
</ns20:g>
<ns21:defs xmlns:ns21="http://www.w3.org/2000/svg">
<ns21:clipPath id="clip0_3_503">
<ns21:rect width="200" height="200" fill="#FFFFFF" transform="translate(200 8.74228e-06) rotate(90)"/>
</ns21:clipPath>
</ns21:defs>
</svg>
  <svg x="0.0" y="320.0" width="320.0" height="320.0" viewBox="0 0 200 200"><ns22:g xmlns:ns22="http://www.w3.org/2000/svg" clip-path="url(#clip0_20_1271)">
<ns22:rect width="200" height="200" transform="translate(200 8.74228e-06) rotate(90)" fill="#121212"/>
<ns22:path d="M100 1.42263e-05L100 50L8.74228e-06 100L3.49691e-05 -1.41459e-05L100 1.42263e-05Z" fill="#F3F3F3"/>
</ns22:g>
<ns23:defs xmlns:ns23="http://www.w3.org/2000/svg">
<ns23:clipPath id="clip0_20_1271">
<ns23:rect width="200" height="200" fill="#FFFFFF" transform="translate(200 8.74228e-06) rotate(90)"/>
</ns23:clipPath>
</ns23:defs>
</svg>
  <svg x="320.0" y="320.0" width="320.0" height="320.0" viewBox="0 0 200 200"><ns24:g xmlns:ns24="http://www.w3.org/2000/svg" clip-path="url(#clip0_4_5449)">
<ns24:rect width="200" height="200" transform="translate(200 1.52588e-05) rotate(90)" fill="#121212"/>
<ns24:path d="M200 3.38562e-05L8.74228e-06 200L3.49691e-05 7.62939e-06L200 3.38562e-05Z" fill="#F3F3F3"/>
<ns24:path d="M150.05 200C105.549 200 83.2634 146.197 114.73 114.73Lnan nanL114.73 114.73C146.197 83.2634 200 105.549 200 150.05L200 200L150.05 200Z" fill="#F3F3F3"/>
</ns24:g>
<ns25:defs xmlns:ns25="http://www.w3.org/2000/svg">
<ns25:clipPath id="clip0_4_5449">
<ns25:rect width="200" height="200" fill="#FFFFFF" transform="translate(200 1.52588e-05) rotate(90)"/>
</ns25:clipPath>
</ns25:defs>
</svg>
  <svg x="640.0" y="320.0" width="320.0" height="320.0" viewBox="0 0 200 200"><ns26:g xmlns:ns26="http://www.w3.org/2000/svg" clip-path="url(#clip0_3_605)">
<ns26:rect width="200" height="200" transform="translate(200 8.74228e-06) rotate(90)" fill="#121212"/>
<ns26:path d="M200 1.97103e-05L200 50L8.74228e-06 100L3.49691e-05 -6.51651e-06L200 1.97103e-05Z" fill="#F3F3F3"/>
</ns26:g>
<ns27:defs xmlns:ns27="http://www.w3.org/2000/svg">
<ns27:clipPath id="clip0_3_605">
<ns27:rect width="200" height="200" fill="#FFFFFF" transform="translate(200 8.74228e-06) rotate(90)"/>
</ns27:clipPath>
</ns27:defs>
</svg>
  <svg x="960.0" y="320.0" width="320.0" height="320.0" viewBox="0 0 200 200"><ns28:g xmlns:ns28="http://www.w3.org/2000/svg" clip-path="url(#clip0_5_6255)">
<ns28:rect width="200" height="200" transform="translate(200 8.74228e-06) rotate(90)" fill="#121212"/>
<ns28:path fill-rule="evenodd" clip-rule="evenodd" d="M200 0.0558432C199.97 55.2587 155.21 100 100 100C44.7715 100 2.76243e-05 55.2285 2.51139e-05 2.23213e-05L8.74228e-06 2.24121e-05V200C8.74228e-06 144.772 44.7715 100 100 100C155.228 100 200 144.772 200 200V0.0558432Z" fill="#F3F3F3"/>
</ns28:g>
<ns29:defs xmlns:ns29="http://www.w3.org/2000/svg">
<ns29:clipPath id="clip0_5_6255">
<ns29:rect width="200" height="200" fill="#FFFFFF" transform="translate(200 8.74228e-06) rotate(90)"/>
</ns29:clipPath>
</ns29:defs>
</svg>
  <svg x="1280.0" y="320.0" width="320.0" height="320.0" viewBox="0 0 200 200"><ns30:g xmlns:ns30="http://www.w3.org/2000/svg" clip-path="url(#clip0_35_1226)">
<ns30:rect width="200" height="200" transform="translate(200 8.74228e-06) rotate(90)" fill="#121212"/>
<ns30:path d="M200 9.16684e-06Lnan nanL200 9.16684e-06C200 27.6142 177.614 50 150 50L8.74228e-06 50L2.92866e-05 -1.41459e-05L200 9.16684e-06Z" fill="#F3F3F3"/>
</ns30:g>
<ns31:defs xmlns:ns31="http://www.w3.org/2000/svg">
<ns31:clipPath id="clip0_35_1226">
<ns31:rect width="200" height="200" fill="#FFFFFF" transform="translate(200 8.74228e-06) rotate(90)"/>
</ns31:clipPath>
</ns31:defs>
</svg>
  <svg x="1600.0" y="320.0" width="320.0" height="320.0" viewBox="0 0 200 200"><ns32:g xmlns:ns32="http://www.w3.org/2000/svg" clip-path="url(#clip0_5_5486)">
<ns32:rect width="200" height="200" transform="translate(200 1.52588e-05) rotate(90)" fill="#121212"/>
<ns32:path d="M125.075 200C58.3242 200 24.8952 119.295 72.0952 72.0952Lnan nanL72.0952 72.0952C119.295 24.8951 200 58.3242 200 125.075L200 200L125.075 200Z" fill="#F3F3F3"/>
</ns32:g>
<ns33:defs xmlns:ns33="http://www.w3.org/2000/svg">
<ns33:clipPath id="clip0_5_5486">
<ns33:rect width="200" height="200" fill="#FFFFFF" transform="translate(200 1.52588e-05) rotate(90)"/>
</ns33:clipPath>
</ns33:defs>
</svg>
  <svg x="0.0" y="640.0" width="320.0" height="320.0" viewBox="0 0 200 200"><ns34:g xmlns:ns34="http://www.w3.org/2000/svg" clip-path="url(#clip0_81_3073)">
<ns34:rect width="200" height="200" transform="translate(200 1.52588e-05) rotate(90)" fill="#121212"/>
<ns34:circle cx="200" cy="100" r="50" fill="#F3F3F3"/>
<ns34:circle cx="200" r="50" fill="#F3F3F3"/>
<ns34:circle cx="200" cy="200" r="50" fill="#F3F3F3"/>
</ns34:g>
<ns35:defs xmlns:ns35="http://www.w3.org/2000/svg">
<ns35:clipPath id="clip0_81_3073">
<ns35:rect width="200" height="200" fill="#FFFFFF" transform="translate(200 1.52588e-05) rotate(90)"/>
</ns35:clipPath>
</ns35:defs>
</svg>
  <svg x="320.0" y="640.0" width="320.0" height="320.0" viewBox="0 0 200 200"><ns36:g xmlns:ns36="http://www.w3.org/2000/svg" clip-path="url(#clip0_20_1274)">
<ns36:rect width="200" height="200" transform="translate(200 8.74228e-06) rotate(90)" fill="#F3F3F3"/>
<ns36:path d="M100 2.18557e-05L100 100L8.74228e-06 200L2.18557e-05 100L3.49691e-05 8.74228e-06L100 2.18557e-05Z" fill="#FF4F00"/>
</ns36:g>
<ns37:defs xmlns:ns37="http://www.w3.org/2000/svg">
<ns37:clipPath id="clip0_20_1274">
<ns37:rect width="200" height="200" fill="#FFFFFF" transform="translate(200 8.74228e-06) rotate(90)"/>
</ns37:clipPath>
</ns37:defs>
</svg>
  <svg x="640.0" y="640.0" width="320.0" height="320.0" viewBox="0 0 200 200"><ns38:rect xmlns:ns38="http://www.w3.org/2000/svg" width="200" height="200" transform="translate(200 8.74228e-06) rotate(90)" fill="#121212"/>
<ns39:path xmlns:ns39="http://www.w3.org/2000/svg" d="M100 4.37236e-06L0.0280239 4.37236e-06L1.96299e-05 100C55.2126 100.016 99.984 55.228 100 4.37236e-06Z" fill="#F3F3F3"/>
</svg>
  <svg x="960.0" y="640.0" width="320.0" height="320.0" viewBox="0 0 200 200"><ns40:rect xmlns:ns40="http://www.w3.org/2000/svg" width="200" height="200" transform="translate(200 8.74228e-06) rotate(90)" fill="#F3F3F3"/>
<ns41:path xmlns:ns41="http://www.w3.org/2000/svg" d="M100 8.74228e-06H8.74228e-06V100C8.74228e-06 44.772 44.772 8.74228e-06 100 8.74228e-06Z" fill="#FF4F00"/>
<ns42:path xmlns:ns42="http://www.w3.org/2000/svg" d="M62.5 25C41.7902 25 25 41.7857 25 62.5C25 83.2143 41.7902 100 62.5 100C72.8572 100 82.2321 95.8036 89.0179 89.0179C95.8036 82.2321 100 72.8572 100 62.5C100 41.7857 83.2098 25 62.5 25Z" fill="#FF4F00"/>
</svg>
  <svg x="1280.0" y="640.0" width="320.0" height="320.0" viewBox="0 0 200 200"><ns43:g xmlns:ns43="http://www.w3.org/2000/svg" clip-path="url(#clip0_3_550)">
<ns43:rect width="200" height="200" transform="translate(200 1.52588e-05) rotate(90)" fill="#121212"/>
<ns43:path d="M200 4.9115e-05L8.74228e-06 150L2.95598e-05 2.28882e-05L200 4.9115e-05Z" fill="#F3F3F3"/>
</ns43:g>
<ns44:defs xmlns:ns44="http://www.w3.org/2000/svg">
<ns44:clipPath id="clip0_3_550">
<ns44:rect width="200" height="200" fill="#FFFFFF" transform="translate(200 1.52588e-05) rotate(90)"/>
</ns44:clipPath>
</ns44:defs>
</svg>
  <svg x="1600.0" y="640.0" width="320.0" height="320.0" viewBox="0 0 200 200"><ns45:g xmlns:ns45="http://www.w3.org/2000/svg" clip-path="url(#clip0_85_2234)">
<ns45:rect width="200" height="200" transform="translate(200 8.74228e-06) rotate(90)" fill="#121212"/>
<ns45:path d="M150 100H200C200 44.772 155.228 8.74228e-06 100 8.74228e-06C44.772 8.74228e-06 8.74228e-06 44.772 8.74228e-06 100H50C50 100 72.384 100 100 100C127.616 100 150 100 150 100Z" fill="#F3F3F3"/>
<ns45:path d="M45 200H65V100H45V200Z" fill="#F3F3F3"/>
<ns45:path d="M90 200H110V100H90V200Z" fill="#F3F3F3"/>
<ns45:path d="M135 200H155V100H135V200Z" fill="#F3F3F3"/>
<ns45:path d="M8.74228e-06 200H20V100H8.74228e-06V200Z" fill="#F3F3F3"/>
<ns45:path d="M180 200H200V100H180V200Z" fill="#F3F3F3"/>
</ns45:g>
<ns46:defs xmlns:ns46="http://www.w3.org/2000/svg">
<ns46:clipPath id="clip0_85_2234">
<ns46:rect width="200" height="200" fill="#FFFFFF" transform="translate(200 8.74228e-06) rotate(90)"/>
</ns46:clipPath>
</ns46:defs>
</svg>
</svg>
