<?xml version='1.0' encoding='UTF-8'?>
<svg xmlns="http://www.w3.org/2000/svg" version="1.1" width="1920" height="960" viewBox="0 0 1920 960">
  <rect x="0" y="0" width="320" height="320" fill="#121212"/>
  <g transform="translate(0,0) scale(1.6)"><path xmlns="http://www.w3.org/2000/svg" d="M200 0H0V200C0 89.544 89.544 0 200 0Z M141.42 141.42C105.228 177.616 55.228 200 0 200H200V0C200 55.228 177.616 105.228 141.42 141.42Z" fill="#4997D0"/>
</g>
  <rect x="320" y="0" width="320" height="320" fill="#F3F3F3"/>
  <g transform="translate(320,0) scale(1.6) rotate(180,100,100)"><path xmlns="http://www.w3.org/2000/svg" d="M100 8.74228e-06H8.74228e-06V100C8.74228e-06 44.772 44.772 8.74228e-06 100 8.74228e-06Z M62.5 25C41.7902 25 25 41.7857 25 62.5C25 83.2143 41.7902 100 62.5 100C72.8572 100 82.2321 95.8036 89.0179 89.0179C95.8036 82.2321 100 72.8572 100 62.5C100 41.7857 83.2098 25 62.5 25Z" fill="#121212"/>
</g>
  <rect x="640" y="0" width="320" height="320" fill="#FFFFFF"/>
  <g transform="translate(640,0) scale(1.6)"><path xmlns="http://www.w3.org/2000/svg" d="M100 8.74228e-06H8.74228e-06V100C8.74228e-06 44.772 44.772 8.74228e-06 100 8.74228e-06Z M62.5 25C41.7902 25 25 41.7857 25 62.5C25 83.2143 41.7902 100 62.5 100C72.8572 100 82.2321 95.8036 89.0179 89.0179C95.8036 82.2321 100 72.8572 100 62.5C100 41.7857 83.2098 25 62.5 25Z" fill="#4997D0"/>
</g>
  <rect x="960" y="0" width="320" height="320" fill="#FF4F00"/>
  <g transform="translate(960,0) scale(1.6) rotate(270,100,100)"><path xmlns="http://www.w3.org/2000/svg" d="M200 8.74228e-06C200 55.228 177.616 105.228 141.42 141.42C105.228 177.616 55.228 200 0 200L200 200L200 8.74228e-06Z M141.667 100C141.667 76.9841 123.011 58.3333 100 58.3333C76.9891 58.3333 58.3333 76.9841 58.3333 100C58.3333 123.016 76.989 141.667 100 141.667C111.508 141.667 121.925 137.004 129.464 129.464C137.004 121.925 141.667 111.508 141.667 100Z M100.028 0.0280087L0.0559627 4.37236e-06L0.0279585 100C55.2405 100.016 100.012 55.256 100.028 0.0280087Z" fill="#FFFFFF"/>
</g>
  <rect x="1280" y="0" width="320" height="320" fill="#121212"/>
  <g transform="translate(1280,0) scale(1.6)"><path xmlns="http://www.w3.org/2000/svg" d="M200 0H0V200C0 89.544 89.544 0 200 0Z M141.42 141.42C105.228 177.616 55.228 200 0 200H200V0C200 55.228 177.616 105.228 141.42 141.42Z M100 58.3333C76.9893 58.3333 58.3335 76.9841 58.3335 100C58.3335 123.016 76.9893 141.667 100 141.667C111.508 141.667 121.925 137.004 129.464 129.464C137.004 121.925 141.667 111.508 141.667 100C141.667 76.9841 123.011 58.3333 100 58.3333Z" fill="#FF4F00"/>
</g>
  <rect x="1600" y="0" width="320" height="320" fill="#F3F3F3"/>
  <g transform="translate(1600,0) scale(1.6) rotate(180,100,100)"><path xmlns="http://www.w3.org/2000/svg" d="M200 0H0V200C0 89.544 89.544 0 200 0Z M100 58.3333C76.9891 58.3333 58.3334 76.9841 58.3334 100C58.3334 123.016 76.9891 141.667 100 141.667C111.508 141.667 121.925 137.004 129.464 129.464C137.004 121.925 141.667 111.508 141.667 100C141.667 76.9841 123.011 58.3333 100 58.3333Z" fill="#4997D0"/>
</g>
  <rect x="0" y="320" width="320" height="320" fill="#FF4F00"/>
  <g transform="translate(0,320) scale(1.6) rotate(180,100,100)"><path xmlns="http://www.w3.org/2000/svg" d="M200 0H0V200C0 89.544 89.544 0 200 0Z M141.42 141.42C105.228 177.616 55.228 200 0 200H200V0C200 55.228 177.616 105.228 141.42 141.42Z M100 58.3333C76.9893 58.3333 58.3335 76.9841 58.3335 100C58.3335 123.016 76.9893 141.667 100 141.667C111.508 141.667 121.925 137.004 129.464 129.464C137.004 121.925 141.667 111.508 141.667 100C141.667 76.9841 123.011 58.3333 100 58.3333Z" fill="#FFFFFF"/>
</g>
  <rect x="320" y="320" width="320" height="320" fill="#FF4F00"/>
  <g transform="translate(320,320) scale(1.6)"><path xmlns="http://www.w3.org/2000/svg" d="M200 0H0V200C0 89.544 89.544 0 200 0Z M100 58.3333C76.9891 58.3333 58.3334 76.9841 58.3334 100C58.3334 123.016 76.9891 141.667 100 141.667C111.508 141.667 121.925 137.004 129.464 129.464C137.004 121.925 141.667 111.508 141.667 100C141.667 76.9841 123.011 58.3333 100 58.3333Z" fill="#FFFFFF"/>
</g>
  <rect x="640" y="320" width="320" height="320" fill="#121212"/>
  <g transform="translate(640,320) scale(1.6) rotate(180,100,100)"><path xmlns="http://www.w3.org/2000/svg" d="M200 0H0V200C0 89.544 89.544 0 200 0Z M100 58.3333C76.9891 58.3333 58.3334 76.9841 58.3334 100C58.3334 123.016 76.9891 141.667 100 141.667C111.508 141.667 121.925 137.004 129.464 129.464C137.004 121.925 141.667 111.508 141.667 100C141.667 76.9841 123.011 58.3333 100 58.3333Z" fill="#FFFFFF"/>
</g>
  <rect x="960" y="320" width="320" height="320" fill="#121212"/>
  <g transform="translate(960,320) scale(1.6)"><path xmlns="http://www.w3.org/2000/svg" d="M200 0H0V200C0 89.544 89.544 0 200 0Z M141.42 141.42C105.228 177.616 55.228 200 0 200H200V0C200 55.228 177.616 105.228 141.42 141.42Z M100 58.3333C76.9893 58.3333 58.3335 76.9841 58.3335 100C58.3335 123.016 76.9893 141.667 100 141.667C111.508 141.667 121.925 137.004 129.464 129.464C137.004 121.925 141.667 111.508 141.667 100C141.667 76.9841 123.011 58.3333 100 58.3333Z" fill="#FFFFFF"/>
</g>
  <rect x="1280" y="320" width="320" height="320" fill="#FFFFFF"/>
  <g transform="translate(1280,320) scale(1.6) rotate(180,100,100)"><path xmlns="http://www.w3.org/2000/svg" d="M200 8.74228e-06C200 55.228 177.616 105.228 141.42 141.42C105.228 177.616 55.228 200 0 200L200 200L200 8.74228e-06Z M141.667 100C141.667 76.9841 123.011 58.3333 100 58.3333C76.9891 58.3333 58.3333 76.9841 58.3333 100C58.3333 123.016 76.989 141.667 100 141.667C111.508 141.667 121.925 137.004 129.464 129.464C137.004 121.925 141.667 111.508 141.667 100Z M100.028 0.0280087L0.0559627 4.37236e-06L0.0279585 100C55.2405 100.016 100.012 55.256 100.028 0.0280087Z" fill="#121212"/>
</g>
  <rect x="1600" y="320" width="320" height="320" fill="#F3F3F3"/>
  <g transform="translate(1600,320) scale(1.6)"><path xmlns="http://www.w3.org/2000/svg" d="M141.667 100C141.667 76.9842 123.011 58.3334 100 58.3334C76.9891 58.3334 58.3333 76.9841 58.3333 100C58.3333 123.016 76.989 141.667 100 141.667C111.508 141.667 121.925 137.004 129.464 129.464C137.004 121.925 141.667 111.508 141.667 100Z M100.028 0.0280153L0.0559627 1.08889e-05L0.0279585 100C55.2405 100.016 100.012 55.256 100.028 0.0280153Z" fill="#4997D0"/>
</g>
  <rect x="0" y="640" width="320" height="320" fill="#121212"/>
  <g transform="translate(0,640) scale(1.6)"><path xmlns="http://www.w3.org/2000/svg" d="M200 8.74228e-06C200 55.228 177.616 105.228 141.42 141.42C105.228 177.616 55.228 200 0 200L200 200L200 8.74228e-06Z M100.028 0.0280087L0.0559627 4.37236e-06L0.0279585 100C55.2405 100.016 100.012 55.256 100.028 0.0280087Z" fill="#FFFFFF"/>
</g>
  <rect x="320" y="640" width="320" height="320" fill="#F3F3F3"/>
  <g transform="translate(320,640) scale(1.6) rotate(180,100,100)"><path xmlns="http://www.w3.org/2000/svg" d="M200 0H0V200C0 89.544 89.544 0 200 0Z M141.42 141.42C105.228 177.616 55.228 200 0 200H200V0C200 55.228 177.616 105.228 141.42 141.42Z" fill="#4997D0"/>
</g>
  <rect x="640" y="640" width="320" height="320" fill="#F3F3F3"/>
  <g transform="translate(640,640) scale(1.6)"><path xmlns="http://www.w3.org/2000/svg" d="M141.667 100C141.667 76.9842 123.011 58.3334 100 58.3334C76.9891 58.3334 58.3333 76.9841 58.3333 100C58.3333 123.016 76.989 141.667 100 141.667C111.508 141.667 121.925 137.004 129.464 129.464C137.004 121.925 141.667 111.508 141.667 100Z M100.028 0.0280153L0.0559627 1.08889e-05L0.0279585 100C55.2405 100.016 100.012 55.256 100.028 0.0280153Z" fill="#FF4F00"/>
</g>
  <rect x="960" y="640" width="320" height="320" fill="#FF4F00"/>
  <g transform="translate(960,640) scale(1.6) rotate(180,100,100)"><path xmlns="http://www.w3.org/2000/svg" d="M100 8.74228e-06H8.74228e-06V100C8.74228e-06 44.772 44.772 8.74228e-06 100 8.74228e-06Z M62.5 25C41.7902 25 25 41.7857 25 62.5C25 83.2143 41.7902 100 62.5 100C72.8572 100 82.2321 95.8036 89.0179 89.0179C95.8036 82.2321 100 72.8572 100 62.5C100 41.7857 83.2098 25 62.5 25Z" fill="#4997D0"/>
</g>
  <rect x="1280" y="640" width="320" height="320" fill="#121212"/>
  <g transform="translate(1280,640) scale(1.6)"><path xmlns="http://www.w3.org/2000/svg" d="M200 0H0V200C0 89.544 89.544 0 200 0Z M141.42 141.42C105.228 177.616 55.228 200 0 200H200V0C200 55.228 177.616 105.228 141.42 141.42Z M100 58.3333C76.9893 58.3333 58.3335 76.9841 58.3335 100C58.3335 123.016 76.9893 141.667 100 141.667C111.508 141.667 121.925 137.004 129.464 129.464C137.004 121.925 141.667 111.508 141.667 100C141.667 76.9841 123.011 58.3333 100 58.3333Z" fill="#4997D0"/>
</g>
  <rect x="1600" y="640" width="320" height="320" fill="#FFFFFF"/>
  <g transform="translate(1600,640) scale(1.6) rotate(180,100,100)"><path xmlns="http://www.w3.org/2000/svg" d="M100 8.74228e-06H8.74228e-06V100C8.74228e-06 44.772 44.772 8.74228e-06 100 8.74228e-06Z M62.5 25C41.7902 25 25 41.7857 25 62.5C25 83.2143 41.7902 100 62.5 100C72.8572 100 82.2321 95.8036 89.0179 89.0179C95.8036 82.2321 100 72.8572 100 62.5C100 41.7857 83.2098 25 62.5 25Z" fill="#121212"/>
</g>
</svg>
