<?xml version='1.0' encoding='UTF-8'?>
<svg xmlns="http://www.w3.org/2000/svg" version="1.1" width="1920" height="960" viewBox="0 0 1920 960">
  <rect x="0" y="0" width="320" height="320" fill="#4997D0"/>
  <g transform="translate(0,0) scale(1.6)"><path xmlns="http://www.w3.org/2000/svg" d="M200 9.16683e-06L170.711 29.2893C125.435 74.5646 64.0289 100 8.74228e-06 100L8.74228e-06 100L3.67176e-05 -1.41459e-05L100 -2.48954e-06L200 9.16683e-06Z" fill="#FFFFFF"/>
</g>
  <rect x="320" y="0" width="320" height="320" fill="#FFFFFF"/>
  <g transform="translate(320,0) scale(1.6) rotate(90,100,100)"><path xmlns="http://www.w3.org/2000/svg" d="M200 9.16683e-06L170.711 29.2893C125.435 74.5646 64.0289 100 8.74228e-06 100L8.74228e-06 100L3.67176e-05 -1.41459e-05L100 -2.48954e-06L200 9.16683e-06Z" fill="#FF4F00"/>
</g>
  <rect x="640" y="0" width="320" height="320" fill="#FFFFFF"/>
  <g transform="translate(640,0) scale(1.6) rotate(180,100,100)"><path xmlns="http://www.w3.org/2000/svg" d="M200 1.67962e-05L200 1.67962e-05C200 82.8427 132.843 150 50 150L8.74228e-06 150L4.41485e-05 -6.51651e-06L200 1.67962e-05Z" fill="#121212"/>
</g>
  <rect x="960" y="0" width="320" height="320" fill="#FF4F00"/>
  <g transform="translate(960,0) scale(1.6) rotate(270,100,100)"><path xmlns="http://www.w3.org/2000/svg" d="M200 200C132.395 150.473 132.395 49.5275 200 2.62268e-05L-5.22929e-05 0L-6.10352e-05 200L200 200Z" fill="#FFFFFF"/>
</g>
  <rect x="1280" y="0" width="320" height="320" fill="#121212"/>
  <g transform="translate(1280,0) scale(1.6)"><path xmlns="http://www.w3.org/2000/svg" d="M0.0,0.0 L200.0,0.0 L200.0,200.0 L0.0,200.0 Z M0.0280653 100L0 200L200 200L200 8.74228e-06L100.028 0.0280087C100.012 55.256 55.2406 100.016 0.0280653 100Z" fill="#FFFFFF" fill-rule="evenodd"/>
</g>
  <rect x="1600" y="0" width="320" height="320" fill="#FFFFFF"/>
  <g transform="translate(1600,0) scale(1.6) rotate(90,100,100)"><path xmlns="http://www.w3.org/2000/svg" d="M200 3.2055e-05L155.47 66.7949C120.815 118.777 62.4745 150 8.74228e-06 150L8.74228e-06 150L4.41485e-05 8.74228e-06L100 2.03986e-05L200 3.2055e-05Z" fill="#FFA300"/>
</g>
  <rect x="0" y="320" width="320" height="320" fill="#FF4F00"/>
  <g transform="translate(0,320) scale(1.6) rotate(180,100,100)"><path xmlns="http://www.w3.org/2000/svg" d="M200 1.67962e-05L200 1.67962e-05C200 82.8427 132.843 150 50 150L8.74228e-06 150L4.41485e-05 -6.51651e-06L200 1.67962e-05Z" fill="#4997D0"/>
</g>
  <rect x="320" y="320" width="320" height="320" fill="#4997D0"/>
  <g transform="translate(320,320) scale(1.6) rotate(270,100,100)"><path xmlns="http://www.w3.org/2000/svg" d="M200 0H0V200C0 89.544 89.544 0 200 0Z" fill="#FFFFFF"/>
</g>
  <rect x="640" y="320" width="320" height="320" fill="#F3F3F3"/>
  <g transform="translate(640,320) scale(1.6)"><path xmlns="http://www.w3.org/2000/svg" d="M200 200C132.395 150.473 132.395 49.5275 200 2.62268e-05L-5.22929e-05 0L-6.10352e-05 200L200 200Z" fill="#121212"/>
</g>
  <rect x="960" y="320" width="320" height="320" fill="#121212"/>
  <g transform="translate(960,320) scale(1.6) rotate(90,100,100)"><path xmlns="http://www.w3.org/2000/svg" d="M4.37118e-07 190L-3.05176e-05 200L200 200L200 8.74228e-06L190 8.74524e-06C189.97 104.933 104.904 190.03 4.37118e-07 190Z" fill="#FF4F00"/>
</g>
  <rect x="1280" y="320" width="320" height="320" fill="#121212"/>
  <g transform="translate(1280,320) scale(1.6) rotate(180,100,100)"><path xmlns="http://www.w3.org/2000/svg" d="M4.37118e-07 190L-3.05176e-05 200L200 200L200 8.74228e-06L190 8.74524e-06C189.97 104.933 104.904 190.03 4.37118e-07 190Z" fill="#FFA300"/>
</g>
  <rect x="1600" y="320" width="320" height="320" fill="#FFFFFF"/>
  <g transform="translate(1600,320) scale(1.6) rotate(270,100,100)"><path xmlns="http://www.w3.org/2000/svg" d="M200 0H0V200C0 89.544 89.544 0 200 0Z" fill="#FFA300"/>
</g>
  <rect x="0" y="640" width="320" height="320" fill="#F3F3F3"/>
  <g transform="translate(0,640) scale(1.6)"><path xmlns="http://www.w3.org/2000/svg" d="M200 9.16683e-06C200 9.16683e-06 169.709 10 100 10C30.2914 10 69.7086 10 8.74228e-06 10L2.33419e-05 -1.41459e-05L100 -2.48954e-06L200 9.16683e-06Z" fill="#4997D0"/>
</g>
  <rect x="320" y="640" width="320" height="320" fill="#FF4F00"/>
  <g transform="translate(320,640) scale(1.6) rotate(90,100,100)"><path xmlns="http://www.w3.org/2000/svg" d="M0.0,0.0 L200.0,0.0 L200.0,200.0 L0.0,200.0 Z M0.0280653 100L0 200L200 200L200 8.74228e-06L100.028 0.0280087C100.012 55.256 55.2406 100.016 0.0280653 100Z" fill="#4997D0" fill-rule="evenodd"/>
</g>
  <rect x="640" y="640" width="320" height="320" fill="#121212"/>
  <g transform="translate(640,640) scale(1.6) rotate(180,100,100)"><path xmlns="http://www.w3.org/2000/svg" d="M200 1.56833e-05L200 1.56833e-05C200 55.2285 155.228 100 100 100L8.74228e-06 100L3.67176e-05 -7.62939e-06L200 1.56833e-05Z" fill="#FF4F00"/>
</g>
  <rect x="960" y="640" width="320" height="320" fill="#F3F3F3"/>
  <g transform="translate(960,640) scale(1.6) rotate(270,100,100)"><path xmlns="http://www.w3.org/2000/svg" d="M200 9.16683e-06L170.711 29.2893C125.435 74.5646 64.0289 100 8.74228e-06 100L8.74228e-06 100L3.67176e-05 -1.41459e-05L100 -2.48954e-06L200 9.16683e-06Z" fill="#4997D0"/>
</g>
  <rect x="1280" y="640" width="320" height="320" fill="#F3F3F3"/>
  <g transform="translate(1280,640) scale(1.6)"><path xmlns="http://www.w3.org/2000/svg" d="M200 1.56833e-05L200 1.56833e-05C200 55.2285 155.228 100 100 100L8.74228e-06 100L3.67176e-05 -7.62939e-06L200 1.56833e-05Z" fill="#4997D0"/>
</g>
  <rect x="1600" y="640" width="320" height="320" fill="#FFFFFF"/>
  <g transform="translate(1600,640) scale(1.6) rotate(90,100,100)"><path xmlns="http://www.w3.org/2000/svg" d="M2.18557e-06 150L0 200L200 200L200 8.74228e-06L150 0.0373421C150 91.5 75 150 2.18557e-06 150Z" fill="#FF4F00"/>
</g>
</svg>
