<?xml version='1.0' encoding='UTF-8'?>
<svg xmlns="http://www.w3.org/2000/svg" version="1.1" width="1920" height="960" viewBox="0 0 1920 960">
  <rect x="0" y="0" width="320" height="320" fill="#F3F3F3"/>
  <g transform="translate(0,0) scale(1.6)"><path xmlns="http://www.w3.org/2000/svg" d="M99.972 100L100 199.972L1.74846e-05 200C-0.0159862 144.787 44.744 100.016 99.972 100Z" fill="#121212"/>
</g>
  <rect x="320" y="0" width="320" height="320" fill="#F3F3F3"/>
  <g transform="translate(320,0) scale(1.6) rotate(90,100,100)"><path xmlns="http://www.w3.org/2000/svg" d="M166.667 200C129.848 200 33.3333 200 33.3333 200C33.3333 163.181 63.1809 133.333 99.9999 133.333C136.819 133.333 166.667 163.181 166.667 200Z" fill="#121212"/>
</g>
  <rect x="640" y="0" width="320" height="320" fill="#F3F3F3"/>
  <g transform="translate(640,0) scale(1.6) rotate(180,100,100)"><path xmlns="http://www.w3.org/2000/svg" d="M25.0,100.0 A75.0,75.0 0 1,0 175.0,100.0 A75.0,75.0 0 1,0 25.0,100.0 Z" fill="#121212"/>
</g>
  <rect x="960" y="0" width="320" height="320" fill="#F3F3F3"/>
  <g transform="translate(960,0) scale(1.6) rotate(180,100,100)"><path xmlns="http://www.w3.org/2000/svg" d="M25.0,100.0 A75.0,75.0 0 1,0 175.0,100.0 A75.0,75.0 0 1,0 25.0,100.0 Z" fill="#121212"/>
</g>
  <rect x="1280" y="0" width="320" height="320" fill="#F3F3F3"/>
  <g transform="translate(1280,0) scale(1.6) rotate(90,100,100)"><path xmlns="http://www.w3.org/2000/svg" d="M200 200C144.772 200 8.74228e-06 200 8.74228e-06 200C8.74228e-06 144.772 44.7715 100 100 100C155.228 100 200 144.772 200 200Z" fill="#121212"/>
</g>
  <rect x="1600" y="0" width="320" height="320" fill="#F3F3F3"/>
  <g transform="translate(1600,0) scale(1.6)"><path xmlns="http://www.w3.org/2000/svg" d="M100 4.37114e-06C44.7715 4.37114e-06 6.78525e-06 44.7715 4.37114e-06 100L0 200L200 200L200 100C200 44.7715 155.228 4.37114e-06 100 4.37114e-06Z M8.74228e-06,8.74228e-06 L100.00000874228,8.74228e-06 L100.00000874228,100.00000874228 L8.74228e-06,100.00000874228 Z M100.0,8.74228e-06 L200.0,8.74228e-06 L200.0,100.00000874228 L100.0,100.00000874228 Z" fill="#121212" fill-rule="evenodd"/>
</g>
  <rect x="0" y="320" width="320" height="320" fill="#F3F3F3"/>
  <g transform="translate(0,320) scale(1.6)"><path xmlns="http://www.w3.org/2000/svg" d="M99.972 100L100 199.972L1.74846e-05 200C-0.0159862 144.787 44.744 100.016 99.972 100Z" fill="#121212"/>
</g>
  <rect x="320" y="320" width="320" height="320" fill="#F3F3F3"/>
  <g transform="translate(320,320) scale(1.6) rotate(90,100,100)"><path xmlns="http://www.w3.org/2000/svg" d="M25.0,100.0 A75.0,75.0 0 1,0 175.0,100.0 A75.0,75.0 0 1,0 25.0,100.0 Z" fill="#121212"/>
</g>
  <rect x="640" y="320" width="320" height="320" fill="#F3F3F3"/>
  <g transform="translate(640,320) scale(1.6) rotate(180,100,100)"><path xmlns="http://www.w3.org/2000/svg" d="M50.0,100.0 A50.0,50.0 0 1,0 150.0,100.0 A50.0,50.0 0 1,0 50.0,100.0 Z" fill="#121212"/>
</g>
  <rect x="960" y="320" width="320" height="320" fill="#F3F3F3"/>
  <g transform="translate(960,320) scale(1.6) rotate(180,100,100)"><path xmlns="http://www.w3.org/2000/svg" d="M100 4.37236e-06L0.0280239 4.37236e-06L1.96299e-05 100C55.2126 100.016 99.984 55.228 100 4.37236e-06Z" fill="#121212"/>
</g>
  <rect x="1280" y="320" width="320" height="320" fill="#F3F3F3"/>
  <g transform="translate(1280,320) scale(1.6) rotate(90,100,100)"><path xmlns="http://www.w3.org/2000/svg" d="M175 200C133.579 200 25 200 25 200C25 158.579 58.5787 125 100 125C141.421 125 175 158.579 175 200Z" fill="#121212"/>
</g>
  <rect x="1600" y="320" width="320" height="320" fill="#121212"/>
  <g transform="translate(1600,320) scale(1.6)"><path xmlns="http://www.w3.org/2000/svg" d="M175 200C133.579 200 25 200 25 200C25 158.579 58.5787 125 100 125C141.421 125 175 158.579 175 200Z" fill="#FF4F00"/>
</g>
  <rect x="0" y="640" width="320" height="320" fill="#F3F3F3"/>
  <g transform="translate(0,640) scale(1.6)"><path xmlns="http://www.w3.org/2000/svg" d="M0.0,100.0 A100.0,100.0 0 1,0 200.0,100.0 A100.0,100.0 0 1,0 0.0,100.0 Z" fill="#121212"/>
</g>
  <rect x="320" y="640" width="320" height="320" fill="#F3F3F3"/>
  <g transform="translate(320,640) scale(1.6) rotate(90,100,100)"><path xmlns="http://www.w3.org/2000/svg" d="M175 200C133.579 200 25 200 25 200C25 158.579 58.5787 125 100 125C141.421 125 175 158.579 175 200Z" fill="#121212"/>
</g>
  <rect x="640" y="640" width="320" height="320" fill="#F3F3F3"/>
  <g transform="translate(640,640) scale(1.6) rotate(180,100,100)"><path xmlns="http://www.w3.org/2000/svg" d="M150 8.70392e-06L0.0420009 8.70392e-06L2.18557e-06 150C82.8188 150.024 149.976 82.842 150 8.70392e-06Z" fill="#121212"/>
</g>
  <rect x="960" y="640" width="320" height="320" fill="#F3F3F3"/>
  <g transform="translate(960,640) scale(1.6) rotate(180,100,100)"><path xmlns="http://www.w3.org/2000/svg" d="M50.0,100.0 A50.0,50.0 0 1,0 150.0,100.0 A50.0,50.0 0 1,0 50.0,100.0 Z" fill="#121212"/>
</g>
  <rect x="1280" y="640" width="320" height="320" fill="#121212"/>
  <g transform="translate(1280,640) scale(1.6) rotate(90,100,100)"><path xmlns="http://www.w3.org/2000/svg" d="M200 200C144.772 200 8.74228e-06 200 8.74228e-06 200C8.74228e-06 144.772 44.7715 100 100 100C155.228 100 200 144.772 200 200Z" fill="#FF4F00"/>
</g>
  <rect x="1600" y="640" width="320" height="320" fill="#F3F3F3"/>
  <g transform="translate(1600,640) scale(1.6)"><path xmlns="http://www.w3.org/2000/svg" d="M0.0,100.0 A100.0,100.0 0 1,0 200.0,100.0 A100.0,100.0 0 1,0 0.0,100.0 Z" fill="#121212"/>
</g>
</svg>
