<?xml version='1.0' encoding='UTF-8'?>
<svg xmlns="http://www.w3.org/2000/svg" version="1.1" width="1920" height="960" viewBox="0 0 1920 960">
  <rect x="0" y="0" width="320" height="320" fill="#F3F3F3"/>
  <g transform="translate(0,0) scale(1.6) rotate(180,100,100)"><path xmlns="http://www.w3.org/2000/svg" d="M200 2.73397e-05L200 100L8.74228e-06 200L3.49691e-05 1.11288e-06L200 2.73397e-05Z" fill="#FF4F00"/>
</g>
  <rect x="320" y="0" width="320" height="320" fill="#FFFFFF"/>
  <g transform="translate(320,0) scale(1.6)"><path xmlns="http://www.w3.org/2000/svg" d="M200 1.97103e-05L200 50L8.74228e-06 100L3.49691e-05 -6.51651e-06L200 1.97103e-05Z" fill="#FF4F00"/>
</g>
  <rect x="640" y="0" width="320" height="320" fill="#FF4F00"/>
  <g transform="translate(640,0) scale(1.6) rotate(270,100,100)"><path xmlns="http://www.w3.org/2000/svg" d="M200 50L200 150L8.74228e-06 150L3.49691e-05 50L200 50Z" fill="#121212"/>
</g>
  <rect x="960" y="0" width="320" height="320" fill="#FFFFFF"/>
  <g transform="translate(960,0) scale(1.6) rotate(180,100,100)"><path xmlns="http://www.w3.org/2000/svg" d="M200 2.73397e-05L200 100L8.74228e-06 200L3.49691e-05 1.11288e-06L200 2.73397e-05Z" fill="#FF4F00"/>
</g>
  <rect x="1280" y="0" width="320" height="320" fill="#121212"/>
  <g transform="translate(1280,0) scale(1.6) rotate(90,100,100)"><path xmlns="http://www.w3.org/2000/svg" d="M200 2.73397e-05L200 100L8.74228e-06 200L3.49691e-05 1.11288e-06L200 2.73397e-05Z" fill="#FF4F00"/>
</g>
  <rect x="1600" y="0" width="320" height="320" fill="#121212"/>
  <g transform="translate(1600,0) scale(1.6) rotate(90,100,100)"><path xmlns="http://www.w3.org/2000/svg" d="M200 25L200 175L8.74228e-06 175L4.15258e-05 25L200 25Z" fill="#4997D0"/>
</g>
  <rect x="0" y="320" width="320" height="320" fill="#FFFFFF"/>
  <g transform="translate(0,320) scale(1.6) rotate(270,100,100)"><path xmlns="http://www.w3.org/2000/svg" d="M200 1.97103e-05L200 50L8.74228e-06 100L3.49691e-05 -6.51651e-06L200 1.97103e-05Z" fill="#FF4F00"/>
</g>
  <rect x="320" y="320" width="320" height="320" fill="#FFFFFF"/>
  <g transform="translate(320,320) scale(1.6)"><path xmlns="http://www.w3.org/2000/svg" d="M200 50L200 150L8.74228e-06 150L3.49691e-05 50L200 50Z" fill="#FF4F00"/>
</g>
  <rect x="640" y="320" width="320" height="320" fill="#121212"/>
  <g transform="translate(640,320) scale(1.6) rotate(180,100,100)"><path xmlns="http://www.w3.org/2000/svg" d="M200 1.67962e-05L200 150L8.74228e-06 150L4.41485e-05 -6.51651e-06L200 1.67962e-05Z" fill="#4997D0"/>
</g>
  <rect x="960" y="320" width="320" height="320" fill="#F3F3F3"/>
  <g transform="translate(960,320) scale(1.6)"><path xmlns="http://www.w3.org/2000/svg" d="M200 9.16683e-06L200 50L8.74228e-06 50L2.92866e-05 -1.41459e-05L200 9.16683e-06Z" fill="#4997D0"/>
</g>
  <rect x="1280" y="320" width="320" height="320" fill="#121212"/>
  <g transform="translate(1280,320) scale(1.6) rotate(270,100,100)"><path xmlns="http://www.w3.org/2000/svg" d="M200 1.67962e-05L200 1.67962e-05C200 82.8427 132.843 150 50 150L8.74228e-06 150L4.41485e-05 -6.51651e-06L200 1.67962e-05Z" fill="#4997D0"/>
</g>
  <rect x="1600" y="320" width="320" height="320" fill="#FFFFFF"/>
  <g transform="translate(1600,320) scale(1.6)"><path xmlns="http://www.w3.org/2000/svg" d="M200 2.62268e-05L200 10L2.23802e-05 100L2.18557e-05 0L200 2.62268e-05Z" fill="#4997D0"/>
</g>
  <rect x="0" y="640" width="320" height="320" fill="#FFFFFF"/>
  <g transform="translate(0,640) scale(1.6) rotate(90,100,100)"><path xmlns="http://www.w3.org/2000/svg" d="M200 5.02279e-05L200 100L2.82157e-05 150L2.84124e-05 2.40011e-05L200 5.02279e-05Z" fill="#FF4F00"/>
</g>
  <rect x="320" y="640" width="320" height="320" fill="#FF4F00"/>
  <g transform="translate(320,640) scale(1.6) rotate(90,100,100)"><path xmlns="http://www.w3.org/2000/svg" d="M200 50L200 150L8.74228e-06 150L3.49691e-05 50L200 50Z" fill="#121212"/>
</g>
  <rect x="640" y="640" width="320" height="320" fill="#F3F3F3"/>
  <g transform="translate(640,640) scale(1.6) rotate(270,100,100)"><path xmlns="http://www.w3.org/2000/svg" d="M200 3.2055e-05L155.47 66.7949C120.815 118.777 62.4745 150 8.74228e-06 150L8.74228e-06 150L4.41485e-05 8.74228e-06L100 2.03986e-05L200 3.2055e-05Z" fill="#4997D0"/>
</g>
  <rect x="960" y="640" width="320" height="320" fill="#FF4F00"/>
  <g transform="translate(960,640) scale(1.6)"><path xmlns="http://www.w3.org/2000/svg" d="M200 95L200 105L8.74228e-06 105L2.3167e-05 95L200 95Z" fill="#4997D0"/>
</g>
  <rect x="1280" y="640" width="320" height="320" fill="#121212"/>
  <g transform="translate(1280,640) scale(1.6) rotate(180,100,100)"><path xmlns="http://www.w3.org/2000/svg" d="M200 5.02279e-05L200 100L2.82157e-05 150L2.84124e-05 2.40011e-05L200 5.02279e-05Z" fill="#FF4F00"/>
</g>
  <rect x="1600" y="640" width="320" height="320" fill="#F3F3F3"/>
  <g transform="translate(1600,640) scale(1.6) rotate(90,100,100)"><path xmlns="http://www.w3.org/2000/svg" d="M200 3.2055e-05L155.47 66.7949C120.815 118.777 62.4745 150 8.74228e-06 150L8.74228e-06 150L4.41485e-05 8.74228e-06L100 2.03986e-05L200 3.2055e-05Z" fill="#121212"/>
</g>
</svg>
