<?xml version='1.0' encoding='UTF-8'?>
<svg xmlns="http://www.w3.org/2000/svg" version="1.1" width="1920" height="960" viewBox="0 0 1920 960">
  <rect x="0" y="0" width="320" height="320" fill="#F3F3F3"/>
  <svg x="0" y="0" width="320" height="320" viewBox="0 0 200 200" overflow="hidden"><path xmlns="http://www.w3.org/2000/svg" d="M125 75L125 125L75 125L75 75L125 75Z" fill="#4997D0"/>
</svg>
  <rect x="320" y="0" width="320" height="320" fill="#F3F3F3"/>
  <svg x="320" y="0" width="320" height="320" viewBox="0 0 200 200" overflow="hidden"><path xmlns="http://www.w3.org/2000/svg" d="M75.0,100.0 A25.0,25.0 0 1,0 125.0,100.0 A25.0,25.0 0 1,0 75.0,100.0 Z" fill="#FF4F00"/>
</svg>
  <rect x="640" y="0" width="320" height="320" fill="#F3F3F3"/>
  <svg x="640" y="0" width="320" height="320" viewBox="0 0 200 200" overflow="hidden"><path xmlns="http://www.w3.org/2000/svg" d="M200 200C132.395 150.473 132.395 49.5275 200 2.62268e-05L-5.22929e-05 0L-6.10352e-05 200L200 200Z" fill="#FFA300" transform="rotate(180,100,100)"/>
</svg>
  <rect x="960" y="0" width="320" height="320" fill="#FF4F00"/>
  <svg x="960" y="0" width="320" height="320" viewBox="0 0 200 200" overflow="hidden"><path xmlns="http://www.w3.org/2000/svg" d="M200 3.49691e-05L8.74228e-06 200L3.49691e-05 8.74228e-06L200 3.49691e-05Z M50 200L200 50L200 200L50 200Z" fill="#FFA300"/>
</svg>
  <rect x="1280" y="0" width="320" height="320" fill="#FFFFFF"/>
  <svg x="1280" y="0" width="320" height="320" viewBox="0 0 200 200" overflow="hidden"><path xmlns="http://www.w3.org/2000/svg" d="M199.1357,102.6482 L197.4770,103.0780 L195.8203,103.4714 L194.1660,103.8289 L192.5144,104.1508 L190.8657,104.4373 L189.2204,104.6889 L187.5787,104.9057 L185.9410,105.0882 L184.3075,105.2366 L182.6786,105.3513 L181.0547,105.4326 L179.4359,105.4808 L177.8227,105.4961 L176.2153,105.4791 L174.6141,105.4298 L173.0193,105.3487 L171.4314,105.2361 L169.8506,105.0923 L168.2772,104.9176 L166.7116,104.7124 L165.1540,104.4769 L163.6048,104.2114 L162.0644,103.9164 L160.5329,103.5920 L159.0108,103.2387 L157.4984,102.8567 L155.9959,102.4463 L154.5037,102.0079 L153.0221,101.5418 L151.5514,101.0483 L150.0920,100.5277 L148.6441,99.9804 L147.2081,99.4066 L145.7842,98.8066 L144.3729,98.1809 L142.9744,97.5296 L141.5891,96.8532 L140.2172,96.1519 L138.8591,95.4261 L137.5150,94.6760 L136.1854,93.9020 L134.8705,93.1045 L133.5707,92.2836 L132.2862,91.4398 L131.0174,90.5733 L129.7645,89.6846 L128.5280,88.7738 L127.3081,87.8413 L126.1052,86.8874 L124.9195,85.9125 L123.7513,84.9168 L122.6011,83.9007 L121.4691,82.8645 L120.3556,81.8085 L119.2610,80.7330 L118.1855,79.6384 L117.1295,78.5249 L116.0933,77.3929 L115.0772,76.2427 L114.0816,75.0746 L113.1067,73.8889 L112.1528,72.6860 L111.2203,71.4661 L110.3096,70.2296 L109.4208,68.9768 L108.5544,67.7080 L107.7106,66.4235 L106.8898,65.1237 L106.0923,63.8089 L105.3183,62.4793 L104.5683,61.1353 L103.8425,59.7772 L103.1413,58.4054 L102.4649,57.0201 L101.8137,55.6217 L101.1880,54.2104 L100.5882,52.7866 L100.0144,51.3507 L99.4671,49.9029 L98.9466,48.4435 L98.4532,46.9729 L97.9872,45.4914 L97.5488,43.9993 L97.1386,42.4969 L96.7566,40.9845 L96.4034,39.4625 L96.0791,37.9311 L95.7842,36.3908 L95.5188,34.8417 L95.2834,33.2842 L95.0783,31.7187 L94.9037,30.1454 L94.7600,28.5647 L94.6475,26.9769 L94.5665,25.3823 L94.5174,23.7812 L94.5004,22.1739 L94.5159,20.5608 L94.5642,18.9422 L94.6456,17.3183 L94.7605,15.6896 L94.9090,14.0562 L95.0916,12.4186 L95.3086,10.7771 L95.5603,9.1319 L95.8470,7.4834 L96.1690,5.8320 L96.5267,4.1778 L96.9203,2.5213 L97.3502,0.8627 L97.5926,0.0000 L0.0000,0.0000 L0.0000,3.1250 L0.0000,6.2500 L0.0000,9.3750 L0.0000,12.5000 L0.0000,15.6250 L0.0000,18.7500 L0.0000,21.8750 L0.0000,25.0000 L0.0000,28.1250 L0.0000,31.2500 L0.0000,34.3750 L0.0000,37.5000 L0.0000,40.6250 L0.0000,43.7500 L0.0000,46.8750 L0.0000,50.0000 L0.0000,53.1250 L0.0000,56.2500 L0.0000,59.3750 L0.0000,62.5000 L0.0000,65.6250 L0.0000,68.7500 L0.0000,71.8750 L0.0000,75.0000 L0.0000,78.1250 L0.0000,81.2500 L0.0000,84.3750 L0.0000,87.5000 L0.0000,90.6250 L0.0000,93.7500 L0.0000,96.8750 L0.0000,100.0000 L0.0000,103.1250 L0.0000,106.2500 L0.0000,109.3750 L0.0000,112.5000 L0.0000,115.6250 L0.0000,118.7500 L0.0000,121.8750 L0.0000,125.0000 L0.0000,128.1250 L0.0000,131.2500 L0.0000,134.3750 L0.0000,137.5000 L0.0000,140.6250 L0.0000,143.7500 L0.0000,146.8750 L0.0000,150.0000 L0.0000,153.1250 L0.0000,156.2500 L0.0000,159.3750 L0.0000,162.5000 L0.0000,165.6250 L0.0000,168.7500 L0.0000,171.8750 L0.0000,175.0000 L0.0000,178.1250 L0.0000,181.2500 L0.0000,184.3750 L0.0000,187.5000 L0.0000,190.6250 L0.0000,193.7500 L0.0000,196.8750 L0.0000,200.0000 L3.1250,200.0000 L6.2500,200.0000 L9.3750,200.0000 L12.5000,200.0000 L15.6250,200.0000 L18.7500,200.0000 L21.8750,200.0000 L25.0000,200.0000 L28.1250,200.0000 L31.2500,200.0000 L34.3750,200.0000 L37.5000,200.0000 L40.6250,200.0000 L43.7500,200.0000 L46.8750,200.0000 L50.0000,200.0000 L53.1250,200.0000 L56.2500,200.0000 L59.3750,200.0000 L62.5000,200.0000 L65.6250,200.0000 L68.7500,200.0000 L71.8750,200.0000 L75.0000,200.0000 L78.1250,200.0000 L81.2500,200.0000 L84.3750,200.0000 L87.5000,200.0000 L90.6250,200.0000 L93.7500,200.0000 L96.8750,200.0000 L100.0000,200.0000 L103.1250,200.0000 L106.2500,200.0000 L109.3750,200.0000 L112.5000,200.0000 L115.6250,200.0000 L118.7500,200.0000 L121.8750,200.0000 L125.0000,200.0000 L128.1250,200.0000 L131.2500,200.0000 L134.3750,200.0000 L137.5000,200.0000 L140.6250,200.0000 L143.7500,200.0000 L146.8750,200.0000 L150.0000,200.0000 L153.1250,200.0000 L156.2500,200.0000 L159.3750,200.0000 L162.5000,200.0000 L165.6250,200.0000 L168.7500,200.0000 L171.8750,200.0000 L175.0000,200.0000 L178.1250,200.0000 L181.2500,200.0000 L184.3750,200.0000 L187.5000,200.0000 L190.6250,200.0000 L193.7500,200.0000 L196.8750,200.0000 L200.0000,200.0000 L200.0000,102.4055 Z" fill="#FF4F00" transform="rotate(180,100,100)"/>
</svg>
  <rect x="1600" y="0" width="320" height="320" fill="#121212"/>
  <svg x="1600" y="0" width="320" height="320" viewBox="0 0 200 200" overflow="hidden"><path xmlns="http://www.w3.org/2000/svg" d="M100 8.74228e-06H8.74228e-06V100C8.74228e-06 44.772 44.772 8.74228e-06 100 8.74228e-06Z" fill="#FF4F00"/>
</svg>
  <rect x="0" y="320" width="320" height="320" fill="#F3F3F3"/>
  <svg x="0" y="320" width="320" height="320" viewBox="0 0 200 200" overflow="hidden"><path xmlns="http://www.w3.org/2000/svg" d="M200 200C144.772 200 8.74228e-06 200 8.74228e-06 200C8.74228e-06 144.772 44.7715 100 100 100C155.228 100 200 144.772 200 200Z M1.74846e-05 -8.74228e-06C55.2285 -3.91405e-06 200 8.74228e-06 200 8.74228e-06C200 55.2285 155.228 100 100 100C44.7715 100 1.26563e-05 55.2285 1.74846e-05 -8.74228e-06Z" fill="#FF4F00" transform="rotate(180,100,100)"/>
</svg>
  <rect x="320" y="320" width="320" height="320" fill="#121212"/>
  <svg x="320" y="320" width="320" height="320" viewBox="0 0 200 200" overflow="hidden"><path xmlns="http://www.w3.org/2000/svg" d="M200 50L200 150L8.74228e-06 150L3.49691e-05 50L200 50Z" fill="#FF4F00"/>
</svg>
  <rect x="640" y="320" width="320" height="320" fill="#FFFFFF"/>
  <svg x="640" y="320" width="320" height="320" viewBox="0 0 200 200" overflow="hidden"><path xmlns="http://www.w3.org/2000/svg" d="M100 100L200 2.62268e-05L3.92599e-05 0L1.52588e-05 200L200 200L100 100Z" fill="#FFA300" transform="rotate(270,100,100)"/>
</svg>
  <rect x="960" y="320" width="320" height="320" fill="#121212"/>
  <svg x="960" y="320" width="320" height="320" viewBox="0 0 200 200" overflow="hidden"><path xmlns="http://www.w3.org/2000/svg" d="M200 5.02279e-05L200 100L2.82157e-05 150L2.84124e-05 2.40011e-05L200 5.02279e-05Z" fill="#FFA300" transform="rotate(90,100,100)"/>
</svg>
  <rect x="1280" y="320" width="320" height="320" fill="#121212"/>
  <svg x="1280" y="320" width="320" height="320" viewBox="0 0 200 200" overflow="hidden"><path xmlns="http://www.w3.org/2000/svg" d="M195 5.00003L195 195L5.00001 195L5.00005 5.00001L195 5.00003Z M200 8.74228e-06L8.74228e-06 200V8.74228e-06H200Z M100 200L200 100V200H100Z" fill="#FF4F00" transform="rotate(270,100,100)"/>
</svg>
  <rect x="1600" y="320" width="320" height="320" fill="#121212"/>
  <svg x="1600" y="320" width="320" height="320" viewBox="0 0 200 200" overflow="hidden"><path xmlns="http://www.w3.org/2000/svg" d="M0.0,100.0 A100.0,50.0 0 1,0 200.0,100.0 A100.0,50.0 0 1,0 0.0,100.0 Z M66.66649999999998,100.0 A33.3333,33.3333 0 1,0 133.3331,100.0 A33.3333,33.3333 0 1,0 66.66649999999998,100.0 Z" fill="#FF4F00" fill-rule="evenodd"/>
</svg>
  <rect x="0" y="640" width="320" height="320" fill="#FFFFFF"/>
  <svg x="0" y="640" width="320" height="320" viewBox="0 0 200 200" overflow="hidden"><path xmlns="http://www.w3.org/2000/svg" d="M200 200L180 200L180 100L200 100L200 200ZM100.028 100L200 99.972C200 99.972 155.241 99.984 100.028 100ZM100.028 100L116 100L116 200L96 200L96 100L74 100L74 200L54 200L54 100L32 100L32 200L12 200L12 100L100.028 100ZM158 200L138 200L138 100L158 100L158 200Z M200 99.9719L8.74228e-06 100L9.93477e-06 -2.38498e-06L100 -1.19249e-06C155.213 -0.0159994 199.984 44.7439 200 99.9719Z M8.74228e-06,100.0 L200.00000874228,100.0 L200.00000874228,200.0 L8.74228e-06,200.0 Z" fill="#121212" fill-rule="evenodd" transform="rotate(270,100,100)"/>
</svg>
  <rect x="320" y="640" width="320" height="320" fill="#F3F3F3"/>
  <svg x="320" y="640" width="320" height="320" viewBox="0 0 200 200" overflow="hidden"><path xmlns="http://www.w3.org/2000/svg" d="M154.082 79.1951C166.139 89.9719 177.338 99.9825 199.941 100C177.338 100.017 166.139 110.028 154.082 120.805C140.012 133.381 124.776 147 88.889 147C36.9794 147 2.16415 184.88 0.239243 200L0.000167847 200L0.000172218 100L0.000176589 2.28984e-05L0.239251 2.29012e-05C2.16416 15.12 36.9794 53.0001 88.8891 53.0001C124.776 53.0001 140.012 66.6193 154.082 79.1951Z" fill="#121212"/>
</svg>
  <rect x="640" y="640" width="320" height="320" fill="#F3F3F3"/>
  <svg x="640" y="640" width="320" height="320" viewBox="0 0 200 200" overflow="hidden"><path xmlns="http://www.w3.org/2000/svg" d="M20 200H40L40 0H20L20 200Z M180 200H200L200 0H180L180 200Z M80 200H60V100V0H80V55.9927C80 57.6415 81.9006 58.604 83.2937 57.7221C83.7889 57.4087 84.2899 57.1037 84.7967 56.8074C93.0078 52.0057 100 44.1641 100 34.6521V0H120V34.6521C120 44.1641 126.992 52.0057 135.203 56.8074C135.71 57.1037 136.211 57.4087 136.706 57.7221C138.099 58.604 140 57.6415 140 55.9927V0H160V100V200H140V144.007C140 142.359 138.099 141.396 136.706 142.278C136.211 142.591 135.71 142.896 135.203 143.193C126.992 147.994 120 155.836 120 165.348V200H100V165.348C100 155.836 93.0079 147.994 84.7967 143.193C84.29 142.896 83.7889 142.591 83.2937 142.278C81.9006 141.396 80 142.359 80 144.007V200Z M20.0,32.5 L35.8333,32.5 L35.8333,48.3333 L20.0,48.3333 Z" fill="#FFA300" fill-rule="evenodd" transform="rotate(180,100,100)"/>
</svg>
  <rect x="960" y="640" width="320" height="320" fill="#FF4F00"/>
  <svg x="960" y="640" width="320" height="320" viewBox="0 0 200 200" overflow="hidden"><path xmlns="http://www.w3.org/2000/svg" d="M200 3.2055e-05L155.47 66.7949C120.815 118.777 62.4745 150 8.74228e-06 150L8.74228e-06 150L4.41485e-05 8.74228e-06L100 2.03986e-05L200 3.2055e-05Z" fill="#121212" transform="rotate(270,100,100)"/>
</svg>
  <rect x="1280" y="640" width="320" height="320" fill="#FFFFFF"/>
  <svg x="1280" y="640" width="320" height="320" viewBox="0 0 200 200" overflow="hidden"><path xmlns="http://www.w3.org/2000/svg" d="M50 0.0140087L0.0140125 6.55732e-06L1.03714e-05 50C27.6063 50.008 49.992 27.628 50 0.0140087Z" fill="#121212"/>
</svg>
  <rect x="1600" y="640" width="320" height="320" fill="#FFFFFF"/>
  <svg x="1600" y="640" width="320" height="320" viewBox="0 0 200 200" overflow="hidden"><path xmlns="http://www.w3.org/2000/svg" d="M100.0,100.0 A50.0,50.0 0 1,0 200.0,100.0 A50.0,50.0 0 1,0 100.0,100.0 Z M100.0,1.11288e-06 A50.0,50.0 0 1,0 200.0,1.11288e-06 A50.0,50.0 0 1,0 100.0,1.11288e-06 Z M100.0,200.0 A50.0,50.0 0 1,0 200.0,200.0 A50.0,50.0 0 1,0 100.0,200.0 Z M200.0000,0.0000 L150.0000,0.0000 L150.0000,0.3125 L150.0000,2.0312 L150.0000,3.7500 L150.0000,5.4688 L150.0000,7.1875 L150.0000,8.9062 L150.0000,10.6250 L150.0000,12.3438 L150.0000,14.0625 L150.0000,15.7812 L150.0000,17.5000 L150.0000,19.2188 L150.0000,20.9375 L150.0000,22.6562 L150.0000,24.3750 L150.0000,26.0938 L150.0000,27.8125 L150.0000,29.5312 L150.0000,31.2500 L150.0000,32.9688 L150.0000,34.6875 L150.0000,36.4062 L150.0000,38.1250 L150.0000,39.8438 L150.0000,41.5625 L150.0000,43.2812 L150.0000,45.0000 L150.0000,46.7188 L150.0000,48.4375 L150.0000,50.1562 L150.0000,51.8750 L150.0000,53.5938 L150.0000,55.3125 L150.0000,57.0312 L150.0000,58.7500 L150.0000,60.4688 L150.0000,62.1875 L150.0000,63.9062 L150.0000,65.6250 L150.0000,67.3438 L150.0000,69.0625 L150.0000,70.7812 L150.0000,72.5000 L150.0000,74.2188 L150.0000,75.9375 L150.0000,77.6562 L150.0000,79.3750 L150.0000,81.0938 L150.0000,82.8125 L150.0000,84.5312 L150.0000,86.2500 L150.0000,87.9688 L150.0000,89.6875 L150.0000,91.4062 L150.0000,93.1250 L150.0000,94.8438 L150.0000,96.5625 L150.0000,98.2812 L150.0000,100.0000 L150.0000,101.7188 L150.0000,103.4375 L150.0000,105.1562 L150.0000,106.8750 L150.0000,108.5938 L150.0000,110.3125 L150.0000,112.0312 L150.0000,113.7500 L150.0000,115.4688 L150.0000,117.1875 L150.0000,118.9062 L150.0000,120.6250 L150.0000,122.3438 L150.0000,124.0625 L150.0000,125.7812 L150.0000,127.5000 L150.0000,129.2188 L150.0000,130.9375 L150.0000,132.6562 L150.0000,134.3750 L150.0000,136.0938 L150.0000,137.8125 L150.0000,139.5312 L150.0000,141.2500 L150.0000,142.9688 L150.0000,144.6875 L150.0000,146.4062 L150.0000,148.1250 L150.0000,149.8438 L150.0000,151.5625 L150.0000,153.2812 L150.0000,155.0000 L150.0000,156.7188 L150.0000,158.4375 L150.0000,160.1562 L150.0000,161.8750 L150.0000,163.5938 L150.0000,165.3125 L150.0000,167.0312 L150.0000,168.7500 L150.0000,170.4688 L150.0000,172.1875 L150.0000,173.9062 L150.0000,175.6250 L150.0000,177.3438 L150.0000,179.0625 L150.0000,180.7812 L150.0000,182.5000 L150.0000,184.2188 L150.0000,185.9375 L150.0000,187.6562 L150.0000,189.3750 L150.0000,191.0938 L150.0000,192.8125 L150.0000,194.5312 L150.0000,196.2500 L150.0000,197.9688 L150.0000,199.6875 L150.0000,200.0000 L200.0000,200.0000 L200.0000,199.6875 L200.0000,197.9688 L200.0000,196.2500 L200.0000,194.5312 L200.0000,192.8125 L200.0000,191.0938 L200.0000,189.3750 L200.0000,187.6562 L200.0000,185.9375 L200.0000,184.2188 L200.0000,182.5000 L200.0000,180.7812 L200.0000,179.0625 L200.0000,177.3438 L200.0000,175.6250 L200.0000,173.9062 L200.0000,172.1875 L200.0000,170.4688 L200.0000,168.7500 L200.0000,167.0312 L200.0000,165.3125 L200.0000,163.5938 L200.0000,161.8750 L200.0000,160.1562 L200.0000,158.4375 L200.0000,156.7188 L200.0000,155.0000 L200.0000,153.2812 L200.0000,151.5625 L200.0000,149.8438 L200.0000,148.1250 L200.0000,146.4062 L200.0000,144.6875 L200.0000,142.9688 L200.0000,141.2500 L200.0000,139.5312 L200.0000,137.8125 L200.0000,136.0938 L200.0000,134.3750 L200.0000,132.6562 L200.0000,130.9375 L200.0000,129.2188 L200.0000,127.5000 L200.0000,125.7812 L200.0000,124.0625 L200.0000,122.3438 L200.0000,120.6250 L200.0000,118.9062 L200.0000,117.1875 L200.0000,115.4688 L200.0000,113.7500 L200.0000,112.0312 L200.0000,110.3125 L200.0000,108.5938 L200.0000,106.8750 L200.0000,105.1562 L200.0000,103.4375 L200.0000,101.7188 L200.0000,100.0000 L200.0000,98.2812 L200.0000,96.5625 L200.0000,94.8438 L200.0000,93.1250 L200.0000,91.4062 L200.0000,89.6875 L200.0000,87.9688 L200.0000,86.2500 L200.0000,84.5312 L200.0000,82.8125 L200.0000,81.0938 L200.0000,79.3750 L200.0000,77.6562 L200.0000,75.9375 L200.0000,74.2188 L200.0000,72.5000 L200.0000,70.7812 L200.0000,69.0625 L200.0000,67.3438 L200.0000,65.6250 L200.0000,63.9062 L200.0000,62.1875 L200.0000,60.4688 L200.0000,58.7500 L200.0000,57.0312 L200.0000,55.3125 L200.0000,53.5938 L200.0000,51.8750 L200.0000,50.1562 L200.0000,48.4375 L200.0000,46.7188 L200.0000,45.0000 L200.0000,43.2812 L200.0000,41.5625 L200.0000,39.8438 L200.0000,38.1250 L200.0000,36.4062 L200.0000,34.6875 L200.0000,32.9688 L200.0000,31.2500 L200.0000,29.5312 L200.0000,27.8125 L200.0000,26.0938 L200.0000,24.3750 L200.0000,22.6562 L200.0000,20.9375 L200.0000,19.2188 L200.0000,17.5000 L200.0000,15.7812 L200.0000,14.0625 L200.0000,12.3438 L200.0000,10.6250 L200.0000,8.9062 L200.0000,7.1875 L200.0000,5.4688 L200.0000,3.7500 L200.0000,2.0312 L200.0000,0.3125 Z" fill="#FF4F00"/>
</svg>
</svg>
