<?xml version='1.0' encoding='UTF-8'?>
<svg xmlns="http://www.w3.org/2000/svg" version="1.1" width="1920" height="960" viewBox="0 0 1920 960">
  <rect x="0" y="0" width="320" height="320" fill="#F3F3F3"/>
  <g transform="translate(0,0) scale(1.6)"><path xmlns="http://www.w3.org/2000/svg" d="M128.1730,143.4165 L127.7647,142.3380 L127.3432,141.2687 L126.9087,140.2085 L126.4613,139.1575 L126.0012,138.1157 L125.5283,137.0833 L125.0430,136.0602 L124.5452,135.0465 L124.0352,134.0423 L123.5131,133.0477 L122.9790,132.0626 L122.4330,131.0871 L121.8752,130.1214 L121.3059,129.1653 L120.7250,128.2191 L120.1329,127.2827 L119.5294,126.3562 L118.9149,125.4397 L118.2894,124.5331 L117.6531,123.6367 L117.0061,122.7503 L116.3485,121.8741 L115.6804,121.0081 L115.0021,120.1524 L114.3135,119.3071 L113.6149,118.4721 L112.9063,117.6475 L112.1880,116.8335 L111.4599,116.0299 L110.7224,115.2370 L109.9754,114.4548 L109.2191,113.6832 L108.4537,112.9224 L107.6792,112.1724 L106.8959,111.4332 L106.1037,110.7050 L105.3030,109.9878 L104.4937,109.2815 L103.6761,108.5864 L102.8502,107.9024 L102.0162,107.2296 L101.1742,106.5680 L100.3243,105.9177 L99.4667,105.2787 L98.6015,104.6512 L97.7288,104.0351 L96.8488,103.4305 L95.9615,102.8375 L95.0672,102.2561 L94.1659,101.6864 L93.2578,101.1284 L92.3430,100.5821 L91.4216,100.0477 L90.4938,99.5252 L89.5597,99.0146 L88.6194,98.5160 L87.6730,98.0294 L86.7207,97.5550 L85.7626,97.0927 L84.7989,96.6426 L83.8296,96.2047 L82.8550,95.7792 L81.8750,95.3660 L80.8899,94.9652 L79.8998,94.5770 L78.9048,94.2012 L77.9050,93.8380 L76.9006,93.4875 L75.8917,93.1497 L74.8785,92.8245 L73.8610,92.5122 L72.8394,92.2128 L71.8138,91.9262 L70.7843,91.6526 L69.7512,91.3920 L68.7144,91.1444 L67.6742,90.9100 L66.6306,90.6888 L65.5839,90.4807 L64.5340,90.2860 L63.4812,90.1045 L62.4256,89.9365 L61.3673,89.7819 L60.3065,89.6408 L59.2432,89.5132 L58.1776,89.3992 L57.1098,89.2989 L56.0400,89.2123 L54.9683,89.1394 L53.8948,89.0804 L52.8197,89.0352 L51.7430,89.0040 L50.6649,88.9867 L49.5856,88.9834 L48.5051,88.9943 L47.4236,89.0192 L46.3413,89.0584 L45.2582,89.1117 L44.1745,89.1794 L43.0903,89.2615 L42.0057,89.3579 L40.9209,89.4688 L39.8360,89.5942 L38.7511,89.7341 L37.6664,89.8887 L36.5819,90.0580 L35.4979,90.2419 L34.4144,90.4407 L33.3316,90.6543 L32.2496,90.8828 L31.1686,91.1262 L30.0886,91.3846 L29.0098,91.6580 L27.9323,91.9465 L26.8562,92.2502 L25.7818,92.5691 L24.7090,92.9033 L23.6381,93.2528 L22.5692,93.6176 L21.5023,93.9979 L20.4377,94.3936 L19.3755,94.8049 L18.3157,95.2317 L17.2585,95.6742 L16.2041,96.1324 L15.1525,96.6063 L14.1040,97.0960 L14.1040,97.0960 L12.4411,97.8665 L10.7774,98.5978 L9.1133,99.2903 L7.4489,99.9443 L5.7847,100.5602 L4.1210,101.1382 L2.4580,101.6787 L0.7961,102.1819 L0.0000,102.4055 L0.0000,200.0000 L3.1250,200.0000 L6.2500,200.0000 L9.3750,200.0000 L12.5000,200.0000 L15.6250,200.0000 L18.7500,200.0000 L21.8750,200.0000 L25.0000,200.0000 L28.1250,200.0000 L31.2500,200.0000 L34.3750,200.0000 L37.5000,200.0000 L40.6250,200.0000 L43.7500,200.0000 L46.8750,200.0000 L50.0000,200.0000 L53.1250,200.0000 L56.2500,200.0000 L59.3750,200.0000 L62.5000,200.0000 L65.6250,200.0000 L68.7500,200.0000 L71.8750,200.0000 L75.0000,200.0000 L78.1250,200.0000 L81.2500,200.0000 L84.3750,200.0000 L87.5000,200.0000 L90.6250,200.0000 L93.7500,200.0000 L96.8750,200.0000 L100.0000,200.0000 L103.1250,200.0000 L106.2500,200.0000 L109.3750,200.0000 L112.5000,200.0000 L115.6250,200.0000 L118.7500,200.0000 L121.8750,200.0000 L125.0000,200.0000 L128.1250,200.0000 L131.2500,200.0000 L134.3750,200.0000 L137.5000,200.0000 L140.6250,200.0000 L143.7500,200.0000 L146.8750,200.0000 L150.0000,200.0000 L153.1250,200.0000 L156.2500,200.0000 L159.3750,200.0000 L162.5000,200.0000 L165.6250,200.0000 L168.7500,200.0000 L171.8750,200.0000 L175.0000,200.0000 L178.1250,200.0000 L181.2500,200.0000 L184.3750,200.0000 L187.5000,200.0000 L190.6250,200.0000 L193.7500,200.0000 L196.8750,200.0000 L200.0000,200.0000 L200.0000,199.9976 L200.0000,199.9951 L200.0000,199.9927 L200.0000,199.9903 L200.0000,199.9878 L200.0000,199.9854 L200.0000,199.9829 L200.0000,199.9805 L200.0000,199.9781 L200.0000,199.9756 L200.0000,199.9732 L200.0000,199.9708 L200.0000,199.9683 L200.0000,199.9659 L200.0000,199.9634 L200.0000,199.9610 L200.0000,199.9586 L200.0000,199.9561 L200.0000,199.9537 L200.0000,199.9512 L200.0000,199.9488 L200.0000,199.9464 L200.0000,199.9439 L200.0000,199.9415 L200.0000,199.9391 L200.0000,199.9366 L200.0000,199.9342 L200.0000,199.9317 L200.0000,199.9293 L200.0000,199.9269 L200.0000,199.9244 L200.0000,199.9220 L200.0000,199.9196 L200.0000,199.9171 L200.0000,199.9147 L200.0000,199.9123 L200.0000,199.9098 L200.0000,199.9074 L200.0000,199.9049 L200.0000,199.9025 L200.0000,199.9001 L200.0000,199.8976 L200.0000,199.8952 L200.0000,199.8928 L200.0000,199.8903 L200.0000,199.8879 L200.0000,199.8854 L200.0000,199.8830 L200.0000,199.8806 L200.0000,199.8781 L200.0000,199.8757 L200.0000,199.8732 L200.0000,199.8708 L200.0000,199.8684 L200.0000,199.8659 L200.0000,199.8635 L200.0000,199.8611 L200.0000,199.8586 L200.0000,199.8562 L200.0000,199.8537 L200.0000,199.8513 L200.0000,199.8489 L200.0000,199.8464 L200.0000,199.8440 L200.0000,199.8416 L200.0000,199.8391 L200.0000,199.8367 L200.0000,199.8342 L200.0000,199.8318 L200.0000,199.8294 L200.0000,199.8269 L200.0000,199.8245 L200.0000,199.8221 L200.0000,199.8196 L200.0000,199.8172 L200.0000,199.8148 L200.0000,199.8123 L200.0000,199.8099 L200.0000,199.8074 L200.0000,199.8050 L200.0000,199.8026 L200.0000,199.8001 L200.0000,199.7977 L200.0000,199.7952 L200.0000,199.7928 L200.0000,199.7904 L200.0000,199.7879 L200.0000,199.7855 L200.0000,199.7831 L200.0000,199.7806 L200.0000,199.7782 L200.0000,199.7757 L200.0000,199.7733 L200.0000,199.7709 L200.0000,199.7684 L200.0000,199.7660 L200.0000,199.7636 L200.0000,199.7611 L200.0000,199.7587 L200.0000,199.7562 L200.0000,199.7538 L200.0000,199.7514 L200.0000,199.7489 L200.0000,199.7465 L200.0000,199.7441 L200.0000,199.7416 L200.0000,199.7392 L200.0000,199.7368 L200.0000,199.7343 L200.0000,199.7319 L200.0000,199.7294 L200.0000,199.7270 L200.0000,199.7246 L200.0000,199.7221 L200.0000,199.7197 L200.0000,199.7172 L200.0000,199.7148 L200.0000,199.7124 L200.0000,199.7099 L200.0000,199.7075 L200.0000,199.7051 L200.0000,199.7026 L200.0000,199.7002 L200.0000,199.6977 L200.0000,199.6953 L200.0000,199.6929 L200.0000,199.6904 L200.0000,199.6880 L199.2915,199.6260 L198.5835,199.5583 L197.8760,199.4847 L197.1691,199.4053 L196.4629,199.3201 L195.7573,199.2290 L195.0524,199.1322 L194.3483,199.0296 L193.6451,198.9211 L192.9426,198.8069 L192.2411,198.6868 L191.5405,198.5609 L190.8409,198.4292 L190.1424,198.2917 L189.4449,198.1484 L188.7485,197.9993 L188.0533,197.8444 L187.3594,197.6836 L186.6666,197.5171 L185.9752,197.3447 L185.2851,197.1665 L184.5964,196.9825 L183.9092,196.7927 L183.2234,196.5971 L182.5391,196.3957 L181.8565,196.1885 L181.1754,195.9754 L180.4960,195.7566 L179.8182,195.5319 L179.1423,195.3014 L178.4681,195.0651 L177.7957,194.8230 L177.1253,194.5751 L176.4567,194.3213 L175.7902,194.0618 L175.1256,193.7964 L174.4631,193.5253 L173.8027,193.2483 L173.1444,192.9655 L172.4884,192.6769 L171.8346,192.3824 L171.1830,192.0822 L170.5338,191.7762 L169.8869,191.4643 L169.2425,191.1466 L168.6005,190.8231 L167.9610,190.4938 L167.3241,190.1587 L166.6898,189.8178 L166.0581,189.4710 L165.4290,189.1184 L164.8027,188.7601 L164.1792,188.3959 L163.5585,188.0259 L162.9406,187.6500 L162.3257,187.2684 L161.7137,186.8810 L161.1047,186.4877 L160.4987,186.0886 L159.8958,185.6837 L159.2961,185.2730 L158.6995,184.8565 L158.1061,184.4342 L157.5160,184.0060 L156.9292,183.5720 L156.3457,183.1322 L155.7657,182.6866 L155.1890,182.2352 L154.6159,181.7780 L154.0463,181.3149 L153.4802,180.8461 L152.9178,180.3714 L152.3590,179.8909 L151.8040,179.4046 L151.2527,178.9125 L150.7051,178.4145 L150.1615,177.9108 L149.6217,177.4012 L149.0858,176.8858 L148.5539,176.3646 L148.0260,175.8375 L147.5022,175.3047 L146.9825,174.7660 L146.4669,174.2215 L145.9556,173.6712 L145.4485,173.1151 L144.9456,172.5532 L144.4471,171.9854 L143.9530,171.4119 L143.4633,170.8325 L142.9780,170.2473 L142.4973,169.6563 L142.0211,169.0594 L141.5495,168.4568 L141.0825,167.8483 L140.6202,167.2340 L140.1627,166.6139 L139.7099,165.9880 L139.2620,165.3562 L138.8189,164.7186 L138.3807,164.0753 L137.9475,163.4260 L137.5193,162.7710 L137.0961,162.1102 L136.6780,161.4435 L136.2650,160.7710 L135.8572,160.0927 L135.4547,159.4086 L135.0574,158.7187 L134.6654,158.0229 L134.2787,157.3213 L133.8975,156.6139 L133.5217,155.9007 L133.1513,155.1817 L132.7866,154.4568 L132.4274,153.7261 L132.0738,152.9896 L131.7258,152.2473 L131.3836,151.4992 L131.0472,150.7452 L130.7165,149.9854 L130.3917,149.2198 L130.0728,148.4484 L129.7598,147.6712 L129.4527,146.8881 L129.1518,146.0992 L128.8568,145.3045 L128.5680,144.5040 Z" fill="#121212"/>
</g>
  <rect x="320" y="0" width="320" height="320" fill="#121212"/>
  <g transform="translate(320,0) scale(1.6) rotate(90,100,100)"><path xmlns="http://www.w3.org/2000/svg" d="M7.50001 14.636C8.0629 19.144 8.66849 25.344 9.23526 33.848C10.4503 52.068 11.118 75.564 11.118 100C11.118 124.436 10.4503 147.932 9.23526 166.152C8.66849 174.656 8.06678 180.856 7.50001 185.364C6.93712 180.856 6.33153 174.656 5.76476 166.152C4.5497 147.932 3.882 124.436 3.882 100C3.882 75.564 4.5497 52.068 5.76476 33.848C6.33153 25.344 6.93324 19.144 7.50001 14.636ZM7.50001 8.74228e-06C3.35793 8.74228e-06 8.74228e-06 44.772 8.74228e-06 100C8.74228e-06 155.228 3.35793 200 7.50001 200C11.6421 200 15 155.228 15 100C15 44.772 11.6421 8.74228e-06 7.50001 8.74228e-06Z M30.8332 4.00001C32.323 4.00001 37.6175 8.80001 42.2392 30.136C46.2722 48.752 48.4949 73.564 48.4949 100C48.4949 126.436 46.2722 151.248 42.2392 169.864C37.6175 191.196 32.323 196 30.8332 196C29.3433 196 24.0488 191.2 19.4271 169.864C15.3942 151.248 13.1714 126.436 13.1714 100C13.1714 73.564 15.3942 48.752 19.4271 30.136C24.0528 8.80001 29.3433 4.00001 30.8332 4.00001ZM30.8332 8.74228e-06C18.8705 8.74228e-06 9.16651 44.772 9.16651 100C9.16651 155.228 18.8664 200 30.8332 200C42.7999 200 52.4998 155.228 52.4998 100C52.4998 44.772 42.7999 8.74228e-06 30.8332 8.74228e-06Z M53.7502 4.00001C57.3006 4.00001 60.9108 6.16401 64.4852 10.432C68.3384 15.036 71.9885 22.02 75.0368 30.628C81.5758 49.096 85.1781 73.732 85.1781 100C85.1781 126.268 81.5758 150.904 75.0368 169.372C71.9885 177.98 68.3384 184.964 64.4852 189.568C60.9108 193.836 57.3006 196 53.7502 196C50.1997 196 46.5895 193.836 43.0152 189.568C39.1619 184.964 35.5119 177.98 32.4635 169.372C25.9245 150.904 22.3223 126.268 22.3223 100C22.3223 73.732 25.9245 49.096 32.4635 30.628C35.5119 22.02 39.1619 15.036 43.0152 10.432C46.5895 6.16401 50.1997 4.00001 53.7502 4.00001ZM53.7502 8.74228e-06C34.1889 8.74228e-06 18.3335 44.772 18.3335 100C18.3335 155.228 34.1889 200 53.7502 200C73.3114 200 89.1668 155.228 89.1668 100C89.1668 44.772 73.3074 8.74228e-06 53.7502 8.74228e-06Z M77.0833 4.00001C82.7931 4.00001 88.4106 6.32001 93.7755 10.9C99.2647 15.584 104.237 22.368 108.547 31.064C117.645 49.412 122.653 73.892 122.653 100C122.653 126.108 117.645 150.592 108.547 168.936C104.237 177.632 99.2647 184.416 93.7755 189.1C88.4106 193.676 82.7931 196 77.0833 196C71.3736 196 65.7561 193.68 60.3912 189.1C54.902 184.416 49.93 177.632 45.6196 168.936C36.5217 150.588 31.5137 126.108 31.5137 100C31.5137 73.892 36.5217 49.408 45.6196 31.064C49.93 22.368 54.902 15.584 60.3912 10.9C65.7561 6.32401 71.3736 4.00001 77.0833 4.00001ZM77.0833 8.74228e-06C49.7014 8.74228e-06 27.5 44.772 27.5 100C27.5 155.228 49.6974 200 77.0833 200C104.469 200 126.667 155.228 126.667 100C126.667 44.772 104.465 8.74228e-06 77.0833 8.74228e-06Z M99.5795 4.00001C107.377 4.00001 114.974 6.41601 122.16 11.184C129.282 15.908 135.707 22.72 141.26 31.428C146.897 40.268 151.327 50.592 154.433 62.108C157.668 74.1 159.306 86.848 159.306 99.996C159.306 113.144 157.668 125.892 154.433 137.884C151.327 149.4 146.897 159.724 141.26 168.564C135.707 177.272 129.282 184.084 122.16 188.808C114.974 193.576 107.377 195.992 99.5795 195.992C91.7817 195.992 84.1852 193.576 76.999 188.808C69.8772 184.084 63.4515 177.272 57.899 168.564C52.2619 159.724 47.8319 149.4 44.7257 137.884C41.4907 125.892 39.8531 113.144 39.8531 99.996C39.8531 86.848 41.4907 74.096 44.7257 62.108C47.8319 50.592 52.2619 40.268 57.899 31.428C63.4515 22.72 69.8772 15.908 76.999 11.184C84.1852 6.41601 91.7817 4.00001 99.5795 4.00001ZM99.5795 8.74228e-06C64.3729 8.74228e-06 35.8335 44.772 35.8335 100C35.8335 155.228 64.3729 200 99.5835 200C134.794 200 163.334 155.228 163.334 100C163.334 44.772 134.786 8.74228e-06 99.5795 8.74228e-06Z M122.496 4.00001C163.019 4.00001 195.985 47.064 195.985 100C195.985 152.936 163.019 196 122.496 196C81.9731 196 49.007 152.936 49.007 100C49.007 47.064 81.9772 4.00001 122.496 4.00001ZM122.496 8.74228e-06C79.6949 8.74228e-06 45 44.772 45 100C45 155.228 79.6989 200 122.5 200C165.301 200 200 155.228 200 100C200 44.772 165.297 8.74228e-06 122.496 8.74228e-06Z" fill="#FF4F00"/>
</g>
  <rect x="640" y="0" width="320" height="320" fill="#121212"/>
  <g transform="translate(640,0) scale(1.6) rotate(180,100,100)"><path xmlns="http://www.w3.org/2000/svg" d="M164.284 172.252C156 148.956 129.388 137.932 107.052 148.548C71.588 165.404 34.592 128.408 51.452 92.948C62.068 70.616 51.044 44.004 27.748 35.716C10.608 29.62 1.41201 15.12 0.156011 8.74414e-06L1.11273e-05 8.74228e-06L8.74228e-06 200L200 200L200 199.844C184.88 198.584 170.38 189.392 164.284 172.252Z" fill="#D9D9D6"/>
</g>
  <rect x="960" y="0" width="320" height="320" fill="#F3F3F3"/>
  <g transform="translate(960,0) scale(1.6) rotate(270,100,100)"><path xmlns="http://www.w3.org/2000/svg" d="M150 8.70392e-06L0.0420009 8.70392e-06L2.18557e-06 150C82.8188 150.024 149.976 82.842 150 8.70392e-06Z" fill="#4997D0"/>
</g>
  <rect x="1280" y="0" width="320" height="320" fill="#121212"/>
  <g transform="translate(1280,0) scale(1.6)"><path xmlns="http://www.w3.org/2000/svg" d="M7.50001 14.636C8.0629 19.144 8.66849 25.344 9.23526 33.848C10.4503 52.068 11.118 75.564 11.118 100C11.118 124.436 10.4503 147.932 9.23526 166.152C8.66849 174.656 8.06678 180.856 7.50001 185.364C6.93712 180.856 6.33153 174.656 5.76476 166.152C4.5497 147.932 3.882 124.436 3.882 100C3.882 75.564 4.5497 52.068 5.76476 33.848C6.33153 25.344 6.93324 19.144 7.50001 14.636ZM7.50001 8.74228e-06C3.35793 8.74228e-06 8.74228e-06 44.772 8.74228e-06 100C8.74228e-06 155.228 3.35793 200 7.50001 200C11.6421 200 15 155.228 15 100C15 44.772 11.6421 8.74228e-06 7.50001 8.74228e-06Z M30.8332 4.00001C32.323 4.00001 37.6175 8.80001 42.2392 30.136C46.2722 48.752 48.4949 73.564 48.4949 100C48.4949 126.436 46.2722 151.248 42.2392 169.864C37.6175 191.196 32.323 196 30.8332 196C29.3433 196 24.0488 191.2 19.4271 169.864C15.3942 151.248 13.1714 126.436 13.1714 100C13.1714 73.564 15.3942 48.752 19.4271 30.136C24.0528 8.80001 29.3433 4.00001 30.8332 4.00001ZM30.8332 8.74228e-06C18.8705 8.74228e-06 9.16651 44.772 9.16651 100C9.16651 155.228 18.8664 200 30.8332 200C42.7999 200 52.4998 155.228 52.4998 100C52.4998 44.772 42.7999 8.74228e-06 30.8332 8.74228e-06Z M53.7502 4.00001C57.3006 4.00001 60.9108 6.16401 64.4852 10.432C68.3384 15.036 71.9885 22.02 75.0368 30.628C81.5758 49.096 85.1781 73.732 85.1781 100C85.1781 126.268 81.5758 150.904 75.0368 169.372C71.9885 177.98 68.3384 184.964 64.4852 189.568C60.9108 193.836 57.3006 196 53.7502 196C50.1997 196 46.5895 193.836 43.0152 189.568C39.1619 184.964 35.5119 177.98 32.4635 169.372C25.9245 150.904 22.3223 126.268 22.3223 100C22.3223 73.732 25.9245 49.096 32.4635 30.628C35.5119 22.02 39.1619 15.036 43.0152 10.432C46.5895 6.16401 50.1997 4.00001 53.7502 4.00001ZM53.7502 8.74228e-06C34.1889 8.74228e-06 18.3335 44.772 18.3335 100C18.3335 155.228 34.1889 200 53.7502 200C73.3114 200 89.1668 155.228 89.1668 100C89.1668 44.772 73.3074 8.74228e-06 53.7502 8.74228e-06Z M77.0833 4.00001C82.7931 4.00001 88.4106 6.32001 93.7755 10.9C99.2647 15.584 104.237 22.368 108.547 31.064C117.645 49.412 122.653 73.892 122.653 100C122.653 126.108 117.645 150.592 108.547 168.936C104.237 177.632 99.2647 184.416 93.7755 189.1C88.4106 193.676 82.7931 196 77.0833 196C71.3736 196 65.7561 193.68 60.3912 189.1C54.902 184.416 49.93 177.632 45.6196 168.936C36.5217 150.588 31.5137 126.108 31.5137 100C31.5137 73.892 36.5217 49.408 45.6196 31.064C49.93 22.368 54.902 15.584 60.3912 10.9C65.7561 6.32401 71.3736 4.00001 77.0833 4.00001ZM77.0833 8.74228e-06C49.7014 8.74228e-06 27.5 44.772 27.5 100C27.5 155.228 49.6974 200 77.0833 200C104.469 200 126.667 155.228 126.667 100C126.667 44.772 104.465 8.74228e-06 77.0833 8.74228e-06Z M99.5795 4.00001C107.377 4.00001 114.974 6.41601 122.16 11.184C129.282 15.908 135.707 22.72 141.26 31.428C146.897 40.268 151.327 50.592 154.433 62.108C157.668 74.1 159.306 86.848 159.306 99.996C159.306 113.144 157.668 125.892 154.433 137.884C151.327 149.4 146.897 159.724 141.26 168.564C135.707 177.272 129.282 184.084 122.16 188.808C114.974 193.576 107.377 195.992 99.5795 195.992C91.7817 195.992 84.1852 193.576 76.999 188.808C69.8772 184.084 63.4515 177.272 57.899 168.564C52.2619 159.724 47.8319 149.4 44.7257 137.884C41.4907 125.892 39.8531 113.144 39.8531 99.996C39.8531 86.848 41.4907 74.096 44.7257 62.108C47.8319 50.592 52.2619 40.268 57.899 31.428C63.4515 22.72 69.8772 15.908 76.999 11.184C84.1852 6.41601 91.7817 4.00001 99.5795 4.00001ZM99.5795 8.74228e-06C64.3729 8.74228e-06 35.8335 44.772 35.8335 100C35.8335 155.228 64.3729 200 99.5835 200C134.794 200 163.334 155.228 163.334 100C163.334 44.772 134.786 8.74228e-06 99.5795 8.74228e-06Z M122.496 4.00001C163.019 4.00001 195.985 47.064 195.985 100C195.985 152.936 163.019 196 122.496 196C81.9731 196 49.007 152.936 49.007 100C49.007 47.064 81.9772 4.00001 122.496 4.00001ZM122.496 8.74228e-06C79.6949 8.74228e-06 45 44.772 45 100C45 155.228 79.6989 200 122.5 200C165.301 200 200 155.228 200 100C200 44.772 165.297 8.74228e-06 122.496 8.74228e-06Z" fill="#4997D0"/>
</g>
  <rect x="1600" y="0" width="320" height="320" fill="#FF4F00"/>
  <g transform="translate(1600,0) scale(1.6) rotate(90,100,100)"><path xmlns="http://www.w3.org/2000/svg" d="M164.256 27.6135C155.966 50.9277 129.333 61.9603 106.979 51.3361C71.4878 34.4669 34.4629 71.4918 51.3361 106.979C61.9603 129.329 50.9277 155.962 27.6135 164.256C10.4602 170.357 1.25699 184.868 8.74228e-06 200H200V8.74228e-06C184.868 1.26099 170.357 10.4602 164.256 27.6135Z" fill="#D9D9D6"/>
</g>
  <rect x="0" y="320" width="320" height="320" fill="#121212"/>
  <g transform="translate(0,320) scale(1.6) rotate(180,100,100)"><path xmlns="http://www.w3.org/2000/svg" d="M200 2.44739e-09L-6.51651e-06 2.4471e-09L0 200C110.425 200.032 199.968 110.456 200 2.44739e-09Z" fill="#FF4F00"/>
</g>
  <rect x="320" y="320" width="320" height="320" fill="#F3F3F3"/>
  <g transform="translate(320,320) scale(1.6) rotate(270,100,100)"><path xmlns="http://www.w3.org/2000/svg" d="M100 4.37114e-06C44.7715 4.37114e-06 6.78525e-06 44.7715 4.37114e-06 100L0 200L200 200L200 100C200 44.7715 155.228 4.37114e-06 100 4.37114e-06Z M8.74228e-06,8.74228e-06 L100.00000874228,8.74228e-06 L100.00000874228,100.00000874228 L8.74228e-06,100.00000874228 Z M100.0,8.74228e-06 L200.0,8.74228e-06 L200.0,100.00000874228 L100.0,100.00000874228 Z" fill="#FF4F00" fill-rule="evenodd"/>
</g>
  <rect x="640" y="320" width="320" height="320" fill="#FFFFFF"/>
  <g transform="translate(640,320) scale(1.6)"><path xmlns="http://www.w3.org/2000/svg" d="M7.50001 14.636C8.0629 19.144 8.66849 25.344 9.23526 33.848C10.4503 52.068 11.118 75.564 11.118 100C11.118 124.436 10.4503 147.932 9.23526 166.152C8.66849 174.656 8.06678 180.856 7.50001 185.364C6.93712 180.856 6.33153 174.656 5.76476 166.152C4.5497 147.932 3.882 124.436 3.882 100C3.882 75.564 4.5497 52.068 5.76476 33.848C6.33153 25.344 6.93324 19.144 7.50001 14.636ZM7.50001 8.74228e-06C3.35793 8.74228e-06 8.74228e-06 44.772 8.74228e-06 100C8.74228e-06 155.228 3.35793 200 7.50001 200C11.6421 200 15 155.228 15 100C15 44.772 11.6421 8.74228e-06 7.50001 8.74228e-06Z M30.8332 4.00001C32.323 4.00001 37.6175 8.80001 42.2392 30.136C46.2722 48.752 48.4949 73.564 48.4949 100C48.4949 126.436 46.2722 151.248 42.2392 169.864C37.6175 191.196 32.323 196 30.8332 196C29.3433 196 24.0488 191.2 19.4271 169.864C15.3942 151.248 13.1714 126.436 13.1714 100C13.1714 73.564 15.3942 48.752 19.4271 30.136C24.0528 8.80001 29.3433 4.00001 30.8332 4.00001ZM30.8332 8.74228e-06C18.8705 8.74228e-06 9.16651 44.772 9.16651 100C9.16651 155.228 18.8664 200 30.8332 200C42.7999 200 52.4998 155.228 52.4998 100C52.4998 44.772 42.7999 8.74228e-06 30.8332 8.74228e-06Z M53.7502 4.00001C57.3006 4.00001 60.9108 6.16401 64.4852 10.432C68.3384 15.036 71.9885 22.02 75.0368 30.628C81.5758 49.096 85.1781 73.732 85.1781 100C85.1781 126.268 81.5758 150.904 75.0368 169.372C71.9885 177.98 68.3384 184.964 64.4852 189.568C60.9108 193.836 57.3006 196 53.7502 196C50.1997 196 46.5895 193.836 43.0152 189.568C39.1619 184.964 35.5119 177.98 32.4635 169.372C25.9245 150.904 22.3223 126.268 22.3223 100C22.3223 73.732 25.9245 49.096 32.4635 30.628C35.5119 22.02 39.1619 15.036 43.0152 10.432C46.5895 6.16401 50.1997 4.00001 53.7502 4.00001ZM53.7502 8.74228e-06C34.1889 8.74228e-06 18.3335 44.772 18.3335 100C18.3335 155.228 34.1889 200 53.7502 200C73.3114 200 89.1668 155.228 89.1668 100C89.1668 44.772 73.3074 8.74228e-06 53.7502 8.74228e-06Z M77.0833 4.00001C82.7931 4.00001 88.4106 6.32001 93.7755 10.9C99.2647 15.584 104.237 22.368 108.547 31.064C117.645 49.412 122.653 73.892 122.653 100C122.653 126.108 117.645 150.592 108.547 168.936C104.237 177.632 99.2647 184.416 93.7755 189.1C88.4106 193.676 82.7931 196 77.0833 196C71.3736 196 65.7561 193.68 60.3912 189.1C54.902 184.416 49.93 177.632 45.6196 168.936C36.5217 150.588 31.5137 126.108 31.5137 100C31.5137 73.892 36.5217 49.408 45.6196 31.064C49.93 22.368 54.902 15.584 60.3912 10.9C65.7561 6.32401 71.3736 4.00001 77.0833 4.00001ZM77.0833 8.74228e-06C49.7014 8.74228e-06 27.5 44.772 27.5 100C27.5 155.228 49.6974 200 77.0833 200C104.469 200 126.667 155.228 126.667 100C126.667 44.772 104.465 8.74228e-06 77.0833 8.74228e-06Z M99.5795 4.00001C107.377 4.00001 114.974 6.41601 122.16 11.184C129.282 15.908 135.707 22.72 141.26 31.428C146.897 40.268 151.327 50.592 154.433 62.108C157.668 74.1 159.306 86.848 159.306 99.996C159.306 113.144 157.668 125.892 154.433 137.884C151.327 149.4 146.897 159.724 141.26 168.564C135.707 177.272 129.282 184.084 122.16 188.808C114.974 193.576 107.377 195.992 99.5795 195.992C91.7817 195.992 84.1852 193.576 76.999 188.808C69.8772 184.084 63.4515 177.272 57.899 168.564C52.2619 159.724 47.8319 149.4 44.7257 137.884C41.4907 125.892 39.8531 113.144 39.8531 99.996C39.8531 86.848 41.4907 74.096 44.7257 62.108C47.8319 50.592 52.2619 40.268 57.899 31.428C63.4515 22.72 69.8772 15.908 76.999 11.184C84.1852 6.41601 91.7817 4.00001 99.5795 4.00001ZM99.5795 8.74228e-06C64.3729 8.74228e-06 35.8335 44.772 35.8335 100C35.8335 155.228 64.3729 200 99.5835 200C134.794 200 163.334 155.228 163.334 100C163.334 44.772 134.786 8.74228e-06 99.5795 8.74228e-06Z M122.496 4.00001C163.019 4.00001 195.985 47.064 195.985 100C195.985 152.936 163.019 196 122.496 196C81.9731 196 49.007 152.936 49.007 100C49.007 47.064 81.9772 4.00001 122.496 4.00001ZM122.496 8.74228e-06C79.6949 8.74228e-06 45 44.772 45 100C45 155.228 79.6989 200 122.5 200C165.301 200 200 155.228 200 100C200 44.772 165.297 8.74228e-06 122.496 8.74228e-06Z" fill="#FF4F00"/>
</g>
  <rect x="960" y="320" width="320" height="320" fill="#121212"/>
  <g transform="translate(960,320) scale(1.6) rotate(90,100,100)"><path xmlns="http://www.w3.org/2000/svg" d="M7.50001 14.636C8.0629 19.144 8.66849 25.344 9.23526 33.848C10.4503 52.068 11.118 75.564 11.118 100C11.118 124.436 10.4503 147.932 9.23526 166.152C8.66849 174.656 8.06678 180.856 7.50001 185.364C6.93712 180.856 6.33153 174.656 5.76476 166.152C4.5497 147.932 3.882 124.436 3.882 100C3.882 75.564 4.5497 52.068 5.76476 33.848C6.33153 25.344 6.93324 19.144 7.50001 14.636ZM7.50001 8.74228e-06C3.35793 8.74228e-06 8.74228e-06 44.772 8.74228e-06 100C8.74228e-06 155.228 3.35793 200 7.50001 200C11.6421 200 15 155.228 15 100C15 44.772 11.6421 8.74228e-06 7.50001 8.74228e-06Z M30.8332 4.00001C32.323 4.00001 37.6175 8.80001 42.2392 30.136C46.2722 48.752 48.4949 73.564 48.4949 100C48.4949 126.436 46.2722 151.248 42.2392 169.864C37.6175 191.196 32.323 196 30.8332 196C29.3433 196 24.0488 191.2 19.4271 169.864C15.3942 151.248 13.1714 126.436 13.1714 100C13.1714 73.564 15.3942 48.752 19.4271 30.136C24.0528 8.80001 29.3433 4.00001 30.8332 4.00001ZM30.8332 8.74228e-06C18.8705 8.74228e-06 9.16651 44.772 9.16651 100C9.16651 155.228 18.8664 200 30.8332 200C42.7999 200 52.4998 155.228 52.4998 100C52.4998 44.772 42.7999 8.74228e-06 30.8332 8.74228e-06Z M53.7502 4.00001C57.3006 4.00001 60.9108 6.16401 64.4852 10.432C68.3384 15.036 71.9885 22.02 75.0368 30.628C81.5758 49.096 85.1781 73.732 85.1781 100C85.1781 126.268 81.5758 150.904 75.0368 169.372C71.9885 177.98 68.3384 184.964 64.4852 189.568C60.9108 193.836 57.3006 196 53.7502 196C50.1997 196 46.5895 193.836 43.0152 189.568C39.1619 184.964 35.5119 177.98 32.4635 169.372C25.9245 150.904 22.3223 126.268 22.3223 100C22.3223 73.732 25.9245 49.096 32.4635 30.628C35.5119 22.02 39.1619 15.036 43.0152 10.432C46.5895 6.16401 50.1997 4.00001 53.7502 4.00001ZM53.7502 8.74228e-06C34.1889 8.74228e-06 18.3335 44.772 18.3335 100C18.3335 155.228 34.1889 200 53.7502 200C73.3114 200 89.1668 155.228 89.1668 100C89.1668 44.772 73.3074 8.74228e-06 53.7502 8.74228e-06Z M77.0833 4.00001C82.7931 4.00001 88.4106 6.32001 93.7755 10.9C99.2647 15.584 104.237 22.368 108.547 31.064C117.645 49.412 122.653 73.892 122.653 100C122.653 126.108 117.645 150.592 108.547 168.936C104.237 177.632 99.2647 184.416 93.7755 189.1C88.4106 193.676 82.7931 196 77.0833 196C71.3736 196 65.7561 193.68 60.3912 189.1C54.902 184.416 49.93 177.632 45.6196 168.936C36.5217 150.588 31.5137 126.108 31.5137 100C31.5137 73.892 36.5217 49.408 45.6196 31.064C49.93 22.368 54.902 15.584 60.3912 10.9C65.7561 6.32401 71.3736 4.00001 77.0833 4.00001ZM77.0833 8.74228e-06C49.7014 8.74228e-06 27.5 44.772 27.5 100C27.5 155.228 49.6974 200 77.0833 200C104.469 200 126.667 155.228 126.667 100C126.667 44.772 104.465 8.74228e-06 77.0833 8.74228e-06Z M99.5795 4.00001C107.377 4.00001 114.974 6.41601 122.16 11.184C129.282 15.908 135.707 22.72 141.26 31.428C146.897 40.268 151.327 50.592 154.433 62.108C157.668 74.1 159.306 86.848 159.306 99.996C159.306 113.144 157.668 125.892 154.433 137.884C151.327 149.4 146.897 159.724 141.26 168.564C135.707 177.272 129.282 184.084 122.16 188.808C114.974 193.576 107.377 195.992 99.5795 195.992C91.7817 195.992 84.1852 193.576 76.999 188.808C69.8772 184.084 63.4515 177.272 57.899 168.564C52.2619 159.724 47.8319 149.4 44.7257 137.884C41.4907 125.892 39.8531 113.144 39.8531 99.996C39.8531 86.848 41.4907 74.096 44.7257 62.108C47.8319 50.592 52.2619 40.268 57.899 31.428C63.4515 22.72 69.8772 15.908 76.999 11.184C84.1852 6.41601 91.7817 4.00001 99.5795 4.00001ZM99.5795 8.74228e-06C64.3729 8.74228e-06 35.8335 44.772 35.8335 100C35.8335 155.228 64.3729 200 99.5835 200C134.794 200 163.334 155.228 163.334 100C163.334 44.772 134.786 8.74228e-06 99.5795 8.74228e-06Z M122.496 4.00001C163.019 4.00001 195.985 47.064 195.985 100C195.985 152.936 163.019 196 122.496 196C81.9731 196 49.007 152.936 49.007 100C49.007 47.064 81.9772 4.00001 122.496 4.00001ZM122.496 8.74228e-06C79.6949 8.74228e-06 45 44.772 45 100C45 155.228 79.6989 200 122.5 200C165.301 200 200 155.228 200 100C200 44.772 165.297 8.74228e-06 122.496 8.74228e-06Z" fill="#FF4F00"/>
</g>
  <rect x="1280" y="320" width="320" height="320" fill="#FFFFFF"/>
  <g transform="translate(1280,320) scale(1.6) rotate(180,100,100)"><path xmlns="http://www.w3.org/2000/svg" d="M164.284 172.252C156 148.956 129.388 137.932 107.052 148.548C71.588 165.404 34.592 128.408 51.452 92.948C62.068 70.616 51.044 44.004 27.748 35.716C10.608 29.62 1.41201 15.12 0.156011 8.74414e-06L1.11273e-05 8.74228e-06L8.74228e-06 200L200 200L200 199.844C184.88 198.584 170.38 189.392 164.284 172.252Z" fill="#121212"/>
</g>
  <rect x="1600" y="320" width="320" height="320" fill="#121212"/>
  <g transform="translate(1600,320) scale(1.6) rotate(270,100,100)"><path xmlns="http://www.w3.org/2000/svg" d="M7.50001 14.636C8.0629 19.144 8.66849 25.344 9.23526 33.848C10.4503 52.068 11.118 75.564 11.118 100C11.118 124.436 10.4503 147.932 9.23526 166.152C8.66849 174.656 8.06678 180.856 7.50001 185.364C6.93712 180.856 6.33153 174.656 5.76476 166.152C4.5497 147.932 3.882 124.436 3.882 100C3.882 75.564 4.5497 52.068 5.76476 33.848C6.33153 25.344 6.93324 19.144 7.50001 14.636ZM7.50001 8.74228e-06C3.35793 8.74228e-06 8.74228e-06 44.772 8.74228e-06 100C8.74228e-06 155.228 3.35793 200 7.50001 200C11.6421 200 15 155.228 15 100C15 44.772 11.6421 8.74228e-06 7.50001 8.74228e-06Z M30.8332 4.00001C32.323 4.00001 37.6175 8.80001 42.2392 30.136C46.2722 48.752 48.4949 73.564 48.4949 100C48.4949 126.436 46.2722 151.248 42.2392 169.864C37.6175 191.196 32.323 196 30.8332 196C29.3433 196 24.0488 191.2 19.4271 169.864C15.3942 151.248 13.1714 126.436 13.1714 100C13.1714 73.564 15.3942 48.752 19.4271 30.136C24.0528 8.80001 29.3433 4.00001 30.8332 4.00001ZM30.8332 8.74228e-06C18.8705 8.74228e-06 9.16651 44.772 9.16651 100C9.16651 155.228 18.8664 200 30.8332 200C42.7999 200 52.4998 155.228 52.4998 100C52.4998 44.772 42.7999 8.74228e-06 30.8332 8.74228e-06Z M53.7502 4.00001C57.3006 4.00001 60.9108 6.16401 64.4852 10.432C68.3384 15.036 71.9885 22.02 75.0368 30.628C81.5758 49.096 85.1781 73.732 85.1781 100C85.1781 126.268 81.5758 150.904 75.0368 169.372C71.9885 177.98 68.3384 184.964 64.4852 189.568C60.9108 193.836 57.3006 196 53.7502 196C50.1997 196 46.5895 193.836 43.0152 189.568C39.1619 184.964 35.5119 177.98 32.4635 169.372C25.9245 150.904 22.3223 126.268 22.3223 100C22.3223 73.732 25.9245 49.096 32.4635 30.628C35.5119 22.02 39.1619 15.036 43.0152 10.432C46.5895 6.16401 50.1997 4.00001 53.7502 4.00001ZM53.7502 8.74228e-06C34.1889 8.74228e-06 18.3335 44.772 18.3335 100C18.3335 155.228 34.1889 200 53.7502 200C73.3114 200 89.1668 155.228 89.1668 100C89.1668 44.772 73.3074 8.74228e-06 53.7502 8.74228e-06Z M77.0833 4.00001C82.7931 4.00001 88.4106 6.32001 93.7755 10.9C99.2647 15.584 104.237 22.368 108.547 31.064C117.645 49.412 122.653 73.892 122.653 100C122.653 126.108 117.645 150.592 108.547 168.936C104.237 177.632 99.2647 184.416 93.7755 189.1C88.4106 193.676 82.7931 196 77.0833 196C71.3736 196 65.7561 193.68 60.3912 189.1C54.902 184.416 49.93 177.632 45.6196 168.936C36.5217 150.588 31.5137 126.108 31.5137 100C31.5137 73.892 36.5217 49.408 45.6196 31.064C49.93 22.368 54.902 15.584 60.3912 10.9C65.7561 6.32401 71.3736 4.00001 77.0833 4.00001ZM77.0833 8.74228e-06C49.7014 8.74228e-06 27.5 44.772 27.5 100C27.5 155.228 49.6974 200 77.0833 200C104.469 200 126.667 155.228 126.667 100C126.667 44.772 104.465 8.74228e-06 77.0833 8.74228e-06Z M99.5795 4.00001C107.377 4.00001 114.974 6.41601 122.16 11.184C129.282 15.908 135.707 22.72 141.26 31.428C146.897 40.268 151.327 50.592 154.433 62.108C157.668 74.1 159.306 86.848 159.306 99.996C159.306 113.144 157.668 125.892 154.433 137.884C151.327 149.4 146.897 159.724 141.26 168.564C135.707 177.272 129.282 184.084 122.16 188.808C114.974 193.576 107.377 195.992 99.5795 195.992C91.7817 195.992 84.1852 193.576 76.999 188.808C69.8772 184.084 63.4515 177.272 57.899 168.564C52.2619 159.724 47.8319 149.4 44.7257 137.884C41.4907 125.892 39.8531 113.144 39.8531 99.996C39.8531 86.848 41.4907 74.096 44.7257 62.108C47.8319 50.592 52.2619 40.268 57.899 31.428C63.4515 22.72 69.8772 15.908 76.999 11.184C84.1852 6.41601 91.7817 4.00001 99.5795 4.00001ZM99.5795 8.74228e-06C64.3729 8.74228e-06 35.8335 44.772 35.8335 100C35.8335 155.228 64.3729 200 99.5835 200C134.794 200 163.334 155.228 163.334 100C163.334 44.772 134.786 8.74228e-06 99.5795 8.74228e-06Z M122.496 4.00001C163.019 4.00001 195.985 47.064 195.985 100C195.985 152.936 163.019 196 122.496 196C81.9731 196 49.007 152.936 49.007 100C49.007 47.064 81.9772 4.00001 122.496 4.00001ZM122.496 8.74228e-06C79.6949 8.74228e-06 45 44.772 45 100C45 155.228 79.6989 200 122.5 200C165.301 200 200 155.228 200 100C200 44.772 165.297 8.74228e-06 122.496 8.74228e-06Z" fill="#D9D9D6"/>
</g>
  <rect x="0" y="640" width="320" height="320" fill="#FF4F00"/>
  <g transform="translate(0,640) scale(1.6)"><path xmlns="http://www.w3.org/2000/svg" d="M128.1730,143.4165 L127.7647,142.3380 L127.3432,141.2687 L126.9087,140.2085 L126.4613,139.1575 L126.0012,138.1157 L125.5283,137.0833 L125.0430,136.0602 L124.5452,135.0465 L124.0352,134.0423 L123.5131,133.0477 L122.9790,132.0626 L122.4330,131.0871 L121.8752,130.1214 L121.3059,129.1653 L120.7250,128.2191 L120.1329,127.2827 L119.5294,126.3562 L118.9149,125.4397 L118.2894,124.5331 L117.6531,123.6367 L117.0061,122.7503 L116.3485,121.8741 L115.6804,121.0081 L115.0021,120.1524 L114.3135,119.3071 L113.6149,118.4721 L112.9063,117.6475 L112.1880,116.8335 L111.4599,116.0299 L110.7224,115.2370 L109.9754,114.4548 L109.2191,113.6832 L108.4537,112.9224 L107.6792,112.1724 L106.8959,111.4332 L106.1037,110.7050 L105.3030,109.9878 L104.4937,109.2815 L103.6761,108.5864 L102.8502,107.9024 L102.0162,107.2296 L101.1742,106.5680 L100.3243,105.9177 L99.4667,105.2787 L98.6015,104.6512 L97.7288,104.0351 L96.8488,103.4305 L95.9615,102.8375 L95.0672,102.2561 L94.1659,101.6864 L93.2578,101.1284 L92.3430,100.5821 L91.4216,100.0477 L90.4938,99.5252 L89.5597,99.0146 L88.6194,98.5160 L87.6730,98.0294 L86.7207,97.5550 L85.7626,97.0927 L84.7989,96.6426 L83.8296,96.2047 L82.8550,95.7792 L81.8750,95.3660 L80.8899,94.9652 L79.8998,94.5770 L78.9048,94.2012 L77.9050,93.8380 L76.9006,93.4875 L75.8917,93.1497 L74.8785,92.8245 L73.8610,92.5122 L72.8394,92.2128 L71.8138,91.9262 L70.7843,91.6526 L69.7512,91.3920 L68.7144,91.1444 L67.6742,90.9100 L66.6306,90.6888 L65.5839,90.4807 L64.5340,90.2860 L63.4812,90.1045 L62.4256,89.9365 L61.3673,89.7819 L60.3065,89.6408 L59.2432,89.5132 L58.1776,89.3992 L57.1098,89.2989 L56.0400,89.2123 L54.9683,89.1394 L53.8948,89.0804 L52.8197,89.0352 L51.7430,89.0040 L50.6649,88.9867 L49.5856,88.9834 L48.5051,88.9943 L47.4236,89.0192 L46.3413,89.0584 L45.2582,89.1117 L44.1745,89.1794 L43.0903,89.2615 L42.0057,89.3579 L40.9209,89.4688 L39.8360,89.5942 L38.7511,89.7341 L37.6664,89.8887 L36.5819,90.0580 L35.4979,90.2419 L34.4144,90.4407 L33.3316,90.6543 L32.2496,90.8828 L31.1686,91.1262 L30.0886,91.3846 L29.0098,91.6580 L27.9323,91.9465 L26.8562,92.2502 L25.7818,92.5691 L24.7090,92.9033 L23.6381,93.2528 L22.5692,93.6176 L21.5023,93.9979 L20.4377,94.3936 L19.3755,94.8049 L18.3157,95.2317 L17.2585,95.6742 L16.2041,96.1324 L15.1525,96.6063 L14.1040,97.0960 L14.1040,97.0960 L12.4411,97.8665 L10.7774,98.5978 L9.1133,99.2903 L7.4489,99.9443 L5.7847,100.5602 L4.1210,101.1382 L2.4580,101.6787 L0.7961,102.1819 L0.0000,102.4055 L0.0000,200.0000 L3.1250,200.0000 L6.2500,200.0000 L9.3750,200.0000 L12.5000,200.0000 L15.6250,200.0000 L18.7500,200.0000 L21.8750,200.0000 L25.0000,200.0000 L28.1250,200.0000 L31.2500,200.0000 L34.3750,200.0000 L37.5000,200.0000 L40.6250,200.0000 L43.7500,200.0000 L46.8750,200.0000 L50.0000,200.0000 L53.1250,200.0000 L56.2500,200.0000 L59.3750,200.0000 L62.5000,200.0000 L65.6250,200.0000 L68.7500,200.0000 L71.8750,200.0000 L75.0000,200.0000 L78.1250,200.0000 L81.2500,200.0000 L84.3750,200.0000 L87.5000,200.0000 L90.6250,200.0000 L93.7500,200.0000 L96.8750,200.0000 L100.0000,200.0000 L103.1250,200.0000 L106.2500,200.0000 L109.3750,200.0000 L112.5000,200.0000 L115.6250,200.0000 L118.7500,200.0000 L121.8750,200.0000 L125.0000,200.0000 L128.1250,200.0000 L131.2500,200.0000 L134.3750,200.0000 L137.5000,200.0000 L140.6250,200.0000 L143.7500,200.0000 L146.8750,200.0000 L150.0000,200.0000 L153.1250,200.0000 L156.2500,200.0000 L159.3750,200.0000 L162.5000,200.0000 L165.6250,200.0000 L168.7500,200.0000 L171.8750,200.0000 L175.0000,200.0000 L178.1250,200.0000 L181.2500,200.0000 L184.3750,200.0000 L187.5000,200.0000 L190.6250,200.0000 L193.7500,200.0000 L196.8750,200.0000 L200.0000,200.0000 L200.0000,199.9976 L200.0000,199.9951 L200.0000,199.9927 L200.0000,199.9903 L200.0000,199.9878 L200.0000,199.9854 L200.0000,199.9829 L200.0000,199.9805 L200.0000,199.9781 L200.0000,199.9756 L200.0000,199.9732 L200.0000,199.9708 L200.0000,199.9683 L200.0000,199.9659 L200.0000,199.9634 L200.0000,199.9610 L200.0000,199.9586 L200.0000,199.9561 L200.0000,199.9537 L200.0000,199.9512 L200.0000,199.9488 L200.0000,199.9464 L200.0000,199.9439 L200.0000,199.9415 L200.0000,199.9391 L200.0000,199.9366 L200.0000,199.9342 L200.0000,199.9317 L200.0000,199.9293 L200.0000,199.9269 L200.0000,199.9244 L200.0000,199.9220 L200.0000,199.9196 L200.0000,199.9171 L200.0000,199.9147 L200.0000,199.9123 L200.0000,199.9098 L200.0000,199.9074 L200.0000,199.9049 L200.0000,199.9025 L200.0000,199.9001 L200.0000,199.8976 L200.0000,199.8952 L200.0000,199.8928 L200.0000,199.8903 L200.0000,199.8879 L200.0000,199.8854 L200.0000,199.8830 L200.0000,199.8806 L200.0000,199.8781 L200.0000,199.8757 L200.0000,199.8732 L200.0000,199.8708 L200.0000,199.8684 L200.0000,199.8659 L200.0000,199.8635 L200.0000,199.8611 L200.0000,199.8586 L200.0000,199.8562 L200.0000,199.8537 L200.0000,199.8513 L200.0000,199.8489 L200.0000,199.8464 L200.0000,199.8440 L200.0000,199.8416 L200.0000,199.8391 L200.0000,199.8367 L200.0000,199.8342 L200.0000,199.8318 L200.0000,199.8294 L200.0000,199.8269 L200.0000,199.8245 L200.0000,199.8221 L200.0000,199.8196 L200.0000,199.8172 L200.0000,199.8148 L200.0000,199.8123 L200.0000,199.8099 L200.0000,199.8074 L200.0000,199.8050 L200.0000,199.8026 L200.0000,199.8001 L200.0000,199.7977 L200.0000,199.7952 L200.0000,199.7928 L200.0000,199.7904 L200.0000,199.7879 L200.0000,199.7855 L200.0000,199.7831 L200.0000,199.7806 L200.0000,199.7782 L200.0000,199.7757 L200.0000,199.7733 L200.0000,199.7709 L200.0000,199.7684 L200.0000,199.7660 L200.0000,199.7636 L200.0000,199.7611 L200.0000,199.7587 L200.0000,199.7562 L200.0000,199.7538 L200.0000,199.7514 L200.0000,199.7489 L200.0000,199.7465 L200.0000,199.7441 L200.0000,199.7416 L200.0000,199.7392 L200.0000,199.7368 L200.0000,199.7343 L200.0000,199.7319 L200.0000,199.7294 L200.0000,199.7270 L200.0000,199.7246 L200.0000,199.7221 L200.0000,199.7197 L200.0000,199.7172 L200.0000,199.7148 L200.0000,199.7124 L200.0000,199.7099 L200.0000,199.7075 L200.0000,199.7051 L200.0000,199.7026 L200.0000,199.7002 L200.0000,199.6977 L200.0000,199.6953 L200.0000,199.6929 L200.0000,199.6904 L200.0000,199.6880 L199.2915,199.6260 L198.5835,199.5583 L197.8760,199.4847 L197.1691,199.4053 L196.4629,199.3201 L195.7573,199.2290 L195.0524,199.1322 L194.3483,199.0296 L193.6451,198.9211 L192.9426,198.8069 L192.2411,198.6868 L191.5405,198.5609 L190.8409,198.4292 L190.1424,198.2917 L189.4449,198.1484 L188.7485,197.9993 L188.0533,197.8444 L187.3594,197.6836 L186.6666,197.5171 L185.9752,197.3447 L185.2851,197.1665 L184.5964,196.9825 L183.9092,196.7927 L183.2234,196.5971 L182.5391,196.3957 L181.8565,196.1885 L181.1754,195.9754 L180.4960,195.7566 L179.8182,195.5319 L179.1423,195.3014 L178.4681,195.0651 L177.7957,194.8230 L177.1253,194.5751 L176.4567,194.3213 L175.7902,194.0618 L175.1256,193.7964 L174.4631,193.5253 L173.8027,193.2483 L173.1444,192.9655 L172.4884,192.6769 L171.8346,192.3824 L171.1830,192.0822 L170.5338,191.7762 L169.8869,191.4643 L169.2425,191.1466 L168.6005,190.8231 L167.9610,190.4938 L167.3241,190.1587 L166.6898,189.8178 L166.0581,189.4710 L165.4290,189.1184 L164.8027,188.7601 L164.1792,188.3959 L163.5585,188.0259 L162.9406,187.6500 L162.3257,187.2684 L161.7137,186.8810 L161.1047,186.4877 L160.4987,186.0886 L159.8958,185.6837 L159.2961,185.2730 L158.6995,184.8565 L158.1061,184.4342 L157.5160,184.0060 L156.9292,183.5720 L156.3457,183.1322 L155.7657,182.6866 L155.1890,182.2352 L154.6159,181.7780 L154.0463,181.3149 L153.4802,180.8461 L152.9178,180.3714 L152.3590,179.8909 L151.8040,179.4046 L151.2527,178.9125 L150.7051,178.4145 L150.1615,177.9108 L149.6217,177.4012 L149.0858,176.8858 L148.5539,176.3646 L148.0260,175.8375 L147.5022,175.3047 L146.9825,174.7660 L146.4669,174.2215 L145.9556,173.6712 L145.4485,173.1151 L144.9456,172.5532 L144.4471,171.9854 L143.9530,171.4119 L143.4633,170.8325 L142.9780,170.2473 L142.4973,169.6563 L142.0211,169.0594 L141.5495,168.4568 L141.0825,167.8483 L140.6202,167.2340 L140.1627,166.6139 L139.7099,165.9880 L139.2620,165.3562 L138.8189,164.7186 L138.3807,164.0753 L137.9475,163.4260 L137.5193,162.7710 L137.0961,162.1102 L136.6780,161.4435 L136.2650,160.7710 L135.8572,160.0927 L135.4547,159.4086 L135.0574,158.7187 L134.6654,158.0229 L134.2787,157.3213 L133.8975,156.6139 L133.5217,155.9007 L133.1513,155.1817 L132.7866,154.4568 L132.4274,153.7261 L132.0738,152.9896 L131.7258,152.2473 L131.3836,151.4992 L131.0472,150.7452 L130.7165,149.9854 L130.3917,149.2198 L130.0728,148.4484 L129.7598,147.6712 L129.4527,146.8881 L129.1518,146.0992 L128.8568,145.3045 L128.5680,144.5040 Z" fill="#4997D0"/>
</g>
  <rect x="320" y="640" width="320" height="320" fill="#121212"/>
  <g transform="translate(320,640) scale(1.6) rotate(90,100,100)"><path xmlns="http://www.w3.org/2000/svg" d="M90.0000,0.0307 L90.0001,0.0388 L90.0004,0.0523 L90.0009,0.0710 L90.0018,0.0949 L90.0031,0.1239 L90.0049,0.1578 L90.0073,0.1967 L90.0104,0.2403 L90.0143,0.2887 L90.0190,0.3418 L90.0247,0.3994 L90.0314,0.4614 L90.0393,0.5279 L90.0483,0.5986 L90.0586,0.6736 L90.0703,0.7526 L90.0834,0.8358 L90.0981,0.9229 L90.1144,1.0138 L90.1325,1.1085 L90.1523,1.2070 L90.1741,1.3090 L90.1978,1.4146 L90.2235,1.5236 L90.2514,1.6359 L90.2816,1.7516 L90.3140,1.8704 L90.3489,1.9923 L90.3862,2.1172 L90.4262,2.2450 L90.4688,2.3757 L90.5141,2.5091 L90.5622,2.6452 L90.6133,2.7839 L90.6674,2.9250 L90.7246,3.0686 L90.7850,3.2145 L90.8486,3.3626 L90.9155,3.5129 L90.9859,3.6652 L91.0598,3.8195 L91.1374,3.9757 L91.2186,4.1337 L91.3036,4.2935 L91.3924,4.4548 L91.4852,4.6177 L91.5820,4.7821 L91.6830,4.9479 L91.7881,5.1149 L91.8976,5.2831 L92.0114,5.4525 L92.1297,5.6229 L92.2525,5.7942 L92.3800,5.9664 L92.5122,6.1394 L92.6492,6.3131 L92.7911,6.4873 L92.9380,6.6621 L93.0899,6.8373 L93.2470,7.0129 L93.4093,7.1887 L93.5770,7.3646 L93.7500,7.5407 L93.9285,7.7168 L94.1127,7.8928 L94.3024,8.0686 L94.4980,8.2441 L94.6994,8.4193 L94.9067,8.5941 L95.1200,8.7684 L95.3394,8.9420 L95.5649,9.1150 L95.7968,9.2872 L96.0350,9.4585 L96.2796,9.6289 L96.5308,9.7983 L96.7885,9.9665 L97.0530,10.1336 L97.3242,10.2993 L97.6023,10.4637 L97.8874,10.6266 L98.1795,10.7880 L98.4787,10.9477 L98.7851,11.1057 L99.0989,11.2619 L99.4200,11.4162 L99.7485,11.5686 L100.0847,11.7188 L100.4284,11.8670 L100.7799,12.0129 L101.1392,12.1564 L101.5064,12.2976 L101.8816,12.4362 L102.2648,12.5723 L102.6562,12.7058 L103.0559,12.8364 L103.4639,12.9643 L103.8802,13.0892 L104.3051,13.2111 L104.7386,13.3299 L105.1807,13.4455 L105.6316,13.5579 L106.0913,13.6669 L106.5600,13.7724 L107.0376,13.8745 L107.5244,13.9729 L108.0203,14.0676 L108.5255,14.1586 L109.0401,14.2457 L109.5641,14.3288 L110.0977,14.4079 L110.6408,14.4828 L111.1937,14.5536 L111.7563,14.6200 L112.3288,14.6821 L112.9113,14.7397 L113.5038,14.7927 L114.1064,14.8411 L114.7192,14.8848 L115.3424,14.9236 L115.9759,14.9575 L116.6199,14.9865 L117.2745,15.0104 L117.9397,15.0291 L118.6156,15.0426 L119.3024,15.0508 L120.0000,15.0535 L120.0000,15.0535 L120.5354,15.0645 L121.0767,15.0757 L121.6237,15.0869 L122.1763,15.0982 L122.7342,15.1097 L123.2974,15.1213 L123.8657,15.1331 L124.4388,15.1450 L125.0168,15.1572 L125.5993,15.1695 L126.1863,15.1821 L126.7775,15.1949 L127.3729,15.2079 L127.9722,15.2212 L128.5753,15.2348 L129.1821,15.2488 L129.7924,15.2630 L130.4060,15.2775 L131.0227,15.2925 L131.6424,15.3077 L132.2650,15.3234 L132.8903,15.3394 L133.5181,15.3559 L134.1483,15.3728 L134.7807,15.3901 L135.4151,15.4079 L136.0515,15.4262 L136.6895,15.4449 L137.3292,15.4642 L137.9702,15.4840 L138.6125,15.5043 L139.2559,15.5252 L139.9003,15.5466 L140.5454,15.5686 L141.1911,15.5913 L141.8373,15.6145 L142.4838,15.6384 L143.1304,15.6629 L143.7770,15.6881 L144.4234,15.7140 L145.0695,15.7405 L145.7151,15.7678 L146.3600,15.7958 L147.0041,15.8245 L147.6473,15.8541 L148.2893,15.8843 L148.9300,15.9154 L149.5692,15.9473 L150.2069,15.9800 L150.8428,16.0135 L151.4767,16.0479 L152.1086,16.0831 L152.7382,16.1193 L153.3654,16.1563 L153.9900,16.1942 L154.6119,16.2331 L155.2309,16.2730 L155.8469,16.3138 L156.4597,16.3555 L157.0691,16.3983 L157.6750,16.4421 L158.2772,16.4869 L158.8755,16.5327 L159.4699,16.5796 L160.0601,16.6276 L160.6460,16.6767 L161.2274,16.7269 L161.8041,16.7782 L162.3761,16.8306 L162.9431,16.8842 L163.5050,16.9389 L164.0616,16.9949 L164.6128,17.0520 L165.1584,17.1103 L165.6983,17.1699 L166.2322,17.2307 L166.7601,17.2928 L167.2817,17.3562 L167.7970,17.4209 L168.3057,17.4868 L168.8076,17.5541 L169.3028,17.6228 L169.7909,17.6928 L170.2718,17.7642 L170.7454,17.8369 L171.2114,17.9111 L171.6698,17.9867 L172.1204,18.0637 L172.5630,18.1422 L172.9975,18.2221 L173.4236,18.3035 L173.8413,18.3864 L174.2504,18.4709 L174.6507,18.5569 L175.0421,18.6444 L175.4244,18.7334 L175.7974,18.8241 L176.1610,18.9164 L176.5151,19.0102 L176.8594,19.1057 L177.1938,19.2028 L177.5181,19.3016 L177.8323,19.4021 L178.1361,19.5042 L178.4293,19.6080 L178.7119,19.7136 L178.9836,19.8209 L179.2443,19.9300 L179.4938,20.0408 L179.7321,20.1534 L179.9588,20.2678 L180.1739,20.3840 L180.3772,20.5021 L180.5685,20.6219 L180.7477,20.7437 L180.9147,20.8673 L181.0691,20.9929 L181.2110,21.1203 L181.3402,21.2497 L181.4564,21.3810 L181.5595,21.5142 L181.6494,21.6494 L181.7259,21.7867 L181.7889,21.9259 L181.8381,22.0671 L181.8735,22.2104 L181.8949,22.3557 L181.9020,22.5031 L181.9020,22.5031 L181.8990,22.6748 L181.8900,22.8435 L181.8751,23.0094 L181.8543,23.1724 L181.8276,23.3326 L181.7951,23.4900 L181.7567,23.6446 L181.7126,23.7965 L181.6627,23.9456 L181.6071,24.0920 L181.5458,24.2358 L181.4789,24.3770 L181.4064,24.5155 L181.3282,24.6514 L181.2445,24.7848 L181.1553,24.9156 L181.0606,25.0439 L180.9604,25.1698 L180.8548,25.2932 L180.7438,25.4141 L180.6275,25.5327 L180.5058,25.6488 L180.3788,25.7627 L180.2466,25.8742 L180.1091,25.9834 L179.9664,26.0903 L179.8185,26.1950 L179.6655,26.2974 L179.5074,26.3977 L179.3442,26.4958 L179.1760,26.5918 L179.0027,26.6856 L178.8245,26.7774 L178.6413,26.8671 L178.4533,26.9548 L178.2603,27.0405 L178.0625,27.1241 L177.8598,27.2059 L177.6524,27.2857 L177.4403,27.3636 L177.2234,27.4396 L177.0018,27.5138 L176.7755,27.5862 L176.5446,27.6568 L176.3092,27.7256 L176.0691,27.7926 L175.8246,27.8580 L175.5755,27.9217 L175.3220,27.9836 L175.0640,28.0440 L174.8017,28.1028 L174.5349,28.1599 L174.2638,28.2155 L173.9885,28.2696 L173.7088,28.3222 L173.4249,28.3733 L173.1368,28.4230 L172.8445,28.4712 L172.5481,28.5180 L172.2476,28.5635 L171.9429,28.6076 L171.6342,28.6504 L171.3216,28.6919 L171.0049,28.7322 L170.6842,28.7712 L170.3597,28.8090 L170.0312,28.8456 L169.6989,28.8811 L169.3628,28.9154 L169.0229,28.9486 L168.6792,28.9807 L168.3318,29.0118 L167.9807,29.0419 L167.6259,29.0709 L167.2675,29.0990 L166.9055,29.1261 L166.5399,29.1524 L166.1708,29.1777 L165.7982,29.2021 L165.4221,29.2258 L165.0425,29.2486 L164.6596,29.2706 L164.2733,29.2918 L163.8836,29.3123 L163.4906,29.3321 L163.0944,29.3513 L162.6948,29.3697 L162.2921,29.3876 L161.8862,29.4048 L161.4771,29.4215 L161.0649,29.4376 L160.6497,29.4532 L160.2313,29.4683 L159.8100,29.4829 L159.3856,29.4971 L158.9583,29.5109 L158.5281,29.5242 L158.0950,29.5372 L157.6590,29.5499 L157.2201,29.5623 L156.7785,29.5743 L156.3341,29.5862 L155.8870,29.5978 L155.4371,29.6091 L154.9846,29.6203 L154.5295,29.6314 L154.0717,29.6423 L153.6114,29.6531 L153.1485,29.6639 L152.6831,29.6746 L152.2152,29.6853 L151.7449,29.6960 L151.2722,29.7067 L150.7970,29.7175 L150.3196,29.7284 L149.8398,29.7394 L149.3577,29.7505 L148.8734,29.7618 L148.3868,29.7733 L147.8981,29.7850 L147.4071,29.7969 L146.9141,29.8092 L146.4190,29.8217 L145.9218,29.8345 L145.4225,29.8477 L144.9213,29.8613 L144.4181,29.8753 L143.9130,29.8897 L143.9130,29.8897 L143.3151,29.8897 L142.7161,29.8898 L142.1163,29.8899 L141.5157,29.8902 L140.9143,29.8906 L140.3124,29.8912 L139.7099,29.8922 L139.1069,29.8934 L138.5036,29.8949 L137.9000,29.8968 L137.2963,29.8992 L136.6924,29.9020 L136.0886,29.9054 L135.4849,29.9093 L134.8813,29.9138 L134.2780,29.9190 L133.6751,29.9248 L133.0726,29.9314 L132.4707,29.9387 L131.8694,29.9469 L131.2688,29.9559 L130.6690,29.9658 L130.0701,29.9767 L129.4722,29.9885 L128.8754,30.0014 L128.2798,30.0153 L127.6854,30.0304 L127.0924,30.0466 L126.5008,30.0640 L125.9107,30.0827 L125.3222,30.1026 L124.7355,30.1239 L124.1506,30.1466 L123.5675,30.1706 L122.9864,30.1962 L122.4074,30.2232 L121.8305,30.2517 L121.2559,30.2819 L120.6836,30.3137 L120.1138,30.3472 L119.5464,30.3823 L118.9817,30.4193 L118.4196,30.4580 L117.8604,30.4986 L117.3040,30.5410 L116.7505,30.5854 L116.2002,30.6318 L115.6529,30.6802 L115.1089,30.7306 L114.5682,30.7832 L114.0310,30.8379 L113.4972,30.8947 L112.9670,30.9538 L112.4405,31.0152 L111.9178,31.0789 L111.3990,31.1450 L110.8840,31.2134 L110.3732,31.2843 L109.8664,31.3577 L109.3639,31.4336 L108.8657,31.5121 L108.3718,31.5932 L107.8825,31.6770 L107.3978,31.7635 L106.9177,31.8527 L106.4423,31.9447 L105.9718,32.0395 L105.5063,32.1372 L105.0458,32.2378 L104.5904,32.3414 L104.1402,32.4480 L103.6953,32.5576 L103.2557,32.6703 L102.8217,32.7862 L102.3932,32.9052 L101.9704,33.0274 L101.5533,33.1529 L101.1421,33.2817 L100.7367,33.4139 L100.3374,33.5494 L99.9442,33.6884 L99.5572,33.8308 L99.1764,33.9768 L98.8021,34.1263 L98.4342,34.2794 L98.0728,34.4362 L97.7181,34.5966 L97.3701,34.7608 L97.0290,34.9288 L96.6947,35.1005 L96.3675,35.2762 L96.0473,35.4557 L95.7343,35.6392 L95.4286,35.8267 L95.1303,36.0182 L94.8394,36.2137 L94.5560,36.4134 L94.2803,36.6173 L94.0122,36.8253 L93.7520,37.0376 L93.4997,37.2542 L93.2554,37.4752 L93.0191,37.7005 L92.7910,37.9302 L92.5712,38.1643 L92.3597,38.4030 L92.1567,38.6462 L91.9621,38.8941 L91.7762,39.1465 L91.5990,39.4036 L91.4306,39.6655 L91.2711,39.9321 L91.1205,40.2035 L90.9790,40.4797 L90.8467,40.7609 L90.7236,41.0469 L90.6098,41.3380 L90.5055,41.6340 L90.4107,41.9352 L90.3254,42.2414 L90.2499,42.5528 L90.1841,42.8693 L90.1282,43.1911 L90.0823,43.5182 L90.0464,43.8506 L90.0207,44.1883 L90.0052,44.5315 L90.0000,44.8801 L90.0048,45.2287 L90.0190,45.5719 L90.0427,45.9096 L90.0757,46.2420 L90.1180,46.5691 L90.1695,46.8909 L90.2301,47.2074 L90.2997,47.5188 L90.3783,47.8250 L90.4657,48.1262 L90.5620,48.4222 L90.6670,48.7133 L90.7806,48.9993 L90.9028,49.2805 L91.0335,49.5567 L91.1726,49.8281 L91.3201,50.0947 L91.4759,50.3566 L91.6398,50.6137 L91.8118,50.8661 L91.9919,51.1140 L92.1800,51.3572 L92.3759,51.5959 L92.5796,51.8300 L92.7911,52.0598 L93.0102,52.2851 L93.2369,52.5060 L93.4711,52.7226 L93.7127,52.9349 L93.9617,53.1429 L94.2179,53.3468 L94.4814,53.5465 L94.7520,53.7421 L95.0296,53.9336 L95.3141,54.1210 L95.6056,54.3045 L95.9038,54.4841 L96.2088,54.6597 L96.5205,54.8315 L96.8388,54.9994 L97.1635,55.1636 L97.4947,55.3241 L97.8322,55.4808 L98.1760,55.6339 L98.5260,55.7835 L98.8822,55.9294 L99.2443,56.0718 L99.6125,56.2108 L99.9865,56.3463 L100.3664,56.4785 L100.7520,56.6073 L101.1432,56.7328 L101.5401,56.8550 L101.9424,56.9740 L102.3502,57.0899 L102.7633,57.2026 L103.1818,57.3122 L103.6054,57.4188 L104.0341,57.5224 L104.4679,57.6230 L104.9067,57.7207 L105.3504,57.8156 L105.7989,57.9076 L106.2521,57.9968 L106.7100,58.0833 L107.1725,58.1670 L107.6395,58.2481 L108.1110,58.3266 L108.5868,58.4025 L109.0669,58.4759 L109.5512,58.5468 L110.0396,58.6153 L110.5321,58.6813 L111.0286,58.7450 L111.5289,58.8064 L112.0331,58.8655 L112.5410,58.9224 L113.0527,58.9771 L113.5679,59.0296 L114.0866,59.0801 L114.6087,59.1285 L115.1343,59.1748 L115.6631,59.2192 L116.1951,59.2617 L116.7303,59.3023 L117.2685,59.3410 L117.8097,59.3780 L118.3538,59.4131 L118.9007,59.4466 L119.4504,59.4784 L120.0028,59.5085 L120.5577,59.5371 L121.1152,59.5641 L121.6752,59.5897 L122.2375,59.6137 L122.8020,59.6364 L123.3689,59.6577 L123.9378,59.6776 L124.5088,59.6963 L125.0818,59.7137 L125.6567,59.7299 L126.2334,59.7450 L126.8119,59.7589 L127.3921,59.7718 L127.9739,59.7836 L128.5572,59.7945 L129.1419,59.8044 L129.7281,59.8134 L130.3155,59.8216 L130.9041,59.8289 L131.4939,59.8355 L132.0848,59.8413 L132.6766,59.8465 L133.2694,59.8510 L133.8630,59.8549 L134.4573,59.8582 L135.0524,59.8611 L135.6480,59.8635 L136.2442,59.8654 L136.8408,59.8669 L137.4378,59.8681 L138.0351,59.8691 L138.6327,59.8697 L139.2303,59.8701 L139.8281,59.8704 L140.4258,59.8705 L141.0235,59.8706 L141.6210,59.8706 L141.6210,59.8706 L142.1525,59.8923 L142.6820,59.9133 L143.2096,59.9336 L143.7352,59.9534 L144.2588,59.9727 L144.7803,59.9915 L145.2997,60.0098 L145.8170,60.0278 L146.3321,60.0455 L146.8450,60.0629 L147.3557,60.0801 L147.8641,60.0971 L148.3701,60.1140 L148.8738,60.1309 L149.3752,60.1477 L149.8741,60.1646 L150.3705,60.1816 L150.8645,60.1987 L151.3560,60.2161 L151.8448,60.2336 L152.3311,60.2515 L152.8148,60.2697 L153.2957,60.2884 L153.7740,60.3075 L154.2496,60.3271 L154.7223,60.3472 L155.1923,60.3680 L155.6594,60.3894 L156.1236,60.4115 L156.5849,60.4344 L157.0433,60.4582 L157.4986,60.4827 L157.9510,60.5083 L158.4003,60.5347 L158.8465,60.5622 L159.2895,60.5908 L159.7294,60.6205 L160.1661,60.6514 L160.5996,60.6835 L161.0298,60.7169 L161.4566,60.7517 L161.8802,60.7878 L162.3003,60.8253 L162.7171,60.8644 L163.1304,60.9050 L163.5402,60.9471 L163.9465,60.9909 L164.3492,61.0365 L164.7484,61.0837 L165.1439,61.1328 L165.5357,61.1837 L165.9239,61.2365 L166.3083,61.2912 L166.6890,61.3480 L167.0658,61.4068 L167.4388,61.4678 L167.8079,61.5308 L168.1732,61.5961 L168.5344,61.6637 L168.8917,61.7336 L169.2450,61.8058 L169.5942,61.8805 L169.9394,61.9576 L170.2804,62.0373 L170.6172,62.1195 L170.9499,62.2043 L171.2783,62.2919 L171.6025,62.3821 L171.9223,62.4751 L172.2378,62.5710 L172.5490,62.6697 L172.8557,62.7714 L173.1580,62.8761 L173.4558,62.9838 L173.7491,63.0946 L174.0379,63.2085 L174.3220,63.3256 L174.6016,63.4460 L174.8765,63.5697 L175.1467,63.6967 L175.4121,63.8271 L175.6728,63.9610 L175.9287,64.0983 L176.1798,64.2392 L176.4260,64.3838 L176.6673,64.5319 L176.9037,64.6838 L177.1351,64.8395 L177.3614,64.9989 L177.5827,65.1623 L177.7990,65.3295 L178.0101,65.5007 L178.2161,65.6759 L178.4168,65.8552 L178.6124,66.0387 L178.8027,66.2262 L178.9877,66.4181 L179.1673,66.6142 L179.3416,66.8146 L179.5105,67.0194 L179.6740,67.2286 L179.8320,67.4423 L179.9844,67.6606 L180.1314,67.8834 L180.2727,68.1109 L180.4084,68.3431 L180.5385,68.5800 L180.6629,68.8217 L180.7816,69.0682 L180.8945,69.3197 L181.0016,69.5761 L181.1029,69.8374 L181.1984,70.1039 L181.2879,70.3754 L181.3715,70.6521 L181.4491,70.9340 L181.5207,71.2212 L181.5863,71.5137 L181.6458,71.8115 L181.6992,72.1148 L181.7464,72.4235 L181.7875,72.7377 L181.8223,73.0575 L181.8509,73.3829 L181.8732,73.7140 L181.8892,74.0508 L181.8988,74.3934 L181.9020,74.7418 L181.9020,74.7418 L181.8983,75.0904 L181.8871,75.4335 L181.8685,75.7712 L181.8426,76.1035 L181.8094,76.4304 L181.7689,76.7521 L181.7212,77.0685 L181.6663,77.3797 L181.6043,77.6857 L181.5352,77.9866 L181.4591,78.2824 L181.3760,78.5732 L181.2860,78.8589 L181.1890,79.1397 L181.0852,79.4157 L180.9745,79.6867 L180.8571,79.9529 L180.7330,80.2144 L180.6021,80.4711 L180.4647,80.7231 L180.3206,80.9705 L180.1700,81.2133 L180.0129,81.4515 L179.8494,81.6852 L179.6794,81.9144 L179.5030,82.1392 L179.3204,82.3596 L179.1314,82.5757 L178.9362,82.7874 L178.7348,82.9949 L178.5273,83.1982 L178.3137,83.3974 L178.0940,83.5924 L177.8683,83.7833 L177.6366,83.9702 L177.3990,84.1531 L177.1555,84.3321 L176.9062,84.5071 L176.6511,84.6783 L176.3903,84.8456 L176.1237,85.0092 L175.8515,85.1691 L175.5737,85.3252 L175.2903,85.4777 L175.0014,85.6267 L174.7070,85.7720 L174.4072,85.9139 L174.1020,86.0522 L173.7914,86.1872 L173.4755,86.3187 L173.1544,86.4469 L172.8281,86.5719 L172.4966,86.6935 L172.1599,86.8120 L171.8182,86.9273 L171.4715,87.0395 L171.1198,87.1485 L170.7631,87.2546 L170.4015,87.3577 L170.0351,87.4578 L169.6639,87.5550 L169.2879,87.6493 L168.9072,87.7409 L168.5218,87.8296 L168.1317,87.9156 L167.7371,87.9990 L167.3379,88.0797 L166.9343,88.1578 L166.5261,88.2333 L166.1136,88.3063 L165.6967,88.3769 L165.2755,88.4450 L164.8500,88.5108 L164.4203,88.5742 L163.9863,88.6353 L163.5483,88.6941 L163.1061,88.7508 L162.6599,88.8053 L162.2097,88.8576 L161.7555,88.9079 L161.2974,88.9562 L160.8354,89.0025 L160.3696,89.0468 L159.9000,89.0892 L159.4267,89.1297 L158.9496,89.1685 L158.4689,89.2054 L157.9846,89.2407 L157.4968,89.2742 L157.0054,89.3061 L156.5105,89.3365 L156.0123,89.3652 L155.5106,89.3925 L155.0056,89.4182 L154.4973,89.4426 L153.9857,89.4656 L153.4709,89.4872 L152.9530,89.5075 L152.4319,89.5266 L151.9078,89.5445 L151.3806,89.5612 L150.8505,89.5768 L150.3174,89.5914 L149.7814,89.6049 L149.2426,89.6174 L148.7010,89.6289 L148.1566,89.6396 L147.6095,89.6494 L147.0597,89.6584 L146.5072,89.6666 L145.9522,89.6741 L145.3947,89.6809 L144.8347,89.6871 L144.2722,89.6926 L143.7073,89.6976 L143.1400,89.7021 L142.5705,89.7062 L141.9986,89.7098 L141.4245,89.7130 L140.8483,89.7159 L140.2699,89.7185 L139.6894,89.7209 L139.1069,89.7231 L138.5223,89.7251 L137.9358,89.7269 L137.3474,89.7287 L136.7571,89.7305 L136.1650,89.7323 L136.1650,89.7323 L135.5685,89.7331 L134.9737,89.7357 L134.3809,89.7400 L133.7899,89.7461 L133.2009,89.7539 L132.6138,89.7636 L132.0288,89.7751 L131.4459,89.7884 L130.8651,89.8036 L130.2865,89.8207 L129.7101,89.8398 L129.1360,89.8608 L128.5641,89.8837 L127.9946,89.9087 L127.4276,89.9357 L126.8629,89.9647 L126.3008,89.9958 L125.7412,90.0290 L125.1841,90.0642 L124.6297,90.1017 L124.0780,90.1413 L123.5290,90.1830 L122.9827,90.2270 L122.4393,90.2732 L121.8987,90.3217 L121.3609,90.3724 L120.8262,90.4255 L120.2944,90.4808 L119.7657,90.5385 L119.2400,90.5986 L118.7175,90.6611 L118.1981,90.7260 L117.6820,90.7933 L117.1691,90.8631 L116.6595,90.9354 L116.1533,91.0102 L115.6504,91.0876 L115.1511,91.1675 L114.6551,91.2499 L114.1628,91.3350 L113.6740,91.4227 L113.1888,91.5131 L112.7073,91.6062 L112.2295,91.7019 L111.7555,91.8004 L111.2853,91.9016 L110.8189,92.0056 L110.3564,92.1124 L109.8979,92.2220 L109.4434,92.3344 L108.9929,92.4497 L108.5464,92.5679 L108.1041,92.6890 L107.6660,92.8131 L107.2320,92.9400 L106.8024,93.0700 L106.3770,93.2030 L105.9560,93.3390 L105.5393,93.4781 L105.1272,93.6202 L104.7195,93.7655 L104.3163,93.9138 L103.9177,94.0653 L103.5238,94.2200 L103.1345,94.3779 L102.7499,94.5390 L102.3700,94.7033 L101.9950,94.8709 L101.6248,95.0418 L101.2596,95.2160 L100.8992,95.3935 L100.5439,95.5744 L100.1935,95.7586 L99.8483,95.9463 L99.5081,96.1374 L99.1732,96.3320 L98.8434,96.5300 L98.5189,96.7315 L98.1997,96.9365 L97.8859,97.1451 L97.5774,97.3573 L97.2744,97.5730 L96.9769,97.7924 L96.6849,98.0154 L96.3985,98.2421 L96.1177,98.4724 L95.8425,98.7065 L95.5731,98.9443 L95.3095,99.1858 L95.0516,99.4312 L94.7996,99.6803 L94.5534,99.9333 L94.3132,100.1901 L94.0790,100.4508 L93.8509,100.7154 L93.6288,100.9839 L93.4128,101.2563 L93.2029,101.5327 L92.9993,101.8132 L92.8020,102.0976 L92.6109,102.3861 L92.4262,102.6786 L92.2479,102.9752 L92.0760,103.2759 L91.9106,103.5808 L91.7518,103.8898 L91.5995,104.2030 L91.4538,104.5204 L91.3148,104.8420 L91.1825,105.1679 L91.0569,105.4980 L90.9382,105.8324 L90.8263,106.1712 L90.7212,106.5143 L90.6232,106.8618 L90.5321,107.2136 L90.4480,107.5699 L90.3710,107.9306 L90.3011,108.2958 L90.2384,108.6655 L90.1829,109.0396 L90.1347,109.4183 L90.0937,109.8016 L90.0601,110.1894 L90.0339,110.5818 L90.0151,110.9789 L90.0038,111.3806 L90.0000,111.7870 L90.0000,111.7870 L90.0037,112.1933 L90.0149,112.5950 L90.0335,112.9919 L90.0594,113.3842 L90.0927,113.7718 L90.1332,114.1549 L90.1809,114.5333 L90.2358,114.9072 L90.2978,115.2766 L90.3669,115.6414 L90.4430,116.0017 L90.5262,116.3576 L90.6163,116.7091 L90.7133,117.0561 L90.8171,117.3987 L90.9278,117.7370 L91.0453,118.0709 L91.1694,118.4005 L91.3003,118.7258 L91.4378,119.0468 L91.5819,119.3636 L91.7326,119.6761 L91.8897,119.9845 L92.0533,120.2887 L92.2233,120.5887 L92.3997,120.8847 L92.5825,121.1765 L92.7715,121.4642 L92.9667,121.7479 L93.1682,122.0276 L93.3757,122.3032 L93.5894,122.5749 L93.8092,122.8427 L94.0349,123.1065 L94.2667,123.3664 L94.5043,123.6224 L94.7479,123.8746 L94.9973,124.1229 L95.2524,124.3674 L95.5133,124.6082 L95.7799,124.8452 L96.0522,125.0784 L96.3301,125.3080 L96.6136,125.5338 L96.9025,125.7560 L97.1970,125.9746 L97.4969,126.1895 L97.8022,126.4009 L98.1128,126.6087 L98.4287,126.8130 L98.7499,127.0137 L99.0763,127.2110 L99.4078,127.4048 L99.7445,127.5951 L100.0863,127.7820 L100.4331,127.9656 L100.7849,128.1458 L101.1416,128.3226 L101.5032,128.4961 L101.8697,128.6663 L102.2410,128.8333 L102.6170,128.9970 L102.9978,129.1575 L103.3832,129.3148 L103.7733,129.4689 L104.1680,129.6198 L104.5672,129.7677 L104.9709,129.9124 L105.3791,130.0541 L105.7917,130.1927 L106.2086,130.3283 L106.6298,130.4609 L107.0554,130.5905 L107.4851,130.7171 L107.9191,130.8409 L108.3571,130.9617 L108.7993,131.0796 L109.2456,131.1947 L109.6958,131.3070 L110.1500,131.4165 L110.6081,131.5231 L111.0701,131.6270 L111.5359,131.7282 L112.0055,131.8267 L112.4789,131.9225 L112.9559,132.0156 L113.4366,132.1061 L113.9209,132.1940 L114.4088,132.2793 L114.9001,132.3620 L115.3950,132.4422 L115.8932,132.5199 L116.3949,132.5951 L116.8999,132.6678 L117.4082,132.7381 L117.9197,132.8059 L118.4344,132.8714 L118.9523,132.9345 L119.4733,132.9953 L119.9974,133.0537 L120.5245,133.1099 L121.0546,133.1638 L121.5876,133.2154 L122.1235,133.2648 L122.6623,133.3120 L123.2039,133.3571 L123.7482,133.4000 L124.2952,133.4408 L124.8449,133.4795 L125.3972,133.5161 L125.9522,133.5506 L126.5096,133.5831 L127.0695,133.6137 L127.6319,133.6422 L128.1967,133.6688 L128.7638,133.6935 L129.3333,133.7162 L129.9050,133.7371 L130.4789,133.7562 L131.0550,133.7734 L131.6333,133.7888 L132.2136,133.8024 L132.7960,133.8142 L133.3804,133.8244 L133.9667,133.8328 L134.5550,133.8395 L135.1451,133.8446 L135.7370,133.8480 L135.7370,133.8480 L135.7403,133.8480 L135.7437,133.8480 L135.7470,133.8480 L135.7504,133.8480 L135.7537,133.8480 L135.7571,133.8480 L135.7604,133.8480 L135.7637,133.8480 L135.7671,133.8480 L135.7704,133.8480 L135.7738,133.8480 L135.7771,133.8480 L135.7805,133.8480 L135.7838,133.8480 L135.7872,133.8480 L135.7905,133.8480 L135.7938,133.8480 L135.7972,133.8480 L135.8005,133.8480 L135.8039,133.8480 L135.8072,133.8480 L135.8106,133.8480 L135.8139,133.8480 L135.8173,133.8480 L135.8206,133.8480 L135.8239,133.8480 L135.8273,133.8480 L135.8306,133.8480 L135.8340,133.8480 L135.8373,133.8480 L135.8407,133.8480 L135.8440,133.8480 L135.8473,133.8480 L135.8507,133.8480 L135.8540,133.8480 L135.8574,133.8480 L135.8607,133.8480 L135.8641,133.8480 L135.8674,133.8480 L135.8707,133.8480 L135.8741,133.8480 L135.8774,133.8480 L135.8808,133.8480 L135.8841,133.8480 L135.8875,133.8480 L135.8908,133.8480 L135.8942,133.8480 L135.8975,133.8480 L135.9008,133.8480 L135.9042,133.8480 L135.9075,133.8480 L135.9109,133.8480 L135.9142,133.8480 L135.9176,133.8480 L135.9209,133.8480 L135.9243,133.8480 L135.9276,133.8480 L135.9309,133.8480 L135.9343,133.8480 L135.9376,133.8480 L135.9410,133.8480 L135.9443,133.8480 L135.9477,133.8480 L135.9510,133.8480 L135.9543,133.8480 L135.9577,133.8480 L135.9610,133.8480 L135.9644,133.8480 L135.9677,133.8480 L135.9711,133.8480 L135.9744,133.8480 L135.9777,133.8480 L135.9811,133.8480 L135.9844,133.8480 L135.9878,133.8480 L135.9911,133.8480 L135.9945,133.8480 L135.9978,133.8480 L136.0012,133.8480 L136.0045,133.8480 L136.0078,133.8480 L136.0112,133.8480 L136.0145,133.8480 L136.0179,133.8480 L136.0212,133.8480 L136.0246,133.8480 L136.0279,133.8480 L136.0312,133.8480 L136.0346,133.8480 L136.0379,133.8480 L136.0413,133.8480 L136.0446,133.8480 L136.0480,133.8480 L136.0513,133.8480 L136.0547,133.8480 L136.0580,133.8480 L136.0613,133.8480 L136.0647,133.8480 L136.0680,133.8480 L136.0714,133.8480 L136.0747,133.8480 L136.0781,133.8480 L136.0814,133.8480 L136.0847,133.8480 L136.0881,133.8480 L136.0914,133.8480 L136.0948,133.8480 L136.0981,133.8480 L136.1015,133.8480 L136.1048,133.8480 L136.1082,133.8480 L136.1115,133.8480 L136.1148,133.8480 L136.1182,133.8480 L136.1215,133.8480 L136.1249,133.8480 L136.1282,133.8480 L136.1316,133.8480 L136.1349,133.8480 L136.1382,133.8480 L136.1416,133.8480 L136.1449,133.8480 L136.1483,133.8480 L136.1516,133.8480 L136.1550,133.8480 L136.1583,133.8480 L136.1617,133.8480 L136.1650,133.8480 L136.7571,133.8524 L137.3474,133.8603 L137.9358,133.8718 L138.5223,133.8868 L139.1069,133.9052 L139.6894,133.9271 L140.2699,133.9524 L140.8483,133.9811 L141.4245,134.0132 L141.9986,134.0487 L142.5705,134.0876 L143.1400,134.1297 L143.7073,134.1752 L144.2722,134.2239 L144.8347,134.2760 L145.3947,134.3312 L145.9522,134.3897 L146.5072,134.4514 L147.0597,134.5162 L147.6095,134.5842 L148.1566,134.6553 L148.7010,134.7296 L149.2426,134.8069 L149.7814,134.8874 L150.3174,134.9708 L150.8505,135.0573 L151.3806,135.1468 L151.9078,135.2393 L152.4319,135.3347 L152.9530,135.4331 L153.4709,135.5344 L153.9857,135.6386 L154.4973,135.7457 L155.0056,135.8557 L155.5106,135.9685 L156.0123,136.0840 L156.5105,136.2024 L157.0054,136.3236 L157.4968,136.4475 L157.9846,136.5741 L158.4689,136.7035 L158.9496,136.8355 L159.4267,136.9702 L159.9000,137.1076 L160.3696,137.2475 L160.8354,137.3901 L161.2974,137.5353 L161.7555,137.6830 L162.2097,137.8332 L162.6599,137.9860 L163.1061,138.1412 L163.5483,138.2990 L163.9863,138.4591 L164.4203,138.6217 L164.8500,138.7868 L165.2755,138.9542 L165.6967,139.1240 L166.1136,139.2961 L166.5261,139.4705 L166.9343,139.6473 L167.3379,139.8263 L167.7371,140.0076 L168.1317,140.1911 L168.5217,140.3769 L168.9072,140.5648 L169.2879,140.7549 L169.6639,140.9472 L170.0351,141.1416 L170.4015,141.3381 L170.7631,141.5367 L171.1198,141.7374 L171.4715,141.9401 L171.8182,142.1449 L172.1599,142.3516 L172.4966,142.5604 L172.8281,142.7711 L173.1544,142.9837 L173.4755,143.1983 L173.7914,143.4147 L174.1020,143.6330 L174.4072,143.8532 L174.7070,144.0753 L175.0014,144.2991 L175.2903,144.5247 L175.5737,144.7521 L175.8515,144.9813 L176.1237,145.2121 L176.3903,145.4447 L176.6511,145.6790 L176.9062,145.9149 L177.1555,146.1525 L177.3990,146.3916 L177.6366,146.6324 L177.8683,146.8748 L178.0940,147.1187 L178.3137,147.3642 L178.5273,147.6111 L178.7348,147.8596 L178.9362,148.1095 L179.1314,148.3609 L179.3204,148.6137 L179.5030,148.8680 L179.6794,149.1236 L179.8494,149.3806 L180.0129,149.6389 L180.1700,149.8985 L180.3206,150.1595 L180.4647,150.4217 L180.6021,150.6852 L180.7330,150.9499 L180.8571,151.2158 L180.9745,151.4829 L181.0852,151.7512 L181.1890,152.0207 L181.2860,152.2913 L181.3760,152.5630 L181.4591,152.8357 L181.5352,153.1096 L181.6043,153.3845 L181.6663,153.6604 L181.7212,153.9373 L181.7689,154.2152 L181.8094,154.4941 L181.8426,154.7739 L181.8685,155.0546 L181.8871,155.3362 L181.8983,155.6187 L181.9020,155.9020 L181.9020,155.9020 L181.8983,156.1854 L181.8871,156.4679 L181.8685,156.7495 L181.8426,157.0302 L181.8094,157.3101 L181.7689,157.5889 L181.7212,157.8668 L181.6663,158.1438 L181.6043,158.4197 L181.5352,158.6946 L181.4591,158.9685 L181.3760,159.2413 L181.2860,159.5130 L181.1890,159.7836 L181.0852,160.0530 L180.9745,160.3214 L180.8571,160.5885 L180.7330,160.8544 L180.6021,161.1192 L180.4647,161.3827 L180.3206,161.6449 L180.1700,161.9058 L180.0129,162.1655 L179.8494,162.4238 L179.6794,162.6808 L179.5030,162.9364 L179.3204,163.1907 L179.1314,163.4435 L178.9362,163.6949 L178.7348,163.9448 L178.5273,164.1933 L178.3137,164.4403 L178.0940,164.6857 L177.8683,164.9297 L177.6366,165.1720 L177.3990,165.4128 L177.1555,165.6520 L176.9062,165.8896 L176.6511,166.1255 L176.3903,166.3598 L176.1237,166.5924 L175.8515,166.8232 L175.5737,167.0524 L175.2903,167.2798 L175.0014,167.5054 L174.7070,167.7292 L174.4072,167.9513 L174.1020,168.1714 L173.7914,168.3898 L173.4755,168.6062 L173.1544,168.8208 L172.8281,169.0334 L172.4966,169.2441 L172.1599,169.4529 L171.8182,169.6596 L171.4715,169.8644 L171.1198,170.0671 L170.7631,170.2678 L170.4015,170.4664 L170.0351,170.6629 L169.6639,170.8573 L169.2879,171.0496 L168.9072,171.2397 L168.5218,171.4276 L168.1317,171.6134 L167.7371,171.7969 L167.3379,171.9782 L166.9343,172.1572 L166.5261,172.3340 L166.1136,172.5084 L165.6967,172.6805 L165.2755,172.8503 L164.8500,173.0177 L164.4203,173.1828 L163.9863,173.3454 L163.5483,173.5055 L163.1061,173.6633 L162.6599,173.8185 L162.2097,173.9713 L161.7555,174.1215 L161.2974,174.2692 L160.8354,174.4144 L160.3696,174.5570 L159.9000,174.6969 L159.4267,174.8343 L158.9496,174.9690 L158.4689,175.1010 L157.9846,175.2304 L157.4968,175.3570 L157.0054,175.4809 L156.5105,175.6021 L156.0123,175.7205 L155.5106,175.8361 L155.0056,175.9489 L154.4973,176.0588 L153.9857,176.1659 L153.4709,176.2701 L152.9530,176.3715 L152.4319,176.4698 L151.9078,176.5653 L151.3806,176.6578 L150.8505,176.7473 L150.3174,176.8338 L149.7814,176.9173 L149.2426,176.9977 L148.7010,177.0750 L148.1566,177.1493 L147.6095,177.2205 L147.0597,177.2885 L146.5072,177.3533 L145.9522,177.4150 L145.3947,177.4735 L144.8347,177.5288 L144.2722,177.5808 L143.7073,177.6296 L143.1400,177.6750 L142.5705,177.7172 L141.9986,177.7561 L141.4245,177.7916 L140.8483,177.8237 L140.2699,177.8525 L139.6894,177.8778 L139.1069,177.8997 L138.5223,177.9182 L137.9358,177.9331 L137.3474,177.9446 L136.7571,177.9526 L136.1650,177.9570 L136.1650,177.9570 L136.1617,177.9570 L136.1583,177.9570 L136.1550,177.9570 L136.1516,177.9570 L136.1483,177.9570 L136.1449,177.9570 L136.1416,177.9570 L136.1382,177.9570 L136.1349,177.9570 L136.1316,177.9570 L136.1282,177.9570 L136.1249,177.9570 L136.1215,177.9570 L136.1182,177.9570 L136.1148,177.9570 L136.1115,177.9570 L136.1082,177.9570 L136.1048,177.9570 L136.1015,177.9570 L136.0981,177.9570 L136.0948,177.9570 L136.0914,177.9570 L136.0881,177.9570 L136.0847,177.9570 L136.0814,177.9570 L136.0781,177.9570 L136.0747,177.9570 L136.0714,177.9570 L136.0680,177.9570 L136.0647,177.9570 L136.0613,177.9570 L136.0580,177.9570 L136.0547,177.9570 L136.0513,177.9570 L136.0480,177.9570 L136.0446,177.9570 L136.0413,177.9570 L136.0379,177.9570 L136.0346,177.9570 L136.0312,177.9570 L136.0279,177.9570 L136.0246,177.9570 L136.0212,177.9570 L136.0179,177.9570 L136.0145,177.9570 L136.0112,177.9570 L136.0078,177.9570 L136.0045,177.9570 L136.0012,177.9570 L135.9978,177.9570 L135.9945,177.9570 L135.9911,177.9570 L135.9878,177.9570 L135.9844,177.9570 L135.9811,177.9570 L135.9777,177.9570 L135.9744,177.9570 L135.9711,177.9570 L135.9677,177.9570 L135.9644,177.9570 L135.9610,177.9570 L135.9577,177.9570 L135.9543,177.9570 L135.9510,177.9570 L135.9477,177.9570 L135.9443,177.9570 L135.9410,177.9570 L135.9376,177.9570 L135.9343,177.9570 L135.9309,177.9570 L135.9276,177.9570 L135.9243,177.9570 L135.9209,177.9570 L135.9176,177.9570 L135.9142,177.9570 L135.9109,177.9570 L135.9075,177.9570 L135.9042,177.9570 L135.9008,177.9570 L135.8975,177.9570 L135.8942,177.9570 L135.8908,177.9570 L135.8875,177.9570 L135.8841,177.9570 L135.8808,177.9570 L135.8774,177.9570 L135.8741,177.9570 L135.8707,177.9570 L135.8674,177.9570 L135.8641,177.9570 L135.8607,177.9570 L135.8574,177.9570 L135.8540,177.9570 L135.8507,177.9570 L135.8473,177.9570 L135.8440,177.9570 L135.8407,177.9570 L135.8373,177.9570 L135.8340,177.9570 L135.8306,177.9570 L135.8273,177.9570 L135.8239,177.9570 L135.8206,177.9570 L135.8173,177.9570 L135.8139,177.9570 L135.8106,177.9570 L135.8072,177.9570 L135.8039,177.9570 L135.8005,177.9570 L135.7972,177.9570 L135.7938,177.9570 L135.7905,177.9570 L135.7872,177.9570 L135.7838,177.9570 L135.7805,177.9570 L135.7771,177.9570 L135.7738,177.9570 L135.7704,177.9570 L135.7671,177.9570 L135.7637,177.9570 L135.7604,177.9570 L135.7571,177.9570 L135.7537,177.9570 L135.7504,177.9570 L135.7470,177.9570 L135.7437,177.9570 L135.7403,177.9570 L135.7370,177.9570 L135.1451,177.9614 L134.5550,177.9693 L133.9667,177.9807 L133.3804,177.9956 L132.7960,178.0139 L132.2136,178.0356 L131.6333,178.0608 L131.0550,178.0893 L130.4789,178.1213 L129.9050,178.1565 L129.3333,178.1951 L128.7638,178.2370 L128.1967,178.2822 L127.6319,178.3307 L127.0695,178.3824 L126.5096,178.4373 L125.9522,178.4954 L125.3972,178.5567 L124.8449,178.6212 L124.2952,178.6888 L123.7482,178.7596 L123.2039,178.8334 L122.6623,178.9103 L122.1235,178.9903 L121.5876,179.0733 L121.0546,179.1593 L120.5245,179.2483 L119.9974,179.3403 L119.4733,179.4353 L118.9523,179.5332 L118.4344,179.6340 L117.9197,179.7377 L117.4082,179.8442 L116.8999,179.9536 L116.3949,180.0659 L115.8932,180.1809 L115.3950,180.2988 L114.9001,180.4194 L114.4088,180.5428 L113.9209,180.6688 L113.4366,180.7976 L112.9559,180.9291 L112.4789,181.0633 L112.0055,181.2001 L111.5359,181.3395 L111.0701,181.4815 L110.6081,181.6261 L110.1500,181.7732 L109.6958,181.9229 L109.2456,182.0752 L108.7993,182.2299 L108.3571,182.3871 L107.9191,182.5467 L107.4851,182.7088 L107.0554,182.8733 L106.6298,183.0402 L106.2086,183.2095 L105.7917,183.3812 L105.3791,183.5551 L104.9709,183.7314 L104.5672,183.9100 L104.1680,184.0908 L103.7733,184.2739 L103.3833,184.4592 L102.9978,184.6468 L102.6170,184.8365 L102.2410,185.0284 L101.8697,185.2224 L101.5032,185.4186 L101.1416,185.6169 L100.7849,185.8172 L100.4331,186.0197 L100.0863,186.2241 L99.7445,186.4306 L99.4078,186.6391 L99.0763,186.8496 L98.7499,187.0620 L98.4287,187.2764 L98.1128,187.4927 L97.8022,187.7108 L97.4969,187.9309 L97.1970,188.1528 L96.9025,188.3766 L96.6136,188.6022 L96.3301,188.8296 L96.0522,189.0587 L95.7799,189.2896 L95.5133,189.5222 L95.2524,189.7566 L94.9973,189.9926 L94.7479,190.2303 L94.5043,190.4697 L94.2667,190.7107 L94.0349,190.9533 L93.8092,191.1975 L93.5894,191.4432 L93.3757,191.6905 L93.1682,191.9393 L92.9667,192.1897 L92.7715,192.4415 L92.5825,192.6948 L92.3997,192.9495 L92.2233,193.2056 L92.0533,193.4632 L91.8897,193.7221 L91.7326,193.9824 L91.5819,194.2440 L91.4378,194.5070 L91.3003,194.7712 L91.1694,195.0367 L91.0453,195.3035 L90.9278,195.5715 L90.8171,195.8408 L90.7133,196.1112 L90.6163,196.3828 L90.5262,196.6556 L90.4430,196.9294 L90.3669,197.2044 L90.2978,197.4805 L90.2358,197.7577 L90.1809,198.0359 L90.1332,198.3151 L90.0927,198.5954 L90.0594,198.8766 L90.0335,199.1588 L90.0149,199.4420 L90.0037,199.7260 L90.0001,200.0000 L200.0000,200.0000 L200.0000,0.0000 L198.5878,0.0000 L197.1989,0.0000 L195.8330,0.0000 L194.4900,0.0000 L193.1697,0.0000 L191.8718,0.0000 L190.5962,0.0000 L189.3427,0.0000 L188.1111,0.0000 L186.9012,0.0000 L185.7129,0.0000 L184.5458,0.0000 L183.3999,0.0000 L182.2749,0.0000 L181.1706,0.0000 L180.0869,0.0000 L179.0236,0.0000 L177.9804,0.0000 L176.9572,0.0000 L175.9537,0.0000 L174.9699,0.0000 L174.0055,0.0000 L173.0602,0.0000 L172.1340,0.0000 L171.2266,0.0000 L170.3378,0.0000 L169.4675,0.0000 L168.6154,0.0000 L167.7813,0.0000 L166.9651,0.0000 L166.1666,0.0000 L165.3855,0.0000 L164.6217,0.0000 L163.8750,0.0000 L163.1452,0.0000 L162.4322,0.0000 L161.7356,0.0000 L161.0553,0.0000 L160.3912,0.0000 L159.7430,0.0000 L159.1105,0.0000 L158.4936,0.0000 L157.8920,0.0000 L157.3056,0.0000 L156.7342,0.0000 L156.1776,0.0000 L155.6355,0.0000 L155.1078,0.0000 L154.5944,0.0000 L154.0949,0.0000 L153.6093,0.0000 L153.1373,0.0000 L152.6787,0.0000 L152.2334,0.0000 L151.8011,0.0000 L151.3816,0.0000 L150.9749,0.0000 L150.5806,0.0000 L150.1986,0.0000 L149.8286,0.0000 L149.4706,0.0000 L149.1242,0.0000 L148.7894,0.0000 L148.4659,0.0000 L148.1535,0.0000 L147.8520,0.0000 L147.5613,0.0000 L147.2811,0.0000 L147.0113,0.0000 L146.7516,0.0000 L146.5019,0.0000 L146.2620,0.0000 L146.0317,0.0000 L145.8108,0.0000 L145.5990,0.0000 L145.3963,0.0000 L145.2024,0.0000 L145.0171,0.0000 L144.8402,0.0000 L144.6716,0.0000 L144.5110,0.0000 L144.3583,0.0000 L144.2132,0.0000 L144.0757,0.0000 L143.9453,0.0000 L143.8221,0.0000 L143.7058,0.0000 L143.5961,0.0000 L143.4930,0.0000 L143.3962,0.0000 L143.3055,0.0000 L143.2207,0.0000 L143.1417,0.0000 L143.0682,0.0000 L143.0000,0.0000 L142.9370,0.0000 L142.8790,0.0000 L142.8258,0.0000 L142.7772,0.0000 L142.7329,0.0000 L142.6928,0.0000 L142.6568,0.0000 L142.6245,0.0000 L142.5959,0.0000 L142.5707,0.0000 L142.5487,0.0000 L142.5298,0.0000 L142.5138,0.0000 L142.5004,0.0000 L142.4894,0.0000 L142.4808,0.0000 L142.4742,0.0000 L142.4695,0.0000 L142.4665,0.0000 L142.4650,0.0000 L142.4648,0.0000 L142.4658,0.0000 L142.4676,0.0000 L142.4702,0.0000 L142.4734,0.0000 L142.4769,0.0000 L142.4805,0.0000 L142.4841,0.0000 L142.4875,0.0000 L142.4905,0.0000 L142.4929,0.0000 L142.4944,0.0000 L142.4950,0.0000 L142.4457,0.0004 L142.3947,0.0008 L142.3422,0.0012 L142.2880,0.0016 L142.2323,0.0020 L142.1750,0.0024 L142.1163,0.0028 L142.0560,0.0032 L141.9943,0.0035 L141.9312,0.0039 L141.8667,0.0043 L141.8008,0.0047 L141.7335,0.0050 L141.6649,0.0054 L141.5950,0.0058 L141.5238,0.0061 L141.4514,0.0065 L141.3777,0.0068 L141.3029,0.0072 L141.2268,0.0075 L141.1497,0.0079 L141.0714,0.0082 L140.9920,0.0086 L140.9115,0.0089 L140.8300,0.0092 L140.7475,0.0096 L140.6639,0.0099 L140.5795,0.0102 L140.4940,0.0105 L140.4077,0.0108 L140.3204,0.0112 L140.2323,0.0115 L140.1434,0.0118 L140.0536,0.0121 L139.9631,0.0124 L139.8718,0.0127 L139.7797,0.0130 L139.6870,0.0133 L139.5936,0.0136 L139.4995,0.0139 L139.4047,0.0142 L139.3094,0.0145 L139.2135,0.0147 L139.1170,0.0150 L139.0200,0.0153 L138.9225,0.0156 L138.8245,0.0158 L138.7261,0.0161 L138.6272,0.0164 L138.5280,0.0166 L138.4283,0.0169 L138.3283,0.0171 L138.2280,0.0174 L138.1274,0.0177 L138.0265,0.0179 L137.9254,0.0181 L137.8241,0.0184 L137.7225,0.0186 L137.6208,0.0189 L137.5190,0.0191 L137.4170,0.0193 L137.3149,0.0195 L137.2128,0.0198 L137.1106,0.0200 L137.0084,0.0202 L136.9063,0.0204 L136.8041,0.0206 L136.7021,0.0208 L136.6001,0.0211 L136.4982,0.0213 L136.3965,0.0215 L136.2949,0.0217 L136.1935,0.0218 L136.0924,0.0220 L135.9915,0.0222 L135.8908,0.0224 L135.7905,0.0226 L135.6904,0.0228 L135.5908,0.0229 L135.4915,0.0231 L135.3925,0.0233 L135.2941,0.0235 L135.1960,0.0236 L135.0985,0.0238 L135.0014,0.0239 L134.9048,0.0241 L134.8089,0.0243 L134.7135,0.0244 L134.6187,0.0245 L134.5245,0.0247 L134.4310,0.0248 L134.3381,0.0250 L134.2460,0.0251 L134.1546,0.0252 L134.0640,0.0254 L133.9741,0.0255 L133.8851,0.0256 L133.7969,0.0257 L133.7095,0.0259 L133.6230,0.0260 L133.5375,0.0261 L133.4529,0.0262 L133.3693,0.0263 L133.2866,0.0264 L133.2050,0.0265 L133.1244,0.0266 L133.0448,0.0267 L132.9664,0.0268 L132.8891,0.0269 L132.8129,0.0269 L132.7379,0.0270 L132.6641,0.0271 L132.5915,0.0272 L132.5202,0.0272 L132.4501,0.0273 L132.3814,0.0274 L132.3139,0.0274 L132.2479,0.0275 L132.1832,0.0276 L132.1199,0.0276 L132.0580,0.0277 L131.9976,0.0277 L131.9386,0.0278 L131.8812,0.0278 L131.8253,0.0278 L131.7709,0.0279 L131.7182,0.0279 L131.6670,0.0279 L131.6670,0.0279 L131.0758,0.0287 L130.4879,0.0295 L129.9033,0.0303 L129.3221,0.0310 L128.7441,0.0317 L128.1696,0.0324 L127.5985,0.0331 L127.0307,0.0337 L126.4664,0.0343 L125.9056,0.0349 L125.3483,0.0355 L124.7944,0.0360 L124.2441,0.0366 L123.6973,0.0371 L123.1541,0.0375 L122.6145,0.0380 L122.0785,0.0384 L121.5461,0.0389 L121.0173,0.0393 L120.4923,0.0396 L119.9709,0.0400 L119.4532,0.0403 L118.9393,0.0407 L118.4291,0.0410 L117.9227,0.0412 L117.4202,0.0415 L116.9214,0.0417 L116.4265,0.0420 L115.9354,0.0422 L115.4482,0.0424 L114.9650,0.0426 L114.4856,0.0427 L114.0102,0.0429 L113.5388,0.0430 L113.0714,0.0431 L112.6080,0.0432 L112.1486,0.0433 L111.6933,0.0434 L111.2420,0.0434 L110.7949,0.0435 L110.3518,0.0435 L109.9129,0.0435 L109.4782,0.0435 L109.0477,0.0435 L108.6213,0.0435 L108.1992,0.0434 L107.7814,0.0434 L107.3678,0.0433 L106.9585,0.0433 L106.5535,0.0432 L106.1528,0.0431 L105.7565,0.0430 L105.3646,0.0429 L104.9771,0.0428 L104.5939,0.0426 L104.2153,0.0425 L103.8410,0.0423 L103.4713,0.0422 L103.1061,0.0420 L102.7454,0.0418 L102.3892,0.0417 L102.0376,0.0415 L101.6906,0.0413 L101.3482,0.0411 L101.0105,0.0409 L100.6774,0.0407 L100.3490,0.0404 L100.0252,0.0402 L99.7062,0.0400 L99.3919,0.0397 L99.0824,0.0395 L98.7777,0.0393 L98.4777,0.0390 L98.1826,0.0388 L97.8923,0.0385 L97.6069,0.0382 L97.3264,0.0380 L97.0508,0.0377 L96.7801,0.0374 L96.5144,0.0372 L96.2536,0.0369 L95.9979,0.0366 L95.7471,0.0364 L95.5014,0.0361 L95.2608,0.0358 L95.0252,0.0355 L94.7947,0.0353 L94.5694,0.0350 L94.3492,0.0347 L94.1341,0.0345 L93.9243,0.0342 L93.7196,0.0339 L93.5202,0.0336 L93.3260,0.0334 L93.1371,0.0331 L92.9535,0.0329 L92.7752,0.0326 L92.6022,0.0324 L92.4346,0.0321 L92.2724,0.0319 L92.1156,0.0316 L91.9642,0.0314 L91.8182,0.0312 L91.6777,0.0309 L91.5427,0.0307 L91.4132,0.0305 L91.2892,0.0303 L91.1708,0.0301 L91.0579,0.0299 L90.9506,0.0297 L90.8490,0.0295 L90.7529,0.0294 L90.6626,0.0292 L90.5779,0.0291 L90.4989,0.0289 L90.4256,0.0288 L90.3580,0.0286 L90.2962,0.0285 L90.2402,0.0284 L90.1901,0.0283 L90.1457,0.0282 L90.1072,0.0282 L90.0745,0.0281 L90.0477,0.0280 L90.0269,0.0280 L90.0120,0.0280 L90.0030,0.0279 L90.0000,0.0279 Z" fill="#FF4F00"/>
</g>
  <rect x="640" y="640" width="320" height="320" fill="#FF4F00"/>
  <g transform="translate(640,640) scale(1.6) rotate(180,100,100)"><path xmlns="http://www.w3.org/2000/svg" d="M154.082 79.1951C166.139 89.9719 177.338 99.9825 199.941 100C177.338 100.017 166.139 110.028 154.082 120.805C140.012 133.381 124.776 147 88.889 147C36.9794 147 2.16415 184.88 0.239243 200L0.000167847 200L0.000172218 100L0.000176589 2.28984e-05L0.239251 2.29012e-05C2.16416 15.12 36.9794 53.0001 88.8891 53.0001C124.776 53.0001 140.012 66.6193 154.082 79.1951Z" fill="#D9D9D6"/>
</g>
  <rect x="960" y="640" width="320" height="320" fill="#FFFFFF"/>
  <g transform="translate(960,640) scale(1.6) rotate(270,100,100)"><path xmlns="http://www.w3.org/2000/svg" d="M101.046 0.0050954C100.849 0.00199645 100.652 0.000313685 100.455 5.32538e-05L100.449 2.23595e-05L100.444 4.03871e-05L100.401 1.74946e-05L100.358 3.94186e-05L100.349 3.83041e-05L100.309 5.70389e-05L100.305 3.83041e-05L100.302 5.223e-05L100.261 3.83041e-05L100.248 4.17448e-05L100.225 1.9927e-05C100.211 1.99258e-05 100.197 4.28125e-05 100.183 8.85747e-05C100.173 7.36736e-05 100.163 6.10756e-05 100.153 5.07809e-05C100.148 3.10244e-05 100.142 2.11437e-05 100.137 2.11432e-05L100.131 3.07249e-05C100.117 2.10955e-05 100.103 1.62796e-05 100.089 1.62783e-05C100.078 1.62774e-05 100.067 1.90319e-05 100.057 2.45413e-05C100.038 1.40118e-05 100.019 8.74498e-06 100 8.74228e-06L99.9354 2.91409e-05L99.9126 1.87108e-05C99.8861 1.87085e-05 99.8596 6.08214e-05 99.8331 0.000145018C44.6814 0.0902254 1.68803e-05 44.8271 8.74228e-06 100C2.63876e-06 155.168 44.6734 199.902 99.8183 200L99.8698 200L99.9126 200L99.9502 200L100 200H100L100.041 200L100.065 200C100.074 200 100.083 200 100.093 200C100.099 200 100.106 200 100.113 200L100.129 200C100.143 200 100.158 200 100.172 200L100.197 200L100.217 200L100.225 200H100.227L100.265 200L100.302 200L100.305 200L100.31 200L100.353 200L100.391 200H100.405L100.444 200L100.449 200L100.454 200C100.648 200 100.842 199.998 101.035 199.995L101.108 199.994L101.177 199.993C155.863 199.362 200 154.836 200 100C200 45.1514 155.842 0.616484 101.138 0.00635371C101.108 0.00591104 101.077 0.0054916 101.046 0.0050954ZM58.5705 15.6393C37.0635 33.3961 22.8006 64.5432 22.8006 100C22.8006 135.461 37.0685 166.611 58.581 184.367C31.6435 168.159 13.2 136.615 13.2 100C13.2 63.3897 31.6387 31.8492 58.5705 15.6393ZM133.023 14.2473C151.45 31.7377 163.777 63.5976 163.777 100C163.777 136.398 151.453 168.255 133.031 185.746C156.944 169.92 173.381 137.428 173.381 100C173.381 62.5673 156.941 30.071 133.023 14.2473ZM58.9686 31.436C63.8909 23.6709 69.5034 17.4135 75.6812 12.7998C60.6203 29.9415 50.4486 62.5693 50.4486 100C50.4486 137.45 60.6329 170.093 75.7069 187.227C69.5189 182.612 63.8977 176.348 58.9686 168.572C53.3646 159.732 48.9606 149.408 45.8726 137.892C42.6566 125.9 41.0286 113.152 41.0286 100.004C41.0286 86.856 42.6566 74.108 45.8726 62.116C48.9606 50.6 53.3646 40.276 58.9686 31.436ZM116.118 189.476C116.267 189.352 116.416 189.227 116.565 189.1C122.041 184.416 127.001 177.632 131.301 168.936C140.377 150.592 145.373 126.108 145.373 100C145.373 73.892 140.377 49.412 131.301 31.064C127.001 22.368 122.041 15.584 116.565 10.9C116.416 10.7727 116.267 10.6471 116.118 10.5233C127.774 26.9357 135.777 60.8393 135.777 100C135.777 139.16 127.775 173.063 116.118 189.476ZM78.4966 100C78.4966 58.862 83.8719 23.5254 91.5543 8.17257C90.8515 8.84517 90.1494 9.59846 89.4487 10.432C85.5807 15.036 81.9167 22.02 78.8567 30.628C72.2926 49.096 68.6767 73.732 68.6766 100C68.6766 126.268 72.2926 150.904 78.8566 169.372C81.9166 177.98 85.5806 184.964 89.4486 189.568C90.1494 190.402 90.8515 191.155 91.5543 191.827C83.8719 176.475 78.4966 141.138 78.4966 100ZM103.243 6.73626C106.13 21.2293 108.177 57.5219 108.177 100C108.177 142.476 106.13 178.767 103.243 193.262C105.554 189.943 108.669 183.072 111.529 169.864C115.557 151.248 117.777 126.436 117.777 100C117.777 73.564 115.557 48.752 111.529 30.136C108.67 16.9249 105.555 10.0537 103.243 6.73626ZM142.748 183.551C168.961 167.115 186.8 136.01 186.8 100C186.8 63.9853 168.956 32.8768 142.737 16.4426C163.71 34.3259 177.553 65.0719 177.553 100C177.553 134.924 163.715 165.666 142.748 183.551ZM68.6244 13.413C49.7034 30.7121 36.9766 63.0109 36.9766 100C36.9766 136.993 49.7063 169.295 68.6321 186.593C44.0104 171.1 26.9726 138.108 26.9726 100C26.9726 61.8967 44.0081 28.9082 68.6244 13.413ZM149.505 100C149.505 138.629 138.671 172.143 122.81 188.799C129.885 184.075 136.268 177.266 141.785 168.564C147.389 159.724 151.793 149.4 154.881 137.884C158.097 125.892 159.725 113.144 159.725 99.996C159.725 86.848 158.097 74.1 154.881 62.108C151.793 50.592 147.389 40.268 141.785 31.428C136.265 22.72 129.877 15.908 122.797 11.184L122.785 11.1761C138.658 27.8232 149.505 61.3514 149.505 100ZM84.7949 190.247C84.3243 189.882 83.8555 189.5 83.3886 189.1C77.9126 184.416 72.9526 177.632 68.6526 168.936C59.5766 150.588 54.5806 126.108 54.5806 100C54.5806 73.892 59.5766 49.408 68.6526 31.064C72.9526 22.368 77.9126 15.584 83.3886 10.9C83.855 10.5013 84.3233 10.1196 84.7934 9.75515C72.835 25.8609 64.5766 60.2178 64.5766 100C64.5766 139.784 72.8357 174.142 84.7949 190.247ZM110.905 189.568C110.204 190.402 109.502 191.155 108.799 191.827C116.481 176.475 121.857 141.138 121.857 100C121.857 58.862 116.481 23.5254 108.799 8.1726C109.502 8.8452 110.204 9.59849 110.905 10.432C114.773 15.036 118.437 22.02 121.497 30.628C128.061 49.096 131.677 73.732 131.677 100C131.677 126.268 128.061 150.904 121.497 169.372C118.437 177.98 114.773 184.964 110.905 189.568ZM97.6645 194.012C95.3134 191.035 91.9181 184.163 88.8246 169.864C84.7966 151.248 82.5766 126.436 82.5766 100C82.5766 73.564 84.7966 48.752 88.8246 30.136C91.9203 15.8397 95.314 8.96768 97.6642 5.98922C94.6964 19.9499 92.5766 56.772 92.5766 100C92.5766 143.23 94.6966 180.053 97.6645 194.012ZM160.667 174.405C179.166 156.098 190.8 129.546 190.8 100C190.8 70.4544 179.166 43.9015 160.667 25.595C182.231 43.199 196 69.9916 196 100C196 130.008 182.231 156.801 160.667 174.405ZM39.3331 174.405C20.8345 156.099 9.20003 129.546 9.20003 100C9.20003 70.4543 20.8346 43.9013 39.3333 25.5949C17.7687 43.1988 4.00001 69.9915 4.00001 100C4 130.008 17.7686 156.801 39.3331 174.405ZM98.6606 166.152C99.2206 174.306 99.8174 180.342 100.377 184.799C100.94 180.342 101.533 174.306 102.093 166.152C103.345 147.932 104.033 124.436 104.033 100C104.033 75.564 103.345 52.068 102.093 33.848C101.533 25.6938 100.936 19.658 100.376 15.2009C99.8137 19.658 99.2206 25.6938 98.6607 33.848C97.4086 52.068 96.7206 75.564 96.7206 100C96.7206 124.436 97.4086 147.932 98.6606 166.152Z" fill="#121212"/>
</g>
  <rect x="1280" y="640" width="320" height="320" fill="#FF4F00"/>
  <g transform="translate(1280,640) scale(1.6)"><path xmlns="http://www.w3.org/2000/svg" d="M149.958 50L150 199.958L6.59691e-06 200C-0.0240027 117.181 67.116 50.024 149.958 50Z" fill="#121212"/>
</g>
  <rect x="1600" y="640" width="320" height="320" fill="#121212"/>
  <g transform="translate(1600,640) scale(1.6) rotate(90,100,100)"><path xmlns="http://www.w3.org/2000/svg" d="M100.538 79.1952C108.405 89.9719 115.713 99.9825 130.461 100C115.713 100.017 108.405 110.028 100.538 120.805C91.3581 133.381 81.4163 147 58.0001 147C24.129 147 1.41209 184.88 0.156097 200L9.15527e-05 200L9.59239e-05 100L0.000100295 0.000192662L0.156091 0.000192668C1.4121 15.1202 24.1291 53.0002 58.0001 53.0002C81.4163 53.0002 91.3581 66.6193 100.538 79.1952Z" fill="#4997D0"/>
</g>
</svg>
