<?xml version='1.0' encoding='UTF-8'?>
<svg xmlns="http://www.w3.org/2000/svg" version="1.1" width="1920" height="960" viewBox="0 0 1920 960">
  <svg x="0.0" y="0.0" width="320.0" height="320.0" viewBox="0 0 200 200"><ns0:rect xmlns:ns0="http://www.w3.org/2000/svg" width="200" height="200" transform="translate(200 8.74228e-06) rotate(90)" fill="#121212"/>
<ns1:path xmlns:ns1="http://www.w3.org/2000/svg" d="M100 8.74228e-06H8.74228e-06V100C8.74228e-06 44.772 44.772 8.74228e-06 100 8.74228e-06Z" fill="#FF4F00"/>
</svg>
  <svg x="320.0" y="0.0" width="320.0" height="320.0" viewBox="0 0 200 200"><ns2:rect xmlns:ns2="http://www.w3.org/2000/svg" width="200" height="200" transform="translate(200 8.74228e-06) rotate(90)" fill="#121212"/>
<ns3:path xmlns:ns3="http://www.w3.org/2000/svg" d="M100 4.37236e-06L0.0280239 4.37236e-06L1.96299e-05 100C55.2126 100.016 99.984 55.228 100 4.37236e-06Z" fill="#F3F3F3"/>
</svg>
  <svg x="640.0" y="0.0" width="320.0" height="320.0" viewBox="0 0 200 200"><ns4:g xmlns:ns4="http://www.w3.org/2000/svg" clip-path="url(#clip0_5_5486)">
<ns4:rect width="200" height="200" transform="translate(200 1.52588e-05) rotate(90)" fill="#121212"/>
<ns4:path d="M125.075 200C58.3242 200 24.8952 119.295 72.0952 72.0952Lnan nanL72.0952 72.0952C119.295 24.8951 200 58.3242 200 125.075L200 200L125.075 200Z" fill="#FF4F00"/>
</ns4:g>
<ns5:defs xmlns:ns5="http://www.w3.org/2000/svg">
<ns5:clipPath id="clip0_5_5486">
<ns5:rect width="200" height="200" fill="#FFFFFF" transform="translate(200 1.52588e-05) rotate(90)"/>
</ns5:clipPath>
</ns5:defs>
</svg>
  <svg x="960.0" y="0.0" width="320.0" height="320.0" viewBox="0 0 200 200"><ns6:g xmlns:ns6="http://www.w3.org/2000/svg" clip-path="url(#clip0_85_2273)">
<ns6:rect width="200" height="200" transform="translate(200 1.52588e-05) rotate(90)" fill="#4997D0"/>
<ns6:rect x="8.74228e-06" y="100" width="200" height="100" fill="#4997D0"/>
<ns6:path fill-rule="evenodd" clip-rule="evenodd" d="M200 200L180 200L180 100L200 100L200 200ZM100.028 100L200 99.972C200 99.972 155.241 99.984 100.028 100ZM100.028 100L116 100L116 200L96 200L96 100L74 100L74 200L54 200L54 100L32 100L32 200L12 200L12 100L100.028 100ZM158 200L138 200L138 100L158 100L158 200Z" fill="#F3F3F3"/>
<ns6:path d="M200 99.9719L8.74228e-06 100L9.93477e-06 -2.38498e-06L100 -1.19249e-06C155.213 -0.0159994 199.984 44.7439 200 99.9719Z" fill="#F3F3F3"/>
</ns6:g>
<ns7:defs xmlns:ns7="http://www.w3.org/2000/svg">
<ns7:clipPath id="clip0_85_2273">
<ns7:rect width="200" height="200" fill="#FFFFFF" transform="translate(200 1.52588e-05) rotate(90)"/>
</ns7:clipPath>
</ns7:defs>
</svg>
  <svg x="1280.0" y="0.0" width="320.0" height="320.0" viewBox="0 0 200 200"><ns8:g xmlns:ns8="http://www.w3.org/2000/svg" clip-path="url(#clip0_81_2192)">
<ns8:rect width="200" height="200" transform="translate(200 8.74228e-06) rotate(90)" fill="#121212"/>
<ns8:path fill-rule="evenodd" clip-rule="evenodd" d="M255.223 29.8897C233.63 29.2654 217.234 29.8896 217.234 22.5031C217.234 16.1702 234.798 15.5235 257.514 15.0535C283.004 15.0535 310 16.1702 310 7.54072C310 0.0279655 293.823 0.0279348 268.333 0.0279345C266.333 0.0279344 259.428 0.0207017 257.494 0.00672461L200 1.0054e-05C139.249 9.32956e-06 142.495 9.36827e-06 142.495 9.36827e-06C140.426 0.0172518 133.815 0.0267427 131.667 0.0279328C106.373 0.0629972 90 0.0279323 90 0.0279323C90 0.0279323 90 15.0535 120 15.0535C142.717 15.5234 181.902 16.1701 181.902 22.5031C181.902 29.8896 165.506 29.2653 143.913 29.8897C118.423 29.8897 90 29.8896 90 44.8801C90 59.8706 116.132 59.8706 141.621 59.8706C164.338 60.8106 181.902 59.7513 181.902 74.7418C181.902 89.7324 161.467 89.6552 136.165 89.7323C110.675 89.7323 90 94.348 90 111.787C90 129.225 110.443 133.736 135.737 133.848L136.165 133.848C161.467 133.96 181.902 143.795 181.902 155.902C181.902 168.01 161.467 177.844 136.165 177.957L135.737 177.957C110.443 178.069 90 187.833 90 200.011C90 212.188 110.675 222.065 136.165 222.065L136.602 222.065C162.1 222.065 182.766 231.935 182.766 244.119C182.766 256.304 162.1 266.174 136.602 266.174L136.165 266.174C110.675 266.174 90 276.057 90 288.235C90 300.413 110.675 310.289 136.165 310.289L136.602 310.289C162.1 310.289 182.766 316.995 182.766 325.28C182.766 332.912 165.203 339.211 142.486 340.151L136.165 340.151C110.675 340.151 90 346.864 90 355.142C90 363.419 110.675 370.132 136.165 370.132L144.777 370.132C166.371 370.756 182.766 373.689 182.766 377.519C182.766 381.349 165.203 384.498 142.486 384.968L136.165 384.968C110.675 384.968 90 384.968 90 392.481C90 399.994 110.675 399.994 136.165 399.994L136.602 399.994C162.1 399.994 182.766 399.994 182.766 399.994L215.473 399.994C215.473 399.994 238.533 400.008 263.836 399.994L264.263 399.994C289.557 399.959 310 399.994 310 392.481C310 384.968 289.325 384.968 263.836 384.968L258.379 384.968C235.662 384.498 218.099 381.208 218.099 377.519C218.099 373.829 234.494 370.756 256.088 370.132L263.836 370.132C289.325 370.132 310 363.426 310 355.142C310 346.857 289.325 340.151 263.836 340.151L258.379 340.151C235.662 339.211 218.099 332.912 218.099 325.28C218.099 317.044 238.533 310.366 263.836 310.289L264.263 310.289C289.557 310.177 310 300.349 310 288.235C310 276.121 289.557 266.286 264.263 266.174L263.836 266.174C238.533 266.061 218.099 256.227 218.099 244.119C218.099 232.012 238.533 222.177 263.836 222.065L264.263 222.065C289.557 221.953 310 212.188 310 200.011C310 187.833 289.325 177.957 263.836 177.957L263.399 177.957C237.9 177.957 217.234 168.087 217.234 155.902C217.234 143.718 237.9 133.848 263.399 133.848L263.836 133.848C289.325 133.848 310 127.563 310 111.787C310 96.0105 289.325 89.7323 263.836 89.7323L263.399 89.7323C237.9 89.7323 217.234 89.7324 217.234 74.7419C217.234 59.7514 234.798 60.8106 257.514 59.8706L263.836 59.8706C289.325 59.8706 310 59.8706 310 44.8801C310 29.8896 289.325 29.8897 263.836 29.8897L255.223 29.8897Z" fill="#FFFFFF"/>
</ns8:g>
<ns9:defs xmlns:ns9="http://www.w3.org/2000/svg">
<ns9:clipPath id="clip0_81_2192">
<ns9:rect width="200" height="200" fill="#FFFFFF" transform="translate(200 8.74228e-06) rotate(90)"/>
</ns9:clipPath>
</ns9:defs>
</svg>
  <svg x="1600.0" y="0.0" width="320.0" height="320.0" viewBox="0 0 200 200"><ns10:rect xmlns:ns10="http://www.w3.org/2000/svg" width="200" height="200" fill="#121212"/>
<ns11:path xmlns:ns11="http://www.w3.org/2000/svg" d="M60 200H80L80 0H60L60 200Z" fill="#FF4F00"/>
<ns12:path xmlns:ns12="http://www.w3.org/2000/svg" d="M100 200H120L120 0H100L100 200Z" fill="#FF4F00"/>
<ns13:path xmlns:ns13="http://www.w3.org/2000/svg" d="M140 200H160L160 0H140L140 200Z" fill="#FF4F00"/>
<ns14:path xmlns:ns14="http://www.w3.org/2000/svg" d="M20 200H40L40 0H20L20 200Z" fill="#FF4F00"/>
<ns15:path xmlns:ns15="http://www.w3.org/2000/svg" d="M180 200H200L200 0H180L180 200Z" fill="#FF4F00"/>
</svg>
  <svg x="0.0" y="320.0" width="320.0" height="320.0" viewBox="0 0 200 200"><ns16:rect xmlns:ns16="http://www.w3.org/2000/svg" width="200" height="200" transform="translate(200 8.74228e-06) rotate(90)" fill="#121212"/>
<ns17:path xmlns:ns17="http://www.w3.org/2000/svg" d="M50 50C50 22.3858 72.3858 8.74228e-06 100 8.74228e-06C127.614 8.74228e-06 150 22.3858 150 50V150C150 177.614 127.614 200 100 200C72.3858 200 50 177.614 50 150V50Z" fill="#F3F3F3"/>
<ns18:circle xmlns:ns18="http://www.w3.org/2000/svg" cx="99.9998" cy="100" r="33.3333" fill="#121212"/>
</svg>
  <svg x="320.0" y="320.0" width="320.0" height="320.0" viewBox="0 0 200 200"><ns19:g xmlns:ns19="http://www.w3.org/2000/svg" clip-path="url(#clip0_20_1279)">
<ns19:rect width="200" height="200" transform="translate(200 8.74228e-06) rotate(90)" fill="#121212"/>
<ns19:path fill-rule="evenodd" clip-rule="evenodd" d="M100 100L200 2.62268e-05L3.92599e-05 0L1.52588e-05 200L200 200L100 100Z" fill="#FFFFFF"/>
</ns19:g>
<ns20:defs xmlns:ns20="http://www.w3.org/2000/svg">
<ns20:clipPath id="clip0_20_1279">
<ns20:rect width="200" height="200" fill="#FFFFFF" transform="translate(200 8.74228e-06) rotate(90)"/>
</ns20:clipPath>
</ns20:defs>
</svg>
  <svg x="640.0" y="320.0" width="320.0" height="320.0" viewBox="0 0 200 200"><ns21:g xmlns:ns21="http://www.w3.org/2000/svg" clip-path="url(#clip0_35_1225)">
<ns21:rect width="200" height="200" transform="translate(200 1.52588e-05) rotate(90)" fill="#FFFFFF"/>
<ns21:path d="M200 1.56833e-05Lnan nanL200 1.56833e-05C200 55.2285 155.228 100 100 100L8.74228e-06 100L3.67176e-05 -7.62939e-06L200 1.56833e-05Z" fill="#4997D0"/>
</ns21:g>
<ns22:defs xmlns:ns22="http://www.w3.org/2000/svg">
<ns22:clipPath id="clip0_35_1225">
<ns22:rect width="200" height="200" fill="#FFFFFF" transform="translate(200 1.52588e-05) rotate(90)"/>
</ns22:clipPath>
</ns22:defs>
</svg>
  <svg x="960.0" y="320.0" width="320.0" height="320.0" viewBox="0 0 200 200"><ns23:g xmlns:ns23="http://www.w3.org/2000/svg" clip-path="url(#clip0_3_605)">
<ns23:rect width="200" height="200" transform="translate(200 8.74228e-06) rotate(90)" fill="#FFFFFF"/>
<ns23:path d="M200 1.97103e-05L200 50L8.74228e-06 100L3.49691e-05 -6.51651e-06L200 1.97103e-05Z" fill="#FF4F00"/>
</ns23:g>
<ns24:defs xmlns:ns24="http://www.w3.org/2000/svg">
<ns24:clipPath id="clip0_3_605">
<ns24:rect width="200" height="200" fill="#FFFFFF" transform="translate(200 8.74228e-06) rotate(90)"/>
</ns24:clipPath>
</ns24:defs>
</svg>
  <svg x="1280.0" y="320.0" width="320.0" height="320.0" viewBox="0 0 200 200"><ns25:g xmlns:ns25="http://www.w3.org/2000/svg" clip-path="url(#clip0_81_1724)">
<ns25:rect width="200" height="200" transform="translate(200 8.74228e-06) rotate(90)" fill="#4997D0"/>
<ns25:path d="M99.972 100L100 199.972L1.74846e-05 200C-0.0159862 144.787 44.744 100.016 99.972 100Z" fill="#F3F3F3"/>
<ns25:path d="M200 99.972L100.028 100L100 7.54979e-06C155.213 -0.0159906 199.984 44.744 200 99.972Z" fill="#F3F3F3"/>
</ns25:g>
<ns26:defs xmlns:ns26="http://www.w3.org/2000/svg">
<ns26:clipPath id="clip0_81_1724">
<ns26:rect width="200" height="200" fill="#FFFFFF" transform="translate(200 8.74228e-06) rotate(90)"/>
</ns26:clipPath>
</ns26:defs>
</svg>
  <svg x="1600.0" y="320.0" width="320.0" height="320.0" viewBox="0 0 200 200"><ns27:g xmlns:ns27="http://www.w3.org/2000/svg" clip-path="url(#clip0_20_1216)">
<ns27:rect width="200" height="200" transform="translate(200 8.74228e-06) rotate(90)" fill="#FF4F00"/>
<ns27:path fill-rule="evenodd" clip-rule="evenodd" d="M100 186.25L150 186.203L150 199.953L200 200L200 1.6969e-05L150 1.6969e-05C149.973 92.0467 150 136.25 100 186.25Z" fill="#FFFFFF"/>
</ns27:g>
<ns28:defs xmlns:ns28="http://www.w3.org/2000/svg">
<ns28:clipPath id="clip0_20_1216">
<ns28:rect width="200" height="200" fill="#FFFFFF" transform="translate(200 8.74228e-06) rotate(90)"/>
</ns28:clipPath>
</ns28:defs>
</svg>
  <svg x="0.0" y="640.0" width="320.0" height="320.0" viewBox="0 0 200 200"><ns29:rect xmlns:ns29="http://www.w3.org/2000/svg" width="200" height="200" transform="translate(200 8.74228e-06) rotate(90)" fill="#FF4F00"/>
<ns30:path xmlns:ns30="http://www.w3.org/2000/svg" d="M166.667 200C129.848 200 33.3333 200 33.3333 200C33.3333 163.181 63.1809 133.333 99.9999 133.333C136.819 133.333 166.667 163.181 166.667 200Z" fill="#FFFFFF"/>
</svg>
  <svg x="320.0" y="640.0" width="320.0" height="320.0" viewBox="0 0 200 200"><ns31:g xmlns:ns31="http://www.w3.org/2000/svg" clip-path="url(#clip0_4_5449)">
<ns31:rect width="200" height="200" transform="translate(200 1.52588e-05) rotate(90)" fill="#F3F3F3"/>
<ns31:path d="M200 3.38562e-05L8.74228e-06 200L3.49691e-05 7.62939e-06L200 3.38562e-05Z" fill="#FF4F00"/>
<ns31:path d="M150.05 200C105.549 200 83.2634 146.197 114.73 114.73Lnan nanL114.73 114.73C146.197 83.2634 200 105.549 200 150.05L200 200L150.05 200Z" fill="#FF4F00"/>
</ns31:g>
<ns32:defs xmlns:ns32="http://www.w3.org/2000/svg">
<ns32:clipPath id="clip0_4_5449">
<ns32:rect width="200" height="200" fill="#FFFFFF" transform="translate(200 1.52588e-05) rotate(90)"/>
</ns32:clipPath>
</ns32:defs>
</svg>
  <svg x="640.0" y="640.0" width="320.0" height="320.0" viewBox="0 0 200 200"><ns33:g xmlns:ns33="http://www.w3.org/2000/svg" clip-path="url(#clip0_3_498)">
<ns33:rect width="200" height="200" transform="translate(200 8.74228e-06) rotate(90)" fill="#FF4F00"/>
<ns33:path d="M200 8.74228e-06C200 55.228 177.616 105.228 141.42 141.42C105.228 177.616 55.228 200 0 200L200 200L200 8.74228e-06Z" fill="#F3F3F3"/>
<ns33:path d="M100.028 0.0280087L0.0559627 4.37236e-06L0.0279585 100C55.2405 100.016 100.012 55.256 100.028 0.0280087Z" fill="#F3F3F3"/>
</ns33:g>
<ns34:defs xmlns:ns34="http://www.w3.org/2000/svg">
<ns34:clipPath id="clip0_3_498">
<ns34:rect width="200" height="200" fill="#FFFFFF" transform="translate(200 8.74228e-06) rotate(90)"/>
</ns34:clipPath>
</ns34:defs>
</svg>
  <svg x="960.0" y="640.0" width="320.0" height="320.0" viewBox="0 0 200 200"><ns35:g xmlns:ns35="http://www.w3.org/2000/svg" clip-path="url(#clip0_5_6178)">
<ns35:rect width="200" height="200" transform="translate(200 8.74228e-06) rotate(90)" fill="#FF4F00"/>
<ns35:g clip-path="url(#clip1_5_6178)">
<ns35:path d="M7.50001 14.636C8.0629 19.144 8.66849 25.344 9.23526 33.848C10.4503 52.068 11.118 75.564 11.118 100C11.118 124.436 10.4503 147.932 9.23526 166.152C8.66849 174.656 8.06678 180.856 7.50001 185.364C6.93712 180.856 6.33153 174.656 5.76476 166.152C4.5497 147.932 3.882 124.436 3.882 100C3.882 75.564 4.5497 52.068 5.76476 33.848C6.33153 25.344 6.93324 19.144 7.50001 14.636ZM7.50001 8.74228e-06C3.35793 8.74228e-06 8.74228e-06 44.772 8.74228e-06 100C8.74228e-06 155.228 3.35793 200 7.50001 200C11.6421 200 15 155.228 15 100C15 44.772 11.6421 8.74228e-06 7.50001 8.74228e-06Z" fill="#FFFFFF"/>
<ns35:path d="M30.8332 4.00001C32.323 4.00001 37.6175 8.80001 42.2392 30.136C46.2722 48.752 48.4949 73.564 48.4949 100C48.4949 126.436 46.2722 151.248 42.2392 169.864C37.6175 191.196 32.323 196 30.8332 196C29.3433 196 24.0488 191.2 19.4271 169.864C15.3942 151.248 13.1714 126.436 13.1714 100C13.1714 73.564 15.3942 48.752 19.4271 30.136C24.0528 8.80001 29.3433 4.00001 30.8332 4.00001ZM30.8332 8.74228e-06C18.8705 8.74228e-06 9.16651 44.772 9.16651 100C9.16651 155.228 18.8664 200 30.8332 200C42.7999 200 52.4998 155.228 52.4998 100C52.4998 44.772 42.7999 8.74228e-06 30.8332 8.74228e-06Z" fill="#FFFFFF"/>
<ns35:path d="M53.7502 4.00001C57.3006 4.00001 60.9108 6.16401 64.4852 10.432C68.3384 15.036 71.9885 22.02 75.0368 30.628C81.5758 49.096 85.1781 73.732 85.1781 100C85.1781 126.268 81.5758 150.904 75.0368 169.372C71.9885 177.98 68.3384 184.964 64.4852 189.568C60.9108 193.836 57.3006 196 53.7502 196C50.1997 196 46.5895 193.836 43.0152 189.568C39.1619 184.964 35.5119 177.98 32.4635 169.372C25.9245 150.904 22.3223 126.268 22.3223 100C22.3223 73.732 25.9245 49.096 32.4635 30.628C35.5119 22.02 39.1619 15.036 43.0152 10.432C46.5895 6.16401 50.1997 4.00001 53.7502 4.00001ZM53.7502 8.74228e-06C34.1889 8.74228e-06 18.3335 44.772 18.3335 100C18.3335 155.228 34.1889 200 53.7502 200C73.3114 200 89.1668 155.228 89.1668 100C89.1668 44.772 73.3074 8.74228e-06 53.7502 8.74228e-06Z" fill="#FFFFFF"/>
<ns35:path d="M77.0833 4.00001C82.7931 4.00001 88.4106 6.32001 93.7755 10.9C99.2647 15.584 104.237 22.368 108.547 31.064C117.645 49.412 122.653 73.892 122.653 100C122.653 126.108 117.645 150.592 108.547 168.936C104.237 177.632 99.2647 184.416 93.7755 189.1C88.4106 193.676 82.7931 196 77.0833 196C71.3736 196 65.7561 193.68 60.3912 189.1C54.902 184.416 49.93 177.632 45.6196 168.936C36.5217 150.588 31.5137 126.108 31.5137 100C31.5137 73.892 36.5217 49.408 45.6196 31.064C49.93 22.368 54.902 15.584 60.3912 10.9C65.7561 6.32401 71.3736 4.00001 77.0833 4.00001ZM77.0833 8.74228e-06C49.7014 8.74228e-06 27.5 44.772 27.5 100C27.5 155.228 49.6974 200 77.0833 200C104.469 200 126.667 155.228 126.667 100C126.667 44.772 104.465 8.74228e-06 77.0833 8.74228e-06Z" fill="#FFFFFF"/>
<ns35:path d="M99.5795 4.00001C107.377 4.00001 114.974 6.41601 122.16 11.184C129.282 15.908 135.707 22.72 141.26 31.428C146.897 40.268 151.327 50.592 154.433 62.108C157.668 74.1 159.306 86.848 159.306 99.996C159.306 113.144 157.668 125.892 154.433 137.884C151.327 149.4 146.897 159.724 141.26 168.564C135.707 177.272 129.282 184.084 122.16 188.808C114.974 193.576 107.377 195.992 99.5795 195.992C91.7817 195.992 84.1852 193.576 76.999 188.808C69.8772 184.084 63.4515 177.272 57.899 168.564C52.2619 159.724 47.8319 149.4 44.7257 137.884C41.4907 125.892 39.8531 113.144 39.8531 99.996C39.8531 86.848 41.4907 74.096 44.7257 62.108C47.8319 50.592 52.2619 40.268 57.899 31.428C63.4515 22.72 69.8772 15.908 76.999 11.184C84.1852 6.41601 91.7817 4.00001 99.5795 4.00001ZM99.5795 8.74228e-06C64.3729 8.74228e-06 35.8335 44.772 35.8335 100C35.8335 155.228 64.3729 200 99.5835 200C134.794 200 163.334 155.228 163.334 100C163.334 44.772 134.786 8.74228e-06 99.5795 8.74228e-06Z" fill="#FFFFFF"/>
<ns35:path d="M122.496 4.00001C163.019 4.00001 195.985 47.064 195.985 100C195.985 152.936 163.019 196 122.496 196C81.9731 196 49.007 152.936 49.007 100C49.007 47.064 81.9772 4.00001 122.496 4.00001ZM122.496 8.74228e-06C79.6949 8.74228e-06 45 44.772 45 100C45 155.228 79.6989 200 122.5 200C165.301 200 200 155.228 200 100C200 44.772 165.297 8.74228e-06 122.496 8.74228e-06Z" fill="#FFFFFF"/>
</ns35:g>
</ns35:g>
<ns36:defs xmlns:ns36="http://www.w3.org/2000/svg">
<ns36:clipPath id="clip0_5_6178">
<ns36:rect width="200" height="200" fill="#FFFFFF" transform="translate(200 8.74228e-06) rotate(90)"/>
</ns36:clipPath>
<ns36:clipPath id="clip1_5_6178">
<ns36:rect width="200" height="200" fill="#FFFFFF"/>
</ns36:clipPath>
</ns36:defs>
</svg>
  <svg x="1280.0" y="640.0" width="320.0" height="320.0" viewBox="0 0 200 200"><ns37:g xmlns:ns37="http://www.w3.org/2000/svg" clip-path="url(#clip0_25_1201)">
<ns37:rect width="200" height="200" transform="translate(200 8.74228e-06) rotate(90)" fill="#FFFFFF"/>
<ns37:path d="M200 50L200 150L8.74228e-06 150L3.49691e-05 50L200 50Z" fill="#FF4F00"/>
</ns37:g>
<ns38:defs xmlns:ns38="http://www.w3.org/2000/svg">
<ns38:clipPath id="clip0_25_1201">
<ns38:rect width="200" height="200" fill="#FFFFFF" transform="translate(200 8.74228e-06) rotate(90)"/>
</ns38:clipPath>
</ns38:defs>
</svg>
  <svg x="1600.0" y="640.0" width="320.0" height="320.0" viewBox="0 0 200 200"><ns39:g xmlns:ns39="http://www.w3.org/2000/svg" clip-path="url(#clip0_4_198)">
<ns39:rect width="200" height="200" transform="translate(200 8.74228e-06) rotate(90)" fill="#FF4F00"/>
<ns39:path d="M190 1.8399e-05L190 190L8.74228e-06 190L4.61155e-05 -6.51651e-06L190 1.8399e-05Z" fill="#F3F3F3"/>
</ns39:g>
<ns40:defs xmlns:ns40="http://www.w3.org/2000/svg">
<ns40:clipPath id="clip0_4_198">
<ns40:rect width="200" height="200" fill="#FFFFFF" transform="translate(200 8.74228e-06) rotate(90)"/>
</ns40:clipPath>
</ns40:defs>
</svg>
</svg>
