<?xml version='1.0' encoding='UTF-8'?>
<svg xmlns="http://www.w3.org/2000/svg" width="200" height="200" viewBox="0 0 200 200">
<rect width="200" height="200" transform="translate(8.74228e-06 200) rotate(-90)" fill="#F3F3F3"/>
<g clip-path="url(#clip0_4_30)">
<path d="M0.008 8.74193e-06L0 8.74228e-06L8.74228e-06 200L200 200C89.876 200 0.00800483 110.417 0.008 8.74193e-06Z" fill="#121212"/>
<path fill-rule="evenodd" clip-rule="evenodd" d="M40 8.74228e-06C40 88.3656 111.634 160 200 160V180C100.589 180 20 99.4113 20 8.74228e-06H40Z" fill="#121212"/>
</g>
<path fill-rule="evenodd" clip-rule="evenodd" d="M80 8.74228e-06C80 66.2742 133.726 120 200 120V140C122.68 140 60 77.3199 60 8.74228e-06H80Z" fill="#121212"/>
<path fill-rule="evenodd" clip-rule="evenodd" d="M120 8.74228e-06C120 44.1828 155.817 80 200 80V100C144.772 100 100 55.2285 100 8.74228e-06H120Z" fill="#121212"/>
<path fill-rule="evenodd" clip-rule="evenodd" d="M160 8.74228e-06C160 22.0914 177.909 40 200 40V60C166.863 60 140 33.1371 140 8.74228e-06H160Z" fill="#121212"/>
<path fill-rule="evenodd" clip-rule="evenodd" d="M180 8.74228e-06H200V20C188.954 20 180 11.0457 180 8.74228e-06Z" fill="#121212"/>
<defs>
<clipPath id="clip0_4_30">
<rect width="200" height="200" fill="#FFFFFF" transform="translate(8.74228e-06 200) rotate(-90)"/>
</clipPath>
</defs>
</svg>
