<?xml version='1.0' encoding='UTF-8'?>
<svg xmlns="http://www.w3.org/2000/svg" width="200" height="200" viewBox="0 0 200 200">
<rect width="200" height="200" transform="translate(8.74228e-06 200) rotate(-90)" fill="#F3F3F3"/>
<path d="M0.008 8.74193e-06L0 8.74228e-06L8.74228e-06 200L200 200C89.876 200 0.00800483 110.417 0.008 8.74193e-06Z" fill="#121212"/>
<path fill-rule="evenodd" clip-rule="evenodd" d="M179.933 199C85.7297 189.563 10.4137 114.42 1 20.0043C0.343971 13.4246 0.00800029 6.75124 0.008 8.74193e-06L0 8.74228e-06L8.74228e-06 200L200 200C193.229 200 186.535 199.661 179.933 199ZM171.614 199C83.5333 186.485 13.5081 116.612 1 28.3523L1.00001 199L171.614 199Z" fill="#121212"/>
<path fill-rule="evenodd" clip-rule="evenodd" d="M35 8.74228e-06C35 91.127 108.873 165 200 165V175C103.35 175 25 96.6498 25 8.74228e-06H35Z" fill="#121212"/>
<path fill-rule="evenodd" clip-rule="evenodd" d="M75 8.74228e-06C75 69.0356 130.964 125 200 125V135C125.442 135 65 74.5584 65 8.74228e-06H75Z" fill="#121212"/>
<path fill-rule="evenodd" clip-rule="evenodd" d="M115 8.74228e-06C115 46.9442 153.056 85 200 85V95C147.533 95 105 52.4671 105 8.74228e-06H115Z" fill="#121212"/>
<path fill-rule="evenodd" clip-rule="evenodd" d="M155 8.74228e-06C155 24.8528 175.147 45 200 45V55C169.624 55 145 30.3757 145 8.74228e-06H155Z" fill="#121212"/>
<path fill-rule="evenodd" clip-rule="evenodd" d="M195 8.74228e-06C195 2.76143 197.239 5.00001 200 5.00001V15C191.716 15 185 8.28428 185 8.74228e-06H195Z" fill="#121212"/>
</svg>
