<?xml version="1.0" encoding="UTF-8"?>
<svg xmlns="http://www.w3.org/2000/svg" width="200" height="200" viewBox="0 0 200 200">
  <path d="M200,191.666667 L200,187.5 L200,183.333333 L200,179.166667 L200,175 L200,170.833333 L200,166.666667 L200,162.5 L200,158.333333 L200,154.166667 L200,150 L200,145.833333 L200,141.666667 L200,137.5 L200,133.333333 L200,129.166667 L200,125 L200,120.833333 L200,116.666667 L200,112.5 L200,108.333333 L200,104.166667 L200,100 L199.166667,100 L198.333333,100 L197.5,100 L196.666667,100 L195.833333,100 L195,100 L194.166667,100 L193.333333,100 L192.5,100 L191.666667,100 L190.833333,100 L190,100 L189.166667,100 L188.333333,100 L187.5,100 L186.666667,100 L185.833333,100 L185,100 L184.166667,100 L183.333333,100 L182.5,100 L181.666667,100 L180.833333,100 L180,100 L180,104.166667 L180,108.333333 L180,112.5 L180,116.666667 L180,120.833333 L180,125 L180,129.166667 L180,133.333333 L180,137.5 L180,141.666667 L180,145.833333 L180,150 L180,154.166667 L180,158.333333 L180,162.5 L180,166.666667 L180,170.833333 L180,175 L180,179.166667 L180,183.333333 L180,187.5 L180,191.666667 L180,195.833333 L180,200 L180.833333,200 L181.666667,200 L182.5,200 L183.333333,200 L184.166667,200 L185,200 L185.833333,200 L186.666667,200 L187.5,200 L188.333333,200 L189.166667,200 L190,200 L190.833333,200 L191.666667,200 L192.5,200 L193.333333,200 L194.166667,200 L195,200 L195.833333,200 L196.666667,200 L197.5,200 L198.333333,200 L199.166667,200 L200,200 L200,195.833333 Z M26.671333,100 L23.0035,100 L19.335667,100 L15.667833,100 L12,100 L12,104.166667 L12,108.333333 L12,112.5 L12,116.666667 L12,120.833333 L12,125 L12,129.166667 L12,133.333333 L12,137.5 L12,141.666667 L12,145.833333 L12,150 L12,154.166667 L12,158.333333 L12,162.5 L12,166.666667 L12,170.833333 L12,175 L12,179.166667 L12,183.333333 L12,187.5 L12,191.666667 L12,195.833333 L12,200 L12.833333,200 L13.666667,200 L14.5,200 L15.333333,200 L16.166667,200 L17,200 L17.833333,200 L18.666667,200 L19.5,200 L20.333333,200 L21.166667,200 L22,200 L22.833333,200 L23.666667,200 L24.5,200 L25.333333,200 L26.166667,200 L27,200 L27.833333,200 L28.666667,200 L29.5,200 L30.333333,200 L31.166667,200 L32,200 L32,195.833333 L32,191.666667 L32,187.5 L32,183.333333 L32,179.166667 L32,175 L32,170.833333 L32,166.666667 L32,162.5 L32,158.333333 L32,154.166667 L32,150 L32,145.833333 L32,141.666667 L32,137.5 L32,133.333333 L32,129.166667 L32,125 L32,120.833333 L32,116.666667 L32,112.5 L32,108.333333 L32,104.166667 L32,100 L30.339167,100 Z M54,108.333333 L54,112.5 L54,116.666667 L54,120.833333 L54,125 L54,129.166667 L54,133.333333 L54,137.5 L54,141.666667 L54,145.833333 L54,150 L54,154.166667 L54,158.333333 L54,162.5 L54,166.666667 L54,170.833333 L54,175 L54,179.166667 L54,183.333333 L54,187.5 L54,191.666667 L54,195.833333 L54,200 L54.833333,200 L55.666667,200 L56.5,200 L57.333333,200 L58.166667,200 L59,200 L59.833333,200 L60.666667,200 L61.5,200 L62.333333,200 L63.166667,200 L64,200 L64.833333,200 L65.666667,200 L66.5,200 L67.333333,200 L68.166667,200 L69,200 L69.833333,200 L70.666667,200 L71.5,200 L72.333333,200 L73.166667,200 L74,200 L74,195.833333 L74,191.666667 L74,187.5 L74,183.333333 L74,179.166667 L74,175 L74,170.833333 L74,166.666667 L74,162.5 L74,158.333333 L74,154.166667 L74,150 L74,145.833333 L74,141.666667 L74,137.5 L74,133.333333 L74,129.166667 L74,125 L74,120.833333 L74,116.666667 L74,112.5 L74,108.333333 L74,104.166667 L74,100 L70.685333,100 L67.0175,100 L63.349667,100 L59.681833,100 L56.014,100 L54,100 L54,104.166667 Z M96,108.333333 L96,112.5 L96,116.666667 L96,120.833333 L96,125 L96,129.166667 L96,133.333333 L96,137.5 L96,141.666667 L96,145.833333 L96,150 L96,154.166667 L96,158.333333 L96,162.5 L96,166.666667 L96,170.833333 L96,175 L96,179.166667 L96,183.333333 L96,187.5 L96,191.666667 L96,195.833333 L96,200 L96.833333,200 L97.666667,200 L98.5,200 L99.333333,200 L100.166667,200 L101,200 L101.833333,200 L102.666667,200 L103.5,200 L104.333333,200 L105.166667,200 L106,200 L106.833333,200 L107.666667,200 L108.5,200 L109.333333,200 L110.166667,200 L111,200 L111.833333,200 L112.666667,200 L113.5,200 L114.333333,200 L115.166667,200 L116,200 L116,195.833333 L116,191.666667 L116,187.5 L116,183.333333 L116,179.166667 L116,175 L116,170.833333 L116,166.666667 L116,162.5 L116,158.333333 L116,154.166667 L116,150 L116,145.833333 L116,141.666667 L116,137.5 L116,133.333333 L116,129.166667 L116,125 L116,120.833333 L116,116.666667 L116,112.5 L116,108.333333 L116,104.166667 L116,100 L115.3345,100 L114.669,100 L114.0035,100 L113.338,100 L112.6725,100 L112.007,100 L111.3415,100 L110.676,100 L110.0105,100 L109.345,100 L108.6795,100 L108.014,100 L107.3485,100 L106.683,100 L106.0175,100 L105.352,100 L104.6865,100 L104.021,100 L103.3555,100 L102.69,100 L102.0245,100 L101.359,100 L100.6935,100 L100.028,100 L96.360167,100 L96,100 L96,104.166667 Z M158,191.666667 L158,187.5 L158,183.333333 L158,179.166667 L158,175 L158,170.833333 L158,166.666667 L158,162.5 L158,158.333333 L158,154.166667 L158,150 L158,145.833333 L158,141.666667 L158,137.5 L158,133.333333 L158,129.166667 L158,125 L158,120.833333 L158,116.666667 L158,112.5 L158,108.333333 L158,104.166667 L158,100 L157.166667,100 L156.333333,100 L155.5,100 L154.666667,100 L153.833333,100 L153,100 L152.166667,100 L151.333333,100 L150.5,100 L149.666667,100 L148.833333,100 L148,100 L147.166667,100 L146.333333,100 L145.5,100 L144.666667,100 L143.833333,100 L143,100 L142.166667,100 L141.333333,100 L140.5,100 L139.666667,100 L138.833333,100 L138,100 L138,104.166667 L138,108.333333 L138,112.5 L138,116.666667 L138,120.833333 L138,125 L138,129.166667 L138,133.333333 L138,137.5 L138,141.666667 L138,145.833333 L138,150 L138,154.166667 L138,158.333333 L138,162.5 L138,166.666667 L138,170.833333 L138,175 L138,179.166667 L138,183.333333 L138,187.5 L138,191.666667 L138,195.833333 L138,200 L138.833333,200 L139.666667,200 L140.5,200 L141.333333,200 L142.166667,200 L143,200 L143.833333,200 L144.666667,200 L145.5,200 L146.333333,200 L147.166667,200 L148,200 L148.833333,200 L149.666667,200 L150.5,200 L151.333333,200 L152.166667,200 L153,200 L153.833333,200 L154.666667,200 L155.5,200 L156.333333,200 L157.166667,200 L158,200 L158,195.833333 Z M8.333342,99.998829 L16.666675,99.997658 L25,99.996488 L33.333341,99.995317 L41.666674,99.994146 L50,99.992975 L58.33334,99.991804 L66.666672,99.990633 L75,99.989463 L83.333338,99.988292 L91.666671,99.987121 L100,99.98595 L108.333337,99.984779 L116.66667,99.983608 L125,99.982438 L133.333336,99.981267 L141.666669,99.980096 L150,99.978925 L158.333335,99.977754 L166.666668,99.976583 L175,99.975413 L183.333334,99.974242 L191.666667,99.973071 L200,99.9719 L200,99.9719 L199.767383,93.125403 L199.083461,86.402839 L197.963127,79.8191 L196.421273,73.389074 L194.472793,67.127653 L192.132578,61.049728 L189.415522,55.170189 L186.336519,49.503926 L182.910459,44.06583 L179.152237,38.870792 L175.076744,33.933702 L170.698875,29.26945 L166.033521,24.892928 L161.095576,20.819025 L155.899932,17.062632 L150.461481,13.638641 L144.795118,10.56194 L138.915734,7.847422 L132.838223,5.509975 L126.577477,3.564492 L120.148389,2.025862 L113.565851,0.908976 L106.844757,0.228725 L100,0 L95.833334,0 L91.666667,0 L87.500001,0 L83.333335,0 L79.166669,0 L75,0 L70.833336,0 L66.66667,0 L62.500004,0 L58.333337,0 L54.166671,0 L50,0 L45.833339,0 L41.666672,0 L37.500006,0 L33.33334,0 L29.166674,0 L25,0 L20.833341,0 L16.666675,0 L12.500009,0 L8.333342,0 L4.166676,0 L0,0 L0,0 L0,4.166664 L0,8.333331 L0,12.499998 L0,16.666665 L0,20.833331 L0,25 L0,29.166665 L0,33.333332 L0,37.499999 L0,41.666665 L0,45.833332 L0,50 L0,54.166666 L0,58.333332 L0,62.499999 L0,66.666666 L0,70.833333 L0,75 L0,79.166666 L0,83.333333 L0,87.5 L0,91.666666 L0,95.833333 L0,100 Z" fill="#121212"/>
</svg>
