<?xml version="1.0" encoding="UTF-8"?>
<svg xmlns="http://www.w3.org/2000/svg" width="200" height="200" viewBox="0 0 200 200">
  <path d="M100,0 L93.153383,0.230707 L86.430587,0.912886 L79.846505,2.031648 L73.416031,3.572099 L67.154057,5.519346 L61.075478,7.858496 L55.195186,10.574655 L49.528076,13.652929 L44.08904,17.078426 L38.892973,20.836251 L33.954767,24.911512 L29.289316,29.289315 L24.911513,33.954766 L20.836252,38.892972 L17.078427,44.089039 L13.65293,49.528075 L10.574656,55.195186 L7.858497,61.075477 L5.519347,67.154057 L3.5721,73.41603 L2.031648,79.846505 L0.912886,86.430587 L0.230707,93.153383 L0,100 L0,100 L0,104.166667 L0,108.333333 L0,112.5 L0,116.666667 L0,120.833333 L0,125 L0,129.166667 L0,133.333333 L0,137.5 L0,141.666667 L0,145.833333 L0,150 L0,154.166667 L0,158.333333 L0,162.5 L0,166.666667 L0,170.833333 L0,175 L0,179.166667 L0,183.333333 L0,187.5 L0,191.666667 L0,195.833333 L0,200 L0,200 L8.333333,200 L16.666667,200 L25,200 L33.333333,200 L41.666667,200 L50,200 L58.333333,200 L66.666667,200 L75,200 L83.333333,200 L91.666667,200 L100,200 L108.333333,200 L116.666667,200 L125,200 L133.333333,200 L141.666667,200 L150,200 L158.333333,200 L166.666667,200 L175,200 L183.333333,200 L191.666667,200 L200,200 L200,200 L200,195.833333 L200,191.666667 L200,187.5 L200,183.333333 L200,179.166667 L200,175 L200,170.833333 L200,166.666667 L200,162.5 L200,158.333333 L200,154.166667 L200,150 L200,145.833333 L200,141.666667 L200,137.5 L200,133.333333 L200,129.166667 L200,125 L200,120.833333 L200,116.666667 L200,112.5 L200,108.333333 L200,104.166667 L200,100 L200,100 L199.769295,93.153383 L199.087109,86.430587 L197.968336,79.846505 L196.42787,73.41603 L194.480606,67.154057 L192.141437,61.075477 L189.425258,55.195186 L186.346963,49.528075 L182.921445,44.089039 L179.1636,38.892972 L175.08832,33.954766 L170.7105,29.289315 L166.045034,24.911512 L161.106817,20.836251 L155.910742,17.078426 L150.471704,13.652929 L144.804596,10.574655 L138.924312,7.858496 L132.845748,5.519346 L126.583796,3.572099 L120.153352,2.031648 L113.569308,0.912886 L106.846559,0.230707 L100,0 Z" fill="#121212"/>
</svg>
