<svg width="1920" height="960" viewBox="0 0 1920 960" fill="none" xmlns="http://www.w3.org/2000/svg">
<g clip-path="url(#clip0_35_1355)">
<rect width="1920" height="960" fill="#F3F3F3"/>
<rect width="320" height="320" transform="translate(1280) rotate(90)" fill="#F3F3F3"/>
<path d="M960 96L960 128L1280 128L1280 96L960 96Z" fill="#121212"/>
<path d="M960 160L960 192L1280 192L1280 160L960 160Z" fill="#121212"/>
<path d="M960 224L960 256L1280 256L1280 224L960 224Z" fill="#121212"/>
<path d="M960 32L960 64L1280 64L1280 32L960 32Z" fill="#121212"/>
<path d="M960 288L960 320L1280 320L1280 288L960 288Z" fill="#121212"/>
<rect width="320" height="320" transform="translate(320 320) rotate(90)" fill="#121212"/>
<path d="M1.39876e-06 416L0 448L320 448L320 416L1.39876e-06 416Z" fill="#121212"/>
<path d="M1.39876e-06 480L0 512L320 512L320 480L1.39876e-06 480Z" fill="#121212"/>
<path d="M1.39876e-06 544L0 576L320 576L320 544L1.39876e-06 544Z" fill="#121212"/>
<path d="M1.39876e-06 352L0 384L320 384L320 352L1.39876e-06 352Z" fill="#121212"/>
<path d="M1.39876e-06 608L0 640L320 640L320 608L1.39876e-06 608Z" fill="#121212"/>
<g clip-path="url(#clip1_35_1355)">
<rect width="320" height="320" transform="translate(1600 320) rotate(90)" fill="#121212"/>
<circle cx="1440" cy="480" r="160" fill="#F3F3F3"/>
</g>
<rect width="320" height="320" transform="translate(640 640) rotate(90)" fill="#FF4F00"/>
<path d="M320 736L320 768L640 768L640 736L320 736Z" fill="#121212"/>
<path d="M320 800L320 832L640 832L640 800L320 800Z" fill="#121212"/>
<path d="M320 864L320 896L640 896L640 864L320 864Z" fill="#121212"/>
<path d="M320 672L320 704L640 704L640 672L320 672Z" fill="#121212"/>
<path d="M320 928L320 960L640 960L640 928L320 928Z" fill="#121212"/>
<rect width="320" height="320" transform="translate(320) rotate(90)" fill="#48A0CC"/>
<path d="M1.39876e-06 96L0 128L320 128L320 96L1.39876e-06 96Z" fill="#121212"/>
<path d="M1.39876e-06 160L0 192L320 192L320 160L1.39876e-06 160Z" fill="#121212"/>
<path d="M1.39876e-06 224L0 256L320 256L320 224L1.39876e-06 224Z" fill="#121212"/>
<path d="M1.39876e-06 32L0 64L320 64L320 32L1.39876e-06 32Z" fill="#121212"/>
<path d="M1.39876e-06 288L0 320L320 320L320 288L1.39876e-06 288Z" fill="#121212"/>
<rect width="320" height="320" transform="translate(640) rotate(90)" fill="#48A0CC"/>
<path d="M320 96L320 128L640 128L640 96L320 96Z" fill="#121212"/>
<path d="M320 160L320 192L640 192L640 160L320 160Z" fill="#121212"/>
<path d="M320 224L320 256L640 256L640 224L320 224Z" fill="#121212"/>
<path d="M320 32L320 64L640 64L640 32L320 32Z" fill="#121212"/>
<path d="M320 288L320 320L640 320L640 288L320 288Z" fill="#121212"/>
<rect width="320" height="320" transform="translate(960 320) rotate(90)" fill="#121212"/>
<path d="M640 416L640 448L960 448L960 416L640 416Z" fill="#121212"/>
<path d="M640 480L640 512L960 512L960 480L640 480Z" fill="#121212"/>
<path d="M640 544L640 576L960 576L960 544L640 544Z" fill="#121212"/>
<path d="M640 352L640 384L960 384L960 352L640 352Z" fill="#121212"/>
<path d="M640 608L640 640L960 640L960 608L640 608Z" fill="#121212"/>
<rect width="320" height="320" transform="translate(1280 640) rotate(90)" fill="#FF4F00"/>
<path d="M960 736L960 768L1280 768L1280 736L960 736Z" fill="#121212"/>
<path d="M960 800L960 832L1280 832L1280 800L960 800Z" fill="#121212"/>
<path d="M960 864L960 896L1280 896L1280 864L960 864Z" fill="#121212"/>
<path d="M960 672L960 704L1280 704L1280 672L960 672Z" fill="#121212"/>
<path d="M960 928L960 960L1280 960L1280 928L960 928Z" fill="#121212"/>
<rect width="320" height="320" transform="translate(1920 640) rotate(90)" fill="#FFA300"/>
<path d="M1600 736L1600 768L1920 768L1920 736L1600 736Z" fill="#121212"/>
<path d="M1600 800L1600 832L1920 832L1920 800L1600 800Z" fill="#121212"/>
<path d="M1600 864L1600 896L1920 896L1920 864L1600 864Z" fill="#121212"/>
<path d="M1600 672L1600 704L1920 704L1920 672L1600 672Z" fill="#121212"/>
<path d="M1600 928L1600 960L1920 960L1920 928L1600 928Z" fill="#121212"/>
<rect width="320" height="320" transform="translate(1920) rotate(90)" fill="#48A0CC"/>
<path d="M1600 96L1600 128L1920 128L1920 96L1600 96Z" fill="#121212"/>
<path d="M1600 160L1600 192L1920 192L1920 160L1600 160Z" fill="#121212"/>
<path d="M1600 224L1600 256L1920 256L1920 224L1600 224Z" fill="#121212"/>
<path d="M1600 32L1600 64L1920 64L1920 32L1600 32Z" fill="#121212"/>
<path d="M1600 288L1600 320L1920 320L1920 288L1600 288Z" fill="#121212"/>
<rect width="320" height="320" transform="translate(960) rotate(90)" fill="#48A0CC"/>
<path d="M640 96L640 128L960 128L960 96L640 96Z" fill="#121212"/>
<path d="M640 160L640 192L960 192L960 160L640 160Z" fill="#121212"/>
<path d="M640 224L640 256L960 256L960 224L640 224Z" fill="#121212"/>
<path d="M640 32L640 64L960 64L960 32L640 32Z" fill="#121212"/>
<path d="M640 288L640 320L960 320L960 288L640 288Z" fill="#121212"/>
<rect width="320" height="320" transform="translate(1600) rotate(90)" fill="#F3F3F3"/>
<path d="M1280 96L1280 128L1600 128L1600 96L1280 96Z" fill="#121212"/>
<path d="M1280 160L1280 192L1600 192L1600 160L1280 160Z" fill="#121212"/>
<path d="M1280 224L1280 256L1600 256L1600 224L1280 224Z" fill="#121212"/>
<path d="M1280 32L1280 64L1600 64L1600 32L1280 32Z" fill="#121212"/>
<path d="M1280 288L1280 320L1600 320L1600 288L1280 288Z" fill="#121212"/>
<rect width="320" height="320" transform="translate(640 960) rotate(-90)" fill="#FF4F00"/>
<path d="M960 864L960 832L640 832L640 864L960 864Z" fill="#121212"/>
<path d="M960 800L960 768L640 768L640 800L960 800Z" fill="#121212"/>
<path d="M960 736L960 704L640 704L640 736L960 736Z" fill="#121212"/>
<path d="M960 928L960 896L640 896L640 928L960 928Z" fill="#121212"/>
<path d="M960 672L960 640L640 640L640 672L960 672Z" fill="#121212"/>
<rect width="320" height="320" transform="translate(0 960) rotate(-90)" fill="#FFA300"/>
<path d="M320 864L320 832L0 832L-3.81596e-07 864L320 864Z" fill="#121212"/>
<path d="M320 800L320 768L0 768L-3.81596e-07 800L320 800Z" fill="#121212"/>
<path d="M320 736L320 704L0 704L-3.81596e-07 736L320 736Z" fill="#121212"/>
<path d="M320 928L320 896L0 896L-3.81596e-07 928L320 928Z" fill="#121212"/>
<path d="M320 672L320 640L0 640L-3.81596e-07 672L320 672Z" fill="#121212"/>
<rect width="320" height="320" transform="translate(1280 960) rotate(-90)" fill="#F3F3F3"/>
<path d="M1600 864L1600 832L1280 832L1280 864L1600 864Z" fill="#121212"/>
<path d="M1600 800L1600 768L1280 768L1280 800L1600 800Z" fill="#121212"/>
<path d="M1600 736L1600 704L1280 704L1280 736L1600 736Z" fill="#121212"/>
<path d="M1600 928L1600 896L1280 896L1280 928L1600 928Z" fill="#121212"/>
<path d="M1600 672L1600 640L1280 640L1280 672L1600 672Z" fill="#121212"/>
<rect width="320" height="320" transform="translate(640 320) rotate(90)" fill="#121212"/>
<path d="M320 416L320 448L640 448L640 416L320 416Z" fill="#121212"/>
<path d="M320 480L320 512L640 512L640 480L320 480Z" fill="#121212"/>
<path d="M320 544L320 576L640 576L640 544L320 544Z" fill="#121212"/>
<path d="M320 352L320 384L640 384L640 352L320 352Z" fill="#121212"/>
<path d="M320 608L320 640L640 640L640 608L320 608Z" fill="#121212"/>
<rect width="320" height="320" transform="translate(1920 320) rotate(90)" fill="#121212"/>
<path d="M1600 416L1600 448L1920 448L1920 416L1600 416Z" fill="#121212"/>
<path d="M1600 480L1600 512L1920 512L1920 480L1600 480Z" fill="#121212"/>
<path d="M1600 544L1600 576L1920 576L1920 544L1600 544Z" fill="#121212"/>
<path d="M1600 352L1600 384L1920 384L1920 352L1600 352Z" fill="#121212"/>
<path d="M1600 608L1600 640L1920 640L1920 608L1600 608Z" fill="#121212"/>
<rect width="320" height="320" transform="translate(1280 320) rotate(90)" fill="#121212"/>
<path d="M960 416L960 448L1280 448L1280 416L960 416Z" fill="#121212"/>
<path d="M960 480L960 512L1280 512L1280 480L960 480Z" fill="#121212"/>
<path d="M960 544L960 576L1280 576L1280 544L960 544Z" fill="#121212"/>
<path d="M960 352L960 384L1280 384L1280 352L960 352Z" fill="#121212"/>
<path d="M960 608L960 640L1280 640L1280 608L960 608Z" fill="#121212"/>
</g>
<defs>
<clipPath id="clip0_35_1355">
<rect width="1920" height="960" fill="white"/>
</clipPath>
<clipPath id="clip1_35_1355">
<rect width="320" height="320" fill="white" transform="translate(1600 320) rotate(90)"/>
</clipPath>
</defs>
</svg>
