<svg width="1920" height="960" viewBox="0 0 1920 960" fill="none" xmlns="http://www.w3.org/2000/svg">
<g clip-path="url(#clip0_35_2168)">
<rect width="1920" height="960" fill="#CCC9C4"/>
<g clip-path="url(#clip1_35_2168)">
<rect width="320" height="320" transform="translate(640 320) rotate(-90)" fill="#CCC9C4"/>
<path d="M434.291 88.7937C460.8 163.341 545.958 198.618 617.434 164.646C730.918 110.707 849.306 229.094 795.354 342.566C761.382 414.029 796.659 499.187 871.206 525.709C926.054 545.216 955.482 591.616 959.501 640L960 640L960 0L320 4.83187e-05L320 0.499248C368.384 4.53125 414.784 33.9457 434.291 88.7937Z" fill="#121212"/>
</g>
<g clip-path="url(#clip2_35_2168)">
<rect width="320" height="320" transform="translate(320 640) rotate(-90)" fill="#FF4F00"/>
<path d="M114.291 408.794C140.8 483.341 225.958 518.618 297.434 484.646C410.918 430.707 529.306 549.094 475.354 662.566C441.382 734.029 476.659 819.187 551.206 845.709C606.054 865.216 635.482 911.616 639.501 960L640 960L640 320L0 320L3.76886e-08 320.499C48.384 324.531 94.784 353.946 114.291 408.794Z" fill="#CCC9C4"/>
</g>
<g clip-path="url(#clip3_35_2168)">
<rect width="320" height="320" transform="matrix(4.37114e-08 -1 -1 -4.37114e-08 1600 640)" fill="#FF4F00"/>
<path d="M1805.71 408.794C1779.2 483.341 1694.04 518.618 1622.57 484.646C1509.08 430.707 1390.69 549.094 1444.65 662.566C1478.62 734.029 1443.34 819.187 1368.79 845.709C1313.95 865.216 1284.52 911.616 1280.5 960L1280 960L1280 320L1920 320L1920 320.499C1871.62 324.531 1825.22 353.946 1805.71 408.794Z" fill="#CCC9C4"/>
</g>
<g clip-path="url(#clip4_35_2168)">
<rect width="320" height="320" transform="translate(1280 320) rotate(-180)" fill="#CCC9C4"/>
<path d="M1048.79 525.709C1123.34 499.2 1158.62 414.042 1124.65 342.566C1070.71 229.082 1189.09 110.694 1302.57 164.646C1374.03 198.618 1459.19 163.341 1485.71 88.7936C1505.22 33.9456 1551.62 4.51843 1600 0.499236L1600 3.56072e-05L960 0L960 640L960.499 640C964.531 591.616 993.946 545.216 1048.79 525.709Z" fill="#121212"/>
</g>
<g clip-path="url(#clip5_35_2168)">
<rect width="320" height="320" transform="matrix(1 1.74846e-07 1.74846e-07 -1 320 320)" fill="#CCC9C4"/>
<path d="M871.206 525.709C796.659 499.2 761.382 414.042 795.354 342.566C849.293 229.082 730.906 110.694 617.434 164.646C545.971 198.618 460.813 163.341 434.291 88.7935C414.784 33.9455 368.384 4.51828 320 0.499068L320 -0.000132245L960 0L960 640L959.501 640C955.469 591.616 926.054 545.216 871.206 525.709Z" fill="#121212"/>
</g>
<g clip-path="url(#clip6_35_2168)">
<rect width="320" height="320" transform="matrix(1 1.74846e-07 1.74846e-07 -1 0 640)" fill="#FF4F00"/>
<path d="M551.206 845.709C476.659 819.2 441.382 734.042 475.354 662.566C529.293 549.082 410.906 430.694 297.434 484.646C225.971 518.618 140.813 483.341 114.291 408.793C94.7839 353.945 48.384 324.518 -6.11383e-05 320.499L-6.10352e-05 320L640 320L640 960L639.501 960C635.469 911.616 606.054 865.216 551.206 845.709Z" fill="#CCC9C4"/>
</g>
<g clip-path="url(#clip7_35_2168)">
<rect width="320" height="320" transform="translate(1920 640) rotate(180)" fill="#FF4F00"/>
<path d="M1368.79 845.709C1443.34 819.2 1478.62 734.042 1444.65 662.566C1390.71 549.082 1509.09 430.694 1622.57 484.646C1694.03 518.618 1779.19 483.341 1805.71 408.793C1825.22 353.945 1871.62 324.518 1920 320.499L1920 320L1280 320L1280 960L1280.5 960C1284.53 911.616 1313.95 865.216 1368.79 845.709Z" fill="#CCC9C4"/>
</g>
<g clip-path="url(#clip8_35_2168)">
<rect width="320" height="320" transform="translate(1600 320) rotate(-180)" fill="#CCC9C4"/>
<path d="M1048.79 525.709C1123.34 499.2 1158.62 414.042 1124.65 342.566C1070.71 229.082 1189.09 110.694 1302.57 164.646C1374.03 198.618 1459.19 163.341 1485.71 88.7936C1505.22 33.9456 1551.62 4.51843 1600 0.499236L1600 3.56072e-05L960 0L960 640L960.499 640C964.531 591.616 993.946 545.216 1048.79 525.709Z" fill="#121212"/>
</g>
<g clip-path="url(#clip9_35_2168)">
<rect width="320" height="320" transform="translate(1280 640) rotate(-180)" fill="#CCC9C4"/>
<path d="M1048.79 525.709C1123.34 499.2 1158.62 414.042 1124.65 342.566C1070.71 229.082 1189.09 110.694 1302.57 164.646C1374.03 198.618 1459.19 163.341 1485.71 88.7936C1505.22 33.9456 1551.62 4.51843 1600 0.499236L1600 3.56072e-05L960 0L960 640L960.499 640C964.531 591.616 993.946 545.216 1048.79 525.709Z" fill="#121212"/>
</g>
<g clip-path="url(#clip10_35_2168)">
<rect width="320" height="320" transform="matrix(1 -8.74228e-08 -8.74228e-08 -1 640 640)" fill="#CCC9C4"/>
<path d="M871.206 525.709C796.659 499.2 761.382 414.042 795.354 342.566C849.293 229.082 730.906 110.694 617.434 164.646C545.971 198.618 460.813 163.341 434.291 88.7936C414.784 33.9456 368.384 4.51843 320 0.499236L320 3.56072e-05L960 0L960 640L959.501 640C955.469 591.616 926.054 545.216 871.206 525.709Z" fill="#121212"/>
</g>
<g clip-path="url(#clip11_35_2168)">
<rect width="320" height="320" transform="matrix(1 -8.74228e-08 -8.74228e-08 -1 320 960)" fill="#FF4F00"/>
<path d="M551.206 845.709C476.659 819.2 441.382 734.042 475.354 662.566C529.293 549.082 410.906 430.694 297.434 484.646C225.971 518.618 140.813 483.341 114.291 408.794C94.7839 353.946 48.3839 324.518 -0.000122043 320.499L-0.00012207 320L640 320L640 960L639.501 960C635.469 911.616 606.054 865.216 551.206 845.709Z" fill="#CCC9C4"/>
</g>
<g clip-path="url(#clip12_35_2168)">
<rect width="320" height="320" transform="translate(1600 960) rotate(-180)" fill="#FF4F00"/>
<path d="M1368.79 845.709C1443.34 819.2 1478.62 734.042 1444.65 662.566C1390.71 549.082 1509.09 430.694 1622.57 484.646C1694.03 518.618 1779.19 483.341 1805.71 408.794C1825.22 353.946 1871.62 324.518 1920 320.499L1920 320L1280 320L1280 960L1280.5 960C1284.53 911.616 1313.95 865.216 1368.79 845.709Z" fill="#CCC9C4"/>
</g>
<rect width="320" height="320" transform="translate(1280 640) rotate(90)" fill="#CCC9C4"/>
<g clip-path="url(#clip13_35_2168)">
<path d="M1279.99 960L1280 960L1280 640L960 640C1136.2 640 1279.99 783.333 1279.99 960Z" fill="#CCC9C4"/>
<path fill-rule="evenodd" clip-rule="evenodd" d="M1216 960C1216 818.615 1101.38 704 960 704L960 672C1119.06 672 1248 800.942 1248 960L1216 960Z" fill="#121212"/>
</g>
<g clip-path="url(#clip14_35_2168)">
<path fill-rule="evenodd" clip-rule="evenodd" d="M1152 960C1152 853.961 1066.04 768 960 768L960 736C1083.71 736 1184 836.288 1184 960L1152 960Z" fill="#121212"/>
<path fill-rule="evenodd" clip-rule="evenodd" d="M1088 960C1088 889.308 1030.69 832 960 832L960 800C1048.37 800 1120 871.634 1120 960L1088 960Z" fill="#121212"/>
<path fill-rule="evenodd" clip-rule="evenodd" d="M1024 960C1024 924.654 995.346 896 960 896L960 864C1013.02 864 1056 906.981 1056 960L1024 960Z" fill="#121212"/>
<path fill-rule="evenodd" clip-rule="evenodd" d="M992 960L960 960L960 928C977.673 928 992 942.327 992 960Z" fill="#121212"/>
</g>
<rect width="320" height="320" transform="matrix(-1.19249e-08 1 1 1.19249e-08 640 640)" fill="#CCC9C4"/>
<g clip-path="url(#clip15_35_2168)">
<path d="M640.013 960L640 960L640 640L960 640C783.802 640 640.013 783.333 640.013 960Z" fill="#CCC9C4"/>
<path fill-rule="evenodd" clip-rule="evenodd" d="M704 960C704 818.615 818.615 704 960 704L960 672C800.942 672 672 800.942 672 960L704 960Z" fill="#121212"/>
</g>
<g clip-path="url(#clip16_35_2168)">
<path fill-rule="evenodd" clip-rule="evenodd" d="M768 960C768 853.961 853.961 768 960 768L960 736C836.288 736 736 836.288 736 960L768 960Z" fill="#121212"/>
<path fill-rule="evenodd" clip-rule="evenodd" d="M832 960C832 889.308 889.308 832 960 832L960 800C871.634 800 800 871.634 800 960L832 960Z" fill="#121212"/>
<path fill-rule="evenodd" clip-rule="evenodd" d="M896 960C896 924.654 924.654 896 960 896L960 864C906.981 864 864 906.981 864 960L896 960Z" fill="#121212"/>
<path fill-rule="evenodd" clip-rule="evenodd" d="M928 960L960 960L960 928C942.327 928 928 942.327 928 960Z" fill="#121212"/>
</g>
<g clip-path="url(#clip17_35_2168)">
<rect width="320" height="320" transform="translate(320 960) rotate(-180)" fill="#FF4F00"/>
<path d="M275.818 902.81C238.516 889.545 220.863 846.933 237.862 811.167C264.853 754.38 205.613 695.141 148.833 722.138C113.074 739.137 70.4614 721.484 57.1902 684.182C47.429 656.736 24.2109 642.011 0 640L-1.39876e-05 960L320 960C317.982 935.789 303.264 912.571 275.818 902.81Z" fill="#FFA300"/>
</g>
<g clip-path="url(#clip18_35_2168)">
<rect width="320" height="320" transform="matrix(1 -8.74228e-08 -8.74228e-08 -1 1600 960)" fill="#FF4F00"/>
<path d="M1644.18 902.81C1681.48 889.545 1699.14 846.933 1682.14 811.167C1655.15 754.38 1714.39 695.141 1771.17 722.138C1806.93 739.137 1849.54 721.484 1862.81 684.182C1872.57 656.736 1895.79 642.011 1920 640L1920 960L1600 960C1602.02 935.789 1616.74 912.571 1644.18 902.81Z" fill="#48A0CC"/>
</g>
</g>
<defs>
<clipPath id="clip0_35_2168">
<rect width="1920" height="960" fill="white"/>
</clipPath>
<clipPath id="clip1_35_2168">
<rect width="320" height="320" fill="white" transform="translate(640 320) rotate(-90)"/>
</clipPath>
<clipPath id="clip2_35_2168">
<rect width="320" height="320" fill="white" transform="translate(320 640) rotate(-90)"/>
</clipPath>
<clipPath id="clip3_35_2168">
<rect width="320" height="320" fill="white" transform="matrix(4.37114e-08 -1 -1 -4.37114e-08 1600 640)"/>
</clipPath>
<clipPath id="clip4_35_2168">
<rect width="320" height="320" fill="white" transform="translate(1280 320) rotate(-180)"/>
</clipPath>
<clipPath id="clip5_35_2168">
<rect width="320" height="320" fill="white" transform="matrix(1 1.74846e-07 1.74846e-07 -1 320 320)"/>
</clipPath>
<clipPath id="clip6_35_2168">
<rect width="320" height="320" fill="white" transform="matrix(1 1.74846e-07 1.74846e-07 -1 0 640)"/>
</clipPath>
<clipPath id="clip7_35_2168">
<rect width="320" height="320" fill="white" transform="translate(1920 640) rotate(180)"/>
</clipPath>
<clipPath id="clip8_35_2168">
<rect width="320" height="320" fill="white" transform="translate(1600 320) rotate(-180)"/>
</clipPath>
<clipPath id="clip9_35_2168">
<rect width="320" height="320" fill="white" transform="translate(1280 640) rotate(-180)"/>
</clipPath>
<clipPath id="clip10_35_2168">
<rect width="320" height="320" fill="white" transform="matrix(1 -8.74228e-08 -8.74228e-08 -1 640 640)"/>
</clipPath>
<clipPath id="clip11_35_2168">
<rect width="320" height="320" fill="white" transform="matrix(1 -8.74228e-08 -8.74228e-08 -1 320 960)"/>
</clipPath>
<clipPath id="clip12_35_2168">
<rect width="320" height="320" fill="white" transform="translate(1600 960) rotate(-180)"/>
</clipPath>
<clipPath id="clip13_35_2168">
<rect width="320" height="320" fill="white" transform="translate(1280 640) rotate(90)"/>
</clipPath>
<clipPath id="clip14_35_2168">
<rect width="320" height="320" fill="white" transform="translate(1280 640) rotate(90)"/>
</clipPath>
<clipPath id="clip15_35_2168">
<rect width="320" height="320" fill="white" transform="matrix(-1.19249e-08 1 1 1.19249e-08 640 640)"/>
</clipPath>
<clipPath id="clip16_35_2168">
<rect width="320" height="320" fill="white" transform="matrix(-1.19249e-08 1 1 1.19249e-08 640 640)"/>
</clipPath>
<clipPath id="clip17_35_2168">
<rect width="320" height="320" fill="white" transform="translate(320 960) rotate(-180)"/>
</clipPath>
<clipPath id="clip18_35_2168">
<rect width="320" height="320" fill="white" transform="matrix(1 -8.74228e-08 -8.74228e-08 -1 1600 960)"/>
</clipPath>
</defs>
</svg>
