<svg width="1921" height="960" viewBox="0 0 1921 960" fill="none" xmlns="http://www.w3.org/2000/svg">
<g clip-path="url(#clip0_2209_3969)">
<path d="M960.04 640.31C871.68 640.31 791.68 676.12 733.77 734.04C675.99 791.81 640.22 871.57 640.05 959.69H800C800.34 871.59 871.85 800.29 959.99 800.32L959.95 959.69H960.04V640.32V640.31Z" fill="#121212"/>
<path d="M1440.04 960C1528.41 960 1600.04 888.366 1600.04 800C1600.04 711.634 1528.41 640 1440.04 640C1351.67 640 1280.04 711.634 1280.04 800C1280.04 888.366 1351.67 960 1440.04 960Z" fill="#121212"/>
<path d="M640.04 320C639.99 496.68 783.31 639.95 960.04 640V320H640.04Z" fill="#121212"/>
<path d="M640.04 320H960.04V1.30786e-05C783.36 -0.0499869 640.09 143.27 640.04 320Z" fill="#121212"/>
<path d="M640.04 320V0H320.04C319.99 176.68 463.31 319.95 640.04 320Z" fill="#121212"/>
<path d="M320.04 320C496.77 320.05 640.09 463.32 640.04 640V320H320.04Z" fill="#121212"/>
<path d="M1120.04 800.04L960.08 800L960.04 960C1048.38 960.03 1120.01 888.41 1120.04 800.04Z" fill="#121212"/>
<path d="M1120.08 640L1120.04 799.96L1280.04 800C1280.07 711.66 1208.45 640.03 1120.08 640Z" fill="#121212"/>
<path d="M1920.04 640V320H1600.04C1599.99 496.68 1743.31 639.95 1920.04 640Z" fill="#121212"/>
<path d="M1600.04 960H1920.04V640C1743.36 639.95 1600.09 783.27 1600.04 960Z" fill="#121212"/>
<path d="M1760.08 160L1760.04 0.04L1920.04 0C1920.07 88.34 1848.45 159.97 1760.08 160Z" fill="#121212"/>
<path d="M1600.04 160.05L1760 160.01L1760.04 320.01C1671.7 320.04 1600.07 248.42 1600.04 160.05Z" fill="#121212"/>
<path d="M160.01 640H0.0498047C0.0498047 640.21 0.0498047 640.42 0.0498047 640.63V960C0.0998047 789.91 132.81 650.8 300.28 640.62L160 640.58C160 640.39 160 640.19 160 640H160.01Z" fill="#121212"/>
<path d="M319.96 640H160.01C160.01 640.19 160.01 640.39 160.01 640.58L300.29 640.62C306.8 640.22 313.36 640 319.97 640H319.96Z" fill="#121212"/>
<path d="M640.04 640H320.04C496.77 640.05 640.09 783.32 640.04 960V640Z" fill="#121212"/>
<path d="M1280.04 320C1280.1 143.27 1423.36 -0.0499869 1600.04 1.30786e-05H1280.04V320Z" fill="#121212"/>
<path d="M1600.05 640C1423.32 639.95 1280 496.68 1280.05 320V640H1600.05Z" fill="#121212"/>
<path d="M320 320H0V640H320V320Z" fill="#121212"/>
<path d="M1280.05 320C1280 496.73 1136.73 640.05 960.05 640H1280.05V320Z" fill="#121212"/>
<path d="M960.04 0C1136.77 0.05 1280.09 143.32 1280.04 320V0H960.04Z" fill="#121212"/>
</g>
<defs>
<clipPath id="clip0_2209_3969">
<rect width="1920.04" height="960" fill="white"/>
</clipPath>
</defs>
</svg>
