<svg width="1920" height="960" viewBox="0 0 1920 960" fill="none" xmlns="http://www.w3.org/2000/svg">
<g clip-path="url(#clip0_85_2745)">
<rect width="1920" height="960" fill="#F3F3F3"/>
<rect width="320" height="320" transform="matrix(1 0 0 -1 640 640)" fill="#CCC9C4"/>
<path d="M960 639.987V640H640V320C640 496.198 783.333 639.987 960 639.987Z" fill="#121212"/>
<path fill-rule="evenodd" clip-rule="evenodd" d="M641.6 352.107C656.699 502.833 776.928 623.338 927.993 638.4C938.521 639.45 949.198 639.987 960 639.987V640H640V320C640 330.834 640.542 341.545 641.6 352.107ZM641.6 365.418C661.624 506.347 773.421 618.387 914.636 638.4H641.6V365.418Z" fill="#121212"/>
<path fill-rule="evenodd" clip-rule="evenodd" d="M960 584C814.197 584 696 465.803 696 320L680 320C680 474.64 805.36 600 960 600L960 584Z" fill="#121212"/>
<path fill-rule="evenodd" clip-rule="evenodd" d="M960 520C849.543 520 760 430.457 760 320L744 320C744 439.294 840.707 536 960 536L960 520Z" fill="#121212"/>
<path fill-rule="evenodd" clip-rule="evenodd" d="M960 456C884.889 456 824 395.111 824 320L808 320C808 403.947 876.053 472 960 472L960 456Z" fill="#121212"/>
<path fill-rule="evenodd" clip-rule="evenodd" d="M960 392C920.235 392 888 359.765 888 320L872 320C872 368.601 911.399 408 960 408L960 392Z" fill="#121212"/>
<path fill-rule="evenodd" clip-rule="evenodd" d="M960 328C955.582 328 952 324.418 952 320L936 320C936 333.255 946.745 344 960 344L960 328Z" fill="#121212"/>
<rect width="320" height="320" transform="matrix(-1 -8.74228e-08 -8.74228e-08 1 1280 640)" fill="#DBE2E9"/>
<path d="M960 640.013L960 640L1280 640L1280 960C1280 783.802 1136.67 640.013 960 640.013Z" fill="#121212"/>
<path fill-rule="evenodd" clip-rule="evenodd" d="M1278.4 927.893C1263.3 777.167 1143.07 656.662 992.007 641.6C981.479 640.55 970.802 640.013 960 640.013L960 640L1280 640L1280 960C1280 949.166 1279.46 938.455 1278.4 927.893ZM1278.4 914.582C1258.38 773.653 1146.58 661.613 1005.36 641.6L1278.4 641.6L1278.4 914.582Z" fill="#121212"/>
<path fill-rule="evenodd" clip-rule="evenodd" d="M960 696C1105.8 696 1224 814.197 1224 960L1240 960C1240 805.36 1114.64 680 960 680L960 696Z" fill="#121212"/>
<path fill-rule="evenodd" clip-rule="evenodd" d="M960 760C1070.46 760 1160 849.543 1160 960L1176 960C1176 840.707 1079.29 744 960 744L960 760Z" fill="#121212"/>
<path fill-rule="evenodd" clip-rule="evenodd" d="M960 824C1035.11 824 1096 884.889 1096 960L1112 960C1112 876.053 1043.95 808 960 808L960 824Z" fill="#121212"/>
<path fill-rule="evenodd" clip-rule="evenodd" d="M960 888C999.765 888 1032 920.236 1032 960L1048 960C1048 911.399 1008.6 872 960 872L960 888Z" fill="#121212"/>
<path fill-rule="evenodd" clip-rule="evenodd" d="M960 952C964.418 952 968 955.582 968 960L984 960C984 946.745 973.255 936 960 936L960 952Z" fill="#121212"/>
<rect width="320" height="320" transform="matrix(-4.37114e-08 -1 -1 4.37114e-08 1600 640)" fill="#DBE2E9"/>
<path d="M1599.99 320L1600 320L1600 640L1280 640C1456.2 640 1599.99 496.667 1599.99 320Z" fill="#121212"/>
<path fill-rule="evenodd" clip-rule="evenodd" d="M1312.11 638.4C1462.83 623.301 1583.34 503.072 1598.4 352.007C1599.45 341.479 1599.99 330.802 1599.99 320L1600 320L1600 640L1280 640C1290.83 640 1301.54 639.458 1312.11 638.4ZM1325.42 638.4C1466.35 618.376 1578.39 506.579 1598.4 365.364L1598.4 638.4L1325.42 638.4Z" fill="#121212"/>
<path fill-rule="evenodd" clip-rule="evenodd" d="M1544 320C1544 465.803 1425.8 584 1280 584L1280 600C1434.64 600 1560 474.64 1560 320L1544 320Z" fill="#121212"/>
<path fill-rule="evenodd" clip-rule="evenodd" d="M1480 320C1480 430.457 1390.46 520 1280 520L1280 536C1399.29 536 1496 439.293 1496 320L1480 320Z" fill="#121212"/>
<path fill-rule="evenodd" clip-rule="evenodd" d="M1416 320C1416 395.111 1355.11 456 1280 456L1280 472C1363.95 472 1432 403.947 1432 320L1416 320Z" fill="#121212"/>
<path fill-rule="evenodd" clip-rule="evenodd" d="M1352 320C1352 359.765 1319.76 392 1280 392L1280 408C1328.6 408 1368 368.601 1368 320L1352 320Z" fill="#121212"/>
<path fill-rule="evenodd" clip-rule="evenodd" d="M1288 320C1288 324.418 1284.42 328 1280 328L1280 344C1293.25 344 1304 333.255 1304 320L1288 320Z" fill="#121212"/>
<rect width="320" height="320" transform="matrix(-4.37114e-08 1 1 4.37114e-08 320 640)" fill="#DBE2E9"/>
<path d="M320.013 960L320 960L320 640L640 640C463.802 640 320.013 783.333 320.013 960Z" fill="#121212"/>
<path fill-rule="evenodd" clip-rule="evenodd" d="M607.893 641.6C457.167 656.699 336.662 776.928 321.6 927.993C320.55 938.521 320.013 949.198 320.013 960L320 960L320 640L640 640C629.166 640 618.455 640.542 607.893 641.6ZM594.582 641.6C453.653 661.624 341.613 773.421 321.6 914.636L321.6 641.6L594.582 641.6Z" fill="#121212"/>
<path fill-rule="evenodd" clip-rule="evenodd" d="M376 960C376 814.197 494.197 696 640 696L640 680C485.36 680 360 805.36 360 960H376Z" fill="#121212"/>
<path fill-rule="evenodd" clip-rule="evenodd" d="M440 960C440 849.543 529.543 760 640 760V744C520.706 744 424 840.707 424 960L440 960Z" fill="#121212"/>
<path fill-rule="evenodd" clip-rule="evenodd" d="M504 960C504 884.889 564.889 824 640 824V808C556.053 808 488 876.053 488 960L504 960Z" fill="#121212"/>
<path fill-rule="evenodd" clip-rule="evenodd" d="M568 960C568 920.235 600.236 888 640 888L640 872C591.399 872 552 911.399 552 960L568 960Z" fill="#121212"/>
<path fill-rule="evenodd" clip-rule="evenodd" d="M632 960C632 955.582 635.582 952 640 952L640 936C626.745 936 616 946.745 616 960H632Z" fill="#121212"/>
<rect width="320" height="320" transform="matrix(-4.37114e-08 1 1 4.37114e-08 960 0)" fill="#F3F3F3"/>
<path d="M960.013 320L960 320L960 0L1280 1.39876e-05C1103.8 6.28577e-06 960.013 143.333 960.013 320Z" fill="#121212"/>
<path fill-rule="evenodd" clip-rule="evenodd" d="M1247.89 1.60001C1097.17 16.6994 976.662 136.928 961.6 287.993C960.55 298.521 960.013 309.198 960.013 320L960 320L960 0L1280 1.39876e-05C1269.17 1.35141e-05 1258.46 0.541869 1247.89 1.60001ZM1234.58 1.60001C1093.65 21.624 981.613 133.421 961.6 274.636L961.6 1.6L1234.58 1.60001Z" fill="#121212"/>
<path fill-rule="evenodd" clip-rule="evenodd" d="M1016 320C1016 174.197 1134.2 56 1280 56V40C1125.36 40 1000 165.36 1000 320L1016 320Z" fill="#121212"/>
<path fill-rule="evenodd" clip-rule="evenodd" d="M1080 320C1080 209.543 1169.54 120 1280 120V104C1160.71 104 1064 200.707 1064 320L1080 320Z" fill="#121212"/>
<path fill-rule="evenodd" clip-rule="evenodd" d="M1144 320C1144 244.889 1204.89 184 1280 184V168C1196.05 168 1128 236.053 1128 320L1144 320Z" fill="#121212"/>
<path fill-rule="evenodd" clip-rule="evenodd" d="M1208 320C1208 280.235 1240.24 248 1280 248V232C1231.4 232 1192 271.399 1192 320L1208 320Z" fill="#121212"/>
<path fill-rule="evenodd" clip-rule="evenodd" d="M1272 320C1272 315.582 1275.58 312 1280 312V296C1266.75 296 1256 306.745 1256 320L1272 320Z" fill="#121212"/>
<rect width="320" height="320" transform="matrix(-4.37114e-08 1 1 4.37114e-08 320 320)" fill="#DBE2E9"/>
<path d="M320.013 640L320 640L320 320L640 320C463.802 320 320.013 463.333 320.013 640Z" fill="#121212"/>
<path fill-rule="evenodd" clip-rule="evenodd" d="M607.893 321.6C457.167 336.699 336.662 456.928 321.6 607.993C320.55 618.521 320.013 629.198 320.013 640L320 640L320 320L640 320C629.166 320 618.455 320.542 607.893 321.6ZM594.582 321.6C453.653 341.624 341.613 453.421 321.6 594.636L321.6 321.6L594.582 321.6Z" fill="#121212"/>
<path fill-rule="evenodd" clip-rule="evenodd" d="M376 640C376 494.197 494.197 376 640 376V360C485.36 360 360 485.36 360 640H376Z" fill="#121212"/>
<path fill-rule="evenodd" clip-rule="evenodd" d="M440 640C440 529.543 529.543 440 640 440L640 424C520.706 424 424 520.707 424 640H440Z" fill="#121212"/>
<path fill-rule="evenodd" clip-rule="evenodd" d="M504 640C504 564.889 564.889 504 640 504L640 488C556.053 488 488 556.053 488 640L504 640Z" fill="#121212"/>
<path fill-rule="evenodd" clip-rule="evenodd" d="M568 640C568 600.235 600.236 568 640 568L640 552C591.399 552 552 591.399 552 640L568 640Z" fill="#121212"/>
<path fill-rule="evenodd" clip-rule="evenodd" d="M632 640C632 635.582 635.582 632 640 632V616C626.745 616 616 626.745 616 640H632Z" fill="#121212"/>
<rect width="320" height="320" transform="translate(640 320) rotate(-90)" fill="#DBE2E9"/>
<path d="M640.013 5.5951e-10L640 0L640 320L960 320C783.802 320 640.013 176.667 640.013 5.5951e-10Z" fill="#121212"/>
<path fill-rule="evenodd" clip-rule="evenodd" d="M927.893 318.4C777.167 303.301 656.662 183.072 641.6 32.0069C640.55 21.4793 640.013 10.802 640.013 5.5951e-10L640 0L640 320L960 320C949.166 320 938.455 319.458 927.893 318.4ZM914.582 318.4C773.653 298.376 661.613 186.579 641.6 45.3637L641.6 318.4L914.582 318.4Z" fill="#121212"/>
<path fill-rule="evenodd" clip-rule="evenodd" d="M696 1.39876e-06C696 145.803 814.197 264 960 264L960 280C805.36 280 680 154.64 680 0L696 1.39876e-06Z" fill="#121212"/>
<path fill-rule="evenodd" clip-rule="evenodd" d="M760 1.39876e-06C760 110.457 849.543 200 960 200L960 216C840.706 216 744 119.293 744 0L760 1.39876e-06Z" fill="#121212"/>
<path fill-rule="evenodd" clip-rule="evenodd" d="M824 1.39876e-06C824 75.1107 884.889 136 960 136L960 152C876.053 152 808 83.9473 808 0L824 1.39876e-06Z" fill="#121212"/>
<path fill-rule="evenodd" clip-rule="evenodd" d="M888 1.39876e-06C888 39.7645 920.235 72 960 72L960 88C911.399 88 872 48.6011 872 0L888 1.39876e-06Z" fill="#121212"/>
<path fill-rule="evenodd" clip-rule="evenodd" d="M952 1.39876e-06C952 4.41828 955.582 8 960 8L960 24C946.745 24 936 13.2548 936 0L952 1.39876e-06Z" fill="#121212"/>
<rect width="320" height="320" transform="matrix(1.31134e-07 -1 -1 -1.31134e-07 1600 960)" fill="#DBE2E9"/>
<path d="M1599.99 640L1600 640L1600 960L1280 960C1456.2 960 1599.99 816.667 1599.99 640Z" fill="#121212"/>
<path fill-rule="evenodd" clip-rule="evenodd" d="M1312.11 958.4C1462.83 943.301 1583.34 823.072 1598.4 672.007C1599.45 661.479 1599.99 650.802 1599.99 640L1600 640L1600 960L1280 960C1290.83 960 1301.54 959.458 1312.11 958.4ZM1325.42 958.4C1466.35 938.376 1578.39 826.579 1598.4 685.364L1598.4 958.4L1325.42 958.4Z" fill="#121212"/>
<path fill-rule="evenodd" clip-rule="evenodd" d="M1544 640C1544 785.803 1425.8 904 1280 904L1280 920C1434.64 920 1560 794.64 1560 640L1544 640Z" fill="#121212"/>
<path fill-rule="evenodd" clip-rule="evenodd" d="M1480 640C1480 750.457 1390.46 840 1280 840L1280 856C1399.29 856 1496 759.293 1496 640L1480 640Z" fill="#121212"/>
<path fill-rule="evenodd" clip-rule="evenodd" d="M1416 640C1416 715.111 1355.11 776 1280 776L1280 792C1363.95 792 1432 723.947 1432 640L1416 640Z" fill="#121212"/>
<path fill-rule="evenodd" clip-rule="evenodd" d="M1352 640C1352 679.765 1319.76 712 1280 712L1280 728C1328.6 728 1368 688.601 1368 640L1352 640Z" fill="#121212"/>
<path fill-rule="evenodd" clip-rule="evenodd" d="M1288 640C1288 644.418 1284.42 648 1280 648L1280 664C1293.25 664 1304 653.255 1304 640L1288 640Z" fill="#121212"/>
<rect width="320" height="320" transform="matrix(-4.37114e-08 1 1 4.37114e-08 1600 640)" fill="#DBE2E9"/>
<path d="M1600.01 960L1600 960L1600 640L1920 640C1743.8 640 1600.01 783.333 1600.01 960Z" fill="#121212"/>
<path fill-rule="evenodd" clip-rule="evenodd" d="M1887.89 641.6C1737.17 656.699 1616.66 776.928 1601.6 927.993C1600.55 938.521 1600.01 949.198 1600.01 960L1600 960L1600 640L1920 640C1909.17 640 1898.46 640.542 1887.89 641.6ZM1874.58 641.6C1733.65 661.624 1621.61 773.421 1601.6 914.636L1601.6 641.6L1874.58 641.6Z" fill="#121212"/>
<path fill-rule="evenodd" clip-rule="evenodd" d="M1656 960C1656 814.197 1774.2 696 1920 696V680C1765.36 680 1640 805.36 1640 960H1656Z" fill="#121212"/>
<path fill-rule="evenodd" clip-rule="evenodd" d="M1720 960C1720 849.543 1809.54 760 1920 760V744C1800.71 744 1704 840.707 1704 960L1720 960Z" fill="#121212"/>
<path fill-rule="evenodd" clip-rule="evenodd" d="M1784 960C1784 884.889 1844.89 824 1920 824V808C1836.05 808 1768 876.053 1768 960L1784 960Z" fill="#121212"/>
<path fill-rule="evenodd" clip-rule="evenodd" d="M1848 960C1848 920.235 1880.24 888 1920 888V872C1871.4 872 1832 911.399 1832 960L1848 960Z" fill="#121212"/>
<path fill-rule="evenodd" clip-rule="evenodd" d="M1912 960C1912 955.582 1915.58 952 1920 952V936C1906.75 936 1896 946.745 1896 960H1912Z" fill="#121212"/>
<rect width="320" height="320" transform="matrix(1.31134e-07 -1 -1 -1.31134e-07 960 960)" fill="#DBE2E9"/>
<path d="M959.987 640L960 640L960 960L640 960C816.198 960 959.987 816.667 959.987 640Z" fill="#121212"/>
<path fill-rule="evenodd" clip-rule="evenodd" d="M672.107 958.4C822.833 943.301 943.338 823.072 958.4 672.007C959.45 661.479 959.987 650.802 959.987 640L960 640L960 960L640 960C650.834 960 661.545 959.458 672.107 958.4ZM685.418 958.4C826.347 938.376 938.387 826.579 958.4 685.364L958.4 958.4L685.418 958.4Z" fill="#121212"/>
<path fill-rule="evenodd" clip-rule="evenodd" d="M904 640C904 785.803 785.803 904 640 904L640 920C794.64 920 920 794.64 920 640L904 640Z" fill="#121212"/>
<path fill-rule="evenodd" clip-rule="evenodd" d="M840 640C840 750.457 750.457 840 640 840L640 856C759.293 856 856 759.293 856 640L840 640Z" fill="#121212"/>
<path fill-rule="evenodd" clip-rule="evenodd" d="M776 640C776 715.111 715.111 776 640 776L640 792C723.947 792 792 723.947 792 640L776 640Z" fill="#121212"/>
<path fill-rule="evenodd" clip-rule="evenodd" d="M712 640C712 679.765 679.764 712 640 712L640 728C688.601 728 728 688.601 728 640L712 640Z" fill="#121212"/>
<path fill-rule="evenodd" clip-rule="evenodd" d="M648 640C648 644.418 644.418 648 640 648L640 664C653.255 664 664 653.255 664 640L648 640Z" fill="#121212"/>
<rect width="320" height="320" transform="translate(1920) rotate(90)" fill="#CCC9C4"/>
<path d="M1919.99 320L1920 320L1920 0L1600 -1.39876e-05C1776.2 -6.28577e-06 1919.99 143.333 1919.99 320Z" fill="#121212"/>
<path fill-rule="evenodd" clip-rule="evenodd" d="M1632.11 1.59999C1782.83 16.6994 1903.34 136.928 1918.4 287.993C1919.45 298.521 1919.99 309.198 1919.99 320L1920 320L1920 0L1600 -1.39876e-05C1610.83 -1.35141e-05 1621.54 0.541843 1632.11 1.59999ZM1645.42 1.59999C1786.35 21.624 1898.39 133.421 1918.4 274.636L1918.4 1.6L1645.42 1.59999Z" fill="#121212"/>
<path fill-rule="evenodd" clip-rule="evenodd" d="M1864 320C1864 174.197 1745.8 56 1600 56L1600 40C1754.64 40 1880 165.36 1880 320L1864 320Z" fill="#121212"/>
<path fill-rule="evenodd" clip-rule="evenodd" d="M1800 320C1800 209.543 1710.46 120 1600 120L1600 104C1719.29 104 1816 200.707 1816 320L1800 320Z" fill="#121212"/>
<path fill-rule="evenodd" clip-rule="evenodd" d="M1736 320C1736 244.889 1675.11 184 1600 184L1600 168C1683.95 168 1752 236.053 1752 320L1736 320Z" fill="#121212"/>
<path fill-rule="evenodd" clip-rule="evenodd" d="M1672 320C1672 280.235 1639.76 248 1600 248L1600 232C1648.6 232 1688 271.399 1688 320L1672 320Z" fill="#121212"/>
<path fill-rule="evenodd" clip-rule="evenodd" d="M1608 320C1608 315.582 1604.42 312 1600 312L1600 296C1613.25 296 1624 306.745 1624 320L1608 320Z" fill="#121212"/>
<rect width="320" height="320" transform="translate(1600) rotate(90)" fill="#CCC9C4"/>
<path d="M1599.99 320L1600 320L1600 0L1280 -1.39876e-05C1456.2 -6.28577e-06 1599.99 143.333 1599.99 320Z" fill="#121212"/>
<path fill-rule="evenodd" clip-rule="evenodd" d="M1312.11 1.59999C1462.83 16.6994 1583.34 136.928 1598.4 287.993C1599.45 298.521 1599.99 309.198 1599.99 320L1600 320L1600 0L1280 -1.39876e-05C1290.83 -1.35141e-05 1301.54 0.541843 1312.11 1.59999ZM1325.42 1.59999C1466.35 21.624 1578.39 133.421 1598.4 274.636L1598.4 1.6L1325.42 1.59999Z" fill="#121212"/>
<path fill-rule="evenodd" clip-rule="evenodd" d="M1544 320C1544 174.197 1425.8 56 1280 56L1280 40C1434.64 40 1560 165.36 1560 320L1544 320Z" fill="#121212"/>
<path fill-rule="evenodd" clip-rule="evenodd" d="M1480 320C1480 209.543 1390.46 120 1280 120L1280 104C1399.29 104 1496 200.707 1496 320L1480 320Z" fill="#121212"/>
<path fill-rule="evenodd" clip-rule="evenodd" d="M1416 320C1416 244.889 1355.11 184 1280 184L1280 168C1363.95 168 1432 236.053 1432 320L1416 320Z" fill="#121212"/>
<path fill-rule="evenodd" clip-rule="evenodd" d="M1352 320C1352 280.235 1319.76 248 1280 248L1280 232C1328.6 232 1368 271.399 1368 320L1352 320Z" fill="#121212"/>
<path fill-rule="evenodd" clip-rule="evenodd" d="M1288 320C1288 315.582 1284.42 312 1280 312L1280 296C1293.25 296 1304 306.745 1304 320L1288 320Z" fill="#121212"/>
<rect width="320" height="320" transform="translate(0 960) rotate(-90)" fill="#FFA300"/>
<path d="M0.012842 640L4.19629e-05 640L0 960L320 960C143.802 960 0.0128188 816.667 0.012842 640Z" fill="#121212"/>
<path fill-rule="evenodd" clip-rule="evenodd" d="M287.893 958.4C137.167 943.301 16.6619 823.072 1.60004 672.007C0.550392 661.479 0.0128405 650.802 0.012842 640L4.19629e-05 640L0 960L320 960C309.166 960 298.455 959.458 287.893 958.4ZM274.582 958.4C133.653 938.376 21.613 826.579 1.60004 685.364L1.6 958.4L274.582 958.4Z" fill="#121212"/>
<path fill-rule="evenodd" clip-rule="evenodd" d="M56 640C56 785.803 174.197 904 320 904L320 920C165.36 920 40 794.64 40 640L56 640Z" fill="#121212"/>
<path fill-rule="evenodd" clip-rule="evenodd" d="M120 640C120 750.457 209.543 840 320 840L320 856C200.706 856 104 759.293 104 640L120 640Z" fill="#121212"/>
<path fill-rule="evenodd" clip-rule="evenodd" d="M184 640C184 715.111 244.889 776 320 776L320 792C236.053 792 168 723.947 168 640L184 640Z" fill="#121212"/>
<path fill-rule="evenodd" clip-rule="evenodd" d="M248 640C248 679.765 280.235 712 320 712L320 728C271.399 728 232 688.601 232 640L248 640Z" fill="#121212"/>
<path fill-rule="evenodd" clip-rule="evenodd" d="M312 640C312 644.418 315.582 648 320 648L320 664C306.745 664 296 653.255 296 640L312 640Z" fill="#121212"/>
<rect width="320" height="320" transform="translate(320) rotate(90)" fill="#CCC9C4"/>
<path d="M319.987 320L320 320L320 0L0 -1.39876e-05C176.198 -6.28577e-06 319.987 143.333 319.987 320Z" fill="#121212"/>
<path fill-rule="evenodd" clip-rule="evenodd" d="M32.1071 1.59999C182.833 16.6994 303.338 136.928 318.4 287.993C319.45 298.521 319.987 309.198 319.987 320L320 320L320 0L0 -1.39876e-05C10.8335 -1.35141e-05 21.5446 0.541843 32.1071 1.59999ZM45.418 1.59999C186.347 21.624 298.387 133.421 318.4 274.636L318.4 1.6L45.418 1.59999Z" fill="#121212"/>
<path fill-rule="evenodd" clip-rule="evenodd" d="M264 320C264 174.197 145.803 56 2.30796e-05 56L2.44784e-05 40C154.64 40 280 165.36 280 320L264 320Z" fill="#121212"/>
<path fill-rule="evenodd" clip-rule="evenodd" d="M200 320C200 209.543 110.457 120 1.74846e-05 120L1.88833e-05 104C119.294 104 216 200.707 216 320L200 320Z" fill="#121212"/>
<path fill-rule="evenodd" clip-rule="evenodd" d="M136 320C136 244.889 75.1107 184 -3.36929e-06 184L-1.97053e-06 168C83.9473 168 152 236.053 152 320L136 320Z" fill="#121212"/>
<path fill-rule="evenodd" clip-rule="evenodd" d="M72 320C72 280.235 39.7645 248 -1.33495e-06 248L6.38098e-08 232C48.6011 232 88 271.399 88 320L72 320Z" fill="#121212"/>
<path fill-rule="evenodd" clip-rule="evenodd" d="M8 320C8 315.582 4.41828 312 2.60673e-06 312L4.0055e-06 296C13.2548 296 24 306.745 24 320L8 320Z" fill="#121212"/>
<rect width="320" height="320" transform="translate(320 320) rotate(90)" fill="#48A0CC"/>
<path d="M319.987 640L320 640L320 320L0 320C176.198 320 319.987 463.333 319.987 640Z" fill="#121212"/>
<path fill-rule="evenodd" clip-rule="evenodd" d="M32.1071 321.6C182.833 336.699 303.338 456.928 318.4 607.993C319.45 618.521 319.987 629.198 319.987 640L320 640L320 320L0 320C10.8335 320 21.5446 320.542 32.1071 321.6ZM45.418 321.6C186.347 341.624 298.387 453.421 318.4 594.636L318.4 321.6L45.418 321.6Z" fill="#121212"/>
<path fill-rule="evenodd" clip-rule="evenodd" d="M264 640C264 494.197 145.803 376 2.30796e-05 376L2.44784e-05 360C154.64 360 280 485.36 280 640L264 640Z" fill="#121212"/>
<path fill-rule="evenodd" clip-rule="evenodd" d="M200 640C200 529.543 110.457 440 1.74846e-05 440L1.88833e-05 424C119.294 424 216 520.707 216 640L200 640Z" fill="#121212"/>
<path fill-rule="evenodd" clip-rule="evenodd" d="M136 640C136 564.889 75.1107 504 -3.36929e-06 504L-1.97053e-06 488C83.9473 488 152 556.053 152 640L136 640Z" fill="#121212"/>
<path fill-rule="evenodd" clip-rule="evenodd" d="M72 640C72 600.235 39.7645 568 -1.33495e-06 568L6.38098e-08 552C48.6011 552 88 591.399 88 640L72 640Z" fill="#121212"/>
<path fill-rule="evenodd" clip-rule="evenodd" d="M8 640C8 635.582 4.41828 632 2.60673e-06 632L4.0055e-06 616C13.2548 616 24 626.745 24 640L8 640Z" fill="#121212"/>
<rect width="320" height="320" transform="translate(960 640) rotate(-90)" fill="#FF4F00"/>
<path d="M960.013 320L960 320L960 640L1280 640C1103.8 640 960.013 496.667 960.013 320Z" fill="#121212"/>
<path fill-rule="evenodd" clip-rule="evenodd" d="M1247.89 638.4C1097.17 623.301 976.662 503.072 961.6 352.007C960.55 341.479 960.013 330.802 960.013 320L960 320L960 640L1280 640C1269.17 640 1258.46 639.458 1247.89 638.4ZM1234.58 638.4C1093.65 618.376 981.613 506.579 961.6 365.364L961.6 638.4L1234.58 638.4Z" fill="#121212"/>
<path fill-rule="evenodd" clip-rule="evenodd" d="M1016 320C1016 465.803 1134.2 584 1280 584L1280 600C1125.36 600 1000 474.64 1000 320L1016 320Z" fill="#121212"/>
<path fill-rule="evenodd" clip-rule="evenodd" d="M1080 320C1080 430.457 1169.54 520 1280 520L1280 536C1160.71 536 1064 439.293 1064 320L1080 320Z" fill="#121212"/>
<path fill-rule="evenodd" clip-rule="evenodd" d="M1144 320C1144 395.111 1204.89 456 1280 456L1280 472C1196.05 472 1128 403.947 1128 320L1144 320Z" fill="#121212"/>
<path fill-rule="evenodd" clip-rule="evenodd" d="M1208 320C1208 359.765 1240.24 392 1280 392L1280 408C1231.4 408 1192 368.601 1192 320L1208 320Z" fill="#121212"/>
<path fill-rule="evenodd" clip-rule="evenodd" d="M1272 320C1272 324.418 1275.58 328 1280 328L1280 344C1266.75 344 1256 333.255 1256 320L1272 320Z" fill="#121212"/>
<rect width="320" height="320" transform="translate(640) rotate(90)" fill="#CCC9C4"/>
<path d="M639.987 320L640 320L640 0L320 1.39876e-05C496.198 6.28577e-06 639.987 143.333 639.987 320Z" fill="#121212"/>
<path fill-rule="evenodd" clip-rule="evenodd" d="M352.107 1.60001C502.833 16.6994 623.338 136.928 638.4 287.993C639.45 298.521 639.987 309.198 639.987 320L640 320L640 0L320 1.39876e-05C330.834 1.35141e-05 341.545 0.541869 352.107 1.60001ZM365.418 1.60001C506.347 21.624 618.387 133.421 638.4 274.636L638.4 1.6L365.418 1.60001Z" fill="#121212"/>
<path fill-rule="evenodd" clip-rule="evenodd" d="M584 320C584 174.197 465.803 56 320 56V40C474.64 40 600 165.36 600 320H584Z" fill="#121212"/>
<path fill-rule="evenodd" clip-rule="evenodd" d="M520 320C520 209.543 430.457 120 320 120L320 104C439.294 104 536 200.707 536 320L520 320Z" fill="#121212"/>
<path fill-rule="evenodd" clip-rule="evenodd" d="M456 320C456 244.889 395.111 184 320 184L320 168C403.947 168 472 236.053 472 320L456 320Z" fill="#121212"/>
<path fill-rule="evenodd" clip-rule="evenodd" d="M392 320C392 280.235 359.764 248 320 248L320 232C368.601 232 408 271.399 408 320L392 320Z" fill="#121212"/>
<path fill-rule="evenodd" clip-rule="evenodd" d="M328 320C328 315.582 324.418 312 320 312V296C333.255 296 344 306.745 344 320H328Z" fill="#121212"/>
<rect width="320" height="320" transform="translate(1600 640) rotate(-90)" fill="#CCC9C4"/>
<path d="M1600.01 320L1600 320L1600 640L1920 640C1743.8 640 1600.01 496.667 1600.01 320Z" fill="#121212"/>
<path fill-rule="evenodd" clip-rule="evenodd" d="M1887.89 638.4C1737.17 623.301 1616.66 503.072 1601.6 352.007C1600.55 341.479 1600.01 330.802 1600.01 320L1600 320L1600 640L1920 640C1909.17 640 1898.46 639.458 1887.89 638.4ZM1874.58 638.4C1733.65 618.376 1621.61 506.579 1601.6 365.364L1601.6 638.4L1874.58 638.4Z" fill="#121212"/>
<path fill-rule="evenodd" clip-rule="evenodd" d="M1656 320C1656 465.803 1774.2 584 1920 584L1920 600C1765.36 600 1640 474.64 1640 320L1656 320Z" fill="#121212"/>
<path fill-rule="evenodd" clip-rule="evenodd" d="M1720 320C1720 430.457 1809.54 520 1920 520L1920 536C1800.71 536 1704 439.293 1704 320L1720 320Z" fill="#121212"/>
<path fill-rule="evenodd" clip-rule="evenodd" d="M1784 320C1784 395.111 1844.89 456 1920 456L1920 472C1836.05 472 1768 403.947 1768 320L1784 320Z" fill="#121212"/>
<path fill-rule="evenodd" clip-rule="evenodd" d="M1848 320C1848 359.765 1880.24 392 1920 392L1920 408C1871.4 408 1832 368.601 1832 320L1848 320Z" fill="#121212"/>
<path fill-rule="evenodd" clip-rule="evenodd" d="M1912 320C1912 324.418 1915.58 328 1920 328L1920 344C1906.75 344 1896 333.255 1896 320L1912 320Z" fill="#121212"/>
</g>
<defs>
<clipPath id="clip0_85_2745">
<rect width="1920" height="960" fill="white"/>
</clipPath>
</defs>
</svg>
