<svg width="1920" height="960" viewBox="0 0 1920 960" fill="none" xmlns="http://www.w3.org/2000/svg">
<g clip-path="url(#clip0_85_3850)">
<rect width="1920" height="960" fill="#F3F3F3"/>
<rect width="320" height="320" transform="matrix(0 -1 1 0 640 960)" fill="#CCC9C4"/>
<path d="M656 960L656 656L960 656L960 960L656 960Z" fill="#121212"/>
<rect width="320" height="320" transform="matrix(0 -1 1 0 640 640)" fill="#CCC9C4"/>
<path d="M656 640L656 336L960 336L960 640L656 640Z" fill="#121212"/>
<rect width="320" height="320" transform="matrix(0 -1 1 0 1280 640)" fill="#CCC9C4"/>
<path d="M1296 640L1296 336L1600 336L1600 640L1296 640Z" fill="#121212"/>
<g clip-path="url(#clip1_85_3850)">
<rect width="320" height="320" transform="matrix(-4.37114e-08 1 1 4.37114e-08 960 320)" fill="#CCC9C4"/>
<path d="M976 320L976 624L1280 624L1280 320L976 320Z" fill="#121212"/>
</g>
<g clip-path="url(#clip2_85_3850)">
<rect width="320" height="320" transform="matrix(0 -1 1 0 640 320)" fill="#CCC9C4"/>
<path fill-rule="evenodd" clip-rule="evenodd" d="M798.326 319.992C798.641 319.997 798.957 320 799.272 320L799.282 320L799.29 320L799.359 320L799.427 320L799.442 320L799.505 320L799.513 320L799.517 320L799.583 320L799.603 320L799.641 320C799.663 320 799.686 320 799.708 320C799.723 320 799.739 320 799.754 320C799.763 320 799.772 320 799.781 320L799.791 320C799.813 320 799.836 320 799.858 320C799.875 320 799.892 320 799.909 320C799.939 320 799.97 320 800 320L800.103 320L800.14 320C800.182 320 800.225 320 800.267 320C888.51 319.856 960 248.277 960 160C960 71.7314 888.523 0.157199 800.291 0.000312157L800.208 6.80199e-05L800.14 3.75053e-05L800.08 6.80255e-05L800 6.8029e-05L800 6.8029e-05L799.935 6.99666e-06L799.897 3.75159e-05C799.882 3.75166e-05 799.867 3.75172e-05 799.852 3.75179e-05C799.841 3.75183e-05 799.83 3.75188e-05 799.82 3.75193e-05L799.794 7.00282e-06C799.771 7.00383e-06 799.748 3.75224e-05 799.725 9.85586e-05L799.685 6.80427e-05L799.653 7.00897e-06L799.641 3.75271e-05L799.638 3.75272e-05L799.577 7.01233e-06L799.516 3.75325e-05L799.513 7.01513e-06L799.504 3.75331e-05L799.436 7.01848e-06L799.375 3.75387e-05L799.353 3.75397e-05L799.289 6.806e-05L799.282 3.75428e-05L799.273 6.80608e-05C798.963 0.000434285 798.653 0.00302829 798.343 0.00778905L798.228 0.00931493L798.117 0.0109019C710.619 1.02012 640 72.2631 640 160C640 247.758 710.652 319.014 798.179 319.99C798.228 319.991 798.277 319.991 798.326 319.992ZM866.287 294.977C900.698 266.566 923.519 216.731 923.519 160C923.519 103.262 900.69 53.4219 866.27 25.0128C909.37 50.9457 938.88 101.416 938.88 160C938.88 218.576 909.378 269.041 866.287 294.977ZM747.163 297.204C717.68 269.22 697.957 218.244 697.957 160C697.957 101.763 717.675 50.7927 747.15 22.8059C708.89 48.1275 682.591 100.116 682.591 160C682.591 219.892 708.894 271.886 747.163 297.204ZM865.65 269.702C857.775 282.127 848.795 292.138 838.91 299.52C863.008 272.094 879.282 219.889 879.282 160C879.282 100.079 862.987 47.8513 838.869 20.4363C848.77 27.8211 857.764 37.8435 865.65 50.2848C874.617 64.4288 881.663 80.9472 886.604 99.3728C891.749 118.56 894.354 138.957 894.354 159.994C894.354 181.03 891.749 201.427 886.604 220.614C881.663 239.04 874.617 255.558 865.65 269.702ZM774.211 16.8385C773.973 17.0362 773.734 17.2367 773.497 17.44C764.735 24.9344 756.799 35.7888 749.919 49.7024C735.397 79.0528 727.404 118.227 727.404 160C727.404 201.773 735.397 240.941 749.919 270.298C756.799 284.211 764.735 295.066 773.497 302.56C773.735 302.764 773.973 302.965 774.212 303.163C755.561 276.903 742.757 222.657 742.757 160C742.757 97.3438 755.561 43.0988 774.211 16.8385ZM834.405 160C834.405 225.821 825.805 282.359 813.513 306.924C814.638 305.848 815.761 304.642 816.882 303.309C823.071 295.942 828.933 284.768 833.829 270.995C844.332 241.446 850.117 202.029 850.117 160C850.117 117.971 844.332 78.5536 833.829 49.0048C828.933 35.232 823.071 24.0576 816.882 16.6912C815.761 15.3576 814.638 14.1523 813.513 13.0761C825.805 37.6407 834.405 94.1792 834.405 160ZM794.812 309.222C790.192 286.033 786.917 227.965 786.917 160C786.917 92.0384 790.192 33.9726 794.811 10.7815C791.114 16.0906 786.13 27.0844 781.554 48.2176C775.109 78.0032 771.557 117.702 771.557 160C771.557 202.298 775.109 241.997 781.554 271.782C786.127 292.92 791.113 303.914 794.812 309.222ZM731.603 26.3188C689.662 52.6164 661.12 102.384 661.12 160C661.12 217.624 689.67 267.397 731.621 293.692C698.064 265.079 675.916 215.885 675.916 160C675.916 104.122 698.055 54.9338 731.603 26.3188ZM850.201 298.539C880.475 270.861 900.837 219.182 900.837 160C900.837 100.811 880.47 49.1274 850.189 21.4512C889.583 46.2396 916.844 99.0269 916.844 160C916.844 220.965 889.587 273.747 850.201 298.539ZM720.793 160C720.793 98.1934 738.126 44.5713 763.503 17.922C752.184 25.4798 741.971 36.3739 733.145 50.2976C724.178 64.4416 717.132 80.96 712.191 99.3856C707.045 118.573 704.441 138.97 704.441 160.006C704.441 181.043 707.045 201.44 712.191 220.627C717.132 239.053 724.178 255.571 733.145 269.715C741.977 283.648 752.197 294.547 763.525 302.106L763.545 302.118C738.147 275.483 720.793 221.838 720.793 160ZM824.328 15.6049C825.081 16.189 825.831 16.8008 826.578 17.44C835.34 24.9344 843.276 35.7888 850.156 49.7024C864.677 79.0592 872.671 118.227 872.671 160C872.671 201.773 864.677 240.947 850.156 270.298C843.276 284.211 835.34 295.066 826.578 302.56C825.832 303.198 825.083 303.809 824.331 304.392C843.464 278.623 856.677 223.652 856.677 160C856.677 96.3457 843.463 41.3727 824.328 15.6049ZM782.553 16.6912C783.674 15.3575 784.797 14.1522 785.922 13.0761C773.63 37.6406 765.029 94.1791 765.029 160C765.029 225.821 773.63 282.359 785.922 306.924C784.797 305.848 783.674 304.642 782.553 303.309C776.364 295.942 770.501 284.768 765.605 270.995C755.103 241.446 749.317 202.029 749.317 160C749.317 117.971 755.103 78.5536 765.605 49.0048C770.501 35.232 776.364 24.0576 782.553 16.6912ZM803.737 9.58027C807.498 14.3445 812.931 25.3396 817.881 48.2176C824.325 78.0032 827.877 117.702 827.877 160C827.877 202.298 824.325 241.997 817.881 271.782C812.928 294.656 807.498 305.652 803.737 310.417C808.486 288.08 811.877 229.165 811.877 160C811.877 90.8327 808.486 31.9155 803.737 9.58027ZM702.933 40.9523C673.335 70.2425 654.72 112.727 654.72 160C654.72 207.273 673.335 249.758 702.933 279.048C668.43 250.882 646.4 208.014 646.4 160C646.4 111.987 668.43 69.1186 702.933 40.9523ZM897.067 40.9521C926.665 70.2424 945.28 112.727 945.28 160C945.28 207.273 926.665 249.758 897.067 279.048C931.57 250.882 953.6 208.014 953.6 160C953.6 111.987 931.57 69.1184 897.067 40.9521ZM802.143 54.1568C801.247 41.11 800.292 31.4526 799.397 24.3213C798.497 31.4526 797.548 41.11 796.652 54.1568C794.649 83.3088 793.548 120.902 793.548 160C793.548 199.098 794.649 236.691 796.652 265.843C797.548 278.89 798.503 288.547 799.398 295.679C800.298 288.547 801.247 278.89 802.143 265.843C804.146 236.691 805.247 199.098 805.247 160C805.247 120.902 804.146 83.3088 802.143 54.1568Z" fill="#121212"/>
</g>
<rect width="320" height="320" transform="translate(320 640) rotate(-180)" fill="#CCC9C4"/>
<path d="M320 624L16 624L16 320L320 320L320 624Z" fill="#121212"/>
<g clip-path="url(#clip3_85_3850)">
<rect width="320" height="320" transform="translate(320 960) rotate(-180)" fill="#CCC9C4"/>
<path d="M312 952L7.99999 952L8 648L312 648L312 952Z" fill="#121212"/>
<g clip-path="url(#clip4_85_3850)">
<path d="M320 960L0 640L320 640L320 960Z" fill="#131313"/>
<path d="M0 800L160 960L-6.99382e-06 960L0 800Z" fill="#131313"/>
</g>
</g>
<rect width="320" height="320" transform="translate(1920 640) rotate(-180)" fill="#CCC9C4"/>
<path d="M1920 624L1616 624L1616 320L1920 320L1920 624Z" fill="#121212"/>
<rect width="320" height="320" transform="translate(1280 640)" fill="#CCC9C4"/>
<path d="M1280 656L1584 656L1584 960L1280 960L1280 656Z" fill="#121212"/>
<g clip-path="url(#clip5_85_3850)">
<rect width="320" height="320" transform="translate(960 320) rotate(-90)" fill="#CCC9C4"/>
<path d="M968 312L968 8.00001L1272 8L1272 312L968 312Z" fill="#121212"/>
<g clip-path="url(#clip6_85_3850)">
<path d="M960 320L1280 0L1280 320L960 320Z" fill="#131313"/>
<path d="M1120 0L960 160L960 5.08584e-06L1120 0Z" fill="#131313"/>
</g>
</g>
<rect width="320" height="320" transform="translate(1280 640) rotate(90)" fill="#CCC9C4"/>
<path d="M1264 640L1264 944L960 944L960 640L1264 640Z" fill="#121212"/>
<rect width="320" height="320" transform="translate(1600) rotate(90)" fill="#CCC9C4"/>
<rect x="1600" width="320" height="320" transform="rotate(90 1600 0)" fill="#CCC9C4"/>
<rect width="320" height="320" transform="translate(1912) rotate(90)" fill="#CCC9C4"/>
<rect x="1912" width="320" height="320" transform="rotate(90 1912 0)" fill="#CCC9C4"/>
<rect width="320" height="320" transform="translate(1920) rotate(90)" fill="#CCC9C4"/>
<rect x="1920" width="320" height="320" transform="rotate(90 1920 0)" fill="#CCC9C4"/>
<rect width="320" height="320" transform="translate(320) rotate(90)" fill="#CCC9C4"/>
<rect x="320" width="320" height="320" transform="rotate(90 320 0)" fill="#CCC9C4"/>
<rect width="320" height="320" transform="translate(640) rotate(90)" fill="#CCC9C4"/>
<rect x="640" width="320" height="320" transform="rotate(90 640 0)" fill="#CCC9C4"/>
<g clip-path="url(#clip7_85_3850)">
<rect width="320" height="320" transform="translate(320 640) rotate(-90)" fill="#CCC9C4"/>
<path d="M336 640L336 336L640 336L640 640L336 640Z" fill="#121212"/>
</g>
<rect width="320" height="320" transform="translate(320 640)" fill="#CCC9C4"/>
<path d="M320 656L624 656L624 960L320 960L320 656Z" fill="#121212"/>
<rect width="320" height="320" transform="translate(1920 640) rotate(90)" fill="#CCC9C4"/>
<path d="M1904 640L1904 944L1600 944L1600 640L1904 640Z" fill="#121212"/>
</g>
<defs>
<clipPath id="clip0_85_3850">
<rect width="1920" height="960" fill="white"/>
</clipPath>
<clipPath id="clip1_85_3850">
<rect width="320" height="320" fill="white" transform="matrix(-4.37114e-08 1 1 4.37114e-08 960 320)"/>
</clipPath>
<clipPath id="clip2_85_3850">
<rect width="320" height="320" fill="white" transform="matrix(0 -1 1 0 640 320)"/>
</clipPath>
<clipPath id="clip3_85_3850">
<rect width="320" height="320" fill="white" transform="translate(320 960) rotate(-180)"/>
</clipPath>
<clipPath id="clip4_85_3850">
<rect width="320" height="320" fill="white" transform="translate(320 640) rotate(90)"/>
</clipPath>
<clipPath id="clip5_85_3850">
<rect width="320" height="320" fill="white" transform="translate(960 320) rotate(-90)"/>
</clipPath>
<clipPath id="clip6_85_3850">
<rect width="320" height="320" fill="white" transform="translate(1280 320) rotate(180)"/>
</clipPath>
<clipPath id="clip7_85_3850">
<rect width="320" height="320" fill="white" transform="translate(320 640) rotate(-90)"/>
</clipPath>
</defs>
</svg>
