<svg width="1920" height="960" viewBox="0 0 1920 960" fill="none" xmlns="http://www.w3.org/2000/svg">
<g clip-path="url(#clip0_95_7173)">
<rect width="1920" height="960" fill="#F3F3F3"/>
<g clip-path="url(#clip1_95_7173)">
<rect width="320" height="320" fill="#F3F3F3"/>
<path d="M44.1817 57.1902C81.4843 70.455 99.1365 113.067 82.1377 148.833C55.147 205.62 114.387 264.859 171.167 237.862C206.926 220.863 249.539 238.516 262.81 275.818C272.571 303.264 295.789 317.989 320 320L320 -1.39876e-05L-1.39876e-05 0C2.01756 24.2109 16.7362 47.429 44.1817 57.1902Z" fill="#121212"/>
</g>
<g clip-path="url(#clip2_95_7173)">
<rect width="320" height="320" transform="translate(640) rotate(90)" fill="#121212"/>
<circle cx="640" cy="160" r="80" fill="#FF4F00"/>
<circle cx="640" r="80" fill="#FF4F00"/>
<circle cx="640" cy="320" r="80" fill="#FF4F00"/>
</g>
<g clip-path="url(#clip3_95_7173)">
<rect width="320" height="320" transform="translate(640)" fill="#FF4F00"/>
<path d="M684.182 57.1902C721.484 70.455 739.137 113.067 722.138 148.833C695.147 205.62 754.387 264.859 811.167 237.862C846.926 220.863 889.539 238.516 902.81 275.818C912.571 303.264 935.789 317.989 960 320L960 -1.39876e-05L640 0C642.018 24.2109 656.736 47.429 684.182 57.1902Z" fill="#FFA300"/>
</g>
<g clip-path="url(#clip4_95_7173)">
<rect width="320" height="320" transform="translate(960 320) rotate(-90)" fill="#FF4F00"/>
<path d="M1017.19 275.818C1030.45 238.516 1073.07 220.863 1108.83 237.862C1165.62 264.853 1224.86 205.613 1197.86 148.833C1180.86 113.074 1198.52 70.4614 1235.82 57.1902C1263.26 47.429 1277.99 24.2109 1280 0L960 1.01717e-05L960 320C984.211 317.982 1007.43 303.264 1017.19 275.818Z" fill="#FFA300"/>
</g>
<g clip-path="url(#clip5_95_7173)">
<rect width="320" height="320" transform="translate(1280 320) rotate(-90)" fill="#121212"/>
<circle cx="1280" cy="160" r="80" transform="rotate(180 1280 160)" fill="#FF4F00"/>
<circle cx="1280" cy="320" r="80" transform="rotate(180 1280 320)" fill="#FF4F00"/>
<circle cx="1280" cy="2.54292e-06" r="80" transform="rotate(180 1280 2.54292e-06)" fill="#FF4F00"/>
</g>
<g clip-path="url(#clip6_95_7173)">
<rect width="320" height="320" transform="translate(1600 320) rotate(-90)" fill="#F3F3F3"/>
<path d="M1657.19 275.818C1670.45 238.516 1713.07 220.863 1748.83 237.862C1805.62 264.853 1864.86 205.613 1837.86 148.833C1820.86 113.074 1838.52 70.4614 1875.82 57.1902C1903.26 47.429 1917.99 24.2109 1920 0L1600 2.79753e-05L1600 320C1624.21 317.982 1647.43 303.264 1657.19 275.818Z" fill="#121212"/>
</g>
<g clip-path="url(#clip7_95_7173)">
<rect width="320" height="320" transform="translate(0 640) rotate(-90)" fill="#FFA300"/>
<path d="M57.1456 364.397C70.4 401.67 112.979 419.309 148.717 402.323C205.459 375.354 264.653 434.547 237.677 491.283C220.691 527.014 238.33 569.594 275.603 582.854C303.027 592.608 317.741 615.808 319.75 640L320 640L320 320L-3.05176e-05 320L-3.04987e-05 320.25C24.192 322.266 47.392 336.973 57.1456 364.397Z" fill="#F3F3F3"/>
</g>
<g clip-path="url(#clip8_95_7173)">
<rect width="320" height="320" transform="translate(320 640) rotate(-90)" fill="#F3F3F3"/>
<path d="M377.146 364.397C390.4 401.67 432.979 419.309 468.717 402.323C525.459 375.354 584.653 434.547 557.677 491.283C540.691 527.014 558.33 569.594 595.603 582.854C623.027 592.608 637.741 615.808 639.75 640L640 640L640 320L320 320L320 320.25C344.192 322.266 367.392 336.973 377.146 364.397Z" fill="#121212"/>
</g>
<g clip-path="url(#clip9_95_7173)">
<rect width="320" height="320" transform="translate(960 640) rotate(-180)" fill="#FF4F00"/>
<path d="M915.818 582.81C878.516 569.545 860.863 526.933 877.862 491.167C904.853 434.38 845.613 375.141 788.833 402.138C753.074 419.137 710.461 401.484 697.19 364.182C687.429 336.736 664.211 322.011 640 320L640 640L960 640C957.982 615.789 943.264 592.571 915.818 582.81Z" fill="#121212"/>
</g>
<g clip-path="url(#clip10_95_7173)">
<rect width="320" height="320" transform="translate(1280 320) rotate(90)" fill="#FF4F00"/>
<path d="M1222.81 364.182C1209.55 401.484 1166.93 419.137 1131.17 402.138C1074.38 375.147 1015.14 434.387 1042.14 491.167C1059.14 526.926 1041.48 569.539 1004.18 582.81C976.736 592.571 962.011 615.789 960 640L1280 640L1280 320C1255.79 322.018 1232.57 336.736 1222.81 364.182Z" fill="#121212"/>
</g>
<g clip-path="url(#clip11_95_7173)">
<rect width="320" height="320" transform="translate(1600 640) rotate(180)" fill="#F3F3F3"/>
<path d="M1324.4 582.854C1361.67 569.6 1379.31 527.021 1362.32 491.283C1335.35 434.541 1394.55 375.347 1451.28 402.323C1487.01 419.309 1529.59 401.67 1542.85 364.397C1552.61 336.973 1575.81 322.259 1600 320.25L1600 320L1280 320L1280 640L1280.25 640C1282.27 615.808 1296.97 592.608 1324.4 582.854Z" fill="#121212"/>
</g>
<g clip-path="url(#clip12_95_7173)">
<rect width="320" height="320" transform="translate(1920 320) rotate(90)" fill="#F3F3F3"/>
<path d="M1862.81 364.182C1849.55 401.484 1806.93 419.137 1771.17 402.138C1714.38 375.147 1655.14 434.387 1682.14 491.167C1699.14 526.926 1681.48 569.539 1644.18 582.81C1616.74 592.571 1602.01 615.789 1600 640L1920 640L1920 320C1895.79 322.018 1872.57 336.736 1862.81 364.182Z" fill="#FFA002"/>
</g>
<g clip-path="url(#clip13_95_7173)">
<rect width="320" height="320" transform="translate(0 960) rotate(-90)" fill="#FFA300"/>
<path d="M-1.27367e-06 960L-1.58956e-05 800L320 640L320 960L-1.27367e-06 960Z" fill="#121212"/>
</g>
<g clip-path="url(#clip14_95_7173)">
<rect width="320" height="320" transform="translate(320 960) rotate(-90)" fill="#F3F3F3"/>
<path d="M320 960L320 800L640 720L640 960L320 960Z" fill="#121212"/>
</g>
<g clip-path="url(#clip15_95_7173)">
<rect width="320" height="320" transform="translate(640 960) rotate(-90)" fill="#121212"/>
<path d="M640 960L640 800L960 640L960 960L640 960Z" fill="#CCC9C4"/>
</g>
<g clip-path="url(#clip16_95_7173)">
<rect width="320" height="320" transform="translate(960 960) rotate(-90)" fill="#121212"/>
<path d="M960 960L960 800L1280 640L1280 960L960 960Z" fill="#CCC9C4"/>
</g>
<g clip-path="url(#clip17_95_7173)">
<rect width="320" height="320" transform="translate(1280 960) rotate(-90)" fill="#F3F3F3"/>
<path d="M1280 960L1280 800L1600 720L1600 960L1280 960Z" fill="#121212"/>
</g>
<g clip-path="url(#clip18_95_7173)">
<rect width="320" height="320" transform="translate(1600 960) rotate(-90)" fill="#FFA300"/>
<path d="M1600 960L1600 800L1920 640L1920 960L1600 960Z" fill="#121212"/>
</g>
</g>
<defs>
<clipPath id="clip0_95_7173">
<rect width="1920" height="960" fill="white"/>
</clipPath>
<clipPath id="clip1_95_7173">
<rect width="320" height="320" fill="white"/>
</clipPath>
<clipPath id="clip2_95_7173">
<rect width="320" height="320" fill="white" transform="translate(640) rotate(90)"/>
</clipPath>
<clipPath id="clip3_95_7173">
<rect width="320" height="320" fill="white" transform="translate(640)"/>
</clipPath>
<clipPath id="clip4_95_7173">
<rect width="320" height="320" fill="white" transform="translate(960 320) rotate(-90)"/>
</clipPath>
<clipPath id="clip5_95_7173">
<rect width="320" height="320" fill="white" transform="translate(1280 320) rotate(-90)"/>
</clipPath>
<clipPath id="clip6_95_7173">
<rect width="320" height="320" fill="white" transform="translate(1600 320) rotate(-90)"/>
</clipPath>
<clipPath id="clip7_95_7173">
<rect width="320" height="320" fill="white" transform="translate(0 640) rotate(-90)"/>
</clipPath>
<clipPath id="clip8_95_7173">
<rect width="320" height="320" fill="white" transform="translate(320 640) rotate(-90)"/>
</clipPath>
<clipPath id="clip9_95_7173">
<rect width="320" height="320" fill="white" transform="translate(960 640) rotate(-180)"/>
</clipPath>
<clipPath id="clip10_95_7173">
<rect width="320" height="320" fill="white" transform="translate(1280 320) rotate(90)"/>
</clipPath>
<clipPath id="clip11_95_7173">
<rect width="320" height="320" fill="white" transform="translate(1600 640) rotate(180)"/>
</clipPath>
<clipPath id="clip12_95_7173">
<rect width="320" height="320" fill="white" transform="translate(1920 320) rotate(90)"/>
</clipPath>
<clipPath id="clip13_95_7173">
<rect width="320" height="320" fill="white" transform="translate(0 960) rotate(-90)"/>
</clipPath>
<clipPath id="clip14_95_7173">
<rect width="320" height="320" fill="white" transform="translate(320 960) rotate(-90)"/>
</clipPath>
<clipPath id="clip15_95_7173">
<rect width="320" height="320" fill="white" transform="translate(640 960) rotate(-90)"/>
</clipPath>
<clipPath id="clip16_95_7173">
<rect width="320" height="320" fill="white" transform="translate(960 960) rotate(-90)"/>
</clipPath>
<clipPath id="clip17_95_7173">
<rect width="320" height="320" fill="white" transform="translate(1280 960) rotate(-90)"/>
</clipPath>
<clipPath id="clip18_95_7173">
<rect width="320" height="320" fill="white" transform="translate(1600 960) rotate(-90)"/>
</clipPath>
</defs>
</svg>
