<svg width="1920" height="960" viewBox="0 0 1920 960" fill="none" xmlns="http://www.w3.org/2000/svg">
<g clip-path="url(#clip0_75_3997)">
<rect width="1920" height="960" fill="#DBE2E9"/>
<g clip-path="url(#clip1_75_3997)">
<rect width="320" height="320" transform="matrix(1.74846e-07 -1 -1 -1.74846e-07 1280 320)" fill="#DBE2E9"/>
<path fill-rule="evenodd" clip-rule="evenodd" d="M1120 103.333L1120 81.3333L1264.07 81.3333L1264 0.0746432L1280 0L1280 320L1264 320C1264 148.741 1215.33 103.333 1120 103.333Z" fill="#121212"/>
</g>
<g clip-path="url(#clip2_75_3997)">
<rect width="320" height="320" transform="matrix(-2.62268e-07 1 1 2.62268e-07 320 0)" fill="#DBE2E9"/>
<path d="M480 7.31136e-05L640 0.00012207L640 160C640 71.6353 568.365 0.000100151 480 7.31136e-05Z" fill="#121212"/>
<path d="M560 240C560 195.819 595.81 160 640 160C640 160 640 195.819 640 240C640 262.095 640 320 640 320C595.809 320 560 284.181 560 240Z" fill="#121212"/>
</g>
<g clip-path="url(#clip3_75_3997)">
<rect width="320" height="320" transform="matrix(-2.62268e-07 1 1 2.62268e-07 1600 0.00012207)" fill="#DBE2E9"/>
<path d="M1760 0.000195184L1920 0.000244141L1920 160C1920 71.6354 1848.36 0.000222222 1760 0.000195184Z" fill="#121212"/>
<path d="M1840 240C1840 195.819 1875.81 160 1920 160C1920 160 1920 195.819 1920 240C1920 262.096 1920 320 1920 320C1875.81 320 1840 284.181 1840 240Z" fill="#121212"/>
</g>
<g clip-path="url(#clip4_75_3997)">
<rect width="320" height="320" transform="translate(640 960) rotate(-90)" fill="#CCC9C4"/>
<path fill-rule="evenodd" clip-rule="evenodd" d="M800 662L720 662.075L720 640.075L640 640L640 960L720 960C720.043 812.725 720 742 800 662Z" fill="#121212"/>
</g>
<g clip-path="url(#clip5_75_3997)">
<rect width="320" height="320" transform="translate(0 960) rotate(-90)" fill="#CCC9C4"/>
<path fill-rule="evenodd" clip-rule="evenodd" d="M160 662L80 662.075L80 640.075L4.20106e-05 640L0 960L80 960C80.0427 812.725 80 742 160 662Z" fill="#121212"/>
</g>
<g clip-path="url(#clip6_75_3997)">
<rect width="320" height="320" transform="translate(641 320)" fill="#DBE2E9"/>
<path d="M641 320Lnan nanL641 320C710.268 409.361 762.399 510.771 794.759 619.106L801 640L641 640L641 320Z" fill="#121212"/>
</g>
<g clip-path="url(#clip7_75_3997)">
<rect width="320" height="320" transform="translate(1 320)" fill="#DBE2E9"/>
<path d="M1.00008 320Lnan nanL1.00008 320C70.2683 409.361 122.399 510.771 154.759 619.106L161 640L1 640L1.00008 320Z" fill="#121212"/>
</g>
<g clip-path="url(#clip8_75_3997)">
<rect width="320" height="320" transform="translate(960) rotate(90)" fill="#CCC9C4"/>
<path d="M800 -8.71012e-05L640 -0.00012207L640 160C640 71.6351 711.635 -0.000106414 800 -8.71012e-05Z" fill="#121212"/>
<path d="M720 240C720 195.819 684.19 160 640 160C640 160 640 195.819 640 240C640 262.095 640 320 640 320C684.19 320 720 284.181 720 240Z" fill="#121212"/>
</g>
<g clip-path="url(#clip9_75_3997)">
<rect width="320" height="320" transform="translate(0 320) rotate(-90)" fill="#CCC9C4"/>
<path fill-rule="evenodd" clip-rule="evenodd" d="M160 103.333L160 81.3333L15.9254 81.3333L16 0.0746488L5.59506e-05 0L1.39876e-05 320L16 320C16 148.741 64.6667 103.333 160 103.333Z" fill="#121212"/>
</g>
<g clip-path="url(#clip10_75_3997)">
<rect width="320" height="320" transform="matrix(1.8677e-07 -1 -1 -1.8677e-07 1280 960)" fill="#DBE2E9"/>
<path fill-rule="evenodd" clip-rule="evenodd" d="M1120 662L1200 662.075L1200 640.075L1280 640L1280 960L1200 960C1199.96 812.725 1200 742 1120 662Z" fill="#121212"/>
</g>
<g clip-path="url(#clip11_75_3997)">
<rect width="320" height="320" transform="matrix(1.8677e-07 -1 -1 -1.8677e-07 640 960)" fill="#DBE2E9"/>
<path fill-rule="evenodd" clip-rule="evenodd" d="M480 662L560 662.075L560 640.075L640 640L640 960L560 960C559.957 812.725 560 742 480 662Z" fill="#121212"/>
</g>
<g clip-path="url(#clip12_75_3997)">
<rect width="320" height="320" transform="matrix(-1 -8.74228e-08 -8.74228e-08 1 1281 320)" fill="#CCC9C4"/>
<path d="M1281 320Lnan nanL1281 320C1211.73 409.361 1159.6 510.771 1127.24 619.106L1121 640L1281 640L1281 320Z" fill="#121212"/>
</g>
<g clip-path="url(#clip13_75_3997)">
<rect width="320" height="320" transform="matrix(-1 -8.74228e-08 -8.74228e-08 1 641 320)" fill="#CCC9C4"/>
<path d="M641 320Lnan nanL641 320C571.732 409.361 519.601 510.771 487.241 619.106L481 640L641 640L641 320Z" fill="#121212"/>
</g>
<g clip-path="url(#clip14_75_3997)">
<rect width="320" height="320" transform="translate(1280 960) rotate(-90)" fill="#CCC9C4"/>
<path fill-rule="evenodd" clip-rule="evenodd" d="M1440 662L1360 662.075L1360 640.075L1280 640L1280 960L1360 960C1360.04 812.725 1360 742 1440 662Z" fill="#121212"/>
</g>
<g clip-path="url(#clip15_75_3997)">
<rect width="320" height="320" transform="translate(1281 320)" fill="#DBE2E9"/>
<path d="M1281 320Lnan nanL1281 320C1350.27 409.361 1402.4 510.771 1434.76 619.106L1441 640L1281 640L1281 320Z" fill="#121212"/>
</g>
<g clip-path="url(#clip16_75_3997)">
<rect width="320" height="320" transform="translate(1280 320) rotate(-90)" fill="#CCC9C4"/>
<path fill-rule="evenodd" clip-rule="evenodd" d="M1440 103.333L1440 81.3333L1295.93 81.3333L1296 0.0746488L1280 0L1280 320L1296 320C1296 148.741 1344.67 103.333 1440 103.333Z" fill="#121212"/>
</g>
<g clip-path="url(#clip17_75_3997)">
<rect width="320" height="320" transform="matrix(1.8677e-07 -1 -1 -1.8677e-07 1920 960)" fill="#DBE2E9"/>
<path fill-rule="evenodd" clip-rule="evenodd" d="M1760 662L1840 662.075L1840 640.075L1920 640L1920 960L1840 960C1839.96 812.725 1840 742 1760 662Z" fill="#121212"/>
</g>
<g clip-path="url(#clip18_75_3997)">
<rect width="320" height="320" transform="matrix(-1 -8.74228e-08 -8.74228e-08 1 1921 320)" fill="#CCC9C4"/>
<path d="M1921 320Lnan nanL1921 320C1851.73 409.361 1799.6 510.771 1767.24 619.106L1761 640L1921 640L1921 320Z" fill="#121212"/>
</g>
</g>
<defs>
<clipPath id="clip0_75_3997">
<rect width="1920" height="960" fill="white"/>
</clipPath>
<clipPath id="clip1_75_3997">
<rect width="320" height="320" fill="white" transform="matrix(1.74846e-07 -1 -1 -1.74846e-07 1280 320)"/>
</clipPath>
<clipPath id="clip2_75_3997">
<rect width="320" height="320" fill="white" transform="matrix(-2.62268e-07 1 1 2.62268e-07 320 0)"/>
</clipPath>
<clipPath id="clip3_75_3997">
<rect width="320" height="320" fill="white" transform="matrix(-2.62268e-07 1 1 2.62268e-07 1600 0.00012207)"/>
</clipPath>
<clipPath id="clip4_75_3997">
<rect width="320" height="320" fill="white" transform="translate(640 960) rotate(-90)"/>
</clipPath>
<clipPath id="clip5_75_3997">
<rect width="320" height="320" fill="white" transform="translate(0 960) rotate(-90)"/>
</clipPath>
<clipPath id="clip6_75_3997">
<rect width="320" height="320" fill="white" transform="translate(641 320)"/>
</clipPath>
<clipPath id="clip7_75_3997">
<rect width="320" height="320" fill="white" transform="translate(1 320)"/>
</clipPath>
<clipPath id="clip8_75_3997">
<rect width="320" height="320" fill="white" transform="translate(960) rotate(90)"/>
</clipPath>
<clipPath id="clip9_75_3997">
<rect width="320" height="320" fill="white" transform="translate(0 320) rotate(-90)"/>
</clipPath>
<clipPath id="clip10_75_3997">
<rect width="320" height="320" fill="white" transform="matrix(1.8677e-07 -1 -1 -1.8677e-07 1280 960)"/>
</clipPath>
<clipPath id="clip11_75_3997">
<rect width="320" height="320" fill="white" transform="matrix(1.8677e-07 -1 -1 -1.8677e-07 640 960)"/>
</clipPath>
<clipPath id="clip12_75_3997">
<rect width="320" height="320" fill="white" transform="matrix(-1 -8.74228e-08 -8.74228e-08 1 1281 320)"/>
</clipPath>
<clipPath id="clip13_75_3997">
<rect width="320" height="320" fill="white" transform="matrix(-1 -8.74228e-08 -8.74228e-08 1 641 320)"/>
</clipPath>
<clipPath id="clip14_75_3997">
<rect width="320" height="320" fill="white" transform="translate(1280 960) rotate(-90)"/>
</clipPath>
<clipPath id="clip15_75_3997">
<rect width="320" height="320" fill="white" transform="translate(1281 320)"/>
</clipPath>
<clipPath id="clip16_75_3997">
<rect width="320" height="320" fill="white" transform="translate(1280 320) rotate(-90)"/>
</clipPath>
<clipPath id="clip17_75_3997">
<rect width="320" height="320" fill="white" transform="matrix(1.8677e-07 -1 -1 -1.8677e-07 1920 960)"/>
</clipPath>
<clipPath id="clip18_75_3997">
<rect width="320" height="320" fill="white" transform="matrix(-1 -8.74228e-08 -8.74228e-08 1 1921 320)"/>
</clipPath>
</defs>
</svg>
