<?xml version='1.0' encoding='UTF-8'?>
<svg xmlns="http://www.w3.org/2000/svg" version="1.1" width="1920" height="960" viewBox="0 0 1920 960">
<rect x="0.000" y="0.000" width="320.000" height="320.000" fill="#121212"/>
<g transform="translate(0.000,0.000) scale(1.60000) rotate(180,100,100)"><rect x="0" y="0" width="100" height="100" fill="#121212"/>
  <rect x="100" y="0" width="100" height="100" fill="#121212"/>
  <path fill-rule="evenodd" clip-rule="evenodd" d="M100 0C44.7715 0 0 44.7715 0 100L0 200L200 200L200 100C200 44.7715 155.228 0 100 0Z" fill="#FFFFFF"/></g>
<rect x="320.000" y="0.000" width="320.000" height="320.000" fill="#121212"/>
<g transform="translate(320.000,0.000) scale(1.60000)"><rect x="0" y="0" width="100" height="100" fill="#121212"/>
  <rect x="100" y="0" width="100" height="100" fill="#121212"/>
  <path fill-rule="evenodd" clip-rule="evenodd" d="M100 0C44.7715 0 0 44.7715 0 100L0 200L200 200L200 100C200 44.7715 155.228 0 100 0Z" fill="#4997D0"/></g>
<rect x="640.000" y="0.000" width="320.000" height="320.000" fill="#121212"/>
<g transform="translate(640.000,0.000) scale(1.60000) rotate(270,100,100)"><!-- Generator: Adobe Illustrator 30.2.1, SVG Export Plug-In . SVG Version: 2.1.1 Build 1)  -->
  
  <path d="M179.02,79.99h.98s-.98.02-.98.02l-.98.04-.98.06-.98.08-.98.11-.97.13-.97.16-.96.18-.96.2-.96.23-.95.25-.94.27-.94.3-.93.32-.92.34-.91.36-.9.39-.89.41-.88.43-.88.45-.86.48-.84.49-.84.52-.82.53-.81.56-.8.57-.78.6-.77.61-.75.63-.73.65-.72.67-.7.69-.69.7-.67.72-.65.73-.63.75-.61.77-.6.78-.57.8-.56.81-.53.82-.52.84-.49.84-.48.86-.45.88-.43.88-.41.89-.39.9-.36.91-.34.92-.32.93-.3.94-.27.94-.25.95-.23.96-.2.96-.18.96-.16.97-.13.97-.11.98-.08.98-.06.98-.04.98v.98s0,.98,0,.98l.04.98.06.98.08.98.11.98.13.97.16.97.18.96.2.96.23.96.25.95.27.94.3.94.32.93.34.92.36.91.39.9.41.89.43.88.45.88.48.86.49.84.52.84.53.82.56.81.57.8.6.78.61.77.63.75.65.73.67.72.69.7.7.69.72.67.73.65.75.63.77.61.02.02c-26.35,12-51.7,3.58-72.75-5.01-14.87-6.08-30.68-12.54-49.58-12.54-9.41,0-17.04,7.39-17.04,16.5s7.63,16.5,17.04,16.5c-18.27,0-33.08,14.77-33.08,33V0h180-.98s-.98.05-.98.05l-.98.06-.98.08-.98.11-.97.13-.97.16-.96.18-.96.2-.96.23-.95.25-.94.27-.94.3-.93.32-.92.34-.91.36-.9.39-.89.41-.88.43-.88.45-.86.48-.84.49-.84.52-.82.53-.81.56-.8.57-.78.6-.77.61-.75.63-.73.65-.72.67-.7.69-.69.7-.67.72-.65.73-.63.75-.61.77-.6.78-.57.8-.56.81-.53.82-.52.84-.49.84-.48.86-.45.88-.43.88-.41.89-.39.9-.36.91-.34.92-.32.93-.3.94-.27.94-.25.95-.23.96-.2.96-.18.96-.16.97-.13.97-.11.98-.08.98-.06.98-.04.98v.98s0,.98,0,.98l.04.98.06.98.08.98.11.98.13.97.16.97.18.96.2.96.23.96.25.95.27.94.3.94.32.93.34.92.36.91.39.9.41.89.43.88.45.88.48.86.49.84.52.84.53.82.56.81.57.8.6.78.61.77.63.75.65.73.67.72.69.7.7.69.72.67.73.65.75.63.77.61.78.6.8.57.81.56.82.53.84.52.84.49.86.48.88.45.88.43.89.41.9.39.91.36.92.34.93.32.94.3.94.27.95.25.96.23.96.2.96.18.97.16.97.13.98.11.98.08.98.06.98.04Z" fill="#121212"/>
  <path d="M200,0v200H0c0-18.23,14.81-33,33.08-33-9.41,0-17.04-7.39-17.04-16.5s7.63-16.5,17.04-16.5c18.9,0,34.71,6.46,49.58,12.54,21.05,8.59,46.4,17.01,72.75,5.01l-.02-.02-.77-.61-.75-.63-.73-.65-.72-.67-.7-.69-.69-.7-.67-.72-.65-.73-.63-.75-.61-.77-.6-.78-.57-.8-.56-.81-.53-.82-.52-.84-.49-.84-.48-.86-.45-.88-.43-.88-.41-.89-.39-.9-.36-.91-.34-.92-.32-.93-.3-.94-.27-.94-.25-.95-.23-.96-.2-.96-.18-.96-.16-.97-.13-.97-.11-.98-.08-.98-.06-.98-.04-.98v-.98s0-.98,0-.98l.04-.98.06-.98.08-.98.11-.98.13-.97.16-.97.18-.96.2-.96.23-.96.25-.95.27-.94.3-.94.32-.93.34-.92.36-.91.39-.9.41-.89.43-.88.45-.88.48-.86.49-.84.52-.84.53-.82.56-.81.57-.8.6-.78.61-.77.63-.75.65-.73.67-.72.69-.7.7-.69.72-.67.73-.65.75-.63.77-.61.78-.6.8-.57.81-.56.82-.53.84-.52.84-.49.86-.48.88-.45.88-.43.89-.41.9-.39.91-.36.92-.34.93-.32.94-.3.94-.27.95-.25.96-.23.96-.2.96-.18.97-.16.97-.13.98-.11.98-.08.98-.06.98-.04h.98s-.98-.02-.98-.02l-.98-.04-.98-.06-.98-.08-.98-.11-.97-.13-.97-.16-.96-.18-.96-.2-.96-.23-.95-.25-.94-.27-.94-.3-.93-.32-.92-.34-.91-.36-.9-.39-.89-.41-.88-.43-.88-.45-.86-.48-.84-.49-.84-.52-.82-.53-.81-.56-.8-.57-.78-.6-.77-.61-.75-.63-.73-.65-.72-.67-.7-.69-.69-.7-.67-.72-.65-.73-.63-.75-.61-.77-.6-.78-.57-.8-.56-.81-.53-.82-.52-.84-.49-.84-.48-.86-.45-.88-.43-.88-.41-.89-.39-.9-.36-.91-.34-.92-.32-.93-.3-.94-.27-.94-.25-.95-.23-.96-.2-.96-.18-.96-.16-.97-.13-.97-.11-.98-.08-.98-.06-.98-.04-.98v-.98s0-.98,0-.98l.04-.98.06-.98.08-.98.11-.98.13-.97.16-.97.18-.96.2-.96.23-.96.25-.95.27-.94.3-.94.32-.93.34-.92.36-.91.39-.9.41-.89.43-.88.45-.88.48-.86.49-.84.52-.84.53-.82.56-.81.57-.8.6-.78.61-.77.63-.75.65-.73.67-.72.69-.7.7-.69.72-.67.73-.65.75-.63.77-.61.78-.6.8-.57.81-.56.82-.53.84-.52.84-.49.86-.48.88-.45.88-.43.89-.41.9-.39.91-.36.92-.34.93-.32.94-.3.94-.27.95-.25.96-.23.96-.2.96-.18.97-.16.97-.13.98-.11.98-.08.98-.06.98-.04h.98s20-.01,20-.01Z" fill="#FFFFFF"/></g>
<rect x="960.000" y="0.000" width="320.000" height="320.000" fill="#FFFFFF"/>
<g transform="translate(960.000,0.000) scale(1.60000)"><ellipse cx="100" cy="100" rx="100" ry="50" transform="rotate(90 100 100)" fill="#121212"/>
  <circle cx="99.9998" cy="100" r="33.3333" fill="#FFFFFF"/></g>
<rect x="1280.000" y="0.000" width="320.000" height="320.000" fill="#121212"/>
<g transform="translate(1280.000,0.000) scale(1.60000) rotate(90,100,100)"><ellipse cx="100" cy="100" rx="100" ry="50" transform="rotate(90 100 100)" fill="#FFFFFF"/>
  <circle cx="99.9998" cy="100" r="33.3333" fill="#121212"/></g>
<rect x="1600.000" y="0.000" width="320.000" height="320.000" fill="#FFFFFF"/>
<g transform="translate(1600.000,0.000) scale(1.60000) rotate(180,100,100)"><ellipse cx="100" cy="100" rx="100" ry="50" transform="rotate(90 100 100)" fill="#121212"/>
  <circle cx="99.9998" cy="100" r="33.3333" fill="#FFFFFF"/></g>
<rect x="0.000" y="320.000" width="320.000" height="320.000" fill="#121212"/>
<g transform="translate(0.000,320.000) scale(1.60000) rotate(90,100,100)"><rect x="0" y="0" width="100" height="100" fill="#121212"/>
  <rect x="100" y="0" width="100" height="100" fill="#121212"/>
  <path fill-rule="evenodd" clip-rule="evenodd" d="M100 0C44.7715 0 0 44.7715 0 100L0 200L200 200L200 100C200 44.7715 155.228 0 100 0Z" fill="#4997D0"/></g>
<rect x="320.000" y="320.000" width="320.000" height="320.000" fill="#121212"/>
<g transform="translate(320.000,320.000) scale(1.60000) rotate(180,100,100)"><path fill-rule="evenodd" clip-rule="evenodd" d="M0 100L200 0L0 0L0 200L200 200L0 100Z" fill="#FFFFFF"/></g>
<rect x="640.000" y="320.000" width="320.000" height="320.000" fill="#FFFFFF"/>
<g transform="translate(640.000,320.000) scale(1.60000) rotate(270,100,100)"><ellipse cx="100" cy="100" rx="100" ry="50" transform="rotate(90 100 100)" fill="#121212"/>
  <circle cx="99.9998" cy="100" r="33.3333" fill="#FFFFFF"/></g>
<rect x="960.000" y="320.000" width="320.000" height="320.000" fill="#121212"/>
<g transform="translate(960.000,320.000) scale(1.60000) rotate(180,100,100)"><ellipse cx="100" cy="100" rx="100" ry="50" transform="rotate(90 100 100)" fill="#4997D0"/>
  <circle cx="99.9998" cy="100" r="33.3333" fill="#121212"/></g>
<rect x="1280.000" y="320.000" width="320.000" height="320.000" fill="#FFFFFF"/>
<g transform="translate(1280.000,320.000) scale(1.60000)"><ellipse cx="100" cy="100" rx="100" ry="50" transform="rotate(90 100 100)" fill="#121212"/>
  <circle cx="99.9998" cy="100" r="33.3333" fill="#FFFFFF"/></g>
<rect x="1600.000" y="320.000" width="320.000" height="320.000" fill="#121212"/>
<g transform="translate(1600.000,320.000) scale(1.60000) rotate(270,100,100)"><path fill-rule="evenodd" clip-rule="evenodd" d="M0 100L200 0L0 0L0 200L200 200L0 100Z" fill="#FFFFFF"/></g>
<rect x="0.000" y="640.000" width="320.000" height="320.000" fill="#121212"/>
<g transform="translate(0.000,640.000) scale(1.60000) rotate(90,100,100)"><path fill-rule="evenodd" clip-rule="evenodd" d="M0 100L200 0L0 0L0 200L200 200L0 100Z" fill="#FFFFFF"/></g>
<rect x="320.000" y="640.000" width="320.000" height="320.000" fill="#FFFFFF"/>
<g transform="translate(320.000,640.000) scale(1.60000) rotate(180,100,100)"><ellipse cx="100" cy="100" rx="100" ry="50" transform="rotate(90 100 100)" fill="#4997D0"/>
  <circle cx="99.9998" cy="100" r="33.3333" fill="#FFFFFF"/></g>
<rect x="640.000" y="640.000" width="320.000" height="320.000" fill="#121212"/>
<g transform="translate(640.000,640.000) scale(1.60000) rotate(90,100,100)"><ellipse cx="100" cy="100" rx="100" ry="50" transform="rotate(90 100 100)" fill="#FFFFFF"/>
  <circle cx="99.9998" cy="100" r="33.3333" fill="#121212"/></g>
<rect x="960.000" y="640.000" width="320.000" height="320.000" fill="#FFFFFF"/>
<g transform="translate(960.000,640.000) scale(1.60000) rotate(90,100,100)"><ellipse cx="100" cy="100" rx="100" ry="50" transform="rotate(90 100 100)" fill="#121212"/>
  <circle cx="99.9998" cy="100" r="33.3333" fill="#FFFFFF"/></g>
<rect x="1280.000" y="640.000" width="320.000" height="320.000" fill="#121212"/>
<g transform="translate(1280.000,640.000) scale(1.60000) rotate(180,100,100)"><path fill-rule="evenodd" clip-rule="evenodd" d="M0 100L200 0L0 0L0 200L200 200L0 100Z" fill="#FFFFFF"/></g>
<rect x="1600.000" y="640.000" width="320.000" height="320.000" fill="#FFFFFF"/>
<g transform="translate(1600.000,640.000) scale(1.60000) rotate(270,100,100)"><rect x="0" y="0" width="100" height="100" fill="#FFFFFF"/>
  <rect x="100" y="0" width="100" height="100" fill="#FFFFFF"/>
  <path fill-rule="evenodd" clip-rule="evenodd" d="M100 0C44.7715 0 0 44.7715 0 100L0 200L200 200L200 100C200 44.7715 155.228 0 100 0Z" fill="#4997D0"/></g>
</svg>
