<?xml version='1.0' encoding='UTF-8'?>
<svg xmlns="http://www.w3.org/2000/svg" version="1.1" width="1920" height="960" viewBox="0 0 1920 960">
<rect width="1920" height="960" fill="#121212"/>
<g transform="translate(320.000,0.000) scale(1.60000) rotate(180,100,100)"><path d="M50 0L50 50L0 50L0 0L50 0Z" fill="#4997D0"/></g>
<g transform="translate(640.000,0.000) scale(1.60000)"><path d="M100.1 200 C11.0989 200 -33.4731 92.3937 29.4603 29.4603 C92.3937 -33.4732 200 11.0989 200 100.1 L200 200 L100.1 200 Z" fill="#FFFFFF"/></g>
<g transform="translate(1280.000,0.000) scale(-1.60000,1.60000) rotate(90,100,100)"><path d="M100.1 200 C11.0989 200 -33.4731 92.3937 29.4603 29.4603 C92.3937 -33.4732 200 11.0989 200 100.1 L200 200 L100.1 200 Z" fill="#FFFFFF"/></g>
<g transform="translate(1280.000,0.000) scale(1.60000) rotate(270,100,100)"><circle cx="100" cy="100" r="50" fill="#4997D0"/></g>
<g transform="translate(640.000,320.000) scale(1.60000) rotate(90,100,100)"><path d="M100.1 200 C11.0989 200 -33.4731 92.3937 29.4603 29.4603 C92.3937 -33.4732 200 11.0989 200 100.1 L200 200 L100.1 200 Z" fill="#FFFFFF"/></g>
<g transform="translate(1280.000,320.000) scale(-1.60000,1.60000) rotate(180,100,100)"><path d="M100.1 200 C11.0989 200 -33.4731 92.3937 29.4603 29.4603 C92.3937 -33.4732 200 11.0989 200 100.1 L200 200 L100.1 200 Z" fill="#FFFFFF"/></g>
<g transform="translate(0.000,640.000) scale(1.60000)"><path d="M150 0L0.042 0L0 150C82.8188 150.024 149.976 82.842 150 0Z" fill="#FF4F00"/></g>
<g transform="translate(640.000,640.000) scale(-1.60000,1.60000)"><path d="M150 0L0.042 0L0 150C82.8188 150.024 149.976 82.842 150 0Z" fill="#FF4F00"/></g>
<g transform="translate(1280.000,640.000) scale(1.60000)"><path d="M150 0L0.042 0L0 150C82.8188 150.024 149.976 82.842 150 0Z" fill="#FF4F00"/></g>
<g transform="translate(1920.000,640.000) scale(-1.60000,1.60000)"><path d="M150 0L0.042 0L0 150C82.8188 150.024 149.976 82.842 150 0Z" fill="#FF4F00"/></g>
</svg>
