<?xml version='1.0' encoding='UTF-8'?>
<svg xmlns="http://www.w3.org/2000/svg" version="1.1" width="1920" height="960" viewBox="0 0 1920 960">
<rect width="1920" height="960" fill="#121212"/>
<g transform="translate(640.000,0.000) scale(1.60000)"><path d="M160 199.99H180C180 188.94 188.95 179.99 200 179.99V159.99C177.91 159.99 160 177.9 160 199.99Z" fill="#FFFFFF"/>
  <path d="M120 199.99H140C140 166.85 166.86 139.99 200 139.99V119.99C155.82 119.99 120 155.81 120 199.99Z" fill="#FFFFFF"/>
  <path d="M80 199.99H100C100 144.76 144.77 99.99 200 99.99V79.99C133.73 79.99 80 133.72 80 199.99Z" fill="#FFFFFF"/>
  <path d="M40 199.99H60C60 122.67 122.68 59.99 200 59.99V39.99C111.63 39.99 40 111.62 40 199.99Z" fill="#FFFFFF"/>
  <path d="M0 199.99H20C20 100.58 100.59 19.99 200 19.99V0C89.58 0 0 89.87 0 199.99Z" fill="#FFFFFF"/></g>
<g transform="translate(1280.000,0.000) scale(-1.60000,1.60000) rotate(90,100,100)"><path d="M160 199.99H180C180 188.94 188.95 179.99 200 179.99V159.99C177.91 159.99 160 177.9 160 199.99Z" fill="#FFFFFF"/>
  <path d="M120 199.99H140C140 166.85 166.86 139.99 200 139.99V119.99C155.82 119.99 120 155.81 120 199.99Z" fill="#FFFFFF"/>
  <path d="M80 199.99H100C100 144.76 144.77 99.99 200 99.99V79.99C133.73 79.99 80 133.72 80 199.99Z" fill="#FFFFFF"/>
  <path d="M40 199.99H60C60 122.67 122.68 59.99 200 59.99V39.99C111.63 39.99 40 111.62 40 199.99Z" fill="#FFFFFF"/>
  <path d="M0 199.99H20C20 100.58 100.59 19.99 200 19.99V0C89.58 0 0 89.87 0 199.99Z" fill="#FFFFFF"/></g>
<g transform="translate(1280.000,0.000) scale(1.60000) rotate(180,100,100)"><path d="M50 0L50 50L0 50L0 0L50 0Z" fill="#FFA300"/></g>
<g transform="translate(0.000,320.000) scale(1.60000)"><path d="M200 0L0 100L0 0L200 0Z" fill="#4997D0"/></g>
<g transform="translate(320.000,320.000) scale(1.60000)"><path d="M200 0L0 100L0 0L200 0Z" fill="#4997D0"/></g>
<g transform="translate(640.000,320.000) scale(1.60000) rotate(90,100,100)"><path d="M160 199.99H180C180 188.94 188.95 179.99 200 179.99V159.99C177.91 159.99 160 177.9 160 199.99Z" fill="#FFFFFF"/>
  <path d="M120 199.99H140C140 166.85 166.86 139.99 200 139.99V119.99C155.82 119.99 120 155.81 120 199.99Z" fill="#FFFFFF"/>
  <path d="M80 199.99H100C100 144.76 144.77 99.99 200 99.99V79.99C133.73 79.99 80 133.72 80 199.99Z" fill="#FFFFFF"/>
  <path d="M40 199.99H60C60 122.67 122.68 59.99 200 59.99V39.99C111.63 39.99 40 111.62 40 199.99Z" fill="#FFFFFF"/>
  <path d="M0 199.99H20C20 100.58 100.59 19.99 200 19.99V0C89.58 0 0 89.87 0 199.99Z" fill="#FFFFFF"/></g>
<g transform="translate(1280.000,320.000) scale(-1.60000,1.60000) rotate(180,100,100)"><path d="M160 199.99H180C180 188.94 188.95 179.99 200 179.99V159.99C177.91 159.99 160 177.9 160 199.99Z" fill="#FFFFFF"/>
  <path d="M120 199.99H140C140 166.85 166.86 139.99 200 139.99V119.99C155.82 119.99 120 155.81 120 199.99Z" fill="#FFFFFF"/>
  <path d="M80 199.99H100C100 144.76 144.77 99.99 200 99.99V79.99C133.73 79.99 80 133.72 80 199.99Z" fill="#FFFFFF"/>
  <path d="M40 199.99H60C60 122.67 122.68 59.99 200 59.99V39.99C111.63 39.99 40 111.62 40 199.99Z" fill="#FFFFFF"/>
  <path d="M0 199.99H20C20 100.58 100.59 19.99 200 19.99V0C89.58 0 0 89.87 0 199.99Z" fill="#FFFFFF"/></g>
<g transform="translate(1280.000,320.000) scale(1.60000)"><path d="M200 0L0 100L0 0L200 0Z" fill="#4997D0"/></g>
<g transform="translate(1920.000,320.000) scale(-1.60000,1.60000)"><path d="M200 0L0 100L0 0L200 0Z" fill="#4997D0"/></g>
<g transform="translate(640.000,640.000) scale(1.60000) rotate(180,100,100)"><path d="M160 199.99H180C180 188.94 188.95 179.99 200 179.99V159.99C177.91 159.99 160 177.9 160 199.99Z" fill="#FFFFFF"/>
  <path d="M120 199.99H140C140 166.85 166.86 139.99 200 139.99V119.99C155.82 119.99 120 155.81 120 199.99Z" fill="#FFFFFF"/>
  <path d="M80 199.99H100C100 144.76 144.77 99.99 200 99.99V79.99C133.73 79.99 80 133.72 80 199.99Z" fill="#FFFFFF"/>
  <path d="M40 199.99H60C60 122.67 122.68 59.99 200 59.99V39.99C111.63 39.99 40 111.62 40 199.99Z" fill="#FFFFFF"/>
  <path d="M0 199.99H20C20 100.58 100.59 19.99 200 19.99V0C89.58 0 0 89.87 0 199.99Z" fill="#FFFFFF"/></g>
<g transform="translate(1280.000,640.000) scale(-1.60000,1.60000) rotate(270,100,100)"><path d="M160 199.99H180C180 188.94 188.95 179.99 200 179.99V159.99C177.91 159.99 160 177.9 160 199.99Z" fill="#FFFFFF"/>
  <path d="M120 199.99H140C140 166.85 166.86 139.99 200 139.99V119.99C155.82 119.99 120 155.81 120 199.99Z" fill="#FFFFFF"/>
  <path d="M80 199.99H100C100 144.76 144.77 99.99 200 99.99V79.99C133.73 79.99 80 133.72 80 199.99Z" fill="#FFFFFF"/>
  <path d="M40 199.99H60C60 122.67 122.68 59.99 200 59.99V39.99C111.63 39.99 40 111.62 40 199.99Z" fill="#FFFFFF"/>
  <path d="M0 199.99H20C20 100.58 100.59 19.99 200 19.99V0C89.58 0 0 89.87 0 199.99Z" fill="#FFFFFF"/></g>
</svg>
