<?xml version='1.0' encoding='UTF-8'?>
<svg xmlns="http://www.w3.org/2000/svg" version="1.1" width="1920" height="960" viewBox="0 0 1920 960">
<rect width="1920" height="960" fill="#121212"/>
<g transform="translate(640.000,0.000) scale(1.60000)"><path d="M45 200H65L65 0H45L45 200Z" fill="#FFFFFF"/>
  <path d="M90 200H110L110 0H90L90 200Z" fill="#FFFFFF"/>
  <path d="M135 200H155L155 0H135L135 200Z" fill="#FFFFFF"/>
  <path d="M0 200H20L20 0H0L0 200Z" fill="#FFFFFF"/>
  <path d="M180 200H200L200 0H180L180 200Z" fill="#FFFFFF"/></g>
<g transform="translate(1280.000,0.000) scale(-1.60000,1.60000) rotate(90,100,100)"><path d="M45 200H65L65 0H45L45 200Z" fill="#FFFFFF"/>
  <path d="M90 200H110L110 0H90L90 200Z" fill="#FFFFFF"/>
  <path d="M135 200H155L155 0H135L135 200Z" fill="#FFFFFF"/>
  <path d="M0 200H20L20 0H0L0 200Z" fill="#FFFFFF"/>
  <path d="M180 200H200L200 0H180L180 200Z" fill="#FFFFFF"/></g>
<g transform="translate(1280.000,0.000) scale(1.60000) rotate(270,100,100)"><path d="M100 0H0V100C0 44.772 44.772 0 100 0Z" fill="#4997D0"/>
  <path d="M50.0001 150C50.0001 122.387 27.6192 100 0.0001 100C0.0001 100 0.0001 122.387 0.0001 150C0.0001 163.81 0.0001 200 0.0001 200C27.6192 200 50.0001 177.613 50.0001 150Z" fill="#4997D0"/></g>
<g transform="translate(640.000,320.000) scale(1.60000) rotate(90,100,100)"><path d="M45 200H65L65 0H45L45 200Z" fill="#FFFFFF"/>
  <path d="M90 200H110L110 0H90L90 200Z" fill="#FFFFFF"/>
  <path d="M135 200H155L155 0H135L135 200Z" fill="#FFFFFF"/>
  <path d="M0 200H20L20 0H0L0 200Z" fill="#FFFFFF"/>
  <path d="M180 200H200L200 0H180L180 200Z" fill="#FFFFFF"/></g>
<g transform="translate(1280.000,320.000) scale(-1.60000,1.60000) rotate(180,100,100)"><path d="M45 200H65L65 0H45L45 200Z" fill="#FFFFFF"/>
  <path d="M90 200H110L110 0H90L90 200Z" fill="#FFFFFF"/>
  <path d="M135 200H155L155 0H135L135 200Z" fill="#FFFFFF"/>
  <path d="M0 200H20L20 0H0L0 200Z" fill="#FFFFFF"/>
  <path d="M180 200H200L200 0H180L180 200Z" fill="#FFFFFF"/></g>
<g transform="translate(0.000,640.000) scale(1.60000)"><path fill-rule="evenodd" clip-rule="evenodd" d="M10 200L10 0L15 0L15 200L10 200Z" fill="#FF4F00"/>
  <path fill-rule="evenodd" clip-rule="evenodd" d="M120 200L120 0L125 0L125 200L120 200Z" fill="#FF4F00"/>
  <path fill-rule="evenodd" clip-rule="evenodd" d="M35 200L35 0L40 0L40 200L35 200Z" fill="#FF4F00"/>
  <path fill-rule="evenodd" clip-rule="evenodd" d="M140 200L140 0L145 0L145 200L140 200Z" fill="#FF4F00"/>
  <path fill-rule="evenodd" clip-rule="evenodd" d="M60 200L60 0L65 0L65 200L60 200Z" fill="#FF4F00"/>
  <path fill-rule="evenodd" clip-rule="evenodd" d="M160 200L160 0L165 0L165 200L160 200Z" fill="#FF4F00"/>
  <path fill-rule="evenodd" clip-rule="evenodd" d="M80 200L80 0L85 0L85 200L80 200Z" fill="#FF4F00"/>
  <path fill-rule="evenodd" clip-rule="evenodd" d="M175 200L175 0L180 0L180 200L175 200Z" fill="#FF4F00"/>
  <path fill-rule="evenodd" clip-rule="evenodd" d="M190 200L190 0L195 0L195 200L190 200Z" fill="#FF4F00"/>
  <path fill-rule="evenodd" clip-rule="evenodd" d="M100 200L100 0L105 0L105 200L100 200Z" fill="#FF4F00"/></g>
<g transform="translate(640.000,640.000) scale(-1.60000,1.60000)"><path fill-rule="evenodd" clip-rule="evenodd" d="M10 200L10 0L15 0L15 200L10 200Z" fill="#FF4F00"/>
  <path fill-rule="evenodd" clip-rule="evenodd" d="M120 200L120 0L125 0L125 200L120 200Z" fill="#FF4F00"/>
  <path fill-rule="evenodd" clip-rule="evenodd" d="M35 200L35 0L40 0L40 200L35 200Z" fill="#FF4F00"/>
  <path fill-rule="evenodd" clip-rule="evenodd" d="M140 200L140 0L145 0L145 200L140 200Z" fill="#FF4F00"/>
  <path fill-rule="evenodd" clip-rule="evenodd" d="M60 200L60 0L65 0L65 200L60 200Z" fill="#FF4F00"/>
  <path fill-rule="evenodd" clip-rule="evenodd" d="M160 200L160 0L165 0L165 200L160 200Z" fill="#FF4F00"/>
  <path fill-rule="evenodd" clip-rule="evenodd" d="M80 200L80 0L85 0L85 200L80 200Z" fill="#FF4F00"/>
  <path fill-rule="evenodd" clip-rule="evenodd" d="M175 200L175 0L180 0L180 200L175 200Z" fill="#FF4F00"/>
  <path fill-rule="evenodd" clip-rule="evenodd" d="M190 200L190 0L195 0L195 200L190 200Z" fill="#FF4F00"/>
  <path fill-rule="evenodd" clip-rule="evenodd" d="M100 200L100 0L105 0L105 200L100 200Z" fill="#FF4F00"/></g>
<g transform="translate(1280.000,640.000) scale(1.60000)"><path fill-rule="evenodd" clip-rule="evenodd" d="M10 200L10 0L15 0L15 200L10 200Z" fill="#FF4F00"/>
  <path fill-rule="evenodd" clip-rule="evenodd" d="M120 200L120 0L125 0L125 200L120 200Z" fill="#FF4F00"/>
  <path fill-rule="evenodd" clip-rule="evenodd" d="M35 200L35 0L40 0L40 200L35 200Z" fill="#FF4F00"/>
  <path fill-rule="evenodd" clip-rule="evenodd" d="M140 200L140 0L145 0L145 200L140 200Z" fill="#FF4F00"/>
  <path fill-rule="evenodd" clip-rule="evenodd" d="M60 200L60 0L65 0L65 200L60 200Z" fill="#FF4F00"/>
  <path fill-rule="evenodd" clip-rule="evenodd" d="M160 200L160 0L165 0L165 200L160 200Z" fill="#FF4F00"/>
  <path fill-rule="evenodd" clip-rule="evenodd" d="M80 200L80 0L85 0L85 200L80 200Z" fill="#FF4F00"/>
  <path fill-rule="evenodd" clip-rule="evenodd" d="M175 200L175 0L180 0L180 200L175 200Z" fill="#FF4F00"/>
  <path fill-rule="evenodd" clip-rule="evenodd" d="M190 200L190 0L195 0L195 200L190 200Z" fill="#FF4F00"/>
  <path fill-rule="evenodd" clip-rule="evenodd" d="M100 200L100 0L105 0L105 200L100 200Z" fill="#FF4F00"/></g>
<g transform="translate(1920.000,640.000) scale(-1.60000,1.60000)"><path fill-rule="evenodd" clip-rule="evenodd" d="M10 200L10 0L15 0L15 200L10 200Z" fill="#FF4F00"/>
  <path fill-rule="evenodd" clip-rule="evenodd" d="M120 200L120 0L125 0L125 200L120 200Z" fill="#FF4F00"/>
  <path fill-rule="evenodd" clip-rule="evenodd" d="M35 200L35 0L40 0L40 200L35 200Z" fill="#FF4F00"/>
  <path fill-rule="evenodd" clip-rule="evenodd" d="M140 200L140 0L145 0L145 200L140 200Z" fill="#FF4F00"/>
  <path fill-rule="evenodd" clip-rule="evenodd" d="M60 200L60 0L65 0L65 200L60 200Z" fill="#FF4F00"/>
  <path fill-rule="evenodd" clip-rule="evenodd" d="M160 200L160 0L165 0L165 200L160 200Z" fill="#FF4F00"/>
  <path fill-rule="evenodd" clip-rule="evenodd" d="M80 200L80 0L85 0L85 200L80 200Z" fill="#FF4F00"/>
  <path fill-rule="evenodd" clip-rule="evenodd" d="M175 200L175 0L180 0L180 200L175 200Z" fill="#FF4F00"/>
  <path fill-rule="evenodd" clip-rule="evenodd" d="M190 200L190 0L195 0L195 200L190 200Z" fill="#FF4F00"/>
  <path fill-rule="evenodd" clip-rule="evenodd" d="M100 200L100 0L105 0L105 200L100 200Z" fill="#FF4F00"/></g>
</svg>
