<?xml version='1.0' encoding='UTF-8'?>
<svg xmlns="http://www.w3.org/2000/svg" version="1.1" width="1920" height="960" viewBox="0 0 1920 960">
<rect x="0.000" y="0.000" width="320.000" height="320.000" fill="#F3F3F3"/>
<g transform="translate(0.000,0.000) scale(1.60000) rotate(270,100,100)"><circle cx="150" cy="100" r="50" fill="#121212"/>
  <path d="M200,0 L100,0 L100,0 L100.0151,1.2271 L100.0602,2.4534 L100.1355,3.6782 L100.2408,4.9009 L100.376,6.1205 L100.5412,7.3365 L100.7361,8.5481 L100.9607,9.7545 L101.2149,10.9551 L101.4984,12.149 L101.8112,13.3356 L102.153,14.5142 L102.5236,15.6841 L102.9228,16.8445 L103.3504,17.9948 L103.806,19.1342 L104.2895,20.2621 L104.8005,21.3778 L105.3388,22.4806 L105.9039,23.5698 L106.4956,24.6449 L107.1136,25.7051 L107.7573,26.7499 L108.4265,27.7785 L109.1208,28.7904 L109.8396,29.785 L110.5827,30.7616 L111.3495,31.7197 L112.1396,32.6586 L112.9524,33.5779 L113.7876,34.477 L114.6447,35.3553 L115.523,36.2124 L116.4221,37.0476 L117.3414,37.8604 L118.2803,38.6505 L119.2384,39.4173 L120.215,40.1604 L121.2096,40.8792 L122.2215,41.5735 L123.2501,42.2427 L124.2949,42.8864 L125.3551,43.5044 L126.4302,44.0961 L127.5194,44.6612 L128.6222,45.1995 L129.7379,45.7105 L130.8658,46.194 L132.0052,46.6496 L133.1555,47.0772 L134.3159,47.4764 L135.4858,47.847 L136.6644,48.1888 L137.851,48.5016 L139.0449,48.7851 L140.2455,49.0393 L141.4519,49.2639 L142.6635,49.4588 L143.8795,49.624 L145.0991,49.7592 L146.3218,49.8645 L147.5466,49.9398 L148.7729,49.9849 L150,50 L151.2271,49.9849 L152.4534,49.9398 L153.6782,49.8645 L154.9009,49.7592 L156.1205,49.624 L157.3365,49.4588 L158.5481,49.2639 L159.7545,49.0393 L160.9551,48.7851 L162.149,48.5016 L163.3356,48.1888 L164.5142,47.847 L165.6841,47.4764 L166.8445,47.0772 L167.9948,46.6496 L169.1342,46.194 L170.2621,45.7105 L171.3778,45.1995 L172.4806,44.6612 L173.5698,44.0961 L174.6449,43.5044 L175.7051,42.8864 L176.7499,42.2427 L177.7785,41.5735 L178.7904,40.8792 L179.785,40.1604 L180.7616,39.4173 L181.7197,38.6505 L182.6586,37.8604 L183.5779,37.0476 L184.477,36.2124 L185.3553,35.3553 L186.2124,34.477 L187.0476,33.5779 L187.8604,32.6586 L188.6505,31.7197 L189.4173,30.7616 L190.1604,29.785 L190.8792,28.7904 L191.5735,27.7785 L192.2427,26.7499 L192.8864,25.7051 L193.5043,24.6449 L194.0961,23.5698 L194.6612,22.4806 L195.1995,21.3778 L195.7105,20.2621 L196.194,19.1342 L196.6496,17.9948 L197.0772,16.8445 L197.4764,15.6841 L197.847,14.5142 L198.1888,13.3356 L198.5016,12.149 L198.7851,10.9551 L199.0393,9.7545 L199.2639,8.5481 L199.4588,7.3365 L199.624,6.1205 L199.7592,4.9009 L199.8645,3.6782 L199.9398,2.4534 L199.9849,1.2271 L200,0 Z" fill="#121212"/>
  <path d="M199.9849,198.7729 L199.9398,197.5466 L199.8645,196.3218 L199.7592,195.0991 L199.624,193.8795 L199.4588,192.6635 L199.2639,191.4519 L199.0393,190.2455 L198.7851,189.0449 L198.5016,187.851 L198.1888,186.6644 L197.847,185.4858 L197.4764,184.3159 L197.0772,183.1555 L196.6496,182.0052 L196.194,180.8658 L195.7105,179.7379 L195.1995,178.6222 L194.6612,177.5194 L194.0961,176.4302 L193.5043,175.3551 L192.8864,174.2949 L192.2427,173.2501 L191.5735,172.2215 L190.8792,171.2096 L190.1604,170.215 L189.4173,169.2384 L188.6505,168.2803 L187.8604,167.3414 L187.0476,166.4221 L186.2124,165.523 L185.3553,164.6447 L184.477,163.7876 L183.5779,162.9524 L182.6586,162.1396 L181.7197,161.3495 L180.7616,160.5827 L179.785,159.8396 L178.7904,159.1208 L177.7785,158.4265 L176.7499,157.7573 L175.7051,157.1136 L174.6449,156.4957 L173.5698,155.9039 L172.4806,155.3388 L171.3778,154.8005 L170.2621,154.2895 L169.1342,153.806 L167.9948,153.3504 L166.8445,152.9228 L165.6841,152.5236 L164.5142,152.153 L163.3356,151.8112 L162.149,151.4984 L160.9551,151.2149 L159.7545,150.9607 L158.5481,150.7361 L157.3365,150.5412 L156.1205,150.376 L154.9009,150.2408 L153.6782,150.1355 L152.4534,150.0602 L151.2271,150.0151 L150,150 L148.7729,150.0151 L147.5466,150.0602 L146.3218,150.1355 L145.0991,150.2408 L143.8795,150.376 L142.6635,150.5412 L141.4519,150.7361 L140.2455,150.9607 L139.0449,151.2149 L137.851,151.4984 L136.6644,151.8112 L135.4858,152.153 L134.3159,152.5236 L133.1555,152.9228 L132.0052,153.3504 L130.8658,153.806 L129.7379,154.2895 L128.6222,154.8005 L127.5194,155.3388 L126.4302,155.9039 L125.3551,156.4957 L124.2949,157.1136 L123.2501,157.7573 L122.2215,158.4265 L121.2096,159.1208 L120.215,159.8396 L119.2384,160.5827 L118.2803,161.3495 L117.3414,162.1396 L116.4221,162.9524 L115.523,163.7876 L114.6447,164.6447 L113.7876,165.523 L112.9524,166.4221 L112.1396,167.3414 L111.3495,168.2803 L110.5827,169.2384 L109.8396,170.215 L109.1208,171.2096 L108.4265,172.2215 L107.7573,173.2501 L107.1136,174.2949 L106.4956,175.3551 L105.9039,176.4302 L105.3388,177.5194 L104.8005,178.6222 L104.2895,179.7379 L103.806,180.8658 L103.3504,182.0052 L102.9228,183.1555 L102.5236,184.3159 L102.153,185.4858 L101.8112,186.6644 L101.4984,187.851 L101.2149,189.0449 L100.9607,190.2455 L100.7361,191.4519 L100.5412,192.6635 L100.376,193.8795 L100.2408,195.0991 L100.1355,196.3218 L100.0602,197.5466 L100.0151,198.7729 L100,200 L200,200 Z" fill="#121212"/>
  <path d="M200,0 L150,0 L150,200 L200,200 Z" fill="#121212"/></g>
<rect x="320.000" y="0.000" width="320.000" height="320.000" fill="#FFFFFF"/>
<g transform="translate(320.000,0.000) scale(1.60000) rotate(180,100,100)"><circle cx="150" cy="100" r="50" fill="#4997D0"/>
  <path d="M200,0 L100,0 L100,0 L100.0151,1.2271 L100.0602,2.4534 L100.1355,3.6782 L100.2408,4.9009 L100.376,6.1205 L100.5412,7.3365 L100.7361,8.5481 L100.9607,9.7545 L101.2149,10.9551 L101.4984,12.149 L101.8112,13.3356 L102.153,14.5142 L102.5236,15.6841 L102.9228,16.8445 L103.3504,17.9948 L103.806,19.1342 L104.2895,20.2621 L104.8005,21.3778 L105.3388,22.4806 L105.9039,23.5698 L106.4956,24.6449 L107.1136,25.7051 L107.7573,26.7499 L108.4265,27.7785 L109.1208,28.7904 L109.8396,29.785 L110.5827,30.7616 L111.3495,31.7197 L112.1396,32.6586 L112.9524,33.5779 L113.7876,34.477 L114.6447,35.3553 L115.523,36.2124 L116.4221,37.0476 L117.3414,37.8604 L118.2803,38.6505 L119.2384,39.4173 L120.215,40.1604 L121.2096,40.8792 L122.2215,41.5735 L123.2501,42.2427 L124.2949,42.8864 L125.3551,43.5044 L126.4302,44.0961 L127.5194,44.6612 L128.6222,45.1995 L129.7379,45.7105 L130.8658,46.194 L132.0052,46.6496 L133.1555,47.0772 L134.3159,47.4764 L135.4858,47.847 L136.6644,48.1888 L137.851,48.5016 L139.0449,48.7851 L140.2455,49.0393 L141.4519,49.2639 L142.6635,49.4588 L143.8795,49.624 L145.0991,49.7592 L146.3218,49.8645 L147.5466,49.9398 L148.7729,49.9849 L150,50 L151.2271,49.9849 L152.4534,49.9398 L153.6782,49.8645 L154.9009,49.7592 L156.1205,49.624 L157.3365,49.4588 L158.5481,49.2639 L159.7545,49.0393 L160.9551,48.7851 L162.149,48.5016 L163.3356,48.1888 L164.5142,47.847 L165.6841,47.4764 L166.8445,47.0772 L167.9948,46.6496 L169.1342,46.194 L170.2621,45.7105 L171.3778,45.1995 L172.4806,44.6612 L173.5698,44.0961 L174.6449,43.5044 L175.7051,42.8864 L176.7499,42.2427 L177.7785,41.5735 L178.7904,40.8792 L179.785,40.1604 L180.7616,39.4173 L181.7197,38.6505 L182.6586,37.8604 L183.5779,37.0476 L184.477,36.2124 L185.3553,35.3553 L186.2124,34.477 L187.0476,33.5779 L187.8604,32.6586 L188.6505,31.7197 L189.4173,30.7616 L190.1604,29.785 L190.8792,28.7904 L191.5735,27.7785 L192.2427,26.7499 L192.8864,25.7051 L193.5043,24.6449 L194.0961,23.5698 L194.6612,22.4806 L195.1995,21.3778 L195.7105,20.2621 L196.194,19.1342 L196.6496,17.9948 L197.0772,16.8445 L197.4764,15.6841 L197.847,14.5142 L198.1888,13.3356 L198.5016,12.149 L198.7851,10.9551 L199.0393,9.7545 L199.2639,8.5481 L199.4588,7.3365 L199.624,6.1205 L199.7592,4.9009 L199.8645,3.6782 L199.9398,2.4534 L199.9849,1.2271 L200,0 Z" fill="#4997D0"/>
  <path d="M199.9849,198.7729 L199.9398,197.5466 L199.8645,196.3218 L199.7592,195.0991 L199.624,193.8795 L199.4588,192.6635 L199.2639,191.4519 L199.0393,190.2455 L198.7851,189.0449 L198.5016,187.851 L198.1888,186.6644 L197.847,185.4858 L197.4764,184.3159 L197.0772,183.1555 L196.6496,182.0052 L196.194,180.8658 L195.7105,179.7379 L195.1995,178.6222 L194.6612,177.5194 L194.0961,176.4302 L193.5043,175.3551 L192.8864,174.2949 L192.2427,173.2501 L191.5735,172.2215 L190.8792,171.2096 L190.1604,170.215 L189.4173,169.2384 L188.6505,168.2803 L187.8604,167.3414 L187.0476,166.4221 L186.2124,165.523 L185.3553,164.6447 L184.477,163.7876 L183.5779,162.9524 L182.6586,162.1396 L181.7197,161.3495 L180.7616,160.5827 L179.785,159.8396 L178.7904,159.1208 L177.7785,158.4265 L176.7499,157.7573 L175.7051,157.1136 L174.6449,156.4957 L173.5698,155.9039 L172.4806,155.3388 L171.3778,154.8005 L170.2621,154.2895 L169.1342,153.806 L167.9948,153.3504 L166.8445,152.9228 L165.6841,152.5236 L164.5142,152.153 L163.3356,151.8112 L162.149,151.4984 L160.9551,151.2149 L159.7545,150.9607 L158.5481,150.7361 L157.3365,150.5412 L156.1205,150.376 L154.9009,150.2408 L153.6782,150.1355 L152.4534,150.0602 L151.2271,150.0151 L150,150 L148.7729,150.0151 L147.5466,150.0602 L146.3218,150.1355 L145.0991,150.2408 L143.8795,150.376 L142.6635,150.5412 L141.4519,150.7361 L140.2455,150.9607 L139.0449,151.2149 L137.851,151.4984 L136.6644,151.8112 L135.4858,152.153 L134.3159,152.5236 L133.1555,152.9228 L132.0052,153.3504 L130.8658,153.806 L129.7379,154.2895 L128.6222,154.8005 L127.5194,155.3388 L126.4302,155.9039 L125.3551,156.4957 L124.2949,157.1136 L123.2501,157.7573 L122.2215,158.4265 L121.2096,159.1208 L120.215,159.8396 L119.2384,160.5827 L118.2803,161.3495 L117.3414,162.1396 L116.4221,162.9524 L115.523,163.7876 L114.6447,164.6447 L113.7876,165.523 L112.9524,166.4221 L112.1396,167.3414 L111.3495,168.2803 L110.5827,169.2384 L109.8396,170.215 L109.1208,171.2096 L108.4265,172.2215 L107.7573,173.2501 L107.1136,174.2949 L106.4956,175.3551 L105.9039,176.4302 L105.3388,177.5194 L104.8005,178.6222 L104.2895,179.7379 L103.806,180.8658 L103.3504,182.0052 L102.9228,183.1555 L102.5236,184.3159 L102.153,185.4858 L101.8112,186.6644 L101.4984,187.851 L101.2149,189.0449 L100.9607,190.2455 L100.7361,191.4519 L100.5412,192.6635 L100.376,193.8795 L100.2408,195.0991 L100.1355,196.3218 L100.0602,197.5466 L100.0151,198.7729 L100,200 L200,200 Z" fill="#4997D0"/>
  <path d="M200,0 L150,0 L150,200 L200,200 Z" fill="#4997D0"/></g>
<rect x="640.000" y="0.000" width="320.000" height="320.000" fill="#FFFFFF"/>
<g transform="translate(640.000,0.000) scale(1.60000) rotate(180,100,100)"><circle cx="150" cy="100" r="50" fill="#D9D9D6"/>
  <path d="M200,0 L100,0 L100,0 L100.0151,1.2271 L100.0602,2.4534 L100.1355,3.6782 L100.2408,4.9009 L100.376,6.1205 L100.5412,7.3365 L100.7361,8.5481 L100.9607,9.7545 L101.2149,10.9551 L101.4984,12.149 L101.8112,13.3356 L102.153,14.5142 L102.5236,15.6841 L102.9228,16.8445 L103.3504,17.9948 L103.806,19.1342 L104.2895,20.2621 L104.8005,21.3778 L105.3388,22.4806 L105.9039,23.5698 L106.4956,24.6449 L107.1136,25.7051 L107.7573,26.7499 L108.4265,27.7785 L109.1208,28.7904 L109.8396,29.785 L110.5827,30.7616 L111.3495,31.7197 L112.1396,32.6586 L112.9524,33.5779 L113.7876,34.477 L114.6447,35.3553 L115.523,36.2124 L116.4221,37.0476 L117.3414,37.8604 L118.2803,38.6505 L119.2384,39.4173 L120.215,40.1604 L121.2096,40.8792 L122.2215,41.5735 L123.2501,42.2427 L124.2949,42.8864 L125.3551,43.5044 L126.4302,44.0961 L127.5194,44.6612 L128.6222,45.1995 L129.7379,45.7105 L130.8658,46.194 L132.0052,46.6496 L133.1555,47.0772 L134.3159,47.4764 L135.4858,47.847 L136.6644,48.1888 L137.851,48.5016 L139.0449,48.7851 L140.2455,49.0393 L141.4519,49.2639 L142.6635,49.4588 L143.8795,49.624 L145.0991,49.7592 L146.3218,49.8645 L147.5466,49.9398 L148.7729,49.9849 L150,50 L151.2271,49.9849 L152.4534,49.9398 L153.6782,49.8645 L154.9009,49.7592 L156.1205,49.624 L157.3365,49.4588 L158.5481,49.2639 L159.7545,49.0393 L160.9551,48.7851 L162.149,48.5016 L163.3356,48.1888 L164.5142,47.847 L165.6841,47.4764 L166.8445,47.0772 L167.9948,46.6496 L169.1342,46.194 L170.2621,45.7105 L171.3778,45.1995 L172.4806,44.6612 L173.5698,44.0961 L174.6449,43.5044 L175.7051,42.8864 L176.7499,42.2427 L177.7785,41.5735 L178.7904,40.8792 L179.785,40.1604 L180.7616,39.4173 L181.7197,38.6505 L182.6586,37.8604 L183.5779,37.0476 L184.477,36.2124 L185.3553,35.3553 L186.2124,34.477 L187.0476,33.5779 L187.8604,32.6586 L188.6505,31.7197 L189.4173,30.7616 L190.1604,29.785 L190.8792,28.7904 L191.5735,27.7785 L192.2427,26.7499 L192.8864,25.7051 L193.5043,24.6449 L194.0961,23.5698 L194.6612,22.4806 L195.1995,21.3778 L195.7105,20.2621 L196.194,19.1342 L196.6496,17.9948 L197.0772,16.8445 L197.4764,15.6841 L197.847,14.5142 L198.1888,13.3356 L198.5016,12.149 L198.7851,10.9551 L199.0393,9.7545 L199.2639,8.5481 L199.4588,7.3365 L199.624,6.1205 L199.7592,4.9009 L199.8645,3.6782 L199.9398,2.4534 L199.9849,1.2271 L200,0 Z" fill="#D9D9D6"/>
  <path d="M199.9849,198.7729 L199.9398,197.5466 L199.8645,196.3218 L199.7592,195.0991 L199.624,193.8795 L199.4588,192.6635 L199.2639,191.4519 L199.0393,190.2455 L198.7851,189.0449 L198.5016,187.851 L198.1888,186.6644 L197.847,185.4858 L197.4764,184.3159 L197.0772,183.1555 L196.6496,182.0052 L196.194,180.8658 L195.7105,179.7379 L195.1995,178.6222 L194.6612,177.5194 L194.0961,176.4302 L193.5043,175.3551 L192.8864,174.2949 L192.2427,173.2501 L191.5735,172.2215 L190.8792,171.2096 L190.1604,170.215 L189.4173,169.2384 L188.6505,168.2803 L187.8604,167.3414 L187.0476,166.4221 L186.2124,165.523 L185.3553,164.6447 L184.477,163.7876 L183.5779,162.9524 L182.6586,162.1396 L181.7197,161.3495 L180.7616,160.5827 L179.785,159.8396 L178.7904,159.1208 L177.7785,158.4265 L176.7499,157.7573 L175.7051,157.1136 L174.6449,156.4957 L173.5698,155.9039 L172.4806,155.3388 L171.3778,154.8005 L170.2621,154.2895 L169.1342,153.806 L167.9948,153.3504 L166.8445,152.9228 L165.6841,152.5236 L164.5142,152.153 L163.3356,151.8112 L162.149,151.4984 L160.9551,151.2149 L159.7545,150.9607 L158.5481,150.7361 L157.3365,150.5412 L156.1205,150.376 L154.9009,150.2408 L153.6782,150.1355 L152.4534,150.0602 L151.2271,150.0151 L150,150 L148.7729,150.0151 L147.5466,150.0602 L146.3218,150.1355 L145.0991,150.2408 L143.8795,150.376 L142.6635,150.5412 L141.4519,150.7361 L140.2455,150.9607 L139.0449,151.2149 L137.851,151.4984 L136.6644,151.8112 L135.4858,152.153 L134.3159,152.5236 L133.1555,152.9228 L132.0052,153.3504 L130.8658,153.806 L129.7379,154.2895 L128.6222,154.8005 L127.5194,155.3388 L126.4302,155.9039 L125.3551,156.4957 L124.2949,157.1136 L123.2501,157.7573 L122.2215,158.4265 L121.2096,159.1208 L120.215,159.8396 L119.2384,160.5827 L118.2803,161.3495 L117.3414,162.1396 L116.4221,162.9524 L115.523,163.7876 L114.6447,164.6447 L113.7876,165.523 L112.9524,166.4221 L112.1396,167.3414 L111.3495,168.2803 L110.5827,169.2384 L109.8396,170.215 L109.1208,171.2096 L108.4265,172.2215 L107.7573,173.2501 L107.1136,174.2949 L106.4956,175.3551 L105.9039,176.4302 L105.3388,177.5194 L104.8005,178.6222 L104.2895,179.7379 L103.806,180.8658 L103.3504,182.0052 L102.9228,183.1555 L102.5236,184.3159 L102.153,185.4858 L101.8112,186.6644 L101.4984,187.851 L101.2149,189.0449 L100.9607,190.2455 L100.7361,191.4519 L100.5412,192.6635 L100.376,193.8795 L100.2408,195.0991 L100.1355,196.3218 L100.0602,197.5466 L100.0151,198.7729 L100,200 L200,200 Z" fill="#D9D9D6"/>
  <path d="M200,0 L150,0 L150,200 L200,200 Z" fill="#D9D9D6"/></g>
<rect x="960.000" y="0.000" width="320.000" height="320.000" fill="#FFFFFF"/>
<g transform="translate(960.000,0.000) scale(1.60000)"><path d="M166.667 200C129.848 200 33.3333 200 33.3333 200C33.3333 163.181 63.1809 133.333 99.9999 133.333C136.819 133.333 166.667 163.181 166.667 200Z" fill="#FF4F00"/></g>
<rect x="1280.000" y="0.000" width="320.000" height="320.000" fill="#FFFFFF"/>
<g transform="translate(1280.000,0.000) scale(1.60000) rotate(180,100,100)"><ellipse cx="100" cy="100" rx="75" ry="50" transform="rotate(90 100 100)" fill="#4997D0"/>
  <circle cx="99.9998" cy="120" r="33.3333" fill="#FFFFFF"/></g>
<rect x="1600.000" y="0.000" width="320.000" height="320.000" fill="#F3F3F3"/>
<g transform="translate(1600.000,0.000) scale(1.60000)"><path d="M166.667 200C129.848 200 33.3333 200 33.3333 200C33.3333 163.181 63.1809 133.333 99.9999 133.333C136.819 133.333 166.667 163.181 166.667 200Z" fill="#FF4F00"/></g>
<rect x="0.000" y="320.000" width="320.000" height="320.000" fill="#F3F3F3"/>
<g transform="translate(0.000,320.000) scale(1.60000)"><circle cx="150" cy="100" r="50" fill="#4997D0"/>
  <path d="M200,0 L100,0 L100,0 L100.0151,1.2271 L100.0602,2.4534 L100.1355,3.6782 L100.2408,4.9009 L100.376,6.1205 L100.5412,7.3365 L100.7361,8.5481 L100.9607,9.7545 L101.2149,10.9551 L101.4984,12.149 L101.8112,13.3356 L102.153,14.5142 L102.5236,15.6841 L102.9228,16.8445 L103.3504,17.9948 L103.806,19.1342 L104.2895,20.2621 L104.8005,21.3778 L105.3388,22.4806 L105.9039,23.5698 L106.4956,24.6449 L107.1136,25.7051 L107.7573,26.7499 L108.4265,27.7785 L109.1208,28.7904 L109.8396,29.785 L110.5827,30.7616 L111.3495,31.7197 L112.1396,32.6586 L112.9524,33.5779 L113.7876,34.477 L114.6447,35.3553 L115.523,36.2124 L116.4221,37.0476 L117.3414,37.8604 L118.2803,38.6505 L119.2384,39.4173 L120.215,40.1604 L121.2096,40.8792 L122.2215,41.5735 L123.2501,42.2427 L124.2949,42.8864 L125.3551,43.5044 L126.4302,44.0961 L127.5194,44.6612 L128.6222,45.1995 L129.7379,45.7105 L130.8658,46.194 L132.0052,46.6496 L133.1555,47.0772 L134.3159,47.4764 L135.4858,47.847 L136.6644,48.1888 L137.851,48.5016 L139.0449,48.7851 L140.2455,49.0393 L141.4519,49.2639 L142.6635,49.4588 L143.8795,49.624 L145.0991,49.7592 L146.3218,49.8645 L147.5466,49.9398 L148.7729,49.9849 L150,50 L151.2271,49.9849 L152.4534,49.9398 L153.6782,49.8645 L154.9009,49.7592 L156.1205,49.624 L157.3365,49.4588 L158.5481,49.2639 L159.7545,49.0393 L160.9551,48.7851 L162.149,48.5016 L163.3356,48.1888 L164.5142,47.847 L165.6841,47.4764 L166.8445,47.0772 L167.9948,46.6496 L169.1342,46.194 L170.2621,45.7105 L171.3778,45.1995 L172.4806,44.6612 L173.5698,44.0961 L174.6449,43.5044 L175.7051,42.8864 L176.7499,42.2427 L177.7785,41.5735 L178.7904,40.8792 L179.785,40.1604 L180.7616,39.4173 L181.7197,38.6505 L182.6586,37.8604 L183.5779,37.0476 L184.477,36.2124 L185.3553,35.3553 L186.2124,34.477 L187.0476,33.5779 L187.8604,32.6586 L188.6505,31.7197 L189.4173,30.7616 L190.1604,29.785 L190.8792,28.7904 L191.5735,27.7785 L192.2427,26.7499 L192.8864,25.7051 L193.5043,24.6449 L194.0961,23.5698 L194.6612,22.4806 L195.1995,21.3778 L195.7105,20.2621 L196.194,19.1342 L196.6496,17.9948 L197.0772,16.8445 L197.4764,15.6841 L197.847,14.5142 L198.1888,13.3356 L198.5016,12.149 L198.7851,10.9551 L199.0393,9.7545 L199.2639,8.5481 L199.4588,7.3365 L199.624,6.1205 L199.7592,4.9009 L199.8645,3.6782 L199.9398,2.4534 L199.9849,1.2271 L200,0 Z" fill="#4997D0"/>
  <path d="M199.9849,198.7729 L199.9398,197.5466 L199.8645,196.3218 L199.7592,195.0991 L199.624,193.8795 L199.4588,192.6635 L199.2639,191.4519 L199.0393,190.2455 L198.7851,189.0449 L198.5016,187.851 L198.1888,186.6644 L197.847,185.4858 L197.4764,184.3159 L197.0772,183.1555 L196.6496,182.0052 L196.194,180.8658 L195.7105,179.7379 L195.1995,178.6222 L194.6612,177.5194 L194.0961,176.4302 L193.5043,175.3551 L192.8864,174.2949 L192.2427,173.2501 L191.5735,172.2215 L190.8792,171.2096 L190.1604,170.215 L189.4173,169.2384 L188.6505,168.2803 L187.8604,167.3414 L187.0476,166.4221 L186.2124,165.523 L185.3553,164.6447 L184.477,163.7876 L183.5779,162.9524 L182.6586,162.1396 L181.7197,161.3495 L180.7616,160.5827 L179.785,159.8396 L178.7904,159.1208 L177.7785,158.4265 L176.7499,157.7573 L175.7051,157.1136 L174.6449,156.4957 L173.5698,155.9039 L172.4806,155.3388 L171.3778,154.8005 L170.2621,154.2895 L169.1342,153.806 L167.9948,153.3504 L166.8445,152.9228 L165.6841,152.5236 L164.5142,152.153 L163.3356,151.8112 L162.149,151.4984 L160.9551,151.2149 L159.7545,150.9607 L158.5481,150.7361 L157.3365,150.5412 L156.1205,150.376 L154.9009,150.2408 L153.6782,150.1355 L152.4534,150.0602 L151.2271,150.0151 L150,150 L148.7729,150.0151 L147.5466,150.0602 L146.3218,150.1355 L145.0991,150.2408 L143.8795,150.376 L142.6635,150.5412 L141.4519,150.7361 L140.2455,150.9607 L139.0449,151.2149 L137.851,151.4984 L136.6644,151.8112 L135.4858,152.153 L134.3159,152.5236 L133.1555,152.9228 L132.0052,153.3504 L130.8658,153.806 L129.7379,154.2895 L128.6222,154.8005 L127.5194,155.3388 L126.4302,155.9039 L125.3551,156.4957 L124.2949,157.1136 L123.2501,157.7573 L122.2215,158.4265 L121.2096,159.1208 L120.215,159.8396 L119.2384,160.5827 L118.2803,161.3495 L117.3414,162.1396 L116.4221,162.9524 L115.523,163.7876 L114.6447,164.6447 L113.7876,165.523 L112.9524,166.4221 L112.1396,167.3414 L111.3495,168.2803 L110.5827,169.2384 L109.8396,170.215 L109.1208,171.2096 L108.4265,172.2215 L107.7573,173.2501 L107.1136,174.2949 L106.4956,175.3551 L105.9039,176.4302 L105.3388,177.5194 L104.8005,178.6222 L104.2895,179.7379 L103.806,180.8658 L103.3504,182.0052 L102.9228,183.1555 L102.5236,184.3159 L102.153,185.4858 L101.8112,186.6644 L101.4984,187.851 L101.2149,189.0449 L100.9607,190.2455 L100.7361,191.4519 L100.5412,192.6635 L100.376,193.8795 L100.2408,195.0991 L100.1355,196.3218 L100.0602,197.5466 L100.0151,198.7729 L100,200 L200,200 Z" fill="#4997D0"/>
  <path d="M200,0 L150,0 L150,200 L200,200 Z" fill="#4997D0"/></g>
<rect x="320.000" y="320.000" width="320.000" height="320.000" fill="#D9D9D6"/>
<g transform="translate(320.000,320.000) scale(1.60000) rotate(180,100,100)"><circle cx="150" cy="100" r="50" fill="#FFFFFF"/>
  <path d="M200,0 L100,0 L100,0 L100.0151,1.2271 L100.0602,2.4534 L100.1355,3.6782 L100.2408,4.9009 L100.376,6.1205 L100.5412,7.3365 L100.7361,8.5481 L100.9607,9.7545 L101.2149,10.9551 L101.4984,12.149 L101.8112,13.3356 L102.153,14.5142 L102.5236,15.6841 L102.9228,16.8445 L103.3504,17.9948 L103.806,19.1342 L104.2895,20.2621 L104.8005,21.3778 L105.3388,22.4806 L105.9039,23.5698 L106.4956,24.6449 L107.1136,25.7051 L107.7573,26.7499 L108.4265,27.7785 L109.1208,28.7904 L109.8396,29.785 L110.5827,30.7616 L111.3495,31.7197 L112.1396,32.6586 L112.9524,33.5779 L113.7876,34.477 L114.6447,35.3553 L115.523,36.2124 L116.4221,37.0476 L117.3414,37.8604 L118.2803,38.6505 L119.2384,39.4173 L120.215,40.1604 L121.2096,40.8792 L122.2215,41.5735 L123.2501,42.2427 L124.2949,42.8864 L125.3551,43.5044 L126.4302,44.0961 L127.5194,44.6612 L128.6222,45.1995 L129.7379,45.7105 L130.8658,46.194 L132.0052,46.6496 L133.1555,47.0772 L134.3159,47.4764 L135.4858,47.847 L136.6644,48.1888 L137.851,48.5016 L139.0449,48.7851 L140.2455,49.0393 L141.4519,49.2639 L142.6635,49.4588 L143.8795,49.624 L145.0991,49.7592 L146.3218,49.8645 L147.5466,49.9398 L148.7729,49.9849 L150,50 L151.2271,49.9849 L152.4534,49.9398 L153.6782,49.8645 L154.9009,49.7592 L156.1205,49.624 L157.3365,49.4588 L158.5481,49.2639 L159.7545,49.0393 L160.9551,48.7851 L162.149,48.5016 L163.3356,48.1888 L164.5142,47.847 L165.6841,47.4764 L166.8445,47.0772 L167.9948,46.6496 L169.1342,46.194 L170.2621,45.7105 L171.3778,45.1995 L172.4806,44.6612 L173.5698,44.0961 L174.6449,43.5044 L175.7051,42.8864 L176.7499,42.2427 L177.7785,41.5735 L178.7904,40.8792 L179.785,40.1604 L180.7616,39.4173 L181.7197,38.6505 L182.6586,37.8604 L183.5779,37.0476 L184.477,36.2124 L185.3553,35.3553 L186.2124,34.477 L187.0476,33.5779 L187.8604,32.6586 L188.6505,31.7197 L189.4173,30.7616 L190.1604,29.785 L190.8792,28.7904 L191.5735,27.7785 L192.2427,26.7499 L192.8864,25.7051 L193.5043,24.6449 L194.0961,23.5698 L194.6612,22.4806 L195.1995,21.3778 L195.7105,20.2621 L196.194,19.1342 L196.6496,17.9948 L197.0772,16.8445 L197.4764,15.6841 L197.847,14.5142 L198.1888,13.3356 L198.5016,12.149 L198.7851,10.9551 L199.0393,9.7545 L199.2639,8.5481 L199.4588,7.3365 L199.624,6.1205 L199.7592,4.9009 L199.8645,3.6782 L199.9398,2.4534 L199.9849,1.2271 L200,0 Z" fill="#FFFFFF"/>
  <path d="M199.9849,198.7729 L199.9398,197.5466 L199.8645,196.3218 L199.7592,195.0991 L199.624,193.8795 L199.4588,192.6635 L199.2639,191.4519 L199.0393,190.2455 L198.7851,189.0449 L198.5016,187.851 L198.1888,186.6644 L197.847,185.4858 L197.4764,184.3159 L197.0772,183.1555 L196.6496,182.0052 L196.194,180.8658 L195.7105,179.7379 L195.1995,178.6222 L194.6612,177.5194 L194.0961,176.4302 L193.5043,175.3551 L192.8864,174.2949 L192.2427,173.2501 L191.5735,172.2215 L190.8792,171.2096 L190.1604,170.215 L189.4173,169.2384 L188.6505,168.2803 L187.8604,167.3414 L187.0476,166.4221 L186.2124,165.523 L185.3553,164.6447 L184.477,163.7876 L183.5779,162.9524 L182.6586,162.1396 L181.7197,161.3495 L180.7616,160.5827 L179.785,159.8396 L178.7904,159.1208 L177.7785,158.4265 L176.7499,157.7573 L175.7051,157.1136 L174.6449,156.4957 L173.5698,155.9039 L172.4806,155.3388 L171.3778,154.8005 L170.2621,154.2895 L169.1342,153.806 L167.9948,153.3504 L166.8445,152.9228 L165.6841,152.5236 L164.5142,152.153 L163.3356,151.8112 L162.149,151.4984 L160.9551,151.2149 L159.7545,150.9607 L158.5481,150.7361 L157.3365,150.5412 L156.1205,150.376 L154.9009,150.2408 L153.6782,150.1355 L152.4534,150.0602 L151.2271,150.0151 L150,150 L148.7729,150.0151 L147.5466,150.0602 L146.3218,150.1355 L145.0991,150.2408 L143.8795,150.376 L142.6635,150.5412 L141.4519,150.7361 L140.2455,150.9607 L139.0449,151.2149 L137.851,151.4984 L136.6644,151.8112 L135.4858,152.153 L134.3159,152.5236 L133.1555,152.9228 L132.0052,153.3504 L130.8658,153.806 L129.7379,154.2895 L128.6222,154.8005 L127.5194,155.3388 L126.4302,155.9039 L125.3551,156.4957 L124.2949,157.1136 L123.2501,157.7573 L122.2215,158.4265 L121.2096,159.1208 L120.215,159.8396 L119.2384,160.5827 L118.2803,161.3495 L117.3414,162.1396 L116.4221,162.9524 L115.523,163.7876 L114.6447,164.6447 L113.7876,165.523 L112.9524,166.4221 L112.1396,167.3414 L111.3495,168.2803 L110.5827,169.2384 L109.8396,170.215 L109.1208,171.2096 L108.4265,172.2215 L107.7573,173.2501 L107.1136,174.2949 L106.4956,175.3551 L105.9039,176.4302 L105.3388,177.5194 L104.8005,178.6222 L104.2895,179.7379 L103.806,180.8658 L103.3504,182.0052 L102.9228,183.1555 L102.5236,184.3159 L102.153,185.4858 L101.8112,186.6644 L101.4984,187.851 L101.2149,189.0449 L100.9607,190.2455 L100.7361,191.4519 L100.5412,192.6635 L100.376,193.8795 L100.2408,195.0991 L100.1355,196.3218 L100.0602,197.5466 L100.0151,198.7729 L100,200 L200,200 Z" fill="#FFFFFF"/>
  <path d="M200,0 L150,0 L150,200 L200,200 Z" fill="#FFFFFF"/></g>
<rect x="640.000" y="320.000" width="320.000" height="320.000" fill="#F3F3F3"/>
<g transform="translate(640.000,320.000) scale(1.60000) rotate(90,100,100)"><path d="M166.667 200C129.848 200 33.3333 200 33.3333 200C33.3333 163.181 63.1809 133.333 99.9999 133.333C136.819 133.333 166.667 163.181 166.667 200Z" fill="#121212"/></g>
<rect x="960.000" y="320.000" width="320.000" height="320.000" fill="#121212"/>
<g transform="translate(960.000,320.000) scale(1.60000) rotate(90,100,100)"><path d="M166.667 200C129.848 200 33.3333 200 33.3333 200C33.3333 163.181 63.1809 133.333 99.9999 133.333C136.819 133.333 166.667 163.181 166.667 200Z" fill="#D9D9D6"/></g>
<rect x="1280.000" y="320.000" width="320.000" height="320.000" fill="#121212"/>
<g transform="translate(1280.000,320.000) scale(1.60000) rotate(270,100,100)"><path d="M166.667 200C129.848 200 33.3333 200 33.3333 200C33.3333 163.181 63.1809 133.333 99.9999 133.333C136.819 133.333 166.667 163.181 166.667 200Z" fill="#F3F3F3"/></g>
<rect x="1600.000" y="320.000" width="320.000" height="320.000" fill="#F3F3F3"/>
<g transform="translate(1600.000,320.000) scale(1.60000) rotate(90,100,100)"><circle cx="150" cy="100" r="50" fill="#FFA300"/>
  <path d="M200,0 L100,0 L100,0 L100.0151,1.2271 L100.0602,2.4534 L100.1355,3.6782 L100.2408,4.9009 L100.376,6.1205 L100.5412,7.3365 L100.7361,8.5481 L100.9607,9.7545 L101.2149,10.9551 L101.4984,12.149 L101.8112,13.3356 L102.153,14.5142 L102.5236,15.6841 L102.9228,16.8445 L103.3504,17.9948 L103.806,19.1342 L104.2895,20.2621 L104.8005,21.3778 L105.3388,22.4806 L105.9039,23.5698 L106.4956,24.6449 L107.1136,25.7051 L107.7573,26.7499 L108.4265,27.7785 L109.1208,28.7904 L109.8396,29.785 L110.5827,30.7616 L111.3495,31.7197 L112.1396,32.6586 L112.9524,33.5779 L113.7876,34.477 L114.6447,35.3553 L115.523,36.2124 L116.4221,37.0476 L117.3414,37.8604 L118.2803,38.6505 L119.2384,39.4173 L120.215,40.1604 L121.2096,40.8792 L122.2215,41.5735 L123.2501,42.2427 L124.2949,42.8864 L125.3551,43.5044 L126.4302,44.0961 L127.5194,44.6612 L128.6222,45.1995 L129.7379,45.7105 L130.8658,46.194 L132.0052,46.6496 L133.1555,47.0772 L134.3159,47.4764 L135.4858,47.847 L136.6644,48.1888 L137.851,48.5016 L139.0449,48.7851 L140.2455,49.0393 L141.4519,49.2639 L142.6635,49.4588 L143.8795,49.624 L145.0991,49.7592 L146.3218,49.8645 L147.5466,49.9398 L148.7729,49.9849 L150,50 L151.2271,49.9849 L152.4534,49.9398 L153.6782,49.8645 L154.9009,49.7592 L156.1205,49.624 L157.3365,49.4588 L158.5481,49.2639 L159.7545,49.0393 L160.9551,48.7851 L162.149,48.5016 L163.3356,48.1888 L164.5142,47.847 L165.6841,47.4764 L166.8445,47.0772 L167.9948,46.6496 L169.1342,46.194 L170.2621,45.7105 L171.3778,45.1995 L172.4806,44.6612 L173.5698,44.0961 L174.6449,43.5044 L175.7051,42.8864 L176.7499,42.2427 L177.7785,41.5735 L178.7904,40.8792 L179.785,40.1604 L180.7616,39.4173 L181.7197,38.6505 L182.6586,37.8604 L183.5779,37.0476 L184.477,36.2124 L185.3553,35.3553 L186.2124,34.477 L187.0476,33.5779 L187.8604,32.6586 L188.6505,31.7197 L189.4173,30.7616 L190.1604,29.785 L190.8792,28.7904 L191.5735,27.7785 L192.2427,26.7499 L192.8864,25.7051 L193.5043,24.6449 L194.0961,23.5698 L194.6612,22.4806 L195.1995,21.3778 L195.7105,20.2621 L196.194,19.1342 L196.6496,17.9948 L197.0772,16.8445 L197.4764,15.6841 L197.847,14.5142 L198.1888,13.3356 L198.5016,12.149 L198.7851,10.9551 L199.0393,9.7545 L199.2639,8.5481 L199.4588,7.3365 L199.624,6.1205 L199.7592,4.9009 L199.8645,3.6782 L199.9398,2.4534 L199.9849,1.2271 L200,0 Z" fill="#FFA300"/>
  <path d="M199.9849,198.7729 L199.9398,197.5466 L199.8645,196.3218 L199.7592,195.0991 L199.624,193.8795 L199.4588,192.6635 L199.2639,191.4519 L199.0393,190.2455 L198.7851,189.0449 L198.5016,187.851 L198.1888,186.6644 L197.847,185.4858 L197.4764,184.3159 L197.0772,183.1555 L196.6496,182.0052 L196.194,180.8658 L195.7105,179.7379 L195.1995,178.6222 L194.6612,177.5194 L194.0961,176.4302 L193.5043,175.3551 L192.8864,174.2949 L192.2427,173.2501 L191.5735,172.2215 L190.8792,171.2096 L190.1604,170.215 L189.4173,169.2384 L188.6505,168.2803 L187.8604,167.3414 L187.0476,166.4221 L186.2124,165.523 L185.3553,164.6447 L184.477,163.7876 L183.5779,162.9524 L182.6586,162.1396 L181.7197,161.3495 L180.7616,160.5827 L179.785,159.8396 L178.7904,159.1208 L177.7785,158.4265 L176.7499,157.7573 L175.7051,157.1136 L174.6449,156.4957 L173.5698,155.9039 L172.4806,155.3388 L171.3778,154.8005 L170.2621,154.2895 L169.1342,153.806 L167.9948,153.3504 L166.8445,152.9228 L165.6841,152.5236 L164.5142,152.153 L163.3356,151.8112 L162.149,151.4984 L160.9551,151.2149 L159.7545,150.9607 L158.5481,150.7361 L157.3365,150.5412 L156.1205,150.376 L154.9009,150.2408 L153.6782,150.1355 L152.4534,150.0602 L151.2271,150.0151 L150,150 L148.7729,150.0151 L147.5466,150.0602 L146.3218,150.1355 L145.0991,150.2408 L143.8795,150.376 L142.6635,150.5412 L141.4519,150.7361 L140.2455,150.9607 L139.0449,151.2149 L137.851,151.4984 L136.6644,151.8112 L135.4858,152.153 L134.3159,152.5236 L133.1555,152.9228 L132.0052,153.3504 L130.8658,153.806 L129.7379,154.2895 L128.6222,154.8005 L127.5194,155.3388 L126.4302,155.9039 L125.3551,156.4957 L124.2949,157.1136 L123.2501,157.7573 L122.2215,158.4265 L121.2096,159.1208 L120.215,159.8396 L119.2384,160.5827 L118.2803,161.3495 L117.3414,162.1396 L116.4221,162.9524 L115.523,163.7876 L114.6447,164.6447 L113.7876,165.523 L112.9524,166.4221 L112.1396,167.3414 L111.3495,168.2803 L110.5827,169.2384 L109.8396,170.215 L109.1208,171.2096 L108.4265,172.2215 L107.7573,173.2501 L107.1136,174.2949 L106.4956,175.3551 L105.9039,176.4302 L105.3388,177.5194 L104.8005,178.6222 L104.2895,179.7379 L103.806,180.8658 L103.3504,182.0052 L102.9228,183.1555 L102.5236,184.3159 L102.153,185.4858 L101.8112,186.6644 L101.4984,187.851 L101.2149,189.0449 L100.9607,190.2455 L100.7361,191.4519 L100.5412,192.6635 L100.376,193.8795 L100.2408,195.0991 L100.1355,196.3218 L100.0602,197.5466 L100.0151,198.7729 L100,200 L200,200 Z" fill="#FFA300"/>
  <path d="M200,0 L150,0 L150,200 L200,200 Z" fill="#FFA300"/></g>
<rect x="0.000" y="640.000" width="320.000" height="320.000" fill="#D9D9D6"/>
<g transform="translate(0.000,640.000) scale(1.60000)"><circle cx="150" cy="100" r="50" fill="#F3F3F3"/>
  <path d="M200,0 L100,0 L100,0 L100.0151,1.2271 L100.0602,2.4534 L100.1355,3.6782 L100.2408,4.9009 L100.376,6.1205 L100.5412,7.3365 L100.7361,8.5481 L100.9607,9.7545 L101.2149,10.9551 L101.4984,12.149 L101.8112,13.3356 L102.153,14.5142 L102.5236,15.6841 L102.9228,16.8445 L103.3504,17.9948 L103.806,19.1342 L104.2895,20.2621 L104.8005,21.3778 L105.3388,22.4806 L105.9039,23.5698 L106.4956,24.6449 L107.1136,25.7051 L107.7573,26.7499 L108.4265,27.7785 L109.1208,28.7904 L109.8396,29.785 L110.5827,30.7616 L111.3495,31.7197 L112.1396,32.6586 L112.9524,33.5779 L113.7876,34.477 L114.6447,35.3553 L115.523,36.2124 L116.4221,37.0476 L117.3414,37.8604 L118.2803,38.6505 L119.2384,39.4173 L120.215,40.1604 L121.2096,40.8792 L122.2215,41.5735 L123.2501,42.2427 L124.2949,42.8864 L125.3551,43.5044 L126.4302,44.0961 L127.5194,44.6612 L128.6222,45.1995 L129.7379,45.7105 L130.8658,46.194 L132.0052,46.6496 L133.1555,47.0772 L134.3159,47.4764 L135.4858,47.847 L136.6644,48.1888 L137.851,48.5016 L139.0449,48.7851 L140.2455,49.0393 L141.4519,49.2639 L142.6635,49.4588 L143.8795,49.624 L145.0991,49.7592 L146.3218,49.8645 L147.5466,49.9398 L148.7729,49.9849 L150,50 L151.2271,49.9849 L152.4534,49.9398 L153.6782,49.8645 L154.9009,49.7592 L156.1205,49.624 L157.3365,49.4588 L158.5481,49.2639 L159.7545,49.0393 L160.9551,48.7851 L162.149,48.5016 L163.3356,48.1888 L164.5142,47.847 L165.6841,47.4764 L166.8445,47.0772 L167.9948,46.6496 L169.1342,46.194 L170.2621,45.7105 L171.3778,45.1995 L172.4806,44.6612 L173.5698,44.0961 L174.6449,43.5044 L175.7051,42.8864 L176.7499,42.2427 L177.7785,41.5735 L178.7904,40.8792 L179.785,40.1604 L180.7616,39.4173 L181.7197,38.6505 L182.6586,37.8604 L183.5779,37.0476 L184.477,36.2124 L185.3553,35.3553 L186.2124,34.477 L187.0476,33.5779 L187.8604,32.6586 L188.6505,31.7197 L189.4173,30.7616 L190.1604,29.785 L190.8792,28.7904 L191.5735,27.7785 L192.2427,26.7499 L192.8864,25.7051 L193.5043,24.6449 L194.0961,23.5698 L194.6612,22.4806 L195.1995,21.3778 L195.7105,20.2621 L196.194,19.1342 L196.6496,17.9948 L197.0772,16.8445 L197.4764,15.6841 L197.847,14.5142 L198.1888,13.3356 L198.5016,12.149 L198.7851,10.9551 L199.0393,9.7545 L199.2639,8.5481 L199.4588,7.3365 L199.624,6.1205 L199.7592,4.9009 L199.8645,3.6782 L199.9398,2.4534 L199.9849,1.2271 L200,0 Z" fill="#F3F3F3"/>
  <path d="M199.9849,198.7729 L199.9398,197.5466 L199.8645,196.3218 L199.7592,195.0991 L199.624,193.8795 L199.4588,192.6635 L199.2639,191.4519 L199.0393,190.2455 L198.7851,189.0449 L198.5016,187.851 L198.1888,186.6644 L197.847,185.4858 L197.4764,184.3159 L197.0772,183.1555 L196.6496,182.0052 L196.194,180.8658 L195.7105,179.7379 L195.1995,178.6222 L194.6612,177.5194 L194.0961,176.4302 L193.5043,175.3551 L192.8864,174.2949 L192.2427,173.2501 L191.5735,172.2215 L190.8792,171.2096 L190.1604,170.215 L189.4173,169.2384 L188.6505,168.2803 L187.8604,167.3414 L187.0476,166.4221 L186.2124,165.523 L185.3553,164.6447 L184.477,163.7876 L183.5779,162.9524 L182.6586,162.1396 L181.7197,161.3495 L180.7616,160.5827 L179.785,159.8396 L178.7904,159.1208 L177.7785,158.4265 L176.7499,157.7573 L175.7051,157.1136 L174.6449,156.4957 L173.5698,155.9039 L172.4806,155.3388 L171.3778,154.8005 L170.2621,154.2895 L169.1342,153.806 L167.9948,153.3504 L166.8445,152.9228 L165.6841,152.5236 L164.5142,152.153 L163.3356,151.8112 L162.149,151.4984 L160.9551,151.2149 L159.7545,150.9607 L158.5481,150.7361 L157.3365,150.5412 L156.1205,150.376 L154.9009,150.2408 L153.6782,150.1355 L152.4534,150.0602 L151.2271,150.0151 L150,150 L148.7729,150.0151 L147.5466,150.0602 L146.3218,150.1355 L145.0991,150.2408 L143.8795,150.376 L142.6635,150.5412 L141.4519,150.7361 L140.2455,150.9607 L139.0449,151.2149 L137.851,151.4984 L136.6644,151.8112 L135.4858,152.153 L134.3159,152.5236 L133.1555,152.9228 L132.0052,153.3504 L130.8658,153.806 L129.7379,154.2895 L128.6222,154.8005 L127.5194,155.3388 L126.4302,155.9039 L125.3551,156.4957 L124.2949,157.1136 L123.2501,157.7573 L122.2215,158.4265 L121.2096,159.1208 L120.215,159.8396 L119.2384,160.5827 L118.2803,161.3495 L117.3414,162.1396 L116.4221,162.9524 L115.523,163.7876 L114.6447,164.6447 L113.7876,165.523 L112.9524,166.4221 L112.1396,167.3414 L111.3495,168.2803 L110.5827,169.2384 L109.8396,170.215 L109.1208,171.2096 L108.4265,172.2215 L107.7573,173.2501 L107.1136,174.2949 L106.4956,175.3551 L105.9039,176.4302 L105.3388,177.5194 L104.8005,178.6222 L104.2895,179.7379 L103.806,180.8658 L103.3504,182.0052 L102.9228,183.1555 L102.5236,184.3159 L102.153,185.4858 L101.8112,186.6644 L101.4984,187.851 L101.2149,189.0449 L100.9607,190.2455 L100.7361,191.4519 L100.5412,192.6635 L100.376,193.8795 L100.2408,195.0991 L100.1355,196.3218 L100.0602,197.5466 L100.0151,198.7729 L100,200 L200,200 Z" fill="#F3F3F3"/>
  <path d="M200,0 L150,0 L150,200 L200,200 Z" fill="#F3F3F3"/></g>
<rect x="320.000" y="640.000" width="320.000" height="320.000" fill="#F3F3F3"/>
<g transform="translate(320.000,640.000) scale(1.60000) rotate(180,100,100)"><path d="M166.667 200C129.848 200 33.3333 200 33.3333 200C33.3333 163.181 63.1809 133.333 99.9999 133.333C136.819 133.333 166.667 163.181 166.667 200Z" fill="#121212"/></g>
<rect x="640.000" y="640.000" width="320.000" height="320.000" fill="#FFFFFF"/>
<g transform="translate(640.000,640.000) scale(1.60000)"><path d="M166.667 200C129.848 200 33.3333 200 33.3333 200C33.3333 163.181 63.1809 133.333 99.9999 133.333C136.819 133.333 166.667 163.181 166.667 200Z" fill="#4997D0"/></g>
<rect x="960.000" y="640.000" width="320.000" height="320.000" fill="#FFFFFF"/>
<g transform="translate(960.000,640.000) scale(1.60000) rotate(90,100,100)"><path d="M166.667 200C129.848 200 33.3333 200 33.3333 200C33.3333 163.181 63.1809 133.333 99.9999 133.333C136.819 133.333 166.667 163.181 166.667 200Z" fill="#FF4F00"/></g>
<rect x="1280.000" y="640.000" width="320.000" height="320.000" fill="#FFFFFF"/>
<g transform="translate(1280.000,640.000) scale(1.60000)"><circle cx="150" cy="100" r="50" fill="#FFA300"/>
  <path d="M200,0 L100,0 L100,0 L100.0151,1.2271 L100.0602,2.4534 L100.1355,3.6782 L100.2408,4.9009 L100.376,6.1205 L100.5412,7.3365 L100.7361,8.5481 L100.9607,9.7545 L101.2149,10.9551 L101.4984,12.149 L101.8112,13.3356 L102.153,14.5142 L102.5236,15.6841 L102.9228,16.8445 L103.3504,17.9948 L103.806,19.1342 L104.2895,20.2621 L104.8005,21.3778 L105.3388,22.4806 L105.9039,23.5698 L106.4956,24.6449 L107.1136,25.7051 L107.7573,26.7499 L108.4265,27.7785 L109.1208,28.7904 L109.8396,29.785 L110.5827,30.7616 L111.3495,31.7197 L112.1396,32.6586 L112.9524,33.5779 L113.7876,34.477 L114.6447,35.3553 L115.523,36.2124 L116.4221,37.0476 L117.3414,37.8604 L118.2803,38.6505 L119.2384,39.4173 L120.215,40.1604 L121.2096,40.8792 L122.2215,41.5735 L123.2501,42.2427 L124.2949,42.8864 L125.3551,43.5044 L126.4302,44.0961 L127.5194,44.6612 L128.6222,45.1995 L129.7379,45.7105 L130.8658,46.194 L132.0052,46.6496 L133.1555,47.0772 L134.3159,47.4764 L135.4858,47.847 L136.6644,48.1888 L137.851,48.5016 L139.0449,48.7851 L140.2455,49.0393 L141.4519,49.2639 L142.6635,49.4588 L143.8795,49.624 L145.0991,49.7592 L146.3218,49.8645 L147.5466,49.9398 L148.7729,49.9849 L150,50 L151.2271,49.9849 L152.4534,49.9398 L153.6782,49.8645 L154.9009,49.7592 L156.1205,49.624 L157.3365,49.4588 L158.5481,49.2639 L159.7545,49.0393 L160.9551,48.7851 L162.149,48.5016 L163.3356,48.1888 L164.5142,47.847 L165.6841,47.4764 L166.8445,47.0772 L167.9948,46.6496 L169.1342,46.194 L170.2621,45.7105 L171.3778,45.1995 L172.4806,44.6612 L173.5698,44.0961 L174.6449,43.5044 L175.7051,42.8864 L176.7499,42.2427 L177.7785,41.5735 L178.7904,40.8792 L179.785,40.1604 L180.7616,39.4173 L181.7197,38.6505 L182.6586,37.8604 L183.5779,37.0476 L184.477,36.2124 L185.3553,35.3553 L186.2124,34.477 L187.0476,33.5779 L187.8604,32.6586 L188.6505,31.7197 L189.4173,30.7616 L190.1604,29.785 L190.8792,28.7904 L191.5735,27.7785 L192.2427,26.7499 L192.8864,25.7051 L193.5043,24.6449 L194.0961,23.5698 L194.6612,22.4806 L195.1995,21.3778 L195.7105,20.2621 L196.194,19.1342 L196.6496,17.9948 L197.0772,16.8445 L197.4764,15.6841 L197.847,14.5142 L198.1888,13.3356 L198.5016,12.149 L198.7851,10.9551 L199.0393,9.7545 L199.2639,8.5481 L199.4588,7.3365 L199.624,6.1205 L199.7592,4.9009 L199.8645,3.6782 L199.9398,2.4534 L199.9849,1.2271 L200,0 Z" fill="#FFA300"/>
  <path d="M199.9849,198.7729 L199.9398,197.5466 L199.8645,196.3218 L199.7592,195.0991 L199.624,193.8795 L199.4588,192.6635 L199.2639,191.4519 L199.0393,190.2455 L198.7851,189.0449 L198.5016,187.851 L198.1888,186.6644 L197.847,185.4858 L197.4764,184.3159 L197.0772,183.1555 L196.6496,182.0052 L196.194,180.8658 L195.7105,179.7379 L195.1995,178.6222 L194.6612,177.5194 L194.0961,176.4302 L193.5043,175.3551 L192.8864,174.2949 L192.2427,173.2501 L191.5735,172.2215 L190.8792,171.2096 L190.1604,170.215 L189.4173,169.2384 L188.6505,168.2803 L187.8604,167.3414 L187.0476,166.4221 L186.2124,165.523 L185.3553,164.6447 L184.477,163.7876 L183.5779,162.9524 L182.6586,162.1396 L181.7197,161.3495 L180.7616,160.5827 L179.785,159.8396 L178.7904,159.1208 L177.7785,158.4265 L176.7499,157.7573 L175.7051,157.1136 L174.6449,156.4957 L173.5698,155.9039 L172.4806,155.3388 L171.3778,154.8005 L170.2621,154.2895 L169.1342,153.806 L167.9948,153.3504 L166.8445,152.9228 L165.6841,152.5236 L164.5142,152.153 L163.3356,151.8112 L162.149,151.4984 L160.9551,151.2149 L159.7545,150.9607 L158.5481,150.7361 L157.3365,150.5412 L156.1205,150.376 L154.9009,150.2408 L153.6782,150.1355 L152.4534,150.0602 L151.2271,150.0151 L150,150 L148.7729,150.0151 L147.5466,150.0602 L146.3218,150.1355 L145.0991,150.2408 L143.8795,150.376 L142.6635,150.5412 L141.4519,150.7361 L140.2455,150.9607 L139.0449,151.2149 L137.851,151.4984 L136.6644,151.8112 L135.4858,152.153 L134.3159,152.5236 L133.1555,152.9228 L132.0052,153.3504 L130.8658,153.806 L129.7379,154.2895 L128.6222,154.8005 L127.5194,155.3388 L126.4302,155.9039 L125.3551,156.4957 L124.2949,157.1136 L123.2501,157.7573 L122.2215,158.4265 L121.2096,159.1208 L120.215,159.8396 L119.2384,160.5827 L118.2803,161.3495 L117.3414,162.1396 L116.4221,162.9524 L115.523,163.7876 L114.6447,164.6447 L113.7876,165.523 L112.9524,166.4221 L112.1396,167.3414 L111.3495,168.2803 L110.5827,169.2384 L109.8396,170.215 L109.1208,171.2096 L108.4265,172.2215 L107.7573,173.2501 L107.1136,174.2949 L106.4956,175.3551 L105.9039,176.4302 L105.3388,177.5194 L104.8005,178.6222 L104.2895,179.7379 L103.806,180.8658 L103.3504,182.0052 L102.9228,183.1555 L102.5236,184.3159 L102.153,185.4858 L101.8112,186.6644 L101.4984,187.851 L101.2149,189.0449 L100.9607,190.2455 L100.7361,191.4519 L100.5412,192.6635 L100.376,193.8795 L100.2408,195.0991 L100.1355,196.3218 L100.0602,197.5466 L100.0151,198.7729 L100,200 L200,200 Z" fill="#FFA300"/>
  <path d="M200,0 L150,0 L150,200 L200,200 Z" fill="#FFA300"/></g>
<rect x="1600.000" y="640.000" width="320.000" height="320.000" fill="#F3F3F3"/>
<g transform="translate(1600.000,640.000) scale(1.60000) rotate(270,100,100)"><circle cx="150" cy="100" r="50" fill="#FF4F00"/>
  <path d="M200,0 L100,0 L100,0 L100.0151,1.2271 L100.0602,2.4534 L100.1355,3.6782 L100.2408,4.9009 L100.376,6.1205 L100.5412,7.3365 L100.7361,8.5481 L100.9607,9.7545 L101.2149,10.9551 L101.4984,12.149 L101.8112,13.3356 L102.153,14.5142 L102.5236,15.6841 L102.9228,16.8445 L103.3504,17.9948 L103.806,19.1342 L104.2895,20.2621 L104.8005,21.3778 L105.3388,22.4806 L105.9039,23.5698 L106.4956,24.6449 L107.1136,25.7051 L107.7573,26.7499 L108.4265,27.7785 L109.1208,28.7904 L109.8396,29.785 L110.5827,30.7616 L111.3495,31.7197 L112.1396,32.6586 L112.9524,33.5779 L113.7876,34.477 L114.6447,35.3553 L115.523,36.2124 L116.4221,37.0476 L117.3414,37.8604 L118.2803,38.6505 L119.2384,39.4173 L120.215,40.1604 L121.2096,40.8792 L122.2215,41.5735 L123.2501,42.2427 L124.2949,42.8864 L125.3551,43.5044 L126.4302,44.0961 L127.5194,44.6612 L128.6222,45.1995 L129.7379,45.7105 L130.8658,46.194 L132.0052,46.6496 L133.1555,47.0772 L134.3159,47.4764 L135.4858,47.847 L136.6644,48.1888 L137.851,48.5016 L139.0449,48.7851 L140.2455,49.0393 L141.4519,49.2639 L142.6635,49.4588 L143.8795,49.624 L145.0991,49.7592 L146.3218,49.8645 L147.5466,49.9398 L148.7729,49.9849 L150,50 L151.2271,49.9849 L152.4534,49.9398 L153.6782,49.8645 L154.9009,49.7592 L156.1205,49.624 L157.3365,49.4588 L158.5481,49.2639 L159.7545,49.0393 L160.9551,48.7851 L162.149,48.5016 L163.3356,48.1888 L164.5142,47.847 L165.6841,47.4764 L166.8445,47.0772 L167.9948,46.6496 L169.1342,46.194 L170.2621,45.7105 L171.3778,45.1995 L172.4806,44.6612 L173.5698,44.0961 L174.6449,43.5044 L175.7051,42.8864 L176.7499,42.2427 L177.7785,41.5735 L178.7904,40.8792 L179.785,40.1604 L180.7616,39.4173 L181.7197,38.6505 L182.6586,37.8604 L183.5779,37.0476 L184.477,36.2124 L185.3553,35.3553 L186.2124,34.477 L187.0476,33.5779 L187.8604,32.6586 L188.6505,31.7197 L189.4173,30.7616 L190.1604,29.785 L190.8792,28.7904 L191.5735,27.7785 L192.2427,26.7499 L192.8864,25.7051 L193.5043,24.6449 L194.0961,23.5698 L194.6612,22.4806 L195.1995,21.3778 L195.7105,20.2621 L196.194,19.1342 L196.6496,17.9948 L197.0772,16.8445 L197.4764,15.6841 L197.847,14.5142 L198.1888,13.3356 L198.5016,12.149 L198.7851,10.9551 L199.0393,9.7545 L199.2639,8.5481 L199.4588,7.3365 L199.624,6.1205 L199.7592,4.9009 L199.8645,3.6782 L199.9398,2.4534 L199.9849,1.2271 L200,0 Z" fill="#FF4F00"/>
  <path d="M199.9849,198.7729 L199.9398,197.5466 L199.8645,196.3218 L199.7592,195.0991 L199.624,193.8795 L199.4588,192.6635 L199.2639,191.4519 L199.0393,190.2455 L198.7851,189.0449 L198.5016,187.851 L198.1888,186.6644 L197.847,185.4858 L197.4764,184.3159 L197.0772,183.1555 L196.6496,182.0052 L196.194,180.8658 L195.7105,179.7379 L195.1995,178.6222 L194.6612,177.5194 L194.0961,176.4302 L193.5043,175.3551 L192.8864,174.2949 L192.2427,173.2501 L191.5735,172.2215 L190.8792,171.2096 L190.1604,170.215 L189.4173,169.2384 L188.6505,168.2803 L187.8604,167.3414 L187.0476,166.4221 L186.2124,165.523 L185.3553,164.6447 L184.477,163.7876 L183.5779,162.9524 L182.6586,162.1396 L181.7197,161.3495 L180.7616,160.5827 L179.785,159.8396 L178.7904,159.1208 L177.7785,158.4265 L176.7499,157.7573 L175.7051,157.1136 L174.6449,156.4957 L173.5698,155.9039 L172.4806,155.3388 L171.3778,154.8005 L170.2621,154.2895 L169.1342,153.806 L167.9948,153.3504 L166.8445,152.9228 L165.6841,152.5236 L164.5142,152.153 L163.3356,151.8112 L162.149,151.4984 L160.9551,151.2149 L159.7545,150.9607 L158.5481,150.7361 L157.3365,150.5412 L156.1205,150.376 L154.9009,150.2408 L153.6782,150.1355 L152.4534,150.0602 L151.2271,150.0151 L150,150 L148.7729,150.0151 L147.5466,150.0602 L146.3218,150.1355 L145.0991,150.2408 L143.8795,150.376 L142.6635,150.5412 L141.4519,150.7361 L140.2455,150.9607 L139.0449,151.2149 L137.851,151.4984 L136.6644,151.8112 L135.4858,152.153 L134.3159,152.5236 L133.1555,152.9228 L132.0052,153.3504 L130.8658,153.806 L129.7379,154.2895 L128.6222,154.8005 L127.5194,155.3388 L126.4302,155.9039 L125.3551,156.4957 L124.2949,157.1136 L123.2501,157.7573 L122.2215,158.4265 L121.2096,159.1208 L120.215,159.8396 L119.2384,160.5827 L118.2803,161.3495 L117.3414,162.1396 L116.4221,162.9524 L115.523,163.7876 L114.6447,164.6447 L113.7876,165.523 L112.9524,166.4221 L112.1396,167.3414 L111.3495,168.2803 L110.5827,169.2384 L109.8396,170.215 L109.1208,171.2096 L108.4265,172.2215 L107.7573,173.2501 L107.1136,174.2949 L106.4956,175.3551 L105.9039,176.4302 L105.3388,177.5194 L104.8005,178.6222 L104.2895,179.7379 L103.806,180.8658 L103.3504,182.0052 L102.9228,183.1555 L102.5236,184.3159 L102.153,185.4858 L101.8112,186.6644 L101.4984,187.851 L101.2149,189.0449 L100.9607,190.2455 L100.7361,191.4519 L100.5412,192.6635 L100.376,193.8795 L100.2408,195.0991 L100.1355,196.3218 L100.0602,197.5466 L100.0151,198.7729 L100,200 L200,200 Z" fill="#FF4F00"/>
  <path d="M200,0 L150,0 L150,200 L200,200 Z" fill="#FF4F00"/></g>
</svg>
