<?xml version='1.0' encoding='UTF-8'?>
<svg xmlns="http://www.w3.org/2000/svg" version="1.1" width="1920" height="960" viewBox="0 0 1920 960">
<rect x="0.000" y="0.000" width="320.000" height="320.000" fill="#FFFFFF"/>
<g transform="translate(0.000,0.000) scale(1.60000) rotate(270,100,100)"><path d="M200 0C200 55.228 177.616 105.228 141.42 141.42C105.228 177.616 55.228 200 0 200L200 200L200 0Z" fill="#D9D9D6"/>
  <path d="M141.667 100C141.667 76.9841 123.011 58.3333 100 58.3333C76.9891 58.3333 58.3333 76.9841 58.3333 100C58.3333 123.016 76.989 141.667 100 141.667C111.508 141.667 121.925 137.004 129.464 129.464C137.004 121.925 141.667 111.508 141.667 100Z" fill="#D9D9D6"/>
  <path d="M100.028 0.028L0.056 0L0.028 100C55.2405 100.016 100.012 55.256 100.028 0.028Z" fill="#D9D9D6"/></g>
<rect x="320.000" y="0.000" width="320.000" height="320.000" fill="#FFFFFF"/>
<g transform="translate(320.000,0.000) scale(1.60000) rotate(180,100,100)"><path d="M200 0C200 55.228 177.616 105.228 141.42 141.42C105.228 177.616 55.228 200 0 200L200 200L200 0Z" fill="#FFA300"/>
  <path d="M141.667 100C141.667 76.9841 123.011 58.3333 100 58.3333C76.9891 58.3333 58.3333 76.9841 58.3333 100C58.3333 123.016 76.989 141.667 100 141.667C111.508 141.667 121.925 137.004 129.464 129.464C137.004 121.925 141.667 111.508 141.667 100Z" fill="#FFA300"/>
  <path d="M100.028 0.028L0.056 0L0.028 100C55.2405 100.016 100.012 55.256 100.028 0.028Z" fill="#FFA300"/></g>
<rect x="640.000" y="0.000" width="320.000" height="320.000" fill="#FFFFFF"/>
<g transform="translate(640.000,0.000) scale(1.60000) rotate(90,100,100)"><path d="M45 200H65L65 0H45L45 200Z" fill="#4997D0"/>
  <path d="M90 200H110L110 0H90L90 200Z" fill="#4997D0"/>
  <path d="M135 200H155L155 0H135L135 200Z" fill="#4997D0"/>
  <path d="M0 200H20L20 0H0L0 200Z" fill="#4997D0"/>
  <path d="M180 200H200L200 0H180L180 200Z" fill="#4997D0"/></g>
<rect x="960.000" y="0.000" width="320.000" height="320.000" fill="#121212"/>
<g transform="translate(960.000,0.000) scale(1.60000) rotate(90,100,100)"><path d="M100 0L100 100L0 100L0 0L100 0Z" fill="#FFFFFF"/></g>
<rect x="1280.000" y="0.000" width="320.000" height="320.000" fill="#F3F3F3"/>
<g transform="translate(1280.000,0.000) scale(1.60000) rotate(270,100,100)"><path d="M100 0L100 100L0 100L0 0L100 0Z" fill="#FFA300"/></g>
<rect x="1600.000" y="0.000" width="320.000" height="320.000" fill="#F3F3F3"/>
<g transform="translate(1600.000,0.000) scale(1.60000)"><path d="M100 0L100 100L0 100L0 0L100 0Z" fill="#4997D0"/></g>
<rect x="0.000" y="320.000" width="320.000" height="320.000" fill="#F3F3F3"/>
<g transform="translate(0.000,320.000) scale(1.60000) rotate(90,100,100)"><path d="M200 0C200 55.228 177.616 105.228 141.42 141.42C105.228 177.616 55.228 200 0 200L200 200L200 0Z" fill="#4997D0"/>
  <path d="M141.667 100C141.667 76.9841 123.011 58.3333 100 58.3333C76.9891 58.3333 58.3333 76.9841 58.3333 100C58.3333 123.016 76.989 141.667 100 141.667C111.508 141.667 121.925 137.004 129.464 129.464C137.004 121.925 141.667 111.508 141.667 100Z" fill="#4997D0"/>
  <path d="M100.028 0.028L0.056 0L0.028 100C55.2405 100.016 100.012 55.256 100.028 0.028Z" fill="#4997D0"/></g>
<rect x="320.000" y="320.000" width="320.000" height="320.000" fill="#D9D9D6"/>
<g transform="translate(320.000,320.000) scale(1.60000) rotate(180,100,100)"><path fill-rule="evenodd" clip-rule="evenodd" d="M0 100L200 0L0 0L0 200L200 200L0 100Z" fill="#FFFFFF"/></g>
<rect x="640.000" y="320.000" width="320.000" height="320.000" fill="#D9D9D6"/>
<g transform="translate(640.000,320.000) scale(1.60000)"><path d="M100 0L100 100L0 100L0 0L100 0Z" fill="#F3F3F3"/></g>
<rect x="960.000" y="320.000" width="320.000" height="320.000" fill="#FFFFFF"/>
<g transform="translate(960.000,320.000) scale(1.60000) rotate(270,100,100)"><path d="M100 0L100 100L0 100L0 0L100 0Z" fill="#FFA300"/></g>
<rect x="1280.000" y="320.000" width="320.000" height="320.000" fill="#121212"/>
<g transform="translate(1280.000,320.000) scale(1.60000)"><path d="M100 0L100 100L0 100L0 0L100 0Z" fill="#FFFFFF"/></g>
<rect x="1600.000" y="320.000" width="320.000" height="320.000" fill="#F3F3F3"/>
<g transform="translate(1600.000,320.000) scale(1.60000) rotate(90,100,100)"><path d="M45 200H65L65 0H45L45 200Z" fill="#121212"/>
  <path d="M90 200H110L110 0H90L90 200Z" fill="#121212"/>
  <path d="M135 200H155L155 0H135L135 200Z" fill="#121212"/>
  <path d="M0 200H20L20 0H0L0 200Z" fill="#121212"/>
  <path d="M180 200H200L200 0H180L180 200Z" fill="#121212"/></g>
<rect x="0.000" y="640.000" width="320.000" height="320.000" fill="#F3F3F3"/>
<g transform="translate(0.000,640.000) scale(1.60000) rotate(90,100,100)"><path d="M45 200H65L65 0H45L45 200Z" fill="#121212"/>
  <path d="M90 200H110L110 0H90L90 200Z" fill="#121212"/>
  <path d="M135 200H155L155 0H135L135 200Z" fill="#121212"/>
  <path d="M0 200H20L20 0H0L0 200Z" fill="#121212"/>
  <path d="M180 200H200L200 0H180L180 200Z" fill="#121212"/></g>
<rect x="320.000" y="640.000" width="320.000" height="320.000" fill="#F3F3F3"/>
<g transform="translate(320.000,640.000) scale(1.60000)"><path d="M100 0L100 100L0 100L0 0L100 0Z" fill="#FF4F00"/></g>
<rect x="640.000" y="640.000" width="320.000" height="320.000" fill="#F3F3F3"/>
<g transform="translate(640.000,640.000) scale(1.60000) rotate(270,100,100)"><path d="M100 0L100 100L0 100L0 0L100 0Z" fill="#121212"/></g>
<rect x="960.000" y="640.000" width="320.000" height="320.000" fill="#D9D9D6"/>
<g transform="translate(960.000,640.000) scale(1.60000) rotate(270,100,100)"><path d="M100 0L100 100L0 100L0 0L100 0Z" fill="#FFFFFF"/></g>
<rect x="1280.000" y="640.000" width="320.000" height="320.000" fill="#FFFFFF"/>
<g transform="translate(1280.000,640.000) scale(1.60000) rotate(90,100,100)"><path d="M200 0C200 55.228 177.616 105.228 141.42 141.42C105.228 177.616 55.228 200 0 200L200 200L200 0Z" fill="#121212"/>
  <path d="M141.667 100C141.667 76.9841 123.011 58.3333 100 58.3333C76.9891 58.3333 58.3333 76.9841 58.3333 100C58.3333 123.016 76.989 141.667 100 141.667C111.508 141.667 121.925 137.004 129.464 129.464C137.004 121.925 141.667 111.508 141.667 100Z" fill="#121212"/>
  <path d="M100.028 0.028L0.056 0L0.028 100C55.2405 100.016 100.012 55.256 100.028 0.028Z" fill="#121212"/></g>
<rect x="1600.000" y="640.000" width="320.000" height="320.000" fill="#FFFFFF"/>
<g transform="translate(1600.000,640.000) scale(1.60000)"><path d="M200 0C200 55.228 177.616 105.228 141.42 141.42C105.228 177.616 55.228 200 0 200L200 200L200 0Z" fill="#FF4F00"/>
  <path d="M141.667 100C141.667 76.9841 123.011 58.3333 100 58.3333C76.9891 58.3333 58.3333 76.9841 58.3333 100C58.3333 123.016 76.989 141.667 100 141.667C111.508 141.667 121.925 137.004 129.464 129.464C137.004 121.925 141.667 111.508 141.667 100Z" fill="#FF4F00"/>
  <path d="M100.028 0.028L0.056 0L0.028 100C55.2405 100.016 100.012 55.256 100.028 0.028Z" fill="#FF4F00"/></g>
</svg>
