<?xml version='1.0' encoding='UTF-8'?>
<svg xmlns="http://www.w3.org/2000/svg" version="1.1" width="1920" height="960" viewBox="0 0 1920 960">
<rect x="0.000" y="0.000" width="320.000" height="320.000" fill="#121212"/>
<g transform="translate(0.000,0.000) scale(1.60000) rotate(180,100,100)"><rect x="0" y="100" width="200" height="100" fill="#121212"/>
  <path fill-rule="evenodd" clip-rule="evenodd" d="M200 200L180 200L180 100L200 100L200 200ZM100.028 100L200 99.972C200 99.972 155.241 99.984 100.028 100ZM100.028 100L116 100L116 200L96 200L96 100L74 100L74 200L54 200L54 100L32 100L32 200L12 200L12 100L100.028 100ZM158 200L138 200L138 100L158 100L158 200Z" fill="#D9D9D6"/>
  <path d="M200 99.9719L0 100L0 0L100 0C155.213 -0.016 199.984 44.7439 200 99.9719Z" fill="#D9D9D6"/></g>
<rect x="320.000" y="0.000" width="320.000" height="320.000" fill="#FFFFFF"/>
<g transform="translate(320.000,0.000) scale(1.60000) rotate(270,100,100)"><rect x="0" y="100" width="200" height="100" fill="#FFFFFF"/>
  <path fill-rule="evenodd" clip-rule="evenodd" d="M200 200L180 200L180 100L200 100L200 200ZM100.028 100L200 99.972C200 99.972 155.241 99.984 100.028 100ZM100.028 100L116 100L116 200L96 200L96 100L74 100L74 200L54 200L54 100L32 100L32 200L12 200L12 100L100.028 100ZM158 200L138 200L138 100L158 100L158 200Z" fill="#4997D0"/>
  <path d="M200 99.9719L0 100L0 0L100 0C155.213 -0.016 199.984 44.7439 200 99.9719Z" fill="#4997D0"/></g>
<rect x="640.000" y="0.000" width="320.000" height="320.000" fill="#121212"/>
<g transform="translate(640.000,0.000) scale(1.60000)"><path d="M200 0 C200 82.8427 132.843 150 50 150 L0 150 L0 0 L200 0 Z" fill="#FFFFFF"/></g>
<rect x="960.000" y="0.000" width="320.000" height="320.000" fill="#D9D9D6"/>
<g transform="translate(960.000,0.000) scale(1.60000) rotate(270,100,100)"><path d="M150 50L150 150L50 150L50 50L150 50Z" fill="#F3F3F3"/></g>
<rect x="1280.000" y="0.000" width="320.000" height="320.000" fill="#F3F3F3"/>
<g transform="translate(1280.000,0.000) scale(1.60000) rotate(90,100,100)"><path d="M200 0C200 0 169.709 10 100 10C30.2914 10 69.7086 10 0 10L0 0L100 0L200 0Z" fill="#FFA300"/></g>
<rect x="1600.000" y="0.000" width="320.000" height="320.000" fill="#121212"/>
<g transform="translate(1600.000,0.000) scale(1.60000) rotate(90,100,100)"><path d="M200 0C200 0 169.709 10 100 10C30.2914 10 69.7086 10 0 10L0 0L100 0L200 0Z" fill="#F3F3F3"/></g>
<rect x="0.000" y="320.000" width="320.000" height="320.000" fill="#F3F3F3"/>
<g transform="translate(0.000,320.000) scale(1.60000)"><rect x="0" y="100" width="200" height="100" fill="#F3F3F3"/>
  <path fill-rule="evenodd" clip-rule="evenodd" d="M200 200L180 200L180 100L200 100L200 200ZM100.028 100L200 99.972C200 99.972 155.241 99.984 100.028 100ZM100.028 100L116 100L116 200L96 200L96 100L74 100L74 200L54 200L54 100L32 100L32 200L12 200L12 100L100.028 100ZM158 200L138 200L138 100L158 100L158 200Z" fill="#4997D0"/>
  <path d="M200 99.9719L0 100L0 0L100 0C155.213 -0.016 199.984 44.7439 200 99.9719Z" fill="#4997D0"/></g>
<rect x="320.000" y="320.000" width="320.000" height="320.000" fill="#FFFFFF"/>
<g transform="translate(320.000,320.000) scale(1.60000)"><path d="M200 0 C200 82.8427 132.843 150 50 150 L0 150 L0 0 L200 0 Z" fill="#FFA300"/></g>
<rect x="640.000" y="320.000" width="320.000" height="320.000" fill="#FFFFFF"/>
<g transform="translate(640.000,320.000) scale(1.60000) rotate(180,100,100)"><path d="M150 50L150 150L50 150L50 50L150 50Z" fill="#D9D9D6"/></g>
<rect x="960.000" y="320.000" width="320.000" height="320.000" fill="#F3F3F3"/>
<g transform="translate(960.000,320.000) scale(1.60000)"><path d="M150 50L150 150L50 150L50 50L150 50Z" fill="#FFA300"/></g>
<rect x="1280.000" y="320.000" width="320.000" height="320.000" fill="#121212"/>
<g transform="translate(1280.000,320.000) scale(1.60000) rotate(270,100,100)"><path d="M150 50L150 150L50 150L50 50L150 50Z" fill="#F3F3F3"/></g>
<rect x="1600.000" y="320.000" width="320.000" height="320.000" fill="#F3F3F3"/>
<g transform="translate(1600.000,320.000) scale(1.60000) rotate(180,100,100)"><path d="M200 0 C200 82.8427 132.843 150 50 150 L0 150 L0 0 L200 0 Z" fill="#FFA300"/></g>
<rect x="0.000" y="640.000" width="320.000" height="320.000" fill="#FFFFFF"/>
<g transform="translate(0.000,640.000) scale(1.60000)"><path d="M200 0 C200 82.8427 132.843 150 50 150 L0 150 L0 0 L200 0 Z" fill="#121212"/></g>
<rect x="320.000" y="640.000" width="320.000" height="320.000" fill="#121212"/>
<g transform="translate(320.000,640.000) scale(1.60000) rotate(90,100,100)"><path d="M150 50L150 150L50 150L50 50L150 50Z" fill="#D9D9D6"/></g>
<rect x="640.000" y="640.000" width="320.000" height="320.000" fill="#D9D9D6"/>
<g transform="translate(640.000,640.000) scale(1.60000) rotate(180,100,100)"><path d="M150 50L150 150L50 150L50 50L150 50Z" fill="#FFFFFF"/></g>
<rect x="960.000" y="640.000" width="320.000" height="320.000" fill="#FFFFFF"/>
<g transform="translate(960.000,640.000) scale(1.60000) rotate(180,100,100)"><path d="M150 50L150 150L50 150L50 50L150 50Z" fill="#4997D0"/></g>
<rect x="1280.000" y="640.000" width="320.000" height="320.000" fill="#FFFFFF"/>
<g transform="translate(1280.000,640.000) scale(1.60000) rotate(180,100,100)"><path d="M150 50L150 150L50 150L50 50L150 50Z" fill="#D9D9D6"/></g>
<rect x="1600.000" y="640.000" width="320.000" height="320.000" fill="#FFFFFF"/>
<g transform="translate(1600.000,640.000) scale(1.60000) rotate(180,100,100)"><rect x="0" y="100" width="200" height="100" fill="#FFFFFF"/>
  <path fill-rule="evenodd" clip-rule="evenodd" d="M200 200L180 200L180 100L200 100L200 200ZM100.028 100L200 99.972C200 99.972 155.241 99.984 100.028 100ZM100.028 100L116 100L116 200L96 200L96 100L74 100L74 200L54 200L54 100L32 100L32 200L12 200L12 100L100.028 100ZM158 200L138 200L138 100L158 100L158 200Z" fill="#FF4F00"/>
  <path d="M200 99.9719L0 100L0 0L100 0C155.213 -0.016 199.984 44.7439 200 99.9719Z" fill="#FF4F00"/></g>
</svg>
