<?xml version='1.0' encoding='UTF-8'?>
<svg xmlns="http://www.w3.org/2000/svg" version="1.1" width="1920" height="960" viewBox="0 0 1920 960">
<rect x="0.000" y="0.000" width="320.000" height="320.000" fill="#FFFFFF"/>
<g transform="translate(0.000,0.000) scale(1.60000) rotate(90,100,100)"><path d="M100.1 200 C11.0989 200 -33.4731 92.3937 29.4603 29.4603 C92.3937 -33.4732 200 11.0989 200 100.1 L200 200 L100.1 200 Z" fill="#FF4F00"/></g>
<rect x="320.000" y="0.000" width="320.000" height="320.000" fill="#121212"/>
<g transform="translate(320.000,0.000) scale(1.60000) rotate(90,100,100)"><path d="M200 0L200 50L0 100L0 0L200 0Z" fill="#F3F3F3"/>
  <path d="M0 200L200 150L200 200L0 200Z" fill="#F3F3F3"/></g>
<rect x="640.000" y="0.000" width="320.000" height="320.000" fill="#FFFFFF"/>
<g transform="translate(640.000,0.000) scale(1.60000)"><path d="M175 200C133.579 200 25 200 25 200C25 158.579 58.5787 125 100 125C141.421 125 175 158.579 175 200Z" fill="#121212"/></g>
<rect x="960.000" y="0.000" width="320.000" height="320.000" fill="#121212"/>
<g transform="translate(960.000,0.000) scale(1.60000) rotate(90,100,100)"><path d="M175 200C133.579 200 25 200 25 200C25 158.579 58.5787 125 100 125C141.421 125 175 158.579 175 200Z" fill="#F3F3F3"/></g>
<rect x="1280.000" y="0.000" width="320.000" height="320.000" fill="#121212"/>
<g transform="translate(1280.000,0.000) scale(1.60000) rotate(270,100,100)"><path d="M175 200C133.579 200 25 200 25 200C25 158.579 58.5787 125 100 125C141.421 125 175 158.579 175 200Z" fill="#FFFFFF"/></g>
<rect x="1600.000" y="0.000" width="320.000" height="320.000" fill="#F3F3F3"/>
<g transform="translate(1600.000,0.000) scale(1.60000) rotate(90,100,100)"><path d="M200 0L196.918 1.6748C114.352 46.5417 46.5417 114.352 1.6748 196.918L0 200L0 0L200 0Z" fill="#121212"/>
  <path d="M69.5147 199.167C54.8302 122.315 122.662 54.9099 200 69.502L69.5147 199.167Z" fill="#121212"/></g>
<rect x="0.000" y="320.000" width="320.000" height="320.000" fill="#D9D9D6"/>
<g transform="translate(0.000,320.000) scale(1.60000) rotate(180,100,100)"><path d="M100.1 200 C11.0989 200 -33.4731 92.3937 29.4603 29.4603 C92.3937 -33.4732 200 11.0989 200 100.1 L200 200 L100.1 200 Z" fill="#F3F3F3"/></g>
<rect x="320.000" y="320.000" width="320.000" height="320.000" fill="#FFFFFF"/>
<g transform="translate(320.000,320.000) scale(1.60000)"><path d="M200 0L200 50L0 100L0 0L200 0Z" fill="#121212"/>
  <path d="M0 200L200 150L200 200L0 200Z" fill="#121212"/></g>
<rect x="640.000" y="320.000" width="320.000" height="320.000" fill="#FFFFFF"/>
<g transform="translate(640.000,320.000) scale(1.60000)"><path d="M175 200C133.579 200 25 200 25 200C25 158.579 58.5787 125 100 125C141.421 125 175 158.579 175 200Z" fill="#FFA300"/></g>
<rect x="960.000" y="320.000" width="320.000" height="320.000" fill="#FFFFFF"/>
<g transform="translate(960.000,320.000) scale(1.60000)"><path d="M175 200C133.579 200 25 200 25 200C25 158.579 58.5787 125 100 125C141.421 125 175 158.579 175 200Z" fill="#121212"/></g>
<rect x="1280.000" y="320.000" width="320.000" height="320.000" fill="#F3F3F3"/>
<g transform="translate(1280.000,320.000) scale(1.60000)"><path d="M200 0L200 50L0 100L0 0L200 0Z" fill="#FFA300"/>
  <path d="M0 200L200 150L200 200L0 200Z" fill="#FFA300"/></g>
<rect x="1600.000" y="320.000" width="320.000" height="320.000" fill="#D9D9D6"/>
<g transform="translate(1600.000,320.000) scale(1.60000)"><path d="M175 200C133.579 200 25 200 25 200C25 158.579 58.5787 125 100 125C141.421 125 175 158.579 175 200Z" fill="#F3F3F3"/></g>
<rect x="0.000" y="640.000" width="320.000" height="320.000" fill="#FFFFFF"/>
<g transform="translate(0.000,640.000) scale(1.60000)"><path d="M200 0L200 50L0 100L0 0L200 0Z" fill="#FF4F00"/>
  <path d="M0 200L200 150L200 200L0 200Z" fill="#FF4F00"/></g>
<rect x="320.000" y="640.000" width="320.000" height="320.000" fill="#121212"/>
<g transform="translate(320.000,640.000) scale(1.60000) rotate(90,100,100)"><path d="M200 0L200 50L0 100L0 0L200 0Z" fill="#F3F3F3"/>
  <path d="M0 200L200 150L200 200L0 200Z" fill="#F3F3F3"/></g>
<rect x="640.000" y="640.000" width="320.000" height="320.000" fill="#121212"/>
<g transform="translate(640.000,640.000) scale(1.60000)"><path d="M175 200C133.579 200 25 200 25 200C25 158.579 58.5787 125 100 125C141.421 125 175 158.579 175 200Z" fill="#D9D9D6"/></g>
<rect x="960.000" y="640.000" width="320.000" height="320.000" fill="#D9D9D6"/>
<g transform="translate(960.000,640.000) scale(1.60000)"><path d="M175 200C133.579 200 25 200 25 200C25 158.579 58.5787 125 100 125C141.421 125 175 158.579 175 200Z" fill="#FFFFFF"/></g>
<rect x="1280.000" y="640.000" width="320.000" height="320.000" fill="#121212"/>
<g transform="translate(1280.000,640.000) scale(1.60000) rotate(180,100,100)"><path d="M175 200C133.579 200 25 200 25 200C25 158.579 58.5787 125 100 125C141.421 125 175 158.579 175 200Z" fill="#D9D9D6"/></g>
<rect x="1600.000" y="640.000" width="320.000" height="320.000" fill="#FFFFFF"/>
<g transform="translate(1600.000,640.000) scale(1.60000) rotate(180,100,100)"><path d="M175 200C133.579 200 25 200 25 200C25 158.579 58.5787 125 100 125C141.421 125 175 158.579 175 200Z" fill="#4997D0"/></g>
</svg>
