<?xml version='1.0' encoding='UTF-8'?>
<svg xmlns="http://www.w3.org/2000/svg" version="1.1" width="1920" height="960" viewBox="0 0 1920 960">
<rect x="0.000" y="0.000" width="320.000" height="320.000" fill="#F3F3F3"/>
<g transform="translate(0.000,0.000) scale(1.60000) rotate(180,100,100)"><path d="M198.7729,50.0151 L197.5466,50.0602 L196.3218,50.1355 L195.0991,50.2408 L193.8795,50.376 L192.6635,50.5412 L191.4519,50.7361 L190.2455,50.9607 L189.0449,51.2149 L187.851,51.4984 L186.6644,51.8112 L185.4858,52.153 L184.3159,52.5236 L183.1555,52.9228 L182.0052,53.3504 L180.8658,53.806 L179.7379,54.2895 L178.6222,54.8005 L177.5194,55.3388 L176.4302,55.9039 L175.3551,56.4956 L174.2949,57.1136 L173.2501,57.7573 L172.2215,58.4265 L171.2096,59.1208 L170.215,59.8396 L169.2384,60.5827 L168.2803,61.3495 L167.3414,62.1396 L166.4221,62.9524 L165.523,63.7876 L164.6447,64.6447 L163.7876,65.523 L162.9524,66.4221 L162.1396,67.3414 L161.3495,68.2803 L160.5827,69.2384 L159.8396,70.215 L159.1208,71.2096 L158.4265,72.2215 L157.7573,73.2501 L157.1136,74.2949 L156.4957,75.3551 L155.9039,76.4302 L155.3388,77.5194 L154.8005,78.6222 L154.2895,79.7379 L153.806,80.8658 L153.3504,82.0052 L152.9228,83.1555 L152.5236,84.3159 L152.153,85.4858 L151.8112,86.6644 L151.4984,87.851 L151.2149,89.0449 L150.9607,90.2455 L150.7361,91.4519 L150.5412,92.6635 L150.376,93.8795 L150.2408,95.0991 L150.1355,96.3218 L150.0602,97.5466 L150.0151,98.7729 L150,100 L150.0151,101.2271 L150.0602,102.4534 L150.1355,103.6782 L150.2408,104.9009 L150.376,106.1205 L150.5412,107.3365 L150.7361,108.5481 L150.9607,109.7545 L151.2149,110.9551 L151.4984,112.149 L151.8112,113.3356 L152.153,114.5142 L152.5236,115.6841 L152.9228,116.8445 L153.3504,117.9948 L153.806,119.1342 L154.2895,120.2621 L154.8005,121.3778 L155.3388,122.4806 L155.9039,123.5698 L156.4957,124.6449 L157.1136,125.7051 L157.7573,126.7499 L158.4265,127.7785 L159.1208,128.7904 L159.8396,129.785 L160.5827,130.7616 L161.3495,131.7197 L162.1396,132.6586 L162.9524,133.5779 L163.7876,134.477 L164.6447,135.3553 L165.523,136.2124 L166.4221,137.0476 L167.3414,137.8604 L168.2803,138.6505 L169.2384,139.4173 L170.215,140.1604 L171.2096,140.8792 L172.2215,141.5735 L173.2501,142.2427 L174.2949,142.8864 L175.3551,143.5043 L176.4302,144.0961 L177.5194,144.6612 L178.6222,145.1995 L179.7379,145.7105 L180.8658,146.194 L182.0052,146.6496 L183.1555,147.0772 L184.3159,147.4764 L185.4858,147.847 L186.6644,148.1888 L187.851,148.5016 L189.0449,148.7851 L190.2455,149.0393 L191.4519,149.2639 L192.6635,149.4588 L193.8795,149.624 L195.0991,149.7592 L196.3218,149.8645 L197.5466,149.9398 L198.7729,149.9849 L200,150 L200,50 Z" fill="#121212"/>
  <path d="M150.0151,1.2271 L150.0602,2.4534 L150.1355,3.6782 L150.2408,4.9009 L150.376,6.1205 L150.5412,7.3365 L150.7361,8.5481 L150.9607,9.7545 L151.2149,10.9551 L151.4984,12.149 L151.8112,13.3356 L152.153,14.5142 L152.5236,15.6841 L152.9228,16.8445 L153.3504,17.9948 L153.806,19.1342 L154.2895,20.2621 L154.8005,21.3778 L155.3388,22.4806 L155.9039,23.5698 L156.4957,24.6449 L157.1136,25.7051 L157.7573,26.7499 L158.4265,27.7785 L159.1208,28.7904 L159.8396,29.785 L160.5827,30.7616 L161.3495,31.7197 L162.1396,32.6586 L162.9524,33.5779 L163.7876,34.477 L164.6447,35.3553 L165.523,36.2124 L166.4221,37.0476 L167.3414,37.8604 L168.2803,38.6505 L169.2384,39.4173 L170.215,40.1604 L171.2096,40.8792 L172.2215,41.5735 L173.2501,42.2427 L174.2949,42.8864 L175.3551,43.5044 L176.4302,44.0961 L177.5194,44.6612 L178.6222,45.1995 L179.7379,45.7105 L180.8658,46.194 L182.0052,46.6496 L183.1555,47.0772 L184.3159,47.4764 L185.4858,47.847 L186.6644,48.1888 L187.851,48.5016 L189.0449,48.7851 L190.2455,49.0393 L191.4519,49.2639 L192.6635,49.4588 L193.8795,49.624 L195.0991,49.7592 L196.3218,49.8645 L197.5466,49.9398 L198.7729,49.9849 L200,50 L200,0 L150,0 Z" fill="#121212"/>
  <path d="M198.7729,150.0151 L197.5466,150.0602 L196.3218,150.1355 L195.0991,150.2408 L193.8795,150.376 L192.6635,150.5412 L191.4519,150.7361 L190.2455,150.9607 L189.0449,151.2149 L187.851,151.4984 L186.6644,151.8112 L185.4858,152.153 L184.3159,152.5236 L183.1555,152.9228 L182.0052,153.3504 L180.8658,153.806 L179.7379,154.2895 L178.6222,154.8005 L177.5194,155.3388 L176.4302,155.9039 L175.3551,156.4957 L174.2949,157.1136 L173.2501,157.7573 L172.2215,158.4265 L171.2096,159.1208 L170.215,159.8396 L169.2384,160.5827 L168.2803,161.3495 L167.3414,162.1396 L166.4221,162.9524 L165.523,163.7876 L164.6447,164.6447 L163.7876,165.523 L162.9524,166.4221 L162.1396,167.3414 L161.3495,168.2803 L160.5827,169.2384 L159.8396,170.215 L159.1208,171.2096 L158.4265,172.2215 L157.7573,173.2501 L157.1136,174.2949 L156.4957,175.3551 L155.9039,176.4302 L155.3388,177.5194 L154.8005,178.6222 L154.2895,179.7379 L153.806,180.8658 L153.3504,182.0052 L152.9228,183.1555 L152.5236,184.3159 L152.153,185.4858 L151.8112,186.6644 L151.4984,187.851 L151.2149,189.0449 L150.9607,190.2455 L150.7361,191.4519 L150.5412,192.6635 L150.376,193.8795 L150.2408,195.0991 L150.1355,196.3218 L150.0602,197.5466 L150.0151,198.7729 L150,200 L200,200 L200,150 Z" fill="#121212"/></g>
<rect x="320.000" y="0.000" width="320.000" height="320.000" fill="#D9D9D6"/>
<g transform="translate(320.000,0.000) scale(1.60000) rotate(270,100,100)"><circle cx="100" cy="100" r="50" fill="#FFFFFF"/></g>
<rect x="640.000" y="0.000" width="320.000" height="320.000" fill="#FFFFFF"/>
<g transform="translate(640.000,0.000) scale(1.60000) rotate(180,100,100)"><circle cx="100" cy="100" r="50" fill="#D9D9D6"/></g>
<rect x="960.000" y="0.000" width="320.000" height="320.000" fill="#FFFFFF"/>
<g transform="translate(960.000,0.000) scale(1.60000)"><path fill-rule="evenodd" clip-rule="evenodd" d="M100 100L200 0L0 0L0 200L200 200L100 100Z" fill="#FF4F00"/></g>
<rect x="1280.000" y="0.000" width="320.000" height="320.000" fill="#FFFFFF"/>
<g transform="translate(1280.000,0.000) scale(1.60000)"><path d="M198.7729,50.0151 L197.5466,50.0602 L196.3218,50.1355 L195.0991,50.2408 L193.8795,50.376 L192.6635,50.5412 L191.4519,50.7361 L190.2455,50.9607 L189.0449,51.2149 L187.851,51.4984 L186.6644,51.8112 L185.4858,52.153 L184.3159,52.5236 L183.1555,52.9228 L182.0052,53.3504 L180.8658,53.806 L179.7379,54.2895 L178.6222,54.8005 L177.5194,55.3388 L176.4302,55.9039 L175.3551,56.4956 L174.2949,57.1136 L173.2501,57.7573 L172.2215,58.4265 L171.2096,59.1208 L170.215,59.8396 L169.2384,60.5827 L168.2803,61.3495 L167.3414,62.1396 L166.4221,62.9524 L165.523,63.7876 L164.6447,64.6447 L163.7876,65.523 L162.9524,66.4221 L162.1396,67.3414 L161.3495,68.2803 L160.5827,69.2384 L159.8396,70.215 L159.1208,71.2096 L158.4265,72.2215 L157.7573,73.2501 L157.1136,74.2949 L156.4957,75.3551 L155.9039,76.4302 L155.3388,77.5194 L154.8005,78.6222 L154.2895,79.7379 L153.806,80.8658 L153.3504,82.0052 L152.9228,83.1555 L152.5236,84.3159 L152.153,85.4858 L151.8112,86.6644 L151.4984,87.851 L151.2149,89.0449 L150.9607,90.2455 L150.7361,91.4519 L150.5412,92.6635 L150.376,93.8795 L150.2408,95.0991 L150.1355,96.3218 L150.0602,97.5466 L150.0151,98.7729 L150,100 L150.0151,101.2271 L150.0602,102.4534 L150.1355,103.6782 L150.2408,104.9009 L150.376,106.1205 L150.5412,107.3365 L150.7361,108.5481 L150.9607,109.7545 L151.2149,110.9551 L151.4984,112.149 L151.8112,113.3356 L152.153,114.5142 L152.5236,115.6841 L152.9228,116.8445 L153.3504,117.9948 L153.806,119.1342 L154.2895,120.2621 L154.8005,121.3778 L155.3388,122.4806 L155.9039,123.5698 L156.4957,124.6449 L157.1136,125.7051 L157.7573,126.7499 L158.4265,127.7785 L159.1208,128.7904 L159.8396,129.785 L160.5827,130.7616 L161.3495,131.7197 L162.1396,132.6586 L162.9524,133.5779 L163.7876,134.477 L164.6447,135.3553 L165.523,136.2124 L166.4221,137.0476 L167.3414,137.8604 L168.2803,138.6505 L169.2384,139.4173 L170.215,140.1604 L171.2096,140.8792 L172.2215,141.5735 L173.2501,142.2427 L174.2949,142.8864 L175.3551,143.5043 L176.4302,144.0961 L177.5194,144.6612 L178.6222,145.1995 L179.7379,145.7105 L180.8658,146.194 L182.0052,146.6496 L183.1555,147.0772 L184.3159,147.4764 L185.4858,147.847 L186.6644,148.1888 L187.851,148.5016 L189.0449,148.7851 L190.2455,149.0393 L191.4519,149.2639 L192.6635,149.4588 L193.8795,149.624 L195.0991,149.7592 L196.3218,149.8645 L197.5466,149.9398 L198.7729,149.9849 L200,150 L200,50 Z" fill="#FFA300"/>
  <path d="M150.0151,1.2271 L150.0602,2.4534 L150.1355,3.6782 L150.2408,4.9009 L150.376,6.1205 L150.5412,7.3365 L150.7361,8.5481 L150.9607,9.7545 L151.2149,10.9551 L151.4984,12.149 L151.8112,13.3356 L152.153,14.5142 L152.5236,15.6841 L152.9228,16.8445 L153.3504,17.9948 L153.806,19.1342 L154.2895,20.2621 L154.8005,21.3778 L155.3388,22.4806 L155.9039,23.5698 L156.4957,24.6449 L157.1136,25.7051 L157.7573,26.7499 L158.4265,27.7785 L159.1208,28.7904 L159.8396,29.785 L160.5827,30.7616 L161.3495,31.7197 L162.1396,32.6586 L162.9524,33.5779 L163.7876,34.477 L164.6447,35.3553 L165.523,36.2124 L166.4221,37.0476 L167.3414,37.8604 L168.2803,38.6505 L169.2384,39.4173 L170.215,40.1604 L171.2096,40.8792 L172.2215,41.5735 L173.2501,42.2427 L174.2949,42.8864 L175.3551,43.5044 L176.4302,44.0961 L177.5194,44.6612 L178.6222,45.1995 L179.7379,45.7105 L180.8658,46.194 L182.0052,46.6496 L183.1555,47.0772 L184.3159,47.4764 L185.4858,47.847 L186.6644,48.1888 L187.851,48.5016 L189.0449,48.7851 L190.2455,49.0393 L191.4519,49.2639 L192.6635,49.4588 L193.8795,49.624 L195.0991,49.7592 L196.3218,49.8645 L197.5466,49.9398 L198.7729,49.9849 L200,50 L200,0 L150,0 Z" fill="#FFA300"/>
  <path d="M198.7729,150.0151 L197.5466,150.0602 L196.3218,150.1355 L195.0991,150.2408 L193.8795,150.376 L192.6635,150.5412 L191.4519,150.7361 L190.2455,150.9607 L189.0449,151.2149 L187.851,151.4984 L186.6644,151.8112 L185.4858,152.153 L184.3159,152.5236 L183.1555,152.9228 L182.0052,153.3504 L180.8658,153.806 L179.7379,154.2895 L178.6222,154.8005 L177.5194,155.3388 L176.4302,155.9039 L175.3551,156.4957 L174.2949,157.1136 L173.2501,157.7573 L172.2215,158.4265 L171.2096,159.1208 L170.215,159.8396 L169.2384,160.5827 L168.2803,161.3495 L167.3414,162.1396 L166.4221,162.9524 L165.523,163.7876 L164.6447,164.6447 L163.7876,165.523 L162.9524,166.4221 L162.1396,167.3414 L161.3495,168.2803 L160.5827,169.2384 L159.8396,170.215 L159.1208,171.2096 L158.4265,172.2215 L157.7573,173.2501 L157.1136,174.2949 L156.4957,175.3551 L155.9039,176.4302 L155.3388,177.5194 L154.8005,178.6222 L154.2895,179.7379 L153.806,180.8658 L153.3504,182.0052 L152.9228,183.1555 L152.5236,184.3159 L152.153,185.4858 L151.8112,186.6644 L151.4984,187.851 L151.2149,189.0449 L150.9607,190.2455 L150.7361,191.4519 L150.5412,192.6635 L150.376,193.8795 L150.2408,195.0991 L150.1355,196.3218 L150.0602,197.5466 L150.0151,198.7729 L150,200 L200,200 L200,150 Z" fill="#FFA300"/></g>
<rect x="1600.000" y="0.000" width="320.000" height="320.000" fill="#F3F3F3"/>
<g transform="translate(1600.000,0.000) scale(1.60000) rotate(180,100,100)"><path d="M198.7729,50.0151 L197.5466,50.0602 L196.3218,50.1355 L195.0991,50.2408 L193.8795,50.376 L192.6635,50.5412 L191.4519,50.7361 L190.2455,50.9607 L189.0449,51.2149 L187.851,51.4984 L186.6644,51.8112 L185.4858,52.153 L184.3159,52.5236 L183.1555,52.9228 L182.0052,53.3504 L180.8658,53.806 L179.7379,54.2895 L178.6222,54.8005 L177.5194,55.3388 L176.4302,55.9039 L175.3551,56.4956 L174.2949,57.1136 L173.2501,57.7573 L172.2215,58.4265 L171.2096,59.1208 L170.215,59.8396 L169.2384,60.5827 L168.2803,61.3495 L167.3414,62.1396 L166.4221,62.9524 L165.523,63.7876 L164.6447,64.6447 L163.7876,65.523 L162.9524,66.4221 L162.1396,67.3414 L161.3495,68.2803 L160.5827,69.2384 L159.8396,70.215 L159.1208,71.2096 L158.4265,72.2215 L157.7573,73.2501 L157.1136,74.2949 L156.4957,75.3551 L155.9039,76.4302 L155.3388,77.5194 L154.8005,78.6222 L154.2895,79.7379 L153.806,80.8658 L153.3504,82.0052 L152.9228,83.1555 L152.5236,84.3159 L152.153,85.4858 L151.8112,86.6644 L151.4984,87.851 L151.2149,89.0449 L150.9607,90.2455 L150.7361,91.4519 L150.5412,92.6635 L150.376,93.8795 L150.2408,95.0991 L150.1355,96.3218 L150.0602,97.5466 L150.0151,98.7729 L150,100 L150.0151,101.2271 L150.0602,102.4534 L150.1355,103.6782 L150.2408,104.9009 L150.376,106.1205 L150.5412,107.3365 L150.7361,108.5481 L150.9607,109.7545 L151.2149,110.9551 L151.4984,112.149 L151.8112,113.3356 L152.153,114.5142 L152.5236,115.6841 L152.9228,116.8445 L153.3504,117.9948 L153.806,119.1342 L154.2895,120.2621 L154.8005,121.3778 L155.3388,122.4806 L155.9039,123.5698 L156.4957,124.6449 L157.1136,125.7051 L157.7573,126.7499 L158.4265,127.7785 L159.1208,128.7904 L159.8396,129.785 L160.5827,130.7616 L161.3495,131.7197 L162.1396,132.6586 L162.9524,133.5779 L163.7876,134.477 L164.6447,135.3553 L165.523,136.2124 L166.4221,137.0476 L167.3414,137.8604 L168.2803,138.6505 L169.2384,139.4173 L170.215,140.1604 L171.2096,140.8792 L172.2215,141.5735 L173.2501,142.2427 L174.2949,142.8864 L175.3551,143.5043 L176.4302,144.0961 L177.5194,144.6612 L178.6222,145.1995 L179.7379,145.7105 L180.8658,146.194 L182.0052,146.6496 L183.1555,147.0772 L184.3159,147.4764 L185.4858,147.847 L186.6644,148.1888 L187.851,148.5016 L189.0449,148.7851 L190.2455,149.0393 L191.4519,149.2639 L192.6635,149.4588 L193.8795,149.624 L195.0991,149.7592 L196.3218,149.8645 L197.5466,149.9398 L198.7729,149.9849 L200,150 L200,50 Z" fill="#FF4F00"/>
  <path d="M150.0151,1.2271 L150.0602,2.4534 L150.1355,3.6782 L150.2408,4.9009 L150.376,6.1205 L150.5412,7.3365 L150.7361,8.5481 L150.9607,9.7545 L151.2149,10.9551 L151.4984,12.149 L151.8112,13.3356 L152.153,14.5142 L152.5236,15.6841 L152.9228,16.8445 L153.3504,17.9948 L153.806,19.1342 L154.2895,20.2621 L154.8005,21.3778 L155.3388,22.4806 L155.9039,23.5698 L156.4957,24.6449 L157.1136,25.7051 L157.7573,26.7499 L158.4265,27.7785 L159.1208,28.7904 L159.8396,29.785 L160.5827,30.7616 L161.3495,31.7197 L162.1396,32.6586 L162.9524,33.5779 L163.7876,34.477 L164.6447,35.3553 L165.523,36.2124 L166.4221,37.0476 L167.3414,37.8604 L168.2803,38.6505 L169.2384,39.4173 L170.215,40.1604 L171.2096,40.8792 L172.2215,41.5735 L173.2501,42.2427 L174.2949,42.8864 L175.3551,43.5044 L176.4302,44.0961 L177.5194,44.6612 L178.6222,45.1995 L179.7379,45.7105 L180.8658,46.194 L182.0052,46.6496 L183.1555,47.0772 L184.3159,47.4764 L185.4858,47.847 L186.6644,48.1888 L187.851,48.5016 L189.0449,48.7851 L190.2455,49.0393 L191.4519,49.2639 L192.6635,49.4588 L193.8795,49.624 L195.0991,49.7592 L196.3218,49.8645 L197.5466,49.9398 L198.7729,49.9849 L200,50 L200,0 L150,0 Z" fill="#FF4F00"/>
  <path d="M198.7729,150.0151 L197.5466,150.0602 L196.3218,150.1355 L195.0991,150.2408 L193.8795,150.376 L192.6635,150.5412 L191.4519,150.7361 L190.2455,150.9607 L189.0449,151.2149 L187.851,151.4984 L186.6644,151.8112 L185.4858,152.153 L184.3159,152.5236 L183.1555,152.9228 L182.0052,153.3504 L180.8658,153.806 L179.7379,154.2895 L178.6222,154.8005 L177.5194,155.3388 L176.4302,155.9039 L175.3551,156.4957 L174.2949,157.1136 L173.2501,157.7573 L172.2215,158.4265 L171.2096,159.1208 L170.215,159.8396 L169.2384,160.5827 L168.2803,161.3495 L167.3414,162.1396 L166.4221,162.9524 L165.523,163.7876 L164.6447,164.6447 L163.7876,165.523 L162.9524,166.4221 L162.1396,167.3414 L161.3495,168.2803 L160.5827,169.2384 L159.8396,170.215 L159.1208,171.2096 L158.4265,172.2215 L157.7573,173.2501 L157.1136,174.2949 L156.4957,175.3551 L155.9039,176.4302 L155.3388,177.5194 L154.8005,178.6222 L154.2895,179.7379 L153.806,180.8658 L153.3504,182.0052 L152.9228,183.1555 L152.5236,184.3159 L152.153,185.4858 L151.8112,186.6644 L151.4984,187.851 L151.2149,189.0449 L150.9607,190.2455 L150.7361,191.4519 L150.5412,192.6635 L150.376,193.8795 L150.2408,195.0991 L150.1355,196.3218 L150.0602,197.5466 L150.0151,198.7729 L150,200 L200,200 L200,150 Z" fill="#FF4F00"/></g>
<rect x="0.000" y="320.000" width="320.000" height="320.000" fill="#F3F3F3"/>
<g transform="translate(0.000,320.000) scale(1.60000) rotate(270,100,100)"><path d="M200 0L0 50L0 0L200 0Z" fill="#4997D0"/></g>
<rect x="320.000" y="320.000" width="320.000" height="320.000" fill="#121212"/>
<g transform="translate(320.000,320.000) scale(1.60000)"><path fill-rule="evenodd" clip-rule="evenodd" d="M100 100L200 0L0 0L0 200L200 200L100 100Z" fill="#F3F3F3"/></g>
<rect x="640.000" y="320.000" width="320.000" height="320.000" fill="#F3F3F3"/>
<g transform="translate(640.000,320.000) scale(1.60000) rotate(90,100,100)"><path fill-rule="evenodd" clip-rule="evenodd" d="M100 100L200 0L0 0L0 200L200 200L100 100Z" fill="#4997D0"/></g>
<rect x="960.000" y="320.000" width="320.000" height="320.000" fill="#FFFFFF"/>
<g transform="translate(960.000,320.000) scale(1.60000) rotate(180,100,100)"><path fill-rule="evenodd" clip-rule="evenodd" d="M100 100L200 0L0 0L0 200L200 200L100 100Z" fill="#FFA300"/></g>
<rect x="1280.000" y="320.000" width="320.000" height="320.000" fill="#F3F3F3"/>
<g transform="translate(1280.000,320.000) scale(1.60000) rotate(270,100,100)"><path d="M200 0L0 50L0 0L200 0Z" fill="#121212"/></g>
<rect x="1600.000" y="320.000" width="320.000" height="320.000" fill="#121212"/>
<g transform="translate(1600.000,320.000) scale(1.60000) rotate(270,100,100)"><path d="M198.7729,50.0151 L197.5466,50.0602 L196.3218,50.1355 L195.0991,50.2408 L193.8795,50.376 L192.6635,50.5412 L191.4519,50.7361 L190.2455,50.9607 L189.0449,51.2149 L187.851,51.4984 L186.6644,51.8112 L185.4858,52.153 L184.3159,52.5236 L183.1555,52.9228 L182.0052,53.3504 L180.8658,53.806 L179.7379,54.2895 L178.6222,54.8005 L177.5194,55.3388 L176.4302,55.9039 L175.3551,56.4956 L174.2949,57.1136 L173.2501,57.7573 L172.2215,58.4265 L171.2096,59.1208 L170.215,59.8396 L169.2384,60.5827 L168.2803,61.3495 L167.3414,62.1396 L166.4221,62.9524 L165.523,63.7876 L164.6447,64.6447 L163.7876,65.523 L162.9524,66.4221 L162.1396,67.3414 L161.3495,68.2803 L160.5827,69.2384 L159.8396,70.215 L159.1208,71.2096 L158.4265,72.2215 L157.7573,73.2501 L157.1136,74.2949 L156.4957,75.3551 L155.9039,76.4302 L155.3388,77.5194 L154.8005,78.6222 L154.2895,79.7379 L153.806,80.8658 L153.3504,82.0052 L152.9228,83.1555 L152.5236,84.3159 L152.153,85.4858 L151.8112,86.6644 L151.4984,87.851 L151.2149,89.0449 L150.9607,90.2455 L150.7361,91.4519 L150.5412,92.6635 L150.376,93.8795 L150.2408,95.0991 L150.1355,96.3218 L150.0602,97.5466 L150.0151,98.7729 L150,100 L150.0151,101.2271 L150.0602,102.4534 L150.1355,103.6782 L150.2408,104.9009 L150.376,106.1205 L150.5412,107.3365 L150.7361,108.5481 L150.9607,109.7545 L151.2149,110.9551 L151.4984,112.149 L151.8112,113.3356 L152.153,114.5142 L152.5236,115.6841 L152.9228,116.8445 L153.3504,117.9948 L153.806,119.1342 L154.2895,120.2621 L154.8005,121.3778 L155.3388,122.4806 L155.9039,123.5698 L156.4957,124.6449 L157.1136,125.7051 L157.7573,126.7499 L158.4265,127.7785 L159.1208,128.7904 L159.8396,129.785 L160.5827,130.7616 L161.3495,131.7197 L162.1396,132.6586 L162.9524,133.5779 L163.7876,134.477 L164.6447,135.3553 L165.523,136.2124 L166.4221,137.0476 L167.3414,137.8604 L168.2803,138.6505 L169.2384,139.4173 L170.215,140.1604 L171.2096,140.8792 L172.2215,141.5735 L173.2501,142.2427 L174.2949,142.8864 L175.3551,143.5043 L176.4302,144.0961 L177.5194,144.6612 L178.6222,145.1995 L179.7379,145.7105 L180.8658,146.194 L182.0052,146.6496 L183.1555,147.0772 L184.3159,147.4764 L185.4858,147.847 L186.6644,148.1888 L187.851,148.5016 L189.0449,148.7851 L190.2455,149.0393 L191.4519,149.2639 L192.6635,149.4588 L193.8795,149.624 L195.0991,149.7592 L196.3218,149.8645 L197.5466,149.9398 L198.7729,149.9849 L200,150 L200,50 Z" fill="#FFFFFF"/>
  <path d="M150.0151,1.2271 L150.0602,2.4534 L150.1355,3.6782 L150.2408,4.9009 L150.376,6.1205 L150.5412,7.3365 L150.7361,8.5481 L150.9607,9.7545 L151.2149,10.9551 L151.4984,12.149 L151.8112,13.3356 L152.153,14.5142 L152.5236,15.6841 L152.9228,16.8445 L153.3504,17.9948 L153.806,19.1342 L154.2895,20.2621 L154.8005,21.3778 L155.3388,22.4806 L155.9039,23.5698 L156.4957,24.6449 L157.1136,25.7051 L157.7573,26.7499 L158.4265,27.7785 L159.1208,28.7904 L159.8396,29.785 L160.5827,30.7616 L161.3495,31.7197 L162.1396,32.6586 L162.9524,33.5779 L163.7876,34.477 L164.6447,35.3553 L165.523,36.2124 L166.4221,37.0476 L167.3414,37.8604 L168.2803,38.6505 L169.2384,39.4173 L170.215,40.1604 L171.2096,40.8792 L172.2215,41.5735 L173.2501,42.2427 L174.2949,42.8864 L175.3551,43.5044 L176.4302,44.0961 L177.5194,44.6612 L178.6222,45.1995 L179.7379,45.7105 L180.8658,46.194 L182.0052,46.6496 L183.1555,47.0772 L184.3159,47.4764 L185.4858,47.847 L186.6644,48.1888 L187.851,48.5016 L189.0449,48.7851 L190.2455,49.0393 L191.4519,49.2639 L192.6635,49.4588 L193.8795,49.624 L195.0991,49.7592 L196.3218,49.8645 L197.5466,49.9398 L198.7729,49.9849 L200,50 L200,0 L150,0 Z" fill="#FFFFFF"/>
  <path d="M198.7729,150.0151 L197.5466,150.0602 L196.3218,150.1355 L195.0991,150.2408 L193.8795,150.376 L192.6635,150.5412 L191.4519,150.7361 L190.2455,150.9607 L189.0449,151.2149 L187.851,151.4984 L186.6644,151.8112 L185.4858,152.153 L184.3159,152.5236 L183.1555,152.9228 L182.0052,153.3504 L180.8658,153.806 L179.7379,154.2895 L178.6222,154.8005 L177.5194,155.3388 L176.4302,155.9039 L175.3551,156.4957 L174.2949,157.1136 L173.2501,157.7573 L172.2215,158.4265 L171.2096,159.1208 L170.215,159.8396 L169.2384,160.5827 L168.2803,161.3495 L167.3414,162.1396 L166.4221,162.9524 L165.523,163.7876 L164.6447,164.6447 L163.7876,165.523 L162.9524,166.4221 L162.1396,167.3414 L161.3495,168.2803 L160.5827,169.2384 L159.8396,170.215 L159.1208,171.2096 L158.4265,172.2215 L157.7573,173.2501 L157.1136,174.2949 L156.4957,175.3551 L155.9039,176.4302 L155.3388,177.5194 L154.8005,178.6222 L154.2895,179.7379 L153.806,180.8658 L153.3504,182.0052 L152.9228,183.1555 L152.5236,184.3159 L152.153,185.4858 L151.8112,186.6644 L151.4984,187.851 L151.2149,189.0449 L150.9607,190.2455 L150.7361,191.4519 L150.5412,192.6635 L150.376,193.8795 L150.2408,195.0991 L150.1355,196.3218 L150.0602,197.5466 L150.0151,198.7729 L150,200 L200,200 L200,150 Z" fill="#FFFFFF"/></g>
<rect x="0.000" y="640.000" width="320.000" height="320.000" fill="#121212"/>
<g transform="translate(0.000,640.000) scale(1.60000) rotate(270,100,100)"><path fill-rule="evenodd" clip-rule="evenodd" d="M100 100L200 0L0 0L0 200L200 200L100 100Z" fill="#D9D9D6"/></g>
<rect x="320.000" y="640.000" width="320.000" height="320.000" fill="#FFFFFF"/>
<g transform="translate(320.000,640.000) scale(1.60000) rotate(270,100,100)"><path fill-rule="evenodd" clip-rule="evenodd" d="M100 100L200 0L0 0L0 200L200 200L100 100Z" fill="#4997D0"/></g>
<rect x="640.000" y="640.000" width="320.000" height="320.000" fill="#121212"/>
<g transform="translate(640.000,640.000) scale(1.60000)"><path fill-rule="evenodd" clip-rule="evenodd" d="M100 100L200 0L0 0L0 200L200 200L100 100Z" fill="#D9D9D6"/></g>
<rect x="960.000" y="640.000" width="320.000" height="320.000" fill="#F3F3F3"/>
<g transform="translate(960.000,640.000) scale(1.60000) rotate(180,100,100)"><path d="M198.7729,50.0151 L197.5466,50.0602 L196.3218,50.1355 L195.0991,50.2408 L193.8795,50.376 L192.6635,50.5412 L191.4519,50.7361 L190.2455,50.9607 L189.0449,51.2149 L187.851,51.4984 L186.6644,51.8112 L185.4858,52.153 L184.3159,52.5236 L183.1555,52.9228 L182.0052,53.3504 L180.8658,53.806 L179.7379,54.2895 L178.6222,54.8005 L177.5194,55.3388 L176.4302,55.9039 L175.3551,56.4956 L174.2949,57.1136 L173.2501,57.7573 L172.2215,58.4265 L171.2096,59.1208 L170.215,59.8396 L169.2384,60.5827 L168.2803,61.3495 L167.3414,62.1396 L166.4221,62.9524 L165.523,63.7876 L164.6447,64.6447 L163.7876,65.523 L162.9524,66.4221 L162.1396,67.3414 L161.3495,68.2803 L160.5827,69.2384 L159.8396,70.215 L159.1208,71.2096 L158.4265,72.2215 L157.7573,73.2501 L157.1136,74.2949 L156.4957,75.3551 L155.9039,76.4302 L155.3388,77.5194 L154.8005,78.6222 L154.2895,79.7379 L153.806,80.8658 L153.3504,82.0052 L152.9228,83.1555 L152.5236,84.3159 L152.153,85.4858 L151.8112,86.6644 L151.4984,87.851 L151.2149,89.0449 L150.9607,90.2455 L150.7361,91.4519 L150.5412,92.6635 L150.376,93.8795 L150.2408,95.0991 L150.1355,96.3218 L150.0602,97.5466 L150.0151,98.7729 L150,100 L150.0151,101.2271 L150.0602,102.4534 L150.1355,103.6782 L150.2408,104.9009 L150.376,106.1205 L150.5412,107.3365 L150.7361,108.5481 L150.9607,109.7545 L151.2149,110.9551 L151.4984,112.149 L151.8112,113.3356 L152.153,114.5142 L152.5236,115.6841 L152.9228,116.8445 L153.3504,117.9948 L153.806,119.1342 L154.2895,120.2621 L154.8005,121.3778 L155.3388,122.4806 L155.9039,123.5698 L156.4957,124.6449 L157.1136,125.7051 L157.7573,126.7499 L158.4265,127.7785 L159.1208,128.7904 L159.8396,129.785 L160.5827,130.7616 L161.3495,131.7197 L162.1396,132.6586 L162.9524,133.5779 L163.7876,134.477 L164.6447,135.3553 L165.523,136.2124 L166.4221,137.0476 L167.3414,137.8604 L168.2803,138.6505 L169.2384,139.4173 L170.215,140.1604 L171.2096,140.8792 L172.2215,141.5735 L173.2501,142.2427 L174.2949,142.8864 L175.3551,143.5043 L176.4302,144.0961 L177.5194,144.6612 L178.6222,145.1995 L179.7379,145.7105 L180.8658,146.194 L182.0052,146.6496 L183.1555,147.0772 L184.3159,147.4764 L185.4858,147.847 L186.6644,148.1888 L187.851,148.5016 L189.0449,148.7851 L190.2455,149.0393 L191.4519,149.2639 L192.6635,149.4588 L193.8795,149.624 L195.0991,149.7592 L196.3218,149.8645 L197.5466,149.9398 L198.7729,149.9849 L200,150 L200,50 Z" fill="#121212"/>
  <path d="M150.0151,1.2271 L150.0602,2.4534 L150.1355,3.6782 L150.2408,4.9009 L150.376,6.1205 L150.5412,7.3365 L150.7361,8.5481 L150.9607,9.7545 L151.2149,10.9551 L151.4984,12.149 L151.8112,13.3356 L152.153,14.5142 L152.5236,15.6841 L152.9228,16.8445 L153.3504,17.9948 L153.806,19.1342 L154.2895,20.2621 L154.8005,21.3778 L155.3388,22.4806 L155.9039,23.5698 L156.4957,24.6449 L157.1136,25.7051 L157.7573,26.7499 L158.4265,27.7785 L159.1208,28.7904 L159.8396,29.785 L160.5827,30.7616 L161.3495,31.7197 L162.1396,32.6586 L162.9524,33.5779 L163.7876,34.477 L164.6447,35.3553 L165.523,36.2124 L166.4221,37.0476 L167.3414,37.8604 L168.2803,38.6505 L169.2384,39.4173 L170.215,40.1604 L171.2096,40.8792 L172.2215,41.5735 L173.2501,42.2427 L174.2949,42.8864 L175.3551,43.5044 L176.4302,44.0961 L177.5194,44.6612 L178.6222,45.1995 L179.7379,45.7105 L180.8658,46.194 L182.0052,46.6496 L183.1555,47.0772 L184.3159,47.4764 L185.4858,47.847 L186.6644,48.1888 L187.851,48.5016 L189.0449,48.7851 L190.2455,49.0393 L191.4519,49.2639 L192.6635,49.4588 L193.8795,49.624 L195.0991,49.7592 L196.3218,49.8645 L197.5466,49.9398 L198.7729,49.9849 L200,50 L200,0 L150,0 Z" fill="#121212"/>
  <path d="M198.7729,150.0151 L197.5466,150.0602 L196.3218,150.1355 L195.0991,150.2408 L193.8795,150.376 L192.6635,150.5412 L191.4519,150.7361 L190.2455,150.9607 L189.0449,151.2149 L187.851,151.4984 L186.6644,151.8112 L185.4858,152.153 L184.3159,152.5236 L183.1555,152.9228 L182.0052,153.3504 L180.8658,153.806 L179.7379,154.2895 L178.6222,154.8005 L177.5194,155.3388 L176.4302,155.9039 L175.3551,156.4957 L174.2949,157.1136 L173.2501,157.7573 L172.2215,158.4265 L171.2096,159.1208 L170.215,159.8396 L169.2384,160.5827 L168.2803,161.3495 L167.3414,162.1396 L166.4221,162.9524 L165.523,163.7876 L164.6447,164.6447 L163.7876,165.523 L162.9524,166.4221 L162.1396,167.3414 L161.3495,168.2803 L160.5827,169.2384 L159.8396,170.215 L159.1208,171.2096 L158.4265,172.2215 L157.7573,173.2501 L157.1136,174.2949 L156.4957,175.3551 L155.9039,176.4302 L155.3388,177.5194 L154.8005,178.6222 L154.2895,179.7379 L153.806,180.8658 L153.3504,182.0052 L152.9228,183.1555 L152.5236,184.3159 L152.153,185.4858 L151.8112,186.6644 L151.4984,187.851 L151.2149,189.0449 L150.9607,190.2455 L150.7361,191.4519 L150.5412,192.6635 L150.376,193.8795 L150.2408,195.0991 L150.1355,196.3218 L150.0602,197.5466 L150.0151,198.7729 L150,200 L200,200 L200,150 Z" fill="#121212"/></g>
<rect x="1280.000" y="640.000" width="320.000" height="320.000" fill="#D9D9D6"/>
<g transform="translate(1280.000,640.000) scale(1.60000) rotate(90,100,100)"><path d="M198.7729,50.0151 L197.5466,50.0602 L196.3218,50.1355 L195.0991,50.2408 L193.8795,50.376 L192.6635,50.5412 L191.4519,50.7361 L190.2455,50.9607 L189.0449,51.2149 L187.851,51.4984 L186.6644,51.8112 L185.4858,52.153 L184.3159,52.5236 L183.1555,52.9228 L182.0052,53.3504 L180.8658,53.806 L179.7379,54.2895 L178.6222,54.8005 L177.5194,55.3388 L176.4302,55.9039 L175.3551,56.4956 L174.2949,57.1136 L173.2501,57.7573 L172.2215,58.4265 L171.2096,59.1208 L170.215,59.8396 L169.2384,60.5827 L168.2803,61.3495 L167.3414,62.1396 L166.4221,62.9524 L165.523,63.7876 L164.6447,64.6447 L163.7876,65.523 L162.9524,66.4221 L162.1396,67.3414 L161.3495,68.2803 L160.5827,69.2384 L159.8396,70.215 L159.1208,71.2096 L158.4265,72.2215 L157.7573,73.2501 L157.1136,74.2949 L156.4957,75.3551 L155.9039,76.4302 L155.3388,77.5194 L154.8005,78.6222 L154.2895,79.7379 L153.806,80.8658 L153.3504,82.0052 L152.9228,83.1555 L152.5236,84.3159 L152.153,85.4858 L151.8112,86.6644 L151.4984,87.851 L151.2149,89.0449 L150.9607,90.2455 L150.7361,91.4519 L150.5412,92.6635 L150.376,93.8795 L150.2408,95.0991 L150.1355,96.3218 L150.0602,97.5466 L150.0151,98.7729 L150,100 L150.0151,101.2271 L150.0602,102.4534 L150.1355,103.6782 L150.2408,104.9009 L150.376,106.1205 L150.5412,107.3365 L150.7361,108.5481 L150.9607,109.7545 L151.2149,110.9551 L151.4984,112.149 L151.8112,113.3356 L152.153,114.5142 L152.5236,115.6841 L152.9228,116.8445 L153.3504,117.9948 L153.806,119.1342 L154.2895,120.2621 L154.8005,121.3778 L155.3388,122.4806 L155.9039,123.5698 L156.4957,124.6449 L157.1136,125.7051 L157.7573,126.7499 L158.4265,127.7785 L159.1208,128.7904 L159.8396,129.785 L160.5827,130.7616 L161.3495,131.7197 L162.1396,132.6586 L162.9524,133.5779 L163.7876,134.477 L164.6447,135.3553 L165.523,136.2124 L166.4221,137.0476 L167.3414,137.8604 L168.2803,138.6505 L169.2384,139.4173 L170.215,140.1604 L171.2096,140.8792 L172.2215,141.5735 L173.2501,142.2427 L174.2949,142.8864 L175.3551,143.5043 L176.4302,144.0961 L177.5194,144.6612 L178.6222,145.1995 L179.7379,145.7105 L180.8658,146.194 L182.0052,146.6496 L183.1555,147.0772 L184.3159,147.4764 L185.4858,147.847 L186.6644,148.1888 L187.851,148.5016 L189.0449,148.7851 L190.2455,149.0393 L191.4519,149.2639 L192.6635,149.4588 L193.8795,149.624 L195.0991,149.7592 L196.3218,149.8645 L197.5466,149.9398 L198.7729,149.9849 L200,150 L200,50 Z" fill="#F3F3F3"/>
  <path d="M150.0151,1.2271 L150.0602,2.4534 L150.1355,3.6782 L150.2408,4.9009 L150.376,6.1205 L150.5412,7.3365 L150.7361,8.5481 L150.9607,9.7545 L151.2149,10.9551 L151.4984,12.149 L151.8112,13.3356 L152.153,14.5142 L152.5236,15.6841 L152.9228,16.8445 L153.3504,17.9948 L153.806,19.1342 L154.2895,20.2621 L154.8005,21.3778 L155.3388,22.4806 L155.9039,23.5698 L156.4957,24.6449 L157.1136,25.7051 L157.7573,26.7499 L158.4265,27.7785 L159.1208,28.7904 L159.8396,29.785 L160.5827,30.7616 L161.3495,31.7197 L162.1396,32.6586 L162.9524,33.5779 L163.7876,34.477 L164.6447,35.3553 L165.523,36.2124 L166.4221,37.0476 L167.3414,37.8604 L168.2803,38.6505 L169.2384,39.4173 L170.215,40.1604 L171.2096,40.8792 L172.2215,41.5735 L173.2501,42.2427 L174.2949,42.8864 L175.3551,43.5044 L176.4302,44.0961 L177.5194,44.6612 L178.6222,45.1995 L179.7379,45.7105 L180.8658,46.194 L182.0052,46.6496 L183.1555,47.0772 L184.3159,47.4764 L185.4858,47.847 L186.6644,48.1888 L187.851,48.5016 L189.0449,48.7851 L190.2455,49.0393 L191.4519,49.2639 L192.6635,49.4588 L193.8795,49.624 L195.0991,49.7592 L196.3218,49.8645 L197.5466,49.9398 L198.7729,49.9849 L200,50 L200,0 L150,0 Z" fill="#F3F3F3"/>
  <path d="M198.7729,150.0151 L197.5466,150.0602 L196.3218,150.1355 L195.0991,150.2408 L193.8795,150.376 L192.6635,150.5412 L191.4519,150.7361 L190.2455,150.9607 L189.0449,151.2149 L187.851,151.4984 L186.6644,151.8112 L185.4858,152.153 L184.3159,152.5236 L183.1555,152.9228 L182.0052,153.3504 L180.8658,153.806 L179.7379,154.2895 L178.6222,154.8005 L177.5194,155.3388 L176.4302,155.9039 L175.3551,156.4957 L174.2949,157.1136 L173.2501,157.7573 L172.2215,158.4265 L171.2096,159.1208 L170.215,159.8396 L169.2384,160.5827 L168.2803,161.3495 L167.3414,162.1396 L166.4221,162.9524 L165.523,163.7876 L164.6447,164.6447 L163.7876,165.523 L162.9524,166.4221 L162.1396,167.3414 L161.3495,168.2803 L160.5827,169.2384 L159.8396,170.215 L159.1208,171.2096 L158.4265,172.2215 L157.7573,173.2501 L157.1136,174.2949 L156.4957,175.3551 L155.9039,176.4302 L155.3388,177.5194 L154.8005,178.6222 L154.2895,179.7379 L153.806,180.8658 L153.3504,182.0052 L152.9228,183.1555 L152.5236,184.3159 L152.153,185.4858 L151.8112,186.6644 L151.4984,187.851 L151.2149,189.0449 L150.9607,190.2455 L150.7361,191.4519 L150.5412,192.6635 L150.376,193.8795 L150.2408,195.0991 L150.1355,196.3218 L150.0602,197.5466 L150.0151,198.7729 L150,200 L200,200 L200,150 Z" fill="#F3F3F3"/></g>
<rect x="1600.000" y="640.000" width="320.000" height="320.000" fill="#F3F3F3"/>
<g transform="translate(1600.000,640.000) scale(1.60000)"><path d="M200 0L0 50L0 0L200 0Z" fill="#FF4F00"/></g>
</svg>
