<?xml version='1.0' encoding='UTF-8'?>
<svg xmlns="http://www.w3.org/2000/svg" version="1.1" width="1920" height="960" viewBox="0 0 1920 960">
<rect x="0.000" y="0.000" width="320.000" height="320.000" fill="#F3F3F3"/>
<g transform="translate(0.000,0.000) scale(1.60000) rotate(270,100,100)"><path d="M100.1 200 C11.0989 200 -33.4731 92.3937 29.4603 29.4603 C92.3937 -33.4732 200 11.0989 200 100.1 L200 200 L100.1 200 Z" fill="#FFA300"/></g>
<rect x="320.000" y="0.000" width="320.000" height="320.000" fill="#F3F3F3"/>
<g transform="translate(320.000,0.000) scale(1.60000)"><path d="M100.1 200 C11.0989 200 -33.4731 92.3937 29.4603 29.4603 C92.3937 -33.4732 200 11.0989 200 100.1 L200 200 L100.1 200 Z" fill="#FF4F00"/></g>
<rect x="640.000" y="0.000" width="320.000" height="320.000" fill="#F3F3F3"/>
<g transform="translate(640.000,0.000) scale(1.60000) rotate(180,100,100)"><path d="M100.1 200 C11.0989 200 -33.4731 92.3937 29.4603 29.4603 C92.3937 -33.4732 200 11.0989 200 100.1 L200 200 L100.1 200 Z" fill="#121212"/></g>
<rect x="960.000" y="0.000" width="320.000" height="320.000" fill="#FFFFFF"/>
<g transform="translate(960.000,0.000) scale(1.60000) rotate(90,100,100)"><path d="M100.1 200 C11.0989 200 -33.4731 92.3937 29.4603 29.4603 C92.3937 -33.4732 200 11.0989 200 100.1 L200 200 L100.1 200 Z" fill="#4997D0"/></g>
<rect x="1280.000" y="0.000" width="320.000" height="320.000" fill="#FFFFFF"/>
<g transform="translate(1280.000,0.000) scale(1.60000) rotate(270,100,100)"><path fill-rule="evenodd" clip-rule="evenodd" d="M200 200C132.395 150.473 132.395 49.5275 200 0L0 0L0 200L200 200Z" fill="#121212"/></g>
<rect x="1600.000" y="0.000" width="320.000" height="320.000" fill="#F3F3F3"/>
<g transform="translate(1600.000,0.000) scale(1.60000) rotate(270,100,100)"><path fill-rule="evenodd" clip-rule="evenodd" d="M200 200C132.395 150.473 132.395 49.5275 200 0L0 0L0 200L200 200Z" fill="#4997D0"/></g>
<rect x="0.000" y="320.000" width="320.000" height="320.000" fill="#D9D9D6"/>
<g transform="translate(0.000,320.000) scale(1.60000) rotate(180,100,100)"><path fill-rule="evenodd" clip-rule="evenodd" d="M154.082 79.1951C166.139 89.9719 177.338 99.9825 199.941 100C177.338 100.017 166.139 110.028 154.082 120.805C140.012 133.381 124.776 147 88.889 147C36.9794 147 2.1641 184.88 0.2392 200L0.0002 200L0.0002 100L0.0002 0L0.2393 0C2.1642 15.12 36.9794 53.0001 88.8891 53.0001C124.776 53.0001 140.012 66.6193 154.082 79.1951Z" fill="#FFFFFF"/></g>
<rect x="320.000" y="320.000" width="320.000" height="320.000" fill="#D9D9D6"/>
<g transform="translate(320.000,320.000) scale(1.60000) rotate(90,100,100)"><path fill-rule="evenodd" clip-rule="evenodd" d="M154.082 79.1951C166.139 89.9719 177.338 99.9825 199.941 100C177.338 100.017 166.139 110.028 154.082 120.805C140.012 133.381 124.776 147 88.889 147C36.9794 147 2.1641 184.88 0.2392 200L0.0002 200L0.0002 100L0.0002 0L0.2393 0C2.1642 15.12 36.9794 53.0001 88.8891 53.0001C124.776 53.0001 140.012 66.6193 154.082 79.1951Z" fill="#F3F3F3"/></g>
<rect x="640.000" y="320.000" width="320.000" height="320.000" fill="#FFFFFF"/>
<g transform="translate(640.000,320.000) scale(1.60000) rotate(180,100,100)"><path fill-rule="evenodd" clip-rule="evenodd" d="M154.082 79.1951C166.139 89.9719 177.338 99.9825 199.941 100C177.338 100.017 166.139 110.028 154.082 120.805C140.012 133.381 124.776 147 88.889 147C36.9794 147 2.1641 184.88 0.2392 200L0.0002 200L0.0002 100L0.0002 0L0.2393 0C2.1642 15.12 36.9794 53.0001 88.8891 53.0001C124.776 53.0001 140.012 66.6193 154.082 79.1951Z" fill="#FFA300"/></g>
<rect x="960.000" y="320.000" width="320.000" height="320.000" fill="#F3F3F3"/>
<g transform="translate(960.000,320.000) scale(1.60000)"><path fill-rule="evenodd" clip-rule="evenodd" d="M154.082 79.1951C166.139 89.9719 177.338 99.9825 199.941 100C177.338 100.017 166.139 110.028 154.082 120.805C140.012 133.381 124.776 147 88.889 147C36.9794 147 2.1641 184.88 0.2392 200L0.0002 200L0.0002 100L0.0002 0L0.2393 0C2.1642 15.12 36.9794 53.0001 88.8891 53.0001C124.776 53.0001 140.012 66.6193 154.082 79.1951Z" fill="#121212"/></g>
<rect x="1280.000" y="320.000" width="320.000" height="320.000" fill="#121212"/>
<g transform="translate(1280.000,320.000) scale(1.60000)"><path fill-rule="evenodd" clip-rule="evenodd" d="M154.082 79.1951C166.139 89.9719 177.338 99.9825 199.941 100C177.338 100.017 166.139 110.028 154.082 120.805C140.012 133.381 124.776 147 88.889 147C36.9794 147 2.1641 184.88 0.2392 200L0.0002 200L0.0002 100L0.0002 0L0.2393 0C2.1642 15.12 36.9794 53.0001 88.8891 53.0001C124.776 53.0001 140.012 66.6193 154.082 79.1951Z" fill="#F3F3F3"/></g>
<rect x="1600.000" y="320.000" width="320.000" height="320.000" fill="#D9D9D6"/>
<g transform="translate(1600.000,320.000) scale(1.60000) rotate(90,100,100)"><path fill-rule="evenodd" clip-rule="evenodd" d="M154.082 79.1951C166.139 89.9719 177.338 99.9825 199.941 100C177.338 100.017 166.139 110.028 154.082 120.805C140.012 133.381 124.776 147 88.889 147C36.9794 147 2.1641 184.88 0.2392 200L0.0002 200L0.0002 100L0.0002 0L0.2393 0C2.1642 15.12 36.9794 53.0001 88.8891 53.0001C124.776 53.0001 140.012 66.6193 154.082 79.1951Z" fill="#FFFFFF"/></g>
<rect x="0.000" y="640.000" width="320.000" height="320.000" fill="#121212"/>
<g transform="translate(0.000,640.000) scale(1.60000) rotate(180,100,100)"><path d="M0.008 0L0 0L0 200L200 200C89.876 200 0.008 110.417 0.008 0Z" fill="#D9D9D6"/>
  <path fill-rule="evenodd" clip-rule="evenodd" d="M40 0C40 88.3656 111.634 160 200 160V180C100.589 180 20 99.4113 20 0H40Z" fill="#D9D9D6"/>
  <path fill-rule="evenodd" clip-rule="evenodd" d="M80 0C80 66.2742 133.726 120 200 120V140C122.68 140 60 77.3199 60 0H80Z" fill="#D9D9D6"/>
  <path fill-rule="evenodd" clip-rule="evenodd" d="M120 0C120 44.1828 155.817 80 200 80V100C144.772 100 100 55.2285 100 0H120Z" fill="#D9D9D6"/>
  <path fill-rule="evenodd" clip-rule="evenodd" d="M160 0C160 22.0914 177.909 40 200 40V60C166.863 60 140 33.1371 140 0H160Z" fill="#D9D9D6"/>
  <path fill-rule="evenodd" clip-rule="evenodd" d="M180 0H200V20C188.954 20 180 11.0457 180 0Z" fill="#D9D9D6"/></g>
<rect x="320.000" y="640.000" width="320.000" height="320.000" fill="#F3F3F3"/>
<g transform="translate(320.000,640.000) scale(1.60000) rotate(270,100,100)"><path d="M164.256 27.6135C155.966 50.9277 129.333 61.9603 106.979 51.3361C71.4878 34.4669 34.4629 71.4918 51.3361 106.979C61.9603 129.329 50.9277 155.962 27.6135 164.256C10.4602 170.357 1.257 184.868 0 200H200V0C184.868 1.261 170.357 10.4602 164.256 27.6135Z" fill="#FFA300"/></g>
<rect x="640.000" y="640.000" width="320.000" height="320.000" fill="#D9D9D6"/>
<g transform="translate(640.000,640.000) scale(1.60000) rotate(90,100,100)"><path fill-rule="evenodd" clip-rule="evenodd" d="M154.082 79.1951C166.139 89.9719 177.338 99.9825 199.941 100C177.338 100.017 166.139 110.028 154.082 120.805C140.012 133.381 124.776 147 88.889 147C36.9794 147 2.1641 184.88 0.2392 200L0.0002 200L0.0002 100L0.0002 0L0.2393 0C2.1642 15.12 36.9794 53.0001 88.8891 53.0001C124.776 53.0001 140.012 66.6193 154.082 79.1951Z" fill="#F3F3F3"/></g>
<rect x="960.000" y="640.000" width="320.000" height="320.000" fill="#FFFFFF"/>
<g transform="translate(960.000,640.000) scale(1.60000)"><path fill-rule="evenodd" clip-rule="evenodd" d="M154.082 79.1951C166.139 89.9719 177.338 99.9825 199.941 100C177.338 100.017 166.139 110.028 154.082 120.805C140.012 133.381 124.776 147 88.889 147C36.9794 147 2.1641 184.88 0.2392 200L0.0002 200L0.0002 100L0.0002 0L0.2393 0C2.1642 15.12 36.9794 53.0001 88.8891 53.0001C124.776 53.0001 140.012 66.6193 154.082 79.1951Z" fill="#D9D9D6"/></g>
<rect x="1280.000" y="640.000" width="320.000" height="320.000" fill="#121212"/>
<g transform="translate(1280.000,640.000) scale(1.60000) rotate(90,100,100)"><path d="M0.008 0L0 0L0 200L200 200C89.876 200 0.008 110.417 0.008 0Z" fill="#FFFFFF"/>
  <path fill-rule="evenodd" clip-rule="evenodd" d="M40 0C40 88.3656 111.634 160 200 160V180C100.589 180 20 99.4113 20 0H40Z" fill="#FFFFFF"/>
  <path fill-rule="evenodd" clip-rule="evenodd" d="M80 0C80 66.2742 133.726 120 200 120V140C122.68 140 60 77.3199 60 0H80Z" fill="#FFFFFF"/>
  <path fill-rule="evenodd" clip-rule="evenodd" d="M120 0C120 44.1828 155.817 80 200 80V100C144.772 100 100 55.2285 100 0H120Z" fill="#FFFFFF"/>
  <path fill-rule="evenodd" clip-rule="evenodd" d="M160 0C160 22.0914 177.909 40 200 40V60C166.863 60 140 33.1371 140 0H160Z" fill="#FFFFFF"/>
  <path fill-rule="evenodd" clip-rule="evenodd" d="M180 0H200V20C188.954 20 180 11.0457 180 0Z" fill="#FFFFFF"/></g>
<rect x="1600.000" y="640.000" width="320.000" height="320.000" fill="#F3F3F3"/>
<g transform="translate(1600.000,640.000) scale(1.60000) rotate(90,100,100)"><path fill-rule="evenodd" clip-rule="evenodd" d="M154.082 79.1951C166.139 89.9719 177.338 99.9825 199.941 100C177.338 100.017 166.139 110.028 154.082 120.805C140.012 133.381 124.776 147 88.889 147C36.9794 147 2.1641 184.88 0.2392 200L0.0002 200L0.0002 100L0.0002 0L0.2393 0C2.1642 15.12 36.9794 53.0001 88.8891 53.0001C124.776 53.0001 140.012 66.6193 154.082 79.1951Z" fill="#4997D0"/></g>
</svg>
