<?xml version='1.0' encoding='UTF-8'?>
<svg xmlns="http://www.w3.org/2000/svg" version="1.1" width="1920" height="960" viewBox="0 0 1920 960">
<rect width="1920" height="960" fill="#FFFFFF"/>
<rect x="0.000" y="0.000" width="640.000" height="640.000" fill="#F3F3F3"/>
<g transform="translate(0.000,0.000) scale(3.20000)"><path d="M200 0L0 200L0 0L200 0Z" fill="#FF4F00"/>
  <path d="M50 200L200 50L200 200L50 200Z" fill="#FF4F00"/></g>
<rect x="640.000" y="0.000" width="320.000" height="320.000" fill="#F3F3F3"/>
<g transform="translate(640.000,0.000) scale(1.60000) rotate(270,100,100)"><path d="M50 50C50 22.3858 72.3858 0 100 0C127.614 0 150 22.3858 150 50V150C150 177.614 127.614 200 100 200C72.3858 200 50 177.614 50 150V50Z" fill="#FFA300"/></g>
<rect x="1600.000" y="0.000" width="320.000" height="320.000" fill="#F3F3F3"/>
<g transform="translate(1600.000,0.000) scale(1.60000) rotate(90,100,100)"><path d="M50 50C50 22.3858 72.3858 0 100 0C127.614 0 150 22.3858 150 50V150C150 177.614 127.614 200 100 200C72.3858 200 50 177.614 50 150V50Z" fill="#4997D0"/></g>
<rect x="640.000" y="320.000" width="320.000" height="320.000" fill="#FFFFFF"/>
<g transform="translate(640.000,320.000) scale(1.60000) rotate(180,100,100)"><path d="M200 0 C200 27.6142 177.614 50 150 50 L0 50 L0 0 L200 0 Z" fill="#121212"/></g>
<rect x="960.000" y="320.000" width="320.000" height="320.000" fill="#D9D9D6"/>
<g transform="translate(960.000,320.000) scale(1.60000)"><path d="M200 0 C200 27.6142 177.614 50 150 50 L0 50 L0 0 L200 0 Z" fill="#F3F3F3"/></g>
<rect x="1280.000" y="320.000" width="320.000" height="320.000" fill="#FFFFFF"/>
<g transform="translate(1280.000,320.000) scale(1.60000) rotate(180,100,100)"><path fill-rule="evenodd" clip-rule="evenodd" d="M50 100L200 0L0 0L0 200L100 200L50 100Z" fill="#4997D0"/></g>
<rect x="1600.000" y="320.000" width="320.000" height="320.000" fill="#F3F3F3"/>
<g transform="translate(1600.000,320.000) scale(1.60000)"><path d="M50 50C50 22.3858 72.3858 0 100 0C127.614 0 150 22.3858 150 50V150C150 177.614 127.614 200 100 200C72.3858 200 50 177.614 50 150V50Z" fill="#FFA300"/></g>
<rect x="0.000" y="640.000" width="320.000" height="320.000" fill="#F3F3F3"/>
<g transform="translate(0.000,640.000) scale(1.60000) rotate(90,100,100)"><path fill-rule="evenodd" clip-rule="evenodd" d="M50 100L200 0L0 0L0 200L100 200L50 100Z" fill="#FF4F00"/></g>
<rect x="320.000" y="640.000" width="320.000" height="320.000" fill="#FFFFFF"/>
<g transform="translate(320.000,640.000) scale(1.60000)"><path fill-rule="evenodd" clip-rule="evenodd" d="M50 100L200 0L0 0L0 200L100 200L50 100Z" fill="#FFA300"/></g>
<rect x="640.000" y="640.000" width="320.000" height="320.000" fill="#FFFFFF"/>
<g transform="translate(640.000,640.000) scale(1.60000)"><path d="M200 0L0 100L0 0L200 0Z" fill="#FF4F00"/></g>
<rect x="1600.000" y="640.000" width="320.000" height="320.000" fill="#F3F3F3"/>
<g transform="translate(1600.000,640.000) scale(1.60000)"><path fill-rule="evenodd" clip-rule="evenodd" d="M50 100L200 0L0 0L0 200L100 200L50 100Z" fill="#121212"/></g>
</svg>
