<?xml version='1.0' encoding='UTF-8'?>
<svg xmlns="http://www.w3.org/2000/svg" version="1.1" width="1920" height="960" viewBox="0 0 1920 960">
<rect width="1920" height="960" fill="#FFFFFF"/>
<rect x="0.000" y="0.000" width="640.000" height="640.000" fill="#F3F3F3"/>
<g transform="translate(0.000,0.000) scale(3.20000) rotate(270,100,100)"><path d="M200 0L200 150L0 150L0 0L200 0Z" fill="#FF4F00"/></g>
<rect x="640.000" y="0.000" width="320.000" height="320.000" fill="#D9D9D6"/>
<g transform="translate(640.000,0.000) scale(1.60000) rotate(90,100,100)"><path d="M200 0L0 200L0 0L200 0Z" fill="#FFFFFF"/></g>
<rect x="1600.000" y="0.000" width="320.000" height="320.000" fill="#FFFFFF"/>
<g transform="translate(1600.000,0.000) scale(1.60000) rotate(90,100,100)"><path d="M150 100H200C200 44.772 155.228 0 100 0C44.772 0 0 44.772 0 100H50C50 127.616 72.384 150 100 150C127.616 150 150 127.616 150 100Z" fill="#D9D9D6"/></g>
<rect x="640.000" y="320.000" width="320.000" height="320.000" fill="#121212"/>
<g transform="translate(640.000,320.000) scale(1.60000) rotate(180,100,100)"><path d="M150 0H0V150C0 67.158 67.158 0 150 0Z" fill="#F3F3F3"/></g>
<rect x="960.000" y="320.000" width="320.000" height="320.000" fill="#FFFFFF"/>
<g transform="translate(960.000,320.000) scale(1.60000) rotate(180,100,100)"><path d="M150 0H0V150C0 67.158 67.158 0 150 0Z" fill="#121212"/></g>
<rect x="1280.000" y="320.000" width="320.000" height="320.000" fill="#121212"/>
<g transform="translate(1280.000,320.000) scale(1.60000)"><path d="M200 0L0 200L0 0L200 0Z" fill="#D9D9D6"/></g>
<rect x="1600.000" y="320.000" width="320.000" height="320.000" fill="#FFFFFF"/>
<g transform="translate(1600.000,320.000) scale(1.60000)"><path d="M200 0L0 200L0 0L200 0Z" fill="#4997D0"/></g>
<rect x="0.000" y="640.000" width="320.000" height="320.000" fill="#FFFFFF"/>
<g transform="translate(0.000,640.000) scale(1.60000) rotate(270,100,100)"><path d="M200 0L0 200L0 0L200 0Z" fill="#121212"/></g>
<rect x="320.000" y="640.000" width="320.000" height="320.000" fill="#F3F3F3"/>
<g transform="translate(320.000,640.000) scale(1.60000) rotate(270,100,100)"><path d="M200 0L0 200L0 0L200 0Z" fill="#FFA300"/></g>
<rect x="640.000" y="640.000" width="320.000" height="320.000" fill="#D9D9D6"/>
<g transform="translate(640.000,640.000) scale(1.60000)"><path d="M150 0H0V150C0 67.158 67.158 0 150 0Z" fill="#FFFFFF"/></g>
<rect x="1600.000" y="640.000" width="320.000" height="320.000" fill="#121212"/>
<g transform="translate(1600.000,640.000) scale(1.60000)"><path d="M200 0L0 200L0 0L200 0Z" fill="#D9D9D6"/></g>
</svg>
