<?xml version='1.0' encoding='UTF-8'?>
<svg xmlns="http://www.w3.org/2000/svg" version="1.1" width="1920" height="960" viewBox="0 0 1920 960">
<rect width="1920" height="960" fill="#FFFFFF"/>
<rect x="320.000" y="0.000" width="320.000" height="320.000" fill="#F3F3F3"/>
<g transform="translate(320.000,0.000) scale(1.60000) rotate(270,100,100)"><path d="M200 0L200 10L0 100L0 0L200 0Z" fill="#FF4F00"/></g>
<rect x="640.000" y="0.000" width="320.000" height="320.000" fill="#121212"/>
<g transform="translate(640.000,0.000) scale(1.60000) rotate(270,100,100)"><path d="M200 0L200 100L0 150L0 0L200 0Z" fill="#D9D9D6"/></g>
<rect x="960.000" y="0.000" width="320.000" height="320.000" fill="#F3F3F3"/>
<g transform="translate(960.000,0.000) scale(1.60000) rotate(90,100,100)"><path d="M190 0L190 190L0 190L0 0L190 0Z" fill="#4997D0"/></g>
<rect x="1280.000" y="0.000" width="320.000" height="320.000" fill="#FFFFFF"/>
<g transform="translate(1280.000,0.000) scale(1.60000) rotate(90,100,100)"><path d="M200 0L200 100L0 150L0 0L200 0Z" fill="#D9D9D6"/></g>
<rect x="0.000" y="320.000" width="640.000" height="640.000" fill="#F3F3F3"/>
<g transform="translate(0.000,320.000) scale(3.20000) rotate(270,100,100)"><!-- Generator: Adobe Illustrator 30.2.1, SVG Export Plug-In . SVG Version: 2.1.1 Build 1)  -->
  
  <path d="M0,200h200V.06c-.03,110.46-89.58,199.98-200,199.94Z" fill="#F3F3F3"/>
  <path d="M0,200c110.42.03,199.97-89.49,200-199.94L.06,0l-.06,200Z" fill="#FF4F00"/>
  <ellipse cx="70" cy="65" rx="50" ry="25" fill="#F3F3F3"/>
  <circle cx="70" cy="65" r="25" fill="#FF4F00"/></g>
<rect x="640.000" y="320.000" width="320.000" height="320.000" fill="#FFFFFF"/>
<g transform="translate(640.000,320.000) scale(1.60000) rotate(270,100,100)"><!-- Generator: Adobe Illustrator 30.2.1, SVG Export Plug-In . SVG Version: 2.1.1 Build 1)  -->
  
  <path d="M0,200h200V.06c-.03,110.46-89.58,199.98-200,199.94Z" fill="#FFFFFF"/>
  <path d="M0,200c110.42.03,199.97-89.49,200-199.94L.06,0l-.06,200Z" fill="#FFA300"/>
  <ellipse cx="70" cy="65" rx="50" ry="25" fill="#FFFFFF"/>
  <circle cx="70" cy="65" r="25" fill="#FFA300"/></g>
<rect x="960.000" y="320.000" width="320.000" height="320.000" fill="#D9D9D6"/>
<g transform="translate(960.000,320.000) scale(1.60000)"><path d="M200 0L200 100L0 150L0 0L200 0Z" fill="#F3F3F3"/></g>
<rect x="1280.000" y="320.000" width="320.000" height="320.000" fill="#F3F3F3"/>
<g transform="translate(1280.000,320.000) scale(1.60000) rotate(90,100,100)"><path d="M200 0L200 10L0 100L0 0L200 0Z" fill="#121212"/></g>
<rect x="640.000" y="640.000" width="320.000" height="320.000" fill="#FFFFFF"/>
<g transform="translate(640.000,640.000) scale(1.60000) rotate(90,100,100)"><path d="M200 0L200 100L0 150L0 0L200 0Z" fill="#FF4F00"/></g>
<rect x="960.000" y="640.000" width="320.000" height="320.000" fill="#F3F3F3"/>
<g transform="translate(960.000,640.000) scale(1.60000) rotate(180,100,100)"><path d="M200 0L200 10L0 100L0 0L200 0Z" fill="#4997D0"/></g>
</svg>
