<?xml version='1.0' encoding='UTF-8'?>
<svg xmlns="http://www.w3.org/2000/svg" version="1.1" width="1920" height="960" viewBox="0 0 1920 960">
<rect width="1920" height="960" fill="#FFFFFF"/>
<rect x="0.000" y="0.000" width="640.000" height="640.000" fill="#F3F3F3"/>
<g transform="translate(0.000,0.000) scale(3.20000) rotate(270,100,100)"><path d="M200 0L200 50L0 100L0 0L200 0Z" fill="#FF4F00"/>
  <path d="M0 200L200 150L200 200L0 200Z" fill="#FF4F00"/></g>
<rect x="640.000" y="0.000" width="320.000" height="320.000" fill="#F3F3F3"/>
<g transform="translate(640.000,0.000) scale(1.60000) rotate(270,100,100)"><path d="M200 0L200 50L0 100L0 0L200 0Z" fill="#FFA300"/>
  <path d="M0 200L200 150L200 200L0 200Z" fill="#FFA300"/></g>
<rect x="1600.000" y="0.000" width="320.000" height="320.000" fill="#121212"/>
<g transform="translate(1600.000,0.000) scale(1.60000) rotate(180,100,100)"><path d="M200 0L200 50L0 100L0 0L200 0Z" fill="#D9D9D6"/>
  <path d="M0 200L200 150L200 200L0 200Z" fill="#D9D9D6"/></g>
<rect x="640.000" y="320.000" width="320.000" height="320.000" fill="#F3F3F3"/>
<g transform="translate(640.000,320.000) scale(1.60000)"><path d="M133 116.667H166.333C166.333 79.848 136.485 50 99.6667 50C62.848 50 33 79.848 33 116.667H66.3333C66.3333 135.077 81.256 150 99.6667 150C118.077 150 133 135.077 133 116.667Z" fill="#FF4F00"/></g>
<rect x="960.000" y="320.000" width="320.000" height="320.000" fill="#D9D9D6"/>
<g transform="translate(960.000,320.000) scale(1.60000)"><path d="M133 116.667H166.333C166.333 79.848 136.485 50 99.6667 50C62.848 50 33 79.848 33 116.667H66.3333C66.3333 135.077 81.256 150 99.6667 150C118.077 150 133 135.077 133 116.667Z" fill="#F3F3F3"/></g>
<rect x="1280.000" y="320.000" width="320.000" height="320.000" fill="#F3F3F3"/>
<g transform="translate(1280.000,320.000) scale(1.60000) rotate(90,100,100)"><path d="M200 0L200 50L0 100L0 0L200 0Z" fill="#FF4F00"/>
  <path d="M0 200L200 150L200 200L0 200Z" fill="#FF4F00"/></g>
<rect x="1600.000" y="320.000" width="320.000" height="320.000" fill="#D9D9D6"/>
<g transform="translate(1600.000,320.000) scale(1.60000) rotate(90,100,100)"><circle cx="100" cy="100" r="75" fill="#F3F3F3"/></g>
<rect x="0.000" y="640.000" width="320.000" height="320.000" fill="#FFFFFF"/>
<g transform="translate(0.000,640.000) scale(1.60000) rotate(270,100,100)"><path d="M200 0L200 50L0 100L0 0L200 0Z" fill="#FF4F00"/>
  <path d="M0 200L200 150L200 200L0 200Z" fill="#FF4F00"/></g>
<rect x="320.000" y="640.000" width="320.000" height="320.000" fill="#F3F3F3"/>
<g transform="translate(320.000,640.000) scale(1.60000) rotate(270,100,100)"><circle cx="100" cy="100" r="75" fill="#FFA300"/></g>
<rect x="640.000" y="640.000" width="320.000" height="320.000" fill="#121212"/>
<g transform="translate(640.000,640.000) scale(1.60000)"><path d="M133 116.667H166.333C166.333 79.848 136.485 50 99.6667 50C62.848 50 33 79.848 33 116.667H66.3333C66.3333 135.077 81.256 150 99.6667 150C118.077 150 133 135.077 133 116.667Z" fill="#D9D9D6"/></g>
<rect x="1600.000" y="640.000" width="320.000" height="320.000" fill="#FFFFFF"/>
<g transform="translate(1600.000,640.000) scale(1.60000) rotate(180,100,100)"><circle cx="100" cy="100" r="75" fill="#4997D0"/></g>
</svg>
