<?xml version='1.0' encoding='UTF-8'?>
<svg xmlns="http://www.w3.org/2000/svg" version="1.1" width="1920" height="960" viewBox="0 0 1920 960">
<rect width="1920" height="960" fill="#121212"/>
<g transform="translate(320.000,0.000) scale(1.60000) rotate(180,100,100)"><path d="M150 0H0V150C0 67.158 67.158 0 150 0Z" fill="#FF4F00"/></g>
<g transform="translate(640.000,0.000) scale(1.60000)"><circle cx="100" cy="100" r="100" fill="#FFFFFF"/></g>
<g transform="translate(1280.000,0.000) scale(-1.60000,1.60000) rotate(90,100,100)"><circle cx="100" cy="100" r="100" fill="#FFFFFF"/></g>
<g transform="translate(1280.000,0.000) scale(1.60000) rotate(180,100,100)"><path d="M125 75L125 125L75 125L75 75L125 75Z" fill="#FF4F00"/></g>
<g transform="translate(640.000,320.000) scale(1.60000) rotate(90,100,100)"><circle cx="100" cy="100" r="100" fill="#FFFFFF"/></g>
<g transform="translate(1280.000,320.000) scale(-1.60000,1.60000) rotate(180,100,100)"><circle cx="100" cy="100" r="100" fill="#FFFFFF"/></g>
<g transform="translate(0.000,640.000) scale(1.60000)"><path d="M175 200C133.579 200 25 200 25 200C25 158.579 58.5787 125 100 125C141.421 125 175 158.579 175 200Z" fill="#4997D0"/></g>
<g transform="translate(640.000,640.000) scale(-1.60000,1.60000)"><path d="M175 200C133.579 200 25 200 25 200C25 158.579 58.5787 125 100 125C141.421 125 175 158.579 175 200Z" fill="#4997D0"/></g>
<g transform="translate(1280.000,640.000) scale(1.60000)"><path d="M175 200C133.579 200 25 200 25 200C25 158.579 58.5787 125 100 125C141.421 125 175 158.579 175 200Z" fill="#4997D0"/></g>
<g transform="translate(1920.000,640.000) scale(-1.60000,1.60000)"><path d="M175 200C133.579 200 25 200 25 200C25 158.579 58.5787 125 100 125C141.421 125 175 158.579 175 200Z" fill="#4997D0"/></g>
</svg>
