<?xml version='1.0' encoding='UTF-8'?>
<svg xmlns="http://www.w3.org/2000/svg" version="1.1" width="1920" height="960" viewBox="0 0 1920 960">
<rect width="1920" height="960" fill="#FFFFFF"/>
<rect x="0.000" y="0.000" width="640.000" height="640.000" fill="#F3F3F3"/>
<g transform="translate(0.000,0.000) scale(3.20000) rotate(180,100,100)"><!-- Generator: Adobe Illustrator 30.2.1, SVG Export Plug-In . SVG Version: 2.1.1 Build 1)  -->
  
  <path d="M0,200h200V.06c-.03,110.46-89.58,199.98-200,199.94Z" fill="#F3F3F3"/>
  <path d="M0,200c110.42.03,199.97-89.49,200-199.94L.06,0l-.06,200Z" fill="#FF4F00"/>
  <ellipse cx="70" cy="65" rx="50" ry="25" fill="#F3F3F3"/>
  <circle cx="70" cy="65" r="25" fill="#FF4F00"/></g>
<rect x="640.000" y="0.000" width="320.000" height="320.000" fill="#F3F3F3"/>
<g transform="translate(640.000,0.000) scale(1.60000)"><circle cx="100" cy="100" r="75" fill="#FFA300"/></g>
<rect x="1600.000" y="0.000" width="320.000" height="320.000" fill="#F3F3F3"/>
<g transform="translate(1600.000,0.000) scale(1.60000)"><path d="M0.008 0L0 0L0 200L200 200C89.876 200 0.008 110.417 0.008 0Z" fill="#4997D0"/>
  <path fill-rule="evenodd" clip-rule="evenodd" d="M179.933 199C85.7297 189.563 10.4137 114.42 1 20.0043C0.344 13.4246 0.008 6.7512 0.008 0L0 0L0 200L200 200C193.229 200 186.535 199.661 179.933 199ZM171.614 199C83.5333 186.485 13.5081 116.612 1 28.3523L1 199L171.614 199Z" fill="#4997D0"/>
  <path fill-rule="evenodd" clip-rule="evenodd" d="M35 0C35 91.127 108.873 165 200 165V175C103.35 175 25 96.6498 25 0H35Z" fill="#4997D0"/>
  <path fill-rule="evenodd" clip-rule="evenodd" d="M75 0C75 69.0356 130.964 125 200 125V135C125.442 135 65 74.5584 65 0H75Z" fill="#4997D0"/>
  <path fill-rule="evenodd" clip-rule="evenodd" d="M115 0C115 46.9442 153.056 85 200 85V95C147.533 95 105 52.4671 105 0H115Z" fill="#4997D0"/>
  <path fill-rule="evenodd" clip-rule="evenodd" d="M155 0C155 24.8528 175.147 45 200 45V55C169.624 55 145 30.3757 145 0H155Z" fill="#4997D0"/>
  <path fill-rule="evenodd" clip-rule="evenodd" d="M195 0C195 2.7614 197.239 5 200 5V15C191.716 15 185 8.2843 185 0H195Z" fill="#4997D0"/></g>
<rect x="640.000" y="320.000" width="320.000" height="320.000" fill="#FFFFFF"/>
<g transform="translate(640.000,320.000) scale(1.60000) rotate(270,100,100)"><path d="M150.05 200 C105.549 200 83.2634 146.197 114.73 114.73 C146.197 83.2634 200 105.549 200 150.05 L200 200 L150.05 200 Z" fill="#FF4F00"/></g>
<rect x="960.000" y="320.000" width="320.000" height="320.000" fill="#121212"/>
<g transform="translate(960.000,320.000) scale(1.60000) rotate(270,100,100)"><path d="M150.05 200 C105.549 200 83.2634 146.197 114.73 114.73 C146.197 83.2634 200 105.549 200 150.05 L200 200 L150.05 200 Z" fill="#F3F3F3"/></g>
<rect x="1280.000" y="320.000" width="320.000" height="320.000" fill="#FFFFFF"/>
<g transform="translate(1280.000,320.000) scale(1.60000) rotate(90,100,100)"><path d="M0.008 0L0 0L0 200L200 200C89.876 200 0.008 110.417 0.008 0Z" fill="#4997D0"/>
  <path fill-rule="evenodd" clip-rule="evenodd" d="M179.933 199C85.7297 189.563 10.4137 114.42 1 20.0043C0.344 13.4246 0.008 6.7512 0.008 0L0 0L0 200L200 200C193.229 200 186.535 199.661 179.933 199ZM171.614 199C83.5333 186.485 13.5081 116.612 1 28.3523L1 199L171.614 199Z" fill="#4997D0"/>
  <path fill-rule="evenodd" clip-rule="evenodd" d="M35 0C35 91.127 108.873 165 200 165V175C103.35 175 25 96.6498 25 0H35Z" fill="#4997D0"/>
  <path fill-rule="evenodd" clip-rule="evenodd" d="M75 0C75 69.0356 130.964 125 200 125V135C125.442 135 65 74.5584 65 0H75Z" fill="#4997D0"/>
  <path fill-rule="evenodd" clip-rule="evenodd" d="M115 0C115 46.9442 153.056 85 200 85V95C147.533 95 105 52.4671 105 0H115Z" fill="#4997D0"/>
  <path fill-rule="evenodd" clip-rule="evenodd" d="M155 0C155 24.8528 175.147 45 200 45V55C169.624 55 145 30.3757 145 0H155Z" fill="#4997D0"/>
  <path fill-rule="evenodd" clip-rule="evenodd" d="M195 0C195 2.7614 197.239 5 200 5V15C191.716 15 185 8.2843 185 0H195Z" fill="#4997D0"/></g>
<rect x="1600.000" y="320.000" width="320.000" height="320.000" fill="#121212"/>
<g transform="translate(1600.000,320.000) scale(1.60000) rotate(180,100,100)"><circle cx="100" cy="100" r="75" fill="#D9D9D6"/></g>
<rect x="0.000" y="640.000" width="320.000" height="320.000" fill="#D9D9D6"/>
<g transform="translate(0.000,640.000) scale(1.60000) rotate(90,100,100)"><circle cx="100" cy="100" r="75" fill="#FFFFFF"/></g>
<rect x="320.000" y="640.000" width="320.000" height="320.000" fill="#FFFFFF"/>
<g transform="translate(320.000,640.000) scale(1.60000) rotate(90,100,100)"><circle cx="100" cy="100" r="75" fill="#FF4F00"/></g>
<rect x="640.000" y="640.000" width="320.000" height="320.000" fill="#FFFFFF"/>
<g transform="translate(640.000,640.000) scale(1.60000)"><path d="M200 0 L189.443 5.2787 C130.623 34.6887 65.7629 50 0 50 L0 0 L100 0 L200 0 Z" fill="#121212"/></g>
<rect x="1600.000" y="640.000" width="320.000" height="320.000" fill="#F3F3F3"/>
<g transform="translate(1600.000,640.000) scale(1.60000) rotate(270,100,100)"><circle cx="100" cy="100" r="75" fill="#4997D0"/></g>
</svg>
