<?xml version='1.0' encoding='UTF-8'?>
<svg xmlns="http://www.w3.org/2000/svg" version="1.1" width="1920" height="960" viewBox="0 0 1920 960">
<rect x="0.000" y="0.000" width="320.000" height="320.000" fill="#121212"/>
<g transform="translate(0.000,0.000) scale(1.60000) rotate(90,100,100)"><path d="M100.1 200 C11.0989 200 -33.4731 92.3937 29.4603 29.4603 C92.3937 -33.4732 200 11.0989 200 100.1 L200 200 L100.1 200 Z" fill="#FFFFFF"/></g>
<rect x="320.000" y="0.000" width="320.000" height="320.000" fill="#121212"/>
<g transform="translate(320.000,0.000) scale(1.60000) rotate(270,100,100)"><path d="M100.1 200 C11.0989 200 -33.4731 92.3937 29.4603 29.4603 C92.3937 -33.4732 200 11.0989 200 100.1 L200 200 L100.1 200 Z" fill="#FFA300"/></g>
<rect x="640.000" y="0.000" width="320.000" height="320.000" fill="#121212"/>
<g transform="translate(640.000,0.000) scale(1.60000) rotate(270,100,100)"><path d="M100.1 200 C11.0989 200 -33.4731 92.3937 29.4603 29.4603 C92.3937 -33.4732 200 11.0989 200 100.1 L200 200 L100.1 200 Z" fill="#FFFFFF"/></g>
<rect x="960.000" y="0.000" width="320.000" height="320.000" fill="#121212"/>
<g transform="translate(960.000,0.000) scale(1.60000) rotate(180,100,100)"><path d="M100.1 200 C11.0989 200 -33.4731 92.3937 29.4603 29.4603 C92.3937 -33.4732 200 11.0989 200 100.1 L200 200 L100.1 200 Z" fill="#FFA300"/></g>
<rect x="1280.000" y="0.000" width="320.000" height="320.000" fill="#121212"/>
<g transform="translate(1280.000,0.000) scale(1.60000)"><path d="M100.1 200 C11.0989 200 -33.4731 92.3937 29.4603 29.4603 C92.3937 -33.4732 200 11.0989 200 100.1 L200 200 L100.1 200 Z" fill="#FFFFFF"/></g>
<rect x="1600.000" y="0.000" width="320.000" height="320.000" fill="#FFFFFF"/>
<g transform="translate(1600.000,0.000) scale(1.60000) rotate(90,100,100)"><path d="M100.1 200 C11.0989 200 -33.4731 92.3937 29.4603 29.4603 C92.3937 -33.4732 200 11.0989 200 100.1 L200 200 L100.1 200 Z" fill="#FFA300"/></g>
<rect x="0.000" y="320.000" width="320.000" height="320.000" fill="#FFFFFF"/>
<g transform="translate(0.000,320.000) scale(1.60000)"><path d="M133 116.667H166.333C166.333 79.848 136.485 50 99.6667 50C62.848 50 33 79.848 33 116.667H66.3333C66.3333 135.077 81.256 150 99.6667 150C118.077 150 133 135.077 133 116.667Z" fill="#121212"/></g>
<rect x="320.000" y="320.000" width="320.000" height="320.000" fill="#121212"/>
<g transform="translate(320.000,320.000) scale(1.60000) rotate(270,100,100)"><path d="M133 116.667H166.333C166.333 79.848 136.485 50 99.6667 50C62.848 50 33 79.848 33 116.667H66.3333C66.3333 135.077 81.256 150 99.6667 150C118.077 150 133 135.077 133 116.667Z" fill="#FFFFFF"/></g>
<rect x="640.000" y="320.000" width="320.000" height="320.000" fill="#FFFFFF"/>
<g transform="translate(640.000,320.000) scale(1.60000) rotate(90,100,100)"><path d="M133 116.667H166.333C166.333 79.848 136.485 50 99.6667 50C62.848 50 33 79.848 33 116.667H66.3333C66.3333 135.077 81.256 150 99.6667 150C118.077 150 133 135.077 133 116.667Z" fill="#121212"/></g>
<rect x="960.000" y="320.000" width="320.000" height="320.000" fill="#121212"/>
<g transform="translate(960.000,320.000) scale(1.60000)"><path d="M133 116.667H166.333C166.333 79.848 136.485 50 99.6667 50C62.848 50 33 79.848 33 116.667H66.3333C66.3333 135.077 81.256 150 99.6667 150C118.077 150 133 135.077 133 116.667Z" fill="#FFFFFF"/></g>
<rect x="1280.000" y="320.000" width="320.000" height="320.000" fill="#FFFFFF"/>
<g transform="translate(1280.000,320.000) scale(1.60000) rotate(90,100,100)"><path d="M133 116.667H166.333C166.333 79.848 136.485 50 99.6667 50C62.848 50 33 79.848 33 116.667H66.3333C66.3333 135.077 81.256 150 99.6667 150C118.077 150 133 135.077 133 116.667Z" fill="#FFA300"/></g>
<rect x="1600.000" y="320.000" width="320.000" height="320.000" fill="#FFFFFF"/>
<g transform="translate(1600.000,320.000) scale(1.60000) rotate(180,100,100)"><path d="M133 116.667H166.333C166.333 79.848 136.485 50 99.6667 50C62.848 50 33 79.848 33 116.667H66.3333C66.3333 135.077 81.256 150 99.6667 150C118.077 150 133 135.077 133 116.667Z" fill="#121212"/></g>
<rect x="0.000" y="640.000" width="320.000" height="320.000" fill="#121212"/>
<g transform="translate(0.000,640.000) scale(1.60000) rotate(180,100,100)"><path fill-rule="evenodd" clip-rule="evenodd" d="M50 100L200 0L0 0L0 200L100 200L50 100Z" fill="#FFFFFF"/></g>
<rect x="320.000" y="640.000" width="320.000" height="320.000" fill="#FFFFFF"/>
<g transform="translate(320.000,640.000) scale(1.60000) rotate(270,100,100)"><path fill-rule="evenodd" clip-rule="evenodd" d="M50 100L200 0L0 0L0 200L100 200L50 100Z" fill="#FFA300"/></g>
<rect x="640.000" y="640.000" width="320.000" height="320.000" fill="#121212"/>
<g transform="translate(640.000,640.000) scale(1.60000) rotate(270,100,100)"><path fill-rule="evenodd" clip-rule="evenodd" d="M50 100L200 0L0 0L0 200L100 200L50 100Z" fill="#FFFFFF"/></g>
<rect x="960.000" y="640.000" width="320.000" height="320.000" fill="#FFFFFF"/>
<g transform="translate(960.000,640.000) scale(1.60000) rotate(90,100,100)"><path fill-rule="evenodd" clip-rule="evenodd" d="M50 100L200 0L0 0L0 200L100 200L50 100Z" fill="#FFA300"/></g>
<rect x="1280.000" y="640.000" width="320.000" height="320.000" fill="#121212"/>
<g transform="translate(1280.000,640.000) scale(1.60000) rotate(270,100,100)"><path fill-rule="evenodd" clip-rule="evenodd" d="M50 100L200 0L0 0L0 200L100 200L50 100Z" fill="#FFFFFF"/></g>
<rect x="1600.000" y="640.000" width="320.000" height="320.000" fill="#121212"/>
<g transform="translate(1600.000,640.000) scale(1.60000)"><path fill-rule="evenodd" clip-rule="evenodd" d="M50 100L200 0L0 0L0 200L100 200L50 100Z" fill="#FFA300"/></g>
</svg>
