<?xml version='1.0' encoding='UTF-8'?>
<svg xmlns="http://www.w3.org/2000/svg" width="200" height="200" viewBox="0 0 200 200">
  <rect width="200" height="200" fill="#F3F3F3" x="0" y="0"/>
  <path d="M99.242,194.769 L102.904,185.896 L102.904,185.896 L105.3339,180.2717 L107.3212,174.5778 L108.8738,168.834 L110,163.06 L110.708,157.2752 L111.0058,151.4994 L110.9015,145.7521 L110.4033,140.053 L109.5193,134.4218 L108.2577,128.8779 L106.6265,123.4411 L104.634,118.131 L102.2882,112.9672 L99.5973,107.9692 L96.5695,103.1569 L93.2127,98.5496 L89.5353,94.1672 L85.5452,90.0291 L81.2508,86.1551 L76.6599,82.5647 L71.7809,79.2776 L66.6218,76.3133 L61.1908,73.6916 L55.496,71.432 L55.496,71.432 L51.2937,69.8216 L47.257,68.0428 L43.3857,66.1025 L39.68,64.0074 L36.1397,61.7642 L32.7649,59.3798 L29.5556,56.8607 L26.5117,54.2139 L23.6333,51.4461 L20.9204,48.564 L18.373,45.5744 L15.991,42.484 L13.7745,39.2996 L11.7234,36.028 L9.8378,32.6759 L8.1176,29.2501 L6.5629,25.7573 L5.1736,22.2043 L3.9498,18.5978 L2.8914,14.9446 L1.9984,11.2515 L1.2709,7.5252 L0.7087,3.7724 L0.312,0 L0.312,0 L0.299,0 L0.286,0 L0.273,0 L0.26,0 L0.247,0 L0.234,0 L0.221,0 L0.208,0 L0.195,0 L0.182,0 L0.169,0 L0.156,0 L0.143,0 L0.13,0 L0.117,0 L0.104,0 L0.091,0 L0.078,0 L0.065,0 L0.052,0 L0.039,0 L0.026,0 L0.013,0 L0,0 L0,0 L0,16.6667 L0,33.3333 L0,50 L0,66.6667 L0,83.3333 L0,100 L0,116.6667 L0,133.3333 L0,150 L0,166.6667 L0,183.3333 L0,200 L97.7134,200 Z" fill="#121212"/>
</svg>
