<?xml version='1.0' encoding='UTF-8'?>
<svg xmlns="http://www.w3.org/2000/svg" width="200" height="200" viewBox="0 0 200 200">
  <rect width="200" height="200" fill="#F3F3F3" x="0" y="0"/>
  <path d="M196.3723,103.3443 L187.5787,104.9057 L178.8975,105.4895 L170.3767,105.1437 L162.0644,103.9164 L154.0086,101.8556 L146.2575,99.0095 L138.8591,95.4261 L131.8615,91.1535 L125.3128,86.2398 L119.261,80.733 L113.7543,74.6813 L108.8407,68.1327 L104.5683,61.1353 L100.9852,53.7372 L98.1394,45.9864 L96.0791,37.9311 L94.8523,29.6193 L94.5071,21.0991 L95.0916,12.4186 L96.6539,3.6259 L97.7134,0 L0,0 L0,16.6667 L0,33.3333 L0,50 L0,66.6667 L0,83.3333 L0,100 L0,116.6667 L0,133.3333 L0,150 L0,166.6667 L0,183.3333 L0,200 L16.6667,200 L33.3333,200 L50,200 L66.6667,200 L83.3333,200 L100,200 L116.6667,200 L133.3333,200 L150,200 L166.6667,200 L183.3333,200 L200,200 L200,102.2847 Z" fill="#121212"/>
</svg>
