<svg xmlns="http://www.w3.org/2000/svg" width="1920" height="960" viewBox="0 0 1920 960"><g xmlns="http://www.w3.org/2000/svg" fill="none" fill-rule="nonzero" stroke="none" stroke-width="1" stroke-linecap="butt" stroke-linejoin="miter" stroke-miterlimit="10" stroke-dasharray="" stroke-dashoffset="0" font-family="none" font-weight="none" font-size="none" text-anchor="none" style="mix-blend-mode: normal"><path d="M960,640v32h-320v-32h-320v32h-320l0,-32v-320l0,-32h1280l0,192c0,0 0,0 0,0c0,88.36556 71.63444,160 160,160zM1280,928v-32h320v32zM1280,736v-32h320v32zM1280,800v-32h320v32zM1280,864v-32h320v32zM0,928l0,-32h320v32zM0,736l0,-32h320v32zM0,800l0,-32h320v32zM0,864l0,-32h320v32zM640,928v-32h320v32zM640,736v-32h320v32zM640,800v-32h320v32zM640,864v-32h320v32zM1920,32v32h-1920l0,-32zM1920,224v32h-1920l0,-32zM1920,160v32h-1920l0,-32zM1920,96v32h-1920l0,-32zM1920,928v32h-320v-32zM1920,672v32l-320,0v-32zM1920,864v32h-320v-32zM1920,800v32h-320v-32zM1920,736v32h-320v-32zM1280,960h-320v-32l320,0zM1280,704l-320,0v-32h320zM1280,896h-320v-32h320zM1280,832h-320v-32l320,0zM1280,768h-320v-32h320zM640,928v32h-320v-32zM640,672v32l-320,0v-32zM640,864v32h-320v-32zM640,800v32h-320v-32zM640,736v32h-320v-32z" fill="#121212"/><path d="M960,32v-32h960v960h-1280v-320c0,0 800,0 800,0c-88.36556,0 -160,-71.63444 -160,-160c0,0 0,0 0,0c0,-88.36556 71.63444,-160 160,-160h-160v-32h-320v-32h320v-32h-320v-32h320v-32h-320v-32l320,0v-32h-320v-32l320,0v-32zM1440,320c88.36556,0 160,71.63444 160,160c0,88.36556 -71.63444,160 -160,160h160v-320c0,0 -160,0 -160,0z" fill="#f3f3f3"/><path d="M0,960v-32l320,0v32zM0,896v-32h320v32zM0,832v-32l320,0v32zM0,768v-32l320,0v32zM0,704v-32l320,0v32zM1920,640v32h-320v-32zM1920,704v32h-320v-32zM1920,768v32h-320v-32zM1920,832v32h-320v-32zM1920,896v32h-320v-32z" fill="#ffa300"/><path d="M640,960v-32l320,0v32zM640,896v-32h320v32zM640,832v-32l320,0v32zM640,768v-32l320,0v32zM640,704v-32l320,0v32zM960,640h320v32h-320zM960,896l320,0v32l-320,0zM1280,736h-320v-32h320zM960,768h320v32h-320zM960,832h320v32l-320,0zM640,640v32h-320v-32zM640,704v32h-320v-32zM640,768v32h-320v-32zM640,832v32h-320v-32zM640,896v32h-320v-32z" fill="#ff4f00"/><path d="M960,0v32h-960l0,32l960,0v32h-960l0,32l960,0v32h-960l0,32h960v32h-960l0,32l960,0v32h-960l0,32v-320zM1920,0v32h-320v-32zM1920,64v32h-320v-32zM1920,128v32h-320v-32zM1920,192v32h-320v-32zM1920,256v32h-320v-32z" fill="#4997d0"/></g></svg>