<svg xmlns="http://www.w3.org/2000/svg" width="1920" height="960" viewBox="0 0 1920 960"><g xmlns="http://www.w3.org/2000/svg" fill="none" fill-rule="nonzero" stroke="none" stroke-width="1" stroke-linecap="butt" stroke-linejoin="miter" stroke-miterlimit="10" stroke-dasharray="" stroke-dashoffset="0" font-family="none" font-weight="none" font-size="none" text-anchor="none" style="mix-blend-mode: normal"><path d="M960,320c0,-88.366 71.63,-160 160,-160c88.37,0 160,71.634 160,160v320c0,88.366 -71.63,160 -160,160c-88.37,0 -160,-71.634 -160,-160zM480,960h-160v-160c0,88.366 71.634,160 160,160zM640,960h-160c88.366,0 160,-71.634 160,-160c0,0 0,0 0,0c0,0 0,0 0,0c0,-88.36556 71.63444,-160 160,-160c0,0 0,0 0,0c88.36556,0 160,71.63444 160,160c0,88.36556 -71.63444,160 -160,160c-88.36556,0 -160,-71.63444 -160,-160z" fill="#ff4f00"/><path d="M1600,0h320v320c0,88.366 -71.63,160 -160,160c-88.37,0 -160,-71.634 -160,-160zM320,0h320v320c0,-88.366 -71.634,-160 -160,-160c-88.366,0 -160,71.634 -160,160z" fill="#4997d0"/><path d="M1920,640v320h-640v-800c0,-88.3656 71.63,-160.00001 160,-160.00001c88.37,0 160,71.63441 160,160.00001v480l-160,0c0.02536,0 160,0 160,0zM480,960c-88.366,0 -160,-71.634 -160,-160c0,88.366 -71.634,160 -160,160c-88.3655,0 -159.99999,-71.634 -159.99998,-160l0.00002,-160h-0.00004l0,-480c0,0 0,0 0,0c0,88.36556 71.63444,160 160,160c88.36556,0 160,-71.63444 160,-160c0,-88.36556 -71.63444,-160 -160,-160h160v320c0,-88.366 71.634,-160 160,-160c88.366,0 160,71.634 160,160v-160c0,-88.3656 71.634,-160.00001 160,-160.00001c88.366,0 160,71.63441 160,160.00001v480c0,0 -160,0 -160,0c0,0 -71.63444,0 -160,0c0,0 88.36556,160 0,160c0,88.366 -71.634,160 -160,160zM0,0c0,0 160,0 160,0c-88.36556,0 -160,71.63444 -160,160zM1280,800c0,88.36556 71.63444,160 160,160c88.36556,0 160,-71.63444 160,-160c0,-88.36556 -71.63444,-160 -160,-160h-0.00001c-88.36556,0 -160,71.63444 -160,160z" fill="#121212"/><path d="M1280,320c0,-88.366 -71.63,-160 -160,-160c-88.37,0 -160,71.634 -160,160v-160c0,-88.34966 -71.60816,-159.97416 -159.95218,-160l639.90435,0c-88.34802,0.02584 -159.95217,71.65034 -159.95217,160zM640,0l159.95218,0c-88.34402,0.02584 -159.95218,71.65034 -159.95218,160zM0,960v-160h0.00002c-0.00001,88.366 71.63448,160 159.99997,160zM320,960h-160c88.366,0 160,-71.634 160,-160zM1440.04783,0h159.95217v160c0,-88.34966 -71.60416,-159.97416 -159.95217,-160z" fill="#ffa300"/><path d="M0.00002,800h-0.00002v-160h0.00004zM320,160c0,88.36556 -71.63444,160 -160,160c-88.36556,0 -160,-71.63444 -160,-160c0,-88.36556 71.63444,-160 160,-160c88.36556,0 160,71.63444 160,160zM1280,800c0,-88.36556 71.63444,-160 160,-160c0,0 0,0 0,0c88.36556,0 160,71.63444 160,160c0,88.36556 -71.63444,160 -160,160c-88.36556,0 -160,-71.63444 -160,-160c0,0 0,0 0,0z" fill="#f3f3f3"/></g></svg>