<svg xmlns="http://www.w3.org/2000/svg" width="1920" height="960" viewBox="0 0 1920 960"><g xmlns="http://www.w3.org/2000/svg" fill="none" fill-rule="nonzero" stroke="none" stroke-width="1" stroke-linecap="butt" stroke-linejoin="miter" stroke-miterlimit="10" stroke-dasharray="" stroke-dashoffset="0" font-family="none" font-weight="none" font-size="none" text-anchor="none" style="mix-blend-mode: normal"><path d="M0,320l-0.00001,-320.00006l0.2496,0c2.0096,24.19206 16.72321,47.39206 44.14721,57.14566c37.2736,13.2608 54.912,55.8404 37.9264,91.5714c-26.976,56.736 32.2178,115.929 88.9598,88.96c35.738,-16.986 78.317,0.653 91.571,37.926c9.754,27.424 32.954,42.131 57.146,44.147v320.5c-24.192,2.009 -47.392,16.723 -57.146,44.147c-13.26,37.273 -55.84,54.912 -91.571,37.926c-56.736,-26.976 -115.9294,32.218 -88.9598,88.96c16.9856,35.738 -0.6528,78.317 -37.9264,91.571c-27.424,9.754 -42.13122,32.954 -44.14722,57.146h-0.2496l0.00002,-320z" fill="#ff4f00"/><path d="M320,319.75c-24.192,-2.016 -47.392,-16.723 -57.146,-44.147c-13.254,-37.273 -55.833,-54.912 -91.571,-37.926c-56.742,26.969 -115.9358,-32.224 -88.9598,-88.96c16.9856,-35.731 -0.6528,-78.3106 -37.9264,-91.5714c-27.42398,-9.75359 -42.13759,-32.95356 -44.14721,-57.1456l388.4086,0l-68.65819,0zM320,960h-319.75042c2.016,-24.192 16.72322,-47.392 44.14722,-57.146c37.2736,-13.254 54.912,-55.833 37.9264,-91.571c-26.9696,-56.742 32.2238,-115.936 88.9598,-88.96c35.731,16.986 78.311,-0.653 91.571,-37.926c9.754,-27.424 32.954,-42.138 57.146,-44.147zM320,320l0.18855,0c176.59336,-0.05098 319.76046,-143.33286 319.81145,-320h320l0,0l-320,0l0,0.18855c0.05098,176.59337 143.33287,319.76047 320,319.81145h640.18855c176.59336,-0.05098 319.76146,-143.33286 319.81145,-320l0,960h-960v-32h640c159.06,0 288,-128.942 288,-288c0,-159.058 -128.94,-288 -288,-288h-640c-159.058,0 -288,128.942 -288,288h-32c0.00001,-0.03134 0.00001,-0.06269 0.00001,-0.09403c0,-0.03151 0,-0.06301 -0.00001,-0.09452c-0.05098,-176.59337 -143.33287,-319.76047 -320,-319.81145zM960,864h640c123.71,0 224,-100.288 224,-224c0,-123.712 -100.29,-224 -224,-224h-640c-123.712,0 -224,100.288 -224,224c0,123.712 100.288,224 224,224zM1600,896l-640,0c-141.385,0 -256,-114.615 -256,-256c0,-141.385 114.615,-256 256,-256h640c141.38,0 256,114.615 256,256c0,141.385 -114.62,256 -256,256zM960,800h640c88.37,0 160,-71.634 160,-160c0,-88.366 -71.63,-160 -160,-160h-640c-88.366,0 -160,71.634 -160,160c0,88.366 71.634,160 160,160zM1600,832h-640c-106.039,0 -192,-85.961 -192,-192c0,-106.039 85.961,-192 192,-192l640,0c106.04,0 192,85.961 192,192c0,106.039 -85.96,192 -192,192zM960,736h640c53.02,0 96,-42.981 96,-96c0,-53.019 -42.98,-96 -96,-96h-640c-53.019,0 -96,42.981 -96,96c0,53.019 42.981,96 96,96zM1600,768h-640c-70.692,0 -128,-57.308 -128,-128c0,-70.692 57.308,-128 128,-128l640,0c70.69,0 128,57.308 128,128c0,70.692 -57.31,128 -128,128zM960,672l640,0c17.67,0 32,-14.327 32,-32c0,-17.673 -14.33,-32 -32,-32h-640c-17.673,0 -32,14.327 -32,32c0,17.673 14.327,32 32,32zM1600,704l-640,0c-35.346,0 -64,-28.654 -64,-64c0,-35.346 28.654,-64 64,-64h640c35.35,0 64,28.654 64,64c0,35.346 -28.65,64 -64,64zM1668.65819,0l-68.65819,0v0zM320.18855,960c176.59337,-0.05098 319.76047,-143.33287 319.81145,-320v320z" fill="#d9d9d6"/><path d="M1600,0v0l320,-0.00002c-0.04998,176.66714 -143.21808,319.94904 -319.81145,320.00001h-640.18855c-176.66713,-0.05098 -319.94903,-143.21809 -320,-319.81146l0,-0.18852c-0.051,176.66713 -143.21809,319.94901 -319.81145,319.99998h-0.18855v-320l320,-0.00002c0,0.00001 0,0.00001 0,0.00002zM320,320c176.73,0.051 320.051,143.32 320,320c-0.051,176.73 -143.32,320.051 -320,320zM1600,672h-640c-17.673,0 -32,-14.327 -32,-32c0,-17.673 14.327,-32 32,-32h640c17.67,0 32,14.327 32,32c0,17.673 -14.33,32 -32,32zM960,704h640c35.35,0 64,-28.654 64,-64c0,-35.346 -28.65,-64 -64,-64h-640c-35.346,0 -64,28.654 -64,64c0,35.346 28.654,64 64,64zM1600,736h-640c-53.019,0 -96,-42.981 -96,-96c0,-53.019 42.981,-96 96,-96h640c53.02,0 96,42.981 96,96c0,53.019 -42.98,96 -96,96zM960,768h640c70.69,0 128,-57.308 128,-128c0,0 0,0 0,0h32c0,88.366 -71.63,160 -160,160h-640c-88.366,0 -160,-71.634 -160,-160c0,-88.366 71.634,-160 160,-160h640c88.37,0 160,71.634 160,160l-32,0c0,-70.692 -57.31,-128 -128,-128h-640c-70.692,0 -128,57.308 -128,128c0,70.692 57.308,128 128,128zM960,832h640c106.04,0 192,-85.961 192,-192c0,-106.039 -85.96,-192 -192,-192h-640c-106.039,0 -192,85.961 -192,192c0,106.039 85.961,192 192,192zM1600,864h-640c-123.712,0 -224,-100.288 -224,-224c0,-123.712 100.288,-224 224,-224h640c123.71,0 224,100.288 224,224c0,123.712 -100.29,224 -224,224zM960,896h640c141.38,0 256,-114.615 256,-256c0,-141.385 -114.62,-256 -256,-256h-640c-141.385,0 -256,114.615 -256,256c0,141.385 114.615,256 256,256zM1600,928h-640c-159.058,0 -288,-128.942 -288,-288c0,-159.058 128.942,-288 288,-288h640c159.06,0 288,128.942 288,288c0,159.058 -128.94,288 -288,288z" fill="#121212"/></g></svg>