<svg xmlns="http://www.w3.org/2000/svg" width="1920" height="960" viewBox="0 0 1920 960"><g xmlns="http://www.w3.org/2000/svg" fill="none" fill-rule="none" stroke="none" stroke-width="1" stroke-linecap="butt" stroke-linejoin="miter" stroke-miterlimit="10" stroke-dasharray="" stroke-dashoffset="0" font-family="none" font-weight="none" font-size="none" text-anchor="none" style="mix-blend-mode: normal"><path d="M1644.18,902.81c37.3,-13.265 54.96,-55.877 37.96,-91.643c-26.99,-56.787 32.25,-116.026 89.03,-89.029c35.76,16.999 78.37,-0.654 91.64,-37.956c9.76,-27.446 32.98,-42.171 57.19,-44.182v320h-320c2.02,-24.211 16.74,-47.429 44.18,-57.19z" fill="#4997d0" fill-rule="nonzero"/><path d="M1862.81,684.182c-13.27,37.302 -55.88,54.955 -91.64,37.956c-56.78,-26.997 -116.02,32.242 -89.03,89.029c17,35.766 -0.66,78.378 -37.96,91.643c-27.44,9.761 -42.16,32.979 -44.18,57.19h-319.5l0.63599,-6.03586l0.90048,-6.00439l1.16499,-5.9621l1.42951,-5.909l1.69404,-5.84509l1.95858,-5.77036l2.22314,-5.68483l2.48771,-5.58848l2.75229,-5.48133l3.01689,-5.36336l3.2815,-5.23458l3.54612,-5.09499l3.81076,-4.94459l4.07541,-4.78338l4.34007,-4.61136l4.60474,-4.42852l4.86943,-4.23487l5.13413,-4.03042l5.39884,-3.81515l5.66357,-3.58907l5.92831,-3.35218l6.19306,-3.10448l6.45783,-2.84596l6.72261,-2.57664l9.11205,-3.61386l8.68998,-4.19339l8.25489,-4.74153l7.80679,-5.25828l7.34568,-5.74363l6.87155,-6.19759l6.38442,-6.62015l5.88427,-7.01132l5.37111,-7.3711l4.84494,-7.69948l4.30576,-7.99648l3.75356,-8.26207l3.18835,-8.49628l2.61013,-8.69908l2.0189,-8.8705l1.41465,-9.01052l0.7974,-9.11915l0.16713,-9.19639l-0.47615,-9.24223l-1.13245,-9.25668l-1.80175,-9.23973l-2.48407,-9.19139l-3.1794,-9.11166l-3.88774,-9.00053l-5.85782,-14.19822l-2.44422,-8.36778h-0.00421l-1.6957,-5.80183l-2.50033,-14.06839l-0.93582,-13.88881l0.55177,-13.63229l1.96243,-13.29886l3.29615,-12.88849l4.55294,-12.40119l5.7328,-11.83697l6.83573,-11.19582l7.86173,-10.47774l8.8108,-9.68274l9.68293,-8.81081l10.47814,-7.86195l11.19641,-6.83616l11.83775,-5.73344l12.40216,-4.5538l12.88964,-3.29723l13.30019,-1.96373l13.6338,-0.55331l13.89049,0.93404l14.07024,2.49832l5.80201,1.69459v-0.00296l8.3723,2.44635l14.1977,5.85922l8.99862,3.888l9.10993,3.17966l9.18985,2.48434l9.23836,1.802l9.25548,1.13277l9.2412,0.47645l9.19552,-0.16683l9.11845,-0.79709l9.00998,-1.41435l8.8701,-2.01859l8.69884,-2.60982l8.49617,-3.18804l8.26211,-3.75325l7.99665,-4.30544l7.69979,-4.84463l7.37154,-5.37081l7.01188,-5.88397l6.62083,-6.38412l6.19839,-6.87126l5.74454,-7.34539l5.2593,-7.80651l4.74266,-8.25462l4.19462,-8.68971l3.61518,-9.11179l2.577,-6.7236l2.84629,-6.4588l3.10477,-6.19401l3.35244,-5.92923l3.5893,-5.66445l3.81535,-5.39967l4.03058,-5.13491l4.235,-4.87014l4.42861,-4.60539l4.61142,-4.34063l4.7834,-4.07589l4.94458,-3.81115l5.09494,-3.54642l5.2345,-3.28169l5.36324,-3.01696l5.48117,-2.75225l5.58828,-2.48753l5.68459,-2.22283l5.77009,-1.95813l5.84477,-1.69343l5.90864,-1.42874l5.9617,-1.16406l6.00395,-0.89938l6.03539,-0.63471v319.501c-24.21,2.011 -47.43,16.736 -57.19,44.182zM275.818,902.81c-37.302,-13.265 -54.955,-55.877 -37.956,-91.643c26.991,-56.787 -32.249,-116.026 -89.029,-89.029c-35.759,16.999 -78.3716,-0.654 -91.6428,-37.956c-9.7612,-27.446 -32.9793,-42.171 -57.1902,-44.182v-319.50099l6.03581,0.6347l6.00439,0.89938l5.9621,1.16406l5.909,1.42874l5.84509,1.69343l5.77036,1.95813l5.68483,2.22283l5.58848,2.48753l5.48133,2.75225l5.36336,3.01696l5.23458,3.28169l5.09499,3.54642l4.94459,3.81115l4.78338,4.07589l4.61136,4.34063l4.42852,4.60539l4.23488,4.87014l4.03042,5.13491l3.81515,5.39967l3.58907,5.66445l3.35219,5.92923l3.10449,6.19401l2.84597,6.4588l2.57665,6.7236l3.61541,9.11179l4.19481,8.68971l4.74282,8.25462l5.25943,7.80651l5.74464,7.34539l6.19847,6.87126l6.6209,6.38412l7.01193,5.88397l7.37158,5.37081l7.69982,4.84463l7.99668,4.30544l8.26214,3.75325l8.49621,3.18804l8.69888,2.60982l8.87016,2.01859l9.01005,1.41435l9.11854,0.79709l9.19564,0.16683l9.24135,-0.47645l9.25566,-1.13277l9.23858,-1.802l9.1901,-2.48434l9.11023,-3.17966l8.99897,-3.888l14.19678,-5.85922l8.36922,-2.44558v0.00303l5.8046,-1.69543l14.0696,-2.49832l13.8899,-0.93404l13.63326,0.55331l13.29971,1.96373l12.88921,3.29723l12.4018,4.5538l11.83745,5.73344l11.19617,6.83616l10.47797,7.86195l9.68284,8.81081l8.81077,9.68274l7.86178,10.47774l6.83586,11.19582l5.73301,11.83697l4.55323,12.40119l3.29653,12.88849l1.96289,13.29886l0.55233,13.63229l-0.93516,13.88881l-2.49959,14.06839l-1.69536,5.80183h-0.00303l-2.4441,8.36778l-5.85766,14.19822l-3.888,9.00053l-3.17966,9.11166l-2.48435,9.19139l-1.80199,9.23973l-1.13278,9.25668l-0.47645,9.24223l0.16682,9.19639l0.79708,9.11915l1.41433,9.01052l2.01857,8.8705l2.6098,8.69908l3.18801,8.49628l3.75321,8.26207l4.30541,7.99648l4.84458,7.69948l5.37075,7.3711l5.88391,7.01132l6.38405,6.62015l6.87119,6.19759l7.34531,5.74363l7.80642,5.25828l8.25451,4.74153l8.6896,4.19339l9.11167,3.61386l6.72354,2.57664l6.45864,2.84596l6.19375,3.10448l5.92889,3.35218l5.66405,3.58907l5.39923,3.81515l5.13443,4.03042l4.86966,4.23487l4.60491,4.42852l4.34017,4.61136l4.07546,4.78338l3.81077,4.94459l3.54611,5.09499l3.28146,5.23458l3.01684,5.36336l2.75224,5.48133l2.48766,5.58848l2.2231,5.68483l1.95856,5.77036l1.69405,5.84509l1.42956,5.909l1.16508,5.9621l0.90063,6.00439l0.63621,6.03586h-319.501c-2.018,-24.211 -16.736,-47.429 -44.182,-57.19z" fill="#ff4f00" fill-rule="nonzero"/><path d="M275.818,902.81c-37.302,-13.265 -54.955,-55.877 -37.956,-91.643c26.991,-56.787 -32.249,-116.026 -89.029,-89.029c-35.759,16.999 -78.3716,-0.654 -91.6428,-37.956c-9.7612,-27.446 -32.9793,-42.171 -57.1902,-44.182l-0.00001,320h320.00001c-2.018,-24.211 -16.736,-47.429 -44.182,-57.19z" fill="#ffa300" fill-rule="nonzero"/><path d="M928,960c0,-17.673 14.327,-32 32,-32c17.673,0 32,14.327 32,32zM864,960c0,-53.019 42.981,-96 96,-96c53.02,0 96,42.981 96,96h-32c0,-35.346 -28.654,-64 -64,-64c-35.346,0 -64,28.654 -64,64zM800,960c0,-88.366 71.634,-160 160,-160c88.37,0 160,71.634 160,160h-32c0,-70.692 -57.31,-128 -128,-128c-70.692,0 -128,57.308 -128,128zM736,960c0,-123.712 100.288,-224 224,-224c123.71,0 224,100.288 224,224h-32c0,-106.039 -85.96,-192 -192,-192c-106.039,0 -192,85.961 -192,192zM672,960c0,-159.058 128.942,-288 288,-288c159.06,0 288,128.942 288,288h-32c0,-141.385 -114.62,-256 -256,-256c-141.385,0 -256,114.615 -256,256zM803.65576,320h0.00303l1.69536,-5.80183l2.49959,-14.06839l0.93516,-13.88881l-0.55233,-13.63229l-1.96289,-13.29886l-3.29653,-12.88849l-4.55323,-12.40119l-5.73301,-11.83697l-6.83586,-11.19582l-7.86178,-10.47774l-8.81077,-9.68274l-9.68283,-8.81081l-10.47797,-7.86195l-11.19617,-6.83616l-11.83745,-5.73344l-12.4018,-4.5538l-12.88921,-3.29723l-13.2997,-1.96373l-13.63327,-0.55331l-13.8899,0.93404l-14.0696,2.49832l-5.80459,1.69543v-0.00303l-8.36922,2.44558l-14.19678,5.85922l-8.99897,3.888l-9.11023,3.17966l-9.1901,2.48434l-9.23858,1.802l-9.25566,1.13278l-9.24135,0.47645l-9.19564,-0.16683l-9.11854,-0.79709l-9.01005,-1.41434l-8.87016,-2.01858l-8.69888,-2.60981l-8.49621,-3.18803l-8.26214,-3.75323l-7.99668,-4.30542l-7.69982,-4.84461l-7.37157,-5.37078l-7.01193,-5.88394l-6.6209,-6.38409l-6.19847,-6.87122l-5.74464,-7.34535l-5.25943,-7.80646l-4.74282,-8.25456l-4.19481,-8.68966l-3.61541,-9.11174l-2.57664,-6.7236l-2.84596,-6.45881l-3.10448,-6.19402l-3.35218,-5.92923l-3.58907,-5.66446l-3.81515,-5.39969l-4.03042,-5.13492l-4.23487,-4.87016l-4.42852,-4.6054l-4.61136,-4.34065l-4.78338,-4.07591l-4.94459,-3.81117l-5.09499,-3.54644l-5.23458,-3.28171l-5.36336,-3.01699l-5.48133,-2.75227l-5.58848,-2.48756l-5.68483,-2.22285l-5.77036,-1.95815l-5.84509,-1.69346l-5.909,-1.42877l-5.9621,-1.16409l-6.00439,-0.89941l-6.03587,-0.63474v-0.49907h1280v0.49924l-6.03539,0.63473l-6.00395,0.89941l-5.9617,1.16408l-5.90864,1.42877l-5.84477,1.69346l-5.77009,1.95815l-5.68459,2.22285l-5.58828,2.48755l-5.48117,2.75227l-5.36324,3.01698l-5.2345,3.2817l-5.09494,3.54643l-4.94458,3.81116l-4.7834,4.07591l-4.61142,4.34065l-4.42861,4.6054l-4.235,4.87015l-4.03058,5.13492l-3.81535,5.39968l-3.5893,5.66446l-3.35244,5.92923l-3.10477,6.19402l-2.84629,6.45881l-2.577,6.7236l-3.61518,9.11172l-4.19462,8.68964l-4.74266,8.25456l-5.2593,7.80645l-5.74454,7.34534l-6.19839,6.87122l-6.62083,6.38408l-7.01188,5.88393l-7.37154,5.37077l-7.69979,4.8446l-7.99665,4.30542l-8.26211,3.75323l-8.49617,3.18802l-8.69884,2.6098l-8.8701,2.01858l-9.00998,1.41434l-9.11845,0.79709l-9.19552,0.16682l-9.2412,-0.47645l-9.25548,-1.13278l-9.23836,-1.802l-9.18985,-2.48434l-9.10993,-3.17966l-8.99862,-3.888l-14.1977,-5.85922l-14.17182,-4.14094l-14.06903,-2.49959l-13.88931,-0.93516l-13.63268,0.55233l-13.29913,1.96289l-12.88866,3.29653l-12.40128,4.55323l-11.83697,5.73301l-11.19575,6.83586l-10.47761,7.86178l-9.68254,8.81077l-8.81057,9.68284l-7.86167,10.47797l-6.83585,11.19617l-5.73312,11.83745l-4.55346,12.4018l-3.29689,12.88921l-1.9634,13.29971l-0.553,13.63326l0.93433,13.8899l2.49858,14.0696l4.13974,14.17237l5.85782,14.19822l3.88774,9.00053l3.1794,9.11165l2.48407,9.19139l1.80175,9.23973l1.13245,9.25667l0.47615,9.24223l-0.16713,9.19639l-0.7974,9.11915l-1.41465,9.01052l-2.0189,8.8705l-2.61013,8.69909l-3.18835,8.49628l-3.75356,8.26207l-4.30576,7.99648l-4.84494,7.69949l-5.37111,7.3711l-5.88427,7.01132l-6.38442,6.62015l-6.87155,6.19759l-7.34568,5.74363l-7.80679,5.25828l-8.25489,4.74153l-8.68998,4.19339l-9.11205,3.61386l-6.72306,2.57664l-6.4582,2.84596l-6.19335,3.10448l-5.92853,3.35218l-5.66372,3.58907l-5.39893,3.81515l-5.13417,4.03042l-4.86942,4.23487l-4.6047,4.42852l-4.33999,4.61136l-4.0753,4.78338l-3.81064,4.94459l-3.54599,5.09499l-3.28137,5.23458l-3.01676,5.36336l-2.75217,5.48133l-2.48761,5.58848l-2.22306,5.68483l-1.95854,5.77036l-1.69403,5.84509l-1.42954,5.909l-1.16508,5.9621l-0.90063,6.00439l-0.63621,6.03586h-0.998l-0.63621,-6.03586l-0.90063,-6.00439l-1.16508,-5.9621l-1.42956,-5.909l-1.69405,-5.84509l-1.95856,-5.77036l-2.2231,-5.68483l-2.48766,-5.58848l-2.75224,-5.48133l-3.01684,-5.36336l-3.28146,-5.23458l-3.54611,-5.09499l-3.81077,-4.94459l-4.07546,-4.78338l-4.34017,-4.61136l-4.60491,-4.42852l-4.86966,-4.23487l-5.13443,-4.03042l-5.39923,-3.81515l-5.66405,-3.58907l-5.92889,-3.35218l-6.19375,-3.10448l-6.45864,-2.84596l-6.72354,-2.57664l-9.11167,-3.61386l-8.6896,-4.19339l-8.25451,-4.74153l-7.80642,-5.25828l-7.34531,-5.74363l-6.87119,-6.19759l-6.38405,-6.62015l-5.88391,-7.01132l-5.37075,-7.3711l-4.84458,-7.69949l-4.30541,-7.99648l-3.75321,-8.26207l-3.18801,-8.49628l-2.6098,-8.69909l-2.01857,-8.8705l-1.41433,-9.01052l-0.79708,-9.11915l-0.16682,-9.19639l0.47645,-9.24223l1.13278,-9.25667l1.80199,-9.23973l2.48434,-9.19139l3.17966,-9.11165l3.888,-9.00053l5.85766,-14.19822z" fill="#121212" fill-rule="evenodd"/><path d="M1436.34796,640l2.44422,8.36778l5.85782,14.19822l3.88774,9.00053l3.1794,9.11166l2.48407,9.19139l1.80175,9.23973l1.13245,9.25668l0.47615,9.24223l-0.16713,9.19639l-0.7974,9.11915l-1.41465,9.01052l-2.0189,8.8705l-2.61013,8.69908l-3.18835,8.49628l-3.75356,8.26207l-4.30576,7.99648l-4.84494,7.69948l-5.37111,7.3711l-5.88427,7.01132l-6.38442,6.62015l-6.87155,6.19759l-7.34568,5.74363l-7.80679,5.25828l-8.25489,4.74153l-8.68998,4.19339l-9.11205,3.61386l-6.72261,2.57664l-6.45783,2.84596l-6.19306,3.10448l-5.92831,3.35218l-5.66357,3.58907l-5.39884,3.81515l-5.13413,4.03042l-4.86943,4.23487l-4.60474,4.42852l-4.34007,4.61136l-4.07541,4.78338l-3.81076,4.94459l-3.54612,5.09499l-3.2815,5.23458l-3.01689,5.36336l-2.75229,5.48133l-2.48771,5.58848l-2.22314,5.68483l-1.95858,5.77036l-1.69404,5.84509l-1.42951,5.909l-1.16499,5.9621l-0.90048,6.00439l-0.63599,6.03586h-32.5c0,-159.058 -128.94,-288 -288,-288c-159.058,0 -288,128.942 -288,288h-32.499l-0.63621,-6.03586l-0.90063,-6.00439l-1.16508,-5.9621l-1.42956,-5.909l-1.69405,-5.84509l-1.95856,-5.77036l-2.2231,-5.68483l-2.48766,-5.58848l-2.75224,-5.48133l-3.01684,-5.36336l-3.28146,-5.23458l-3.54611,-5.09499l-3.81077,-4.94459l-4.07546,-4.78338l-4.34017,-4.61136l-4.60491,-4.42852l-4.86966,-4.23487l-5.13443,-4.03042l-5.39923,-3.81515l-5.66405,-3.58907l-5.92889,-3.35218l-6.19375,-3.10448l-6.45864,-2.84596l-6.72354,-2.57664l-9.11167,-3.61386l-8.6896,-4.19339l-8.25451,-4.74153l-7.80642,-5.25828l-7.34531,-5.74363l-6.87119,-6.19759l-6.38405,-6.62015l-5.88391,-7.01132l-5.37075,-7.3711l-4.84458,-7.69948l-4.30541,-7.99648l-3.75321,-8.26207l-3.18801,-8.49628l-2.6098,-8.69908l-2.01857,-8.8705l-1.41433,-9.01052l-0.79708,-9.11915l-0.16682,-9.19639l0.47645,-9.24223l1.13278,-9.25668l1.80199,-9.23973l2.48435,-9.19139l3.17966,-9.11166l3.888,-9.00053l5.85766,-14.19822l2.4441,-8.36778h156.34424v-320h-320v156.3412l-8.36922,2.44558l-14.19678,5.85922l-8.99897,3.888l-9.11023,3.17966l-9.1901,2.48434l-9.23858,1.802l-9.25566,1.13277l-9.24135,0.47645l-9.19564,-0.16683l-9.11854,-0.79709l-9.01005,-1.41435l-8.87016,-2.01859l-8.69888,-2.60982l-8.49621,-3.18804l-8.26214,-3.75325l-7.99668,-4.30544l-7.69982,-4.84463l-7.37158,-5.37081l-7.01193,-5.88397l-6.6209,-6.38412l-6.19847,-6.87126l-5.74464,-7.34539l-5.25943,-7.80651l-4.74282,-8.25462l-4.19481,-8.68971l-3.61541,-9.11179l-2.57665,-6.7236l-2.84597,-6.4588l-3.10449,-6.19401l-3.35219,-5.92923l-3.58907,-5.66445l-3.81515,-5.39967l-4.03042,-5.13491l-4.23488,-4.87014l-4.42852,-4.60539l-4.61136,-4.34063l-4.78338,-4.07589l-4.94459,-3.81115l-5.09499,-3.54642l-5.23458,-3.28169l-5.36336,-3.01696l-5.48133,-2.75225l-5.58848,-2.48753l-5.68483,-2.22283l-5.77036,-1.95813l-5.84509,-1.69343l-5.909,-1.42874l-5.9621,-1.16406l-6.00439,-0.89938l-6.03581,-0.6347v-320.49901h320v0.49907l6.03587,0.63474l6.00439,0.89941l5.9621,1.16409l5.909,1.42877l5.84509,1.69346l5.77036,1.95815l5.68483,2.22285l5.58848,2.48756l5.48133,2.75227l5.36336,3.01699l5.23458,3.28171l5.09499,3.54644l4.94459,3.81117l4.78338,4.07591l4.61136,4.34065l4.42852,4.6054l4.23487,4.87016l4.03042,5.13492l3.81515,5.39969l3.58907,5.66446l3.35218,5.92923l3.10448,6.19402l2.84596,6.45881l2.57664,6.7236l3.61541,9.11174l4.19481,8.68966l4.74282,8.25457l5.25943,7.80646l5.74464,7.34535l6.19847,6.87122l6.6209,6.38409l7.01193,5.88394l7.37157,5.37078l7.69982,4.84461l7.99668,4.30542l8.26214,3.75323l8.49621,3.18803l8.69888,2.60981l8.87016,2.01858l9.01005,1.41434l9.11854,0.79709l9.19564,0.16683l9.24135,-0.47645l9.25566,-1.13278l9.23858,-1.802l9.1901,-2.48434l9.11023,-3.17966l8.99897,-3.888l14.19678,-5.85922l8.36922,-2.44558v0.00303l5.80459,-1.69543l14.0696,-2.49832l13.8899,-0.93404l13.63327,0.55331l13.2997,1.96373l12.88921,3.29723l12.4018,4.5538l11.83745,5.73344l11.19617,6.83616l10.47797,7.86195l9.68283,8.81081l8.81077,9.68274l7.86178,10.47774l6.83586,11.19582l5.73301,11.83697l4.55323,12.40119l3.29653,12.88849l1.96289,13.29886l0.55233,13.63229l-0.93516,13.88881l-2.49959,14.06839l-1.69536,5.80183h-0.00303l-2.4441,8.36778l-5.85766,14.19822l-3.888,9.00053l-3.17966,9.11165l-2.48434,9.19139l-1.80199,9.23973l-1.13278,9.25667l-0.47645,9.24223l0.16682,9.19639l0.79708,9.11915l1.41433,9.01052l2.01857,8.8705l2.6098,8.69909l3.18801,8.49628l3.75321,8.26207l4.30541,7.99648l4.84458,7.69949l5.37075,7.3711l5.88391,7.01132l6.38405,6.62015l6.87119,6.19759l7.34531,5.74363l7.80642,5.25828l8.25451,4.74153l8.6896,4.19339l9.11167,3.61386l6.72354,2.57664l6.45864,2.84596l6.19375,3.10448l5.92889,3.35218l5.66405,3.58907l5.39923,3.81515l5.13443,4.03042l4.86966,4.23487l4.60491,4.42852l4.34017,4.61136l4.07546,4.78338l3.81077,4.94459l3.54611,5.09499l3.28146,5.23458l3.01684,5.36336l2.75224,5.48133l2.48766,5.58848l2.2231,5.68483l1.95856,5.77036l1.69405,5.84509l1.42956,5.909l1.16508,5.9621l0.90063,6.00439l0.63621,6.03586h0.998l0.63621,-6.03586l0.90063,-6.00439l1.16508,-5.9621l1.42954,-5.909l1.69403,-5.84509l1.95854,-5.77036l2.22306,-5.68483l2.48761,-5.58848l2.75217,-5.48133l3.01676,-5.36336l3.28137,-5.23458l3.54599,-5.09499l3.81064,-4.94459l4.0753,-4.78338l4.33999,-4.61136l4.6047,-4.42852l4.86942,-4.23487l5.13417,-4.03042l5.39893,-3.81515l5.66372,-3.58907l5.92853,-3.35218l6.19335,-3.10448l6.4582,-2.84596l6.72306,-2.57664l9.11205,-3.61386l8.68998,-4.19339l8.25489,-4.74153l7.80679,-5.25828l7.34568,-5.74363l6.87155,-6.19759l6.38442,-6.62015l5.88427,-7.01132l5.37111,-7.3711l4.84494,-7.69949l4.30576,-7.99648l3.75356,-8.26207l3.18835,-8.49628l2.61013,-8.69909l2.0189,-8.8705l1.41465,-9.01052l0.7974,-9.11915l0.16713,-9.19639l-0.47615,-9.24223l-1.13245,-9.25667l-1.80175,-9.23973l-2.48407,-9.19139l-3.1794,-9.11165l-3.88774,-9.00053l-5.85782,-14.19822l-4.13974,-14.17237l-2.49858,-14.0696l-0.93433,-13.8899l0.553,-13.63326l1.9634,-13.29971l3.29689,-12.88921l4.55346,-12.4018l5.73312,-11.83745l6.83585,-11.19617l7.86167,-10.47797l8.81057,-9.68284l9.68254,-8.81077l10.47761,-7.86178l11.19575,-6.83586l11.83697,-5.73301l12.40128,-4.55323l12.88866,-3.29653l13.29913,-1.96289l13.63268,-0.55233l13.88931,0.93516l14.06903,2.49959l14.17182,4.14094l14.1977,5.85922l8.99862,3.888l9.10993,3.17966l9.18985,2.48434l9.23836,1.802l9.25548,1.13278l9.2412,0.47645l9.19552,-0.16682l9.11845,-0.79709l9.00998,-1.41434l8.8701,-2.01858l8.69884,-2.6098l8.49617,-3.18802l8.26211,-3.75323l7.99665,-4.30542l7.69979,-4.8446l7.37154,-5.37077l7.01188,-5.88393l6.62083,-6.38408l6.19839,-6.87122l5.74454,-7.34534l5.2593,-7.80645l4.74266,-8.25456l4.19462,-8.68964l3.61518,-9.11172l2.577,-6.7236l2.84629,-6.45881l3.10477,-6.19402l3.35244,-5.92923l3.5893,-5.66446l3.81535,-5.39968l4.03058,-5.13492l4.235,-4.87015l4.42861,-4.6054l4.61142,-4.34065l4.7834,-4.07591l4.94458,-3.81116l5.09494,-3.54643l5.2345,-3.2817l5.36324,-3.01698l5.48117,-2.75227l5.58828,-2.48755l5.68459,-2.22285l5.77009,-1.95815l5.84477,-1.69346l5.90864,-1.42877l5.9617,-1.16408l6.00395,-0.89941l6.03539,-0.63473v-0.49924h320v320.499l-6.03539,0.63471l-6.00395,0.89938l-5.9617,1.16406l-5.90864,1.42874l-5.84477,1.69343l-5.77009,1.95813l-5.68459,2.22283l-5.58828,2.48753l-5.48117,2.75225l-5.36324,3.01696l-5.2345,3.28169l-5.09494,3.54642l-4.94458,3.81115l-4.7834,4.07589l-4.61142,4.34063l-4.42861,4.60539l-4.235,4.87014l-4.03058,5.13491l-3.81535,5.39967l-3.5893,5.66445l-3.35244,5.92923l-3.10477,6.19401l-2.84629,6.4588l-2.577,6.7236l-3.61518,9.11179l-4.19462,8.68971l-4.74266,8.25462l-5.2593,7.80651l-5.74454,7.34539l-6.19839,6.87126l-6.62083,6.38412l-7.01188,5.88397l-7.37154,5.37081l-7.69979,4.84463l-7.99665,4.30544l-8.26211,3.75325l-8.49617,3.18804l-8.69884,2.60982l-8.8701,2.01859l-9.00998,1.41435l-9.11845,0.79709l-9.19552,0.16683l-9.2412,-0.47645l-9.25548,-1.13277l-9.23836,-1.802l-9.18985,-2.48434l-9.10993,-3.17966l-8.99862,-3.888l-14.1977,-5.85922l-8.3723,-2.44634v0.00296l-5.80201,-1.69459l-14.07024,-2.49832l-13.89049,-0.93404l-13.6338,0.55331l-13.30019,1.96373l-12.88964,3.29723l-12.40216,4.5538l-11.83775,5.73344l-11.19641,6.83616l-10.47814,7.86195l-9.68293,8.81081l-8.8108,9.68274l-7.86173,10.47774l-6.83573,11.19582l-5.7328,11.83697l-4.55294,12.40119l-3.29615,12.88849l-1.96243,13.29886l-0.55177,13.63229l0.93582,13.88881l2.50033,14.06839l1.6957,5.80183zM736,960h-32c0,-141.385 114.615,-256 256,-256c141.38,0 256,114.615 256,256h-32c0,-123.712 -100.29,-224 -224,-224c-123.712,0 -224,100.288 -224,224zM800,960h-32c0,-106.039 85.961,-192 192,-192c106.04,0 192,85.961 192,192h-32c0,-88.366 -71.63,-160 -160,-160c-88.366,0 -160,71.634 -160,160zM864,960h-32c0,-70.692 57.308,-128 128,-128c70.69,0 128,57.308 128,128h-32c0,-53.019 -42.98,-96 -96,-96c-53.019,0 -96,42.981 -96,96zM928,960h-32c0,-35.346 28.654,-64 64,-64c35.346,0 64,28.654 64,64h-32c0,-17.673 -14.327,-32 -32,-32c-17.673,0 -32,14.327 -32,32z" fill="#d9d9d6" fill-rule="nonzero"/></g></svg>