<svg xmlns="http://www.w3.org/2000/svg" width="1920" height="960" viewBox="0 0 1920 960"><g xmlns="http://www.w3.org/2000/svg" fill="none" fill-rule="none" stroke="none" stroke-width="1" stroke-linecap="butt" stroke-linejoin="miter" stroke-miterlimit="10" stroke-dasharray="" stroke-dashoffset="0" font-family="none" font-weight="none" font-size="none" text-anchor="none" style="mix-blend-mode: normal"><path d="M1248,960c0,-17.673 14.33,-32 32,-32h320c17.67,0 32,14.327 32,32zM1216,960h-32c0,-53.019 42.98,-96 96,-96h320c53.02,0 96,42.981 96,96h-32c0,-35.346 -28.65,-64 -64,-64h-320c-35.35,0 -64,28.654 -64,64zM1152,960h-32c0,-88.366 71.63,-160 160,-160h320c88.37,0 160,71.634 160,160h-32c0,-70.692 -57.31,-128 -128,-128h-320c-70.69,0 -128,57.308 -128,128zM1088,960h-32c0,-123.712 100.29,-224 224,-224h320c123.71,0 224,100.288 224,224h-32c0,-106.039 -85.96,-192 -192,-192h-320c-106.04,0 -192,85.961 -192,192zM1024,960h-32c0,-159.058 128.94,-288 288,-288h320c159.06,0 288,128.942 288,288h-32c0,-141.385 -114.62,-256 -256,-256h-320c-141.38,0 -256,114.615 -256,256zM640,640.013c-176.667,0 -320,143.789 -320,319.987h-0.013c0,-176.667 -143.789,-320 -319.987,-320l0,-0.013c176.667,0 320,-143.789 320,-319.98699v-0.01301c176.667,0 320,-143.789 320,-319.987l0.013,0c0,176.667 143.789,320 319.987,320v-0.013c176.67,0 320,-143.789 320,-319.987l0.01,0c0,176.667 143.79,320 319.99,320h0.01c0,176.667 143.79,320 319.99,320c-4.29374,0 -5.20278,0 0,0v320h-0.01c0,-176.667 -143.79,-320 -319.99,-320h-53.33c0,-58.91 -47.76,-106.667 -106.67,-106.667c-58.91,0 -106.67,47.757 -106.67,106.667h-53.33v0.013c-176.67,0 -320,143.789 -320,319.98699v0.00001h-0.013c0,-176.667 -143.789,-320 -319.987,-320zM800,520c22.09139,0 40,-17.90861 40,-40c0,-22.09139 -17.90861,-40 -40,-40c-22.09139,0 -40,17.90861 -40,40c0,22.09139 17.90861,40 40,40zM1568,0l32.09532,0c176.15653,0.05169 319.89468,143.36486 319.89468,320h0.01v32c-17.67,0 -32,-14.327 -32,-32c0,-159.058 -128.94,-288 -288,-288c-17.67,0 -32,-14.3269 -32,-32zM1536,0c0,35.3462 28.65,64 64,64c141.38,0 256,114.615 256,256c0,35.346 28.65,64 64,64v32c-53.02,0 -96,-42.981 -96,-96c0,-123.712 -100.29,-224 -224,-224c-53.02,0 -96,-42.9807 -96,-96zM1472,0c0,70.6925 57.31,128 128,128c106.04,0 192,85.961 192,192c0,70.692 57.31,128 128,128v32c-88.37,0 -160,-71.634 -160,-160c0,-88.366 -71.63,-160 -160,-160c-88.37,0 -160,-71.6344 -160,-160zM1408,0c0,106.039 85.96,192 192,192c70.69,0 128,57.308 128,128c0,106.039 85.96,192 192,192v32c-123.71,0 -224,-100.288 -224,-224c0,-53.019 -42.98,-96 -96,-96c-123.71,0 -224,-100.288 -224,-224zM1344,0c0,141.385 114.62,256 256,256c35.35,0 64,28.654 64,64c0,141.385 114.62,256 256,256v32c-159.06,0 -288,-128.942 -288,-288c0,-17.673 -14.33,-32 -32,-32c-159.06,0 -288,-128.942 -288,-288zM992,0.00001c0,17.67309 -14.327,31.99999 -32,31.99999c-17.673,0 -32,-14.3269 -32,-32h32v0zM1024,0l32,0c0,53.0193 -42.98,96 -96,96c-53.019,0 -96,-42.9807 -96,-96h32c0,35.3462 28.654,64 64,64c35.346,0 64,-28.6538 64,-64zM1088,0.00002l32,0c0,88.36558 -71.63,159.99998 -160,159.99998c-88.366,0 -160,-71.6344 -160,-160h32c0,70.6925 57.308,128 128,128c70.69,0 128,-57.3075 128,-127.99998zM1152,0.00004l32,0c0,123.71196 -100.29,223.99996 -224,223.99996c-123.712,0 -224,-100.288 -224,-224h32c0,106.039 85.961,192 192,192c106.04,0 192,-85.961 192,-191.99996zM1216,0.00003l32,0c0,159.05796 -128.94,287.99996 -288,287.99996c-159.058,0 -288,-128.942 -288,-288h32c0,141.385 114.615,256 256,256c141.38,0 256,-114.615 256,-255.99997zM608,960c0,-17.673 14.327,-32 32,-32c17.673,0 32,14.327 32,32zM576,960h-32c0,-53.019 42.981,-96 96,-96c53.019,0 96,42.981 96,96h-32c0,-35.346 -28.654,-64 -64,-64c-35.346,0 -64,28.654 -64,64zM512,960h-32c0,-88.366 71.634,-160 160,-160c88.366,0 160,71.634 160,160h-32c0,-70.692 -57.308,-128 -128,-128c-70.692,0 -128,57.308 -128,128zM448,960h-32c0,-123.712 100.288,-224 224,-224c123.712,0 224,100.288 224,224h-32c0,-106.039 -85.961,-192 -192,-192c-106.039,0 -192,85.961 -192,192zM384,960h-32c0,-159.058 128.942,-288 288,-288c159.058,0 288,128.942 288,288h-32c0,-141.385 -114.615,-256 -256,-256c-141.385,0 -256,114.615 -256,256zM352,0.00001c0,17.67309 -14.327,31.99999 -32,31.99999h-320l0,-31.99999l320,-0.00001v0zM384,0l32,0c0,53.0193 -42.981,96 -96,96h-320l0,-32h320c35.346,0 64,-28.6538 64,-64zM448,0.00002l32,0c0,88.36558 -71.634,159.99998 -160,159.99998h-320l0,-32h320c70.692,0 128,-57.3075 128,-127.99998zM512,0.00004l32,0c0,123.71196 -100.288,223.99996 -224,223.99996h-320l0,-32h320c106.039,0 192,-85.961 192,-191.99996zM576,0.00003l32,0c0,159.05796 -128.942,287.99996 -288,287.99996h-320l0,-32h320c141.385,0 256,-114.615 256,-255.99997zM1920,640c116.07634,0 20.28104,0 0,0zM0,352l0,-32h32c0,17.673 -14.3269,32 -32,32zM0,384c35.3462,0 64,-28.654 64,-64h32c0,53.019 -42.9807,96 -96,96zM0,448c70.6925,0 128,-57.308 128,-128h32c0,88.366 -71.6344,160 -160,160zM0,512c106.039,0 192,-85.961 192,-192h32c0,123.712 -100.288,224 -224,224zM0,576c141.385,0 256,-114.615 256,-256h32c0,159.058 -128.942,288 -288,288zM32,960h-32l0,-32c17.6731,0 32,14.327 32,32zM64,960c0,-35.346 -28.6538,-64 -64,-64l0,-32c53.0193,0 96,42.981 96,96zM128,960c0,-70.692 -57.3075,-128 -127.99999,-128l0,-32c88.36559,0 159.99999,71.634 159.99999,160zM192,960c0,-106.039 -85.961,-192 -191.99997,-192l0,-32c123.71197,0 223.99997,100.288 223.99997,224zM256,960c0,-141.385 -114.615,-256 -255.99998,-256l0,-32c159.05797,0 287.99997,128.942 287.99997,288z" fill="#121212" fill-rule="evenodd"/><path d="M992,960h-32c0,-176.198 143.33,-319.987 320,-319.987v-0.013c0,0 182.39606,0 320,0c176.2,0 319.99,143.333 319.99,320h-31.99c0,-159.058 -128.94,-288 -288,-288h-320c-159.06,0 -288,128.942 -288,288zM1056,960h-32c0,-141.385 114.62,-256 256,-256h320c141.38,0 256,114.615 256,256h-32c0,-123.712 -100.29,-224 -224,-224h-320c-123.71,0 -224,100.288 -224,224zM1120,960h-32c0,-106.039 85.96,-192 192,-192l320,0c106.04,0 192,85.961 192,192h-32c0,-88.366 -71.63,-160 -160,-160h-320c-88.37,0 -160,71.634 -160,160zM1184,960h-32c0,-70.692 57.31,-128 128,-128h320c70.69,0 128,57.308 128,128h-32c0,-53.019 -42.98,-96 -96,-96h-320c-53.02,0 -96,42.981 -96,96zM1248,960h-32c0,-35.346 28.65,-64 64,-64l320,0c35.35,0 64,28.654 64,64h-32c0,-17.673 -14.33,-32 -32,-32h-320c-17.67,0 -32,14.327 -32,32zM1280.01,0h31.99c0,159.058 128.94,288 288,288c17.67,0 32,14.327 32,32c0,159.058 128.94,288 288,288v32c-176.2,0 -319.99,-143.333 -319.99,-320h-0.01c-176.2,0 -319.99,-143.333 -319.99,-320zM1344,0h32c0,123.712 100.29,224 224,224c53.02,0 96,42.981 96,96c0,123.712 100.29,224 224,224v32c-141.38,0 -256,-114.615 -256,-256c0,-35.346 -28.65,-64 -64,-64c-141.38,0 -256,-114.615 -256,-256zM1408,0h32c0,88.3656 71.63,160 160,160c88.37,0 160,71.634 160,160c0,88.366 71.63,160 160,160v32c-106.04,0 -192,-85.961 -192,-192c0,-70.692 -57.31,-128 -128,-128c-106.04,0 -192,-85.961 -192,-192zM1472,0h32c0,53.0193 42.98,96 96,96c123.71,0 224,100.288 224,224c0,53.019 42.98,96 96,96v32c-70.69,0 -128,-57.308 -128,-128c0,-106.039 -85.96,-192 -192,-192c-70.69,0 -128,-57.3075 -128,-128zM1536,0h32c0,17.6731 14.33,32 32,32c159.06,0 288,128.942 288,288c0,17.673 14.33,32 32,32v32c-35.35,0 -64,-28.654 -64,-64c0,-141.385 -114.62,-256 -256,-256c-35.35,0 -64,-28.6538 -64,-64zM960,0h320c0,176.198 -143.33,319.987 -320,319.987v0.013c-176.198,0 -319.987,-143.333 -319.987,-320h31.987c0,159.058 128.942,288 288,288c159.06,0 288,-128.942 288,-287.99996l-32,0c0,141.38497 -114.62,255.99997 -256,255.99997c-141.385,0 -256,-114.615 -256,-256h32c0,123.712 100.288,224 224,224c123.71,0 224,-100.288 224,-223.99996l-32,0c0,106.03896 -85.96,191.99996 -192,191.99996c-106.039,0 -192,-85.961 -192,-192h32c0,88.3656 71.634,160 160,160c88.37,0 160,-71.6344 160,-159.99998l-32,0c0,70.69248 -57.31,127.99998 -128,127.99998c-70.692,0 -128,-57.3075 -128,-128h32c0,53.0193 42.981,96 96,96c53.02,0 96,-42.9807 96,-96l-32,0c0,35.3462 -28.654,64 -64,64c-35.346,0 -64,-28.6538 -64,-64h32c0,17.6731 14.327,32 32,32c17.673,0 32,-14.3269 32,-31.99999l-32,0zM352,960h-32c0,-176.198 143.333,-319.987 320,-319.987v-0.013c176.198,0 319.987,143.333 319.987,320l-31.987,0c0,-159.058 -128.942,-288 -288,-288c-159.058,0 -288,128.942 -288,288zM416,960h-32c0,-141.385 114.615,-256 256,-256c141.385,0 256,114.615 256,256h-32c0,-123.712 -100.288,-224 -224,-224c-123.712,0 -224,100.288 -224,224zM480,960h-32c0,-106.039 85.961,-192 192,-192c106.039,0 192,85.961 192,192h-32c0,-88.366 -71.634,-160 -160,-160c-88.366,0 -160,71.634 -160,160zM544,960h-32c0,-70.692 57.308,-128 128,-128c70.692,0 128,57.308 128,128h-32c0,-53.019 -42.981,-96 -96,-96c-53.019,0 -96,42.981 -96,96zM608,960h-32c0,-35.346 28.654,-64 64,-64c35.346,0 64,28.654 64,64h-32c0,-17.673 -14.327,-32 -32,-32c-17.673,0 -32,14.327 -32,32zM320,0h320c0,176.198 -143.333,319.987 -320,319.987v0.013c0,176.198 -143.333,319.987 -320,319.987v-639.987h320l-320,0.00001l0,31.99999h320c17.673,0 32,-14.3269 32,-31.99999l-32,0zM608,0.00004l-32,0c0,141.38497 -114.615,255.99997 -256,255.99997h-320l0,32h320c159.058,0 288,-128.942 288,-287.99996zM544,0.00004l-32,0c0,106.03896 -85.961,191.99996 -192,191.99996h-320l0,32h320c123.712,0 224,-100.288 224,-223.99996zM480,0.00002l-32,0c0,70.69248 -57.308,127.99998 -128,127.99998l-320,0l0,32h320c88.366,0 160,-71.6344 160,-159.99998zM416,0l-32,0c0,35.3462 -28.654,64 -64,64l-320,0l0,32h320c53.019,0 96,-42.9807 96,-96zM0,352c17.6731,0 32,-14.327 32,-32h-32zM0,384l0,32c53.0193,0 96,-42.981 96,-96h-32c0,35.346 -28.6538,64 -64,64zM0,448l0,32c88.3656,0 160,-71.634 160,-160h-32c0,70.692 -57.3075,128 -128,128zM0,512l0,32c123.712,0 224,-100.288 224,-224h-32c0,106.039 -85.961,192 -192,192zM0,576l0,32c159.058,0 288,-128.942 288,-288h-32c0,141.385 -114.615,256 -256,256zM0,960l0,-64c35.3462,0 64,28.654 64,64h-32c0,-17.673 -14.3269,-32 -32,-32l0,32zM0,864l0,8.72989v-232.72989c176.198,0 319.987,143.333 319.987,320h-31.987c0,-159.058 -128.942,-288 -287.99997,-288l0,32c141.38498,0 255.99998,114.615 255.99998,256h-32c0,-123.712 -100.288,-224 -223.99997,-224l0,32c106.03897,0 191.99997,85.961 191.99997,192h-32c0,-88.366 -71.6344,-160 -159.99999,-160l0,32c70.69249,0 127.99999,57.308 127.99999,128h-32c0,-53.019 -42.9807,-96 -96,-96z" fill="#f3f3f3" fill-rule="nonzero"/><path d="M760,480c0,-22.09139 17.90861,-40 40,-40c22.09139,0 40,17.90861 40,40c0,22.09139 -17.90861,40 -40,40c-22.09139,0 -40,-17.90861 -40,-40zM1600,-0.00001l320,0.00001v320h-0.01c0,-176.667 -143.79,-320.00001 -319.99,-320.00001z" fill="#ff4f00" fill-rule="nonzero"/><path d="M1440,533.333c-58.91,0 -106.67,47.757 -106.67,106.667c0,0 154.43,0 213.34,0c0,-58.91 -47.76,-106.667 -106.67,-106.667z" fill="#4997d0" fill-rule="nonzero"/></g></svg>