<svg xmlns="http://www.w3.org/2000/svg" width="1920" height="960" viewBox="0 0 1920 960"><g xmlns="http://www.w3.org/2000/svg" fill="none" fill-rule="nonzero" stroke="none" stroke-width="1" stroke-linecap="butt" stroke-linejoin="miter" stroke-miterlimit="10" stroke-dasharray="" stroke-dashoffset="0" font-family="none" font-weight="none" font-size="none" text-anchor="none" style="mix-blend-mode: normal"><path d="M1600,0v0.00001l320,-0.00001v32h-640c-17.67,0 -32,-14.3269 -32,-32h32v0.00001zM1280,288c-159.06,0 -288,-128.942 -288,-288h32c0,141.385 114.62,256 256,256h640v32zM1280,96c-53.02,0 -96,-42.9807 -96,-96h32c0,35.3462 28.65,64 64,64h640v32zM1280,160c-88.37,0 -160,-71.6344 -160,-160h32c0,70.6925 57.31,128 128,128h422.39c12.72,0 23.62,-8.621 33.85,-16.183c6.65,-4.913 14.86,-7.817 23.76,-7.817c8.9,0 17.11,2.904 23.76,7.817c10.23,7.562 21.13,16.183 33.85,16.183h102.39v32h-102.39c-12.72,0 -23.62,8.621 -33.85,16.183c-6.65,4.913 -14.86,7.817 -23.76,7.817c-8.9,0 -17.11,-2.904 -23.76,-7.817c-10.23,-7.562 -21.13,-16.183 -33.85,-16.183zM1280,224c-123.71,0 -224,-100.288 -224,-224h32c0,106.039 85.96,192 192,192h640v32zM928,640c0,-17.673 14.327,-32 32,-32c17.673,0 32,14.327 32,32zM896,640h-32c0,-53.019 42.981,-96 96,-96c53.02,0 96,42.981 96,96h-32c0,-35.346 -28.654,-64 -64,-64c-35.346,0 -64,28.654 -64,64zM832,640h-32c0,-88.366 71.634,-160 160,-160c88.37,0 160,71.634 160,160h-32c0,-70.692 -57.31,-128 -128,-128c-70.692,0 -128,57.308 -128,128zM768,640h-32c0,-123.712 100.288,-224 224,-224c123.71,0 224,100.288 224,224h-32c0,-106.039 -85.96,-192 -192,-192c-106.039,0 -192,85.961 -192,192zM704,640h-32c0,-159.058 128.942,-288 288,-288c159.06,0 288,128.942 288,288h-32c0,-141.385 -114.62,-256 -256,-256c-141.385,0 -256,114.615 -256,256zM870.412,768c-2.638,0 -4.178,3.041 -2.767,5.27c0.501,0.792 0.989,1.594 1.463,2.405c7.683,13.138 20.229,24.325 35.449,24.325h375.443c88.37,0 160,71.634 160,160h-32c0,-70.692 -57.31,-128 -128,-128h-375.443c-15.22,0 -27.766,11.187 -35.449,24.325c-0.474,0.811 -0.962,1.613 -1.463,2.405c-1.411,2.229 0.129,5.27 2.767,5.27h409.588c53.02,0 96,42.981 96,96h-32c0,-35.346 -28.65,-64 -64,-64h-640c-35.346,0 -64,28.654 -64,64h-32c0,-53.019 42.981,-96 96,-96h89.588c2.638,0 4.178,-3.041 2.767,-5.27c-0.501,-0.792 -0.989,-1.594 -1.463,-2.405c-7.683,-13.138 -20.229,-24.325 -35.449,-24.325h-55.443c-70.692,0 -128,57.308 -128,128h-32c0,-88.366 71.634,-160 160,-160h55.443c15.22,0 27.766,-11.187 35.449,-24.325c0.474,-0.811 0.962,-1.613 1.463,-2.405c1.411,-2.229 -0.129,-5.27 -2.767,-5.27h-89.588c-106.039,0 -192,85.961 -192,192h-32c0,-123.712 100.288,-224 224,-224h412.37c20.74,0 40.49,-16 61.23,-16c20.74,0 40.49,16 61.23,16h105.17c123.71,0 224,100.288 224,224h-32c0,-106.039 -85.96,-192 -192,-192h-105.17c-20.74,0 -40.49,16 -61.23,16c-20.74,0 -40.49,-16 -61.23,-16zM608,960c0,-17.673 14.327,-32 32,-32h640c17.67,0 32,14.327 32,32zM640,704c-141.385,0 -256,114.615 -256,256h-32c0,-159.058 128.942,-288 288,-288h476.37c20.74,0 40.49,-16 61.23,-16c20.74,0 40.49,16 61.23,16h41.17c159.06,0 288,128.942 288,288h-32c0,-141.385 -114.62,-256 -256,-256h-41.17c-20.74,0 -40.49,16 -61.23,16c-20.74,0 -40.49,-16 -61.23,-16zM-0.00003,640l0.00003,-320h32v320c0,17.673 -14.3269,32 -32,32l0,-32zM256,320h32v320c0,159.058 -128.942,288 -288,288l0,-32c141.385,0 256,-114.615 256,-256zM111.817,456.242c7.562,-10.227 16.183,-21.134 16.183,-33.853v-102.389h32v102.389c0,12.719 8.621,23.626 16.183,33.853c4.913,6.643 7.817,14.861 7.817,23.758c0,8.897 -2.904,17.115 -7.817,23.758c-7.562,10.227 -16.183,21.134 -16.183,33.853v102.389c0,88.366 -71.6344,160 -160,160l0,-32c70.6925,0 128,-57.308 128,-128v-102.389c0,-12.719 -8.621,-23.626 -16.183,-33.853c-4.913,-6.643 -7.817,-14.861 -7.817,-23.758c0,-8.897 2.904,-17.115 7.817,-23.758zM64,320h32v320c0,53.019 -42.9807,96 -96,96l0,-32c35.3462,0 64,-28.654 64,-64zM192,320h32v320c0,123.712 -100.288,224 -224,224l0,-32c106.039,0 192,-85.961 192,-192zM352,320c0,17.673 -14.327,32 -32,32v-32zM384,320h32c0,53.019 -42.981,96 -96,96v-32c35.346,0 64,-28.654 64,-64zM448,320h32c0,88.366 -71.634,160 -160,160v-32c70.692,0 128,-57.308 128,-128zM512,320h32c0,123.712 -100.288,224 -224,224v-32c106.039,0 192,-85.961 192,-192zM576,320h32c0,159.058 -128.942,288 -288,288v-32c141.385,0 256,-114.615 256,-256zM1920,320v32h-320c-17.67,0 -32,-14.327 -32,-32zM1920,576v32h-320c-159.06,0 -288,-128.942 -288,-288h32c0,141.385 114.62,256 256,256zM1920,384v32h-320c-53.02,0 -96,-42.981 -96,-96h32c0,35.346 28.65,64 64,64zM1920,448v32h-320c-88.37,0 -160,-71.634 -160,-160h32c0,70.692 57.31,128 128,128zM1920,512v32h-320c-123.71,0 -224,-100.288 -224,-224h32c0,106.039 85.96,192 192,192zM1920,928v32h-32c0,-17.673 14.33,-32 32,-32zM1920,896c-35.35,0 -64,28.654 -64,64h-32c0,-53.019 42.98,-96 96,-96zM1920,832c-70.69,0 -128,57.308 -128,128h-32c0,-88.366 71.63,-160 160,-160zM1920,768c-106.04,0 -192,85.961 -192,192h-32c0,-123.712 100.29,-224 224,-224zM1920,704c-141.38,0 -256,114.615 -256,256h-32c0,-159.058 128.94,-288 288,-288zM1920,640v0.013c-176.67,0 -320,143.789 -320,319.987h-0.01c0,-176.667 -143.79,-320 -319.99,-320h-0.01c0,-176.667 -143.79,-320 -319.99,-320h-320v-0.013c176.667,0 320,-143.789 320,-319.987l0.013,0c0,176.667 143.787,320 319.987,320h0.01c0,176.667 143.79,320 319.99,320zM409.588,192c2.638,0 4.178,-3.041 2.767,-5.27c-0.501,-0.792 -0.989,-1.594 -1.463,-2.405c-7.683,-13.138 -20.229,-24.325 -35.449,-24.325h-157.832c-12.719,0 -23.626,8.621 -33.853,16.183c-6.643,4.913 -14.861,7.817 -23.758,7.817c-8.897,0 -17.115,-2.904 -23.758,-7.817c-10.227,-7.562 -21.134,-16.183 -33.853,-16.183h-102.389l0,-32h102.389c12.719,0 23.626,-8.621 33.853,-16.183c6.643,-4.913 14.861,-7.817 23.758,-7.817c8.897,0 17.115,2.904 23.758,7.817c10.227,7.562 21.134,16.183 33.853,16.183h157.832c15.22,0 27.766,-11.187 35.449,-24.325c0.474,-0.811 0.962,-1.613 1.463,-2.405c1.411,-2.229 -0.129,-5.27 -2.767,-5.27h-409.588l0,-32h640c35.346,0 64,-28.6538 64,-64.00001l32,0c0,53.01931 -42.981,96.00001 -96,96.00001h-89.588c-2.638,0 -4.178,3.0409 -2.767,5.27c0.501,0.792 0.989,1.594 1.463,2.405c7.683,13.138 20.229,24.325 35.449,24.325h55.443c70.692,0 128,-57.3076 128,-128.00001l32,0c0,88.36551 -71.634,160.00001 -160,160.00001h-55.443c-15.22,0 -27.766,11.187 -35.449,24.325c-0.474,0.811 -0.962,1.613 -1.463,2.405c-1.411,2.229 0.129,5.27 2.767,5.27h89.588c106.039,0 192,-85.961 192,-191.99999l32,0c0,123.71199 -100.288,223.99999 -224,223.99999h-640l0,-32zM640,0v0l32,0c0,17.6731 -14.327,32 -32,32h-640l0,-31.99999l320,-0.00001v0.00001zM640,256c141.385,0 256,-114.615 256,-256.00001l32,0c0,159.05801 -128.942,288.00001 -288,288.00001h-640l0,-32z" fill="#121212"/><path d="M1568,320c0,17.673 14.33,32 32,32h320v32l-320,0c-35.35,0 -64,-28.654 -64,-64h-32c0,53.019 42.98,96 96,96l320,0v32l-320,0c-70.69,0 -128,-57.308 -128,-128h-32c0,88.366 71.63,160 160,160l320,0v32h-320c-106.04,0 -192,-85.961 -192,-192h-32c0,123.712 100.29,224 224,224h320v32h-320c-141.38,0 -256,-114.615 -256,-256h-32c0,159.058 128.94,288 288,288l320,0v32h-320c-176.2,0 -319.99,-143.333 -319.99,-320h-0.01c-176.2,0 -319.987,-143.333 -319.987,-320h31.987c0,159.058 128.94,288 288,288l640,0v32zM1280,0h320l-320,0.00001zM1280,256c-141.38,0 -256,-114.615 -256,-256h32c0,123.712 100.29,224 224,224l640,0v32zM1280,192c-106.04,0 -192,-85.961 -192,-192h32c0,88.3656 71.63,160 160,160h422.39c12.72,0 23.62,8.621 33.85,16.183c6.65,4.913 14.86,7.817 23.76,7.817c8.9,0 17.11,-2.904 23.76,-7.817c10.23,-7.562 21.13,-16.183 33.85,-16.183h102.39v32zM1280,128c-70.69,0 -128,-57.3075 -128,-128h32c0,53.0193 42.98,96 96,96l640,0v32h-102.39c-12.72,0 -23.62,-8.621 -33.85,-16.183c-6.65,-4.913 -14.86,-7.817 -23.76,-7.817c-8.9,0 -17.11,2.904 -23.76,7.817c-10.23,7.562 -21.13,16.183 -33.85,16.183zM1280,64c-35.35,0 -64,-28.6538 -64,-64h32c0,17.6731 14.33,32 32,32l640,0v32zM729.588,768c2.638,0 4.178,3.041 2.767,5.27c-0.501,0.792 -0.989,1.594 -1.463,2.405c-7.683,13.138 -20.229,24.325 -35.449,24.325l-55.443,0c-88.366,0 -160,71.634 -160,160h-32c0,-106.039 85.961,-192 192,-192zM695.443,832c15.22,0 27.766,11.187 35.449,24.325c0.474,0.811 0.962,1.613 1.463,2.405c1.411,2.229 -0.129,5.27 -2.767,5.27h-89.588c-53.019,0 -96,42.981 -96,96h-32c0,-70.692 57.308,-128 128,-128zM870.412,864c-2.638,0 -4.178,-3.041 -2.767,-5.27c0.501,-0.792 0.989,-1.594 1.463,-2.405c7.683,-13.138 20.229,-24.325 35.449,-24.325h375.443c70.69,0 128,57.308 128,128h-32c0,-53.019 -42.98,-96 -96,-96zM904.557,800c-15.22,0 -27.766,-11.187 -35.449,-24.325c-0.474,-0.811 -0.962,-1.613 -1.463,-2.405c-1.411,-2.229 0.129,-5.27 2.767,-5.27h181.958c20.74,0 40.49,16 61.23,16c20.74,0 40.49,-16 61.23,-16l105.17,0c106.04,0 192,85.961 192,192h-32c0,-88.366 -71.63,-160 -160,-160zM640,928c-17.673,0 -32,14.327 -32,32h-32c0,-35.346 28.654,-64 64,-64h640c35.35,0 64,28.654 64,64h-32c0,-17.673 -14.33,-32 -32,-32zM640,736c-123.712,0 -224,100.288 -224,224h-32c0,-141.385 114.615,-256 256,-256h476.37c20.74,0 40.49,16 61.23,16c20.74,0 40.49,-16 61.23,-16h41.17c141.38,0 256,114.615 256,256h-32c0,-123.712 -100.29,-224 -224,-224h-105.17c-20.74,0 -40.49,-16 -61.23,-16c-20.74,0 -40.49,16 -61.23,16zM640,640h640c176.2,0 319.99,143.333 319.99,320h-31.99c0,-159.058 -128.94,-288 -288,-288h-41.17c-20.74,0 -40.49,-16 -61.23,-16c-20.74,0 -40.49,16 -61.23,16l-476.37,0c-159.058,0 -288,128.942 -288,288h-32c0,-176.198 143.333,-319.987 320,-319.987zM320,352c17.673,0 32,-14.327 32,-32h-32zM640,288c159.058,0 287.99999,-128.94199 288,-288h32c0,176.198 -143.333,319.987 -320,319.987v0.013c0,176.198 -143.333,319.987 -320,319.987v0.013c0,176.198 -143.333,319.987 -320,319.987l0,-319.987h0l0,32c17.6731,0 32,-14.327 32,-32l0,-320h-32l0,-160h102.389c12.719,0 23.626,8.621 33.853,16.183c6.643,4.913 14.861,7.817 23.758,7.817c8.897,0 17.115,-2.904 23.758,-7.817c10.227,-7.562 21.134,-16.183 33.853,-16.183h157.832c15.22,0 27.766,11.187 35.449,24.325c0.474,0.811 0.962,1.613 1.463,2.405c1.411,2.229 -0.129,5.27 -2.767,5.27h-409.588l0,32h640c123.712,0 224,-100.288 224,-223.99999l-32,0c0,106.03899 -85.961,191.99999 -192,191.99999h-89.588c-2.638,0 -4.178,-3.041 -2.767,-5.27c0.501,-0.792 0.989,-1.594 1.463,-2.405c7.683,-13.138 20.229,-24.325 35.449,-24.325l55.443,0c88.366,0 160,-71.6345 160,-160l96,0c-0.00001,141.38501 -114.615,256 -256,256h-640l0,32zM64,640c0,35.346 -28.6538,64 -64,64l0,32c53.0193,0 96,-42.981 96,-96l0,-320h-32zM128,422.389c0,12.719 -8.621,23.626 -16.183,33.853c-4.913,6.643 -7.817,14.861 -7.817,23.758c0,8.897 2.904,17.115 7.817,23.758c7.562,10.227 16.183,21.134 16.183,33.853l0,102.389c0,70.692 -57.3075,128 -128,128l0,32c88.3656,0 160,-71.634 160,-160v-102.389c0,-12.719 8.621,-23.626 16.183,-33.853c4.913,-6.643 7.817,-14.861 7.817,-23.758c0,-8.897 -2.904,-17.115 -7.817,-23.758c-7.562,-10.227 -16.183,-21.134 -16.183,-33.853v-102.389h-32zM192,640c0,106.039 -85.961,192 -192,192l0,32c123.712,0 224,-100.288 224,-224l0,-320h-32zM256,640c0,141.385 -114.615,256 -256,256l0,32c159.058,0 288,-128.942 288,-288l0,-320h-32zM320,384v32c53.019,0 96,-42.981 96,-96h-32c0,35.346 -28.654,64 -64,64zM320,448v32c88.366,0 160,-71.634 160,-160h-32c0,70.692 -57.308,128 -128,128zM320,512v32c123.712,0 224,-100.288 224,-224h-32c0,106.039 -85.961,192 -192,192zM320,576v32c159.058,0 288,-128.942 288,-288h-32c0,141.385 -114.615,256 -256,256zM1920,640.013l0,31.987c-159.06,0 -288,128.942 -288,288h-32c0,-176.198 143.33,-319.987 320,-319.987zM1920,704v32c-123.71,0 -224,100.288 -224,224h-32c0,-141.385 114.62,-256 256,-256zM1920,768v32c-88.37,0 -160,71.634 -160,160h-32c0,-106.039 85.96,-192 192,-192zM1920,832v32c-53.02,0 -96,42.981 -96,96h-32c0,-70.692 57.31,-128 128,-128zM1920,896v32c-17.67,0 -32,14.327 -32,32h-32c0,-35.346 28.65,-64 64,-64zM320,0h320l-320,0.00001zM584.557,128c-15.22,0 -27.766,-11.187 -35.449,-24.325c-0.474,-0.811 -0.962,-1.613 -1.463,-2.405c-1.411,-2.2291 0.129,-5.27 2.767,-5.27h89.588c53.019,0 95.99999,-42.98069 96,-96h32c0,70.6924 -57.308,128 -128,128zM409.588,96c2.638,0 4.178,3.041 2.767,5.27c-0.501,0.792 -0.989,1.594 -1.463,2.405c-7.683,13.138 -20.229,24.325 -35.449,24.325h-157.832c-12.719,0 -23.626,-8.621 -33.853,-16.183c-6.643,-4.913 -14.861,-7.817 -23.758,-7.817c-8.897,0 -17.115,2.904 -23.758,7.817c-10.227,7.562 -21.134,16.183 -33.853,16.183l-102.389,0v-128h320l-320,0.00001l0,31.99999h640c17.673,0 32,-14.3269 32,-32l-32,0v0l64,0c-0.00001,35.34621 -28.654,64 -64,64h-640l0,32zM1600,0h320l-320,0.00001z" fill="#f3f3f3"/><path d="M672,640h-32c0,-176.198 143.333,-319.987 320,-319.987v-0.013c176.2,0 319.99,143.333 319.99,320h-31.99c0,-159.058 -128.94,-288 -288,-288c-159.058,0 -288,128.942 -288,288zM736,640h-32c0,-141.385 114.615,-256 256,-256c141.38,0 256,114.615 256,256h-32c0,-123.712 -100.29,-224 -224,-224c-123.712,0 -224,100.288 -224,224zM800,640h-32c0,-106.039 85.961,-192 192,-192c106.04,0 192,85.961 192,192h-32c0,-88.366 -71.63,-160 -160,-160c-88.366,0 -160,71.634 -160,160zM864,640h-32c0,-70.692 57.308,-128 128,-128c70.69,0 128,57.308 128,128h-32c0,-53.019 -42.98,-96 -96,-96c-53.019,0 -96,42.981 -96,96zM928,640h-32c0,-35.346 28.654,-64 64,-64c35.346,0 64,28.654 64,64h-32c0,-17.673 -14.327,-32 -32,-32c-17.673,0 -32,14.327 -32,32z" fill="#ff4f00"/></g></svg>