<svg xmlns="http://www.w3.org/2000/svg" width="1920" height="960" viewBox="0 0 1920 960"><g xmlns="http://www.w3.org/2000/svg" fill="none" fill-rule="nonzero" stroke="none" stroke-width="1" stroke-linecap="butt" stroke-linejoin="miter" stroke-miterlimit="10" stroke-dasharray="" stroke-dashoffset="0" font-family="none" font-weight="none" font-size="none" text-anchor="none" style="mix-blend-mode: normal"><path d="M1053.33,480c0,-18.413 7.46,-35.079 19.53,-47.143c12.06,-12.063 28.73,-19.524 47.14,-19.524c36.82,0 66.67,29.842 66.67,66.667c0,36.825 -29.85,66.667 -66.67,66.667c-36.82,0 -66.67,-29.842 -66.67,-66.667zM1280,320v320h-320c176.73,0 320,-143.27 320,-320zM959.99999,640c0,0 0,0 0,0zM640,640v-320c0,176.73 143.27,320 319.99999,320c0,0 0,0 0,0zM720,720.067l239.933,-0.067l0.067,240c-132.51,0.038 -239.962,-107.386 -240,-239.933zM1040.07,880l-0.07,-239.933l240,-0.067c0.00001,0.04932 0.00001,0.09865 0,0.14796c-0.03998,132.44202 -107.43934,239.81405 -239.93,239.85204zM0,0l320,0v320h-320l240,-0.067l-0.067,-239.933c-132.47958,0.03838 -239.86214,107.38072 -239.933,239.79782z" fill="#ff4f00"/><path d="M960,640v-640l319.85023,0l-239.85023,0.0672l0.07,239.9328c132.49066,-0.03799 239.89002,-107.41002 239.93,-239.85208c0.00001,-0.0493 0.00001,-0.09861 0,-0.14792l320,0l0,320h-320c0,176.73 -143.27,320 -320,320zM1120,546.667c36.82,0 66.67,-29.842 66.67,-66.667c0,-36.825 -29.85,-66.667 -66.67,-66.667c-18.41,0 -35.08,7.461 -47.14,19.524c-12.07,12.064 -19.53,28.73 -19.53,47.143c0,36.825 29.85,66.667 66.67,66.667zM320,0l0.067,240l239.933,-0.067c-0.03798,-132.47348 -107.37083,-239.85225 -239.77951,-239.933h319.77951v320h-320zM640,320l319.85942,0c-132.44541,-0.03798 -319.85942,0 -319.85942,0zM720,80.0672l239.933,-0.0672l0.067,240c-0.04686,0.00001 -0.09372,0.00001 -0.14058,0l-0.00001,0c-132.44541,-0.03799 -239.82143,-107.43288 -239.85942,-239.9328z" fill="#f3f3f3"/><path d="M1600,320c-176.73,0 -320,143.27 -320,320v-320zM1600,320h320v320c0,-176.73 -143.27,-320 -320,-320zM560,879.933l-239.933,0.067l-0.067,-240c132.51,-0.038 239.962,107.386 240,239.933zM239.933,720l0.067,239.933l-240.00002,0.067c-0.0384,-132.51 107.38602,-239.962 239.93302,-240zM1840,239.933l-239.93,0.067l-0.07,-240.00004c132.51,-0.0384 239.96,107.38604 240,239.93304zM1519.93,80l0.07,239.933l-240,0.067c-0.04,-132.51 107.39,-239.9616 239.93,-240zM480,546.667c-18.412,0 -35.079,-7.46 -47.143,-19.524c-12.063,-12.063 -19.523,-28.73 -19.523,-47.143c0,-36.817 29.841,-66.667 66.666,-66.667c36.826,0 66.667,29.85 66.667,66.667c0,36.818 -29.841,66.667 -66.667,66.667z" fill="#4997d0"/><path d="M1600,320c176.73,0 320,143.27 320,320v320c0,-176.73 -143.27,-320 -320,-320l0,320h-320l240,-0.067l-0.07,-239.933c-132.49066,0.03799 -239.89002,107.41002 -239.93,239.85204l0,-319.85204c0,-176.73 143.27,-320 320,-320zM0,640v-320h320c-176.73,0 -320,143.27 -320,320zM1760,866.667c-18.41,0 -35.08,-7.46 -47.14,-19.524c-12.07,-12.063 -19.53,-28.73 -19.53,-47.143c0,-36.817 29.84,-66.667 66.67,-66.667c36.83,0 66.67,29.85 66.67,66.667c0,36.818 -29.84,66.667 -66.67,66.667zM1280,960c-0.00001,-0.04932 -0.00001,-0.09865 0,-0.14796zM960,640v320l-0.067,-240l-239.933,0.067c0.03799,132.50013 107.41401,239.89502 239.85942,239.933l-319.85942,0v-320zM960,960c-0.04686,0.00001 -0.09372,0.00001 -0.14058,0zM1600,0l0.07,240l239.93,-0.067c-0.03998,-132.47348 -107.37083,-239.85225 -239.77951,-239.933h319.77951v320h-320zM320,320h320v320c0,-176.73 -143.27,-320 -320,-320zM1040.07,240l-0.07,-239.9328l240,-0.06724c0.04,132.51004 -107.39,239.96204 -239.93,240.00004zM560,239.933l-239.933,0.067l-0.067,-240.00004c132.51,-0.0384 239.962,107.38604 240,239.93304zM720,80.0672l239.933,-0.0672l0.067,240c-132.51,0.038 -239.962,-107.386 -240,-239.9328zM239.933,80l0.067,239.933l-240.00002,0.067c-0.0384,-132.51 107.38602,-239.9616 239.93302,-240z" fill="#121212"/><path d="M0,640c0,-176.73 143.27,-320 320,-320c176.73,0 320,143.27 320,320v320h-320v-320l0.067,240l239.933,-0.067c-0.03799,-132.50013 -107.41401,-239.89502 -239.85942,-239.933zM546.667,480c0,-36.817 -29.841,-66.667 -66.667,-66.667c-36.825,0 -66.666,29.85 -66.666,66.667c0,18.413 7.46,35.08 19.523,47.143c12.064,12.064 28.731,19.524 47.143,19.524c36.826,0 66.667,-29.849 66.667,-66.667z" fill="#d9d9d6"/><path d="M1600,960l0,-320c176.73,0 320,143.27 320,320zM1826.67,800c0,-36.817 -29.84,-66.667 -66.67,-66.667c-36.83,0 -66.67,29.85 -66.67,66.667c0,18.413 7.46,35.08 19.53,47.143c12.06,12.064 28.73,19.524 47.14,19.524c36.83,0 66.67,-29.849 66.67,-66.667zM1519.93,720l0.07,239.933l-240,0.067c-0.04,-132.51 107.39,-239.962 239.93,-240z" fill="#ffa300"/></g></svg>