<svg xmlns="http://www.w3.org/2000/svg" width="1920" height="960" viewBox="0 0 1920 960"><g xmlns="http://www.w3.org/2000/svg" fill="none" fill-rule="none" stroke="none" stroke-width="1" stroke-linecap="butt" stroke-linejoin="miter" stroke-miterlimit="10" stroke-dasharray="" stroke-dashoffset="0" font-family="none" font-weight="none" font-size="none" text-anchor="none" style="mix-blend-mode: normal"><path d="M320,928v32h-32c0,-17.673 14.327,-32 32,-32zM320,896c-35.346,0 -64,28.654 -64,64h-32c0,-53.019 42.981,-96 96,-96zM320,832c-70.692,0 -128,57.308 -128,128h-32c0,-88.366 71.634,-160 160,-160zM320,768c-106.039,0 -192,85.961 -192,192h-32c0,-123.712 100.288,-224 224,-224zM320,704c-141.385,0 -256,114.615 -256,256h-32c0,-159.058 128.942,-288 288,-288zM0,960v-320h0l0,-32c17.6731,0 32,14.327 32,32h32c0,-35.346 -28.6538,-64 -64,-64l0,-32c53.0193,0 96,42.981 96,96h32c0,-70.692 -57.3075,-128 -127.99999,-128l0,-32c88.36559,0 159.99999,71.634 159.99999,160h32c0,-106.039 -85.961,-192 -191.99997,-192l0,-32c123.71197,0 223.99997,100.288 223.99997,224h32c0,-141.385 -114.615,-256 -255.99998,-256l0,-32c159.05797,0 287.99997,128.942 287.99997,288h31.987c0,-176.667 -143.789,-320 -319.987,-320c0,-176.73 143.27,-320 320,-320v640.013c-176.667,0 -320,143.789 -320,319.987zM992,960h-32v-32c17.673,0 32,14.327 32,32zM1024,960c0,-35.346 -28.654,-64 -64,-64v-32c53.02,0 96,42.981 96,96zM1088,960c0,-70.692 -57.31,-128 -128,-128v-32c88.37,0 160,71.634 160,160zM1152,960c0,-106.039 -85.96,-192 -192,-192v-32c123.71,0 224,100.288 224,224zM1216,960c0,-141.385 -114.62,-256 -256,-256v-32c159.06,0 288,128.942 288,288zM1280,960h-0.01c0,-176.667 -143.79,-320 -319.99,-320c0,-176.73 143.27,-320 320,-320zM1392.00001,496c22.09139,0 40,17.90861 40,40c0,22.08488 -17.89806,39.98944 -39.98048,39.99999c44.17381,-0.00528 79.98047,-17.91186 79.98047,-40c0,-22.09139 -35.81722,-40 -80,-40c-44.18278,0 -80,17.90861 -80,40c0,22.08814 35.80667,39.99473 79.98048,40c-22.08242,-0.01055 -39.98048,-17.91512 -39.98048,-40c0,-22.09139 17.90861,-40 40,-40zM1600,639.91l-319.91,0.09l-0.09,-320c0,-176.73 143.27,-320 320,-320l0,320h-319.81133c176.59332,0.05098 319.76135,143.24391 319.81133,319.91zM1280,320h0.18867c-0.06288,-0.00002 -0.12577,-0.00002 -0.18867,0zM1712.00001,176c22.09139,0 40,17.90861 40,40c0,22.08488 -17.89806,39.98944 -39.98048,39.99999c44.17381,-0.00528 79.98047,-17.91186 79.98047,-40c0,-22.09139 -35.81722,-40 -80,-40c-44.18278,0 -80,17.90861 -80,40c0,22.08814 35.80667,39.99473 79.98048,40c-22.08242,-0.01055 -39.98048,-17.91512 -39.98048,-40c0,-22.09139 17.90861,-40 40,-40zM1920,319.91l-319.91,0.09l-0.09,-320.00004c176.68,-0.05117 319.95,143.18104 320,319.91004zM1072.00001,176c22.09139,0 40,17.90861 40,40c0,22.08488 -17.89806,39.98944 -39.98048,39.99999c44.17381,-0.00528 79.98047,-17.91186 79.98047,-40c0,-22.09139 -35.81722,-40 -80,-40c-44.18278,0 -80,17.90861 -80,40c0,22.08814 35.80667,39.99473 79.98048,40c-22.08242,-0.01055 -39.98048,-17.91512 -39.98048,-40c0,-22.09139 17.90861,-40 40,-40zM1280,319.91l-319.91,0.09l-0.09,-320.00004c176.68,-0.05117 319.95,143.18104 320,319.91004zM432.00001,176c22.09139,0 40,17.90861 40,40c0,22.08488 -17.89806,39.98944 -39.98048,39.99999c44.17381,-0.00528 79.98047,-17.91186 79.98047,-40c0,-22.09139 -35.81722,-40 -80,-40c-44.18278,0 -80,17.90861 -80,40c0,22.08814 35.80667,39.99473 79.98048,40c-22.08242,-0.01055 -39.98048,-17.91512 -39.98048,-40c0,-22.09139 17.90861,-40 40,-40zM640,319.91l-319.91,0.09l-0.09,-320.00004c176.68,-0.05117 319.949,143.18104 320,319.91004zM960,0l0,320l-320,0c0,-176.73 143.27,-320 320,-320z" fill="#121212" fill-rule="evenodd"/><path d="M320,640.013v31.987c-159.058,0 -288,128.942 -288,288h-32c0,-176.198 143.333,-319.987 320,-319.987zM320,704v32c-123.712,0 -224,100.288 -224,224h-32c0,-141.385 114.615,-256 256,-256zM320,768v32c-88.366,0 -160,71.634 -160,160h-32c0,-106.039 85.961,-192 192,-192zM320,832v32c-53.019,0 -96,42.981 -96,96h-32c0,-70.692 57.308,-128 128,-128zM320,896v32c-17.673,0 -32,14.327 -32,32h-32c0,-35.346 28.654,-64 64,-64zM960,928v-32c35.346,0 64,28.654 64,64h-32c0,-17.673 -14.327,-32 -32,-32zM960,864v-32c70.69,0 128,57.308 128,128h-32c0,-53.019 -42.98,-96 -96,-96zM960,800v-32c106.04,0 192,85.961 192,192h-32c0,-88.366 -71.63,-160 -160,-160zM960,736v-32c141.38,0 256,114.615 256,256h-32c0,-123.712 -100.29,-224 -224,-224zM960,672v-32c176.2,0 319.99,143.333 319.99,320h-31.99c0,-159.058 -128.94,-288 -288,-288zM0.00003,352l0,32c141.38498,0 255.99998,114.615 255.99998,256h-32c0,-123.712 -100.288,-224 -223.99997,-224l0,32c106.03897,0 191.99997,85.961 191.99997,192h-32c0,-88.366 -71.6344,-160 -159.99999,-160l0,32c70.69249,0 127.99999,57.308 127.99999,128h-32c0,-53.019 -42.9807,-96 -96,-96l0,8.72989v-232.72989c176.198,0 319.987,143.333 319.987,320h-31.987c0,-159.058 -128.942,-288 -287.99997,-288zM0,608l0,32h0l0,-64c35.3462,0 64,28.654 64,64h-32c0,-17.673 -14.3269,-32 -32,-32zM1312,536c0,-22.09139 35.81722,-40 80,-40c44.18278,0 80,17.90861 80,40c0,22.08814 -35.80667,39.99472 -79.98047,40c22.08241,-0.01055 39.98047,-17.91511 39.98048,-39.99999c0,-22.09139 -17.90861,-40 -40,-40c-22.09139,0 -40,17.90861 -40,40c0,22.08488 17.89806,39.98945 39.98048,40c-44.17381,-0.00527 -79.98048,-17.91186 -79.98048,-40zM1632,216c0,-22.09139 35.81722,-40 80,-40c44.18278,0 80,17.90861 80,40c0,22.08814 -35.80667,39.99472 -79.98047,40c22.08241,-0.01055 39.98047,-17.91511 39.98048,-39.99999c0,-22.09139 -17.90861,-40 -40,-40c-22.09139,0 -40,17.90861 -40,40c0,22.08488 17.89806,39.98945 39.98048,40c-44.17381,-0.00527 -79.98048,-17.91186 -79.98048,-40zM992,216c0,-22.09139 35.81722,-40 80,-40c44.18278,0 80,17.90861 80,40c0,22.08814 -35.80667,39.99472 -79.98047,40c22.08241,-0.01055 39.98047,-17.91511 39.98048,-39.99999c0,-22.09139 -17.90861,-40 -40,-40c-22.09139,0 -40,17.90861 -40,40c0,22.08488 17.89806,39.98945 39.98048,40c-44.17381,-0.00527 -79.98048,-17.91186 -79.98048,-40zM352,216c0,-22.09139 35.81722,-40 80,-40c44.18278,0 80,17.90861 80,40c0,22.08814 -35.80667,39.99472 -79.98047,40c22.08241,-0.01055 39.98047,-17.91511 39.98048,-39.99999c0,-22.09139 -17.90861,-40 -40,-40c-22.09139,0 -40,17.90861 -40,40c0,22.08488 17.89806,39.98945 39.98048,40c-44.17381,-0.00527 -79.98048,-17.91186 -79.98048,-40z" fill="#f3f3f3" fill-rule="nonzero"/><path d="M1920,640h-160l6.24,-20.894c32.36,-108.335 84.49,-209.745 153.76,-299.106zM793.759,619.106l6.241,20.894h160l-159.955,0.045c-0.026,88.365 -71.66,159.981 -160,159.955l-0.045,160l-0.045,-159.955c-88.365,-0.026 -159.981,-71.66 -159.955,-160l-160,-0.045h160l6.241,-20.894c32.36,-108.335 84.491,-209.745 153.759,-299.106c69.268,89.361 121.399,190.771 153.759,299.106zM1760,640l160,0.045l-0.04,159.955c-88.37,-0.026 -159.99,-71.66 -159.96,-160zM1753.76,939.106l6.24,20.894h-320l6.24,-20.894c32.36,-108.335 84.49,-209.745 153.76,-299.106c69.27,89.361 121.4,190.771 153.76,299.106z" fill="#ffa300" fill-rule="nonzero"/><path d="M1766.24,619.106l-6.24,20.894h160v320h-160l-6.24,-20.894c-32.36,-108.335 -84.49,-209.745 -153.76,-299.106v-640l0.09,320l319.91,-0.09c-0.04997,-176.6324 -143.16342,-319.80462 -319.7103,-319.91h319.7103v320c-69.27,89.361 -121.4,190.771 -153.76,299.106zM1919.96,800l0.04,-159.955l-160,-0.045c-0.03,88.34 71.59,159.974 159.96,160zM486.241,619.106l-6.241,20.894h-160v-640l0.09,320l319.91,-0.09c-0.05097,-176.6324 -143.16342,-319.80462 -319.7103,-319.91h639.7103c-176.73,0 -320,143.27 -320,320c-69.268,89.361 -121.399,190.771 -153.759,299.106zM639.955,800.045l0.045,159.955h-320v-320l160,0.045c-0.026,88.34 71.59,159.974 159.955,160zM960,0l0.09,320l319.91,-0.09c-0.04997,-176.6324 -143.16342,-319.80462 -319.7103,-319.91h639.7103c-176.73,0 -320,143.27 -320,320c-176.73,0 -320,143.27 -320,320zM0,320v-320h320c-176.73,0 -320,143.27 -320,320z" fill="#d9d9d6" fill-rule="nonzero"/><path d="M960,320v320h-160l-6.241,-20.894c-32.36,-108.335 -84.491,-209.745 -153.759,-299.106zM1446.24,939.106l-6.24,20.894h-160v-640l0.09,320l319.91,-0.09c-0.04998,-176.66609 -143.21802,-319.85902 -319.81133,-319.91h319.81133v320c-69.27,89.361 -121.4,190.771 -153.76,299.106zM1280,320c0.06289,-0.00002 0.12578,-0.00002 0.18867,0zM800.045,640.045l159.955,-0.045v320h-320l0.045,-160c88.34,0.026 159.974,-71.59 160,-159.955z" fill="#ff4f00" fill-rule="nonzero"/></g></svg>