<svg xmlns="http://www.w3.org/2000/svg" width="1920" height="960" viewBox="0 0 1920 960"><g xmlns="http://www.w3.org/2000/svg" fill="none" fill-rule="nonzero" stroke="none" stroke-width="1" stroke-linecap="butt" stroke-linejoin="miter" stroke-miterlimit="10" stroke-dasharray="" stroke-dashoffset="0" font-family="none" font-weight="none" font-size="none" text-anchor="none" style="mix-blend-mode: normal"><path d="M1760,639.955l-160,-0.045l0.04,-159.955c41.86647,0.01232 79.97337,16.09718 108.48281,42.41646c-9.49262,-11.51906 -15.19281,-26.27963 -15.19281,-42.37146c0,-36.817 29.84,-66.667 66.67,-66.667c18.41,0 35.08,7.461 47.14,19.524c12.07,12.064 19.53,28.73 19.53,47.143c0,36.818 -29.84,66.667 -66.67,66.667c-16.09805,0 -30.86067,-5.7026 -42.37976,-15.19719c26.32036,28.51646 42.39398,66.6253 42.37976,108.48519zM960,-0.00003l320,320.00003h-320zM320,640l4.931,-2.68c132.105,-71.787 240.602,-180.284 312.389,-312.389l2.68,-4.931v320zM1442.4,720h-162.4v-80h320v320zM1280,0l320,-0.00004v320.00004l-320,0l160,-160zM640,960l160,-160v-160h160v320zM880,80v240l-240,0v-240zM80,320h240v240zM0.00003,320l319.99997,320h-320z" fill="#121212"/><path d="M1920,320v320c0,-88.365 -35.81,-168.365 -93.73,-226.272c-57.91,-57.914 -137.91,-93.728 -226.27,-93.728zM960,480h160v160h-160zM528.777,321.333c23.495,122.963 -85.036,230.811 -208.777,207.464zM80,80h240v240l-240,0z" fill="#4997d0"/><path d="M1600,320c88.36,0 168.36,35.814 226.27,93.728c57.92,57.907 93.73,137.907 93.73,226.272l-640,0v-320h16v304h304zM1717.62024,531.46981c11.5191,9.49459 26.28172,15.19719 42.37976,15.19719c36.83,0 66.67,-29.849 66.67,-66.667c0,-18.413 -7.46,-35.079 -19.53,-47.143c-12.06,-12.063 -28.73,-19.524 -47.14,-19.524c-36.83,0 -66.67,29.85 -66.67,66.667c0,16.09182 5.70019,30.85239 15.19281,42.37146c-28.50943,-26.31928 -66.61634,-42.40414 -108.48281,-42.41646l-0.04,159.955l160,0.045c0.01422,-41.85989 -16.05941,-79.96873 -42.37976,-108.48519zM1920,960h-320l320,-320zM1600,0l80,0v240h240v80h-320zM1920,0v0.00004l-176.53075,-0.00004zM1071.2,640c-23.34,123.741 84.5,232.272 207.47,208.777zM1275.07,957.32c-132.11,-71.787 -240.6,-180.284 -312.39,-312.389l-2.68,-4.931h320v320zM640,640v16h-304l0,304h-176v-160c0,-88.366 -71.6345,-160 -160,-160zM800,560l-160,-240l240,0l0,-240h-240v-80l320,0v480zM320,560v80l-319.99997,-320l-0.00003,320v-640h320v80l-240,0v240z" fill="#ff4f00"/><path d="M1600,960v-320h320zM960,320h160v160h160v160h-160v-160h-160zM960,640l2.68,4.931c71.79,132.105 180.28,240.602 312.39,312.389l4.93,2.68h-320zM1040,0h240l160,160l-160,160v-80zM320,320h320l-2.68,4.931c-71.787,132.105 -180.284,240.602 -312.389,312.389l-4.931,2.68zM320,528.797c123.741,23.347 232.272,-84.501 208.777,-207.464zM336,960v-304h304v304zM800,560l160,-80v160l-320,0v-320z" fill="#f3f3f3"/><path d="M1920,240h-240v-240.00002l240,0.00006zM1120,320h160v160h-160zM1278.67,848.777c-122.97,23.495 -230.81,-85.036 -207.47,-208.777zM320.06,80l-0.06,-79.99999l320,-0.00001v320h-80c0,-120 -93.6,-240 -239.94,-240zM-0.00001,640c88.36551,0 160.00001,71.634 160.00001,160v160h-160.00003z" fill="#ffa300"/><path d="M960.00003,0h79.99997l240,240v80zM320,0h320l-320,0.00001l0.06,79.99999c146.34,0 239.94,120 239.94,240h-240zM1296,624v-304l304,0v304zM1442.4,720l157.6,240h-320v-240zM800,800l-160,160v-320h160z" fill="#d9d9d6"/></g></svg>