<svg xmlns="http://www.w3.org/2000/svg" width="1200" height="600" viewBox="0 0 1920 960"><g xmlns="http://www.w3.org/2000/svg" fill="#000000" fill-rule="nonzero" stroke="none" stroke-width="1" stroke-linecap="butt" stroke-linejoin="miter" stroke-miterlimit="10" stroke-dasharray="" stroke-dashoffset="0" font-family="none" font-weight="none" font-size="none" text-anchor="none" style="mix-blend-mode: normal"><path d="M0,0c0.06162,-0.00002 0.12324,-0.00002 0.18485,0h1919.81515l0,319.88903c0.00001,0.03699 0.00001,0.07398 0,0.11097v640h-1920zM1280,0c-0.04998,176.66836 -143.22008,319.95002 -319.81515,320c176.59507,-0.04998 319.76516,-143.33164 319.81515,-320zM640,80c-132.51,-0.04 -239.96,107.45 -240,240c0.04,-132.55 107.49,-240.04 240,-240zM640,720c132.51,-0.04 239.96,107.45 240,240c-0.04,-132.55 -107.49,-240.04 -240,-240zM1680,640c0.04,132.55 107.49,240.04 240,240c-132.51,0.04 -239.96,-107.45 -240,-240zM1600,160c0,88.36556 -71.63444,160 -160,160c88.36556,0 160,-71.63444 160,-160zM1520,640c-0.04,-132.55 -107.49,-240.04 -240,-240c132.51,-0.04 239.96,107.45 240,240zM1760.04,160c88.333,0.02999 159.93002,71.60002 159.96,159.88903c-0.02998,-88.28901 -71.627,-159.85905 -159.96,-159.88903zM320,320c-0.04998,-176.66836 -143.22008,-319.95002 -319.81515,-320c176.59507,0.04998 319.76516,143.33164 319.81515,320zM479.95,800c-88.323,-0.02999 -159.92002,-71.60002 -159.95,-159.88903c0.02998,88.28901 71.627,159.85905 159.95,159.88903z"/></g></svg>