<svg xmlns="http://www.w3.org/2000/svg" width="1200" height="600" viewBox="0 0 1920 960"><g xmlns="http://www.w3.org/2000/svg" fill="none" fill-rule="nonzero" stroke="none" stroke-width="1" stroke-linecap="butt" stroke-linejoin="miter" stroke-miterlimit="10" stroke-dasharray="" stroke-dashoffset="0" font-family="none" font-weight="none" font-size="none" text-anchor="none" style="mix-blend-mode: normal"><path d="M960,320v-320h320c-0.05,176.73 -143.32,320.05 -320,320zM960,320v320h-320c0.05,-176.73 143.32,-320.05 320,-320zM640,80l-0.07,240h0.07v320c-176.73,-0.05 -320.05,-143.32 -320,-320h80c0.04,-132.55 107.49,-240.04 240,-240zM880,960h-239.93l-0.07,-240c132.51,-0.04 239.96,107.45 240,240zM1520,640h-239.93l-0.07,-240c132.51,-0.04 239.96,107.45 240,240zM1280,960h-320v-320c176.73,0.05 320.05,143.32 320,320zM320,640v320h-320c0.05,-176.73 143.32,-320.05 320,-320z" fill="#d9d9d6"/><path d="M1680,640h239.93l0.07,240c-132.51,0.04 -239.96,-107.45 -240,-240zM1280,160c0,-88.36556 71.63444,-160 160,-160c88.36556,0 160,71.63444 160,160c0,88.36556 -71.63444,160 -160,160c-88.36556,0 -160,-71.63444 -160,-160zM1920,320l-160,-0.05l0.04,-159.95c88.37,0.03 159.99,71.66 159.96,160zM960,320h320v320c-176.68,0.05 -319.95,-143.27 -320,-320zM320,320h-320v-320c176.68,-0.05 319.95,143.27 320,320zM320,640l160,0.04l-0.05,159.96c-88.36,-0.03 -159.98,-71.66 -159.95,-160z" fill="#121212"/><path d="M1920,0l0,319.88903c-0.02998,-88.28901 -71.627,-159.85905 -159.96,-159.88903l-0.04,159.95l160,0.05c0.00001,-0.03699 0.00001,-0.07398 0,-0.11097v640.11097h-640c0.05,-176.68 -143.27,-319.95 -320,-320v320h-80c-0.04,-132.55 -107.49,-240.04 -240,-240l0.07,240h-320.07l0,-319.88903c0.02998,88.28901 71.627,159.85905 159.95,159.88903l0.05,-159.96l-160,-0.04c-176.68,-0.05 -319.95,143.27 -320,320v-640h320c-0.04998,-176.66836 -143.22008,-319.95002 -319.81515,-320h959.81515v320c0.05,176.73 143.32,320.05 320,320v-320l-319.81515,0c176.59507,-0.04998 319.76516,-143.33164 319.81515,-320zM640,640h320v-320c-176.68,-0.05 -319.95,143.27 -320,320zM400,320h-80c-0.05,176.68 143.27,319.95 320,320v-320h-0.07l0.07,-240c-132.51,-0.04 -239.96,107.45 -240,240zM1920,880l-0.07,-240h-239.93c0.04,132.55 107.49,240.04 240,240zM1440,320c88.36556,0 160,-71.63444 160,-160c0,-88.36556 -71.63444,-160 -160,-160c-88.36556,0 -160,71.63444 -160,160c0,88.36556 71.63444,160 160,160zM1280,400l0.07,240h239.93c-0.04,-132.55 -107.49,-240.04 -240,-240z" fill="#f3f3f3"/></g></svg>