<svg xmlns="http://www.w3.org/2000/svg" width="1920" height="960" viewBox="0 0 1920 960"><g xmlns="http://www.w3.org/2000/svg" fill="none" fill-rule="nonzero" stroke="none" stroke-width="1" stroke-linecap="butt" stroke-linejoin="miter" stroke-miterlimit="10" stroke-dasharray="" stroke-dashoffset="0" font-family="none" font-weight="none" font-size="none" text-anchor="none" style="mix-blend-mode: normal"><path d="M1920,400v32h-83.66c1.61,10.26 2.72,20.965 3.26,32h80.4v32h-80.4c-0.54,11.035 -1.65,21.74 -3.26,32h83.66v32h-90.7c-3.38,11.68 -7.48,22.427 -12.17,32h102.87v32h-125.09c-10.55,10.251 -22.39,16 -34.91,16c-44.18,0 -80,-71.634 -80,-160c0,-88.366 35.82,-160 80,-160c12.52,0 24.36,5.749 34.91,16h125.09v32h-102.87c4.69,9.573 8.79,20.32 12.17,32zM1600,800c0,-44.18278 71.63444,-80 160,-80c88.36556,0 160,35.81722 160,80c0,44.18278 -71.63444,80 -160,80c-88.36556,0 -160,-35.81722 -160,-80v16h-80.4c-0.54,11.035 -1.65,21.74 -3.26,32l83.66,0v32h-90.7c-3.38,11.68 -7.48,22.427 -12.17,32h102.87v32h-125.09c-10.55,10.251 -22.39,16 -34.91,16c-44.18,0 -80,-71.634 -80,-160c0,-88.366 35.82,-160 80,-160c12.52,0 24.36,5.749 34.91,16l125.09,0v32h-102.87c4.69,9.573 8.79,20.32 12.17,32l90.7,0v32h-83.66c1.61,10.26 2.72,20.965 3.26,32l80.4,0c0,0 0,16 0,16zM1600,160c0,-44.18278 71.63444,-80 160,-80c88.36556,0 160,35.81722 160,80c0,44.18278 -71.63444,80 -160,80c-88.36556,0 -160,-35.81722 -160,-80zM1040,0.00004l32,-0.00002v83.66238c10.26,-1.6112 20.96,-2.7196 32,-3.2674v-80.39498l32,0v80.39499c11.03,0.5478 21.74,1.6562 32,3.2674v-83.66239l32,0v90.70259c11.68,3.3784 22.43,7.4738 32,12.1664v-102.869l32,0v125.087c10.25,10.55 16,22.396 16,34.913c0,44.183 -71.63,80 -160,80c-88.37,0 -160,-35.817 -160,-80c0,-12.517 5.749,-24.363 16,-34.913v-125.08696l32,-0.00002v102.86898c9.57,-4.6926 20.32,-8.788 32,-12.1664zM1066.6667,160c0,29.45517 23.87813,53.3333 53.3333,53.3333c29.45517,0 53.3333,-23.87813 53.3333,-53.3333c0,-29.45517 -23.87813,-53.3333 -53.3333,-53.3333c-29.45517,0 -53.3333,23.87813 -53.3333,53.3333zM320,800c0,-44.18278 71.63444,-80 160,-80c88.36556,0 160,35.81722 160,80c0,44.18278 -71.63444,80 -160,80c-88.36556,0 -160,-35.81722 -160,-80zM320,240v-32h83.662c-1.611,-10.26 -2.719,-20.965 -3.267,-32h-80.395v-32h80.395c0.548,-11.035 1.656,-21.74 3.267,-32h-83.662v-32h90.703c3.378,-11.6804 7.473,-22.4273 12.166,-32h-102.869v-32h125.087c10.55,-10.25053 22.396,-16 34.913,-16c44.183,0 80,71.6344 80,160c0,88.366 -35.817,160 -80,160c-12.517,0 -24.363,-5.749 -34.913,-16h-125.087v-32h102.869c-4.693,-9.573 -8.788,-20.32 -12.166,-32zM1440,746.6667c-29.45517,0 -53.3333,23.87813 -53.3333,53.3333c0,29.45517 23.87813,53.3333 53.3333,53.3333c29.45517,0 53.3333,-23.87813 53.3333,-53.3333c0,-29.45517 -23.87813,-53.3333 -53.3333,-53.3333zM800,960c-44.18278,0 -80,-71.63444 -80,-160c0,-88.36556 35.81722,-160 80,-160c0,0 0,0 0,0c44.18278,0 80,71.63444 80,160c0,88.36556 -35.81722,160 -80,160zM800,746.6667c-29.45517,0 -53.3333,23.87813 -53.3333,53.3333c0,29.45517 23.87813,53.3333 53.3333,53.3333c29.45517,0 53.3333,-23.87813 53.3333,-53.3333c0,-29.45517 -23.87813,-53.3333 -53.3333,-53.3333zM800,320c-44.18278,0 -80,-71.63444 -80,-160c0,-88.36556 35.81722,-160 80,-160c44.18278,0 80,71.63444 80,160c0,88.36556 -35.81722,160 -80,160zM240,640h-32v-83.662c-10.26,1.611 -20.965,2.719 -32,3.267v80.395h-32v-80.395c-11.035,-0.548 -21.74,-1.656 -32,-3.267v83.662h-32v-90.703c-11.6804,-3.378 -22.4273,-7.473 -32,-12.166v102.869h-32v-125.087c-10.25053,-10.55 -16,-22.396 -16,-34.913c0,-44.183 71.6344,-80 160,-80c88.366,0 160,35.817 160,80c0,12.517 -5.749,24.363 -16,34.913v125.087h-32v-102.869c-9.573,4.693 -20.32,8.788 -32,12.166zM213.3333,480c0,-29.45517 -23.87813,-53.3333 -53.3333,-53.3333c-29.45517,0 -53.3333,23.87813 -53.3333,53.3333c0,29.45517 23.87813,53.3333 53.3333,53.3333c29.45517,0 53.3333,-23.87813 53.3333,-53.3333z" fill="#121212"/><path d="M1600,640v-320h320v16h-125.09c-10.55,-10.251 -22.39,-16 -34.91,-16c-44.18,0 -80,71.634 -80,160c0,88.366 35.82,160 80,160c12.52,0 24.36,-5.749 34.91,-16h125.09v16zM1829.3,400c-3.38,-11.68 -7.48,-22.427 -12.17,-32h102.87v32zM1817.13,592c4.69,-9.573 8.79,-20.32 12.17,-32h90.7v32zM1836.34,528c1.61,-10.26 2.72,-20.965 3.26,-32l80.4,0v32zM1839.6,464c-0.54,-11.035 -1.65,-21.74 -3.26,-32l83.66,0v32zM1120,640c44.18278,0 80,-71.63444 80,-160c0,-88.36556 -35.81722,-160 -80,-160h160v320zM1120,320c-44.18278,0 -80,71.63444 -80,160c0,88.36556 35.81722,160 80,160h-160v-320zM320,0l159.98309,0c-12.51076,0.00518 -24.35084,5.75409 -34.89609,16l-125.087,0zM640,0v320h-320v-16h125.087c10.55,10.251 22.396,16 34.913,16c44.183,0 80,-71.634 80,-160c0,-88.35433 -35.80786,-159.98173 -79.98309,-160zM410.703,240c3.378,11.68 7.473,22.427 12.166,32h-102.869v-32zM422.869,48c-4.693,9.5727 -8.788,20.3196 -12.166,32l-90.703,0v-32zM403.662,112c-1.611,10.26 -2.719,20.965 -3.267,32h-80.395v-32zM400.395,176c0.548,11.035 1.656,21.74 3.267,32l-83.662,0v-32zM1493.3333,800c0,29.45517 -23.87813,53.3333 -53.3333,53.3333c-29.45517,0 -53.3333,-23.87813 -53.3333,-53.3333c0,-29.45517 23.87813,-53.3333 53.3333,-53.3333c29.45517,0 53.3333,23.87813 53.3333,53.3333zM160,533.3333c-29.45517,0 -53.3333,-23.87813 -53.3333,-53.3333c0,-29.45517 23.87813,-53.3333 53.3333,-53.3333c29.45517,0 53.3333,23.87813 53.3333,53.3333c0,29.45517 -23.87813,53.3333 -53.3333,53.3333z" fill="#f3f3f3"/><path d="M1600,960v-320h320v320zM1760,880c88.36556,0 160,-35.81722 160,-80c0,-44.18278 -71.63444,-80 -160,-80c-88.36556,0 -160,35.81722 -160,80c0,44.18278 71.63444,80 160,80zM960,800c0,-44.18278 71.63444,-80 160,-80c88.36556,0 160,35.81722 160,80c0,44.18278 -71.63444,80 -160,80c-88.36556,0 -160,-35.81722 -160,-80zM960,0h320v320h-320c0,0 0,-160 0,-160c0,44.183 71.63,80 160,80c88.37,0 160,-35.817 160,-80c0,-12.517 -5.75,-24.363 -16,-34.913v-125.087l-32,0v102.869c-9.57,-4.6926 -20.32,-8.788 -32,-12.1664v-90.70259l-32,0v83.66239c-10.26,-1.6112 -20.97,-2.7196 -32,-3.2674v-80.39499l-32,0v80.39498c-11.04,0.5478 -21.74,1.6562 -32,3.2674v-83.66238l-32,0.00002v90.70256c-11.68,3.3784 -22.43,7.4738 -32,12.1664v-102.86898l-32,0.00002v125.08696c-10.251,10.55 -16,22.396 -16,34.913zM320,960v-320h320v320zM480,880c88.36556,0 160,-35.81722 160,-80c0,-44.18278 -71.63444,-80 -160,-80c-88.36556,0 -160,35.81722 -160,80c0,44.18278 71.63444,80 160,80zM1440,320c-44.18278,0 -80,-71.63444 -80,-160c0,-88.36556 35.81722,-160 80,-160c44.18278,0 80,71.63444 80,160c0,88.36556 -35.81722,160 -80,160zM640,480c0,-44.18278 71.63444,-80 160,-80c88.36556,0 160,35.81722 160,80c0,44.18278 -71.63444,80 -160,80c-88.36556,0 -160,-35.81722 -160,-80c0,0 0,0 0,0zM0,640l0,-160c0,12.517 5.74947,24.363 16,34.913l0,125.087zM0,320h320v320h-16v-125.087c10.251,-10.55 16,-22.396 16,-34.913c0,-44.183 -71.634,-80 -160,-80c-88.3656,0 -160,35.817 -160,80zM240,549.297c11.68,-3.378 22.427,-7.473 32,-12.166v102.869h-32zM48,537.131c9.5727,4.693 20.3196,8.788 32,12.166l0,90.703h-32zM112,556.338c10.26,1.611 20.965,2.719 32,3.267v80.395h-32zM176,559.605c11.035,-0.548 21.74,-1.656 32,-3.267l0,83.662h-32zM160,320c-44.18278,0 -80,-71.63444 -80,-160c0,-88.36556 35.81722,-160 80,-160c44.18278,0 80,71.63444 80,160c0,88.36556 -35.81722,160 -80,160z" fill="#d9d9d6"/><path d="M1600,0h320v320h-320zM1760,240c88.36556,0 160,-35.81722 160,-80c0,-44.18278 -71.63444,-80 -160,-80c-88.36556,0 -160,35.81722 -160,80c0,44.18278 71.63444,80 160,80zM1120,320c44.18278,0 80,71.63444 80,160c0,88.36556 -35.81722,160 -80,160h160v320h-320v-320c0,0 160,0 160,0c-44.18278,0 -80,-71.63444 -80,-160c0,-88.36556 35.81722,-160 80,-160zM1120,880c88.36556,0 160,-35.81722 160,-80c0,-44.18278 -71.63444,-80 -160,-80c-88.36556,0 -160,35.81722 -160,80c0,44.18278 71.63444,80 160,80zM1440,560c88.36556,0 160,-35.81722 160,-80c0,-44.18278 -71.63444,-80 -160,-80c-88.36556,0 -160,35.81722 -160,80c0,0 0,-71.87543 0,-160h320v320h-320v-160c0,44.18278 71.63444,80 160,80zM160,960c-44.18278,0 -80,-71.63444 -80,-160c0,-88.36556 35.81722,-160 80,-160c0,0 0,0 0,0c44.18278,0 80,71.63444 80,160c0,88.36556 -35.81722,160 -80,160zM0,0h320v320l-320,0zM240,160c0,-88.36556 -35.81722,-160 -80,-160c-44.18278,0 -80,71.63444 -80,160c0,88.36556 35.81722,160 80,160c44.18278,0 80,-71.63444 80,-160z" fill="#4997d0"/><path d="M1120,106.6667c29.45517,0 53.3333,23.87813 53.3333,53.3333c0,29.45517 -23.87813,53.3333 -53.3333,53.3333c-29.45517,0 -53.3333,-23.87813 -53.3333,-53.3333c0,-29.45517 23.87813,-53.3333 53.3333,-53.3333zM480,640c-44.18278,0 -80,-71.63444 -80,-160c0,-88.36556 35.81722,-160 80,-160c44.18278,0 80,71.63444 80,160c0,88.36556 -35.81722,160 -80,160zM1280,480c0,-44.18278 71.63444,-80 160,-80c88.36556,0 160,35.81722 160,80c0,44.18278 -71.63444,80 -160,80c-88.36556,0 -160,-35.81722 -160,-80c0,0 0,0 0,0zM1360,800c0,88.366 35.82,160 80,160c12.52,0 24.36,-5.749 34.91,-16h125.09v16h-320v-320h320v16h-125.09c-10.55,-10.251 -22.39,-16 -34.91,-16c-44.18,0 -80,71.634 -80,160zM1519.6,784c-0.54,-11.035 -1.65,-21.74 -3.26,-32h83.66v32zM1516.34,848c1.61,-10.26 2.72,-20.965 3.26,-32h80.4v32zM1497.13,912c4.69,-9.573 8.79,-20.32 12.17,-32h90.7v32zM1509.3,720c-3.38,-11.68 -7.48,-22.427 -12.17,-32h102.87v32zM800,560c88.36556,0 160,-35.81722 160,-80c0,-44.18278 -71.63444,-80 -160,-80c-88.36556,0 -160,35.81722 -160,80c0,0 0,-71.87543 0,-160c0,-139.60919 0,-320 0,-320h320v640h-320v-160c0,44.18278 71.63444,80 160,80zM880,160c0,-88.36556 -35.81722,-160 -80,-160c-44.18278,0 -80,71.63444 -80,160c0,88.36556 35.81722,160 80,160c44.18278,0 80,-71.63444 80,-160zM0,960v-320h160c-44.18278,0 -80,71.63444 -80,160c0,88.36556 35.81722,160 80,160c44.18278,0 80,-71.63444 80,-160c0,-88.36556 -35.81722,-160 -80,-160c0,0 160,0 160,0v320z" fill="#ff4f00"/><path d="M320,640v-320h320v320zM560,480c0,-88.36556 -35.81722,-160 -80,-160c-44.18278,0 -80,71.63444 -80,160c0,88.36556 35.81722,160 80,160c44.18278,0 80,-71.63444 80,-160zM1520,160c0,-88.36556 -35.81722,-160 -80,-160c-44.18278,0 -80,71.63444 -80,160c0,88.36556 35.81722,160 80,160c44.18278,0 80,-71.63444 80,-160zM1280,0h320v320l-320,0c0,-139.60919 0,-320 0,-320zM853.3333,800c0,29.45517 -23.87813,53.3333 -53.3333,53.3333c-29.45517,0 -53.3333,-23.87813 -53.3333,-53.3333c0,-29.45517 23.87813,-53.3333 53.3333,-53.3333c29.45517,0 53.3333,23.87813 53.3333,53.3333zM720,800c0,88.36556 35.81722,160 80,160c44.18278,0 80,-71.63444 80,-160c0,-88.36556 -35.81722,-160 -80,-160c0,0 160,0 160,0v320h-320v-320h160c-44.18278,0 -80,71.63444 -80,160zM800,640c0,0 0,0 0,0z" fill="#ffa300"/></g></svg>