<svg xmlns="http://www.w3.org/2000/svg" width="1200" height="600" viewBox="0 0 1920 960"><g xmlns="http://www.w3.org/2000/svg" fill="#000000" fill-rule="nonzero" stroke="none" stroke-width="1" stroke-linecap="butt" stroke-linejoin="miter" stroke-miterlimit="10" stroke-dasharray="" stroke-dashoffset="0" font-family="none" font-weight="none" font-size="none" text-anchor="none" style="mix-blend-mode: normal"><path d="M0,960v-960h1920v960h-640v-400v400h-320zM1760,40c66.27417,0 120,53.72583 120,120c0,-66.27417 -53.72583,-120 -120,-120zM1280,320c-24.21,-2.02 -47.43,-16.74 -57.19,-44.18c9.76,27.44 32.98,42.16 57.19,44.18zM1004.18,582.81c-27.44,9.76 -42.17,32.98 -44.18,57.19c2.01,-24.21 16.74,-47.43 44.18,-57.19zM888.66,397.52c-42.16,-19.21 -82.73,-5.73 -116.4,8.02c33.67,-13.75 74.24,-27.23 116.4,-8.02zM692.93,425.6c-15.06,0 -27.27,-11.82 -27.27,-26.4c0,14.58 12.21,26.4 27.27,26.4zM692.93,372.8c-29.23,0 -52.93,-23.64 -52.93,-52.8c0,29.16 23.7,52.8 52.93,52.8zM640,320c0,-29.16 23.7,-52.8 52.93,-52.8c-29.23,0 -52.93,23.64 -52.93,52.8zM772.26,234.46c33.67,13.75 74.24,27.23 116.4,8.02c-42.16,19.21 -82.73,5.73 -116.4,-8.02zM960,0c2.01,24.21 16.74,47.43 44.18,57.19c-27.44,-9.76 -42.17,-32.98 -44.18,-57.19zM1042.14,148.83c-27,56.78 32.24,116.02 89.03,89.03c-56.79,26.99 -116.03,-32.25 -89.03,-89.03z"/></g></svg>