<svg xmlns="http://www.w3.org/2000/svg" width="1200" height="600" viewBox="0 0 1920 960"><g xmlns="http://www.w3.org/2000/svg" fill="none" fill-rule="nonzero" stroke="none" stroke-width="1" stroke-linecap="butt" stroke-linejoin="miter" stroke-miterlimit="10" stroke-dasharray="" stroke-dashoffset="0" font-family="none" font-weight="none" font-size="none" text-anchor="none" style="mix-blend-mode: normal"><path d="M0,400h240v240h-240zM0,720h240v240h-240zM1640,160c0,-66.27417 53.72583,-120 120,-120c66.27417,0 120,53.72583 120,120c0,66.27417 -53.72583,120 -120,120c-66.27417,0 -120,-53.72583 -120,-120zM1390,750h100v100h-100zM1710,750h100v100h-100zM560,720v240h-240v-240z" fill="#ffa300"/><path d="M0,320h320v320h320v320h-80v-240h-240v240h-80v-240h-240v-80h240v-240h-240zM1280,960v-320h640v320zM1390,850h100v-100h-100zM1710,850h100v-100h-100zM320,0l160,320h-160zM1120,800l160,160h-320z" fill="#121212"/><path d="M960,880v80h-320v-320l157.6,240zM480,480l160,160h-320v-320h160zM160,160l160,-160v320h-320v-160zM1760,480l160,-160v320h-640v-80l160,-80l160,-160v240z" fill="#000000"/><path d="M1222.81,275.82c-13.26,-37.3 -55.88,-54.96 -91.64,-37.96c-56.79,26.99 -116.03,-32.25 -89.03,-89.03c17,-35.76 -0.66,-78.37 -37.96,-91.64c-27.44,-9.76 -42.17,-32.98 -44.18,-57.19h-32l-1.57,0.02l-1.57,0.06l-1.57,0.09l-1.56,0.14l-1.56,0.17l-1.56,0.21l-1.55,0.25l-1.55,0.29l-1.53,0.33l-1.53,0.36l-1.52,0.4l-1.51,0.44l-1.5,0.47l-1.48,0.51l-1.47,0.55l-1.46,0.58l-1.45,0.62l-1.42,0.65l-1.42,0.69l-1.39,0.73l-1.38,0.75l-1.35,0.8l-1.34,0.82l-1.32,0.86l-1.29,0.88l-1.27,0.92l-1.25,0.96l-1.23,0.98l-1.2,1.01l-1.18,1.04l-1.15,1.07l-1.12,1.1l-1.1,1.12l-1.07,1.15l-1.04,1.18l-1.01,1.2l-0.98,1.23l-0.96,1.25l-0.92,1.27l-0.88,1.29l-0.86,1.32l-0.82,1.34l-0.8,1.35l-0.75,1.38l-0.73,1.39l-0.69,1.42l-0.65,1.42l-0.62,1.45l-0.58,1.46l-0.55,1.47l-0.51,1.48l-0.47,1.5l-0.44,1.51l-0.4,1.52l-0.36,1.53l-0.33,1.53l-0.29,1.55l-0.25,1.55l-0.21,1.56l-0.17,1.56l-0.14,1.56l-0.09,1.57l-0.06,1.57l-0.02,1.57l0.02,1.57l0.06,1.57l0.09,1.57l0.14,1.56l0.17,1.56l0.21,1.56l0.25,1.55l0.29,1.55l0.33,1.53l0.36,1.53l0.4,1.52l0.44,1.51l0.47,1.5l0.51,1.48l0.55,1.47l0.58,1.46l0.62,1.45l0.65,1.42l0.69,1.42l0.73,1.39l0.75,1.38l0.8,1.35l0.82,1.34l0.86,1.32l0.88,1.29l0.92,1.27l0.96,1.25l0.98,1.23l1.01,1.2l1.04,1.18l1.07,1.15l1.1,1.12l1.12,1.1l1.15,1.07l1.18,1.04l1.2,1.01l1.23,0.98l1.25,0.96l1.27,0.92l1.29,0.88l1.32,0.86l1.34,0.82l1.35,0.8l1.38,0.75l1.39,0.73l1.42,0.69l1.42,0.65l1.45,0.62l1.46,0.58l1.47,0.55l1.48,0.51l1.5,0.47l1.51,0.44l1.52,0.4l1.53,0.36l1.53,0.33l1.55,0.29l1.55,0.25l1.56,0.21l1.56,0.17l1.56,0.14l1.57,0.09l1.57,0.06l1.57,0.02l-1.57,0.02l-1.57,0.06l-1.57,0.09l-1.56,0.14l-1.56,0.17l-1.56,0.21l-1.55,0.25l-1.55,0.29l-1.53,0.33l-1.53,0.36l-1.52,0.4l-1.51,0.44l-1.5,0.47l-1.48,0.51l-1.47,0.55l-1.46,0.58l-1.45,0.62l-1.42,0.65l-1.42,0.69l-1.39,0.73l-1.38,0.75l-1.35,0.8l-1.34,0.82l-1.32,0.86l-1.29,0.88l-1.27,0.92l-1.25,0.96l-1.23,0.98l-1.2,1.01l-1.18,1.04l-1.15,1.07l-1.12,1.1l-1.1,1.12l-1.07,1.15l-1.04,1.18l-1.01,1.2l-0.98,1.23l-0.96,1.25l-0.92,1.27l-0.88,1.29l-0.86,1.32l-0.82,1.34l-0.8,1.35l-0.75,1.38l-0.73,1.39l-0.69,1.42l-0.65,1.42l-0.62,1.45l-0.58,1.46l-0.55,1.47l-0.51,1.48l-0.47,1.5l-0.44,1.51l-0.4,1.52l-0.36,1.53l-0.33,1.53l-0.29,1.55l-0.25,1.55l-0.21,1.56l-0.17,1.56l-0.14,1.56l-0.09,1.57l-0.06,1.57l-0.02,1.57l0.02,1.57l0.06,1.57l0.09,1.57l0.14,1.56l0.17,1.56l0.21,1.56l0.25,1.55l0.29,1.55l0.33,1.53l0.36,1.53l0.4,1.52l0.44,1.51l0.47,1.5l0.51,1.48l0.55,1.47l0.58,1.46l0.62,1.45l0.65,1.42l0.69,1.42l0.73,1.39l0.75,1.38l0.8,1.35l0.82,1.34l0.86,1.32l0.88,1.29l0.92,1.27l0.96,1.25l0.98,1.23l1.01,1.2l1.04,1.18l1.07,1.15l1.1,1.12l1.12,1.1l1.15,1.07l1.18,1.04l1.2,1.01l1.23,0.98l0.03,0.03c-42.16,19.21 -82.73,5.73 -116.4,-8.02c-23.8,-9.73 -49.09,-20.06 -79.33,-20.06c-15.06,0 -27.27,11.82 -27.27,26.4c0,14.58 12.21,26.4 27.27,26.4c-29.23,0 -52.93,23.64 -52.93,52.8c0,29.16 23.7,52.8 52.93,52.8c-15.06,0 -27.27,11.82 -27.27,26.4c0,14.58 12.21,26.4 27.27,26.4c30.24,0 55.53,-10.33 79.33,-20.06c33.67,-13.75 74.24,-27.23 116.4,-8.02l-0.03,0.03l-1.23,0.98l-1.2,1.01l-1.18,1.04l-1.15,1.07l-1.12,1.1l-1.1,1.12l-1.07,1.15l-1.04,1.18l-1.01,1.2l-0.98,1.23l-0.96,1.25l-0.92,1.27l-0.88,1.29l-0.86,1.32l-0.82,1.34l-0.8,1.35l-0.75,1.38l-0.73,1.39l-0.69,1.42l-0.65,1.42l-0.62,1.45l-0.58,1.46l-0.55,1.47l-0.51,1.48l-0.47,1.5l-0.44,1.51l-0.4,1.52l-0.36,1.53l-0.33,1.53l-0.29,1.55l-0.25,1.55l-0.21,1.56l-0.17,1.56l-0.14,1.56l-0.09,1.57l-0.06,1.57l-0.02,1.57l0.02,1.57l0.06,1.57l0.09,1.57l0.14,1.56l0.17,1.56l0.21,1.56l0.25,1.55l0.29,1.55l0.33,1.53l0.36,1.53l0.4,1.52l0.44,1.51l0.47,1.5l0.51,1.48l0.55,1.47l0.58,1.46l0.62,1.45l0.65,1.42l0.69,1.42l0.73,1.39l0.75,1.38l0.8,1.35l0.82,1.34l0.86,1.32l0.88,1.29l0.92,1.27l0.96,1.25l0.98,1.23l1.01,1.2l1.04,1.18l1.07,1.15l1.1,1.12l1.12,1.1l1.15,1.07l1.18,1.04l1.2,1.01l1.23,0.98l1.25,0.96l1.27,0.92l1.29,0.88l1.32,0.86l1.34,0.82l1.35,0.8l1.38,0.75l1.39,0.73l1.42,0.69l1.42,0.65l1.45,0.62l1.46,0.58l1.47,0.55l1.48,0.51l1.5,0.47l1.51,0.44l1.52,0.4l1.53,0.36l1.53,0.33l1.55,0.29l1.55,0.25l1.56,0.21l1.56,0.17l1.56,0.14l1.57,0.09l1.57,0.06l1.57,0.02l-1.57,0.02l-1.57,0.06l-1.57,0.09l-1.56,0.14l-1.56,0.17l-1.56,0.21l-1.55,0.25l-1.55,0.29l-1.53,0.33l-1.53,0.36l-1.52,0.4l-1.51,0.44l-1.5,0.47l-1.48,0.51l-1.47,0.55l-1.46,0.58l-1.45,0.62l-1.42,0.65l-1.42,0.69l-1.39,0.73l-1.38,0.75l-1.35,0.8l-1.34,0.82l-1.32,0.86l-1.29,0.88l-1.27,0.92l-1.25,0.96l-1.23,0.98l-1.2,1.01l-1.18,1.04l-1.15,1.07l-1.12,1.1l-1.1,1.12l-1.07,1.15l-1.04,1.18l-1.01,1.2l-0.98,1.23l-0.96,1.25l-0.92,1.27l-0.88,1.29l-0.86,1.32l-0.82,1.34l-0.8,1.35l-0.75,1.38l-0.73,1.39l-0.69,1.42l-0.65,1.42l-0.62,1.45l-0.58,1.46l-0.55,1.47l-0.51,1.48l-0.47,1.5l-0.44,1.51l-0.4,1.52l-0.36,1.53l-0.33,1.53l-0.29,1.55l-0.25,1.55l-0.21,1.56l-0.17,1.56l-0.14,1.56l-0.09,1.57l-0.06,1.57l-0.02,1.57l0.02,1.57l0.06,1.57l0.09,1.57l0.14,1.56l0.17,1.56l0.21,1.56l0.25,1.55l0.29,1.55l0.33,1.53l0.36,1.53l0.4,1.52l0.44,1.51l0.47,1.5l0.51,1.48l0.55,1.47l0.58,1.46l0.62,1.45l0.65,1.42l0.69,1.42l0.73,1.39l0.75,1.38l0.8,1.35l0.82,1.34l0.86,1.32l0.88,1.29l0.92,1.27l0.96,1.25l0.98,1.23l1.01,1.2l1.04,1.18l1.07,1.15l1.1,1.12l1.12,1.1l1.15,1.07l1.18,1.04l1.2,1.01l1.23,0.98l1.25,0.96l1.27,0.92l1.29,0.88l1.32,0.86l1.34,0.82l1.35,0.8l1.38,0.75l1.39,0.73l1.42,0.69l1.42,0.65l1.45,0.62l1.46,0.58l1.47,0.55l1.48,0.51l1.5,0.47l1.51,0.44l1.52,0.4l1.53,0.36l1.53,0.33l1.55,0.29l1.55,0.25l1.56,0.21l1.56,0.17l1.56,0.14l1.57,0.09l1.57,0.06l1.57,0.02h32c2.01,-24.21 16.74,-47.43 44.18,-57.19c37.3,-13.27 54.96,-55.88 37.96,-91.64c-27,-56.78 32.24,-116.02 89.03,-89.03c35.76,17 78.38,-0.66 91.64,-37.96c9.76,-27.44 32.98,-42.16 57.19,-44.18c-24.21,-2.02 -47.43,-16.74 -57.19,-44.18z" fill="#f3f3f3"/><path d="M0,0l928,0l-1.57,0.02l-1.57,0.06l-1.57,0.09l-1.56,0.14l-1.56,0.17l-1.56,0.21l-1.55,0.25l-1.55,0.29l-1.53,0.33l-1.53,0.36l-1.52,0.4l-1.51,0.44l-1.5,0.47l-1.48,0.51l-1.47,0.55l-1.46,0.58l-1.45,0.62l-1.42,0.65l-1.42,0.69l-1.39,0.73l-1.38,0.75l-1.35,0.8l-1.34,0.82l-1.32,0.86l-1.29,0.88l-1.27,0.92l-1.25,0.96l-1.23,0.98l-1.2,1.01l-1.18,1.04l-1.15,1.07l-1.12,1.1l-1.1,1.12l-1.07,1.15l-1.04,1.18l-1.01,1.2l-0.98,1.23l-0.96,1.25l-0.92,1.27l-0.88,1.29l-0.86,1.32l-0.82,1.34l-0.8,1.35l-0.75,1.38l-0.73,1.39l-0.69,1.42l-0.65,1.42l-0.62,1.45l-0.58,1.46l-0.55,1.47l-0.51,1.48l-0.47,1.5l-0.44,1.51l-0.4,1.52l-0.36,1.53l-0.33,1.53l-0.29,1.55l-0.25,1.55l-0.21,1.56l-0.17,1.56l-0.14,1.56l-0.09,1.57l-0.06,1.57l-0.02,1.57l0.02,1.57l0.06,1.57l0.09,1.57l0.14,1.56l0.17,1.56l0.21,1.56l0.25,1.55l0.29,1.55l0.33,1.53l0.36,1.53l0.4,1.52l0.44,1.51l0.47,1.5l0.51,1.48l0.55,1.47l0.58,1.46l0.62,1.45l0.65,1.42l0.69,1.42l0.73,1.39l0.75,1.38l0.8,1.35l0.82,1.34l0.86,1.32l0.88,1.29l0.92,1.27l0.96,1.25l0.98,1.23l1.01,1.2l1.04,1.18l1.07,1.15l1.1,1.12l1.12,1.1l1.15,1.07l1.18,1.04l1.2,1.01l1.23,0.98l1.25,0.96l1.27,0.92l1.29,0.88l1.32,0.86l1.34,0.82l1.35,0.8l1.38,0.75l1.39,0.73l1.42,0.69l1.42,0.65l1.45,0.62l1.46,0.58l1.47,0.55l1.48,0.51l1.5,0.47l1.51,0.44l1.52,0.4l1.53,0.36l1.53,0.33l1.55,0.29l1.55,0.25l1.56,0.21l1.56,0.17l1.56,0.14l1.57,0.09l1.57,0.06l1.57,0.02l-1.57,0.02l-1.57,0.06l-1.57,0.09l-1.56,0.14l-1.56,0.17l-1.56,0.21l-1.55,0.25l-1.55,0.29l-1.53,0.33l-1.53,0.36l-1.52,0.4l-1.51,0.44l-1.5,0.47l-1.48,0.51l-1.47,0.55l-1.46,0.58l-1.45,0.62l-1.42,0.65l-1.42,0.69l-1.39,0.73l-1.38,0.75l-1.35,0.8l-1.34,0.82l-1.32,0.86l-1.29,0.88l-1.27,0.92l-1.25,0.96l-1.23,0.98l-1.2,1.01l-1.18,1.04l-1.15,1.07l-1.12,1.1l-1.1,1.12l-1.07,1.15l-1.04,1.18l-1.01,1.2l-0.98,1.23l-0.96,1.25l-0.92,1.27l-0.88,1.29l-0.86,1.32l-0.82,1.34l-0.8,1.35l-0.75,1.38l-0.73,1.39l-0.69,1.42l-0.65,1.42l-0.62,1.45l-0.58,1.46l-0.55,1.47l-0.51,1.48l-0.47,1.5l-0.44,1.51l-0.4,1.52l-0.36,1.53l-0.33,1.53l-0.29,1.55l-0.25,1.55l-0.21,1.56l-0.17,1.56l-0.14,1.56l-0.09,1.57l-0.06,1.57l-0.02,1.57l0.02,1.57l0.06,1.57l0.09,1.57l0.14,1.56l0.17,1.56l0.21,1.56l0.25,1.55l0.29,1.55l0.33,1.53l0.36,1.53l0.4,1.52l0.44,1.51l0.47,1.5l0.51,1.48l0.55,1.47l0.58,1.46l0.62,1.45l0.65,1.42l0.69,1.42l0.73,1.39l0.75,1.38l0.8,1.35l0.82,1.34l0.86,1.32l0.88,1.29l0.92,1.27l0.96,1.25l0.98,1.23l1.01,1.2l1.04,1.18l1.07,1.15l1.1,1.12l1.12,1.1l1.15,1.07l1.18,1.04l1.2,1.01l1.23,0.98l0.03,0.03c-42.16,19.21 -82.73,5.73 -116.4,-8.02c-23.8,-9.73 -49.09,-20.06 -79.33,-20.06c-15.06,0 -27.27,11.82 -27.27,26.4c0,14.58 12.21,26.4 27.27,26.4c-29.23,0 -52.93,23.64 -52.93,52.8c0,29.16 23.7,52.8 52.93,52.8c-15.06,0 -27.27,11.82 -27.27,26.4c0,14.58 12.21,26.4 27.27,26.4c30.24,0 55.53,-10.33 79.33,-20.06c33.67,-13.75 74.24,-27.23 116.4,-8.02l-0.03,0.03l-1.23,0.98l-1.2,1.01l-1.18,1.04l-1.15,1.07l-1.12,1.1l-1.1,1.12l-1.07,1.15l-1.04,1.18l-1.01,1.2l-0.98,1.23l-0.96,1.25l-0.92,1.27l-0.88,1.29l-0.86,1.32l-0.82,1.34l-0.8,1.35l-0.75,1.38l-0.73,1.39l-0.69,1.42l-0.65,1.42l-0.62,1.45l-0.58,1.46l-0.55,1.47l-0.51,1.48l-0.47,1.5l-0.44,1.51l-0.4,1.52l-0.36,1.53l-0.33,1.53l-0.29,1.55l-0.25,1.55l-0.21,1.56l-0.17,1.56l-0.14,1.56l-0.09,1.57l-0.06,1.57l-0.02,1.57l0.02,1.57l0.06,1.57l0.09,1.57l0.14,1.56l0.17,1.56l0.21,1.56l0.25,1.55l0.29,1.55l0.33,1.53l0.36,1.53l0.4,1.52l0.44,1.51l0.47,1.5l0.51,1.48l0.55,1.47l0.58,1.46l0.62,1.45l0.65,1.42l0.69,1.42l0.73,1.39l0.75,1.38l0.8,1.35l0.82,1.34l0.86,1.32l0.88,1.29l0.92,1.27l0.96,1.25l0.98,1.23l1.01,1.2l1.04,1.18l1.07,1.15l1.1,1.12l1.12,1.1l1.15,1.07l1.18,1.04l1.2,1.01l1.23,0.98l1.25,0.96l1.27,0.92l1.29,0.88l1.32,0.86l1.34,0.82l1.35,0.8l1.38,0.75l1.39,0.73l1.42,0.69l1.42,0.65l1.45,0.62l1.46,0.58l1.47,0.55l1.48,0.51l1.5,0.47l1.51,0.44l1.52,0.4l1.53,0.36l1.53,0.33l1.55,0.29l1.55,0.25l1.56,0.21l1.56,0.17l1.56,0.14l1.57,0.09l1.57,0.06l1.57,0.02l-1.57,0.02l-1.57,0.06l-1.57,0.09l-1.56,0.14l-1.56,0.17l-1.56,0.21l-1.55,0.25l-1.55,0.29l-1.53,0.33l-1.53,0.36l-1.52,0.4l-1.51,0.44l-1.5,0.47l-1.48,0.51l-1.47,0.55l-1.46,0.58l-1.45,0.62l-1.42,0.65l-1.42,0.69l-1.39,0.73l-1.38,0.75l-1.35,0.8l-1.34,0.82l-1.32,0.86l-1.29,0.88l-1.27,0.92l-1.25,0.96l-1.23,0.98l-1.2,1.01l-1.18,1.04l-1.15,1.07l-1.12,1.1l-1.1,1.12l-1.07,1.15l-1.04,1.18l-1.01,1.2l-0.98,1.23l-0.96,1.25l-0.92,1.27l-0.88,1.29l-0.86,1.32l-0.82,1.34l-0.8,1.35l-0.75,1.38l-0.73,1.39l-0.69,1.42l-0.65,1.42l-0.62,1.45l-0.58,1.46l-0.55,1.47l-0.51,1.48l-0.47,1.5l-0.44,1.51l-0.4,1.52l-0.36,1.53l-0.33,1.53l-0.29,1.55l-0.25,1.55l-0.21,1.56l-0.17,1.56l-0.14,1.56l-0.09,1.57l-0.06,1.57l-0.02,1.57l0.02,1.57l0.06,1.57l0.09,1.57l0.14,1.56l0.17,1.56l0.21,1.56l0.25,1.55l0.29,1.55l0.33,1.53l0.36,1.53l0.4,1.52l0.44,1.51l0.47,1.5l0.51,1.48l0.55,1.47l0.58,1.46l0.62,1.45l0.65,1.42l0.69,1.42l0.73,1.39l0.75,1.38l0.8,1.35l0.82,1.34l0.86,1.32l0.88,1.29l0.92,1.27l0.96,1.25l0.98,1.23l1.01,1.2l1.04,1.18l1.07,1.15l1.1,1.12l1.12,1.1l1.15,1.07l1.18,1.04l1.2,1.01l1.23,0.98l1.25,0.96l1.27,0.92l1.29,0.88l1.32,0.86l1.34,0.82l1.35,0.8l1.38,0.75l1.39,0.73l1.42,0.69l1.42,0.65l1.45,0.62l1.46,0.58l1.47,0.55l1.48,0.51l1.5,0.47l1.51,0.44l1.52,0.4l1.53,0.36l1.53,0.33l1.55,0.29l1.55,0.25l1.56,0.21l1.56,0.17l1.56,0.14l1.57,0.09l1.57,0.06l1.57,0.02h32c2.01,-24.21 16.74,-47.43 44.18,-57.19c37.3,-13.27 54.96,-55.88 37.96,-91.64c-27,-56.78 32.24,-116.02 89.03,-89.03c35.76,17 78.38,-0.66 91.64,-37.96c9.76,-27.44 32.98,-42.16 57.19,-44.18c-24.21,-2.02 -47.43,-16.74 -57.19,-44.18c-13.26,-37.3 -55.88,-54.96 -91.64,-37.96c-56.79,26.99 -116.03,-32.25 -89.03,-89.03c17,-35.76 -0.66,-78.37 -37.96,-91.64c-27.44,-9.76 -42.17,-32.98 -44.18,-57.19h960v320l-160,160l-160,80v-240l-160,160l-160,80v400l-160,-160l-160,160v-80h-162.4l-157.6,-240l-160,-160v-160l-160,-320l-160,160l-160,0zM1760,280c66.27417,0 120,-53.72583 120,-120c0,-66.27417 -53.72583,-120 -120,-120c-66.27417,0 -120,53.72583 -120,120c0,66.27417 53.72583,120 120,120z" fill="#d9d9d6"/></g></svg>