<svg xmlns="http://www.w3.org/2000/svg" width="1200" height="600" viewBox="0 0 1920 960"><g xmlns="http://www.w3.org/2000/svg" fill="none" fill-rule="nonzero" stroke="none" stroke-width="1" stroke-linecap="butt" stroke-linejoin="miter" stroke-miterlimit="10" stroke-dasharray="" stroke-dashoffset="0" font-family="none" font-weight="none" font-size="none" text-anchor="none" style="mix-blend-mode: normal"><path d="M320,320c2.01,24.21 16.74,47.43 44.18,57.19c37.3,13.27 54.96,55.88 37.96,91.64c-27,56.78 32.24,116.02 89.03,89.03c35.76,-17 78.38,0.65 91.64,37.96c9.76,27.45 32.98,42.16 57.19,44.18c-24.21,2.02 -47.43,16.73 -57.19,44.18c-13.26,37.31 -55.88,54.96 -91.64,37.96c-56.79,-26.99 -116.03,32.25 -89.03,89.03c17,35.76 -0.66,78.37 -37.96,91.64c-27.44,9.76 -42.17,32.98 -44.18,57.19z" fill="#ffa300"/><path d="M1337.19,595.82c13.26,-37.31 55.88,-54.96 91.64,-37.96c56.79,26.99 116.03,-32.25 89.03,-89.03c-17,-35.76 0.66,-78.37 37.96,-91.64c27.44,-9.76 42.17,-32.98 44.18,-57.19c-2.01,-24.21 -16.74,-47.43 -44.18,-57.19c-37.3,-13.27 -54.96,-55.88 -37.96,-91.64c27,-56.78 -32.24,-116.02 -89.03,-89.03c-35.76,17 -78.38,-0.65 -91.64,-37.96c-9.76,-27.44 -32.98,-42.16 -57.19,-44.18h640c-24.21,2.02 -47.43,16.74 -57.19,44.18c-13.26,37.31 -55.88,54.96 -91.64,37.96c-56.79,-26.99 -116.03,32.25 -89.03,89.03c17,35.76 -0.66,78.37 -37.96,91.64c-27.43245,9.75732 -42.1619,32.96723 -44.17834,57.17002l1.56834,0.01998l1.57,0.06l1.57,0.1l1.56,0.13l1.56,0.17l1.56,0.21l1.55,0.25l1.54,0.29l1.54,0.33l1.53,0.36l1.52,0.4l1.51,0.44l1.5,0.47l1.49,0.51l1.47,0.55l1.46,0.58l1.44,0.62l1.43,0.65l1.41,0.69l1.39,0.72l1.38,0.76l1.36,0.79l1.34,0.82l1.32,0.86l1.3,0.89l1.27,0.92l1.25,0.95l1.23,0.98l1.2,1.01l1.18,1.04l1.15,1.07l1.12,1.1l1.1,1.12l1.07,1.15l1.04,1.18l1.01,1.2l0.98,1.23l0.95,1.25l0.92,1.27l0.89,1.3l0.86,1.32l0.82,1.34l0.79,1.36l0.76,1.38l0.72,1.39l0.69,1.41l0.65,1.43l0.62,1.44l0.58,1.46l0.55,1.47l0.51,1.49l0.47,1.5l0.44,1.51l0.4,1.52l0.36,1.53l0.33,1.54l0.29,1.54l0.25,1.55l0.21,1.56l0.17,1.56l0.13,1.56l0.1,1.57l0.06,1.57l0.02,1.57l-0.02,1.57l-0.06,1.57l-0.1,1.57l-0.13,1.56l-0.17,1.56l-0.21,1.56l-0.25,1.55l-0.29,1.54l-0.33,1.54l-0.36,1.53l-0.4,1.52l-0.44,1.51l-0.47,1.5l-0.51,1.49l-0.55,1.47l-0.58,1.46l-0.62,1.44l-0.65,1.43l-0.69,1.41l-0.72,1.39l-0.76,1.38l-0.79,1.36l-0.82,1.34l-0.86,1.32l-0.89,1.3l-0.92,1.27l-0.95,1.25l-0.98,1.23l-1.01,1.2l-1.04,1.18l-1.07,1.15l-1.1,1.12l-1.12,1.1l-1.15,1.07l-1.18,1.04l-1.2,1.01l-1.23,0.98l-1.25,0.95l-1.27,0.92l-1.3,0.89l-1.32,0.86l-1.34,0.82l-1.36,0.79l-1.38,0.76l-1.39,0.72l-1.41,0.69l-1.43,0.65l-1.44,0.62l-1.46,0.58l-1.47,0.55l-1.49,0.51l-1.5,0.47l-1.51,0.44l-1.52,0.4l-1.53,0.36l-1.54,0.33l-1.54,0.29l-1.55,0.25l-1.56,0.21l-1.56,0.17l-1.56,0.13l-1.57,0.1l-1.57,0.06v-0.02l-1.57,0.02l1.57,0.02l1.57,0.06l1.57,0.1l1.56,0.13l1.56,0.17l1.56,0.21l1.55,0.25l1.54,0.29l1.54,0.33l1.53,0.36l1.52,0.4l1.51,0.44l1.5,0.47l1.49,0.51l1.47,0.55l1.46,0.58l1.44,0.62l1.43,0.65l1.41,0.69l1.39,0.72l1.38,0.76l1.36,0.79l1.34,0.82l1.32,0.86l1.3,0.89l1.27,0.92l1.25,0.95l1.23,0.98l1.2,1.01l1.18,1.04l1.15,1.07l1.12,1.1l1.1,1.12l1.07,1.15l1.04,1.18l1.01,1.2l0.98,1.23l0.95,1.25l0.92,1.27l0.89,1.3l0.86,1.32l0.82,1.34l0.79,1.36l0.76,1.38l0.72,1.39l0.69,1.41l0.65,1.43l0.62,1.44l0.58,1.46l0.55,1.47l0.51,1.49l0.47,1.5l0.44,1.51l0.4,1.52l0.36,1.53l0.33,1.54l0.29,1.54l0.25,1.55l0.21,1.56l0.17,1.56l0.13,1.56l0.1,1.57l0.06,1.57l0.02,1.57l-0.02,1.57l-0.06,1.57l-0.1,1.57l-0.13,1.56l-0.17,1.56l-0.21,1.56l-0.25,1.55l-0.29,1.54l-0.33,1.54l-0.36,1.53l-0.4,1.52l-0.44,1.51l-0.47,1.5l-0.51,1.49l-0.55,1.47l-0.58,1.46l-0.62,1.44l-0.65,1.43l-0.69,1.41l-0.72,1.39l-0.76,1.38l-0.79,1.36l-0.82,1.34l-0.86,1.32l-0.89,1.3l-0.92,1.27l-0.95,1.25l-0.98,1.23l-1.01,1.2l-1.04,1.18l-1.07,1.15l-1.1,1.12l-1.12,1.1l-1.15,1.07l-1.18,1.04l-1.2,1.01l-1.23,0.98l-1.25,0.95l-1.27,0.92l-1.3,0.89l-1.32,0.86l-1.34,0.82l-1.36,0.79l-1.38,0.76l-1.39,0.72l-1.41,0.69l-1.43,0.65l-1.44,0.62l-1.46,0.58l-1.47,0.55l-1.49,0.51l-1.5,0.47l-1.51,0.44l-1.52,0.4l-1.53,0.36l-1.54,0.33l-1.54,0.29l-1.55,0.25l-1.56,0.21l-1.56,0.17l-1.56,0.13l-1.57,0.1l-1.57,0.06v-0.02l-1.57,0.02v0.01013l1.56,0.01987l1.57,0.06l1.57,0.1l1.56,0.13l1.56,0.17l1.56,0.21l1.55,0.25l1.54,0.29l1.54,0.33l1.53,0.36l1.52,0.4l1.51,0.44l1.5,0.47l1.49,0.51l1.47,0.55l1.46,0.58l1.44,0.62l1.43,0.65l1.41,0.69l1.39,0.72l1.38,0.76l1.36,0.79l1.34,0.82l1.32,0.86l1.3,0.89l1.27,0.92l1.25,0.95l1.23,0.98l1.2,1.01l1.18,1.04l1.15,1.07l1.12,1.1l1.1,1.12l1.07,1.15l1.04,1.18l1.01,1.2l0.98,1.23l0.95,1.25l0.92,1.27l0.89,1.3l0.86,1.32l0.82,1.34l0.79,1.36l0.76,1.38l0.72,1.39l0.69,1.41l0.65,1.43l0.62,1.44l0.58,1.46l0.55,1.47l0.51,1.49l0.47,1.5l0.44,1.51l0.4,1.52l0.36,1.53l0.33,1.54l0.29,1.54l0.25,1.55l0.21,1.56l0.17,1.56l0.13,1.56l0.1,1.57l0.06,1.57l-0.01,-0.01l0.01513,1.1875l0.01487,-1.1675l0.06,-1.57l0.1,-1.57l0.13,-1.57l0.17,-1.56l0.21,-1.56l0.25,-1.55l0.29,-1.54l0.33,-1.54l0.36,-1.53l0.4,-1.52l0.44,-1.51l0.47,-1.5l0.51,-1.49l0.55,-1.47l0.58,-1.46l0.62,-1.44l0.65,-1.43l0.69,-1.41l0.72,-1.39l0.76,-1.38l0.79,-1.36l0.82,-1.34l0.86,-1.32l0.89,-1.3l0.92,-1.27l0.95,-1.25l0.98,-1.23l1.01,-1.2l1.04,-1.18l1.07,-1.15l1.1,-1.12l1.12,-1.1l1.15,-1.07l1.18,-1.04l1.2,-1.01l1.23,-0.98l1.25,-0.95l1.27,-0.92l1.3,-0.89l1.32,-0.86l1.34,-0.82l1.36,-0.79l1.38,-0.76l1.39,-0.72l1.41,-0.69l1.43,-0.65l1.44,-0.62l1.46,-0.58l1.47,-0.55l1.49,-0.51l1.5,-0.47l1.51,-0.44l1.52,-0.4l1.53,-0.36l1.54,-0.33l1.54,-0.29l1.55,-0.25l1.56,-0.21l1.56,-0.17l1.56,-0.13l1.57,-0.1l1.57,-0.06l1.57,-0.02l1.57,0.02l1.57,0.06l1.57,0.1l1.56,0.13l1.56,0.17l1.56,0.21l1.55,0.25l1.54,0.29l1.54,0.33l1.53,0.36l1.52,0.4l1.51,0.44l1.5,0.47l1.49,0.51l1.47,0.55l1.46,0.58l1.44,0.62l1.43,0.65l1.41,0.69l1.39,0.72l1.38,0.76l1.36,0.79l1.34,0.82l1.32,0.86l1.3,0.89l1.27,0.92l1.25,0.95l1.23,0.98l1.2,1.01l1.18,1.04l1.15,1.07l1.12,1.1l1.1,1.12l1.07,1.15l1.04,1.18l1.01,1.2l0.98,1.23l0.95,1.25l0.92,1.27l0.89,1.3l0.86,1.32l0.82,1.34l0.79,1.36l0.76,1.38l0.72,1.39l0.69,1.41l0.65,1.43l0.62,1.44l0.58,1.46l0.55,1.47l0.51,1.49l0.47,1.5l0.44,1.51l0.4,1.52l0.36,1.53l0.33,1.54l0.29,1.54l0.25,1.55l0.21,1.56l0.17,1.56l0.13,1.56l0.1,1.57l0.06,1.57l-0.02,0.01l0.01987,1.56l0.00025,0l0.01987,-1.56l0.06,-1.57l0.1,-1.57l0.13,-1.57l0.17,-1.56l0.21,-1.56l0.25,-1.55l0.29,-1.54l0.33,-1.54l0.36,-1.53l0.4,-1.52l0.44,-1.51l0.47,-1.5l0.51,-1.49l0.55,-1.47l0.58,-1.46l0.62,-1.44l0.65,-1.43l0.69,-1.41l0.72,-1.39l0.76,-1.38l0.79,-1.36l0.82,-1.34l0.86,-1.32l0.89,-1.3l0.92,-1.27l0.95,-1.25l0.98,-1.23l1.01,-1.2l1.04,-1.18l1.07,-1.15l1.1,-1.12l1.12,-1.1l1.15,-1.07l1.18,-1.04l1.2,-1.01l1.23,-0.98l1.25,-0.95l1.27,-0.92l1.3,-0.89l1.32,-0.86l1.34,-0.82l1.36,-0.79l1.38,-0.76l1.39,-0.72l1.41,-0.69l1.43,-0.65l1.44,-0.62l1.46,-0.58l1.47,-0.55l1.49,-0.51l1.5,-0.47l1.51,-0.44l1.52,-0.4l1.53,-0.36l1.54,-0.33l1.54,-0.29l1.55,-0.25l1.56,-0.21l1.56,-0.17l1.56,-0.13l1.57,-0.1l1.57,-0.06l1.57,-0.02l1.57,0.02l1.57,0.06l1.57,0.1l1.56,0.13l1.56,0.17l1.56,0.21l1.55,0.25l1.54,0.29l1.54,0.33l1.53,0.36l1.52,0.4l1.51,0.44l1.5,0.47l1.49,0.51l1.47,0.55l1.46,0.58l1.44,0.62l1.43,0.65l1.41,0.69l1.39,0.72l1.38,0.76l1.36,0.79l1.34,0.82l1.32,0.86l1.3,0.89l1.27,0.92l1.25,0.95l1.23,0.98l1.2,1.01l1.18,1.04l1.15,1.07l1.12,1.1l1.1,1.12l1.07,1.15l1.04,1.18l1.01,1.2l0.98,1.23l0.95,1.25l0.92,1.27l0.89,1.3l0.86,1.32l0.82,1.34l0.79,1.36l0.76,1.38l0.72,1.39l0.69,1.41l0.65,1.43l0.62,1.44l0.58,1.46l0.55,1.47l0.51,1.49l0.47,1.5l0.44,1.51l0.4,1.52l0.36,1.53l0.33,1.54l0.29,1.54l0.25,1.55l0.21,1.56l0.17,1.56l0.13,1.56l0.1,1.57l0.06,1.57l-0.02,0.01l0.01987,1.56h0.04013l-0.02,1.57l-0.06,1.57l-0.1,1.57l-0.13,1.56l-0.17,1.56l-0.21,1.56l-0.25,1.55l-0.29,1.54l-0.33,1.54l-0.36,1.53l-0.4,1.52l-0.44,1.51l-0.47,1.5l-0.51,1.49l-0.55,1.47l-0.58,1.46l-0.62,1.44l-0.65,1.43l-0.69,1.41l-0.72,1.39l-0.76,1.38l-0.79,1.36l-0.82,1.34l-0.86,1.32l-0.89,1.3l-0.92,1.27l-0.95,1.25l-0.98,1.23l-1.01,1.2l-1.04,1.18l-1.07,1.15l-1.1,1.12l-1.12,1.1l-1.15,1.07l-1.18,1.04l-1.2,1.01l-1.23,0.98l-1.25,0.95l-1.27,0.92l-1.3,0.89l-1.32,0.86l-1.34,0.82l-1.36,0.79l-1.38,0.76l-1.39,0.72l-1.41,0.69l-1.43,0.65l-1.44,0.62l-1.46,0.58l-1.47,0.55l-1.49,0.51l-1.5,0.47l-1.51,0.44l-1.52,0.4l-1.53,0.36l-1.54,0.33l-1.54,0.29l-1.55,0.25l-1.56,0.21l-1.56,0.17l-1.56,0.13l-1.57,0.1l-1.57,0.06l-1.57,0.02l-1.57,-0.02l-1.57,-0.06l-1.57,-0.1l-1.56,-0.13l-1.56,-0.17l-1.56,-0.21l-1.55,-0.25l-1.54,-0.29l-1.54,-0.33l-1.53,-0.36l-1.52,-0.4l-1.51,-0.44l-1.5,-0.47l-1.49,-0.51l-1.47,-0.55l-1.46,-0.58l-1.44,-0.62l-1.43,-0.65l-1.41,-0.69l-1.39,-0.72l-1.38,-0.76l-1.36,-0.79l-1.34,-0.82l-1.32,-0.86l-1.3,-0.89l-1.27,-0.92l-1.25,-0.95l-1.23,-0.98l-1.2,-1.01l-1.18,-1.04l-1.15,-1.07l-1.12,-1.1l-1.1,-1.12l-1.07,-1.15l-1.04,-1.18l-1.01,-1.2l-0.98,-1.23l-0.95,-1.25l-0.92,-1.27l-0.89,-1.3l-0.86,-1.32l-0.82,-1.34l-0.79,-1.36l-0.76,-1.38l-0.72,-1.39l-0.69,-1.41l-0.65,-1.43l-0.62,-1.44l-0.58,-1.46l-0.55,-1.47l-0.51,-1.49l-0.47,-1.5l-0.44,-1.51l-0.4,-1.52l-0.36,-1.53l-0.33,-1.54l-0.29,-1.54l-0.25,-1.55l-0.21,-1.56l-0.17,-1.56l-0.13,-1.56l-0.1,-1.57l-0.06,-1.57h0.02l-0.01987,-1.56h-0.00025l-0.01987,1.56l-0.06,1.57l-0.1,1.57l-0.13,1.56l-0.17,1.56l-0.21,1.56l-0.25,1.55l-0.29,1.54l-0.33,1.54l-0.36,1.53l-0.4,1.52l-0.44,1.51l-0.47,1.5l-0.51,1.49l-0.55,1.47l-0.58,1.46l-0.62,1.44l-0.65,1.43l-0.69,1.41l-0.72,1.39l-0.76,1.38l-0.79,1.36l-0.82,1.34l-0.86,1.32l-0.89,1.3l-0.92,1.27l-0.95,1.25l-0.98,1.23l-1.01,1.2l-1.04,1.18l-1.07,1.15l-1.1,1.12l-1.12,1.1l-1.15,1.07l-1.18,1.04l-1.2,1.01l-1.23,0.98l-1.25,0.95l-1.27,0.92l-1.3,0.89l-1.32,0.86l-1.34,0.82l-1.36,0.79l-1.38,0.76l-1.39,0.72l-1.41,0.69l-1.43,0.65l-1.44,0.62l-1.46,0.58l-1.47,0.55l-1.49,0.51l-1.5,0.47l-1.51,0.44l-1.52,0.4l-1.53,0.36l-1.54,0.33l-1.54,0.29l-1.55,0.25l-1.56,0.21l-1.56,0.17l-1.56,0.13l-1.57,0.1l-1.57,0.06l-1.57,0.02l-1.57,-0.02l-1.57,-0.06l-1.57,-0.1l-1.56,-0.13l-1.56,-0.17l-1.56,-0.21l-1.55,-0.25l-1.54,-0.29l-1.54,-0.33l-1.53,-0.36l-1.52,-0.4l-1.51,-0.44l-1.5,-0.47l-1.49,-0.51l-1.47,-0.55l-1.46,-0.58l-1.44,-0.62l-1.43,-0.65l-1.41,-0.69l-1.39,-0.72l-1.38,-0.76l-1.36,-0.79l-1.34,-0.82l-1.32,-0.86l-1.3,-0.89l-1.27,-0.92l-1.25,-0.95l-1.23,-0.98l-1.2,-1.01l-1.18,-1.04l-1.15,-1.07l-1.12,-1.1l-1.1,-1.12l-1.07,-1.15l-1.04,-1.18l-1.01,-1.2l-0.98,-1.23l-0.95,-1.25l-0.92,-1.27l-0.89,-1.3l-0.86,-1.32l-0.82,-1.34l-0.79,-1.36l-0.76,-1.38l-0.72,-1.39l-0.69,-1.41l-0.65,-1.43l-0.62,-1.44l-0.58,-1.46l-0.55,-1.47l-0.51,-1.49l-0.47,-1.5l-0.44,-1.51l-0.4,-1.52l-0.36,-1.53l-0.33,-1.54l-0.29,-1.54l-0.25,-1.55l-0.21,-1.56l-0.17,-1.56l-0.13,-1.56l-0.1,-1.57l-0.06,-1.57h0.02l-0.01987,-1.56h-0.01038l-0.01975,1.55l-0.06,1.57l-0.1,1.57l-0.13,1.56l-0.17,1.56l-0.21,1.56l-0.25,1.55l-0.29,1.54l-0.33,1.54l-0.36,1.53l-0.4,1.52l-0.44,1.51l-0.47,1.5l-0.51,1.49l-0.55,1.47l-0.58,1.46l-0.62,1.44l-0.65,1.43l-0.69,1.41l-0.72,1.39l-0.76,1.38l-0.79,1.36l-0.82,1.34l-0.86,1.32l-0.89,1.3l-0.92,1.27l-0.95,1.25l-0.98,1.23l-1.01,1.2l-1.04,1.18l-1.07,1.15l-1.1,1.12l-1.12,1.1l-1.15,1.07l-1.18,1.04l-1.2,1.01l-1.23,0.98l-1.25,0.95l-1.27,0.92l-1.3,0.89l-1.32,0.86l-1.34,0.82l-1.36,0.79l-1.38,0.76l-1.39,0.72l-1.41,0.69l-1.43,0.65l-1.44,0.62l-1.46,0.58l-1.47,0.55l-1.49,0.51l-1.5,0.47l-1.51,0.44l-1.52,0.4l-1.53,0.36l-1.54,0.33l-1.54,0.29l-1.55,0.25l-1.56,0.21l-1.56,0.17l-1.56,0.13l-1.57,0.1l-1.57,0.06l0.01,-0.01l-1.1825,0.01506l1.1725,0.01494l1.57,0.06l1.57,0.1l1.56,0.13l1.56,0.17l1.56,0.21l1.55,0.25l1.54,0.29l1.54,0.33l1.53,0.36l1.52,0.4l1.51,0.44l1.5,0.47l1.49,0.51l1.47,0.55l1.46,0.58l1.44,0.62l1.43,0.65l1.41,0.69l1.39,0.72l1.38,0.76l1.36,0.79l1.34,0.82l1.32,0.86l1.3,0.89l1.27,0.92l1.25,0.95l1.23,0.98l1.2,1.01l1.18,1.04l1.15,1.07l1.12,1.1l1.1,1.12l1.07,1.15l1.04,1.18l1.01,1.2l0.98,1.23l0.95,1.25l0.92,1.27l0.89,1.3l0.86,1.32l0.82,1.34l0.79,1.36l0.76,1.38l0.72,1.39l0.69,1.41l0.65,1.43l0.62,1.44l0.58,1.46l0.55,1.47l0.51,1.49l0.47,1.5l0.44,1.51l0.4,1.52l0.36,1.53l0.33,1.54l0.29,1.54l0.25,1.55l0.21,1.56l0.17,1.56l0.13,1.56l0.1,1.57l0.06,1.57l0.02,1.57l-0.02,1.57l-0.06,1.57l-0.1,1.57l-0.13,1.56l-0.17,1.56l-0.21,1.56l-0.25,1.55l-0.29,1.54l-0.33,1.54l-0.36,1.53l-0.4,1.52l-0.44,1.51l-0.47,1.5l-0.51,1.49l-0.55,1.47l-0.58,1.46l-0.62,1.44l-0.65,1.43l-0.69,1.41l-0.72,1.39l-0.76,1.38l-0.79,1.36l-0.82,1.34l-0.86,1.32l-0.89,1.3l-0.92,1.27l-0.95,1.25l-0.98,1.23l-1.01,1.2l-1.04,1.18l-1.07,1.15l-1.1,1.12l-1.12,1.1l-1.15,1.07l-1.18,1.04l-1.2,1.01l-1.23,0.98l-1.25,0.95l-1.27,0.92l-1.3,0.89l-1.32,0.86l-1.34,0.82l-1.36,0.79l-1.38,0.76l-1.39,0.72l-1.41,0.69l-1.43,0.65l-1.44,0.62l-1.46,0.58l-1.47,0.55l-1.49,0.51l-1.5,0.47l-1.51,0.44l-1.52,0.4l-1.53,0.36l-1.54,0.33l-1.54,0.29l-1.55,0.25l-1.56,0.21l-1.56,0.17l-1.56,0.13l-1.57,0.1l-1.57,0.06v-0.02l-1.57,0.02l1.57,0.02l1.57,0.06l1.57,0.1l1.56,0.13l1.56,0.17l1.56,0.21l1.55,0.25l1.54,0.29l1.54,0.33l1.53,0.36l1.52,0.4l1.51,0.44l1.5,0.47l1.49,0.51l1.47,0.55l1.46,0.58l1.44,0.62l1.43,0.65l1.41,0.69l1.39,0.72l1.38,0.76l1.36,0.79l1.34,0.82l1.32,0.86l1.3,0.89l1.27,0.92l1.25,0.95l1.23,0.98l1.2,1.01l1.18,1.04l1.15,1.07l1.12,1.1l1.1,1.12l1.07,1.15l1.04,1.18l1.01,1.2l0.98,1.23l0.95,1.25l0.92,1.27l0.89,1.3l0.86,1.32l0.82,1.34l0.79,1.36l0.76,1.38l0.72,1.39l0.69,1.41l0.65,1.43l0.62,1.44l0.58,1.46l0.55,1.47l0.51,1.49l0.47,1.5l0.44,1.51l0.4,1.52l0.36,1.53l0.33,1.54l0.29,1.54l0.25,1.55l0.21,1.56l0.17,1.56l0.13,1.56l0.1,1.57l0.06,1.57l0.02,1.57l-0.02,1.57l-0.06,1.57l-0.1,1.57l-0.13,1.56l-0.17,1.56l-0.21,1.56l-0.25,1.55l-0.29,1.54l-0.33,1.54l-0.36,1.53l-0.4,1.52l-0.44,1.51l-0.47,1.5l-0.51,1.49l-0.55,1.47l-0.58,1.46l-0.62,1.44l-0.65,1.43l-0.69,1.41l-0.72,1.39l-0.76,1.38l-0.79,1.36l-0.82,1.34l-0.86,1.32l-0.89,1.3l-0.92,1.27l-0.95,1.25l-0.98,1.23l-1.01,1.2l-1.04,1.18l-1.07,1.15l-1.1,1.12l-1.12,1.1l-1.15,1.07l-1.18,1.04l-1.2,1.01l-1.23,0.98l-1.25,0.95l-1.27,0.92l-1.3,0.89l-1.32,0.86l-1.34,0.82l-1.36,0.79l-1.38,0.76l-1.39,0.72l-1.41,0.69l-1.43,0.65l-1.44,0.62l-1.46,0.58l-1.47,0.55l-1.49,0.51l-1.5,0.47l-1.51,0.44l-1.52,0.4l-1.53,0.36l-1.54,0.33l-1.54,0.29l-1.55,0.25l-1.56,0.21l-1.56,0.17l-1.56,0.13l-1.57,0.1l-1.57,0.06v-0.02l-1.57,0.02v0.02c-2.01,-24.21 -16.74,-47.43 -44.18,-57.19c-37.3,-13.27 -54.96,-55.88 -37.96,-91.64c27,-56.78 -32.24,-116.02 -89.03,-89.03c-35.76,17 -78.38,-0.65 -91.64,-37.96c-9.75732,-27.44245 -32.96723,-42.15191 -57.17002,-44.17833l-0.01998,1.56833l-0.06,1.57l-0.1,1.57l-0.13,1.56l-0.17,1.56l-0.21,1.56l-0.25,1.55l-0.29,1.54l-0.33,1.54l-0.36,1.53l-0.4,1.52l-0.44,1.51l-0.47,1.5l-0.51,1.49l-0.55,1.47l-0.58,1.46l-0.62,1.44l-0.65,1.43l-0.69,1.41l-0.72,1.39l-0.76,1.38l-0.79,1.36l-0.82,1.34l-0.86,1.32l-0.89,1.3l-0.92,1.27l-0.95,1.25l-0.98,1.23l-1.01,1.2l-1.04,1.18l-1.07,1.15l-1.1,1.12l-1.12,1.1l-1.15,1.07l-1.18,1.04l-1.2,1.01l-1.23,0.98l-1.25,0.95l-1.27,0.92l-1.3,0.89l-1.32,0.86l-1.34,0.82l-1.36,0.79l-1.38,0.76l-1.39,0.72l-1.41,0.69l-1.43,0.65l-1.44,0.62l-1.46,0.58l-1.47,0.55l-1.49,0.51l-1.5,0.47l-1.51,0.44l-1.52,0.4l-1.53,0.36l-1.54,0.33l-1.54,0.29l-1.55,0.25l-1.56,0.21l-1.56,0.17l-1.56,0.13l-1.57,0.1l-1.57,0.06l-1.57,0.02l-1.57,-0.02l-1.57,-0.06l-1.57,-0.1l-1.56,-0.13l-1.56,-0.17l-1.56,-0.21l-1.55,-0.25l-1.54,-0.29l-1.54,-0.33l-1.53,-0.36l-1.52,-0.4l-1.51,-0.44l-1.5,-0.47l-1.49,-0.51l-1.47,-0.55l-1.46,-0.58l-1.44,-0.62l-1.43,-0.65l-1.41,-0.69l-1.39,-0.72l-1.38,-0.76l-1.36,-0.79l-1.34,-0.82l-1.32,-0.86l-1.3,-0.89l-1.27,-0.92l-1.25,-0.95l-1.23,-0.98l-1.2,-1.01l-1.18,-1.04l-1.15,-1.07l-1.12,-1.1l-1.1,-1.12l-1.07,-1.15l-1.04,-1.18l-1.01,-1.2l-0.98,-1.23l-0.95,-1.25l-0.92,-1.27l-0.89,-1.3l-0.86,-1.32l-0.82,-1.34l-0.79,-1.36l-0.76,-1.38l-0.72,-1.39l-0.69,-1.41l-0.65,-1.43l-0.62,-1.44l-0.58,-1.46l-0.55,-1.47l-0.51,-1.49l-0.47,-1.5l-0.44,-1.51l-0.4,-1.52l-0.36,-1.53l-0.33,-1.54l-0.29,-1.54l-0.25,-1.55l-0.21,-1.56l-0.17,-1.56l-0.13,-1.56l-0.1,-1.57l-0.06,-1.57h0.02l-0.02,-1.57l-0.02,1.57l-0.06,1.57l-0.1,1.57l-0.13,1.56l-0.17,1.56l-0.21,1.56l-0.25,1.55l-0.29,1.54l-0.33,1.54l-0.36,1.53l-0.4,1.52l-0.44,1.51l-0.47,1.5l-0.51,1.49l-0.55,1.47l-0.58,1.46l-0.62,1.44l-0.65,1.43l-0.69,1.41l-0.72,1.39l-0.76,1.38l-0.79,1.36l-0.82,1.34l-0.86,1.32l-0.89,1.3l-0.92,1.27l-0.95,1.25l-0.98,1.23l-1.01,1.2l-1.04,1.18l-1.07,1.15l-1.1,1.12l-1.12,1.1l-1.15,1.07l-1.18,1.04l-1.2,1.01l-1.23,0.98l-1.25,0.95l-1.27,0.92l-1.3,0.89l-1.32,0.86l-1.34,0.82l-1.36,0.79l-1.38,0.76l-1.39,0.72l-1.41,0.69l-1.43,0.65l-1.44,0.62l-1.46,0.58l-1.47,0.55l-1.49,0.51l-1.5,0.47l-1.51,0.44l-1.52,0.4l-1.53,0.36l-1.54,0.33l-1.54,0.29l-1.55,0.25l-1.56,0.21l-1.56,0.17l-1.56,0.13l-1.57,0.1l-1.57,0.06l-1.57,0.02l-1.57,-0.02l-1.57,-0.06l-1.57,-0.1l-1.56,-0.13l-1.56,-0.17l-1.56,-0.21l-1.55,-0.25l-1.54,-0.29l-1.54,-0.33l-1.53,-0.36l-1.52,-0.4l-1.51,-0.44l-1.5,-0.47l-1.49,-0.51l-1.47,-0.55l-1.46,-0.58l-1.44,-0.62l-1.43,-0.65l-1.41,-0.69l-1.39,-0.72l-1.38,-0.76l-1.36,-0.79l-1.34,-0.82l-1.32,-0.86l-1.3,-0.89l-1.27,-0.92l-1.25,-0.95l-1.23,-0.98l-1.2,-1.01l-1.18,-1.04l-1.15,-1.07l-1.12,-1.1l-1.1,-1.12l-1.07,-1.15l-1.04,-1.18l-1.01,-1.2l-0.98,-1.23l-0.95,-1.25l-0.92,-1.27l-0.89,-1.3l-0.86,-1.32l-0.82,-1.34l-0.79,-1.36l-0.76,-1.38l-0.72,-1.39l-0.69,-1.41l-0.65,-1.43l-0.62,-1.44l-0.58,-1.46l-0.55,-1.47l-0.51,-1.49l-0.47,-1.5l-0.44,-1.51l-0.4,-1.52l-0.36,-1.53l-0.33,-1.54l-0.29,-1.54l-0.25,-1.55l-0.21,-1.56l-0.17,-1.56l-0.13,-1.56l-0.1,-1.57l-0.06,-1.57h0.02l-0.02,-1.57h-0.01013l-0.01987,1.56l-0.06,1.57l-0.1,1.57l-0.13,1.56l-0.17,1.56l-0.21,1.56l-0.25,1.55l-0.29,1.54l-0.33,1.54l-0.36,1.53l-0.4,1.52l-0.44,1.51l-0.47,1.5l-0.51,1.49l-0.55,1.47l-0.58,1.46l-0.62,1.44l-0.65,1.43l-0.69,1.41l-0.72,1.39l-0.76,1.38l-0.79,1.36l-0.82,1.34l-0.86,1.32l-0.89,1.3l-0.92,1.27l-0.95,1.25l-0.98,1.23l-1.01,1.2l-1.04,1.18l-1.07,1.15l-1.1,1.12l-1.12,1.1l-1.15,1.07l-1.18,1.04l-1.2,1.01l-1.23,0.98l-1.25,0.95l-1.27,0.92l-1.3,0.89l-1.32,0.86l-1.34,0.82l-1.36,0.79l-1.38,0.76l-1.39,0.72l-1.41,0.69l-1.43,0.65l-1.44,0.62l-1.46,0.58l-1.47,0.55l-1.49,0.51l-1.5,0.47l-1.51,0.44l-1.52,0.4l-1.53,0.36l-1.54,0.33l-1.54,0.29l-1.55,0.25l-1.56,0.21l-1.56,0.17l-1.56,0.13l-1.57,0.1l-1.57,0.06l0.01,-0.01l-1.1875,0.01513l1.1675,0.01487l1.57,0.06l1.57,0.1l1.57,0.13l1.56,0.17l1.56,0.21l1.55,0.25l1.54,0.29l1.54,0.33l1.53,0.36l1.52,0.4l1.51,0.44l1.5,0.47l1.49,0.51l1.47,0.55l1.46,0.58l1.44,0.62l1.43,0.65l1.41,0.69l1.39,0.72l1.38,0.76l1.36,0.79l1.34,0.82l1.32,0.86l1.3,0.89l1.27,0.92l1.25,0.95l1.23,0.98l1.2,1.01l1.18,1.04l1.15,1.07l1.12,1.1l1.1,1.12l1.07,1.15l1.04,1.18l1.01,1.2l0.98,1.23l0.95,1.25l0.92,1.27l0.89,1.3l0.86,1.32l0.82,1.34l0.79,1.36l0.76,1.38l0.72,1.39l0.69,1.41l0.65,1.43l0.62,1.44l0.58,1.46l0.55,1.47l0.51,1.49l0.47,1.5l0.44,1.51l0.4,1.52l0.36,1.53l0.33,1.54l0.29,1.54l0.25,1.55l0.21,1.56l0.17,1.56l0.13,1.56l0.1,1.57l0.06,1.57l0.02,1.57l-0.02,1.57l-0.06,1.57l-0.1,1.57l-0.13,1.56l-0.17,1.56l-0.21,1.56l-0.25,1.55l-0.29,1.54l-0.33,1.54l-0.36,1.53l-0.4,1.52l-0.44,1.51l-0.47,1.5l-0.51,1.49l-0.55,1.47l-0.58,1.46l-0.62,1.44l-0.65,1.43l-0.69,1.41l-0.72,1.39l-0.76,1.38l-0.79,1.36l-0.82,1.34l-0.86,1.32l-0.89,1.3l-0.92,1.27l-0.95,1.25l-0.98,1.23l-1.01,1.2l-1.04,1.18l-1.07,1.15l-1.1,1.12l-1.12,1.1l-1.15,1.07l-1.18,1.04l-1.2,1.01l-1.23,0.98l-1.25,0.95l-1.27,0.92l-1.3,0.89l-1.32,0.86l-1.34,0.82l-1.36,0.79l-1.38,0.76l-1.39,0.72l-1.41,0.69l-1.43,0.65l-1.44,0.62l-1.46,0.58l-1.47,0.55l-1.49,0.51l-1.5,0.47l-1.51,0.44l-1.52,0.4l-1.53,0.36l-1.54,0.33l-1.54,0.29l-1.55,0.25l-1.56,0.21l-1.56,0.17l-1.56,0.13l-1.57,0.1l-1.57,0.06l-0.01,-0.02l-1.56,0.01987l0,0.00025l1.56,0.01987l1.57,0.06l1.57,0.1l1.57,0.13l1.56,0.17l1.56,0.21l1.55,0.25l1.54,0.29l1.54,0.33l1.53,0.36l1.52,0.4l1.51,0.44l1.5,0.47l1.49,0.51l1.47,0.55l1.46,0.58l1.44,0.62l1.43,0.65l1.41,0.69l1.39,0.72l1.38,0.76l1.36,0.79l1.34,0.82l1.32,0.86l1.3,0.89l1.27,0.92l1.25,0.95l1.23,0.98l1.2,1.01l1.18,1.04l1.15,1.07l1.12,1.1l1.1,1.12l1.07,1.15l1.04,1.18l1.01,1.2l0.98,1.23l0.95,1.25l0.92,1.27l0.89,1.3l0.86,1.32l0.82,1.34l0.79,1.36l0.76,1.38l0.72,1.39l0.69,1.41l0.65,1.43l0.62,1.44l0.58,1.46l0.55,1.47l0.51,1.49l0.47,1.5l0.44,1.51l0.4,1.52l0.36,1.53l0.33,1.54l0.29,1.54l0.25,1.55l0.21,1.56l0.17,1.56l0.13,1.56l0.1,1.57l0.06,1.57l0.02,1.57l-0.02,1.57l-0.06,1.57l-0.1,1.57l-0.13,1.56l-0.17,1.56l-0.21,1.56l-0.25,1.55l-0.29,1.54l-0.33,1.54l-0.36,1.53l-0.4,1.52l-0.44,1.51l-0.47,1.5l-0.51,1.49l-0.55,1.47l-0.58,1.46l-0.62,1.44l-0.65,1.43l-0.69,1.41l-0.72,1.39l-0.76,1.38l-0.79,1.36l-0.82,1.34l-0.86,1.32l-0.89,1.3l-0.92,1.27l-0.95,1.25l-0.98,1.23l-1.01,1.2l-1.04,1.18l-1.07,1.15l-1.1,1.12l-1.12,1.1l-1.15,1.07l-1.18,1.04l-1.2,1.01l-1.23,0.98l-1.25,0.95l-1.27,0.92l-1.3,0.89l-1.32,0.86l-1.34,0.82l-1.36,0.79l-1.38,0.76l-1.39,0.72l-1.41,0.69l-1.43,0.65l-1.44,0.62l-1.46,0.58l-1.47,0.55l-1.49,0.51l-1.5,0.47l-1.51,0.44l-1.52,0.4l-1.53,0.36l-1.54,0.33l-1.54,0.29l-1.55,0.25l-1.56,0.21l-1.56,0.17l-1.56,0.13l-1.57,0.1l-1.57,0.06l-0.01,-0.02l-1.56,0.01987v0.04013l-1.57,-0.02l-1.57,-0.06l-1.57,-0.1l-1.56,-0.13l-1.56,-0.17l-1.56,-0.21l-1.55,-0.25l-1.54,-0.29l-1.54,-0.33l-1.53,-0.36l-1.52,-0.4l-1.51,-0.44l-1.5,-0.47l-1.49,-0.51l-1.47,-0.55l-1.46,-0.58l-1.44,-0.62l-1.43,-0.65l-1.41,-0.69l-1.39,-0.72l-1.38,-0.76l-1.36,-0.79l-1.34,-0.82l-1.32,-0.86l-1.3,-0.89l-1.27,-0.92l-1.25,-0.95l-1.23,-0.98l-1.2,-1.01l-1.18,-1.04l-1.15,-1.07l-1.12,-1.1l-1.1,-1.12l-1.07,-1.15l-1.04,-1.18l-1.01,-1.2l-0.98,-1.23l-0.95,-1.25l-0.92,-1.27l-0.89,-1.3l-0.86,-1.32l-0.82,-1.34l-0.79,-1.36l-0.76,-1.38l-0.72,-1.39l-0.69,-1.41l-0.65,-1.43l-0.62,-1.44l-0.58,-1.46l-0.55,-1.47l-0.51,-1.49l-0.47,-1.5l-0.44,-1.51l-0.4,-1.52l-0.36,-1.53l-0.33,-1.54l-0.29,-1.54l-0.25,-1.55l-0.21,-1.56l-0.17,-1.56l-0.13,-1.56l-0.1,-1.57l-0.06,-1.57l-0.02,-1.57l0.02,-1.57l0.06,-1.57l0.1,-1.57l0.13,-1.56l0.17,-1.56l0.21,-1.56l0.25,-1.55l0.29,-1.54l0.33,-1.54l0.36,-1.53l0.4,-1.52l0.44,-1.51l0.47,-1.5l0.51,-1.49l0.55,-1.47l0.58,-1.46l0.62,-1.44l0.65,-1.43l0.69,-1.41l0.72,-1.39l0.76,-1.38l0.79,-1.36l0.82,-1.34l0.86,-1.32l0.89,-1.3l0.92,-1.27l0.95,-1.25l0.98,-1.23l1.01,-1.2l1.04,-1.18l1.07,-1.15l1.1,-1.12l1.12,-1.1l1.15,-1.07l1.18,-1.04l1.2,-1.01l1.23,-0.98l1.25,-0.95l1.27,-0.92l1.3,-0.89l1.32,-0.86l1.34,-0.82l1.36,-0.79l1.38,-0.76l1.39,-0.72l1.41,-0.69l1.43,-0.65l1.44,-0.62l1.46,-0.58l1.47,-0.55l1.49,-0.51l1.5,-0.47l1.51,-0.44l1.52,-0.4l1.53,-0.36l1.54,-0.33l1.54,-0.29l1.55,-0.25l1.56,-0.21l1.56,-0.17l1.56,-0.13l1.57,-0.1l1.57,-0.06v0.02l1.56,-0.01987v-0.00025l-1.56,-0.01987l-1.57,-0.06l-1.57,-0.1l-1.56,-0.13l-1.56,-0.17l-1.56,-0.21l-1.55,-0.25l-1.54,-0.29l-1.54,-0.33l-1.53,-0.36l-1.52,-0.4l-1.51,-0.44l-1.5,-0.47l-1.49,-0.51l-1.47,-0.55l-1.46,-0.58l-1.44,-0.62l-1.43,-0.65l-1.41,-0.69l-1.39,-0.72l-1.38,-0.76l-1.36,-0.79l-1.34,-0.82l-1.32,-0.86l-1.3,-0.89l-1.27,-0.92l-1.25,-0.95l-1.23,-0.98l-1.2,-1.01l-1.18,-1.04l-1.15,-1.07l-1.12,-1.1l-1.1,-1.12l-1.07,-1.15l-1.04,-1.18l-1.01,-1.2l-0.98,-1.23l-0.95,-1.25l-0.92,-1.27l-0.89,-1.3l-0.86,-1.32l-0.82,-1.34l-0.79,-1.36l-0.76,-1.38l-0.72,-1.39l-0.69,-1.41l-0.65,-1.43l-0.62,-1.44l-0.58,-1.46l-0.55,-1.47l-0.51,-1.49l-0.47,-1.5l-0.44,-1.51l-0.4,-1.52l-0.36,-1.53l-0.33,-1.54l-0.29,-1.54l-0.25,-1.55l-0.21,-1.56l-0.17,-1.56l-0.13,-1.56l-0.1,-1.57l-0.06,-1.57l-0.02,-1.57l0.02,-1.57l0.06,-1.57l0.1,-1.57l0.13,-1.56l0.17,-1.56l0.21,-1.56l0.25,-1.55l0.29,-1.54l0.33,-1.54l0.36,-1.53l0.4,-1.52l0.44,-1.51l0.47,-1.5l0.51,-1.49l0.55,-1.47l0.58,-1.46l0.62,-1.44l0.65,-1.43l0.69,-1.41l0.72,-1.39l0.76,-1.38l0.79,-1.36l0.82,-1.34l0.86,-1.32l0.89,-1.3l0.92,-1.27l0.95,-1.25l0.98,-1.23l1.01,-1.2l1.04,-1.18l1.07,-1.15l1.1,-1.12l1.12,-1.1l1.15,-1.07l1.18,-1.04l1.2,-1.01l1.23,-0.98l1.25,-0.95l1.27,-0.92l1.3,-0.89l1.32,-0.86l1.34,-0.82l1.36,-0.79l1.38,-0.76l1.39,-0.72l1.41,-0.69l1.43,-0.65l1.44,-0.62l1.46,-0.58l1.47,-0.55l1.49,-0.51l1.5,-0.47l1.51,-0.44l1.52,-0.4l1.53,-0.36l1.54,-0.33l1.54,-0.29l1.55,-0.25l1.56,-0.21l1.56,-0.17l1.56,-0.13l1.57,-0.1l1.57,-0.06v0.02l1.56,-0.01987v-0.01038l-1.55,-0.01975l-1.57,-0.06l-1.57,-0.1l-1.56,-0.13l-1.56,-0.17l-1.56,-0.21l-1.55,-0.25l-1.54,-0.29l-1.54,-0.33l-1.53,-0.36l-1.52,-0.4l-1.51,-0.44l-1.5,-0.47l-1.49,-0.51l-1.47,-0.55l-1.46,-0.58l-1.44,-0.62l-1.43,-0.65l-1.41,-0.69l-1.39,-0.72l-1.38,-0.76l-1.36,-0.79l-1.34,-0.82l-1.32,-0.86l-1.3,-0.89l-1.27,-0.92l-1.25,-0.95l-1.23,-0.98l-1.2,-1.01l-1.18,-1.04l-1.15,-1.07l-1.12,-1.1l-1.1,-1.12l-1.07,-1.15l-1.04,-1.18l-1.01,-1.2l-0.98,-1.23l-0.95,-1.25l-0.92,-1.27l-0.89,-1.3l-0.86,-1.32l-0.82,-1.34l-0.79,-1.36l-0.76,-1.38l-0.72,-1.39l-0.69,-1.41l-0.65,-1.43l-0.62,-1.44l-0.58,-1.46l-0.55,-1.47l-0.51,-1.49l-0.47,-1.5l-0.44,-1.51l-0.4,-1.52l-0.36,-1.53l-0.33,-1.54l-0.29,-1.54l-0.25,-1.55l-0.21,-1.56l-0.17,-1.56l-0.13,-1.56l-0.1,-1.57l-0.06,-1.57l0.01,0.01l-0.01506,-1.1825l-0.01494,1.1725l-0.06,1.57l-0.1,1.57l-0.13,1.56l-0.17,1.56l-0.21,1.56l-0.25,1.55l-0.29,1.54l-0.33,1.54l-0.36,1.53l-0.4,1.52l-0.44,1.51l-0.47,1.5l-0.51,1.49l-0.55,1.47l-0.58,1.46l-0.62,1.44l-0.65,1.43l-0.69,1.41l-0.72,1.39l-0.76,1.38l-0.79,1.36l-0.82,1.34l-0.86,1.32l-0.89,1.3l-0.92,1.27l-0.95,1.25l-0.98,1.23l-1.01,1.2l-1.04,1.18l-1.07,1.15l-1.1,1.12l-1.12,1.1l-1.15,1.07l-1.18,1.04l-1.2,1.01l-1.23,0.98l-1.25,0.95l-1.27,0.92l-1.3,0.89l-1.32,0.86l-1.34,0.82l-1.36,0.79l-1.38,0.76l-1.39,0.72l-1.41,0.69l-1.43,0.65l-1.44,0.62l-1.46,0.58l-1.47,0.55l-1.49,0.51l-1.5,0.47l-1.51,0.44l-1.52,0.4l-1.53,0.36l-1.54,0.33l-1.54,0.29l-1.55,0.25l-1.56,0.21l-1.56,0.17l-1.56,0.13l-1.57,0.1l-1.57,0.06l-1.57,0.02l-1.57,-0.02l-1.57,-0.06l-1.57,-0.1l-1.56,-0.13l-1.56,-0.17l-1.56,-0.21l-1.55,-0.25l-1.54,-0.29l-1.54,-0.33l-1.53,-0.36l-1.52,-0.4l-1.51,-0.44l-1.5,-0.47l-1.49,-0.51l-1.47,-0.55l-1.46,-0.58l-1.44,-0.62l-1.43,-0.65l-1.41,-0.69l-1.39,-0.72l-1.38,-0.76l-1.36,-0.79l-1.34,-0.82l-1.32,-0.86l-1.3,-0.89l-1.27,-0.92l-1.25,-0.95l-1.23,-0.98l-1.2,-1.01l-1.18,-1.04l-1.15,-1.07l-1.12,-1.1l-1.1,-1.12l-1.07,-1.15l-1.04,-1.18l-1.01,-1.2l-0.98,-1.23l-0.95,-1.25l-0.92,-1.27l-0.89,-1.3l-0.86,-1.32l-0.82,-1.34l-0.79,-1.36l-0.76,-1.38l-0.72,-1.39l-0.69,-1.41l-0.65,-1.43l-0.62,-1.44l-0.58,-1.46l-0.55,-1.47l-0.51,-1.49l-0.47,-1.5l-0.44,-1.51l-0.4,-1.52l-0.36,-1.53l-0.33,-1.54l-0.29,-1.54l-0.25,-1.55l-0.21,-1.56l-0.17,-1.56l-0.13,-1.56l-0.1,-1.57l-0.06,-1.57h0.02l-0.02,-1.57l-0.02,1.57l-0.06,1.57l-0.1,1.57l-0.13,1.56l-0.17,1.56l-0.21,1.56l-0.25,1.55l-0.29,1.54l-0.33,1.54l-0.36,1.53l-0.4,1.52l-0.44,1.51l-0.47,1.5l-0.51,1.49l-0.55,1.47l-0.58,1.46l-0.62,1.44l-0.65,1.43l-0.69,1.41l-0.72,1.39l-0.76,1.38l-0.79,1.36l-0.82,1.34l-0.86,1.32l-0.89,1.3l-0.92,1.27l-0.95,1.25l-0.98,1.23l-1.01,1.2l-1.04,1.18l-1.07,1.15l-1.1,1.12l-1.12,1.1l-1.15,1.07l-1.18,1.04l-1.2,1.01l-1.23,0.98l-1.25,0.95l-1.27,0.92l-1.3,0.89l-1.32,0.86l-1.34,0.82l-1.36,0.79l-1.38,0.76l-1.39,0.72l-1.41,0.69l-1.43,0.65l-1.44,0.62l-1.46,0.58l-1.47,0.55l-1.49,0.51l-1.5,0.47l-1.51,0.44l-1.52,0.4l-1.53,0.36l-1.54,0.33l-1.54,0.29l-1.55,0.25l-1.56,0.21l-1.56,0.17l-1.56,0.13l-1.57,0.1l-1.57,0.06l-1.57,0.02l-1.57,-0.02l-1.57,-0.06l-1.57,-0.1l-1.56,-0.13l-1.56,-0.17l-1.56,-0.21l-1.55,-0.25l-1.54,-0.29l-1.54,-0.33l-1.53,-0.36l-1.52,-0.4l-1.51,-0.44l-1.5,-0.47l-1.49,-0.51l-1.47,-0.55l-1.46,-0.58l-1.44,-0.62l-1.43,-0.65l-1.41,-0.69l-1.39,-0.72l-1.38,-0.76l-1.36,-0.79l-1.34,-0.82l-1.32,-0.86l-1.3,-0.89l-1.27,-0.92l-1.25,-0.95l-1.23,-0.98l-1.2,-1.01l-1.18,-1.04l-1.15,-1.07l-1.12,-1.1l-1.1,-1.12l-1.07,-1.15l-1.04,-1.18l-1.01,-1.2l-0.98,-1.23l-0.95,-1.25l-0.92,-1.27l-0.89,-1.3l-0.86,-1.32l-0.82,-1.34l-0.79,-1.36l-0.76,-1.38l-0.72,-1.39l-0.69,-1.41l-0.65,-1.43l-0.62,-1.44l-0.58,-1.46l-0.55,-1.47l-0.51,-1.49l-0.47,-1.5l-0.44,-1.51l-0.4,-1.52l-0.36,-1.53l-0.33,-1.54l-0.29,-1.54l-0.25,-1.55l-0.21,-1.56l-0.17,-1.56l-0.13,-1.56l-0.1,-1.57l-0.06,-1.57h0.02l-0.02,-1.57h-0.02c24.21,-2.02 47.43,-16.73 57.19,-44.18c13.26,-37.31 55.88,-54.96 91.64,-37.96c56.79,26.99 116.03,-32.25 89.03,-89.03c-17,-35.76 0.66,-78.37 37.96,-91.64c27.44,-9.76 42.17,-32.98 44.18,-57.19c2.01,24.21 16.74,47.43 44.18,57.19c37.3,13.27 54.96,55.88 37.96,91.64c-27,56.78 32.24,116.02 89.03,89.03c35.76,-17 78.38,0.65 91.64,37.96c9.76,27.45 32.98,42.16 57.19,44.18c24.21,-2.02 47.43,-16.73 57.19,-44.18zM1600.01,639.99h-0.01v63.99l0.01,0.00013zM960.01,640.01v-0.01h-63.99l-0.00013,0.01zM275.82,262.81c-37.3,-13.27 -54.96,-55.88 -37.96,-91.64c27,-56.78 -32.24,-116.02 -89.03,-89.03c-35.76,17 -78.38,-0.65 -91.64,-37.96c-9.76,-27.44 -32.98,-42.16 -57.19,-44.18h640c-24.21,2.02 -47.43,16.74 -57.19,44.18c-13.26,37.31 -55.88,54.96 -91.64,37.96c-56.79,-26.99 -116.03,32.25 -89.03,89.03c17,35.76 -0.66,78.37 -37.96,91.64c-27.44,9.76 -42.17,32.98 -44.18,57.19c-2.01,-24.21 -16.74,-47.43 -44.18,-57.19zM915.82,262.81c-37.3,-13.27 -54.96,-55.88 -37.96,-91.64c27,-56.78 -32.24,-116.02 -89.03,-89.03c-35.76,17 -78.38,-0.65 -91.64,-37.96c-9.76,-27.44 -32.98,-42.16 -57.19,-44.18h640c-24.21,2.02 -47.43,16.74 -57.19,44.18c-13.26,37.31 -55.88,54.96 -91.64,37.96c-56.79,-26.99 -116.03,32.25 -89.03,89.03c17,35.76 -0.66,78.37 -37.96,91.64c-27.44,9.76 -42.17,32.98 -44.18,57.19c-2.01,-24.21 -16.74,-47.43 -44.18,-57.19zM256.03,641.58l-0.01506,-1.1825l-0.01494,1.1725l-0.06,1.57l-0.1,1.57l-0.13,1.56l-0.17,1.56l-0.21,1.56l-0.25,1.55l-0.29,1.54l-0.33,1.54l-0.36,1.53l-0.4,1.52l-0.44,1.51l-0.47,1.5l-0.51,1.49l-0.55,1.47l-0.58,1.46l-0.62,1.44l-0.65,1.43l-0.69,1.41l-0.72,1.39l-0.76,1.38l-0.79,1.36l-0.82,1.34l-0.86,1.32l-0.89,1.3l-0.92,1.27l-0.95,1.25l-0.98,1.23l-1.01,1.2l-1.04,1.18l-1.07,1.15l-1.1,1.12l-1.12,1.1l-1.15,1.07l-1.18,1.04l-1.2,1.01l-1.23,0.98l-1.25,0.95l-1.27,0.92l-1.3,0.89l-1.32,0.86l-1.34,0.82l-1.36,0.79l-1.38,0.76l-1.39,0.72l-1.41,0.69l-1.43,0.65l-1.44,0.62l-1.46,0.58l-1.47,0.55l-1.49,0.51l-1.5,0.47l-1.51,0.44l-1.52,0.4l-1.53,0.36l-1.54,0.33l-1.54,0.29l-1.55,0.25l-1.56,0.21l-1.56,0.17l-1.56,0.13l-1.57,0.1l-1.57,0.06l-1.57,0.02l-1.57,-0.02l-1.57,-0.06l-1.57,-0.1l-1.56,-0.13l-1.56,-0.17l-1.56,-0.21l-1.55,-0.25l-1.54,-0.29l-1.54,-0.33l-1.53,-0.36l-1.52,-0.4l-1.51,-0.44l-1.5,-0.47l-1.49,-0.51l-1.47,-0.55l-1.46,-0.58l-1.44,-0.62l-1.43,-0.65l-1.41,-0.69l-1.39,-0.72l-1.38,-0.76l-1.36,-0.79l-1.34,-0.82l-1.32,-0.86l-1.3,-0.89l-1.27,-0.92l-1.25,-0.95l-1.23,-0.98l-1.2,-1.01l-1.18,-1.04l-1.15,-1.07l-1.12,-1.1l-1.1,-1.12l-1.07,-1.15l-1.04,-1.18l-1.01,-1.2l-0.98,-1.23l-0.95,-1.25l-0.92,-1.27l-0.89,-1.3l-0.86,-1.32l-0.82,-1.34l-0.79,-1.36l-0.76,-1.38l-0.72,-1.39l-0.69,-1.41l-0.65,-1.43l-0.62,-1.44l-0.58,-1.46l-0.55,-1.47l-0.51,-1.49l-0.47,-1.5l-0.44,-1.51l-0.4,-1.52l-0.36,-1.53l-0.33,-1.54l-0.29,-1.54l-0.25,-1.55l-0.21,-1.56l-0.17,-1.56l-0.13,-1.56l-0.1,-1.57l-0.06,-1.57h0.02l-0.02,-1.57l-0.02,1.57l-0.06,1.57l-0.1,1.57l-0.13,1.56l-0.17,1.56l-0.21,1.56l-0.25,1.55l-0.29,1.54l-0.33,1.54l-0.36,1.53l-0.4,1.52l-0.44,1.51l-0.47,1.5l-0.51,1.49l-0.55,1.47l-0.58,1.46l-0.62,1.44l-0.65,1.43l-0.69,1.41l-0.72,1.39l-0.76,1.38l-0.79,1.36l-0.82,1.34l-0.86,1.32l-0.89,1.3l-0.92,1.27l-0.95,1.25l-0.98,1.23l-1.01,1.2l-1.04,1.18l-1.07,1.15l-1.1,1.12l-1.12,1.1l-1.15,1.07l-1.18,1.04l-1.2,1.01l-1.23,0.98l-1.25,0.95l-1.27,0.92l-1.3,0.89l-1.32,0.86l-1.34,0.82l-1.36,0.79l-1.38,0.76l-1.39,0.72l-1.41,0.69l-1.43,0.65l-1.44,0.62l-1.46,0.58l-1.47,0.55l-1.49,0.51l-1.5,0.47l-1.51,0.44l-1.52,0.4l-1.53,0.36l-1.54,0.33l-1.54,0.29l-1.55,0.25l-1.56,0.21l-1.56,0.17l-1.56,0.13l-1.57,0.1l-1.57,0.06l-1.57,0.02l-1.57,-0.02l-1.57,-0.06l-1.57,-0.1l-1.56,-0.13l-1.56,-0.17l-1.56,-0.21l-1.55,-0.25l-1.54,-0.29l-1.54,-0.33l-1.53,-0.36l-1.52,-0.4l-1.51,-0.44l-1.5,-0.47l-1.49,-0.51l-1.47,-0.55l-1.46,-0.58l-1.44,-0.62l-1.43,-0.65l-1.41,-0.69l-1.39,-0.72l-1.38,-0.76l-1.36,-0.79l-1.34,-0.82l-1.32,-0.86l-1.3,-0.89l-1.27,-0.92l-1.25,-0.95l-1.23,-0.98l-1.2,-1.01l-1.18,-1.04l-1.15,-1.07l-1.12,-1.1l-1.1,-1.12l-1.07,-1.15l-1.04,-1.18l-1.01,-1.2l-0.98,-1.23l-0.95,-1.25l-0.92,-1.27l-0.89,-1.3l-0.86,-1.32l-0.82,-1.34l-0.79,-1.36l-0.76,-1.38l-0.72,-1.39l-0.69,-1.41l-0.65,-1.43l-0.62,-1.44l-0.58,-1.46l-0.55,-1.47l-0.51,-1.49l-0.47,-1.5l-0.44,-1.51l-0.4,-1.52l-0.36,-1.53l-0.33,-1.54l-0.29,-1.54l-0.25,-1.55l-0.21,-1.56l-0.17,-1.56l-0.13,-1.56l-0.1,-1.57l-0.06,-1.57l-0.02,-1.57h-0.02l0.02,-1.57l0.06,-1.57l0.1,-1.57l0.13,-1.56l0.17,-1.56l0.21,-1.56l0.25,-1.55l0.29,-1.54l0.33,-1.54l0.36,-1.53l0.4,-1.52l0.44,-1.51l0.47,-1.5l0.51,-1.49l0.55,-1.47l0.58,-1.46l0.62,-1.44l0.65,-1.43l0.69,-1.41l0.72,-1.39l0.76,-1.38l0.79,-1.36l0.82,-1.34l0.86,-1.32l0.89,-1.3l0.92,-1.27l0.95,-1.25l0.98,-1.23l1.01,-1.2l1.04,-1.18l1.07,-1.15l1.1,-1.12l1.12,-1.1l1.15,-1.07l1.18,-1.04l1.2,-1.01l1.23,-0.98l1.25,-0.95l1.27,-0.92l1.3,-0.89l1.32,-0.86l1.34,-0.82l1.36,-0.79l1.38,-0.76l1.39,-0.72l1.41,-0.69l1.43,-0.65l1.44,-0.62l1.46,-0.58l1.47,-0.55l1.49,-0.51l1.5,-0.47l1.51,-0.44l1.52,-0.4l1.53,-0.36l1.54,-0.33l1.54,-0.29l1.55,-0.25l1.56,-0.21l1.56,-0.17l1.56,-0.13l1.57,-0.1l1.57,-0.06l1.57,-0.02l1.57,0.02l1.57,0.06l1.57,0.1l1.56,0.13l1.56,0.17l1.56,0.21l1.55,0.25l1.54,0.29l1.54,0.33l1.53,0.36l1.52,0.4l1.51,0.44l1.5,0.47l1.49,0.51l1.47,0.55l1.46,0.58l1.44,0.62l1.43,0.65l1.41,0.69l1.39,0.72l1.38,0.76l1.36,0.79l1.34,0.82l1.32,0.86l1.3,0.89l1.27,0.92l1.25,0.95l1.23,0.98l1.2,1.01l1.18,1.04l1.15,1.07l1.12,1.1l1.1,1.12l1.07,1.15l1.04,1.18l1.01,1.2l0.98,1.23l0.95,1.25l0.92,1.27l0.89,1.3l0.86,1.32l0.82,1.34l0.79,1.36l0.76,1.38l0.72,1.39l0.69,1.41l0.65,1.43l0.62,1.44l0.58,1.46l0.55,1.47l0.51,1.49l0.47,1.5l0.44,1.51l0.4,1.52l0.36,1.53l0.33,1.54l0.29,1.54l0.25,1.55l0.21,1.56l0.17,1.56l0.13,1.56l0.1,1.57l0.06,1.57h-0.02l0.02,1.57l0.02,-1.57l0.06,-1.57l0.1,-1.57l0.13,-1.56l0.17,-1.56l0.21,-1.56l0.25,-1.55l0.29,-1.54l0.33,-1.54l0.36,-1.53l0.4,-1.52l0.44,-1.51l0.47,-1.5l0.51,-1.49l0.55,-1.47l0.58,-1.46l0.62,-1.44l0.65,-1.43l0.69,-1.41l0.72,-1.39l0.76,-1.38l0.79,-1.36l0.82,-1.34l0.86,-1.32l0.89,-1.3l0.92,-1.27l0.95,-1.25l0.98,-1.23l1.01,-1.2l1.04,-1.18l1.07,-1.15l1.1,-1.12l1.12,-1.1l1.15,-1.07l1.18,-1.04l1.2,-1.01l1.23,-0.98l1.25,-0.95l1.27,-0.92l1.3,-0.89l1.32,-0.86l1.34,-0.82l1.36,-0.79l1.38,-0.76l1.39,-0.72l1.41,-0.69l1.43,-0.65l1.44,-0.62l1.46,-0.58l1.47,-0.55l1.49,-0.51l1.5,-0.47l1.51,-0.44l1.52,-0.4l1.53,-0.36l1.54,-0.33l1.54,-0.29l1.55,-0.25l1.56,-0.21l1.56,-0.17l1.56,-0.13l1.57,-0.1l1.57,-0.06l1.57,-0.02l1.57,0.02l1.57,0.06l1.57,0.1l1.56,0.13l1.56,0.17l1.56,0.21l1.55,0.25l1.54,0.29l1.54,0.33l1.53,0.36l1.52,0.4l1.51,0.44l1.5,0.47l1.49,0.51l1.47,0.55l1.46,0.58l1.44,0.62l1.43,0.65l1.41,0.69l1.39,0.72l1.38,0.76l1.36,0.79l1.34,0.82l1.32,0.86l1.3,0.89l1.27,0.92l1.25,0.95l1.23,0.98l1.2,1.01l1.18,1.04l1.15,1.07l1.12,1.1l1.1,1.12l1.07,1.15l1.04,1.18l1.01,1.2l0.98,1.23l0.95,1.25l0.92,1.27l0.89,1.3l0.86,1.32l0.82,1.34l0.79,1.36l0.76,1.38l0.72,1.39l0.69,1.41l0.65,1.43l0.62,1.44l0.58,1.46l0.55,1.47l0.51,1.49l0.47,1.5l0.44,1.51l0.4,1.52l0.36,1.53l0.33,1.54l0.29,1.54l0.25,1.55l0.21,1.56l0.17,1.56l0.13,1.56l0.1,1.57l0.06,1.57h-0.02l0.02,1.57h0.01013l0.01987,-1.56l0.06,-1.57l0.1,-1.57l0.13,-1.56l0.17,-1.56l0.21,-1.56l0.25,-1.55l0.29,-1.54l0.33,-1.54l0.36,-1.53l0.4,-1.52l0.44,-1.51l0.47,-1.5l0.51,-1.49l0.55,-1.47l0.58,-1.46l0.62,-1.44l0.65,-1.43l0.69,-1.41l0.72,-1.39l0.76,-1.38l0.79,-1.36l0.82,-1.34l0.86,-1.32l0.89,-1.3l0.92,-1.27l0.95,-1.25l0.98,-1.23l1.01,-1.2l1.04,-1.18l1.07,-1.15l1.1,-1.12l1.12,-1.1l1.15,-1.07l1.18,-1.04l1.2,-1.01l1.23,-0.98l1.25,-0.95l1.27,-0.92l1.3,-0.89l1.32,-0.86l1.34,-0.82l1.36,-0.79l1.38,-0.76l1.39,-0.72l1.41,-0.69l1.43,-0.65l1.44,-0.62l1.46,-0.58l1.47,-0.55l1.49,-0.51l1.5,-0.47l1.51,-0.44l1.52,-0.4l1.53,-0.36l1.54,-0.33l1.54,-0.29l1.55,-0.25l1.56,-0.21l1.56,-0.17l1.56,-0.13l1.57,-0.1l1.57,-0.06l-0.01,0.01l1.1825,-0.01506l-1.1725,-0.01494l-1.57,-0.06l-1.57,-0.1l-1.56,-0.13l-1.56,-0.17l-1.56,-0.21l-1.55,-0.25l-1.54,-0.29l-1.54,-0.33l-1.53,-0.36l-1.52,-0.4l-1.51,-0.44l-1.5,-0.47l-1.49,-0.51l-1.47,-0.55l-1.46,-0.58l-1.44,-0.62l-1.43,-0.65l-1.41,-0.69l-1.39,-0.72l-1.38,-0.76l-1.36,-0.79l-1.34,-0.82l-1.32,-0.86l-1.3,-0.89l-1.27,-0.92l-1.25,-0.95l-1.23,-0.98l-1.2,-1.01l-1.18,-1.04l-1.15,-1.07l-1.12,-1.1l-1.1,-1.12l-1.07,-1.15l-1.04,-1.18l-1.01,-1.2l-0.98,-1.23l-0.95,-1.25l-0.92,-1.27l-0.89,-1.3l-0.86,-1.32l-0.82,-1.34l-0.79,-1.36l-0.76,-1.38l-0.72,-1.39l-0.69,-1.41l-0.65,-1.43l-0.62,-1.44l-0.58,-1.46l-0.55,-1.47l-0.51,-1.49l-0.47,-1.5l-0.44,-1.51l-0.4,-1.52l-0.36,-1.53l-0.33,-1.54l-0.29,-1.54l-0.25,-1.55l-0.21,-1.56l-0.17,-1.56l-0.13,-1.56l-0.1,-1.57l-0.06,-1.57l-0.02,-1.57l0.02,-1.57l0.06,-1.57l0.1,-1.57l0.13,-1.56l0.17,-1.56l0.21,-1.56l0.25,-1.55l0.29,-1.54l0.33,-1.54l0.36,-1.53l0.4,-1.52l0.44,-1.51l0.47,-1.5l0.51,-1.49l0.55,-1.47l0.58,-1.46l0.62,-1.44l0.65,-1.43l0.69,-1.41l0.72,-1.39l0.76,-1.38l0.79,-1.36l0.82,-1.34l0.86,-1.32l0.89,-1.3l0.92,-1.27l0.95,-1.25l0.98,-1.23l1.01,-1.2l1.04,-1.18l1.07,-1.15l1.1,-1.12l1.12,-1.1l1.15,-1.07l1.18,-1.04l1.2,-1.01l1.23,-0.98l1.25,-0.95l1.27,-0.92l1.3,-0.89l1.32,-0.86l1.34,-0.82l1.36,-0.79l1.38,-0.76l1.39,-0.72l1.41,-0.69l1.43,-0.65l1.44,-0.62l1.46,-0.58l1.47,-0.55l1.49,-0.51l1.5,-0.47l1.51,-0.44l1.52,-0.4l1.53,-0.36l1.54,-0.33l1.54,-0.29l1.55,-0.25l1.56,-0.21l1.56,-0.17l1.56,-0.13l1.57,-0.1l1.57,-0.06v0.02l1.57,-0.02v128l-0.01,-0.00013l0,63.99013h0.01v63.99987l-1.56,-0.01987l-1.57,-0.06l-1.57,-0.1l-1.56,-0.13l-1.56,-0.17l-1.56,-0.21l-1.55,-0.25l-1.54,-0.29l-1.54,-0.33l-1.53,-0.36l-1.52,-0.4l-1.51,-0.44l-1.5,-0.47l-1.49,-0.51l-1.47,-0.55l-1.46,-0.58l-1.44,-0.62l-1.43,-0.65l-1.41,-0.69l-1.39,-0.72l-1.38,-0.76l-1.36,-0.79l-1.34,-0.82l-1.32,-0.86l-1.3,-0.89l-1.27,-0.92l-1.25,-0.95l-1.23,-0.98l-1.2,-1.01l-1.18,-1.04l-1.15,-1.07l-1.12,-1.1l-1.1,-1.12l-1.07,-1.15l-1.04,-1.18l-1.01,-1.2l-0.98,-1.23l-0.95,-1.25l-0.92,-1.27l-0.89,-1.3l-0.86,-1.32l-0.82,-1.34l-0.79,-1.36l-0.76,-1.38l-0.72,-1.39l-0.69,-1.41l-0.65,-1.43l-0.62,-1.44l-0.58,-1.46l-0.55,-1.47l-0.51,-1.49l-0.47,-1.5l-0.44,-1.51l-0.4,-1.52l-0.36,-1.53l-0.33,-1.54l-0.29,-1.54l-0.25,-1.55l-0.21,-1.56l-0.17,-1.56l-0.13,-1.56l-0.1,-1.57l-0.06,-1.57zM318.43,832.04l1.57,-0.02v128l-1.57,-0.02l-1.57,-0.06l-1.57,-0.1l-1.56,-0.13l-1.56,-0.17l-1.56,-0.21l-1.55,-0.25l-1.54,-0.29l-1.54,-0.33l-1.53,-0.36l-1.52,-0.4l-1.51,-0.44l-1.5,-0.47l-1.49,-0.51l-1.47,-0.55l-1.46,-0.58l-1.44,-0.62l-1.43,-0.65l-1.41,-0.69l-1.39,-0.72l-1.38,-0.76l-1.36,-0.79l-1.34,-0.82l-1.32,-0.86l-1.3,-0.89l-1.27,-0.92l-1.25,-0.95l-1.23,-0.98l-1.2,-1.01l-1.18,-1.04l-1.15,-1.07l-1.12,-1.1l-1.1,-1.12l-1.07,-1.15l-1.04,-1.18l-1.01,-1.2l-0.98,-1.23l-0.95,-1.25l-0.92,-1.27l-0.89,-1.3l-0.86,-1.32l-0.82,-1.34l-0.79,-1.36l-0.76,-1.38l-0.72,-1.39l-0.69,-1.41l-0.65,-1.43l-0.62,-1.44l-0.58,-1.46l-0.55,-1.47l-0.51,-1.49l-0.47,-1.5l-0.44,-1.51l-0.4,-1.52l-0.36,-1.53l-0.33,-1.54l-0.29,-1.54l-0.25,-1.55l-0.21,-1.56l-0.17,-1.56l-0.13,-1.56l-0.1,-1.57l-0.06,-1.57l-0.02,-1.57l0.02,-1.57l0.06,-1.57l0.1,-1.57l0.13,-1.56l0.17,-1.56l0.21,-1.56l0.25,-1.55l0.29,-1.54l0.33,-1.54l0.36,-1.53l0.4,-1.52l0.44,-1.51l0.47,-1.5l0.51,-1.49l0.55,-1.47l0.58,-1.46l0.62,-1.44l0.65,-1.43l0.69,-1.41l0.72,-1.39l0.76,-1.38l0.79,-1.36l0.82,-1.34l0.86,-1.32l0.89,-1.3l0.92,-1.27l0.95,-1.25l0.98,-1.23l1.01,-1.2l1.04,-1.18l1.07,-1.15l1.1,-1.12l1.12,-1.1l1.15,-1.07l1.18,-1.04l1.2,-1.01l1.23,-0.98l1.25,-0.95l1.27,-0.92l1.3,-0.89l1.32,-0.86l1.34,-0.82l1.36,-0.79l1.38,-0.76l1.39,-0.72l1.41,-0.69l1.43,-0.65l1.44,-0.62l1.46,-0.58l1.47,-0.55l1.49,-0.51l1.5,-0.47l1.51,-0.44l1.52,-0.4l1.53,-0.36l1.54,-0.33l1.54,-0.29l1.55,-0.25l1.56,-0.21l1.56,-0.17l1.56,-0.13l1.57,-0.1l1.57,-0.06zM318.43,704.04l1.57,-0.02v128l-1.57,-0.02l-1.57,-0.06l-1.57,-0.1l-1.56,-0.13l-1.56,-0.17l-1.56,-0.21l-1.55,-0.25l-1.54,-0.29l-1.54,-0.33l-1.53,-0.36l-1.52,-0.4l-1.51,-0.44l-1.5,-0.47l-1.49,-0.51l-1.47,-0.55l-1.46,-0.58l-1.44,-0.62l-1.43,-0.65l-1.41,-0.69l-1.39,-0.72l-1.38,-0.76l-1.36,-0.79l-1.34,-0.82l-1.32,-0.86l-1.3,-0.89l-1.27,-0.92l-1.25,-0.95l-1.23,-0.98l-1.2,-1.01l-1.18,-1.04l-1.15,-1.07l-1.12,-1.1l-1.1,-1.12l-1.07,-1.15l-1.04,-1.18l-1.01,-1.2l-0.98,-1.23l-0.95,-1.25l-0.92,-1.27l-0.89,-1.3l-0.86,-1.32l-0.82,-1.34l-0.79,-1.36l-0.76,-1.38l-0.72,-1.39l-0.69,-1.41l-0.65,-1.43l-0.62,-1.44l-0.58,-1.46l-0.55,-1.47l-0.51,-1.49l-0.47,-1.5l-0.44,-1.51l-0.4,-1.52l-0.36,-1.53l-0.33,-1.54l-0.29,-1.54l-0.25,-1.55l-0.21,-1.56l-0.17,-1.56l-0.13,-1.56l-0.1,-1.57l-0.06,-1.57l-0.02,-1.57l0.02,-1.57l0.06,-1.57l0.1,-1.57l0.13,-1.56l0.17,-1.56l0.21,-1.56l0.25,-1.55l0.29,-1.54l0.33,-1.54l0.36,-1.53l0.4,-1.52l0.44,-1.51l0.47,-1.5l0.51,-1.49l0.55,-1.47l0.58,-1.46l0.62,-1.44l0.65,-1.43l0.69,-1.41l0.72,-1.39l0.76,-1.38l0.79,-1.36l0.82,-1.34l0.86,-1.32l0.89,-1.3l0.92,-1.27l0.95,-1.25l0.98,-1.23l1.01,-1.2l1.04,-1.18l1.07,-1.15l1.1,-1.12l1.12,-1.1l1.15,-1.07l1.18,-1.04l1.2,-1.01l1.23,-0.98l1.25,-0.95l1.27,-0.92l1.3,-0.89l1.32,-0.86l1.34,-0.82l1.36,-0.79l1.38,-0.76l1.39,-0.72l1.41,-0.69l1.43,-0.65l1.44,-0.62l1.46,-0.58l1.47,-0.55l1.49,-0.51l1.5,-0.47l1.51,-0.44l1.52,-0.4l1.53,-0.36l1.54,-0.33l1.54,-0.29l1.55,-0.25l1.56,-0.21l1.56,-0.17l1.56,-0.13l1.57,-0.1l1.57,-0.06zM318.43,320.04l1.57,-0.02v128l-1.57,-0.02l-1.57,-0.06l-1.57,-0.1l-1.56,-0.13l-1.56,-0.17l-1.56,-0.21l-1.55,-0.25l-1.54,-0.29l-1.54,-0.33l-1.53,-0.36l-1.52,-0.4l-1.51,-0.44l-1.5,-0.47l-1.49,-0.51l-1.47,-0.55l-1.46,-0.58l-1.44,-0.62l-1.43,-0.65l-1.41,-0.69l-1.39,-0.72l-1.38,-0.76l-1.36,-0.79l-1.34,-0.82l-1.32,-0.86l-1.3,-0.89l-1.27,-0.92l-1.25,-0.95l-1.23,-0.98l-1.2,-1.01l-1.18,-1.04l-1.15,-1.07l-1.12,-1.1l-1.1,-1.12l-1.07,-1.15l-1.04,-1.18l-1.01,-1.2l-0.98,-1.23l-0.95,-1.25l-0.92,-1.27l-0.89,-1.3l-0.86,-1.32l-0.82,-1.34l-0.79,-1.36l-0.76,-1.38l-0.72,-1.39l-0.69,-1.41l-0.65,-1.43l-0.62,-1.44l-0.58,-1.46l-0.55,-1.47l-0.51,-1.49l-0.47,-1.5l-0.44,-1.51l-0.4,-1.52l-0.36,-1.53l-0.33,-1.54l-0.29,-1.54l-0.25,-1.55l-0.21,-1.56l-0.17,-1.56l-0.13,-1.56l-0.1,-1.57l-0.06,-1.57l-0.02,-1.57l0.02,-1.57l0.06,-1.57l0.1,-1.57l0.13,-1.56l0.17,-1.56l0.21,-1.56l0.25,-1.55l0.29,-1.54l0.33,-1.54l0.36,-1.53l0.4,-1.52l0.44,-1.51l0.47,-1.5l0.51,-1.49l0.55,-1.47l0.58,-1.46l0.62,-1.44l0.65,-1.43l0.69,-1.41l0.72,-1.39l0.76,-1.38l0.79,-1.36l0.82,-1.34l0.86,-1.32l0.89,-1.3l0.92,-1.27l0.95,-1.25l0.98,-1.23l1.01,-1.2l1.04,-1.18l1.07,-1.15l1.1,-1.12l1.12,-1.1l1.15,-1.07l1.18,-1.04l1.2,-1.01l1.23,-0.98l1.25,-0.95l1.27,-0.92l1.3,-0.89l1.32,-0.86l1.34,-0.82l1.36,-0.79l1.38,-0.76l1.39,-0.72l1.41,-0.69l1.43,-0.65l1.44,-0.62l1.46,-0.58l1.47,-0.55l1.49,-0.51l1.5,-0.47l1.51,-0.44l1.52,-0.4l1.53,-0.36l1.54,-0.33l1.54,-0.29l1.55,-0.25l1.56,-0.21l1.56,-0.17l1.56,-0.13l1.57,-0.1l1.57,-0.06z" fill="#121212"/><path d="M960,320h320l0,320c-24.21,-2.02 -47.43,-16.73 -57.19,-44.18c-9.8135,-27.61249 -35.70813,-44.45675 -63.00176,-44.45644c-9.58553,0.00011 -19.34361,2.07785 -28.63824,6.49644c-28.39308,13.49409 -57.39859,5.43359 -75.9325,-13.0975c-18.53109,-18.53391 -26.59159,-47.53941 -13.0975,-75.9325c17,-35.76 -0.66,-78.38 -37.96,-91.64c-27.44,-9.76 -42.16,-32.98 -44.18,-57.19z" fill="#f3f3f3"/><path d="M1280,320h-320c2.01,-24.21 16.74,-47.43 44.18,-57.19c37.3,-13.27 54.96,-55.88 37.96,-91.64c-27,-56.78 32.24,-116.02 89.03,-89.03c35.76,17 78.38,-0.65 91.64,-37.96c9.76,-27.44 32.98,-42.16 57.19,-44.18zM1337.19,595.82c-9.76,27.44 -32.98,42.16 -57.19,44.18l0,-320l320,0c-2.01,24.21 -16.74,47.43 -44.18,57.19c-37.3,13.27 -54.96,55.88 -37.96,91.64c27,56.78 -32.24,116.02 -89.03,89.03c-0.00027,-0.00013 -0.00054,-0.00026 -0.00082,-0.00039c-35.75983,-16.99934 -78.37928,0.65067 -91.63918,37.96039z" fill="#4997d0"/><path d="M0,960l0,-320l0.02,1.57l0.06,1.57l0.1,1.57l0.13,1.56l0.17,1.56l0.21,1.56l0.25,1.55l0.29,1.54l0.33,1.54l0.36,1.53l0.4,1.52l0.44,1.51l0.47,1.5l0.51,1.49l0.55,1.47l0.58,1.46l0.62,1.44l0.65,1.43l0.69,1.41l0.72,1.39l0.76,1.38l0.79,1.36l0.82,1.34l0.86,1.32l0.89,1.3l0.92,1.27l0.95,1.25l0.98,1.23l1.01,1.2l1.04,1.18l1.07,1.15l1.1,1.12l1.12,1.1l1.15,1.07l1.18,1.04l1.2,1.01l1.23,0.98l1.25,0.95l1.27,0.92l1.3,0.89l1.32,0.86l1.34,0.82l1.36,0.79l1.38,0.76l1.39,0.72l1.41,0.69l1.43,0.65l1.44,0.62l1.46,0.58l1.47,0.55l1.49,0.51l1.5,0.47l1.51,0.44l1.52,0.4l1.53,0.36l1.54,0.33l1.54,0.29l1.55,0.25l1.56,0.21l1.56,0.17l1.56,0.13l1.57,0.1l1.57,0.06l1.57,0.02l1.57,-0.02l1.57,-0.06l1.57,-0.1l1.56,-0.13l1.56,-0.17l1.56,-0.21l1.55,-0.25l1.54,-0.29l1.54,-0.33l1.53,-0.36l1.52,-0.4l1.51,-0.44l1.5,-0.47l1.49,-0.51l1.47,-0.55l1.46,-0.58l1.44,-0.62l1.43,-0.65l1.41,-0.69l1.39,-0.72l1.38,-0.76l1.36,-0.79l1.34,-0.82l1.32,-0.86l1.3,-0.89l1.27,-0.92l1.25,-0.95l1.23,-0.98l1.2,-1.01l1.18,-1.04l1.15,-1.07l1.12,-1.1l1.1,-1.12l1.07,-1.15l1.04,-1.18l1.01,-1.2l0.98,-1.23l0.95,-1.25l0.92,-1.27l0.89,-1.3l0.86,-1.32l0.82,-1.34l0.79,-1.36l0.76,-1.38l0.72,-1.39l0.69,-1.41l0.65,-1.43l0.62,-1.44l0.58,-1.46l0.55,-1.47l0.51,-1.49l0.47,-1.5l0.44,-1.51l0.4,-1.52l0.36,-1.53l0.33,-1.54l0.29,-1.54l0.25,-1.55l0.21,-1.56l0.17,-1.56l0.13,-1.56l0.1,-1.57l0.06,-1.57l0.02,-1.57l0.02,1.57h-0.02l0.06,1.57l0.1,1.57l0.13,1.56l0.17,1.56l0.21,1.56l0.25,1.55l0.29,1.54l0.33,1.54l0.36,1.53l0.4,1.52l0.44,1.51l0.47,1.5l0.51,1.49l0.55,1.47l0.58,1.46l0.62,1.44l0.65,1.43l0.69,1.41l0.72,1.39l0.76,1.38l0.79,1.36l0.82,1.34l0.86,1.32l0.89,1.3l0.92,1.27l0.95,1.25l0.98,1.23l1.01,1.2l1.04,1.18l1.07,1.15l1.1,1.12l1.12,1.1l1.15,1.07l1.18,1.04l1.2,1.01l1.23,0.98l1.25,0.95l1.27,0.92l1.3,0.89l1.32,0.86l1.34,0.82l1.36,0.79l1.38,0.76l1.39,0.72l1.41,0.69l1.43,0.65l1.44,0.62l1.46,0.58l1.47,0.55l1.49,0.51l1.5,0.47l1.51,0.44l1.52,0.4l1.53,0.36l1.54,0.33l1.54,0.29l1.55,0.25l1.56,0.21l1.56,0.17l1.56,0.13l1.57,0.1l1.57,0.06l1.57,0.02l1.57,-0.02l1.57,-0.06l1.57,-0.1l1.56,-0.13l1.56,-0.17l1.56,-0.21l1.55,-0.25l1.54,-0.29l1.54,-0.33l1.53,-0.36l1.52,-0.4l1.51,-0.44l1.5,-0.47l1.49,-0.51l1.47,-0.55l1.46,-0.58l1.44,-0.62l1.43,-0.65l1.41,-0.69l1.39,-0.72l1.38,-0.76l1.36,-0.79l1.34,-0.82l1.32,-0.86l1.3,-0.89l1.27,-0.92l1.25,-0.95l1.23,-0.98l1.2,-1.01l1.18,-1.04l1.15,-1.07l1.12,-1.1l1.1,-1.12l1.07,-1.15l1.04,-1.18l1.01,-1.2l0.98,-1.23l0.95,-1.25l0.92,-1.27l0.89,-1.3l0.86,-1.32l0.82,-1.34l0.79,-1.36l0.76,-1.38l0.72,-1.39l0.69,-1.41l0.65,-1.43l0.62,-1.44l0.58,-1.46l0.55,-1.47l0.51,-1.49l0.47,-1.5l0.44,-1.51l0.4,-1.52l0.36,-1.53l0.33,-1.54l0.29,-1.54l0.25,-1.55l0.21,-1.56l0.17,-1.56l0.13,-1.56l0.1,-1.57l0.06,-1.57l0.01494,-1.1725l0.01506,1.1825l-0.01,-0.01l0.06,1.57l0.1,1.57l0.13,1.56l0.17,1.56l0.21,1.56l0.25,1.55l0.29,1.54l0.33,1.54l0.36,1.53l0.4,1.52l0.44,1.51l0.47,1.5l0.51,1.49l0.55,1.47l0.58,1.46l0.62,1.44l0.65,1.43l0.69,1.41l0.72,1.39l0.76,1.38l0.79,1.36l0.82,1.34l0.86,1.32l0.89,1.3l0.92,1.27l0.95,1.25l0.98,1.23l1.01,1.2l1.04,1.18l1.07,1.15l1.1,1.12l1.12,1.1l1.15,1.07l1.18,1.04l1.2,1.01l1.23,0.98l1.25,0.95l1.27,0.92l1.3,0.89l1.32,0.86l1.34,0.82l1.36,0.79l1.38,0.76l1.39,0.72l1.41,0.69l1.43,0.65l1.44,0.62l1.46,0.58l1.47,0.55l1.49,0.51l1.5,0.47l1.51,0.44l1.52,0.4l1.53,0.36l1.54,0.33l1.54,0.29l1.55,0.25l1.56,0.21l1.56,0.17l1.56,0.13l1.57,0.1l1.57,0.06l1.56,0.01987v0.01013l-1.57,0.02v-0.02l-1.57,0.06l-1.57,0.1l-1.56,0.13l-1.56,0.17l-1.56,0.21l-1.55,0.25l-1.54,0.29l-1.54,0.33l-1.53,0.36l-1.52,0.4l-1.51,0.44l-1.5,0.47l-1.49,0.51l-1.47,0.55l-1.46,0.58l-1.44,0.62l-1.43,0.65l-1.41,0.69l-1.39,0.72l-1.38,0.76l-1.36,0.79l-1.34,0.82l-1.32,0.86l-1.3,0.89l-1.27,0.92l-1.25,0.95l-1.23,0.98l-1.2,1.01l-1.18,1.04l-1.15,1.07l-1.12,1.1l-1.1,1.12l-1.07,1.15l-1.04,1.18l-1.01,1.2l-0.98,1.23l-0.95,1.25l-0.92,1.27l-0.89,1.3l-0.86,1.32l-0.82,1.34l-0.79,1.36l-0.76,1.38l-0.72,1.39l-0.69,1.41l-0.65,1.43l-0.62,1.44l-0.58,1.46l-0.55,1.47l-0.51,1.49l-0.47,1.5l-0.44,1.51l-0.4,1.52l-0.36,1.53l-0.33,1.54l-0.29,1.54l-0.25,1.55l-0.21,1.56l-0.17,1.56l-0.13,1.56l-0.1,1.57l-0.06,1.57l-0.02,1.57l0.02,1.57l0.06,1.57l0.1,1.57l0.13,1.56l0.17,1.56l0.21,1.56l0.25,1.55l0.29,1.54l0.33,1.54l0.36,1.53l0.4,1.52l0.44,1.51l0.47,1.5l0.51,1.49l0.55,1.47l0.58,1.46l0.62,1.44l0.65,1.43l0.69,1.41l0.72,1.39l0.76,1.38l0.79,1.36l0.82,1.34l0.86,1.32l0.89,1.3l0.92,1.27l0.95,1.25l0.98,1.23l1.01,1.2l1.04,1.18l1.07,1.15l1.1,1.12l1.12,1.1l1.15,1.07l1.18,1.04l1.2,1.01l1.23,0.98l1.25,0.95l1.27,0.92l1.3,0.89l1.32,0.86l1.34,0.82l1.36,0.79l1.38,0.76l1.39,0.72l1.41,0.69l1.43,0.65l1.44,0.62l1.46,0.58l1.47,0.55l1.49,0.51l1.5,0.47l1.51,0.44l1.52,0.4l1.53,0.36l1.54,0.33l1.54,0.29l1.55,0.25l1.56,0.21l1.56,0.17l1.56,0.13l1.57,0.1l1.57,0.06l1.57,0.02l-1.57,0.02v-0.02l-1.57,0.06l-1.57,0.1l-1.56,0.13l-1.56,0.17l-1.56,0.21l-1.55,0.25l-1.54,0.29l-1.54,0.33l-1.53,0.36l-1.52,0.4l-1.51,0.44l-1.5,0.47l-1.49,0.51l-1.47,0.55l-1.46,0.58l-1.44,0.62l-1.43,0.65l-1.41,0.69l-1.39,0.72l-1.38,0.76l-1.36,0.79l-1.34,0.82l-1.32,0.86l-1.3,0.89l-1.27,0.92l-1.25,0.95l-1.23,0.98l-1.2,1.01l-1.18,1.04l-1.15,1.07l-1.12,1.1l-1.1,1.12l-1.07,1.15l-1.04,1.18l-1.01,1.2l-0.98,1.23l-0.95,1.25l-0.92,1.27l-0.89,1.3l-0.86,1.32l-0.82,1.34l-0.79,1.36l-0.76,1.38l-0.72,1.39l-0.69,1.41l-0.65,1.43l-0.62,1.44l-0.58,1.46l-0.55,1.47l-0.51,1.49l-0.47,1.5l-0.44,1.51l-0.4,1.52l-0.36,1.53l-0.33,1.54l-0.29,1.54l-0.25,1.55l-0.21,1.56l-0.17,1.56l-0.13,1.56l-0.1,1.57l-0.06,1.57l-0.02,1.57l0.02,1.57l0.06,1.57l0.1,1.57l0.13,1.56l0.17,1.56l0.21,1.56l0.25,1.55l0.29,1.54l0.33,1.54l0.36,1.53l0.4,1.52l0.44,1.51l0.47,1.5l0.51,1.49l0.55,1.47l0.58,1.46l0.62,1.44l0.65,1.43l0.69,1.41l0.72,1.39l0.76,1.38l0.79,1.36l0.82,1.34l0.86,1.32l0.89,1.3l0.92,1.27l0.95,1.25l0.98,1.23l1.01,1.2l1.04,1.18l1.07,1.15l1.1,1.12l1.12,1.1l1.15,1.07l1.18,1.04l1.2,1.01l1.23,0.98l1.25,0.95l1.27,0.92l1.3,0.89l1.32,0.86l1.34,0.82l1.36,0.79l1.38,0.76l1.39,0.72l1.41,0.69l1.43,0.65l1.44,0.62l1.46,0.58l1.47,0.55l1.49,0.51l1.5,0.47l1.51,0.44l1.52,0.4l1.53,0.36l1.54,0.33l1.54,0.29l1.55,0.25l1.56,0.21l1.56,0.17l1.56,0.13l1.57,0.1l1.57,0.06zM1920,960l-960,0v-0.02013l1.56,-0.01987l0.01,0.02l1.57,-0.06l1.57,-0.1l1.56,-0.13l1.56,-0.17l1.56,-0.21l1.55,-0.25l1.54,-0.29l1.54,-0.33l1.53,-0.36l1.52,-0.4l1.51,-0.44l1.5,-0.47l1.49,-0.51l1.47,-0.55l1.46,-0.58l1.44,-0.62l1.43,-0.65l1.41,-0.69l1.39,-0.72l1.38,-0.76l1.36,-0.79l1.34,-0.82l1.32,-0.86l1.3,-0.89l1.27,-0.92l1.25,-0.95l1.23,-0.98l1.2,-1.01l1.18,-1.04l1.15,-1.07l1.12,-1.1l1.1,-1.12l1.07,-1.15l1.04,-1.18l1.01,-1.2l0.98,-1.23l0.95,-1.25l0.92,-1.27l0.89,-1.3l0.86,-1.32l0.82,-1.34l0.79,-1.36l0.76,-1.38l0.72,-1.39l0.69,-1.41l0.65,-1.43l0.62,-1.44l0.58,-1.46l0.55,-1.47l0.51,-1.49l0.47,-1.5l0.44,-1.51l0.4,-1.52l0.36,-1.53l0.33,-1.54l0.29,-1.54l0.25,-1.55l0.21,-1.56l0.17,-1.56l0.13,-1.56l0.1,-1.57l0.06,-1.57l0.02,-1.57l-0.02,-1.57l-0.06,-1.57l-0.1,-1.57l-0.13,-1.56l-0.17,-1.56l-0.21,-1.56l-0.25,-1.55l-0.29,-1.54l-0.33,-1.54l-0.36,-1.53l-0.4,-1.52l-0.44,-1.51l-0.47,-1.5l-0.51,-1.49l-0.55,-1.47l-0.58,-1.46l-0.62,-1.44l-0.65,-1.43l-0.69,-1.41l-0.72,-1.39l-0.76,-1.38l-0.79,-1.36l-0.82,-1.34l-0.86,-1.32l-0.89,-1.3l-0.92,-1.27l-0.95,-1.25l-0.98,-1.23l-1.01,-1.2l-1.04,-1.18l-1.07,-1.15l-1.1,-1.12l-1.12,-1.1l-1.15,-1.07l-1.18,-1.04l-1.2,-1.01l-1.23,-0.98l-1.25,-0.95l-1.27,-0.92l-1.3,-0.89l-1.32,-0.86l-1.34,-0.82l-1.36,-0.79l-1.38,-0.76l-1.39,-0.72l-1.41,-0.69l-1.43,-0.65l-1.44,-0.62l-1.46,-0.58l-1.47,-0.55l-1.49,-0.51l-1.5,-0.47l-1.51,-0.44l-1.52,-0.4l-1.53,-0.36l-1.54,-0.33l-1.54,-0.29l-1.55,-0.25l-1.56,-0.21l-1.56,-0.17l-1.57,-0.13l-1.57,-0.1l-1.57,-0.06l-1.56,-0.01987l0,-0.00025l1.56,-0.01987l0.01,0.02l1.57,-0.06l1.57,-0.1l1.56,-0.13l1.56,-0.17l1.56,-0.21l1.55,-0.25l1.54,-0.29l1.54,-0.33l1.53,-0.36l1.52,-0.4l1.51,-0.44l1.5,-0.47l1.49,-0.51l1.47,-0.55l1.46,-0.58l1.44,-0.62l1.43,-0.65l1.41,-0.69l1.39,-0.72l1.38,-0.76l1.36,-0.79l1.34,-0.82l1.32,-0.86l1.3,-0.89l1.27,-0.92l1.25,-0.95l1.23,-0.98l1.2,-1.01l1.18,-1.04l1.15,-1.07l1.12,-1.1l1.1,-1.12l1.07,-1.15l1.04,-1.18l1.01,-1.2l0.98,-1.23l0.95,-1.25l0.92,-1.27l0.89,-1.3l0.86,-1.32l0.82,-1.34l0.79,-1.36l0.76,-1.38l0.72,-1.39l0.69,-1.41l0.65,-1.43l0.62,-1.44l0.58,-1.46l0.55,-1.47l0.51,-1.49l0.47,-1.5l0.44,-1.51l0.4,-1.52l0.36,-1.53l0.33,-1.54l0.29,-1.54l0.25,-1.55l0.21,-1.56l0.17,-1.56l0.13,-1.56l0.1,-1.57l0.06,-1.57l0.02,-1.57l-0.02,-1.57l-0.06,-1.57l-0.1,-1.57l-0.13,-1.56l-0.17,-1.56l-0.21,-1.56l-0.25,-1.55l-0.29,-1.54l-0.33,-1.54l-0.36,-1.53l-0.4,-1.52l-0.44,-1.51l-0.47,-1.5l-0.51,-1.49l-0.55,-1.47l-0.58,-1.46l-0.62,-1.44l-0.65,-1.43l-0.69,-1.41l-0.72,-1.39l-0.76,-1.38l-0.79,-1.36l-0.82,-1.34l-0.86,-1.32l-0.89,-1.3l-0.92,-1.27l-0.95,-1.25l-0.98,-1.23l-1.01,-1.2l-1.04,-1.18l-1.07,-1.15l-1.1,-1.12l-1.12,-1.1l-1.15,-1.07l-1.18,-1.04l-1.2,-1.01l-1.23,-0.98l-1.25,-0.95l-1.27,-0.92l-1.3,-0.89l-1.32,-0.86l-1.34,-0.82l-1.36,-0.79l-1.38,-0.76l-1.39,-0.72l-1.41,-0.69l-1.43,-0.65l-1.44,-0.62l-1.46,-0.58l-1.47,-0.55l-1.49,-0.51l-1.5,-0.47l-1.51,-0.44l-1.52,-0.4l-1.53,-0.36l-1.54,-0.33l-1.54,-0.29l-1.55,-0.25l-1.56,-0.21l-1.56,-0.17l-1.57,-0.13l-1.57,-0.1l-1.57,-0.06l-1.1675,-0.01487l1.1875,-0.01513l-0.01,0.01l1.57,-0.06l1.57,-0.1l1.56,-0.13l1.56,-0.17l1.56,-0.21l1.55,-0.25l1.54,-0.29l1.54,-0.33l1.53,-0.36l1.52,-0.4l1.51,-0.44l1.5,-0.47l1.49,-0.51l1.47,-0.55l1.46,-0.58l1.44,-0.62l1.43,-0.65l1.41,-0.69l1.39,-0.72l1.38,-0.76l1.36,-0.79l1.34,-0.82l1.32,-0.86l1.3,-0.89l1.27,-0.92l1.25,-0.95l1.23,-0.98l1.2,-1.01l1.18,-1.04l1.15,-1.07l1.12,-1.1l1.1,-1.12l1.07,-1.15l1.04,-1.18l1.01,-1.2l0.98,-1.23l0.95,-1.25l0.92,-1.27l0.89,-1.3l0.86,-1.32l0.82,-1.34l0.79,-1.36l0.76,-1.38l0.72,-1.39l0.69,-1.41l0.65,-1.43l0.62,-1.44l0.58,-1.46l0.55,-1.47l0.51,-1.49l0.47,-1.5l0.44,-1.51l0.4,-1.52l0.36,-1.53l0.33,-1.54l0.29,-1.54l0.25,-1.55l0.21,-1.56l0.17,-1.56l0.13,-1.56l0.1,-1.57l0.06,-1.57l0.01987,-1.56h0.01013l0.02,1.57h-0.02l0.06,1.57l0.1,1.57l0.13,1.56l0.17,1.56l0.21,1.56l0.25,1.55l0.29,1.54l0.33,1.54l0.36,1.53l0.4,1.52l0.44,1.51l0.47,1.5l0.51,1.49l0.55,1.47l0.58,1.46l0.62,1.44l0.65,1.43l0.69,1.41l0.72,1.39l0.76,1.38l0.79,1.36l0.82,1.34l0.86,1.32l0.89,1.3l0.92,1.27l0.95,1.25l0.98,1.23l1.01,1.2l1.04,1.18l1.07,1.15l1.1,1.12l1.12,1.1l1.15,1.07l1.18,1.04l1.2,1.01l1.23,0.98l1.25,0.95l1.27,0.92l1.3,0.89l1.32,0.86l1.34,0.82l1.36,0.79l1.38,0.76l1.39,0.72l1.41,0.69l1.43,0.65l1.44,0.62l1.46,0.58l1.47,0.55l1.49,0.51l1.5,0.47l1.51,0.44l1.52,0.4l1.53,0.36l1.54,0.33l1.54,0.29l1.55,0.25l1.56,0.21l1.56,0.17l1.56,0.13l1.57,0.1l1.57,0.06l1.57,0.02l1.57,-0.02l1.57,-0.06l1.57,-0.1l1.56,-0.13l1.56,-0.17l1.56,-0.21l1.55,-0.25l1.54,-0.29l1.54,-0.33l1.53,-0.36l1.52,-0.4l1.51,-0.44l1.5,-0.47l1.49,-0.51l1.47,-0.55l1.46,-0.58l1.44,-0.62l1.43,-0.65l1.41,-0.69l1.39,-0.72l1.38,-0.76l1.36,-0.79l1.34,-0.82l1.32,-0.86l1.3,-0.89l1.27,-0.92l1.25,-0.95l1.23,-0.98l1.2,-1.01l1.18,-1.04l1.15,-1.07l1.12,-1.1l1.1,-1.12l1.07,-1.15l1.04,-1.18l1.01,-1.2l0.98,-1.23l0.95,-1.25l0.92,-1.27l0.89,-1.3l0.86,-1.32l0.82,-1.34l0.79,-1.36l0.76,-1.38l0.72,-1.39l0.69,-1.41l0.65,-1.43l0.62,-1.44l0.58,-1.46l0.55,-1.47l0.51,-1.49l0.47,-1.5l0.44,-1.51l0.4,-1.52l0.36,-1.53l0.33,-1.54l0.29,-1.54l0.25,-1.55l0.21,-1.56l0.17,-1.56l0.13,-1.56l0.1,-1.57l0.06,-1.57l0.02,-1.57l0.02,1.57h-0.02l0.06,1.57l0.1,1.57l0.13,1.56l0.17,1.56l0.21,1.56l0.25,1.55l0.29,1.54l0.33,1.54l0.36,1.53l0.4,1.52l0.44,1.51l0.47,1.5l0.51,1.49l0.55,1.47l0.58,1.46l0.62,1.44l0.65,1.43l0.69,1.41l0.72,1.39l0.76,1.38l0.79,1.36l0.82,1.34l0.86,1.32l0.89,1.3l0.92,1.27l0.95,1.25l0.98,1.23l1.01,1.2l1.04,1.18l1.07,1.15l1.1,1.12l1.12,1.1l1.15,1.07l1.18,1.04l1.2,1.01l1.23,0.98l1.25,0.95l1.27,0.92l1.3,0.89l1.32,0.86l1.34,0.82l1.36,0.79l1.38,0.76l1.39,0.72l1.41,0.69l1.43,0.65l1.44,0.62l1.46,0.58l1.47,0.55l1.49,0.51l1.5,0.47l1.51,0.44l1.52,0.4l1.53,0.36l1.54,0.33l1.54,0.29l1.55,0.25l1.56,0.21l1.56,0.17l1.56,0.13l1.57,0.1l1.57,0.06l1.57,0.02l1.57,-0.02l1.57,-0.06l1.57,-0.1l1.56,-0.13l1.56,-0.17l1.56,-0.21l1.55,-0.25l1.54,-0.29l1.54,-0.33l1.53,-0.36l1.52,-0.4l1.51,-0.44l1.5,-0.47l1.49,-0.51l1.47,-0.55l1.46,-0.58l1.44,-0.62l1.43,-0.65l1.41,-0.69l1.39,-0.72l1.38,-0.76l1.36,-0.79l1.34,-0.82l1.32,-0.86l1.3,-0.89l1.27,-0.92l1.25,-0.95l1.23,-0.98l1.2,-1.01l1.18,-1.04l1.15,-1.07l1.12,-1.1l1.1,-1.12l1.07,-1.15l1.04,-1.18l1.01,-1.2l0.98,-1.23l0.95,-1.25l0.92,-1.27l0.89,-1.3l0.86,-1.32l0.82,-1.34l0.79,-1.36l0.76,-1.38l0.72,-1.39l0.69,-1.41l0.65,-1.43l0.62,-1.44l0.58,-1.46l0.55,-1.47l0.51,-1.49l0.47,-1.5l0.44,-1.51l0.4,-1.52l0.36,-1.53l0.33,-1.54l0.29,-1.54l0.25,-1.55l0.21,-1.56l0.17,-1.56l0.13,-1.56l0.1,-1.57l0.06,-1.57l0.01998,-1.56833c24.20279,2.02642 47.41271,16.73588 57.17002,44.17833c13.26,37.31 55.88,54.96 91.64,37.96c56.79,-26.99 116.03,32.25 89.03,89.03c-17,35.76 0.66,78.37 37.96,91.64c27.44,9.76 42.17,32.98 44.18,57.19v-0.02l1.57,-0.02v0.02l1.57,-0.06l1.57,-0.1l1.56,-0.13l1.56,-0.17l1.56,-0.21l1.55,-0.25l1.54,-0.29l1.54,-0.33l1.53,-0.36l1.52,-0.4l1.51,-0.44l1.5,-0.47l1.49,-0.51l1.47,-0.55l1.46,-0.58l1.44,-0.62l1.43,-0.65l1.41,-0.69l1.39,-0.72l1.38,-0.76l1.36,-0.79l1.34,-0.82l1.32,-0.86l1.3,-0.89l1.27,-0.92l1.25,-0.95l1.23,-0.98l1.2,-1.01l1.18,-1.04l1.15,-1.07l1.12,-1.1l1.1,-1.12l1.07,-1.15l1.04,-1.18l1.01,-1.2l0.98,-1.23l0.95,-1.25l0.92,-1.27l0.89,-1.3l0.86,-1.32l0.82,-1.34l0.79,-1.36l0.76,-1.38l0.72,-1.39l0.69,-1.41l0.65,-1.43l0.62,-1.44l0.58,-1.46l0.55,-1.47l0.51,-1.49l0.47,-1.5l0.44,-1.51l0.4,-1.52l0.36,-1.53l0.33,-1.54l0.29,-1.54l0.25,-1.55l0.21,-1.56l0.17,-1.56l0.13,-1.56l0.1,-1.57l0.06,-1.57l0.02,-1.57l-0.02,-1.57l-0.06,-1.57l-0.1,-1.57l-0.13,-1.56l-0.17,-1.56l-0.21,-1.56l-0.25,-1.55l-0.29,-1.54l-0.33,-1.54l-0.36,-1.53l-0.4,-1.52l-0.44,-1.51l-0.47,-1.5l-0.51,-1.49l-0.55,-1.47l-0.58,-1.46l-0.62,-1.44l-0.65,-1.43l-0.69,-1.41l-0.72,-1.39l-0.76,-1.38l-0.79,-1.36l-0.82,-1.34l-0.86,-1.32l-0.89,-1.3l-0.92,-1.27l-0.95,-1.25l-0.98,-1.23l-1.01,-1.2l-1.04,-1.18l-1.07,-1.15l-1.1,-1.12l-1.12,-1.1l-1.15,-1.07l-1.18,-1.04l-1.2,-1.01l-1.23,-0.98l-1.25,-0.95l-1.27,-0.92l-1.3,-0.89l-1.32,-0.86l-1.34,-0.82l-1.36,-0.79l-1.38,-0.76l-1.39,-0.72l-1.41,-0.69l-1.43,-0.65l-1.44,-0.62l-1.46,-0.58l-1.47,-0.55l-1.49,-0.51l-1.5,-0.47l-1.51,-0.44l-1.52,-0.4l-1.53,-0.36l-1.54,-0.33l-1.54,-0.29l-1.55,-0.25l-1.56,-0.21l-1.56,-0.17l-1.56,-0.13l-1.57,-0.1l-1.57,-0.06l-1.57,-0.02l1.57,-0.02v0.02l1.57,-0.06l1.57,-0.1l1.56,-0.13l1.56,-0.17l1.56,-0.21l1.55,-0.25l1.54,-0.29l1.54,-0.33l1.53,-0.36l1.52,-0.4l1.51,-0.44l1.5,-0.47l1.49,-0.51l1.47,-0.55l1.46,-0.58l1.44,-0.62l1.43,-0.65l1.41,-0.69l1.39,-0.72l1.38,-0.76l1.36,-0.79l1.34,-0.82l1.32,-0.86l1.3,-0.89l1.27,-0.92l1.25,-0.95l1.23,-0.98l1.2,-1.01l1.18,-1.04l1.15,-1.07l1.12,-1.1l1.1,-1.12l1.07,-1.15l1.04,-1.18l1.01,-1.2l0.98,-1.23l0.95,-1.25l0.92,-1.27l0.89,-1.3l0.86,-1.32l0.82,-1.34l0.79,-1.36l0.76,-1.38l0.72,-1.39l0.69,-1.41l0.65,-1.43l0.62,-1.44l0.58,-1.46l0.55,-1.47l0.51,-1.49l0.47,-1.5l0.44,-1.51l0.4,-1.52l0.36,-1.53l0.33,-1.54l0.29,-1.54l0.25,-1.55l0.21,-1.56l0.17,-1.56l0.13,-1.56l0.1,-1.57l0.06,-1.57l0.02,-1.57l-0.02,-1.57l-0.06,-1.57l-0.1,-1.57l-0.13,-1.56l-0.17,-1.56l-0.21,-1.56l-0.25,-1.55l-0.29,-1.54l-0.33,-1.54l-0.36,-1.53l-0.4,-1.52l-0.44,-1.51l-0.47,-1.5l-0.51,-1.49l-0.55,-1.47l-0.58,-1.46l-0.62,-1.44l-0.65,-1.43l-0.69,-1.41l-0.72,-1.39l-0.76,-1.38l-0.79,-1.36l-0.82,-1.34l-0.86,-1.32l-0.89,-1.3l-0.92,-1.27l-0.95,-1.25l-0.98,-1.23l-1.01,-1.2l-1.04,-1.18l-1.07,-1.15l-1.1,-1.12l-1.12,-1.1l-1.15,-1.07l-1.18,-1.04l-1.2,-1.01l-1.23,-0.98l-1.25,-0.95l-1.27,-0.92l-1.3,-0.89l-1.32,-0.86l-1.34,-0.82l-1.36,-0.79l-1.38,-0.76l-1.39,-0.72l-1.41,-0.69l-1.43,-0.65l-1.44,-0.62l-1.46,-0.58l-1.47,-0.55l-1.49,-0.51l-1.5,-0.47l-1.51,-0.44l-1.52,-0.4l-1.53,-0.36l-1.54,-0.33l-1.54,-0.29l-1.55,-0.25l-1.56,-0.21l-1.56,-0.17l-1.56,-0.13l-1.57,-0.1l-1.57,-0.06l-1.1725,-0.01494l1.1825,-0.01506l-0.01,0.01l1.57,-0.06l1.57,-0.1l1.56,-0.13l1.56,-0.17l1.56,-0.21l1.55,-0.25l1.54,-0.29l1.54,-0.33l1.53,-0.36l1.52,-0.4l1.51,-0.44l1.5,-0.47l1.49,-0.51l1.47,-0.55l1.46,-0.58l1.44,-0.62l1.43,-0.65l1.41,-0.69l1.39,-0.72l1.38,-0.76l1.36,-0.79l1.34,-0.82l1.32,-0.86l1.3,-0.89l1.27,-0.92l1.25,-0.95l1.23,-0.98l1.2,-1.01l1.18,-1.04l1.15,-1.07l1.12,-1.1l1.1,-1.12l1.07,-1.15l1.04,-1.18l1.01,-1.2l0.98,-1.23l0.95,-1.25l0.92,-1.27l0.89,-1.3l0.86,-1.32l0.82,-1.34l0.79,-1.36l0.76,-1.38l0.72,-1.39l0.69,-1.41l0.65,-1.43l0.62,-1.44l0.58,-1.46l0.55,-1.47l0.51,-1.49l0.47,-1.5l0.44,-1.51l0.4,-1.52l0.36,-1.53l0.33,-1.54l0.29,-1.54l0.25,-1.55l0.21,-1.56l0.17,-1.56l0.13,-1.56l0.1,-1.57l0.06,-1.57l0.01975,-1.55h0.01038l0.01987,1.56h-0.02l0.06,1.57l0.1,1.57l0.13,1.56l0.17,1.56l0.21,1.56l0.25,1.55l0.29,1.54l0.33,1.54l0.36,1.53l0.4,1.52l0.44,1.51l0.47,1.5l0.51,1.49l0.55,1.47l0.58,1.46l0.62,1.44l0.65,1.43l0.69,1.41l0.72,1.39l0.76,1.38l0.79,1.36l0.82,1.34l0.86,1.32l0.89,1.3l0.92,1.27l0.95,1.25l0.98,1.23l1.01,1.2l1.04,1.18l1.07,1.15l1.1,1.12l1.12,1.1l1.15,1.07l1.18,1.04l1.2,1.01l1.23,0.98l1.25,0.95l1.27,0.92l1.3,0.89l1.32,0.86l1.34,0.82l1.36,0.79l1.38,0.76l1.39,0.72l1.41,0.69l1.43,0.65l1.44,0.62l1.46,0.58l1.47,0.55l1.49,0.51l1.5,0.47l1.51,0.44l1.52,0.4l1.53,0.36l1.54,0.33l1.54,0.29l1.55,0.25l1.56,0.21l1.56,0.17l1.56,0.13l1.57,0.1l1.57,0.06l1.57,0.02l1.57,-0.02l1.57,-0.06l1.57,-0.1l1.56,-0.13l1.56,-0.17l1.56,-0.21l1.55,-0.25l1.54,-0.29l1.54,-0.33l1.53,-0.36l1.52,-0.4l1.51,-0.44l1.5,-0.47l1.49,-0.51l1.47,-0.55l1.46,-0.58l1.44,-0.62l1.43,-0.65l1.41,-0.69l1.39,-0.72l1.38,-0.76l1.36,-0.79l1.34,-0.82l1.32,-0.86l1.3,-0.89l1.27,-0.92l1.25,-0.95l1.23,-0.98l1.2,-1.01l1.18,-1.04l1.15,-1.07l1.12,-1.1l1.1,-1.12l1.07,-1.15l1.04,-1.18l1.01,-1.2l0.98,-1.23l0.95,-1.25l0.92,-1.27l0.89,-1.3l0.86,-1.32l0.82,-1.34l0.79,-1.36l0.76,-1.38l0.72,-1.39l0.69,-1.41l0.65,-1.43l0.62,-1.44l0.58,-1.46l0.55,-1.47l0.51,-1.49l0.47,-1.5l0.44,-1.51l0.4,-1.52l0.36,-1.53l0.33,-1.54l0.29,-1.54l0.25,-1.55l0.21,-1.56l0.17,-1.56l0.13,-1.56l0.1,-1.57l0.06,-1.57l0.01987,-1.56h0.00025l0.01987,1.56h-0.02l0.06,1.57l0.1,1.57l0.13,1.56l0.17,1.56l0.21,1.56l0.25,1.55l0.29,1.54l0.33,1.54l0.36,1.53l0.4,1.52l0.44,1.51l0.47,1.5l0.51,1.49l0.55,1.47l0.58,1.46l0.62,1.44l0.65,1.43l0.69,1.41l0.72,1.39l0.76,1.38l0.79,1.36l0.82,1.34l0.86,1.32l0.89,1.3l0.92,1.27l0.95,1.25l0.98,1.23l1.01,1.2l1.04,1.18l1.07,1.15l1.1,1.12l1.12,1.1l1.15,1.07l1.18,1.04l1.2,1.01l1.23,0.98l1.25,0.95l1.27,0.92l1.3,0.89l1.32,0.86l1.34,0.82l1.36,0.79l1.38,0.76l1.39,0.72l1.41,0.69l1.43,0.65l1.44,0.62l1.46,0.58l1.47,0.55l1.49,0.51l1.5,0.47l1.51,0.44l1.52,0.4l1.53,0.36l1.54,0.33l1.54,0.29l1.55,0.25l1.56,0.21l1.56,0.17l1.56,0.13l1.57,0.1l1.57,0.06l1.57,0.02l1.57,-0.02l1.57,-0.06l1.57,-0.1l1.56,-0.13l1.56,-0.17l1.56,-0.21l1.55,-0.25l1.54,-0.29l1.54,-0.33l1.53,-0.36l1.52,-0.4l1.51,-0.44l1.5,-0.47l1.49,-0.51l1.47,-0.55l1.46,-0.58l1.44,-0.62l1.43,-0.65l1.41,-0.69l1.39,-0.72l1.38,-0.76l1.36,-0.79l1.34,-0.82l1.32,-0.86l1.3,-0.89l1.27,-0.92l1.25,-0.95l1.23,-0.98l1.2,-1.01l1.18,-1.04l1.15,-1.07l1.12,-1.1l1.1,-1.12l1.07,-1.15l1.04,-1.18l1.01,-1.2l0.98,-1.23l0.95,-1.25l0.92,-1.27l0.89,-1.3l0.86,-1.32l0.82,-1.34l0.79,-1.36l0.76,-1.38l0.72,-1.39l0.69,-1.41l0.65,-1.43l0.62,-1.44l0.58,-1.46l0.55,-1.47l0.51,-1.49l0.47,-1.5l0.44,-1.51l0.4,-1.52l0.36,-1.53l0.33,-1.54l0.29,-1.54l0.25,-1.55l0.21,-1.56l0.17,-1.56l0.13,-1.56l0.1,-1.57l0.06,-1.57zM320,320.02l-1.57,0.02v-0.02l-1.57,0.06l-1.57,0.1l-1.56,0.13l-1.56,0.17l-1.56,0.21l-1.55,0.25l-1.54,0.29l-1.54,0.33l-1.53,0.36l-1.52,0.4l-1.51,0.44l-1.5,0.47l-1.49,0.51l-1.47,0.55l-1.46,0.58l-1.44,0.62l-1.43,0.65l-1.41,0.69l-1.39,0.72l-1.38,0.76l-1.36,0.79l-1.34,0.82l-1.32,0.86l-1.3,0.89l-1.27,0.92l-1.25,0.95l-1.23,0.98l-1.2,1.01l-1.18,1.04l-1.15,1.07l-1.12,1.1l-1.1,1.12l-1.07,1.15l-1.04,1.18l-1.01,1.2l-0.98,1.23l-0.95,1.25l-0.92,1.27l-0.89,1.3l-0.86,1.32l-0.82,1.34l-0.79,1.36l-0.76,1.38l-0.72,1.39l-0.69,1.41l-0.65,1.43l-0.62,1.44l-0.58,1.46l-0.55,1.47l-0.51,1.49l-0.47,1.5l-0.44,1.51l-0.4,1.52l-0.36,1.53l-0.33,1.54l-0.29,1.54l-0.25,1.55l-0.21,1.56l-0.17,1.56l-0.13,1.56l-0.1,1.57l-0.06,1.57l-0.02,1.57l0.02,1.57l0.06,1.57l0.1,1.57l0.13,1.56l0.17,1.56l0.21,1.56l0.25,1.55l0.29,1.54l0.33,1.54l0.36,1.53l0.4,1.52l0.44,1.51l0.47,1.5l0.51,1.49l0.55,1.47l0.58,1.46l0.62,1.44l0.65,1.43l0.69,1.41l0.72,1.39l0.76,1.38l0.79,1.36l0.82,1.34l0.86,1.32l0.89,1.3l0.92,1.27l0.95,1.25l0.98,1.23l1.01,1.2l1.04,1.18l1.07,1.15l1.1,1.12l1.12,1.1l1.15,1.07l1.18,1.04l1.2,1.01l1.23,0.98l1.25,0.95l1.27,0.92l1.3,0.89l1.32,0.86l1.34,0.82l1.36,0.79l1.38,0.76l1.39,0.72l1.41,0.69l1.43,0.65l1.44,0.62l1.46,0.58l1.47,0.55l1.49,0.51l1.5,0.47l1.51,0.44l1.52,0.4l1.53,0.36l1.54,0.33l1.54,0.29l1.55,0.25l1.56,0.21l1.56,0.17l1.56,0.13l1.57,0.1l1.57,0.06l1.57,0.02l-1.57,0.02v-0.02l-1.57,0.06l-1.57,0.1l-1.56,0.13l-1.56,0.17l-1.56,0.21l-1.55,0.25l-1.54,0.29l-1.54,0.33l-1.53,0.36l-1.52,0.4l-1.51,0.44l-1.5,0.47l-1.49,0.51l-1.47,0.55l-1.46,0.58l-1.44,0.62l-1.43,0.65l-1.41,0.69l-1.39,0.72l-1.38,0.76l-1.36,0.79l-1.34,0.82l-1.32,0.86l-1.3,0.89l-1.27,0.92l-1.25,0.95l-1.23,0.98l-1.2,1.01l-1.18,1.04l-1.15,1.07l-1.12,1.1l-1.1,1.12l-1.07,1.15l-1.04,1.18l-1.01,1.2l-0.98,1.23l-0.95,1.25l-0.92,1.27l-0.89,1.3l-0.86,1.32l-0.82,1.34l-0.79,1.36l-0.76,1.38l-0.72,1.39l-0.69,1.41l-0.65,1.43l-0.62,1.44l-0.58,1.46l-0.55,1.47l-0.51,1.49l-0.47,1.5l-0.44,1.51l-0.4,1.52l-0.36,1.53l-0.33,1.54l-0.29,1.54l-0.25,1.55l-0.21,1.56l-0.17,1.56l-0.13,1.56l-0.1,1.57l-0.06,1.57l-0.02,1.57l0.02,1.57l0.06,1.57l0.1,1.57l0.13,1.56l0.17,1.56l0.21,1.56l0.25,1.55l0.29,1.54l0.33,1.54l0.36,1.53l0.4,1.52l0.44,1.51l0.47,1.5l0.51,1.49l0.55,1.47l0.58,1.46l0.62,1.44l0.65,1.43l0.69,1.41l0.72,1.39l0.76,1.38l0.79,1.36l0.82,1.34l0.86,1.32l0.89,1.3l0.92,1.27l0.95,1.25l0.98,1.23l1.01,1.2l1.04,1.18l1.07,1.15l1.1,1.12l1.12,1.1l1.15,1.07l1.18,1.04l1.2,1.01l1.23,0.98l1.25,0.95l1.27,0.92l1.3,0.89l1.32,0.86l1.34,0.82l1.36,0.79l1.38,0.76l1.39,0.72l1.41,0.69l1.43,0.65l1.44,0.62l1.46,0.58l1.47,0.55l1.49,0.51l1.5,0.47l1.51,0.44l1.52,0.4l1.53,0.36l1.54,0.33l1.54,0.29l1.55,0.25l1.56,0.21l1.56,0.17l1.56,0.13l1.57,0.1l1.57,0.06l1.1725,0.01494l-1.1825,0.01506l0.01,-0.01l-1.57,0.06l-1.57,0.1l-1.56,0.13l-1.56,0.17l-1.56,0.21l-1.55,0.25l-1.54,0.29l-1.54,0.33l-1.53,0.36l-1.52,0.4l-1.51,0.44l-1.5,0.47l-1.49,0.51l-1.47,0.55l-1.46,0.58l-1.44,0.62l-1.43,0.65l-1.41,0.69l-1.39,0.72l-1.38,0.76l-1.36,0.79l-1.34,0.82l-1.32,0.86l-1.3,0.89l-1.27,0.92l-1.25,0.95l-1.23,0.98l-1.2,1.01l-1.18,1.04l-1.15,1.07l-1.12,1.1l-1.1,1.12l-1.07,1.15l-1.04,1.18l-1.01,1.2l-0.98,1.23l-0.95,1.25l-0.92,1.27l-0.89,1.3l-0.86,1.32l-0.82,1.34l-0.79,1.36l-0.76,1.38l-0.72,1.39l-0.69,1.41l-0.65,1.43l-0.62,1.44l-0.58,1.46l-0.55,1.47l-0.51,1.49l-0.47,1.5l-0.44,1.51l-0.4,1.52l-0.36,1.53l-0.33,1.54l-0.29,1.54l-0.25,1.55l-0.21,1.56l-0.17,1.56l-0.13,1.56l-0.1,1.57l-0.06,1.57l-0.01987,1.56h-0.01013l-0.02,-1.57h0.02l-0.06,-1.57l-0.1,-1.57l-0.13,-1.56l-0.17,-1.56l-0.21,-1.56l-0.25,-1.55l-0.29,-1.54l-0.33,-1.54l-0.36,-1.53l-0.4,-1.52l-0.44,-1.51l-0.47,-1.5l-0.51,-1.49l-0.55,-1.47l-0.58,-1.46l-0.62,-1.44l-0.65,-1.43l-0.69,-1.41l-0.72,-1.39l-0.76,-1.38l-0.79,-1.36l-0.82,-1.34l-0.86,-1.32l-0.89,-1.3l-0.92,-1.27l-0.95,-1.25l-0.98,-1.23l-1.01,-1.2l-1.04,-1.18l-1.07,-1.15l-1.1,-1.12l-1.12,-1.1l-1.15,-1.07l-1.18,-1.04l-1.2,-1.01l-1.23,-0.98l-1.25,-0.95l-1.27,-0.92l-1.3,-0.89l-1.32,-0.86l-1.34,-0.82l-1.36,-0.79l-1.38,-0.76l-1.39,-0.72l-1.41,-0.69l-1.43,-0.65l-1.44,-0.62l-1.46,-0.58l-1.47,-0.55l-1.49,-0.51l-1.5,-0.47l-1.51,-0.44l-1.52,-0.4l-1.53,-0.36l-1.54,-0.33l-1.54,-0.29l-1.55,-0.25l-1.56,-0.21l-1.56,-0.17l-1.56,-0.13l-1.57,-0.1l-1.57,-0.06l-1.57,-0.02l-1.57,0.02l-1.57,0.06l-1.57,0.1l-1.56,0.13l-1.56,0.17l-1.56,0.21l-1.55,0.25l-1.54,0.29l-1.54,0.33l-1.53,0.36l-1.52,0.4l-1.51,0.44l-1.5,0.47l-1.49,0.51l-1.47,0.55l-1.46,0.58l-1.44,0.62l-1.43,0.65l-1.41,0.69l-1.39,0.72l-1.38,0.76l-1.36,0.79l-1.34,0.82l-1.32,0.86l-1.3,0.89l-1.27,0.92l-1.25,0.95l-1.23,0.98l-1.2,1.01l-1.18,1.04l-1.15,1.07l-1.12,1.1l-1.1,1.12l-1.07,1.15l-1.04,1.18l-1.01,1.2l-0.98,1.23l-0.95,1.25l-0.92,1.27l-0.89,1.3l-0.86,1.32l-0.82,1.34l-0.79,1.36l-0.76,1.38l-0.72,1.39l-0.69,1.41l-0.65,1.43l-0.62,1.44l-0.58,1.46l-0.55,1.47l-0.51,1.49l-0.47,1.5l-0.44,1.51l-0.4,1.52l-0.36,1.53l-0.33,1.54l-0.29,1.54l-0.25,1.55l-0.21,1.56l-0.17,1.56l-0.13,1.56l-0.1,1.57l-0.06,1.57l-0.02,1.57l-0.02,-1.57h0.02l-0.06,-1.57l-0.1,-1.57l-0.13,-1.56l-0.17,-1.56l-0.21,-1.56l-0.25,-1.55l-0.29,-1.54l-0.33,-1.54l-0.36,-1.53l-0.4,-1.52l-0.44,-1.51l-0.47,-1.5l-0.51,-1.49l-0.55,-1.47l-0.58,-1.46l-0.62,-1.44l-0.65,-1.43l-0.69,-1.41l-0.72,-1.39l-0.76,-1.38l-0.79,-1.36l-0.82,-1.34l-0.86,-1.32l-0.89,-1.3l-0.92,-1.27l-0.95,-1.25l-0.98,-1.23l-1.01,-1.2l-1.04,-1.18l-1.07,-1.15l-1.1,-1.12l-1.12,-1.1l-1.15,-1.07l-1.18,-1.04l-1.2,-1.01l-1.23,-0.98l-1.25,-0.95l-1.27,-0.92l-1.3,-0.89l-1.32,-0.86l-1.34,-0.82l-1.36,-0.79l-1.38,-0.76l-1.39,-0.72l-1.41,-0.69l-1.43,-0.65l-1.44,-0.62l-1.46,-0.58l-1.47,-0.55l-1.49,-0.51l-1.5,-0.47l-1.51,-0.44l-1.52,-0.4l-1.53,-0.36l-1.54,-0.33l-1.54,-0.29l-1.55,-0.25l-1.56,-0.21l-1.56,-0.17l-1.56,-0.13l-1.57,-0.1l-1.57,-0.06l-1.57,-0.02l-1.57,0.02l-1.57,0.06l-1.57,0.1l-1.56,0.13l-1.56,0.17l-1.56,0.21l-1.55,0.25l-1.54,0.29l-1.54,0.33l-1.53,0.36l-1.52,0.4l-1.51,0.44l-1.5,0.47l-1.49,0.51l-1.47,0.55l-1.46,0.58l-1.44,0.62l-1.43,0.65l-1.41,0.69l-1.39,0.72l-1.38,0.76l-1.36,0.79l-1.34,0.82l-1.32,0.86l-1.3,0.89l-1.27,0.92l-1.25,0.95l-1.23,0.98l-1.2,1.01l-1.18,1.04l-1.15,1.07l-1.12,1.1l-1.1,1.12l-1.07,1.15l-1.04,1.18l-1.01,1.2l-0.98,1.23l-0.95,1.25l-0.92,1.27l-0.89,1.3l-0.86,1.32l-0.82,1.34l-0.79,1.36l-0.76,1.38l-0.72,1.39l-0.69,1.41l-0.65,1.43l-0.62,1.44l-0.58,1.46l-0.55,1.47l-0.51,1.49l-0.47,1.5l-0.44,1.51l-0.4,1.52l-0.36,1.53l-0.33,1.54l-0.29,1.54l-0.25,1.55l-0.21,1.56l-0.17,1.56l-0.13,1.56l-0.1,1.57l-0.06,1.57v-638.43c24.21,2.02 47.43,16.74 57.19,44.18c13.26,37.31 55.88,54.96 91.64,37.96c56.79,-26.99 116.03,32.25 89.03,89.03c-17,35.76 0.66,78.37 37.96,91.64c27.44,9.76 42.17,32.98 44.18,57.19c2.01,-24.21 16.74,-47.43 44.18,-57.19c37.3,-13.27 54.96,-55.88 37.96,-91.64c-27,-56.78 32.24,-116.02 89.03,-89.03c35.76,17 78.38,-0.65 91.64,-37.96c9.76,-27.44 32.98,-42.16 57.19,-44.18c24.21,2.02 47.43,16.74 57.19,44.18c13.26,37.31 55.88,54.96 91.64,37.96c56.79,-26.99 116.03,32.25 89.03,89.03c-17,35.76 0.66,78.37 37.96,91.64c27.44,9.76 42.17,32.98 44.18,57.19c2.02,24.21 16.74,47.43 44.18,57.19c27.60701,9.81418 44.45525,35.71174 44.45495,63.00746c-0.00031,-27.29282 -16.84844,-53.18606 -44.45495,-63.00746c-27.44,-9.76 -42.17,-32.98 -44.18,-57.19c-2.01,24.21 -16.74,47.43 -44.18,57.19c-37.3,13.27 -54.96,55.88 -37.96,91.64c27,56.78 -32.24,116.02 -89.03,89.03c-35.76,-17 -78.38,0.65 -91.64,37.96c-9.76,27.45 -32.98,42.16 -57.19,44.18h0.02l0.02,1.57h-0.02l0.06,1.57l0.1,1.57l0.13,1.56l0.17,1.56l0.21,1.56l0.25,1.55l0.29,1.54l0.33,1.54l0.36,1.53l0.4,1.52l0.44,1.51l0.47,1.5l0.51,1.49l0.55,1.47l0.58,1.46l0.62,1.44l0.65,1.43l0.69,1.41l0.72,1.39l0.76,1.38l0.79,1.36l0.82,1.34l0.86,1.32l0.89,1.3l0.92,1.27l0.95,1.25l0.98,1.23l1.01,1.2l1.04,1.18l1.07,1.15l1.1,1.12l1.12,1.1l1.15,1.07l1.18,1.04l1.2,1.01l1.23,0.98l1.25,0.95l1.27,0.92l1.3,0.89l1.32,0.86l1.34,0.82l1.36,0.79l1.38,0.76l1.39,0.72l1.41,0.69l1.43,0.65l1.44,0.62l1.46,0.58l1.47,0.55l1.49,0.51l1.5,0.47l1.51,0.44l1.52,0.4l1.53,0.36l1.54,0.33l1.54,0.29l1.55,0.25l1.56,0.21l1.56,0.17l1.56,0.13l1.57,0.1l1.57,0.06l1.57,0.02l1.57,-0.02l1.57,-0.06l1.57,-0.1l1.56,-0.13l1.56,-0.17l1.56,-0.21l1.55,-0.25l1.54,-0.29l1.54,-0.33l1.53,-0.36l1.52,-0.4l1.51,-0.44l1.5,-0.47l1.49,-0.51l1.47,-0.55l1.46,-0.58l1.44,-0.62l1.43,-0.65l1.41,-0.69l1.39,-0.72l1.38,-0.76l1.36,-0.79l1.34,-0.82l1.32,-0.86l1.3,-0.89l1.27,-0.92l1.25,-0.95l1.23,-0.98l1.2,-1.01l1.18,-1.04l1.15,-1.07l1.12,-1.1l1.1,-1.12l1.07,-1.15l1.04,-1.18l1.01,-1.2l0.98,-1.23l0.95,-1.25l0.92,-1.27l0.89,-1.3l0.86,-1.32l0.82,-1.34l0.79,-1.36l0.76,-1.38l0.72,-1.39l0.69,-1.41l0.65,-1.43l0.62,-1.44l0.58,-1.46l0.55,-1.47l0.51,-1.49l0.47,-1.5l0.44,-1.51l0.4,-1.52l0.36,-1.53l0.33,-1.54l0.29,-1.54l0.25,-1.55l0.21,-1.56l0.17,-1.56l0.13,-1.56l0.1,-1.57l0.06,-1.57l0.02,-1.57l0.02,1.57h-0.02l0.06,1.57l0.1,1.57l0.13,1.56l0.17,1.56l0.21,1.56l0.25,1.55l0.29,1.54l0.33,1.54l0.36,1.53l0.4,1.52l0.44,1.51l0.47,1.5l0.51,1.49l0.55,1.47l0.58,1.46l0.62,1.44l0.65,1.43l0.69,1.41l0.72,1.39l0.76,1.38l0.79,1.36l0.82,1.34l0.86,1.32l0.89,1.3l0.92,1.27l0.95,1.25l0.98,1.23l1.01,1.2l1.04,1.18l1.07,1.15l1.1,1.12l1.12,1.1l1.15,1.07l1.18,1.04l1.2,1.01l1.23,0.98l1.25,0.95l1.27,0.92l1.3,0.89l1.32,0.86l1.34,0.82l1.36,0.79l1.38,0.76l1.39,0.72l1.41,0.69l1.43,0.65l1.44,0.62l1.46,0.58l1.47,0.55l1.49,0.51l1.5,0.47l1.51,0.44l1.52,0.4l1.53,0.36l1.54,0.33l1.54,0.29l1.55,0.25l1.56,0.21l1.56,0.17l1.56,0.13l1.57,0.1l1.57,0.06l1.57,0.02l1.57,-0.02l1.57,-0.06l1.57,-0.1l1.56,-0.13l1.56,-0.17l1.56,-0.21l1.55,-0.25l1.54,-0.29l1.54,-0.33l1.53,-0.36l1.52,-0.4l1.51,-0.44l1.5,-0.47l1.49,-0.51l1.47,-0.55l1.46,-0.58l1.44,-0.62l1.43,-0.65l1.41,-0.69l1.39,-0.72l1.38,-0.76l1.36,-0.79l1.34,-0.82l1.32,-0.86l1.3,-0.89l1.27,-0.92l1.25,-0.95l1.23,-0.98l1.2,-1.01l1.18,-1.04l1.15,-1.07l1.12,-1.1l1.1,-1.12l1.07,-1.15l1.04,-1.18l1.01,-1.2l0.98,-1.23l0.95,-1.25l0.92,-1.27l0.89,-1.3l0.86,-1.32l0.82,-1.34l0.79,-1.36l0.76,-1.38l0.72,-1.39l0.69,-1.41l0.65,-1.43l0.62,-1.44l0.58,-1.46l0.55,-1.47l0.51,-1.49l0.47,-1.5l0.44,-1.51l0.4,-1.52l0.36,-1.53l0.33,-1.54l0.29,-1.54l0.25,-1.55l0.21,-1.56l0.17,-1.56l0.13,-1.56l0.1,-1.57l0.06,-1.57l0.01494,-1.1725l0.01506,1.1825l-0.01,-0.01l0.06,1.57l0.1,1.57l0.13,1.56l0.17,1.56l0.21,1.56l0.25,1.55l0.29,1.54l0.33,1.54l0.36,1.53l0.4,1.52l0.44,1.51l0.47,1.5l0.51,1.49l0.55,1.47l0.58,1.46l0.62,1.44l0.65,1.43l0.69,1.41l0.72,1.39l0.76,1.38l0.79,1.36l0.82,1.34l0.86,1.32l0.89,1.3l0.92,1.27l0.95,1.25l0.98,1.23l1.01,1.2l1.04,1.18l1.07,1.15l1.1,1.12l1.12,1.1l1.15,1.07l1.18,1.04l1.2,1.01l1.23,0.98l1.25,0.95l1.27,0.92l1.3,0.89l1.32,0.86l1.34,0.82l1.36,0.79l1.38,0.76l1.39,0.72l1.41,0.69l1.43,0.65l1.44,0.62l1.46,0.58l1.47,0.55l1.49,0.51l1.5,0.47l1.51,0.44l1.52,0.4l1.53,0.36l1.54,0.33l1.54,0.29l1.55,0.25l1.56,0.21l1.56,0.17l1.56,0.13l1.57,0.1l1.57,0.06l1.55,0.01975v0.01038l-1.56,0.01987v-0.02l-1.57,0.06l-1.57,0.1l-1.56,0.13l-1.56,0.17l-1.56,0.21l-1.55,0.25l-1.54,0.29l-1.54,0.33l-1.53,0.36l-1.52,0.4l-1.51,0.44l-1.5,0.47l-1.49,0.51l-1.47,0.55l-1.46,0.58l-1.44,0.62l-1.43,0.65l-1.41,0.69l-1.39,0.72l-1.38,0.76l-1.36,0.79l-1.34,0.82l-1.32,0.86l-1.3,0.89l-1.27,0.92l-1.25,0.95l-1.23,0.98l-1.2,1.01l-1.18,1.04l-1.15,1.07l-1.12,1.1l-1.1,1.12l-1.07,1.15l-1.04,1.18l-1.01,1.2l-0.98,1.23l-0.95,1.25l-0.92,1.27l-0.89,1.3l-0.86,1.32l-0.82,1.34l-0.79,1.36l-0.76,1.38l-0.72,1.39l-0.69,1.41l-0.65,1.43l-0.62,1.44l-0.58,1.46l-0.55,1.47l-0.51,1.49l-0.47,1.5l-0.44,1.51l-0.4,1.52l-0.36,1.53l-0.33,1.54l-0.29,1.54l-0.25,1.55l-0.21,1.56l-0.17,1.56l-0.13,1.56l-0.1,1.57l-0.06,1.57l-0.02,1.57l0.02,1.57l0.06,1.57l0.1,1.57l0.13,1.56l0.17,1.56l0.21,1.56l0.25,1.55l0.29,1.54l0.33,1.54l0.36,1.53l0.4,1.52l0.44,1.51l0.47,1.5l0.51,1.49l0.55,1.47l0.58,1.46l0.62,1.44l0.65,1.43l0.69,1.41l0.72,1.39l0.76,1.38l0.79,1.36l0.82,1.34l0.86,1.32l0.89,1.3l0.92,1.27l0.95,1.25l0.98,1.23l1.01,1.2l1.04,1.18l1.07,1.15l1.1,1.12l1.12,1.1l1.15,1.07l1.18,1.04l1.2,1.01l1.23,0.98l1.25,0.95l1.27,0.92l1.3,0.89l1.32,0.86l1.34,0.82l1.36,0.79l1.38,0.76l1.39,0.72l1.41,0.69l1.43,0.65l1.44,0.62l1.46,0.58l1.47,0.55l1.49,0.51l1.5,0.47l1.51,0.44l1.52,0.4l1.53,0.36l1.54,0.33l1.54,0.29l1.55,0.25l1.56,0.21l1.56,0.17l1.56,0.13l1.57,0.1l1.57,0.06l1.56,0.01987v0.00025l-1.56,0.01987v-0.02l-1.57,0.06l-1.57,0.1l-1.56,0.13l-1.56,0.17l-1.56,0.21l-1.55,0.25l-1.54,0.29l-1.54,0.33l-1.53,0.36l-1.52,0.4l-1.51,0.44l-1.5,0.47l-1.49,0.51l-1.47,0.55l-1.46,0.58l-1.44,0.62l-1.43,0.65l-1.41,0.69l-1.39,0.72l-1.38,0.76l-1.36,0.79l-1.34,0.82l-1.32,0.86l-1.3,0.89l-1.27,0.92l-1.25,0.95l-1.23,0.98l-1.2,1.01l-1.18,1.04l-1.15,1.07l-1.12,1.1l-1.1,1.12l-1.07,1.15l-1.04,1.18l-1.01,1.2l-0.98,1.23l-0.95,1.25l-0.92,1.27l-0.89,1.3l-0.86,1.32l-0.82,1.34l-0.79,1.36l-0.76,1.38l-0.72,1.39l-0.69,1.41l-0.65,1.43l-0.62,1.44l-0.58,1.46l-0.55,1.47l-0.51,1.49l-0.47,1.5l-0.44,1.51l-0.4,1.52l-0.36,1.53l-0.33,1.54l-0.29,1.54l-0.25,1.55l-0.21,1.56l-0.17,1.56l-0.13,1.56l-0.1,1.57l-0.06,1.57l-0.02,1.57l0.02,1.57l0.06,1.57l0.1,1.57l0.13,1.56l0.17,1.56l0.21,1.56l0.25,1.55l0.29,1.54l0.33,1.54l0.36,1.53l0.4,1.52l0.44,1.51l0.47,1.5l0.51,1.49l0.55,1.47l0.58,1.46l0.62,1.44l0.65,1.43l0.69,1.41l0.72,1.39l0.76,1.38l0.79,1.36l0.82,1.34l0.86,1.32l0.89,1.3l0.92,1.27l0.95,1.25l0.98,1.23l1.01,1.2l1.04,1.18l1.07,1.15l1.1,1.12l1.12,1.1l1.15,1.07l1.18,1.04l1.2,1.01l1.23,0.98l1.25,0.95l1.27,0.92l1.3,0.89l1.32,0.86l1.34,0.82l1.36,0.79l1.38,0.76l1.39,0.72l1.41,0.69l1.43,0.65l1.44,0.62l1.46,0.58l1.47,0.55l1.49,0.51l1.5,0.47l1.51,0.44l1.52,0.4l1.53,0.36l1.54,0.33l1.54,0.29l1.55,0.25l1.56,0.21l1.56,0.17l1.56,0.13l1.57,0.1l1.57,0.06h-638.43c2.01,-24.21 16.74,-47.43 44.18,-57.19c37.3,-13.27 54.96,-55.88 37.96,-91.64c-27,-56.78 32.24,-116.02 89.03,-89.03c35.76,17 78.38,-0.65 91.64,-37.96c9.76,-27.45 32.98,-42.16 57.19,-44.18c-24.21,-2.02 -47.43,-16.73 -57.19,-44.18c-13.26,-37.31 -55.88,-54.96 -91.64,-37.96c-56.79,26.99 -116.03,-32.25 -89.03,-89.03c17,-35.76 -0.66,-78.37 -37.96,-91.64c-27.44,-9.76 -42.17,-32.98 -44.18,-57.19zM319.99,576.01987l0.01,0.00013v63.99h-0.01zM1600,320l-320,0l0,-320c24.21,2.02 47.43,16.74 57.19,44.18c13.26,37.31 55.88,54.96 91.64,37.96c56.79,-26.99 116.03,32.25 89.03,89.03c-17,35.76 0.66,78.37 37.96,91.64c27.44,9.76 42.17,32.98 44.18,57.19zM1919.97987,640l-0.01987,-1.56l0.02,-0.01l-0.06,-1.57l-0.1,-1.57l-0.13,-1.56l-0.17,-1.56l-0.21,-1.56l-0.25,-1.55l-0.29,-1.54l-0.33,-1.54l-0.36,-1.53l-0.4,-1.52l-0.44,-1.51l-0.47,-1.5l-0.51,-1.49l-0.55,-1.47l-0.58,-1.46l-0.62,-1.44l-0.65,-1.43l-0.69,-1.41l-0.72,-1.39l-0.76,-1.38l-0.79,-1.36l-0.82,-1.34l-0.86,-1.32l-0.89,-1.3l-0.92,-1.27l-0.95,-1.25l-0.98,-1.23l-1.01,-1.2l-1.04,-1.18l-1.07,-1.15l-1.1,-1.12l-1.12,-1.1l-1.15,-1.07l-1.18,-1.04l-1.2,-1.01l-1.23,-0.98l-1.25,-0.95l-1.27,-0.92l-1.3,-0.89l-1.32,-0.86l-1.34,-0.82l-1.36,-0.79l-1.38,-0.76l-1.39,-0.72l-1.41,-0.69l-1.43,-0.65l-1.44,-0.62l-1.46,-0.58l-1.47,-0.55l-1.49,-0.51l-1.5,-0.47l-1.51,-0.44l-1.52,-0.4l-1.53,-0.36l-1.54,-0.33l-1.54,-0.29l-1.55,-0.25l-1.56,-0.21l-1.56,-0.17l-1.56,-0.13l-1.57,-0.1l-1.57,-0.06l-1.57,-0.02l-1.57,0.02l-1.57,0.06l-1.57,0.1l-1.56,0.13l-1.56,0.17l-1.56,0.21l-1.55,0.25l-1.54,0.29l-1.54,0.33l-1.53,0.36l-1.52,0.4l-1.51,0.44l-1.5,0.47l-1.49,0.51l-1.47,0.55l-1.46,0.58l-1.44,0.62l-1.43,0.65l-1.41,0.69l-1.39,0.72l-1.38,0.76l-1.36,0.79l-1.34,0.82l-1.32,0.86l-1.3,0.89l-1.27,0.92l-1.25,0.95l-1.23,0.98l-1.2,1.01l-1.18,1.04l-1.15,1.07l-1.12,1.1l-1.1,1.12l-1.07,1.15l-1.04,1.18l-1.01,1.2l-0.98,1.23l-0.95,1.25l-0.92,1.27l-0.89,1.3l-0.86,1.32l-0.82,1.34l-0.79,1.36l-0.76,1.38l-0.72,1.39l-0.69,1.41l-0.65,1.43l-0.62,1.44l-0.58,1.46l-0.55,1.47l-0.51,1.49l-0.47,1.5l-0.44,1.51l-0.4,1.52l-0.36,1.53l-0.33,1.54l-0.29,1.54l-0.25,1.55l-0.21,1.56l-0.17,1.56l-0.13,1.57l-0.1,1.57l-0.06,1.57l-0.01987,1.56l-0.00025,0l-0.01987,-1.56l0.02,-0.01l-0.06,-1.57l-0.1,-1.57l-0.13,-1.56l-0.17,-1.56l-0.21,-1.56l-0.25,-1.55l-0.29,-1.54l-0.33,-1.54l-0.36,-1.53l-0.4,-1.52l-0.44,-1.51l-0.47,-1.5l-0.51,-1.49l-0.55,-1.47l-0.58,-1.46l-0.62,-1.44l-0.65,-1.43l-0.69,-1.41l-0.72,-1.39l-0.76,-1.38l-0.79,-1.36l-0.82,-1.34l-0.86,-1.32l-0.89,-1.3l-0.92,-1.27l-0.95,-1.25l-0.98,-1.23l-1.01,-1.2l-1.04,-1.18l-1.07,-1.15l-1.1,-1.12l-1.12,-1.1l-1.15,-1.07l-1.18,-1.04l-1.2,-1.01l-1.23,-0.98l-1.25,-0.95l-1.27,-0.92l-1.3,-0.89l-1.32,-0.86l-1.34,-0.82l-1.36,-0.79l-1.38,-0.76l-1.39,-0.72l-1.41,-0.69l-1.43,-0.65l-1.44,-0.62l-1.46,-0.58l-1.47,-0.55l-1.49,-0.51l-1.5,-0.47l-1.51,-0.44l-1.52,-0.4l-1.53,-0.36l-1.54,-0.33l-1.54,-0.29l-1.55,-0.25l-1.56,-0.21l-1.56,-0.17l-1.56,-0.13l-1.57,-0.1l-1.57,-0.06l-1.57,-0.02l-1.57,0.02l-1.57,0.06l-1.57,0.1l-1.56,0.13l-1.56,0.17l-1.56,0.21l-1.55,0.25l-1.54,0.29l-1.54,0.33l-1.53,0.36l-1.52,0.4l-1.51,0.44l-1.5,0.47l-1.49,0.51l-1.47,0.55l-1.46,0.58l-1.44,0.62l-1.43,0.65l-1.41,0.69l-1.39,0.72l-1.38,0.76l-1.36,0.79l-1.34,0.82l-1.32,0.86l-1.3,0.89l-1.27,0.92l-1.25,0.95l-1.23,0.98l-1.2,1.01l-1.18,1.04l-1.15,1.07l-1.12,1.1l-1.1,1.12l-1.07,1.15l-1.04,1.18l-1.01,1.2l-0.98,1.23l-0.95,1.25l-0.92,1.27l-0.89,1.3l-0.86,1.32l-0.82,1.34l-0.79,1.36l-0.76,1.38l-0.72,1.39l-0.69,1.41l-0.65,1.43l-0.62,1.44l-0.58,1.46l-0.55,1.47l-0.51,1.49l-0.47,1.5l-0.44,1.51l-0.4,1.52l-0.36,1.53l-0.33,1.54l-0.29,1.54l-0.25,1.55l-0.21,1.56l-0.17,1.56l-0.13,1.57l-0.1,1.57l-0.06,1.57l-0.01487,1.1675l-0.01513,-1.1875l0.01,0.01l-0.06,-1.57l-0.1,-1.57l-0.13,-1.56l-0.17,-1.56l-0.21,-1.56l-0.25,-1.55l-0.29,-1.54l-0.33,-1.54l-0.36,-1.53l-0.4,-1.52l-0.44,-1.51l-0.47,-1.5l-0.51,-1.49l-0.55,-1.47l-0.58,-1.46l-0.62,-1.44l-0.65,-1.43l-0.69,-1.41l-0.72,-1.39l-0.76,-1.38l-0.79,-1.36l-0.82,-1.34l-0.86,-1.32l-0.89,-1.3l-0.92,-1.27l-0.95,-1.25l-0.98,-1.23l-1.01,-1.2l-1.04,-1.18l-1.07,-1.15l-1.1,-1.12l-1.12,-1.1l-1.15,-1.07l-1.18,-1.04l-1.2,-1.01l-1.23,-0.98l-1.25,-0.95l-1.27,-0.92l-1.3,-0.89l-1.32,-0.86l-1.34,-0.82l-1.36,-0.79l-1.38,-0.76l-1.39,-0.72l-1.41,-0.69l-1.43,-0.65l-1.44,-0.62l-1.46,-0.58l-1.47,-0.55l-1.49,-0.51l-1.5,-0.47l-1.51,-0.44l-1.52,-0.4l-1.53,-0.36l-1.54,-0.33l-1.54,-0.29l-1.55,-0.25l-1.56,-0.21l-1.56,-0.17l-1.56,-0.13l-1.57,-0.1l-1.57,-0.06l-1.56,-0.01987v-0.01013l1.57,-0.02v0.02l1.57,-0.06l1.57,-0.1l1.56,-0.13l1.56,-0.17l1.56,-0.21l1.55,-0.25l1.54,-0.29l1.54,-0.33l1.53,-0.36l1.52,-0.4l1.51,-0.44l1.5,-0.47l1.49,-0.51l1.47,-0.55l1.46,-0.58l1.44,-0.62l1.43,-0.65l1.41,-0.69l1.39,-0.72l1.38,-0.76l1.36,-0.79l1.34,-0.82l1.32,-0.86l1.3,-0.89l1.27,-0.92l1.25,-0.95l1.23,-0.98l1.2,-1.01l1.18,-1.04l1.15,-1.07l1.12,-1.1l1.1,-1.12l1.07,-1.15l1.04,-1.18l1.01,-1.2l0.98,-1.23l0.95,-1.25l0.92,-1.27l0.89,-1.3l0.86,-1.32l0.82,-1.34l0.79,-1.36l0.76,-1.38l0.72,-1.39l0.69,-1.41l0.65,-1.43l0.62,-1.44l0.58,-1.46l0.55,-1.47l0.51,-1.49l0.47,-1.5l0.44,-1.51l0.4,-1.52l0.36,-1.53l0.33,-1.54l0.29,-1.54l0.25,-1.55l0.21,-1.56l0.17,-1.56l0.13,-1.56l0.1,-1.57l0.06,-1.57l0.02,-1.57l-0.02,-1.57l-0.06,-1.57l-0.1,-1.57l-0.13,-1.56l-0.17,-1.56l-0.21,-1.56l-0.25,-1.55l-0.29,-1.54l-0.33,-1.54l-0.36,-1.53l-0.4,-1.52l-0.44,-1.51l-0.47,-1.5l-0.51,-1.49l-0.55,-1.47l-0.58,-1.46l-0.62,-1.44l-0.65,-1.43l-0.69,-1.41l-0.72,-1.39l-0.76,-1.38l-0.79,-1.36l-0.82,-1.34l-0.86,-1.32l-0.89,-1.3l-0.92,-1.27l-0.95,-1.25l-0.98,-1.23l-1.01,-1.2l-1.04,-1.18l-1.07,-1.15l-1.1,-1.12l-1.12,-1.1l-1.15,-1.07l-1.18,-1.04l-1.2,-1.01l-1.23,-0.98l-1.25,-0.95l-1.27,-0.92l-1.3,-0.89l-1.32,-0.86l-1.34,-0.82l-1.36,-0.79l-1.38,-0.76l-1.39,-0.72l-1.41,-0.69l-1.43,-0.65l-1.44,-0.62l-1.46,-0.58l-1.47,-0.55l-1.49,-0.51l-1.5,-0.47l-1.51,-0.44l-1.52,-0.4l-1.53,-0.36l-1.54,-0.33l-1.54,-0.29l-1.55,-0.25l-1.56,-0.21l-1.56,-0.17l-1.56,-0.13l-1.57,-0.1l-1.57,-0.06l-1.57,-0.02l1.57,-0.02v0.02l1.57,-0.06l1.57,-0.1l1.56,-0.13l1.56,-0.17l1.56,-0.21l1.55,-0.25l1.54,-0.29l1.54,-0.33l1.53,-0.36l1.52,-0.4l1.51,-0.44l1.5,-0.47l1.49,-0.51l1.47,-0.55l1.46,-0.58l1.44,-0.62l1.43,-0.65l1.41,-0.69l1.39,-0.72l1.38,-0.76l1.36,-0.79l1.34,-0.82l1.32,-0.86l1.3,-0.89l1.27,-0.92l1.25,-0.95l1.23,-0.98l1.2,-1.01l1.18,-1.04l1.15,-1.07l1.12,-1.1l1.1,-1.12l1.07,-1.15l1.04,-1.18l1.01,-1.2l0.98,-1.23l0.95,-1.25l0.92,-1.27l0.89,-1.3l0.86,-1.32l0.82,-1.34l0.79,-1.36l0.76,-1.38l0.72,-1.39l0.69,-1.41l0.65,-1.43l0.62,-1.44l0.58,-1.46l0.55,-1.47l0.51,-1.49l0.47,-1.5l0.44,-1.51l0.4,-1.52l0.36,-1.53l0.33,-1.54l0.29,-1.54l0.25,-1.55l0.21,-1.56l0.17,-1.56l0.13,-1.56l0.1,-1.57l0.06,-1.57l0.02,-1.57l-0.02,-1.57l-0.06,-1.57l-0.1,-1.57l-0.13,-1.56l-0.17,-1.56l-0.21,-1.56l-0.25,-1.55l-0.29,-1.54l-0.33,-1.54l-0.36,-1.53l-0.4,-1.52l-0.44,-1.51l-0.47,-1.5l-0.51,-1.49l-0.55,-1.47l-0.58,-1.46l-0.62,-1.44l-0.65,-1.43l-0.69,-1.41l-0.72,-1.39l-0.76,-1.38l-0.79,-1.36l-0.82,-1.34l-0.86,-1.32l-0.89,-1.3l-0.92,-1.27l-0.95,-1.25l-0.98,-1.23l-1.01,-1.2l-1.04,-1.18l-1.07,-1.15l-1.1,-1.12l-1.12,-1.1l-1.15,-1.07l-1.18,-1.04l-1.2,-1.01l-1.23,-0.98l-1.25,-0.95l-1.27,-0.92l-1.3,-0.89l-1.32,-0.86l-1.34,-0.82l-1.36,-0.79l-1.38,-0.76l-1.39,-0.72l-1.41,-0.69l-1.43,-0.65l-1.44,-0.62l-1.46,-0.58l-1.47,-0.55l-1.49,-0.51l-1.5,-0.47l-1.51,-0.44l-1.52,-0.4l-1.53,-0.36l-1.54,-0.33l-1.54,-0.29l-1.55,-0.25l-1.56,-0.21l-1.56,-0.17l-1.56,-0.13l-1.57,-0.1l-1.57,-0.06l-1.56834,-0.01998c2.01644,-24.20279 16.74589,-47.41271 44.17834,-57.17002c37.3,-13.27 54.96,-55.88 37.96,-91.64c-27,-56.78 32.24,-116.02 89.03,-89.03c35.76,17 78.38,-0.65 91.64,-37.96c9.76,-27.44 32.98,-42.16 57.19,-44.18v640zM1600.01,703.98013l-0.01,-0.00013v-63.99h0.01zM896.01987,640.01l0.00013,-0.01h63.99v0.01zM1042.14,468.83c-13.49409,28.39308 -5.43359,57.39859 13.0975,75.9325c-18.53641,-18.53359 -26.59841,-47.54059 -13.0975,-75.9325zM1280,640c24.21,-2.02 47.43,-16.74 57.19,-44.18c-9.76,27.45 -32.98,42.16 -57.19,44.18z" fill="#d9d9d6"/></g></svg>