<svg xmlns="http://www.w3.org/2000/svg" width="1200" height="600" viewBox="0 0 1920 960"><g xmlns="http://www.w3.org/2000/svg" fill="#000000" fill-rule="nonzero" stroke="none" stroke-width="1" stroke-linecap="butt" stroke-linejoin="miter" stroke-miterlimit="10" stroke-dasharray="" stroke-dashoffset="0" font-family="none" font-weight="none" font-size="none" text-anchor="none" style="mix-blend-mode: normal"><path d="M320,960.02l-1.57,-0.02h-318.43l0,-320h-0.02l0.02,-1.57v-638.43h640c24.21,2.02 47.43,16.74 57.19,44.18c-9.76,-27.44 -32.98,-42.16 -57.19,-44.18c-24.21,2.02 -47.43,16.74 -57.19,44.18c9.76,-27.44 32.98,-42.16 57.19,-44.18h640c24.21,2.02 47.43,16.74 57.19,44.18c-9.76,-27.44 -32.98,-42.16 -57.19,-44.18v0h640v640h0.02l-0.02,1.57v318.43l-960,0v0.02l-1.57,-0.02h-638.43zM402.14,468.83c-27,56.78 32.24,116.02 89.03,89.03c-56.79,26.99 -116.03,-32.25 -89.03,-89.03zM491.17,557.86c35.76,-17 78.38,0.65 91.64,37.96c-13.26,-37.31 -55.88,-54.96 -91.64,-37.96zM582.81,595.82c9.76,27.45 32.98,42.16 57.19,44.18c-24.21,-2.02 -47.43,-16.73 -57.19,-44.18zM640,640c-24.21,2.02 -47.43,16.73 -57.19,44.18c9.76,-27.45 32.98,-42.16 57.19,-44.18zM491.17,722.14c-56.79,-26.99 -116.03,32.25 -89.03,89.03c-27,-56.78 32.24,-116.02 89.03,-89.03zM402.14,811.17c17,35.76 -0.66,78.37 -37.96,91.64c37.3,-13.27 54.96,-55.88 37.96,-91.64zM364.18,902.81c-27.44,9.76 -42.17,32.98 -44.18,57.19c2.01,-24.21 16.74,-47.43 44.18,-57.19zM1428.83,82.14c-35.76,17 -78.38,-0.65 -91.64,-37.96c13.26,37.31 55.88,54.96 91.64,37.96zM1644.18,262.81c-27.43245,9.75732 -42.1619,32.96723 -44.17834,57.17002c2.01644,-24.20279 16.74589,-47.41271 44.17834,-57.17002zM1600,960c-2.01,-24.21 -16.74,-47.43 -44.18,-57.19c27.44,9.76 42.17,32.98 44.18,57.19zM1555.82,902.81c-37.3,-13.27 -54.96,-55.88 -37.96,-91.64c-17,35.76 0.66,78.37 37.96,91.64zM1517.86,811.17c27,-56.78 -32.24,-116.02 -89.03,-89.03c56.79,-26.99 116.03,32.25 89.03,89.03zM1428.83,722.14c-35.76,17 -78.38,-0.65 -91.64,-37.96c13.26,37.31 55.88,54.96 91.64,37.96zM1337.19,684.18c-9.75732,-27.44245 -32.96723,-42.15191 -57.17002,-44.17833c24.20279,2.02642 47.41271,16.73588 57.17002,44.17833zM640,640c24.21,-2.02 47.43,-16.73 57.19,-44.18c-9.76,27.45 -32.98,42.16 -57.19,44.18zM697.19,595.82c13.26,-37.31 55.88,-54.96 91.64,-37.96c-35.76,-17 -78.38,0.65 -91.64,37.96zM877.86,468.83c-17,-35.76 0.66,-78.37 37.96,-91.64c-37.3,13.27 -54.96,55.88 -37.96,91.64zM915.82,377.19c27.44,-9.76 42.17,-32.98 44.18,-57.19c-2.01,24.21 -16.74,47.43 -44.18,57.19zM1048.63495,440.19746c0.00031,-27.29572 -16.84793,-53.19328 -44.45495,-63.00746c27.60701,9.81418 44.45525,35.71174 44.45495,63.00746zM960,320c-2.01,-24.21 -16.74,-47.43 -44.18,-57.19c27.44,9.76 42.17,32.98 44.18,57.19zM788.83,82.14c-35.76,17 -78.38,-0.65 -91.64,-37.96c13.26,37.31 55.88,54.96 91.64,37.96zM237.86,171.17c27,-56.78 -32.24,-116.02 -89.03,-89.03c56.79,-26.99 116.03,32.25 89.03,89.03zM57.19,44.18c-9.76,-27.44 -32.98,-42.16 -57.19,-44.18c24.21,2.02 47.43,16.74 57.19,44.18zM582.81,44.18c-13.26,37.31 -55.88,54.96 -91.64,37.96c35.76,17 78.38,-0.65 91.64,-37.96zM402.14,171.17c17,35.76 -0.66,78.37 -37.96,91.64c37.3,-13.27 54.96,-55.88 37.96,-91.64zM364.18,262.81c-27.44,9.76 -42.17,32.98 -44.18,57.19c2.01,-24.21 16.74,-47.43 44.18,-57.19zM1042.14,468.83c-13.49409,28.39308 -5.43359,57.39859 13.0975,75.9325c-18.53109,-18.53391 -26.59159,-47.53941 -13.0975,-75.9325zM1337.19,595.82c-9.76,27.45 -32.98,42.16 -57.19,44.18c24.21,-2.02 47.43,-16.73 57.19,-44.18z"/></g></svg>