<svg xmlns="http://www.w3.org/2000/svg" width="1920" height="960" viewBox="0 0 1920 960"><g xmlns="http://www.w3.org/2000/svg" fill="none" fill-rule="none" stroke="none" stroke-width="1" stroke-linecap="butt" stroke-linejoin="miter" stroke-miterlimit="10" stroke-dasharray="" stroke-dashoffset="0" font-family="none" font-weight="none" font-size="none" text-anchor="none" style="mix-blend-mode: normal"><path d="M640,928v32h-320v-32zM537.6,720c-20.742,0 -40.493,-16 -61.235,-16h-156.365v-32h156.365c20.743,0 40.493,-16 61.235,-16c20.742,0 40.492,16 61.235,16h41.165v32h-41.165c-20.743,0 -40.493,16 -61.235,16zM640,864v32h-320v-32zM640,800v32h-320v-32zM473.6,784c-20.742,0 -40.493,-16 -61.235,-16h-92.365v-32h92.365c20.743,0 40.493,-16 61.235,-16c20.742,0 40.493,16 61.235,16h105.165v32h-105.165c-20.743,0 -40.493,16 -61.235,16zM1280,320h320v320h-32c0,-159.058 -128.94,-288 -288,-288zM1280,608v-32c35.35,0 64,28.654 64,64h-32c0,-17.673 -14.33,-32 -32,-32zM1280,544v-32c70.69,0 128,57.308 128,128h-32c0,-53.019 -42.98,-96 -96,-96zM1280,480v-32c106.04,0 192,85.962 192,192h-32c0,-88.365 -71.63,-160 -160,-160zM1280,416v-32c141.38,0 256,114.615 256,256h-32c0,-123.712 -100.29,-224 -224,-224zM672,320v-156.365c0,-20.742 -16,-40.492 -16,-61.235c0,-20.7423 16,-40.4923 16,-61.2347v-41.16513h32v41.16513c0,20.7424 16,40.4924 16,61.2347c0,20.743 -16,40.493 -16,61.235l0,156.365h32v-92.365c0,-20.742 -16,-40.492 -16,-61.235c0,-20.742 16,-40.492 16,-61.235v-105.16483h32v105.16483c0,20.743 16,40.493 16,61.235c0,20.743 -16,40.493 -16,61.235v92.365h32v-319.99983h32l0,319.99983h32v-319.99983h32v319.99983h32v-319.99983h32v351.99983h-320v32h320v32h-320v32h320v32l-320,0v32h320v32h-320v32h320v32h-320v32l-32,0v-320zM320,288v32h-32c0,-17.673 14.327,-32 32,-32zM320,256c-35.346,0 -64,28.654 -64,64h-32c0,-53.019 42.981,-96 96,-96zM320,192c-70.692,0 -128,57.308 -128,128h-32c0,-88.365 71.634,-160 160,-160zM320,128c-106.039,0 -192,85.961 -192,192h-32c0,-123.712 100.288,-223.9998 224,-223.9998zM320,64.0002c-141.385,0 -256,114.6148 -256,255.9998h-32c0,-159.058 128.942,-287.9998 288,-287.9998zM0,320v-319.99983h320v0.0128c-176.667,0 -320,143.78903 -320,319.98703zM1920,288v32h-32c0,-17.673 14.33,-32 32,-32zM1920,256c-35.35,0 -64,28.654 -64,64h-32c0,-53.019 42.98,-96 96,-96zM1920,192c-70.69,0 -128,57.308 -128,128h-32c0,-88.365 71.63,-160 160,-160zM1920,128c-106.04,0 -192,85.961 -192,192h-32c0,-123.712 100.29,-223.9999 224,-223.9998zM1920,64.0002c-141.38,-0.0001 -256,114.6148 -256,255.9998h-32c0,-159.058 128.94,-287.9999 288,-287.9998zM1920,0.00022v0.0128c-176.67,-0.00003 -320,143.78898 -320,319.98698v-319.99983zM448,409.589c0,2.638 3.041,4.178 5.27,2.767c0.792,-0.502 1.594,-0.99 2.405,-1.464c13.138,-7.683 24.325,-20.229 24.325,-35.448l0,-55.444h32v55.444c0,15.219 11.187,27.765 24.325,35.448c0.811,0.474 1.613,0.962 2.405,1.464c2.229,1.411 5.27,-0.129 5.27,-2.767v-89.589h32l0,320h-32v-89.588c0,-2.638 -3.041,-4.178 -5.27,-2.767c-0.792,0.501 -1.594,0.989 -2.405,1.463c-13.138,7.683 -24.325,20.23 -24.325,35.449l0,55.443h-32v-55.443c0,-15.219 -11.187,-27.766 -24.325,-35.449c-0.811,-0.474 -1.613,-0.962 -2.405,-1.463c-2.229,-1.411 -5.27,0.129 -5.27,2.767l0,89.588h-32l0,-320h32zM384,320v320h-32v-320zM1216,960c0,-141.385 -114.62,-256 -256,-256v-32c159.06,0 288,128.942 288,288zM1279.99,960c0,-176.666 -143.79,-320 -319.99,-320h320v320zM1920,928v32h-320v-32zM1920,672v32l-320,0v-32zM1736.24,848.183c-10.23,-7.562 -21.13,-16.183 -33.85,-16.183h-102.39v-32h102.39c12.72,0 23.62,-8.621 33.85,-16.183c6.65,-4.912 14.86,-7.817 23.76,-7.817c8.9,0 17.11,2.905 23.76,7.817c10.23,7.562 21.13,16.183 33.85,16.183h102.39v32h-102.39c-12.72,0 -23.62,8.621 -33.85,16.183c-6.65,4.913 -14.86,7.817 -23.76,7.817c-8.9,0 -17.11,-2.904 -23.76,-7.817zM1920,864v32h-320v-32zM1920,736v32h-320v-32z" fill="#121212" fill-rule="nonzero"/><path d="M640,640v32h-41.165c-20.743,0 -40.493,-16 -61.235,-16c-20.742,0 -40.492,16 -61.235,16h-156.365v-32h-32c0,-17.673 14.327,-32 32,-32v-32c-35.346,0 -64,28.654 -64,64h-32c0,-53.019 42.981,-96 96,-96v-32c-70.692,0 -128,57.308 -128,128h-32c0,-88.365 71.634,-160 160,-160v-32c-106.039,0 -192,85.962 -192,192h-32c0,-123.712 100.288,-224 224,-224v-32c-141.385,0 -256,114.615 -256,256h-32c0,-159.058 128.942,-288 288,-288v-32h32v320h32v-320h32l0,320l32,0l0,-89.588c0,-2.638 3.041,-4.178 5.27,-2.767c0.792,0.501 1.594,0.989 2.405,1.463c13.138,7.683 24.325,20.23 24.325,35.449l0,55.443l32,0l0,-55.443c0,-15.219 11.187,-27.766 24.325,-35.449c0.811,-0.474 1.613,-0.962 2.405,-1.463c2.229,-1.411 5.27,0.129 5.27,2.767v89.588l32,0v-320h32l0,320zM598.835,704h41.165v32h-105.165c-20.742,0 -40.493,-16 -61.235,-16c-20.742,0 -40.492,16 -61.235,16h-92.365v-32h156.365c20.742,0 40.493,16 61.235,16c20.742,0 40.492,-16 61.235,-16zM534.835,768l105.165,0v32l-320,0v-32h92.365c20.742,0 40.493,16 61.235,16c20.742,0 40.492,-16 61.235,-16zM320,928v-32h320v32zM320,864v-32l320,0v32zM1280,320v-32l320,0v32zM1600,0v0.00017l-320,-0.00004v0.00004c0,176.19883 -143.33,319.98683 -320,319.98683v-31.987c159.06,0 288,-128.942 288,-287.99979l-32,0c0,141.3848 -114.62,255.9998 -256,255.9998v-32c123.71,0 224,-100.288 224,-223.99979l-32,0c0,106.03879 -85.96,191.99979 -192,191.99979v-32c88.37,0 160,-71.6343 160,-159.99981l-32,0c0,70.69242 -57.31,127.99982 -128,127.99982v-31.9998c53.02,0 96,-42.9807 96,-96.00003l-32,0c0,35.34623 -28.654,64.00003 -64,64.00003v-32c17.673,0 32,-14.3269 32,-32.00003l-32,0v-0.00017zM1510.41,192c-2.64,0 -4.18,-3.041 -2.77,-5.27c0.51,-0.792 0.99,-1.594 1.47,-2.405c7.68,-13.137 20.23,-24.325 35.45,-24.325h55.44v32zM1544.56,128c-15.22,0 -27.77,-11.187 -35.45,-24.325c-0.48,-0.811 -0.96,-1.613 -1.47,-2.405c-1.41,-2.2288 0.13,-5.2698 2.77,-5.2698l89.59,0v31.9998zM1369.59,96.0002c2.64,0 4.18,3.0409 2.77,5.2698c-0.51,0.792 -0.99,1.594 -1.47,2.405c-7.68,13.138 -20.23,24.325 -35.45,24.325h-55.44v-31.9998zM1335.44,160c15.22,0 27.77,11.188 35.45,24.325c0.48,0.811 0.96,1.613 1.47,2.405c1.41,2.229 -0.13,5.27 -2.77,5.27l-89.59,0v-32zM1280,256v-32l320,0v32zM1280,64.0002v-32.0001l320,0.0001v32zM1600,608l320,0v64h-640v-64c17.67,0 32,14.327 32,32h32c0,-35.346 -28.65,-64 -64,-64v-32c53.02,0 96,42.981 96,96h32c0,-70.692 -57.31,-128 -128,-128v-32c88.37,0 160,71.635 160,160h32c0,-106.038 -85.96,-192 -192,-192v-32c123.71,0 224,100.288 224,224h32c0,-141.385 -114.62,-256 -256,-256v-32c159.06,0 288,128.942 288,288h32zM1760,424c-8.9,0 -17.11,2.905 -23.76,7.817c-10.23,7.562 -21.13,16.183 -33.85,16.183l-102.39,0v-32l320,0v32h-102.39c-12.72,0 -23.62,-8.621 -33.85,-16.183c-6.65,-4.912 -14.86,-7.817 -23.76,-7.817zM1702.39,480c12.72,0 23.62,8.621 33.85,16.183c6.65,4.913 14.86,7.817 23.76,7.817c8.9,0 17.11,-2.904 23.76,-7.817c10.23,-7.562 21.13,-16.183 33.85,-16.183l102.39,0v32h-320v-32zM1600,576v-32h320v32zM1600,384v-32h320v32zM640,640v-32h320v-32l-320,0v-32h320v-32h-320v-32l320,0v-32l-320,0v-32l320,0v-32h-320v-32h320v-32h32l0,320h-32c0,176.199 -143.333,319.987 -320,319.987v-31.987c159.058,0 288,-128.942 288,-288h-32c0,141.385 -114.615,256 -256,256v-32c123.712,0 224,-100.288 224,-224h-32c0,106.039 -85.961,192 -192,192v-32c88.366,0 160,-71.634 160,-160h-32c0,70.693 -57.308,128 -128,128v-32c53.019,0 96,-42.98 96,-96h-32c0,35.346 -28.654,64 -64,64v-32c17.673,0 32,-14.327 32,-32zM1120,422.389c0,12.719 -8.62,23.626 -16.18,33.853c-4.92,6.643 -7.82,14.862 -7.82,23.758c0,8.897 2.9,17.115 7.82,23.758c7.56,10.227 16.18,21.134 16.18,33.853v102.389h-32v-320h32zM1152,537.611c0,-12.719 8.62,-23.626 16.18,-33.853c4.92,-6.643 7.82,-14.861 7.82,-23.758c0,-8.896 -2.9,-17.115 -7.82,-23.758c-7.56,-10.227 -16.18,-21.134 -16.18,-33.853v-102.389h32v320h-32zM1248,640h-32v-320h32zM1056,640h-32v-320h32zM0,0h640v0.00017c0,176.19883 -143.333,319.98683 -320,319.98683v-31.987c159.058,0 288,-128.942 288,-287.99984l-32,0c0,141.38484 -114.615,255.99984 -256,255.99984v-32c123.712,0 224,-100.288 224,-223.99983l-32,0c0,106.03883 -85.961,191.99983 -192,191.99983v-32c88.366,0 160,-71.6343 160,-159.99984l-32,0c0,70.69244 -57.308,127.99984 -128,127.99984v-31.9998c53.019,0 96,-42.9807 96,-96.00004l-32,0c0,35.34624 -28.654,64.00004 -64,64.00004v-32c17.673,0 32,-14.3269 32,-32.00003l-32,0v0l-320,0zM320,0.01297v31.98723c-159.058,0 -288,128.9418 -288,287.9998h-32c0,-176.198 143.333,-319.98703 320,-319.98703zM320,64.0002v32c-123.712,0 -224,100.2878 -224,223.9998h-32c0,-141.385 114.615,-255.9998 256,-255.9998zM320,128v32c-88.366,0 -160,71.635 -160,160h-32c0,-106.039 85.961,-192 192,-192zM320,192v32c-53.019,0 -96,42.981 -96,96h-32c0,-70.692 57.308,-128 128,-128zM320,256v32c-17.673,0 -32,14.327 -32,32h-32c0,-35.346 28.654,-64 64,-64zM640,0.00017h32v41.16513c0,20.7424 -16,40.4924 -16,61.2347c0,20.743 16,40.493 16,61.235v156.365l-32,0zM928,320h-32l0,-319.99983h32zM864,320h-32l0,-319.99983h32zM800,320h-32v-92.365c0,-20.742 16,-40.492 16,-61.235c0,-20.742 -16,-40.492 -16,-61.235l0,-105.16483h32zM736,105.165c0,20.743 -16,40.493 -16,61.235c0,20.743 16,40.493 16,61.235v92.365h-32v-156.365c0,-20.742 16,-40.492 16,-61.235c0,-20.7423 -16,-40.4923 -16,-61.2347v-41.16513l32,0zM1920,0.00017v0.00006l-319.15353,-0.00006zM1888,320h-32c0,-35.346 28.65,-64 64,-64v32c-17.67,0 -32,14.327 -32,32zM1824,320h-32c0,-70.692 57.31,-128 128,-128v32c-53.02,0 -96,42.981 -96,96zM1760,320h-32c0,-106.039 85.96,-192 192,-192v32c-88.37,0 -160,71.635 -160,160zM1696,320h-32c0,-141.385 114.62,-255.9999 256,-255.9998v32c-123.71,-0.0001 -224,100.2878 -224,223.9998zM1632,320h-32c0,-176.198 143.33,-319.98701 320,-319.98698v31.98718c-159.06,-0.0001 -288,128.9418 -288,287.9998zM480,375.444c0,15.219 -11.187,27.765 -24.325,35.448c-0.811,0.474 -1.613,0.962 -2.405,1.464c-2.229,1.411 -5.27,-0.129 -5.27,-2.767v-89.589h32zM544,409.589c0,2.638 -3.041,4.178 -5.27,2.767c-0.792,-0.502 -1.594,-0.99 -2.405,-1.464c-13.138,-7.683 -24.325,-20.229 -24.325,-35.448v-55.444h32zM1369.59,768c2.64,0 4.18,3.041 2.77,5.27c-0.51,0.792 -0.99,1.594 -1.47,2.405c-7.68,13.138 -20.23,24.325 -35.45,24.325l-55.44,0v-32zM1335.44,832c15.22,0 27.77,11.188 35.45,24.325c0.48,0.811 0.96,1.613 1.47,2.405c1.41,2.229 -0.13,5.27 -2.77,5.27h-89.59v-32zM1510.41,864c-2.64,0 -4.18,-3.041 -2.77,-5.27c0.51,-0.792 0.99,-1.594 1.47,-2.405c7.68,-13.137 20.23,-24.325 35.45,-24.325h157.83c12.72,0 23.62,8.621 33.85,16.183c6.65,4.913 14.86,7.817 23.76,7.817c8.9,0 17.11,-2.904 23.76,-7.817c10.23,-7.562 21.13,-16.183 33.85,-16.183l102.39,0v32zM1544.56,800c-15.22,0 -27.77,-11.187 -35.45,-24.325c-0.48,-0.811 -0.96,-1.613 -1.47,-2.405c-1.41,-2.229 0.13,-5.27 2.77,-5.27l409.59,0v32h-102.39c-12.72,0 -23.62,-8.621 -33.85,-16.183c-6.65,-4.912 -14.86,-7.817 -23.76,-7.817c-8.9,0 -17.11,2.905 -23.76,7.817c-10.23,7.562 -21.13,16.183 -33.85,16.183zM1280,928v-32h640v32zM1280,736v-32h640v32zM1279.99,960h-31.99c0,-159.058 -128.94,-288 -288,-288v-32c176.2,0 319.99,143.334 319.99,320zM1216,960h-32c0,-123.712 -100.29,-224 -224,-224v-32c141.38,0 256,114.615 256,256zM1152,960h-32c0,-88.365 -71.63,-160 -160,-160v-32c106.04,0 192,85.961 192,192zM1088,960h-32c0,-53.019 -42.98,-96 -96,-96v-32c70.69,0 128,57.308 128,128zM1024,960h-32c0,-17.673 -14.327,-32 -32,-32v-32c35.346,0 64,28.654 64,64zM0,960l0,-320h32l0,320zM160,742.389c0,12.719 -8.621,23.626 -16.183,33.853c-4.913,6.643 -7.817,14.862 -7.817,23.758c0,8.897 2.904,17.115 7.817,23.758c7.562,10.227 16.183,21.134 16.183,33.853v102.389h-32v-320h32zM192,857.611c0,-12.719 8.621,-23.626 16.183,-33.853c4.913,-6.643 7.817,-14.861 7.817,-23.758c0,-8.896 -2.904,-17.115 -7.817,-23.758c-7.562,-10.227 -16.183,-21.134 -16.183,-33.853v-102.389h32v320h-32zM288,960h-32v-320h32zM96,960h-32v-320h32z" fill="#f3f3f3" fill-rule="nonzero"/><path d="M1600,192v32h-320v-32h89.59c2.64,0 4.18,-3.041 2.77,-5.27c-0.51,-0.792 -0.99,-1.594 -1.47,-2.405c-7.68,-13.137 -20.23,-24.325 -35.45,-24.325h-55.44v-32h55.44c15.22,0 27.77,-11.187 35.45,-24.325c0.48,-0.811 0.96,-1.613 1.47,-2.405c1.41,-2.2289 -0.13,-5.2698 -2.77,-5.2698h-89.59v-32h320v32h-89.59c-2.64,0 -4.18,3.041 -2.77,5.2698c0.51,0.792 0.99,1.594 1.47,2.405c7.68,13.138 20.23,24.325 35.45,24.325h55.44v32h-55.44c-15.22,0 -27.77,11.188 -35.45,24.325c-0.48,0.811 -0.96,1.613 -1.47,2.405c-1.41,2.229 0.13,5.27 2.77,5.27zM1280,32.0001v-31.99997l320,0.00004v32.00003zM1280,288v-32h320v32zM-0.00001,640l0.00001,-320c0,0 320,0 320,0v32c-159.058,0 -288,128.942 -288,288zM320,384v32c-123.712,0 -224,100.288 -224,224h-32c0,-141.385 114.615,-256 256,-256zM320,448v32c-88.366,0 -160,71.635 -160,160h-32c0,-106.038 85.961,-192 192,-192zM320,512v32c-53.019,0 -96,42.981 -96,96h-32c0,-70.692 57.308,-128 128,-128zM320,576v32c-17.673,0 -32,14.327 -32,32h-32c0,-35.346 28.654,-64 64,-64zM992,960h-32v-32c17.673,0 32,14.327 32,32zM1024,960c0,-35.346 -28.654,-64 -64,-64v-32c53.02,0 96,42.981 96,96zM1088,960c0,-70.692 -57.31,-128 -128,-128v-32c88.37,0 160,71.635 160,160zM1152,960c0,-106.039 -85.96,-192 -192,-192v-32c123.71,0 224,100.288 224,224z" fill="#ff4f00" fill-rule="evenodd"/><path d="M1600,352v-32h320v32zM1600,608v-32h320v32zM1783.76,431.817c10.23,7.562 21.13,16.183 33.85,16.183h102.39v32h-102.39c-12.72,0 -23.62,8.621 -33.85,16.183c-6.65,4.913 -14.86,7.817 -23.76,7.817c-8.9,0 -17.11,-2.904 -23.76,-7.817c-10.23,-7.562 -21.13,-16.183 -33.85,-16.183h-102.39v-32h102.39c12.72,0 23.62,-8.621 33.85,-16.183c6.65,-4.912 14.86,-7.817 23.76,-7.817c8.9,0 17.11,2.905 23.76,7.817zM1600,416v-32h320v32zM1600,544v-32h320v32zM1248,640v-320h32v320zM1024,640h-32l0,-320h32zM1168.18,503.758c-7.56,10.227 -16.18,21.134 -16.18,33.853v102.389h-32v-102.389c0,-12.719 -8.62,-23.626 -16.18,-33.853c-4.92,-6.643 -7.82,-14.861 -7.82,-23.758c0,-8.896 2.9,-17.115 7.82,-23.758c7.56,-10.227 16.18,-21.134 16.18,-33.853v-102.389h32v102.389c0,12.719 8.62,23.626 16.18,33.853c4.92,6.643 7.82,14.862 7.82,23.758c0,8.897 -2.9,17.115 -7.82,23.758zM1216,640h-32v-320h32zM1088,640h-32v-320h32zM352,0.00017c0,17.67313 -14.327,32.00003 -32,32.00003v-32.00003zM384,0.00016l32,0c0,53.01934 -42.981,96.00004 -96,96.00004v-32c35.346,0 64,-28.6538 64,-64.00004zM448,0.00016l32,0c0,88.36554 -71.634,159.99984 -160,159.99984v-32c70.692,0 128,-57.3074 128,-127.99984zM512,0.00017l32,0c0,123.71183 -100.288,223.99983 -224,223.99983v-32c106.039,0 192,-85.961 192,-191.99983zM576,0.00016l32,0c0,159.05784 -128.942,287.99984 -288,287.99984v-32c141.385,0 256,-114.615 256,-255.99984zM640,0.00017v319.99983h-320v-0.013c176.667,0 320,-143.788 320,-319.98683zM640,672v-32h32c0,17.673 -14.327,32 -32,32zM640,704c35.346,0 64,-28.654 64,-64h32c0,53.02 -42.981,96 -96,96zM640,768c70.692,0 128,-57.307 128,-128h32c0,88.366 -71.634,160 -160,160zM640,832c106.039,0 192,-85.961 192,-192h32c0,123.712 -100.288,224 -224,224zM640,896c141.385,0 256,-114.615 256,-256h32c0,159.058 -128.942,288 -288,288zM960,640v320h-320v-0.013c176.667,0 320,-143.788 320,-319.987z" fill="#ffa300" fill-rule="nonzero"/><path d="M960,32.0002v-32.00003l32,0c0,17.67313 -14.327,32.00003 -32,32.00003zM960,64.0002c35.346,0 64,-28.6538 64,-64.00003l32,0c0,53.01933 -42.98,96.00003 -96,96.00003zM960,128c70.69,0 128,-57.3074 128,-127.99982l32,0c0,88.36551 -71.63,159.99981 -160,159.99981zM960,192c106.04,0 192,-85.961 192,-191.99979l32,0c0,123.71179 -100.29,223.99979 -224,223.99979zM960,256c141.38,0 256,-114.615 256,-255.9998l32,0c0,159.05779 -128.94,287.99979 -288,287.99979zM960,320v-0.013c176.67,0 320,-143.788 320,-319.98683v319.99983zM1280,768v-32h320v32h-89.59c-2.64,0 -4.18,3.041 -2.77,5.27c0.51,0.792 0.99,1.594 1.47,2.405c7.68,13.138 20.23,24.325 35.45,24.325h55.44v32h-55.44c-15.22,0 -27.77,11.188 -35.45,24.325c-0.48,0.811 -0.96,1.613 -1.47,2.405c-1.41,2.229 0.13,5.27 2.77,5.27h89.59v32h-320v-32h89.59c2.64,0 4.18,-3.041 2.77,-5.27c-0.51,-0.792 -0.99,-1.594 -1.47,-2.405c-7.68,-13.137 -20.23,-24.325 -35.45,-24.325h-55.44v-32h55.44c15.22,0 27.77,-11.187 35.45,-24.325c0.48,-0.811 0.96,-1.613 1.47,-2.405c1.41,-2.229 -0.13,-5.27 -2.77,-5.27zM1600,928v32h-320v-32zM1600,672v32h-320v-32zM288,960v-320h32v320zM64,960h-32l0,-320h32zM208.183,823.758c-7.562,10.227 -16.183,21.134 -16.183,33.853v102.389h-32v-102.389c0,-12.719 -8.621,-23.626 -16.183,-33.853c-4.913,-6.643 -7.817,-14.861 -7.817,-23.758c0,-8.896 2.904,-17.115 7.817,-23.758c7.562,-10.227 16.183,-21.134 16.183,-33.853v-102.389h32v102.389c0,12.719 8.621,23.626 16.183,33.853c4.913,6.643 7.817,14.862 7.817,23.758c0,8.897 -2.904,17.115 -7.817,23.758zM256,960h-32v-320h32zM128,960h-32v-320h32z" fill="#4997d0" fill-rule="evenodd"/></g></svg>