<svg xmlns="http://www.w3.org/2000/svg" width="1920" height="960" viewBox="0 0 1920 960"><g xmlns="http://www.w3.org/2000/svg" fill="#121212" fill-rule="nonzero" stroke="none" stroke-width="1" stroke-linecap="butt" stroke-linejoin="miter" stroke-miterlimit="10" stroke-dasharray="" stroke-dashoffset="0" font-family="none" font-weight="none" font-size="none" text-anchor="none" style="mix-blend-mode: normal"><path d="M1280.04,0v0.00001h319.81515c-176.59506,0.04998 -319.75517,143.33163 -319.81515,319.99999v-0.18485c-0.04998,-176.59507 -143.33164,-319.76516 -320,-319.81515zM960.23485,640c176.59507,-0.04998 319.76516,-143.33164 319.81515,-320v0.18485c0.04998,176.59507 143.33164,319.76516 320,319.81515zM960.05,640h0.18485c-0.06161,0.00002 -0.12323,0.00002 -0.18485,0zM320,640h-0.03c-6.61,0 -13.17,0.22 -19.68,0.62l-140.28,-0.04c0,-0.19 0,-0.39 0,-0.58h-0.01c0,0.19 0,0.39 0,0.58l140.28,0.04c-167.47,10.18 -300.1802,149.29 -300.2302,319.38c0,-0.21 0,-319.79 0,-320h-0.0498v-320h320zM1600.04,0.00001l-0.18485,0c0.06161,-0.00002 0.12323,-0.00002 0.18485,0zM640.04,959.81515c-0.04998,-176.59507 -143.33164,-319.76516 -320,-319.81515h320zM640.04,960l0,-0.18485c0.00002,0.06161 0.00002,0.12323 0,0.18485zM1600.04,160.05l159.96,-0.04l0.04,159.99h160v320c-176.73,-0.05 -320.05,-143.32 -320,-320h158.13681c-87.48179,-0.96921 -158.10702,-72.20211 -158.13681,-159.95zM1760.08,160l-0.04,-159.96l160,-0.04c0.03,88.34 -71.59,159.97 -159.96,160zM1920.04,640v320h-320c0.05,-176.73 143.32,-320.05 320,-320zM1120.04,799.96l0.04,-159.96c88.35149,0.02999 159.96,71.63 159.96001,159.94449c0.02999,-88.34049 71.64849,-159.94449 159.99999,-159.94449c88.37,0 160,71.634 160,160c0,88.366 -71.63,160 -160,160c-88.37,0 -160,-71.634 -160,-160zM960.04,960l0.04,-160l159.96,0.04c-0.03,88.37 -71.66,159.99 -160,159.96zM640.04,320v319.81515c-0.04998,-176.59507 -143.33164,-319.76516 -320,-319.81515zM640.04,640l0,-0.18485c0.00002,0.06161 0.00002,0.12323 0,0.18485zM320.04,0h320v320c-176.73,-0.05 -320.05,-143.32 -320,-320zM960.04,0.00001v319.99999h-320c0.05,-176.73 143.32,-320.04999 320,-319.99999zM960.04,959.69h-0.09l0.04,-159.37c-88.14,-0.03 -159.65,71.27 -159.99,159.37h-159.95c0.17,-88.12 35.94,-167.88 93.72,-225.65c57.91,-57.92 137.91,-93.73 226.27,-93.73z"/></g></svg>