<svg xmlns="http://www.w3.org/2000/svg" width="1920" height="960" viewBox="0 0 1920 960"><g xmlns="http://www.w3.org/2000/svg" fill="none" fill-rule="nonzero" stroke="none" stroke-width="1" stroke-linecap="butt" stroke-linejoin="miter" stroke-miterlimit="10" stroke-dasharray="" stroke-dashoffset="0" font-family="none" font-weight="none" font-size="none" text-anchor="none" style="mix-blend-mode: normal"><path d="M1920,960h-156.34807l-2.44411,-8.36753l-5.85782,-14.19847l-3.88774,-9.00053l-3.1794,-9.11166l-2.48407,-9.19139l-1.80175,-9.23973l-1.13245,-9.25668l-0.47615,-9.24223l0.16713,-9.19639l0.7974,-9.11915l1.41465,-9.01052l2.0189,-8.8705l2.61013,-8.69908l3.18835,-8.49628l3.75356,-8.26207l4.30576,-7.99648l4.84494,-7.69948l5.37111,-7.3711l5.88427,-7.01132l6.38442,-6.62015l6.87155,-6.19759l7.34568,-5.74363l7.80679,-5.25828l8.25489,-4.74153l8.68998,-4.19339l9.11205,-3.61386l6.72261,-2.57664l6.45783,-2.84596l6.19306,-3.10448l5.92831,-3.35218l5.66357,-3.58907l5.39884,-3.81515l5.13413,-4.03042l4.86943,-4.23487l4.60474,-4.42852l4.34007,-4.61136l4.07541,-4.78338l3.81076,-4.94459l3.54612,-5.09499l3.2815,-5.23458l3.01689,-5.36336l2.75229,-5.48133l2.48771,-5.58848l2.22314,-5.68483l1.95858,-5.77036l1.69404,-5.84509l1.42951,-5.909l1.16499,-5.9621l0.90048,-6.00439l0.63599,-6.03586l-0.63599,-6.03586l-0.90048,-6.00439l-1.16499,-5.9621l-1.42951,-5.909l-1.69404,-5.84509l-1.95858,-5.77036l-2.22314,-5.68483l-2.48771,-5.58848l-2.75229,-5.48133l-3.01689,-5.36336l-3.2815,-5.23458l-3.54612,-5.09499l-3.81076,-4.94459l-4.07541,-4.78338l-4.34007,-4.61136l-4.60474,-4.42852l-4.86943,-4.23487l-5.13413,-4.03042l-5.39884,-3.81515l-5.66357,-3.58907l-5.92831,-3.35218l-6.19306,-3.10448l-6.45783,-2.84596l-6.72261,-2.57664l-9.11205,-3.61386l-8.68998,-4.19339l-8.25489,-4.74153l-7.80679,-5.25828l-7.34568,-5.74363l-6.87155,-6.19759l-6.38442,-6.62015l-5.88427,-7.01132l-5.37111,-7.3711l-4.84494,-7.69949l-4.30576,-7.99648l-3.75356,-8.26207l-3.18835,-8.49628l-2.61013,-8.69909l-2.0189,-8.8705l-1.41465,-9.01052l-0.7974,-9.11915l-0.16713,-9.19639l0.47615,-9.24223l1.13245,-9.25667l1.80175,-9.23973l2.48407,-9.19139l3.1794,-9.11165l3.88774,-9.00053l5.85782,-14.19822l2.44422,-8.36778l-2.44422,-8.36778l-5.85782,-14.19822l-3.88774,-9.00053l-3.1794,-9.11165l-2.48407,-9.19139l-1.80175,-9.23973l-1.13245,-9.25667l-0.47615,-9.24223l0.16713,-9.19639l0.7974,-9.11915l1.41465,-9.01052l2.0189,-8.8705l2.61013,-8.69908l3.18835,-8.49628l3.75356,-8.26207l4.30576,-7.99648l4.84494,-7.69949l5.37111,-7.3711l5.88427,-7.01132l6.38442,-6.62015l6.87155,-6.19759l7.34568,-5.74363l7.80679,-5.25828l8.25489,-4.74153l8.68998,-4.19339l9.11205,-3.61386l6.72261,-2.57664l6.45783,-2.84597l6.19306,-3.10448l5.92831,-3.35218l5.66357,-3.58907l5.39884,-3.81515l5.13413,-4.03042l4.86943,-4.23488l4.60474,-4.42852l4.34007,-4.61136l4.07541,-4.78338l3.81076,-4.94459l3.54612,-5.09499l3.2815,-5.23458l3.01689,-5.36336l2.75229,-5.48133l2.48771,-5.58848l2.22314,-5.68483l1.95858,-5.77036l1.69404,-5.84509l1.42951,-5.909l1.16499,-5.9621l0.90048,-6.00439l0.63599,-6.03586h0.5zM1.13537,326.03587l0.90063,6.00439l1.16507,5.9621l1.42954,5.909l1.69403,5.84509l1.95854,5.77036l2.22307,5.68483l2.48763,5.58848l2.75221,5.48133l3.01681,5.36336l3.28143,5.23458l3.54607,5.09499l3.81074,4.94459l4.07543,4.78338l4.34014,4.61136l4.60487,4.42852l4.86963,4.23487l5.13441,4.03042l5.39921,3.81515l5.66403,3.58907l5.92887,3.35218l6.19374,3.10448l6.45863,2.84596l6.72354,2.57664l9.11172,3.61386l8.68964,4.19339l8.25456,4.74153l7.80645,5.25828l7.34534,5.74363l6.87122,6.19759l6.38408,6.62015l5.88393,7.01132l5.37077,7.3711l4.8446,7.69949l4.30542,7.99648l3.75323,8.26207l3.18802,8.49628l2.6098,8.69908l2.01858,8.8705l1.41434,9.01052l0.79709,9.11915l0.16682,9.19639l-0.47645,9.24223l-1.13278,9.25668l-1.802,9.23973l-2.48434,9.19139l-3.17966,9.11166l-3.888,9.00053l-5.85766,14.19822l-2.4441,8.36778l2.4441,8.36778l5.85766,14.19822l3.888,9.00053l3.17966,9.11166l2.48434,9.19139l1.802,9.23973l1.13278,9.25668l0.47645,9.24223l-0.16682,9.19639l-0.79709,9.11915l-1.41434,9.01052l-2.01858,8.8705l-2.6098,8.69908l-3.18802,8.49628l-3.75323,8.26207l-4.30542,7.99648l-4.8446,7.69948l-5.37077,7.3711l-5.88393,7.01132l-6.38408,6.62015l-6.87122,6.19759l-7.34534,5.74363l-7.80645,5.25828l-8.25456,4.74153l-8.68964,4.19339l-9.11172,3.61386l-6.72354,2.57664l-6.45863,2.84596l-6.19374,3.10448l-5.92887,3.35218l-5.66403,3.58907l-5.39921,3.81515l-5.13441,4.03042l-4.86963,4.23487l-4.60487,4.42852l-4.34014,4.61136l-4.07543,4.78338l-3.81074,4.94459l-3.54607,5.09499l-3.28143,5.23458l-3.01681,5.36336l-2.75221,5.48133l-2.48763,5.58848l-2.22307,5.68483l-1.95854,5.77036l-1.69403,5.84509l-1.42954,5.909l-1.16507,5.9621l-0.90063,6.00439l-0.63621,6.03586h-0.49916v-960h156.34416l2.44417,8.36809l5.85766,14.19831l3.888,9.00043l3.17966,9.11157l2.48434,9.19132l1.802,9.23967l1.13278,9.25662l0.47645,9.24219l-0.16682,9.19635l-0.79709,9.11912l-1.41434,9.0105l-2.01858,8.87049l-2.6098,8.69908l-3.18802,8.49625l-3.75323,8.2621l-4.30542,7.99648l-4.8446,7.69949l-5.37077,7.37111l-5.88393,7.01134l-6.38408,6.62016l-6.87122,6.1976l-7.34534,5.74364l-7.80645,5.25829l-8.25456,4.74154l-8.68964,4.1934l-9.11172,3.61386l-6.72354,2.57664l-6.45863,2.84597l-6.19374,3.10448l-5.92887,3.35218l-5.66403,3.58907l-5.39921,3.81515l-5.13441,4.03042l-4.86963,4.23487l-4.60487,4.42852l-4.34014,4.61136l-4.07543,4.78338l-3.81074,4.94459l-3.54607,5.09499l-3.28143,5.23458l-3.01681,5.36336l-2.75221,5.48133l-2.48763,5.58848l-2.22307,5.68483l-1.95854,5.77036l-1.69403,5.84509l-1.42954,5.909l-1.16507,5.9621l-0.90063,6.00439l-0.63621,6.03587z" fill="#f3f3f3"/><path d="M1761.20782,328.36778l-5.85782,14.19822l-3.88774,9.00053l-3.1794,9.11165l-2.48407,9.19139l-1.80175,9.23973l-1.13245,9.25667l-0.47615,9.24223l0.16713,9.19639l0.7974,9.11915l1.41465,9.01052l2.0189,8.8705l2.61013,8.69909l3.18835,8.49628l3.75356,8.26207l4.30576,7.99648l4.84494,7.69949l5.37111,7.3711l5.88427,7.01132l6.38442,6.62015l6.87155,6.19759l7.34568,5.74363l7.80679,5.25828l8.25489,4.74153l8.68998,4.19339l9.11205,3.61386l6.72261,2.57664l6.45783,2.84596l6.19306,3.10448l5.92831,3.35218l5.66357,3.58907l5.39884,3.81515l5.13413,4.03042l4.86943,4.23487l4.60474,4.42852l4.34007,4.61136l4.07541,4.78338l3.81076,4.94459l3.54612,5.09499l3.2815,5.23458l3.01689,5.36336l2.75229,5.48133l2.48771,5.58848l2.22314,5.68483l1.95858,5.77036l1.69404,5.84509l1.42951,5.909l1.16499,5.9621l0.90048,6.00439l0.63599,6.03586l-0.63599,6.03586l-0.90048,6.00439l-1.16499,5.9621l-1.42951,5.909l-1.69404,5.84509l-1.95858,5.77036l-2.22314,5.68483l-2.48771,5.58848l-2.75229,5.48133l-3.01689,5.36336l-3.2815,5.23458l-3.54612,5.09499l-3.81076,4.94459l-4.07541,4.78338l-4.34007,4.61136l-4.60474,4.42852l-4.86943,4.23487l-5.13413,4.03042l-5.39884,3.81515l-5.66357,3.58907l-5.92831,3.35218l-6.19306,3.10448l-6.45783,2.84596l-6.72261,2.57664l-9.11205,3.61386l-8.68998,4.19339l-8.25489,4.74153l-7.80679,5.25828l-7.34568,5.74363l-6.87155,6.19759l-6.38442,6.62015l-5.88427,7.01132l-5.37111,7.3711l-4.84494,7.69948l-4.30576,7.99648l-3.75356,8.26207l-3.18835,8.49628l-2.61013,8.69908l-2.0189,8.8705l-1.41465,9.01052l-0.7974,9.11915l-0.16713,9.19639l0.47615,9.24223l1.13245,9.25668l1.80175,9.23973l2.48407,9.19139l3.1794,9.11166l3.88774,9.00053l5.85782,14.19847l2.44411,8.36753h-363.77193c106.8,0 160.29,-129.128 84.77,-204.648c-75.52,-75.52 -204.65,-22.033 -204.65,84.768v119.88h-520.12c106.801,0 160.288,-129.128 84.768,-204.648c-75.52,-75.52 -204.648,-22.033 -204.648,84.768v119.88h-200.12c106.801,0 160.288,-129.128 84.768,-204.648c-75.52,-75.52 -204.648,-22.033 -204.648,84.768v119.88h-319.50084l0.63621,-6.03586l0.90063,-6.00439l1.16507,-5.9621l1.42954,-5.909l1.69403,-5.84509l1.95854,-5.77036l2.22307,-5.68483l2.48763,-5.58848l2.75221,-5.48133l3.01681,-5.36336l3.28143,-5.23458l3.54607,-5.09499l3.81074,-4.94459l4.07543,-4.78338l4.34014,-4.61136l4.60487,-4.42852l4.86963,-4.23487l5.13441,-4.03042l5.39921,-3.81515l5.66403,-3.58907l5.92887,-3.35218l6.19374,-3.10448l6.45863,-2.84596l6.72354,-2.57664l9.11172,-3.61386l8.68964,-4.19339l8.25456,-4.74153l7.80645,-5.25828l7.34534,-5.74363l6.87122,-6.19759l6.38408,-6.62015l5.88393,-7.01132l5.37077,-7.3711l4.8446,-7.69948l4.30542,-7.99648l3.75323,-8.26207l3.18802,-8.49628l2.6098,-8.69908l2.01858,-8.8705l1.41434,-9.01052l0.79709,-9.11915l0.16682,-9.19639l-0.47645,-9.24223l-1.13278,-9.25668l-1.802,-9.23973l-2.48434,-9.19139l-3.17966,-9.11166l-3.888,-9.00053l-5.85766,-14.19822l-2.4441,-8.36778l2.4441,-8.36778l5.85766,-14.19822l3.888,-9.00053l3.17966,-9.11166l2.48434,-9.19139l1.802,-9.23973l1.13278,-9.25668l0.47645,-9.24223l-0.16682,-9.19639l-0.79709,-9.11915l-1.41434,-9.01052l-2.01858,-8.8705l-2.6098,-8.69908l-3.18802,-8.49628l-3.75323,-8.26207l-4.30542,-7.99648l-4.8446,-7.69949l-5.37077,-7.3711l-5.88393,-7.01132l-6.38408,-6.62015l-6.87122,-6.19759l-7.34534,-5.74363l-7.80645,-5.25828l-8.25456,-4.74153l-8.68964,-4.19339l-9.11172,-3.61386l-6.72354,-2.57664l-6.45863,-2.84596l-6.19374,-3.10448l-5.92887,-3.35218l-5.66403,-3.58907l-5.39921,-3.81515l-5.13441,-4.03042l-4.86963,-4.23487l-4.60487,-4.42852l-4.34014,-4.61136l-4.07543,-4.78338l-3.81074,-4.94459l-3.54607,-5.09499l-3.28143,-5.23458l-3.01681,-5.36336l-2.75221,-5.48133l-2.48763,-5.58848l-2.22307,-5.68483l-1.95854,-5.77036l-1.69403,-5.84509l-1.42954,-5.909l-1.16507,-5.9621l-0.90063,-6.00439l-0.63621,-6.03587l0.63621,-6.03587l0.90063,-6.00439l1.16507,-5.9621l1.42954,-5.909l1.69403,-5.84509l1.95854,-5.77036l2.22307,-5.68483l2.48763,-5.58848l2.75221,-5.48133l3.01681,-5.36336l3.28143,-5.23458l3.54607,-5.09499l3.81074,-4.94459l4.07543,-4.78338l4.34014,-4.61136l4.60487,-4.42852l4.86963,-4.23487l5.13441,-4.03042l5.39921,-3.81515l5.66403,-3.58907l5.92887,-3.35218l6.19374,-3.10448l6.45863,-2.84597l6.72354,-2.57664l9.11172,-3.61386l8.68964,-4.1934l8.25456,-4.74154l7.80645,-5.25829l7.34534,-5.74364l6.87122,-6.1976l6.38408,-6.62016l5.88393,-7.01134l5.37077,-7.37111l4.8446,-7.69949l4.30542,-7.99648l3.75323,-8.2621l3.18802,-8.49625l2.6098,-8.69908l2.01858,-8.87049l1.41434,-9.0105l0.79709,-9.11912l0.16682,-9.19635l-0.47645,-9.24219l-1.13278,-9.25662l-1.802,-9.23967l-2.48434,-9.19132l-3.17966,-9.11157l-3.888,-9.00043l-5.85766,-14.19831l-2.44417,-8.36809h363.77584c-106.801,0 -160.288,129.128 -84.768,204.648c75.52,75.52 204.648,22.033 204.648,-84.768v-119.88h520.12c-106.8,0 -160.288,129.128 -84.77,204.648c75.52,75.52 204.65,22.033 204.65,-84.768v-119.88h639.5l-0.63599,6.03587l-0.90048,6.00439l-1.16499,5.9621l-1.42951,5.909l-1.69404,5.84509l-1.95858,5.77036l-2.22314,5.68483l-2.48771,5.58848l-2.75229,5.48133l-3.01689,5.36336l-3.2815,5.23458l-3.54612,5.09499l-3.81076,4.94459l-4.07541,4.78338l-4.34007,4.61136l-4.60474,4.42852l-4.86943,4.23488l-5.13413,4.03042l-5.39884,3.81515l-5.66357,3.58907l-5.92831,3.35218l-6.19306,3.10448l-6.45783,2.84597l-6.72261,2.57664l-9.11205,3.61386l-8.68998,4.19339l-8.25489,4.74153l-7.80679,5.25828l-7.34568,5.74363l-6.87155,6.19759l-6.38442,6.62015l-5.88427,7.01132l-5.37111,7.3711l-4.84494,7.69949l-4.30576,7.99648l-3.75356,8.26207l-3.18835,8.49628l-2.61013,8.69908l-2.0189,8.8705l-1.41465,9.01052l-0.7974,9.11915l-0.16713,9.19639l0.47615,9.24223l1.13245,9.25667l1.80175,9.23973l2.48407,9.19139l3.1794,9.11165l3.88774,9.00053l5.85782,14.19822l2.44422,8.36778zM640,439.88c0,106.801 129.128,160.288 204.648,84.768c75.52,-75.52 22.033,-204.648 -84.768,-204.648l-119.88,0zM960,320v-119.88c0,-106.8013 -129.128,-160.2878 -204.648,-84.768c-75.52,75.52 -22.033,204.648 84.768,204.648zM1280,320h119.88c106.8,0 160.29,-129.128 84.77,-204.648c-75.52,-75.5198 -204.65,-22.0333 -204.65,84.768zM1395.35,524.648c75.52,75.52 204.65,22.033 204.65,-84.768v-119.88l-119.88,0c-106.8,0 -160.29,129.128 -84.77,204.648zM1164.65,844.648c75.52,-75.52 22.03,-204.648 -84.77,-204.648h-119.88v119.88c0,106.801 129.13,160.288 204.65,84.768zM640,520.12c0,-106.801 -129.128,-160.288 -204.648,-84.768c-75.52,75.52 -22.033,204.648 84.768,204.648h119.88zM1280,520.12c0,-106.801 -129.13,-160.288 -204.65,-84.768c-75.518,75.52 -22.03,204.648 84.77,204.648h119.88z" fill="#121212"/><path d="M640,640h-119.88c-106.801,0 -160.288,-129.128 -84.768,-204.648c75.52,-75.52 204.648,-22.033 204.648,84.768zM1484.65,755.352c75.52,75.52 22.03,204.648 -84.77,204.648h-119.88v-119.88c0,-106.801 129.13,-160.288 204.65,-84.768zM1484.65,115.352c75.52,75.52 22.03,204.648 -84.77,204.648h-119.88v-119.88c0,-106.8013 129.13,-160.2878 204.65,-84.768z" fill="#ffa300"/><path d="M320,840.12c0,-106.801 129.128,-160.288 204.648,-84.768c75.52,75.52 22.033,204.648 -84.768,204.648h-119.88zM1280,640h-119.88c-106.8,0 -160.288,-129.128 -84.77,-204.648c75.52,-75.52 204.65,-22.033 204.65,84.768zM759.88,320c106.801,0 160.288,129.128 84.768,204.648c-75.52,75.52 -204.648,22.033 -204.648,-84.768v-119.88zM755.352,115.352c75.52,-75.5198 204.648,-22.0333 204.648,84.768v119.88l-119.88,0c-106.801,0 -160.288,-129.128 -84.768,-204.648z" fill="#4997d0"/><path d="M640,119.88c0,106.801 -129.128,160.288 -204.648,84.768c-75.52,-75.52 -22.033,-204.648 84.768,-204.648h119.88zM1395.35,524.648c-75.52,-75.52 -22.03,-204.648 84.77,-204.648l119.88,0v119.88c0,106.801 -129.13,160.288 -204.65,84.768zM1164.65,844.648c-75.52,75.52 -204.65,22.033 -204.65,-84.768v-119.88h119.88c106.8,0 160.29,129.128 84.77,204.648zM1280,119.88c0,106.801 -129.13,160.288 -204.65,84.768c-75.518,-75.52 -22.03,-204.648 84.77,-204.648h119.88zM844.648,755.352c75.52,75.52 22.033,204.648 -84.768,204.648h-119.88v-119.88c0,-106.801 129.128,-160.288 204.648,-84.768z" fill="#ff4f00"/></g></svg>