<svg xmlns="http://www.w3.org/2000/svg" width="1920" height="960" viewBox="0 0 1920 960"><g xmlns="http://www.w3.org/2000/svg" fill="none" fill-rule="nonzero" stroke="none" stroke-width="1" stroke-linecap="butt" stroke-linejoin="miter" stroke-miterlimit="10" stroke-dasharray="" stroke-dashoffset="0" font-family="none" font-weight="none" font-size="none" text-anchor="none" style="mix-blend-mode: normal"><path d="M319.99999,640c-176.73,0 -319.99998,-143.27 -319.99995,-320l-0.00004,320v-640l0.00001,320c-0.00001,-176.69812 143.21831,-319.94832 319.90436,-320l0.19126,0c176.68605,0.05168 319.90437,143.30188 319.90437,320h119.88c106.801,0 160.288,129.128 84.768,204.648c-75.52,75.52 -204.648,22.033 -204.648,-84.768l0,200.12c-0.00002,0.06285 -0.00002,0.1257 0,0.18855l0,319.81145h-320v-80h-320.00001l-0.00002,-160h400.00003l0,-80zM80,320c0,132.548 107.452,240 240,240c132.548,0 240,-107.452 240,-240c0,0 0,-0.00001 0,-0.00001c0,-132.548 -107.452,-239.99999 -240,-239.99999c-132.548,0 -240,107.452 -240,240zM1599.90437,0l0.19126,0c176.68605,0.05168 319.90437,143.30188 319.90437,320c0,176.73 -143.27,320 -320,320h-80v80h400v160l-320,0v80h-320v-520.12c0,106.801 -129.13,160.288 -204.65,84.768c-75.518,-75.52 -22.03,-204.648 84.77,-204.648h119.88c0,-176.69812 143.21832,-319.94832 319.90437,-320zM1600,80c-132.55,0 -240,107.45201 -240,240.00001c0,132.548 107.45,239.99999 240,239.99999c132.55,0 240,-107.452 240,-240c0,-132.548 -107.45,-240 -240,-240z" fill="#ff4f00"/><path d="M320,440c-66.274,0 -120,-53.726 -120,-120c0,-66.274 53.726,-120 120,-120c66.274,0 120,53.726 120,120c0,66.274 -53.726,120 -120,120zM0.00004,320c-0.00002,176.73 143.26995,320 319.99995,320h80.00001v80h-400v-80zM1280,320v-0.18485c-0.04997,-176.58076 -143.30842,-319.74079 -319.95706,-319.81515h319.95706l320,-0.00001c-176.73,0.00001 -320,143.27001 -320,320.00001zM1600,200c66.27,0 120,53.726 120,120c0,66.274 -53.73,120 -120,120c-66.27,0 -120,-53.726 -120,-120c0,-66.274 53.73,-120 120,-120zM1920,0v320c0,-176.73 -143.27,-320 -319.99999,-320.00001zM0.00001,320l-0.00001,-320l320,-0.00001c-176.73,0.00001 -319.99999,143.27001 -319.99999,320.00001zM1920,320v400h-400v-80h80c176.73,0 320,-143.27 320,-320zM320.00001,-0.00001l319.99999,0.00001l319.77084,0c-176.57471,0.07273 -319.71986,143.34641 -319.77084,320c0,-176.73 -143.27,-320 -319.99999,-320.00001zM1600,960v-80l320,0v80zM640,960l0,-319.81145c0.05098,176.59337 143.33287,319.76047 320,319.81145zM960.18855,960c176.59337,-0.05098 319.76147,-143.33287 319.81145,-320v320zM0,960l0,-80h320v80z" fill="#121212"/><path d="M320,560c-132.548,0 -240,-107.452 -240,-240c0,-132.548 107.452,-240 240,-240c132.548,0 240,107.452 240,240c0,132.548 -107.452,240 -240,240zM200,320c0,66.274 53.726,120 120,120c66.274,0 120,-53.726 120,-120c0,-66.274 -53.726,-120 -120,-120c-66.274,0 -120,53.726 -120,120zM1600,80c132.55,0 240,107.452 240,240c0,132.548 -107.45,240 -240,240c-132.55,0 -240,-107.452 -240,-240c0,-132.548 107.45,-240 240,-240zM1600,200c-66.27,0 -120,53.726 -120,120c0,66.274 53.73,120 120,120c66.27,0 120,-53.726 120,-120c0,-66.274 -53.73,-120 -120,-120z" fill="#f3f3f3"/></g></svg>