<svg xmlns="http://www.w3.org/2000/svg" width="1920" height="960" viewBox="0 0 1920 960"><g xmlns="http://www.w3.org/2000/svg" fill="none" fill-rule="nonzero" stroke="none" stroke-width="1" stroke-linecap="butt" stroke-linejoin="miter" stroke-miterlimit="10" stroke-dasharray="" stroke-dashoffset="0" font-family="none" font-weight="none" font-size="none" text-anchor="none" style="mix-blend-mode: normal"><path d="M1599.99999,960l-319.99999,0l-0.00001,0c-176.73,0 -319.99999,-143.27 -319.99999,-320v-320h-320v320c0,176.73 -143.27,320 -320,320v-160c0,88.366 -71.634,160 -160,160c-88.3655,0 -160,-71.634 -160,-160h0v-480c176.73,0 320,143.27 320,319.99999v-319.99999c0,-176.69812 143.21832,-319.94832 319.90437,-320h0.09563v160c0,-88.3656 71.634,-160.00001 160,-160.00001c88.366,0 160,71.63441 160,160.00001v-160l0.09563,0c176.68605,0.05168 319.90437,143.30188 319.90437,320v319.99999c0,-176.73 143.27,-319.99999 320,-319.99999h320v320c0,176.73 -143.27,320 -320,320v-80c132.55,0 240,-107.452 240,-240c0,-132.548 -107.45,-240 -240,-240c-132.55,0 -240,107.452 -240,240c-46.22956,0 -80,0 -80,0c0,0 0,0 0,0c0,0 0,0.00001 0,0.00001c0.00001,176.73 319.99999,319.99999 319.99999,319.99999z" fill="#ff4f00"/><path d="M1720,640c0,66.274 -53.73,120 -120,120c-66.27,0 -120,-53.726 -120,-120c0,-66.274 53.73,-120 120,-120c66.27,0 120,53.726 120,120zM1920,640v320h-320c176.73,0 320,-143.27 320,-320zM1280,640v-320h320c-176.73,0 -320,143.27 -320,320zM1600,160c0,-44.183 35.82,-80 80,-80h160c44.18,0 80,35.817 80,80c0,44.183 -35.82,80 -80,80h-160c-44.18,0 -80,-35.817 -80,-80zM640,-0.00001c-176.73,0.00001 -320,143.27001 -320,320.00001v319.99999c0,-176.73 -143.27,-319.99999 -320,-319.99999v-320h320zM320,960c176.73,0 320,-143.27 320,-320h320c0,176.73 143.27,320 319.99999,320zM240,160c0,-44.18278 -35.81722,-80 -80,-80c-44.18278,0 -80,35.81722 -80,80c0,44.18278 35.81722,80 80,80c44.18278,0 80,-35.81722 80,-80zM1440,240c-44.18278,0 -80,-35.81722 -80,-80c0,-44.18278 35.81722,-80 80,-80c44.18278,0 80,35.81722 80,80c0,44.18278 -35.81722,80 -80,80zM880,480c0,-44.18278 -35.81722,-80 -80,-80c-44.18278,0 -80,35.81722 -80,80c0,44.18278 35.81722,80 80,80c44.18278,0 80,-35.81722 80,-80zM640,320h320v320h-320zM880,800c0,-44.18278 -35.81722,-80 -80,-80c-44.18278,0 -80,35.81722 -80,80c0,44.18278 35.81722,80 80,80c44.18278,0 80,-35.81722 80,-80z" fill="#121212"/><path d="M1600,760c66.27,0 120,-53.726 120,-120c0,-66.274 -53.73,-120 -120,-120c-66.27,0 -120,53.726 -120,120c0,66.274 53.73,120 120,120zM1840,640c0,132.548 -107.45,240 -240,240c-132.55,0 -240,-107.452 -240,-240c0,-132.548 107.45,-240 240,-240c132.55,0 240,107.452 240,240zM1600,880c0,71.73608 0,0 0,0zM1600,400c0,-71.73608 0,0 0,0zM1680,240c-44.18,0 -80,-35.817 -80,-80c0,-44.183 35.82,-80 80,-80h160c44.18,0 80,35.817 80,80c0,44.183 -35.82,80 -80,80zM160,240c-44.18278,0 -80,-35.81722 -80,-80c0,-44.18278 35.81722,-80 80,-80c44.18278,0 80,35.81722 80,80c0,44.18278 -35.81722,80 -80,80zM1440,240c-44.18278,0 -80,-35.81722 -80,-80c0,-44.18278 35.81722,-80 80,-80c44.18278,0 80,35.81722 80,80c0,44.18278 -35.81722,80 -80,80zM0,960v-160h0c0,88.366 71.6345,160 159.99999,160zM160,960c88.366,0 160,-71.634 160,-160v160zM800.04782,0h159.95218v160c0,-88.34966 -71.60816,-159.97416 -159.95218,-160zM799.95218,0c-88.34402,0.02584 -159.95218,71.65034 -159.95218,160v-160zM800,560c-44.18278,0 -80,-35.81722 -80,-80c0,-44.18278 35.81722,-80 80,-80c44.18278,0 80,35.81722 80,80c0,44.18278 -35.81722,80 -80,80zM800,880c-44.18278,0 -80,-35.81722 -80,-80c0,-44.18278 35.81722,-80 80,-80c44.18278,0 80,35.81722 80,80c0,44.18278 -35.81722,80 -80,80z" fill="#f3f3f3"/></g></svg>