<svg xmlns="http://www.w3.org/2000/svg" width="1920" height="960" viewBox="0 0 1920 960"><g xmlns="http://www.w3.org/2000/svg" fill="none" fill-rule="nonzero" stroke="none" stroke-width="1" stroke-linecap="butt" stroke-linejoin="miter" stroke-miterlimit="10" stroke-dasharray="" stroke-dashoffset="0" font-family="none" font-weight="none" font-size="none" text-anchor="none" style="mix-blend-mode: normal"><path d="M1920,320l0,639.81515c0.00002,0.06161 0.00002,0.12323 0,0.18485h-960v-320c176.66836,0.05098 319.95002,143.22008 320,319.81515l0,-319.81515c176.66836,0.05098 319.95002,143.22008 320,319.81515l0,-319.81515c0.05,-176.73 143.32,-320.051 320,-320zM1280,320h-320v320h-640h-320l-0.00001,-320c176.66714,0.05098 319.94904,143.21808 320.00001,319.81145v-639.81146h320c-0.05098,176.66714 -143.21808,319.94904 -319.81145,320.00001h319.81145l0,319.81145c0.00002,0.06284 0.00002,0.12568 0,0.18852c0.051,-176.66711 143.21809,-319.94899 319.81145,-319.99997l-319.81145,0v-320c176.66713,0.05117 319.94902,143.21808 320,319.81145v-319.81145l320,0v319.81515c0.00002,0.06161 0.00002,0.12323 0,0.18485zM640,960h-320v-0.18855c-0.05098,-176.59336 -143.33286,-319.76046 -320,-319.81145l320,0c176.73,0.051 320.051,143.32 320,320zM1600,640h-320c0.00002,-0.06162 0.00002,-0.12324 0,-0.18485l0,-319.81515c176.66836,0.05098 319.95002,143.22008 320,319.81515c0.00002,0.06161 0.00002,0.12323 0,0.18485zM1600,0.18483l0,319.81517h-320c0.05,-176.73 143.32,-320.05121 320,-320c-0.00002,0.06161 -0.00002,0.12322 0,0.18483z" fill="#f3f3f3"/><path d="M1919.81145,320c-176.59337,0.05098 -319.76147,143.33287 -319.81145,320v-0.18485c-0.04998,-176.59507 -143.33164,-319.76416 -320,-319.81515zM1280,320l0,319.81515c-0.04998,-176.59507 -143.33164,-319.76416 -320,-319.81515zM1280,959.81515c-0.04998,-176.59507 -143.33164,-319.76416 -320,-319.81515h320zM640,959.81145c-0.05098,-176.59337 -143.33287,-319.76047 -320,-319.81145h320zM640,320h-319.81145c176.59336,-0.05098 319.76046,-143.33286 319.81145,-320c0,0 0,0 0,0h320v319.81145c-0.05098,-176.59337 -143.33287,-319.76028 -320,-319.81145zM1600,959.81515c-0.04998,-176.59507 -143.33164,-319.76416 -320,-319.81515h320zM1280,320c0.00002,-0.06162 0.00002,-0.12324 0,-0.18485l0,-319.81515l319.81068,0c-176.59302,0.05119 -319.7607,143.33313 -319.81068,320zM640,639.99997c0.00002,-0.06284 0.00002,-0.12568 0,-0.18852v-319.81145l319.81145,0c-176.59336,0.05098 -319.76045,143.33286 -319.81145,319.99997zM640.18855,960c176.59337,-0.05098 319.76047,-143.33287 319.81145,-320v320zM320,320v319.81145c-0.05098,-176.59336 -143.33286,-319.76046 -320,-319.81145c0,0 0,0 0,0l0,-0.0896l0,0.0896zM320,0l0,319.81145c-0.05098,-176.59336 -143.33286,-319.76028 -320,-319.81145z" fill="#121212"/><path d="M1600,-0.00003l320,0v320.00003c-0.00001,0 -0.00002,0 -0.00003,0c-176.72999,-0.05101 -320.04997,-143.32001 -319.99997,-320.00003zM1280,640h-320v-320c176.73,0.051 320.05,143.32 320,320zM640,960c0.00002,-0.06285 0.00002,-0.1257 0,-0.18855l0,-319.81145h320c-0.051,176.73 -143.32,320.051 -320,320zM320,960h-320l-0.00001,-320c176.66714,0.05098 319.94904,143.21808 320.00001,319.81145c0.00002,0.06285 0.00002,0.1257 0,0.18855zM-0.00001,0c176.66714,0.05117 319.94904,143.21808 320.00001,319.81145v0.18855h-320z" fill="#d9d9d6"/></g></svg>