<svg xmlns="http://www.w3.org/2000/svg" width="1920" height="960" viewBox="0 0 1920 960"><g xmlns="http://www.w3.org/2000/svg" fill="none" fill-rule="nonzero" stroke="none" stroke-width="1" stroke-linecap="butt" stroke-linejoin="miter" stroke-miterlimit="10" stroke-dasharray="" stroke-dashoffset="0" font-family="none" font-weight="none" font-size="none" text-anchor="none" style="mix-blend-mode: normal"><path d="M1373.33,480c0,-36.817 29.84,-66.667 66.67,-66.667c36.83,0.001 66.67,29.85 66.67,66.667c0,18.413 -7.46,35.08 -19.53,47.143c-12.06,12.064 -28.73,19.524 -47.14,19.524c-36.83,0 -66.67,-29.849 -66.67,-66.667zM1506.27,546.272c57.92,-57.907 93.73,-137.907 93.73,-226.272c0,88.365 35.81,168.365 93.73,226.272c57.91,57.914 137.91,93.728 226.27,93.728v0.0337l-20.90904,0.70456l-21.51283,2.18299l-21.06897,3.58006l-20.57745,4.92948l-20.03826,6.23123l-19.45142,7.48532l-18.81691,8.69176l-18.13475,9.85053l-17.40492,10.96164l-16.62743,12.02509l-15.80229,13.04088l-14.92948,14.00901l-14.00901,14.92948l-13.04088,15.80229l-12.02509,16.62743l-10.96164,17.40492l-9.85053,18.13475l-8.69176,18.81691l-7.48532,19.45142l-6.23123,20.03826l-4.92948,20.57745l-3.58007,21.06897l-2.18299,21.51283l-0.73825,21.90904c0,-176.73 -143.27,-320 -320,-320c0,88.365 35.81,168.365 93.73,226.272c57.91,57.914 137.91,93.728 226.27,93.728h-320c0,-176.73 -143.27,-320 -320,-320c0,88.365 35.814,168.365 93.73,226.272c57.91,57.914 137.91,93.728 226.27,93.728h-640c88.365,0 168.365,-35.814 226.272,-93.728c57.914,-57.907 93.728,-137.907 93.728,-226.272v0c0,0 0,0 0,0c-176.73,0 -320,143.27 -320,320h-320c88.365,0 168.365,-35.814 226.272,-93.728c57.914,-57.907 93.728,-137.907 93.728,-226.272l0,0c-176.73,0 -320,143.27 -320,320v0c0,-88.365 -35.814,-168.365 -93.728,-226.272c-57.907,-57.914 -137.9072,-93.728 -226.27201,-93.728h-0.99999v-320c0,176.71475 143.24527,319.97527 319.95425,320c15.47926,0 18.03394,0 0.04575,0l0.05351,0c176.70541,-0.02892 319.94649,-143.28783 319.94649,-320h320c-176.72999,0 -319.99999,143.27 -320,319.99999v0.00001c88.365,0 168.365,-35.814 226.272,-93.728c57.914,-57.907 93.728,-137.907 93.728,-226.272c0,176.73 143.27,320 319.99999,320h0.00001c88.36,0 168.36,-35.814 226.27,-93.728zM1441,866.667c-18.41,0 -35.08,-7.46 -47.14,-19.524c-12.07,-12.063 -19.53,-28.73 -19.53,-47.143c0,-36.817 29.84,-66.667 66.67,-66.667c36.83,0 66.67,29.85 66.67,66.667c0,36.818 -29.84,66.667 -66.67,66.667zM1120,413.333c18.41,0 35.08,7.46 47.14,19.524c12.07,12.063 19.53,28.73 19.53,47.143c0,36.817 -29.84,66.667 -66.67,66.667c-36.83,0 -66.67,-29.85 -66.67,-66.667c0,-36.818 29.84,-66.667 66.67,-66.667zM1121,866.667c-18.41,0 -35.08,-7.46 -47.14,-19.524c-12.07,-12.063 -19.53,-28.73 -19.53,-47.143c0,-36.817 29.84,-66.667 66.67,-66.667c36.83,0 66.67,29.85 66.67,66.667c0,36.818 -29.84,66.667 -66.67,66.667zM1827.67,800c0,18.413 -7.46,35.08 -19.53,47.143c-12.06,12.064 -28.73,19.524 -47.14,19.524c-36.82,0 -66.67,-29.841 -66.67,-66.667c0,-36.825 29.85,-66.667 66.67,-66.667c36.82,0 66.67,29.842 66.67,66.667zM1827.27,866.272l7.12385,-7.35245l6.88759,-7.57663l6.64539,-7.79485l6.39724,-8.00711l6.14314,-8.21341l5.8831,-8.41375l5.61711,-8.60814l5.34517,-8.79656l5.06729,-8.97903l4.78346,-9.15554l4.49369,-9.3261l4.19797,-9.49069l3.8963,-9.64933l3.58869,-9.802l3.27513,-9.94872l2.95562,-10.08948l2.63017,-10.22428l2.29877,-10.35313l1.96143,-10.47601l1.61814,-10.59294l1.2689,-10.70391l0.65184,-7.71092v294.99297h-319l11.00047,-0.18554l10.90742,-0.55265l10.80842,-0.91381l10.70346,-1.26901l10.59254,-1.61827l10.47566,-1.96157l10.35282,-2.29892l10.22402,-2.63031l10.08927,-2.95576l9.94855,-3.27525l9.80188,-3.58879l9.64924,-3.89638l9.49065,-4.19801l9.3261,-4.4937l9.15558,-4.78343l8.97911,-5.06721l8.79668,-5.34503l8.60829,-5.61691l8.41394,-5.88283l8.21363,-6.1428l8.00737,-6.39682l7.79514,-6.64488l7.57695,-6.88699zM1186.67,160c0,18.413 -7.46,35.079 -19.53,47.143c-12.06,12.063 -28.73,19.524 -47.14,19.524c-36.82,0 -66.67,-29.842 -66.67,-66.667c0,-36.825 29.85,-66.6667 66.67,-66.6667c36.82,0 66.67,29.8417 66.67,66.6667zM867.666,800c0,18.413 -7.46,35.08 -19.523,47.143c-12.064,12.064 -28.731,19.524 -47.143,19.524c-36.818,0 -66.667,-29.841 -66.667,-66.667c0,-36.825 29.849,-66.667 66.667,-66.667c36.817,0 66.666,29.842 66.666,66.667zM546.666,160c0,18.413 -7.46,35.079 -19.523,47.143c-12.064,12.063 -28.731,19.524 -47.143,19.524c-36.818,0 -66.667,-29.842 -66.667,-66.667c0,-36.825 29.849,-66.6667 66.667,-66.6667c36.817,0 66.666,29.8417 66.666,66.6667zM226.666,160c0,18.413 -7.46,35.079 -19.523,47.143c-12.064,12.063 -28.731,19.524 -47.143,19.524c-36.818,0 -66.667,-29.842 -66.667,-66.667c0,-36.825 29.849,-66.6667 66.667,-66.6667c36.817,0 66.666,29.8417 66.666,66.6667zM0,320v-320h320c-176.73,0 -320,143.27 -320,320zM1373.33,160c0,-18.413 7.46,-35.079 19.53,-47.143c12.06,-12.063 28.73,-19.5236 47.14,-19.5236c36.82,0 66.67,29.8416 66.67,66.6666c0,36.825 -29.85,66.667 -66.67,66.667c-36.82,0 -66.67,-29.842 -66.67,-66.667zM1280,-0.00003l320,0.00003c-88.36,-0.00001 -168.36,35.8144 -226.27,93.728c-57.92,57.907 -93.73,137.907 -93.73,226.272zM1280,320c176.73,0 320,-143.27 320,-320v-0.00001c0,88.36481 35.81,168.36501 93.73,226.27201c57.91,57.914 137.91,93.728 226.27,93.728v320c0,-176.73 -143.27,-320 -320,-320zM547.666,800c0,18.413 -7.46,35.08 -19.523,47.143c-12.064,12.064 -28.731,19.524 -47.143,19.524c-36.818,0 -66.667,-29.841 -66.667,-66.667c0,-36.825 29.849,-66.667 66.667,-66.667c36.817,0 66.666,29.842 66.666,66.667zM1760,226.667c-18.41,0 -35.08,-7.46 -47.14,-19.524c-12.07,-12.063 -19.53,-28.73 -19.53,-47.143c0,-36.817 29.84,-66.6665 66.67,-66.6665c36.83,0 66.67,29.8495 66.67,66.6665c0,36.818 -29.84,66.667 -66.67,66.667zM1920,0v320c0,-176.73 -143.27,-320 -319.99999,-320.00001zM161,733.333c18.412,0 35.079,7.46 47.143,19.524c12.063,12.063 19.523,28.73 19.523,47.143c0,36.817 -29.841,66.666 -66.666,66.667c-36.826,0 -66.667,-29.85 -66.667,-66.667c0,-36.818 29.841,-66.667 66.667,-66.667zM1,960l-0.00001,-320c0.00001,176.73 143.27001,320 320.00001,320zM1760,546.667c-18.41,0 -35.08,-7.46 -47.14,-19.524c-12.07,-12.063 -19.53,-28.73 -19.53,-47.143c0,-36.817 29.84,-66.667 66.67,-66.667c36.83,0 66.67,29.85 66.67,66.667c0,36.818 -29.84,66.667 -66.67,66.667zM866.666,480c0,18.413 -7.46,35.079 -19.523,47.143c-12.064,12.063 -28.731,19.524 -47.143,19.524c-36.818,0 -66.667,-29.842 -66.667,-66.667c0,-36.825 29.849,-66.667 66.667,-66.667c36.817,0 66.666,29.842 66.666,66.667zM413.334,480c0,-18.413 7.46,-35.08 19.523,-47.143c12.064,-12.064 28.731,-19.524 47.143,-19.524c36.818,0 66.667,29.841 66.667,66.667c0,36.825 -29.849,66.667 -66.667,66.667c-36.817,0 -66.666,-29.842 -66.666,-66.667zM160,413.333c18.412,0 35.079,7.46 47.143,19.524c12.063,12.063 19.523,28.73 19.523,47.143c0,36.817 -29.841,66.667 -66.666,66.667c-36.826,0 -66.667,-29.85 -66.667,-66.667c0,-36.818 29.841,-66.667 66.667,-66.667z" fill="#121212"/><path d="M1440,546.667c18.41,0 35.08,-7.46 47.14,-19.524c12.07,-12.063 19.53,-28.73 19.53,-47.143c0,-36.817 -29.84,-66.666 -66.67,-66.667c-36.83,0 -66.67,29.85 -66.67,66.667c0,36.818 29.84,66.667 66.67,66.667zM1600,320c0,88.365 -35.81,168.365 -93.73,226.272c-57.91,57.914 -137.91,93.728 -226.27,93.728c0,-176.73 143.27,-320 320,-320zM800,93.3333c-36.818,0 -66.667,29.8417 -66.667,66.6667c0,36.825 29.849,66.667 66.667,66.667c18.412,0 35.079,-7.461 47.143,-19.524c12.063,-12.064 19.523,-28.73 19.523,-47.143c0,-36.825 -29.849,-66.6667 -66.666,-66.6667zM960,0c0,88.3648 -35.814,168.365 -93.728,226.272c-57.907,57.914 -137.907,93.728 -226.272,93.728c0,-176.73 143.27,-320 320,-320z" fill="#ffa300"/><path d="M1507.67,800c0,-36.817 -29.84,-66.667 -66.67,-66.667c-36.83,0 -66.67,29.85 -66.67,66.667c0,18.413 7.46,35.08 19.53,47.143c12.06,12.064 28.73,19.524 47.14,19.524c36.83,0 66.67,-29.849 66.67,-66.667zM1281,640c176.73,0 320,143.27 320,320c-88.36,0 -168.36,-35.814 -226.27,-93.728c-57.92,-57.907 -93.73,-137.907 -93.73,-226.272zM161,733.333c18.412,0 35.079,7.46 47.143,19.524c12.063,12.063 19.523,28.73 19.523,47.143c0,36.817 -29.841,66.666 -66.666,66.667c-36.826,0 -66.667,-29.85 -66.667,-66.667c0,-36.818 29.841,-66.667 66.667,-66.667zM800,413.333c-36.818,0 -66.667,29.842 -66.667,66.667c0,36.825 29.849,66.667 66.667,66.667c18.412,0 35.079,-7.461 47.143,-19.524c12.063,-12.064 19.523,-28.73 19.523,-47.143c0,-36.825 -29.849,-66.667 -66.666,-66.667zM866.272,546.272c-57.907,57.914 -137.907,93.728 -226.272,93.728c0,-176.73 143.27,-320 320,-320v0c0,88.365 -35.814,168.365 -93.728,226.272z" fill="#d9d9d6"/><path d="M1120,413.333c18.41,0 35.08,7.46 47.14,19.524c12.07,12.063 19.53,28.73 19.53,47.143c0,36.817 -29.84,66.667 -66.67,66.667c-36.83,0 -66.67,-29.85 -66.67,-66.667c0,-36.818 29.84,-66.667 66.67,-66.667zM1120,93.3333c-36.82,0 -66.67,29.8417 -66.67,66.6667c0,36.825 29.85,66.667 66.67,66.667c18.41,0 35.08,-7.461 47.14,-19.524c12.07,-12.064 19.53,-28.73 19.53,-47.143c0,-36.825 -29.85,-66.6667 -66.67,-66.6667zM1280,0c0,88.3648 -35.81,168.365 -93.73,226.272c-57.91,57.914 -137.91,93.728 -226.27,93.728c0,-176.73 143.27,-320 320,-320zM1760,226.667c-18.41,0 -35.08,-7.46 -47.14,-19.524c-12.07,-12.063 -19.53,-28.73 -19.53,-47.143c0,-36.817 29.84,-66.6665 66.67,-66.6665c36.83,0 66.67,29.8495 66.67,66.6665c0,36.818 -29.84,66.667 -66.67,66.667zM160,413.333c18.412,0 35.079,7.46 47.143,19.524c12.063,12.063 19.523,28.73 19.523,47.143c0,36.817 -29.841,66.667 -66.666,66.667c-36.826,0 -66.667,-29.85 -66.667,-66.667c0,-36.818 29.841,-66.667 66.667,-66.667z" fill="#4997d0"/><path d="M1187.67,800c0,-36.817 -29.84,-66.667 -66.67,-66.667c-36.83,0 -66.67,29.85 -66.67,66.667c0,18.413 7.46,35.08 19.53,47.143c12.06,12.064 28.73,19.524 47.14,19.524c36.83,0 66.67,-29.849 66.67,-66.667zM1281,960c-88.36,0 -168.36,-35.814 -226.27,-93.728c-57.916,-57.907 -93.73,-137.907 -93.73,-226.272c176.73,0 320,143.27 320,320zM160,93.3333c-36.818,0 -66.667,29.8417 -66.667,66.6667c0,36.825 29.849,66.667 66.667,66.667c18.412,0 35.079,-7.461 47.143,-19.524c12.063,-12.064 19.523,-28.73 19.523,-47.143c0,-36.825 -29.849,-66.6667 -66.666,-66.6667zM320,0c0,88.3648 -35.814,168.365 -93.728,226.272c-57.907,57.914 -137.9072,93.728 -226.272,93.728c0,-176.73 143.27,-320 320,-320zM1373.33,160c0,-18.413 7.46,-35.079 19.53,-47.143c12.06,-12.063 28.73,-19.5236 47.14,-19.5236c36.82,0 66.67,29.8416 66.67,66.6666c0,36.825 -29.85,66.667 -66.67,66.667c-36.82,0 -66.67,-29.842 -66.67,-66.667zM480,546.667c36.818,0 66.667,-29.842 66.667,-66.667c0,-36.826 -29.849,-66.667 -66.667,-66.667c-18.412,0 -35.079,7.46 -47.143,19.524c-12.063,12.063 -19.523,28.73 -19.523,47.143c0,36.825 29.849,66.667 66.666,66.667zM640,320c0,176.73 -143.27,320 -320,320c0,-88.365 35.814,-168.365 93.728,-226.272c57.907,-57.914 137.907,-93.728 226.272,-93.728z" fill="#ff4f00"/><path d="M1761,733.333c-36.82,0 -66.67,29.842 -66.67,66.667c0,36.826 29.85,66.667 66.67,66.667c18.41,0 35.08,-7.46 47.14,-19.524c12.07,-12.063 19.53,-28.73 19.53,-47.143c0,-36.825 -29.85,-66.667 -66.67,-66.667zM1819.91719,873.39515l-7.57695,6.88699l-7.79514,6.64488l-8.00737,6.39682l-8.21363,6.1428l-8.41394,5.88283l-8.60829,5.61691l-8.79668,5.34503l-8.97911,5.06721l-9.15558,4.78343l-9.3261,4.4937l-9.49065,4.19801l-9.64924,3.89638l-9.80188,3.58879l-9.94855,3.27525l-10.08927,2.95576l-10.22402,2.63031l-10.35282,2.29892l-10.47566,1.96157l-10.59254,1.61827l-10.70346,1.26901l-10.80842,0.91381l-10.90742,0.55265l-11.00047,0.18554l0.73825,-21.90904l2.18299,-21.51283l3.58007,-21.06897l4.92948,-20.57745l6.23123,-20.03826l7.48532,-19.45142l8.69176,-18.81691l9.85053,-18.13475l10.96164,-17.40492l12.02509,-16.62743l13.04088,-15.80229l14.00901,-14.92948l14.92948,-14.00901l15.80229,-13.04088l16.62743,-12.02509l17.40492,-10.96164l18.13475,-9.85053l18.81691,-8.69176l19.45142,-7.48532l20.03826,-6.23123l20.57745,-4.92948l21.06897,-3.58006l21.51283,-2.18299l20.90904,-0.70456v24.97334l-0.65184,7.71092l-1.2689,10.70391l-1.61814,10.59294l-1.96143,10.47601l-2.29877,10.35313l-2.63017,10.22428l-2.95562,10.08948l-3.27513,9.94872l-3.58869,9.802l-3.8963,9.64933l-4.19797,9.49069l-4.49369,9.3261l-4.78346,9.15554l-5.06729,8.97903l-5.34517,8.79656l-5.61711,8.60814l-5.8831,8.41375l-6.14314,8.21341l-6.39724,8.00711l-6.64539,7.79485l-6.88759,7.57663l-7.12385,7.35245zM1826.67,480c0,-36.817 -29.84,-66.667 -66.67,-66.667c-36.83,0 -66.67,29.85 -66.67,66.667c0,18.413 7.46,35.08 19.53,47.143c12.06,12.064 28.73,19.524 47.14,19.524c36.83,0 66.67,-29.849 66.67,-66.667zM1920,640c-88.36,0 -168.36,-35.814 -226.27,-93.728c-57.92,-57.907 -93.73,-137.907 -93.73,-226.272c176.73,0 320,143.27 320,320zM0,960v-320h960v-320l-960,0v-320h1600c0,0 0,0 0,0v640h1v320z" fill="#f3f3f3"/></g></svg>