<svg xmlns="http://www.w3.org/2000/svg" width="1920" height="960" viewBox="0 0 1920 960"><g xmlns="http://www.w3.org/2000/svg" fill="none" fill-rule="nonzero" stroke="none" stroke-width="1" stroke-linecap="butt" stroke-linejoin="miter" stroke-miterlimit="10" stroke-dasharray="" stroke-dashoffset="0" font-family="none" font-weight="none" font-size="none" text-anchor="none" style="mix-blend-mode: normal"><path d="M1440,480c0,-88.366 71.63,-160 160,-160c88.37,0 160,71.634 160,160c0,88.366 -71.63,160 -160,160c-88.37,0 -160,-71.634 -160,-160zM1440,480c0,88.366 -71.63,160 -160,160c-88.37,0 -160,-71.634 -160,-160c0,-88.366 71.63,-160 160,-160c88.37,0 160,71.634 160,160zM800,480c0,-88.366 71.634,-160 160,-160c88.37,0 160,71.634 160,160c0,88.366 -71.63,160 -160,160c-88.366,0 -160,-71.634 -160,-160zM800,480c0,88.366 -71.634,160 -160,160c-88.366,0 -160,-71.634 -160,-160c0,-88.366 71.634,-160 160,-160c88.366,0 160,71.634 160,160zM160,480c0,-88.366 71.634,-160 160,-160c88.366,0 160,71.634 160,160c0,88.366 -71.634,160 -160,160c-88.366,0 -160,-71.634 -160,-160zM160,480c0,88.366 -71.6344,160 -159.99998,160c0,0 0,-231.634 0,-320c88.36558,0 159.99998,71.634 159.99998,160zM1920,320c0,88.366 0,320 0,320c-88.37,0 -160,-71.634 -160,-160c0,-88.366 71.63,-160 160,-160zM1280,640.18485v-0.18485h640c-0.05,176.73 -143.32,320.051 -320,320c-176.66836,-0.05098 -319.95002,-143.22008 -320,-319.81515zM0.00003,640h639.99997c-0.051,176.73 -143.32,320.051 -320,320c-176.73,-0.051 -320.0512,-143.32 -319.99997,-320zM1280,319.81515v0.18485h-640c0.051,-176.73 143.32,-320.05121 320,-320.00001v0.00001c176.66836,0.05117 319.95002,143.22008 320,319.81515z" fill="#121212"/><path d="M1440,480c0,88.366 71.63,160 160,160h-320c88.37,0 160,-71.634 160,-160c0,-88.366 -71.63,-160 -160,-160h0.5l0.63599,-6.03587l0.90048,-6.00439l1.16499,-5.9621l1.42951,-5.909l1.69404,-5.84509l1.95858,-5.77036l2.22314,-5.68483l2.48771,-5.58848l2.75229,-5.48133l3.01689,-5.36336l3.2815,-5.23458l3.54612,-5.09499l3.81076,-4.94459l4.07541,-4.78338l4.34007,-4.61136l4.60474,-4.42852l4.86943,-4.23487l5.13413,-4.03042l5.39884,-3.81515l5.66357,-3.58907l5.92831,-3.35218l6.19306,-3.10448l6.45783,-2.84597l6.72261,-2.57664l9.11205,-3.61386l8.68998,-4.1934l8.25489,-4.74154l7.80679,-5.25829l7.34568,-5.74364l6.87155,-6.1976l6.38442,-6.62016l5.88427,-7.01134l5.37111,-7.37111l4.84494,-7.69949l4.30576,-7.99648l3.75356,-8.2621l3.18835,-8.49625l2.61013,-8.69908l2.0189,-8.87049l1.41465,-9.0105l0.7974,-9.11912l0.16713,-9.19635l-0.47615,-9.24219l-1.13245,-9.25662l-1.80175,-9.23967l-2.48407,-9.19132l-3.1794,-9.11157l-3.88774,-9.00043l-5.85782,-14.19831l-2.4443,-8.36809h327.30423l-2.4443,8.36809l-5.85782,14.19831l-3.88774,9.00043l-3.1794,9.11157l-2.48407,9.19132l-1.80175,9.23967l-1.13245,9.25662l-0.47615,9.24219l0.16713,9.19635l0.7974,9.11912l1.41465,9.0105l2.0189,8.87049l2.61013,8.69908l3.18835,8.49625l3.75356,8.2621l4.30576,7.99648l4.84494,7.69949l5.37111,7.37111l5.88427,7.01134l6.38442,6.62016l6.87155,6.1976l7.34568,5.74364l7.80679,5.25829l8.25489,4.74154l8.68998,4.1934l9.11205,3.61386l6.72261,2.57664l6.45783,2.84597l6.19306,3.10448l5.92831,3.35218l5.66357,3.58907l5.39884,3.81515l5.13413,4.03042l4.86943,4.23487l4.60474,4.42852l4.34007,4.61136l4.07541,4.78338l3.81076,4.94459l3.54612,5.09499l3.2815,5.23458l3.01689,5.36336l2.75229,5.48133l2.48771,5.58848l2.22314,5.68483l1.95858,5.77036l1.69404,5.84509l1.42951,5.909l1.16499,5.9621l0.90048,6.00439l-318.86401,-313.96413c0,0 88.37,320 0,320c-88.37,0 -160,71.634 -160,160zM800,480c0,88.366 71.634,160 160,160h0c88.37,0 160,-71.634 160,-160c0,-88.366 -71.63,-160 -160,-160h320c-88.37,0 -160,71.634 -160,160c0,88.366 71.63,160 160,160h-0.5l-0.63599,6.03586l-0.90048,6.00439l-1.16499,5.9621l-1.42951,5.909l-1.69404,5.84509l-1.95858,5.77036l-2.22314,5.68483l-2.48771,5.58848l-2.75229,5.48133l-3.01689,5.36336l-3.2815,5.23458l-3.54612,5.09499l-3.81076,4.94459l-4.07541,4.78338l-4.34007,4.61136l-4.60474,4.42852l-4.86943,4.23487l-5.13413,4.03042l-5.39884,3.81515l-5.66357,3.58907l-5.92831,3.35218l-6.19306,3.10448l-6.45783,2.84596l-6.72261,2.57664l-9.11205,3.61386l-8.68998,4.19339l-8.25489,4.74153l-7.80679,5.25828l-7.34568,5.74363l-6.87155,6.19759l-6.38442,6.62015l-5.88427,7.01132l-5.37111,7.3711l-4.84494,7.69948l-4.30576,7.99648l-3.75356,8.26207l-3.18835,8.49628l-2.61013,8.69908l-2.0189,8.8705l-1.41465,9.01052l-0.7974,9.11915l-0.16713,9.19639l0.47615,9.24223l1.13245,9.25668l1.80175,9.23973l2.48407,9.19139l3.1794,9.11166l3.88774,9.00053l5.85782,14.19847l2.44411,8.36753h-327.30757l2.44398,-8.36753l5.85766,-14.19847l3.888,-9.00053l3.17966,-9.11166l2.48434,-9.19139l1.80199,-9.23973l1.13278,-9.25668l0.47645,-9.24223l-0.16682,-9.19639l-0.79708,-9.11915l-1.41433,-9.01052l-2.01857,-8.8705l-2.6098,-8.69908l-3.18801,-8.49628l-3.75321,-8.26207l-4.30541,-7.99648l-4.84458,-7.69948l-5.37075,-7.3711l-5.88391,-7.01132l-6.38405,-6.62015l-6.87119,-6.19759l-7.34531,-5.74363l-7.80642,-5.25828l-8.25451,-4.74153l-8.6896,-4.19339l-9.11167,-3.61386l-6.72354,-2.57664l-6.45864,-2.84596l-6.19375,-3.10448l-5.92889,-3.35218l-5.66405,-3.58907l-5.39923,-3.81515l-5.13443,-4.03042l-4.86966,-4.23487l-4.60491,-4.42852l-4.34017,-4.61136l-4.07546,-4.78338l-3.81077,-4.94459l-3.54611,-5.09499l-3.28146,-5.23458l-3.01684,-5.36336l-2.75224,-5.48133l-2.48766,-5.58848l-2.2231,-5.68483l-1.95856,-5.77036l-1.69405,-5.84509l-1.42956,-5.909l-1.16508,-5.9621l-0.90063,-6.00439l-0.63621,-6.03586h-0.499c88.366,0 160,-71.634 160,-160c0,-88.366 -71.634,-160 -160,-160h320c-88.366,0 -160,71.634 -160,160zM0,640v-320l0.49916,0l0.63621,-6.03587l0.90063,-6.00439l1.16507,-5.9621l1.42954,-5.909l1.69403,-5.84509l1.95854,-5.77036l2.22307,-5.68483l2.48763,-5.58848l2.75221,-5.48133l3.01681,-5.36336l3.28143,-5.23458l3.54607,-5.09499l3.81074,-4.94459l4.07543,-4.78338l4.34014,-4.61136l4.60487,-4.42852l4.86963,-4.23487l5.13441,-4.03042l5.39921,-3.81515l5.66403,-3.58907l5.92887,-3.35218l6.19374,-3.10448l6.45863,-2.84597l6.72354,-2.57664l9.11172,-3.61386l8.68964,-4.1934l8.25456,-4.74154l7.80645,-5.25829l7.34534,-5.74364l6.87122,-6.1976l6.38408,-6.62016l5.88393,-7.01134l5.37077,-7.37111l4.8446,-7.69949l4.30542,-7.99648l3.75323,-8.2621l3.18802,-8.49625l2.6098,-8.69908l2.01858,-8.87049l1.41434,-9.0105l0.79709,-9.11912l0.16682,-9.19635l-0.47645,-9.24219l-1.13278,-9.25662l-1.802,-9.23967l-2.48434,-9.19132l-3.17966,-9.11157l-3.888,-9.00043l-5.85766,-14.19831l-2.44417,-8.36809h327.31168l-2.44417,8.36809l-5.85766,14.19831l-3.888,9.00043l-3.17966,9.11157l-2.48435,9.19132l-1.80199,9.23967l-1.13278,9.25662l-0.47645,9.24219l0.16682,9.19635l0.79708,9.11912l1.41433,9.0105l2.01857,8.87049l2.6098,8.69908l3.18801,8.49625l3.75321,8.2621l4.30541,7.99648l4.84458,7.69949l5.37075,7.37111l5.88391,7.01134l6.38405,6.62016l6.87119,6.1976l7.34531,5.74364l7.80642,5.25829l8.25451,4.74154l8.6896,4.1934l9.11167,3.61386l6.72354,2.57664l6.45864,2.84597l6.19375,3.10448l5.92889,3.35218l5.66405,3.58907l5.39923,3.81515l5.13443,4.03042l4.86966,4.23487l4.60491,4.42852l4.34017,4.61136l4.07546,4.78338l3.81077,4.94459l3.54611,5.09499l3.28146,5.23458l3.01684,5.36336l2.75224,5.48133l2.48766,5.58848l2.2231,5.68483l1.95856,5.77036l1.69405,5.84509l1.42956,5.909l1.16508,5.9621l0.90063,6.00439l-318.86479,-313.96413c0,0 88.366,320 0,320c-88.366,0 -160,71.634 -160,160c0,88.366 71.634,160 160,160zM0.00002,320c0,88.366 0,320 0,320c88.36558,0 159.99998,-71.634 159.99998,-160c0,-88.366 -71.6344,-160 -159.99998,-160z" fill="#d9d9d6"/><path d="M1368.79,205.709l-6.72261,2.57664l-6.45783,2.84597l-6.19306,3.10448l-5.92831,3.35218l-5.66357,3.58907l-5.39884,3.81515l-5.13413,4.03042l-4.86943,4.23487l-4.60474,4.42852l-4.34007,4.61136l-4.07541,4.78338l-3.81076,4.94459l-3.54612,5.09499l-3.2815,5.23458l-3.01689,5.36336l-2.75229,5.48133l-2.48771,5.58848l-2.22314,5.68483l-1.95858,5.77036l-1.69404,5.84509l-1.42951,5.909l-1.16499,5.9621l-0.90048,6.00439l-0.63599,6.03587h-0.5v-0.18485c-0.04998,-176.59507 -143.33164,-319.76398 -320,-319.81515l476.34788,0l2.4443,8.36809l5.85782,14.19831l3.88774,9.00043l3.1794,9.11157l2.48407,9.19132l1.80175,9.23967l1.13245,9.25662l0.47615,9.24219l-0.16713,9.19635l-0.7974,9.11912l-1.41465,9.0105l-2.0189,8.87049l-2.61013,8.69908l-3.18835,8.49625l-3.75356,8.2621l-4.30576,7.99648l-4.84494,7.69949l-5.37111,7.37111l-5.88427,7.01134l-6.38442,6.62016l-6.87155,6.1976l-7.34568,5.74364l-7.80679,5.25829l-8.25489,4.74154l-8.68998,4.1934zM0,960v-320h0.00003c-0.05122,176.68 143.26997,319.949 319.99997,320zM483.65584,0h476.115c-176.57471,0.07273 -319.71986,143.34641 -319.77084,320l-0.499,0l-0.63621,-6.03587l-0.90063,-6.00439l-1.16508,-5.9621l-1.42956,-5.909l-1.69405,-5.84509l-1.95856,-5.77036l-2.2231,-5.68483l-2.48766,-5.58848l-2.75224,-5.48133l-3.01684,-5.36336l-3.28146,-5.23458l-3.54611,-5.09499l-3.81077,-4.94459l-4.07546,-4.78338l-4.34017,-4.61136l-4.60491,-4.42852l-4.86966,-4.23487l-5.13443,-4.03042l-5.39923,-3.81515l-5.66405,-3.58907l-5.92889,-3.35218l-6.19375,-3.10448l-6.45864,-2.84597l-6.72354,-2.57664l-9.11167,-3.61386l-8.6896,-4.1934l-8.25451,-4.74154l-7.80642,-5.25829l-7.34531,-5.74364l-6.87119,-6.1976l-6.38405,-6.62016l-5.88391,-7.01134l-5.37075,-7.37111l-4.84458,-7.69949l-4.30541,-7.99648l-3.75321,-8.2621l-3.18801,-8.49625l-2.6098,-8.69908l-2.01857,-8.87049l-1.41433,-9.0105l-0.79708,-9.11912l-0.16682,-9.19635l0.47645,-9.24219l1.13278,-9.25662l1.80199,-9.23967l2.48435,-9.19132l3.17966,-9.11157l3.888,-9.00043l5.85766,-14.19831z" fill="#4997d0"/><path d="M88.7936,205.709l-6.72354,2.57664l-6.45863,2.84597l-6.19374,3.10448l-5.92887,3.35218l-5.66403,3.58907l-5.39921,3.81515l-5.13441,4.03042l-4.86963,4.23487l-4.60487,4.42852l-4.34014,4.61136l-4.07543,4.78338l-3.81074,4.94459l-3.54607,5.09499l-3.28143,5.23458l-3.01681,5.36336l-2.75221,5.48133l-2.48763,5.58848l-2.22307,5.68483l-1.95854,5.77036l-1.69403,5.84509l-1.42954,5.909l-1.16507,5.9621l-0.90063,6.00439l-0.6362,6.03587h-0.49916v-320h156.34416l2.44417,8.36809l5.85766,14.19831l3.888,9.00043l3.17966,9.11157l2.48434,9.19132l1.802,9.23967l1.13278,9.25662l0.47645,9.24219l-0.16682,9.19635l-0.79709,9.11912l-1.41434,9.0105l-2.01858,8.87049l-2.6098,8.69908l-3.18802,8.49625l-3.75323,8.2621l-4.30542,7.99648l-4.8446,7.69949l-5.37077,7.37111l-5.88393,7.01134l-6.38408,6.62016l-6.87122,6.1976l-7.34534,5.74364l-7.80645,5.25829l-8.25456,4.74154l-8.68964,4.1934zM1191.21,754.291l6.72261,-2.57664l6.45783,-2.84596l6.19306,-3.10448l5.92831,-3.35218l5.66357,-3.58907l5.39884,-3.81515l5.13413,-4.03042l4.86943,-4.23487l4.60474,-4.42852l4.34007,-4.61136l4.07541,-4.78338l3.81076,-4.94459l3.54612,-5.09499l3.2815,-5.23458l3.01689,-5.36336l2.75229,-5.48133l2.48771,-5.58848l2.22314,-5.68483l1.95858,-5.77036l1.69404,-5.84509l1.42951,-5.909l1.16499,-5.9621l0.90048,-6.00439l0.63599,-6.03586h0.5v0.18485c0.04998,176.59507 143.33164,319.76416 320,319.81515h-476.34807l-2.44411,-8.36753l-5.85782,-14.19847l-3.88774,-9.00053l-3.1794,-9.11166l-2.48407,-9.19139l-1.80175,-9.23973l-1.13245,-9.25668l-0.47615,-9.24223l0.16713,-9.19639l0.7974,-9.11915l1.41465,-9.01052l2.0189,-8.8705l2.61013,-8.69908l3.18835,-8.49628l3.75356,-8.26207l4.30576,-7.99648l4.84494,-7.69948l5.37111,-7.3711l5.88427,-7.01132l6.38442,-6.62015l6.87155,-6.19759l7.34568,-5.74363l7.80679,-5.25828l8.25489,-4.74153l8.68998,-4.19339z" fill="#ff4f00"/><path d="M1763.65212,0h156.34788v320h-0.5l-0.63599,-6.03587l-0.90048,-6.00439l-1.16499,-5.9621l-1.42951,-5.909l-1.69404,-5.84509l-1.95858,-5.77036l-2.22314,-5.68483l-2.48771,-5.58848l-2.75229,-5.48133l-3.01689,-5.36336l-3.2815,-5.23458l-3.54612,-5.09499l-3.81076,-4.94459l-4.07541,-4.78338l-4.34007,-4.61136l-4.60474,-4.42852l-4.86943,-4.23487l-5.13413,-4.03042l-5.39884,-3.81515l-5.66357,-3.58907l-5.92831,-3.35218l-6.19306,-3.10448l-6.45783,-2.84597l-6.72261,-2.57664l-9.11205,-3.61386l-8.68998,-4.1934l-8.25489,-4.74154l-7.80679,-5.25829l-7.34568,-5.74364l-6.87155,-6.1976l-6.38442,-6.62016l-5.88427,-7.01134l-5.37111,-7.37111l-4.84494,-7.69949l-4.30576,-7.99648l-3.75356,-8.2621l-3.18835,-8.49625l-2.61013,-8.69908l-2.0189,-8.87049l-1.41465,-9.0105l-0.7974,-9.11912l-0.16713,-9.19635l0.47615,-9.24219l1.13245,-9.25662l1.80175,-9.23967l2.48407,-9.19132l3.1794,-9.11157l3.88774,-9.00043l5.85782,-14.19831zM796.34435,960l-476.1558,0c176.59337,-0.05098 319.76047,-143.33287 319.81145,-320h0.499l0.63621,6.03586l0.90063,6.00439l1.16508,5.9621l1.42956,5.909l1.69405,5.84509l1.95856,5.77036l2.2231,5.68483l2.48766,5.58848l2.75224,5.48133l3.01684,5.36336l3.28146,5.23458l3.54611,5.09499l3.81077,4.94459l4.07546,4.78338l4.34017,4.61136l4.60491,4.42852l4.86966,4.23487l5.13443,4.03042l5.39923,3.81515l5.66405,3.58907l5.92889,3.35218l6.19375,3.10448l6.45864,2.84596l6.72354,2.57664l9.11167,3.61386l8.6896,4.19339l8.25451,4.74153l7.80642,5.25828l7.34531,5.74363l6.87119,6.19759l6.38405,6.62015l5.88391,7.01132l5.37075,7.3711l4.84458,7.69948l4.30541,7.99648l3.75321,8.26207l3.18801,8.49628l2.6098,8.69908l2.01857,8.8705l1.41433,9.01052l0.79708,9.11915l0.16682,9.19639l-0.47645,9.24223l-1.13278,9.25668l-1.80199,9.23973l-2.48434,9.19139l-3.17966,9.11166l-3.888,9.00053l-5.85766,14.19847zM1920,960l-319.81145,0c176.59337,-0.05098 319.76147,-143.33287 319.81145,-320z" fill="#ffa300"/></g></svg>