<svg xmlns="http://www.w3.org/2000/svg" width="1920" height="960" viewBox="0 0 1920 960"><g xmlns="http://www.w3.org/2000/svg" fill="none" fill-rule="nonzero" stroke="none" stroke-width="1" stroke-linecap="butt" stroke-linejoin="miter" stroke-miterlimit="10" stroke-dasharray="" stroke-dashoffset="0" font-family="none" font-weight="none" font-size="none" text-anchor="none" style="mix-blend-mode: normal"><path d="M1920,960h-1920v-960h1920zM799.955,319.955l159.955,0.045l0.045,-160c-88.34,-0.026 -159.974,71.59 -160,159.955zM1120.04,320.045l-159.95,-0.045l-0.045,160c88.335,0.026 159.975,-71.59 159.995,-159.955zM960,800c0,88.365 5.373,160 12,160c3.92519,0 7.41044,-25.13112 9.59987,-63.98452c6.32428,38.8534 16.39169,63.98452 27.73013,63.98452c4.95089,0 9.65915,-4.788 13.91933,-13.41523c6.96312,8.62724 14.65862,13.41523 22.75067,13.41523c5.39463,0 10.61311,-2.12794 15.55591,-6.10273c6.91883,3.97478 14.22334,6.10273 21.77409,6.10273c5.3931,0 10.66048,-1.08507 15.7514,-3.15286c6.54455,2.06779 13.31584,3.15286 20.2486,3.15286c5.63569,0 11.16452,-0.71678 16.55147,-2.09539c6.5481,1.37861 13.26848,2.09539 20.11853,2.09539c68.48,0 124,-71.635 124,-160c0,-88.365 -55.52,-160 -124.01,-160c0,0 0,0 0,0c-6.84866,0 -13.56759,0.71649 -20.11425,2.09454c-5.38528,-1.37806 -10.91221,-2.09454 -16.54575,-2.09454c0.00065,0 0.00121,0 0,0c2.92514,0 -4.01948,0.29259 -10.66037,0.86344c0,0 0,0 0,0c0,0 0,0 0,0c0,0 0,0 0,0c0,0 0,0 0,0c3.50382,-0.57085 7.06032,-0.86344 10.66036,-0.86344h-36c-7.55151,0 -14.85671,2.12837 -21.77616,6.10391c-4.94254,-3.97555 -10.1604,-6.10391 -15.55384,-6.10391h0c-8.09205,0 -15.78755,4.788 -22.75067,13.41523c-4.26018,-8.62724 -8.96844,-13.41523 -13.91933,-13.41523h-37.33c-6.627,0 -12,71.635 -12,160zM1009.33,640c2.51965,0 -10.52207,10.35556 -19.60736,28.04891c5.57719,-17.69336 12.33127,-28.04891 19.60736,-28.04891zM989.72264,668.04891c-3.11171,9.87174 -5.85706,22.02768 -8.12232,35.94369c-0.78408,-13.91601 3.05332,-26.07195 8.12232,-35.94369zM1099.0798,643.15336c-1.47098,-0.5976 3.34738,-1.30408 6.791,-1.77266c-2.28844,0.47324 -4.55298,1.06549 -6.791,1.77266zM1108.66963,640.86344c1.167,0 -0.51307,0.20622 -2.79884,0.51726c0.92906,-0.19213 1.86207,-0.36464 2.79884,-0.51726zM960.045,159.955l-0.045,159.955l160,0.045c0.03,-88.34 -71.59,-159.974 -159.955,-160zM959.955,480.045l0.045,-159.955l-160,-0.045c-0.026,88.34 71.59,159.974 159.955,160zM640,800c0,88.365 55.525,160 124.006,160c6.85005,0 13.57034,-0.71674 20.11827,-2.09526c5.38628,1.37853 10.9142,2.09526 16.54873,2.09526c6.93224,0 13.70292,-1.08487 20.24682,-3.15228c5.0897,2.06741 10.35568,3.15228 15.74718,3.15228c7.55219,0 14.85806,-2.12865 21.77813,-6.10471c4.94271,3.97606 10.16089,6.10471 15.55487,6.10471c8.09135,0 15.78643,-4.78778 22.74934,-13.41463c4.25953,8.62686 8.96693,13.41463 13.91666,13.41463c11.33816,0 21.4079,-25.13514 27.7336,-63.99384c2.1894,38.8587 5.67489,63.99384 9.6004,63.99384c6.627,0 12,-71.635 12,-160c0,-88.365 -5.373,-160 -12,-160c-3.92523,0 -7.41052,25.13166 -9.59994,63.98576c-6.32466,-38.8541 -16.39313,-63.98575 -27.73406,-63.98576l-36.666,0c-5.39448,0 -10.6128,2.1281 -15.55542,6.10317c-6.91969,-3.97507 23.10767,-6.10317 15.55543,-6.10317h-37.333c-5.39268,0 -10.65961,1.085 -15.75007,3.15265c-6.54482,-2.06765 -13.31654,-3.15265 -20.24993,-3.15265c0,0 -36.667,0 -36.667,0c-68.482,0 -124,71.635 -124,160z" fill="#f3f3f3"/><path d="M959.955,160l-0.045,160l-159.955,-0.045c0.026,-88.365 71.66,-159.981 160,-159.955zM960.045,480l0.045,-160l159.95,0.045c-0.02,88.365 -71.66,159.981 -159.995,159.955zM1120,319.955l-160,-0.045l0.045,-159.955c88.365,0.026 159.985,71.66 159.955,160zM800,320.045l160,0.045l-0.045,159.955c-88.365,-0.026 -159.981,-71.66 -159.955,-160z" fill="#121212"/><path d="M1280,800c0,88.365 -55.52,160 -124,160c-6.85005,0 -13.57043,-0.71678 -20.11853,-2.09539c-5.38695,1.37861 -10.91578,2.09539 -16.55147,2.09539c-6.93276,0 -13.70405,-1.08507 -20.2486,-3.15286c-5.09091,2.06779 -10.3583,3.15286 -15.7514,3.15286c-7.55076,0 -14.85526,-2.12794 -21.77409,-6.10273c-4.9428,3.97478 -10.16127,6.10273 -15.55591,6.10273c-8.09205,0 -15.78755,-4.788 -22.75067,-13.41523c-4.26018,8.62724 -8.96844,13.41523 -13.91933,13.41523c-11.33844,0 -21.40585,-25.13112 -27.73013,-63.98452c-2.18943,38.8534 -5.67468,63.98452 -9.59987,63.98452c-6.627,0 -12,-71.635 -12,-160c0,-88.365 5.373,-160 12,-160c3.92546,0 7.41093,25.13461 9.60033,63.99261c6.32532,-38.858 16.394,-63.99261 27.72967,-63.99261c4.95089,0 9.65915,4.788 13.91933,13.41523c6.96312,-8.62724 14.65862,-13.41523 22.75067,-13.41523c5.39344,0 10.61129,2.12837 15.55384,6.10391c6.91944,-3.97555 14.22465,-6.10391 21.77616,-6.10391c5.39231,0 10.65918,1.08525 15.7498,3.15336c6.54505,-2.06811 13.31688,-3.15336 20.2502,-3.15336c5.63354,0 11.16047,0.71649 16.54575,2.09454c6.54666,-1.37806 13.26559,-2.09454 20.11425,-2.09454c68.49,0 124.01,71.635 124.01,160zM640,800c0,-88.365 55.518,-160 124,-160c6.84973,0 13.56976,0.71667 20.11751,2.09507c5.38637,-1.3784 10.91454,-2.09507 16.54949,-2.09507c6.93339,0 13.70511,1.085 20.24993,3.15265c5.09046,-2.06765 10.35739,-3.15265 15.75007,-3.15265c7.55224,0 14.85788,2.1281 21.77757,6.10317c4.94262,-3.97507 10.16094,-6.10317 15.55543,-6.10317c8.09135,0 15.78643,4.78778 22.74934,13.41463c4.25953,-8.62686 8.96693,-13.41463 13.91666,-13.41463c11.34093,0 21.4094,25.13166 27.73406,63.98576c2.18942,-38.8541 5.67471,-63.98576 9.59994,-63.98576c6.627,0 12,71.635 12,160c0,88.365 -5.373,160 -12,160c-3.9255,0 -7.411,-25.13514 -9.6004,-63.99384c-6.3257,38.8587 -16.39544,63.99384 -27.7336,63.99384c-4.94974,0 -9.65713,-4.78778 -13.91666,-13.41463c-6.96291,8.62686 -14.65799,13.41463 -22.74934,13.41463c-5.39398,0 -10.61216,-2.12865 -15.55487,-6.10471c-6.92007,3.97606 -14.22595,6.10471 -21.77813,6.10471c-5.3915,0 -10.65748,-1.08487 -15.74718,-3.15228c-6.5439,2.06741 -13.31458,3.15228 -20.24682,3.15228c-5.63452,0 -11.16245,-0.71674 -16.54873,-2.09526c-6.54794,1.37853 -13.26822,2.09526 -20.11827,2.09526c-68.481,0 -124.006,-71.635 -124.006,-160zM938.40006,703.98576c4.35332,26.74365 6.93294,59.98858 6.93294,96.01424c0,-36.02566 -2.57962,-69.2706 -6.93294,-96.01424zM945.333,800c0,36.02203 -2.58009,69.26389 -6.9334,96.00616c4.3533,-26.74226 6.9334,-59.98412 6.9334,-96.00616z" fill="#000000"/></g></svg>