<svg xmlns="http://www.w3.org/2000/svg" width="1920" height="960" viewBox="0 0 1920 960"><g xmlns="http://www.w3.org/2000/svg" fill="none" fill-rule="none" stroke="none" stroke-width="1" stroke-linecap="butt" stroke-linejoin="miter" stroke-miterlimit="10" stroke-dasharray="" stroke-dashoffset="0" font-family="none" font-weight="none" font-size="none" text-anchor="none" style="mix-blend-mode: normal"><path d="M1920,320v320l-160,160l160,160h-640v-320l160,160l160,-160l-160,-160l-160,160v-640.00001l320,0.00004l-160,159.99997l320,320zM1920,0.00004v319.99996h-320v-320l160,160zM640,640v320h-320l-160,-160l-160,160l0,-320h0l0.00003,-320l159.99997,160l160,-160v320l160,160zM640,640h-320l160,-160l-160,-160h-320l0.00003,-320l159.99997,160l160,-159.99996v-0.00004l160,160l160,-159.99996z" fill="#121212" fill-rule="evenodd"/><path d="M1760,480l-160,-160h320zM1760,800l160,-160v320zM1920,0v0.00004l-160,159.99996l-160,-160zM480,800l-160,-160h320zM480,480l-160,160v-320zM972,0c-6.627,0 -12,71.6352 -12,160c0,88.365 5.373,160 12,160c0,0 -8.09205,0 0,0h-12v320c0,0 -49.334,0 -49.334,0c-4.94974,0 -9.65713,4.78778 -13.91666,13.41463c-6.96291,-8.62686 -14.65799,-13.41463 -22.74934,-13.41463c8.09135,0 15.78643,-4.78778 22.74934,-13.41463c4.25953,8.62686 8.96693,13.41463 13.91666,13.41463c11.33816,0 21.4079,-25.13514 27.7336,-63.99384c2.1894,38.8587 5.67489,63.99384 9.6004,63.99384c6.627,0 12,-71.635 12,-160c0,-88.365 -5.373,-160 -12,-160c-3.92523,0 -7.41052,25.13166 -9.59994,63.98576c-6.32466,-38.8541 -16.39313,-63.98575 -27.73406,-63.98576c0,0 0,0 0,0l-36.666,0c0,0 0,0 0,0c0,0 0,0 0,0c0,0 0,0 0,0c-5.39448,0 -10.6128,2.1281 -15.55542,6.10317c-6.91969,-3.97507 -14.22533,-6.10316 -21.77757,-6.10317c0,0 0,0 0,0c0,0 0,0 0,0c-5.39268,0 -10.65961,1.085 -15.75007,3.15265c-6.54482,-2.06765 -13.31654,-3.15265 -20.24993,-3.15265c0,0 0,0 0,0c0,0 0,0 0,0c0,0 0,0 0,0c-0.33083,0 -21.09558,0 0,0c-5.63496,0 -11.16312,0.71667 -16.54949,2.09507c-6.54775,-1.3784 -20.1175,-2.09507 -20.11751,-2.09507h0c-68.482,0 -124,71.635 -124,160v-479.99995l-160,159.99996l-160,-160zM836.667,640c-5.39268,0 -10.65961,1.085 -15.75007,3.15265c-6.54483,-2.06765 -13.31655,-3.15265 -20.24993,-3.15265h-36.667c-68.482,0 -124,71.635 -124,160v-160c0,0 0,-160 0,-160c0,88.365 55.525,160 124.006,160c6.85005,0 13.57034,-0.71674 20.11827,-2.09526c5.38628,1.37853 10.9142,2.09526 16.54873,2.09526c6.93224,0 13.70292,-1.08487 20.24682,-3.15228c5.0897,2.06741 10.35568,3.15228 15.74718,3.15228c7.55219,0 14.85806,-2.12865 21.77813,-6.10471c4.94271,3.97606 10.16089,6.10471 15.55486,6.10471c0,0 -37.333,0 -37.333,0zM972,320h37.33c-11.33567,0 -21.40435,25.13461 -27.72967,63.99261c-2.1894,-38.85799 -5.67487,-63.9926 -9.60033,-63.99261zM1009.33,0c-11.33567,0 -21.40435,25.13468 -27.72967,63.99269c-2.1894,-38.85801 -5.67487,-63.99269 -9.60033,-63.99269zM1046,0c-8.09205,0 -15.78755,4.78801 -22.75067,13.41526c-4.26018,-8.62725 -8.96844,-13.41526 -13.91933,-13.41526zM1083.33,0c-7.55151,0 -14.85671,2.12837 -21.77616,6.10393c-4.94254,-3.97556 -10.1604,-6.10393 -15.55384,-6.10393zM1119.33,0c-6.93332,0 -13.70515,1.08525 -20.2502,3.15337c-5.09062,-2.06812 -10.35749,-3.15337 -15.7498,-3.15337zM1155.99,0c-6.84866,0 -13.56759,0.71649 -20.11425,2.09455c-5.38528,-1.37806 -10.9122,-2.09455 -16.54575,-2.09455zM1023.24933,333.41523c-4.26018,-8.62724 -8.96844,-13.41523 -13.91933,-13.41523c0,0 36.66127,0 36.67,0c-8.09205,0 -15.78755,4.788 -22.75067,13.41523zM1083.33,320c-7.55151,0 -14.85671,2.12837 -21.77616,6.10391c-4.94254,-3.97555 -10.1604,-6.10391 -15.55384,-6.10391c5.648,0 37.33,0 37.33,0zM1083.33,320c-6.93276,0 36,0 36,0c-6.93332,0 -13.70515,1.08525 -20.2502,3.15336c-5.09062,-2.06811 -10.35749,-3.15336 -15.7498,-3.15336zM1119.33,320c0.00612,0 36.66,0 36.66,0c-6.84866,0 -13.56759,0.71649 -20.11425,2.09454c-5.38528,-1.37806 -10.9122,-2.09454 -16.54575,-2.09454zM1440,480l160,160l-160,160l-160,-160zM1440,160l160,-159.99997l-213.33359,-0.00003h213.33359v320zM160,800l160,160h-320zM0,320h320l-160,160l-159.99997,-160l-0.00003,320zM764.006,320c0,0 0,0 0,0c0,0 -5.3915,0 0,0zM874,320l0,0c12.79587,0 25.31466,0 36.666,0c-4.94974,0 -9.65713,4.78778 -13.91666,13.41463c-6.96291,-8.62686 -14.65799,-13.41463 -22.74933,-13.41463zM836.667,320c0,0 0,0 0,0c0,0 0,0 0,0c0,0 0,0 0,0c12.15941,0 24.87747,0 37.333,0c0,0 -37.32307,0 -37.333,0zM910.666,320c0,0 0.00695,0 0,0zM0,0h320v0.00004l-160,159.99996l-159.99997,-160l-0.00003,320z" fill="#ff4f00" fill-rule="nonzero"/><path d="M1280,160c0,88.365 -55.52,160 -124,160c-6.85005,0 -13.57043,-0.71678 -20.11853,-2.09539c-5.38695,1.37861 -10.91578,2.09539 -16.55147,2.09539c-6.93276,0 -13.70405,-1.08507 -20.2486,-3.15286c-5.09091,2.06779 -10.3583,3.15286 -15.7514,3.15286c-7.55076,0 -14.85526,-2.12794 -21.77409,-6.10273c-4.9428,3.97478 -10.16127,6.10273 -15.55591,6.10273c-8.09205,0 -15.78755,-4.788 -22.75067,-13.41523c-4.26018,8.62724 -8.96844,13.41523 -13.91933,13.41523c-11.33844,0 -21.40585,-25.13112 -27.73013,-63.98452c-2.18943,38.8534 -5.67468,63.98452 -9.59987,63.98452c-6.627,0 -12,-71.635 -12,-160c0,-88.3648 5.373,-160 12,-160c3.92546,0 7.41093,25.13468 9.60033,63.99269c6.32532,-38.85801 16.394,-63.99269 27.72967,-63.99269c4.95089,0 9.65915,4.78801 13.91933,13.41526c6.96312,-8.62725 14.65862,-13.41526 22.75067,-13.41526c5.39344,0 10.61129,2.12837 15.55384,6.10393c6.91944,-3.97556 14.22465,-6.10393 21.77616,-6.10393c5.39231,0 10.65918,1.08525 15.7498,3.15337c6.54505,-2.06812 13.31688,-3.15337 20.2502,-3.15337c5.63354,0 11.16047,0.71649 16.54575,2.09455c6.54666,-1.37806 13.26559,-2.09455 20.11425,-2.09455c68.49,0 124.01,71.6352 124.01,160zM1280,800c0,88.365 -55.52,160 -124,160c-6.85005,0 -13.57043,-0.71678 -20.11853,-2.09539c-5.38695,1.37861 -10.91578,2.09539 -16.55147,2.09539c-6.93276,0 -13.70405,-1.08507 -20.2486,-3.15286c-5.09091,2.06779 -10.3583,3.15286 -15.7514,3.15286c-7.55076,0 -14.85526,-2.12794 -21.77409,-6.10273c-4.9428,3.97478 -10.16127,6.10273 -15.55591,6.10273c-8.09205,0 -15.78755,-4.788 -22.75067,-13.41523c-4.26018,8.62724 -8.96844,13.41523 -13.91933,13.41523c-11.33844,0 -21.40585,-25.13112 -27.73013,-63.98452c-2.18943,38.8534 -5.67468,63.98452 -9.59987,63.98452c-6.627,0 -12,-71.635 -12,-160c0,-88.365 5.373,-160 12,-160c3.92546,0 7.41093,25.13461 9.60033,63.99261c6.32532,-38.858 16.394,-63.99261 27.72967,-63.99261c4.95089,0 9.65915,4.788 13.91933,13.41523c6.96312,-8.62724 14.65862,-13.41523 22.75067,-13.41523c5.39344,0 10.61129,2.12837 15.55384,6.10391c6.91944,-3.97555 14.22465,-6.10391 21.77616,-6.10391c5.39231,0 10.65918,1.08525 15.7498,3.15336c6.54505,-2.06811 13.31688,-3.15336 20.2502,-3.15336c5.63354,0 11.16047,0.71649 16.54575,2.09454c6.54666,-1.37806 13.26559,-2.09454 20.11425,-2.09454c68.49,0 124.01,71.635 124.01,160zM1280,480c0,88.365 -55.52,160 -124,160c-6.85005,0 -13.57043,-0.71678 -20.11853,-2.09539c-5.38695,1.37861 -10.91578,2.09539 -16.55147,2.09539c-6.93276,0 -13.70405,-1.08507 -20.2486,-3.15286c-5.09091,2.06779 -10.3583,3.15286 -15.7514,3.15286c-7.55076,0 -14.85526,-2.12794 -21.77409,-6.10273c-4.9428,3.97478 -10.16127,6.10273 -15.55591,6.10273c-8.09205,0 -15.78755,-4.788 -22.75067,-13.41523c-4.26018,8.62724 -8.96844,13.41523 -13.91933,13.41523c-11.33844,0 -21.40585,-25.13112 -27.73013,-63.98452c-2.18943,38.8534 -5.67468,63.98452 -9.59987,63.98452c-6.627,0 -12,-71.635 -12,-160c0,-88.365 5.373,-160 12,-160c3.92546,0 7.41093,25.13461 9.60033,63.99261c6.32532,-38.858 16.394,-63.99261 27.72967,-63.99261c4.95089,0 9.65915,4.788 13.91933,13.41523c6.96312,-8.62724 14.65862,-13.41523 22.75067,-13.41523c5.39344,0 10.61129,2.12837 15.55384,6.10391c6.91944,-3.97555 14.22465,-6.10391 21.77616,-6.10391c5.39231,0 10.65918,1.08525 15.7498,3.15336c6.54505,-2.06811 13.31688,-3.15336 20.2502,-3.15336c5.63354,0 11.16047,0.71649 16.54575,2.09454c6.54666,-1.37806 13.26559,-2.09454 20.11425,-2.09454c68.49,0 124.01,71.635 124.01,160zM640,160c0,-88.3648 55.518,-159.99999 124,-159.99999c6.84973,0 13.56976,0.71667 20.11751,2.09507c5.38637,-1.3784 10.91454,-2.09507 16.54949,-2.09507c6.93339,0 13.70511,1.085 20.24993,3.15266c5.09046,-2.06766 10.35739,-3.15266 15.75007,-3.15266c7.55224,0 14.85789,2.12811 21.77757,6.10318c4.94262,-3.97507 10.16094,-6.10318 15.55543,-6.10318c8.09135,0 15.78643,4.78779 22.74934,13.41466c4.25953,-8.62688 8.96693,-13.41466 13.91666,-13.41466c11.34093,0 21.4094,25.13173 27.73406,63.98584c2.18942,-38.85412 5.67471,-63.98584 9.59994,-63.98584c6.627,0 12,71.6352 12,160c0,88.365 -5.373,160 -12,160c-3.9255,0 -7.411,-25.13514 -9.6004,-63.99384c-6.3257,38.8587 -16.39544,63.99384 -27.7336,63.99384c-4.94974,0 -9.65713,-4.78778 -13.91666,-13.41463c-6.96291,8.62686 -14.65799,13.41463 -22.74934,13.41463c-5.39398,0 -10.61216,-2.12865 -15.55487,-6.10471c-6.92007,3.97606 -14.22595,6.10471 -21.77813,6.10471c-5.3915,0 -10.65748,-1.08487 -15.74718,-3.15228c-6.5439,2.06741 -13.31458,3.15228 -20.24682,3.15228c-5.63452,0 -11.16245,-0.71674 -16.54873,-2.09526c-6.54794,1.37853 -13.26822,2.09526 -20.11827,2.09526c-68.481,0 -124.006,-71.635 -124.006,-160c0,0 0,0 0,0zM640,480c0,-88.365 55.518,-160 124,-160c6.84973,0 13.56976,0.71667 20.11751,2.09507c5.38637,-1.3784 10.91454,-2.09507 16.54949,-2.09507c6.93339,0 13.70511,1.085 20.24993,3.15265c5.09046,-2.06765 10.35739,-3.15265 15.75007,-3.15265c7.55224,0 14.85788,2.1281 21.77757,6.10317c4.94262,-3.97507 10.16094,-6.10317 15.55543,-6.10317c8.09135,0 15.78643,4.78778 22.74934,13.41463c4.25953,-8.62686 8.96693,-13.41463 13.91666,-13.41463c11.34093,0 21.4094,25.13166 27.73406,63.98576c2.18942,-38.8541 5.67471,-63.98576 9.59994,-63.98576c6.627,0 12,71.635 12,160c0,88.365 -5.373,160 -12,160c-3.9255,0 -7.411,-25.13514 -9.6004,-63.99384c-6.3257,38.8587 -16.39544,63.99384 -27.7336,63.99384c-4.94974,0 -9.65713,-4.78778 -13.91666,-13.41463c-6.96291,8.62686 -14.65799,13.41463 -22.74934,13.41463c-5.39398,0 -10.61216,-2.12865 -15.55487,-6.10471c-6.92007,3.97606 -14.22595,6.10471 -21.77813,6.10471c-5.3915,0 -10.65748,-1.08487 -15.74718,-3.15228c-6.5439,2.06741 -13.31458,3.15228 -20.24682,3.15228c-5.63452,0 -11.16245,-0.71674 -16.54873,-2.09526c-6.54794,1.37853 -13.26822,2.09526 -20.11827,2.09526c-68.481,0 -124.006,-71.635 -124.006,-160c0,0 0,0 0,0zM640,800c0,-88.365 55.518,-160 124,-160c6.84973,0 13.56976,0.71667 20.11751,2.09507c5.38637,-1.3784 10.91454,-2.09507 16.54949,-2.09507c6.93339,0 13.70511,1.085 20.24993,3.15265c5.09046,-2.06765 10.35739,-3.15265 15.75007,-3.15265c7.55224,0 14.85788,2.1281 21.77757,6.10317c4.94262,-3.97507 10.16094,-6.10317 15.55543,-6.10317c8.09135,0 15.78643,4.78778 22.74934,13.41463c4.25953,-8.62686 8.96693,-13.41463 13.91666,-13.41463c11.34093,0 21.4094,25.13166 27.73406,63.98576c2.18942,-38.8541 5.67471,-63.98576 9.59994,-63.98576c6.627,0 12,71.635 12,160c0,88.365 -5.373,160 -12,160c-3.9255,0 -7.411,-25.13514 -9.6004,-63.99384c-6.3257,38.8587 -16.39544,63.99384 -27.7336,63.99384c-4.94974,0 -9.65713,-4.78778 -13.91666,-13.41463c-6.96291,8.62686 -14.65799,13.41463 -22.74934,13.41463c-5.39398,0 -10.61216,-2.12865 -15.55487,-6.10471c-6.92007,3.97606 -14.22595,6.10471 -21.77813,6.10471c-5.3915,0 -10.65748,-1.08487 -15.74718,-3.15228c-6.5439,2.06741 -13.31458,3.15228 -20.24682,3.15228c-5.63452,0 -11.16245,-0.71674 -16.54873,-2.09526c-6.54794,1.37853 -13.26822,2.09526 -20.11827,2.09526c-68.481,0 -124.006,-71.635 -124.006,-160zM938.40006,703.98576c4.35332,26.74365 6.93294,59.98858 6.93294,96.01424c0,-36.02566 -2.57962,-69.2706 -6.93294,-96.01424zM945.333,800c0,36.02203 -2.58009,69.26389 -6.9334,96.00616c4.3533,-26.74226 6.9334,-59.98412 6.9334,-96.00616z" fill="#000000" fill-rule="nonzero"/></g></svg>