<svg xmlns="http://www.w3.org/2000/svg" width="1920" height="960" viewBox="0 0 1920 960"><g xmlns="http://www.w3.org/2000/svg" fill="none" fill-rule="nonzero" stroke="none" stroke-width="1" stroke-linecap="butt" stroke-linejoin="miter" stroke-miterlimit="10" stroke-dasharray="" stroke-dashoffset="0" font-family="none" font-weight="none" font-size="none" text-anchor="none" style="mix-blend-mode: normal"><path d="M1834.13,533.3333c-29.45517,0 -53.3333,-23.87813 -53.3333,-53.3333c0,-29.45517 23.87813,-53.3333 53.3333,-53.3333c29.45517,0 53.3333,23.87813 53.3333,53.3333c0,29.45517 -23.87813,53.3333 -53.3333,53.3333zM1680,560h160c44.18,0 80,-35.817 80,-80c0,-44.183 -35.82,-80 -80,-80h-160c-44.18,0 -80,35.817 -80,80c0,44.183 35.82,80 80,80zM1680,240h160c44.18,0 80,-35.817 80,-80c0,-44.183 -35.82,-80 -80,-80h-160c-44.18,0 -80,35.817 -80,80c0,44.183 35.82,80 80,80zM1920,0v960h-1920v-960zM400,240h160c44.183,0 80,-35.817 80,-80c0,-44.183 -35.817,-80 -80,-80h-160c-44.183,0 -80,35.817 -80,80v0c0,44.183 35.817,80 80,80zM400,880h160c44.183,0 80,-35.817 80,-80c0,-44.183 -35.817,-80 -80,-80h-160c-44.183,0 -80,35.817 -80,80c0,44.183 35.817,80 80,80zM400,560h160c44.183,0 80,-35.817 80,-80c0,-44.183 -35.817,-80 -80,-80h-160c-44.183,0 -80,35.817 -80,80c0,44.183 35.817,80 80,80zM1040,240h160c44.18,0 80,-35.817 80,-80c0,-44.183 -35.82,-80 -80,-80h-160c-44.183,0 -80,35.817 -80,80c0,44.183 35.817,80 80,80zM1040,880h160c44.18,0 80,-35.817 80,-80c0,-44.183 -35.82,-80 -80,-80h-160c-44.183,0 -80,35.817 -80,80c0,44.183 35.817,80 80,80zM1040,560h160c44.18,0 80,-35.817 80,-80c0,-44.183 -35.82,-80 -80,-80h-160c-44.183,0 -80,35.817 -80,80c0,44.183 35.817,80 80,80zM1680,880h160c44.18,0 80,-35.817 80,-80c0,-44.183 -35.82,-80 -80,-80h-160c-44.18,0 -80,35.817 -80,80c0,44.183 35.82,80 80,80zM1760,853.3333c-29.45517,0 -53.3333,-23.87813 -53.3333,-53.3333c0,-29.45517 23.87813,-53.3333 53.3333,-53.3333c29.45517,0 53.3333,23.87813 53.3333,53.3333c0,29.45517 -23.87813,53.3333 -53.3333,53.3333zM554.133,213.3333c-29.45517,0 -53.3333,-23.87813 -53.3333,-53.3333c0,-29.45517 23.87813,-53.3333 53.3333,-53.3333c29.45517,0 53.3333,23.87813 53.3333,53.3333c0,29.45517 -23.87813,53.3333 -53.3333,53.3333zM1520,480c0,-44.18278 -35.81722,-80 -80,-80c-44.18278,0 -80,35.81722 -80,80c0,44.18278 35.81722,80 80,80c44.18278,0 80,-35.81722 80,-80zM1520,800c0,-44.18278 -35.81722,-80 -80,-80c-44.18278,0 -80,35.81722 -80,80c0,44.18278 35.81722,80 80,80c44.18278,0 80,-35.81722 80,-80zM1520,160c0,-44.18278 -35.81722,-80 -80,-80c-44.18278,0 -80,35.81722 -80,80c0,44.18278 35.81722,80 80,80c44.18278,0 80,-35.81722 80,-80zM880,480c0,-44.18278 -35.81722,-80 -80,-80c-44.18278,0 -80,35.81722 -80,80c0,44.18278 35.81722,80 80,80c44.18278,0 80,-35.81722 80,-80zM880,800c0,-44.18278 -35.81722,-80 -80,-80c-44.18278,0 -80,35.81722 -80,80c0,44.18278 35.81722,80 80,80c44.18278,0 80,-35.81722 80,-80zM880,160c0,-44.18278 -35.81722,-80 -80,-80c-44.18278,0 -80,35.81722 -80,80c0,44.18278 35.81722,80 80,80c44.18278,0 80,-35.81722 80,-80zM240,480c0,-44.18278 -35.81722,-80 -80,-80c-44.18278,0 -80,35.81722 -80,80c0,44.18278 35.81722,80 80,80c44.18278,0 80,-35.81722 80,-80zM240,800c0,-44.18278 -35.81722,-80 -80,-80c-44.18278,0 -80,35.81722 -80,80c0,44.18278 35.81722,80 80,80c44.18278,0 80,-35.81722 80,-80zM240,160c0,-44.18278 -35.81722,-80 -80,-80c-44.18278,0 -80,35.81722 -80,80c0,44.18278 35.81722,80 80,80c44.18278,0 80,-35.81722 80,-80z" fill="#121212"/><path d="M1680,560c-44.18,0 -80,-35.817 -80,-80c0,-44.183 35.82,-80 80,-80h160c44.18,0 80,35.817 80,80c0,44.183 -35.82,80 -80,80zM1887.4633,480c0,-29.45517 -23.87813,-53.3333 -53.3333,-53.3333c-29.45517,0 -53.3333,23.87813 -53.3333,53.3333c0,29.45517 23.87813,53.3333 53.3333,53.3333c29.45517,0 53.3333,-23.87813 53.3333,-53.3333zM1680,880c-44.18,0 -80,-35.817 -80,-80c0,-44.183 35.82,-80 80,-80h160c44.18,0 80,35.817 80,80c0,44.183 -35.82,80 -80,80zM1813.3333,800c0,-29.45517 -23.87813,-53.3333 -53.3333,-53.3333c-29.45517,0 -53.3333,23.87813 -53.3333,53.3333c0,29.45517 23.87813,53.3333 53.3333,53.3333c29.45517,0 53.3333,-23.87813 53.3333,-53.3333zM1680,240c-44.18,0 -80,-35.817 -80,-80c0,-44.183 35.82,-80 80,-80h160c44.18,0 80,35.817 80,80c0,44.183 -35.82,80 -80,80zM1040,560c-44.183,0 -80,-35.817 -80,-80c0,-44.183 35.817,-80 80,-80h160c44.18,0 80,35.817 80,80c0,44.183 -35.82,80 -80,80zM1040,880c-44.183,0 -80,-35.817 -80,-80c0,-44.183 35.817,-80 80,-80h160c44.18,0 80,35.817 80,80c0,44.183 -35.82,80 -80,80zM1040,240c-44.183,0 -80,-35.817 -80,-80c0,-44.183 35.817,-80 80,-80h160c44.18,0 80,35.817 80,80c0,44.183 -35.82,80 -80,80zM1173.3333,160c0,-29.45517 -23.87813,-53.3333 -53.3333,-53.3333c-29.45517,0 -53.3333,23.87813 -53.3333,53.3333c0,29.45517 23.87813,53.3333 53.3333,53.3333c29.45517,0 53.3333,-23.87813 53.3333,-53.3333zM400,560c-44.183,0 -80,-35.817 -80,-80c0,-44.183 35.817,-80 80,-80h160c44.183,0 80,35.817 80,80c0,44.183 -35.817,80 -80,80zM400,880c-44.183,0 -80,-35.817 -80,-80c0,-44.183 35.817,-80 80,-80h160c44.183,0 80,35.817 80,80c0,44.183 -35.817,80 -80,80zM607.4663,800c0,-29.45517 -23.87813,-53.3333 -53.3333,-53.3333c-29.45517,0 -53.3333,23.87813 -53.3333,53.3333c0,29.45517 23.87813,53.3333 53.3333,53.3333c29.45517,0 53.3333,-23.87813 53.3333,-53.3333zM400,240c-44.183,0 -80,-35.817 -80,-80c0,-44.183 35.817,-80 80,-80h160c44.183,0 80,35.817 80,80c0,44.183 -35.817,80 -80,80zM607.4663,160c0,-29.45517 -23.87813,-53.3333 -53.3333,-53.3333c-29.45517,0 -53.3333,23.87813 -53.3333,53.3333c0,29.45517 23.87813,53.3333 53.3333,53.3333c29.45517,0 53.3333,-23.87813 53.3333,-53.3333zM1440,560c-44.18278,0 -80,-35.81722 -80,-80c0,-44.18278 35.81722,-80 80,-80c44.18278,0 80,35.81722 80,80c0,44.18278 -35.81722,80 -80,80zM1440,880c-44.18278,0 -80,-35.81722 -80,-80c0,-44.18278 35.81722,-80 80,-80c44.18278,0 80,35.81722 80,80c0,44.18278 -35.81722,80 -80,80zM1440,240c-44.18278,0 -80,-35.81722 -80,-80c0,-44.18278 35.81722,-80 80,-80c44.18278,0 80,35.81722 80,80c0,44.18278 -35.81722,80 -80,80zM800,560c-44.18278,0 -80,-35.81722 -80,-80c0,-44.18278 35.81722,-80 80,-80c44.18278,0 80,35.81722 80,80c0,44.18278 -35.81722,80 -80,80zM800,880c-44.18278,0 -80,-35.81722 -80,-80c0,-44.18278 35.81722,-80 80,-80c44.18278,0 80,35.81722 80,80c0,44.18278 -35.81722,80 -80,80zM800,240c-44.18278,0 -80,-35.81722 -80,-80c0,-44.18278 35.81722,-80 80,-80c44.18278,0 80,35.81722 80,80c0,44.18278 -35.81722,80 -80,80zM160,560c-44.18278,0 -80,-35.81722 -80,-80c0,-44.18278 35.81722,-80 80,-80c44.18278,0 80,35.81722 80,80c0,44.18278 -35.81722,80 -80,80zM160,880c-44.18278,0 -80,-35.81722 -80,-80c0,-44.18278 35.81722,-80 80,-80c44.18278,0 80,35.81722 80,80c0,44.18278 -35.81722,80 -80,80zM160,240c-44.18278,0 -80,-35.81722 -80,-80c0,-44.18278 35.81722,-80 80,-80c44.18278,0 80,35.81722 80,80c0,44.18278 -35.81722,80 -80,80z" fill="#f3f3f3"/><path d="M1120,213.3333c-29.45517,0 -53.3333,-23.87813 -53.3333,-53.3333c0,-29.45517 23.87813,-53.3333 53.3333,-53.3333c29.45517,0 53.3333,23.87813 53.3333,53.3333c0,29.45517 -23.87813,53.3333 -53.3333,53.3333zM554.133,853.3333c-29.45517,0 -53.3333,-23.87813 -53.3333,-53.3333c0,-29.45517 23.87813,-53.3333 53.3333,-53.3333c29.45517,0 53.3333,23.87813 53.3333,53.3333c0,29.45517 -23.87813,53.3333 -53.3333,53.3333z" fill="#ff4f00"/></g></svg>