<svg xmlns="http://www.w3.org/2000/svg" width="1920" height="960" viewBox="0 0 1920 960"><g xmlns="http://www.w3.org/2000/svg" fill="none" fill-rule="nonzero" stroke="none" stroke-width="1" stroke-linecap="butt" stroke-linejoin="miter" stroke-miterlimit="10" stroke-dasharray="" stroke-dashoffset="0" font-family="none" font-weight="none" font-size="none" text-anchor="none" style="mix-blend-mode: normal"><path d="M1600,640v-320h320v320zM1840,800.533c0,29.457 -23.88,53.334 -53.33,53.334v53.333c-58.91,0 -106.67,-47.757 -106.67,-106.667c0,-58.91 47.76,-106.666 106.67,-106.666v53.333c29.45,0 53.33,23.876 53.33,53.333zM1200,800.533c0,29.457 -23.88,53.334 -53.33,53.334v53.333c-58.91,0 -106.67,-47.757 -106.67,-106.667c0,-58.91 47.76,-106.666 106.67,-106.666v53.333c29.45,0 53.33,23.876 53.33,53.333zM480.534,720c29.457,0 53.333,23.876 53.333,53.333h53.333c0,58.91 -47.757,106.667 -106.666,106.667c-58.91,0 -106.667,-47.757 -106.667,-106.667h53.333c0,-29.457 23.876,-53.333 53.334,-53.333zM1759.47,240c-29.46,0 -53.34,-23.876 -53.34,-53.333h-53.33c0,-58.91 47.76,-106.667 106.67,-106.667c58.91,0 106.66,47.757 106.66,106.667h-53.33c0,29.457 -23.88,53.333 -53.33,53.333zM1120.53,80c29.46,0 53.34,23.876 53.34,53.333h53.33c0,58.91 -47.76,106.667 -106.67,106.667c-58.91,0 -106.66,-47.757 -106.66,-106.667h53.33c0,-29.457 23.88,-53.333 53.33,-53.333zM479.466,240c-29.457,0 -53.333,-23.876 -53.333,-53.333h-53.333c0,-58.91 47.757,-106.667 106.666,-106.667c58.91,0 106.667,47.757 106.667,106.667h-53.333c0,29.457 -23.876,53.333 -53.334,53.333zM1280,480c0,-88.269 -71.48,-159.843 -159.71,-160h159.71v320h-159.73c88.24,-0.144 159.73,-71.723 159.73,-160zM1118.34,320.008l-0.11,0.001l-0.11,0.002c-87.5,1.009 -158.12,72.252 -158.12,159.989c0,87.758 70.65,159.014 158.18,159.99c0.05,0.001 0.1,0.001 0.15,0.002c0.31,0.005 0.63,0.008 0.94,0.008h-799.27v-320h799.27c-0.31,0 -0.62,0.003 -0.93,0.008zM1520,480.533c0,29.457 -23.88,53.334 -53.33,53.334v53.333c-58.91,0 -106.67,-47.757 -106.67,-106.667c0,-58.91 47.76,-106.666 106.67,-106.666v53.333c29.45,0 53.33,23.876 53.33,53.333zM1387.2,773.333h-53.33c0,58.91 47.75,106.667 106.66,106.667c58.91,0 106.67,-47.757 106.67,-106.667h-53.33c0,-29.457 -23.88,-53.333 -53.34,-53.333c-29.45,0 -53.33,23.876 -53.33,53.333zM1600,960h-320v-320h320zM1280,0h320v320l-320,0zM852.8,506.667h53.333c0,-58.91 -47.757,-106.667 -106.667,-106.667c-58.909,0 -106.666,47.757 -106.666,106.667h53.333c0,29.457 23.876,53.333 53.333,53.333c29.458,0 53.334,-23.876 53.334,-53.333zM880,800.533c0,29.457 -23.876,53.334 -53.333,53.334v53.333c-58.91,0 -106.667,-47.757 -106.667,-106.667c0,-58.91 47.757,-106.666 106.667,-106.666v53.333c29.457,0 53.333,23.876 53.333,53.333zM880,160.533c0,29.457 -23.876,53.334 -53.333,53.334v53.333c-58.91,0 -106.667,-47.757 -106.667,-106.667c0,-58.91 47.757,-106.6663 106.667,-106.6663v53.3333c29.457,0 53.333,23.876 53.333,53.333zM240,480.533c0,29.457 -23.876,53.334 -53.333,53.334v53.333c-58.91,0 -106.667,-47.757 -106.667,-106.667c0,-58.91 47.757,-106.666 106.667,-106.666v53.333c29.457,0 53.333,23.876 53.333,53.333zM0,960v-320h320v320zM0,0h320v320l-320,0zM160.534,80c-29.458,0 -53.334,23.876 -53.334,53.333c0,-29.457 23.876,-53.333 53.334,-53.333z" fill="#121212"/><path d="M1600,960v-320h320v320zM1786.67,747.2v-53.333c-58.91,0 -106.67,47.756 -106.67,106.666c0,58.91 47.76,106.667 106.67,106.667v-53.333c29.45,0 53.33,-23.877 53.33,-53.334c0,-29.457 -23.88,-53.333 -53.33,-53.333zM960,960v-320h320v320zM1146.67,747.2v-53.333c-58.91,0 -106.67,47.756 -106.67,106.666c0,58.91 47.76,106.667 106.67,106.667v-53.333c29.45,0 53.33,-23.877 53.33,-53.334c0,-29.457 -23.88,-53.333 -53.33,-53.333zM320,960v-320h320v320zM427.2,773.333h-53.333c0,58.91 47.757,106.667 106.667,106.667c58.909,0 106.666,-47.757 106.666,-106.667h-53.333c0,-29.457 -23.876,-53.333 -53.333,-53.333c-29.458,0 -53.334,23.876 -53.334,53.333zM960,320v-320h320v320zM1067.2,133.333h-53.33c0,58.91 47.75,106.667 106.66,106.667c58.91,0 106.67,-47.757 106.67,-106.667h-53.33c0,-29.457 -23.88,-53.333 -53.34,-53.333c-29.45,0 -53.33,23.876 -53.33,53.333zM320,320v-320h320v320zM532.8,186.667h53.333c0,-58.91 -47.757,-106.667 -106.667,-106.667c-58.909,0 -106.666,47.757 -106.666,106.667h53.333c0,29.457 23.876,53.333 53.333,53.333c29.458,0 53.334,-23.876 53.334,-53.333z" fill="#ffa300"/><path d="M1600,0h320v320h-320zM1812.8,186.667h53.33c0,-58.91 -47.75,-106.667 -106.66,-106.667c-58.91,0 -106.67,47.757 -106.67,106.667h53.33c0,29.457 23.88,53.333 53.34,53.333c29.45,0 53.33,-23.876 53.33,-53.333zM1440.53,720c29.46,0 53.34,23.876 53.34,53.333h53.33c0,58.91 -47.76,106.667 -106.67,106.667c-58.91,0 -106.66,-47.757 -106.66,-106.667h53.33c0,-29.457 23.88,-53.333 53.33,-53.333zM799.466,560c-29.457,0 -53.333,-23.876 -53.333,-53.333h-53.333c0,-58.91 47.757,-106.667 106.666,-106.667c58.91,0 106.667,47.757 106.667,106.667h-53.333c0,29.457 -23.876,53.333 -53.334,53.333z" fill="#ff4f00"/><path d="M1118.18,639.99c-87.53,-0.976 -158.18,-72.232 -158.18,-159.99c0,-87.737 70.62,-158.98 158.12,-159.989l0.11,-0.002l0.11,-0.001c0.31,-0.005 0.62,-0.008 0.93,-0.008h1.02c88.23,0.157 159.71,71.731 159.71,160c0,88.277 -71.49,159.856 -159.73,160h-1c-0.31,0 -0.63,-0.003 -0.94,-0.008c-0.05,-0.001 -0.1,-0.001 -0.15,-0.002zM1125.25,480c0,-39.098 -1.1,-76.691 -3.11,-105.843c2.01,29.152 3.11,66.745 3.11,105.843zM1119.4,615.679c-0.9,-7.132 -1.85,-16.789 -2.75,-29.836c0.9,13.047 1.85,22.704 2.75,29.836zM1116.65,585.843c-2,-29.152 -3.1,-66.745 -3.1,-105.843c0,39.098 1.1,76.691 3.1,105.843zM1113.55,480c0,-39.098 1.1,-76.691 3.1,-105.843c-2,29.152 -3.1,66.745 -3.1,105.843zM1116.65,374.157c0.9,-13.047 1.85,-22.704 2.75,-29.836c-0.9,7.132 -1.85,16.789 -2.75,29.836zM1119.4,344.321c0.89,7.132 1.85,16.789 2.74,29.836c-0.89,-13.047 -1.85,-22.704 -2.74,-29.836zM1273.6,480c0,-48.013 -22.03,-90.882 -56.53,-119.048c34.5,28.166 56.53,71.035 56.53,119.048zM1217.07,599.048c29.59,-29.29 48.21,-71.775 48.21,-119.048c0,47.273 -18.62,89.758 -48.21,119.048zM1022.93,360.952c-34.5,28.167 -56.53,71.035 -56.53,119.048c0,-48.013 22.03,-90.881 56.53,-119.048zM974.72,480c0,47.273 18.615,89.758 48.21,119.048c-29.595,-29.29 -48.21,-71.775 -48.21,-119.048zM1022.93,599.048c-34.5,-28.166 -56.53,-71.034 -56.53,-119.048c0,48.014 22.03,90.882 56.53,119.048zM1123.74,329.58c4.75,22.335 8.14,81.253 8.14,150.42c0,-69.167 -3.39,-128.085 -8.14,-150.42zM1137.88,368.218c6.45,29.785 10,69.484 10,111.782c0,-42.298 -3.55,-81.997 -10,-111.782zM1147.88,480c0,42.298 -3.55,81.997 -10,111.782c6.45,-29.785 10,-69.484 10,-111.782zM1123.74,630.417c4.75,-22.337 8.14,-81.252 8.14,-150.417c0,69.165 -3.39,128.08 -8.14,150.417zM1105.92,333.076c-12.29,24.565 -20.89,81.103 -20.89,146.924c0,-65.821 8.6,-122.359 20.89,-146.924zM1085.03,480c0,65.821 8.6,122.359 20.89,146.924c-12.29,-24.565 -20.89,-81.103 -20.89,-146.924zM1105.92,626.924c-1.12,-1.076 -2.25,-2.282 -3.37,-3.615c1.12,1.333 2.25,2.539 3.37,3.615zM1085.61,590.995c-10.51,-29.549 -16.29,-68.966 -16.29,-110.995c0,42.029 5.78,81.446 16.29,110.995zM1069.32,480c0,-42.029 5.78,-81.446 16.29,-110.995c-10.51,29.549 -16.29,68.966 -16.29,110.995zM1170.16,369.702c14.52,29.357 22.51,68.525 22.51,110.298c0,-41.773 -7.99,-80.941 -22.51,-110.298zM1192.67,480c0,41.773 -7.99,80.947 -22.51,110.298c14.52,-29.351 22.51,-68.525 22.51,-110.298zM1144.33,624.392c19.13,-25.769 32.35,-80.74 32.35,-144.392c0,63.652 -13.22,118.623 -32.35,144.392zM1083.52606,622.10337c-25.38241,-26.64001 -42.73606,-80.27669 -42.73606,-142.10337c0,61.82668 17.35364,115.46336 42.73606,142.10337zM1053.14,589.715c-8.96,-14.144 -16.01,-30.662 -20.95,-49.088c4.94,18.426 11.99,34.944 20.95,49.088zM1053.14,370.298c8.83,-13.924 19.04,-24.818 30.36,-32.376c-11.32,7.558 -21.53,18.452 -30.36,32.376zM1083.5,337.922c-25.37,26.649 -42.71,80.271 -42.71,142.078c0,-61.807 17.34,-115.429 42.71,-142.078zM1083.53,622.106c-0.00131,-0.00088 -0.00263,-0.00175 -0.00394,-0.00263c0.00131,0.00088 0.00263,0.00175 0.00394,0.00263zM1083.54,622.118c-0.00465,-0.00488 -0.0093,-0.00975 -0.01394,-0.01463c0.00465,0.00488 0.0093,0.00976 0.01394,0.01463zM1170.2,618.539c39.39,-24.792 66.64,-77.574 66.64,-138.539c0,60.965 -27.25,113.747 -66.64,138.539zM1220.84,480c0,-59.189 -20.37,-110.873 -50.65,-138.549c30.28,27.676 50.65,79.36 50.65,138.549zM1170.19,341.451c39.39,24.789 66.65,77.576 66.65,138.549c0,-60.973 -27.26,-113.76 -66.65,-138.549zM995.916,480c0,-55.878 22.144,-105.066 55.684,-133.681c-33.54,28.615 -55.684,77.803 -55.684,133.681zM1051.62,613.692c-41.95,-26.295 -70.5,-76.068 -70.5,-133.692c0,57.624 28.55,107.397 70.5,133.692zM1101.55,591.782c4.58,21.138 9.56,32.132 13.26,37.44c-3.7,-5.308 -8.68,-16.302 -13.26,-37.44zM1101.55,368.218c4.58,-21.134 9.56,-32.127 13.26,-37.436c-3.7,5.309 -8.68,16.302 -13.26,37.436zM1106.92,480c0,67.965 3.27,126.033 7.89,149.222c-4.62,-23.189 -7.89,-81.257 -7.89,-149.222zM1133.51,333.076c12.29,24.565 20.9,81.103 20.9,146.924c0,-65.821 -8.61,-122.359 -20.9,-146.924zM1153.83,369.005c10.5,29.549 16.29,68.966 16.29,110.995c0,-42.029 -5.79,-81.446 -16.29,-110.995zM1170.12,480c0,42.029 -5.79,81.446 -16.29,110.995c10.5,-29.549 16.29,-68.966 16.29,-110.995zM1153.83,590.995c-4.9,13.773 -10.76,24.947 -16.95,32.314c6.19,-7.367 12.05,-18.541 16.95,-32.314zM1136.88,623.309c-1.12,1.333 -2.24,2.539 -3.37,3.615c1.13,-1.076 2.25,-2.282 3.37,-3.615zM1133.51,626.924c12.29,-24.565 20.9,-81.103 20.9,-146.924c0,65.821 -8.61,122.359 -20.9,146.924zM1093.5,622.56c-8.76,-7.494 -16.7,-18.349 -23.58,-32.262c6.88,13.913 14.82,24.768 23.58,32.262zM1069.92,590.298c-14.52,-29.357 -22.52,-68.525 -22.52,-110.298c0,41.773 8,80.941 22.52,110.298zM1199.28,480c0,-59.921 -16.29,-112.149 -40.41,-139.564c24.12,27.415 40.41,79.643 40.41,139.564zM1158.87,340.436c9.9,7.385 18.89,17.408 26.78,29.849c-7.89,-12.441 -16.88,-22.464 -26.78,-29.849zM1185.65,370.285c8.97,14.144 16.01,30.662 20.95,49.088c-4.94,-18.426 -11.98,-34.944 -20.95,-49.088zM1214.35,479.994c0,21.036 -2.6,41.433 -7.75,60.62c5.15,-19.187 7.75,-39.584 7.75,-60.62zM1002.59,480c0,59.892 26.3,111.886 64.57,137.204c-38.27,-25.318 -64.57,-77.312 -64.57,-137.204zM1017.96,480c0,58.244 19.72,109.22 49.2,137.204c-29.48,-27.984 -49.2,-78.96 -49.2,-137.204zM1186.29,614.977c43.09,-25.936 72.59,-76.401 72.59,-134.977c0,58.576 -29.5,109.041 -72.59,134.977z" fill="#000000"/><path d="M1466.67,427.2v-53.333c-58.91,0 -106.67,47.756 -106.67,106.666c0,58.91 47.76,106.667 106.67,106.667v-53.333c29.45,0 53.33,-23.877 53.33,-53.334c0,-29.457 -23.88,-53.333 -53.33,-53.333zM1280,320h320v320l-320,0zM826.667,747.2v-53.333c-58.91,0 -106.667,47.756 -106.667,106.666c0,58.91 47.757,106.667 106.667,106.667v-53.333c29.457,0 53.333,-23.877 53.333,-53.334c0,-29.457 -23.876,-53.333 -53.333,-53.333zM960,960h-320v-320h320zM826.667,107.2v-53.3333c-58.91,0 -106.667,47.7563 -106.667,106.6663c0,58.91 47.757,106.667 106.667,106.667v-53.333c29.457,0 53.333,-23.877 53.333,-53.334c0,-29.457 -23.876,-53.333 -53.333,-53.333zM640,0h320v320l-320,0zM0,640v-320h320v320zM186.667,427.2v-53.333c-58.91,0 -106.667,47.756 -106.667,106.666c0,58.91 47.757,106.667 106.667,106.667v-53.333c29.457,0 53.333,-23.877 53.333,-53.334c0,-29.457 -23.876,-53.333 -53.333,-53.333z" fill="#4997d0"/></g></svg>