<svg xmlns="http://www.w3.org/2000/svg" width="1920" height="960" viewBox="0 0 1920 960"><g xmlns="http://www.w3.org/2000/svg" fill="none" fill-rule="nonzero" stroke="none" stroke-width="1" stroke-linecap="butt" stroke-linejoin="miter" stroke-miterlimit="10" stroke-dasharray="" stroke-dashoffset="0" font-family="none" font-weight="none" font-size="none" text-anchor="none" style="mix-blend-mode: normal"><path d="M1600,640c0,-88.366 0,-320 0,-320c88.37,0 160,71.634 160,160c0,88.366 -71.63,160 -160,160zM1280,320c-88.37,0 -320,0 -320,0c0,-88.366 71.63,-160 160,-160c88.37,0 160,71.634 160,160zM1120,480c88.37,0 160,71.634 160,160h-320c0,-88.366 71.63,-160 160,-160zM480,640c-88.36556,0 -160,-71.63444 -160,-160c0,-88.36556 71.63444,-160 160,-160c88.36556,0 160,71.63444 160,160c0,88.36556 -71.63444,160 -160,160zM640,320h-320l0,-320h320z" fill="#f3f3f3"/><path d="M1920,320c0,88.366 0,320 0,320c-88.37,0 -160,-71.634 -160,-160c0,-88.366 71.63,-160 160,-160zM1120,800c0,88.366 -71.63,160 -160,160c-88.366,0 -160,-71.634 -160,-160c0,-88.35338 159.9543,-159.97954 159.99999,-160c-88.366,-0.00001 -159.99999,-71.634 -159.99999,-160c0,-88.366 71.634,-160 160,-160c0,0 231.63,0 320,0c0,25.82014 0,51.76817 0,0c88.37,0 160,71.634 160,160c0,88.366 -71.63,160 -160,160c0,-88.366 -71.63,-160 -160,-160c-88.37,0 -160,71.634 -160,160c88.37,0 160,71.634 160,160zM1280,640c0,88.366 0,320 0,320c-88.37,0 -160,-71.634 -160,-160c0,-88.366 71.63,-160 160,-160zM640,960c-88.366,0 -320,0 -320,0c0,-88.366 71.634,-160 160,-160c88.366,0 160,71.634 160,160zM480,800c-88.366,0 -160,-71.634 -160,-160c-88.366,0 -160,-71.634 -160,-160c0,-88.366 71.634,-160 160,-160c0,-88.366 71.634,-160 160,-160c88.366,0 160,71.634 160,160c0,-88.366 71.634,-160 160,-160c88.366,0 160,71.634 160,160c-88.366,0 -320,0 -320,0c0,0 0,0 0,0c88.366,0 160,71.634 160,160c0,88.366 -71.634,160 -160,160c0,88.366 -71.634,160 -160,160zM1600,-0.00003c88.37,0.00001 320,0.00003 320,0.00003c0,88.3656 -71.63,160 -160,160c-88.36999,0 -159.99998,-71.63448 -160,-160v320h-320c0,-156.41854 0,-288.374 0,-320c-0.00001,88.36551 -71.63001,160 -160,160c-88.37,0 -160,-71.6344 -160,-159.99999c88.37,-0.00001 320,-0.00003 320,-0.00003c0,0 0,0.00001 0,0.00001c0.01594,0 0.03188,0 0.04782,0.00001l319.90436,0c0.01594,0 0.03188,-0.00001 0.04782,-0.00001c0,-0.00001 0,-0.00001 0,-0.00002zM1760,160c88.37,0 160,71.634 160,160h-320c0,-88.366 71.63,-160 160,-160zM320,-0.00003c88.366,0.00001 320,0.00003 320,0.00003c0,88.3656 -71.634,160 -160,160c-88.366,0 -160,-71.6345 -160,-160.00003zM640,480c0,-88.36556 -71.63444,-160 -160,-160c-88.36556,0 -160,71.63444 -160,160c0,88.36556 71.63444,160 160,160c88.36556,0 160,-71.63444 160,-160zM1440,480c0,-88.366 71.63,-160 160,-160v320c-88.37,0 -160,-71.634 -160,-160zM0,0l0.08972,0l-0.04481,160c88.34009,0.026 159.97409,-71.5904 160.00009,-159.9552l-159.93032,-0.0448h319.88532v0c0,88.3648 -35.814,168.365 -93.728,226.272c-57.907,57.914 -137.90719,93.728 -226.272,93.728zM1826.27,733.728c57.92,57.907 93.73,137.907 93.73,226.272h-640c0,-88.365 35.81,-168.365 93.73,-226.272c57.91,-57.914 137.91,-93.728 226.27,-93.728c88.36,0 168.36,35.814 226.27,93.728zM1600.04,799.955l-0.04,159.955l160,0.045c0.03,-88.34 -71.59,-159.974 -159.96,-160zM1439.96,959.955l159.95,0.045l0.05,-160c-88.35,-0.026 -159.98,71.59 -160,159.955zM640,0c88.366,0.00001 320,0.00003 320,0.00003c0,88.36557 -71.634,159.99997 -160,159.99997c-88.366,0 -160,-71.6344 -160,-160zM800,800c0,88.366 -71.634,160 -160,160v-320c88.366,0 160,71.634 160,160zM-0.00001,640c0,-88.366 0.00001,-320 0.00001,-320c88.3656,0 160,71.634 160,160c0,88.36599 -71.63449,159.99999 -160,160l320,0v320c0,0 0,0 0,0l-320,0c0,0 -0.00001,0 -0.00001,0c0,-88.366 0.00001,-320 0.00001,-320h0c-0.00001,0 -0.00001,0 -0.00002,0zM160,800c0,88.366 -71.63449,159.99999 -160,160c88.36551,-0.00001 160,-71.634 160,-160z" fill="#121212"/><path d="M1760,480c0,-88.366 -71.63,-160 -160,-160h320c-88.37,0 -160,71.634 -160,160c0,88.366 71.63,160 160,160h-320c88.37,0 160,-71.634 160,-160zM1120,800c0,-88.366 -71.63,-160 -160,-160h320c-88.37,0 -160,71.634 -160,160c0,88.366 71.63,160 160,160l-320,0c88.37,0 160,-71.634 160,-160zM480,800c-88.366,0 -160,71.634 -160,160v-320c0,88.366 71.634,160 160,160c88.366,0 160,-71.634 160,-160v320c0,-88.366 -71.634,-160 -160,-160zM960,0l145.45974,0c-55.45581,0 -111.21459,0.00001 -145.45974,0.00001c0,88.36559 71.63,159.99999 160,159.99999c88.36999,0 159.99999,-71.63449 160,-160v320c0,-88.366 -71.63,-160 -160,-160c-88.37,0 -160,71.634 -160,160zM320,0c0.00002,88.36552 71.63401,160 160,160c88.366,0 160,-71.6344 160,-160v320c0,-88.366 -71.634,-160 -160,-160c-88.366,0 -160,71.634 -160,160z" fill="#ffa300"/><path d="M1600,0c0.00002,88.36552 71.63001,160 160,160c88.37,0 160,-71.6344 160,-160v320c0,-88.366 -71.63,-160 -160,-160c-88.37,0 -160,71.634 -160,160zM0.04491,160l0.04481,-160.00001l159.95528,0.04481c-0.026,88.3648 -71.66,159.9812 -160.00009,159.9552zM320,320h-320.00001c88.36481,0 168.36501,-35.814 226.27201,-93.728c57.914,-57.907 93.728,-137.9072 93.728,-226.272zM1760,959.955l-160,-0.045l0.04,-159.955c88.37,0.026 159.99,71.66 159.96,160zM1920,960c0,-88.365 -35.81,-168.365 -93.73,-226.272c-57.91,-57.914 -137.91,-93.728 -226.27,-93.728h320zM1599.96,800l-0.05,160l-159.95,-0.045c0.02,-88.365 71.65,-159.981 160,-159.955zM1373.73,733.728c-57.92,57.907 -93.73,137.907 -93.73,226.272c0,0 0,-143.52575 0,-320l320,0c-88.36,0 -168.36,35.814 -226.27,93.728z" fill="#ff4f00"/><path d="M1440,480c0,88.366 71.63,160 160,160l-320,0c88.37,0 160,-71.634 160,-160c0,-88.366 -71.63,-160 -160,-160h320c-88.37,0 -160,71.634 -160,160z" fill="#4997d0"/></g></svg>