<svg xmlns="http://www.w3.org/2000/svg" width="1920" height="960" viewBox="0 0 1920 960"><g xmlns="http://www.w3.org/2000/svg" fill="none" fill-rule="none" stroke="none" stroke-width="1" stroke-linecap="butt" stroke-linejoin="miter" stroke-miterlimit="10" stroke-dasharray="" stroke-dashoffset="0" font-family="none" font-weight="none" font-size="none" text-anchor="none" style="mix-blend-mode: normal"><path d="M1248,960c0,-17.673 14.33,-32 32,-32v-32c-35.35,0 -64,28.654 -64,64h-32c0,-53.019 42.98,-96 96,-96v-32c-70.69,0 -128,57.308 -128,128h-32c0,-88.366 71.63,-160 160,-160c0,88.366 71.63,160 160,160zM1056,960c0,-123.712 100.29,-224 224,-224v32c-106.04,0 -192,85.961 -192,192zM992,960c0,-159.058 128.94,-288 288,-288v32c-141.38,0 -256,114.615 -256,256zM1600,640c176.73,0 320,143.27 320,320h-480c88.37,0 160,-71.634 160,-160zM1413.33,427.2v-53.333c58.91,0 106.67,47.756 106.67,106.666c0,58.91 -47.76,106.667 -106.67,106.667v-53.333c-29.45,0 -53.33,-23.877 -53.33,-53.334c0,-29.457 23.88,-53.333 53.33,-53.333zM1264,16c0,-8.83658 7.16,-16.00003 16,-16c0,-0.00001 0,-0.00002 0,-0.00002l320,0v0.00006c88.37,-0.00003 160,71.63437 160,159.99997v160h80v80c0,132.548 -107.45,240 -240,240v-320c-176.66836,-0.05098 -319.95002,-143.22008 -320,-319.81517v639.81517l-16,-0.075l0.07,-81.258h-144.07v-22c95.33,0 144,-45.408 144,-216.667zM1280,0c0,0 0,0 0,0zM352,960h-32v-32c17.673,0 32,14.327 32,32zM384,960c0,-35.346 -28.654,-64 -64,-64v-32c53.019,0 96,42.981 96,96zM448,960c0,-70.692 -57.308,-128 -128,-128v-32c88.366,0 160,71.634 160,160zM512,960c0,-106.039 -85.961,-192 -192,-192v-32c123.712,0 224,100.288 224,224zM576,960c0,-141.385 -114.615,-256 -256,-256v-32c159.058,0 288,128.942 288,288zM320,640h400l-0.0241,1.9633l-0.07227,1.96212l-0.1204,1.95975l-0.16846,1.95621l-0.21641,1.95148l-0.26424,1.94558l-0.31191,1.93851l-0.35939,1.93027l-0.40665,1.92087l-0.45367,1.91031l-0.50042,1.89861l-0.54686,1.88575l-0.59297,1.87177l-0.63873,1.85665l-0.6841,1.84041l-0.72906,1.82307l-0.77358,1.80463l-0.81764,1.7851l-0.8612,1.7645l-0.90424,1.74283l-0.94674,1.72012l-0.98867,1.69636l-1.03,1.67159l-1.07072,1.64581l-1.11078,1.61904l-1.15018,1.59129l-1.18889,1.56258l-1.22688,1.53293l-1.26413,1.50237l-1.30062,1.47089l-1.33632,1.43853l-1.37122,1.4053l-1.4053,1.37122l-1.43853,1.33632l-1.47089,1.30062l-1.50237,1.26413l-1.53293,1.22688l-1.56258,1.18889l-1.59129,1.15018l-1.61904,1.11078l-1.64581,1.07072l-1.67159,1.03l-1.69637,0.98867l-1.72012,0.94674l-1.74283,0.90424l-1.7645,0.8612l-1.7851,0.81764l-1.80463,0.77358l-1.82307,0.72906l-1.84041,0.6841l-1.85665,0.63873l-1.87177,0.59297l-1.88575,0.54686l-1.89861,0.50041l-1.91032,0.45367l-1.92087,0.40665l-1.93028,0.35939l-1.93851,0.31191l-1.94558,0.26424l-1.95148,0.21641l-1.95621,0.16846l-1.95975,0.1204l-1.96212,0.07227l-1.96328,0.0241l1.9633,0.02409l1.96212,0.07227l1.95975,0.1204l1.95621,0.16846l1.95148,0.21641l1.94558,0.26424l1.93851,0.31191l1.93027,0.35939l1.92087,0.40665l1.91031,0.45367l1.89861,0.50042l1.88575,0.54686l1.87177,0.59297l1.85665,0.63873l1.84041,0.6841l1.82307,0.72906l1.80463,0.77358l1.7851,0.81764l1.7645,0.8612l1.74283,0.90424l1.72012,0.94674l1.69636,0.98867l1.67159,1.03l1.64581,1.07072l1.61904,1.11078l1.59129,1.15018l1.56258,1.18889l1.53293,1.22688l1.50237,1.26413l1.47089,1.30062l1.43853,1.33632l1.4053,1.37122l1.37122,1.4053l1.33632,1.43853l1.30062,1.47089l1.26413,1.50236l1.22688,1.53294l1.18889,1.56258l1.15018,1.59129l1.11078,1.61904l1.07072,1.64581l1.03,1.67159l0.98867,1.69637l0.94674,1.72012l0.90424,1.74283l0.8612,1.7645l0.81764,1.7851l0.77358,1.80463l0.72906,1.82307l0.6841,1.84041l0.63873,1.85665l0.59297,1.87177l0.54686,1.88575l0.50041,1.89861l0.45367,1.91032l0.40665,1.92087l0.35939,1.93027l0.31191,1.93851l0.26424,1.94558l0.21641,1.95148l0.16846,1.95621l0.1204,1.95975l0.07227,1.96212l0.0241,1.9633l-0.0241,1.9633l-0.07227,1.96212l-0.1204,1.95975l-0.16846,1.95621l-0.21641,1.95148l-0.26424,1.94558l-0.31191,1.93851l-0.35939,1.93027l-0.40665,1.92087l-0.45367,1.91031l-0.50042,1.89861l-0.54686,1.88575l-0.59297,1.87177l-0.63873,1.85665l-0.6841,1.84041l-0.72906,1.82307l-0.77358,1.80463l-0.81764,1.7851l-0.8612,1.7645l-0.90424,1.74283l-0.94674,1.72012l-0.98867,1.69636l-1.03,1.67159l-1.07072,1.64581l-1.11078,1.61904l-1.15018,1.59129l-1.18889,1.56258l-1.22688,1.53293l-1.26413,1.50237l-1.30062,1.47089l-1.33632,1.43853l-1.37122,1.4053l-1.4053,1.37122l-1.43853,1.33632l-1.47089,1.30062l-1.50237,1.26413l-1.53293,1.22688l-1.56258,1.18889l-1.59129,1.15018l-1.61904,1.11078l-1.64581,1.07072l-1.67159,1.03l-1.69637,0.98867l-1.72012,0.94674l-1.74283,0.90424l-1.7645,0.8612l-1.7851,0.81764l-1.80463,0.77358l-1.82307,0.72906l-1.84041,0.6841l-1.85665,0.63873l-1.87177,0.59297l-1.88575,0.54686l-1.89861,0.50041l-1.91032,0.45367l-1.92087,0.40665l-1.93028,0.35939l-1.93851,0.31191l-1.94558,0.26424l-1.95148,0.21641l-1.95621,0.16846l-1.95975,0.1204l-1.96212,0.07227l-1.96328,0.0241l1.9633,0.02409l1.96212,0.07227l1.95975,0.1204l1.95621,0.16846l1.95148,0.21641l1.94558,0.26424l1.93851,0.31191l1.93027,0.35939l1.92087,0.40665l1.91031,0.45367l1.89861,0.50042l1.88575,0.54686l1.87177,0.59297l1.85665,0.63873l1.84041,0.6841l1.82307,0.72906l1.80463,0.77358l1.7851,0.81764l1.7645,0.8612l1.74283,0.90424l1.72012,0.94674l1.69636,0.98867l1.67159,1.03l1.64581,1.07072l1.61904,1.11078l1.59129,1.15018l1.56258,1.18889l1.53293,1.22688l1.50237,1.26413l1.47089,1.30062l1.43853,1.33632l1.4053,1.37122l1.37122,1.4053l1.33632,1.43853l1.30062,1.47089l1.26413,1.50236l1.22688,1.53294l1.18889,1.56258l1.15018,1.59129l1.11078,1.61904l1.07072,1.64581l1.03,1.67159l0.98867,1.69637l0.94674,1.72012l0.90424,1.74283l0.8612,1.7645l0.81764,1.7851l0.77358,1.80463l0.72906,1.82307l0.6841,1.84041l0.63873,1.85665l0.59297,1.87177l0.54686,1.88575l0.50041,1.89861l0.45367,1.91032l0.40665,1.92087l0.35939,1.93027l0.31191,1.93851l0.26424,1.94558l0.21641,1.95148l0.16846,1.95621l0.1204,1.95975l0.07227,1.96212l0.0241,1.9633h-80.013c0,-176.667 -143.789,-320 -319.987,-320zM479.466,560c-29.457,0 -53.333,-23.876 -53.333,-53.333h-53.333c0,-58.91 47.757,-106.667 106.666,-106.667c58.91,0 106.667,47.757 106.667,106.667h-53.333c0,29.457 -23.876,53.333 -53.334,53.333zM640,0.00001l8.446,16.89159l-8.446,303.1084zM160,160c0,-88.3656 71.634,-160 160,-159.99997v0l72.57932,0l0.00001,-0.00002h110.84133l0.00001,0.00002l17.15865,0l0.00001,-0.00002h110.84133l0.2649,0.45452l0.75739,1.37609l0.72339,1.39427l0.68896,1.4116l0.65411,1.42808l0.61887,1.44371l0.58325,1.45846l0.54728,1.47233l0.51098,1.48532l0.47438,1.49741l0.43749,1.5086l0.40033,1.51889l0.36294,1.52825l0.32532,1.5367l0.28751,1.54422l0.24953,1.55081l0.21139,1.55647l0.17313,1.56119l0.13477,1.56497l0.09632,1.5678l0.05782,1.56969l0.01928,1.57064l-0.01928,1.57064l-0.05782,1.56969l-0.09632,1.5678l-0.13477,1.56497l-0.17313,1.56119l-0.21139,1.55647l-0.24953,1.55081l-0.28751,1.54422l-0.32532,1.5367l-0.36294,1.52825l-0.40033,1.51888l-0.43749,1.5086l-0.47438,1.49741l-0.51098,1.48532l-0.54728,1.47233l-0.58325,1.45846l-0.61887,1.4437l-0.65411,1.42808l-0.68896,1.4116l-0.72339,1.39427l-0.75739,1.37609l-0.79094,1.35709l-0.824,1.33727l-0.85657,1.31665l-0.88863,1.29523l-0.92015,1.27303l-0.95111,1.25007l-0.9815,1.22635l-1.0113,1.20189l-1.04049,1.17671l-1.06906,1.15082l-1.09698,1.12424l-1.12424,1.09698l-1.15082,1.06906l-1.17671,1.04049l-1.20189,1.0113l-1.22635,0.9815l-1.25007,0.95111l-1.27303,0.92015l-1.29523,0.88863l-1.31665,0.85657l-1.33727,0.824l-1.35709,0.79094l-1.37609,0.75739l-1.39427,0.7234l-1.4116,0.68896l-1.42808,0.65411l-1.4437,0.61887l-1.45846,0.58325l-1.47233,0.54728l-1.48532,0.51098l-1.49741,0.47438l-1.5086,0.43749l-1.51888,0.40033l-1.52825,0.36294l-1.5367,0.32532l-1.54422,0.28751l-1.55081,0.24953l-1.55647,0.21139l-1.56119,0.17313l-1.56497,0.13477l-1.5678,0.09632l-1.56969,0.05782l-1.57064,0.01927l-1.57064,-0.01927l-1.56969,-0.05782l-1.5678,-0.09632l-1.56497,-0.13477l-1.56119,-0.17313l-1.55647,-0.21139l-1.55081,-0.24953l-1.54422,-0.28751l-1.5367,-0.32532l-1.52825,-0.36294l-1.51888,-0.40033l-1.5086,-0.43749l-1.49741,-0.47438l-1.48532,-0.51098l-1.47233,-0.54728l-1.45846,-0.58325l-1.4437,-0.61887l-1.42808,-0.65411l-1.4116,-0.68896l-1.39427,-0.72339l-1.37609,-0.75739l-1.35709,-0.79094l-1.33727,-0.824l-1.31665,-0.85657l-1.29523,-0.88863l-1.27303,-0.92015l-1.25007,-0.95111l-1.22635,-0.9815l-1.20189,-1.0113l-1.17671,-1.04049l-1.15082,-1.06906l-1.12424,-1.09698l-1.09698,-1.12424l-1.06906,-1.15082l-1.04049,-1.17671l-1.0113,-1.20189l-0.9815,-1.22635l-0.95111,-1.25007l-0.92015,-1.27303l-0.88863,-1.29523l-0.85657,-1.31665l-0.824,-1.33727l-0.79094,-1.35709l-0.75739,-1.37609l-0.72339,-1.39427l-0.68896,-1.4116l-0.65411,-1.42808l-0.61887,-1.4437l-0.58325,-1.45846l-0.54728,-1.47233l-0.51098,-1.48532l-0.47438,-1.49741l-0.43749,-1.5086l-0.40033,-1.51889l-0.36294,-1.52825l-0.32532,-1.5367l-0.28751,-1.54422l-0.24953,-1.55081l-0.21139,-1.55647l-0.17313,-1.56119l-0.13477,-1.56497l-0.09632,-1.5678l-0.05782,-1.56969l-0.01927,-1.57064l0.01927,-1.57063l-0.01927,1.57063l-0.01928,1.57064l-0.05782,1.56969l-0.09632,1.5678l-0.13477,1.56497l-0.17313,1.56119l-0.21139,1.55647l-0.24953,1.55081l-0.28751,1.54422l-0.32532,1.5367l-0.36294,1.52825l-0.40033,1.51888l-0.43749,1.5086l-0.47438,1.49741l-0.51098,1.48532l-0.54728,1.47233l-0.58325,1.45846l-0.61886,1.4437l-0.65411,1.42808l-0.68896,1.4116l-0.7234,1.39427l-0.75739,1.37609l-0.79094,1.35709l-0.824,1.33727l-0.85657,1.31665l-0.88863,1.29523l-0.92015,1.27303l-0.95111,1.25007l-0.9815,1.22635l-1.0113,1.20189l-1.04049,1.17671l-1.06906,1.15082l-1.09698,1.12424l-1.12424,1.09698l-1.15082,1.06906l-1.17671,1.04049l-1.20189,1.0113l-1.22635,0.9815l-1.25007,0.95111l-1.27303,0.92015l-1.29523,0.88863l-1.31665,0.85657l-1.33727,0.824l-1.35709,0.79094l-1.37609,0.75739l-1.39427,0.7234l-1.4116,0.68896l-1.42808,0.65411l-1.44371,0.61887l-1.45846,0.58325l-1.47233,0.54728l-1.48532,0.51098l-1.49741,0.47438l-1.5086,0.43749l-1.51889,0.40033l-1.52825,0.36294l-1.5367,0.32532l-1.54422,0.28751l-1.55081,0.24953l-1.55647,0.21139l-1.56119,0.17313l-1.56497,0.13477l-1.5678,0.09632l-1.56969,0.05782l-1.57064,0.01927l-1.57064,-0.01927l-1.56969,-0.05782l-1.5678,-0.09632l-1.56497,-0.13477l-1.56119,-0.17313l-1.55647,-0.21139l-1.55081,-0.24953l-1.54422,-0.28751l-1.5367,-0.32532l-1.52825,-0.36294l-1.51889,-0.40033l-1.5086,-0.43749l-1.49741,-0.47438l-1.48532,-0.51098l-1.47233,-0.54728l-1.45846,-0.58325l-1.4437,-0.61887l-1.42808,-0.65411l-1.4116,-0.68896l-1.39427,-0.72339l-1.37609,-0.75739l-1.35709,-0.79094l-1.33727,-0.824l-1.31665,-0.85657l-1.29523,-0.88863l-1.27303,-0.92015l-1.25007,-0.95111l-1.22635,-0.9815l-1.20189,-1.0113l-1.17671,-1.04049l-1.15082,-1.06906l-1.12424,-1.09698l-1.09698,-1.12424l-1.06906,-1.15082l-1.04049,-1.17671l-1.0113,-1.20189l-0.9815,-1.22635l-0.02716,-0.0357c-19.20487,42.15729 -5.73127,82.72888 8.02434,116.39887c9.725,23.803 20.057,49.094 20.057,79.33c0,15.059 -11.819,27.268 -26.4,27.268c-14.58,0 -26.4,-12.209 -26.4,-27.268c0,29.233 -23.639,52.932 -52.8,52.932v320h-160c-88.3656,0 -160,-71.634 -160,-160c0,-88.366 71.6344,-160 160,-160zM640,640v-320h80c0.043,147.275 0,218 80,298l-80,-0.075v22z" fill="#121212" fill-rule="evenodd"/><path d="M960.013,960h-240.013l-0.0241,-1.9633l-0.07227,-1.96212l-0.1204,-1.95975l-0.16846,-1.95621l-0.21641,-1.95148l-0.26424,-1.94558l-0.31191,-1.93851l-0.35939,-1.93027l-0.40665,-1.92087l-0.45367,-1.91032l-0.50041,-1.89861l-0.54686,-1.88575l-0.59297,-1.87177l-0.63873,-1.85665l-0.6841,-1.84041l-0.72906,-1.82307l-0.77358,-1.80463l-0.81764,-1.7851l-0.8612,-1.7645l-0.90424,-1.74283l-0.94674,-1.72012l-0.98867,-1.69637l-1.03,-1.67159l-1.07072,-1.64581l-1.11078,-1.61904l-1.15018,-1.59129l-1.18889,-1.56258l-1.22688,-1.53294l-1.26413,-1.50236l-1.30062,-1.47089l-1.33632,-1.43853l-1.37122,-1.4053l-1.4053,-1.37122l-1.43853,-1.33632l-1.47089,-1.30062l-1.50237,-1.26413l-1.53293,-1.22688l-1.56258,-1.18889l-1.59129,-1.15018l-1.61904,-1.11078l-1.64581,-1.07072l-1.67159,-1.03l-1.69636,-0.98867l-1.72012,-0.94674l-1.74283,-0.90424l-1.7645,-0.8612l-1.7851,-0.81764l-1.80463,-0.77358l-1.82307,-0.72906l-1.84041,-0.6841l-1.85665,-0.63873l-1.87177,-0.59297l-1.88575,-0.54686l-1.89861,-0.50042l-1.91031,-0.45367l-1.92087,-0.40665l-1.93027,-0.35939l-1.93851,-0.31191l-1.94558,-0.26424l-1.95148,-0.21641l-1.95621,-0.16846l-1.95975,-0.1204l-1.96212,-0.07227l-1.9633,-0.02409l1.96328,-0.0241l1.96212,-0.07227l1.95975,-0.1204l1.95621,-0.16846l1.95148,-0.21641l1.94558,-0.26424l1.93851,-0.31191l1.93028,-0.35939l1.92087,-0.40665l1.91032,-0.45367l1.89861,-0.50041l1.88575,-0.54686l1.87177,-0.59297l1.85665,-0.63873l1.84041,-0.6841l1.82307,-0.72906l1.80463,-0.77358l1.7851,-0.81764l1.7645,-0.8612l1.74283,-0.90424l1.72012,-0.94674l1.69637,-0.98867l1.67159,-1.03l1.64581,-1.07072l1.61904,-1.11078l1.59129,-1.15018l1.56258,-1.18889l1.53293,-1.22688l1.50237,-1.26413l1.47089,-1.30062l1.43853,-1.33632l1.4053,-1.37122l1.37122,-1.4053l1.33632,-1.43853l1.30062,-1.47089l1.26413,-1.50237l1.22688,-1.53293l1.18889,-1.56258l1.15018,-1.59129l1.11078,-1.61904l1.07072,-1.64581l1.03,-1.67159l0.98867,-1.69636l0.94674,-1.72012l0.90424,-1.74283l0.8612,-1.7645l0.81764,-1.7851l0.77358,-1.80463l0.72906,-1.82307l0.6841,-1.84041l0.63873,-1.85665l0.59297,-1.87177l0.54686,-1.88575l0.50042,-1.89861l0.45367,-1.91031l0.40665,-1.92087l0.35939,-1.93027l0.31191,-1.93851l0.26424,-1.94558l0.21641,-1.95148l0.16846,-1.95621l0.1204,-1.95975l0.07227,-1.96212l0.0241,-1.9633l-0.0241,-1.9633l-0.07227,-1.96212l-0.1204,-1.95975l-0.16846,-1.95621l-0.21641,-1.95148l-0.26424,-1.94558l-0.31191,-1.93851l-0.35939,-1.93027l-0.40665,-1.92087l-0.45367,-1.91032l-0.50041,-1.89861l-0.54686,-1.88575l-0.59297,-1.87177l-0.63873,-1.85665l-0.6841,-1.84041l-0.72906,-1.82307l-0.77358,-1.80463l-0.81764,-1.7851l-0.8612,-1.7645l-0.90424,-1.74283l-0.94674,-1.72012l-0.98867,-1.69637l-1.03,-1.67159l-1.07072,-1.64581l-1.11078,-1.61904l-1.15018,-1.59129l-1.18889,-1.56258l-1.22688,-1.53294l-1.26413,-1.50236l-1.30062,-1.47089l-1.33632,-1.43853l-1.37122,-1.4053l-1.4053,-1.37122l-1.43853,-1.33632l-1.47089,-1.30062l-1.50237,-1.26413l-1.53293,-1.22688l-1.56258,-1.18889l-1.59129,-1.15018l-1.61904,-1.11078l-1.64581,-1.07072l-1.67159,-1.03l-1.69636,-0.98867l-1.72012,-0.94674l-1.74283,-0.90424l-1.7645,-0.8612l-1.7851,-0.81764l-1.80463,-0.77358l-1.82307,-0.72906l-1.84041,-0.6841l-1.85665,-0.63873l-1.87177,-0.59297l-1.88575,-0.54686l-1.89861,-0.50042l-1.91031,-0.45367l-1.92087,-0.40665l-1.93027,-0.35939l-1.93851,-0.31191l-1.94558,-0.26424l-1.95148,-0.21641l-1.95621,-0.16846l-1.95975,-0.1204l-1.96212,-0.07227l-1.9633,-0.02409l1.96328,-0.0241l1.96212,-0.07227l1.95975,-0.1204l1.95621,-0.16846l1.95148,-0.21641l1.94558,-0.26424l1.93851,-0.31191l1.93028,-0.35939l1.92087,-0.40665l1.91032,-0.45367l1.89861,-0.50041l1.88575,-0.54686l1.87177,-0.59297l1.85665,-0.63873l1.84041,-0.6841l1.82307,-0.72906l1.80463,-0.77358l1.7851,-0.81764l1.7645,-0.8612l1.74283,-0.90424l1.72012,-0.94674l1.69637,-0.98867l1.67159,-1.03l1.64581,-1.07072l1.61904,-1.11078l1.59129,-1.15018l1.56258,-1.18889l1.53293,-1.22688l1.50237,-1.26413l1.47089,-1.30062l1.43853,-1.33632l1.4053,-1.37122l1.37122,-1.4053l1.33632,-1.43853l1.30062,-1.47089l1.26413,-1.50237l1.22688,-1.53293l1.18889,-1.56258l1.15018,-1.59129l1.11078,-1.61904l1.07072,-1.64581l1.03,-1.67159l0.98867,-1.69636l0.94674,-1.72012l0.90424,-1.74283l0.8612,-1.7645l0.81764,-1.7851l0.77358,-1.80463l0.72906,-1.82307l0.6841,-1.84041l0.63873,-1.85665l0.59297,-1.87177l0.54686,-1.88575l0.50042,-1.89861l0.45367,-1.91031l0.40665,-1.92087l0.35939,-1.93027l0.31191,-1.93851l0.26424,-1.94558l0.21641,-1.95148l0.16846,-1.95621l0.1204,-1.95975l0.07227,-1.96212l0.0241,-1.9633h-80l80,-0.075v-22l80,0.075c-80,-80 -79.957,-150.725 -80,-298h-80l8.446,-303.1084l-8.446,-16.89159v0l-8.57933,0l-0.00001,-0.00001l648.56718,0c-8.83441,0.00653 -15.98785,7.16747 -15.98785,16l0,304c0,171.259 -48.67,216.667 -144,216.667v22h144.07l-0.07,81.258l16,0.075c-176.2,0 -319.987,143.333 -319.987,320zM1600,640h0.00001c132.55,0 239.99999,-107.452 239.99999,-240v-80h-80v-160c0,-88.3656 -71.63,-160 -160,-159.99997v-0.00003h320v960c0,-176.73 -143.27,-320 -320,-320zM1280,640v-639.81517c0.04998,176.59509 143.33164,319.76419 320,319.81517l0,320zM1360,480.533c0,29.457 23.88,53.334 53.33,53.334v53.333c58.91,0 106.67,-47.757 106.67,-106.667c0,-58.91 -47.76,-106.666 -106.67,-106.666v53.333c-29.45,0 -53.33,23.876 -53.33,53.333zM0.00001,960l-0.00001,-320v-160c0,88.366 71.6344,160 160,160h160c-176.73,0 -319.99999,143.27 -319.99999,320zM640,640h-320v-320c29.161,0 52.8,-23.699 52.8,-52.932c0,15.059 11.82,27.268 26.4,27.268c14.581,0 26.4,-12.209 26.4,-27.268c0,-30.236 -10.332,-55.527 -20.057,-79.33c-13.75561,-33.66999 -27.22921,-74.24159 -8.02434,-116.39887l0.02716,0.0357l0.9815,1.22635l1.0113,1.20189l1.04049,1.17671l1.06906,1.15082l1.09698,1.12424l1.12424,1.09698l1.15082,1.06906l1.17671,1.04049l1.20189,1.0113l1.22635,0.9815l1.25007,0.95111l1.27303,0.92015l1.29523,0.88863l1.31665,0.85657l1.33727,0.824l1.35709,0.79094l1.37609,0.75739l1.39427,0.72339l1.4116,0.68896l1.42808,0.65411l1.4437,0.61887l1.45846,0.58325l1.47233,0.54728l1.48532,0.51098l1.49741,0.47438l1.5086,0.43749l1.51889,0.40033l1.52825,0.36294l1.5367,0.32532l1.54422,0.28751l1.55081,0.24953l1.55647,0.21139l1.56119,0.17313l1.56497,0.13477l1.5678,0.09632l1.56969,0.05782l1.57064,0.01927l1.57064,-0.01927l1.56969,-0.05782l1.5678,-0.09632l1.56497,-0.13477l1.56119,-0.17313l1.55647,-0.21139l1.55081,-0.24953l1.54422,-0.28751l1.5367,-0.32532l1.52825,-0.36294l1.51889,-0.40033l1.5086,-0.43749l1.49741,-0.47438l1.48532,-0.51098l1.47233,-0.54728l1.45846,-0.58325l1.44371,-0.61887l1.42808,-0.65411l1.4116,-0.68896l1.39427,-0.7234l1.37609,-0.75739l1.35709,-0.79094l1.33727,-0.824l1.31665,-0.85657l1.29523,-0.88863l1.27303,-0.92015l1.25007,-0.95111l1.22635,-0.9815l1.20189,-1.0113l1.17671,-1.04049l1.15082,-1.06906l1.12424,-1.09698l1.09698,-1.12424l1.06906,-1.15082l1.04049,-1.17671l1.0113,-1.20189l0.9815,-1.22635l0.95111,-1.25007l0.92015,-1.27303l0.88863,-1.29523l0.85657,-1.31665l0.824,-1.33727l0.79094,-1.35709l0.75739,-1.37609l0.7234,-1.39427l0.68896,-1.4116l0.65411,-1.42808l0.61886,-1.4437l0.58325,-1.45846l0.54728,-1.47233l0.51098,-1.48532l0.47438,-1.49741l0.43749,-1.5086l0.40033,-1.51888l0.36294,-1.52825l0.32532,-1.5367l0.28751,-1.54422l0.24953,-1.55081l0.21139,-1.55647l0.17313,-1.56119l0.13477,-1.56497l0.09632,-1.5678l0.05782,-1.56969l0.01928,-1.57064l0.01927,1.57064l0.05782,1.56969l0.09632,1.5678l0.13477,1.56497l0.17313,1.56119l0.21139,1.55647l0.24953,1.55081l0.28751,1.54422l0.32532,1.5367l0.36294,1.52825l0.40033,1.51889l0.43749,1.5086l0.47438,1.49741l0.51098,1.48532l0.54728,1.47233l0.58325,1.45846l0.61887,1.4437l0.65411,1.42808l0.68896,1.4116l0.72339,1.39427l0.75739,1.37609l0.79094,1.35709l0.824,1.33727l0.85657,1.31665l0.88863,1.29523l0.92015,1.27303l0.95111,1.25007l0.9815,1.22635l1.0113,1.20189l1.04049,1.17671l1.06906,1.15082l1.09698,1.12424l1.12424,1.09698l1.15082,1.06906l1.17671,1.04049l1.20189,1.0113l1.22635,0.9815l1.25007,0.95111l1.27303,0.92015l1.29523,0.88863l1.31665,0.85657l1.33727,0.824l1.35709,0.79094l1.37609,0.75739l1.39427,0.72339l1.4116,0.68896l1.42808,0.65411l1.4437,0.61887l1.45846,0.58325l1.47233,0.54728l1.48532,0.51098l1.49741,0.47438l1.5086,0.43749l1.51888,0.40033l1.52825,0.36294l1.5367,0.32532l1.54422,0.28751l1.55081,0.24953l1.55647,0.21139l1.56119,0.17313l1.56497,0.13477l1.5678,0.09632l1.56969,0.05782l1.57064,0.01927l1.57064,-0.01927l1.56969,-0.05782l1.5678,-0.09632l1.56497,-0.13477l1.56119,-0.17313l1.55647,-0.21139l1.55081,-0.24953l1.54422,-0.28751l1.5367,-0.32532l1.52825,-0.36294l1.51888,-0.40033l1.5086,-0.43749l1.49741,-0.47438l1.48532,-0.51098l1.47233,-0.54728l1.45846,-0.58325l1.4437,-0.61887l1.42808,-0.65411l1.4116,-0.68896l1.39427,-0.7234l1.37609,-0.75739l1.35709,-0.79094l1.33727,-0.824l1.31665,-0.85657l1.29523,-0.88863l1.27303,-0.92015l1.25007,-0.95111l1.22635,-0.9815l1.20189,-1.0113l1.17671,-1.04049l1.15082,-1.06906l1.12424,-1.09698l1.09698,-1.12424l1.06906,-1.15082l1.04049,-1.17671l1.0113,-1.20189l0.9815,-1.22635l0.95111,-1.25007l0.92015,-1.27303l0.88863,-1.29523l0.85657,-1.31665l0.824,-1.33727l0.79094,-1.35709l0.75739,-1.37609l0.72339,-1.39427l0.68896,-1.4116l0.65411,-1.42808l0.61887,-1.4437l0.58325,-1.45846l0.54728,-1.47233l0.51098,-1.48532l0.47438,-1.49741l0.43749,-1.5086l0.40033,-1.51888l0.36294,-1.52825l0.32532,-1.5367l0.28751,-1.54422l0.24953,-1.55081l0.21139,-1.55647l0.17313,-1.56119l0.13477,-1.56497l0.09632,-1.5678l0.05782,-1.56969l0.01928,-1.57064zM532.8,506.667h53.333c0,-58.91 -47.757,-106.667 -106.667,-106.667c-58.909,0 -106.666,47.757 -106.666,106.667h53.333c0,29.457 23.876,53.333 53.333,53.333c29.458,0 53.334,-23.876 53.334,-53.333zM0,0h392.57933l-0.00001,0.00002l-72.57932,0v0c-88.366,-0.00003 -160,71.63437 -160,159.99997v160h0c-88.36559,0 -159.99999,71.63399 -160,159.99999zM520.57932,0.00002l-17.15865,0l-0.00001,-0.00002h17.15867z" fill="#d9d9d6" fill-rule="nonzero"/><path d="M992,960h-31.987c0,-176.667 143.787,-320 319.987,-320h320v160c0,88.366 -71.63,160 -160,160c-88.37,0 -160,-71.634 -160,-160c-88.37,0 -160,71.634 -160,160h-32c0,-106.039 85.96,-192 192,-192v-32c-123.71,0 -224,100.288 -224,224h-32c0,-141.385 114.62,-256 256,-256v-32c-159.06,0 -288,128.942 -288,288zM1280,832v32c-53.02,0 -96,42.981 -96,96h-32c0,-70.692 57.31,-128 128,-128zM1280,896v32c-17.67,0 -32,14.327 -32,32h-32c0,-35.346 28.65,-64 64,-64zM384,960h-32c0,-17.673 -14.327,-32 -32,-32v32h-320v-320l0.00001,320c-0.00001,-176.73 143.26999,-320 319.99999,-320c176.198,0 319.987,143.333 319.987,320l-31.987,0c0,-159.058 -128.942,-288 -288,-288v32c141.385,0 256,114.615 256,256h-32c0,-123.712 -100.288,-224 -224,-224v32c106.039,0 192,85.961 192,192h-32c0,-88.366 -71.634,-160 -160,-160v32c70.692,0 128,57.308 128,128h-32c0,-53.019 -42.981,-96 -96,-96v32c35.346,0 64,28.654 64,64z" fill="#f3f3f3" fill-rule="nonzero"/></g></svg>