<svg xmlns="http://www.w3.org/2000/svg" width="1920" height="960" viewBox="0 0 1920 960"><g xmlns="http://www.w3.org/2000/svg" fill="none" fill-rule="nonzero" stroke="none" stroke-width="1" stroke-linecap="butt" stroke-linejoin="miter" stroke-miterlimit="10" stroke-dasharray="" stroke-dashoffset="0" font-family="none" font-weight="none" font-size="none" text-anchor="none" style="mix-blend-mode: normal"><path d="M1920,480v160h-320l-320,-320c0,0 88.37,320 0,320h-80v320h-160v-320h-160v320h-160v-320h-80c-88.366,0 -160,71.634 -160,160v160h-320v-160c0,-88.36599 -71.63448,-159.99998 -160,-160l0.00001,0l-0.00001,-160h320v-160h320l320,-320l-320,0.00003v-0.00003h640l-320,0.00001l320,319.99999h320v160z" fill="#f3f3f3"/><path d="M1920,480h-320v-160h-320l-320,-319.99999l320,-0.00001h640zM0,640v-640h640v0.00003l320,-0.00003l-320,320h-320v160h-320l0.00001,160z" fill="#4997d0"/><path d="M1920,960h-160v-160c0,-88.366 71.63,-160 160,-160zM-0.00004,640c88.36554,0 160.00004,71.634 160.00004,160v160h-160.00003zM720,640v320h-240v-160c0,-88.366 71.634,-160 160,-160zM880,960l0,-320h160v320zM1440,800v160h-240l0,-320h80c88.37,0 160,71.634 160,160z" fill="#d9d9d6"/></g></svg>