<svg xmlns="http://www.w3.org/2000/svg" width="1920" height="960" viewBox="0 0 1920 960"><g xmlns="http://www.w3.org/2000/svg" fill="none" fill-rule="none" stroke="none" stroke-width="1" stroke-linecap="butt" stroke-linejoin="miter" stroke-miterlimit="10" stroke-dasharray="" stroke-dashoffset="0" font-family="none" font-weight="none" font-size="none" text-anchor="none" style="mix-blend-mode: normal"><path d="M1714.29,408.794l-2.577,-6.72354l-2.84629,-6.45864l-3.10477,-6.19375l-3.35244,-5.92889l-3.5893,-5.66405l-3.81535,-5.39923l-4.03058,-5.13443l-4.235,-4.86966l-4.42861,-4.6049l-4.61142,-4.34017l-4.7834,-4.07546l-4.94458,-3.81077l-5.09494,-3.54611l-5.2345,-3.28146l-5.36324,-3.01684l-5.48117,-2.75224l-5.58828,-2.48766l-5.68459,-2.2231l-5.77009,-1.95856l-5.84477,-1.69405l-5.90864,-1.42955l-5.9617,-1.16508l-6.00395,-0.90063l-6.03539,-0.63621l-6.03539,0.63621l-6.00395,0.90063l-5.9617,1.16508l-5.90864,1.42955l-5.84477,1.69405l-5.77009,1.95856l-5.68459,2.2231l-5.58828,2.48766l-5.48117,2.75224l-5.36324,3.01684l-5.2345,3.28146l-5.09494,3.54611l-4.94458,3.81077l-4.7834,4.07546l-4.61142,4.34017l-4.42861,4.6049l-4.235,4.86966l-4.03058,5.13443l-3.81535,5.39923l-3.5893,5.66405l-3.35244,5.92889l-3.10477,6.19375l-2.84629,6.45864l-2.577,6.72354l-3.61399,9.11167l-4.19353,8.6896l-4.74167,8.25451l-5.25841,7.80642l-5.74376,7.34531l-6.19771,6.87119l-6.62026,6.38405l-7.01142,5.88391l-7.37117,5.37075l-7.69953,4.84458l-7.99649,4.30541l-8.26206,3.75321l-8.49623,3.18801l-8.69899,2.6098l-8.87037,2.01857l-9.01034,1.41433l-9.11892,0.79708l-9.1961,0.16682l-9.24188,-0.47645l-9.25626,-1.13278l-9.23925,-1.80199l-9.19083,-2.48435l-9.11103,-3.17966l-8.99982,-3.888l-14.19895,-5.85766l-8.37105,-2.44494l-8.37105,2.44494l-14.19895,5.85766l-8.99982,3.888l-9.11103,3.17966l-9.19083,2.48435l-9.23925,1.80199l-9.25626,1.13278l-9.24188,0.47645l-9.1961,-0.16682l-9.11892,-0.79708l-9.01034,-1.41433l-8.87037,-2.01857l-8.69899,-2.6098l-8.49623,-3.18801l-8.26206,-3.75321l-7.99649,-4.30541l-7.69953,-4.84458l-7.37117,-5.37075l-7.01142,-5.88391l-6.62026,-6.38405l-6.19771,-6.87119l-5.74376,-7.34531l-5.25841,-7.80642l-4.74167,-8.25451l-4.19353,-8.6896l-3.61399,-9.11167l-2.577,-6.72354l-2.84629,-6.45864l-3.10477,-6.19375l-3.35244,-5.92889l-3.5893,-5.66405l-3.81535,-5.39923l-4.03058,-5.13443l-4.235,-4.86966l-4.42861,-4.6049l-4.61142,-4.34017l-4.7834,-4.07546l-4.94458,-3.81077l-5.09494,-3.54611l-5.2345,-3.28146l-5.36324,-3.01684l-5.48117,-2.75224l-5.58828,-2.48766l-5.68459,-2.2231l-5.77009,-1.95856l-5.84477,-1.69405l-5.90864,-1.42955l-5.9617,-1.16508l-6.00395,-0.90063l-6.03539,-0.63621l0,-0.499h0h320h-640v156.34424l-8.36778,2.4441l-14.19822,5.85766l-9.00053,3.888l-9.11166,3.17966l-9.19139,2.48435l-9.23973,1.80199l-9.25668,1.13278l-9.24223,0.47645l-9.19639,-0.16682l-9.11915,-0.79708l-9.01052,-1.41433l-8.8705,-2.01857l-8.69908,-2.6098l-8.49628,-3.18801l-8.26207,-3.75321l-7.99648,-4.30541l-7.69949,-4.84458l-7.3711,-5.37075l-7.01132,-5.88391l-6.62015,-6.38405l-6.19759,-6.87119l-5.74363,-7.34531l-5.25828,-7.80642l-4.74153,-8.25451l-4.19339,-8.6896l-3.61386,-9.11167l-2.57664,-6.72354l-2.84596,-6.45864l-3.10448,-6.19375l-3.35218,-5.92889l-3.58907,-5.66405l-3.81515,-5.39923l-4.03042,-5.13443l-4.23487,-4.86966l-4.42852,-4.6049l-4.61136,-4.34017l-4.78338,-4.07546l-4.94459,-3.81077l-5.09499,-3.54611l-5.23458,-3.28146l-5.36336,-3.01684l-5.48133,-2.75224l-5.58848,-2.48766l-5.68483,-2.2231l-5.77036,-1.95856l-5.84509,-1.69405l-5.909,-1.42955l-5.9621,-1.16508l-6.00439,-0.90063l-6.03587,-0.63621l-6.03587,0.63621l-6.00439,0.90063l-5.9621,1.16508l-5.909,1.42955l-5.84509,1.69405l-5.77036,1.95856l-5.68483,2.2231l-5.58848,2.48766l-5.48133,2.75224l-5.36336,3.01684l-5.23458,3.28146l-5.09499,3.54611l-4.94459,3.81077l-4.78338,4.07546l-4.61136,4.34017l-4.42852,4.6049l-4.23487,4.86966l-4.03042,5.13443l-3.81515,5.39923l-3.58907,5.66405l-3.35218,5.92889l-3.10448,6.19375l-2.84597,6.45864l-2.57664,6.72354l-3.61386,9.11167l-4.1934,8.6896l-4.74154,8.25451l-5.25829,7.80642l-5.74364,7.34531l-6.1976,6.87119l-6.62016,6.38405l-7.01134,5.88391l-7.37111,5.37075l-7.69949,4.84458l-7.99648,4.30541l-8.2621,3.75321l-8.49625,3.18801l-8.69908,2.6098l-8.87049,2.01857l-9.0105,1.41433l-9.11912,0.79708l-9.19635,0.16682l-9.24219,-0.47645l-9.25662,-1.13278l-9.23967,-1.80199l-9.19132,-2.48435l-9.11157,-3.17966l-9.00043,-3.888l-14.19831,-5.85766l-8.36809,-2.44417v-476.34416h1920v476.3434l-8.37105,2.44494l-14.19895,5.85766l-8.99982,3.888l-9.11103,3.17966l-9.19083,2.48435l-9.23925,1.80199l-9.25626,1.13278l-9.24188,0.47645l-9.1961,-0.16682l-9.11892,-0.79708l-9.01034,-1.41433l-8.87037,-2.01857l-8.69899,-2.6098l-8.49623,-3.18801l-8.26206,-3.75321l-7.99649,-4.30541l-7.69953,-4.84458l-7.37117,-5.37075l-7.01142,-5.88391l-6.62026,-6.38405l-6.19771,-6.87119l-5.74376,-7.34531l-5.25841,-7.80642l-4.74167,-8.25451l-4.19353,-8.6896zM1599.99,960h-959.99v-175.99881l2.39755,0.16737l2.36931,0.49845l2.31904,0.81751l2.26373,1.12574l2.20341,1.42315l2.13806,1.70973l2.06768,1.98548l1.99227,2.2504l1.91183,2.50449l1.82637,2.74776l1.73589,2.98019l1.64037,3.2018l1.53983,3.41259l1.43426,3.61254l1.32367,3.80166l1.20804,3.97996l1.08739,4.14743l0.96172,4.30407l0.83101,4.44988l0.69528,4.58487l0.55453,4.70902l0.40874,4.82235l0.25793,4.92485l0.10209,5.01652v0.685l0.10253,5.01801l0.2594,4.92607l0.4111,4.82333l0.55762,4.70977l0.69897,4.58541l0.83515,4.45023l0.96615,4.30424l1.09198,4.14745l1.21263,3.97984l1.32812,3.80142l1.43843,3.61219l1.54356,3.41215l1.64353,3.2013l1.73832,2.97965l1.82793,2.74718l1.91238,2.5039l1.99165,2.24981l2.06575,1.9849l2.13467,1.7092l2.19842,1.42267l2.257,1.12534l2.3104,0.8172l2.35864,0.49825l2.4017,0.16849l2.4017,-0.16849l2.35865,-0.49825l2.31043,-0.8172l2.25703,-1.12534l2.19846,-1.42267l2.13471,-1.7092l2.0658,-1.9849l1.9917,-2.24981l1.91243,-2.5039l1.82799,-2.74718l1.73838,-2.97965l1.64359,-3.2013l1.54363,-3.41215l1.43849,-3.61219l1.32817,-3.80142l1.21269,-3.97984l1.09203,-4.14745l0.9662,-4.30424l0.83519,-4.45023l0.69901,-4.58541l0.55765,-4.70977l0.41112,-4.82333l0.25942,-4.92607l0.10254,-5.01801v-0.685l0.06013,-5.01652l0.13935,-4.92485l0.22449,-4.82235l0.31556,-4.70902l0.41254,-4.58487l0.51546,-4.44988l0.6243,-4.30407l0.73906,-4.14743l0.85975,-3.97996l0.98636,-3.80166l1.1189,-3.61254l1.25736,-3.41259l1.40174,-3.2018l1.55205,-2.98019l1.70829,-2.74776l1.87045,-2.50449l2.03853,-2.2504l2.21254,-1.98548l2.39247,-1.70973l2.57833,-1.42315l2.77011,-1.12574l2.96781,-0.81751l3.17144,-0.49845l3.381,-0.16855l3.38184,0.17046l3.17382,0.50403l2.9715,0.82658l2.77488,1.13812l2.58396,1.43865l2.39874,1.72816l2.21922,2.00666l2.0454,2.27415l1.87728,2.53062l1.71486,2.77608l1.55813,3.01053l1.40711,3.23396l1.26179,3.44637l1.12217,3.64778l0.98824,3.83816l0.86002,4.01754l0.73749,4.1859l0.62067,4.34325l0.50954,4.48958l0.40412,4.6249l0.30439,4.74921l0.21037,4.8625l0.12204,4.96478l0.03941,5.05604l0.01597,5.01801l0.02396,4.92607l0.04252,4.82333l0.07165,4.70977l0.11135,4.58541l0.16163,4.45023l0.22247,4.30424l0.29389,4.14745l0.37588,3.97984l0.46844,3.80142l0.57158,3.61219l0.68528,3.41215l0.80956,3.2013l0.9444,2.97965l1.08982,2.74718l1.24581,2.5039l1.41238,2.24981l1.58951,1.9849l1.77722,1.7092l1.97549,1.42267l2.18434,1.12534l2.40376,0.8172l2.63376,0.49825l2.87432,0.16849l2.86646,-0.14492l2.6115,-0.42902l2.36907,-0.70451l2.13917,-0.97137l1.92181,-1.22962l1.71698,-1.47925l1.52468,-1.72027l1.34492,-1.95266l1.1777,-2.17644l1.02301,-2.3916l0.88085,-2.59814l0.75123,-2.79607l0.63414,-2.98537l0.52958,-3.16606l0.43756,-3.33813l0.35808,-3.50159l0.29113,-3.65643l0.23671,-3.80264l0.19483,-3.94025l0.16548,-4.06923l0.14866,-4.1896l0.14438,-4.30135l0.15264,-4.40448l0.17343,-4.49899l0.00174,-5.10013l0.01214,-5.09225l0.03297,-5.06577l0.0642,-5.0207l0.10584,-4.95703l0.15789,-4.87477l0.22035,-4.77392l0.29322,-4.65448l0.3765,-4.51644l0.47019,-4.35981l0.57429,-4.18458l0.68881,-3.99076l0.81373,-3.77835l0.94906,-3.54735l1.0948,-3.29775l1.25095,-3.02956l1.41752,-2.74277l1.59449,-2.4374l1.78187,-2.11342l1.97966,-1.77086l2.18787,-1.4097l2.40648,-1.02995l2.6355,-0.6316l2.87494,-0.21467l2.87494,0.23323l2.6355,0.68517l2.40648,1.11534l2.18787,1.52373l1.97966,1.91035l1.78187,2.27519l1.59449,2.61825l1.41752,2.93954l1.25095,3.23906l1.0948,3.5168l0.94906,3.77276l0.81373,4.00695l0.68881,4.21936l0.57429,4.40999l0.47019,4.57885l0.3765,4.72594l0.29322,4.85125l0.22035,4.95478l0.15789,5.03654l0.10584,5.09652l0.0642,5.13473l0.03297,5.15116l0.01214,5.14581l0.00174,5.11869l0.11543,4.27413l0.10106,4.17971l0.09313,4.07751l0.09162,3.96754l0.09655,3.8498l0.1079,3.72428l0.12568,3.59098l0.14989,3.44991l0.18053,3.30106l0.2176,3.14444l0.26109,2.98004l0.31102,2.80787l0.36737,2.62792l0.43016,2.44019l0.49937,2.2447l0.57501,2.04142l0.65708,1.83038l0.74558,1.61155l0.8405,1.38495l0.94186,1.15058l1.04964,0.90843l1.16386,0.6585l1.2845,0.4008l1.41157,0.13533l1.21987,-0.3201l1.12892,-0.93452l1.04179,-1.5103l0.95849,-2.04743l0.87902,-2.54592l0.80337,-3.00575l0.73155,-3.42694l0.66355,-3.80948l0.59939,-4.15338l0.53905,-4.45863l0.48253,-4.72523l0.42985,-4.95319l0.38099,-5.14249l0.33596,-5.29315l0.29475,-5.40517l0.25737,-5.47853l0.22382,-5.51325l0.19409,-5.50932l0.1682,-5.46675l0.14613,-5.38552l0.12788,-5.26566l0.11346,-5.10714l0.10287,-4.90997l0.09611,-4.67416l0.12174,-5.75347l0.35129,-5.27431l0.55998,-4.81597l0.7478,-4.37847l0.91475,-3.96181l1.06084,-3.56597l1.18605,-3.19097l1.29039,-2.83681l1.37387,-2.50347l1.43648,-2.19097l1.47822,-1.89931l1.49908,-1.62847l1.49908,-1.37847l1.47822,-1.14931l1.43648,-0.94097l1.37387,-0.75347l1.2904,-0.58681l1.18605,-0.44097l1.06084,-0.31597l0.91475,-0.21181l0.7478,-0.12847l0.55998,-0.06597l0.35129,-0.02431l0.12174,-0.00347l-0.00028,0.13558l-0.00079,0.40329l-0.00123,0.66583l-0.00159,0.92318l-0.00188,1.17537l-0.0021,1.42238l-0.00225,1.66421l-0.00232,1.90087l-0.00232,2.13235l-0.00225,2.35866l-0.0021,2.57979l-0.00188,2.79575l-0.00159,3.00653l-0.00123,3.21213l-0.00079,3.41256l-0.00028,3.60782l0.0003,3.7979l0.00096,3.9828l0.00169,4.16253l0.00249,4.33709l0.00337,4.50647l0.00431,4.67067l0.00534,4.8297l0.00643,4.98355l0.00032,0.46578l0.00045,0.53391l0.00059,0.59578l0.00072,0.65141l0.00086,0.70078l0.00099,0.74389l0.00113,0.78076l0.00126,0.81136l0.0014,0.83572l0.00154,0.85382l0.00167,0.86566l0.00181,0.87126l0.00194,0.8706l0.00208,0.86368l0.00221,0.85051l0.00235,0.83109l0.00249,0.80541l0.00262,0.77348l0.00276,0.73529l0.00289,0.69086l0.00303,0.64016l0.00316,0.58322l0.0033,0.52002l0.00343,0.45056l0.00343,-0.45056l0.0033,-0.52002l0.00316,-0.58322l0.00303,-0.64016l0.00289,-0.69086l0.00276,-0.73529l0.00262,-0.77348l0.00249,-0.80541l0.00235,-0.83109l0.00221,-0.85051l0.00208,-0.86368l0.00194,-0.8706l0.00181,-0.87126l0.00167,-0.86566l0.00154,-0.85382l0.0014,-0.83572l0.00126,-0.81136l0.00113,-0.78076l0.00099,-0.74389l0.00086,-0.70078l0.00072,-0.65141l0.00059,-0.59578l0.00045,-0.53391l0.00032,-0.46578l0.00643,-4.98355l0.00534,-4.8297l0.00431,-4.67067l0.00337,-4.50647l0.00249,-4.33709l0.00169,-4.16253l0.00096,-3.9828l0.0003,-3.7979l-0.00028,-3.60782l-0.00079,-3.41256l-0.00123,-3.21213l-0.00159,-3.00653l-0.00188,-2.79575l-0.0021,-2.57979l-0.00225,-2.35866l-0.00232,-2.13235l-0.00232,-1.90087l-0.00225,-1.66421l-0.0021,-1.42238l-0.00188,-1.17537l-0.00159,-0.92318l-0.00123,-0.66583l-0.00079,-0.40329l-0.00028,-0.13558l0.12174,0.00347l0.35129,0.02431l0.55998,0.06597l0.7478,0.12847l0.91475,0.21181l1.06084,0.31597l1.18605,0.44097l1.2904,0.58681l1.37387,0.75347l1.43648,0.94097l1.47822,1.14931l1.49908,1.37847l1.49908,1.62847l1.47822,1.89931l1.43648,2.19097l1.37387,2.50347l1.29039,2.83681l1.18605,3.19097l1.06084,3.56597l0.91475,3.96181l0.7478,4.37847l0.55998,4.81597l0.35129,5.27431l0.12174,5.75347l0.09611,4.67416l0.10287,4.90997l0.11346,5.10714l0.12788,5.26566l0.14613,5.38552l0.1682,5.46675l0.19409,5.50932l0.22382,5.51325l0.25737,5.47853l0.29475,5.40517l0.33596,5.29315l0.38099,5.14249l0.42985,4.95319l0.48253,4.72523l0.53905,4.45863l0.59939,4.15338l0.66355,3.80948l0.73155,3.42694l0.80337,3.00575l0.87902,2.54592l0.95849,2.04743l1.04179,1.5103l1.12892,0.93452l1.21987,0.3201l1.4112,-0.13533l1.28414,-0.40082l1.16351,-0.65853l1.04931,-0.90846l0.94155,-1.15061l0.84021,-1.38499l0.7453,-1.61159l0.65682,-1.83042l0.57477,-2.04146l0.49915,-2.24474l0.42996,-2.44023l0.3672,-2.62795l0.31088,-2.80789l0.26098,-2.98006l0.21751,-3.14445l0.18047,-3.30106l0.14986,-3.4499l0.12569,-3.59096l0.10794,-3.72424l0.09662,-3.84975l0.09173,-3.96748l0.09328,-4.07744l0.10125,-4.17962l0.11566,-4.27402l0.00173,-5.11869l0.01215,-5.14581l0.03297,-5.15116l0.06421,-5.13473l0.10586,-5.09652l0.15792,-5.03654l0.22039,-4.95478l0.29328,-4.85125l0.37658,-4.72594l0.47029,-4.57885l0.57441,-4.40999l0.68895,-4.21936l0.8139,-4.00695l0.94926,-3.77276l1.09503,-3.5168l1.25121,-3.23906l1.41781,-2.93954l1.59482,-2.61825l1.78224,-2.27519l1.98008,-1.91035l2.18832,-1.52373l2.40698,-1.11534l2.63605,-0.68517l2.87554,-0.23323l2.87434,0.21467l2.63495,0.6316l2.40598,1.02995l2.18741,1.4097l1.97925,1.77086l1.7815,2.11342l1.59416,2.4374l1.41722,2.74277l1.25069,3.02956l1.09457,3.29775l0.94886,3.54735l0.81356,3.77835l0.68866,3.99076l0.57417,4.18458l0.47009,4.35981l0.37642,4.51644l0.29316,4.65448l0.2203,4.77392l0.15785,4.87477l0.10581,4.95703l0.06418,5.0207l0.03296,5.06577l0.01214,5.09225l0.00174,5.10013l0.17412,4.49899l0.15323,4.40448l0.14488,4.30135l0.14907,4.1896l0.16581,4.06923l0.19509,3.94025l0.23691,3.80264l0.29127,3.65643l0.35819,3.50159l0.43764,3.33813l0.52963,3.16606l0.63417,2.98537l0.75126,2.79607l0.88088,2.59814l1.02305,2.3916l1.17777,2.17644l1.34502,1.95266l1.52483,1.72027l1.71717,1.47925l1.92206,1.22962l2.13949,0.97137l2.36946,0.70451l2.61198,0.42902l2.86704,0.14492l2.87374,-0.16849l2.63326,-0.49825l2.40335,-0.8172l2.184,-1.12534l1.97521,-1.42267l1.777,-1.7092l1.58934,-1.9849l1.41225,-2.24981l1.24572,-2.5039l1.08976,-2.74718l0.94436,-2.97965l0.80952,-3.2013l0.68525,-3.41215l0.57154,-3.61219l0.4684,-3.80142l0.37582,-3.97984l0.29381,-4.14745l0.22236,-4.30424l0.16148,-4.45023l0.11115,-4.58541l0.0714,-4.70977l0.0422,-4.82333l0.02358,-4.92607l0.01551,-5.01801l0.03944,-5.05604l0.12211,-4.96478l0.21048,-4.8625l0.30454,-4.74921l0.4043,-4.6249l0.50975,-4.48958l0.6209,-4.34325l0.73774,-4.1859l0.86027,-4.01754l0.9885,-3.83816l1.12243,-3.64778l1.26204,-3.44637l1.40736,-3.23396l1.55836,-3.01053l1.71506,-2.77608l1.87746,-2.53062l2.04555,-2.27415l2.21933,-2.00666l2.39881,-1.72816l2.58399,-1.43865l2.77485,-1.13812l2.97142,-0.82658l3.17368,-0.50403l3.38163,-0.17046l3.38078,0.16855l3.17128,0.49845l2.96771,0.81751l2.77005,1.12574l2.57831,1.42315l2.3925,1.70973l2.2126,1.98548l2.03863,2.2504l1.87057,2.50449l1.70843,2.74776l1.55222,2.98019l1.40192,3.2018l1.25755,3.41259l1.1191,3.61254l0.98656,3.80166l0.85994,3.97996l0.73925,4.14743l0.62448,4.30407l0.51562,4.44988l0.41269,4.58487l0.31567,4.70902l0.22458,4.82235l0.13941,4.92485l0.06015,5.01652v0.685l0.10263,5.01801l0.25944,4.92607l0.41108,4.82333l0.55755,4.70977l0.69885,4.58541l0.83498,4.45023l0.96595,4.30424l1.09174,4.14745l1.21237,3.97984l1.32782,3.80142l1.43811,3.61219l1.54323,3.41215l1.64317,3.2013l1.73795,2.97965l1.82756,2.74718l1.912,2.5039l1.99127,2.24981l2.06538,1.9849l2.13431,1.7092l2.19807,1.42267l2.25667,1.12534l2.31009,0.8172l2.35834,0.49825l2.40143,0.16849l2.40263,-0.16849l2.35944,-0.49825l2.31109,-0.8172l2.25758,-1.12534l2.1989,-1.42267l2.13505,-1.7092l2.06604,-1.9849l1.99186,-2.24981l1.91252,-2.5039l1.82802,-2.74718l1.73835,-2.97965l1.64351,-3.2013l1.54351,-3.41215l1.43835,-3.61219l1.32802,-3.80142l1.21252,-3.97984l1.09187,-4.14745l0.96604,-4.30424l0.83505,-4.45023l0.6989,-4.58541l0.55758,-4.70977l0.41109,-4.82333l0.25944,-4.92607l0.10263,-5.01801v-0.685l0.10208,-5.01652l0.25789,-4.92485l0.40868,-4.82235l0.55445,-4.70902l0.6952,-4.58487l0.83092,-4.44988l0.96162,-4.30407l1.08731,-4.14743l1.20797,-3.97996l1.3236,-3.80166l1.43422,-3.61254l1.53981,-3.41259l1.64039,-3.2018l1.73594,-2.98019l1.82647,-2.74776l1.91198,-2.50449l1.99246,-2.2504l2.06793,-1.98548l2.13837,-1.70973l2.20379,-1.42315l2.26419,-1.12574l2.31957,-0.81751l2.36992,-0.49845l2.39526,-0.16716l0.02,-0.0014l2.41496,0.17046l2.37136,0.50403l2.32251,0.82658l2.26839,1.13812l2.20902,1.43865l2.14438,1.72816l2.07449,2.00666l1.99933,2.27415l1.91891,2.53062l1.83324,2.77608l1.7423,3.01053l1.6461,3.23396l1.54464,3.44637l1.43792,3.64778l1.32595,3.83816l1.20871,4.01754l1.08621,4.1859l0.95845,4.34325l0.82542,4.48958l0.68714,4.6249l0.5436,4.74921l0.3948,4.8625l0.24074,4.96478l0.08141,5.05604v0.699l0.08142,5.05753l0.24074,4.966l0.39481,4.86348l0.54363,4.74996l0.68719,4.62544l0.82549,4.48993l0.95854,4.34342l1.08633,4.18592l1.20886,4.01742l1.32614,3.83792l1.43817,3.64743l1.54493,3.44594l1.64644,3.23346l1.7427,3.00998l1.83369,2.7755l1.91944,2.53003l1.99992,2.27356l2.07515,2.00609l2.14513,1.72763l2.20984,1.43818l2.26931,1.13772l2.32351,0.82627l2.37246,0.50383l2.41615,0.17039l2.4173,-0.17039l2.37341,-0.50383l2.32428,-0.82627l2.26991,-1.13772l2.21029,-1.43818l2.14543,-1.72763l2.07532,-2.00609l1.99998,-2.27356l1.91939,-2.53003l1.83355,-2.7755l1.74248,-3.00998l1.64616,-3.23346l1.5446,-3.44594l1.43779,-3.64743l1.32574,-3.83792l1.20845,-4.01742l1.08591,-4.18592l0.95814,-4.34342l0.82512,-4.48993l0.68685,-4.62544l0.54335,-4.74996l0.39459,-4.86348l0.2406,-4.966l0.08137,-5.05753v-0.699l0.08147,-5.05604l0.24089,-4.96478l0.39505,-4.8625l0.54394,-4.74921l0.68757,-4.6249l0.82593,-4.48958l0.95903,-4.34325l1.08687,-4.1859l1.20943,-4.01754l1.32674,-3.83816l1.43878,-3.64778l1.54556,-3.44637l1.64706,-3.23396l1.74331,-3.01053l1.83429,-2.77608l1.92001,-2.53062l2.00046,-2.27415l2.07565,-2.00666l2.14557,-1.72816l2.21023,-1.43865l2.26962,-1.13812l2.32375,-0.82658l2.37261,-0.50403l2.41621,-0.17046l2.41496,0.17046l2.37136,0.50403l2.32251,0.82658l2.26839,1.13812l2.20902,1.43865l2.14438,1.72816l2.07449,2.00666l1.99933,2.27415l1.91891,2.53062l1.83324,2.77608l1.7423,3.01053l1.6461,3.23396l1.54464,3.44637l1.43792,3.64778l1.32595,3.83816l1.20871,4.01754l1.08621,4.1859l0.95845,4.34325l0.82542,4.48958l0.68714,4.6249l0.5436,4.74921l0.3948,4.8625l0.24074,4.96478l0.08142,5.05604v0.699l0.05529,5.05753l0.1635,4.966l0.26816,4.86348l0.36925,4.74996l0.46679,4.62544l0.56076,4.48993l0.65118,4.34342l0.73803,4.18592l0.82133,4.01742l0.90107,3.83792l0.97725,3.64743l1.04988,3.44594l1.11894,3.23346l1.18444,3.00998l1.24639,2.7755l1.30477,2.53003l1.3596,2.27356l1.41087,2.00609l1.45857,1.72763l1.50272,1.43818l1.54331,1.13772l1.58035,0.82627l1.61382,0.50383l1.64373,0.17039l1.51469,-0.14493l1.4897,-0.42904l1.46192,-0.70453l1.43133,-0.97141l1.39794,-1.22966l1.36176,-1.4793l1.32278,-1.72031l1.28099,-1.95272l1.23641,-2.1765l1.18903,-2.39166l1.13884,-2.5982l1.08586,-2.79613l1.03008,-2.98544l0.9715,-3.16612l0.91012,-3.3382l0.84594,-3.50165l0.77896,-3.65648l0.70918,-3.8027l0.6366,-3.94029l0.56123,-4.06927l0.48305,-4.18963l0.40207,-4.30137l0.3183,-4.40449l0.23172,-4.499v-10.113l0.05534,-5.05604l0.16365,-4.96478l0.26838,-4.8625l0.36954,-4.74921l0.46712,-4.6249l0.56114,-4.48958l0.65158,-4.34325l0.73845,-4.1859l0.82175,-4.01754l0.90148,-3.83816l0.97763,-3.64778l1.05021,-3.44637l1.11922,-3.23396l1.18466,-3.01053l1.24653,-2.77608l1.30482,-2.53062l1.35954,-2.27415l1.41069,-2.00666l1.45827,-1.72816l1.50228,-1.43865l1.54271,-1.13812l1.57957,-0.82658l1.61286,-0.50403l1.64258,-0.17046l1.64138,0.17046l1.61177,0.50403l1.57857,0.82658l1.5418,1.13812l1.50145,1.43865l1.45753,1.72816l1.41003,2.00666l1.35895,2.27415l1.3043,2.53062l1.24607,2.77608l1.18427,3.01053l1.11888,3.23396l1.04993,3.44637l0.97739,3.64778l0.90128,3.83816l0.82159,4.01754l0.73833,4.1859l0.65149,4.34325l0.56107,4.48958l0.46708,4.6249l0.36951,4.74921l0.26836,4.8625l0.16364,4.96478l0.05534,5.05604v13.78l0.14406,4.27402l0.18152,4.17962l0.218,4.07744l0.25351,3.96748l0.28804,3.84975l0.3216,3.72424l0.35417,3.59096l0.38577,3.4499l0.4164,3.30106l0.44605,3.14445l0.47472,2.98006l0.50241,2.80789l0.52913,2.62795l0.55488,2.44023l0.57964,2.24474l0.60343,2.04146l0.62624,1.83042l0.64808,1.61159l0.66894,1.38499l0.68882,1.15061l0.70773,0.90846l0.72566,0.65853l0.74261,0.40082l0.75859,0.13533l0.76034,-0.14493l0.7476,-0.42904l0.73347,-0.70453l0.71795,-0.97141l0.70104,-1.22966l0.68274,-1.4793l0.66305,-1.72031l0.64197,-1.95272l0.61951,-2.1765l0.59565,-2.39166l0.57041,-2.5982l0.54378,-2.79613l0.51576,-2.98544l0.48635,-3.16612l0.45555,-3.3382l0.42336,-3.50165l0.38978,-3.65648l0.35482,-3.8027l0.31847,-3.94029l0.28072,-4.06927l0.24159,-4.18963l0.20107,-4.30137l0.15916,-4.40449l0.11586,-4.499v-35.977l0.12173,-5.75347l0.35128,-5.27431l0.55996,-4.81597l0.74777,-4.37847l0.91472,-3.96181l1.06079,-3.56597l1.186,-3.19097l1.29034,-2.83681l1.37381,-2.50347l1.43642,-2.19097l1.47815,-1.89931l1.49902,-1.62847l1.49902,-1.37847l1.47815,-1.14931l1.43642,-0.94097l1.37381,-0.75347l1.29034,-0.58681l1.186,-0.44097l1.06079,-0.31597l0.91472,-0.21181l0.74777,-0.12847l0.55996,-0.06597l0.35128,-0.02431l0.12173,-0.00347zM320,960h-320v-175.9988l2.39745,0.16736l2.36932,0.49845l2.31905,0.81751l2.26375,1.12574l2.20342,1.42315l2.13806,1.70973l2.06768,1.98548l1.99227,2.2504l1.91183,2.50449l1.82637,2.74776l1.73588,2.98019l1.64036,3.2018l1.53982,3.41259l1.43424,3.61254l1.32364,3.80166l1.20802,3.97996l1.08736,4.14743l0.96168,4.30407l0.83098,4.44988l0.69524,4.58487l0.55448,4.70902l0.40869,4.82235l0.25788,4.92485l0.10204,5.01652v0.685l0.10261,5.01801l0.25947,4.92607l0.41116,4.82333l0.55768,4.70977l0.69903,4.58541l0.8352,4.45023l0.9662,4.30424l1.09203,4.14745l1.21268,3.97984l1.32816,3.80142l1.43847,3.61219l1.5436,3.41215l1.64356,3.2013l1.73834,2.97965l1.82796,2.74718l1.9124,2.5039l1.99167,2.24981l2.06576,1.9849l2.13468,1.7092l2.19843,1.42267l2.257,1.12534l2.3104,0.8172l2.35863,0.49825l2.40168,0.16849l2.40169,-0.16849l2.35864,-0.49825l2.31041,-0.8172l2.25701,-1.12534l2.19844,-1.42267l2.1347,-1.7092l2.06578,-1.9849l1.99169,-2.24981l1.91242,-2.5039l1.82798,-2.74718l1.73836,-2.97965l1.64357,-3.2013l1.54361,-3.41215l1.43847,-3.61219l1.32816,-3.80142l1.21268,-3.97984l1.09202,-4.14745l0.96619,-4.30424l0.83518,-4.45023l0.699,-4.58541l0.55765,-4.70977l0.41112,-4.82333l0.25941,-4.92607l0.10254,-5.01801v-0.685l0.06013,-5.01652l0.13935,-4.92485l0.22449,-4.82235l0.31556,-4.70902l0.41254,-4.58487l0.51546,-4.44988l0.6243,-4.30407l0.73906,-4.14743l0.85975,-3.97996l0.98636,-3.80166l1.1189,-3.61254l1.25736,-3.41259l1.40174,-3.2018l1.55205,-2.98019l1.70829,-2.74776l1.87045,-2.50449l2.03853,-2.2504l2.21254,-1.98548l2.39247,-1.70973l2.57833,-1.42315l2.77011,-1.12574l2.96781,-0.81751l3.17144,-0.49845l3.381,-0.16855l3.38184,0.17046l3.17382,0.50403l2.9715,0.82658l2.77488,1.13812l2.58396,1.43865l2.39874,1.72816l2.21922,2.00666l2.0454,2.27415l1.87728,2.53062l1.71486,2.77608l1.55813,3.01053l1.40711,3.23396l1.26179,3.44637l1.12217,3.64778l0.98824,3.83816l0.86002,4.01754l0.73749,4.1859l0.62067,4.34325l0.50954,4.48958l0.40412,4.6249l0.30439,4.74921l0.21037,4.8625l0.12204,4.96478l0.03941,5.05604l0.01597,5.01801l0.02396,4.92607l0.04252,4.82333l0.07165,4.70977l0.11135,4.58541l0.16163,4.45023l0.22247,4.30424l0.29389,4.14745l0.37588,3.97984l0.46844,3.80142l0.57158,3.61219l0.68528,3.41215l0.80956,3.2013l0.9444,2.97965l1.08982,2.74718l1.24581,2.5039l1.41238,2.24981l1.58951,1.9849l1.77722,1.7092l1.97549,1.42267l2.18434,1.12534l2.40376,0.8172l2.63376,0.49825l2.87432,0.16849l2.86646,-0.14492l2.6115,-0.42902l2.36907,-0.70451l2.13917,-0.97137l1.92181,-1.22962l1.71698,-1.47925l1.52468,-1.72027l1.34492,-1.95266l1.1777,-2.17644l1.02301,-2.3916l0.88085,-2.59814l0.75123,-2.79607l0.63414,-2.98537l0.52958,-3.16606l0.43756,-3.33813l0.35808,-3.50159l0.29113,-3.65643l0.23671,-3.80264l0.19483,-3.94025l0.16548,-4.06923l0.14866,-4.1896l0.14438,-4.30135l0.15264,-4.40448l0.17343,-4.49899l0.00173,-5.10013l0.01215,-5.09225l0.03297,-5.06577l0.0642,-5.0207l0.10584,-4.95703l0.15789,-4.87477l0.22035,-4.77392l0.29322,-4.65448l0.3765,-4.51644l0.47019,-4.35981l0.57429,-4.18458l0.68881,-3.99076l0.81373,-3.77835l0.94906,-3.54735l1.0948,-3.29775l1.25095,-3.02956l1.41752,-2.74277l1.59449,-2.4374l1.78187,-2.11342l1.97966,-1.77086l2.18787,-1.4097l2.40648,-1.02995l2.6355,-0.6316l2.87494,-0.21467l2.87494,0.23323l2.6355,0.68517l2.40648,1.11534l2.18787,1.52373l1.97966,1.91035l1.78187,2.27519l1.59449,2.61825l1.41752,2.93954l1.25095,3.23906l1.0948,3.5168l0.94906,3.77276l0.81373,4.00695l0.68881,4.21936l0.57429,4.40999l0.47019,4.57885l0.3765,4.72594l0.29322,4.85125l0.22035,4.95478l0.15789,5.03654l0.10584,5.09652l0.0642,5.13473l0.03297,5.15116l0.01215,5.14581l0.00173,5.11869l0.11543,4.27413l0.10106,4.17971l0.09313,4.07751l0.09162,3.96754l0.09655,3.8498l0.1079,3.72428l0.12568,3.59098l0.14989,3.44991l0.18053,3.30106l0.2176,3.14444l0.26109,2.98004l0.31102,2.80787l0.36737,2.62792l0.43016,2.44019l0.49937,2.2447l0.57501,2.04142l0.65708,1.83038l0.74558,1.61155l0.8405,1.38495l0.94186,1.15058l1.04964,0.90843l1.16386,0.6585l1.2845,0.4008l1.41157,0.13533l1.21987,-0.3201l1.12892,-0.93452l1.04179,-1.5103l0.95849,-2.04743l0.87902,-2.54592l0.80337,-3.00575l0.73155,-3.42694l0.66356,-3.80948l0.59939,-4.15338l0.53905,-4.45863l0.48253,-4.72523l0.42985,-4.95319l0.38099,-5.14249l0.33596,-5.29315l0.29475,-5.40517l0.25737,-5.47853l0.22382,-5.51325l0.19409,-5.50932l0.1682,-5.46675l0.14612,-5.38552l0.12788,-5.26566l0.11346,-5.10714l0.10287,-4.90997l0.09611,-4.67416l0.12174,-5.75347l0.35129,-5.27431l0.55998,-4.81597l0.7478,-4.37847l0.91475,-3.96181l1.06084,-3.56597l1.18605,-3.19097l1.2904,-2.83681l1.37387,-2.50347l1.43648,-2.19097l1.47822,-1.89931l1.49908,-1.62847l1.49908,-1.37847l1.47822,-1.14931l1.43648,-0.94097l1.37387,-0.75347l1.29039,-0.58681l1.18605,-0.44097l1.06084,-0.31597l0.91475,-0.21181l0.7478,-0.12847l0.55998,-0.06597l0.35129,-0.02431l0.12174,-0.00347l-0.00028,0.13558l-0.00079,0.40329l-0.00123,0.66583l-0.00159,0.92318l-0.00188,1.17537l-0.0021,1.42238l-0.00225,1.66421l-0.00232,1.90087l-0.00232,2.13235l-0.00225,2.35866l-0.0021,2.57979l-0.00188,2.79575l-0.00159,3.00653l-0.00123,3.21213l-0.00079,3.41256l-0.00028,3.60782l0.0003,3.7979l0.00096,3.9828l0.00169,4.16253l0.00249,4.33709l0.00337,4.50647l0.00431,4.67067l0.00534,4.8297l0.00643,4.98355l0.00032,0.46578l0.00045,0.53391l0.00059,0.59578l0.00072,0.65141l0.00086,0.70078l0.00099,0.74389l0.00113,0.78076l0.00127,0.81136l0.0014,0.83572l0.00154,0.85382l0.00167,0.86566l0.00181,0.87126l0.00194,0.8706l0.00208,0.86368l0.00221,0.85051l0.00235,0.83109l0.00248,0.80541l0.00262,0.77348l0.00276,0.73529l0.00289,0.69086l0.00303,0.64016l0.00316,0.58322l0.0033,0.52002l0.00343,0.45056zM1440,280c66.27,0 120,-53.726 120,-120c0,-66.2742 -53.73,-120 -120,-120c-66.27,0 -120,53.7258 -120,120c0,66.274 53.73,120 120,120z" fill="#121212" fill-rule="nonzero"/><path d="M1600,640v-319.501l6.03539,0.63621l6.00395,0.90063l5.9617,1.16508l5.90864,1.42955l5.84477,1.69405l5.77009,1.95856l5.68459,2.2231l5.58828,2.48766l5.48117,2.75224l5.36324,3.01684l5.2345,3.28146l5.09494,3.54611l4.94458,3.81077l4.7834,4.07546l4.61142,4.34017l4.42861,4.6049l4.235,4.86966l4.03058,5.13443l3.81535,5.39923l3.5893,5.66405l3.35244,5.92889l3.10477,6.19375l2.84629,6.45864l2.577,6.72354l3.61399,9.11167l4.19353,8.6896l4.74167,8.25451l5.25841,7.80642l5.74376,7.34531l6.19771,6.87119l6.62026,6.38405l7.01142,5.88391l7.37117,5.37075l7.69953,4.84458l7.99649,4.30541l8.26206,3.75321l8.49623,3.18801l8.69899,2.6098l8.87037,2.01857l9.01034,1.41433l9.11892,0.79708l9.1961,0.16682l9.24188,-0.47645l9.25626,-1.13278l9.23925,-1.80199l9.19083,-2.48435l9.11103,-3.17966l8.99982,-3.888l14.19895,-5.85766l8.37105,-2.44494v163.6566zM960,640v-319.501l6.03539,0.63621l6.00395,0.90063l5.9617,1.16508l5.90864,1.42955l5.84477,1.69405l5.77009,1.95856l5.68459,2.2231l5.58828,2.48766l5.48117,2.75224l5.36324,3.01684l5.2345,3.28146l5.09494,3.54611l4.94458,3.81077l4.7834,4.07546l4.61142,4.34017l4.42861,4.6049l4.235,4.86966l4.03058,5.13443l3.81535,5.39923l3.5893,5.66405l3.35244,5.92889l3.10477,6.19375l2.84629,6.45864l2.577,6.72354l3.61399,9.11167l4.19353,8.6896l4.74167,8.25451l5.25841,7.80642l5.74376,7.34531l6.19771,6.87119l6.62026,6.38405l7.01142,5.88391l7.37117,5.37075l7.69953,4.84458l7.99649,4.30541l8.26206,3.75321l8.49623,3.18801l8.69899,2.6098l8.87037,2.01857l9.01034,1.41433l9.11892,0.79708l9.1961,0.16682l9.24188,-0.47645l9.25626,-1.13278l9.23925,-1.80199l9.19083,-2.48435l9.11103,-3.17966l8.99982,-3.888l14.19895,-5.85766l8.37105,-2.44494v163.6566zM320,320.499l6.03587,0.63621l6.00439,0.90063l5.9621,1.16508l5.909,1.42955l5.84509,1.69405l5.77036,1.95856l5.68483,2.2231l5.58848,2.48766l5.48133,2.75224l5.36336,3.01684l5.23458,3.28146l5.09499,3.54611l4.94459,3.81077l4.78338,4.07546l4.61136,4.34017l4.42852,4.6049l4.23487,4.86966l4.03042,5.13443l3.81515,5.39923l3.58907,5.66405l3.35218,5.92889l3.10448,6.19375l2.84596,6.45864l2.57664,6.72354l3.61386,9.11167l4.19339,8.6896l4.74153,8.25451l5.25828,7.80642l5.74363,7.34531l6.19759,6.87119l6.62015,6.38405l7.01132,5.88391l7.3711,5.37075l7.69949,4.84458l7.99648,4.30541l8.26207,3.75321l8.49628,3.18801l8.69908,2.6098l8.8705,2.01857l9.01052,1.41433l9.11915,0.79708l9.19639,0.16682l9.24223,-0.47645l9.25668,-1.13278l9.23973,-1.80199l9.19139,-2.48435l9.11166,-3.17966l9.00053,-3.888l14.19822,-5.85766l8.36778,-2.4441v163.65576h-0.013c0,176.667 -143.789,320 -319.987,320v-40c154.64,0 280,-125.36 280,-280h-16c0,145.803 -118.197,264 -264,264v-36.008l-0.00343,-0.45056l-0.0033,-0.52002l-0.00316,-0.58322l-0.00303,-0.64016l-0.00289,-0.69086l-0.00276,-0.73529l-0.00262,-0.77348l-0.00248,-0.80541l-0.00235,-0.83109l-0.00221,-0.85051l-0.00208,-0.86368l-0.00194,-0.8706l-0.00181,-0.87126l-0.00167,-0.86566l-0.00154,-0.85382l-0.0014,-0.83572l-0.00127,-0.81136l-0.00113,-0.78076l-0.00099,-0.74389l-0.00086,-0.70078l-0.00072,-0.65141l-0.00059,-0.59578l-0.00045,-0.53391l-0.00032,-0.46578l-0.00643,-4.98355l-0.00534,-4.8297l-0.00431,-4.67067l-0.00337,-4.50647l-0.00249,-4.33709l-0.00169,-4.16253l-0.00096,-3.9828l-0.0003,-3.7979l0.00028,-3.60782l0.00079,-3.41256l0.00123,-3.21213l0.00159,-3.00653l0.00188,-2.79575l0.0021,-2.57979l0.00225,-2.35866l0.00232,-2.13235l0.00232,-1.90087l0.00225,-1.66421l0.0021,-1.42238l0.00188,-1.17537l0.00159,-0.92318l0.00123,-0.66583l0.00079,-0.40329l0.00028,-0.13558l-0.12174,0.00347l-0.35129,0.02431l-0.55998,0.06597l-0.7478,0.12847l-0.91475,0.21181l-1.06084,0.31597l-1.18605,0.44097l-1.29039,0.58681l-1.37387,0.75347l-1.43648,0.94097l-1.47822,1.14931l-1.49908,1.37847l-1.49908,1.62847l-1.47822,1.89931l-1.43648,2.19097l-1.37387,2.50347l-1.2904,2.83681l-1.18605,3.19097l-1.06084,3.56597l-0.91475,3.96181l-0.7478,4.37847l-0.55998,4.81597l-0.35129,5.27431l-0.12174,5.75347l-0.09611,4.67416l-0.10287,4.90997l-0.11346,5.10714l-0.12788,5.26566l-0.14612,5.38552l-0.1682,5.46675l-0.19409,5.50932l-0.22382,5.51325l-0.25737,5.47853l-0.29475,5.40517l-0.33596,5.29315l-0.38099,5.14249l-0.42985,4.95319l-0.48253,4.72523l-0.53905,4.45863l-0.59939,4.15338l-0.66356,3.80948l-0.73155,3.42694l-0.80337,3.00575l-0.87902,2.54592l-0.95849,2.04743l-1.04179,1.5103l-1.12892,0.93452l-1.21987,0.3201l-1.41157,-0.13533l-1.2845,-0.4008l-1.16386,-0.6585l-1.04964,-0.90843l-0.94186,-1.15058l-0.8405,-1.38495l-0.74558,-1.61155l-0.65708,-1.83038l-0.57501,-2.04142l-0.49937,-2.2447l-0.43016,-2.44019l-0.36737,-2.62792l-0.31102,-2.80787l-0.26109,-2.98004l-0.2176,-3.14444l-0.18053,-3.30106l-0.14989,-3.44991l-0.12568,-3.59098l-0.1079,-3.72428l-0.09655,-3.8498l-0.09162,-3.96754l-0.09313,-4.07751l-0.10106,-4.17971l-0.11543,-4.27413l-0.00173,-5.11869l-0.01215,-5.14581l-0.03297,-5.15116l-0.0642,-5.13473l-0.10584,-5.09652l-0.15789,-5.03654l-0.22035,-4.95478l-0.29322,-4.85125l-0.3765,-4.72594l-0.47019,-4.57885l-0.57429,-4.40999l-0.68881,-4.21936l-0.81373,-4.00695l-0.94906,-3.77276l-1.0948,-3.5168l-1.25095,-3.23906l-1.41752,-2.93954l-1.59449,-2.61825l-1.78187,-2.27519l-1.97966,-1.91035l-2.18787,-1.52373l-2.40648,-1.11534l-2.6355,-0.68517l-2.87494,-0.23323l-2.87494,0.21467l-2.6355,0.6316l-2.40648,1.02995l-2.18787,1.4097l-1.97966,1.77086l-1.78187,2.11342l-1.59449,2.4374l-1.41752,2.74277l-1.25095,3.02956l-1.0948,3.29775l-0.94906,3.54735l-0.81373,3.77835l-0.68881,3.99076l-0.57429,4.18458l-0.47019,4.35981l-0.3765,4.51644l-0.29322,4.65448l-0.22035,4.77392l-0.15789,4.87477l-0.10584,4.95703l-0.0642,5.0207l-0.03297,5.06577l-0.01215,5.09225l-0.00173,5.10013l-0.17343,4.49899l-0.15264,4.40448l-0.14438,4.30135l-0.14866,4.1896l-0.16548,4.06923l-0.19483,3.94025l-0.23671,3.80264l-0.29113,3.65643l-0.35808,3.50159l-0.43756,3.33813l-0.52958,3.16606l-0.63414,2.98537l-0.75123,2.79607l-0.88085,2.59814l-1.02301,2.3916l-1.1777,2.17644l-1.34492,1.95266l-1.52468,1.72027l-1.71698,1.47925l-1.92181,1.22962l-2.13917,0.97137l-2.36907,0.70451l-2.6115,0.42902l-2.86646,0.14492l-2.87432,-0.16849l-2.63376,-0.49825l-2.40376,-0.8172l-2.18434,-1.12534l-1.97549,-1.42267l-1.77722,-1.7092l-1.58951,-1.9849l-1.41238,-2.24981l-1.24581,-2.5039l-1.08982,-2.74718l-0.9444,-2.97965l-0.80956,-3.2013l-0.68528,-3.41215l-0.57158,-3.61219l-0.46844,-3.80142l-0.37588,-3.97984l-0.29389,-4.14745l-0.22247,-4.30424l-0.16163,-4.45023l-0.11135,-4.58541l-0.07165,-4.70977l-0.04252,-4.82333l-0.02396,-4.92607l-0.01597,-5.01801l-0.03941,-5.05604l-0.12204,-4.96478l-0.21037,-4.8625l-0.30439,-4.74921l-0.40412,-4.6249l-0.50954,-4.48958l-0.62067,-4.34325l-0.73749,-4.1859l-0.86002,-4.01754l-0.98824,-3.83816l-1.12217,-3.64778l-1.26179,-3.44637l-1.40711,-3.23396l-1.55813,-3.01053l-1.71486,-2.77608l-1.87728,-2.53062l-2.0454,-2.27415l-2.21922,-2.00666l-2.39874,-1.72816l-2.58396,-1.43865l-2.77488,-1.13812l-2.9715,-0.82658l-3.17382,-0.50403l-3.38184,-0.17046l-3.381,0.16855l-3.17144,0.49845l-2.96781,0.81751l-2.77011,1.12574l-2.57833,1.42315l-2.39247,1.70973l-2.21254,1.98548l-2.03853,2.2504l-1.87045,2.50449l-1.70829,2.74776l-1.55205,2.98019l-1.40174,3.2018l-1.25736,3.41259l-1.1189,3.61254l-0.98636,3.80166l-0.85975,3.97996l-0.73906,4.14743l-0.6243,4.30407l-0.51546,4.44988l-0.41254,4.58487l-0.31556,4.70902l-0.22449,4.82235l-0.13935,4.92485l-0.06013,5.01652v0.685l-0.10254,5.01801l-0.25941,4.92607l-0.41112,4.82333l-0.55765,4.70977l-0.699,4.58541l-0.83518,4.45023l-0.96619,4.30424l-1.09202,4.14745l-1.21268,3.97984l-1.32816,3.80142l-1.43847,3.61219l-1.54361,3.41215l-1.64357,3.2013l-1.73836,2.97965l-1.82798,2.74718l-1.91242,2.5039l-1.99169,2.24981l-2.06578,1.9849l-2.1347,1.7092l-2.19844,1.42267l-2.25701,1.12534l-2.31041,0.8172l-2.35864,0.49825l-2.40169,0.16849l-2.40168,-0.16849l-2.35863,-0.49825l-2.3104,-0.8172l-2.257,-1.12534l-2.19843,-1.42267l-2.13468,-1.7092l-2.06576,-1.9849l-1.99167,-2.24981l-1.9124,-2.5039l-1.82796,-2.74718l-1.73834,-2.97965l-1.64356,-3.2013l-1.5436,-3.41215l-1.43847,-3.61219l-1.32816,-3.80142l-1.21268,-3.97984l-1.09203,-4.14745l-0.9662,-4.30424l-0.8352,-4.45023l-0.69903,-4.58541l-0.55768,-4.70977l-0.41116,-4.82333l-0.25947,-4.92607l-0.10261,-5.01801v-0.685l-0.10204,-5.01652l-0.25788,-4.92485l-0.40869,-4.82235l-0.55448,-4.70902l-0.69524,-4.58487l-0.83098,-4.44988l-0.96168,-4.30407l-1.08736,-4.14743l-1.20802,-3.97996l-1.32364,-3.80166l-1.43424,-3.61254l-1.53982,-3.41259l-1.64036,-3.2018l-1.73588,-2.98019l-1.82637,-2.74776l-1.91183,-2.50449l-1.99227,-2.2504l-2.06768,-1.98548l-2.13806,-1.70973l-2.20342,-1.42315l-2.26374,-1.12574l-2.31905,-0.81751l-2.36932,-0.49845l-2.39745,-0.16736v-144.0012h320zM1280,640h320v320h-0.01v-176l-0.12173,0.00347l-0.35128,0.02431l-0.55996,0.06597l-0.74777,0.12847l-0.91472,0.21181l-1.06079,0.31597l-1.186,0.44097l-1.29034,0.58681l-1.37381,0.75347l-1.43642,0.94097l-1.47815,1.14931l-1.49902,1.37847l-1.49902,1.62847l-1.47815,1.89931l-1.43642,2.19097l-1.37381,2.50347l-1.29034,2.83681l-1.186,3.19097l-1.06079,3.56597l-0.91472,3.96181l-0.74777,4.37847l-0.55996,4.81597l-0.35128,5.27431l-0.12173,5.75347v35.977l-0.11586,4.499l-0.15916,4.40449l-0.20107,4.30137l-0.24159,4.18963l-0.28072,4.06927l-0.31847,3.94029l-0.35482,3.8027l-0.38978,3.65648l-0.42336,3.50165l-0.45555,3.3382l-0.48635,3.16612l-0.51576,2.98544l-0.54378,2.79613l-0.57041,2.5982l-0.59565,2.39166l-0.61951,2.1765l-0.64197,1.95272l-0.66305,1.72031l-0.68274,1.4793l-0.70104,1.22966l-0.71795,0.97141l-0.73347,0.70453l-0.7476,0.42904l-0.76034,0.14493l-0.75859,-0.13533l-0.74261,-0.40082l-0.72566,-0.65853l-0.70773,-0.90846l-0.68882,-1.15061l-0.66894,-1.38499l-0.64808,-1.61159l-0.62624,-1.83042l-0.60343,-2.04146l-0.57964,-2.24474l-0.55488,-2.44023l-0.52913,-2.62795l-0.50241,-2.80789l-0.47472,-2.98006l-0.44605,-3.14445l-0.4164,-3.30106l-0.38577,-3.4499l-0.35417,-3.59096l-0.3216,-3.72424l-0.28804,-3.84975l-0.25351,-3.96748l-0.218,-4.07744l-0.18152,-4.17962l-0.14406,-4.27402v-13.78l-0.05534,-5.05604l-0.16364,-4.96478l-0.26836,-4.8625l-0.36951,-4.74921l-0.46708,-4.6249l-0.56107,-4.48958l-0.65149,-4.34325l-0.73833,-4.1859l-0.82159,-4.01754l-0.90128,-3.83816l-0.97739,-3.64778l-1.04993,-3.44637l-1.11888,-3.23396l-1.18427,-3.01053l-1.24607,-2.77608l-1.3043,-2.53062l-1.35895,-2.27415l-1.41003,-2.00666l-1.45753,-1.72816l-1.50145,-1.43865l-1.5418,-1.13812l-1.57857,-0.82658l-1.61177,-0.50403l-1.64138,-0.17046l-1.64258,0.17046l-1.61286,0.50403l-1.57957,0.82658l-1.54271,1.13812l-1.50228,1.43865l-1.45827,1.72816l-1.41069,2.00666l-1.35954,2.27415l-1.30482,2.53062l-1.24653,2.77608l-1.18466,3.01053l-1.11922,3.23396l-1.05021,3.44637l-0.97763,3.64778l-0.90148,3.83816l-0.82175,4.01754l-0.73845,4.1859l-0.65158,4.34325l-0.56114,4.48958l-0.46712,4.6249l-0.36954,4.74921l-0.26838,4.8625l-0.16365,4.96478l-0.05534,5.05604v10.113l-0.23172,4.499l-0.3183,4.40449l-0.40207,4.30137l-0.48305,4.18963l-0.56123,4.06927l-0.6366,3.94029l-0.70918,3.8027l-0.77896,3.65648l-0.84594,3.50165l-0.91012,3.3382l-0.9715,3.16612l-1.03008,2.98544l-1.08586,2.79613l-1.13884,2.5982l-1.18903,2.39166l-1.23641,2.1765l-1.28099,1.95272l-1.32278,1.72031l-1.36176,1.4793l-1.39794,1.22966l-1.43133,0.97141l-1.46192,0.70453l-1.4897,0.42904l-1.51469,0.14493l-1.64373,-0.17039l-1.61382,-0.50383l-1.58035,-0.82627l-1.54331,-1.13772l-1.50272,-1.43818l-1.45857,-1.72763l-1.41087,-2.00609l-1.3596,-2.27356l-1.30477,-2.53003l-1.24639,-2.7755l-1.18444,-3.00998l-1.11894,-3.23346l-1.04988,-3.44594l-0.97725,-3.64743l-0.90107,-3.83792l-0.82133,-4.01742l-0.73803,-4.18592l-0.65118,-4.34342l-0.56076,-4.48993l-0.46679,-4.62544l-0.36925,-4.74996l-0.26816,-4.86348l-0.1635,-4.966l-0.05529,-5.05753v-0.699l-0.08142,-5.05604l-0.24074,-4.96478l-0.3948,-4.8625l-0.5436,-4.74921l-0.68714,-4.6249l-0.82542,-4.48958l-0.95845,-4.34325l-1.08621,-4.1859l-1.20871,-4.01754l-1.32595,-3.83816l-1.43792,-3.64778l-1.54464,-3.44637l-1.6461,-3.23396l-1.7423,-3.01053l-1.83324,-2.77608l-1.91891,-2.53062l-1.99933,-2.27415l-2.07449,-2.00666l-2.14438,-1.72816l-2.20902,-1.43865l-2.26839,-1.13812l-2.32251,-0.82658l-2.37136,-0.50403l-2.41496,-0.17046l-2.41621,0.17046l-2.37261,0.50403l-2.32375,0.82658l-2.26962,1.13812l-2.21023,1.43865l-2.14557,1.72816l-2.07565,2.00666l-2.00046,2.27415l-1.92001,2.53062l-1.83429,2.77608l-1.74331,3.01053l-1.64706,3.23396l-1.54556,3.44637l-1.43878,3.64778l-1.32674,3.83816l-1.20943,4.01754l-1.08687,4.1859l-0.95903,4.34325l-0.82593,4.48958l-0.68757,4.6249l-0.54394,4.74921l-0.39505,4.8625l-0.24089,4.96478l-0.08147,5.05604v0.699l-0.08137,5.05753l-0.2406,4.966l-0.39459,4.86348l-0.54335,4.74996l-0.68685,4.62544l-0.82512,4.48993l-0.95814,4.34342l-1.08591,4.18592l-1.20845,4.01742l-1.32574,3.83792l-1.43779,3.64743l-1.5446,3.44594l-1.64616,3.23346l-1.74248,3.00998l-1.83355,2.7755l-1.91939,2.53003l-1.99998,2.27356l-2.07532,2.00609l-2.14543,1.72763l-2.21029,1.43818l-2.26991,1.13772l-2.32428,0.82627l-2.37341,0.50383l-2.4173,0.17039l-2.41615,-0.17039l-2.37246,-0.50383l-2.32351,-0.82627l-2.26931,-1.13772l-2.20984,-1.43818l-2.14513,-1.72763l-2.07515,-2.00609l-1.99992,-2.27356l-1.91944,-2.53003l-1.83369,-2.7755l-1.7427,-3.00998l-1.64644,-3.23346l-1.54493,-3.44594l-1.43817,-3.64743l-1.32614,-3.83792l-1.20886,-4.01742l-1.08633,-4.18592l-0.95854,-4.34342l-0.82549,-4.48993l-0.68719,-4.62544l-0.54363,-4.74996l-0.39481,-4.86348l-0.24074,-4.966l-0.08142,-5.05753v-0.699l-0.08141,-5.05604l-0.24074,-4.96478l-0.3948,-4.8625l-0.5436,-4.74921l-0.68714,-4.6249l-0.82542,-4.48958l-0.95845,-4.34325l-1.08621,-4.1859l-1.20871,-4.01754l-1.32595,-3.83816l-1.43792,-3.64778l-1.54464,-3.44637l-1.6461,-3.23396l-1.7423,-3.01053l-1.83324,-2.77608l-1.91891,-2.53062l-1.99933,-2.27415l-2.07449,-2.00666l-2.14438,-1.72816l-2.20902,-1.43865l-2.26839,-1.13812l-2.32251,-0.82658l-2.37136,-0.50403l-2.41496,-0.17046l-0.02,0.0014zM640,640h320v227.992l-0.00343,-0.45056l-0.0033,-0.52002l-0.00316,-0.58322l-0.00303,-0.64016l-0.00289,-0.69086l-0.00276,-0.73529l-0.00262,-0.77348l-0.00249,-0.80541l-0.00235,-0.83109l-0.00221,-0.85051l-0.00208,-0.86368l-0.00194,-0.8706l-0.00181,-0.87126l-0.00167,-0.86566l-0.00154,-0.85382l-0.0014,-0.83572l-0.00126,-0.81136l-0.00113,-0.78076l-0.00099,-0.74389l-0.00086,-0.70078l-0.00072,-0.65141l-0.00059,-0.59578l-0.00045,-0.53391l-0.00032,-0.46578l-0.00643,-4.98355l-0.00534,-4.8297l-0.00431,-4.67067l-0.00337,-4.50647l-0.00249,-4.33709l-0.00169,-4.16253l-0.00096,-3.9828l-0.0003,-3.7979l0.00028,-3.60782l0.00079,-3.41256l0.00123,-3.21213l0.00159,-3.00653l0.00188,-2.79575l0.0021,-2.57979l0.00225,-2.35866l0.00232,-2.13235l0.00232,-1.90087l0.00225,-1.66421l0.0021,-1.42238l0.00188,-1.17537l0.00159,-0.92318l0.00123,-0.66583l0.00079,-0.40329l0.00028,-0.13558l-0.12174,0.00347l-0.35129,0.02431l-0.55998,0.06597l-0.7478,0.12847l-0.91475,0.21181l-1.06084,0.31597l-1.18605,0.44097l-1.2904,0.58681l-1.37387,0.75347l-1.43648,0.94097l-1.47822,1.14931l-1.49908,1.37847l-1.49908,1.62847l-1.47822,1.89931l-1.43648,2.19097l-1.37387,2.50347l-1.29039,2.83681l-1.18605,3.19097l-1.06084,3.56597l-0.91475,3.96181l-0.7478,4.37847l-0.55998,4.81597l-0.35129,5.27431l-0.12174,5.75347l-0.09611,4.67416l-0.10287,4.90997l-0.11346,5.10714l-0.12788,5.26566l-0.14613,5.38552l-0.1682,5.46675l-0.19409,5.50932l-0.22382,5.51325l-0.25737,5.47853l-0.29475,5.40517l-0.33596,5.29315l-0.38099,5.14249l-0.42985,4.95319l-0.48253,4.72523l-0.53905,4.45863l-0.59939,4.15338l-0.66355,3.80948l-0.73155,3.42694l-0.80337,3.00575l-0.87902,2.54592l-0.95849,2.04743l-1.04179,1.5103l-1.12892,0.93452l-1.21987,0.3201l-1.41157,-0.13533l-1.2845,-0.4008l-1.16386,-0.6585l-1.04964,-0.90843l-0.94186,-1.15058l-0.8405,-1.38495l-0.74558,-1.61155l-0.65708,-1.83038l-0.57501,-2.04142l-0.49937,-2.2447l-0.43016,-2.44019l-0.36737,-2.62792l-0.31102,-2.80787l-0.26109,-2.98004l-0.2176,-3.14444l-0.18053,-3.30106l-0.14989,-3.44991l-0.12568,-3.59098l-0.1079,-3.72428l-0.09655,-3.8498l-0.09162,-3.96754l-0.09313,-4.07751l-0.10106,-4.17971l-0.11543,-4.27413l-0.00174,-5.11869l-0.01214,-5.14581l-0.03297,-5.15116l-0.0642,-5.13473l-0.10584,-5.09652l-0.15789,-5.03654l-0.22035,-4.95478l-0.29322,-4.85125l-0.3765,-4.72594l-0.47019,-4.57885l-0.57429,-4.40999l-0.68881,-4.21936l-0.81373,-4.00695l-0.94906,-3.77276l-1.0948,-3.5168l-1.25095,-3.23906l-1.41752,-2.93954l-1.59449,-2.61825l-1.78187,-2.27519l-1.97966,-1.91035l-2.18787,-1.52373l-2.40648,-1.11534l-2.6355,-0.68517l-2.87494,-0.23323l-2.87494,0.21467l-2.6355,0.6316l-2.40648,1.02995l-2.18787,1.4097l-1.97966,1.77086l-1.78187,2.11342l-1.59449,2.4374l-1.41752,2.74277l-1.25095,3.02956l-1.0948,3.29775l-0.94906,3.54735l-0.81373,3.77835l-0.68881,3.99076l-0.57429,4.18458l-0.47019,4.35981l-0.3765,4.51644l-0.29322,4.65448l-0.22035,4.77392l-0.15789,4.87477l-0.10584,4.95703l-0.0642,5.0207l-0.03297,5.06577l-0.01214,5.09225l-0.00174,5.10013l-0.17343,4.49899l-0.15264,4.40448l-0.14438,4.30135l-0.14866,4.1896l-0.16548,4.06923l-0.19483,3.94025l-0.23671,3.80264l-0.29113,3.65643l-0.35808,3.50159l-0.43756,3.33813l-0.52958,3.16606l-0.63414,2.98537l-0.75123,2.79607l-0.88085,2.59814l-1.02301,2.3916l-1.1777,2.17644l-1.34492,1.95266l-1.52468,1.72027l-1.71698,1.47925l-1.92181,1.22962l-2.13917,0.97137l-2.36907,0.70451l-2.6115,0.42902l-2.86646,0.14492l-2.87432,-0.16849l-2.63376,-0.49825l-2.40376,-0.8172l-2.18434,-1.12534l-1.97549,-1.42267l-1.77722,-1.7092l-1.58951,-1.9849l-1.41238,-2.24981l-1.24581,-2.5039l-1.08982,-2.74718l-0.9444,-2.97965l-0.80956,-3.2013l-0.68528,-3.41215l-0.57158,-3.61219l-0.46844,-3.80142l-0.37588,-3.97984l-0.29389,-4.14745l-0.22247,-4.30424l-0.16163,-4.45023l-0.11135,-4.58541l-0.07165,-4.70977l-0.04252,-4.82333l-0.02396,-4.92607l-0.01597,-5.01801l-0.03941,-5.05604l-0.12204,-4.96478l-0.21037,-4.8625l-0.30439,-4.74921l-0.40412,-4.6249l-0.50954,-4.48958l-0.62067,-4.34325l-0.73749,-4.1859l-0.86002,-4.01754l-0.98824,-3.83816l-1.12217,-3.64778l-1.26179,-3.44637l-1.40711,-3.23396l-1.55813,-3.01053l-1.71486,-2.77608l-1.87728,-2.53062l-2.0454,-2.27415l-2.21922,-2.00666l-2.39874,-1.72816l-2.58396,-1.43865l-2.77488,-1.13812l-2.9715,-0.82658l-3.17382,-0.50403l-3.38184,-0.17046l-3.381,0.16855l-3.17144,0.49845l-2.96781,0.81751l-2.77011,1.12574l-2.57833,1.42315l-2.39247,1.70973l-2.21254,1.98548l-2.03853,2.2504l-1.87045,2.50449l-1.70829,2.74776l-1.55205,2.98019l-1.40174,3.2018l-1.25736,3.41259l-1.1189,3.61254l-0.98636,3.80166l-0.85975,3.97996l-0.73906,4.14743l-0.6243,4.30407l-0.51546,4.44988l-0.41254,4.58487l-0.31556,4.70902l-0.22449,4.82235l-0.13935,4.92485l-0.06013,5.01652v0.685l-0.10254,5.01801l-0.25942,4.92607l-0.41112,4.82333l-0.55765,4.70977l-0.69901,4.58541l-0.83519,4.45023l-0.9662,4.30424l-1.09203,4.14745l-1.21269,3.97984l-1.32817,3.80142l-1.43849,3.61219l-1.54363,3.41215l-1.64359,3.2013l-1.73838,2.97965l-1.82799,2.74718l-1.91243,2.5039l-1.9917,2.24981l-2.0658,1.9849l-2.13471,1.7092l-2.19846,1.42267l-2.25703,1.12534l-2.31043,0.8172l-2.35865,0.49825l-2.4017,0.16849l-2.4017,-0.16849l-2.35864,-0.49825l-2.3104,-0.8172l-2.257,-1.12534l-2.19842,-1.42267l-2.13467,-1.7092l-2.06575,-1.9849l-1.99165,-2.24981l-1.91238,-2.5039l-1.82793,-2.74718l-1.73832,-2.97965l-1.64353,-3.2013l-1.54356,-3.41215l-1.43843,-3.61219l-1.32812,-3.80142l-1.21263,-3.97984l-1.09198,-4.14745l-0.96615,-4.30424l-0.83515,-4.45023l-0.69897,-4.58541l-0.55762,-4.70977l-0.4111,-4.82333l-0.2594,-4.92607l-0.10253,-5.01801v-0.685l-0.10209,-5.01652l-0.25793,-4.92485l-0.40874,-4.82235l-0.55453,-4.70902l-0.69528,-4.58487l-0.83101,-4.44988l-0.96172,-4.30407l-1.08739,-4.14743l-1.20804,-3.97996l-1.32367,-3.80166l-1.43426,-3.61254l-1.53983,-3.41259l-1.64037,-3.2018l-1.73589,-2.98019l-1.82637,-2.74776l-1.91183,-2.50449l-1.99227,-2.2504l-2.06768,-1.98548l-2.13806,-1.70973l-2.20341,-1.42315l-2.26373,-1.12574l-2.31904,-0.81751l-2.36931,-0.49845l-2.39755,-0.16737zM536,640h-16c0,110.457 -89.543,200 -200,200v16c119.294,0 216,-96.707 216,-216zM472,640h-16c0,75.111 -60.889,136 -136,136v16c83.947,0 152,-68.053 152,-152zM408,640h-16c0,39.765 -32.235,72 -72,72v16c48.601,0 88,-39.399 88,-88zM344,640h-16c0,4.418 -3.582,8 -8,8v16c13.255,0 24,-10.745 24,-24zM1920,960h-8c0,-4.418 3.58,-8 8,-8zM1601.6,927.993c15.06,-151.065 135.57,-271.294 286.29,-286.393c10.57,-1.058 21.28,-1.6 32.11,-1.6v40c-154.64,0 -280,125.36 -280,280h-39.99c0,-10.802 0.54,-21.479 1.59,-32.007zM1920,696v48c-119.29,0 -216,96.707 -216,216h-48c0,-145.803 118.2,-264 264,-264zM1920,760v48c-83.95,0 -152,68.053 -152,152h-48c0,-110.457 89.54,-200 200,-200zM1920,824v48c-48.6,0 -88,39.399 -88,88h-48c0,-75.111 60.89,-136 136,-136zM1920,888v48c-13.25,0 -24,10.745 -24,24h-48c0,-39.765 32.24,-72 72,-72z" fill="#4997d0" fill-rule="nonzero"/><path d="M344,640c0,13.255 -10.745,24 -24,24v-16c4.418,0 8,-3.582 8,-8zM408,640c0,48.601 -39.399,88 -88,88v-16c39.765,0 72,-32.235 72,-72zM472,640c0,83.947 -68.053,152 -152,152v-16c75.111,0 136,-60.889 136,-136zM536,640c0,119.293 -96.706,216 -216,216v-16c110.457,0 200,-89.543 200,-200zM600,640c0,154.64 -125.36,280 -280,280v-16c145.803,0 264,-118.197 264,-264zM639.987,640c0,10.802 -0.537,21.479 -1.587,32.007c-15.062,151.065 -135.567,271.294 -286.293,286.393c-10.562,1.058 -21.273,1.6 -32.107,1.6c176.198,0 319.987,-143.333 319.987,-320zM1896,960c0,-13.255 10.75,-24 24,-24v16c-4.42,0 -8,3.582 -8,8zM1832,960c0,-48.601 39.4,-88 88,-88v16c-39.76,0 -72,32.235 -72,72zM1768,960c0,-83.947 68.05,-152 152,-152v16c-75.11,0 -136,60.889 -136,136zM1704,960c0,-119.293 96.71,-216 216,-216v16c-110.46,0 -200,89.543 -200,200zM1640,960c0,-154.64 125.36,-280 280,-280v16c-145.8,0 -264,118.197 -264,264zM1288.37105,478.78834l14.19895,5.85766l8.99982,3.888l9.11103,3.17966l9.19083,2.48435l9.23925,1.80199l9.25626,1.13278l9.24188,0.47645l9.1961,-0.16682l9.11892,-0.79708l9.01034,-1.41433l8.87037,-2.01857l8.69899,-2.6098l8.49623,-3.18801l8.26206,-3.75321l7.99649,-4.30541l7.69953,-4.84458l7.37117,-5.37075l7.01142,-5.88391l6.62026,-6.38405l6.19771,-6.87119l5.74376,-7.34531l5.25841,-7.80642l4.74167,-8.25451l4.19353,-8.6896l3.61399,-9.11167l2.577,-6.72354l2.84629,-6.45864l3.10477,-6.19375l3.35244,-5.92889l3.5893,-5.66405l3.81535,-5.39923l4.03058,-5.13443l4.235,-4.86966l4.42861,-4.6049l4.61142,-4.34017l4.7834,-4.07546l4.94458,-3.81077l5.09494,-3.54611l5.2345,-3.28146l5.36324,-3.01684l5.48117,-2.75224l5.58828,-2.48766l5.68459,-2.2231l5.77009,-1.95856l5.84477,-1.69405l5.90864,-1.42955l5.9617,-1.16508l6.00395,-0.90063l6.03539,-0.63621v319.501h-320v-163.6566zM648.36778,478.78834l14.19822,5.85766l9.00053,3.888l9.11166,3.17966l9.19139,2.48435l9.23973,1.80199l9.25668,1.13278l9.24223,0.47645l9.19639,-0.16682l9.11915,-0.79708l9.01052,-1.41433l8.8705,-2.01857l8.69908,-2.6098l8.49628,-3.18801l8.26207,-3.75321l7.99648,-4.30541l7.69948,-4.84458l7.3711,-5.37075l7.01132,-5.88391l6.62015,-6.38405l6.19759,-6.87119l5.74363,-7.34531l5.25828,-7.80642l4.74153,-8.25451l4.19339,-8.6896l3.61386,-9.11167l2.57664,-6.72354l2.84596,-6.45864l3.10448,-6.19375l3.35218,-5.92889l3.58907,-5.66405l3.81515,-5.39923l4.03042,-5.13443l4.23487,-4.86966l4.42852,-4.6049l4.61136,-4.34017l4.78338,-4.07546l4.94459,-3.81077l5.09499,-3.54611l5.23458,-3.28146l5.36336,-3.01684l5.48133,-2.75224l5.58848,-2.48766l5.68483,-2.2231l5.77036,-1.95856l5.84509,-1.69405l5.909,-1.42955l5.9621,-1.16508l6.00439,-0.90063l6.03586,-0.63621v319.501l-320,0v-163.65576zM8.36809,478.78834l14.19831,5.85766l9.00043,3.888l9.11157,3.17966l9.19132,2.48435l9.23967,1.80199l9.25662,1.13278l9.24219,0.47645l9.19635,-0.16682l9.11912,-0.79708l9.0105,-1.41433l8.87049,-2.01857l8.69908,-2.6098l8.49625,-3.18801l8.2621,-3.75321l7.99648,-4.30541l7.69949,-4.84458l7.37111,-5.37075l7.01134,-5.88391l6.62016,-6.38405l6.1976,-6.87119l5.74364,-7.34531l5.25829,-7.80642l4.74154,-8.25451l4.1934,-8.6896l3.61386,-9.11167l2.57664,-6.72354l2.84597,-6.45864l3.10448,-6.19375l3.35218,-5.92889l3.58907,-5.66405l3.81515,-5.39923l4.03042,-5.13443l4.23487,-4.86966l4.42852,-4.6049l4.61136,-4.34017l4.78338,-4.07546l4.94459,-3.81077l5.09499,-3.54611l5.23458,-3.28146l5.36336,-3.01684l5.48133,-2.75224l5.58848,-2.48766l5.68483,-2.2231l5.77036,-1.95856l5.84509,-1.69405l5.909,-1.42955l5.9621,-1.16508l6.00439,-0.90063l6.03587,-0.63621v319.501h-320v-163.65584zM1277.60474,784.16856l-2.36992,0.49845l-2.31957,0.81751l-2.26419,1.12574l-2.20379,1.42315l-2.13837,1.70973l-2.06793,1.98548l-1.99246,2.2504l-1.91198,2.50449l-1.82647,2.74776l-1.73594,2.98019l-1.64039,3.2018l-1.53981,3.41259l-1.43422,3.61254l-1.3236,3.80166l-1.20797,3.97996l-1.08731,4.14743l-0.96162,4.30407l-0.83092,4.44988l-0.6952,4.58487l-0.55445,4.70902l-0.40868,4.82235l-0.25789,4.92485l-0.10208,5.01652v0.685l-0.10263,5.01801l-0.25944,4.92607l-0.41109,4.82333l-0.55758,4.70977l-0.6989,4.58541l-0.83505,4.45023l-0.96604,4.30424l-1.09187,4.14745l-1.21252,3.97984l-1.32802,3.80142l-1.43835,3.61219l-1.54351,3.41215l-1.64351,3.2013l-1.73835,2.97965l-1.82802,2.74718l-1.91252,2.5039l-1.99186,2.24981l-2.06604,1.9849l-2.13505,1.7092l-2.1989,1.42267l-2.25758,1.12534l-2.31109,0.8172l-2.35944,0.49825l-2.40263,0.16849l-2.40143,-0.16849l-2.35834,-0.49825l-2.31009,-0.8172l-2.25667,-1.12534l-2.19807,-1.42267l-2.13431,-1.7092l-2.06538,-1.9849l-1.99127,-2.24981l-1.912,-2.5039l-1.82756,-2.74718l-1.73795,-2.97965l-1.64317,-3.2013l-1.54323,-3.41215l-1.43811,-3.61219l-1.32782,-3.80142l-1.21237,-3.97984l-1.09174,-4.14745l-0.96595,-4.30424l-0.83498,-4.45023l-0.69885,-4.58541l-0.55755,-4.70977l-0.41108,-4.82333l-0.25944,-4.92607l-0.10263,-5.01801v-0.685l-0.06015,-5.01652l-0.13941,-4.92485l-0.22458,-4.82235l-0.31567,-4.70902l-0.41269,-4.58487l-0.51562,-4.44988l-0.62448,-4.30407l-0.73925,-4.14743l-0.85994,-3.97996l-0.98656,-3.80166l-1.1191,-3.61254l-1.25755,-3.41259l-1.40192,-3.2018l-1.55222,-2.98019l-1.70843,-2.74776l-1.87057,-2.50449l-2.03863,-2.2504l-2.2126,-1.98548l-2.3925,-1.70973l-2.57831,-1.42315l-2.77005,-1.12574l-2.96771,-0.81751l-3.17128,-0.49845l-3.38078,-0.16855l-3.38163,0.17046l-3.17368,0.50403l-2.97142,0.82658l-2.77485,1.13812l-2.58399,1.43865l-2.39881,1.72816l-2.21933,2.00666l-2.04555,2.27415l-1.87746,2.53062l-1.71506,2.77608l-1.55836,3.01053l-1.40736,3.23396l-1.26204,3.44637l-1.12243,3.64778l-0.9885,3.83816l-0.86027,4.01754l-0.73774,4.1859l-0.6209,4.34325l-0.50975,4.48958l-0.4043,4.6249l-0.30454,4.74921l-0.21048,4.8625l-0.12211,4.96478l-0.03944,5.05604l-0.01551,5.01801l-0.02358,4.92607l-0.0422,4.82333l-0.0714,4.70977l-0.11115,4.58541l-0.16148,4.45023l-0.22236,4.30424l-0.29381,4.14745l-0.37582,3.97984l-0.4684,3.80142l-0.57154,3.61219l-0.68525,3.41215l-0.80952,3.2013l-0.94436,2.97965l-1.08976,2.74718l-1.24572,2.5039l-1.41225,2.24981l-1.58934,1.9849l-1.777,1.7092l-1.97521,1.42267l-2.184,1.12534l-2.40335,0.8172l-2.63326,0.49825l-2.87374,0.16849l-2.86704,-0.14492l-2.61198,-0.42902l-2.36946,-0.70451l-2.13949,-0.97137l-1.92206,-1.22962l-1.71717,-1.47925l-1.52483,-1.72027l-1.34502,-1.95266l-1.17777,-2.17644l-1.02305,-2.3916l-0.88088,-2.59814l-0.75126,-2.79607l-0.63417,-2.98537l-0.52963,-3.16606l-0.43764,-3.33813l-0.35819,-3.50159l-0.29127,-3.65643l-0.23691,-3.80264l-0.19509,-3.94025l-0.16581,-4.06923l-0.14907,-4.1896l-0.14488,-4.30135l-0.15323,-4.40448l-0.17412,-4.49899l-0.00174,-5.10013l-0.01214,-5.09225l-0.03296,-5.06577l-0.06418,-5.0207l-0.10581,-4.95703l-0.15785,-4.87477l-0.2203,-4.77392l-0.29316,-4.65448l-0.37642,-4.51644l-0.47009,-4.35981l-0.57417,-4.18458l-0.68866,-3.99076l-0.81356,-3.77835l-0.94886,-3.54735l-1.09457,-3.29775l-1.25069,-3.02956l-1.41722,-2.74277l-1.59416,-2.4374l-1.7815,-2.11342l-1.97925,-1.77086l-2.18741,-1.4097l-2.40598,-1.02995l-2.63495,-0.6316l-2.87434,-0.21467l-2.87554,0.23323l-2.63605,0.68517l-2.40698,1.11534l-2.18832,1.52373l-1.98008,1.91035l-1.78224,2.27519l-1.59482,2.61825l-1.41781,2.93954l-1.25121,3.23906l-1.09503,3.5168l-0.94926,3.77276l-0.8139,4.00695l-0.68895,4.21936l-0.57441,4.40999l-0.47029,4.57885l-0.37658,4.72594l-0.29328,4.85125l-0.22039,4.95478l-0.15792,5.03654l-0.10586,5.09652l-0.06421,5.13473l-0.03297,5.15116l-0.01215,5.14581l-0.00173,5.11869l-0.11566,4.27402l-0.10125,4.17962l-0.09328,4.07744l-0.09173,3.96748l-0.09662,3.84975l-0.10794,3.72424l-0.12569,3.59096l-0.14986,3.4499l-0.18047,3.30106l-0.21751,3.14445l-0.26098,2.98006l-0.31088,2.80789l-0.3672,2.62795l-0.42996,2.44023l-0.49915,2.24474l-0.57477,2.04146l-0.65682,1.83042l-0.7453,1.61159l-0.84021,1.38499l-0.94155,1.15061l-1.04931,0.90846l-1.16351,0.65853l-1.28414,0.40082l-1.4112,0.13533l-1.21987,-0.3201l-1.12892,-0.93452l-1.04179,-1.5103l-0.95849,-2.04743l-0.87902,-2.54592l-0.80337,-3.00575l-0.73155,-3.42694l-0.66355,-3.80948l-0.59939,-4.15338l-0.53905,-4.45863l-0.48253,-4.72523l-0.42985,-4.95319l-0.38099,-5.14249l-0.33596,-5.29315l-0.29475,-5.40517l-0.25737,-5.47853l-0.22382,-5.51325l-0.19409,-5.50932l-0.1682,-5.46675l-0.14613,-5.38552l-0.12788,-5.26566l-0.11346,-5.10714l-0.10287,-4.90997l-0.09611,-4.67416l-0.12174,-5.75347l-0.35129,-5.27431l-0.55998,-4.81597l-0.7478,-4.37847l-0.91475,-3.96181l-1.06084,-3.56597l-1.18605,-3.19097l-1.29039,-2.83681l-1.37387,-2.50347l-1.43648,-2.19097l-1.47822,-1.89931l-1.49908,-1.62847l-1.49908,-1.37847l-1.47822,-1.14931l-1.43648,-0.94097l-1.37387,-0.75347l-1.2904,-0.58681l-1.18605,-0.44097l-1.06084,-0.31597l-0.91475,-0.21181l-0.7478,-0.12847l-0.55998,-0.06597l-0.35129,-0.02431l-0.12174,-0.00347l0.00028,0.13558l0.00079,0.40329l0.00123,0.66583l0.00159,0.92318l0.00188,1.17537l0.0021,1.42238l0.00225,1.66421l0.00232,1.90087l0.00232,2.13235l0.00225,2.35866l0.0021,2.57979l0.00188,2.79575l0.00159,3.00653l0.00123,3.21213l0.00079,3.41256l0.00028,3.60782l-0.0003,3.7979l-0.00096,3.9828l-0.00169,4.16253l-0.00249,4.33709l-0.00337,4.50647l-0.00431,4.67067l-0.00534,4.8297l-0.00643,4.98355l-0.00032,0.46578l-0.00045,0.53391l-0.00059,0.59578l-0.00072,0.65141l-0.00086,0.70078l-0.00099,0.74389l-0.00113,0.78076l-0.00126,0.81136l-0.0014,0.83572l-0.00154,0.85382l-0.00167,0.86566l-0.00181,0.87126l-0.00194,0.8706l-0.00208,0.86368l-0.00221,0.85051l-0.00235,0.83109l-0.00249,0.80541l-0.00262,0.77348l-0.00276,0.73529l-0.00289,0.69086l-0.00303,0.64016l-0.00316,0.58322l-0.0033,0.52002l-0.00343,0.45056v-227.992h320v144.0014z" fill="#f3f3f3" fill-rule="evenodd"/><path d="M639.987,640h0.013v320h-320c10.834,0 21.545,-0.542 32.107,-1.6c150.726,-15.099 271.231,-135.328 286.293,-286.393c1.05,-10.528 1.587,-21.205 1.587,-32.007zM1600,640h320c-10.83,0 -21.54,0.542 -32.11,1.6c-150.72,15.099 -271.23,135.328 -286.29,286.393c-1.05,10.528 -1.59,21.205 -1.59,32.007h-0.01zM1320,160c0,-66.2742 53.73,-120 120,-120c66.27,0 120,53.7258 120,120c0,66.274 -53.73,120 -120,120c-66.27,0 -120,-53.726 -120,-120z" fill="#000000" fill-rule="nonzero"/></g></svg>