<svg xmlns="http://www.w3.org/2000/svg" width="1920" height="960" viewBox="0 0 1920 960"><g xmlns="http://www.w3.org/2000/svg" fill="none" fill-rule="nonzero" stroke="none" stroke-width="1" stroke-linecap="butt" stroke-linejoin="miter" stroke-miterlimit="10" stroke-dasharray="" stroke-dashoffset="0" font-family="none" font-weight="none" font-size="none" text-anchor="none" style="mix-blend-mode: normal"><path d="M1904,640v304h-304v-304zM624,656v304h-304l-8,-8h-160l8,8h-160.00001l0.00001,-160l7.99999,7.99999l0.00001,-159.99999l-8,-8h320v16zM336,336h304v304h-304zM1264,640v304l-304,0v16h-304v-304l304,0v-16zM1120,0l-8.00001,8.00001l160.00001,-0.00001l8,-8v624h-304l0,-304h-16l8,-8l0,-160l-8,8v-159.99999zM1584,656v304h-304v-304zM1920,624h-304l0,-304h304zM16,624v-304h304v304zM1296,336h304v304h-304zM1280,320c-25.76986,0 -55.71715,0 0,0zM656,640v-304l304,0l0,304z" fill="#121212"/><path d="M1904,944l0,-304h-304v-304l-304,0l0,304h304v304zM1280,0h640v320h-304v304h304v336h-336v-304h-304v304h-320v-16h304l0,-304h16zM624,960v-304h-304v-16h-320v-640h1280l-8,8l-160.00001,0.00001l8.00001,-8.00001l-160,0.00001v159.99999l8,-8l0,160l-8,8v16l-304,0v304h304v16h-304v304zM640,336h-304v304h304zM960,160c0,-88.2686 -71.477,-159.8428 -159.709,-159.99969l-0.083,-0.00024l-0.068,-0.00003l-0.06,0.00003l-0.08,0l-0.065,-0.00006l-0.038,0.00003c-0.015,0 -0.03,0 -0.045,0c-0.011,0 -0.022,0 -0.032,0l-0.026,-0.00003c-0.023,0 -0.046,0.00003 -0.069,0.00009l-0.04,-0.00003l-0.032,-0.00006l-0.012,0.00003l-0.003,0l-0.061,-0.00003l-0.061,0.00003l-0.003,-0.00003l-0.009,0.00003l-0.068,-0.00003l-0.061,0.00003l-0.022,0l-0.064,0.00003l-0.007,-0.00003l-0.009,0.00003c-0.31,0.00037 -0.62,0.00296 -0.93,0.00772l-0.115,0.00153l-0.111,0.00159c-87.498,1.00922 -158.117,72.2522 -158.117,159.9891c0,87.758 70.652,159.014 158.179,159.99c0.049,0.001 0.098,0.001 0.147,0.002c0.315,0.005 0.631,0.008 0.946,0.008c0.31714,0 0.4813,0 0.482,0c0.009,0 0.095,0 0.104,0c0.017,0 0.125,0 0.142,0c0.00044,0 0.09007,0 0.267,0c88.243,-0.144 159.733,-71.723 159.733,-160zM320,320h-304l0,304l304,0zM8,648l-0.00001,159.99999l-7.99999,-7.99999v-160zM152,952h160l8,8h-160zM1600,320c170.04623,0 -0.01818,0 0,0z" fill="#d9d9d6"/><path d="M798.179,319.99c-87.527,-0.976 -158.179,-72.232 -158.179,-159.99c0,0 0,0 0,0c0,-87.7369 70.619,-158.97988 158.117,-159.9891l0.111,-0.00159l0.115,-0.00153c0.31,-0.00476 0.62,-0.00735 0.93,-0.00772l0.009,-0.00003l0.007,0.00003l0.064,-0.00003l0.022,0l0.061,-0.00003l0.068,0.00003l0.009,-0.00003l0.003,0.00003l0.061,-0.00003l0.061,0.00003l0.003,0l0.012,-0.00003l0.032,0.00006l0.04,0.00003c0.023,-0.00006 0.046,-0.00009 0.069,-0.00009l0.026,0.00003c0.01,0 0.021,0 0.032,0c0.015,0 0.03,0 0.045,0l0.038,-0.00003l0.065,0.00006l0.08,0l0.06,-0.00003l0.068,0.00003l0.083,0.00024c88.232,0.15689 159.709,71.73109 159.709,159.99969c0,88.277 -71.49,159.856 -159.733,160c-0.042,0 -0.225,0 -0.267,0c-0.03,0 -0.061,0 -0.091,0c-0.017,0 -0.034,0 -0.051,0c-0.022,0 -0.055,0 -0.077,0c-0.009,0 -0.018,0 -0.027,0c-0.015,0 -0.031,0 -0.046,0c-0.022,0 -0.414,0 -0.436,0c-0.315,0 -0.631,-0.003 -0.946,-0.008c-0.049,-0.001 -0.098,-0.001 -0.147,-0.002zM799.398,295.679c-0.895,-7.132 -1.85,-16.789 -2.746,-29.836c0.896,13.047 1.851,22.704 2.746,29.836zM897.067,279.048c29.598,-29.29 48.213,-71.775 48.213,-119.048c0,47.273 -18.615,89.758 -48.213,119.048zM702.933,279.048c-34.503,-28.166 -56.533,-71.034 -56.533,-119.048c0,48.014 22.03,90.882 56.533,119.048zM803.737,310.417c4.749,-22.337 8.14,-81.252 8.14,-150.417c0,69.165 -3.391,128.08 -8.14,150.417zM782.553,303.309c-6.189,-7.367 -12.052,-18.541 -16.948,-32.314c4.896,13.773 10.759,24.947 16.948,32.314zM872.671,160c0,41.773 -7.994,80.947 -22.515,110.298c14.521,-29.351 22.515,-68.525 22.515,-110.298zM826.578,302.56c-0.746,0.638 -1.495,1.249 -2.247,1.832c0.752,-0.583 1.501,-1.194 2.247,-1.832zM824.331,304.392c19.133,-25.769 32.346,-80.74 32.346,-144.392c0,63.652 -13.213,118.623 -32.346,144.392zM763.545,302.118c-25.398,-26.635 -42.752,-80.28 -42.752,-142.118c0,61.838 17.354,115.483 42.752,142.118zM763.525,302.106c-11.328,-7.559 -21.548,-18.458 -30.38,-32.391c8.832,13.933 19.052,24.832 30.38,32.391zM733.145,269.715c-8.967,-14.144 -16.013,-30.662 -20.954,-49.088c4.941,18.426 11.987,34.944 20.954,49.088zM704.441,160.006c0,-21.036 2.604,-41.433 7.75,-60.6204c-5.146,19.1874 -7.75,39.5844 -7.75,60.6204zM712.191,99.3856c4.941,-18.4256 11.987,-34.944 20.954,-49.088c-8.967,14.144 -16.013,30.6624 -20.954,49.088zM733.145,50.2976c8.826,-13.9237 19.039,-24.8178 30.358,-32.3756c-11.319,7.5578 -21.532,18.4519 -30.358,32.3756zM900.837,160c0,-59.189 -20.367,-110.8726 -50.648,-138.5488c30.281,27.6762 50.648,79.3598 50.648,138.5488zM781.554,271.782c4.573,21.138 9.559,32.132 13.258,37.44c-3.699,-5.308 -8.685,-16.302 -13.258,-37.44zM781.554,48.2176c4.576,-21.1332 9.56,-32.127 13.257,-37.4361c-3.697,5.3091 -8.681,16.3029 -13.257,37.4361zM786.917,160c0,67.965 3.275,126.033 7.895,149.222c-4.62,-23.189 -7.895,-81.257 -7.895,-149.222zM833.829,270.995c-4.896,13.773 -10.758,24.947 -16.947,32.314c6.189,-7.367 12.051,-18.541 16.947,-32.314zM816.882,303.309c-1.121,1.333 -2.244,2.539 -3.369,3.615c1.125,-1.076 2.248,-2.282 3.369,-3.615zM813.513,306.924c12.292,-24.565 20.892,-81.103 20.892,-146.924c0,65.821 -8.6,122.359 -20.892,146.924zM742.757,160c0,-62.6562 12.804,-116.9012 31.454,-143.1615c-18.65,26.2603 -31.454,80.5053 -31.454,143.1615zM773.497,302.56c-8.762,-7.494 -16.698,-18.349 -23.578,-32.262c6.88,13.913 14.816,24.768 23.578,32.262zM749.919,49.7024c6.88,-13.9136 14.816,-24.768 23.578,-32.2624c-8.762,7.4944 -16.698,18.3488 -23.578,32.2624zM773.497,17.44c0.237,-0.2033 0.476,-0.4038 0.714,-0.6015c-0.238,0.1977 -0.477,0.3982 -0.714,0.6015zM865.65,269.702c8.967,-14.144 16.013,-30.662 20.954,-49.088c-4.941,18.426 -11.987,34.944 -20.954,49.088zM865.65,50.2848c8.967,14.144 16.013,30.6624 20.954,49.088c-4.941,-18.4256 -11.987,-34.944 -20.954,-49.088zM682.591,160c0,59.892 26.303,111.886 64.572,137.204c-38.269,-25.318 -64.572,-77.312 -64.572,-137.204zM697.957,160c0,58.244 19.723,109.22 49.206,137.204c-29.483,-27.984 -49.206,-78.96 -49.206,-137.204zM866.287,294.977c43.091,-25.936 72.593,-76.401 72.593,-134.977c0,58.576 -29.502,109.041 -72.593,134.977z" fill="#000000"/></g></svg>