<svg xmlns="http://www.w3.org/2000/svg" width="1920" height="960" viewBox="0 0 1920 960"><g xmlns="http://www.w3.org/2000/svg" fill="none" fill-rule="nonzero" stroke="none" stroke-width="1" stroke-linecap="butt" stroke-linejoin="miter" stroke-miterlimit="10" stroke-dasharray="" stroke-dashoffset="0" font-family="none" font-weight="none" font-size="none" text-anchor="none" style="mix-blend-mode: normal"><path d="M831.999,853.3333c-29.45517,0 -53.3333,-23.87813 -53.3333,-53.3333c0,-29.45517 23.87813,-53.3333 53.3333,-53.3333c29.45517,0 53.3333,23.87813 53.3333,53.3333c0,29.45517 -23.87813,53.3333 -53.3333,53.3333zM1152,853.3333c-29.45517,0 -53.3333,-23.87813 -53.3333,-53.3333c0,-29.45517 23.87813,-53.3333 53.3333,-53.3333c29.45517,0 53.3333,23.87813 53.3333,53.3333c0,29.45517 -23.87813,53.3333 -53.3333,53.3333zM1440,288v32h-1120v-32zM1440,0.00001v31.99999l-1120,0v-32.00004l320,0.00004v-0.00004l320,0.00004v-0.00004l320,0.00004v0.00001zM1440,216v32l-1120,0v-32zM1440,144v32h-1120v-32zM1440,72v32l-1120,0v-32zM1888,160h32v800h-32zM1632,160v800h-32v-800zM1816,160h32v800h-32zM1744,160h32v800h-32zM1672,160h32v800h-32zM32,960h-32.00003l0.00003,-320h0.00001l0,-160h31.99999zM320,960h-32v-480h32zM104,960h-32v-480h32zM176,960h-32v-480h32zM248,960h-32v-480h32zM320,640l159.955,-0.045c0.026,-88.365 71.66,-159.981 160,-159.955l0.045,-160v160l1.9633,0.02409l1.96212,0.07227l1.95975,0.1204l1.95621,0.16846l1.95148,0.21641l1.94558,0.26424l1.93851,0.31191l1.93027,0.35939l1.92087,0.40665l1.91031,0.45367l1.89861,0.50042l1.88575,0.54686l1.87177,0.59297l1.85665,0.63873l1.84042,0.6841l1.82307,0.72906l1.80463,0.77358l1.7851,0.81764l1.7645,0.8612l1.74283,0.90424l1.72012,0.94674l1.69637,0.98867l1.67159,1.03l1.64581,1.07072l1.61904,1.11078l1.59129,1.15018l1.56258,1.18889l1.53294,1.22688l1.50236,1.26413l1.47089,1.30062l1.43853,1.33632l1.4053,1.37123l1.37122,1.4053l1.33632,1.43853l1.30062,1.47089l1.26413,1.50236l1.22688,1.53294l1.18889,1.56258l1.15018,1.59129l1.11078,1.61904l1.07072,1.64581l1.03,1.67159l0.98867,1.69637l0.94674,1.72012l0.90424,1.74283l0.8612,1.7645l0.81764,1.7851l0.77358,1.80463l0.72906,1.82307l0.6841,1.84042l0.63873,1.85665l0.59297,1.87177l0.54686,1.88575l0.50041,1.89861l0.45367,1.91031l0.40665,1.92087l0.35939,1.93027l0.31191,1.93851l0.26424,1.94558l0.21641,1.95148l0.16846,1.95621l0.1204,1.95975l0.07227,1.96212l0.02409,1.9633c0,-44.18278 35.81722,-80 80,-80c44.18278,0 80,35.81722 80,80l0.02409,-1.9633l0.07227,-1.96212l0.1204,-1.95975l0.16846,-1.95621l0.21641,-1.95148l0.26424,-1.94558l0.31191,-1.93851l0.35939,-1.93027l0.40665,-1.92087l0.45367,-1.91031l0.50041,-1.89861l0.54686,-1.88575l0.59297,-1.87177l0.63873,-1.85665l0.6841,-1.84042l0.72906,-1.82307l0.77358,-1.80463l0.81764,-1.7851l0.8612,-1.7645l0.90424,-1.74283l0.94674,-1.72012l0.98867,-1.69637l1.03,-1.67159l1.07072,-1.64581l1.11078,-1.61904l1.15018,-1.59129l1.18889,-1.56258l1.22688,-1.53294l1.26413,-1.50236l1.30062,-1.47089l1.33632,-1.43853l1.37122,-1.4053l1.4053,-1.37123l1.43853,-1.33632l1.47089,-1.30062l1.50236,-1.26413l1.53294,-1.22688l1.56258,-1.18889l1.59129,-1.15018l1.61904,-1.11078l1.64581,-1.07072l1.67159,-1.03l1.69637,-0.98867l1.72012,-0.94674l1.74283,-0.90424l1.7645,-0.8612l1.7851,-0.81764l1.80463,-0.77358l1.82307,-0.72906l1.84042,-0.6841l1.85665,-0.63873l1.87177,-0.59297l1.88575,-0.54686l1.89861,-0.50042l1.91031,-0.45367l1.92087,-0.40665l1.93027,-0.35939l1.93851,-0.31191l1.94558,-0.26424l1.95148,-0.21641l1.95621,-0.16846l1.95975,-0.1204l1.96212,-0.07227l1.9633,-0.02409l1.9633,0.02409l1.96212,0.07227l1.95975,0.1204l1.95621,0.16846l1.95148,0.21641l1.94558,0.26424l1.93851,0.31191l1.93027,0.35939l1.92087,0.40665l1.91031,0.45367l1.89861,0.50042l1.88575,0.54686l1.87177,0.59297l1.85665,0.63873l1.84042,0.6841l1.82307,0.72906l1.80463,0.77358l1.7851,0.81764l1.7645,0.8612l1.74283,0.90424l1.72012,0.94674l1.69637,0.98867l1.67159,1.03l1.64581,1.07072l1.61904,1.11078l1.59129,1.15018l1.56258,1.18889l1.53294,1.22688l1.50236,1.26413l1.47089,1.30062l1.43853,1.33632l1.4053,1.37123l1.37122,1.4053l1.33632,1.43853l1.30062,1.47089l1.26413,1.50236l1.22688,1.53294l1.18889,1.56258l1.15018,1.59129l1.11078,1.61904l1.07072,1.64581l1.03,1.67159l0.98867,1.69637l0.94674,1.72012l0.90424,1.74283l0.8612,1.7645l0.81764,1.7851l0.77358,1.80463l0.72906,1.82307l0.6841,1.84042l0.63873,1.85665l0.59297,1.87177l0.54686,1.88575l0.50041,1.89861l0.45367,1.91031l0.40665,1.92087l0.35939,1.93027l0.31191,1.93851l0.26424,1.94558l0.21641,1.95148l0.16846,1.95621l0.1204,1.95975l0.07227,1.96212l0.02409,1.9633c0,-44.18278 35.81722,-80 80,-80c44.18278,0 80,35.81722 80,80l0.02409,-1.9633l0.07227,-1.96212l0.1204,-1.95975l0.16846,-1.95621l0.21641,-1.95148l0.26424,-1.94558l0.31191,-1.93851l0.35939,-1.93027l0.40665,-1.92087l0.45367,-1.91031l0.50041,-1.89861l0.54686,-1.88575l0.59297,-1.87177l0.63873,-1.85665l0.6841,-1.84042l0.72906,-1.82307l0.77358,-1.80463l0.81764,-1.7851l0.8612,-1.7645l0.90424,-1.74283l0.94674,-1.72012l0.98867,-1.69637l1.03,-1.67159l1.07072,-1.64581l1.11078,-1.61904l1.15018,-1.59129l1.18889,-1.56258l1.22688,-1.53294l1.26413,-1.50236l1.30062,-1.47089l1.33632,-1.43853l1.37123,-1.4053l1.4053,-1.37123l1.43853,-1.33632l1.47089,-1.30062l1.50236,-1.26413l1.53294,-1.22688l1.56258,-1.18889l1.59129,-1.15018l1.61904,-1.11078l1.64581,-1.07072l1.67159,-1.03l1.69637,-0.98867l1.72012,-0.94674l1.74283,-0.90424l1.7645,-0.8612l1.7851,-0.81764l1.80463,-0.77358l1.82307,-0.72906l1.84041,-0.6841l1.85665,-0.63873l1.87176,-0.59297l1.88575,-0.54686l1.89861,-0.50042l1.91031,-0.45367l1.92087,-0.40665l1.93028,-0.35939l1.93851,-0.31191l1.94558,-0.26424l1.95148,-0.21641l1.95621,-0.16846l1.95975,-0.1204l1.96212,-0.07227l1.9633,-0.02409v-160l0.04,160c88.34,-0.026 159.98,71.59 160,159.955l159.96,0.045h-160l-0.0241,1.9633l-0.07227,1.96212l-0.1204,1.95975l-0.16846,1.95621l-0.21641,1.95148l-0.26424,1.94558l-0.31191,1.93851l-0.35939,1.93027l-0.40665,1.92087l-0.45367,1.91031l-0.50042,1.89861l-0.54686,1.88575l-0.59297,1.87177l-0.63873,1.85665l-0.6841,1.84041l-0.72906,1.82307l-0.77358,1.80463l-0.81764,1.7851l-0.8612,1.7645l-0.90424,1.74283l-0.94674,1.72012l-0.98867,1.69636l-1.03,1.67159l-1.07072,1.64581l-1.11078,1.61904l-1.15018,1.59129l-1.18889,1.56258l-1.22688,1.53293l-1.26413,1.50237l-1.30062,1.47089l-1.33632,1.43853l-1.37122,1.4053l-1.4053,1.37122l-1.43853,1.33632l-1.47089,1.30062l-1.50237,1.26413l-1.53293,1.22688l-1.56258,1.18889l-1.59129,1.15018l-1.61904,1.11078l-1.64581,1.07072l-1.67159,1.03l-1.69637,0.98867l-1.72012,0.94674l-1.74283,0.90424l-1.7645,0.8612l-1.7851,0.81764l-1.80463,0.77358l-1.82307,0.72906l-1.84041,0.6841l-1.85665,0.63873l-1.87177,0.59297l-1.88575,0.54686l-1.89861,0.50041l-1.91032,0.45367l-1.92087,0.40665l-1.93027,0.35939l-1.93851,0.31191l-1.94558,0.26424l-1.95148,0.21641l-1.95621,0.16846l-1.95975,0.1204l-1.96212,0.07227l-1.96271,0.02409c44.18252,0.00031 79.99943,35.81742 79.99942,80.00001c0,44.18278 -35.81722,79.99999 -79.99999,79.99999v0.00001l1.9633,0.02409l1.96212,0.07227l1.95975,0.1204l1.95621,0.16846l1.95148,0.21641l1.94558,0.26424l1.93851,0.31191l1.93028,0.35939l1.92087,0.40665l1.91031,0.45367l1.89861,0.50042l1.88575,0.54686l1.87176,0.59297l1.85665,0.63873l1.84041,0.6841l1.82307,0.72906l1.80463,0.77358l1.7851,0.81764l1.7645,0.8612l1.74283,0.90424l1.72012,0.94674l1.69637,0.98867l1.67159,1.03l1.64581,1.07072l1.61904,1.11078l1.59129,1.15018l1.56258,1.18889l1.53293,1.22688l1.50236,1.26413l1.47089,1.30062l1.43853,1.33632l1.4053,1.37122l1.37122,1.4053l1.33632,1.43853l1.30062,1.47089l1.26413,1.50236l1.22688,1.53294l1.18889,1.56258l1.15018,1.59129l1.11078,1.61904l1.07072,1.64581l1.03,1.67159l0.98867,1.69637l0.94674,1.72012l0.90424,1.74283l0.8612,1.7645l0.81764,1.7851l0.77358,1.80463l0.72906,1.82307l0.6841,1.84041l0.63873,1.85665l0.59297,1.87177l0.54686,1.88575l0.50042,1.89861l0.45367,1.91032l0.40665,1.92087l0.35939,1.93027l0.31191,1.93851l0.26424,1.94558l0.21641,1.95148l0.16846,1.95621l0.1204,1.95975l0.07227,1.96212l0.0241,1.9633h-160l0,-320h-640v320h-160l0.02409,-1.9633l0.07227,-1.96212l0.1204,-1.95975l0.16846,-1.95621l0.21641,-1.95148l0.26424,-1.94558l0.31191,-1.93851l0.35939,-1.93027l0.40665,-1.92087l0.45367,-1.91031l0.50042,-1.89861l0.54686,-1.88575l0.59297,-1.87177l0.63873,-1.85665l0.6841,-1.84042l0.72906,-1.82307l0.77358,-1.80463l0.81764,-1.7851l0.8612,-1.7645l0.90424,-1.74283l0.94674,-1.72012l0.98867,-1.69637l1.03,-1.67159l1.07072,-1.64581l1.11078,-1.61904l1.15018,-1.59129l1.18889,-1.56258l1.22688,-1.53294l1.26413,-1.50236l1.30062,-1.47089l1.33632,-1.43853l1.37123,-1.4053l1.4053,-1.37122l1.43853,-1.33632l1.47089,-1.30062l1.50236,-1.26413l1.53294,-1.22688l1.56258,-1.18889l1.59129,-1.15018l1.61904,-1.11078l1.64581,-1.07072l1.67159,-1.03l1.69637,-0.98867l1.72012,-0.94674l1.74283,-0.90424l1.7645,-0.8612l1.7851,-0.81764l1.80463,-0.77358l1.82307,-0.72906l1.84042,-0.6841l1.85665,-0.63873l1.87177,-0.59297l1.88575,-0.54686l1.89861,-0.50041l1.91031,-0.45367l1.92087,-0.40665l1.93027,-0.35939l1.93851,-0.31191l1.94558,-0.26424l1.95148,-0.21641l1.95621,-0.16846l1.95975,-0.1204l1.96212,-0.07227l1.9633,-0.02409c-44.18278,0 -80,-35.81722 -80,-80c0,-44.18278 35.81722,-80 80,-80l-1.9633,-0.02409l-1.96212,-0.07227l-1.95975,-0.1204l-1.95621,-0.16846l-1.95148,-0.21641l-1.94558,-0.26424l-1.93851,-0.31191l-1.93027,-0.35939l-1.92087,-0.40665l-1.91031,-0.45367l-1.89861,-0.50041l-1.88575,-0.54686l-1.87177,-0.59297l-1.85665,-0.63873l-1.84042,-0.6841l-1.82307,-0.72906l-1.80463,-0.77358l-1.7851,-0.81764l-1.7645,-0.8612l-1.74283,-0.90424l-1.72012,-0.94674l-1.69637,-0.98867l-1.67159,-1.03l-1.64581,-1.07072l-1.61904,-1.11078l-1.59129,-1.15018l-1.56258,-1.18889l-1.53294,-1.22688l-1.50236,-1.26413l-1.47089,-1.30062l-1.43853,-1.33632l-1.4053,-1.37122l-1.37123,-1.4053l-1.33632,-1.43853l-1.30062,-1.47089l-1.26413,-1.50236l-1.22688,-1.53294l-1.18889,-1.56258l-1.15018,-1.59129l-1.11078,-1.61904l-1.07072,-1.64581l-1.03,-1.67159l-0.98867,-1.69637l-0.94674,-1.72012l-0.90424,-1.74283l-0.8612,-1.7645l-0.81764,-1.7851l-0.77358,-1.80463l-0.72906,-1.82307l-0.6841,-1.84042l-0.63873,-1.85665l-0.59297,-1.87177l-0.54686,-1.88575l-0.50042,-1.89861l-0.45367,-1.91031l-0.40665,-1.92087l-0.35939,-1.93027l-0.31191,-1.93851l-0.26424,-1.94558l-0.21641,-1.95148l-0.16846,-1.95621l-0.1204,-1.95975l-0.07227,-1.96212l-0.02409,-1.9633z" fill="#121212"/><path d="M680,800c0,-44.18278 53.72583,-80 120,-80c66.27417,0 120,35.81722 120,80c0,44.18278 -53.72583,80 -120,80c-66.27417,0 -120,-35.81722 -120,-80zM885.3323,800c0,-29.45517 -23.87813,-53.3333 -53.3333,-53.3333c-29.45517,0 -53.3333,23.87813 -53.3333,53.3333c0,29.45517 23.87813,53.3333 53.3333,53.3333c29.45517,0 53.3333,-23.87813 53.3333,-53.3333zM1000,800c0,-44.18278 53.72583,-80 120,-80c66.27417,0 120,35.81722 120,80c0,44.18278 -53.72583,80 -120,80c-66.27417,0 -120,-35.81722 -120,-80zM1205.3333,800c0,-29.45517 -23.87813,-53.3333 -53.3333,-53.3333c-29.45517,0 -53.3333,23.87813 -53.3333,53.3333c0,29.45517 23.87813,53.3333 53.3333,53.3333c29.45517,0 53.3333,-23.87813 53.3333,-53.3333zM0,320v-320l0.00003,0l-0.00001,320zM320,0v320l-160,-160l160,-159.99997l-213.33357,-0.00003z" fill="#f3f3f3"/><path d="M640,960v-320h640v320zM800,880c66.27417,0 120,-35.81722 120,-80c0,-44.18278 -53.72583,-80 -120,-80c-66.27417,0 -120,35.81722 -120,80c0,44.18278 53.72583,80 120,80zM1120,880c66.27417,0 120,-35.81722 120,-80c0,-44.18278 -53.72583,-80 -120,-80c-66.27417,0 -120,35.81722 -120,80c0,44.18278 53.72583,80 120,80z" fill="#d9d9d6"/><path d="M1440,-0.00001c88.36,0 160,71.63521 160,160.00001c0,88.365 -71.64,160 -160,160c0,-10.80335 0,-128.59801 0,-144c0,-11.68988 0,-57.55882 0,-72c0,-14.48614 0,-60.36271 0,-72c0,-0.00001 0,-32.00001 0,-32.00001z" fill="#4997d0"/><path d="M1280,0h160c0,0.00003 0,0.00004 0,0.00001l-160,-0.00001zM1600,160c0,-88.34886 -71.61416,-159.97416 -159.95219,-160h479.95219v160c0,-88.3648 -71.64,-160 -160,-160c-88.36,0 -160,71.6352 -160,160v480l-159.96,-0.045c-0.02,-88.365 -71.66,-159.981 -160,-159.955l-0.04,-160h160c88.36,0 160,-71.635 160,-160zM1440,32c0,11.63729 0,25.51386 0,40l-1120,0v-40zM1440,104c0,14.44118 0,28.31012 0,40h-1120v-40zM1440,176c0,15.40199 0,29.19665 0,40h-1120v-40zM1440,248v40l-1120,0v-40zM0.00003,-0.00001l319.99997,0.00004l-160,159.99997l160,160h320l-0.045,160c-88.34,-0.026 -159.974,71.59 -160,159.955l-159.955,0.045v-160c0,-88.365 -71.635,-160 -160,-160h-0.00001c-88.3648,0 -159.99999,71.635 -159.99999,160c0,0 0,0 0.00001,0l0,160h-0.00001v-320h0.00002zM1632,160c11.63727,0 25.51382,0 40,0l0,800h-40zM1704,160c14.441,0 28.30989,0 40,0l0,800h-40zM1776,160c15.40254,0 29.19696,0 40,0v800h-40zM1848,160h40v800h-40zM72,960h-40v-480c11.63729,0 25.51386,0 40,0zM144,960h-40v-480c14.44118,0 28.31012,0 40,0zM216,960h-40v-480c15.40199,0 29.19665,0 40,0zM288,960h-40v-480h40zM958.0367,480.0241l-1.96212,0.07227l-1.95975,0.1204l-1.95621,0.16846l-1.95148,0.21641l-1.94558,0.26424l-1.93851,0.31191l-1.93027,0.35939l-1.92087,0.40665l-1.91031,0.45367l-1.89861,0.50042l-1.88575,0.54686l-1.87177,0.59297l-1.85665,0.63873l-1.84042,0.6841l-1.82307,0.72906l-1.80463,0.77358l-1.7851,0.81764l-1.7645,0.8612l-1.74283,0.90424l-1.72012,0.94674l-1.69637,0.98867l-1.67159,1.03l-1.64581,1.07072l-1.61904,1.11078l-1.59129,1.15018l-1.56258,1.18889l-1.53294,1.22688l-1.50236,1.26413l-1.47089,1.30062l-1.43853,1.33632l-1.4053,1.37123l-1.37122,1.4053l-1.33632,1.43853l-1.30062,1.47089l-1.26413,1.50236l-1.22688,1.53294l-1.18889,1.56258l-1.15018,1.59129l-1.11078,1.61904l-1.07072,1.64581l-1.03,1.67159l-0.98867,1.69637l-0.94674,1.72012l-0.90424,1.74283l-0.8612,1.7645l-0.81764,1.7851l-0.77358,1.80463l-0.72906,1.82307l-0.6841,1.84042l-0.63873,1.85665l-0.59297,1.87177l-0.54686,1.88575l-0.50041,1.89861l-0.45367,1.91031l-0.40665,1.92087l-0.35939,1.93027l-0.31191,1.93851l-0.26424,1.94558l-0.21641,1.95148l-0.16846,1.95621l-0.1204,1.95975l-0.07227,1.96212l-0.02409,1.9633c0,-44.18278 -35.81722,-80 -80,-80c-44.18278,0 -80,35.81722 -80,80l-0.02409,-1.9633l-0.07227,-1.96212l-0.1204,-1.95975l-0.16846,-1.95621l-0.21641,-1.95148l-0.26424,-1.94558l-0.31191,-1.93851l-0.35939,-1.93027l-0.40665,-1.92087l-0.45367,-1.91031l-0.50041,-1.89861l-0.54686,-1.88575l-0.59297,-1.87177l-0.63873,-1.85665l-0.6841,-1.84042l-0.72906,-1.82307l-0.77358,-1.80463l-0.81764,-1.7851l-0.8612,-1.7645l-0.90424,-1.74283l-0.94674,-1.72012l-0.98867,-1.69637l-1.03,-1.67159l-1.07072,-1.64581l-1.11078,-1.61904l-1.15018,-1.59129l-1.18889,-1.56258l-1.22688,-1.53294l-1.26413,-1.50236l-1.30062,-1.47089l-1.33632,-1.43853l-1.37122,-1.4053l-1.4053,-1.37123l-1.43853,-1.33632l-1.47089,-1.30062l-1.50236,-1.26413l-1.53294,-1.22688l-1.56258,-1.18889l-1.59129,-1.15018l-1.61904,-1.11078l-1.64581,-1.07072l-1.67159,-1.03l-1.69637,-0.98867l-1.72012,-0.94674l-1.74283,-0.90424l-1.7645,-0.8612l-1.7851,-0.81764l-1.80463,-0.77358l-1.82307,-0.72906l-1.84042,-0.6841l-1.85665,-0.63873l-1.87177,-0.59297l-1.88575,-0.54686l-1.89861,-0.50042l-1.91031,-0.45367l-1.92087,-0.40665l-1.93027,-0.35939l-1.93851,-0.31191l-1.94558,-0.26424l-1.95148,-0.21641l-1.95621,-0.16846l-1.95975,-0.1204l-1.96212,-0.07227l-1.9633,-0.02409v-160h640v160l-1.9633,0.02409l-1.96212,0.07227l-1.95975,0.1204l-1.95621,0.16846l-1.95148,0.21641l-1.94558,0.26424l-1.93851,0.31191l-1.93028,0.35939l-1.92087,0.40665l-1.91031,0.45367l-1.89861,0.50042l-1.88575,0.54686l-1.87176,0.59297l-1.85665,0.63873l-1.84041,0.6841l-1.82307,0.72906l-1.80463,0.77358l-1.7851,0.81764l-1.7645,0.8612l-1.74283,0.90424l-1.72012,0.94674l-1.69637,0.98867l-1.67159,1.03l-1.64581,1.07072l-1.61904,1.11078l-1.59129,1.15018l-1.56258,1.18889l-1.53294,1.22688l-1.50236,1.26413l-1.47089,1.30062l-1.43853,1.33632l-1.4053,1.37123l-1.37123,1.4053l-1.33632,1.43853l-1.30062,1.47089l-1.26413,1.50236l-1.22688,1.53294l-1.18889,1.56258l-1.15018,1.59129l-1.11078,1.61904l-1.07072,1.64581l-1.03,1.67159l-0.98867,1.69637l-0.94674,1.72012l-0.90424,1.74283l-0.8612,1.7645l-0.81764,1.7851l-0.77358,1.80463l-0.72906,1.82307l-0.6841,1.84042l-0.63873,1.85665l-0.59297,1.87177l-0.54686,1.88575l-0.50041,1.89861l-0.45367,1.91031l-0.40665,1.92087l-0.35939,1.93027l-0.31191,1.93851l-0.26424,1.94558l-0.21641,1.95148l-0.16846,1.95621l-0.1204,1.95975l-0.07227,1.96212l-0.02409,1.9633c0,-44.18278 -35.81722,-80 -80,-80c-44.18278,0 -80,35.81722 -80,80l-0.02409,-1.9633l-0.07227,-1.96212l-0.1204,-1.95975l-0.16846,-1.95621l-0.21641,-1.95148l-0.26424,-1.94558l-0.31191,-1.93851l-0.35939,-1.93027l-0.40665,-1.92087l-0.45367,-1.91031l-0.50041,-1.89861l-0.54686,-1.88575l-0.59297,-1.87177l-0.63873,-1.85665l-0.6841,-1.84042l-0.72906,-1.82307l-0.77358,-1.80463l-0.81764,-1.7851l-0.8612,-1.7645l-0.90424,-1.74283l-0.94674,-1.72012l-0.98867,-1.69637l-1.03,-1.67159l-1.07072,-1.64581l-1.11078,-1.61904l-1.15018,-1.59129l-1.18889,-1.56258l-1.22688,-1.53294l-1.26413,-1.50236l-1.30062,-1.47089l-1.33632,-1.43853l-1.37122,-1.4053l-1.4053,-1.37123l-1.43853,-1.33632l-1.47089,-1.30062l-1.50236,-1.26413l-1.53294,-1.22688l-1.56258,-1.18889l-1.59129,-1.15018l-1.61904,-1.11078l-1.64581,-1.07072l-1.67159,-1.03l-1.69637,-0.98867l-1.72012,-0.94674l-1.74283,-0.90424l-1.7645,-0.8612l-1.7851,-0.81764l-1.80463,-0.77358l-1.82307,-0.72906l-1.84042,-0.6841l-1.85665,-0.63873l-1.87177,-0.59297l-1.88575,-0.54686l-1.89861,-0.50042l-1.91031,-0.45367l-1.92087,-0.40665l-1.93027,-0.35939l-1.93851,-0.31191l-1.94558,-0.26424l-1.95148,-0.21641l-1.95621,-0.16846l-1.95975,-0.1204l-1.96212,-0.07227l-1.9633,-0.02409zM480.0241,641.9633l0.07227,1.96212l0.1204,1.95975l0.16846,1.95621l0.21641,1.95148l0.26424,1.94558l0.31191,1.93851l0.35939,1.93027l0.40665,1.92087l0.45367,1.91031l0.50042,1.89861l0.54686,1.88575l0.59297,1.87177l0.63873,1.85665l0.6841,1.84042l0.72906,1.82307l0.77358,1.80463l0.81764,1.7851l0.8612,1.7645l0.90424,1.74283l0.94674,1.72012l0.98867,1.69637l1.03,1.67159l1.07072,1.64581l1.11078,1.61904l1.15018,1.59129l1.18889,1.56258l1.22688,1.53294l1.26413,1.50236l1.30062,1.47089l1.33632,1.43853l1.37123,1.4053l1.4053,1.37122l1.43853,1.33632l1.47089,1.30062l1.50236,1.26413l1.53294,1.22688l1.56258,1.18889l1.59129,1.15018l1.61904,1.11078l1.64581,1.07072l1.67159,1.03l1.69637,0.98867l1.72012,0.94674l1.74283,0.90424l1.7645,0.8612l1.7851,0.81764l1.80463,0.77358l1.82307,0.72906l1.84042,0.6841l1.85665,0.63873l1.87177,0.59297l1.88575,0.54686l1.89861,0.50041l1.91031,0.45367l1.92087,0.40665l1.93027,0.35939l1.93851,0.31191l1.94558,0.26424l1.95148,0.21641l1.95621,0.16846l1.95975,0.1204l1.96212,0.07227l1.9633,0.02409c-44.18278,0 -80,35.81722 -80,80c0,44.18278 35.81722,80 80,80l-1.9633,0.02409l-1.96212,0.07227l-1.95975,0.1204l-1.95621,0.16846l-1.95148,0.21641l-1.94558,0.26424l-1.93851,0.31191l-1.93027,0.35939l-1.92087,0.40665l-1.91031,0.45367l-1.89861,0.50041l-1.88575,0.54686l-1.87177,0.59297l-1.85665,0.63873l-1.84042,0.6841l-1.82307,0.72906l-1.80463,0.77358l-1.7851,0.81764l-1.7645,0.8612l-1.74283,0.90424l-1.72012,0.94674l-1.69637,0.98867l-1.67159,1.03l-1.64581,1.07072l-1.61904,1.11078l-1.59129,1.15018l-1.56258,1.18889l-1.53294,1.22688l-1.50236,1.26413l-1.47089,1.30062l-1.43853,1.33632l-1.4053,1.37122l-1.37123,1.4053l-1.33632,1.43853l-1.30062,1.47089l-1.26413,1.50236l-1.22688,1.53294l-1.18889,1.56258l-1.15018,1.59129l-1.11078,1.61904l-1.07072,1.64581l-1.03,1.67159l-0.98867,1.69637l-0.94674,1.72012l-0.90424,1.74283l-0.8612,1.7645l-0.81764,1.7851l-0.77358,1.80463l-0.72906,1.82307l-0.6841,1.84042l-0.63873,1.85665l-0.59297,1.87177l-0.54686,1.88575l-0.50042,1.89861l-0.45367,1.91031l-0.40665,1.92087l-0.35939,1.93027l-0.31191,1.93851l-0.26424,1.94558l-0.21641,1.95148l-0.16846,1.95621l-0.1204,1.95975l-0.07227,1.96212l-0.02409,1.9633h-160v-320h160zM1439.9759,958.0367l-0.07227,-1.96212l-0.1204,-1.95975l-0.16846,-1.95621l-0.21641,-1.95148l-0.26424,-1.94558l-0.31191,-1.93851l-0.35939,-1.93027l-0.40665,-1.92087l-0.45367,-1.91032l-0.50042,-1.89861l-0.54686,-1.88575l-0.59297,-1.87177l-0.63873,-1.85665l-0.6841,-1.84041l-0.72906,-1.82307l-0.77358,-1.80463l-0.81764,-1.7851l-0.8612,-1.7645l-0.90424,-1.74283l-0.94674,-1.72012l-0.98867,-1.69637l-1.03,-1.67159l-1.07072,-1.64581l-1.11078,-1.61904l-1.15018,-1.59129l-1.18889,-1.56258l-1.22688,-1.53294l-1.26413,-1.50236l-1.30062,-1.47089l-1.33632,-1.43853l-1.37122,-1.4053l-1.4053,-1.37122l-1.43853,-1.33632l-1.47089,-1.30062l-1.50236,-1.26413l-1.53293,-1.22688l-1.56258,-1.18889l-1.59129,-1.15018l-1.61904,-1.11078l-1.64581,-1.07072l-1.67159,-1.03l-1.69637,-0.98867l-1.72012,-0.94674l-1.74283,-0.90424l-1.7645,-0.8612l-1.7851,-0.81764l-1.80463,-0.77358l-1.82307,-0.72906l-1.84041,-0.6841l-1.85665,-0.63873l-1.87176,-0.59297l-1.88575,-0.54686l-1.89861,-0.50042l-1.91031,-0.45367l-1.92087,-0.40665l-1.93028,-0.35939l-1.93851,-0.31191l-1.94558,-0.26424l-1.95148,-0.21641l-1.95621,-0.16846l-1.95975,-0.1204l-1.96212,-0.07227l-1.9633,-0.02409v-0.00001c44.18277,0 79.99999,-35.81722 79.99999,-79.99999c0,-44.18259 -35.81691,-79.9997 -79.99942,-80.00001l1.96271,-0.02409l1.96212,-0.07227l1.95975,-0.1204l1.95621,-0.16846l1.95148,-0.21641l1.94558,-0.26424l1.93851,-0.31191l1.93027,-0.35939l1.92087,-0.40665l1.91032,-0.45367l1.89861,-0.50041l1.88575,-0.54686l1.87177,-0.59297l1.85665,-0.63873l1.84041,-0.6841l1.82307,-0.72906l1.80463,-0.77358l1.7851,-0.81764l1.7645,-0.8612l1.74283,-0.90424l1.72012,-0.94674l1.69637,-0.98867l1.67159,-1.03l1.64581,-1.07072l1.61904,-1.11078l1.59129,-1.15018l1.56258,-1.18889l1.53293,-1.22688l1.50237,-1.26413l1.47089,-1.30062l1.43853,-1.33632l1.4053,-1.37122l1.37122,-1.4053l1.33632,-1.43853l1.30062,-1.47089l1.26413,-1.50237l1.22688,-1.53293l1.18889,-1.56258l1.15018,-1.59129l1.11078,-1.61904l1.07072,-1.64581l1.03,-1.67159l0.98867,-1.69636l0.94674,-1.72012l0.90424,-1.74283l0.8612,-1.7645l0.81764,-1.7851l0.77358,-1.80463l0.72906,-1.82307l0.6841,-1.84041l0.63873,-1.85665l0.59297,-1.87177l0.54686,-1.88575l0.50042,-1.89861l0.45367,-1.91031l0.40665,-1.92087l0.35939,-1.93027l0.31191,-1.93851l0.26424,-1.94558l0.21641,-1.95148l0.16846,-1.95621l0.1204,-1.95975l0.07227,-1.96212l0.0241,-1.9633h160v320h-160z" fill="#ffa300"/><path d="M1760,0c88.36,0 160,71.6352 160,160c-10.80304,0 -128.59746,0 -144,0c-11.69011,0 -57.559,0 -72,0c-14.48618,0 -60.36273,0 -72,0h-32c0,-88.3648 71.64,-160 160,-160zM0,480c0,-88.365 71.6352,-160 160,-160c88.365,0 160,71.635 160,160c-10.80335,0 -128.59801,0 -144,0c-11.68988,0 -57.55882,0 -72,0c-14.48614,0 -60.36271,0 -72,0c-0.00001,0 -32,0 -32,0z" fill="#ff4f00"/></g></svg>