<svg xmlns="http://www.w3.org/2000/svg" width="1920" height="960" viewBox="0 0 1920 960"><g xmlns="http://www.w3.org/2000/svg" fill="none" fill-rule="nonzero" stroke="none" stroke-width="1" stroke-linecap="butt" stroke-linejoin="miter" stroke-miterlimit="10" stroke-dasharray="" stroke-dashoffset="0" font-family="none" font-weight="none" font-size="none" text-anchor="none" style="mix-blend-mode: normal"><path d="M640,799.955l-159.955,0.045l-0.045,-160c88.34,-0.026 159.974,71.59 160,159.955zM479.955,800l0.045,159.955l-160,0.045c-0.026,-88.34 71.59,-159.974 159.955,-160zM480,320v-320l8,0v320zM624,320v-320l8,0v320zM600,320v-320l8,0v320zM448,320v-320l8,0v320zM576,320v-320l8,0v320zM416,320v-320l8,0v320zM544,320v-320l8,0v320zM376,320v-320l8,0v320zM512,320v-320l8,0v320zM336,320v-320l8,0v320zM960,159.955l-159.955,0.045l-0.045,-160.00002c88.34,-0.02559 159.974,71.59042 160,159.95502zM799.955,160l0.045,159.955l-160,0.045c-0.00001,-0.03206 -0.00001,-0.06412 0,-0.09618c0.02599,-88.29581 71.62207,-159.87783 159.955,-159.90382zM800,640v-320h8v320zM944,640l0,-320h8v320zM920,640v-320h8v320zM768,640l0,-320h8v320zM896,640v-320h8v320zM736,640v-320h8v320zM864,640l0,-320h8v320zM696,640v-320h8v320zM832,640v-320h8v320zM656,640l0,-320h8v320zM1920,159.955l-159.96,0.045l-0.04,-160.00002c88.34,-0.02559 159.97,71.59042 160,159.95502zM1759.96,160l0.04,159.955l-160,0.045c-0.03,-88.34 71.59,-159.974 159.96,-160zM1760,960v-320h8v320zM1904,960v-320h8v320zM1880,960v-320h8v320zM1728,960v-320h8v320zM1856,960v-320h8v320zM1696,960v-320h8v320zM1824,960v-320h8v320zM1656,960v-320h8v320zM1792,960v-320h8v320zM1616,960v-320h8v320zM1600,480.045l159.96,-0.045l0.04,160c-0.03206,0.00001 -0.06412,0.00001 -0.09618,0c-88.2958,-0.02599 -159.87383,-71.62207 -159.90382,-159.955zM1760.04,480l-0.04,-159.955l160,-0.045c0.03,88.34 -71.59,159.974 -159.96,160zM1520,320c0,132.548 -107.45,240 -240,240c0,0 0,-48.26392 0,-120c66.27,0 120,-53.726 120,-120v-320l8,0l0,320c8.36316,0 16.37729,0 24,0v-320l8,0v320c8.57809,0 16.60066,0 24,0v-320l8,0l0,320c9.19597,0 17.24881,0 24,0v-320l8,0v320c10.3343,0 16,0 16,0zM1280,159.955l-159.96,0.045l-0.04,-160.00002c88.34,-0.02559 159.97,71.59042 160,159.95502zM1119.96,160l0.04,159.955l-160,0.045c-0.00001,-0.03206 -0.00001,-0.06412 0,-0.09618c0.02599,-88.29581 71.62207,-159.87783 159.96,-159.90382zM1120,640v320h-8v-320zM976,640v320h-8v-320zM1000,640v320h-8v-320zM1152,640v320h-8v-320zM1024,640v320h-8v-320zM1184,640v320h-8v-320zM1056,640v320h-8v-320zM1224,640v320h-8v-320zM1088,640v320h-8v-320zM1264,640v320h-8v-320zM-0.00001,320c0,0 0.00001,0 0.00001,0c0,66.274 0.00001,120 0.00001,120c66.27419,0 119.99999,-53.726 119.99999,-120c71.73608,0 120,0 120,0c0,132.548 -107.452,240 -240,240c0,0 -0.00001,-107.452 -0.00001,-240zM1360,960c0,-132.548 107.45,-240 240,-240c0,0 0,48.26392 0,120c-66.27,0 -120,53.726 -120,120c-71.73658,0 -120,0 -120,0zM1296,0l0,320c-2.6551,0 -5.322,0 -8,0v-320zM1320,0l0,320c-2.65217,0 -5.31909,0 -8,0v-320zM1344,0l0,320c-2.64858,0 -5.31553,0 -8,0v-320zM1504,320c2.9133,0 -2.41579,0 0,0zM1376,0v320c-2.6422,0 -5.30921,0 -8,0v-320zM1544,0l0,320h-8v-320zM1408,320c2.70037,0 -2.63252,0 0,0zM1584,0l0,320h-8v-320zM320,480.045l159.955,-0.045l0.045,160c-0.03206,0.00001 -0.06412,0.00001 -0.09618,0c-88.29581,-0.02599 -159.87783,-71.62207 -159.90382,-159.955zM480.045,480l-0.045,-159.955l160,-0.045c0.00001,0.03206 0.00001,0.06412 0,0.09618c-0.02599,88.29581 -71.62207,159.87783 -159.955,159.90382zM640,800.045l159.955,-0.045l0.045,160c-88.34,0.026 -159.974,-71.59 -160,-159.955zM800.045,800l-0.045,-159.955l160,-0.045c0.00001,0.03206 0.00001,0.06412 0,0.09618c-0.02599,88.29581 -71.62207,159.87783 -159.955,159.90382zM320,159.955l-159.955,0.045l-0.045,-160.00001c88.34,-0.02559 159.974,71.59041 160,159.95501zM159.955,160l0.045,159.955l-159.99999,0.045c-0.0256,-88.34 71.59039,-159.974 159.95499,-160zM160,960h-8l0,-320h8zM16,960h-8l0.00001,-320h7.99999zM40,960h-8v-320h8zM192,960h-8l0,-320h8zM64,960h-8l0,-320h8zM224,960h-8l0,-320h8zM96,960h-8l0,-320h8zM264,960h-8v-320h8zM128,960h-8v-320h8zM304,960h-8v-320h8zM1120,640l0.04,-160l159.96,0.045c-0.02999,88.33293 -71.60801,159.92901 -159.90382,159.955c-0.03206,0.00001 -0.06412,0.00001 -0.09618,0zM960,320l160,0.045l-0.04,159.955c-88.33793,-0.02599 -159.93401,-71.60801 -159.96,-159.90382c-0.00001,-0.03206 -0.00001,-0.06412 0,-0.09618z" fill="#121212"/><path d="M320,960c-0.00001,-0.03206 -0.00001,-0.06412 0,-0.09618zM480,959.955l-0.045,-159.955c-88.33293,0.02599 -159.92901,71.60801 -159.955,159.90382l0,-319.90382h160l0.045,160l159.955,-0.045c-0.02599,-88.33293 -71.60801,-159.92901 -159.90382,-159.955h159.90382v320h-320zM480,640c0.03206,-0.00001 0.06412,-0.00001 0.09618,0zM960,320h-320l160,-0.045l-0.045,-159.955c-88.33293,0.02599 -159.92901,71.60801 -159.955,159.90382v-319.90382l160,0l0.045,160l159.955,-0.045c-0.02599,-88.31927 -71.58653,-159.90713 -159.86407,-159.955l319.86407,0l0.04,160l159.96,-0.045c-0.02998,-88.31927 -71.58653,-159.90713 -159.86407,-159.955h159.86407c0,71.73608 0,640 0,640h-159.90382c88.2958,-0.02599 159.87383,-71.62207 159.90382,-159.955l-159.96,-0.045l-0.04,160h-160l0,-319.90382c0.02599,88.29581 71.62207,159.87783 159.96,159.90382l0.04,-159.955l-160,-0.045l160,-0.045l-0.04,-159.955c-88.33793,0.02599 -159.93401,71.60801 -159.96,159.90382zM0,640v-80c132.548,0 240,-107.452 240,-240h80v320z" fill="#d9d9d6"/><path d="M320,320v-320h320v320h-8v-320l-8,0l0,320h-16v-320l-8,0v320h-16v-320l-8,0l0,320h-24v-320l-8,0l0,320h-24v-320l-8,0l0,320h-24v-320l-8,0l0,320h-24v-320l-8,0v320h-24v-320l-8,0l0,320h-32v-320l-8,0l0,320h-32v-320l-8,0l0,320zM640,640v-320h16v320zM960,640h-8v-320h8zM944,640h-16v-320h16zM920,640h-16v-320h16zM896,640h-24v-320h24zM864,640h-24v-320h24zM832,640h-24v-320h24zM800,640h-24v-320h24zM768,640h-24v-320h24zM736,640h-32v-320h32zM696,640h-32v-320h32zM960,960v-320h8v320zM1280,640v320h-16l0,-320zM976,640h16v320h-16zM1000,640h16l0,320h-16zM1024,640h24l0,320h-24zM1056,640h24l0,320h-24zM1088,640h24l0,320h-24zM1120,640h24l0,320h-24zM1152,640h24l0,320h-24zM1184,640h32l0,320h-32zM1224,640h32l0,320h-32z" fill="#ff4f00"/><path d="M1600,320c-0.00001,-0.03699 -0.00001,-0.07398 0,-0.11097zM1760,319.955l-0.04,-159.955c-88.333,0.02599 -159.93002,71.60002 -159.96,159.88903v-319.88903l160,0l0.04,160l159.96,-0.045c-0.02998,-88.31927 -71.58653,-159.90713 -159.86407,-159.955h159.86407v320c0.00001,0.03699 0.00001,0.07398 0,0.11097v639.88903c-66.27,0 -440,0 -440,0c0,-66.274 53.73,-120 120,-120c0,-57.8019 0,-129.01976 0,-200h-320v-80c132.55,0 240,-107.452 240,-240h80c0,-160.6083 0,0 0,0zM1280,320c66.27,0 120,0 120,0c0,66.274 -53.73,120 -120,120c0,0 0,-53.726 0,-120zM0.00001,440c0,0 0,-53.726 -0.00001,-120v-320l160,0l0.045,160l159.955,-0.045c-0.02599,-88.32537 -71.59642,-159.91702 -159.88236,-159.955h159.88236v320c0,0 -106.86293,0 -200,0c0,66.274 -53.7258,120 -119.99999,120zM800,640.045l0.045,159.955c88.33293,-0.02599 159.92901,-71.60801 159.955,-159.90382l0,319.90382h-160l-0.045,-160l-159.955,0.045c0.02599,88.33293 71.60801,159.92901 159.90382,159.955h-159.90382v-320h320zM800,960c-0.03206,0.00001 -0.06412,0.00001 -0.09618,0zM0.00001,320l159.99999,-0.045l-0.045,-159.955c-88.3646,0.026 -159.98059,71.66 -159.95499,160z" fill="#f3f3f3"/><path d="M1600,960v-320h16v320zM1920,640v320h-8l0,-320zM1624,640h32v320h-32zM1664,640h32l0,320h-32zM1704,640h24l0,320h-24zM1736,640h24l0,320h-24zM1768,640h24l0,320h-24zM1800,640h24v320h-24zM1832,640h24l0,320h-24zM1864,640h16v320h-16zM1888,640h16l0,320h-16zM0,960v-320h8.00001l-0.00001,320zM320,960h-16v-320h16zM296,960h-32v-320h32zM256,960h-32v-320h32zM216,960h-24v-320h24zM184,960h-24v-320h24zM152,960h-24v-320h24zM120,960h-24v-320h24zM88,960h-24v-320h24zM56,960h-16v-320h16zM32,960h-16v-320h16z" fill="#ffa300"/></g></svg>