<svg xmlns="http://www.w3.org/2000/svg" width="1920" height="960" viewBox="0 0 1920 960"><g xmlns="http://www.w3.org/2000/svg" fill="none" fill-rule="nonzero" stroke="none" stroke-width="1" stroke-linecap="butt" stroke-linejoin="miter" stroke-miterlimit="10" stroke-dasharray="" stroke-dashoffset="0" font-family="none" font-weight="none" font-size="none" text-anchor="none" style="mix-blend-mode: normal"><path d="M640,320c0,0 0,-59.42477 0,-120c-66.274,0 -120,53.726 -120,120c13.30046,0 26.80683,0 40,0c30.46818,0 59.26602,0 80,0v120c66.274,0 120,-53.726 120,-120zM320,560c-132.548,0 -240,-107.452 -240,-240c22.03114,0 40,0 40,0c0,-66.274 -53.7258,-120 -120,-120c0,0 0,53.726 -0.00001,120c-0.00001,0 -0.00001,0 -0.00002,0c0.00001,-132.548 0.00001,-240 0.00001,-240c0.00001,0 0.00001,0 0.00002,0v-80l0.09566,0c-0.03187,-0.00001 -0.06375,-0.00001 -0.09562,-0.00001l319.99996,0.00001h320c-176.73,0 -320,143.27 -320,320c0,0 -59.42477,0 -120,0c0,66.274 53.726,120 120,120c66.274,0 120,-53.726 120,-120c-25.27388,0 -40,0 -40,0c0,-132.548 107.452,-240 240,-240c0,22.03114 0,40 0,40c66.274,0 120,-53.7258 120,-120c0,0 -53.726,0 -120,-0.00001c0,-0.00001 0,-0.00002 0,-0.00003c132.548,0.00001 240,0.00002 240,0.00002c0,0.00001 0,0.00001 0,0.00002l80,0c0.00002,176.73001 143.27001,320 319.99999,320h-79.99999c0,132.548 -107.45,240 -240,240v80c-176.73,0 -320,143.27 -320,320c0,-24.7762 0,-70.60993 0,-120c-66.274,0 -120,53.726 -120,120c-71.73608,0 -120,0 -120,0c0,-132.548 107.452,-240 240,-240c0,-46.22955 0,-80 0,-80c27.8391,0 64.53114,0 0,0c-176.73,0 -320,143.27 -320,320c0,0 -128.26392,0 -200,0c0,-66.274 -53.7258,-120 -120,-120c0,0 0,53.726 0.00001,120c0,0 -0.00001,0 -0.00001,0c-0.00001,-132.548 -0.00001,-240 -0.00001,-240c0.00001,0 0.00001,0 0.00002,0v-80l0,-320c0,176.73 143.27,320 320,320h0.00001zM960,320v120c66.27,0 120,-53.726 120,-120zM720,960c0,-132.548 107.452,-240 240,-240c0,0 0,14.72612 0,40c66.27,0 120,-53.726 120,-120c-49.38999,0 -95.22366,0 -120,0c176.73,0 320,-143.27 320,-320c0,0 59.42468,0 120,0c0,-66.274 -53.73,-120 -120,-120c0,13.30046 0,26.80683 0,40c-132.55,0 -240,-107.452 -240,-240c0,0 107.45,0 240,0v0l0.09563,0c-0.03187,-0.00001 -0.06375,-0.00001 -0.09562,-0.00001l319.99999,0.00001l0.09563,0c-0.03187,-0.00001 -0.06375,-0.00001 -0.09562,-0.00001l319.99999,0.00001v320c-7.1027,0 -102.24317,0 -120,0c0,66.274 53.73,120 120,120c0,71.73608 0,120 0,120v80c-176.73,0 -320,-143.27 -320,-320c0,0 59.42468,0 120,0c0,-66.274 -53.73,-120 -120,-120c0,49.39007 0,95.2238 0,120c-30.49308,0 -58.64076,0 -80,0c-24.44623,0 -40,0 -40,0c0,66.274 53.73,120 120,120v200h320c0,0 0,128.26392 0,200c-66.27,0 -120,53.726 -120,120c-71.73658,0 -120,0 -120,0h-720c176.73,0 320,-143.27 320,-320v120c66.27,0 120,-53.726 120,-120c0,0 -62.65468,0 -120,0c0,-8.10996 0,-11.03502 0,0c-32.49218,0 -63.27982,0 -80,0c0,132.548 -107.45,240 -240,240c0,-8.49865 0,-23.29602 0,-40c-66.274,0 -120,53.726 -120,120c-71.73608,0 -120,0 -120,0zM1280,80v-79.99998c-66.27,0 -120,0 -120,0c0,66.27418 53.73,119.99998 120,119.99998c0,-25.27388 0,-40 0,-40zM0.00004,-0.00001c0,0 0,0 0,0zM640,640c-37.14807,0 -21.12218,0 0,0zM880,320c36.47927,0 -42.54361,0 0,0z" fill="#f3f3f3"/><path d="M640,-0.00001c66.274,0.00001 120,0.00001 120,0.00001c0,66.2742 -53.726,120 -120,120c0,0 0,-15.45002 0,-40c-132.548,0 -240,107.452 -240,240c0,0 15.89628,0 40,0c0,66.274 -53.726,120 -120,120c-66.274,0 -120,-53.726 -120,-120c39.25387,0 83.27294,0 120,0c0,-176.73 143.27,-320 320,-320c0,0 0,-0.00001 0,-0.00001zM520,320c0,-66.274 53.726,-120 120,-120c0,60.57523 0,120 0,120c-66.274,0 -120,0 -120,0zM640,960c-66.274,0 -120,0 -120,0c0,-66.274 53.726,-120 120,-120c0,0 0,53.726 0,120zM640,640v80c-132.548,0 -240,107.452 -240,240h-80c0,-176.73 143.27,-320 320,-320zM840,960c0,-66.274 53.726,-120 120,-120c0,0 0,15.45005 0,40c132.55,0 240,-107.452 240,-240h80c0,176.73 -143.27,320 -320,320c0,-7.42652 0,-18.17757 0,0c-66.274,0 -120,0 -120,0zM640,960c0,-176.73 143.27,-320 320,-320c66.27,0 120,0 120,0c0,66.274 -53.73,120 -120,120c0,-13.61183 0,-27.16557 0,-40c-132.548,0 -240,107.452 -240,240zM1920,960c-66.27,0 -120,0 -120,0c0,-66.274 53.73,-120 120,-120c0,0 0,53.726 0,120zM1919.99999,640h-319.99999v-200c-66.27,0 -120,-53.726 -120,-120c0,0 53.73,0 120,0c0,176.73 143.27,320 319.99999,320zM1920,320c0,66.274 0,120 0,120c-66.27,0 -120,-53.726 -120,-120c0,0 53.73,0 120,0zM-0.00001,320c0,-66.274 0.00001,-120 0.00001,-120c66.2742,0 120,53.726 120,120c0,0 -15.45002,0 -40,0c0,132.548 107.452,240 240,240v80h-0.00001c-176.71335,0 -319.973,-143.24301 -319.99999,-319.95005l0,-0.04995c0,0 0,0 -0.00001,0zM1600,200c66.27,0 120,53.726 120,120c-37.5623,0 -80.72644,0 -120,0c0,-66.274 0,-120 0,-120zM1280,200c66.27,0 120,53.726 120,120c-60.57532,0 -120,0 -120,0c0,176.73 -143.27,320 -320,320v-80c132.55,0 240,-107.452 240,-240c41.70494,0 71.05031,0 79.99999,0c-176.72999,0 -319.99997,-143.26999 -319.99999,-320h320v0c-132.55,0 -240,0 -240,0c0,132.548 107.45,240 240,240c0,-24.54995 0,-40 0,-40zM1160,0.00002c0,0 53.73,0 120,0c0,0 0,95.89627 0,119.99998c-66.27,0 -120,-53.7258 -120,-119.99998zM1280,640h120c0,66.274 -53.73,120 -120,120zM760,320c0,66.274 -53.726,120 -120,120v-120c25.24253,0 68.06254,0 120,0zM0.00001,960c0,-66.274 -0.00001,-120 -0.00001,-120c66.2742,0 120,53.726 120,120c0,0 -53.7258,0 -119.99999,0zM1080,320c0,66.274 -53.73,120 -120,120v-120c41.04914,0 81.87819,0 120,0zM1280,320c0,0 0,0 0,0z" fill="#d9d9d6"/></g></svg>