<svg xmlns="http://www.w3.org/2000/svg" width="1920" height="960" viewBox="0 0 1920 960"><g xmlns="http://www.w3.org/2000/svg" fill="none" fill-rule="none" stroke="none" stroke-width="1" stroke-linecap="butt" stroke-linejoin="miter" stroke-miterlimit="10" stroke-dasharray="" stroke-dashoffset="0" font-family="none" font-weight="none" font-size="none" text-anchor="none" style="mix-blend-mode: normal"><path d="M1312,320c0,159.058 128.94,288 288,288c159.06,0 288,-128.942 288,-288v-320h32v320c0,176.198 -143.33,319.987 -320,319.987v0.013c-176.2,0 -319.99,-143.333 -319.99,-320h-320.01c176.2,0 319.99,143.333 319.99,320h0.01c176.2,0 319.99,143.333 319.99,320h-31.99c0,-159.058 -128.94,-288 -288,-288v32c141.38,0 256,114.615 256,256h-32c0,-123.712 -100.29,-224 -224,-224v32c106.04,0 192,85.961 192,192h-32c0,-88.366 -71.63,-160 -160,-160v32c70.69,0 128,57.308 128,128h-32c0,-53.019 -42.98,-96 -96,-96v32c35.35,0 64,28.654 64,64h-32c0,-17.673 -14.33,-32 -32,-32v32h-32v-320c0,-159.058 -128.94,-288 -288,-288v32c141.38,0 256,114.615 256,256l0,320h-32v-320c0,-123.712 -100.29,-224 -224,-224v32c106.04,0 192,85.961 192,192v320h-32v-320c0,-88.366 -71.63,-160 -160,-160v32c70.69,0 128,57.308 128,128v320h-32v-320c0,-53.019 -42.98,-96 -96,-96v32c35.346,0 64,28.654 64,64l0,320h-32l0,-320c0,-17.673 -14.327,-32 -32,-32v32c0,176.198 -143.333,319.987 -320,319.987v0.013h-320l-0.00001,0c-176.198,0 -319.98719,-143.333 -319.98719,-320h-0.0128l0,320v-640l0,32l320,0c17.673,0 32,-14.327 32,-32c0,-17.673 -14.327,-32 -32,-32v-32c35.346,0 64,28.654 64,64c0,35.346 -28.654,64 -64,64h-320l0,32h320c53.019,0 96,-42.981 96,-96c0,-53.019 -42.981,-96 -96,-96v-32c70.692,0 128,57.308 128,128c0,70.692 -57.308,128 -128,128h-320l0,32h320c88.366,0 160,-71.634 160,-160c0,-88.366 -71.634,-160 -160,-160v-32c106.039,0 192,85.961 192,192c0,106.039 -85.961,192 -192,192h-320l0,32h320c123.712,0 224,-100.288 224,-224c0,-123.712 -100.288,-224 -224,-224v-32c141.385,0 256,114.615 256,256c0,141.385 -114.615,256 -256,256h-320l0,32h320c159.058,0 288,-128.942 288,-288c0,-159.058 -128.942,-288 -288,-288v-32l0.09532,0c176.15453,0.05169 319.89168,143.36486 319.89168,320h0.013c0,176.198 -143.333,319.987 -320,319.987v0.013h-32c0,17.673 14.327,32 32,32l320,0c17.673,0 32,-14.327 32,-32v-320c0,-159.058 128.942,-288 288,-288h320c159.06,0 288,128.942 288,288c0,17.673 14.33,32 32,32c17.67,0 32,-14.327 32,-32v-320h32v320c0,35.346 -28.65,64 -64,64c-35.35,0 -64,-28.654 -64,-64c0,-141.385 -114.62,-256 -256,-256l-320,0c-141.385,0 -256,114.615 -256,256l0,320c0,35.346 -28.654,64 -64,64h-320c-35.346,0 -64,-28.654 -64,-64h-32c0,53.019 42.981,96 96,96h89.588c2.638,0 4.178,3.041 2.767,5.27c-0.501,0.792 -0.989,1.594 -1.463,2.405c-7.683,13.138 -20.229,24.325 -35.449,24.325l-55.443,0c-70.692,0 -128,-57.308 -128,-128h-32c0,88.366 71.634,160 160,160h55.443c15.22,0 27.766,11.187 35.449,24.325c0.474,0.811 0.962,1.613 1.463,2.405c1.411,2.229 -0.129,5.27 -2.767,5.27h-89.588c-106.039,0 -192,-85.961 -192,-192h-32c0,123.712 100.288,224 224,224h320c123.712,0 224,-100.288 224,-224v-105.165c0,-20.742 16,-40.493 16,-61.235c0,-20.742 -16,-40.492 -16,-61.235v-92.365c0,-53.019 42.981,-96 96,-96h320c53.02,0 96,42.981 96,96c0,123.712 100.29,224 224,224c123.71,0 224,-100.288 224,-224l0,-320h32v320c0,141.385 -114.62,256 -256,256c-141.38,0 -256,-114.615 -256,-256c0,-35.346 -28.65,-64 -64,-64l-320,0c-35.346,0 -64,28.654 -64,64l0,156.365c0,20.742 -16,40.493 -16,61.235c0,20.742 16,40.492 16,61.235v41.165c0,141.385 -114.615,256 -256,256h-320c-141.385,0 -256,-114.615 -256,-256h-32c0,159.058 128.942,288 288,288h320c159.058,0 288,-128.942 288,-288v-41.165c0,-20.743 16,-40.493 16,-61.235c0,-20.742 -16,-40.492 -16,-61.235v-156.365c0,-17.673 14.327,-32 32,-32h320c17.67,0 32,14.327 32,32zM1440,320c0,88.366 71.63,160 160,160c88.37,0 160,-71.634 160,-160v-102.389c0,-12.719 8.62,-23.626 16.18,-33.853c4.92,-6.643 7.82,-14.861 7.82,-23.758c0,-8.897 -2.9,-17.115 -7.82,-23.758c-7.56,-10.227 -16.18,-21.134 -16.18,-33.853v-102.389l-32,0v102.389c0,12.719 -8.62,23.626 -16.18,33.853c-4.92,6.643 -7.82,14.861 -7.82,23.758c0,8.897 2.9,17.115 7.82,23.758c7.56,10.227 16.18,21.134 16.18,33.853v102.389c0,70.692 -57.31,128 -128,128c-70.69,0 -128,-57.308 -128,-128c0,-106.039 -85.96,-192 -192,-192l-320,0c-106.039,0 -192,85.961 -192,192l0,320c0,70.692 -57.308,128 -128,128h-55.443c-15.22,0 -27.766,-11.187 -35.449,-24.325c-0.474,-0.811 -0.962,-1.613 -1.463,-2.405c-1.411,-2.229 0.129,-5.27 2.767,-5.27l89.588,0c53.019,0 96,-42.981 96,-96v-320c0,-123.712 100.288,-224 224,-224l320,0c123.71,0 224,100.288 224,224c0,53.019 42.98,96 96,96c53.02,0 96,-42.981 96,-96l0,-320h96v320c0,106.039 -85.96,192 -192,192c-106.04,0 -192,-85.961 -192,-192c0,-70.692 -57.31,-128 -128,-128l-320,0c-70.692,0 -128,57.308 -128,128v92.365c0,20.742 -16,40.493 -16,61.235c0,20.742 16,40.492 16,61.235v105.165c0,106.039 -85.961,192 -192,192h-89.588c-2.638,0 -4.178,-3.041 -2.767,-5.27c0.501,-0.792 0.989,-1.594 1.463,-2.405c7.683,-13.138 20.229,-24.325 35.449,-24.325h55.443c88.366,0 160,-71.634 160,-160v-320c0,-88.366 71.634,-160 160,-160h320c88.37,0 160,71.634 160,160zM0,320v-320h32l0,320zM64,0h32l0,320h-32zM128,0h32v320h-32zM192,0h32v320h-32zM256,0h32l0,320h-32zM1920,640.013l0,31.987c-159.06,0 -288,128.942 -288,288h-32c0,-176.198 143.33,-319.987 320,-319.987zM1920,704v32c-123.71,0 -224,100.288 -224,224h-32c0,-141.385 114.62,-256 256,-256zM1920,768v32c-88.37,0 -160,71.634 -160,160h-32c0,-106.039 85.96,-192 192,-192zM1920,832v32c-53.02,0 -96,42.981 -96,96h-32c0,-70.692 57.31,-128 128,-128zM1920,896v32c-17.67,0 -32,14.327 -32,32h-32c0,-35.346 28.65,-64 64,-64z" fill="#f3f3f3" fill-rule="evenodd"/><path d="M1280,-0.00001l320,0.00001l32,0v320c0,17.673 -14.33,32 -32,32c-17.67,0 -32,-14.327 -32,-32c0,-159.058 -128.94,-288 -288,-288h-320c-159.058,0 -288,128.942 -288,288v320c0,17.673 -14.327,32 -32,32h-320c-17.673,0 -32,-14.327 -32,-32h352v-320h-0.013c0,-176.667 -143.789,-320 -319.98699,-320.00001l319.99999,0.00001l320,0v0l320,0l0.09532,0c-0.03177,-0.00001 -0.06355,-0.00001 -0.09532,-0.00001zM1344,320c0,141.385 114.62,256 256,256c141.38,0 256,-114.615 256,-256v-320l32,0v320c0,159.058 -128.94,288 -288,288c-159.06,0 -288,-128.942 -288,-288c0,-17.673 -14.33,-32 -32,-32h-320c-17.673,0 -32,14.327 -32,32v156.365c0,20.743 16,40.493 16,61.235c0,20.742 -16,40.492 -16,61.235v41.165c0,159.058 -128.942,288 -288,288h-320c-159.058,0 -288,-128.942 -288,-288h32c0,141.385 114.615,256 256,256h320c141.385,0 256,-114.615 256,-256v-41.165c0,-20.743 -16,-40.493 -16,-61.235c0,-20.742 16,-40.493 16,-61.235v-156.365c0,-35.346 28.654,-64 64,-64h320c35.35,0 64,28.654 64,64zM1408,320c0,106.039 85.96,192 192,192c106.04,0 192,-85.961 192,-192v-320l32,0v320c0,123.712 -100.29,224 -224,224c-123.71,0 -224,-100.288 -224,-224c0,-53.019 -42.98,-96 -96,-96h-320c-53.019,0 -96,42.981 -96,96v92.365c0,20.743 16,40.493 16,61.235c0,20.742 -16,40.493 -16,61.235v105.165c0,123.712 -100.288,224 -224,224h-320c-123.712,0 -224,-100.288 -224,-224h32c0,106.039 85.961,192 192,192h89.588c2.638,0 4.178,-3.041 2.767,-5.27c-0.501,-0.792 -0.989,-1.594 -1.463,-2.405c-7.683,-13.138 -20.229,-24.325 -35.449,-24.325h-55.443c-88.366,0 -160,-71.634 -160,-160h32c0,70.692 57.308,128 128,128h55.443c15.22,0 27.766,-11.187 35.449,-24.325c0.474,-0.811 0.962,-1.613 1.463,-2.405c1.411,-2.229 -0.129,-5.27 -2.767,-5.27h-89.588c-53.019,0 -96,-42.981 -96,-96h32c0,35.346 28.654,64 64,64h320c35.346,0 64,-28.654 64,-64v-320c0,-141.385 114.615,-256 256,-256h320c141.38,0 256,114.615 256,256c0,35.346 28.65,64 64,64c35.35,0 64,-28.654 64,-64v-320l32,0v320c0,53.019 -42.98,96 -96,96c-53.02,0 -96,-42.981 -96,-96c0,-123.712 -100.29,-224 -224,-224h-320c-123.712,0 -224,100.288 -224,224v320c0,53.019 -42.981,96 -96,96h-89.588c-2.638,0 -4.178,3.041 -2.767,5.27c0.501,0.792 0.989,1.594 1.463,2.405c7.683,13.138 20.229,24.325 35.449,24.325h55.443c70.692,0 128,-57.308 128,-128v-320c0,-106.039 85.961,-192 192,-192h320c106.04,0 192,85.961 192,192c0,70.692 57.31,128 128,128c70.69,0 128,-57.308 128,-128v-102.389c0,-12.719 -8.62,-23.626 -16.18,-33.853c-4.92,-6.643 -7.82,-14.861 -7.82,-23.758c0,-8.897 2.9,-17.115 7.82,-23.758c7.56,-10.227 16.18,-21.134 16.18,-33.853v-102.389l32,0v102.389c0,12.719 8.62,23.626 16.18,33.853c4.92,6.643 7.82,14.861 7.82,23.758c0,8.897 -2.9,17.115 -7.82,23.758c-7.56,10.227 -16.18,21.134 -16.18,33.853v102.389c0,88.366 -71.63,160 -160,160c-88.37,0 -160,-71.634 -160,-160c0,-88.366 -71.63,-160 -160,-160h-320c-88.366,0 -160,71.634 -160,160v320c0,88.366 -71.634,160 -160,160h-55.443c-15.22,0 -27.766,11.187 -35.449,24.325c-0.474,0.811 -0.962,1.613 -1.463,2.405c-1.411,2.229 0.129,5.27 2.767,5.27h89.588c106.039,0 192,-85.961 192,-192v-105.165c0,-20.743 -16,-40.493 -16,-61.235c0,-20.742 16,-40.493 16,-61.235v-92.365c0,-70.692 57.308,-128 128,-128h320c70.69,0 128,57.308 128,128zM288,0h32v32c159.058,0 288,128.942 288,288c0,159.058 -128.942,288 -288,288h-320l0,-32h320c141.385,0 256,-114.615 256,-256c0,-141.385 -114.615,-256 -256,-256v32c123.712,0 224,100.288 224,224c0,123.712 -100.288,224 -224,224h-320l0,-32h320c106.039,0 192,-85.961 192,-192c0,-106.039 -85.961,-192 -192,-192v32c88.366,0 160,71.634 160,160c0,88.366 -71.634,160 -160,160h-320l0,-32h320c70.692,0 128,-57.308 128,-128c0,-70.692 -57.308,-128 -128,-128v32c53.019,0 96,42.981 96,96c0,53.019 -42.981,96 -96,96h-320l0,-32h320c35.346,0 64,-28.654 64,-64c0,-35.346 -28.654,-64 -64,-64v32c17.673,0 32,14.327 32,32c0,17.673 -14.327,32 -32,32h-320l0,-32h32v-320h32l0,320h32v-320h32l0,320h32v-320h32v320h32v-320h32l0,320h32zM1920,928v32h-32c0,-17.673 14.33,-32 32,-32zM1920,896c-35.35,0 -64,28.654 -64,64h-32c0,-53.019 42.98,-96 96,-96zM1920,832c-70.69,0 -128,57.308 -128,128h-32c0,-88.366 71.63,-160 160,-160zM1920,768c-106.04,0 -192,85.961 -192,192h-32c0,-123.712 100.29,-224 224,-224zM1920,704c-141.38,0 -256,114.615 -256,256h-32c0,-159.058 128.94,-288 288,-288zM1600,639.987c176.67,0 320,-143.789 320,-319.987v320.013c-176.67,0 -320,143.789 -320,319.987h-0.01c0,-176.667 -143.79,-320 -319.99,-320h-0.01c0,-176.667 -143.79,-320 -319.99,-320h320.01c0,176.667 143.79,320 319.99,320zM992,960h-352v-0.013c176.667,0 320,-143.789 320,-319.987v-32c17.673,0 32,14.327 32,32zM1248,960h-32v-320c0,-141.385 -114.62,-256 -256,-256v-32c159.06,0 288,128.942 288,288zM1056,960h-32v-320c0,-35.346 -28.654,-64 -64,-64v-32c53.02,0 96,42.981 96,96zM1120,960h-32v-320c0,-70.692 -57.31,-128 -128,-128v-32c88.37,0 160,71.634 160,160zM1184,960h-32v-320c0,-106.039 -85.96,-192 -192,-192v-32c123.71,0 224,100.288 224,224zM1312,960h-32v-32c17.67,0 32,14.327 32,32zM1344,960c0,-35.346 -28.65,-64 -64,-64v-32c53.02,0 96,42.981 96,96zM1408,960c0,-70.692 -57.31,-128 -128,-128v-32c88.37,0 160,71.634 160,160zM1472,960c0,-106.039 -85.96,-192 -192,-192v-32c123.71,0 224,100.288 224,224zM1536,960c0,-141.385 -114.62,-256 -256,-256v-32c159.06,0 288,128.942 288,288zM0,960l0,-320h0.0128c0,176.667 143.78919,320 319.98719,320z" fill="#121212" fill-rule="nonzero"/></g></svg>