<svg xmlns="http://www.w3.org/2000/svg" width="1920" height="960" viewBox="0 0 1920 960"><g xmlns="http://www.w3.org/2000/svg" fill="none" fill-rule="nonzero" stroke="none" stroke-width="1" stroke-linecap="butt" stroke-linejoin="miter" stroke-miterlimit="10" stroke-dasharray="" stroke-dashoffset="0" font-family="none" font-weight="none" font-size="none" text-anchor="none" style="mix-blend-mode: normal"><path d="M1920,640v320h-640v-160l320,-80v80zM960,800v-160c2.011,-24.211 16.736,-47.429 44.18,-57.19c37.3,-13.271 54.96,-55.884 37.96,-91.643c-27,-56.78 32.24,-116.02 89.03,-89.029c35.76,16.999 78.38,-0.654 91.64,-37.956c9.76,-27.446 32.98,-42.164 57.19,-44.182h80l-0.02409,-1.9633l-0.07227,-1.96212l-0.1204,-1.95975l-0.16846,-1.95621l-0.21641,-1.95148l-0.26424,-1.94558l-0.31191,-1.93851l-0.35939,-1.93028l-0.40665,-1.92087l-0.45367,-1.91032l-0.50041,-1.89861l-0.54686,-1.88575l-0.59297,-1.87176l-0.63873,-1.85665l-0.6841,-1.84042l-0.72906,-1.82307l-0.77358,-1.80463l-0.81764,-1.7851l-0.8612,-1.7645l-0.90424,-1.74283l-0.94674,-1.72012l-0.98867,-1.69637l-1.03,-1.67159l-1.07072,-1.64581l-1.11078,-1.61904l-1.15018,-1.59129l-1.18889,-1.56258l-1.22688,-1.53294l-1.26413,-1.50236l-1.30062,-1.47089l-1.33632,-1.43853l-1.37123,-1.4053l-1.4053,-1.37123l-1.43853,-1.33632l-1.47089,-1.30062l-1.50236,-1.26413l-1.53294,-1.22688l-1.56258,-1.18889l-1.59129,-1.15018l-1.61904,-1.11078l-1.64581,-1.07072l-1.67159,-1.03l-1.69637,-0.98867l-1.72012,-0.94674l-1.74283,-0.90424l-1.7645,-0.8612l-1.7851,-0.81764l-1.80463,-0.77358l-1.82307,-0.72906l-1.84041,-0.6841l-1.85665,-0.63873l-1.87176,-0.59297l-1.88575,-0.54686l-1.89861,-0.50042l-1.91031,-0.45367l-1.92087,-0.40665l-1.93028,-0.35939l-1.93851,-0.31191l-1.94558,-0.26424l-1.95148,-0.21642l-1.95621,-0.16846l-1.95975,-0.1204l-1.96212,-0.07227l-1.9633,-0.02409l1.9633,-0.02409l1.96212,-0.07227l1.95975,-0.1204l1.95621,-0.16846l1.95148,-0.21642l1.94558,-0.26424l1.93851,-0.31191l1.93028,-0.35939l1.92087,-0.40665l1.91031,-0.45367l1.89861,-0.50042l1.88575,-0.54686l1.87176,-0.59297l1.85665,-0.63873l1.84041,-0.6841l1.82307,-0.72906l1.80463,-0.77358l1.7851,-0.81764l1.7645,-0.8612l1.74283,-0.90424l1.72012,-0.94674l1.69637,-0.98867l1.67159,-1.03l1.64581,-1.07072l1.61904,-1.11078l1.59129,-1.15018l1.56258,-1.18889l1.53294,-1.22688l1.50236,-1.26413l1.47089,-1.30062l1.43853,-1.33632l1.4053,-1.37122l1.37123,-1.4053l1.33632,-1.43853l1.30062,-1.47089l1.26413,-1.50236l1.22688,-1.53294l1.18889,-1.56258l1.15018,-1.59129l1.11078,-1.61904l1.07072,-1.64581l1.03,-1.67159l0.98867,-1.69636l0.94674,-1.72012l0.90424,-1.74283l0.8612,-1.7645l0.81764,-1.7851l0.77358,-1.80463l0.72906,-1.82307l0.6841,-1.84042l0.63873,-1.85665l0.59297,-1.87177l0.54686,-1.88575l0.50041,-1.89861l0.45367,-1.91031l0.40665,-1.92087l0.35939,-1.93027l0.31191,-1.93851l0.26424,-1.94558l0.21641,-1.95148l0.16846,-1.95621l0.1204,-1.95975l0.07227,-1.96212l0.02409,-1.9633l-0.02409,-1.9633l-0.07227,-1.96212l-0.1204,-1.95975l-0.16846,-1.95621l-0.21641,-1.95148l-0.26424,-1.94558l-0.31191,-1.93851l-0.35939,-1.93027l-0.40665,-1.92087l-0.45367,-1.91031l-0.50041,-1.89861l-0.54686,-1.88575l-0.59297,-1.87177l-0.63873,-1.85665l-0.6841,-1.84042l-0.72906,-1.82307l-0.77358,-1.80463l-0.81764,-1.7851l-0.8612,-1.7645l-0.90424,-1.74283l-0.94674,-1.72012l-0.98867,-1.69636l-1.03,-1.67159l-1.07072,-1.64581l-1.11078,-1.61904l-1.15018,-1.59129l-1.18889,-1.56258l-1.22688,-1.53294l-1.26413,-1.50236l-1.30062,-1.47089l-1.33632,-1.43853l-1.37123,-1.4053l-1.4053,-1.37123l-1.43853,-1.33632l-1.47089,-1.30062l-1.50236,-1.26413l-1.53294,-1.22688l-1.56258,-1.18889l-1.59129,-1.15018l-1.61904,-1.11078l-1.64581,-1.07072l-1.67159,-1.03l-1.69637,-0.98867l-1.72012,-0.94674l-1.74283,-0.90424l-1.7645,-0.8612l-1.7851,-0.81764l-1.80463,-0.77358l-1.82307,-0.72906l-1.84041,-0.6841l-1.85665,-0.63873l-1.87176,-0.59297l-1.88575,-0.54686l-1.89861,-0.50042l-1.91031,-0.45367l-1.92087,-0.40665l-1.93028,-0.35939l-1.93851,-0.31191l-1.94558,-0.26424l-1.95148,-0.21641l-1.95621,-0.16846l-1.95975,-0.1204l-1.96212,-0.07227l-1.9633,-0.0241l1.9633,-0.02409l1.96212,-0.07227l1.95975,-0.1204l1.95621,-0.16846l1.95148,-0.21642l1.94558,-0.26424l1.93851,-0.31191l1.93028,-0.35939l1.92087,-0.40665l1.91031,-0.45367l1.89861,-0.50042l1.88575,-0.54686l1.87176,-0.59297l1.85665,-0.63873l1.84041,-0.6841l1.82307,-0.72906l1.80463,-0.77358l1.7851,-0.81764l1.7645,-0.8612l1.74283,-0.90424l1.72012,-0.94674l1.69637,-0.98867l1.67159,-1.03l1.64581,-1.07072l1.61904,-1.11078l1.59129,-1.15018l1.56258,-1.18889l1.53294,-1.22688l1.50236,-1.26413l1.47089,-1.30062l1.43853,-1.33632l1.4053,-1.37122l1.37123,-1.4053l1.33632,-1.43853l1.30062,-1.47089l1.26413,-1.50236l1.22688,-1.53294l1.18889,-1.56258l1.15018,-1.59129l1.11078,-1.61904l1.07072,-1.64581l1.03,-1.67159l0.98867,-1.69636l0.94674,-1.72012l0.90424,-1.74283l0.8612,-1.7645l0.81764,-1.7851l0.77358,-1.80463l0.72906,-1.82307l0.6841,-1.84041l0.63873,-1.85665l0.59297,-1.87176l0.54686,-1.88575l0.50041,-1.89861l0.45367,-1.91032l0.40665,-1.92087l0.35939,-1.93027l0.31191,-1.93851l0.26424,-1.94558l0.21641,-1.95148l0.16846,-1.95621l0.1204,-1.95975l0.07227,-1.96211l0.02409,-1.9633h240v0.00003l320,-0.00003c-2.01,24.2109 -16.74,47.429 -44.18,57.1902c-37.3,13.2712 -54.96,55.8838 -37.96,91.6428c27,56.78 -32.24,116.02 -89.03,89.029c-35.76,-16.999 -78.38,0.654 -91.64,37.956c-9.76,27.446 -32.98,42.164 -57.19,44.182v0.25c-24.19,2.009 -47.39,16.723 -57.15,44.147c-13.26,37.273 -55.84,54.912 -91.57,37.926c-56.73,-26.976 -115.93,32.218 -88.96,88.96c16.99,35.738 -0.65,78.317 -37.92,91.571c-27.43,9.754 -42.13,32.954 -44.15,57.146h-0.25zM640,800v160h-640l-0.00001,-160l320.00002,-160v160l320,-80v-80h-0.25c-2.009,-24.192 -16.723,-47.392 -44.147,-57.146c-37.273,-13.26 -54.912,-55.84 -37.926,-91.571c26.976,-56.736 -32.218,-115.929 -88.96,-88.96c-35.738,16.986 -78.317,-0.653 -91.571,-37.926c-9.754,-27.424 -32.954,-42.131 -57.146,-44.147v-0.25c-24.211,-2.011 -47.429,-16.736 -57.19,-44.182c-13.271,-37.302 -55.884,-54.955 -91.643,-37.956c-56.78,26.997 -116.02,-32.242 -89.0293,-89.029c16.9988,-35.766 -0.6534,-78.378 -37.956,-91.6428c-27.4455,-9.7612 -42.16414,-32.9793 -44.18171,-57.1902l320.00001,-0.00001v0.00001h240l0.02409,1.9633l0.07227,1.96212l0.1204,1.95975l0.16846,1.95621l0.21641,1.95148l0.26424,1.94558l0.31191,1.93851l0.35939,1.93028l0.40665,1.92087l0.45367,1.91032l0.50041,1.89861l0.54686,1.88575l0.59297,1.87177l0.63873,1.85665l0.6841,1.84042l0.72906,1.82307l0.77358,1.80463l0.81764,1.7851l0.8612,1.7645l0.90424,1.74283l0.94674,1.72012l0.98867,1.69637l1.03,1.67159l1.07072,1.64581l1.11078,1.61904l1.15018,1.59129l1.18889,1.56258l1.22688,1.53294l1.26413,1.50236l1.30062,1.47089l1.33632,1.43853l1.37122,1.4053l1.4053,1.37123l1.43853,1.33632l1.47089,1.30062l1.50236,1.26413l1.53294,1.22688l1.56258,1.18889l1.59129,1.15018l1.61904,1.11078l1.64581,1.07072l1.67159,1.03l1.69637,0.98867l1.72012,0.94674l1.74283,0.90424l1.7645,0.8612l1.7851,0.81764l1.80463,0.77358l1.82307,0.72906l1.84042,0.6841l1.85665,0.63873l1.87177,0.59297l1.88575,0.54686l1.89861,0.50042l1.91031,0.45367l1.92087,0.40665l1.93027,0.35939l1.93851,0.31191l1.94558,0.26424l1.95148,0.21641l1.95621,0.16846l1.95975,0.1204l1.96212,0.07227l1.9633,0.0241l-1.9633,0.0241l-1.96212,0.07227l-1.95975,0.1204l-1.95621,0.16846l-1.95148,0.21641l-1.94558,0.26424l-1.93851,0.31191l-1.93027,0.35939l-1.92087,0.40665l-1.91031,0.45367l-1.89861,0.50042l-1.88575,0.54686l-1.87177,0.59297l-1.85665,0.63873l-1.84042,0.6841l-1.82307,0.72906l-1.80463,0.77358l-1.7851,0.81764l-1.7645,0.8612l-1.74283,0.90424l-1.72012,0.94674l-1.69637,0.98867l-1.67159,1.03l-1.64581,1.07072l-1.61904,1.11078l-1.59129,1.15018l-1.56258,1.18889l-1.53294,1.22688l-1.50236,1.26413l-1.47089,1.30062l-1.43853,1.33632l-1.4053,1.37123l-1.37122,1.4053l-1.33632,1.43853l-1.30062,1.47089l-1.26413,1.50236l-1.22688,1.53294l-1.18889,1.56258l-1.15018,1.59129l-1.11078,1.61904l-1.07072,1.64581l-1.03,1.67159l-0.98867,1.69637l-0.94674,1.72012l-0.90424,1.74283l-0.8612,1.7645l-0.81764,1.7851l-0.77358,1.80463l-0.72906,1.82307l-0.6841,1.84042l-0.63873,1.85665l-0.59297,1.87177l-0.54686,1.88575l-0.50041,1.89861l-0.45367,1.91031l-0.40665,1.92087l-0.35939,1.93027l-0.31191,1.93851l-0.26424,1.94558l-0.21641,1.95148l-0.16846,1.95621l-0.1204,1.95975l-0.07227,1.96212l-0.02409,1.9633l0.02409,1.9633l0.07227,1.96212l0.1204,1.95975l0.16846,1.95621l0.21641,1.95148l0.26424,1.94558l0.31191,1.93851l0.35939,1.93027l0.40665,1.92087l0.45367,1.91031l0.50041,1.89861l0.54686,1.88575l0.59297,1.87177l0.63873,1.85665l0.6841,1.84042l0.72906,1.82307l0.77358,1.80463l0.81764,1.7851l0.8612,1.7645l0.90424,1.74283l0.94674,1.72012l0.98867,1.69636l1.03,1.67159l1.07072,1.64581l1.11078,1.61904l1.15018,1.59129l1.18889,1.56258l1.22688,1.53294l1.26413,1.50236l1.30062,1.47089l1.33632,1.43853l1.37122,1.4053l1.4053,1.37122l1.43853,1.33632l1.47089,1.30062l1.50236,1.26413l1.53294,1.22688l1.56258,1.18889l1.59129,1.15018l1.61904,1.11078l1.64581,1.07072l1.67159,1.03l1.69637,0.98867l1.72012,0.94674l1.74283,0.90424l1.7645,0.8612l1.7851,0.81764l1.80463,0.77358l1.82307,0.72906l1.84042,0.6841l1.85665,0.63873l1.87177,0.59297l1.88575,0.54686l1.89861,0.50042l1.91031,0.45367l1.92087,0.40665l1.93027,0.35939l1.93851,0.31191l1.94558,0.26424l1.95148,0.21642l1.95621,0.16846l1.95975,0.1204l1.96212,0.07227l1.9633,0.02409l-1.9633,0.02409l-1.96212,0.07227l-1.95975,0.1204l-1.95621,0.16846l-1.95148,0.21642l-1.94558,0.26424l-1.93851,0.31191l-1.93027,0.35939l-1.92087,0.40665l-1.91031,0.45367l-1.89861,0.50042l-1.88575,0.54686l-1.87177,0.59297l-1.85665,0.63873l-1.84042,0.6841l-1.82307,0.72906l-1.80463,0.77358l-1.7851,0.81764l-1.7645,0.8612l-1.74283,0.90424l-1.72012,0.94674l-1.69637,0.98867l-1.67159,1.03l-1.64581,1.07072l-1.61904,1.11078l-1.59129,1.15018l-1.56258,1.18889l-1.53294,1.22688l-1.50236,1.26413l-1.47089,1.30062l-1.43853,1.33632l-1.4053,1.37123l-1.37122,1.4053l-1.33632,1.43853l-1.30062,1.47089l-1.26413,1.50236l-1.22688,1.53294l-1.18889,1.56258l-1.15018,1.59129l-1.11078,1.61904l-1.07072,1.64581l-1.03,1.67159l-0.98867,1.69637l-0.94674,1.72012l-0.90424,1.74283l-0.8612,1.7645l-0.81764,1.7851l-0.77358,1.80463l-0.72906,1.82307l-0.6841,1.84042l-0.63873,1.85665l-0.59297,1.87176l-0.54686,1.88575l-0.50041,1.89861l-0.45367,1.91032l-0.40665,1.92087l-0.35939,1.93028l-0.31191,1.93851l-0.26424,1.94558l-0.21641,1.95148l-0.16846,1.95621l-0.1204,1.95975l-0.07227,1.96212l-0.02409,1.9633h80c24.211,2.011 47.429,16.736 57.19,44.182c13.271,37.302 55.884,54.955 91.643,37.956c56.78,-26.997 116.02,32.242 89.029,89.029c-16.999,35.766 0.654,78.378 37.956,91.643c27.446,9.761 42.164,32.979 44.182,57.19z" fill="#121212"/><path d="M1600,800v-160c2.01,-24.211 16.74,-47.429 44.18,-57.19c37.3,-13.271 54.96,-55.884 37.96,-91.643c-27,-56.78 32.24,-116.02 89.03,-89.029c35.76,16.999 78.38,-0.654 91.64,-37.956c9.76,-27.446 32.98,-42.164 57.19,-44.182v320zM320,640l-320,159.99999l0,-479.74999c24.19202,2.01601 47.392,16.72301 57.1456,44.147c13.2544,37.273 55.8334,54.912 91.5714,37.926c56.742,-26.969 115.936,32.224 88.96,88.96c-16.986,35.731 0.653,78.311 37.926,91.571c27.424,9.754 42.138,32.954 44.147,57.146zM1280,0c-2.01,24.2109 -16.74,47.429 -44.18,57.1902c-37.3,13.2712 -54.96,55.8838 -37.96,91.6428c27,56.78 -32.24,116.02 -89.03,89.029c-35.76,-16.999 -78.38,0.654 -91.64,37.956c-9.76,27.446 -32.979,42.164 -57.19,44.182c-24.211,-2.011 -47.429,-16.736 -57.19,-44.182c-13.271,-37.302 -55.884,-54.955 -91.643,-37.956c-56.78,26.997 -116.02,-32.242 -89.029,-89.029c16.999,-35.766 -0.654,-78.378 -37.956,-91.6428c-27.446,-9.7612 -42.164,-32.9793 -44.182,-57.1902l320,-0.00001v0.00002z" fill="#ffa300"/><path d="M1280,640h0.25c2.02,-24.192 16.72,-47.392 44.15,-57.146c37.27,-13.254 54.91,-55.833 37.92,-91.571c-26.97,-56.742 32.23,-115.936 88.96,-88.96c35.73,16.986 78.31,-0.653 91.57,-37.926c9.76,-27.424 32.96,-42.138 57.15,-44.147v-0.25h320c-24.21,2.018 -47.43,16.736 -57.19,44.182c-13.26,37.302 -55.88,54.955 -91.64,37.956c-56.79,-26.991 -116.03,32.249 -89.03,89.029c17,35.759 -0.66,78.372 -37.96,91.643c-27.44,9.761 -42.17,32.979 -44.18,57.19v80l-320,80zM640,640v80l-320,80v-160h-0.25c-2.009,-24.192 -16.723,-47.392 -44.147,-57.146c-37.273,-13.26 -54.912,-55.84 -37.926,-91.571c26.976,-56.736 -32.218,-115.929 -88.96,-88.96c-35.738,16.986 -78.317,-0.653 -91.5714,-37.926c-9.7536,-27.424 -32.9536,-42.131 -57.14563,-44.147l0,-0.25h0.00003l0,-319.99983c2.01763,24.21084 16.73626,47.42885 44.1817,57.19003c37.3026,13.2648 54.9548,55.8768 37.956,91.6428c-26.9907,56.787 32.2493,116.026 89.0293,89.029c35.759,-16.999 78.372,0.654 91.643,37.956c9.761,27.446 32.979,42.171 57.19,44.182v0.25c24.192,2.016 47.392,16.723 57.146,44.147c13.254,37.273 55.833,54.912 91.571,37.926c56.742,-26.969 115.936,32.224 88.96,88.96c-16.986,35.731 0.653,78.311 37.926,91.571c27.424,9.754 42.138,32.954 44.147,57.146z" fill="#f3f3f3"/><path d="M1280,640v320h-640v-160l320,-160v160z" fill="#d9d9d6"/><path d="M1222.81,364.182c-13.26,37.302 -55.88,54.955 -91.64,37.956c-56.79,-26.991 -116.03,32.249 -89.03,89.029c17,35.759 -0.66,78.372 -37.96,91.643c-27.444,9.761 -42.169,32.979 -44.18,57.19c-2.018,-24.211 -16.736,-47.429 -44.182,-57.19c-37.302,-13.265 -54.955,-55.877 -37.956,-91.643c26.991,-56.787 -32.249,-116.026 -89.029,-89.029c-35.759,16.999 -78.372,-0.654 -91.643,-37.956c-9.761,-27.446 -32.979,-42.171 -57.19,-44.182h-80l0.02409,-1.9633l0.07227,-1.96212l0.1204,-1.95975l0.16846,-1.95621l0.21641,-1.95148l0.26424,-1.94558l0.31191,-1.93851l0.35939,-1.93028l0.40665,-1.92087l0.45367,-1.91032l0.50041,-1.89861l0.54686,-1.88575l0.59297,-1.87176l0.63873,-1.85665l0.6841,-1.84042l0.72906,-1.82307l0.77358,-1.80463l0.81764,-1.7851l0.8612,-1.7645l0.90424,-1.74283l0.94674,-1.72012l0.98867,-1.69637l1.03,-1.67159l1.07072,-1.64581l1.11078,-1.61904l1.15018,-1.59129l1.18889,-1.56258l1.22688,-1.53294l1.26413,-1.50236l1.30062,-1.47089l1.33632,-1.43853l1.37122,-1.4053l1.4053,-1.37123l1.43853,-1.33632l1.47089,-1.30062l1.50236,-1.26413l1.53294,-1.22688l1.56258,-1.18889l1.59129,-1.15018l1.61904,-1.11078l1.64581,-1.07072l1.67159,-1.03l1.69637,-0.98867l1.72012,-0.94674l1.74283,-0.90424l1.7645,-0.8612l1.7851,-0.81764l1.80463,-0.77358l1.82307,-0.72906l1.84042,-0.6841l1.85665,-0.63873l1.87177,-0.59297l1.88575,-0.54686l1.89861,-0.50042l1.91031,-0.45367l1.92087,-0.40665l1.93027,-0.35939l1.93851,-0.31191l1.94558,-0.26424l1.95148,-0.21642l1.95621,-0.16846l1.95975,-0.1204l1.96212,-0.07227l1.9633,-0.02409l-1.9633,-0.02409l-1.96212,-0.07227l-1.95975,-0.1204l-1.95621,-0.16846l-1.95148,-0.21642l-1.94558,-0.26424l-1.93851,-0.31191l-1.93027,-0.35939l-1.92087,-0.40665l-1.91031,-0.45367l-1.89861,-0.50042l-1.88575,-0.54686l-1.87177,-0.59297l-1.85665,-0.63873l-1.84042,-0.6841l-1.82307,-0.72906l-1.80463,-0.77358l-1.7851,-0.81764l-1.7645,-0.8612l-1.74283,-0.90424l-1.72012,-0.94674l-1.69637,-0.98867l-1.67159,-1.03l-1.64581,-1.07072l-1.61904,-1.11078l-1.59129,-1.15018l-1.56258,-1.18889l-1.53294,-1.22688l-1.50236,-1.26413l-1.47089,-1.30062l-1.43853,-1.33632l-1.4053,-1.37122l-1.37122,-1.4053l-1.33632,-1.43853l-1.30062,-1.47089l-1.26413,-1.50236l-1.22688,-1.53294l-1.18889,-1.56258l-1.15018,-1.59129l-1.11078,-1.61904l-1.07072,-1.64581l-1.03,-1.67159l-0.98867,-1.69636l-0.94674,-1.72012l-0.90424,-1.74283l-0.8612,-1.7645l-0.81764,-1.7851l-0.77358,-1.80463l-0.72906,-1.82307l-0.6841,-1.84042l-0.63873,-1.85665l-0.59297,-1.87177l-0.54686,-1.88575l-0.50041,-1.89861l-0.45367,-1.91031l-0.40665,-1.92087l-0.35939,-1.93027l-0.31191,-1.93851l-0.26424,-1.94558l-0.21641,-1.95148l-0.16846,-1.95621l-0.1204,-1.95975l-0.07227,-1.96212l-0.02409,-1.9633l0.02409,-1.9633l0.07227,-1.96212l0.1204,-1.95975l0.16846,-1.95621l0.21641,-1.95148l0.26424,-1.94558l0.31191,-1.93851l0.35939,-1.93027l0.40665,-1.92087l0.45367,-1.91031l0.50041,-1.89861l0.54686,-1.88575l0.59297,-1.87177l0.63873,-1.85665l0.6841,-1.84042l0.72906,-1.82307l0.77358,-1.80463l0.81764,-1.7851l0.8612,-1.7645l0.90424,-1.74283l0.94674,-1.72012l0.98867,-1.69636l1.03,-1.67159l1.07072,-1.64581l1.11078,-1.61904l1.15018,-1.59129l1.18889,-1.56258l1.22688,-1.53294l1.26413,-1.50236l1.30062,-1.47089l1.33632,-1.43853l1.37122,-1.4053l1.4053,-1.37123l1.43853,-1.33632l1.47089,-1.30062l1.50236,-1.26413l1.53294,-1.22688l1.56258,-1.18889l1.59129,-1.15018l1.61904,-1.11078l1.64581,-1.07072l1.67159,-1.03l1.69637,-0.98867l1.72012,-0.94674l1.74283,-0.90424l1.7645,-0.8612l1.7851,-0.81764l1.80463,-0.77358l1.82307,-0.72906l1.84042,-0.6841l1.85665,-0.63873l1.87177,-0.59297l1.88575,-0.54686l1.89861,-0.50042l1.91031,-0.45367l1.92087,-0.40665l1.93027,-0.35939l1.93851,-0.31191l1.94558,-0.26424l1.95148,-0.21641l1.95621,-0.16846l1.95975,-0.1204l1.96212,-0.07227l1.9633,-0.0241l-1.9633,-0.0241l-1.96212,-0.07227l-1.95975,-0.1204l-1.95621,-0.16846l-1.95148,-0.21641l-1.94558,-0.26424l-1.93851,-0.31191l-1.93027,-0.35939l-1.92087,-0.40665l-1.91031,-0.45367l-1.89861,-0.50042l-1.88575,-0.54686l-1.87177,-0.59297l-1.85665,-0.63873l-1.84042,-0.6841l-1.82307,-0.72906l-1.80463,-0.77358l-1.7851,-0.81764l-1.7645,-0.8612l-1.74283,-0.90424l-1.72012,-0.94674l-1.69637,-0.98867l-1.67159,-1.03l-1.64581,-1.07072l-1.61904,-1.11078l-1.59129,-1.15018l-1.56258,-1.18889l-1.53294,-1.22688l-1.50236,-1.26413l-1.47089,-1.30062l-1.43853,-1.33632l-1.4053,-1.37123l-1.37122,-1.4053l-1.33632,-1.43853l-1.30062,-1.47089l-1.26413,-1.50236l-1.22688,-1.53294l-1.18889,-1.56258l-1.15018,-1.59129l-1.11078,-1.61904l-1.07072,-1.64581l-1.03,-1.67159l-0.98867,-1.69636l-0.94674,-1.72012l-0.90424,-1.74283l-0.8612,-1.7645l-0.81764,-1.7851l-0.77358,-1.80463l-0.72906,-1.82307l-0.6841,-1.84041l-0.63873,-1.85665l-0.59297,-1.87176l-0.54686,-1.88575l-0.50041,-1.89861l-0.45367,-1.91032l-0.40665,-1.92087l-0.35939,-1.93027l-0.31191,-1.93851l-0.26424,-1.94558l-0.21641,-1.95148l-0.16846,-1.95621l-0.1204,-1.95975l-0.07227,-1.96212l-0.02409,-1.9633h80c2.018,24.2109 16.736,47.429 44.182,57.1902c37.302,13.2648 54.955,55.8768 37.956,91.6428c-26.991,56.787 32.249,116.026 89.029,89.029c35.759,-16.999 78.372,0.654 91.643,37.956c9.761,27.446 32.979,42.171 57.19,44.182c24.211,-2.018 47.43,-16.736 57.19,-44.182c13.26,-37.302 55.88,-54.955 91.64,-37.956c56.79,26.991 116.03,-32.249 89.03,-89.029c-17,-35.759 0.66,-78.3716 37.96,-91.6428c27.44,-9.7612 42.17,-32.9793 44.18,-57.1902l-320,0.00001v-0.00001h400l-0.02409,1.9633l-0.07227,1.96211l-0.1204,1.95975l-0.16846,1.95621l-0.21641,1.95148l-0.26424,1.94558l-0.31191,1.93851l-0.35939,1.93027l-0.40665,1.92087l-0.45367,1.91032l-0.50041,1.89861l-0.54686,1.88575l-0.59297,1.87177l-0.63873,1.85665l-0.6841,1.84041l-0.72906,1.82307l-0.77358,1.80463l-0.81764,1.7851l-0.8612,1.7645l-0.90424,1.74283l-0.94674,1.72012l-0.98867,1.69636l-1.03,1.67159l-1.07072,1.64581l-1.11078,1.61904l-1.15018,1.59129l-1.18889,1.56258l-1.22688,1.53294l-1.26413,1.50236l-1.30062,1.47089l-1.33632,1.43853l-1.37123,1.4053l-1.4053,1.37122l-1.43853,1.33632l-1.47089,1.30062l-1.50236,1.26413l-1.53294,1.22688l-1.56258,1.18889l-1.59129,1.15018l-1.61904,1.11078l-1.64581,1.07072l-1.67159,1.03l-1.69637,0.98867l-1.72012,0.94674l-1.74283,0.90424l-1.7645,0.8612l-1.7851,0.81764l-1.80463,0.77358l-1.82307,0.72906l-1.84041,0.6841l-1.85665,0.63873l-1.87176,0.59297l-1.88575,0.54686l-1.89861,0.50042l-1.91031,0.45367l-1.92087,0.40665l-1.93028,0.35939l-1.93851,0.31191l-1.94558,0.26424l-1.95148,0.21642l-1.95621,0.16846l-1.95975,0.1204l-1.96212,0.07227l-1.9633,0.02409l1.9633,0.0241l1.96212,0.07227l1.95975,0.1204l1.95621,0.16846l1.95148,0.21641l1.94558,0.26424l1.93851,0.31191l1.93028,0.35939l1.92087,0.40665l1.91031,0.45367l1.89861,0.50042l1.88575,0.54686l1.87176,0.59297l1.85665,0.63873l1.84041,0.6841l1.82307,0.72906l1.80463,0.77358l1.7851,0.81764l1.7645,0.8612l1.74283,0.90424l1.72012,0.94674l1.69637,0.98867l1.67159,1.03l1.64581,1.07072l1.61904,1.11078l1.59129,1.15018l1.56258,1.18889l1.53294,1.22688l1.50236,1.26413l1.47089,1.30062l1.43853,1.33632l1.4053,1.37123l1.37123,1.4053l1.33632,1.43853l1.30062,1.47089l1.26413,1.50236l1.22688,1.53294l1.18889,1.56258l1.15018,1.59129l1.11078,1.61904l1.07072,1.64581l1.03,1.67159l0.98867,1.69637l0.94674,1.72012l0.90424,1.74283l0.8612,1.7645l0.81764,1.7851l0.77358,1.80463l0.72906,1.82307l0.6841,1.84042l0.63873,1.85665l0.59297,1.87177l0.54686,1.88575l0.50041,1.89861l0.45367,1.91031l0.40665,1.92087l0.35939,1.93027l0.31191,1.93851l0.26424,1.94558l0.21641,1.95148l0.16846,1.95621l0.1204,1.95975l0.07227,1.96212l0.02409,1.9633l-0.02409,1.9633l-0.07227,1.96212l-0.1204,1.95975l-0.16846,1.95621l-0.21641,1.95148l-0.26424,1.94558l-0.31191,1.93851l-0.35939,1.93027l-0.40665,1.92087l-0.45367,1.91031l-0.50041,1.89861l-0.54686,1.88575l-0.59297,1.87177l-0.63873,1.85665l-0.6841,1.84042l-0.72906,1.82307l-0.77358,1.80463l-0.81764,1.7851l-0.8612,1.7645l-0.90424,1.74283l-0.94674,1.72012l-0.98867,1.69636l-1.03,1.67159l-1.07072,1.64581l-1.11078,1.61904l-1.15018,1.59129l-1.18889,1.56258l-1.22688,1.53294l-1.26413,1.50236l-1.30062,1.47089l-1.33632,1.43853l-1.37123,1.4053l-1.4053,1.37122l-1.43853,1.33632l-1.47089,1.30062l-1.50236,1.26413l-1.53294,1.22688l-1.56258,1.18889l-1.59129,1.15018l-1.61904,1.11078l-1.64581,1.07072l-1.67159,1.03l-1.69637,0.98867l-1.72012,0.94674l-1.74283,0.90424l-1.7645,0.8612l-1.7851,0.81764l-1.80463,0.77358l-1.82307,0.72906l-1.84041,0.6841l-1.85665,0.63873l-1.87176,0.59297l-1.88575,0.54686l-1.89861,0.50042l-1.91031,0.45367l-1.92087,0.40665l-1.93028,0.35939l-1.93851,0.31191l-1.94558,0.26424l-1.95148,0.21642l-1.95621,0.16846l-1.95975,0.1204l-1.96212,0.07227l-1.9633,0.02409l1.9633,0.02409l1.96212,0.07227l1.95975,0.1204l1.95621,0.16846l1.95148,0.21642l1.94558,0.26424l1.93851,0.31191l1.93028,0.35939l1.92087,0.40665l1.91031,0.45367l1.89861,0.50042l1.88575,0.54686l1.87176,0.59297l1.85665,0.63873l1.84041,0.6841l1.82307,0.72906l1.80463,0.77358l1.7851,0.81764l1.7645,0.8612l1.74283,0.90424l1.72012,0.94674l1.69637,0.98867l1.67159,1.03l1.64581,1.07072l1.61904,1.11078l1.59129,1.15018l1.56258,1.18889l1.53294,1.22688l1.50236,1.26413l1.47089,1.30062l1.43853,1.33632l1.4053,1.37123l1.37123,1.4053l1.33632,1.43853l1.30062,1.47089l1.26413,1.50236l1.22688,1.53294l1.18889,1.56258l1.15018,1.59129l1.11078,1.61904l1.07072,1.64581l1.03,1.67159l0.98867,1.69637l0.94674,1.72012l0.90424,1.74283l0.8612,1.7645l0.81764,1.7851l0.77358,1.80463l0.72906,1.82307l0.6841,1.84042l0.63873,1.85665l0.59297,1.87176l0.54686,1.88575l0.50041,1.89861l0.45367,1.91032l0.40665,1.92087l0.35939,1.93028l0.31191,1.93851l0.26424,1.94558l0.21641,1.95148l0.16846,1.95621l0.1204,1.95975l0.07227,1.96212l0.02409,1.9633h-80c-24.21,2.018 -47.43,16.736 -57.19,44.182z" fill="#ff4f00"/></g></svg>