<svg xmlns="http://www.w3.org/2000/svg" width="1920" height="960" viewBox="0 0 1920 960"><g xmlns="http://www.w3.org/2000/svg" fill="none" fill-rule="nonzero" stroke="none" stroke-width="1" stroke-linecap="butt" stroke-linejoin="miter" stroke-miterlimit="10" stroke-dasharray="" stroke-dashoffset="0" font-family="none" font-weight="none" font-size="none" text-anchor="none" style="mix-blend-mode: normal"><path d="M1920,321.31079v318.68921h-159l0.26,-0.87058l0.26,-0.87058l0.52,-1.74117l0.26,-0.87058l0.52,-1.74117l0.26,-0.87058l0.52,-1.74117l0.26,-0.87058l0.52,-1.74117l0.26,-0.87058l0.52,-1.74117l0.26,-0.87058l0.52,-1.74117l0.26,-0.87058l0.52,-1.74117l0.26,-0.87058l0.26,-0.87058l4.14778,-13.50544l4.35257,-13.43108l4.55623,-13.35449l4.75874,-13.27569l4.96011,-13.19466l5.16034,-13.1114l5.35943,-13.02592l5.55738,-12.93822l5.75418,-12.84829l5.94985,-12.75614l6.14437,-12.66176l6.33775,-12.56517l6.52999,-12.46634l6.72109,-12.3653l6.91105,-12.26202l7.09986,-12.15653l7.28753,-12.04881l7.47407,-11.93887l7.65946,-11.8267l7.84371,-11.71231l8.02681,-11.5957l8.20878,-11.47686l8.38961,-11.3558zM1760,662l80,0.075v-22l80,-0.075v320h-80c-0.04,-147.275 0,-218 -80,-298zM1296,320h-32c0,-171.259 -48.67,-216.667 -144,-216.667v-21.9997h144.07l-0.07,-81.25866l16,-0.07464l16,0.07465l-0.07,81.25865h144.07v21.9997c-95.33,0 -144,45.408 -144,216.667zM1434.76,619.106l6.24,20.894h-320l6.24,-20.894c32.36,-108.335 84.49,-209.745 153.76,-299.106c69.27,89.361 121.4,190.771 153.76,299.106zM1360,960h-160c-0.04,-147.275 0,-218 -80,-298l80,0.075v-22l80,-0.075l80,0.075v22l80,-0.075c-80,80 -79.96,150.725 -80,298zM481,640l6.241,-20.894c32.36,-108.335 84.491,-209.745 153.759,-299.106c69.268,89.361 121.399,190.771 153.759,299.106l6.241,20.894zM480,662l80,0.075v-22l80,-0.075l80,0.075v22l80,-0.075c-80,80 -79.957,150.725 -80,298h-160c-0.043,-147.275 0,-218 -80,-298zM16,320h-15.99999l0.00004,-320l15.99994,0.07465l-0.0746,81.25865h144.0746v21.9997c-95.3333,0 -144,45.408 -144,216.667zM720,240c0,44.181 -35.81,80 -80,80c-44.191,0 -80,-35.819 -80,-80c0,-44.181 35.81,-80 80,-80c44.19,0 80,35.819 80,80zM640,-0.00012l160,0.00003c-88.365,-0.00002 -160,71.63519 -160,160.00009c0,-88.3647 -71.635,-159.9999 -160,-159.99993l160,0.00005zM1.00008,320c69.26822,89.361 121.39892,190.771 153.75892,299.106l6.241,20.894h-160zM80,960h-80l0.00004,-320l79.99996,0.075v22l80,-0.075c-80,80 -79.9573,150.725 -80,298zM1840,240c0,-44.181 35.81,-80 80,-80c0,0 0,35.819 0,80c0,22.096 0,80 0,80c-44.19,0 -80,-35.819 -80,-80zM1920,0.00024v159.99976c0,-88.3646 -71.64,-159.99978 -160,-159.9998z" fill="#121212"/><path d="M1920,320v1.31079l-7.56929,9.92172l-8.38961,11.3558l-8.20878,11.47686l-8.02681,11.5957l-7.84371,11.71231l-7.65946,11.8267l-7.47407,11.93887l-7.28753,12.04881l-7.09986,12.15653l-6.91105,12.26202l-6.72109,12.3653l-6.52999,12.46634l-6.33775,12.56517l-6.14437,12.66176l-5.94985,12.75614l-5.75418,12.84829l-5.55738,12.93822l-5.35943,13.02592l-5.16034,13.1114l-4.96011,13.19466l-4.75874,13.27569l-4.55623,13.35449l-4.35257,13.43108l-4.14778,13.50544l-0.26,0.87058l-0.26,0.87058l-0.52,1.74117l-0.26,0.87058l-0.52,1.74117l-0.26,0.87058l-0.52,1.74117l-0.26,0.87058l-0.52,1.74117l-0.26,0.87058l-0.52,1.74117l-0.26,0.87058l-0.52,1.74117l-0.26,0.87058l-0.52,1.74117l-0.26,0.87058l-0.26,0.87058h-160v-320zM1600,0v320h-304c0,-171.259 48.67,-216.667 144,-216.667v-21.9997h-144.07l0.07,-81.25865l-16,-0.07465zM1440,662l-80,0.075v-22l-80,-0.075h320v320h-240c0.04,-147.275 0,-218 80,-298zM321,640v-320h320c-69.268,89.361 -121.399,190.771 -153.759,299.106l-6.241,20.894zM961,640v-320h320c-69.27,89.361 -121.4,190.771 -153.76,299.106l-6.24,20.894zM0,320v-320h320v320h-304c0,-171.259 48.6667,-216.667 144,-216.667v-21.9997h-144.0746l0.0746,-81.25865l-15.99994,-0.07465l-0.00004,320zM0,640h320l0,320h-240c0.0427,-147.275 0,-218 80,-298l-80,0.075v-22l-79.99996,-0.075l-0.00004,320zM800,662l-80,0.075v-22l-80,-0.075h320v320h-240c0.043,-147.275 0,-218 80,-298z" fill="#d9d9d6"/><path d="M1434.76,619.106c-32.36,-108.335 -84.49,-209.745 -153.76,-299.106h319l0,-320h320v0.00024l-160,-0.00005c88.36,0.00003 160,71.63521 160,159.9998c-44.19,0 -80,35.819 -80,80c0,44.181 35.81,80 80,80h-319v320h-160zM960,960v-320h-159l-6.241,-20.894c-32.36,-108.335 -84.491,-209.745 -153.759,-299.106h319l0,-320h320l-16,0.07464l0.07,81.25866h-144.07v21.9997c95.33,0 144,45.408 144,216.667h-303l0,320h319l-80,0.075v22l-80,-0.075c80,80 79.96,150.725 80,298zM154.759,619.106c-32.36,-108.335 -84.4907,-209.745 -153.75892,-299.106l-0.00008,320l-1,0v-320h320l0,-320l320,0v0.00012l-160,-0.00005c88.365,0.00003 160,71.63523 160,159.99993c-44.19,0 -80,35.819 -80,80c0,44.181 35.809,80 80,80h-319v320h-160z" fill="#f3f3f3"/></g></svg>