<svg xmlns="http://www.w3.org/2000/svg" width="1920" height="960" viewBox="0 0 1920 960"><g xmlns="http://www.w3.org/2000/svg" fill="none" fill-rule="nonzero" stroke="none" stroke-width="1" stroke-linecap="butt" stroke-linejoin="miter" stroke-miterlimit="10" stroke-dasharray="" stroke-dashoffset="0" font-family="none" font-weight="none" font-size="none" text-anchor="none" style="mix-blend-mode: normal"><path d="M1920,320v640h-640c0,-0.00001 0,-0.00002 0,-0.00003c0,0 0,0 0,0c0,0 0,0 0,0c0.05,-176.66711 143.21809,-319.94899 319.81145,-319.99997c-176.59336,0.05098 -319.76145,143.33285 -319.81145,319.99997c0.00002,-0.06161 0.00002,-0.12322 0,-0.18482c-0.04998,-176.59507 -143.33164,-319.76416 -320,-319.81515v-320c0.05098,176.66713 143.21808,319.94902 319.81145,320c0.06285,0.00002 0.1257,0.00002 0.18855,0v-320h-319.81145c176.59336,-0.05098 319.76146,-143.33286 319.81145,-320l640,0l0,319.88903c-0.02998,-88.28901 -71.627,-159.86304 -159.96,-159.88903l-0.04,159.955l159.99516,0.045c0.00161,0 0.00323,0 0.00484,0zM1280,400l0.07,240h239.93c-0.04,-132.547 -107.49,-240.038 -240,-240zM1440.00006,0.00003c-88.36556,-0.00002 -160.00001,71.63441 -160.00003,159.99997c-0.00002,88.33369 71.58274,159.94833 159.90436,160c0.03187,0.00002 0.06374,0.00003 0.09562,0.00003c0.03189,0 0.06378,-0.00001 0.09567,-0.00003c88.28972,-0.05165 159.85268,-71.6146 159.90433,-159.90433c0.00002,-0.03187 0.00003,-0.06374 0.00003,-0.09562c0,-0.03189 -0.00001,-0.06378 -0.00003,-0.09567c-0.05167,-88.32159 -71.66628,-159.90434 -159.99994,-159.90435zM640,640v-320h-0.067l0.067,-240c-132.51,-0.0384 -239.962,107.453 -240,240h-80c-0.05098,-176.66687 -143.21767,-319.94881 -319.81068,-320l959.81068,0v320c-0.06285,-0.00002 -0.1257,-0.00002 -0.18855,0c-176.59337,0.05098 -319.76047,143.33287 -319.81145,320zM640,640l-320.18855,0c-176.59337,0.05098 -319.76028,143.33287 -319.81145,320l0,-559.96253l-0.00001,-0.03747c0,0 0.00001,0 0.00001,0v-80h320c-0.00002,0.06285 -0.00002,0.1257 0,0.18855c0.05098,176.59337 143.33287,319.76047 320,319.81145zM640,960v-320h320v320h-80c-0.038,-132.547 -107.49,-240.038 -240,-240l0.067,240zM1920,880l-0.07,-240h-239.93c0.04,132.547 107.49,240.038 240,240zM320,640.09618c-0.00001,-0.03206 -0.00001,-0.06412 0,-0.09618l160,0.045l-0.045,159.955c-88.33293,-0.02599 -159.92901,-71.60801 -159.955,-159.90382z" fill="#f3f3f3"/><path d="M960,320v-320.00003l320,0.00001c-0.05,176.73001 -143.32,320.05101 -320,320.00001zM960,320v320h-320c0.051,-176.73 143.32,-320.051 320,-320zM640,80l-0.067,240h0.067v320c-176.73,-0.051 -320.051,-143.32 -320,-320h80c0.038,-132.547 107.49,-240.0384 240,-240zM880,960h-239.933l-0.067,-240c132.51,-0.038 239.962,107.453 240,240zM1520,640h-239.93l-0.07,-240c132.51,-0.038 239.96,107.453 240,240zM1280,960h-320v-320c176.73,0.051 320.05,143.32 320,320zM320,640v320h-320c0.05119,-176.73 143.32,-320.051 320,-320z" fill="#d9d9d6"/><path d="M1920,880c-132.51,0.038 -239.96,-107.453 -240,-240h239.93zM1440.00006,0.00003c88.36556,0.00002 159.99999,71.63447 159.99997,160.00003c-0.00002,88.36556 -71.63447,159.99999 -160.00003,159.99997c-88.36556,-0.00002 -159.99999,-71.63447 -159.99997,-160.00003c0.00002,-88.36556 71.63447,-159.99999 160.00003,-159.99997zM1920,320l-160,-0.045l0.04,-159.955c88.37,0.026 159.99,71.66 159.96,160zM960,320c0.06285,0.00002 0.1257,0.00002 0.18855,0h319.81145v320c-176.68,0.051 -319.949,-143.27 -320,-320zM-0.00003,320l0.00003,-320c176.68,-0.05121 319.949,143.27 320,320zM320,640l160,0.045l-0.045,159.955c-88.365,-0.026 -159.981,-71.66 -159.955,-160z" fill="#121212"/></g></svg>