<?xml version="1.0" encoding="UTF-8"?>
<svg xmlns="http://www.w3.org/2000/svg" width="200" height="200" viewBox="0 0 200 200">
  <path d="M60.833333,200 L61.666667,200 L62.5,200 L63.333333,200 L64.166667,200 L65,200 L65.833333,200 L66.666667,200 L67.5,200 L68.333333,200 L69.166667,200 L70,200 L70.833333,200 L71.666667,200 L72.5,200 L73.333333,200 L74.166667,200 L75,200 L75.833333,200 L76.666667,200 L77.5,200 L78.333333,200 L79.166667,200 L80,200 L80,191.666667 L80,183.333333 L80,175 L80,166.666667 L80,158.333333 L80,150 L80,141.666667 L80,133.333333 L80,125 L80,116.666667 L80,108.333333 L80,100 L80,91.666667 L80,83.333333 L80,75 L80,66.666667 L80,58.333333 L80,50 L80,41.666667 L80,33.333333 L80,25 L80,16.666667 L80,8.333333 L80,0 L79.166667,0 L78.333333,0 L77.5,0 L76.666667,0 L75.833333,0 L75,0 L74.166667,0 L73.333333,0 L72.5,0 L71.666667,0 L70.833333,0 L70,0 L69.166667,0 L68.333333,0 L67.5,0 L66.666667,0 L65.833333,0 L65,0 L64.166667,0 L63.333333,0 L62.5,0 L61.666667,0 L60.833333,0 L60,0 L60,8.333333 L60,16.666667 L60,25 L60,33.333333 L60,41.666667 L60,50 L60,58.333333 L60,66.666667 L60,75 L60,83.333333 L60,91.666667 L60,100 L60,108.333333 L60,116.666667 L60,125 L60,133.333333 L60,141.666667 L60,150 L60,158.333333 L60,166.666667 L60,175 L60,183.333333 L60,191.666667 L60,200 Z M140.833333,200 L141.666667,200 L142.5,200 L143.333333,200 L144.166667,200 L145,200 L145.833333,200 L146.666667,200 L147.5,200 L148.333333,200 L149.166667,200 L150,200 L150.833333,200 L151.666667,200 L152.5,200 L153.333333,200 L154.166667,200 L155,200 L155.833333,200 L156.666667,200 L157.5,200 L158.333333,200 L159.166667,200 L160,200 L160,191.666667 L160,183.333333 L160,175 L160,166.666667 L160,158.333333 L160,150 L160,141.666667 L160,133.333333 L160,125 L160,116.666667 L160,108.333333 L160,100 L160,91.666667 L160,83.333333 L160,75 L160,66.666667 L160,58.333333 L160,50 L160,41.666667 L160,33.333333 L160,25 L160,16.666667 L160,8.333333 L160,0 L159.166667,0 L158.333333,0 L157.5,0 L156.666667,0 L155.833333,0 L155,0 L154.166667,0 L153.333333,0 L152.5,0 L151.666667,0 L150.833333,0 L150,0 L149.166667,0 L148.333333,0 L147.5,0 L146.666667,0 L145.833333,0 L145,0 L144.166667,0 L143.333333,0 L142.5,0 L141.666667,0 L140.833333,0 L140,0 L140,8.333333 L140,16.666667 L140,25 L140,33.333333 L140,41.666667 L140,50 L140,58.333333 L140,66.666667 L140,75 L140,83.333333 L140,91.666667 L140,100 L140,108.333333 L140,116.666667 L140,125 L140,133.333333 L140,141.666667 L140,150 L140,158.333333 L140,166.666667 L140,175 L140,183.333333 L140,191.666667 L140,200 Z M130.114,114.849 L130.491293,114.32491 L130.85526,113.790804 L131.205658,113.246926 L131.542245,112.693519 L131.864779,112.130827 L132.173016,111.559094 L132.466713,110.978564 L132.74563,110.389481 L133.009521,109.79209 L133.258146,109.186633 L133.491262,108.573355 L133.708625,107.9525 L133.909993,107.324311 L134.095124,106.689034 L134.263775,106.04691 L134.415704,105.398185 L134.550667,104.743103 L134.668422,104.081906 L134.768726,103.41484 L134.851338,102.742148 L134.916014,102.064074 L134.962511,101.380862 L134.990587,100.692756 L135,100 L135,100 L134.990587,99.307199 L134.962511,98.619058 L134.916014,97.935819 L134.851338,97.257727 L134.768726,96.585025 L134.668422,95.917955 L134.550667,95.25676 L134.415704,94.601685 L134.263775,93.952972 L134.095124,93.310864 L133.909993,92.675605 L133.708625,92.047438 L133.491262,91.426605 L133.258146,90.81335 L133.009521,90.207917 L132.74563,89.610548 L132.466713,89.021487 L132.173016,88.440977 L131.864779,87.86926 L131.542245,87.306581 L131.205658,86.753182 L130.85526,86.209307 L130.491293,85.675199 L130.114,85.1511 L130.114,85.1511 L129.52024,84.34986 L128.922209,83.543884 L128.322535,82.732867 L127.723843,81.9165 L127.128758,81.094476 L126.539906,80.266489 L125.959914,79.432232 L125.391407,78.591396 L124.837012,77.743676 L124.299353,76.888765 L123.781057,76.026354 L123.28475,75.156137 L122.813057,74.277808 L122.368605,73.391058 L121.95402,72.495581 L121.571926,71.59107 L121.22495,70.677218 L120.915719,69.753717 L120.646857,68.820261 L120.420991,67.876542 L120.240746,66.922254 L120.108749,65.957089 L120.027625,64.98074 L120,63.9929 L120,61.326529 L120,58.660158 L120,55.993787 L120,53.327417 L120,50.661046 L120,47.994675 L120,45.328304 L120,42.661933 L120,39.995562 L120,37.329192 L120,34.662821 L120,31.99645 L120,29.330079 L120,26.663708 L120,23.997338 L120,21.330967 L120,18.664596 L120,15.998225 L120,13.331854 L120,10.665483 L120,7.999112 L120,5.332742 L120,2.666371 L120,0 L119.166667,0 L118.333333,0 L117.5,0 L116.666667,0 L115.833333,0 L115,0 L114.166667,0 L113.333333,0 L112.5,0 L111.666667,0 L110.833333,0 L110,0 L109.166667,0 L108.333333,0 L107.5,0 L106.666667,0 L105.833333,0 L105,0 L104.166667,0 L103.333333,0 L102.5,0 L101.666667,0 L100.833333,0 L100,0 L100,2.666371 L100,5.332742 L100,7.999113 L100,10.665483 L100,13.331854 L100,15.998225 L100,18.664596 L100,21.330967 L100,23.997338 L100,26.663708 L100,29.330079 L100,31.99645 L100,34.662821 L100,37.329192 L100,39.995562 L100,42.661933 L100,45.328304 L100,47.994675 L100,50.661046 L100,53.327417 L100,55.993787 L100,58.660158 L100,61.326529 L100,63.9929 L100,63.9929 L99.972375,64.980751 L99.891251,65.95711 L99.759253,66.922282 L99.579007,67.876577 L99.353139,68.8203 L99.084273,69.753759 L98.775037,70.677262 L98.428056,71.591115 L98.045954,72.495625 L97.631359,73.391101 L97.186894,74.277848 L96.715187,75.156175 L96.218863,76.026388 L95.700548,76.888795 L95.162866,77.743703 L94.608444,78.591419 L94.039908,79.43225 L93.459883,80.266503 L92.870994,81.094486 L92.275868,81.916506 L91.67713,82.732871 L91.077405,83.543886 L90.47932,84.34986 L89.8855,85.1511 L89.8855,85.1511 L89.508301,85.675199 L89.144418,86.209307 L88.794093,86.753182 L88.457569,87.306581 L88.135091,87.86926 L87.8269,88.440977 L87.533241,89.021487 L87.254356,89.610548 L86.990488,90.207917 L86.741882,90.81335 L86.50878,91.426605 L86.291425,92.047437 L86.090061,92.675605 L85.904931,93.310864 L85.736277,93.952972 L85.584344,94.601685 L85.449375,95.25676 L85.331612,95.917955 L85.2313,96.585025 L85.148681,97.257727 L85.083998,97.935819 L85.037494,98.619058 L85.009414,99.307199 L85,100 L85,100 L85.009414,100.692756 L85.037494,101.380862 L85.083998,102.064074 L85.148681,102.742148 L85.2313,103.41484 L85.331612,104.081906 L85.449375,104.743103 L85.584344,105.398185 L85.736277,106.04691 L85.904931,106.689034 L86.090061,107.324311 L86.291425,107.9525 L86.50878,108.573355 L86.741882,109.186633 L86.990488,109.79209 L87.254356,110.389481 L87.533241,110.978564 L87.8269,111.559094 L88.135091,112.130827 L88.457569,112.693519 L88.794093,113.246926 L89.144418,113.790804 L89.508301,114.32491 L89.8855,114.849 L89.8855,114.849 L90.47932,115.650265 L91.077405,116.456263 L91.67713,117.267303 L92.275868,118.08369 L92.870994,118.905731 L93.459883,119.733734 L94.039908,120.568006 L94.608444,121.408852 L95.162866,122.25658 L95.700548,123.111497 L96.218863,123.97391 L96.715187,124.844125 L97.186894,125.72245 L97.631359,126.60919 L98.045954,127.504654 L98.428056,128.409148 L98.775037,129.322979 L99.084273,130.246453 L99.353139,131.179878 L99.579007,132.12356 L99.759253,133.077807 L99.891251,134.042924 L99.972375,135.01922 L100,136.007 L100,138.673375 L100,141.33975 L100,144.006125 L100,146.6725 L100,149.338875 L100,152.00525 L100,154.671625 L100,157.338 L100,160.004375 L100,162.67075 L100,165.337125 L100,168.0035 L100,170.669875 L100,173.33625 L100,176.002625 L100,178.669 L100,181.335375 L100,184.00175 L100,186.668125 L100,189.3345 L100,192.000875 L100,194.66725 L100,197.333625 L100,200 L100.833333,200 L101.666667,200 L102.5,200 L103.333333,200 L104.166667,200 L105,200 L105.833333,200 L106.666667,200 L107.5,200 L108.333333,200 L109.166667,200 L110,200 L110.833333,200 L111.666667,200 L112.5,200 L113.333333,200 L114.166667,200 L115,200 L115.833333,200 L116.666667,200 L117.5,200 L118.333333,200 L119.166667,200 L120,200 L120,197.333625 L120,194.66725 L120,192.000875 L120,189.3345 L120,186.668125 L120,184.00175 L120,181.335375 L120,178.669 L120,176.002625 L120,173.33625 L120,170.669875 L120,168.0035 L120,165.337125 L120,162.67075 L120,160.004375 L120,157.338 L120,154.671625 L120,152.00525 L120,149.338875 L120,146.6725 L120,144.006125 L120,141.33975 L120,138.673375 L120,136.007 L120,136.007 L120.027625,135.01922 L120.108749,134.042924 L120.240746,133.077807 L120.420991,132.12356 L120.646857,131.179878 L120.915719,130.246453 L121.22495,129.322979 L121.571926,128.409148 L121.95402,127.504654 L122.368605,126.60919 L122.813057,125.72245 L123.28475,124.844125 L123.781057,123.97391 L124.299353,123.111497 L124.837012,122.25658 L125.391407,121.408852 L125.959914,120.568006 L126.539906,119.733734 L127.128758,118.905731 L127.723843,118.08369 L128.322535,117.267303 L128.922209,116.456263 L129.52024,115.650265 L130.114,114.849 Z M20,200 L20.833333,200 L21.666667,200 L22.5,200 L23.333333,200 L24.166667,200 L25,200 L25.833333,200 L26.666667,200 L27.5,200 L28.333333,200 L29.166667,200 L30,200 L30.833333,200 L31.666667,200 L32.5,200 L33.333333,200 L34.166667,200 L35,200 L35.833333,200 L36.666667,200 L37.5,200 L38.333333,200 L39.166667,200 L40,200 L40,200 L40,191.666667 L40,183.333333 L40,175 L40,166.666667 L40,158.333333 L40,150 L40,141.666667 L40,133.333333 L40,125 L40,116.666667 L40,108.333333 L40,100 L40,91.666667 L40,83.333333 L40,75 L40,66.666667 L40,58.333333 L40,50 L40,41.666667 L40,33.333333 L40,25 L40,16.666667 L40,8.333333 L40,0 L40,0 L39.166667,0 L38.333333,0 L37.5,0 L36.666667,0 L35.833333,0 L35,0 L34.166667,0 L33.333333,0 L32.5,0 L31.666667,0 L30.833333,0 L30,0 L29.166667,0 L28.333333,0 L27.5,0 L26.666667,0 L25.833333,0 L25,0 L24.166667,0 L23.333333,0 L22.5,0 L21.666667,0 L20.833333,0 L20,0 L20,0 L20,8.333333 L20,16.666667 L20,25 L20,33.333333 L20,41.666667 L20,50 L20,58.333333 L20,66.666667 L20,75 L20,83.333333 L20,91.666667 L20,100 L20,108.333333 L20,116.666667 L20,125 L20,133.333333 L20,141.666667 L20,150 L20,158.333333 L20,166.666667 L20,175 L20,183.333333 L20,191.666667 Z M180,200 L180.833333,200 L181.666667,200 L182.5,200 L183.333333,200 L184.166667,200 L185,200 L185.833333,200 L186.666667,200 L187.5,200 L188.333333,200 L189.166667,200 L190,200 L190.833333,200 L191.666667,200 L192.5,200 L193.333333,200 L194.166667,200 L195,200 L195.833333,200 L196.666667,200 L197.5,200 L198.333333,200 L199.166667,200 L200,200 L200,200 L200,191.666667 L200,183.333333 L200,175 L200,166.666667 L200,158.333333 L200,150 L200,141.666667 L200,133.333333 L200,125 L200,116.666667 L200,108.333333 L200,100 L200,91.666667 L200,83.333333 L200,75 L200,66.666667 L200,58.333333 L200,50 L200,41.666667 L200,33.333333 L200,25 L200,16.666667 L200,8.333333 L200,0 L200,0 L199.166667,0 L198.333333,0 L197.5,0 L196.666667,0 L195.833333,0 L195,0 L194.166667,0 L193.333333,0 L192.5,0 L191.666667,0 L190.833333,0 L190,0 L189.166667,0 L188.333333,0 L187.5,0 L186.666667,0 L185.833333,0 L185,0 L184.166667,0 L183.333333,0 L182.5,0 L181.666667,0 L180.833333,0 L180,0 L180,0 L180,8.333333 L180,16.666667 L180,25 L180,33.333333 L180,41.666667 L180,50 L180,58.333333 L180,66.666667 L180,75 L180,83.333333 L180,91.666667 L180,100 L180,108.333333 L180,116.666667 L180,125 L180,133.333333 L180,141.666667 L180,150 L180,158.333333 L180,166.666667 L180,175 L180,183.333333 L180,191.666667 Z" fill="#121212"/>
</svg>
