<?xml version="1.0" encoding="UTF-8"?>
<svg xmlns="http://www.w3.org/2000/svg" width="200" height="200" viewBox="0 0 200 200">
  <path d="M25,200 L25,191.666667 L25,183.333333 L25,175 L25,166.666667 L25,158.333333 L25,150 L25,141.666667 L25,133.333333 L25,125 L25,116.666667 L25,108.333334 L25,100 L25,91.666667 L25,83.333334 L25,75 L25,66.666667 L25,58.333334 L25,50 L25,41.666667 L25,33.333334 L25,25 L25,16.666667 L25,8.333334 L25,0 L25,0 L25.416667,0 L25.833333,0 L26.25,0 L26.666667,0 L27.083333,0 L27.5,0 L27.916667,0 L28.333333,0 L28.75,0 L29.166667,0 L29.583333,0 L30,0 L30.416667,0 L30.833333,0 L31.25,0 L31.666667,0 L32.083333,0 L32.5,0 L32.916667,0 L33.333333,0 L33.75,0 L34.166667,0 L34.583333,0 L35,0 L35,0 L35,8.333333 L35,16.666667 L35,25 L35,33.333333 L35,41.666667 L35,50 L35,58.333333 L35,66.666667 L35,75 L35,83.333333 L35,91.666667 L35,100 L35,108.333333 L35,116.666667 L35,125 L35,133.333333 L35,141.666667 L35,150 L35,158.333333 L35,166.666667 L35,175 L35,183.333333 L35,191.666667 L35,200 L35,200 L34.583333,200 L34.166667,200 L33.75,200 L33.333333,200 L32.916667,200 L32.5,200 L32.083333,200 L31.666667,200 L31.25,200 L30.833333,200 L30.416667,200 L30,200 L29.583333,200 L29.166667,200 L28.75,200 L28.333333,200 L27.916667,200 L27.5,200 L27.083333,200 L26.666667,200 L26.25,200 L25.833333,200 L25.416667,200 Z M65,200 L65,191.666667 L65,183.333333 L65,175 L65,166.666667 L65,158.333333 L65,150 L65,141.666667 L65,133.333333 L65,125 L65,116.666667 L65,108.333334 L65,100 L65,91.666667 L65,83.333334 L65,75 L65,66.666667 L65,58.333334 L65,50 L65,41.666667 L65,33.333334 L65,25 L65,16.666667 L65,8.333334 L65,0 L65,0 L65.416667,0 L65.833333,0 L66.25,0 L66.666667,0 L67.083333,0 L67.5,0 L67.916667,0 L68.333333,0 L68.75,0 L69.166667,0 L69.583333,0 L70,0 L70.416667,0 L70.833333,0 L71.25,0 L71.666667,0 L72.083333,0 L72.5,0 L72.916667,0 L73.333333,0 L73.75,0 L74.166667,0 L74.583333,0 L75,0 L75,0 L75,8.333333 L75,16.666667 L75,25 L75,33.333333 L75,41.666667 L75,50 L75,58.333333 L75,66.666667 L75,75 L75,83.333333 L75,91.666667 L75,100 L75,108.333333 L75,116.666667 L75,125 L75,133.333333 L75,141.666667 L75,150 L75,158.333333 L75,166.666667 L75,175 L75,183.333333 L75,191.666667 L75,200 L75,200 L74.583333,200 L74.166667,200 L73.75,200 L73.333333,200 L72.916667,200 L72.5,200 L72.083333,200 L71.666667,200 L71.25,200 L70.833333,200 L70.416667,200 L70,200 L69.583333,200 L69.166667,200 L68.75,200 L68.333333,200 L67.916667,200 L67.5,200 L67.083333,200 L66.666667,200 L66.25,200 L65.833333,200 L65.416667,200 Z M105,200 L105,191.666667 L105,183.333333 L105,175 L105,166.666667 L105,158.333333 L105,150 L105,141.666667 L105,133.333333 L105,125 L105,116.666667 L105,108.333334 L105,100 L105,91.666667 L105,83.333334 L105,75 L105,66.666667 L105,58.333334 L105,50 L105,41.666667 L105,33.333334 L105,25 L105,16.666667 L105,8.333334 L105,0 L105,0 L105.416667,0 L105.833333,0 L106.25,0 L106.666667,0 L107.083333,0 L107.5,0 L107.916667,0 L108.333333,0 L108.75,0 L109.166667,0 L109.583333,0 L110,0 L110.416667,0 L110.833333,0 L111.25,0 L111.666667,0 L112.083333,0 L112.5,0 L112.916667,0 L113.333333,0 L113.75,0 L114.166667,0 L114.583333,0 L115,0 L115,0 L115,8.333333 L115,16.666667 L115,25 L115,33.333333 L115,41.666667 L115,50 L115,58.333333 L115,66.666667 L115,75 L115,83.333333 L115,91.666667 L115,100 L115,108.333333 L115,116.666667 L115,125 L115,133.333333 L115,141.666667 L115,150 L115,158.333333 L115,166.666667 L115,175 L115,183.333333 L115,191.666667 L115,200 L115,200 L114.583333,200 L114.166667,200 L113.75,200 L113.333333,200 L112.916667,200 L112.5,200 L112.083333,200 L111.666667,200 L111.25,200 L110.833333,200 L110.416667,200 L110,200 L109.583333,200 L109.166667,200 L108.75,200 L108.333333,200 L107.916667,200 L107.5,200 L107.083333,200 L106.666667,200 L106.25,200 L105.833333,200 L105.416667,200 Z M145,200 L145,191.666667 L145,183.333333 L145,175 L145,166.666667 L145,158.333333 L145,150 L145,141.666667 L145,133.333333 L145,125 L145,116.666667 L145,108.333334 L145,100 L145,91.666667 L145,83.333334 L145,75 L145,66.666667 L145,58.333334 L145,50 L145,41.666667 L145,33.333334 L145,25 L145,16.666667 L145,8.333334 L145,0 L145,0 L145.416667,0 L145.833333,0 L146.25,0 L146.666667,0 L147.083333,0 L147.5,0 L147.916667,0 L148.333333,0 L148.75,0 L149.166667,0 L149.583333,0 L150,0 L150.416667,0 L150.833333,0 L151.25,0 L151.666667,0 L152.083333,0 L152.5,0 L152.916667,0 L153.333333,0 L153.75,0 L154.166667,0 L154.583333,0 L155,0 L155,0 L155,8.333333 L155,16.666667 L155,25 L155,33.333333 L155,41.666667 L155,50 L155,58.333333 L155,66.666667 L155,75 L155,83.333333 L155,91.666667 L155,100 L155,108.333333 L155,116.666667 L155,125 L155,133.333333 L155,141.666667 L155,150 L155,158.333333 L155,166.666667 L155,175 L155,183.333333 L155,191.666667 L155,200 L155,200 L154.583333,200 L154.166667,200 L153.75,200 L153.333333,200 L152.916667,200 L152.5,200 L152.083333,200 L151.666667,200 L151.25,200 L150.833333,200 L150.416667,200 L150,200 L149.583333,200 L149.166667,200 L148.75,200 L148.333333,200 L147.916667,200 L147.5,200 L147.083333,200 L146.666667,200 L146.25,200 L145.833333,200 L145.416667,200 Z M185,200 L185,191.666667 L185,183.333333 L185,175 L185,166.666667 L185,158.333333 L185,150 L185,141.666667 L185,133.333333 L185,125 L185,116.666667 L185,108.333334 L185,100 L185,91.666667 L185,83.333334 L185,75 L185,66.666667 L185,58.333334 L185,50 L185,41.666667 L185,33.333334 L185,25 L185,16.666667 L185,8.333334 L185,0 L185,0 L185.416667,0 L185.833333,0 L186.25,0 L186.666667,0 L187.083333,0 L187.5,0 L187.916667,0 L188.333333,0 L188.75,0 L189.166667,0 L189.583333,0 L190,0 L190.416667,0 L190.833333,0 L191.25,0 L191.666667,0 L192.083333,0 L192.5,0 L192.916667,0 L193.333333,0 L193.75,0 L194.166667,0 L194.583333,0 L195,0 L195,0 L195,8.333333 L195,16.666667 L195,25 L195,33.333333 L195,41.666667 L195,50 L195,58.333333 L195,66.666667 L195,75 L195,83.333333 L195,91.666667 L195,100 L195,108.333333 L195,116.666667 L195,125 L195,133.333333 L195,141.666667 L195,150 L195,158.333333 L195,166.666667 L195,175 L195,183.333333 L195,191.666667 L195,200 L195,200 L194.583333,200 L194.166667,200 L193.75,200 L193.333333,200 L192.916667,200 L192.5,200 L192.083333,200 L191.666667,200 L191.25,200 L190.833333,200 L190.416667,200 L190,200 L189.583333,200 L189.166667,200 L188.75,200 L188.333333,200 L187.916667,200 L187.5,200 L187.083333,200 L186.666667,200 L186.25,200 L185.833333,200 L185.416667,200 Z" fill="#121212"/>
</svg>
