<?xml version="1.0" encoding="UTF-8"?>
<svg xmlns="http://www.w3.org/2000/svg" width="200" height="200" viewBox="0 0 200 200">
  <path d="M101 143C101 149.075 96.0751 154 90 154C83.9249 154 79 149.075 79 143C79 136.925 83.9249 132 90 132C96.0751 132 101 136.925 101 143Z M25 200L25 4.37114e-07L35 0L35 200L25 200Z M65 200L65 4.37114e-07L75 0L75 200L65 200Z M105 200L105 4.37114e-07L115 0L115 200L105 200Z M145 200L145 4.37114e-07L155 0L155 200L145 200Z M185 200L185 4.37114e-07L195 0L195 200L185 200Z" fill="#121212"/>
</svg>
