<?xml version="1.0" encoding="UTF-8"?>
<svg xmlns="http://www.w3.org/2000/svg" width="200" height="200" viewBox="0 0 200 200">
  <path d="M76.135561,62.718317 L75.836782,62.071486 L75.49817,61.448104 L75.121364,60.84981 L74.708002,60.278242 L74.259722,59.735038 L73.778163,59.221838 L73.264962,58.740278 L72.721758,58.291998 L72.15019,57.878636 L71.551896,57.50183 L70.928514,57.163218 L70.281683,56.864439 L69.61304,56.607131 L68.924225,56.392933 L68.216874,56.223482 L67.492628,56.100418 L66.753124,56.025377 L66,56 L66,56 L65.246876,56.025377 L64.507372,56.100418 L63.783126,56.223482 L63.075775,56.392933 L62.38696,56.607131 L61.718317,56.864439 L61.071486,57.163218 L60.448104,57.50183 L59.84981,57.878636 L59.278242,58.291998 L58.735038,58.740278 L58.221838,59.221838 L57.740278,59.735038 L57.291998,60.278242 L56.878636,60.84981 L56.50183,61.448104 L56.163218,62.071486 L55.864439,62.718317 L55.607131,63.38696 L55.392933,64.075775 L55.223482,64.783126 L55.100418,65.507372 L55.025377,66.246876 L55,67 L55,67 L55.025377,67.753124 L55.100418,68.492628 L55.223482,69.216874 L55.392933,69.924225 L55.607131,70.61304 L55.864439,71.281683 L56.163218,71.928514 L56.50183,72.551896 L56.878636,73.15019 L57.291998,73.721758 L57.740278,74.264962 L58.221838,74.778163 L58.735038,75.259722 L59.278242,75.708002 L59.84981,76.121364 L60.448104,76.49817 L61.071486,76.836782 L61.718317,77.135561 L62.38696,77.392869 L63.075775,77.607067 L63.783126,77.776518 L64.507372,77.899582 L65.246876,77.974623 L66,78 L66,78 L66.753124,77.974623 L67.492628,77.899582 L68.216874,77.776518 L68.924225,77.607067 L69.61304,77.392869 L70.281683,77.135561 L70.928514,76.836782 L71.551896,76.49817 L72.15019,76.121364 L72.721758,75.708002 L73.264962,75.259722 L73.778163,74.778163 L74.259722,74.264962 L74.708002,73.721758 L75.121364,73.15019 L75.49817,72.551896 L75.836782,71.928514 L76.135561,71.281683 L76.392869,70.61304 L76.607067,69.924225 L76.776518,69.216874 L76.899582,68.492628 L76.974623,67.753124 L77,67 L77,67 L76.974623,66.246876 L76.899582,65.507372 L76.776518,64.783126 L76.607067,64.075775 L76.392869,63.38696 Z M199.135547,104.718359 L198.836764,104.07153 L198.498148,103.448148 L198.121338,102.849854 L197.707972,102.278284 L197.259688,101.735078 L196.778125,101.221875 L196.264922,100.740312 L195.721716,100.292028 L195.150146,99.878662 L194.551852,99.501852 L193.92847,99.163236 L193.281641,98.864453 L192.613001,98.607142 L191.92419,98.39294 L191.216846,98.223486 L190.492607,98.10042 L189.753112,98.025378 L189,98 L189,98 L188.246888,98.025378 L187.507393,98.10042 L186.783154,98.223486 L186.07581,98.39294 L185.386999,98.607142 L184.718359,98.864453 L184.07153,99.163236 L183.448148,99.501852 L182.849854,99.878662 L182.278284,100.292028 L181.735078,100.740312 L181.221875,101.221875 L180.740312,101.735078 L180.292028,102.278284 L179.878662,102.849854 L179.501852,103.448148 L179.163236,104.07153 L178.864453,104.718359 L178.607142,105.386999 L178.39294,106.07581 L178.223486,106.783154 L178.10042,107.507393 L178.025378,108.246888 L178,109 L178,109 L178.025378,109.753112 L178.10042,110.492607 L178.223486,111.216846 L178.39294,111.92419 L178.607142,112.613001 L178.864453,113.281641 L179.163236,113.92847 L179.501852,114.551852 L179.878662,115.150146 L180.292028,115.721716 L180.740312,116.264922 L181.221875,116.778125 L181.735078,117.259688 L182.278284,117.707972 L182.849854,118.121338 L183.448148,118.498148 L184.07153,118.836764 L184.718359,119.135547 L185.386999,119.392858 L186.07581,119.60706 L186.783154,119.776514 L187.507393,119.89958 L188.246888,119.974622 L189,120 L189,120 L189.753112,119.974622 L190.492607,119.89958 L191.216846,119.776514 L191.92419,119.60706 L192.613001,119.392858 L193.281641,119.135547 L193.92847,118.836764 L194.551852,118.498148 L195.150146,118.121338 L195.721716,117.707972 L196.264922,117.259688 L196.778125,116.778125 L197.259688,116.264922 L197.707972,115.721716 L198.121338,115.150146 L198.498148,114.551852 L198.836764,113.92847 L199.135547,113.281641 L199.392858,112.613001 L199.60706,111.92419 L199.776514,111.216846 L199.89958,110.492607 L199.974622,109.753112 L200,109 L200,109 L199.974622,108.246888 L199.89958,107.507393 L199.776514,106.783154 L199.60706,106.07581 L199.392858,105.386999 Z M0.005667,0 L0.005333,0 L0.005,0 L0.004667,0 L0.004333,0 L0.004,0 L0.003667,0 L0.003333,0 L0.003,0 L0.002667,0 L0.002333,0 L0.002,0 L0.001667,0 L0.001333,0 L0.001,0 L0.000667,0 L0.000333,0 L0,0 L0,8.333342 L0,16.666675 L0,25 L0,33.333341 L0,41.666674 L0,50 L0,58.33334 L0,66.666672 L0,75 L0,83.333338 L0,91.666671 L0,100 L0,108.333337 L0,116.66667 L0,125 L0,133.333336 L0,141.666669 L0,150 L0,158.333335 L0,166.666668 L0,175 L0,183.333334 L0,191.666667 L0,200 L8.333342,200 L16.666675,200 L25,200 L33.333341,200 L41.666674,200 L50,200 L58.33334,200 L66.666672,200 L75,200 L83.333338,200 L91.666671,200 L100,200 L108.333337,200 L116.66667,200 L125,200 L133.333336,200 L141.666669,200 L150,200 L158.333335,200 L166.666668,200 L175,200 L183.333334,200 L191.666667,200 L200,200 L186.359313,199.538878 L186.329872,199.536852 L175.905674,198.476133 L170.837881,197.816924 L163.124236,196.503136 L158.427292,195.608242 L150.077192,193.604039 L146.319342,192.657152 L134.525693,188.984053 L133.410776,188.560874 L123.059806,184.57294 L119.271232,182.880616 L111.923212,179.483734 L107.696125,177.298977 L101.130016,173.730718 L96.878306,171.218948 L90.682682,167.316441 L86.596517,164.581392 L80.549116,160.208718 L76.804372,157.386406 L70.550086,152.227653 L67.498316,149.648538 L58.980286,141.662135 L58.689563,141.38728 L50.423943,132.58824 L47.896517,129.600121 L42.67991,123.287627 L39.869494,119.561556 L35.478699,113.500328 L32.743565,109.416834 L28.835776,103.22396 L26.317132,98.962996 L22.753442,92.41658 L20.554218,88.163166 L17.181627,80.879569 L15.456468,77.01815 L11.635898,67.116612 L11.038012,65.541223 L7.35661,53.737251 L6.434751,50.074896 L4.401219,41.613008 L3.511908,36.936581 L2.189905,29.182868 L1.53272,24.113538 L0.472239,13.700546 L0.47064,13.677191 L0.008,0 L0.008,0 L0.008,0 L0.007667,0 L0.007333,0 L0.007,0 L0.006667,0 L0.006333,0 L0.006,0 Z M32.916667,0 L32.5,0 L32.083333,0 L31.666667,0 L31.25,0 L30.833333,0 L30.416667,0 L30,0 L29.583333,0 L29.166667,0 L28.75,0 L28.333333,0 L27.916667,0 L27.5,0 L27.083333,0 L26.666667,0 L26.25,0 L25.833333,0 L25.416667,0 L25,0 L25,0 L25.403729,11.981578 L26.597541,23.746464 L28.555371,35.268601 L31.251157,46.521926 L34.658836,57.480377 L38.752344,68.117888 L43.505617,78.408397 L48.892593,88.32584 L54.887207,97.844153 L61.463397,106.937272 L68.595099,115.579134 L76.25625,123.743676 L84.420786,131.404833 L93.062645,138.536543 L102.155762,145.112741 L111.674074,151.107363 L121.591518,156.494347 L131.882031,161.247628 L142.519549,165.341143 L153.478009,168.748829 L164.731348,171.444621 L176.253501,173.402456 L188.018406,174.59627 L200,175 L200,174.583333 L200,174.166667 L200,173.75 L200,173.333333 L200,172.916667 L200,172.5 L200,172.083333 L200,171.666667 L200,171.25 L200,170.833333 L200,170.416667 L200,170 L200,169.583333 L200,169.166667 L200,168.75 L200,168.333333 L200,167.916667 L200,167.5 L200,167.083333 L200,166.666667 L200,166.25 L200,165.833333 L200,165.416667 L200,165 L200,165 L188.703085,164.61934 L177.610474,163.493745 L166.74674,161.647787 L156.136458,159.106042 L145.804202,155.893083 L135.774547,152.033485 L126.072066,147.551821 L116.721333,142.472667 L107.746924,136.820596 L99.173411,130.620183 L91.02537,123.896001 L83.327375,116.672626 L76.103999,108.974631 L69.379818,100.82659 L63.179404,92.253078 L57.527333,83.278669 L52.448179,73.927937 L47.966516,64.225457 L44.106917,54.195802 L40.893958,43.863547 L38.352213,33.253266 L36.506255,22.389533 L35.38066,11.296922 L35,0 L34.583333,0 L34.166667,0 L33.75,0 L33.333333,0 Z M69.822361,35.888338 L72.451161,44.341999 L75.609031,52.548079 L79.275865,60.486471 L83.431556,68.137069 L88.055996,75.479768 L93.12908,82.49446 L98.6307,89.16104 L104.54075,95.459401 L110.839123,101.369437 L117.505712,106.871042 L124.52041,111.94411 L131.863111,116.568534 L139.513708,120.724208 L147.452094,124.391025 L155.658162,127.54888 L164.111806,130.177667 L172.792918,132.257278 L181.681392,133.767608 L190.757122,134.688551 L200,135 L200,134.583333 L200,134.166667 L200,133.75 L200,133.333333 L200,132.916667 L200,132.5 L200,132.083333 L200,131.666667 L200,131.25 L200,130.833333 L200,130.416667 L200,130 L200,129.583333 L200,129.166667 L200,128.75 L200,128.333333 L200,127.916667 L200,127.5 L200,127.083333 L200,126.666667 L200,126.25 L200,125.833333 L200,125.416667 L200,125 L191.441686,124.711622 L183.038155,123.858897 L174.808023,122.460445 L166.769907,120.53488 L158.942423,118.10082 L151.344188,115.176881 L143.993816,111.781682 L136.909926,107.933837 L130.111133,103.651965 L123.616053,98.954682 L117.443304,93.860605 L111.6115,88.388351 L106.139259,82.556536 L101.045197,76.383778 L96.34793,69.888694 L92.066074,63.089899 L88.218246,56.006011 L84.823063,48.655647 L81.899139,41.057424 L79.465093,33.229959 L77.539539,25.191868 L76.141095,16.961768 L75.288376,8.558276 L75,0 L74.583333,0 L74.166667,0 L73.75,0 L73.333333,0 L72.916667,0 L72.5,0 L72.083333,0 L71.666667,0 L71.25,0 L70.833333,0 L70.416667,0 L70,0 L69.583333,0 L69.166667,0 L68.75,0 L68.333333,0 L67.916667,0 L67.5,0 L67.083333,0 L66.666667,0 L66.25,0 L65.833333,0 L65.416667,0 L65,0 L65.311451,9.242932 L66.232399,18.318698 L67.742738,27.207203 Z M113.75,0 L113.333333,0 L112.916667,0 L112.5,0 L112.083333,0 L111.666667,0 L111.25,0 L110.833333,0 L110.416667,0 L110,0 L109.583333,0 L109.166667,0 L108.75,0 L108.333333,0 L107.916667,0 L107.5,0 L107.083333,0 L106.666667,0 L106.25,0 L105.833333,0 L105.416667,0 L105,0 L105,0 L105.219168,6.504296 L105.867239,12.890954 L106.930064,19.145833 L108.393495,25.254785 L110.243383,31.203661 L112.465578,36.978312 L115.045932,42.564589 L117.970296,47.948343 L121.224521,53.115427 L124.794459,58.051691 L128.66596,62.742986 L132.824875,67.175164 L137.257056,71.334075 L141.948354,75.205572 L146.884619,78.775505 L152.051704,82.029726 L157.435458,84.954086 L163.021734,87.534436 L168.796383,89.756628 L174.745255,91.606512 L180.854201,93.06994 L187.109073,94.132763 L193.495723,94.780833 L200,95 L200,94.583333 L200,94.166667 L200,93.75 L200,93.333333 L200,92.916667 L200,92.5 L200,92.083333 L200,91.666667 L200,91.25 L200,90.833333 L200,90.416667 L200,90 L200,89.583333 L200,89.166667 L200,88.75 L200,88.333333 L200,87.916667 L200,87.5 L200,87.083333 L200,86.666667 L200,86.25 L200,85.833333 L200,85.416667 L200,85 L200,85 L194.180402,84.803903 L188.466046,84.22405 L182.869594,83.273102 L177.403704,81.963718 L172.081036,80.308557 L166.91425,78.320278 L161.916006,76.011542 L157.098963,73.395008 L152.475781,70.483334 L148.05912,67.289182 L143.86164,63.825209 L139.896,60.104076 L136.17486,56.138442 L132.71088,51.940966 L129.516719,47.524309 L126.605037,42.901129 L123.988494,38.084085 L121.67975,33.085838 L119.691464,27.919047 L118.036296,22.596371 L116.726906,17.13047 L115.775954,11.534002 L115.196098,5.819629 L115,0 L114.583333,0 L114.166667,0 Z M145.502079,7.463189 L146.117391,11.084435 L146.96463,14.621197 L148.035605,18.065283 L149.322125,21.408502 L150.815999,24.642662 L152.509037,27.759573 L154.393047,30.751042 L156.459838,33.608879 L158.701219,36.324891 L161.109,38.890889 L163.674989,41.298679 L166.390995,43.540072 L169.248828,45.606874 L172.240296,47.490897 L175.357209,49.183947 L178.591375,50.677833 L181.934604,51.964364 L185.378704,53.03535 L188.915484,53.882597 L192.536755,54.497916 L196.234323,54.873114 L200,55 L200,54.583333 L200,54.166667 L200,53.75 L200,53.333333 L200,52.916667 L200,52.5 L200,52.083333 L200,51.666667 L200,51.25 L200,50.833333 L200,50.416667 L200,50 L200,49.583333 L200,49.166667 L200,48.75 L200,48.333333 L200,47.916667 L200,47.5 L200,47.083333 L200,46.666667 L200,46.25 L200,45.833333 L200,45.416667 L200,45 L196.919002,44.896184 L193.893727,44.589203 L190.930877,44.085759 L188.037153,43.392556 L185.219257,42.516293 L182.483891,41.463675 L179.837756,40.241403 L177.287556,38.856178 L174.83999,37.314704 L172.501762,35.623681 L170.279573,33.789813 L168.180125,31.819801 L166.21012,29.720348 L164.376259,27.498155 L162.685244,25.159924 L161.143778,22.712358 L159.758561,20.162159 L158.536297,17.516029 L157.483686,14.780669 L156.607431,11.962783 L155.914232,9.069071 L155.410793,6.106237 L155.103815,3.080982 L155,0 L154.583333,0 L154.166667,0 L153.75,0 L153.333333,0 L152.916667,0 L152.5,0 L152.083333,0 L151.666667,0 L151.25,0 L150.833333,0 L150.416667,0 L150,0 L149.583333,0 L149.166667,0 L148.75,0 L148.333333,0 L147.916667,0 L147.5,0 L147.083333,0 L146.666667,0 L146.25,0 L145.833333,0 L145.416667,0 L145,0 L145.126885,3.76565 Z M194.583333,0 L194.166667,0 L193.75,0 L193.333333,0 L192.916667,0 L192.5,0 L192.083333,0 L191.666667,0 L191.25,0 L190.833333,0 L190.416667,0 L190,0 L189.583333,0 L189.166667,0 L188.75,0 L188.333333,0 L187.916667,0 L187.5,0 L187.083333,0 L186.666667,0 L186.25,0 L185.833333,0 L185.416667,0 L185,0 L185,0 L185.034607,1.027001 L185.136937,2.03542 L185.304758,3.023032 L185.535833,3.987602 L185.82793,4.926898 L186.178812,5.838684 L186.586247,6.720728 L187.048,7.570794 L187.561836,8.386649 L188.125521,9.166058 L188.73682,9.906789 L189.3935,10.606606 L190.093326,11.263276 L190.834063,11.874565 L191.613477,12.438238 L192.429333,12.952063 L193.279398,13.413803 L194.161438,13.821227 L195.073216,14.172099 L196.0125,14.464186 L196.977055,14.695254 L197.964646,14.863068 L198.973039,14.965395 L200,15 L200,14.583334 L200,14.166667 L200,13.750001 L200,13.333335 L200,12.916669 L200,12.500003 L200,12.083336 L200,11.66667 L200,11.250004 L200,10.833337 L200,10.416671 L200,10 L200,9.583339 L200,9.166673 L200,8.750006 L200,8.33334 L200,7.916674 L200,7.500007 L200,7.083341 L200,6.666675 L200,6.250009 L200,5.833342 L200,5.416676 L200,5 L200,5 L199.657718,4.988475 L199.321619,4.954366 L198.992447,4.898428 L198.670949,4.821405 L198.357869,4.724042 L198.053953,4.607085 L197.759946,4.471277 L197.476593,4.317363 L197.204639,4.146087 L196.944829,3.958196 L196.69791,3.754433 L196.464625,3.535542 L196.245721,3.30227 L196.041942,3.055359 L195.854033,2.795556 L195.682741,2.523604 L195.528809,2.240248 L195.392984,1.946234 L195.276011,1.642305 L195.178634,1.329206 L195.1016,1.007682 L195.045652,0.678479 L195.011537,0.342339 L195,0 Z" fill="#121212"/>
</svg>
