<?xml version="1.0" encoding="UTF-8"?>
<svg xmlns="http://www.w3.org/2000/svg" width="200" height="200" viewBox="0 0 200 200">
  <path d="M10.833333,200 L11.041667,200 L11.25,200 L11.458333,200 L11.666667,200 L11.875,200 L12.083333,200 L12.291667,200 L12.5,200 L12.708333,200 L12.916667,200 L13.125,200 L13.333333,200 L13.541667,200 L13.75,200 L13.958333,200 L14.166667,200 L14.375,200 L14.583333,200 L14.791667,200 L15,200 L15,191.666667 L15,183.333333 L15,175 L15,166.666667 L15,158.333333 L15,150 L15,141.666667 L15,133.333333 L15,125 L15,116.666667 L15,108.333333 L15,100 L15,91.666667 L15,83.333333 L15,75 L15,66.666667 L15,58.333333 L15,50 L15,41.666667 L15,33.333333 L15,25 L15,16.666667 L15,8.333333 L15,0 L14.791667,0 L14.583333,0 L14.375,0 L14.166667,0 L13.958333,0 L13.75,0 L13.541667,0 L13.333333,0 L13.125,0 L12.916667,0 L12.708333,0 L12.5,0 L12.291667,0 L12.083333,0 L11.875,0 L11.666667,0 L11.458333,0 L11.25,0 L11.041667,0 L10.833333,0 L10.625,0 L10.416667,0 L10.208333,0 L10,0 L10,0 L10,8.333334 L10,16.666667 L10,25 L10,33.333334 L10,41.666667 L10,50 L10,58.333333 L10,66.666667 L10,75 L10,83.333333 L10,91.666667 L10,100 L10,108.333333 L10,116.666667 L10,125 L10,133.333333 L10,141.666667 L10,150 L10,158.333333 L10,166.666667 L10,175 L10,183.333333 L10,191.666667 L10,200 L10.208333,200 L10.416667,200 L10.625,200 Z M120.833333,200 L121.041667,200 L121.25,200 L121.458333,200 L121.666667,200 L121.875,200 L122.083333,200 L122.291667,200 L122.5,200 L122.708333,200 L122.916667,200 L123.125,200 L123.333333,200 L123.541667,200 L123.75,200 L123.958333,200 L124.166667,200 L124.375,200 L124.583333,200 L124.791667,200 L125,200 L125,191.666667 L125,183.333333 L125,175 L125,166.666667 L125,158.333333 L125,150 L125,141.666667 L125,133.333333 L125,125 L125,116.666667 L125,108.333333 L125,100 L125,91.666667 L125,83.333333 L125,75 L125,66.666667 L125,58.333333 L125,50 L125,41.666667 L125,33.333333 L125,25 L125,16.666667 L125,8.333333 L125,0 L124.791667,0 L124.583333,0 L124.375,0 L124.166667,0 L123.958333,0 L123.75,0 L123.541667,0 L123.333333,0 L123.125,0 L122.916667,0 L122.708333,0 L122.5,0 L122.291667,0 L122.083333,0 L121.875,0 L121.666667,0 L121.458333,0 L121.25,0 L121.041667,0 L120.833333,0 L120.625,0 L120.416667,0 L120.208333,0 L120,0 L120,0 L120,8.333334 L120,16.666667 L120,25 L120,33.333334 L120,41.666667 L120,50 L120,58.333333 L120,66.666667 L120,75 L120,83.333333 L120,91.666667 L120,100 L120,108.333333 L120,116.666667 L120,125 L120,133.333333 L120,141.666667 L120,150 L120,158.333333 L120,166.666667 L120,175 L120,183.333333 L120,191.666667 L120,200 L120.208333,200 L120.416667,200 L120.625,200 Z M35.833333,200 L36.041667,200 L36.25,200 L36.458333,200 L36.666667,200 L36.875,200 L37.083333,200 L37.291667,200 L37.5,200 L37.708333,200 L37.916667,200 L38.125,200 L38.333333,200 L38.541667,200 L38.75,200 L38.958333,200 L39.166667,200 L39.375,200 L39.583333,200 L39.791667,200 L40,200 L40,191.666667 L40,183.333333 L40,175 L40,166.666667 L40,158.333333 L40,150 L40,141.666667 L40,133.333333 L40,125 L40,116.666667 L40,108.333333 L40,100 L40,91.666667 L40,83.333333 L40,75 L40,66.666667 L40,58.333333 L40,50 L40,41.666667 L40,33.333333 L40,25 L40,16.666667 L40,8.333333 L40,0 L39.791667,0 L39.583333,0 L39.375,0 L39.166667,0 L38.958333,0 L38.75,0 L38.541667,0 L38.333333,0 L38.125,0 L37.916667,0 L37.708333,0 L37.5,0 L37.291667,0 L37.083333,0 L36.875,0 L36.666667,0 L36.458333,0 L36.25,0 L36.041667,0 L35.833333,0 L35.625,0 L35.416667,0 L35.208333,0 L35,0 L35,0 L35,8.333334 L35,16.666667 L35,25 L35,33.333334 L35,41.666667 L35,50 L35,58.333333 L35,66.666667 L35,75 L35,83.333333 L35,91.666667 L35,100 L35,108.333333 L35,116.666667 L35,125 L35,133.333333 L35,141.666667 L35,150 L35,158.333333 L35,166.666667 L35,175 L35,183.333333 L35,191.666667 L35,200 L35.208333,200 L35.416667,200 L35.625,200 Z M140.625,200 L140.833333,200 L141.041667,200 L141.25,200 L141.458333,200 L141.666667,200 L141.875,200 L142.083333,200 L142.291667,200 L142.5,200 L142.708333,200 L142.916667,200 L143.125,200 L143.333333,200 L143.541667,200 L143.75,200 L143.958333,200 L144.166667,200 L144.375,200 L144.583333,200 L144.791667,200 L145,200 L145,191.666667 L145,183.333333 L145,175 L145,166.666667 L145,158.333333 L145,150 L145,141.666667 L145,133.333333 L145,125 L145,116.666667 L145,108.333333 L145,100 L145,91.666667 L145,83.333333 L145,75 L145,66.666667 L145,58.333333 L145,50 L145,41.666667 L145,33.333333 L145,25 L145,16.666667 L145,8.333333 L145,0 L144.791667,0 L144.583333,0 L144.375,0 L144.166667,0 L143.958333,0 L143.75,0 L143.541667,0 L143.333333,0 L143.125,0 L142.916667,0 L142.708333,0 L142.5,0 L142.291667,0 L142.083333,0 L141.875,0 L141.666667,0 L141.458333,0 L141.25,0 L141.041667,0 L140.833333,0 L140.625,0 L140.416667,0 L140.208333,0 L140,0 L140,0 L140,8.333334 L140,16.666667 L140,25 L140,33.333334 L140,41.666667 L140,50 L140,58.333333 L140,66.666667 L140,75 L140,83.333333 L140,91.666667 L140,100 L140,108.333333 L140,116.666667 L140,125 L140,133.333333 L140,141.666667 L140,150 L140,158.333333 L140,166.666667 L140,175 L140,183.333333 L140,191.666667 L140,200 L140.208333,200 L140.416667,200 Z M60.625,200 L60.833333,200 L61.041667,200 L61.25,200 L61.458333,200 L61.666667,200 L61.875,200 L62.083333,200 L62.291667,200 L62.5,200 L62.708333,200 L62.916667,200 L63.125,200 L63.333333,200 L63.541667,200 L63.75,200 L63.958333,200 L64.166667,200 L64.375,200 L64.583333,200 L64.791667,200 L65,200 L65,191.666667 L65,183.333333 L65,175 L65,166.666667 L65,158.333333 L65,150 L65,141.666667 L65,133.333333 L65,125 L65,116.666667 L65,108.333333 L65,100 L65,91.666667 L65,83.333333 L65,75 L65,66.666667 L65,58.333333 L65,50 L65,41.666667 L65,33.333333 L65,25 L65,16.666667 L65,8.333333 L65,0 L64.791667,0 L64.583333,0 L64.375,0 L64.166667,0 L63.958333,0 L63.75,0 L63.541667,0 L63.333333,0 L63.125,0 L62.916667,0 L62.708333,0 L62.5,0 L62.291667,0 L62.083333,0 L61.875,0 L61.666667,0 L61.458333,0 L61.25,0 L61.041667,0 L60.833333,0 L60.625,0 L60.416667,0 L60.208333,0 L60,0 L60,0 L60,8.333334 L60,16.666667 L60,25 L60,33.333334 L60,41.666667 L60,50 L60,58.333333 L60,66.666667 L60,75 L60,83.333333 L60,91.666667 L60,100 L60,108.333333 L60,116.666667 L60,125 L60,133.333333 L60,141.666667 L60,150 L60,158.333333 L60,166.666667 L60,175 L60,183.333333 L60,191.666667 L60,200 L60.208333,200 L60.416667,200 Z M160.416667,200 L160.625,200 L160.833333,200 L161.041667,200 L161.25,200 L161.458333,200 L161.666667,200 L161.875,200 L162.083333,200 L162.291667,200 L162.5,200 L162.708333,200 L162.916667,200 L163.125,200 L163.333333,200 L163.541667,200 L163.75,200 L163.958333,200 L164.166667,200 L164.375,200 L164.583333,200 L164.791667,200 L165,200 L165,191.666667 L165,183.333333 L165,175 L165,166.666667 L165,158.333333 L165,150 L165,141.666667 L165,133.333333 L165,125 L165,116.666667 L165,108.333333 L165,100 L165,91.666667 L165,83.333333 L165,75 L165,66.666667 L165,58.333333 L165,50 L165,41.666667 L165,33.333333 L165,25 L165,16.666667 L165,8.333333 L165,0 L164.791667,0 L164.583333,0 L164.375,0 L164.166667,0 L163.958333,0 L163.75,0 L163.541667,0 L163.333333,0 L163.125,0 L162.916667,0 L162.708333,0 L162.5,0 L162.291667,0 L162.083333,0 L161.875,0 L161.666667,0 L161.458333,0 L161.25,0 L161.041667,0 L160.833333,0 L160.625,0 L160.416667,0 L160.208333,0 L160,0 L160,0 L160,8.333334 L160,16.666667 L160,25 L160,33.333334 L160,41.666667 L160,50 L160,58.333333 L160,66.666667 L160,75 L160,83.333333 L160,91.666667 L160,100 L160,108.333333 L160,116.666667 L160,125 L160,133.333333 L160,141.666667 L160,150 L160,158.333333 L160,166.666667 L160,175 L160,183.333333 L160,191.666667 L160,200 L160.208333,200 Z M80.416667,200 L80.625,200 L80.833333,200 L81.041667,200 L81.25,200 L81.458333,200 L81.666667,200 L81.875,200 L82.083333,200 L82.291667,200 L82.5,200 L82.708333,200 L82.916667,200 L83.125,200 L83.333333,200 L83.541667,200 L83.75,200 L83.958333,200 L84.166667,200 L84.375,200 L84.583333,200 L84.791667,200 L85,200 L85,191.666667 L85,183.333333 L85,175 L85,166.666667 L85,158.333333 L85,150 L85,141.666667 L85,133.333333 L85,125 L85,116.666667 L85,108.333333 L85,100 L85,91.666667 L85,83.333333 L85,75 L85,66.666667 L85,58.333333 L85,50 L85,41.666667 L85,33.333333 L85,25 L85,16.666667 L85,8.333333 L85,0 L84.791667,0 L84.583333,0 L84.375,0 L84.166667,0 L83.958333,0 L83.75,0 L83.541667,0 L83.333333,0 L83.125,0 L82.916667,0 L82.708333,0 L82.5,0 L82.291667,0 L82.083333,0 L81.875,0 L81.666667,0 L81.458333,0 L81.25,0 L81.041667,0 L80.833333,0 L80.625,0 L80.416667,0 L80.208333,0 L80,0 L80,0 L80,8.333334 L80,16.666667 L80,25 L80,33.333334 L80,41.666667 L80,50 L80,58.333333 L80,66.666667 L80,75 L80,83.333333 L80,91.666667 L80,100 L80,108.333333 L80,116.666667 L80,125 L80,133.333333 L80,141.666667 L80,150 L80,158.333333 L80,166.666667 L80,175 L80,183.333333 L80,191.666667 L80,200 L80.208333,200 Z M175.208333,200 L175.416667,200 L175.625,200 L175.833333,200 L176.041667,200 L176.25,200 L176.458333,200 L176.666667,200 L176.875,200 L177.083333,200 L177.291667,200 L177.5,200 L177.708333,200 L177.916667,200 L178.125,200 L178.333333,200 L178.541667,200 L178.75,200 L178.958333,200 L179.166667,200 L179.375,200 L179.583333,200 L179.791667,200 L180,200 L180,191.666667 L180,183.333333 L180,175 L180,166.666667 L180,158.333333 L180,150 L180,141.666667 L180,133.333333 L180,125 L180,116.666667 L180,108.333333 L180,100 L180,91.666667 L180,83.333333 L180,75 L180,66.666667 L180,58.333333 L180,50 L180,41.666667 L180,33.333333 L180,25 L180,16.666667 L180,8.333333 L180,0 L179.791667,0 L179.583333,0 L179.375,0 L179.166667,0 L178.958333,0 L178.75,0 L178.541667,0 L178.333333,0 L178.125,0 L177.916667,0 L177.708333,0 L177.5,0 L177.291667,0 L177.083333,0 L176.875,0 L176.666667,0 L176.458333,0 L176.25,0 L176.041667,0 L175.833333,0 L175.625,0 L175.416667,0 L175.208333,0 L175,0 L175,0 L175,8.333334 L175,16.666667 L175,25 L175,33.333334 L175,41.666667 L175,50 L175,58.333333 L175,66.666667 L175,75 L175,83.333333 L175,91.666667 L175,100 L175,108.333333 L175,116.666667 L175,125 L175,133.333333 L175,141.666667 L175,150 L175,158.333333 L175,166.666667 L175,175 L175,183.333333 L175,191.666667 L175,200 Z M190.208333,200 L190.416667,200 L190.625,200 L190.833333,200 L191.041667,200 L191.25,200 L191.458333,200 L191.666667,200 L191.875,200 L192.083333,200 L192.291667,200 L192.5,200 L192.708333,200 L192.916667,200 L193.125,200 L193.333333,200 L193.541667,200 L193.75,200 L193.958333,200 L194.166667,200 L194.375,200 L194.583333,200 L194.791667,200 L195,200 L195,191.666667 L195,183.333333 L195,175 L195,166.666667 L195,158.333333 L195,150 L195,141.666667 L195,133.333333 L195,125 L195,116.666667 L195,108.333333 L195,100 L195,91.666667 L195,83.333333 L195,75 L195,66.666667 L195,58.333333 L195,50 L195,41.666667 L195,33.333333 L195,25 L195,16.666667 L195,8.333333 L195,0 L194.791667,0 L194.583333,0 L194.375,0 L194.166667,0 L193.958333,0 L193.75,0 L193.541667,0 L193.333333,0 L193.125,0 L192.916667,0 L192.708333,0 L192.5,0 L192.291667,0 L192.083333,0 L191.875,0 L191.666667,0 L191.458333,0 L191.25,0 L191.041667,0 L190.833333,0 L190.625,0 L190.416667,0 L190.208333,0 L190,0 L190,0 L190,8.333334 L190,16.666667 L190,25 L190,33.333334 L190,41.666667 L190,50 L190,58.333333 L190,66.666667 L190,75 L190,83.333333 L190,91.666667 L190,100 L190,108.333333 L190,116.666667 L190,125 L190,133.333333 L190,141.666667 L190,150 L190,158.333333 L190,166.666667 L190,175 L190,183.333333 L190,191.666667 L190,200 Z M100.208333,200 L100.416667,200 L100.625,200 L100.833333,200 L101.041667,200 L101.25,200 L101.458333,200 L101.666667,200 L101.875,200 L102.083333,200 L102.291667,200 L102.5,200 L102.708333,200 L102.916667,200 L103.125,200 L103.333333,200 L103.541667,200 L103.75,200 L103.958333,200 L104.166667,200 L104.375,200 L104.583333,200 L104.791667,200 L105,200 L105,191.666667 L105,183.333333 L105,175 L105,166.666667 L105,158.333333 L105,150 L105,141.666667 L105,133.333333 L105,125 L105,116.666667 L105,108.333333 L105,100 L105,91.666667 L105,83.333333 L105,75 L105,66.666667 L105,58.333333 L105,50 L105,41.666667 L105,33.333333 L105,25 L105,16.666667 L105,8.333333 L105,0 L104.791667,0 L104.583333,0 L104.375,0 L104.166667,0 L103.958333,0 L103.75,0 L103.541667,0 L103.333333,0 L103.125,0 L102.916667,0 L102.708333,0 L102.5,0 L102.291667,0 L102.083333,0 L101.875,0 L101.666667,0 L101.458333,0 L101.25,0 L101.041667,0 L100.833333,0 L100.625,0 L100.416667,0 L100.208333,0 L100,0 L100,0 L100,8.333334 L100,16.666667 L100,25 L100,33.333334 L100,41.666667 L100,50 L100,58.333333 L100,66.666667 L100,75 L100,83.333333 L100,91.666667 L100,100 L100,108.333333 L100,116.666667 L100,125 L100,133.333333 L100,141.666667 L100,150 L100,158.333333 L100,166.666667 L100,175 L100,183.333333 L100,191.666667 L100,200 Z" fill="#121212"/>
</svg>
