<?xml version="1.0" encoding="UTF-8"?>
<svg id="Layer_1" xmlns="http://www.w3.org/2000/svg" xmlns:xlink="http://www.w3.org/1999/xlink" version="1.1" viewBox="0 0 11039.25 6730.75">
  <!-- Generator: Adobe Illustrator 30.2.1, SVG Export Plug-In . SVG Version: 2.1.1 Build 1)  -->
  <defs>
    <style>
      .st0, .st1 {
        fill: none;
      }

      .st2 {
        fill: #231f20;
      }

      .st3 {
        fill: #141415;
      }

      .st4, .st5 {
        fill: #f3f3f4;
      }

      .st4, .st6 {
        fill-rule: evenodd;
      }

      .st7 {
        clip-path: url(#clippath-17);
      }

      .st8 {
        clip-path: url(#clippath-19);
      }

      .st9 {
        clip-path: url(#clippath-11);
      }

      .st10 {
        clip-path: url(#clippath-16);
      }

      .st11 {
        clip-path: url(#clippath-18);
      }

      .st12 {
        clip-path: url(#clippath-10);
      }

      .st13 {
        clip-path: url(#clippath-15);
      }

      .st14 {
        clip-path: url(#clippath-13);
      }

      .st15 {
        clip-path: url(#clippath-14);
      }

      .st16 {
        clip-path: url(#clippath-12);
      }

      .st17 {
        clip-path: url(#clippath-61);
      }

      .st18 {
        clip-path: url(#clippath-67);
      }

      .st19 {
        clip-path: url(#clippath-68);
      }

      .st20 {
        clip-path: url(#clippath-60);
      }

      .st21 {
        clip-path: url(#clippath-65);
      }

      .st22 {
        clip-path: url(#clippath-62);
      }

      .st23 {
        clip-path: url(#clippath-64);
      }

      .st24 {
        clip-path: url(#clippath-66);
      }

      .st25 {
        clip-path: url(#clippath-63);
      }

      .st26 {
        clip-path: url(#clippath-76);
      }

      .st27 {
        clip-path: url(#clippath-78);
      }

      .st28 {
        clip-path: url(#clippath-75);
      }

      .st29 {
        clip-path: url(#clippath-79);
      }

      .st30 {
        clip-path: url(#clippath-50);
      }

      .st31 {
        clip-path: url(#clippath-55);
      }

      .st32 {
        clip-path: url(#clippath-52);
      }

      .st33 {
        clip-path: url(#clippath-57);
      }

      .st34 {
        clip-path: url(#clippath-54);
      }

      .st35 {
        clip-path: url(#clippath-56);
      }

      .st36 {
        clip-path: url(#clippath-53);
      }

      .st37 {
        clip-path: url(#clippath-70);
      }

      .st38 {
        clip-path: url(#clippath-77);
      }

      .st39 {
        clip-path: url(#clippath-74);
      }

      .st40 {
        clip-path: url(#clippath-71);
      }

      .st41 {
        clip-path: url(#clippath-73);
      }

      .st42 {
        clip-path: url(#clippath-72);
      }

      .st43 {
        clip-path: url(#clippath-51);
      }

      .st44 {
        clip-path: url(#clippath-58);
      }

      .st45 {
        clip-path: url(#clippath-59);
      }

      .st46 {
        clip-path: url(#clippath-31);
      }

      .st47 {
        clip-path: url(#clippath-32);
      }

      .st48 {
        clip-path: url(#clippath-33);
      }

      .st49 {
        clip-path: url(#clippath-34);
      }

      .st50 {
        clip-path: url(#clippath-35);
      }

      .st51 {
        clip-path: url(#clippath-39);
      }

      .st52 {
        clip-path: url(#clippath-30);
      }

      .st53 {
        clip-path: url(#clippath-36);
      }

      .st54 {
        clip-path: url(#clippath-37);
      }

      .st55 {
        clip-path: url(#clippath-38);
      }

      .st56 {
        clip-path: url(#clippath-27);
      }

      .st57 {
        clip-path: url(#clippath-29);
      }

      .st58 {
        clip-path: url(#clippath-26);
      }

      .st59 {
        clip-path: url(#clippath-28);
      }

      .st60 {
        clip-path: url(#clippath-20);
      }

      .st61 {
        clip-path: url(#clippath-21);
      }

      .st62 {
        clip-path: url(#clippath-22);
      }

      .st63 {
        clip-path: url(#clippath-23);
      }

      .st64 {
        clip-path: url(#clippath-24);
      }

      .st65 {
        clip-path: url(#clippath-25);
      }

      .st66 {
        clip-path: url(#clippath-69);
      }

      .st67 {
        clip-path: url(#clippath-41);
      }

      .st68 {
        clip-path: url(#clippath-42);
      }

      .st69 {
        clip-path: url(#clippath-43);
      }

      .st70 {
        clip-path: url(#clippath-44);
      }

      .st71 {
        clip-path: url(#clippath-45);
      }

      .st72 {
        clip-path: url(#clippath-49);
      }

      .st73 {
        clip-path: url(#clippath-40);
      }

      .st74 {
        clip-path: url(#clippath-46);
      }

      .st75 {
        clip-path: url(#clippath-47);
      }

      .st76 {
        clip-path: url(#clippath-48);
      }

      .st77 {
        clip-path: url(#clippath-90);
      }

      .st78 {
        clip-path: url(#clippath-95);
      }

      .st79 {
        clip-path: url(#clippath-93);
      }

      .st80 {
        clip-path: url(#clippath-99);
      }

      .st81 {
        clip-path: url(#clippath-94);
      }

      .st82 {
        clip-path: url(#clippath-96);
      }

      .st83 {
        clip-path: url(#clippath-85);
      }

      .st84 {
        clip-path: url(#clippath-86);
      }

      .st85 {
        clip-path: url(#clippath-87);
      }

      .st86 {
        clip-path: url(#clippath-80);
      }

      .st87 {
        clip-path: url(#clippath-89);
      }

      .st88 {
        clip-path: url(#clippath-81);
      }

      .st89 {
        clip-path: url(#clippath-82);
      }

      .st90 {
        clip-path: url(#clippath-83);
      }

      .st91 {
        clip-path: url(#clippath-84);
      }

      .st92 {
        clip-path: url(#clippath-88);
      }

      .st93 {
        clip-path: url(#clippath-92);
      }

      .st94 {
        clip-path: url(#clippath-97);
      }

      .st95 {
        clip-path: url(#clippath-91);
      }

      .st96 {
        clip-path: url(#clippath-98);
      }

      .st97 {
        clip-path: url(#clippath-1);
      }

      .st98 {
        clip-path: url(#clippath-3);
      }

      .st99 {
        clip-path: url(#clippath-4);
      }

      .st100 {
        clip-path: url(#clippath-2);
      }

      .st101 {
        clip-path: url(#clippath-7);
      }

      .st102 {
        clip-path: url(#clippath-6);
      }

      .st103 {
        clip-path: url(#clippath-9);
      }

      .st104 {
        clip-path: url(#clippath-8);
      }

      .st105 {
        clip-path: url(#clippath-5);
      }

      .st106 {
        fill: #141414;
      }

      .st107 {
        clip-path: url(#clippath-102);
      }

      .st108 {
        clip-path: url(#clippath-101);
      }

      .st109 {
        clip-path: url(#clippath-103);
      }

      .st110 {
        clip-path: url(#clippath-100);
      }

      .st1 {
        stroke: #7357a4;
        stroke-dasharray: 10 5;
      }

      .st111, .st6 {
        fill: #131313;
      }

      .st112 {
        clip-path: url(#clippath);
      }
    </style>
    <clipPath id="clippath">
      <rect class="st0" x="5326" y="1940" width="200" height="200"/>
    </clipPath>
    <clipPath id="clippath-1">
      <rect class="st0" x="5326" y="4894" width="200" height="199.99"/>
    </clipPath>
    <clipPath id="clippath-2">
      <rect class="st0" x="5019" y="935" width="200" height="200"/>
    </clipPath>
    <clipPath id="clippath-3">
      <rect class="st0" x="5019" y="1940" width="200" height="200"/>
    </clipPath>
    <clipPath id="clippath-4">
      <rect class="st0" x="5019" y="3254" width="200" height="200"/>
    </clipPath>
    <clipPath id="clippath-5">
      <rect class="st0" x="3978" y="600" width="200" height="200"/>
    </clipPath>
    <clipPath id="clippath-6">
      <rect class="st0" x="3629" y="600" width="200" height="200"/>
    </clipPath>
    <clipPath id="clippath-7">
      <rect class="st0" x="3629" y="1940" width="200" height="200"/>
    </clipPath>
    <clipPath id="clippath-8">
      <rect class="st0" x="2494" y="600" width="200" height="200"/>
    </clipPath>
    <clipPath id="clippath-9">
      <rect class="st0" x="1796" y="600" width="200" height="200"/>
    </clipPath>
    <clipPath id="clippath-10">
      <rect class="st0" x="1796" y="1270" width="200" height="200"/>
    </clipPath>
    <clipPath id="clippath-11">
      <rect class="st0" x="1796" y="1605" width="200" height="200"/>
    </clipPath>
    <clipPath id="clippath-12">
      <rect class="st0" x="1796" y="1940" width="200" height="200"/>
    </clipPath>
    <clipPath id="clippath-13">
      <rect class="st0" x="1796" y="2275" width="200" height="200"/>
    </clipPath>
    <clipPath id="clippath-14">
      <rect class="st0" x="1796" y="2610" width="200" height="200"/>
    </clipPath>
    <clipPath id="clippath-15">
      <rect class="st0" x="1447" y="600" width="200" height="200"/>
    </clipPath>
    <clipPath id="clippath-16">
      <rect class="st0" x="1447" y="935" width="200" height="200"/>
    </clipPath>
    <clipPath id="clippath-17">
      <rect class="st0" x="1447" y="1270" width="200" height="200"/>
    </clipPath>
    <clipPath id="clippath-18">
      <rect class="st0" x="1098" y="1605" width="200" height="200"/>
    </clipPath>
    <clipPath id="clippath-19">
      <rect class="st0" x="400" y="3291" width="200" height="200"/>
    </clipPath>
    <clipPath id="clippath-20">
      <rect class="st0" x="400" y="3572" width="200" height="200"/>
    </clipPath>
    <clipPath id="clippath-21">
      <rect class="st0" x="400" y="3853" width="200" height="200"/>
    </clipPath>
    <clipPath id="clippath-22">
      <rect class="st0" x="400" y="3010" width="200" height="200"/>
    </clipPath>
    <clipPath id="clippath-23">
      <rect class="st0" x="1796" y="2945" width="200" height="200"/>
    </clipPath>
    <clipPath id="clippath-24">
      <rect class="st0" x="749" y="600" width="200" height="200"/>
    </clipPath>
    <clipPath id="clippath-25">
      <rect class="st0" x="749" y="935" width="200" height="200"/>
    </clipPath>
    <clipPath id="clippath-26">
      <rect class="st0" x="749" y="1270" width="200" height="200"/>
    </clipPath>
    <clipPath id="clippath-27">
      <rect class="st0" x="749" y="1605" width="200" height="200"/>
    </clipPath>
    <clipPath id="clippath-28">
      <rect class="st0" x="1796" y="935" width="200" height="200"/>
    </clipPath>
    <clipPath id="clippath-29">
      <rect class="st0" x="2145" y="600" width="200" height="200"/>
    </clipPath>
    <clipPath id="clippath-30">
      <rect class="st0" x="2145" y="935" width="200" height="200"/>
    </clipPath>
    <clipPath id="clippath-31">
      <rect class="st0" x="2145" y="935" width="200" height="200"/>
    </clipPath>
    <clipPath id="clippath-32">
      <rect class="st0" x="3280" y="1270" width="200" height="200"/>
    </clipPath>
    <clipPath id="clippath-33">
      <rect class="st0" x="3280" y="600" width="200" height="200"/>
    </clipPath>
    <clipPath id="clippath-34">
      <rect class="st0" x="3280" y="935" width="200" height="200"/>
    </clipPath>
    <clipPath id="clippath-35">
      <rect class="st0" x="3280" y="1605" width="200" height="200"/>
    </clipPath>
    <clipPath id="clippath-36">
      <rect class="st0" x="6055" y="1270" width="200" height="200"/>
    </clipPath>
    <clipPath id="clippath-37">
      <rect class="st0" x="6055" y="2610" width="200" height="200"/>
    </clipPath>
    <clipPath id="clippath-38">
      <rect class="st0" x="6055" y="600" width="200" height="200"/>
    </clipPath>
    <clipPath id="clippath-39">
      <rect class="st0" x="6055" y="1940" width="200" height="200"/>
    </clipPath>
    <clipPath id="clippath-40">
      <rect class="st0" x="6055" y="935" width="200" height="200"/>
    </clipPath>
    <clipPath id="clippath-41">
      <rect class="st0" x="6055" y="2275" width="200" height="200"/>
    </clipPath>
    <clipPath id="clippath-42">
      <rect class="st0" x="6055" y="1605" width="200" height="200"/>
    </clipPath>
    <clipPath id="clippath-43">
      <rect class="st0" x="6055" y="2945" width="200" height="200"/>
    </clipPath>
    <clipPath id="clippath-44">
      <rect class="st0" x="2931" y="1605" width="200" height="200"/>
    </clipPath>
    <clipPath id="clippath-45">
      <rect class="st0" x="2931" y="1932" width="200" height="200"/>
    </clipPath>
    <clipPath id="clippath-46">
      <rect class="st0" x="2931" y="1932" width="200" height="200"/>
    </clipPath>
    <clipPath id="clippath-47">
      <rect class="st0" x="2494" y="2945" width="200" height="200"/>
    </clipPath>
    <clipPath id="clippath-48">
      <rect class="st0" x="3280" y="1940" width="200" height="200"/>
    </clipPath>
    <clipPath id="clippath-49">
      <rect class="st0" x="3280" y="2275" width="200" height="200"/>
    </clipPath>
    <clipPath id="clippath-50">
      <rect class="st0" x="3280" y="2610" width="200" height="200"/>
    </clipPath>
    <clipPath id="clippath-51">
      <rect class="st0" x="3280" y="2945" width="200" height="200"/>
    </clipPath>
    <clipPath id="clippath-52">
      <rect class="st0" x="3978" y="935" width="200" height="200"/>
    </clipPath>
    <clipPath id="clippath-53">
      <rect class="st0" x="3629" y="935" width="200" height="200"/>
    </clipPath>
    <clipPath id="clippath-54">
      <rect class="st0" x="3629" y="2275" width="200" height="200"/>
    </clipPath>
    <clipPath id="clippath-55">
      <rect class="st0" x="3979" y="1270" width="200" height="200"/>
    </clipPath>
    <clipPath id="clippath-56">
      <rect class="st0" x="3630" y="1270" width="200" height="200"/>
    </clipPath>
    <clipPath id="clippath-57">
      <rect class="st0" x="3630" y="2610" width="200" height="200"/>
    </clipPath>
    <clipPath id="clippath-58">
      <rect class="st0" x="3979" y="1594" width="200" height="200"/>
    </clipPath>
    <clipPath id="clippath-59">
      <rect class="st0" x="2494" y="935" width="200" height="200"/>
    </clipPath>
    <clipPath id="clippath-60">
      <rect class="st0" x="2494" y="1270" width="200" height="200"/>
    </clipPath>
    <clipPath id="clippath-61">
      <rect class="st0" x="2494" y="1605" width="200" height="200"/>
    </clipPath>
    <clipPath id="clippath-62">
      <rect class="st0" x="2494" y="1940" width="200" height="200"/>
    </clipPath>
    <clipPath id="clippath-63">
      <rect class="st0" x="2494" y="2275" width="200" height="200"/>
    </clipPath>
    <clipPath id="clippath-64">
      <rect class="st0" x="2494" y="2610" width="200" height="200"/>
    </clipPath>
    <clipPath id="clippath-65">
      <rect class="st0" x="400" y="600" width="200" height="200"/>
    </clipPath>
    <clipPath id="clippath-66">
      <rect class="st0" x="400" y="909" width="200" height="200"/>
    </clipPath>
    <clipPath id="clippath-67">
      <rect class="st0" x="400" y="1832" width="200" height="200"/>
    </clipPath>
    <clipPath id="clippath-68">
      <rect class="st0" x="400" y="2167" width="200" height="200"/>
    </clipPath>
    <clipPath id="clippath-69">
      <rect class="st0" x="3979" y="1940" width="200" height="200"/>
    </clipPath>
    <clipPath id="clippath-70">
      <rect class="st0" x="3979" y="1940" width="200" height="200"/>
    </clipPath>
    <clipPath id="clippath-71">
      <rect class="st0" x="3979" y="1940" width="200" height="200"/>
    </clipPath>
    <clipPath id="clippath-72">
      <rect class="st0" x="3979" y="3589" width="200" height="200"/>
    </clipPath>
    <clipPath id="clippath-73">
      <rect class="st0" x="3979" y="2275" width="200" height="200"/>
    </clipPath>
    <clipPath id="clippath-74">
      <rect class="st0" x="3979" y="2610" width="200" height="200"/>
    </clipPath>
    <clipPath id="clippath-75">
      <rect class="st0" x="3979" y="2945" width="200" height="200"/>
    </clipPath>
    <clipPath id="clippath-76">
      <rect class="st0" x="3978" y="3254" width="200" height="200"/>
    </clipPath>
    <clipPath id="clippath-77">
      <rect class="st0" x="3978" y="3254" width="200" height="200"/>
    </clipPath>
    <clipPath id="clippath-78">
      <rect class="st0" x="4683" y="2945" width="200" height="200"/>
    </clipPath>
    <clipPath id="clippath-79">
      <rect class="st0" x="4683" y="3254" width="200" height="200"/>
    </clipPath>
    <clipPath id="clippath-80">
      <rect class="st0" x="4683" y="3562" width="200" height="200"/>
    </clipPath>
    <clipPath id="clippath-81">
      <rect class="st0" x="3628" y="1605" width="200" height="200"/>
    </clipPath>
    <clipPath id="clippath-82">
      <rect class="st0" x="3630" y="2945" width="200" height="200"/>
    </clipPath>
    <clipPath id="clippath-83">
      <rect class="st0" x="4325" y="4794" width="200" height="200"/>
    </clipPath>
    <clipPath id="clippath-84">
      <rect class="st0" x="400" y="2448" width="200" height="200"/>
    </clipPath>
    <clipPath id="clippath-85">
      <rect class="st0" x="4325" y="5102" width="200" height="200"/>
    </clipPath>
    <clipPath id="clippath-86">
      <rect class="st0" x="4325" y="1605" width="200" height="200"/>
    </clipPath>
    <clipPath id="clippath-87">
      <rect class="st0" x="400" y="1218" width="200" height="200"/>
    </clipPath>
    <clipPath id="clippath-88">
      <rect class="st0" x="400" y="1527" width="200" height="200"/>
    </clipPath>
    <clipPath id="clippath-89">
      <rect class="st0" x="4325" y="3254" width="200" height="200"/>
    </clipPath>
    <clipPath id="clippath-90">
      <rect class="st0" x="4325" y="4486" width="200" height="200"/>
    </clipPath>
    <clipPath id="clippath-91">
      <rect class="st0" x="4325" y="2945" width="200" height="200"/>
    </clipPath>
    <clipPath id="clippath-92">
      <rect class="st0" x="4673" y="1940" width="200" height="200"/>
    </clipPath>
    <clipPath id="clippath-93">
      <rect class="st0" x="4673" y="2610" width="200" height="200"/>
    </clipPath>
    <clipPath id="clippath-94">
      <rect class="st0" x="5708" y="600" width="200" height="200"/>
    </clipPath>
    <clipPath id="clippath-95">
      <rect class="st0" x="5708" y="935" width="200" height="200"/>
    </clipPath>
    <clipPath id="clippath-96">
      <rect class="st0" x="5708" y="1270" width="200" height="200"/>
    </clipPath>
    <clipPath id="clippath-97">
      <rect class="st0" x="5708" y="1605" width="200" height="200"/>
    </clipPath>
    <clipPath id="clippath-98">
      <rect class="st0" x="4673" y="2275" width="200" height="200"/>
    </clipPath>
    <clipPath id="clippath-99">
      <rect class="st0" x="4979" y="600" width="200" height="200"/>
    </clipPath>
    <clipPath id="clippath-100">
      <rect class="st0" x="5019" y="2275" width="200" height="200"/>
    </clipPath>
    <clipPath id="clippath-101">
      <rect class="st0" x="5019" y="1605" width="200" height="200"/>
    </clipPath>
    <clipPath id="clippath-102">
      <rect class="st0" x="5019" y="2610" width="200" height="200"/>
    </clipPath>
    <clipPath id="clippath-103">
      <rect class="st0" x="4673" y="1605" width="200" height="200"/>
    </clipPath>
  </defs>
  <rect class="st5" x="1098" y="1940" width="200" height="200"/>
  <path class="st111" d="M1148,1990c0-27.61,22.39-50,50-50s50,22.39,50,50v100c0,27.61-22.39,50-50,50s-50-22.39-50-50v-100Z"/>
  <circle class="st5" cx="1198" cy="2086.33" r="33.33"/>
  <rect class="st5" x="5326" y="600" width="200" height="200"/>
  <rect class="st5" x="5326" y="600" width="200" height="200"/>
  <rect class="st5" x="5326" y="935" width="200" height="200"/>
  <rect class="st5" x="5326" y="935" width="200" height="200"/>
  <rect class="st5" x="5346" y="967.5" width="15.83" height="15.83"/>
  <path class="st111" d="M5346,1135h20v-200h-20v200Z"/>
  <path class="st111" d="M5506,1135h20v-200h-20v200Z"/>
  <path class="st6" d="M5406,1135h-20v-200h20v55.99c0,1.65,1.9,2.61,3.29,1.73.5-.31,1-.62,1.51-.91,8.21-4.8,15.2-12.64,15.2-22.15v-34.65h20v34.65c0,9.51,6.99,17.35,15.2,22.15.51.3,1.01.6,1.51.91,1.39.88,3.29-.08,3.29-1.73v-55.99h20v200h-20v-55.99c0-1.65-1.9-2.61-3.29-1.73-.5.31-1,.62-1.51.91-8.21,4.8-15.2,12.64-15.2,22.15v34.65h-20v-34.65c0-9.51-6.99-17.35-15.2-22.15-.51-.3-1.01-.6-1.51-.91-1.39-.88-3.29.08-3.29,1.73v55.99Z"/>
  <rect class="st5" x="5326" y="1270" width="200" height="200"/>
  <path class="st111" d="M5386,1470h20v-200h-20v200Z"/>
  <path class="st111" d="M5466,1470h20v-200h-20v200Z"/>
  <path class="st6" d="M5456.11,1384.85c-4.72,6.39-10.11,13.21-10.11,21.16v63.99h-20v-63.99c0-7.95-5.39-14.77-10.11-21.16-3.07-4.15-4.89-9.29-4.89-14.85s1.82-10.7,4.89-14.85c4.72-6.39,10.11-13.21,10.11-21.16v-63.99h20v63.99c0,7.95,5.39,14.77,10.11,21.16,3.07,4.15,4.89,9.29,4.89,14.85s-1.82,10.7-4.89,14.85Z"/>
  <path class="st111" d="M5346,1470h20v-200h-20v200Z"/>
  <path class="st111" d="M5506,1470h20v-200h-20v200Z"/>
  <rect class="st5" x="5326" y="1605" width="200" height="200"/>
  <path class="st111" d="M5386,1805h20v-200h-20v200Z"/>
  <path class="st111" d="M5426,1805h20v-200h-20v200Z"/>
  <path class="st111" d="M5466,1805h20v-200h-20v200Z"/>
  <path class="st111" d="M5346,1805h20v-200h-20v200Z"/>
  <path class="st111" d="M5506,1805h20v-200h-20v200Z"/>
  <rect class="st5" x="5327" y="4513" width="200" height="200"/>
  <path class="st111" d="M5372,4713h20v-200h-20v200Z"/>
  <path class="st111" d="M5417,4713h20v-200h-20v200Z"/>
  <path class="st111" d="M5462,4713h20v-200h-20v200Z"/>
  <path class="st111" d="M5327,4713h20v-200h-20v200Z"/>
  <path class="st111" d="M5507,4713h20v-200h-20v200Z"/>
  <rect class="st5" x="5326" y="2610" width="200" height="200"/>
  <path class="st6" d="M5351,2810v-200h10v200h-10Z"/>
  <path class="st6" d="M5391,2810v-200h10v200h-10Z"/>
  <path class="st6" d="M5431,2810v-200h10v200h-10Z"/>
  <path class="st6" d="M5471,2810v-200h10v200h-10Z"/>
  <path class="st6" d="M5511,2810v-200h10v200h-10Z"/>
  <rect class="st5" x="5326" y="3870" width="200" height="200"/>
  <path class="st6" d="M5336,4070v-200h5v200h-5Z"/>
  <path class="st6" d="M5446,4070v-200h5v200h-5Z"/>
  <path class="st6" d="M5361,4070v-200h5v200h-5Z"/>
  <path class="st6" d="M5466,4070v-200h5v200h-5Z"/>
  <path class="st6" d="M5386,4070v-200h5v200h-5Z"/>
  <path class="st6" d="M5486,4070v-200h5v200h-5Z"/>
  <path class="st6" d="M5406,4070v-200h5v200h-5Z"/>
  <path class="st6" d="M5501,4070v-200h5v200h-5Z"/>
  <path class="st6" d="M5516,4070v-200h5v200h-5Z"/>
  <path class="st6" d="M5426,4070v-200h5v200h-5Z"/>
  <rect class="st5" x="5326" y="4178" width="200" height="200"/>
  <path class="st6" d="M5426,4349.23c39.34,0,71.23-31.89,71.23-71.23s-31.89-71.23-71.23-71.23-71.23,31.89-71.23,71.23,31.89,71.23,71.23,71.23ZM5426,4353c41.42,0,75-33.58,75-75s-33.58-75-75-75-75,33.58-75,75,33.58,75,75,75Z"/>
  <rect class="st5" x="5326" y="2945" width="200" height="200"/>
  <path class="st111" d="M5427,3088c0,6.08-4.92,11-11,11s-11-4.92-11-11,4.92-11,11-11,11,4.92,11,11Z"/>
  <path class="st6" d="M5351,3145v-200h10v200h-10Z"/>
  <path class="st6" d="M5391,3145v-200h10v200h-10Z"/>
  <path class="st6" d="M5431,3145v-200h10v200h-10Z"/>
  <path class="st6" d="M5471,3145v-200h10v200h-10Z"/>
  <path class="st6" d="M5511,3145v-200h10v200h-10Z"/>
  <rect class="st5" x="5326" y="1940" width="200" height="200"/>
  <g class="st112">
    <g>
      <path class="st111" d="M5326.01,1940h0v200h200c-110.12,0-199.99-89.58-199.99-200Z"/>
      <path class="st6" d="M5366,1940c0,88.37,71.63,160,160,160v20c-99.41,0-180-80.59-180-180h20Z"/>
    </g>
  </g>
  <path class="st6" d="M5406,1940c0,66.27,53.73,120,120,120v20c-77.32,0-140-62.68-140-140h20Z"/>
  <path class="st6" d="M5446,1940c0,44.18,35.82,80,80,80v20c-55.23,0-100-44.77-100-100h20Z"/>
  <path class="st6" d="M5486,1940c0,22.09,17.91,40,40,40v20c-33.14,0-60-26.86-60-60h20Z"/>
  <path class="st6" d="M5506,1940h20v20c-11.05,0-20-8.95-20-20Z"/>
  <g class="st97">
    <g>
      <path class="st3" d="M5486,5093.99h20c0-11.05,8.95-20,20-20v-20c-22.09,0-40,17.91-40,40Z"/>
      <path class="st3" d="M5446,5093.99h20c0-33.14,26.86-60,60-60v-20c-44.18,0-80,35.82-80,80Z"/>
      <path class="st3" d="M5406,5093.99h20c0-55.23,44.77-100,100-100v-20c-66.27,0-120,53.73-120,120Z"/>
      <path class="st3" d="M5366,5093.99h20c0-77.32,62.68-140,140-140v-20c-88.37,0-160,71.63-160,160Z"/>
      <path class="st3" d="M5326,5093.99h20c0-99.41,80.59-180,180-180v-19.99c-110.42,0-200,89.87-200,199.99Z"/>
    </g>
  </g>
  <rect class="st5" x="5326" y="3562" width="200" height="200"/>
  <path class="st111" d="M5326.01,3562h0v200h200c-110.12,0-199.99-89.58-199.99-200Z"/>
  <path class="st6" d="M5505.93,3761c-94.2-9.44-169.52-84.58-178.93-179-.66-6.58-.99-13.25-.99-20h0v200h200c-6.77,0-13.47-.34-20.07-1ZM5497.61,3761c-88.08-12.51-158.1-82.39-170.61-170.65v170.65h170.61Z"/>
  <path class="st6" d="M5361,3562c0,91.13,73.87,165,165,165v10c-96.65,0-175-78.35-175-175h10Z"/>
  <path class="st6" d="M5401,3562c0,69.04,55.96,125,125,125v10c-74.56,0-135-60.44-135-135h10Z"/>
  <path class="st6" d="M5441,3562c0,46.94,38.06,85,85,85v10c-52.47,0-95-42.53-95-95h10Z"/>
  <path class="st6" d="M5481,3562c0,24.85,20.15,45,45,45v10c-30.38,0-55-24.62-55-55h10Z"/>
  <path class="st6" d="M5521,3562c0,2.76,2.24,5,5,5v10c-8.28,0-15-6.72-15-15h10Z"/>
  <rect class="st5" x="5326" y="3254" width="200" height="200"/>
  <path class="st111" d="M5403,3321c0,6.08-4.92,11-11,11s-11-4.92-11-11,4.92-11,11-11,11,4.92,11,11Z"/>
  <path class="st111" d="M5526,3363c0,6.08-4.92,11-11,11s-11-4.92-11-11,4.92-11,11-11,11,4.92,11,11Z"/>
  <path class="st111" d="M5326.01,3254h0v200h200c-110.12,0-199.99-89.58-199.99-200Z"/>
  <path class="st6" d="M5505.93,3453c-94.2-9.44-169.52-84.58-178.93-179-.66-6.58-.99-13.25-.99-20h0v200h200c-6.77,0-13.47-.34-20.07-1ZM5497.61,3453c-88.08-12.51-158.1-82.39-170.61-170.65v170.65h170.61Z"/>
  <path class="st6" d="M5361,3254c0,91.13,73.87,165,165,165v10c-96.65,0-175-78.35-175-175h10Z"/>
  <path class="st6" d="M5401,3254c0,69.04,55.96,125,125,125v10c-74.56,0-135-60.44-135-135h10Z"/>
  <path class="st6" d="M5441,3254c0,46.94,38.06,85,85,85v10c-52.47,0-95-42.53-95-95h10Z"/>
  <path class="st6" d="M5481,3254c0,24.85,20.15,45,45,45v10c-30.38,0-55-24.62-55-55h10Z"/>
  <path class="st6" d="M5521,3254c0,2.76,2.24,5,5,5v10c-8.28,0-15-6.72-15-15h10Z"/>
  <g class="st100">
    <g>
      <rect class="st5" x="5019" y="935" width="200" height="200"/>
      <path class="st111" d="M5219,935c0,55.23-22.38,105.23-58.58,141.42-36.19,36.2-86.19,58.58-141.42,58.58h200v-200Z"/>
      <path class="st111" d="M5160.67,1035c0-23.02-18.66-41.67-41.67-41.67s-41.67,18.65-41.67,41.67,18.66,41.67,41.67,41.67c11.51,0,21.92-4.66,29.46-12.2,7.54-7.54,12.21-17.96,12.21-29.46Z"/>
      <path class="st111" d="M5119.03,935.03l-99.97-.03-.03,100c55.21.02,99.98-44.74,100-99.97Z"/>
    </g>
  </g>
  <g class="st98">
    <g>
      <rect class="st5" x="5019" y="1940" width="200" height="200"/>
      <path class="st111" d="M5219,1940c0,55.23-22.38,105.23-58.58,141.42-36.19,36.2-86.19,58.58-141.42,58.58h200v-200Z"/>
      <path class="st111" d="M5119.03,1940.03l-99.97-.03-.03,100c55.21.02,99.98-44.74,100-99.97Z"/>
    </g>
  </g>
  <rect class="st5" x="5019" y="1270" width="200" height="200"/>
  <path class="st111" d="M5160.67,1370c0-23.02-18.66-41.67-41.67-41.67s-41.67,18.65-41.67,41.67,18.66,41.67,41.67,41.67c11.51,0,21.92-4.66,29.46-12.2,7.54-7.54,12.21-17.96,12.21-29.46Z"/>
  <path class="st111" d="M5119.03,1270.03l-99.97-.03-.03,100c55.21.02,99.98-44.74,100-99.97Z"/>
  <rect class="st5" x="4673" y="600" width="200" height="200"/>
  <path class="st111" d="M4723,600h-50v50c0-27.61,22.39-50,50-50Z"/>
  <rect class="st5" x="5019" y="2945" width="200" height="200"/>
  <path class="st111" d="M5119,2945h-100v100c0-55.23,44.77-100,100-100Z"/>
  <path class="st111" d="M5081.5,2970c-20.71,0-37.5,16.79-37.5,37.5s16.79,37.5,37.5,37.5c10.36,0,19.73-4.2,26.52-10.98,6.78-6.79,10.98-16.16,10.98-26.52,0-20.71-16.79-37.5-37.5-37.5Z"/>
  <g class="st99">
    <g>
      <rect class="st5" x="5019" y="3254" width="200" height="200"/>
      <path class="st111" d="M5119,3254h-100v100c0-55.23,44.77-100,100-100Z"/>
      <path class="st111" d="M5069,3404c0-27.61-22.38-50-50-50v100c27.62,0,50-22.39,50-50Z"/>
    </g>
  </g>
  <rect class="st5" x="4672" y="1270" width="200" height="200"/>
  <path class="st111" d="M4822,1270h-150v150c0-82.84,67.16-150,150-150Z"/>
  <rect class="st5" x="4672" y="935" width="200" height="200"/>
  <path class="st111" d="M4772,935h-100v100c0-55.23,44.77-100,100-100Z"/>
  <rect class="st5" x="4325" y="600" width="200" height="200"/>
  <path class="st111" d="M4375,600.01h-49.99s-.01,49.99-.01,49.99c27.61,0,49.99-22.37,50-49.99Z"/>
  <g class="st105">
    <g>
      <rect class="st5" x="3978" y="600" width="200" height="200"/>
      <path class="st111" d="M4178,600l-200,50v-50h200Z"/>
    </g>
  </g>
  <g class="st102">
    <g>
      <rect class="st5" x="3629" y="600" width="200" height="200"/>
      <path class="st111" d="M3829,600v50l-200,50v-100h200Z"/>
    </g>
  </g>
  <g class="st101">
    <g>
      <rect class="st5" x="3629" y="1940" width="200" height="200"/>
      <path class="st111" d="M3729,1940v50l-100,50v-100h100Z"/>
    </g>
  </g>
  <g class="st104">
    <g>
      <rect class="st5" x="2494" y="600" width="200" height="200"/>
      <path class="st111" d="M2694,600v50l-200,50v-100h200Z"/>
      <path class="st111" d="M2694,600v50l-200,50v-100h200Z"/>
      <path class="st111" d="M2494,800l200-50v50h-200Z"/>
    </g>
  </g>
  <g class="st103">
    <g>
      <rect class="st5" x="1796" y="600" width="200" height="200"/>
      <path class="st111" d="M1960.28,772.25c-8.28-23.3-34.89-34.32-57.23-23.7-35.46,16.86-72.46-20.14-55.6-55.6,10.62-22.33-.41-48.94-23.7-57.23-17.14-6.1-26.34-20.6-27.59-35.72h-.16s0,200,0,200h200v-.16c-15.12-1.26-29.62-10.45-35.72-27.59Z"/>
    </g>
  </g>
  <g class="st12">
    <g>
      <rect class="st5" x="1796" y="1270" width="200" height="200"/>
      <path class="st6" d="M1896.54,1349.2c7.87,10.78,15.17,20.79,29.92,20.8-14.75.02-22.05,10.03-29.92,20.8-9.18,12.58-19.12,26.2-42.54,26.2-33.87,0-56.59,37.88-57.84,53h-.16v-200h.16c1.25,15.12,23.97,53,57.84,53,23.42,0,33.36,13.62,42.54,26.2Z"/>
    </g>
  </g>
  <g class="st9">
    <g>
      <rect class="st5" x="1796" y="1605" width="200" height="200"/>
      <path class="st6" d="M1950.08,1684.2c12.06,10.77,23.26,20.78,45.86,20.8-22.6.02-33.8,10.03-45.86,20.8-14.07,12.58-29.3,26.2-65.19,26.2-51.91,0-86.73,37.88-88.65,53h-.24v-200h.24c1.92,15.12,36.74,53,88.65,53,35.89,0,51.12,13.62,65.19,26.2Z"/>
    </g>
  </g>
  <g class="st16">
    <g>
      <rect class="st5" x="1796" y="1940" width="200" height="200"/>
      <path class="st111" d="M2124.57,2284.5c-16.57-46.59-69.79-68.64-114.47-47.4-70.92,33.71-144.92-40.28-111.2-111.2,21.24-44.67-.81-97.89-47.4-114.47-34.28-12.19-52.68-41.19-55.19-71.43h-.31v400h400v-.31c-30.24-2.52-59.24-20.91-71.43-55.19Z"/>
    </g>
  </g>
  <g class="st14">
    <g>
      <rect class="st5" x="1796" y="2275" width="200" height="200"/>
      <path class="st111" d="M2124.57,2419.5c-16.57-46.59-69.79-68.64-114.47-47.4-70.92,33.71-144.92-40.28-111.2-111.2,21.24-44.67-.81-97.89-47.4-114.47-34.28-12.19-52.68-41.19-55.19-71.43h-.31v400h400v-.31c-30.24-2.52-59.24-20.91-71.43-55.19Z"/>
    </g>
  </g>
  <g class="st15">
    <g>
      <rect class="st5" x="1796" y="2610" width="200" height="200"/>
      <path class="st111" d="M1924.57,2754.5c-16.57-46.59-69.79-68.64-114.47-47.4-70.92,33.71-144.92-40.28-111.2-111.2,21.24-44.67-.81-97.89-47.4-114.47-34.28-12.19-52.68-41.19-55.19-71.43h-.31v400h400v-.31c-30.24-2.52-59.24-20.91-71.43-55.19Z"/>
    </g>
  </g>
  <g class="st13">
    <g>
      <rect class="st5" x="1447" y="600" width="200" height="200"/>
      <path class="st111" d="M1597,700h50c0-55.23-44.77-100-100-100s-100,44.77-100,100h50c0,27.62,22.38,50,50,50s50-22.38,50-50Z"/>
    </g>
  </g>
  <g class="st10">
    <g>
      <rect class="st5" x="1447" y="935" width="200" height="200"/>
      <path class="st111" d="M1597,1035h50c0-55.23-44.77-100-100-100s-100,44.77-100,100h150Z"/>
      <path class="st111" d="M1492,1135h20v-100h-20v100Z"/>
      <path class="st111" d="M1537,1135h20v-100h-20v100Z"/>
      <path class="st111" d="M1582,1135h20v-100h-20v100Z"/>
      <path class="st111" d="M1447,1135h20v-100h-20v100Z"/>
      <path class="st111" d="M1627,1135h20v-100h-20v100Z"/>
    </g>
  </g>
  <g class="st7">
    <g>
      <rect class="st5" x="1447" y="1270" width="200" height="200"/>
      <rect class="st5" x="1447" y="1370" width="200" height="100"/>
      <path class="st6" d="M1647,1470h-20v-100h20v100ZM1547.03,1370l99.97-.03s-44.76.01-99.97.03ZM1547.03,1370h15.97v100h-20v-100h-22v100h-20v-100h-22v100h-20v-100h88.03ZM1605,1470h-20v-100h20v100Z"/>
      <path class="st111" d="M1647,1369.97l-200,.03v-100h100c55.21-.02,99.98,44.74,100,99.97Z"/>
    </g>
  </g>
  <rect class="st5" x="1098" y="600" width="200" height="200"/>
  <path class="st111" d="M1231,716.67h33.33c0-36.82-29.85-66.67-66.67-66.67s-66.67,29.85-66.67,66.67h33.33c0,18.41,14.92,33.33,33.33,33.33s33.33-14.92,33.33-33.33Z"/>
  <rect class="st5" x="1098" y="935" width="200" height="200"/>
  <ellipse class="st111" cx="1198" cy="1035" rx="50" ry="75"/>
  <rect class="st5" x="1098" y="1270" width="200" height="200"/>
  <ellipse class="st111" cx="1198" cy="1370" rx="50" ry="100"/>
  <g class="st11">
    <g>
      <rect class="st5" x="1098" y="1605" width="200" height="200"/>
      <ellipse class="st111" cx="1198" cy="1705" rx="50" ry="100"/>
      <circle class="st5" cx="1198" cy="1705" r="33.33"/>
    </g>
  </g>
  <rect class="st5" x="1098" y="2945" width="200" height="200"/>
  <ellipse class="st111" cx="1198" cy="3045" rx="50" ry="75"/>
  <circle class="st5" cx="1198" cy="3065" r="33.33"/>
  <rect class="st5" x="400" y="2729" width="200" height="200"/>
  <path class="st6" d="M456.69,2879c2.11,7.3,4.67,14.02,7.6,20h-64.29v20h78.18c6.59,6.41,14,10,21.82,10,27.61,0,50-44.77,50-100s-22.39-100-50-100c-7.82,0-15.23,3.59-21.82,10h-78.18v20s64.29,0,64.29,0c-2.93,5.98-5.49,12.7-7.6,20h-56.69v20s52.29,0,52.29,0c-1.01,6.41-1.7,13.1-2.04,20h-50.25v20s50.25,0,50.25,0c.34,6.9,1.04,13.59,2.04,20h-52.29v20h56.69Z"/>
  <circle class="st5" cx="500" cy="2829" r="33.33"/>
  <g class="st8">
    <g>
      <rect class="st5" x="400" y="3291" width="200" height="200"/>
      <path class="st111" d="M600,3491h-150c0-82.84,67.16-150,150-150v150Z"/>
      <path class="st5" d="M600,3491h-75c0-41.42,33.58-75,75-75v75Z"/>
    </g>
  </g>
  <g class="st60">
    <g>
      <rect class="st111" x="400" y="3572" width="200" height="200"/>
      <path class="st5" d="M600,3572v150c-82.84,0-150-67.16-150-150h150Z"/>
      <path class="st6" d="M600,3572h-75c0,23.99,11.26,45.34,28.79,59.07,1.52,1.2.78,3.77-1.15,3.84-10.1.34-21.13.46-30.15.57-.85.01-1.68.02-2.48.03-30,0-30,5.99-30,8.49,0,.02,0,.03.02.05-.01.02-.02.04-.02.05,0,2.48,0,8.43,30,8.43.81.01,1.64.02,2.48.03,23.11.26,59.42.67,59.52,4.44h18v-85Z"/>
      <path class="st6" d="M582,3749c-.1,6.73-36.41,7.46-59.52,7.92-.85.02-1.68.04-2.48.05-30,0-30,15.03-30,15.03h110v-23h-18Z"/>
      <path class="st6" d="M582,3703c-.1,6.73-36.41,7.46-59.52,7.92-.85.02-1.68.04-2.48.05-30,0-30,15.03-30,15.03h110v-23h-18Z"/>
      <path class="st6" d="M582,3657c-.1,6.73-36.41,7.46-59.52,7.92-.85.02-1.68.04-2.48.05-30,0-30,15.03-30,15.03h110v-23h-18Z"/>
      <path class="st6" d="M582,3703c-.1-6.73-36.41-7.46-59.52-7.92-.85-.02-1.68-.04-2.48-.05-30,0-30-15.03-30-15.03h110v23h-18Z"/>
      <path class="st6" d="M582,3749c-.1-6.73-36.41-7.46-59.52-7.92-.85-.02-1.68-.04-2.48-.05-30,0-30-15.03-30-15.03h110v23h-18Z"/>
    </g>
  </g>
  <g class="st61">
    <g>
      <rect class="st5" x="400" y="3853" width="200" height="200"/>
      <path class="st2" d="M549,3953c0,55.22-9.52,100-21.28,100-5.97,0-11.39-11.66-15.25-30.43-.63-3.05-5.92-3.16-6.72-.14-4.97,18.85-11.94,30.57-19.67,30.57-5.71,0-11.01-6.4-15.38-17.33-1.17-2.92-6.01-3.03-7.39-.19-5.36,11.05-11.85,17.52-18.88,17.52-18.46,0-33.42-44.78-33.42-100s14.96-100,33.42-100c7.03,0,13.51,6.47,18.88,17.52,1.38,2.84,6.22,2.73,7.39-.19,4.37-10.93,9.67-17.33,15.38-17.33,7.72,0,14.7,11.72,19.67,30.57.79,3.02,6.09,2.91,6.72-.14,3.88-18.77,9.29-30.43,15.25-30.43,11.76,0,21.28,44.78,21.28,100Z"/>
      <path class="st2" d="M583,3953c0,55.22-6.5,100-14.5,100s-14.5-44.78-14.5-100,6.5-100,14.5-100,14.5,44.78,14.5,100Z"/>
      <path class="st2" d="M615,3953c0,55.22-6.5,100-14.5,100s-14.5-44.78-14.5-100,6.5-100,14.5-100,14.5,44.78,14.5,100Z"/>
    </g>
  </g>
  <g class="st62">
    <g>
      <rect class="st5" x="400" y="3010" width="200" height="200"/>
      <path class="st111" d="M400,3210c0-82.84,0-150,0-150,82.84,0,150,67.16,150,150h-150Z"/>
      <path class="st5" d="M400,3210c0-41.42,0-75,0-75,41.42,0,75,33.58,75,75h-75Z"/>
      <path class="st111" d="M600,3210v-200h-200c110.46,0,200,89.54,200,200Z"/>
    </g>
  </g>
  <g class="st63">
    <g>
      <rect class="st5" x="1796" y="2945" width="200" height="200"/>
      <path class="st6" d="M2051.22,2974.89c-21.59-.62-37.99,0-37.99-7.39,0-6.33,17.57-6.98,40.28-7.45,25.49,0,52.49,1.12,52.49-7.51,0-7.51-16.18-7.51-41.67-7.51-2,0-8.9-.01-10.84-.02h-57.49c-60.75-.01-57.51-.01-57.51-.01-2.06.02-8.67.03-10.82.03-25.3.03-41.67,0-41.67,0,0,0,0,15.02,30,15.02,22.72.47,61.9,1.12,61.9,7.45,0,7.39-16.39,6.77-37.99,7.39-25.49,0-53.91,0-53.91,14.99s26.13,14.99,51.62,14.99c22.72.94,40.28-.12,40.28,14.87s-20.43,14.92-45.74,14.99c-25.48,0-46.16,4.62-46.16,22.06s20.44,21.95,45.74,22.06h.42c25.31.11,45.74,9.94,45.74,22.05s-20.43,21.94-45.74,22.06h-.42c-25.3.11-45.74,9.87-45.74,22.05s20.68,22.05,46.16,22.05h.44c25.5,0,46.17,9.87,46.17,22.06s-20.67,22.05-46.17,22.05h-.44c-25.48,0-46.16,9.89-46.16,22.06s20.68,22.06,46.16,22.06h.44c25.5,0,46.17,6.71,46.17,14.99,0,7.63-17.57,13.93-40.28,14.87h-6.33c-25.48,0-46.16,6.71-46.16,14.99s20.68,14.99,46.16,14.99h8.62c21.59.63,37.99,3.56,37.99,7.39s-17.57,6.98-40.28,7.45h-6.33c-25.48,0-46.16,0-46.16,7.51s20.68,7.51,46.16,7.51h79.31s23.06.02,48.37,0h.42c25.3-.03,45.74,0,45.74-7.51s-20.67-7.51-46.16-7.51h-5.46c-22.72-.47-40.28-3.76-40.28-7.45s16.39-6.76,37.99-7.39h7.75c25.49,0,46.16-6.7,46.16-14.99s-20.67-14.99-46.16-14.99h-5.46c-22.72-.94-40.28-7.24-40.28-14.87,0-8.24,20.43-14.91,45.74-14.99h.42c25.3-.11,45.74-9.94,45.74-22.06s-20.44-21.94-45.74-22.06h-.42c-25.31-.11-45.74-9.94-45.74-22.05s20.43-21.94,45.74-22.06h.42c25.3-.11,45.74-9.87,45.74-22.05s-20.67-22.05-46.16-22.05h-.44c-25.5,0-46.17-9.87-46.17-22.06s20.67-22.05,46.17-22.05h.44c25.49,0,46.16-6.29,46.16-22.06s-20.67-22.06-46.16-22.06h-.44c-25.5,0-46.17,0-46.17-14.99s17.57-13.93,40.28-14.87h6.33c25.49,0,46.16,0,46.16-14.99s-20.67-14.99-46.16-14.99h-8.62Z"/>
    </g>
  </g>
  <rect class="st5" x="1098" y="2275" width="200" height="200"/>
  <path class="st111" d="M1148,2325c0-27.61,22.39-50,50-50s50,22.39,50,50v100c0,27.61-22.39,50-50,50s-50-22.39-50-50v-100Z"/>
  <g class="st64">
    <g>
      <rect class="st5" x="749" y="600" width="200" height="200"/>
      <path class="st5" d="M903,1016"/>
    </g>
  </g>
  <g class="st65">
    <g>
      <rect class="st5" x="749" y="935" width="200" height="200"/>
      <path class="st5" d="M903,681"/>
    </g>
  </g>
  <g class="st58">
    <g>
      <rect class="st5" x="749" y="1270" width="200" height="200"/>
      <path class="st5" d="M903,346"/>
    </g>
  </g>
  <g class="st56">
    <g>
      <rect class="st5" x="749" y="1605" width="200" height="200"/>
      <path class="st5" d="M903,11"/>
    </g>
  </g>
  <g class="st59">
    <g>
      <rect class="st5" x="1796" y="935" width="200" height="200"/>
      <path class="st111" d="M1960.26,962.61c-8.29,23.31-34.93,34.35-57.28,23.72-35.49-16.87-72.52,20.16-55.64,55.64,10.62,22.35-.41,48.98-23.73,57.28-17.15,6.1-26.35,20.61-27.61,35.74h200v-200c-15.13,1.26-29.64,10.46-35.74,27.61Z"/>
    </g>
  </g>
  <g class="st57">
    <g>
      <rect class="st5" x="2145" y="600" width="200" height="200"/>
      <path class="st6" d="M2246.05,600.01c-.2,0-.4,0-.6,0h0s-.01,0-.01,0h-.04s-.04,0-.04,0h-.01s-.04,0-.04,0h-.01s0,0,0,0h-.04s-.01,0-.01,0h-.03s-.02,0-.04,0c-.01,0-.02,0-.03,0,0,0-.01,0-.01,0h-.01s-.03,0-.04,0-.02,0-.03,0c-.02,0-.04,0-.06,0h-.06s-.03,0-.03,0c-.02,0-.05,0-.08,0-55.15.09-99.83,44.83-99.83,100s44.67,99.9,99.82,100h.63c.2,0,.39,0,.59,0h.07s.07,0,.07,0c54.68-.63,98.82-45.16,98.82-99.99s-44.16-99.38-98.86-99.99c-.03,0-.06,0-.09,0ZM2203.57,615.64c-21.51,17.76-35.77,48.9-35.77,84.36s14.27,66.61,35.78,84.37c-26.94-16.21-45.38-47.75-45.38-84.37s18.44-68.15,45.37-84.36ZM2278.02,614.25c18.43,17.49,30.76,49.35,30.76,85.75s-12.33,68.26-30.75,85.75c23.91-15.83,40.35-48.32,40.35-85.75s-16.44-69.93-40.36-85.75ZM2203.97,631.44c4.92-7.77,10.53-14.02,16.71-18.64-15.06,17.14-25.23,49.77-25.23,87.2s10.18,70.09,25.26,87.23c-6.19-4.62-11.81-10.88-16.74-18.65-5.61-8.84-10.01-19.16-13.1-30.68-3.21-11.99-4.84-24.74-4.84-37.89s1.63-25.9,4.84-37.89c3.09-11.52,7.49-21.84,13.1-30.68ZM2261.12,789.48c.15-.12.3-.25.44-.38,5.48-4.68,10.44-11.47,14.74-20.16,9.08-18.34,14.07-42.83,14.07-68.94s-4.99-50.59-14.07-68.94c-4.3-8.7-9.26-15.48-14.74-20.16-.14-.13-.29-.25-.44-.38,11.65,16.41,19.66,50.32,19.66,89.48s-8.01,73.06-19.66,89.48ZM2223.5,700c0-41.14,5.37-76.47,13.05-91.83-.7.67-1.4,1.43-2.1,2.26-3.87,4.6-7.53,11.59-10.59,20.2-6.57,18.47-10.18,43.1-10.18,69.37s3.61,50.9,10.18,69.37c3.06,8.61,6.72,15.59,10.59,20.2.7.83,1.4,1.59,2.1,2.26-7.68-15.35-13.05-50.69-13.05-91.83ZM2248.24,606.74c2.89,14.49,4.94,50.79,4.94,93.26s-2.05,78.77-4.94,93.26c2.31-3.32,5.43-10.19,8.29-23.4,4.03-18.62,6.25-43.43,6.25-69.86s-2.22-51.25-6.25-69.86c-2.86-13.21-5.98-20.08-8.29-23.4ZM2287.75,783.55c26.21-16.44,44.05-47.54,44.05-83.55s-17.84-67.12-44.06-83.56c20.97,17.88,34.81,48.63,34.81,83.56s-13.83,65.67-34.8,83.55ZM2213.62,613.41c-18.92,17.3-31.64,49.6-31.64,86.59s12.73,69.29,31.65,86.59c-24.62-15.49-41.66-48.49-41.66-86.59s17.04-71.09,41.65-86.59ZM2294.5,700c0,38.63-10.83,72.14-26.69,88.8,7.07-4.72,13.46-11.53,18.97-20.24,5.61-8.84,10.01-19.16,13.1-30.68,3.22-11.99,4.84-24.74,4.84-37.89s-1.62-25.9-4.84-37.89c-3.09-11.52-7.49-21.84-13.1-30.68-5.52-8.71-11.9-15.52-18.98-20.24h-.02c15.88,16.64,26.72,50.17,26.72,88.82ZM2229.79,790.25c-.47-.36-.93-.75-1.4-1.15-5.48-4.68-10.44-11.47-14.74-20.16-9.07-18.35-14.07-42.83-14.07-68.94s5-50.59,14.07-68.94c4.3-8.7,9.26-15.48,14.74-20.16.46-.4.93-.78,1.4-1.14-11.96,16.11-20.21,50.46-20.21,90.24s8.26,74.14,20.21,90.25ZM2255.9,789.57c-.7.83-1.4,1.59-2.1,2.26,7.68-15.35,13.06-50.69,13.06-91.83s-5.38-76.47-13.06-91.83c.7.67,1.4,1.43,2.1,2.26,3.87,4.6,7.54,11.59,10.6,20.2,6.56,18.47,10.18,43.1,10.18,69.37s-3.62,50.9-10.18,69.37c-3.06,8.61-6.73,15.59-10.6,20.2ZM2242.66,794.01c-2.35-2.98-5.74-9.85-8.84-24.15-4.02-18.62-6.24-43.43-6.24-69.86s2.22-51.25,6.24-69.86c3.1-14.3,6.49-21.17,8.84-24.15-2.96,13.96-5.08,50.78-5.08,94.01s2.12,80.05,5.08,94.01ZM2305.67,774.4c18.5-18.31,30.13-44.86,30.13-74.4s-11.63-56.1-30.13-74.41c21.56,17.6,35.33,44.4,35.33,74.41s-13.77,56.8-35.33,74.4ZM2184.33,774.4c-18.5-18.31-30.13-44.86-30.13-74.4s11.63-56.1,30.13-74.41c-21.56,17.6-35.33,44.4-35.33,74.41s13.77,56.8,35.33,74.4ZM2243.66,766.15c.56,8.15,1.16,14.19,1.72,18.65.56-4.46,1.15-10.49,1.71-18.65,1.25-18.22,1.94-41.72,1.94-66.15s-.69-47.93-1.94-66.15c-.56-8.15-1.15-14.19-1.71-18.65-.57,4.46-1.16,10.49-1.72,18.65-1.25,18.22-1.94,41.72-1.94,66.15s.69,47.93,1.94,66.15Z"/>
    </g>
  </g>
  <g class="st52">
    <g>
      <rect class="st5" x="2145" y="935" width="200" height="200"/>
      <g class="st46">
        <g>
          <path class="st111" d="M2152.5,949.64c.56,4.51,1.17,10.71,1.74,19.21,1.21,18.22,1.88,41.72,1.88,66.15s-.67,47.93-1.88,66.15c-.57,8.5-1.17,14.7-1.74,19.21-.56-4.51-1.17-10.71-1.74-19.21-1.21-18.22-1.88-41.72-1.88-66.15s.67-47.93,1.88-66.15c.57-8.5,1.17-14.7,1.74-19.21ZM2152.5,935c-4.14,0-7.5,44.77-7.5,100s3.36,100,7.5,100,7.5-44.77,7.5-100-3.36-100-7.5-100Z"/>
          <path class="st111" d="M2175.83,939c1.49,0,6.79,4.8,11.41,26.14,4.03,18.62,6.25,43.43,6.25,69.86s-2.22,51.25-6.25,69.86c-4.62,21.33-9.92,26.14-11.41,26.14s-6.78-4.8-11.4-26.14c-4.04-18.62-6.26-43.43-6.26-69.86s2.22-51.25,6.26-69.86c4.62-21.34,9.91-26.14,11.4-26.14ZM2175.83,935c-11.96,0-21.66,44.77-21.66,100s9.7,100,21.66,100,21.67-44.77,21.67-100-9.7-100-21.67-100Z"/>
          <path class="st111" d="M2198.75,939c3.55,0,7.16,2.16,10.74,6.43,3.85,4.6,7.5,11.59,10.55,20.2,6.54,18.47,10.14,43.1,10.14,69.37s-3.6,50.9-10.14,69.37c-3.05,8.61-6.7,15.59-10.55,20.2-3.58,4.27-7.19,6.43-10.74,6.43s-7.16-2.16-10.73-6.43c-3.86-4.6-7.51-11.59-10.56-20.2-6.54-18.47-10.14-43.1-10.14-69.37s3.6-50.9,10.14-69.37c3.05-8.61,6.7-15.59,10.56-20.2,3.57-4.27,7.18-6.43,10.73-6.43ZM2198.75,935c-19.56,0-35.42,44.77-35.42,100s15.86,100,35.42,100,35.42-44.77,35.42-100-15.86-100-35.42-100Z"/>
          <path class="st111" d="M2222.08,939c5.71,0,11.33,2.32,16.7,6.9,5.48,4.68,10.46,11.47,14.77,20.16,9.09,18.35,14.1,42.83,14.1,68.94s-5.01,50.59-14.1,68.94c-4.31,8.7-9.29,15.48-14.77,20.16-5.37,4.58-10.99,6.9-16.7,6.9s-11.32-2.32-16.69-6.9c-5.49-4.68-10.46-11.47-14.77-20.16-9.1-18.35-14.11-42.83-14.11-68.94s5.01-50.59,14.11-68.94c4.31-8.7,9.28-15.48,14.77-20.16,5.37-4.58,10.98-6.9,16.69-6.9ZM2222.08,935c-27.38,0-49.58,44.77-49.58,100s22.2,100,49.58,100,49.59-44.77,49.59-100-22.2-100-49.59-100Z"/>
          <path class="st111" d="M2244.58,939c7.8,0,15.39,2.42,22.58,7.18,7.12,4.72,13.55,11.54,19.1,20.24,5.64,8.84,10.07,19.16,13.17,30.68,3.24,11.99,4.88,24.74,4.88,37.89s-1.64,25.9-4.88,37.89c-3.1,11.52-7.53,21.84-13.17,30.68-5.55,8.71-11.98,15.52-19.1,20.24-7.19,4.77-14.78,7.18-22.58,7.18s-15.39-2.42-22.58-7.18c-7.12-4.72-13.55-11.54-19.1-20.24-5.64-8.84-10.07-19.16-13.17-30.68-3.24-11.99-4.88-24.74-4.88-37.89s1.64-25.9,4.88-37.89c3.1-11.52,7.53-21.84,13.17-30.68,5.55-8.71,11.98-15.52,19.1-20.24,7.19-4.77,14.78-7.18,22.58-7.18ZM2244.58,935c-35.21,0-63.75,44.77-63.75,100s28.54,100,63.75,100,63.75-44.77,63.75-100-28.54-100-63.75-100Z"/>
          <path class="st111" d="M2267.5,939c40.52,0,73.49,43.06,73.49,96s-32.97,96-73.49,96-73.49-43.06-73.49-96,32.97-96,73.49-96ZM2267.5,935c-42.81,0-77.5,44.77-77.5,100s34.7,100,77.5,100,77.5-44.77,77.5-100-34.7-100-77.5-100Z"/>
        </g>
      </g>
    </g>
  </g>
  <g class="st47">
    <g>
      <rect class="st5" x="3280" y="1270" width="200" height="200"/>
      <path class="st111" d="M3480,1270v100h-200v-100h200Z"/>
    </g>
  </g>
  <g class="st48">
    <g>
      <rect class="st5" x="3280" y="600" width="200" height="200"/>
      <path class="st111" d="M3480,600v10h-200v-10h200Z"/>
    </g>
  </g>
  <g class="st49">
    <g>
      <rect class="st5" x="3280" y="935" width="200" height="200"/>
      <path class="st111" d="M3480,935v50h-200v-50h200Z"/>
    </g>
  </g>
  <g class="st50">
    <g>
      <rect class="st5" x="3280" y="1605" width="200" height="200"/>
      <path class="st111" d="M3480,1605v150h-200v-150h200Z"/>
    </g>
  </g>
  <g class="st53">
    <g>
      <rect class="st5" x="6055" y="1270" width="200" height="200"/>
      <path class="st5" d="M6209,346"/>
    </g>
  </g>
  <g class="st54">
    <g>
      <rect class="st5" x="6055" y="2610" width="200" height="200"/>
      <path class="st5" d="M6209-994"/>
    </g>
  </g>
  <g class="st55">
    <g>
      <rect class="st5" x="6055" y="600" width="200" height="200"/>
      <path class="st5" d="M6209,1016"/>
    </g>
  </g>
  <g class="st51">
    <g>
      <rect class="st5" x="6055" y="1940" width="200" height="200"/>
      <path class="st111" d="M6255,1940s-30.29,10-100,10h-100v-10h200Z"/>
    </g>
  </g>
  <g class="st73">
    <g>
      <rect class="st5" x="6055" y="935" width="200" height="200"/>
      <path class="st5" d="M6209,681"/>
    </g>
  </g>
  <g class="st67">
    <g>
      <rect class="st5" x="6055" y="2275" width="200" height="200"/>
      <path class="st5" d="M6209-659"/>
    </g>
  </g>
  <g class="st68">
    <g>
      <rect class="st5" x="6055" y="1605" width="200" height="200"/>
      <path class="st5" d="M6209,11"/>
    </g>
  </g>
  <g class="st69">
    <g>
      <rect class="st5" x="6055" y="2945" width="200" height="200"/>
      <path class="st5" d="M6209-1329"/>
    </g>
  </g>
  <rect class="st5" x="2931" y="600" width="200" height="200"/>
  <path class="st111" d="M2981,600v50h-50v-50h50Z"/>
  <rect class="st5" x="2931" y="935" width="200" height="200"/>
  <path class="st111" d="M3031,935v100h-100v-100h100Z"/>
  <rect class="st5" x="2931" y="1270" width="200" height="200"/>
  <path class="st111" d="M3081,1270v150h-150v-150h150Z"/>
  <g class="st70">
    <g>
      <rect class="st5" x="2931" y="1605" width="200" height="200"/>
      <path class="st111" d="M3121,1605v190h-190v-190h190Z"/>
    </g>
  </g>
  <g class="st71">
    <g>
      <rect class="st5" x="2931" y="1932" width="200" height="200"/>
      <path class="st111" d="M3126,1937v190h-190v-190h190Z"/>
      <g class="st74">
        <g>
          <path class="st106" d="M3131,1932l-200,200v-200h200Z"/>
          <path class="st106" d="M3031,2132l100-100v100h-100Z"/>
        </g>
      </g>
    </g>
  </g>
  <rect class="st5" x="2931" y="2275" width="200" height="200"/>
  <path class="st111" d="M3106,2300v150h-150v-150h150Z"/>
  <rect class="st5" x="2931" y="2610" width="200" height="200"/>
  <path class="st111" d="M3081,2660v100h-100v-100h100Z"/>
  <rect class="st5" x="2931" y="2945" width="200" height="200"/>
  <path class="st111" d="M3056,3020v50h-50v-50h50Z"/>
  <g class="st75">
    <g>
      <rect class="st5" x="2494" y="2945" width="200" height="200"/>
      <path class="st111" d="M2594,2945v100h-100v-100h100Z"/>
      <path class="st111" d="M2694,3045v100h-100v-100h100Z"/>
    </g>
  </g>
  <g class="st76">
    <g>
      <rect class="st5" x="3280" y="1940" width="200" height="200"/>
      <path class="st111" d="M3480,2035v10h-200v-10h200Z"/>
    </g>
  </g>
  <g class="st72">
    <g>
      <rect class="st5" x="3280" y="2275" width="200" height="200"/>
      <path class="st111" d="M3480,2350v50h-200v-50h200Z"/>
    </g>
  </g>
  <g class="st30">
    <g>
      <rect class="st5" x="3280" y="2610" width="200" height="200"/>
      <path class="st111" d="M3480,2660v100h-200v-100h200Z"/>
    </g>
  </g>
  <g class="st43">
    <g>
      <rect class="st5" x="3280" y="2945" width="200" height="200"/>
      <path class="st111" d="M3480,2970v150h-200v-150h200Z"/>
    </g>
  </g>
  <g class="st32">
    <g>
      <rect class="st5" x="3978" y="935" width="200" height="200"/>
      <path class="st111" d="M4178,935l-200,100v-100h200Z"/>
    </g>
  </g>
  <g class="st36">
    <g>
      <rect class="st5" x="3629" y="935" width="200" height="200"/>
      <path class="st111" d="M3829,935v100l-200,50v-150h200Z"/>
    </g>
  </g>
  <g class="st34">
    <g>
      <rect class="st5" x="3629" y="2275" width="200" height="200"/>
      <path class="st111" d="M3729,2275v100l-100,50v-150h100Z"/>
    </g>
  </g>
  <g class="st31">
    <g>
      <rect class="st5" x="3979" y="1270" width="200" height="200"/>
      <path class="st111" d="M4179,1270l-200,150v-150h200Z"/>
    </g>
  </g>
  <g class="st35">
    <g>
      <rect class="st5" x="3630" y="1270" width="200" height="200"/>
      <path class="st111" d="M3830,1270v10l-200,90v-100h200Z"/>
    </g>
  </g>
  <g class="st33">
    <g>
      <rect class="st5" x="3630" y="2610" width="200" height="200"/>
      <path class="st111" d="M3730,2610v150l-100,50v-200h100Z"/>
    </g>
  </g>
  <g class="st44">
    <g>
      <rect class="st5" x="3979" y="1594" width="200" height="200"/>
      <path class="st111" d="M4179,1594l-200,200v-200h200Z"/>
    </g>
  </g>
  <g class="st45">
    <g>
      <rect class="st5" x="2494" y="935" width="200" height="200"/>
      <path class="st111" d="M2694,935l-200,200v-200h200Z"/>
      <path class="st111" d="M2544,1135l150-150v150h-150Z"/>
    </g>
  </g>
  <g class="st20">
    <g>
      <rect class="st5" x="2494" y="1270" width="200" height="200"/>
      <path class="st111" d="M2694,1270l-200,200v-200h200Z"/>
      <path class="st111" d="M2648,346"/>
    </g>
  </g>
  <g class="st17">
    <g>
      <rect class="st5" x="2494" y="1605" width="200" height="200"/>
      <path class="st111" d="M2694,1605l-200,200v-200h200Z"/>
      <path class="st111" d="M2594,1805l100-100v100h-100Z"/>
    </g>
  </g>
  <g class="st22">
    <g>
      <rect class="st5" x="2494" y="1940" width="200" height="200"/>
      <path class="st111" d="M2694,1940l-3.08,1.67c-82.57,44.87-150.38,112.68-195.25,195.25l-1.67,3.08v-200h200Z"/>
      <path class="st111" d="M2563.51,2139.17c-14.68-76.86,53.15-144.26,130.49-129.67l-130.49,129.67Z"/>
    </g>
  </g>
  <g class="st25">
    <g>
      <rect class="st5" x="2494" y="2275" width="200" height="200"/>
      <path class="st111" d="M2594,2275l-100,100v-100h100Z"/>
      <path class="st111" d="M2594,2475l100-100v100h-100Z"/>
    </g>
  </g>
  <g class="st23">
    <g>
      <rect class="st5" x="2494" y="2610" width="200" height="200"/>
      <path class="st111" d="M2694,2610l-200,200v-200h200Z"/>
      <path class="st111" d="M2648-994"/>
      <path class="st111" d="M2594,2810l100-100v100h-100Z"/>
    </g>
  </g>
  <g class="st21">
    <g>
      <rect class="st5" x="400" y="600" width="200" height="200"/>
      <path class="st6" d="M600,600.06c-.03,55.2-44.79,99.94-100,99.94s-100-44.77-100-100h0v200c0-55.23,44.77-100,100-100s100,44.77,100,100v-199.94Z"/>
    </g>
  </g>
  <g class="st24">
    <g>
      <rect class="st5" x="400" y="909" width="200" height="200"/>
      <path class="st111" d="M600,1109h-200c0-55.23,44.77-100,100-100s100,44.77,100,100Z"/>
      <path class="st111" d="M400,909h200c0,55.23-44.77,100-100,100s-100-44.77-100-100Z"/>
    </g>
  </g>
  <g class="st18">
    <g>
      <rect class="st5" x="400" y="1832" width="200" height="200"/>
      <path class="st6" d="M580,1832h20v200h-200c0-18.23,14.81-33,33.08-33-9.41,0-17.04-7.39-17.04-16.5s7.63-16.5,17.04-16.5c18.9,0,34.7,6.46,49.58,12.54,27.54,11.25,62.47,22.2,97.34-12.54v-134Z"/>
      <circle class="st111" cx="580" cy="1952" r="40"/>
      <circle class="st111" cx="580" cy="1872" r="40"/>
    </g>
  </g>
  <g class="st19">
    <g>
      <rect class="st5" x="400" y="2167" width="200" height="200"/>
      <circle class="st111" cx="440" cy="2367" r="40"/>
      <circle class="st111" cx="520" cy="2367" r="40"/>
      <circle class="st111" cx="600" cy="2287" r="40"/>
      <circle class="st111" cx="600" cy="2207" r="40"/>
      <circle class="st111" cx="600" cy="2367" r="40"/>
    </g>
  </g>
  <g class="st66">
    <g>
      <rect class="st5" x="3979" y="1940" width="200" height="200"/>
      <path class="st6" d="M4079,2040l100-100h-200v200h200l-100-100Z"/>
    </g>
  </g>
  <g class="st37">
    <g>
      <rect class="st5" x="3979" y="1940" width="200" height="200"/>
      <path class="st6" d="M4079,2040l100-100h-200v200h200l-100-100Z"/>
    </g>
  </g>
  <g class="st40">
    <g>
      <rect class="st5" x="3979" y="1940" width="200" height="200"/>
      <path class="st6" d="M4079,2040l100-100h-200v200h200l-100-100Z"/>
    </g>
  </g>
  <g class="st42">
    <g>
      <rect class="st5" x="3979" y="3589" width="200" height="200"/>
      <path class="st6" d="M3979,3689l200-100h-200v200h200l-200-100Z"/>
    </g>
  </g>
  <g class="st41">
    <g>
      <rect class="st5" x="3979" y="2275" width="200" height="200"/>
      <path class="st6" d="M4079,2375l100-100h-200v200h100v-100Z"/>
    </g>
  </g>
  <g class="st39">
    <g>
      <rect class="st5" x="3979" y="2610" width="200" height="200"/>
      <path class="st6" d="M4079,2710l100-100h-200v200h50l50-100Z"/>
    </g>
  </g>
  <g class="st28">
    <g>
      <rect class="st5" x="3979" y="2945" width="200" height="200"/>
      <path class="st6" d="M4029,3043.5l150-98.5h-200v200h50v-101.5Z"/>
    </g>
  </g>
  <g class="st26">
    <g>
      <rect class="st5" x="3978" y="3254" width="200" height="200"/>
      <path class="st6" d="M4028,3354l150-100h-200v200h100l-50-100Z"/>
    </g>
  </g>
  <g class="st38">
    <g>
      <rect class="st5" x="3978" y="3254" width="200" height="200"/>
      <path class="st6" d="M4028,3354l150-100h-200v200h100l-50-100Z"/>
    </g>
  </g>
  <g class="st27">
    <g>
      <rect class="st5" x="4683" y="2945" width="200" height="200"/>
      <path class="st6" d="M4883,3145c-67.61-49.53-67.61-150.47,0-200h-200v200h200Z"/>
    </g>
  </g>
  <g class="st29">
    <g>
      <rect class="st5" x="4683" y="3254" width="200" height="200"/>
      <path class="st5" d="M4837-1638"/>
    </g>
  </g>
  <g class="st86">
    <g>
      <rect class="st5" x="4683" y="3562" width="200" height="200"/>
      <path class="st111" d="M4883,3562l-41.2,14.98c-27.43,9.98-53.58,23.2-77.87,39.4-24.59,16.39-50.32,31.01-76.99,43.74l-3.94,1.88v-100h200Z"/>
    </g>
  </g>
  <g class="st88">
    <g>
      <rect class="st5" x="3628" y="1605" width="200" height="200"/>
      <path class="st111" d="M3828,1605v100l-200,100v-200h200Z"/>
    </g>
  </g>
  <g class="st89">
    <g>
      <rect class="st5" x="3630" y="2945" width="200" height="200"/>
      <path class="st111" d="M3730,2945v100l-100,100v-200h100Z"/>
    </g>
  </g>
  <rect class="st5" x="4325" y="1270" width="200" height="200"/>
  <path class="st111" d="M4475,1270h-149.96l-.04,150c82.82.02,149.98-67.16,150-150Z"/>
  <rect class="st5" x="4325" y="935" width="200" height="200"/>
  <path class="st111" d="M4425,935h-99.97l-.03,100c55.21.02,99.98-44.77,100-100Z"/>
  <g class="st90">
    <g>
      <rect class="st5" x="4325" y="4794" width="200" height="200"/>
      <path class="st111" d="M4424.97,4894l.03,99.97-100,.03c-.02-55.21,44.74-99.98,99.97-100Z"/>
    </g>
  </g>
  <g class="st91">
    <g>
      <rect class="st5" x="400" y="2448" width="200" height="200"/>
      <path class="st111" d="M499.97,2548l.03,99.97-100,.03c-.02-55.21,44.74-99.98,99.97-100Z"/>
      <path class="st111" d="M600,2547.97l-99.97.03-.03-100c55.21-.02,99.98,44.74,100,99.97Z"/>
    </g>
  </g>
  <g class="st83">
    <g>
      <rect class="st5" x="4325" y="5102" width="200" height="200"/>
      <path class="st111" d="M4474.96,5152l.04,149.96-150,.04c-.02-82.82,67.12-149.98,149.96-150Z"/>
    </g>
  </g>
  <g class="st84">
    <g>
      <rect class="st5" x="4325" y="1605" width="200" height="200"/>
      <path class="st111" d="M4525,1605h-200v200c110.43.03,199.97-89.54,200-200Z"/>
    </g>
  </g>
  <g class="st85">
    <g>
      <rect class="st5" x="400" y="1218" width="200" height="200"/>
      <path class="st111" d="M600,1218.06l-199.94-.06-.06,200c110.43.03,199.97-89.49,200-199.94Z"/>
      <ellipse class="st5" cx="470" cy="1283" rx="50" ry="25"/>
      <circle class="st111" cx="470" cy="1283" r="25"/>
    </g>
  </g>
  <g class="st92">
    <g>
      <rect class="st5" x="400" y="1527" width="200" height="200"/>
      <path class="st5" d="M554,89"/>
      <path class="st111" d="M599.97,1627l.03-99.97-100-.03c-.02,55.21,44.74,99.98,99.97,100Z"/>
    </g>
  </g>
  <rect class="st5" x="4303" y="1940" width="200" height="200"/>
  <circle class="st111" cx="4403" cy="2040" r="25"/>
  <g class="st87">
    <g>
      <rect class="st5" x="4325" y="3254" width="200" height="200"/>
      <path class="st111" d="M4525,3454h-200c0-55.23,44.77-100,100-100s100,44.77,100,100Z"/>
    </g>
  </g>
  <g class="st77">
    <g>
      <rect class="st5" x="4325" y="4486" width="200" height="200"/>
      <rect class="st5" x="4325" y="4486" width="100" height="100"/>
      <rect class="st5" x="4425" y="4486" width="100" height="100"/>
      <path class="st6" d="M4425,4486c-55.23,0-100,44.77-100,100v100h200v-100c0-55.23-44.77-100-100-100Z"/>
    </g>
  </g>
  <rect class="st5" x="4325" y="3562" width="200" height="200"/>
  <path class="st111" d="M4500,3762h-150c0-41.42,33.58-75,75-75s75,33.58,75,75Z"/>
  <rect class="st5" x="4325" y="3870" width="200" height="200"/>
  <path class="st111" d="M4500,4070h-150c0-41.42,33.58-75,75-75s75,33.58,75,75Z"/>
  <rect class="st5" x="4325" y="4178" width="200" height="200"/>
  <path class="st111" d="M4491.67,4378h-133.34c0-36.82,29.85-66.67,66.67-66.67s66.67,29.85,66.67,66.67Z"/>
  <rect class="st5" x="4325" y="2275" width="200" height="200"/>
  <circle class="st111" cx="4425" cy="2375" r="50"/>
  <rect class="st5" x="4325" y="2610" width="200" height="200"/>
  <circle class="st111" cx="4425" cy="2710" r="75"/>
  <g class="st95">
    <g>
      <rect class="st5" x="4325" y="2945" width="200" height="200"/>
      <circle class="st111" cx="4425" cy="3045" r="100"/>
    </g>
  </g>
  <g class="st93">
    <g>
      <rect class="st111" x="4673" y="1940" width="200" height="200"/>
      <path class="st4" d="M4673.03,2040l-.03,100h200v-200l-99.97.03c-.02,55.23-44.79,99.99-100,99.97Z"/>
    </g>
  </g>
  <g class="st79">
    <g>
      <rect class="st5" x="4673" y="2610" width="200" height="200"/>
      <path class="st6" d="M4673,2800v10h200v-200h-10c-.03,104.93-85.1,190.03-190,190Z"/>
    </g>
  </g>
  <g class="st81">
    <g>
      <rect class="st5" x="5708" y="600" width="200" height="200"/>
      <path class="st6" d="M5808,735.42v13.75h90.05l-.05,50.79,10,.05v-200h-10c0,107.04-30.42,135.42-90,135.42Z"/>
    </g>
  </g>
  <g class="st78">
    <g>
      <rect class="st5" x="5708" y="935" width="200" height="200"/>
      <path class="st6" d="M5808,1121.25l50-.05v13.75l50,.05v-200h-50c-.03,92.05,0,136.25-50,186.25Z"/>
    </g>
  </g>
  <g class="st82">
    <g>
      <rect class="st5" x="5708" y="1270" width="200" height="200"/>
      <circle class="st111" cx="5908" cy="1370" r="50"/>
      <circle class="st111" cx="5908" cy="1270" r="50"/>
      <circle class="st111" cx="5908" cy="1470" r="50"/>
    </g>
  </g>
  <g class="st94">
    <g>
      <rect class="st5" x="5708" y="1605" width="200" height="200"/>
      <circle class="st111" cx="5858" cy="1705" r="50"/>
      <circle class="st111" cx="5858" cy="1605" r="50"/>
      <circle class="st111" cx="5858" cy="1805" r="50"/>
      <rect class="st111" x="5858" y="1595" width="50" height="220"/>
    </g>
  </g>
  <g class="st96">
    <g>
      <rect class="st5" x="4673" y="2275" width="200" height="200"/>
      <path class="st111" d="M4673,2425v50h200v-200l-50,.04c0,91.46-75,149.96-150,149.96Z"/>
    </g>
  </g>
  <g class="st80">
    <g>
      <rect class="st5" x="4979" y="600" width="200" height="200"/>
      <path class="st111" d="M5179,600h-200v200c0-110.46,89.54-200,200-200Z"/>
      <path class="st111" d="M5120.42,741.42c-36.19,36.2-86.19,58.58-141.42,58.58h200v-200c0,55.23-22.38,105.23-58.58,141.42Z"/>
      <path class="st111" d="M5079,658.33c-23.01,0-41.67,18.65-41.67,41.67s18.66,41.67,41.67,41.67c11.51,0,21.92-4.66,29.46-12.2,7.54-7.54,12.21-17.96,12.21-29.46,0-23.02-18.66-41.67-41.67-41.67Z"/>
    </g>
  </g>
  <g class="st110">
    <g>
      <rect class="st5" x="5019" y="2275" width="200" height="200"/>
      <path class="st111" d="M5219,2275h-200v200c0-110.46,89.54-200,200-200Z"/>
      <path class="st111" d="M5160.42,2416.42c-36.19,36.2-86.19,58.58-141.42,58.58h200v-200c0,55.23-22.38,105.23-58.58,141.42Z"/>
    </g>
  </g>
  <g class="st108">
    <g>
      <rect class="st5" x="5019" y="1605" width="200" height="200"/>
      <path class="st111" d="M5219,1605h-200v200c0-110.46,89.54-200,200-200Z"/>
      <path class="st111" d="M5119,1663.33c-23.01,0-41.67,18.65-41.67,41.67s18.66,41.67,41.67,41.67c11.51,0,21.92-4.67,29.46-12.21,7.54-7.54,12.21-17.95,12.21-29.46,0-23.02-18.66-41.67-41.67-41.67Z"/>
    </g>
  </g>
  <g class="st107">
    <g>
      <rect class="st5" x="5019" y="2610" width="200" height="200"/>
      <path class="st111" d="M5219,2610h-200v200c0-110.46,89.54-200,200-200Z"/>
      <path class="st111" d="M5119,2668.33c-23.01,0-41.67,18.65-41.67,41.67s18.66,41.67,41.67,41.67c11.51,0,21.92-4.67,29.46-12.21s12.21-17.95,12.21-29.46c0-23.02-18.66-41.67-41.67-41.67Z"/>
    </g>
  </g>
  <g class="st109">
    <g>
      <rect class="st5" x="4673" y="1605" width="200" height="200"/>
      <path class="st111" d="M4873,1605h-200v200c0-110.46,89.54-200,200-200Z"/>
    </g>
  </g>
  <rect class="st5" x="1098" y="2610" width="200" height="200"/>
  <path class="st111" d="M1148,2660c0-27.61,22.39-50,50-50s50,22.39,50,50v100c0,27.61-22.39,50-50,50s-50-22.39-50-50v-100Z"/>
  <circle class="st5" cx="1198" cy="2710" r="33.33"/>
  <rect class="st1" x="5306.5" y="2255.5" width="239" height="459" rx="4.5" ry="4.5"/>
  <rect class="st5" x="5326" y="2275" width="200" height="200"/>
  <path class="st6" d="M5416,2379c0,12.96-10,25.31-10,38.27v57.73h-20v-57.73c0-12.96-10-25.31-10-38.27s10-25.31,10-38.27v-65.73h20v65.73c0,12.96,10,25.31,10,38.27Z"/>
  <path class="st111" d="M5426,2475h20v-200h-20v200Z"/>
  <path class="st111" d="M5466,2475h20v-200h-20v200Z"/>
  <path class="st6" d="M5376,2339c0,12.96-10,25.31-10,38.27v97.73h-20v-97.73c0-12.96-10-25.31-10-38.27s10-25.31,10-38.27v-25.73h20v25.73c0,12.96,10,25.31,10,38.27Z"/>
  <path class="st111" d="M5506,2475h20v-200h-20v200Z"/>
</svg>