<?xml version="1.0" encoding="UTF-8"?>
<svg id="Layer_1" xmlns="http://www.w3.org/2000/svg" xmlns:xlink="http://www.w3.org/1999/xlink" version="1.1" viewBox="0 0 11039.25 6730.75">
  <!-- Generator: Adobe Illustrator 30.2.1, SVG Export Plug-In . SVG Version: 2.1.1 Build 1)  -->
  <defs>
    <style>
      .st0, .st1, .st2, .st3, .st4, .st5, .st6, .st7 {
        fill: none;
      }

      .st8 {
        mask: url(#mask);
      }

      .st1 {
        stroke: #dbe2e9;
        stroke-width: 37px;
      }

      .st9, .st10 {
        fill: #ccc9c4;
      }

      .st9, .st11, .st12, .st13, .st14, .st15 {
        fill-rule: evenodd;
      }

      .st2 {
        stroke-width: 38px;
      }

      .st2, .st4 {
        stroke: #f05223;
      }

      .st16 {
        fill: #47a0cc;
      }

      .st17, .st14 {
        fill: #faa21b;
      }

      .st11, .st18 {
        fill: #f05223;
      }

      .st19 {
        fill: #141415;
      }

      .st20 {
        mask: url(#mask-1);
      }

      .st12, .st21 {
        fill: #f3f3f4;
      }

      .st22 {
        clip-path: url(#clippath-17);
      }

      .st23 {
        clip-path: url(#clippath-19);
      }

      .st24 {
        clip-path: url(#clippath-11);
      }

      .st25 {
        clip-path: url(#clippath-16);
      }

      .st26 {
        clip-path: url(#clippath-18);
      }

      .st27 {
        clip-path: url(#clippath-10);
      }

      .st28 {
        clip-path: url(#clippath-15);
      }

      .st29 {
        clip-path: url(#clippath-13);
      }

      .st30 {
        clip-path: url(#clippath-14);
      }

      .st31 {
        clip-path: url(#clippath-12);
      }

      .st32 {
        clip-path: url(#clippath-31);
      }

      .st33 {
        clip-path: url(#clippath-32);
      }

      .st34 {
        clip-path: url(#clippath-33);
      }

      .st35 {
        clip-path: url(#clippath-34);
      }

      .st36 {
        clip-path: url(#clippath-35);
      }

      .st37 {
        clip-path: url(#clippath-30);
      }

      .st38 {
        clip-path: url(#clippath-36);
      }

      .st39 {
        clip-path: url(#clippath-37);
      }

      .st40 {
        clip-path: url(#clippath-38);
      }

      .st41 {
        clip-path: url(#clippath-27);
      }

      .st42 {
        clip-path: url(#clippath-29);
      }

      .st43 {
        clip-path: url(#clippath-26);
      }

      .st44 {
        clip-path: url(#clippath-28);
      }

      .st45 {
        clip-path: url(#clippath-20);
      }

      .st46 {
        clip-path: url(#clippath-21);
      }

      .st47 {
        clip-path: url(#clippath-22);
      }

      .st48 {
        clip-path: url(#clippath-23);
      }

      .st49 {
        clip-path: url(#clippath-24);
      }

      .st50 {
        clip-path: url(#clippath-25);
      }

      .st13, .st51 {
        fill: #dbe2e9;
      }

      .st52 {
        clip-path: url(#clippath-1);
      }

      .st53 {
        clip-path: url(#clippath-3);
      }

      .st54 {
        clip-path: url(#clippath-4);
      }

      .st55 {
        clip-path: url(#clippath-2);
      }

      .st56 {
        clip-path: url(#clippath-7);
      }

      .st57 {
        clip-path: url(#clippath-6);
      }

      .st58 {
        clip-path: url(#clippath-9);
      }

      .st59 {
        clip-path: url(#clippath-8);
      }

      .st60 {
        clip-path: url(#clippath-5);
      }

      .st3 {
        stroke-width: 10px;
      }

      .st3, .st5 {
        stroke: #131313;
      }

      .st4, .st5, .st6, .st7 {
        stroke-miterlimit: 10;
      }

      .st4, .st6, .st7 {
        stroke-width: 11px;
      }

      .st61, .st15 {
        fill: #131313;
      }

      .st62 {
        fill: #beccbc;
      }

      .st5 {
        stroke-width: 44px;
      }

      .st6 {
        stroke: #47a0cc;
      }

      .st63 {
        clip-path: url(#clippath);
      }

      .st7 {
        stroke: #faa21b;
      }
    </style>
    <mask id="mask" x="638.1" y="-22.97" width="613.66" height="545.94" maskUnits="userSpaceOnUse">
      <g id="mask0_82_4759">
        <rect class="st61" x="701.7" width="500" height="500"/>
      </g>
    </mask>
    <clipPath id="clippath">
      <rect class="st0" x="737.63" y="-22.97" width="428.74" height="545.94"/>
    </clipPath>
    <mask id="mask-1" x="0" y="-73" width="501.7" height="647" maskUnits="userSpaceOnUse">
      <g id="mask1_82_4759">
        <rect class="st62" x="1.7" width="500" height="500"/>
      </g>
    </mask>
    <clipPath id="clippath-1">
      <rect class="st0" x="1401.7" y="1" width="500" height="500"/>
    </clipPath>
    <clipPath id="clippath-2">
      <rect class="st0" x="2801.7" width="500" height="500"/>
    </clipPath>
    <clipPath id="clippath-3">
      <rect class="st0" x="1.7" y="700" width="500" height="500"/>
    </clipPath>
    <clipPath id="clippath-4">
      <rect class="st0" x="701.7" y="701" width="500" height="500"/>
    </clipPath>
    <clipPath id="clippath-5">
      <rect class="st0" x="6301.7" y="1" width="500" height="500"/>
    </clipPath>
    <clipPath id="clippath-6">
      <rect class="st0" x="2801.7" y="701" width="500" height="500"/>
    </clipPath>
    <clipPath id="clippath-7">
      <rect class="st0" x="3501.7" y="1" width="500" height="500"/>
    </clipPath>
    <clipPath id="clippath-8">
      <rect class="st0" x="4201.7" y="1" width="500" height="500"/>
    </clipPath>
    <clipPath id="clippath-9">
      <rect class="st0" x="2101.7" y="700" width="500" height="500"/>
    </clipPath>
    <clipPath id="clippath-10">
      <rect class="st0" x="1401.7" y="700" width="500" height="500"/>
    </clipPath>
    <clipPath id="clippath-11">
      <rect class="st0" x="3501.7" y="701" width="500" height="500"/>
    </clipPath>
    <clipPath id="clippath-12">
      <rect class="st0" x="5151.7" y="250" width="250" height="250"/>
    </clipPath>
    <clipPath id="clippath-13">
      <rect class="st0" x="4901.7" width="250" height="250"/>
    </clipPath>
    <clipPath id="clippath-14">
      <rect class="st0" x="5151.7" width="250" height="250"/>
    </clipPath>
    <clipPath id="clippath-15">
      <rect class="st0" x="5601.7" y="951" width="125" height="125"/>
    </clipPath>
    <clipPath id="clippath-16">
      <rect class="st0" x="5976.7" y="951" width="125" height="125"/>
    </clipPath>
    <clipPath id="clippath-17">
      <rect class="st0" x="5976.7" y="826" width="125" height="125"/>
    </clipPath>
    <clipPath id="clippath-18">
      <rect class="st0" x="5726.7" y="1076" width="125" height="125"/>
    </clipPath>
    <clipPath id="clippath-19">
      <rect class="st0" x="5601.7" y="701" width="125" height="125"/>
    </clipPath>
    <clipPath id="clippath-20">
      <rect class="st0" x="5601.7" y="1076" width="125" height="125"/>
    </clipPath>
    <clipPath id="clippath-21">
      <rect class="st0" x="5851.7" y="1076" width="125" height="125"/>
    </clipPath>
    <clipPath id="clippath-22">
      <rect class="st0" x="5851.7" y="951" width="125" height="125"/>
    </clipPath>
    <clipPath id="clippath-23">
      <rect class="st0" x="5976.7" y="1076" width="125" height="125"/>
    </clipPath>
    <clipPath id="clippath-24">
      <rect class="st0" x="5851.7" y="826" width="125" height="125"/>
    </clipPath>
    <clipPath id="clippath-25">
      <rect class="st0" x="5851.7" y="701" width="125" height="125"/>
    </clipPath>
    <clipPath id="clippath-26">
      <rect class="st0" x="5976.7" y="701" width="125" height="125"/>
    </clipPath>
    <clipPath id="clippath-27">
      <rect class="st0" x="5726.7" y="951" width="125" height="125"/>
    </clipPath>
    <clipPath id="clippath-28">
      <rect class="st0" x="5726.7" y="701" width="125" height="125"/>
    </clipPath>
    <clipPath id="clippath-29">
      <rect class="st0" x="5726.7" y="826" width="125" height="125"/>
    </clipPath>
    <clipPath id="clippath-30">
      <rect class="st0" x="5601.7" y="826" width="125" height="125"/>
    </clipPath>
    <clipPath id="clippath-31">
      <rect class="st0" x="6676.7" y="700" width="125" height="125"/>
    </clipPath>
    <clipPath id="clippath-32">
      <rect class="st0" x="6676.7" y="950" width="125" height="125"/>
    </clipPath>
    <clipPath id="clippath-33">
      <rect class="st0" x="6301.7" y="825" width="125" height="125"/>
    </clipPath>
    <clipPath id="clippath-34">
      <rect class="st0" x="6551.7" y="700" width="125" height="125"/>
    </clipPath>
    <clipPath id="clippath-35">
      <rect class="st0" x="6426.7" y="950" width="125" height="125"/>
    </clipPath>
    <clipPath id="clippath-36">
      <rect class="st0" x="6301.7" y="950" width="125" height="125"/>
    </clipPath>
    <clipPath id="clippath-37">
      <rect class="st0" x="6426.7" y="825" width="125" height="125"/>
    </clipPath>
    <clipPath id="clippath-38">
      <rect class="st0" x="1.7" y="1400" width="500" height="500"/>
    </clipPath>
  </defs>
  <rect class="st61" x="701.7" width="500" height="500"/>
  <g class="st8">
    <g class="st63">
      <g>
        <path class="st17" d="M801.23,479.98c90.1,0,163.13-53.79,163.13-120.14s-73.04-120.14-163.13-120.14-163.13,53.79-163.13,120.14,73.04,120.14,163.13,120.14Z"/>
        <path class="st61" d="M801.1,380.96c28.55,0,51.69-9.61,51.69-21.47s-23.14-21.47-51.69-21.47-51.69,9.61-51.69,21.47,23.14,21.47,51.69,21.47Z"/>
        <path class="st18" d="M1102.63,380.98c28.55,0,51.69-9.61,51.69-21.47s-23.14-21.47-51.69-21.47-51.7,9.61-51.7,21.47,23.15,21.47,51.7,21.47Z"/>
        <path class="st18" d="M801.23,260.89c90.1,0,163.13-53.79,163.13-120.14s-73.04-120.14-163.13-120.14-163.13,53.79-163.13,120.14,73.04,120.14,163.13,120.14Z"/>
        <path class="st16" d="M1088.63,260.89c90.09,0,163.13-53.79,163.13-120.14s-73.04-120.14-163.13-120.14-163.14,53.79-163.14,120.14,73.04,120.14,163.14,120.14Z"/>
        <path class="st51" d="M1076.4,195.58h.85c-49.7,0-89.97-24.46-89.97-54.64s40.27-54.64,89.97-54.64h-.85c49.69,0,89.96-24.46,89.96-54.64s-40.29-54.64-89.96-54.64h-248.81c-49.69,0-89.97,24.46-89.97,54.64s40.28,54.64,89.97,54.64h.85c49.69,0,89.97,24.46,89.97,54.64s-40.28,54.64-89.97,54.64h-.85c-49.69,0-89.97,24.46-89.97,54.64s40.28,54.64,89.97,54.64h.85c49.69,0,89.97,24.46,89.97,54.64,0,27.86-45.57,50.84-89.97,54.2-49.69,0-90.82,24.46-90.82,54.64s40.28,54.64,89.97,54.64h248.81c49.69,0,89.96-24.46,89.96-54.64s-40.29-54.64-89.98-54.64c-44.38-3.35-89.12-26.33-89.12-54.2,0-30.18,40.28-54.64,89.97-54.64h-.85c49.69,0,89.97-24.46,89.97-54.64s-40.28-54.64-89.97-54.64h.02Z"/>
        <path class="st61" d="M801.1,162.41c28.55,0,51.69-9.61,51.69-21.47s-23.14-21.47-51.69-21.47-51.69,9.61-51.69,21.47,23.14,21.47,51.69,21.47Z"/>
        <path class="st61" d="M952,286.81c48.79,0,88.34-16.48,88.34-36.81s-39.55-36.81-88.34-36.81-88.34,16.48-88.34,36.81,39.55,36.81,88.34,36.81Z"/>
        <path class="st61" d="M952,57.13c48.79,0,88.34-16.48,88.34-36.81s-39.55-36.81-88.34-36.81S863.66-.01,863.66,20.32s39.55,36.81,88.34,36.81Z"/>
        <path class="st61" d="M952,516.49c48.79,0,88.34-16.48,88.34-36.81s-39.55-36.81-88.34-36.81-88.34,16.48-88.34,36.81,39.55,36.81,88.34,36.81Z"/>
        <path class="st61" d="M1102.89,162.41c28.55,0,51.7-9.61,51.7-21.47s-23.15-21.47-51.7-21.47-51.69,9.61-51.69,21.47,23.14,21.47,51.69,21.47Z"/>
      </g>
    </g>
  </g>
  <rect class="st18" x="1.7" width="500" height="500"/>
  <g class="st20">
    <g>
      <path class="st61" d="M355.95,367.7c-14.52,0-26.29,19.38-26.29,43.29v-.41c0,23.91-11.77,43.29-26.29,43.29s-26.29-19.38-26.29-43.29v119.72c0-23.91,11.77-43.29,26.29-43.29s26.29,19.38,26.29,43.29v.41c0,23.91,6.51,43.29,26.29,43.29s26.29-19.38,26.29-43.29v-.41c0-23.91,8-43.29,17.87-43.29,9.11,0,16.62,16.53,17.72,37.89v5.81c0,23.91-.42,43.29,17.87,43.29s17.87-19.38,17.87-43.29v-8.09c.75-20.24,4.4-35.6,8.81-35.6s8.33,16.53,8.88,37.89v5.81c0,23.91,0,43.29,8.95,43.29s8.95-19.38,8.95-43.29v-.41c0-23.91,1.4-43.29,3.12-43.29,1.59,0,2.91,16.53,3.1,37.88v5.81c0,23.91-.88,43.29,3.12,43.29s3.12-19.38,3.12-43.29v-119.72c0-23.91,0-43.29-3.12-43.29s-3.12,19.38-3.12,43.29v5c-.19,21.35-1.5,37.88-3.1,37.88-1.72,0-3.12-19.38-3.12-43.29v.41c0-23.91,0-43.29-8.95-43.29s-8.95,19.38-8.95,43.29v5c-.55,21.35-4.32,37.89-8.88,37.89s-8.05-15.36-8.81-35.6v-7.28c0-23.91.42-43.29-17.87-43.29s-17.87,19.38-17.87,43.29v5c-1.1,21.35-8.61,37.89-17.72,37.89-9.87,0-17.87-19.38-17.87-43.29v.41c0-23.91-11.77-43.29-26.29-43.29s14.52-.01,0-.01Z"/>
      <path class="st61" d="M30.37,416.8v-5.81c0-23.91,0-43.29-8.95-43.29s-8.95,19.38-8.95,43.29v.41c0,23.91-1.4,43.29-3.12,43.29-1.59,0-2.91-16.53-3.1-37.88v-5.81c0-23.91,0-43.29-3.12-43.29S0,387.08,0,410.99v119.71c0,23.91-.01,43.29,3.12,43.29s3.12-19.38,3.12-43.29v-5c.19-21.35,1.5-37.88,3.1-37.88,1.72,0,3.12,19.38,3.12,43.29v-.41c0,23.91,0,43.29,8.95,43.29s8.95-19.38,8.95-43.29v-5c.55-21.35,4.32-37.89,8.88-37.89s8.06,15.36,8.81,35.6v7.28c0,23.92-.42,43.3,17.87,43.3,18.29,0,17.87-19.38,17.87-43.29v-5c1.1-21.35,8.61-37.89,17.72-37.89,9.87,0,17.87,19.38,17.87,43.29v-.41c0,23.91,6.51,43.29,26.29,43.29s26.29-19.38,26.29-43.29v.41c0-23.91,11.77-43.29,26.29-43.29s26.29,19.38,26.29,43.29v-.41c0,23.91,6.51,43.29,26.29,43.29s26.29-19.38,26.29-43.29v-119.71c0-23.91-6.51-43.29-26.29-43.29s-26.29,19.38-26.29,43.29v.41c0,23.91-11.77,43.29-26.29,43.29s-26.29-19.38-26.29-43.29v-.41c0-23.91-6.51-43.29-26.29-43.29s-26.29,19.38-26.29,43.29v.41c0,23.91-8,43.29-17.87,43.29-9.11,0-16.62-16.53-17.72-37.89v-5.81c0-23.91.42-43.29-17.87-43.29s-17.87,19.38-17.87,43.29v8.09c-.75,20.24-4.41,35.6-8.81,35.6s-8.33-16.53-8.88-37.89h0Z"/>
      <path class="st61" d="M355.95,147.26c-14.52,0-26.29,19.38-26.29,43.29v-.41c0,23.91-11.77,43.29-26.29,43.29s-26.29-19.38-26.29-43.29v119.71c0-23.91,11.77-43.29,26.29-43.29s26.29,19.38,26.29,43.29v.41c0,23.91,6.51,43.29,26.29,43.29s26.29-19.38,26.29-43.29v-.41c0-23.91,8-43.29,17.87-43.29,9.11,0,16.62,16.53,17.72,37.89v5.81c0,23.91-.42,43.29,17.87,43.29s17.87-19.38,17.87-43.29v-8.09c.75-20.24,4.4-35.6,8.81-35.6s8.33,16.53,8.88,37.89v5.81c0,23.91,0,43.29,8.95,43.29s8.95-19.38,8.95-43.29v-.41c0-23.91,1.4-43.29,3.12-43.29,1.59,0,2.91,16.53,3.1,37.88v5.81c0,23.91-.88,43.29,3.12,43.29s3.12-19.38,3.12-43.29v-119.71c0-23.91,0-43.29-3.12-43.29s-3.12,19.38-3.12,43.29v5c-.19,21.35-1.5,37.88-3.1,37.88-1.72,0-3.12-19.38-3.12-43.29v.41c0-23.91,0-43.29-8.95-43.29s-8.95,19.38-8.95,43.29v5c-.55,21.35-4.32,37.89-8.88,37.89s-8.05-15.36-8.81-35.6v-7.28c0-23.91.42-43.29-17.87-43.29s-17.87,19.38-17.87,43.29v5c-1.1,21.35-8.61,37.89-17.72,37.89-9.87,0-17.87-19.38-17.87-43.29v.41c0-23.91-11.77-43.29-26.29-43.29s14.52-.01,0-.01Z"/>
      <path class="st61" d="M30.37,196.37v-5.81c0-23.91,0-43.29-8.95-43.29s-8.95,19.38-8.95,43.29v.41c0,23.91-1.4,43.29-3.12,43.29-1.59,0-2.91-16.53-3.1-37.88v-5.81c0-23.91,0-43.29-3.12-43.29S0,166.65,0,190.56v119.71c0,23.91-.01,43.29,3.12,43.29s3.12-19.38,3.12-43.29v-5c.19-21.35,1.5-37.88,3.1-37.88,1.72,0,3.12,19.38,3.12,43.29v-.41c0,23.91,0,43.29,8.95,43.29s8.95-19.38,8.95-43.29v-5c.55-21.35,4.32-37.89,8.88-37.89s8.06,15.36,8.81,35.6v7.28c0,23.92-.42,43.3,17.87,43.3,18.29,0,17.87-19.38,17.87-43.29v-5c1.1-21.35,8.61-37.89,17.72-37.89,9.87,0,17.87,19.38,17.87,43.29v-.41c0,23.91,6.51,43.29,26.29,43.29s26.29-19.38,26.29-43.29v.41c0-23.91,11.77-43.29,26.29-43.29s26.29,19.38,26.29,43.29v-.41c0,23.91,6.51,43.29,26.29,43.29s26.29-19.38,26.29-43.29v-119.71c0-23.91-6.51-43.29-26.29-43.29s-26.29,19.38-26.29,43.29v.41c0,23.91-11.77,43.29-26.29,43.29s-26.29-19.38-26.29-43.29v-.41c0-23.91-6.51-43.29-26.29-43.29s-26.29,19.38-26.29,43.29v.41c0,23.91-8,43.29-17.87,43.29-9.11,0-16.62-16.53-17.72-37.89v-5.81c0-23.91.42-43.29-17.87-43.29s-17.87,19.38-17.87,43.29v8.09c-.75,20.24-4.41,35.6-8.81,35.6s-8.33-16.53-8.88-37.89h0Z"/>
      <path class="st61" d="M355.95-72.99c-14.52,0-26.29,19.38-26.29,43.29v-.41c0,23.91-11.77,43.29-26.29,43.29s-26.29-19.38-26.29-43.29v119.72c0-23.91,11.77-43.29,26.29-43.29s26.29,19.38,26.29,43.29v.41c0,23.91,6.51,43.29,26.29,43.29s26.29-19.38,26.29-43.29v-.41c0-23.91,8-43.29,17.87-43.29,9.11,0,16.62,16.53,17.72,37.89v5.81c0,23.91-.42,43.29,17.87,43.29s17.87-19.38,17.87-43.29v-8.09c.75-20.24,4.4-35.6,8.81-35.6s8.33,16.53,8.88,37.89v5.81c0,23.91,0,43.29,8.95,43.29s8.95-19.38,8.95-43.29v-.41c0-23.91,1.4-43.29,3.12-43.29,1.59,0,2.91,16.53,3.1,37.88v5.81c0,23.91-.88,43.29,3.12,43.29s3.12-19.38,3.12-43.29V-29.7c0-23.91,0-43.29-3.12-43.29s-3.12,19.38-3.12,43.29v5c-.19,21.35-1.5,37.88-3.1,37.88-1.72,0-3.12-19.38-3.12-43.29v.41c0-23.91,0-43.29-8.95-43.29s-8.95,19.38-8.95,43.29v5c-.55,21.35-4.32,37.89-8.88,37.89s-8.05-15.36-8.81-35.6v-7.28c0-23.91.42-43.29-17.87-43.29s-17.87,19.38-17.87,43.29v5c-1.1,21.35-8.61,37.89-17.72,37.89-9.87,0-17.87-19.38-17.87-43.29v.41c0-23.91-11.77-43.29-26.29-43.29s14.52-.01,0-.01Z"/>
      <path class="st61" d="M30.37-23.89v-5.81c0-23.91,0-43.29-8.95-43.29s-8.95,19.38-8.95,43.29v.41c0,23.91-1.4,43.29-3.12,43.29-1.59,0-2.91-16.53-3.1-37.88v-5.81c0-23.91,0-43.29-3.12-43.29S0-53.61,0-29.7v119.71c0,23.91-.01,43.29,3.12,43.29s3.12-19.38,3.12-43.29v-5c.19-21.35,1.5-37.88,3.1-37.88,1.72,0,3.12,19.38,3.12,43.29v-.41c0,23.91,0,43.29,8.95,43.29s8.95-19.38,8.95-43.29v-5c.55-21.35,4.32-37.89,8.88-37.89s8.06,15.36,8.81,35.6v7.28c0,23.92-.42,43.3,17.87,43.3,18.29,0,17.87-19.38,17.87-43.29v-5c1.1-21.35,8.61-37.89,17.72-37.89,9.87,0,17.87,19.38,17.87,43.29v-.41c0,23.91,6.51,43.29,26.29,43.29s26.29-19.38,26.29-43.29v.41c0-23.91,11.77-43.29,26.29-43.29s26.29,19.38,26.29,43.29v-.41c0,23.91,6.51,43.29,26.29,43.29s26.29-19.38,26.29-43.29V-29.71c0-23.91-6.51-43.29-26.29-43.29s-26.29,19.38-26.29,43.29v.41c0,23.91-11.77,43.29-26.29,43.29s-26.29-19.38-26.29-43.29v-.41c0-23.91-6.51-43.29-26.29-43.29s-26.29,19.38-26.29,43.29v.41c0,23.91-8,43.29-17.87,43.29-9.11,0-16.62-16.53-17.72-37.89v-5.81c0-23.91.42-43.29-17.87-43.29s-17.87,19.38-17.87,43.29v8.09c-.75,20.24-4.41,35.6-8.81,35.6S30.91-2.55,30.36-23.91h0Z"/>
      <circle class="st51" cx="355.7" cy="173" r="14"/>
      <circle class="st51" cx="145.7" cy="399" r="14"/>
      <ellipse class="st51" cx="65.7" cy="332" rx="12" ry="14"/>
      <ellipse class="st51" cx="436.7" cy="112" rx="12" ry="14"/>
    </g>
  </g>
  <g class="st52">
    <g>
      <rect class="st21" x="1401.7" y="1" width="500" height="500"/>
      <rect class="st18" x="1651.7" y="1" width="250" height="500"/>
      <circle class="st16" cx="1587.38" cy="299.02" r="35.19"/>
      <path class="st51" d="M1596.67,304.96c-7.77,13.46-26.26,17.34-26.26,17.34,0,0-5.89-17.95,1.89-31.41,7.77-13.46,26.26-17.34,26.26-17.34,0,0,5.88,17.95-1.89,31.41Z"/>
      <path class="st61" d="M1595.76,299.02c0,6.48-5.25,11.73-11.73,11.73s-11.73-5.25-11.73-11.73,5.25-11.73,11.73-11.73,11.73,5.25,11.73,11.73Z"/>
      <circle class="st16" cx="1587.39" cy="202.98" r="35.19"/>
      <path class="st51" d="M1596.67,197.04c-7.77-13.46-26.26-17.34-26.26-17.34,0,0-5.89,17.95,1.89,31.41,7.77,13.46,26.26,17.34,26.26,17.34,0,0,5.88-17.95-1.89-31.41Z"/>
      <path class="st61" d="M1595.76,202.98c0-6.48-5.25-11.73-11.73-11.73s-11.73,5.25-11.73,11.73,5.25,11.73,11.73,11.73,11.73-5.25,11.73-11.73Z"/>
      <path class="st61" d="M1603.42,716.93c-10.17-28.61-42.85-42.15-70.27-29.1-43.55,20.7-88.97-24.73-68.28-68.28,13.04-27.42-.5-60.1-29.1-70.27-45.43-16.16-45.43-80.4,0-96.55,28.6-10.17,42.14-42.85,29.1-70.27-20.7-43.55,24.73-88.97,68.28-68.28,27.42,13.03,60.1-.5,70.27-29.11,16.16-45.42,80.4-45.42,96.56,0,10.17,28.61,42.85,42.15,70.27,29.11,43.55-20.7,88.97,24.73,68.28,68.28-13.04,27.42.5,60.1,29.1,70.27,45.43,16.16,45.43,80.4,0,96.55-28.6,10.17-42.14,42.85-29.1,70.27,20.7,43.55-24.73,88.97-68.28,68.28-27.42-13.03-60.1.5-70.27,29.1-16.16,45.42-80.4,45.42-96.56,0Z"/>
      <path class="st61" d="M1603.42,216.93c-10.17-28.61-42.85-42.15-70.27-29.11-43.55,20.7-88.97-24.73-68.28-68.28,13.04-27.42-.5-60.1-29.1-70.27-45.43-16.16-45.43-80.4,0-96.55,28.6-10.17,42.14-42.85,29.1-70.27-20.7-43.55,24.73-88.97,68.28-68.28,27.42,13.03,60.1-.5,70.27-29.11,16.16-45.42,80.4-45.42,96.56,0,10.17,28.61,42.85,42.15,70.27,29.11,43.55-20.7,88.97,24.73,68.28,68.28-13.04,27.42.5,60.1,29.1,70.27,45.43,16.16,45.43,80.4,0,96.55-28.6,10.17-42.14,42.85-29.1,70.27,20.7,43.55-24.73,88.97-68.28,68.28-27.42-13.03-60.1.5-70.27,29.11-16.16,45.42-80.4,45.42-96.56,0Z"/>
      <circle class="st21" cx="1800.97" cy="147.84" r="25.49"/>
      <circle class="st17" cx="1800.97" cy="354.16" r="25.49"/>
    </g>
  </g>
  <rect class="st10" x="2101.7" width="500" height="500"/>
  <path class="st61" d="M2541.16,334.74c0,64.22-14.25,116.3-31.82,116.3-6.69,0-12.87-7.53-17.98-20.37-1.32-3.32-5.93-3.19-7.05.21-4.18,12.72-9.19,20.16-14.62,20.16-7.36,0-14-13.63-18.73-35.56-.76-3.51-5.8-3.38-6.4.16-3.69,21.83-8.85,35.39-14.53,35.39-11.19,0-20.25-52.07-20.25-116.3s9.06-116.3,20.25-116.3c5.69,0,10.84,13.56,14.53,35.4.59,3.54,5.63,3.67,6.4.16,4.73-21.93,11.37-35.56,18.73-35.56,5.43,0,10.45,7.45,14.62,20.16,1.11,3.4,5.73,3.53,7.05.21,5.11-12.85,11.29-20.37,17.98-20.37,17.57,0,31.82,52.07,31.82,116.3h0Z"/>
  <path class="st61" d="M2401.17,334.75c0,64.22-6.27,116.3-13.98,116.3s-14.02-52.07-14.02-116.3,6.26-116.3,14.02-116.3,13.98,52.07,13.98,116.3Z"/>
  <path class="st61" d="M2360.25,334.75c0,64.22-4.27,116.3-9.54,116.3-.05,0-.11,0-.16-.04-.04.04-.1.04-.15.04-5.27,0-9.54-52.07-9.54-116.3s4.27-116.3,9.54-116.3c.05,0,.11,0,.15.04.05-.04.11-.04.16-.04,5.27,0,9.54,52.07,9.54,116.3Z"/>
  <path class="st61" d="M2291.33,334.75c0,64.22-9.06,116.3-20.26,116.3-5.68,0-10.84-13.56-14.52-35.39-.59-3.54-5.64-3.67-6.4-.16-4.73,21.93-11.37,35.56-18.73,35.56-5.43,0-10.48-7.44-14.64-20.16-1.11-3.39-5.72-3.52-7.04-.21-5.1,12.85-11.28,20.37-17.97,20.37-17.57,0-31.82-52.07-31.82-116.3s14.25-116.3,31.82-116.3c6.69,0,12.87,7.53,17.97,20.37,1.32,3.31,5.93,3.18,7.04-.21,4.16-12.72,9.2-20.16,14.64-20.16,7.35,0,13.99,13.63,18.73,35.56.76,3.51,5.8,3.38,6.4-.16,3.69-21.84,8.85-35.4,14.52-35.4,11.2,0,20.26,52.07,20.26,116.3Z"/>
  <path class="st61" d="M2330.09,334.75c0,64.22-6.27,116.3-14,116.3s-13.99-52.07-13.99-116.3,6.27-116.3,13.99-116.3,14,52.07,14,116.3Z"/>
  <path class="st51" d="M2349.27,135.92c-18.76,0-33.98,15.21-33.98,33.98s15.22,33.98,33.98,33.98,33.98-15.21,33.98-33.98-15.21-33.98-33.98-33.98Z"/>
  <path class="st18" d="M2349.27,14.56c-29.49,0-53.4,23.91-53.4,53.4s23.91,53.4,53.4,53.4,53.4-23.91,53.4-53.4-23.91-53.4-53.4-53.4Z"/>
  <g class="st55">
    <g>
      <rect class="st61" x="2801.7" width="500" height="500"/>
      <rect class="st17" x="2916.7" y="318" width="418" height="243"/>
      <path class="st16" d="M3158.63,365.98c0,59.76-47.87,108.21-106.93,108.21s-106.93-48.45-106.93-108.21,47.87-108.21,106.93-108.21,106.93,48.45,106.93,108.21Z"/>
      <path class="st13" d="M3051.7,257.45c-58.64,0-106.86,48.21-106.86,108.54v136.57h-68v-136.57c0-97.12,77.91-176.54,174.86-176.54s173,81.43,173,178.55h-66.14c0-60.33-48.22-110.55-106.86-110.55Z"/>
      <path class="st11" d="M3051.7,218.64c-79.67,0-145.2,65.81-145.2,148.17v174.54h-68v-174.54c0-118.86,94.93-216.17,213.2-216.17s204,98.5,204,217.36h-58.8c0-82.36-65.53-149.36-145.2-149.36Z"/>
      <path class="st14" d="M3051.7,182.82c-99.13,0-180.6,82.1-180.6,184.76v209.6h-68v-209.6c0-138.98,110.69-252.76,248.6-252.76s248.6,114.2,248.6,253.18h-68c0-102.66-81.47-185.18-180.6-185.18Z"/>
      <path class="st12" d="M3051.7,147c-118.62,0-216,98.42-216,221.35v244.65h-68v-244.65c0-159.12,126.48-289.35,284-289.35s284,129.88,284,289h-68c0-122.93-97.38-221-216-221Z"/>
      <path class="st21" d="M3154.21,365.95s-45.9,61.98-102.51,61.98-102.51-61.98-102.51-61.98c0,0,45.9-61.9,102.51-61.9s102.51,61.9,102.51,61.9Z"/>
      <path class="st61" d="M3105.54,365.98c0,30.09-24.11,54.48-53.84,54.48s-53.83-24.39-53.83-54.48,24.1-54.48,53.83-54.48,53.84,24.39,53.84,54.48Z"/>
      <path class="st21" d="M3084.89,351.06c0,10.3-8.26,18.66-18.44,18.66s-18.44-8.35-18.44-18.66,8.26-18.66,18.44-18.66,18.44,8.35,18.44,18.66Z"/>
    </g>
  </g>
  <g class="st53">
    <g>
      <rect class="st21" x="1.7" y="700" width="500" height="500"/>
      <path class="st15" d="M-112.37,950c0-201.08,163-364.08,364.08-364.08s364.08,163,364.08,364.08-163,364.08-364.08,364.08-364.08-163.01-364.08-364.08ZM-5.58,950c0-142.09,115.19-257.28,257.28-257.28s257.28,115.19,257.28,257.28-115.19,257.28-257.28,257.28S-5.58,1092.09-5.58,950Z"/>
      <path class="st11" d="M21.12,950c0-127.35,103.24-230.58,230.58-230.58s230.58,103.23,230.58,230.58-103.24,230.58-230.58,230.58-230.58-103.23-230.58-230.58ZM47.82,950c0-112.6,91.28-203.88,203.88-203.88s203.88,91.28,203.88,203.88-91.28,203.88-203.88,203.88-203.88-91.28-203.88-203.88Z"/>
      <path class="st14" d="M72.09,951.21c0-99.87,80.96-180.83,180.83-180.83s180.82,80.96,180.82,180.83-80.96,180.83-180.82,180.83-180.83-80.96-180.83-180.83ZM98.79,951.21c0-85.12,69-154.13,154.13-154.13s154.13,69.01,154.13,154.13-69.01,154.13-154.13,154.13-154.13-69-154.13-154.13Z"/>
      <path class="st9" d="M125.49,950c0-70.74,56.75-128.64,127.43-128.64s127.43,57.9,127.43,128.64-56.75,128.64-127.43,128.64-127.43-57.9-127.43-128.64ZM152.19,950c0-56.3,45.1-101.94,100.73-101.94s100.73,45.64,100.73,101.94-45.1,101.94-100.73,101.94-100.73-45.64-100.73-101.94Z"/>
      <path class="st13" d="M174.03,951.21c0-42.97,34.18-78.88,77.67-78.88s77.67,35.91,77.67,78.88-34.19,78.89-77.67,78.89-77.67-35.92-77.67-78.89ZM200.73,951.21c0-28.82,22.82-52.18,50.97-52.18s50.97,23.36,50.97,52.18-22.82,52.19-50.97,52.19-50.97-23.37-50.97-52.19Z"/>
      <path class="st61" d="M251.7,903.88s-24.27,40.43-24.27,53.68,10.87,23.99,24.27,23.99,24.27-10.74,24.27-23.99-24.27-53.68-24.27-53.68Z"/>
      <path class="st15" d="M251.72,911.16c0-16.98,9.59-33.95,28.78-40.78,24.17-8.59,35.6-36.19,24.59-59.36-17.49-36.78,20.89-75.15,57.68-57.67,23.17,11.01,50.77-.42,59.36-24.58,6.82-19.17,23.78-28.76,40.74-28.78H40.54c16.98,0,33.96,9.59,40.78,28.78,8.59,24.16,36.2,35.6,59.36,24.58,36.79-17.48,75.16,20.89,57.68,57.67-11.01,23.16.42,50.77,24.59,59.36,19.18,6.82,28.78,23.8,28.78,40.78Z"/>
    </g>
  </g>
  <g class="st54">
    <g>
      <rect class="st61" x="701.7" y="701" width="500" height="500"/>
      <path class="st5" d="M951.7,1230.28c-154.24,0-279.28-125.04-279.28-279.28s125.04-279.28,279.28-279.28,279.28,125.04,279.28,279.28-125.04,279.28-279.28,279.28Z"/>
      <path class="st6" d="M951.7,1160.38c-115.64,0-209.38-93.74-209.38-209.38s93.74-209.38,209.38-209.38,209.38,93.74,209.38,209.38-93.74,209.38-209.38,209.38Z"/>
      <path class="st7" d="M952.92,1111.84c-88.16,0-159.63-71.47-159.63-159.63s71.47-159.63,159.63-159.63,159.63,71.47,159.63,159.63-71.47,159.63-159.63,159.63Z"/>
      <path class="st4" d="M952.92,1058.44c-58.73,0-106.23-48.16-106.23-107.44s47.5-107.44,106.23-107.44,106.23,48.17,106.23,107.44-47.5,107.44-106.23,107.44Z"/>
      <path class="st4" d="M951.7,1009.9c-31.31,0-56.47-25.95-56.47-57.69s25.16-57.68,56.47-57.68,56.47,25.95,56.47,57.68-25.16,57.69-56.47,57.69Z"/>
      <path class="st51" d="M951.7,904.88s-24.27,40.43-24.27,53.68,10.87,23.99,24.27,23.99,24.27-10.74,24.27-23.99-24.27-53.68-24.27-53.68Z"/>
      <path class="st13" d="M951.72,912.16c0-16.98,9.59-33.95,28.78-40.78,24.16-8.59,35.6-36.19,24.58-59.36-17.48-36.78,20.89-75.15,57.68-57.67,23.16,11.01,50.77-.42,59.36-24.58,6.82-19.17,23.78-28.76,40.75-28.78h-422.34c16.98,0,33.96,9.59,40.78,28.78,8.59,24.16,36.2,35.6,59.36,24.58,36.78-17.48,75.16,20.89,57.67,57.67-11.01,23.16.42,50.77,24.59,59.36,19.18,6.82,28.78,23.8,28.78,40.78Z"/>
    </g>
  </g>
  <g class="st60">
    <g>
      <rect class="st61" x="6301.7" y="1" width="500" height="500"/>
      <path class="st11" d="M6301.7,287.41v213.59h427.18v-213.59c0-116.62-94.54-211.17-211.16-211.17h-216.02v211.17Z"/>
      <circle class="st51" cx="6512.87" cy="287.41" r="148.06"/>
      <path class="st15" d="M6553.08,377.52c-15.73-.46-27.67,0-27.67-5.39,0-4.62,12.79-5.1,29.33-5.44,18.56,0,38.22.82,38.22-5.48,0-5.48-11.78-5.48-30.34-5.48-2.27,0-3.19-3.1-1.38-4.47,19.27-14.63,31.72-37.78,31.72-63.84,0-44.24-35.86-80.1-80.09-80.1s-80.1,35.86-80.1,80.1c0,26.06,12.44,49.21,31.72,63.84,1.81,1.38.89,4.47-1.38,4.47-18.42.03-30.34-.02-30.34,5.48,0,6.3,19.03,5.48,37.59,5.48,16.54.34,29.33.82,29.33,5.44,0,5.39-11.94,4.94-27.67,5.39-18.56,0-39.25,0-39.25,10.94s19.03,10.94,37.59,10.94c16.54.69,29.33-.09,29.33,10.86s-14.88,10.89-33.31,10.94c-18.56,0-33.61,3.37-33.61,16.1s14.88,16.02,33.3,16.1h.31c18.43.08,33.31,7.26,33.31,16.1s-14.88,16.02-33.31,16.1h-.31c-18.42.08-33.3,7.21-33.3,16.1s15.05,16.1,33.61,16.1h.32c18.57,0,33.62,7.21,33.62,16.1s-15.05,16.1-33.62,16.1h-.32c-18.56,0-33.61,7.21-33.61,16.1s15.05,16.1,33.61,16.1h.32c18.57,0,33.62,4.9,33.62,10.94,0,5.57-12.79,10.17-29.33,10.86h-4.61c-18.56,0-33.61,4.9-33.61,10.94s15.05,10.94,33.61,10.94h6.27c15.73.46,27.67,2.6,27.67,5.39s-12.79,5.09-29.33,5.44h-4.61c-18.56,0-33.61,2.46-33.61,5.48s15.05,5.48,33.61,5.48h.32c18.57,0,33.62.85,33.62,1.91,0,.98-12.79,1.78-29.33,1.9h84.38c-16.54-.12-29.33-.92-29.33-1.9,0-1.05,14.88-1.9,33.31-1.91h.31c18.42-.03,33.3-2.46,33.3-5.48s-15.05-5.48-33.61-5.48h-3.98c-16.54-.34-29.33-2.74-29.33-5.44s11.94-4.94,27.67-5.39h5.64c18.56,0,33.61-4.9,33.61-10.94s-15.05-10.94-33.61-10.94h-3.98c-16.54-.69-29.33-5.28-29.33-10.86,0-6.01,14.88-10.89,33.31-10.94h.31c18.42-.08,33.3-7.26,33.3-16.1s-14.88-16.02-33.3-16.1h-.31c-18.43-.08-33.31-7.26-33.31-16.1s14.88-16.02,33.31-16.1h.31c18.42-.08,33.3-7.21,33.3-16.1s-15.05-16.1-33.61-16.1h-.32c-18.57,0-33.62-7.2-33.62-16.1s15.05-16.1,33.62-16.1h.32c18.56,0,33.61-4.59,33.61-16.1s-15.05-16.1-33.61-16.1h-.32c-18.57,0-33.62,0-33.62-10.94s12.79-10.17,29.33-10.86h4.61c18.56,0,33.61,0,33.61-10.94s-15.05-10.94-33.61-10.94h-6.27Z"/>
    </g>
  </g>
  <g class="st57">
    <g>
      <rect class="st51" x="2801.7" y="701" width="500" height="500"/>
      <path class="st61" d="M3286.7,731.26h8.05c34.66,0,62.78-3.98,62.78-8.91s-28.12-8.93-62.78-8.93h-.59c-34.66,0-62.77-1.39-62.77-3.1,0-1.62,24.71-2.95,56.36-3.1h7c34.66,0,62.78-1.39,62.78-3.11s-28.12-3.1-62.78-3.1h-234.09c-2.67,0-5.33,0-7.91.01h-.04c-2.59-.01-5.24-.01-7.92-.01h-236.14c-34.66,0-62.78,1.39-62.78,3.1s28.12,3.11,62.78,3.11h5.83c31.64.15,56.35,1.48,56.35,3.1,0,1.71-28.1,3.1-62.78,3.1-34.39.05-62.18,4.03-62.18,8.93s28.12,8.91,62.78,8.91h6.88c31.15.51,55.3,4.27,55.3,8.85s-21.9,7.99-50.88,8.78h-11.3c-34.66,0-62.78,7.97-62.78,17.83s28.12,17.8,62.78,17.8h7.18c31,1.07,55,8.56,55,17.66,0,9.84-28.1,17.81-62.78,17.81-34.39.14-62.18,11.82-62.18,26.21s27.79,26.04,62.18,26.18c34.68,0,62.78,11.74,62.78,26.21s-28.1,26.2-62.78,26.2c-34.39.14-62.18,11.82-62.18,26.21s28.12,26.21,62.78,26.21h.59c34.67,0,62.78,11.73,62.78,26.18s-28.11,26.21-62.78,26.21h-.59c-34.66,0-62.78,11.73-62.78,26.2s28.12,26.21,62.78,26.21h.59c34.67,0,62.78,7.98,62.78,17.8,0,9.11-24.01,16.59-55.02,17.67h-8.35c-34.66,0-62.78,7.98-62.78,17.8s28.12,17.83,62.78,17.83h12.47c28.98.79,50.9,4.42,50.9,8.77,0,4.58-24.16,8.35-55.31,8.87h-8.06c-34.66,0-62.78,3.98-62.78,8.9s28.12,8.93,62.78,8.93h.59c34.67,0,62.78,1.4,62.78,3.11,0,1.62-24.72,2.93-56.37,3.1h-7c-34.66,0-62.78,1.39-62.78,3.11s28.12,3.1,62.78,3.1h486.1c34.66,0,62.78-1.39,62.78-3.1s-28.12-3.11-62.78-3.11h-5.83c-31.64-.17-56.35-1.48-56.35-3.1s27.77-3.09,62.18-3.11h.6c34.39-.05,62.18-4.03,62.18-8.93s-28.12-8.9-62.78-8.9h-6.88c-31.15-.52-55.3-4.29-55.3-8.87s21.91-7.98,50.9-8.77h11.28c34.66,0,62.78-7.97,62.78-17.83s-28.12-17.8-62.78-17.8h-7.17c-31.01-1.08-55.01-8.56-55.01-17.67,0-9.77,27.77-17.72,62.18-17.8h.6c34.39-.14,62.18-11.83,62.18-26.21s-27.79-26.06-62.18-26.2h-.6c-34.41-.14-62.18-11.81-62.18-26.21s27.77-26.04,62.18-26.18h.6c34.39-.14,62.18-11.83,62.18-26.21s-28.12-26.21-62.78-26.21h-.59c-34.66,0-62.77-11.73-62.77-26.2s28.11-26.21,62.77-26.21h.59c34.66,0,62.78-11.73,62.78-26.18s-28.12-26.21-62.78-26.21h-.59c-34.66,0-62.77-7.97-62.77-17.81,0-9.1,24-16.59,55.02-17.66h8.34c34.66,0,62.78-7.97,62.78-17.8s-28.12-17.83-62.78-17.83h-12.46c-28.99-.79-50.9-4.43-50.9-8.78,0-4.58,24.16-8.34,55.31-8.85ZM3037.77,707.21h7.02c2.69,0,5.35,0,7.94-.02,2.59.02,5.25.02,7.93.02h5.84c31.65.15,56.36,1.48,56.36,3.1s-27.8,3.08-62.2,3.1h-.57c-2.49,0-4.95.02-7.36.06-2.59-.05-5.25-.06-7.94-.06h-.6c-34.66,0-62.77-1.39-62.77-3.1,0-1.62,24.71-2.95,56.35-3.1ZM3036.72,731.26h8.07c2.69,0,5.35,0,7.94-.08,2.59.06,5.25.08,7.93.08h6.88c31.15.51,55.32,4.27,55.32,8.85s-21.91,7.99-50.9,8.78h-11.3c-2.68,0-5.34.05-7.93.14-2.59-.09-5.25-.14-7.94-.14h-12.47c-28.99-.79-50.9-4.43-50.9-8.78,0-4.58,24.16-8.34,55.3-8.85ZM3036.42,784.52h8.37c2.69,0,5.35-.05,7.94-.14,2.59.09,5.25.14,7.93.14h7.18c31.02,1.07,55.02,8.56,55.02,17.66,0,9.79-27.8,17.72-62.2,17.81h-.57c-2.49.01-4.95.09-7.36.22h-.06c-2.58-.14-5.2-.22-7.88-.22h-.6c-34.66,0-62.77-7.97-62.77-17.81,0-9.1,24.01-16.59,55-17.66ZM2924.14,1194.29c-15.28,0-27.68-1.43-27.68-3.19s12.4-3.19,27.68-3.19,27.69,1.43,27.69,3.19-12.4,3.19-27.69,3.19ZM2924.14,1171.32c-15.28,0-27.68-3.97-27.68-8.87s12.4-8.87,27.68-8.87,27.69,3.97,27.69,8.87-12.4,8.87-27.69,8.87ZM2924.14,1117.73c-15.28,0-27.68-8-27.68-17.87s12.4-17.86,27.68-17.86,27.69,8,27.69,17.86-12.4,17.87-27.69,17.87ZM2924.14,1029.68c-15.28,0-27.68-11.71-27.68-26.16s12.4-26.16,27.68-26.16,27.69,11.71,27.69,26.16-12.4,26.16-27.69,26.16ZM2924.14,925.05c-15.28,0-27.68-11.71-27.68-26.16s12.4-26.16,27.68-26.16,27.69,11.71,27.69,26.16-12.4,26.16-27.69,26.16ZM2924.14,820.41c-15.28,0-27.68-8-27.68-17.86s12.4-17.86,27.68-17.86,27.69,8,27.69,17.86-12.4,17.86-27.69,17.86ZM2924.14,748.95c-15.28,0-27.68-3.99-27.68-8.93s12.4-8.93,27.68-8.93,27.69,3.99,27.69,8.93-12.4,8.93-27.69,8.93ZM2924.14,713.22c-15.28,0-27.68-1.43-27.68-3.19s12.4-3.19,27.68-3.19,27.69,1.43,27.69,3.19-12.4,3.19-27.69,3.19ZM3044.19,872.38h.6c2.68,0,5.3-.06,7.88-.2h.06c2.41.13,4.87.19,7.36.2,34.66,0,62.77,11.74,62.77,26.21s-27.8,26.07-62.2,26.2h-.57c-2.49.01-4.95.09-7.36.21-2.59-.14-5.25-.21-7.94-.21h-.6c-34.66,0-62.77-11.73-62.77-26.2s28.11-26.21,62.77-26.21ZM3067.69,1194.79h-28.74c-31.64-.17-56.35-1.48-56.35-3.1,0-1.71,28.11-3.11,62.76-3.11,2.5,0,4.96-.03,7.37-.07,2.59.05,5.25.07,7.93.07h.6c34.66,0,62.77,1.4,62.77,3.11,0,1.62-24.71,2.93-56.34,3.1ZM3068.73,1170.75h-8.07c-2.68,0-5.34.01-7.93.06-2.59-.05-5.25-.06-7.94-.06h-6.88c-31.15-.52-55.31-4.29-55.31-8.87s21.9-7.98,50.91-8.77h11.28c2.69,0,5.35-.05,7.94-.14,2.59.09,5.25.14,7.93.14h12.48c28.98.79,50.89,4.42,50.89,8.77,0,4.58-24.16,8.35-55.3,8.87ZM3069.03,1117.48h-8.37c-2.68,0-5.34.05-7.93.14-2.59-.09-5.25-.14-7.94-.14h-7.18c-31.01-1.08-55.01-8.56-55.01-17.67,0-9.82,28.11-17.8,62.76-17.8,2.5-.03,4.96-.09,7.37-.22,2.59.14,5.25.22,7.93.22h.6c34.66,0,62.77,7.98,62.77,17.8,0,9.11-24,16.59-55,17.67ZM3061.26,1029.6h-.6c-2.68,0-5.34.08-7.93.22-2.41-.13-4.87-.19-7.37-.22-34.65,0-62.76-11.72-62.76-26.21s28.11-26.18,62.76-26.18c2.5-.03,4.96-.09,7.37-.22,2.59.14,5.25.22,7.93.22h.6c34.66,0,62.77,11.73,62.77,26.18s-28.11,26.21-62.77,26.21ZM3180.49,1194.29c-15.29,0-27.69-1.43-27.69-3.19s12.4-3.19,27.69-3.19,27.68,1.43,27.68,3.19-12.4,3.19-27.68,3.19ZM3180.49,1171.32c-15.29,0-27.69-3.97-27.69-8.87s12.4-8.87,27.69-8.87,27.68,3.97,27.68,8.87-12.4,8.87-27.68,8.87ZM3180.49,1117.73c-15.29,0-27.69-8-27.69-17.87s12.4-17.86,27.69-17.86,27.68,8,27.68,17.86-12.4,17.87-27.68,17.87ZM3180.49,1029.68c-15.29,0-27.69-11.71-27.69-26.16s12.4-26.16,27.69-26.16,27.68,11.71,27.68,26.16-12.4,26.16-27.68,26.16ZM3180.49,925.05c-15.29,0-27.69-11.71-27.69-26.16s12.4-26.16,27.69-26.16,27.68,11.71,27.68,26.16-12.4,26.16-27.68,26.16ZM3180.49,820.41c-15.29,0-27.69-8-27.69-17.86s12.4-17.86,27.69-17.86,27.68,8,27.68,17.86-12.4,17.86-27.68,17.86ZM3180.49,748.95c-15.29,0-27.69-3.99-27.69-8.93s12.4-8.93,27.69-8.93,27.68,3.99,27.68,8.93-12.4,8.93-27.68,8.93ZM3180.49,713.22c-15.29,0-27.69-1.43-27.69-3.19s12.4-3.19,27.69-3.19,27.68,1.43,27.68,3.19-12.4,3.19-27.68,3.19Z"/>
      <circle class="st18" cx="3082.04" cy="1003.18" r="15.78"/>
      <circle class="st18" cx="3271.36" cy="898.82" r="15.78"/>
    </g>
  </g>
  <g class="st56">
    <g>
      <rect class="st10" x="3501.7" y="1" width="500" height="500"/>
      <path class="st3" d="M3953.16,1c0,93.77-74.67,167.48-167.48,167.48"/>
      <path class="st3" d="M3620.63,333.52c0-92.41,73.58-165.05,165.05-165.05"/>
      <path class="st3" d="M3785.68,498.57c-92.41,0-165.05-73.58-165.05-165.05"/>
      <path class="st3" d="M3950.73,333.52c0,92.42-73.58,165.05-165.05,165.05"/>
      <path class="st3" d="M3950.73,333.52c0-92.41,73.58-165.05,165.05-165.05"/>
      <path class="st3" d="M3569.66,333.52c0-119.3,96.72-216.02,216.02-216.02"/>
      <path class="st3" d="M3785.68,265.56c38.05,0,67.96,30.3,67.96,67.96"/>
      <path class="st3" d="M3717.72,333.52c0-38.05,30.3-67.96,67.96-67.96"/>
      <path class="st3" d="M3785.68,265.56c38.05,0,67.96,30.3,67.96,67.96"/>
      <path class="st3" d="M3785.68,401.48c-38.05,0-67.96-30.3-67.96-67.96"/>
      <path class="st3" d="M3853.64,333.52c0,38.05-30.3,67.96-67.96,67.96"/>
      <path class="st3" d="M3766.26,333.52c0-10.87,8.66-19.42,19.42-19.42"/>
      <path class="st3" d="M3785.68,314.11c10.87,0,19.42,8.66,19.42,19.42"/>
      <path class="st3" d="M3785.68,352.94c-10.87,0-19.42-8.66-19.42-19.42"/>
      <path class="st3" d="M3805.1,333.52c0,10.87-8.66,19.42-19.42,19.42"/>
      <path class="st3" d="M3785.68,549.54c-119.3,0-216.02-96.72-216.02-216.02"/>
      <path class="st3" d="M4001.7,333.52c0,119.31-96.72,216.02-216.02,216.02"/>
      <path class="st3" d="M4001.7,333.52c0-65.23,51.94-116.5,116.51-116.5"/>
      <path class="st3" d="M4001.7,1c0,119.3-96.72,216.02-216.02,216.02"/>
      <path class="st3" d="M3902.19,333.52c0-119.3,96.71-216.02,216.01-216.02"/>
      <path class="st3" d="M3620.63,1c0,93.77-74.66,167.48-167.47,167.48"/>
      <path class="st3" d="M3569.66,1c0,65.23-51.94,116.51-116.5,116.51"/>
      <path class="st3" d="M3669.18,1c0,119.3-96.72,216.02-216.02,216.02"/>
      <path class="st3" d="M3669.18,1c0,65.23,51.93,116.51,116.5,116.51"/>
      <path class="st3" d="M3669.18,333.52c0-65.23,51.93-116.5,116.5-116.5"/>
      <path class="st3" d="M3785.68,450.03c-65.23,0-116.5-51.94-116.5-116.51"/>
      <path class="st3" d="M3902.19,333.52c0,65.23-51.94,116.51-116.51,116.51"/>
      <path class="st3" d="M3785.68,217.02c65.23,0,116.51,51.94,116.51,116.5"/>
      <path class="st3" d="M3902.19,1c0,65.23-51.94,116.5-116.51,116.5"/>
      <path class="st3" d="M3669.18,1c0,65.23,51.93,116.51,116.5,116.51"/>
      <path class="st3" d="M3902.19,1c0,65.23-51.94,116.5-116.51,116.5"/>
      <path class="st3" d="M3717.72,1c0-38.05,30.3-67.96,67.96-67.96"/>
      <path class="st3" d="M3785.68-66.96c38.05,0,67.96,30.3,67.96,67.96"/>
      <path class="st3" d="M3785.68,68.96c-38.05,0-67.96-30.3-67.96-67.96"/>
      <path class="st3" d="M3853.64,1c0,38.05-30.3,67.96-67.96,67.96"/>
      <path class="st3" d="M3766.26,1c0-10.87,8.66-19.42,19.42-19.42"/>
      <path class="st3" d="M3785.68-18.42c10.87,0,19.42,8.66,19.42,19.42"/>
      <path class="st3" d="M3785.68,20.42c-10.87,0-19.42-8.66-19.42-19.42"/>
      <path class="st3" d="M3805.1,1c0,10.87-8.66,19.42-19.42,19.42"/>
    </g>
  </g>
  <g class="st59">
    <g>
      <rect class="st61" x="4201.7" y="1" width="500" height="500"/>
      <path class="st1" d="M4269.66,333.52c0-119.3,96.72-216.02,216.02-216.02"/>
      <path class="st1" d="M4485.68,265.56c38.05,0,67.96,30.3,67.96,67.96"/>
      <path class="st1" d="M4417.72,333.52c0-38.05,30.3-67.96,67.96-67.96"/>
      <path class="st1" d="M4485.68,265.56c38.05,0,67.96,30.3,67.96,67.96"/>
      <path class="st1" d="M4485.68,401.48c-38.05,0-67.96-30.3-67.96-67.96"/>
      <path class="st1" d="M4553.64,333.52c0,38.05-30.3,67.96-67.96,67.96"/>
      <path class="st2" d="M4466.26,333.52c0-10.87,8.66-19.42,19.42-19.42"/>
      <path class="st2" d="M4485.68,314.11c10.87,0,19.42,8.66,19.42,19.42"/>
      <path class="st2" d="M4485.68,352.94c-10.87,0-19.42-8.66-19.42-19.42"/>
      <path class="st2" d="M4505.1,333.52c0,10.87-8.66,19.42-19.42,19.42"/>
      <path class="st1" d="M4485.68,549.54c-119.3,0-216.02-96.72-216.02-216.02"/>
      <path class="st1" d="M4701.7,333.52c0,119.31-96.71,216.02-216.02,216.02"/>
      <path class="st1" d="M4701.7,333.52c0-65.23,51.94-116.5,116.51-116.5"/>
      <path class="st1" d="M4701.7,1c0,119.3-96.71,216.02-216.02,216.02"/>
      <path class="st1" d="M4602.19,333.52c0-119.3,96.71-216.02,216.02-216.02"/>
      <path class="st1" d="M4320.63,1c0,93.77-74.66,167.48-167.47,167.48"/>
      <path class="st1" d="M4269.66,1c0,65.23-51.94,116.51-116.5,116.51"/>
      <path class="st1" d="M4369.18,1c0,119.3-96.72,216.02-216.02,216.02"/>
      <path class="st1" d="M4369.18,1c0,65.23,51.94,116.51,116.5,116.51"/>
      <path class="st1" d="M4369.18,333.52c0-65.23,51.94-116.5,116.5-116.5"/>
      <path class="st1" d="M4485.68,450.03c-65.23,0-116.5-51.94-116.5-116.51"/>
      <path class="st1" d="M4602.19,333.52c0,65.23-51.94,116.51-116.51,116.51"/>
      <path class="st1" d="M4485.68,217.02c65.23,0,116.51,51.94,116.51,116.5"/>
      <path class="st1" d="M4602.19,1c0,65.23-51.94,116.5-116.51,116.5"/>
      <path class="st1" d="M4369.18,1c0,65.23,51.94,116.51,116.5,116.51"/>
      <path class="st1" d="M4602.19,1c0,65.23-51.94,116.5-116.51,116.5"/>
      <path class="st1" d="M4417.72,1c0-38.05,30.3-67.96,67.96-67.96"/>
      <path class="st1" d="M4485.68-66.96c38.05,0,67.96,30.3,67.96,67.96"/>
      <path class="st9" d="M4669.23,333.52c0-82.13,65.23-146.55,146.55-146.55v-37c-101.62,0-183.55,80.85-183.55,183.55,0,82.13-65.23,146.55-146.55,146.55s-146.55-65.23-146.55-146.55,65.23-146.55,146.55-146.55c102.96,0,185.98-81.92,185.98-185.98h-37c0,83.49-66.31,148.98-148.98,148.98-101.62,0-183.55,80.85-183.55,183.55s80.85,183.55,183.55,183.55,183.55-80.85,183.55-183.55ZM4436.22,1c0,27.52,21.69,49.46,49.46,49.46s49.46-21.69,49.46-49.46h37c0,48.34-38.65,86.46-86.46,86.46s-86.46-38.65-86.46-86.46h37Z"/>
      <path class="st1" d="M4466.26,1c0-10.87,8.66-19.42,19.42-19.42"/>
      <path class="st1" d="M4485.68-18.42c10.87,0,19.42,8.66,19.42,19.42"/>
      <path class="st1" d="M4485.68,20.42c-10.87,0-19.42-8.66-19.42-19.42"/>
      <path class="st1" d="M4505.1,1c0,10.87-8.66,19.42-19.42,19.42"/>
    </g>
  </g>
  <g class="st58">
    <g>
      <rect class="st61" x="2101.7" y="700" width="500" height="500"/>
      <path class="st18" d="M2141.32,937.83c4.44,0,8.13-11.58,8.88-26.82v-6.08c0-18,8.08-32.6,18.04-32.6s18.03,14.6,18.03,32.6v4.46c1.13,16.04,8.71,28.44,17.89,28.44,9.96,0,18.03-14.59,18.03-32.6v-.31c0-18,11.88-32.6,26.53-32.6s26.54,14.6,26.54,32.6v.31c0,18,11.87,32.6,26.53,32.6s26.53-14.59,26.53-32.6v-.31c0-18,11.88-32.6,26.53-32.6s26.4,14.43,26.53,32.29v.3c.14,17.87,11.97,32.29,26.53,32.29s26.4-14.43,26.53-32.29v-.3c.14-17.86,11.97-32.29,26.54-32.29s26.4,14.43,26.53,32.29v.3c.09,17.87,8.13,32.29,18.03,32.29,9.19,0,16.76-12.4,17.89-28.44v-3.85c0-18,8.07-32.6,18.04-32.6s18.03,14.6,18.03,32.6v5.47c.75,15.25,4.45,26.82,8.89,26.82s8.39-12.4,8.96-28.44v-3.85c0-18,4.05-32.6,9.03-32.6s9,14.43,9.04,32.29v.3c.02,17.87,1.42,32.29,3.15,32.29,1.61,0,2.94-12.4,3.13-28.44v81.83c-.19-16.04-1.52-28.44-3.13-28.44-1.74,0-3.15,14.59-3.15,32.6v.31c0,18-4.05,32.6-9.04,32.6s-9.03-14.6-9.03-32.6v-4.46c-.57-16.04-4.36-28.44-8.96-28.44s-8.14,11.58-8.89,26.82v6.08c0,18-8.08,32.6-18.03,32.6s-18.04-14.6-18.04-32.6v-4.46c-1.13-16.04-8.7-28.44-17.89-28.44-9.96,0-18.03,14.59-18.03,32.6v.31c0,18-11.88,32.6-26.53,32.6s-26.54-14.6-26.54-32.6v-.31c0-18-11.87-32.6-26.53-32.6s-26.53,14.59-26.53,32.6v.31c0,18-11.88,32.6-26.53,32.6s-26.39-14.43-26.53-32.29v-.3c-.13-17.86-11.96-32.29-26.53-32.29s-26.39,14.43-26.53,32.29v.3c-.13,17.86-11.96,32.29-26.54,32.29s-26.53-14.6-26.53-32.6c-.09-17.86-8.12-32.29-18.03-32.29-9.18,0-16.76,12.4-17.89,28.44v3.85c0,18-8.07,32.6-18.03,32.6s-18.04-14.6-18.04-32.6v-5.47c-.75-15.25-4.44-26.82-8.88-26.82s-8.4,12.4-8.96,28.44v3.85c0,18-4.05,32.6-9.04,32.6s-9-14.43-9.04-32.29v-.3c-.02-17.86-1.42-32.29-3.15-32.29-1.61,0-2.93,12.4-3.13,28.44v3.85c0,18-1.41,32.6-3.14,32.6s-3.16-14.6-3.16-32.6v-90.15c0-18,1.41-32.6,3.16-32.6s3.14,14.6,3.14,32.6v4.46c.2,16.04,1.52,28.44,3.13,28.44,1.74,0,3.15-14.59,3.15-32.6v-.31c0-18,4.05-32.6,9.04-32.6s9.04,14.6,9.04,32.6v4.46c.56,16.04,4.35,28.44,8.96,28.44Z"/>
      <path class="st21" d="M2237.62,1000.97c0,6.7,5.44,12.14,12.14,12.14s12.13-5.44,12.13-12.14-5.43-12.13-12.13-12.13-12.14,5.43-12.14,12.13Z"/>
      <path class="st21" d="M2448.79,901.46c0,6.7,5.43,12.14,12.13,12.14s12.14-5.43,12.14-12.14-5.43-12.14-12.14-12.14-12.13,5.43-12.13,12.14Z"/>
      <path class="st51" d="M2101.7,1301.94c0,138.07,111.93,250,250,250s250-111.93,250-250-111.93-250-250-250-250,111.93-250,250Z"/>
      <path class="st16" d="M2101.7,598.06c0,138.07,111.93,250,250,250s250-111.93,250-250-111.93-250-250-250-250,111.93-250,250Z"/>
    </g>
  </g>
  <g class="st27">
    <g>
      <rect class="st51" x="1401.7" y="700" width="500" height="500"/>
      <path class="st15" d="M1901.7,948.79c0-49.21-14.66-97.31-42.13-138.22-27.47-40.91-66.52-72.8-112.2-91.63-45.68-18.83-95.95-23.76-144.44-14.16-48.5,9.6-93.04,33.29-128.01,68.09-34.96,34.79-58.77,79.12-68.42,127.38-3.29,16.46-4.88,33.13-4.8,49.75,137.78.65,249.34,111.13,250,247.57h0v-248.78h250Z"/>
      <path class="st51" d="M1730.65,865.05c-26.18,0-47.4,8.81-47.4,19.68s21.22,19.68,47.4,19.68,47.39-8.81,47.39-19.68-21.22-19.68-47.39-19.68Z"/>
      <path class="st18" d="M1731.92,872.85c-6.7,0-12.14,5.43-12.14,12.14s5.44,12.14,12.14,12.14,12.14-5.43,12.14-12.14-5.44-12.14-12.14-12.14Z"/>
      <path class="st3" d="M1401.7,1132.04c38.05,0,67.96,30.3,67.96,67.96"/>
      <path class="st3" d="M1401.7,1180.58c10.87,0,19.42,8.66,19.42,19.42"/>
      <path class="st3" d="M1401.7,1083.5c65.23,0,116.51,51.93,116.51,116.5"/>
      <path class="st3" d="M1401.7,1034.95c92.42,0,165.05,73.58,165.05,165.05"/>
      <path class="st3" d="M1401.7,988.84c118.24,0,211.17,94.13,211.17,211.16"/>
      <path class="st17" d="M1776.7,950s-125,184.47-125,244.92,55.96,109.45,125,109.45,125-49,125-109.45-125-244.92-125-244.92Z"/>
    </g>
  </g>
  <g class="st24">
    <g>
      <rect class="st10" x="3501.7" y="701" width="500" height="500"/>
      <path class="st61" d="M3751.7,702.21c0-49.21,235.34-97.31,207.87-138.22-27.47-40.91-66.52-72.8-112.2-91.63-45.68-18.83-95.95-23.76-144.44-14.16-48.5,9.6-93.04,33.29-128.01,68.09-34.96,34.79-58.77,79.12-68.42,127.38-9.64,48.26-4.69,98.28,14.23,143.74,18.92,45.46,50.97,84.32,92.08,111.65,41.11,27.34,89.45,41.93,138.89,41.93v-248.79Z"/>
      <path class="st18" d="M4249.27,952.21c0,137.4-111.38,248.79-248.78,248.79s-248.79-111.39-248.79-248.79,111.39-248.79,248.79-248.79,248.78,111.39,248.78,248.79Z"/>
      <path class="st15" d="M3543.83,1340.43c-27.47-40.91-42.13-89.01-42.13-138.22h250v-248.79h0c.66,136.85,112.33,247.58,250,247.58.08,16.62-1.51,33.29-4.8,49.75-9.65,48.26-33.46,92.59-68.42,127.38-34.97,34.79-79.51,58.49-128.01,68.09-48.49,9.6-98.76,4.67-144.44-14.16-45.68-18.83-84.73-50.72-112.2-91.63Z"/>
      <path class="st17" d="M3626.7,951c-69.04,0-125,55.96-125,125s55.96,125,125,125,125-55.96,125-125-55.96-125-125-125Z"/>
      <path class="st51" d="M3626.7,1023.82c-28.82,0-52.18,23.36-52.18,52.18s23.36,52.18,52.18,52.18,52.18-23.36,52.18-52.18-23.36-52.18-52.18-52.18Z"/>
    </g>
  </g>
  <rect class="st51" x="4901.7" width="500" height="500"/>
  <g class="st31">
    <g>
      <path class="st61" d="M5401.7,250c0,69.04-27.98,131.54-73.22,176.77-45.24,45.24-107.74,73.23-176.78,73.23h250v-250Z"/>
      <path class="st61" d="M5319.7,375c0-23.2-18.8-42-42-42s-42,18.8-42,42,18.81,42,42,42c11.6,0,22.1-4.7,29.7-12.3,7.6-7.6,12.3-18.1,12.3-29.7Z"/>
      <path class="st61" d="M5276.74,250.04l-125-.04-.04,125c69.04.02,125.02-55.93,125.04-124.96Z"/>
    </g>
  </g>
  <g class="st29">
    <g>
      <path class="st61" d="M5151.7,0h-250v250c0-138.07,111.93-250,250-250Z"/>
      <path class="st61" d="M5078.48,176.77c-45.24,45.25-107.74,73.23-176.78,73.23h250V0c0,69.04-27.98,131.54-73.22,176.77Z"/>
      <path class="st61" d="M5026.7,83c-23.19,0-42,18.8-42,42s18.81,42,42,42c11.6,0,22.1-4.7,29.7-12.3,7.6-7.6,12.3-18.1,12.3-29.7,0-23.2-18.8-42-42-42Z"/>
    </g>
  </g>
  <g class="st30">
    <g>
      <path class="st61" d="M5376.7,0h-20v250h20V0Z"/>
      <path class="st61" d="M5311.7,0h20v250h-20v-93.37c0-2.67-3.24-4.02-5.12-2.11-2.01,2.03-4.22,3.86-6.61,5.46-8.21,5.47-13.27,14.57-13.27,24.44v65.59h-20v-65.59c0-9.86-5.05-18.96-13.26-24.44-2.39-1.59-4.61-3.42-6.62-5.46-1.88-1.9-5.12-.56-5.12,2.11v93.37h-20V0h20v93.36c0,2.68,3.24,4.02,5.12,2.12,2.01-2.04,4.23-3.87,6.62-5.46,8.21-5.47,13.26-14.58,13.26-24.44V0h20v65.59c0,9.79,4.92,18.93,13.09,24.32,2.39,1.57,4.6,3.38,6.61,5.39.05.05.1.1.15.15,1.9,1.92,5.15.61,5.15-2.09V0Z"/>
      <path class="st61" d="M5196.7,0h-20v250h20V0Z"/>
    </g>
  </g>
  <path class="st61" d="M4926.7,500h20v-250h-20v250Z"/>
  <path class="st61" d="M5089.2,375c0,9.65-2.19,18.8-6.1,26.95-.94,1.97-1.4,4.15-1.4,6.33v91.71h-20v-64.3c0-3.82-4.01-6.28-7.44-4.6l-.24.12c-10.67,5.2-17.31,16.17-17.31,28.04v40.73h-20v-40.73c0-11.87-6.65-22.85-17.32-28.04-.08-.04-.16-.08-.24-.12-3.43-1.69-7.44.77-7.44,4.6v64.3h-20v-91.71c0-2.18-.45-4.36-1.4-6.33-3.91-8.16-6.1-17.3-6.1-26.95s2.19-18.8,6.1-26.95c.95-1.97,1.4-4.15,1.4-6.33v-91.71h20v64.3c0,3.82,4.01,6.28,7.44,4.6.08-.04.16-.08.24-.12,10.68-5.2,17.32-16.17,17.32-28.04v-40.73h20v40.73c0,11.87,6.64,22.85,17.31,28.04l.24.12c3.43,1.69,7.44-.77,7.44-4.6v-64.3h20v91.71c0,2.18.46,4.36,1.4,6.33,3.91,8.16,6.1,17.3,6.1,26.95Z"/>
  <path class="st61" d="M5106.7,500h20v-250h-20v250Z"/>
  <g class="st28">
    <g>
      <path class="st61" d="M5614.2,951h-12.5v125h12.5v-125Z"/>
      <path class="st61" d="M5726.7,951h-12.5v125h12.5v-125Z"/>
      <path class="st61" d="M5704.2,951h-12.5v125h12.5v-125Z"/>
      <path class="st61" d="M5681.7,951h-12.5v125h12.5v-125Z"/>
      <path class="st61" d="M5659.2,951h-12.5v125h12.5v-125Z"/>
      <path class="st61" d="M5636.7,951h-12.5v125h12.5v-125Z"/>
      <path class="st61" d="M5668.7,1016.16c-1.49-.1-2.99-.16-4.5-.16s-3.01.06-4.5.16h9Z"/>
    </g>
  </g>
  <g class="st25">
    <g>
      <path class="st61" d="M5989.2,951h-12.5v125h12.5v-125Z"/>
      <path class="st61" d="M6101.7,951h-12.5v125h12.5v-125Z"/>
      <path class="st61" d="M6079.2,951h-12.5v125h12.5v-125Z"/>
      <path class="st61" d="M6056.7,951h-12.5v125h12.5v-125Z"/>
      <path class="st61" d="M6034.2,951h-12.5v125h12.5v-125Z"/>
      <path class="st61" d="M6011.7,951h-12.5v125h12.5v-125Z"/>
      <path class="st61" d="M6043.7,1016.16c-1.49-.1-2.99-.16-4.5-.16s-3.01.06-4.5.16h9Z"/>
    </g>
  </g>
  <g class="st22">
    <g>
      <path class="st61" d="M6101.7,838.5v-12.5h-125v12.5h125Z"/>
      <path class="st18" d="M6101.7,951v-12.5h-125v12.5h125Z"/>
      <path class="st17" d="M6101.7,928.5v-12.5h-125v12.5h125Z"/>
      <path class="st10" d="M6101.7,906v-12.5h-125v12.5h125Z"/>
      <path class="st16" d="M6101.7,883.5v-12.5h-125v12.5h125Z"/>
      <path class="st61" d="M6101.7,861v-12.5h-125v12.5h125Z"/>
      <path class="st61" d="M6036.54,893c.1-1.49.16-2.99.16-4.5s-.06-3.01-.16-4.5v9Z"/>
    </g>
  </g>
  <g class="st26">
    <g>
      <path class="st61" d="M5851.7,1088.5v-12.5h-125v12.5h125Z"/>
      <path class="st18" d="M5851.7,1201v-12.5h-125v12.5h125Z"/>
      <path class="st61" d="M5851.7,1178.5v-12.5h-125v12.5h125Z"/>
      <path class="st61" d="M5851.7,1156v-12.5h-125v12.5h125Z"/>
      <path class="st61" d="M5851.7,1133.5v-12.5h-125v12.5h125Z"/>
      <path class="st61" d="M5851.7,1111v-12.5h-125v12.5h125Z"/>
      <path class="st61" d="M5786.54,1143c.1-1.49.16-2.99.16-4.5s-.06-3.01-.16-4.5v9Z"/>
    </g>
  </g>
  <g class="st23">
    <g>
      <path class="st61" d="M5682.91,804.66c-13.39-5.66-25.42-13.78-35.76-24.11-10.33-10.33-18.45-22.37-24.11-35.76-5.87-13.86-8.84-28.59-8.84-43.79h-12.5c0,69.03,55.97,125,125,125v-12.5c-15.19,0-29.92-2.97-43.79-8.84Z"/>
      <path class="st61" d="M5691.67,783.93c-10.71-4.53-20.34-11.02-28.61-19.29-8.27-8.27-14.76-17.9-19.29-28.61-4.69-11.09-7.07-22.87-7.07-35.03h-12.5c0,56.61,45.89,102.5,102.5,102.5v-12.5c-12.15,0-23.94-2.38-35.03-7.07Z"/>
      <path class="st61" d="M5700.43,763.2c-8.04-3.4-15.26-8.27-21.46-14.47-6.2-6.2-11.07-13.42-14.47-21.46-3.52-8.31-5.3-17.15-5.3-26.27h-12.5c0,44.18,35.82,80,80,80v-12.5c-9.12,0-17.96-1.78-26.27-5.3Z"/>
      <path class="st61" d="M5694.88,732.82c-8.5-8.5-13.18-19.8-13.18-31.82h-12.5c0,31.76,25.74,57.5,57.5,57.5v-12.5c-12.02,0-23.32-4.68-31.82-13.18Z"/>
      <path class="st61" d="M5704.2,701h-12.5c0,19.33,15.67,35,35,35v-12.5c-12.41,0-22.5-10.09-22.5-22.5Z"/>
      <path class="st61" d="M5714.2,701c0,6.9,5.6,12.5,12.5,12.5v-12.5h-12.5Z"/>
    </g>
  </g>
  <g class="st45">
    <g>
      <path class="st61" d="M5682.91,1179.66c-13.39-5.66-25.42-13.78-35.76-24.11-10.33-10.34-18.45-22.37-24.11-35.76-5.87-13.87-8.84-28.6-8.84-43.79h-12.5c0,69.03,55.97,125,125,125v-12.5c-15.19,0-29.92-2.97-43.79-8.84Z"/>
      <path class="st61" d="M5691.67,1158.93c-10.71-4.53-20.34-11.02-28.61-19.29s-14.76-17.9-19.29-28.61c-4.69-11.09-7.07-22.88-7.07-35.03h-12.5c0,56.61,45.89,102.5,102.5,102.5v-12.5c-12.15,0-23.94-2.38-35.03-7.07Z"/>
      <path class="st61" d="M5700.43,1138.2c-8.04-3.4-15.26-8.27-21.46-14.47-6.2-6.2-11.07-13.42-14.47-21.46-3.52-8.31-5.3-17.15-5.3-26.27h-12.5c0,44.18,35.82,80,80,80v-12.5c-9.12,0-17.96-1.78-26.27-5.3Z"/>
      <path class="st61" d="M5694.88,1107.82c-8.5-8.5-13.18-19.8-13.18-31.82h-12.5c0,31.76,25.74,57.5,57.5,57.5v-12.5c-12.02,0-23.32-4.68-31.82-13.18Z"/>
      <path class="st61" d="M5704.2,1076h-12.5c0,19.33,15.67,35,35,35v-12.5c-12.41,0-22.5-10.09-22.5-22.5Z"/>
      <path class="st61" d="M5714.2,1076c0,6.9,5.6,12.5,12.5,12.5v-12.5h-12.5Z"/>
    </g>
  </g>
  <g class="st46">
    <g>
      <path class="st18" d="M5955.37,1119.79c-5.67,13.39-13.78,25.42-24.12,35.76-10.33,10.33-22.37,18.45-35.76,24.11-13.86,5.87-28.59,8.84-43.79,8.84v12.5c69.04,0,125-55.97,125-125h-12.5c0,15.19-2.97,29.92-8.83,43.79Z"/>
      <path class="st17" d="M5934.63,1111.03c-4.53,10.71-11.02,20.34-19.29,28.61s-17.89,14.76-28.61,19.29c-11.09,4.69-22.87,7.07-35.03,7.07v12.5c56.61,0,102.5-45.89,102.5-102.5h-12.5c0,12.15-2.38,23.94-7.07,35.03Z"/>
      <path class="st61" d="M5913.9,1102.27c-3.4,8.04-8.27,15.26-14.47,21.46-6.2,6.2-13.42,11.07-21.46,14.47-8.31,3.52-17.15,5.3-26.27,5.3v12.5c44.18,0,80-35.82,80-80h-12.5c0,9.12-1.78,17.96-5.3,26.27Z"/>
      <path class="st61" d="M5883.52,1107.82c-8.5,8.5-19.8,13.18-31.82,13.18v12.5c31.76,0,57.5-25.74,57.5-57.5h-12.5c0,12.02-4.68,23.32-13.18,31.82Z"/>
      <path class="st61" d="M5851.7,1098.5v12.5c19.33,0,35-15.67,35-35h-12.5c0,12.41-10.09,22.5-22.5,22.5Z"/>
      <path class="st61" d="M5851.7,1088.5c6.9,0,12.5-5.6,12.5-12.5h-12.5v12.5Z"/>
    </g>
  </g>
  <g class="st47">
    <g>
      <path class="st18" d="M5895.49,972.34c13.39,5.66,25.43,13.78,35.76,24.11,10.34,10.33,18.45,22.37,24.12,35.76,5.86,13.86,8.83,28.59,8.83,43.79h12.5c0-69.04-55.96-125-125-125v12.5c15.19,0,29.93,2.97,43.79,8.84Z"/>
      <path class="st17" d="M5886.73,993.07c10.71,4.53,20.34,11.02,28.61,19.29,8.27,8.27,14.76,17.89,19.29,28.61,4.69,11.09,7.07,22.87,7.07,35.03h12.5c0-56.61-45.89-102.5-102.5-102.5v12.5c12.16,0,23.94,2.38,35.03,7.07Z"/>
      <path class="st10" d="M5877.97,1013.8c8.04,3.4,15.26,8.27,21.46,14.47,6.2,6.2,11.07,13.42,14.47,21.46,3.52,8.31,5.3,17.15,5.3,26.27h12.5c0-44.18-35.82-80-80-80v12.5c9.12,0,17.96,1.78,26.27,5.3Z"/>
      <path class="st61" d="M5883.52,1044.18c8.5,8.5,13.18,19.8,13.18,31.82h12.5c0-31.76-25.74-57.5-57.5-57.5v12.5c12.02,0,23.32,4.68,31.82,13.18Z"/>
      <path class="st61" d="M5874.2,1076h12.5c0-19.33-15.67-35-35-35v12.5c12.41,0,22.5,10.09,22.5,22.5Z"/>
      <path class="st61" d="M5864.2,1076c0-6.9-5.6-12.5-12.5-12.5v12.5h12.5Z"/>
    </g>
  </g>
  <g class="st48">
    <g>
      <path class="st61" d="M6057.91,1179.66c-13.39-5.66-25.42-13.78-35.76-24.11-10.33-10.34-18.45-22.37-24.11-35.76-5.87-13.87-8.84-28.6-8.84-43.79h-12.5c0,69.03,55.97,125,125,125v-12.5c-15.19,0-29.92-2.97-43.79-8.84Z"/>
      <path class="st61" d="M6066.67,1158.93c-10.71-4.53-20.34-11.02-28.61-19.29s-14.76-17.9-19.29-28.61c-4.69-11.09-7.07-22.88-7.07-35.03h-12.5c0,56.61,45.89,102.5,102.5,102.5v-12.5c-12.15,0-23.94-2.38-35.03-7.07Z"/>
      <path class="st61" d="M6075.43,1138.2c-8.04-3.4-15.26-8.27-21.46-14.47-6.2-6.2-11.07-13.42-14.47-21.46-3.52-8.31-5.3-17.15-5.3-26.27h-12.5c0,44.18,35.82,80,80,80v-12.5c-9.12,0-17.96-1.78-26.27-5.3Z"/>
      <path class="st61" d="M6069.88,1107.82c-8.5-8.5-13.18-19.8-13.18-31.82h-12.5c0,31.76,25.74,57.5,57.5,57.5v-12.5c-12.02,0-23.32-4.68-31.82-13.18Z"/>
      <path class="st61" d="M6079.2,1076h-12.5c0,19.33,15.67,35,35,35v-12.5c-12.41,0-22.5-10.09-22.5-22.5Z"/>
      <path class="st61" d="M6089.2,1076c0,6.9,5.6,12.5,12.5,12.5v-12.5h-12.5Z"/>
    </g>
  </g>
  <g class="st49">
    <g>
      <path class="st18" d="M5932.91,929.66c-13.39-5.66-25.42-13.78-35.76-24.11-10.33-10.33-18.45-22.37-24.11-35.76-5.87-13.86-8.84-28.59-8.84-43.79h-12.5c0,69.03,55.97,125,125,125v-12.5c-15.19,0-29.92-2.97-43.79-8.84Z"/>
      <path class="st17" d="M5941.67,908.93c-10.71-4.53-20.34-11.02-28.61-19.29-8.27-8.27-14.76-17.9-19.29-28.61-4.69-11.09-7.07-22.87-7.07-35.03h-12.5c0,56.61,45.89,102.5,102.5,102.5v-12.5c-12.15,0-23.94-2.38-35.03-7.07Z"/>
      <path class="st10" d="M5950.43,888.2c-8.04-3.4-15.26-8.27-21.46-14.47-6.2-6.2-11.07-13.42-14.47-21.46-3.52-8.31-5.3-17.15-5.3-26.27h-12.5c0,44.18,35.82,80,80,80v-12.5c-9.12,0-17.96-1.78-26.27-5.3Z"/>
      <path class="st16" d="M5944.88,857.82c-8.5-8.5-13.18-19.8-13.18-31.82h-12.5c0,31.76,25.74,57.5,57.5,57.5v-12.5c-12.02,0-23.32-4.68-31.82-13.18Z"/>
      <path class="st61" d="M5954.2,826h-12.5c0,19.33,15.67,35,35,35v-12.5c-12.41,0-22.5-10.09-22.5-22.5Z"/>
      <path class="st61" d="M5964.2,826c0,6.9,5.6,12.5,12.5,12.5v-12.5h-12.5Z"/>
    </g>
  </g>
  <g class="st50">
    <g>
      <path class="st18" d="M5873.04,782.21c5.66-13.4,13.78-25.43,24.11-35.76,10.34-10.34,22.37-18.45,35.76-24.11,13.87-5.86,28.6-8.84,43.79-8.84v-12.5c-69.03,0-125,55.97-125,125h12.5c0-15.19,2.97-29.92,8.84-43.79Z"/>
      <path class="st17" d="M5893.77,790.97c4.53-10.71,11.02-20.34,19.29-28.61,8.27-8.27,17.9-14.76,28.61-19.29,11.09-4.69,22.88-7.07,35.03-7.07v-12.5c-56.61,0-102.5,45.89-102.5,102.5h12.5c0-12.16,2.38-23.94,7.07-35.03Z"/>
      <path class="st10" d="M5914.5,799.73c3.4-8.04,8.27-15.26,14.47-21.46,6.2-6.2,13.42-11.07,21.46-14.47,8.31-3.52,17.15-5.3,26.27-5.3v-12.5c-44.18,0-80,35.82-80,80h12.5c0-9.12,1.78-17.96,5.3-26.27Z"/>
      <path class="st16" d="M5944.88,794.18c8.5-8.5,19.8-13.18,31.82-13.18v-12.5c-31.76,0-57.5,25.74-57.5,57.5h12.5c0-12.02,4.68-23.32,13.18-31.82Z"/>
      <path class="st61" d="M5976.7,803.5v-12.5c-19.33,0-35,15.67-35,35h12.5c0-12.41,10.09-22.5,22.5-22.5Z"/>
      <path class="st61" d="M5976.7,813.5c-6.9,0-12.5,5.6-12.5,12.5h12.5v-12.5Z"/>
    </g>
  </g>
  <g class="st43">
    <g>
      <path class="st18" d="M6020.49,722.34c13.39,5.66,25.43,13.78,35.76,24.11,10.34,10.33,18.45,22.37,24.12,35.76,5.86,13.86,8.83,28.59,8.83,43.79h12.5c0-69.03-55.96-125-125-125v12.5c15.19,0,29.93,2.97,43.79,8.84Z"/>
      <path class="st17" d="M6011.73,743.07c10.71,4.53,20.34,11.02,28.61,19.29,8.27,8.27,14.76,17.9,19.29,28.61,4.69,11.09,7.07,22.87,7.07,35.03h12.5c0-56.61-45.89-102.5-102.5-102.5v12.5c12.16,0,23.94,2.38,35.03,7.07Z"/>
      <path class="st10" d="M6002.97,763.8c8.04,3.4,15.26,8.27,21.46,14.47,6.2,6.2,11.07,13.42,14.47,21.46,3.52,8.31,5.3,17.15,5.3,26.27h12.5c0-44.18-35.82-80-80-80v12.5c9.12,0,17.96,1.78,26.27,5.3Z"/>
      <path class="st16" d="M6008.52,794.18c8.5,8.5,13.18,19.8,13.18,31.82h12.5c0-31.76-25.74-57.5-57.5-57.5v12.5c12.02,0,23.32,4.68,31.82,13.18Z"/>
      <path class="st61" d="M5999.2,826h12.5c0-19.33-15.67-35-35-35v12.5c12.41,0,22.5,10.09,22.5,22.5Z"/>
      <path class="st61" d="M5989.2,826c0-6.9-5.6-12.5-12.5-12.5v12.5h12.5Z"/>
    </g>
  </g>
  <g class="st41">
    <g>
      <path class="st18" d="M5748.04,1032.21c5.66-13.39,13.78-25.43,24.11-35.76,10.34-10.34,22.37-18.45,35.76-24.11,13.87-5.86,28.6-8.84,43.79-8.84v-12.5c-69.03,0-125,55.96-125,125h12.5c0-15.19,2.97-29.93,8.84-43.79Z"/>
      <path class="st17" d="M5768.77,1040.97c4.53-10.71,11.02-20.34,19.29-28.61,8.27-8.27,17.9-14.76,28.61-19.29,11.09-4.69,22.88-7.07,35.03-7.07v-12.5c-56.61,0-102.5,45.89-102.5,102.5h12.5c0-12.16,2.38-23.94,7.07-35.03Z"/>
      <path class="st10" d="M5789.5,1049.73c3.4-8.04,8.27-15.26,14.47-21.46,6.2-6.2,13.42-11.07,21.46-14.47,8.31-3.52,17.15-5.3,26.27-5.3v-12.5c-44.18,0-80,35.82-80,80h12.5c0-9.12,1.78-17.96,5.3-26.27Z"/>
      <path class="st16" d="M5819.88,1044.18c8.5-8.5,19.8-13.18,31.82-13.18v-12.5c-31.76,0-57.5,25.74-57.5,57.5h12.5c0-12.02,4.68-23.32,13.18-31.82Z"/>
      <path class="st61" d="M5851.7,1053.5v-12.5c-19.33,0-35,15.67-35,35h12.5c0-12.41,10.09-22.5,22.5-22.5Z"/>
      <path class="st61" d="M5851.7,1063.5c-6.9,0-12.5,5.6-12.5,12.5h12.5v-12.5Z"/>
    </g>
  </g>
  <g class="st44">
    <g>
      <path class="st61" d="M5770.49,722.34c13.39,5.66,25.43,13.78,35.76,24.11,10.34,10.33,18.45,22.37,24.12,35.76,5.86,13.86,8.83,28.59,8.83,43.79h12.5c0-69.03-55.96-125-125-125v12.5c15.19,0,29.93,2.97,43.79,8.84Z"/>
      <path class="st61" d="M5761.73,743.07c10.71,4.53,20.34,11.02,28.61,19.29,8.27,8.27,14.76,17.9,19.29,28.61,4.69,11.09,7.07,22.87,7.07,35.03h12.5c0-56.61-45.89-102.5-102.5-102.5v12.5c12.16,0,23.94,2.38,35.03,7.07Z"/>
      <path class="st61" d="M5752.97,763.8c8.04,3.4,15.26,8.27,21.46,14.47,6.2,6.2,11.07,13.42,14.47,21.46,3.52,8.31,5.3,17.15,5.3,26.27h12.5c0-44.18-35.82-80-80-80v12.5c9.12,0,17.96,1.78,26.27,5.3Z"/>
      <path class="st61" d="M5758.52,794.18c8.5,8.5,13.18,19.8,13.18,31.82h12.5c0-31.76-25.74-57.5-57.5-57.5v12.5c12.02,0,23.32,4.68,31.82,13.18Z"/>
      <path class="st61" d="M5749.2,826h12.5c0-19.33-15.67-35-35-35v12.5c12.41,0,22.5,10.09,22.5,22.5Z"/>
      <path class="st61" d="M5739.2,826c0-6.9-5.6-12.5-12.5-12.5v12.5h12.5Z"/>
    </g>
  </g>
  <g class="st42">
    <g>
      <path class="st61" d="M5830.37,869.79c-5.67,13.4-13.78,25.43-24.12,35.76-10.33,10.34-22.37,18.45-35.76,24.11-13.86,5.86-28.59,8.84-43.79,8.84v12.5c69.04,0,125-55.97,125-125h-12.5c0,15.19-2.97,29.92-8.83,43.79Z"/>
      <path class="st61" d="M5809.63,861.03c-4.53,10.72-11.02,20.34-19.29,28.61-8.27,8.27-17.89,14.76-28.61,19.29-11.09,4.69-22.87,7.07-35.03,7.07v12.5c56.61,0,102.5-45.89,102.5-102.5h-12.5c0,12.16-2.38,23.94-7.07,35.03Z"/>
      <path class="st61" d="M5788.9,852.27c-3.4,8.04-8.27,15.26-14.47,21.46-6.2,6.2-13.42,11.07-21.46,14.47-8.31,3.52-17.15,5.3-26.27,5.3v12.5c44.18,0,80-35.82,80-80h-12.5c0,9.12-1.78,17.96-5.3,26.27Z"/>
      <path class="st61" d="M5758.52,857.82c-8.5,8.5-19.8,13.18-31.82,13.18v12.5c31.76,0,57.5-25.74,57.5-57.5h-12.5c0,12.02-4.68,23.32-13.18,31.82Z"/>
      <path class="st61" d="M5726.7,848.5v12.5c19.33,0,35-15.67,35-35h-12.5c0,12.41-10.09,22.5-22.5,22.5Z"/>
      <path class="st61" d="M5726.7,838.5c6.9,0,12.5-5.6,12.5-12.5h-12.5v12.5Z"/>
    </g>
  </g>
  <g class="st37">
    <g>
      <path class="st61" d="M5623.04,907.21c5.66-13.39,13.78-25.43,24.11-35.76,10.34-10.34,22.37-18.45,35.76-24.11,13.87-5.86,28.6-8.84,43.79-8.84v-12.5c-69.03,0-125,55.97-125,125h12.5c0-15.19,2.97-29.92,8.84-43.79Z"/>
      <path class="st61" d="M5643.77,915.97c4.53-10.71,11.02-20.34,19.29-28.61,8.27-8.27,17.9-14.76,28.61-19.29,11.09-4.69,22.88-7.07,35.03-7.07v-12.5c-56.61,0-102.5,45.89-102.5,102.5h12.5c0-12.16,2.38-23.94,7.07-35.03Z"/>
      <path class="st61" d="M5664.5,924.73c3.4-8.04,8.27-15.26,14.47-21.46,6.2-6.2,13.42-11.07,21.46-14.47,8.31-3.52,17.15-5.3,26.27-5.3v-12.5c-44.18,0-80,35.82-80,80h12.5c0-9.12,1.78-17.96,5.3-26.27Z"/>
      <path class="st61" d="M5694.88,919.18c8.5-8.5,19.8-13.18,31.82-13.18v-12.5c-31.76,0-57.5,25.74-57.5,57.5h12.5c0-12.02,4.68-23.32,13.18-31.82Z"/>
      <path class="st61" d="M5726.7,928.5v-12.5c-19.33,0-35,15.67-35,35h12.5c0-12.41,10.09-22.5,22.5-22.5Z"/>
      <path class="st61" d="M5726.7,938.5c-6.9,0-12.5,5.6-12.5,12.5h12.5v-12.5Z"/>
    </g>
  </g>
  <rect class="st51" x="4201.7" y="700" width="500" height="500"/>
  <path class="st61" d="M4701.7,950c0,69.03-27.98,131.53-73.22,176.77-45.24,45.25-107.74,73.23-176.78,73.23h250v-250Z"/>
  <path class="st61" d="M4619.95,1075c0-23.37-18.94-42.3-42.3-42.3s-42.3,18.93-42.3,42.3,18.94,42.3,42.3,42.3c11.68,0,22.26-4.73,29.91-12.39,7.66-7.65,12.39-18.23,12.39-29.91Z"/>
  <path class="st61" d="M4577.18,950.03l-125.44-.03-.04,124.52c69.28.02,125.46-55.71,125.48-124.49Z"/>
  <path class="st61" d="M4451.7,700h-250v250c0-138.07,111.93-250,250-250Z"/>
  <path class="st61" d="M4378.48,876.78c-45.24,45.24-107.74,73.22-176.78,73.22h250v-250c0,69.03-27.98,131.53-73.22,176.78Z"/>
  <path class="st61" d="M4326.7,782.7c-23.36,0-42.3,18.93-42.3,42.3s18.94,42.3,42.3,42.3c11.68,0,22.26-4.73,29.91-12.39,7.66-7.65,12.39-18.23,12.39-29.91,0-23.37-18.94-42.3-42.3-42.3Z"/>
  <path class="st61" d="M4451.7,950h125l125-250h-250v250Z"/>
  <path class="st61" d="M4451.7,950v125l-250,125v-250h250Z"/>
  <rect class="st18" x="5601.7" y="1" width="500" height="500"/>
  <rect class="st21" x="5601.7" y="1" width="250" height="250"/>
  <rect class="st61" x="5851.7" y="251" width="250" height="250"/>
  <rect class="st17" x="5851.7" y="1" width="250" height="250"/>
  <path class="st61" d="M5807.02,35.52c-10.36,29.14-43.65,42.93-71.6,29.65-44.36-21.09-90.64,25.19-69.55,69.55,13.28,27.94-.51,61.23-29.65,71.6-21.44,7.63-32.95,25.76-34.52,44.68h250V1c-18.91,1.58-37.05,13.08-44.68,34.52Z"/>
  <path class="st61" d="M5896.35,35.69c10.35,29.12,43.62,42.9,71.54,29.63,44.33-21.07,90.57,25.17,69.5,69.5-13.27,27.91.51,61.18,29.63,71.54,21.42,7.62,32.92,25.75,34.49,44.65h.19V1h-250s0,.19,0,.19c18.9,1.57,37.03,13.07,44.65,34.49Z"/>
  <path class="st61" d="M5807.06,466.32c-10.36-29.12-43.62-42.9-71.54-29.63-44.33,21.07-90.58-25.17-69.5-69.5,13.27-27.92-.51-61.18-29.63-71.54-21.43-7.62-32.92-25.74-34.49-44.64h-.2v250h250v-.2c-18.9-1.57-37.02-13.07-44.64-34.49Z"/>
  <path class="st21" d="M6039.2,377h62.5c0-69.59-55.96-126-125-126s-125,56.41-125,126h62.5c0,34.8,27.98,63,62.5,63s62.5-28.2,62.5-63Z"/>
  <rect class="st18" x="4901.7" y="701" width="500" height="500"/>
  <path class="st61" d="M5401.7,951v-250h-250c138.07,0,250,111.93,250,250Z"/>
  <path class="st61" d="M5376.7,951h-20v250h20v-250Z"/>
  <path class="st61" d="M5311.7,951h20v250h-20v-93.37c0-2.67-3.24-4.02-5.12-2.11-2.01,2.03-4.22,3.86-6.61,5.45-8.21,5.47-13.27,14.58-13.27,24.44v65.59h-20v-65.59c0-9.86-5.05-18.96-13.26-24.44-2.39-1.59-4.61-3.42-6.62-5.45-1.88-1.91-5.12-.56-5.12,2.11v93.37h-20v-250h20v93.36c0,2.68,3.24,4.02,5.12,2.12,2.01-2.04,4.23-3.87,6.62-5.46,8.21-5.47,13.26-14.57,13.26-24.44v-65.58h20v65.59c0,9.79,4.92,18.93,13.09,24.32,2.39,1.57,4.6,3.38,6.61,5.39.05.05.1.1.15.15,1.9,1.91,5.15.6,5.15-2.09v-93.36Z"/>
  <path class="st61" d="M5196.7,951h-20v250h20v-250Z"/>
  <path class="st61" d="M4927.7,1201h20v-250h-20v250Z"/>
  <path class="st61" d="M5090.2,1076c0,9.65-2.19,18.79-6.1,26.95-.94,1.97-1.4,4.15-1.4,6.33v91.72h-20v-64.3c0-3.82-4.01-6.28-7.44-4.59-.08.04-.16.08-.24.12-10.67,5.2-17.31,16.17-17.31,28.04v40.73h-20v-40.73c0-11.87-6.65-22.84-17.32-28.04-.08-.04-.16-.08-.24-.12-3.43-1.69-7.44.77-7.44,4.59v64.3h-20v-91.72c0-2.18-.45-4.36-1.4-6.33-3.91-8.16-6.1-17.3-6.1-26.95s2.19-18.8,6.1-26.96c.95-1.97,1.4-4.14,1.4-6.33v-91.71h20v64.29c0,3.83,4.01,6.28,7.44,4.6.08-.04.16-.08.24-.12,10.68-5.2,17.32-16.18,17.32-28.05v-40.72h20v40.72c0,11.87,6.64,22.85,17.31,28.05.08.04.16.08.24.12,3.43,1.69,7.44-.77,7.44-4.6v-64.29h20v91.71c0,2.19.46,4.36,1.4,6.33,3.91,8.16,6.1,17.3,6.1,26.96Z"/>
  <path class="st61" d="M5107.7,1201h20v-250h-20v250Z"/>
  <path class="st61" d="M5107.95,951h20c0-13.39,10.53-24.32,23.75-24.97v-20.02c-24.23.66-43.75,20.59-43.75,44.98h0Z"/>
  <path class="st61" d="M5062.95,951h20c0-38.24,30.67-69.32,68.75-69.98v-20c-23.57.32-45.68,9.64-62.39,26.34-17,17-26.36,39.6-26.36,63.64Z"/>
  <path class="st61" d="M5057.49,855.54c-12.4,12.4-22.14,26.84-28.94,42.92-7.03,16.62-10.6,34.3-10.6,52.54h20c0-63.09,50.82-114.31,113.75-114.98v-20c-17.79.16-35.04,3.71-51.29,10.59-16.07,6.8-30.51,16.53-42.92,28.94Z"/>
  <path class="st61" d="M5151.7,701.01h0s-250-.01-250-.01v250h1.25c0-137.65,111.26-249.32,248.75-249.99Z"/>
  <path class="st61" d="M5025.67,823.72c-16.54,16.54-29.52,35.79-38.58,57.22-9.38,22.17-14.14,45.74-14.14,70.05h20c0-87.95,70.96-159.31,158.75-159.98v-20c-23.87.16-47.01,4.9-68.8,14.12-21.43,9.06-40.69,22.04-57.23,38.58Z"/>
  <path class="st61" d="M4993.85,791.9c-20.67,20.67-36.9,44.73-48.23,71.52-11.72,27.73-17.67,57.18-17.67,87.58h20c0-112.8,91.11-204.32,203.75-204.99v-20c-29.94.16-58.98,6.1-86.32,17.66-26.79,11.33-50.86,27.56-71.53,48.23h0Z"/>
  <rect class="st21" x="6301.7" y="700" width="500" height="500"/>
  <path class="st18" d="M6551.7,1200l-125-125h125v125Z"/>
  <path class="st61" d="M6426.7,1075h62.5l62.5,125h-125v-125Z"/>
  <path class="st15" d="M6614.85,825c-.12,0-.24,0-.37,0h-.38c-34.47.06-62.4,28.02-62.4,62.5s27.92,62.44,62.39,62.5h.39c.13,0,.25,0,.37,0h.04s.05,0,.05,0c34.17-.39,61.76-28.22,61.76-62.5s-27.6-62.11-61.79-62.5c-.02,0-.04,0-.06,0ZM6588.31,834.78c-13.45,11.1-22.36,30.56-22.36,52.72s8.92,41.63,22.36,52.73c-16.83-10.13-28.36-29.85-28.36-52.73s11.52-42.59,28.36-52.72ZM6634.84,833.91c11.52,10.93,19.22,30.84,19.22,53.59s-7.7,42.66-19.22,53.59c14.95-9.89,25.22-30.2,25.22-53.59s-10.27-43.71-25.22-53.59ZM6588.56,844.65c3.07-4.85,6.58-8.77,10.44-11.65-9.41,10.71-15.77,31.11-15.77,54.5s6.37,43.81,15.79,54.52c-3.87-2.89-7.38-6.8-10.46-11.66-3.51-5.53-6.26-11.98-8.19-19.17-2.01-7.49-3.03-15.46-3.03-23.68s1.02-16.18,3.03-23.68c1.93-7.2,4.68-13.65,8.19-19.17ZM6624.27,943.42c.1-.08.19-.15.28-.23,3.43-2.93,6.53-7.17,9.21-12.6,5.68-11.47,8.8-26.77,8.8-43.09s-3.12-31.62-8.8-43.09c-2.68-5.43-5.78-9.67-9.21-12.6-.09-.08-.18-.16-.28-.24,7.29,10.26,12.29,31.45,12.29,55.92s-5,45.66-12.29,55.92ZM6600.76,887.5c0-25.71,3.36-47.8,8.16-57.39-.44.42-.88.89-1.31,1.41-2.42,2.88-4.71,7.24-6.62,12.62-4.11,11.54-6.37,26.94-6.37,43.36s2.26,31.82,6.37,43.36c1.91,5.38,4.2,9.74,6.62,12.62.43.52.87.99,1.31,1.41-4.8-9.6-8.16-31.68-8.16-57.39ZM6616.23,829.21c1.8,9.06,3.08,31.74,3.08,58.29s-1.28,49.23-3.08,58.29c1.44-2.07,3.39-6.37,5.18-14.62,2.51-11.63,3.9-27.14,3.9-43.66s-1.39-32.03-3.9-43.66c-1.79-8.26-3.74-12.55-5.18-14.62ZM6640.92,939.72c16.38-10.27,27.53-29.71,27.53-52.22s-11.15-41.95-27.54-52.22c13.11,11.18,21.76,30.39,21.76,52.22s-8.65,41.04-21.75,52.22ZM6594.59,833.38c-11.83,10.81-19.78,31-19.78,54.12s7.96,43.31,19.79,54.12c-15.39-9.68-26.04-30.3-26.04-54.12s10.65-44.43,26.03-54.12ZM6645.14,887.5c0,24.14-6.77,45.09-16.68,55.5,4.42-2.95,8.41-7.21,11.86-12.65,3.5-5.53,6.25-11.98,8.18-19.18,2.01-7.49,3.03-15.46,3.03-23.68s-1.02-16.18-3.03-23.68c-1.93-7.2-4.68-13.65-8.18-19.17-3.45-5.44-7.45-9.7-11.87-12.65h0c9.92,10.4,16.7,31.35,16.7,55.51ZM6604.7,943.9c-.3-.23-.59-.47-.88-.72-3.42-2.93-6.52-7.17-9.21-12.6-5.67-11.47-8.8-26.77-8.8-43.09s3.13-31.62,8.8-43.09c2.69-5.43,5.79-9.67,9.21-12.6.29-.25.58-.49.88-.72-7.48,10.07-12.64,31.54-12.64,56.4s5.16,46.34,12.64,56.4ZM6621.02,943.48c-.44.52-.88.99-1.32,1.41,4.8-9.6,8.16-31.68,8.16-57.39s-3.36-47.8-8.16-57.39c.44.42.88.89,1.32,1.41,2.41,2.88,4.7,7.24,6.62,12.62,4.1,11.54,6.36,26.94,6.36,43.36s-2.26,31.82-6.36,43.36c-1.92,5.38-4.21,9.75-6.62,12.62ZM6612.74,946.26c-1.47-1.86-3.59-6.16-5.52-15.09-2.52-11.63-3.91-27.14-3.91-43.66s1.39-32.03,3.91-43.66c1.93-8.93,4.05-13.23,5.52-15.09-1.85,8.73-3.18,31.74-3.18,58.76s1.33,50.03,3.18,58.76ZM6652.12,934c11.56-11.44,18.83-28.04,18.83-46.5s-7.27-35.06-18.83-46.5c13.47,11,22.08,27.75,22.08,46.5s-8.61,35.5-22.08,46.5ZM6576.28,934c-11.56-11.44-18.83-28.04-18.83-46.5s7.27-35.06,18.83-46.5c-13.47,11-22.08,27.75-22.08,46.5s8.61,35.5,22.08,46.5ZM6613.36,928.84c.35,5.1.73,8.87,1.08,11.65.35-2.79.72-6.56,1.07-11.65.78-11.39,1.21-26.07,1.21-41.34s-.43-29.96-1.21-41.34c-.35-5.1-.73-8.87-1.07-11.65-.36,2.79-.73,6.56-1.08,11.65-.78,11.39-1.21,26.07-1.21,41.34s.43,29.96,1.21,41.34Z"/>
  <g class="st32">
    <g>
      <rect class="st18" x="6676.7" y="700" width="125" height="125"/>
      <path class="st61" d="M6676.7,700h62.5l62.5,125h-125v-125Z"/>
    </g>
  </g>
  <g class="st33">
    <g>
      <path class="st18" d="M6801.7,1012.5v-62.5h-62.5v62.5h62.5Z"/>
      <path class="st18" d="M6739.2,1075v-62.5h-62.5v62.5h62.5Z"/>
    </g>
  </g>
  <g class="st34">
    <g>
      <rect class="st18" x="6301.7" y="825" width="125" height="125"/>
      <path class="st21" d="M6426.7,887.5v-62.5h-125v125h62.5c0-34.52,27.98-62.5,62.5-62.5Z"/>
    </g>
  </g>
  <path class="st61" d="M6551.7,825l-125-125h125v125Z"/>
  <path class="st61" d="M6676.7,950l125-125v125h-125Z"/>
  <path class="st18" d="M6676.7,1075l-125-125h125v125Z"/>
  <path class="st18" d="M6801.7,1200l-125-125h125v125Z"/>
  <path class="st18" d="M6426.7,700l125,125h-125v-125Z"/>
  <path class="st21" d="M6551.7,950l125,125h-125v-125Z"/>
  <path class="st21" d="M6676.7,1075l125,125h-125v-125Z"/>
  <path class="st18" d="M6801.7,825l-125,125v-125h125Z"/>
  <g class="st35">
    <g>
      <rect class="st21" x="6551.7" y="700" width="125" height="125"/>
      <path class="st61" d="M6551.7,825h125v-125c0,69.03-55.97,125-125,125Z"/>
    </g>
  </g>
  <path class="st21" d="M6426.7,1200v-125h-125c69.04,0,125,55.96,125,125Z"/>
  <path class="st18" d="M6676.69,1075v62.5l-125,62.5v-125h125Z"/>
  <g class="st36">
    <g>
      <rect class="st18" x="6241.7" y="764.98" width="310" height="310"/>
      <path class="st61" d="M6551.7,1074.98h-155l-155-310.01h310v310.01Z"/>
    </g>
  </g>
  <g class="st38">
    <g>
      <rect class="st18" x="6301.7" y="950" width="125" height="125"/>
      <path class="st61" d="M6301.7,950h62.5l62.5,125h-125v-125Z"/>
    </g>
  </g>
  <g class="st39">
    <g>
      <rect class="st18" x="6426.7" y="825" width="125" height="125"/>
      <path class="st61" d="M6426.7,950h62.5v-125h-62.5v125Z"/>
    </g>
  </g>
  <g class="st40">
    <g>
      <path class="st61" d="M1.7,1525h125v-125c-69.02-.02-124.98,55.96-125,125Z"/>
      <path class="st61" d="M126.7,1400v125h125c.02-69.02-55.96-124.98-125-125Z"/>
      <path class="st61" d="M501.7,1650h-125v125c69.02.02,124.98-55.96,125-125Z"/>
      <path class="st61" d="M126.7,1650v-125H1.7c-.02,69.02,55.96,124.98,125,125Z"/>
      <path class="st61" d="M251.7,1650h125v-125c-69.02-.02-124.98,55.96-125,125Z"/>
      <path class="st61" d="M1.7,1775h125v-125c-69.02-.02-124.98,55.96-125,125Z"/>
      <path class="st61" d="M1.7,1900h125v-125c-69.02-.02-124.98,55.96-125,125Z"/>
      <path class="st61" d="M376.7,1775v125h125c.02-69.02-55.96-124.98-125-125Z"/>
      <path class="st19" d="M376.71,1625v12.5c6.91,0,12.5,5.59,12.5,12.5h12.5c0-13.81-11.19-25-25-25Z"/>
      <path class="st19" d="M376.71,1600v12.5c20.71,0,37.5,16.79,37.5,37.5h12.5c0-27.61-22.39-50-50-50Z"/>
      <path class="st19" d="M376.71,1575v12.5c34.52,0,62.5,27.98,62.5,62.5h12.5c0-41.42-33.58-75-75-75Z"/>
      <path class="st19" d="M376.71,1550v12.5c48.32,0,87.5,39.18,87.5,87.5h12.5c0-55.23-44.77-100-100-100Z"/>
      <path class="st19" d="M376.71,1525v12.5c62.13,0,112.5,50.37,112.5,112.5h12.49c0-69.01-56.17-125-124.99-125Z"/>
      <path class="st61" d="M376.7,1775v-125h-125c68.83,0,124.99,55.99,124.99,125h0Z"/>
      <path class="st15" d="M332.95,1840c0,8.1-6.25,15.82-6.25,23.92v36.08h-12.5v-36.08c0-8.1-6.25-15.82-6.25-23.92s6.25-15.82,6.25-23.92v-41.08h12.5v41.08c0,8.1,6.25,15.82,6.25,23.92Z"/>
      <path class="st15" d="M307.95,1815c0,8.1-6.25,15.82-6.25,23.92v61.08h-12.5v-61.08c0-8.1-6.25-15.82-6.25-23.92s6.25-15.82,6.25-23.92v-16.08h12.5v16.08c0,8.1,6.25,15.82,6.25,23.92Z"/>
      <path class="st61" d="M126.7,1525v125h125v-125h-125Z"/>
      <path class="st61" d="M357.95,1835c-3.45,0-6.25-4.75-6.25-13.75v-46.25h-12.5v125h12.5v-5.55c0-9,2.8-13.75,6.25-13.75s6.25,4.75,6.25,13.75v5.55h12.5v-125h-12.5v46.25c0,9-2.8,13.75-6.25,13.75ZM364.2,1856.15c0,8.89-2.8,16.09-6.25,16.09s-6.25-7.2-6.25-16.09,2.8-16.1,6.25-16.1,6.25,7.21,6.25,16.1Z"/>
      <path class="st61" d="M251.7,1650.01h-125v125c0-68.83,55.99-125,125-125h0Z"/>
      <path class="st61" d="M126.7,1900h12.5v-125h-12.5v125Z"/>
      <path class="st61" d="M226.7,1900h12.5v-125h-12.5v125Z"/>
      <path class="st15" d="M164.2,1900h-12.5v-125h12.5v34.99c0,1.04,1.19,1.64,2.06,1.09.31-.2.62-.39.94-.57,5.13-3,9.5-7.91,9.5-13.85v-21.66h12.5v21.66c0,5.94,4.37,10.84,9.5,13.85.32.18.63.37.94.57.87.55,2.06-.05,2.06-1.09v-34.99h12.5v125h-12.5v-34.99c0-1.04-1.19-1.64-2.06-1.08-.31.19-.62.38-.94.57-5.13,3-9.5,7.9-9.5,13.85v21.66h-12.5v-21.66c0-5.94-4.37-10.84-9.5-13.85-.32-.19-.63-.38-.94-.57-.87-.56-2.06.05-2.06,1.08v34.99Z"/>
      <path class="st61" d="M151.7,1820.86c0,1.09-.26,2.18-.8,3.17-2.22,4.07-3.47,8.65-3.47,13.48s1.25,9.39,3.47,13.47c.54.99.8,2.08.8,3.17"/>
      <path class="st61" d="M214.2,1854.14c0-1.09.26-2.18.8-3.17,2.22-4.07,3.47-8.65,3.47-13.48s-1.25-9.39-3.47-13.47c-.54-.99-.8-2.08-.8-3.17"/>
      <path class="st19" d="M226.7,1775h12.5c0-6.91,5.59-12.5,12.5-12.5v-12.5c-13.81,0-25,11.19-25,25Z"/>
      <path class="st19" d="M201.7,1775h12.5c0-20.71,16.79-37.5,37.5-37.5v-12.5c-27.61,0-50,22.39-50,50Z"/>
      <path class="st19" d="M176.7,1775h12.5c0-34.52,27.98-62.51,62.51-62.51v-12.5c-41.42,0-75.01,33.59-75.01,75.01Z"/>
      <path class="st19" d="M151.69,1775h12.5c0-48.33,39.18-87.51,87.5-87.51v-12.5c-55.23,0-100,44.78-100,100.01Z"/>
      <path class="st19" d="M126.69,1775h12.5c0-62.14,50.37-112.51,112.5-112.51v-12.49c-69.02,0-125,56.17-125,125Z"/>
      <path class="st61" d="M276.69,1775h-12.5v125h12.5v-125Z"/>
    </g>
  </g>
</svg>