<?xml version="1.0" encoding="UTF-8"?>
<svg xmlns="http://www.w3.org/2000/svg" width="200" height="200" viewBox="0 0 200 200">
  <path d="M0.855514,106.52631 L3.407417,112.940952 L7.612047,119.134172 L13.39746,125 L20.664666,130.438071 L29.289322,135.355339 L39.123857,139.667667 L50,143.30127 L61.731657,146.193977 L74.118095,148.296291 L86.947381,149.572243 L100,150 L113.052619,149.572243 L125.881905,148.296291 L138.268343,146.193977 L150,143.30127 L160.876143,139.667667 L170.710678,135.355339 L179.335334,130.438071 L186.60254,125 L192.387953,119.134172 L196.592583,112.940952 L199.144486,106.52631 L200,100 L199.144486,93.47369 L196.592583,87.059048 L192.387953,80.865828 L186.60254,75 L179.335334,69.561929 L170.710678,64.644661 L160.876143,60.332333 L150,56.69873 L138.268343,53.806023 L125.881905,51.703709 L113.052619,50.427757 L100,50 L86.947381,50.427757 L74.118095,51.703709 L61.731657,53.806023 L50,56.69873 L39.123857,60.332333 L29.289322,64.644661 L20.664666,69.561929 L13.39746,75 L7.612047,80.865828 L3.407417,87.059048 L0.855514,93.47369 L0,100 Z M66.951671,95.649131 L67.802305,91.372707 L69.203846,87.243898 L71.132315,83.33335 L73.554715,79.707973 L76.429598,76.429798 L79.707773,73.554915 L83.33315,71.132515 L87.243698,69.204046 L91.372507,67.802505 L95.648931,66.951871 L99.9998,66.6667 L104.350669,66.951871 L108.627093,67.802505 L112.755902,69.204046 L116.66645,71.132515 L120.291827,73.554915 L123.570002,76.429798 L126.444885,79.707973 L128.867285,83.33335 L130.795754,87.243898 L132.197295,91.372707 L133.047929,95.649131 L133.3331,100 L133.047929,104.350869 L132.197295,108.627293 L130.795754,112.756102 L128.867285,116.66665 L126.444885,120.292027 L123.570002,123.570202 L120.291827,126.445085 L116.66645,128.867485 L112.755902,130.795954 L108.627093,132.197495 L104.350669,133.048129 L99.9998,133.3333 L95.648931,133.048129 L91.372507,132.197495 L87.243698,130.795954 L83.33315,128.867485 L79.707773,126.445085 L76.429598,123.570202 L73.554715,120.292027 L71.132315,116.66665 L69.203846,112.756102 L67.802305,108.627293 L66.951671,104.350869 L66.6665,100 Z" fill="#121212"/>
</svg>
