<?xml version="1.0" encoding="UTF-8"?>
<svg xmlns="http://www.w3.org/2000/svg" width="200" height="200" viewBox="0 0 200 200">
  <path d="M50,54.166667 L50,58.333333 L50,62.5 L50,66.666667 L50,70.833333 L50,75 L50,79.166667 L50,83.333333 L50,87.5 L50,91.666667 L50,95.833333 L50,100 L50,104.166667 L50,108.333333 L50,112.5 L50,116.666667 L50,120.833333 L50,125 L50,129.166667 L50,133.333333 L50,137.5 L50,141.666667 L50,145.833333 L50,150 L50,150 L50.115352,153.42328 L50.456442,156.784654 L51.015824,160.076676 L51.786051,163.291898 L52.759676,166.422874 L53.929253,169.462156 L55.287335,172.402298 L56.826474,175.235852 L58.539225,177.955371 L60.418139,180.553409 L62.455772,183.022517 L64.644675,185.35525 L66.977402,187.54416 L69.446506,189.5818 L72.044541,191.460723 L74.764059,193.173481 L77.597614,194.712629 L80.537759,196.070719 L83.577048,197.240303 L86.708032,198.213935 L89.923267,198.984168 L93.215304,199.543554 L96.576697,199.884647 L100,200 L100,200 L103.42328,199.884647 L106.784654,199.543554 L110.076676,198.984168 L113.291898,198.213935 L116.422874,197.240303 L119.462156,196.070719 L122.402298,194.712629 L125.235852,193.173481 L127.955371,191.460723 L130.553409,189.5818 L133.022517,187.54416 L135.35525,185.35525 L137.54416,183.022517 L139.5818,180.553409 L141.460723,177.955371 L143.173481,175.235852 L144.712629,172.402298 L146.070719,169.462156 L147.240303,166.422874 L148.213935,163.291898 L148.984168,160.076676 L149.543554,156.784654 L149.884647,153.42328 L150,150 L150,145.833333 L150,141.666667 L150,137.5 L150,133.333333 L150,129.166667 L150,125 L150,120.833333 L150,116.666667 L150,112.5 L150,108.333333 L150,104.166667 L150,100 L150,95.833333 L150,91.666667 L150,87.5 L150,83.333333 L150,79.166667 L150,75 L150,70.833333 L150,66.666667 L150,62.5 L150,58.333333 L150,54.166667 L150,50 L150,50 L149.884647,46.576697 L149.543554,43.215304 L148.984168,39.923267 L148.213935,36.708033 L147.240303,33.577049 L146.070719,30.537761 L144.712629,27.597616 L143.173481,24.764062 L141.460723,22.044544 L139.5818,19.44651 L137.54416,16.977406 L135.35525,14.644679 L133.022517,12.455777 L130.553409,10.418145 L127.955371,8.539231 L125.235852,6.826481 L122.402298,5.287342 L119.462156,3.929261 L116.422874,2.759684 L113.291898,1.786059 L110.076676,1.015832 L106.784654,0.45645 L103.42328,0.11536 L100,0 L100,0 L96.576697,0.11536 L93.215304,0.45645 L89.923267,1.015832 L86.708032,1.786059 L83.577048,2.759684 L80.537759,3.929261 L77.597614,5.287342 L74.764059,6.826481 L72.044541,8.539231 L69.446506,10.418145 L66.977402,12.455777 L64.644675,14.644679 L62.455772,16.977406 L60.418139,19.44651 L58.539225,22.044544 L56.826474,24.764062 L55.287335,27.597616 L53.929253,30.537761 L52.759676,33.577049 L51.786051,36.708033 L51.015824,39.923267 L50.456442,43.215304 L50.115352,46.576697 L50,50 Z M66.951671,95.649131 L67.802305,91.372707 L69.203846,87.243898 L71.132315,83.33335 L73.554715,79.707973 L76.429598,76.429798 L79.707773,73.554915 L83.33315,71.132515 L87.243698,69.204046 L91.372507,67.802505 L95.648931,66.951871 L99.9998,66.6667 L104.350669,66.951871 L108.627093,67.802505 L112.755902,69.204046 L116.66645,71.132515 L120.291827,73.554915 L123.570002,76.429798 L126.444885,79.707973 L128.867285,83.33335 L130.795754,87.243898 L132.197295,91.372707 L133.047929,95.649131 L133.3331,100 L133.047929,104.350869 L132.197295,108.627293 L130.795754,112.756102 L128.867285,116.66665 L126.444885,120.292027 L123.570002,123.570202 L120.291827,126.445085 L116.66645,128.867485 L112.755902,130.795954 L108.627093,132.197495 L104.350669,133.048129 L99.9998,133.3333 L95.648931,133.048129 L91.372507,132.197495 L87.243698,130.795954 L83.33315,128.867485 L79.707773,126.445085 L76.429598,123.570202 L73.554715,120.292027 L71.132315,116.66665 L69.203846,112.756102 L67.802305,108.627293 L66.951671,104.350869 L66.6665,100 Z" fill="#121212"/>
</svg>
