<?xml version="1.0" encoding="UTF-8"?>
<svg xmlns="http://www.w3.org/2000/svg" width="200" height="200" viewBox="0 0 200 200">
  <path d="M25.641635,106.52631 L27.555563,112.940952 L30.709035,119.134172 L35.048095,125 L40.498499,130.438071 L46.966991,135.355339 L54.342893,139.667667 L62.5,143.30127 L71.298743,146.193977 L80.588572,148.296291 L82.946199,148.608932 L79.707773,146.445085 L76.429598,143.570202 L73.554715,140.292027 L71.132315,136.66665 L69.203846,132.756102 L67.802305,128.627293 L66.951671,124.350869 L66.6665,120 L66.951671,115.649131 L67.802305,111.372707 L69.203846,107.243898 L71.132315,103.33335 L73.554715,99.707973 L76.429598,96.429798 L79.707773,93.554915 L83.33315,91.132515 L87.243698,89.204046 L91.372507,87.802505 L95.648931,86.951871 L99.9998,86.6667 L104.350669,86.951871 L108.627093,87.802505 L112.755902,89.204046 L116.66645,91.132515 L120.291827,93.554915 L123.570002,96.429798 L126.444885,99.707973 L128.867285,103.33335 L130.795754,107.243898 L132.197295,111.372707 L133.047929,115.649131 L133.3331,120 L133.047929,124.350869 L132.197295,128.627293 L130.795754,132.756102 L128.867285,136.66665 L126.444885,140.292027 L123.570002,143.570202 L120.291827,146.445085 L117.053302,148.608998 L119.411428,148.296291 L128.701257,146.193977 L137.5,143.30127 L145.657107,139.667667 L153.033009,135.355339 L159.501501,130.438071 L164.951905,125 L169.290965,119.134172 L172.444437,112.940952 L174.358365,106.52631 L175,100 L174.358365,93.47369 L172.444437,87.059048 L169.290965,80.865828 L164.951905,75 L159.501501,69.561929 L153.033009,64.644661 L145.657107,60.332333 L137.5,56.69873 L128.701257,53.806023 L119.411428,51.703709 L109.789464,50.427757 L100,50 L90.210536,50.427757 L80.588572,51.703709 L71.298743,53.806023 L62.5,56.69873 L54.342893,60.332333 L46.966991,64.644661 L40.498499,69.561929 L35.048095,75 L30.709035,80.865828 L27.555563,87.059048 L25.641635,93.47369 L25,100 Z" fill="#121212"/>
</svg>
