<?xml version='1.0' encoding='UTF-8'?>
<svg xmlns="http://www.w3.org/2000/svg" version="1.1" width="1920" height="960" viewBox="0 0 1920 960">
<rect x="0.000" y="0.000" width="320.000" height="320.000" fill="#121212"/>
<g transform="translate(0.000,0.000) scale(1.60000) rotate(270,100,100)"><path d="M166.667 200C129.848 200 33.3333 200 33.3333 200C33.3333 163.181 63.1809 133.333 99.9999 133.333C136.819 133.333 166.667 163.181 166.667 200Z" fill="#FFFFFF"/></g>
<rect x="320.000" y="0.000" width="320.000" height="320.000" fill="#FFFFFF"/>
<g transform="translate(320.000,0.000) scale(1.60000) rotate(180,100,100)"><path fill-rule="evenodd" clip-rule="evenodd" d="M0 100L200 0L0 0L0 200L200 200L0 100Z" fill="#121212"/></g>
<rect x="640.000" y="0.000" width="320.000" height="320.000" fill="#121212"/>
<g transform="translate(640.000,0.000) scale(1.60000) rotate(180,100,100)"><path fill-rule="evenodd" clip-rule="evenodd" d="M0 100L200 0L0 0L0 200L200 200L0 100Z" fill="#FFFFFF"/></g>
<rect x="960.000" y="0.000" width="320.000" height="320.000" fill="#FFFFFF"/>
<g transform="translate(960.000,0.000) scale(1.60000)"><path fill-rule="evenodd" clip-rule="evenodd" d="M0 100L200 0L0 0L0 200L200 200L0 100Z" fill="#121212"/></g>
<rect x="1280.000" y="0.000" width="320.000" height="320.000" fill="#FFFFFF"/>
<g transform="translate(1280.000,0.000) scale(1.60000) rotate(270,100,100)"><path fill-rule="evenodd" clip-rule="evenodd" d="M0 100L200 0L0 0L0 200L200 200L0 100Z" fill="#3A4A6B"/></g>
<rect x="1600.000" y="0.000" width="320.000" height="320.000" fill="#121212"/>
<g transform="translate(1600.000,0.000) scale(1.60000) rotate(270,100,100)"><path d="M166.667 200C129.848 200 33.3333 200 33.3333 200C33.3333 163.181 63.1809 133.333 99.9999 133.333C136.819 133.333 166.667 163.181 166.667 200Z" fill="#FFFFFF"/></g>
<rect x="0.000" y="320.000" width="320.000" height="320.000" fill="#FFFFFF"/>
<g transform="translate(0.000,320.000) scale(1.60000) rotate(90,100,100)"><path fill-rule="evenodd" clip-rule="evenodd" d="M0 100L200 0L0 0L0 200L200 200L0 100Z" fill="#121212"/></g>
<rect x="320.000" y="320.000" width="320.000" height="320.000" fill="#121212"/>
<g transform="translate(320.000,320.000) scale(1.60000) rotate(180,100,100)"><path fill-rule="evenodd" clip-rule="evenodd" d="M100 100L200 0L0 0L0 200L200 200L100 100Z" fill="#3A4A6B"/></g>
<rect x="640.000" y="320.000" width="320.000" height="320.000" fill="#FFFFFF"/>
<g transform="translate(640.000,320.000) scale(1.60000) rotate(180,100,100)"><path fill-rule="evenodd" clip-rule="evenodd" d="M100 100L200 0L0 0L0 200L200 200L100 100Z" fill="#121212"/></g>
<rect x="960.000" y="320.000" width="320.000" height="320.000" fill="#121212"/>
<g transform="translate(960.000,320.000) scale(1.60000) rotate(270,100,100)"><path fill-rule="evenodd" clip-rule="evenodd" d="M100 100L200 0L0 0L0 200L200 200L100 100Z" fill="#3A4A6B"/></g>
<rect x="1280.000" y="320.000" width="320.000" height="320.000" fill="#121212"/>
<g transform="translate(1280.000,320.000) scale(1.60000)"><path fill-rule="evenodd" clip-rule="evenodd" d="M100 100L200 0L0 0L0 200L200 200L100 100Z" fill="#FFFFFF"/></g>
<rect x="1600.000" y="320.000" width="320.000" height="320.000" fill="#121212"/>
<g transform="translate(1600.000,320.000) scale(1.60000)"><path fill-rule="evenodd" clip-rule="evenodd" d="M0 100L200 0L0 0L0 200L200 200L0 100Z" fill="#3A4A6B"/></g>
<rect x="0.000" y="640.000" width="320.000" height="320.000" fill="#121212"/>
<g transform="translate(0.000,640.000) scale(1.60000) rotate(90,100,100)"><path d="M166.667 200C129.848 200 33.3333 200 33.3333 200C33.3333 163.181 63.1809 133.333 99.9999 133.333C136.819 133.333 166.667 163.181 166.667 200Z" fill="#FFFFFF"/></g>
<rect x="320.000" y="640.000" width="320.000" height="320.000" fill="#FFFFFF"/>
<g transform="translate(320.000,640.000) scale(1.60000) rotate(180,100,100)"><path fill-rule="evenodd" clip-rule="evenodd" d="M0 100L200 0L0 0L0 200L200 200L0 100Z" fill="#121212"/></g>
<rect x="640.000" y="640.000" width="320.000" height="320.000" fill="#121212"/>
<g transform="translate(640.000,640.000) scale(1.60000) rotate(270,100,100)"><path d="M100 0L100 100L0 200L0 100L0 0L100 0Z" fill="#FFFFFF"/></g>
<rect x="960.000" y="640.000" width="320.000" height="320.000" fill="#FFFFFF"/>
<g transform="translate(960.000,640.000) scale(1.60000) rotate(180,100,100)"><path fill-rule="evenodd" clip-rule="evenodd" d="M0 100L200 0L0 0L0 200L200 200L0 100Z" fill="#121212"/></g>
<rect x="1280.000" y="640.000" width="320.000" height="320.000" fill="#FFFFFF"/>
<g transform="translate(1280.000,640.000) scale(1.60000) rotate(90,100,100)"><path fill-rule="evenodd" clip-rule="evenodd" d="M0 100L200 0L0 0L0 200L200 200L0 100Z" fill="#3A4A6B"/></g>
<rect x="1600.000" y="640.000" width="320.000" height="320.000" fill="#121212"/>
<g transform="translate(1600.000,640.000) scale(1.60000) rotate(180,100,100)"><path d="M166.667 200C129.848 200 33.3333 200 33.3333 200C33.3333 163.181 63.1809 133.333 99.9999 133.333C136.819 133.333 166.667 163.181 166.667 200Z" fill="#FFFFFF"/></g>
</svg>
