<?xml version="1.0" encoding="UTF-8"?>
<svg id="Layer_1" xmlns="http://www.w3.org/2000/svg" version="1.1" viewBox="0 0 200 200">
  <!-- Generator: Adobe Illustrator 30.2.1, SVG Export Plug-In . SVG Version: 2.1.1 Build 1)  -->
  
  <path d="M125,0c0,23.99,11.26,45.34,28.79,59.07,1.52,1.2.78,3.77-1.16,3.84-10.1.34-21.13.47-30.15.57-.84.01-1.67.02-2.48.03-30,0-30,5.99-30,8.49,0,.02.01.03.02.05-.01.02-.02.04-.02.05,0,2.48,0,8.43,30,8.43.81,0,1.64.02,2.48.03,23.11.26,59.42.67,59.52,4.44-.1,6.73-36.41,7.46-59.52,7.92-.84.02-1.67.04-2.48.05-19.11,0-26.04,6.1-28.57,10.52C65.76,76.57,50,40.13,50,0H0v200h200V0h-75ZM142.1,138.41c-10.02-4.19-19.48-9.44-28.25-15.61,1.89.15,3.94.23,6.15.23.81,0,1.64.03,2.48.05,23.11.46,59.42,1.19,59.52,7.92-.07,5-20.12,6.69-39.9,7.41Z" fill="#121212"/>
</svg>