<?xml version="1.0" encoding="UTF-8"?>
<svg id="Layer_1" xmlns="http://www.w3.org/2000/svg" version="1.1" viewBox="0 0 1920 960">
  <!-- Generator: Adobe Illustrator 30.2.1, SVG Export Plug-In . SVG Version: 2.1.1 Build 1)  -->
  <defs>
    <style>
      .st0 {
        fill: #d9d9d6;
      }

      .st1 {
        fill: #121212;
      }

      .st2 {
        fill: #f3f3f3;
      }
    </style>
  </defs>
  <rect class="st2" x="0" y="0" width="1920" height="960"/>
  <path class="st0" d="M0,960h320v-320C143.32,639.95.05,783.27,0,960Z"/>
  <path class="st0" d="M960,640v320h320c.05-176.68-143.27-319.95-320-320Z"/>
  <path class="st1" d="M479.95,800l.05-159.96-160-.04c-.03,88.34,71.59,159.97,159.95,160Z"/>
  <path class="st1" d="M320,320H0V0c176.68-.05,319.95,143.27,320,320Z"/>
  <path class="st1" d="M960,320h320v320c-176.68.05-319.95-143.27-320-320Z"/>
  <path class="st1" d="M1760.04,160l-.04,159.95,160,.05c.03-88.34-71.59-159.97-159.96-160Z"/>
  <path class="st0" d="M1520,640h-239.93l-.07-240c132.51-.04,239.96,107.45,240,240Z"/>
  <circle class="st1" cx="1440" cy="160" r="160"/>
  <path class="st1" d="M1680,640h239.93l.07,240c-132.51.04-239.96-107.45-240-240Z"/>
  <path class="st0" d="M880,960h-239.93l-.07-240c132.51-.04,239.96,107.45,240,240Z"/>
  <path class="st0" d="M640,640v-320h-320c-.05,176.68,143.27,319.95,320,320Z"/>
  <path class="st0" d="M400,320h239.93l.07-240c-132.51-.04-239.96,107.45-240,240Z"/>
  <path class="st0" d="M640,640h320v-320c-176.68-.05-319.95,143.27-320,320Z"/>
  <path class="st0" d="M1280,0h-320s0,320,0,320C1136.68,320.05,1279.95,176.73,1280,0Z"/>
</svg>