<?xml version='1.0' encoding='UTF-8'?>
<svg xmlns="http://www.w3.org/2000/svg" width="1920" height="960" viewBox="0 0 1920 960">
  <rect width="1920" height="960" fill="#121212"/>
  <rect width="320" height="320" fill="#121212" x="0" y="0"/>
  <path d="M97.905323,202.095142 L106.594968,197.901747 L114.849523,193.160209 L122.655977,187.901923 L130.001318,182.158283 L136.872534,175.960684 L143.256615,169.34052 L149.140548,162.329185 L154.511322,154.958074 L159.355926,147.25858 L163.661347,139.262099 L167.414575,131 L170.602598,122.503752 L173.212403,113.804674 L175.230981,104.934186 L176.645319,95.923681 L177.442405,86.804556 L177.609228,77.608203 L177.132777,68.366018 L176,59.109394 L174.198005,49.869725 L171.713661,40.678408 L168.533997,31.566834 L164.646,22.5664 L164.646,22.5664 L158.788335,8.368086 L156.344162,0 L0,0 L0,320 L0.020764,320 L0.041564,320 L0.062364,320 L0.083164,320 L0.103964,320 L0.124764,320 L0.145564,320 L0.166364,320 L0.187164,320 L0.207964,320 L0.228764,320 L0.249564,320 L0.270364,320 L0.291164,320 L0.311964,320 L0.332764,320 L0.353564,320 L0.374364,320 L0.395164,320 L0.415964,320 L0.436764,320 L0.457564,320 L0.478364,320 L0.499164,320 L1.135369,313.964135 L2.035996,307.959748 L3.201067,301.99765 L4.630606,296.088653 L6.324633,290.243567 L8.283172,284.473203 L10.506244,278.788373 L12.993872,273.199889 L15.746078,267.718561 L18.762884,262.3552 L22.044312,257.120617 L25.590384,252.025625 L29.401123,247.081034 L33.476551,242.297655 L37.81669,237.686299 L42.421562,233.257778 L47.29119,229.022903 L52.425595,224.992484 L57.8248,221.177334 L63.488827,217.588264 L69.417699,214.236084 L75.611436,211.131606 L82.070063,208.285641 L88.7936,205.709 L88.7936,205.709 Z" fill="#F3F3F3"/>
  <rect width="320" height="320" fill="#121212" x="640" y="0"/>
  <path d="M840.12 320 C733.319 320 679.832 190.872 755.352 115.352 C830.872 39.8322 960 93.3187 960 200.12 L960 320 L840.12 320 Z" fill="#4997D0"/>
  <rect width="320" height="320" fill="#121212" x="1280" y="0"/>
  <path d="M1280 200.12 C1280 93.3187 1409.13 39.8322 1484.65 115.352 C1560.17 190.872 1506.68 320 1399.88 320 L1280 320 L1280 200.12 Z" fill="#FFA300"/>
  <rect width="320" height="320" fill="#121212" x="640" y="640"/>
  <path d="M640 840.12 C640 733.319 769.128 679.832 844.648 755.352 C920.168 830.872 866.681 960 759.88 960 L640 960 L640 840.12 Z" fill="#FF4F00"/>
  <rect width="320" height="320" fill="#121212" x="0" y="640"/>
  <path d="M97.905323,842.095144 L106.594968,837.901754 L114.849523,833.160225 L122.655977,827.901949 L130.001318,822.158321 L136.872534,815.960734 L143.256615,809.340583 L149.140548,802.329259 L154.511322,794.958158 L159.355926,787.258673 L163.661347,779.262197 L167.414575,771.000125 L170.602598,762.503849 L173.212403,753.804764 L175.230981,744.934264 L176.645319,735.923741 L177.442405,726.804589 L177.609228,717.608203 L177.132777,708.365976 L176,699.109301 L174.198005,689.869572 L171.713661,680.678183 L168.533997,671.566528 L164.646,662.566 L164.646,662.566 L158.788335,648.36778 L156.344237,640 L0,640 L0,960 L0.020764,960 L0.041564,960 L0.062364,960 L0.083164,960 L0.103964,960 L0.124764,960 L0.145564,960 L0.166364,960 L0.187164,960 L0.207964,960 L0.228764,960 L0.249564,960 L0.270364,960 L0.291164,960 L0.311964,960 L0.332764,960 L0.353564,960 L0.374364,960 L0.395164,960 L0.415964,960 L0.436764,960 L0.457564,960 L0.478364,960 L0.499164,960 L1.135369,953.964135 L2.035996,947.959748 L3.201067,941.99765 L4.630606,936.088653 L6.324633,930.243567 L8.283172,924.473203 L10.506244,918.788373 L12.993872,913.199889 L15.746078,907.718561 L18.762884,902.3552 L22.044312,897.120617 L25.590384,892.025625 L29.401123,887.081034 L33.476551,882.297655 L37.81669,877.686299 L42.421562,873.257778 L47.29119,869.022903 L52.425595,864.992484 L57.8248,861.177334 L63.488827,857.588264 L69.417699,854.236084 L75.611436,851.131606 L82.070063,848.285641 L88.7936,845.709 L88.7936,845.709 Z" fill="#F3F3F3"/>
  <rect width="320" height="320" fill="#121212" x="640" y="320"/>
  <path d="M640 439.88 C640 546.681 769.128 600.168 844.648 524.648 C920.168 449.128 866.681 320 759.88 320 L640 320 L640 439.88 Z" fill="#4997D0"/>
  <rect width="320" height="320" fill="#121212" x="1280" y="640"/>
  <path d="M1280 840.12 C1280 733.319 1409.13 679.832 1484.65 755.352 C1560.17 830.872 1506.68 960 1399.88 960 L1280 960 L1280 840.12 Z" fill="#FFA300"/>
  <rect width="320" height="320" fill="#121212" x="960" y="0"/>
  <path d="M1280 119.88 C1280 226.681 1150.87 280.168 1075.35 204.648 C999.832 129.128 1053.32 0 1160.12 0 L1280 0 V119.88 Z" fill="#FF4F00"/>
  <rect width="320" height="320" fill="#121212" x="0" y="320"/>
  <path d="M158.788335,631.63222 L164.646,617.434 L164.646,617.434 L168.533997,608.433472 L171.713661,599.321817 L174.198005,590.130428 L176,580.890699 L177.132777,571.634024 L177.609228,562.391797 L177.442405,553.195411 L176.645319,544.076259 L175.230981,535.065736 L173.212403,526.195236 L170.602598,517.496151 L167.414575,508.999875 L163.661347,500.737803 L159.355926,492.741327 L154.511322,485.041842 L149.140548,477.670741 L143.256615,470.659417 L136.872534,464.039266 L130.001318,457.841679 L122.655977,452.098051 L114.849523,446.839775 L106.594968,442.098246 L97.905323,437.904856 L88.7936,434.291 L88.7936,434.291 L82.070063,431.714359 L75.611436,428.868394 L69.417699,425.763916 L63.488827,422.411736 L57.8248,418.822666 L52.425595,415.007516 L47.29119,410.977097 L42.421562,406.742222 L37.81669,402.313701 L33.476551,397.702345 L29.401123,392.918966 L25.590384,387.974375 L22.044312,382.879383 L18.762884,377.6448 L15.746078,372.281439 L12.993872,366.800111 L10.506244,361.211627 L8.283172,355.526797 L6.324633,349.756433 L4.630606,343.911347 L3.201067,338.00235 L2.035996,332.040252 L1.135369,326.035865 L0.499164,320 L0.478364,320 L0.457564,320 L0.436764,320 L0.415964,320 L0.395164,320 L0.374364,320 L0.353564,320 L0.332764,320 L0.311964,320 L0.291164,320 L0.270364,320 L0.249564,320 L0.228764,320 L0.207964,320 L0.187164,320 L0.166364,320 L0.145564,320 L0.124764,320 L0.103964,320 L0.083164,320 L0.062364,320 L0.041564,320 L0.020764,320 L0,320 L0,640 L156.344237,640 Z" fill="#F3F3F3"/>
  <rect width="320" height="320" fill="#121212" x="960" y="640"/>
  <path d="M1079.88 640 C1186.68 640 1240.17 769.128 1164.65 844.648 C1089.13 920.168 960 866.681 960 759.88 L960 640 L1079.88 640 Z" fill="#FF4F00"/>
  <rect width="320" height="320" fill="#121212" x="1280" y="320"/>
  <path d="M1480.12 320 C1373.32 320 1319.83 449.128 1395.35 524.648 C1470.87 600.168 1600 546.681 1600 439.88 L1600 320 L1480.12 320 Z" fill="#FF4F00"/>
  <rect width="320" height="320" fill="#121212" x="960" y="320"/>
  <path d="M1280 520.12 C1280 413.319 1150.87 359.832 1075.35 435.352 C999.832 510.872 1053.32 640 1160.12 640 H1280 V520.12 Z" fill="#4997D0"/>
  <rect width="320" height="320" fill="#121212" x="320" y="0"/>
  <path d="M640 119.88 C640 226.681 510.872 280.168 435.352 204.648 C359.832 129.128 413.319 0 520.12 0 L640 0 V119.88 Z" fill="#FF4F00"/>
  <rect width="320" height="320" fill="#121212" x="1600" y="0"/>
  <path d="M1920,293.333333 L1920,266.666667 L1920,240 L1920,213.333333 L1920,186.666667 L1920,160 L1920,133.333333 L1920,106.666667 L1920,80 L1920,53.333333 L1920,26.666667 L1920,0 L1919.979167,0 L1919.958333,0 L1919.9375,0 L1919.916667,0 L1919.895833,0 L1919.875,0 L1919.854167,0 L1919.833333,0 L1919.8125,0 L1919.791667,0 L1919.770833,0 L1919.75,0 L1919.729167,0 L1919.708333,0 L1919.6875,0 L1919.666667,0 L1919.645833,0 L1919.625,0 L1919.604167,0 L1919.583333,0 L1919.5625,0 L1919.541667,0 L1919.520833,0 L1919.5,0 L1918.864008,6.035865 L1917.963524,12.040252 L1916.798535,18.00235 L1915.369028,23.911347 L1913.674989,29.756433 L1911.716406,35.526797 L1909.493266,41.211627 L1907.005556,46.800111 L1904.253262,52.281439 L1901.236372,57.6448 L1897.954872,62.879383 L1894.40875,67.974375 L1890.597993,72.918966 L1886.522587,77.702345 L1882.18252,82.313701 L1877.577778,86.742222 L1872.708349,90.977097 L1867.574219,95.007516 L1862.175375,98.822666 L1856.511806,102.411736 L1850.583496,105.763916 L1844.390434,108.868394 L1837.932606,111.714359 L1831.21,114.291 L1831.21,114.291 L1822.09795,117.904856 L1813.407975,122.098246 L1805.153086,126.839775 L1797.346296,132.098051 L1790.000618,137.841679 L1783.129063,144.039266 L1776.744643,150.659417 L1770.86037,157.670741 L1765.489258,165.041842 L1760.644317,172.741327 L1756.33856,180.737803 L1752.585,188.999875 L1749.396648,197.496151 L1746.786516,206.195236 L1744.767617,215.065736 L1743.352963,224.076259 L1742.555566,233.195411 L1742.388437,242.391797 L1742.864591,251.634024 L1743.997037,260.890699 L1745.798789,270.130428 L1748.282859,279.321817 L1751.462258,288.433472 L1755.35,297.434 L1755.35,297.434 L1761.20782,311.63222 L1763.652041,320 L1920,320 Z" fill="#F3F3F3"/>
  <rect width="320" height="320" fill="#121212" x="320" y="640"/>
  <path d="M320 840.12 C320 733.319 449.128 679.832 524.648 755.352 C600.168 830.872 546.681 960 439.88 960 L320 960 L320 840.12 Z" fill="#4997D0"/>
  <rect width="320" height="320" fill="#121212" x="1600" y="640"/>
  <path d="M1822.09795,757.904856 L1813.407975,762.098246 L1805.153086,766.839775 L1797.346296,772.098051 L1790.000618,777.841679 L1783.129063,784.039266 L1776.744643,790.659417 L1770.86037,797.670741 L1765.489258,805.041842 L1760.644317,812.741327 L1756.33856,820.737803 L1752.585,828.999875 L1749.396648,837.496151 L1746.786516,846.195236 L1744.767617,855.065736 L1743.352963,864.076259 L1742.555566,873.195411 L1742.388437,882.391797 L1742.864591,891.634024 L1743.997037,900.890699 L1745.798789,910.130428 L1748.282859,919.321817 L1751.462258,928.433472 L1755.35,937.434 L1755.35,937.434 L1761.20782,951.632469 L1763.651926,960 L1920,960 L1920,933.333333 L1920,906.666667 L1920,880 L1920,853.333333 L1920,826.666667 L1920,800 L1920,773.333333 L1920,746.666667 L1920,720 L1920,693.333333 L1920,666.666667 L1920,640 L1919.979167,640 L1919.958333,640 L1919.9375,640 L1919.916667,640 L1919.895833,640 L1919.875,640 L1919.854167,640 L1919.833333,640 L1919.8125,640 L1919.791667,640 L1919.770833,640 L1919.75,640 L1919.729167,640 L1919.708333,640 L1919.6875,640 L1919.666667,640 L1919.645833,640 L1919.625,640 L1919.604167,640 L1919.583333,640 L1919.5625,640 L1919.541667,640 L1919.520833,640 L1919.5,640 L1918.864008,646.035865 L1917.963524,652.040252 L1916.798535,658.00235 L1915.369028,663.911347 L1913.674989,669.756433 L1911.716406,675.526797 L1909.493266,681.211627 L1907.005556,686.800111 L1904.253262,692.281439 L1901.236372,697.6448 L1897.954872,702.879383 L1894.40875,707.974375 L1890.597993,712.918966 L1886.522587,717.702345 L1882.18252,722.313701 L1877.577778,726.742222 L1872.708349,730.977097 L1867.574219,735.007516 L1862.175375,738.822666 L1856.511806,742.411736 L1850.583496,745.763916 L1844.390434,748.868394 L1837.932606,751.714359 L1831.21,754.291 L1831.21,754.291 Z" fill="#F3F3F3"/>
  <rect width="320" height="320" fill="#121212" x="320" y="320"/>
  <path d="M640 520.12 C640 413.319 510.872 359.832 435.352 435.352 C359.832 510.872 413.319 640 520.12 640 H640 V520.12 Z" fill="#FFA300"/>
  <rect width="320" height="320" fill="#121212" x="1600" y="320"/>
  <path d="M1761.20782,328.36778 L1755.35,342.566 L1755.35,342.566 L1751.462258,351.566528 L1748.282859,360.678183 L1745.798789,369.869572 L1743.997037,379.109301 L1742.864591,388.365976 L1742.388437,397.608203 L1742.555566,406.804589 L1743.352963,415.923741 L1744.767617,424.934264 L1746.786516,433.804764 L1749.396648,442.503849 L1752.585,451.000125 L1756.33856,459.262197 L1760.644317,467.258673 L1765.489258,474.958158 L1770.86037,482.329259 L1776.744643,489.340583 L1783.129063,495.960734 L1790.000618,502.158321 L1797.346296,507.901949 L1805.153086,513.160225 L1813.407975,517.901754 L1822.09795,522.095144 L1831.21,525.709 L1831.21,525.709 L1837.932606,528.285641 L1844.390434,531.131606 L1850.583496,534.236084 L1856.511806,537.588264 L1862.175375,541.177334 L1867.574219,544.992484 L1872.708349,549.022903 L1877.577778,553.257778 L1882.18252,557.686299 L1886.522587,562.297655 L1890.597993,567.081034 L1894.40875,572.025625 L1897.954872,577.120617 L1901.236372,582.3552 L1904.253262,587.718561 L1907.005556,593.199889 L1909.493266,598.788373 L1911.716406,604.473203 L1913.674989,610.243567 L1915.369028,616.088653 L1916.798535,621.99765 L1917.963524,627.959748 L1918.864008,633.964135 L1919.5,640 L1919.520833,640 L1919.541667,640 L1919.5625,640 L1919.583333,640 L1919.604167,640 L1919.625,640 L1919.645833,640 L1919.666667,640 L1919.6875,640 L1919.708333,640 L1919.729167,640 L1919.75,640 L1919.770833,640 L1919.791667,640 L1919.8125,640 L1919.833333,640 L1919.854167,640 L1919.875,640 L1919.895833,640 L1919.916667,640 L1919.9375,640 L1919.958333,640 L1919.979167,640 L1920,640 L1920,613.333333 L1920,586.666667 L1920,560 L1920,533.333333 L1920,506.666667 L1920,480 L1920,453.333333 L1920,426.666667 L1920,400 L1920,373.333333 L1920,346.666667 L1920,320 L1763.652041,320 Z" fill="#F3F3F3"/>
</svg>
