<?xml version="1.0" encoding="UTF-8"?>
<svg xmlns="http://www.w3.org/2000/svg" width="200" height="200" viewBox="0 0 200 200">
  <path d="M100.0,100.0 A50.0,50.0 0 1,0 200.0,100.0 A50.0,50.0 0 1,0 100.0,100.0 Z M200,0 L100,0 L100,0 L100.015059,1.227063 L100.060227,2.453385 L100.135477,3.678229 L100.240764,4.900858 L100.376023,6.120535 L100.541175,7.336525 L100.736118,8.548096 L100.960736,9.754517 L101.214893,10.955063 L101.498437,12.14901 L101.811197,13.335639 L102.152983,14.514235 L102.523591,15.684088 L102.922797,16.844494 L103.35036,17.994753 L103.806023,19.134173 L104.289512,20.262067 L104.800535,21.377756 L105.338785,22.480568 L105.903937,23.569838 L106.49565,24.644911 L107.113569,25.705138 L107.757322,26.749882 L108.426519,27.778513 L109.120759,28.790411 L109.839623,29.784966 L110.582679,30.761581 L111.349477,31.719665 L112.139558,32.658643 L112.952444,33.577949 L113.787646,34.477028 L114.644661,35.35534 L115.522973,36.212355 L116.422052,37.047557 L117.341358,37.860443 L118.280336,38.650524 L119.23842,39.417322 L120.215035,40.160378 L121.20959,40.879242 L122.221488,41.573482 L123.250119,42.242679 L124.294863,42.886432 L125.35509,43.504351 L126.430163,44.096064 L127.519434,44.661216 L128.622245,45.199466 L129.737934,45.710489 L130.865828,46.193978 L132.005248,46.649641 L133.155507,47.077204 L134.315913,47.47641 L135.485766,47.847018 L136.664362,48.188804 L137.850991,48.501564 L139.044938,48.785108 L140.245484,49.039265 L141.451906,49.263883 L142.663476,49.458827 L143.879466,49.623978 L145.099143,49.759237 L146.321772,49.864524 L147.546616,49.939774 L148.772939,49.984942 L150,50 L151.227061,49.984942 L152.453384,49.939774 L153.678228,49.864524 L154.900857,49.759237 L156.120534,49.623978 L157.336524,49.458827 L158.548094,49.263883 L159.754516,49.039265 L160.955062,48.785108 L162.149009,48.501564 L163.335638,48.188804 L164.514234,47.847018 L165.684087,47.47641 L166.844493,47.077204 L167.994752,46.649641 L169.134172,46.193978 L170.262066,45.710489 L171.377755,45.199466 L172.480566,44.661216 L173.569837,44.096064 L174.64491,43.504351 L175.705137,42.886432 L176.749881,42.242679 L177.778512,41.573482 L178.79041,40.879242 L179.784965,40.160378 L180.76158,39.417322 L181.719664,38.650524 L182.658642,37.860443 L183.577948,37.047557 L184.477027,36.212355 L185.355339,35.35534 L186.212354,34.477028 L187.047556,33.577949 L187.860442,32.658643 L188.650523,31.719665 L189.417321,30.761581 L190.160377,29.784966 L190.879241,28.790411 L191.573481,27.778513 L192.242678,26.749882 L192.886431,25.705138 L193.50435,24.644911 L194.096063,23.569838 L194.661215,22.480568 L195.199465,21.377756 L195.710488,20.262067 L196.193977,19.134173 L196.64964,17.994753 L197.077203,16.844494 L197.476409,15.684088 L197.847017,14.514235 L198.188803,13.335639 L198.501563,12.14901 L198.785107,10.955063 L199.039264,9.754517 L199.263882,8.548096 L199.458825,7.336525 L199.623977,6.120535 L199.759236,4.900858 L199.864523,3.678229 L199.939773,2.453385 L199.984941,1.227063 L200,0 Z M199.984941,198.772939 L199.939773,197.546616 L199.864523,196.321772 L199.759236,195.099143 L199.623977,193.879466 L199.458825,192.663476 L199.263882,191.451906 L199.039264,190.245484 L198.785107,189.044938 L198.501563,187.850991 L198.188803,186.664362 L197.847017,185.485766 L197.476409,184.315913 L197.077203,183.155507 L196.64964,182.005248 L196.193977,180.865828 L195.710488,179.737934 L195.199465,178.622245 L194.661215,177.519434 L194.096063,176.430163 L193.50435,175.35509 L192.886431,174.294863 L192.242678,173.250119 L191.573481,172.221488 L190.879241,171.20959 L190.160377,170.215035 L189.417321,169.23842 L188.650523,168.280336 L187.860442,167.341358 L187.047556,166.422052 L186.212354,165.522973 L185.355339,164.644661 L184.477027,163.787646 L183.577948,162.952444 L182.658642,162.139558 L181.719664,161.349477 L180.76158,160.582679 L179.784965,159.839623 L178.79041,159.120759 L177.778512,158.426519 L176.749881,157.757322 L175.705137,157.113569 L174.64491,156.49565 L173.569837,155.903937 L172.480566,155.338785 L171.377755,154.800535 L170.262066,154.289512 L169.134172,153.806023 L167.994752,153.35036 L166.844493,152.922797 L165.684087,152.523591 L164.514234,152.152983 L163.335638,151.811197 L162.149009,151.498437 L160.955062,151.214893 L159.754516,150.960736 L158.548094,150.736118 L157.336524,150.541175 L156.120534,150.376023 L154.900857,150.240764 L153.678228,150.135477 L152.453384,150.060227 L151.227061,150.015059 L150,150 L148.772939,150.015059 L147.546616,150.060227 L146.321772,150.135477 L145.099143,150.240764 L143.879466,150.376023 L142.663476,150.541175 L141.451906,150.736118 L140.245484,150.960736 L139.044938,151.214893 L137.850991,151.498437 L136.664362,151.811197 L135.485766,152.152983 L134.315913,152.523591 L133.155507,152.922797 L132.005248,153.35036 L130.865828,153.806023 L129.737934,154.289512 L128.622245,154.800535 L127.519434,155.338785 L126.430163,155.903937 L125.35509,156.49565 L124.294863,157.113569 L123.250119,157.757322 L122.221488,158.426519 L121.20959,159.120759 L120.215035,159.839623 L119.23842,160.582679 L118.280336,161.349477 L117.341358,162.139558 L116.422052,162.952444 L115.522973,163.787646 L114.644661,164.644661 L113.787646,165.522973 L112.952444,166.422052 L112.139558,167.341358 L111.349477,168.280336 L110.582679,169.23842 L109.839623,170.215035 L109.120759,171.20959 L108.426519,172.221488 L107.757322,173.250119 L107.113569,174.294863 L106.49565,175.35509 L105.903937,176.430163 L105.338785,177.519434 L104.800535,178.622245 L104.289512,179.737934 L103.806023,180.865828 L103.35036,182.005248 L102.922797,183.155507 L102.523591,184.315913 L102.152983,185.485766 L101.811197,186.664362 L101.498437,187.850991 L101.214893,189.044938 L100.960736,190.245484 L100.736118,191.451906 L100.541175,192.663476 L100.376023,193.879466 L100.240764,195.099143 L100.135477,196.321772 L100.060227,197.546616 L100.015059,198.772939 L100,200 L200,200 Z M200,0 L150,0 L150,200 L200,200 Z" fill="#121212"/>
</svg>
