<svg xmlns="http://www.w3.org/2000/svg" width="1624" height="490" viewBox="0 0 1624 490">
<rect width="1624" height="490" fill="#121212"/><text x="48" y="46" font-family="Helvetica,Arial,sans-serif" font-size="30" font-weight="bold" fill="#EDE6D6" letter-spacing="1">FAI TILE LIBRARY</text><text x="48" y="70" font-family="Helvetica,Arial,sans-serif" font-size="13" fill="#8A8A8A">12 tiles · 1 families · label = id / dominant_direction</text>
<text x="48" y="92" font-family="Helvetica,Arial,sans-serif" font-size="18" font-weight="bold" fill="#FF4F00">composition · 12</text>
<rect x="48" y="108" width="128" height="128" fill="#1C1C1C"/>
<g transform="translate(48,108) scale(0.6400)"><!-- Generator: Adobe Illustrator 30.2.1, SVG Export Plug-In . SVG Version: 2.1.1 Build 1)  -->
  
  
  <path d="M100,0c-7.82,0-15.23,3.59-21.82,10H0v20h64.29c-2.93,5.98-5.49,12.7-7.6,20H0v20h52.29c-1.01,6.41-1.7,13.1-2.04,20H0v20h50.25c.34,6.9,1.04,13.59,2.04,20H0v20h56.69c2.11,7.3,4.67,14.02,7.6,20H0v20h78.18c6.59,6.41,14,10,21.82,10,27.61,0,50-44.77,50-100S127.61,0,100,0ZM100,133.33c-18.41,0-33.33-14.92-33.33-33.33s14.92-33.33,33.33-33.33,33.33,14.92,33.33,33.33-14.92,33.33-33.33,33.33Z" fill="#EDE6D6"/></g>
<text x="48" y="249" font-family="Helvetica,Arial,sans-serif" font-size="10" fill="#EDE6D6">composition-08</text>
<text x="48" y="261" font-family="Helvetica,Arial,sans-serif" font-size="9" fill="#8A8A8A">outward</text>
<rect x="188" y="108" width="128" height="128" fill="#1C1C1C"/>
<g transform="translate(188,108) scale(0.6400)"><!-- Generator: Adobe Illustrator 30.2.1, SVG Export Plug-In . SVG Version: 2.1.1 Build 1)  -->
  
  <path d="M0,50v75c41.42,0,75,33.58,75,75h75C150,117.16,82.84,50,0,50Z" fill="#EDE6D6"/>
  <path d="M0,0c110.46,0,200,89.54,200,200V0H0Z" fill="#EDE6D6"/></g>
<text x="188" y="249" font-family="Helvetica,Arial,sans-serif" font-size="10" fill="#EDE6D6">composition-09</text>
<text x="188" y="261" font-family="Helvetica,Arial,sans-serif" font-size="9" fill="#8A8A8A">outward</text>
<rect x="328" y="108" width="128" height="128" fill="#1C1C1C"/>
<g transform="translate(328,108) scale(0.6400)"><!-- Generator: Adobe Illustrator 30.2.1, SVG Export Plug-In . SVG Version: 2.1.1 Build 1)  -->
  
  <path d="M50,200h75c0-41.42,33.58-75,75-75V50c-82.84,0-150,67.16-150,150Z" fill="#EDE6D6"/></g>
<text x="328" y="249" font-family="Helvetica,Arial,sans-serif" font-size="10" fill="#EDE6D6">composition-10</text>
<text x="328" y="261" font-family="Helvetica,Arial,sans-serif" font-size="9" fill="#8A8A8A">outward</text>
<rect x="468" y="108" width="128" height="128" fill="#1C1C1C"/>
<g transform="translate(468,108) scale(0.6400)"><!-- Generator: Adobe Illustrator 30.2.1, SVG Export Plug-In . SVG Version: 2.1.1 Build 1)  -->
  
  <path d="M125,0c0,23.99,11.26,45.34,28.79,59.07,1.52,1.2.78,3.77-1.16,3.84-10.1.34-21.13.47-30.15.57-.84.01-1.67.02-2.48.03-30,0-30,5.99-30,8.49,0,.02.01.03.02.05-.01.02-.02.04-.02.05,0,2.48,0,8.43,30,8.43.81,0,1.64.02,2.48.03,23.11.26,59.42.67,59.52,4.44-.1,6.73-36.41,7.46-59.52,7.92-.84.02-1.67.04-2.48.05-19.11,0-26.04,6.1-28.57,10.52C65.76,76.57,50,40.13,50,0H0v200h200V0h-75ZM142.1,138.41c-10.02-4.19-19.48-9.44-28.25-15.61,1.89.15,3.94.23,6.15.23.81,0,1.64.03,2.48.05,23.11.46,59.42,1.19,59.52,7.92-.07,5-20.12,6.69-39.9,7.41Z" fill="#EDE6D6"/></g>
<text x="468" y="249" font-family="Helvetica,Arial,sans-serif" font-size="10" fill="#EDE6D6">composition-11</text>
<text x="468" y="261" font-family="Helvetica,Arial,sans-serif" font-size="9" fill="#8A8A8A">outward</text>
<rect x="608" y="108" width="128" height="128" fill="#1C1C1C"/>
<g transform="translate(608,108) scale(0.6400)"><!-- Generator: Adobe Illustrator 30.2.1, SVG Export Plug-In . SVG Version: 2.1.1 Build 1)  -->
  
  <path d="M100,100C44.77,100,0,55.23,0,0v200c0-55.23,44.77-100,100-100Z" fill="#1C1C1C"/>
  <path d="M100,100c55.23,0,100,44.77,100,100V0c0,55.23-44.77,100-100,100Z" fill="#1C1C1C"/>
  <path d="M100,100C44.77,100,0,144.77,0,200h200c0-55.23-44.77-100-100-100Z" fill="#EDE6D6"/>
  <path d="M100,100c55.23,0,100-44.77,100-100H0c0,55.23,44.77,100,100,100Z" fill="#EDE6D6"/></g>
<text x="608" y="249" font-family="Helvetica,Arial,sans-serif" font-size="10" fill="#EDE6D6">composition-02</text>
<text x="608" y="261" font-family="Helvetica,Arial,sans-serif" font-size="9" fill="#8A8A8A">outward</text>
<rect x="748" y="108" width="128" height="128" fill="#1C1C1C"/>
<g transform="translate(748,108) scale(0.6400)"><path d="M149 100C149 155.218 139.484 200 127.725 200C121.757 200 116.339 188.34 112.47 169.566C111.844 166.524 106.549 166.41 105.747 169.427C100.779 188.284 93.8046 200 86.0744 200C80.3664 200 75.0627 193.599 70.6901 182.665C69.5225 179.749 64.6845 179.635 63.3033 182.482C57.9386 193.529 51.4522 200 44.4241 200C25.9645 200 11 155.224 11 100C11 44.7763 25.9645 0 44.4241 0C51.4522 0 57.9386 6.4706 63.3033 17.5178C64.6845 20.3649 69.5225 20.2512 70.6901 17.3348C75.0627 6.4011 80.3587 0 86.0744 0C93.797 0 100.772 11.7164 105.747 30.5726C106.541 33.5901 111.837 33.4764 112.47 30.4337C116.347 11.6596 121.765 0 127.725 0C139.484 0 149 44.7763 149 100Z" fill="#EDE6D6"/>
  <path d="M183 100C183 155.218 176.502 200 168.5 200C160.498 200 154 155.224 154 100C154 44.7763 160.498 0 168.5 0C176.502 0 183 44.7763 183 100Z" fill="#EDE6D6"/>
  <path d="M199.5079,0.2307 L198.5337,0.913 L197.5795,2.0318 L196.6475,3.5724 L195.7397,5.5198 L194.8585,7.8592 L194.006,10.5755 L193.1843,13.654 L192.3956,17.0797 L191.6421,20.8377 L190.9259,24.9132 L190.2492,29.2911 L189.6143,33.9567 L189.0231,38.895 L188.478,44.0911 L187.981,49.5302 L187.5344,55.1973 L187.1403,61.0775 L186.8009,67.1559 L186.5184,73.4177 L186.2948,79.8479 L186.1325,86.4316 L186.0335,93.1539 L186,100 L186,100 L186.0335,106.8461 L186.1325,113.5685 L186.2948,120.1522 L186.5184,126.5824 L186.8009,132.8442 L187.1403,138.9226 L187.5344,144.8028 L187.981,150.4699 L188.478,155.909 L189.0231,161.1051 L189.6143,166.0434 L190.2492,170.709 L190.9259,175.087 L191.6421,179.1624 L192.3956,182.9204 L193.1843,186.3461 L194.006,189.4245 L194.8585,192.1409 L195.7397,194.4802 L196.6475,196.4276 L197.5795,197.9682 L198.5337,199.087 L199.5079,199.7693 L200,199.8837 L200,0.1163 Z" fill="#EDE6D6"/></g>
<text x="748" y="249" font-family="Helvetica,Arial,sans-serif" font-size="10" fill="#EDE6D6">composition-12</text>
<text x="748" y="261" font-family="Helvetica,Arial,sans-serif" font-size="9" fill="#8A8A8A">outward</text>
<rect x="888" y="108" width="128" height="128" fill="#1C1C1C"/>
<g transform="translate(888,108) scale(0.6400)"><!-- Generator: Adobe Illustrator 30.2.1, SVG Export Plug-In . SVG Version: 2.1.1 Build 1)  -->
  
  <path d="M0,200h200V.06c-.03,110.46-89.58,199.98-200,199.94Z" fill="#1C1C1C"/>
  <path d="M0,200c110.42.03,199.97-89.49,200-199.94L.06,0l-.06,200Z" fill="#EDE6D6"/>
  <ellipse cx="70" cy="65" rx="50" ry="25" fill="#1C1C1C"/>
  <circle cx="70" cy="65" r="25" fill="#EDE6D6"/></g>
<text x="888" y="249" font-family="Helvetica,Arial,sans-serif" font-size="10" fill="#EDE6D6">composition-03</text>
<text x="888" y="261" font-family="Helvetica,Arial,sans-serif" font-size="9" fill="#8A8A8A">outward</text>
<rect x="1028" y="108" width="128" height="128" fill="#1C1C1C"/>
<g transform="translate(1028,108) scale(0.6400)"><!-- Generator: Adobe Illustrator 30.2.1, SVG Export Plug-In . SVG Version: 2.1.1 Build 1)  -->
  
  <polygon points="100 0 200 .03 200 0 100 0" fill="#1C1C1C"/>
  <path d="M100,0H0c43.29,55.85,75.87,119.23,96.1,186.94l3.9,13.06h100V.03l-.03,99.97c-55.23-.02-99.99-44.79-99.97-100Z" fill="#1C1C1C"/>
  <path d="M199.97,100l.03-99.97-100-.03c-.02,55.21,44.74,99.98,99.97,100Z" fill="#EDE6D6"/>
  <path d="M0,0v200h100l-3.9-13.06C75.87,119.23,43.29,55.85,0,0Z" fill="#EDE6D6"/></g>
<text x="1028" y="249" font-family="Helvetica,Arial,sans-serif" font-size="10" fill="#EDE6D6">composition-04</text>
<text x="1028" y="261" font-family="Helvetica,Arial,sans-serif" font-size="9" fill="#8A8A8A">neutral</text>
<rect x="1168" y="108" width="128" height="128" fill="#1C1C1C"/>
<g transform="translate(1168,108) scale(0.6400)"><!-- Generator: Adobe Illustrator 30.2.1, SVG Export Plug-In . SVG Version: 2.1.1 Build 1)  -->
  
  <path d="M179.02,79.99h.98s-.98.02-.98.02l-.98.04-.98.06-.98.08-.98.11-.97.13-.97.16-.96.18-.96.2-.96.23-.95.25-.94.27-.94.3-.93.32-.92.34-.91.36-.9.39-.89.41-.88.43-.88.45-.86.48-.84.49-.84.52-.82.53-.81.56-.8.57-.78.6-.77.61-.75.63-.73.65-.72.67-.7.69-.69.7-.67.72-.65.73-.63.75-.61.77-.6.78-.57.8-.56.81-.53.82-.52.84-.49.84-.48.86-.45.88-.43.88-.41.89-.39.9-.36.91-.34.92-.32.93-.3.94-.27.94-.25.95-.23.96-.2.96-.18.96-.16.97-.13.97-.11.98-.08.98-.06.98-.04.98v.98s0,.98,0,.98l.04.98.06.98.08.98.11.98.13.97.16.97.18.96.2.96.23.96.25.95.27.94.3.94.32.93.34.92.36.91.39.9.41.89.43.88.45.88.48.86.49.84.52.84.53.82.56.81.57.8.6.78.61.77.63.75.65.73.67.72.69.7.7.69.72.67.73.65.75.63.77.61.02.02c-26.35,12-51.7,3.58-72.75-5.01-14.87-6.08-30.68-12.54-49.58-12.54-9.41,0-17.04,7.39-17.04,16.5s7.63,16.5,17.04,16.5c-18.27,0-33.08,14.77-33.08,33V0h180-.98s-.98.05-.98.05l-.98.06-.98.08-.98.11-.97.13-.97.16-.96.18-.96.2-.96.23-.95.25-.94.27-.94.3-.93.32-.92.34-.91.36-.9.39-.89.41-.88.43-.88.45-.86.48-.84.49-.84.52-.82.53-.81.56-.8.57-.78.6-.77.61-.75.63-.73.65-.72.67-.7.69-.69.7-.67.72-.65.73-.63.75-.61.77-.6.78-.57.8-.56.81-.53.82-.52.84-.49.84-.48.86-.45.88-.43.88-.41.89-.39.9-.36.91-.34.92-.32.93-.3.94-.27.94-.25.95-.23.96-.2.96-.18.96-.16.97-.13.97-.11.98-.08.98-.06.98-.04.98v.98s0,.98,0,.98l.04.98.06.98.08.98.11.98.13.97.16.97.18.96.2.96.23.96.25.95.27.94.3.94.32.93.34.92.36.91.39.9.41.89.43.88.45.88.48.86.49.84.52.84.53.82.56.81.57.8.6.78.61.77.63.75.65.73.67.72.69.7.7.69.72.67.73.65.75.63.77.61.78.6.8.57.81.56.82.53.84.52.84.49.86.48.88.45.88.43.89.41.9.39.91.36.92.34.93.32.94.3.94.27.95.25.96.23.96.2.96.18.97.16.97.13.98.11.98.08.98.06.98.04Z" fill="#1C1C1C"/>
  <path d="M200,0v200H0c0-18.23,14.81-33,33.08-33-9.41,0-17.04-7.39-17.04-16.5s7.63-16.5,17.04-16.5c18.9,0,34.71,6.46,49.58,12.54,21.05,8.59,46.4,17.01,72.75,5.01l-.02-.02-.77-.61-.75-.63-.73-.65-.72-.67-.7-.69-.69-.7-.67-.72-.65-.73-.63-.75-.61-.77-.6-.78-.57-.8-.56-.81-.53-.82-.52-.84-.49-.84-.48-.86-.45-.88-.43-.88-.41-.89-.39-.9-.36-.91-.34-.92-.32-.93-.3-.94-.27-.94-.25-.95-.23-.96-.2-.96-.18-.96-.16-.97-.13-.97-.11-.98-.08-.98-.06-.98-.04-.98v-.98s0-.98,0-.98l.04-.98.06-.98.08-.98.11-.98.13-.97.16-.97.18-.96.2-.96.23-.96.25-.95.27-.94.3-.94.32-.93.34-.92.36-.91.39-.9.41-.89.43-.88.45-.88.48-.86.49-.84.52-.84.53-.82.56-.81.57-.8.6-.78.61-.77.63-.75.65-.73.67-.72.69-.7.7-.69.72-.67.73-.65.75-.63.77-.61.78-.6.8-.57.81-.56.82-.53.84-.52.84-.49.86-.48.88-.45.88-.43.89-.41.9-.39.91-.36.92-.34.93-.32.94-.3.94-.27.95-.25.96-.23.96-.2.96-.18.97-.16.97-.13.98-.11.98-.08.98-.06.98-.04h.98s-.98-.02-.98-.02l-.98-.04-.98-.06-.98-.08-.98-.11-.97-.13-.97-.16-.96-.18-.96-.2-.96-.23-.95-.25-.94-.27-.94-.3-.93-.32-.92-.34-.91-.36-.9-.39-.89-.41-.88-.43-.88-.45-.86-.48-.84-.49-.84-.52-.82-.53-.81-.56-.8-.57-.78-.6-.77-.61-.75-.63-.73-.65-.72-.67-.7-.69-.69-.7-.67-.72-.65-.73-.63-.75-.61-.77-.6-.78-.57-.8-.56-.81-.53-.82-.52-.84-.49-.84-.48-.86-.45-.88-.43-.88-.41-.89-.39-.9-.36-.91-.34-.92-.32-.93-.3-.94-.27-.94-.25-.95-.23-.96-.2-.96-.18-.96-.16-.97-.13-.97-.11-.98-.08-.98-.06-.98-.04-.98v-.98s0-.98,0-.98l.04-.98.06-.98.08-.98.11-.98.13-.97.16-.97.18-.96.2-.96.23-.96.25-.95.27-.94.3-.94.32-.93.34-.92.36-.91.39-.9.41-.89.43-.88.45-.88.48-.86.49-.84.52-.84.53-.82.56-.81.57-.8.6-.78.61-.77.63-.75.65-.73.67-.72.69-.7.7-.69.72-.67.73-.65.75-.63.77-.61.78-.6.8-.57.81-.56.82-.53.84-.52.84-.49.86-.48.88-.45.88-.43.89-.41.9-.39.91-.36.92-.34.93-.32.94-.3.94-.27.95-.25.96-.23.96-.2.96-.18.97-.16.97-.13.98-.11.98-.08.98-.06.98-.04h.98s20-.01,20-.01Z" fill="#EDE6D6"/></g>
<text x="1168" y="249" font-family="Helvetica,Arial,sans-serif" font-size="10" fill="#EDE6D6">composition-05</text>
<text x="1168" y="261" font-family="Helvetica,Arial,sans-serif" font-size="9" fill="#8A8A8A">right</text>
<rect x="1308" y="108" width="128" height="128" fill="#1C1C1C"/>
<g transform="translate(1308,108) scale(0.6400)"><!-- Generator: Adobe Illustrator 30.2.1, SVG Export Plug-In . SVG Version: 2.1.1 Build 1)  -->
  
  <path d="M100.03,100l-.03-100H0v200c-.02-55.21,44.74-99.98,99.97-100l.03,99.97-100,.03h200v-100.03l-99.97.03Z" fill="#1C1C1C"/>
  <path d="M99.97,100C44.74,100.02-.02,144.79,0,200l100-.03-.03-99.97Z" fill="#EDE6D6"/>
  <path d="M100,0c55.21-.02,99.98,44.74,100,99.97V0h-100Z" fill="#1C1C1C"/>
  <path d="M100,0l.03,100,99.97-.03C199.98,44.74,155.21-.02,100,0Z" fill="#EDE6D6"/></g>
<text x="1308" y="249" font-family="Helvetica,Arial,sans-serif" font-size="10" fill="#EDE6D6">composition-07</text>
<text x="1308" y="261" font-family="Helvetica,Arial,sans-serif" font-size="9" fill="#8A8A8A">outward</text>
<rect x="1448" y="108" width="128" height="128" fill="#1C1C1C"/>
<g transform="translate(1448,108) scale(0.6400)"><!-- Generator: Adobe Illustrator 30.2.1, SVG Export Plug-In . SVG Version: 2.1.1 Build 1)  -->
  
  <polygon points="160.05 118.04 160.11 117.06 160.19 116.08 160.3 115.1 160.43 114.13 160.59 113.16 160.77 112.2 160.97 111.24 161.2 110.28 161.45 109.33 161.72 108.39 162.02 107.45 162.34 106.52 162.68 105.6 163.04 104.69 163.43 103.79 163.84 102.9 164.27 102.02 164.72 101.14 165.2 100.28 165.69 99.44 166.21 98.6 166.74 97.78 167.3 96.97 167.87 96.17 168.47 95.39 169.08 94.62 169.71 93.87 170.36 93.14 171.03 92.42 171.72 91.72 172.42 91.03 173.14 90.36 173.87 89.71 174.62 89.08 175.39 88.47 176.17 87.87 176.97 87.3 177.78 86.74 178.6 86.21 179.44 85.69 180.28 85.2 181.14 84.72 182.02 84.27 182.9 83.84 183.79 83.43 184.69 83.04 185.6 82.68 186.52 82.34 187.45 82.02 188.39 81.72 189.33 81.45 190.28 81.2 191.24 80.97 192.2 80.77 193.16 80.59 194.13 80.43 195.1 80.3 196.08 80.19 197.06 80.11 198.04 80.05 199.02 80.01 200 80 199.02 79.99 198.04 79.95 197.06 79.89 196.08 79.81 195.1 79.7 194.13 79.57 193.16 79.41 192.2 79.23 191.24 79.03 190.28 78.8 189.33 78.55 188.39 78.28 187.45 77.98 186.52 77.66 185.6 77.32 184.69 76.96 183.79 76.57 182.9 76.16 182.02 75.73 181.14 75.28 180.28 74.8 179.44 74.31 178.6 73.79 177.78 73.26 176.97 72.7 176.17 72.13 175.39 71.53 174.62 70.92 173.87 70.29 173.14 69.64 172.42 68.97 171.72 68.28 171.03 67.58 170.36 66.86 169.71 66.13 169.08 65.38 168.47 64.61 167.87 63.83 167.3 63.03 166.74 62.22 166.21 61.4 165.69 60.56 165.2 59.72 164.72 58.86 164.27 57.98 163.84 57.1 163.43 56.21 163.04 55.31 162.68 54.4 162.34 53.48 162.02 52.55 161.72 51.61 161.45 50.67 161.2 49.72 160.97 48.76 160.77 47.8 160.59 46.84 160.43 45.87 160.3 44.9 160.19 43.92 160.11 42.94 160.05 41.96 160.01 40.98 160 40 160.01 39.02 160.05 38.04 160.11 37.06 160.19 36.08 160.3 35.1 160.43 34.13 160.59 33.16 160.77 32.2 160.97 31.24 161.2 30.28 161.45 29.33 161.72 28.39 162.02 27.45 162.34 26.52 162.68 25.6 163.04 24.69 163.43 23.79 163.84 22.9 164.27 22.02 164.72 21.14 165.2 20.28 165.69 19.44 166.21 18.6 166.74 17.78 167.3 16.97 167.87 16.17 168.47 15.39 169.08 14.62 169.71 13.87 170.36 13.14 171.03 12.42 171.72 11.72 172.42 11.03 173.14 10.36 173.87 9.71 174.62 9.08 175.39 8.47 176.17 7.87 176.97 7.3 177.78 6.74 178.6 6.21 179.44 5.69 180.28 5.2 181.14 4.72 182.02 4.27 182.9 3.84 183.79 3.43 184.69 3.04 185.6 2.68 186.52 2.34 187.45 2.02 188.39 1.72 189.33 1.45 190.28 1.2 191.24 .97 192.2 .77 193.16 .59 194.13 .43 195.1 .3 196.08 .19 197.06 .11 198.04 .05 199.02 .01 200 0 0 0 0 200 .01 199.02 .05 198.04 .11 197.06 .19 196.08 .3 195.1 .43 194.13 .59 193.16 .77 192.2 .97 191.24 1.2 190.28 1.45 189.33 1.72 188.39 2.02 187.45 2.34 186.52 2.68 185.6 3.04 184.69 3.43 183.79 3.84 182.9 4.27 182.02 4.72 181.14 5.2 180.28 5.69 179.44 6.21 178.6 6.74 177.78 7.3 176.97 7.87 176.17 8.47 175.39 9.08 174.62 9.71 173.87 10.36 173.14 11.03 172.42 11.72 171.72 12.42 171.03 13.14 170.36 13.87 169.71 14.62 169.08 15.39 168.47 16.17 167.87 16.97 167.3 17.78 166.74 18.6 166.21 19.44 165.69 20.28 165.2 21.14 164.72 22.02 164.27 22.9 163.84 23.79 163.43 24.69 163.04 25.6 162.68 26.52 162.34 27.45 162.02 28.39 161.72 29.33 161.45 30.28 161.2 31.24 160.97 32.2 160.77 33.16 160.59 34.13 160.43 35.1 160.3 36.08 160.19 37.06 160.11 38.04 160.05 39.02 160.01 40 160 40.98 160.01 41.96 160.05 42.94 160.11 43.92 160.19 44.9 160.3 45.87 160.43 46.84 160.59 47.8 160.77 48.76 160.97 49.72 161.2 50.67 161.45 51.61 161.72 52.55 162.02 53.48 162.34 54.4 162.68 55.31 163.04 56.21 163.43 57.1 163.84 57.98 164.27 58.86 164.72 59.72 165.2 60.56 165.69 61.4 166.21 62.22 166.74 63.03 167.3 63.83 167.87 64.61 168.47 65.38 169.08 66.13 169.71 66.86 170.36 67.58 171.03 68.28 171.72 68.97 172.42 69.64 173.14 70.29 173.87 70.92 174.62 71.53 175.39 72.13 176.17 72.7 176.97 73.26 177.78 73.79 178.6 74.31 179.44 74.8 180.28 75.28 181.14 75.73 182.02 76.16 182.9 76.57 183.79 76.96 184.69 77.32 185.6 77.66 186.52 77.98 187.45 78.28 188.39 78.55 189.33 78.8 190.28 79.03 191.24 79.23 192.2 79.41 193.16 79.57 194.13 79.7 195.1 79.81 196.08 79.89 197.06 79.95 198.04 79.99 199.02 80 200 80.01 199.02 80.05 198.04 80.11 197.06 80.19 196.08 80.3 195.1 80.43 194.13 80.59 193.16 80.77 192.2 80.97 191.24 81.2 190.28 81.45 189.33 81.72 188.39 82.02 187.45 82.34 186.52 82.68 185.6 83.04 184.69 83.43 183.79 83.84 182.9 84.27 182.02 84.72 181.14 85.2 180.28 85.69 179.44 86.21 178.6 86.74 177.78 87.3 176.97 87.87 176.17 88.47 175.39 89.08 174.62 89.71 173.87 90.36 173.14 91.03 172.42 91.72 171.72 92.42 171.03 93.14 170.36 93.87 169.71 94.62 169.08 95.39 168.47 96.17 167.87 96.97 167.3 97.78 166.74 98.6 166.21 99.44 165.69 100.28 165.2 101.14 164.72 102.02 164.27 102.9 163.84 103.79 163.43 104.69 163.04 105.6 162.68 106.52 162.34 107.45 162.02 108.39 161.72 109.33 161.45 110.28 161.2 111.24 160.97 112.2 160.77 113.16 160.59 114.13 160.43 115.1 160.3 116.08 160.19 117.06 160.11 118.04 160.05 119.02 160.01 120 160 120.98 160.01 121.96 160.05 122.94 160.11 123.92 160.19 124.9 160.3 125.87 160.43 126.84 160.59 127.8 160.77 128.76 160.97 129.72 161.2 130.67 161.45 131.61 161.72 132.55 162.02 133.48 162.34 134.4 162.68 135.31 163.04 136.21 163.43 137.1 163.84 137.98 164.27 138.86 164.72 139.72 165.2 140.56 165.69 141.4 166.21 142.22 166.74 143.03 167.3 143.83 167.87 144.61 168.47 145.38 169.08 146.13 169.71 146.86 170.36 147.58 171.03 148.28 171.72 148.97 172.42 149.64 173.14 150.29 173.87 150.92 174.62 151.53 175.39 152.13 176.17 152.7 176.97 153.26 177.78 153.79 178.6 154.31 179.44 154.8 180.28 155.28 181.14 155.73 182.02 156.16 182.9 156.57 183.79 156.96 184.69 157.32 185.6 157.66 186.52 157.98 187.45 158.28 188.39 158.55 189.33 158.8 190.28 159.03 191.24 159.23 192.2 159.41 193.16 159.57 194.13 159.7 195.1 159.81 196.08 159.89 197.06 159.95 198.04 159.99 199.02 160 200 160.01 199.02 160.05 198.04 160.11 197.06 160.19 196.08 160.3 195.1 160.43 194.13 160.59 193.16 160.77 192.2 160.97 191.24 161.2 190.28 161.45 189.33 161.72 188.39 162.02 187.45 162.34 186.52 162.68 185.6 163.04 184.69 163.43 183.79 163.84 182.9 164.27 182.02 164.72 181.14 165.2 180.28 165.69 179.44 166.21 178.6 166.74 177.78 167.3 176.97 167.87 176.17 168.47 175.39 169.08 174.62 169.71 173.87 170.36 173.14 171.03 172.42 171.72 171.72 172.42 171.03 173.14 170.36 173.87 169.71 174.62 169.08 175.39 168.47 176.17 167.87 176.97 167.3 177.78 166.74 178.6 166.21 179.44 165.69 180.28 165.2 181.14 164.72 182.02 164.27 182.9 163.84 183.79 163.43 184.69 163.04 185.6 162.68 186.52 162.34 187.45 162.02 188.39 161.72 189.33 161.45 190.28 161.2 191.24 160.97 192.2 160.77 193.16 160.59 194.13 160.43 195.1 160.3 196.08 160.19 197.06 160.11 198.04 160.05 199.02 160.01 200 160 199.02 159.99 198.04 159.95 197.06 159.89 196.08 159.81 195.1 159.7 194.13 159.57 193.16 159.41 192.2 159.23 191.24 159.03 190.28 158.8 189.33 158.55 188.39 158.28 187.45 157.98 186.52 157.66 185.6 157.32 184.69 156.96 183.79 156.57 182.9 156.16 182.02 155.73 181.14 155.28 180.28 154.8 179.44 154.31 178.6 153.79 177.78 153.26 176.97 152.7 176.17 152.13 175.39 151.53 174.62 150.92 173.87 150.29 173.14 149.64 172.42 148.97 171.72 148.28 171.03 147.58 170.36 146.86 169.71 146.13 169.08 145.38 168.47 144.61 167.87 143.83 167.3 143.03 166.74 142.22 166.21 141.4 165.69 140.56 165.2 139.72 164.72 138.86 164.27 137.98 163.84 137.1 163.43 136.21 163.04 135.31 162.68 134.4 162.34 133.48 162.02 132.55 161.72 131.61 161.45 130.67 161.2 129.72 160.97 128.76 160.77 127.8 160.59 126.84 160.43 125.87 160.3 124.9 160.19 123.92 160.11 122.94 160.05 121.96 160.01 120.98 160 120 160.01 119.02 160.05 118.04" fill="#1C1C1C"/>
  <polygon points="198.04 .05 197.06 .11 196.08 .19 195.1 .3 194.13 .43 193.16 .59 192.2 .77 191.24 .97 190.28 1.2 189.33 1.45 188.39 1.72 187.45 2.02 186.52 2.34 185.6 2.68 184.69 3.04 183.79 3.43 182.9 3.84 182.02 4.27 181.14 4.72 180.28 5.2 179.44 5.69 178.6 6.21 177.78 6.74 176.97 7.3 176.17 7.87 175.39 8.47 174.62 9.08 173.87 9.71 173.14 10.36 172.42 11.03 171.72 11.72 171.03 12.42 170.36 13.14 169.71 13.87 169.08 14.62 168.47 15.39 167.87 16.17 167.3 16.97 166.74 17.78 166.21 18.6 165.69 19.44 165.2 20.28 164.72 21.14 164.27 22.02 163.84 22.9 163.43 23.79 163.04 24.69 162.68 25.6 162.34 26.52 162.02 27.45 161.72 28.39 161.45 29.33 161.2 30.28 160.97 31.24 160.77 32.2 160.59 33.16 160.43 34.13 160.3 35.1 160.19 36.08 160.11 37.06 160.05 38.04 160.01 39.02 160 40 160.01 40.98 160.05 41.96 160.11 42.94 160.19 43.92 160.3 44.9 160.43 45.87 160.59 46.84 160.77 47.8 160.97 48.76 161.2 49.72 161.45 50.67 161.72 51.61 162.02 52.55 162.34 53.48 162.68 54.4 163.04 55.31 163.43 56.21 163.84 57.1 164.27 57.98 164.72 58.86 165.2 59.72 165.69 60.56 166.21 61.4 166.74 62.22 167.3 63.03 167.87 63.83 168.47 64.61 169.08 65.38 169.71 66.13 170.36 66.86 171.03 67.58 171.72 68.28 172.42 68.97 173.14 69.64 173.87 70.29 174.62 70.92 175.39 71.53 176.17 72.13 176.97 72.7 177.78 73.26 178.6 73.79 179.44 74.31 180.28 74.8 181.14 75.28 182.02 75.73 182.9 76.16 183.79 76.57 184.69 76.96 185.6 77.32 186.52 77.66 187.45 77.98 188.39 78.28 189.33 78.55 190.28 78.8 191.24 79.03 192.2 79.23 193.16 79.41 194.13 79.57 195.1 79.7 196.08 79.81 197.06 79.89 198.04 79.95 199.02 79.99 200 80 200 0 199.02 .01 198.04 .05" fill="#EDE6D6"/>
  <polygon points="198.04 80.05 197.06 80.11 196.08 80.19 195.1 80.3 194.13 80.43 193.16 80.59 192.2 80.77 191.24 80.97 190.28 81.2 189.33 81.45 188.39 81.72 187.45 82.02 186.52 82.34 185.6 82.68 184.69 83.04 183.79 83.43 182.9 83.84 182.02 84.27 181.14 84.72 180.28 85.2 179.44 85.69 178.6 86.21 177.78 86.74 176.97 87.3 176.17 87.87 175.39 88.47 174.62 89.08 173.87 89.71 173.14 90.36 172.42 91.03 171.72 91.72 171.03 92.42 170.36 93.14 169.71 93.87 169.08 94.62 168.47 95.39 167.87 96.17 167.3 96.97 166.74 97.78 166.21 98.6 165.69 99.44 165.2 100.28 164.72 101.14 164.27 102.02 163.84 102.9 163.43 103.79 163.04 104.69 162.68 105.6 162.34 106.52 162.02 107.45 161.72 108.39 161.45 109.33 161.2 110.28 160.97 111.24 160.77 112.2 160.59 113.16 160.43 114.13 160.3 115.1 160.19 116.08 160.11 117.06 160.05 118.04 160.01 119.02 160 120 160.01 120.98 160.05 121.96 160.11 122.94 160.19 123.92 160.3 124.9 160.43 125.87 160.59 126.84 160.77 127.8 160.97 128.76 161.2 129.72 161.45 130.67 161.72 131.61 162.02 132.55 162.34 133.48 162.68 134.4 163.04 135.31 163.43 136.21 163.84 137.1 164.27 137.98 164.72 138.86 165.2 139.72 165.69 140.56 166.21 141.4 166.74 142.22 167.3 143.03 167.87 143.83 168.47 144.61 169.08 145.38 169.71 146.13 170.36 146.86 171.03 147.58 171.72 148.28 172.42 148.97 173.14 149.64 173.87 150.29 174.62 150.92 175.39 151.53 176.17 152.13 176.97 152.7 177.78 153.26 178.6 153.79 179.44 154.31 180.28 154.8 181.14 155.28 182.02 155.73 182.9 156.16 183.79 156.57 184.69 156.96 185.6 157.32 186.52 157.66 187.45 157.98 188.39 158.28 189.33 158.55 190.28 158.8 191.24 159.03 192.2 159.23 193.16 159.41 194.13 159.57 195.1 159.7 196.08 159.81 197.06 159.89 198.04 159.95 199.02 159.99 200 160 200 80 199.02 80.01 198.04 80.05" fill="#EDE6D6"/>
  <polygon points="200 160 200 200 160 200 160.01 199.02 160.05 198.04 160.11 197.06 160.19 196.08 160.3 195.1 160.43 194.13 160.59 193.16 160.77 192.2 160.97 191.24 161.2 190.28 161.45 189.33 161.72 188.39 162.02 187.45 162.34 186.52 162.68 185.6 163.04 184.69 163.43 183.79 163.84 182.9 164.27 182.02 164.72 181.14 165.2 180.28 165.69 179.44 166.21 178.6 166.74 177.78 167.3 176.97 167.87 176.17 168.47 175.39 169.08 174.62 169.71 173.87 170.36 173.14 171.03 172.42 171.72 171.72 172.42 171.03 173.14 170.36 173.87 169.71 174.62 169.08 175.39 168.47 176.17 167.87 176.97 167.3 177.78 166.74 178.6 166.21 179.44 165.69 180.28 165.2 181.14 164.72 182.02 164.27 182.9 163.84 183.79 163.43 184.69 163.04 185.6 162.68 186.52 162.34 187.45 162.02 188.39 161.72 189.33 161.45 190.28 161.2 191.24 160.97 192.2 160.77 193.16 160.59 194.13 160.43 195.1 160.3 196.08 160.19 197.06 160.11 198.04 160.05 199.02 160.01 200 160" fill="#EDE6D6"/>
  <polygon points="159.99 199.02 160 200 80 200 80.01 199.02 80.05 198.04 80.11 197.06 80.19 196.08 80.3 195.1 80.43 194.13 80.59 193.16 80.77 192.2 80.97 191.24 81.2 190.28 81.45 189.33 81.72 188.39 82.02 187.45 82.34 186.52 82.68 185.6 83.04 184.69 83.43 183.79 83.84 182.9 84.27 182.02 84.72 181.14 85.2 180.28 85.69 179.44 86.21 178.6 86.74 177.78 87.3 176.97 87.87 176.17 88.47 175.39 89.08 174.62 89.71 173.87 90.36 173.14 91.03 172.42 91.72 171.72 92.42 171.03 93.14 170.36 93.87 169.71 94.62 169.08 95.39 168.47 96.17 167.87 96.97 167.3 97.78 166.74 98.6 166.21 99.44 165.69 100.28 165.2 101.14 164.72 102.02 164.27 102.9 163.84 103.79 163.43 104.69 163.04 105.6 162.68 106.52 162.34 107.45 162.02 108.39 161.72 109.33 161.45 110.28 161.2 111.24 160.97 112.2 160.77 113.16 160.59 114.13 160.43 115.1 160.3 116.08 160.19 117.06 160.11 118.04 160.05 119.02 160.01 120 160 120.98 160.01 121.96 160.05 122.94 160.11 123.92 160.19 124.9 160.3 125.87 160.43 126.84 160.59 127.8 160.77 128.76 160.97 129.72 161.2 130.67 161.45 131.61 161.72 132.55 162.02 133.48 162.34 134.4 162.68 135.31 163.04 136.21 163.43 137.1 163.84 137.98 164.27 138.86 164.72 139.72 165.2 140.56 165.69 141.4 166.21 142.22 166.74 143.03 167.3 143.83 167.87 144.61 168.47 145.38 169.08 146.13 169.71 146.86 170.36 147.58 171.03 148.28 171.72 148.97 172.42 149.64 173.14 150.29 173.87 150.92 174.62 151.53 175.39 152.13 176.17 152.7 176.97 153.26 177.78 153.79 178.6 154.31 179.44 154.8 180.28 155.28 181.14 155.73 182.02 156.16 182.9 156.57 183.79 156.96 184.69 157.32 185.6 157.66 186.52 157.98 187.45 158.28 188.39 158.55 189.33 158.8 190.28 159.03 191.24 159.23 192.2 159.41 193.16 159.57 194.13 159.7 195.1 159.81 196.08 159.89 197.06 159.95 198.04 159.99 199.02" fill="#EDE6D6"/>
  <polygon points="79.99 199.02 80 200 0 200 .01 199.02 .05 198.04 .11 197.06 .19 196.08 .3 195.1 .43 194.13 .59 193.16 .77 192.2 .97 191.24 1.2 190.28 1.45 189.33 1.72 188.39 2.02 187.45 2.34 186.52 2.68 185.6 3.04 184.69 3.43 183.79 3.84 182.9 4.27 182.02 4.72 181.14 5.2 180.28 5.69 179.44 6.21 178.6 6.74 177.78 7.3 176.97 7.87 176.17 8.47 175.39 9.08 174.62 9.71 173.87 10.36 173.14 11.03 172.42 11.72 171.72 12.42 171.03 13.14 170.36 13.87 169.71 14.62 169.08 15.39 168.47 16.17 167.87 16.97 167.3 17.78 166.74 18.6 166.21 19.44 165.69 20.28 165.2 21.14 164.72 22.02 164.27 22.9 163.84 23.79 163.43 24.69 163.04 25.6 162.68 26.52 162.34 27.45 162.02 28.39 161.72 29.33 161.45 30.28 161.2 31.24 160.97 32.2 160.77 33.16 160.59 34.13 160.43 35.1 160.3 36.08 160.19 37.06 160.11 38.04 160.05 39.02 160.01 40 160 40.98 160.01 41.96 160.05 42.94 160.11 43.92 160.19 44.9 160.3 45.87 160.43 46.84 160.59 47.8 160.77 48.76 160.97 49.72 161.2 50.67 161.45 51.61 161.72 52.55 162.02 53.48 162.34 54.4 162.68 55.31 163.04 56.21 163.43 57.1 163.84 57.98 164.27 58.86 164.72 59.72 165.2 60.56 165.69 61.4 166.21 62.22 166.74 63.03 167.3 63.83 167.87 64.61 168.47 65.38 169.08 66.13 169.71 66.86 170.36 67.58 171.03 68.28 171.72 68.97 172.42 69.64 173.14 70.29 173.87 70.92 174.62 71.53 175.39 72.13 176.17 72.7 176.97 73.26 177.78 73.79 178.6 74.31 179.44 74.8 180.28 75.28 181.14 75.73 182.02 76.16 182.9 76.57 183.79 76.96 184.69 77.32 185.6 77.66 186.52 77.98 187.45 78.28 188.39 78.55 189.33 78.8 190.28 79.03 191.24 79.23 192.2 79.41 193.16 79.57 194.13 79.7 195.1 79.81 196.08 79.89 197.06 79.95 198.04 79.99 199.02" fill="#EDE6D6"/></g>
<text x="1448" y="249" font-family="Helvetica,Arial,sans-serif" font-size="10" fill="#EDE6D6">composition-06</text>
<text x="1448" y="261" font-family="Helvetica,Arial,sans-serif" font-size="9" fill="#8A8A8A">down</text>
<rect x="48" y="266" width="128" height="128" fill="#1C1C1C"/>
<g transform="translate(48,266) scale(0.6400)"><!-- Generator: Adobe Illustrator 30.2.1, SVG Export Plug-In . SVG Version: 2.1.1 Build 1)  -->
  
  <path d="M0,0c0,55.23,44.77,100,100,100S199.97,55.26,200,.06v-.06H0Z" fill="#1C1C1C"/>
  <path d="M100,100C44.77,100,0,144.77,0,200h200c0-55.23-44.77-100-100-100Z" fill="#1C1C1C"/>
  <path d="M100,100C44.77,100,0,55.23,0,0v200c0-55.23,44.77-100,100-100Z" fill="#EDE6D6"/>
  <path d="M100,100c55.23,0,100,44.77,100,100V.06c-.03,55.2-44.79,99.94-100,99.94Z" fill="#EDE6D6"/></g>
<text x="48" y="407" font-family="Helvetica,Arial,sans-serif" font-size="10" fill="#EDE6D6">composition-01</text>
<text x="48" y="419" font-family="Helvetica,Arial,sans-serif" font-size="9" fill="#8A8A8A">neutral</text>
</svg>
