<svg xmlns="http://www.w3.org/2000/svg" width="1204" height="936" viewBox="0 0 1204 936">
<rect width="1204" height="936" fill="#121212"/><text x="40" y="46" font-family="Helvetica,Arial,sans-serif" font-size="28" font-weight="bold" fill="#EDE6D6">FAI BANNER CONTACT SHEET</text><text x="40" y="66" font-family="Helvetica,Arial,sans-serif" font-size="12" fill="#8A8A8A">8 banners · scores per supplement axes</text>
<g transform="translate(40,80) scale(0.5625)">
<rect width="640" height="320" fill="#FFFFFF"/>
<rect x="0.000" y="0.000" width="213.333" height="213.333" fill="#FFFFFF"/>
<g transform="translate(0.000,0.000) scale(1.06667) rotate(180,100,100)"><path d="M196.3723,103.3443 L187.5787,104.9057 L178.8975,105.4895 L170.3767,105.1437 L162.0644,103.9164 L154.0086,101.8556 L146.2575,99.0095 L138.8591,95.4261 L131.8615,91.1535 L125.3128,86.2398 L119.261,80.733 L113.7543,74.6813 L108.8407,68.1327 L104.5683,61.1353 L100.9852,53.7372 L98.1394,45.9864 L96.0791,37.9311 L94.8523,29.6193 L94.5071,21.0991 L95.0916,12.4186 L96.6539,3.6259 L97.7134,0 L0,0 L0,16.6667 L0,33.3333 L0,50 L0,66.6667 L0,83.3333 L0,100 L0,116.6667 L0,133.3333 L0,150 L0,166.6667 L0,183.3333 L0,200 L16.6667,200 L33.3333,200 L50,200 L66.6667,200 L83.3333,200 L100,200 L116.6667,200 L133.3333,200 L150,200 L166.6667,200 L183.3333,200 L200,200 L200,102.2847 Z" fill="#FF4F00"/></g>
<rect x="213.333" y="0.000" width="106.667" height="106.667" fill="#FFFFFF"/>
<g transform="translate(213.333,0.000) scale(0.53333) rotate(180,100,100)"><path fill-rule="evenodd" clip-rule="evenodd" d="M0 100L200 0L0 0L0 200L200 200L0 100Z" fill="#121212"/></g>
<rect x="533.333" y="0.000" width="106.667" height="106.667" fill="#121212"/>
<g transform="translate(533.333,0.000) scale(0.53333) rotate(180,100,100)"><path d="M100 0L100 100L0 100L0 0L100 0Z" fill="#FFFFFF"/>
  <path d="M200 100L200 200L100 200L100 100L200 100Z" fill="#FFFFFF"/></g>
<rect x="213.333" y="106.667" width="106.667" height="106.667" fill="#121212"/>
<g transform="translate(213.333,106.667) scale(0.53333)"><circle cx="100" cy="100" r="50" fill="#FFFFFF"/></g>
<rect x="320.000" y="106.667" width="106.667" height="106.667" fill="#FFFFFF"/>
<g transform="translate(320.000,106.667) scale(0.53333)"><circle cx="100" cy="100" r="50" fill="#121212"/></g>
<rect x="426.667" y="106.667" width="106.667" height="106.667" fill="#121212"/>
<g transform="translate(426.667,106.667) scale(0.53333) rotate(90,100,100)"><path d="M100 0L100 100L0 100L0 0L100 0Z" fill="#FFFFFF"/>
  <path d="M200 100L200 200L100 200L100 100L200 100Z" fill="#FFFFFF"/></g>
<rect x="533.333" y="106.667" width="106.667" height="106.667" fill="#FFFFFF"/>
<g transform="translate(533.333,106.667) scale(0.53333) rotate(180,100,100)"><path d="M100 0L100 100L0 100L0 0L100 0Z" fill="#121212"/>
  <path d="M200 100L200 200L100 200L100 100L200 100Z" fill="#121212"/></g>
<rect x="0.000" y="213.333" width="106.667" height="106.667" fill="#FFFFFF"/>
<g transform="translate(0.000,213.333) scale(0.53333)"><path d="M100 0L100 100L0 100L0 0L100 0Z" fill="#121212"/>
  <path d="M200 100L200 200L100 200L100 100L200 100Z" fill="#121212"/></g>
<rect x="106.667" y="213.333" width="106.667" height="106.667" fill="#FFFFFF"/>
<g transform="translate(106.667,213.333) scale(0.53333) rotate(180,100,100)"><path fill-rule="evenodd" clip-rule="evenodd" d="M0 100L200 0L0 0L0 200L200 200L0 100Z" fill="#FF4F00"/></g>
<rect x="213.333" y="213.333" width="106.667" height="106.667" fill="#FFFFFF"/>
<g transform="translate(213.333,213.333) scale(0.53333) rotate(180,100,100)"><circle cx="100" cy="100" r="50" fill="#121212"/></g>
<rect x="533.333" y="213.333" width="106.667" height="106.667" fill="#121212"/>
<g transform="translate(533.333,213.333) scale(0.53333) rotate(270,100,100)"><path d="M100 0L100 100L0 100L0 0L100 0Z" fill="#FFFFFF"/>
  <path d="M200 100L200 200L100 200L100 100L200 100Z" fill="#FFFFFF"/></g>
</g>
<rect x="40" y="80" width="360" height="180.0" fill="none" stroke="#333" stroke-width="1"/>
<text x="40" y="278" font-family="Helvetica,Arial,sans-serif" font-size="12" fill="#EDE6D6">asymmetric_left s=260602</text>
<text x="40" y="296" font-family="Helvetica,Arial,sans-serif" font-size="11" fill="#8A8A8A">total 0.874   anc 0.70  rhy 0.77  dir 0.63  wei 1.00</text>
<text x="40" y="311" font-family="Helvetica,Arial,sans-serif" font-size="11" fill="#8A8A8A">neg 0.83  tem 0.52  fam 1.00  her 0.88  tmp 0.85</text>
<g transform="translate(422,80) scale(0.5625)">
<rect width="640" height="320" fill="#FFFFFF"/>
<rect x="0.000" y="0.000" width="213.333" height="213.333" fill="#121212"/>
<g transform="translate(0.000,0.000) scale(1.06667)"><path d="M200 25L200 175L0 175L0 25L200 25Z" fill="#FF4F00"/></g>
<rect x="213.333" y="0.000" width="106.667" height="106.667" fill="#FFFFFF"/>
<g transform="translate(213.333,0.000) scale(0.53333) rotate(90,100,100)"><path d="M200 0 C200 82.8427 132.843 150 50 150 L0 150 L0 0 L200 0 Z" fill="#FF4F00"/></g>
<rect x="533.333" y="0.000" width="106.667" height="106.667" fill="#FFFFFF"/>
<g transform="translate(533.333,0.000) scale(0.53333) rotate(90,100,100)"><path d="M150 100H200C200 44.772 155.228 0 100 0C44.772 0 0 44.772 0 100H50C50 100 72.384 100 100 100C127.616 100 150 100 150 100Z" fill="#121212"/>
  <path d="M45 200H65V100H45V200Z" fill="#121212"/>
  <path d="M90 200H110V100H90V200Z" fill="#121212"/>
  <path d="M135 200H155V100H135V200Z" fill="#121212"/>
  <path d="M0 200H20V100H0V200Z" fill="#121212"/>
  <path d="M180 200H200V100H180V200Z" fill="#121212"/></g>
<rect x="213.333" y="106.667" width="106.667" height="106.667" fill="#FFFFFF"/>
<g transform="translate(213.333,106.667) scale(0.53333) rotate(270,100,100)"><path d="M150.05 200 C105.549 200 83.2634 146.197 114.73 114.73 C146.197 83.2634 200 105.549 200 150.05 L200 200 L150.05 200 Z" fill="#121212"/></g>
<rect x="320.000" y="106.667" width="106.667" height="106.667" fill="#121212"/>
<g transform="translate(320.000,106.667) scale(0.53333) rotate(270,100,100)"><path d="M150.05 200 C105.549 200 83.2634 146.197 114.73 114.73 C146.197 83.2634 200 105.549 200 150.05 L200 200 L150.05 200 Z" fill="#FFFFFF"/></g>
<rect x="426.667" y="106.667" width="106.667" height="106.667" fill="#121212"/>
<g transform="translate(426.667,106.667) scale(0.53333)"><path d="M200 0 C200 82.8427 132.843 150 50 150 L0 150 L0 0 L200 0 Z" fill="#FF4F00"/></g>
<rect x="533.333" y="106.667" width="106.667" height="106.667" fill="#121212"/>
<g transform="translate(533.333,106.667) scale(0.53333) rotate(270,100,100)"><path d="M200 0 C200 82.8427 132.843 150 50 150 L0 150 L0 0 L200 0 Z" fill="#FFFFFF"/></g>
<rect x="0.000" y="213.333" width="106.667" height="106.667" fill="#FFFFFF"/>
<g transform="translate(0.000,213.333) scale(0.53333) rotate(180,100,100)"><path d="M150 100H200C200 44.772 155.228 0 100 0C44.772 0 0 44.772 0 100H50C50 100 72.384 100 100 100C127.616 100 150 100 150 100Z" fill="#121212"/>
  <path d="M45 200H65V100H45V200Z" fill="#121212"/>
  <path d="M90 200H110V100H90V200Z" fill="#121212"/>
  <path d="M135 200H155V100H135V200Z" fill="#121212"/>
  <path d="M0 200H20V100H0V200Z" fill="#121212"/>
  <path d="M180 200H200V100H180V200Z" fill="#121212"/></g>
<rect x="106.667" y="213.333" width="106.667" height="106.667" fill="#121212"/>
<g transform="translate(106.667,213.333) scale(0.53333)"><path d="M150 100H200C200 44.772 155.228 0 100 0C44.772 0 0 44.772 0 100H50C50 100 72.384 100 100 100C127.616 100 150 100 150 100Z" fill="#FFFFFF"/>
  <path d="M45 200H65V100H45V200Z" fill="#FFFFFF"/>
  <path d="M90 200H110V100H90V200Z" fill="#FFFFFF"/>
  <path d="M135 200H155V100H135V200Z" fill="#FFFFFF"/>
  <path d="M0 200H20V100H0V200Z" fill="#FFFFFF"/>
  <path d="M180 200H200V100H180V200Z" fill="#FFFFFF"/></g>
<rect x="213.333" y="213.333" width="106.667" height="106.667" fill="#FFFFFF"/>
<g transform="translate(213.333,213.333) scale(0.53333)"><path d="M150.05 200 C105.549 200 83.2634 146.197 114.73 114.73 C146.197 83.2634 200 105.549 200 150.05 L200 200 L150.05 200 Z" fill="#FF4F00"/></g>
<rect x="533.333" y="213.333" width="106.667" height="106.667" fill="#121212"/>
<g transform="translate(533.333,213.333) scale(0.53333)"><path d="M200 0 C200 82.8427 132.843 150 50 150 L0 150 L0 0 L200 0 Z" fill="#FF4F00"/></g>
</g>
<rect x="422" y="80" width="360" height="180.0" fill="none" stroke="#333" stroke-width="1"/>
<text x="422" y="278" font-family="Helvetica,Arial,sans-serif" font-size="12" fill="#EDE6D6">asymmetric_left s=260602</text>
<text x="422" y="296" font-family="Helvetica,Arial,sans-serif" font-size="11" fill="#8A8A8A">total 0.873   anc 0.60  rhy 0.97  dir 0.62  wei 1.00</text>
<text x="422" y="311" font-family="Helvetica,Arial,sans-serif" font-size="11" fill="#8A8A8A">neg 0.83  tem 0.39  fam 1.00  her 0.82  tmp 0.84</text>
<g transform="translate(804,80) scale(0.5625)">
<rect width="640" height="320" fill="#FFFFFF"/>
<rect x="0.000" y="0.000" width="213.333" height="213.333" fill="#FFFFFF"/>
<g transform="translate(0.000,0.000) scale(1.06667) rotate(270,100,100)"><path d="M200 0H0V200C0 89.544 89.544 0 200 0Z" fill="#FF4F00"/>
  <path d="M141.42 141.42C105.228 177.616 55.228 200 0 200H200V0C200 55.228 177.616 105.228 141.42 141.42Z" fill="#FF4F00"/>
  <path d="M100 58.3333C76.9893 58.3333 58.3335 76.9841 58.3335 100C58.3335 123.016 76.9893 141.667 100 141.667C111.508 141.667 121.925 137.004 129.464 129.464C137.004 121.925 141.667 111.508 141.667 100C141.667 76.9841 123.011 58.3333 100 58.3333Z" fill="#FF4F00"/></g>
<rect x="213.333" y="0.000" width="106.667" height="106.667" fill="#FFFFFF"/>
<g transform="translate(213.333,0.000) scale(0.53333) rotate(180,100,100)"><path d="M200 0 L155.47 66.7949 C120.815 118.777 62.4745 150 0 150 L0 0 L100 0 L200 0 Z" fill="#121212"/></g>
<rect x="533.333" y="0.000" width="106.667" height="106.667" fill="#FFFFFF"/>
<g transform="translate(533.333,0.000) scale(0.53333)"><path d="M200 0H0V200C0 89.544 89.544 0 200 0Z" fill="#FF4F00"/>
  <path d="M141.42 141.42C105.228 177.616 55.228 200 0 200H200V0C200 55.228 177.616 105.228 141.42 141.42Z" fill="#FF4F00"/>
  <path d="M100 58.3333C76.9893 58.3333 58.3335 76.9841 58.3335 100C58.3335 123.016 76.9893 141.667 100 141.667C111.508 141.667 121.925 137.004 129.464 129.464C137.004 121.925 141.667 111.508 141.667 100C141.667 76.9841 123.011 58.3333 100 58.3333Z" fill="#FF4F00"/></g>
<rect x="213.333" y="106.667" width="106.667" height="106.667" fill="#121212"/>
<g transform="translate(213.333,106.667) scale(0.53333) rotate(270,100,100)"><path d="M100 0H0V100C0 44.772 44.772 0 100 0Z" fill="#FFFFFF"/>
  <path d="M50.0001 150C50.0001 122.387 27.6192 100 0.0001 100C0.0001 100 0.0001 122.387 0.0001 150C0.0001 163.81 0.0001 200 0.0001 200C27.6192 200 50.0001 177.613 50.0001 150Z" fill="#FFFFFF"/></g>
<rect x="320.000" y="106.667" width="106.667" height="106.667" fill="#FFFFFF"/>
<g transform="translate(320.000,106.667) scale(0.53333)"><path d="M100 0H0V100C0 44.772 44.772 0 100 0Z" fill="#FF4F00"/>
  <path d="M50.0001 150C50.0001 122.387 27.6192 100 0.0001 100C0.0001 100 0.0001 122.387 0.0001 150C0.0001 163.81 0.0001 200 0.0001 200C27.6192 200 50.0001 177.613 50.0001 150Z" fill="#FF4F00"/></g>
<rect x="426.667" y="106.667" width="106.667" height="106.667" fill="#121212"/>
<g transform="translate(426.667,106.667) scale(0.53333) rotate(90,100,100)"><path d="M200 0H0V200C0 89.544 89.544 0 200 0Z" fill="#FFFFFF"/>
  <path d="M141.42 141.42C105.228 177.616 55.228 200 0 200H200V0C200 55.228 177.616 105.228 141.42 141.42Z" fill="#FFFFFF"/>
  <path d="M100 58.3333C76.9893 58.3333 58.3335 76.9841 58.3335 100C58.3335 123.016 76.9893 141.667 100 141.667C111.508 141.667 121.925 137.004 129.464 129.464C137.004 121.925 141.667 111.508 141.667 100C141.667 76.9841 123.011 58.3333 100 58.3333Z" fill="#FFFFFF"/></g>
<rect x="533.333" y="106.667" width="106.667" height="106.667" fill="#FFFFFF"/>
<g transform="translate(533.333,106.667) scale(0.53333)"><path d="M200 0 L155.47 66.7949 C120.815 118.777 62.4745 150 0 150 L0 0 L100 0 L200 0 Z" fill="#121212"/></g>
<rect x="0.000" y="213.333" width="106.667" height="106.667" fill="#121212"/>
<g transform="translate(0.000,213.333) scale(0.53333) rotate(180,100,100)"><path d="M200 0 L155.47 66.7949 C120.815 118.777 62.4745 150 0 150 L0 0 L100 0 L200 0 Z" fill="#FF4F00"/></g>
<rect x="106.667" y="213.333" width="106.667" height="106.667" fill="#121212"/>
<g transform="translate(106.667,213.333) scale(0.53333) rotate(180,100,100)"><path d="M200 0 L155.47 66.7949 C120.815 118.777 62.4745 150 0 150 L0 0 L100 0 L200 0 Z" fill="#FFFFFF"/></g>
<rect x="213.333" y="213.333" width="106.667" height="106.667" fill="#121212"/>
<g transform="translate(213.333,213.333) scale(0.53333) rotate(180,100,100)"><path fill-rule="evenodd" clip-rule="evenodd" d="M100 135.417L100 149.167L190.047 149.167L190 199.953L200 200L200 0L190 0C190 107.037 159.583 135.417 100 135.417Z" fill="#FF4F00"/></g>
<rect x="533.333" y="213.333" width="106.667" height="106.667" fill="#121212"/>
<g transform="translate(533.333,213.333) scale(0.53333) rotate(90,100,100)"><path d="M200 0 L155.47 66.7949 C120.815 118.777 62.4745 150 0 150 L0 0 L100 0 L200 0 Z" fill="#FFFFFF"/></g>
</g>
<rect x="804" y="80" width="360" height="180.0" fill="none" stroke="#333" stroke-width="1"/>
<text x="804" y="278" font-family="Helvetica,Arial,sans-serif" font-size="12" fill="#EDE6D6">asymmetric_left s=260602</text>
<text x="804" y="296" font-family="Helvetica,Arial,sans-serif" font-size="11" fill="#8A8A8A">total 0.867   anc 0.60  rhy 0.95  dir 0.67  wei 1.00</text>
<text x="804" y="311" font-family="Helvetica,Arial,sans-serif" font-size="11" fill="#8A8A8A">neg 0.83  tem 0.37  fam 0.89  her 0.88  tmp 0.81</text>
<g transform="translate(40,352) scale(0.5625)">
<rect width="640" height="320" fill="#FFFFFF"/>
<rect x="0.000" y="0.000" width="213.333" height="213.333" fill="#121212"/>
<g transform="translate(0.000,0.000) scale(1.06667) rotate(270,100,100)"><!-- Generator: Adobe Illustrator 30.2.1, SVG Export Plug-In . SVG Version: 2.1.1 Build 1)  -->
  
  <path d="M100.03,100l-.03-100H0v200c-.02-55.21,44.74-99.98,99.97-100l.03,99.97-100,.03h200v-100.03l-99.97.03Z" fill="#121212"/>
  <path d="M99.97,100C44.74,100.02-.02,144.79,0,200l100-.03-.03-99.97Z" fill="#FF4F00"/>
  <path d="M100,0c55.21-.02,99.98,44.74,100,99.97V0h-100Z" fill="#121212"/>
  <path d="M100,0l.03,100,99.97-.03C199.98,44.74,155.21-.02,100,0Z" fill="#FF4F00"/></g>
<rect x="213.333" y="0.000" width="106.667" height="106.667" fill="#FFFFFF"/>
<g transform="translate(213.333,0.000) scale(0.53333) rotate(270,100,100)"><path fill-rule="evenodd" clip-rule="evenodd" d="M101.046 0.0051C100.849 0.002 100.652 0.0003 100.455 0L100.449 0L100.444 0L100.401 0L100.358 0L100.349 0L100.309 0L100.305 0L100.302 0L100.261 0L100.248 0L100.225 0C100.211 0 100.197 0 100.183 0C100.173 0 100.163 0 100.153 0C100.148 0 100.142 0 100.137 0L100.131 0C100.117 0 100.103 0 100.089 0C100.078 0 100.067 0 100.057 0C100.038 0 100.019 0 100 0L99.9354 0L99.9126 0C99.8861 0 99.8596 0 99.8331 0.0001C44.6814 0.0902 0 44.8271 0 100C0 155.168 44.6734 199.902 99.8183 200L99.8698 200L99.9126 200L99.9502 200L100 200H100L100.041 200L100.065 200C100.074 200 100.083 200 100.093 200C100.099 200 100.106 200 100.113 200L100.129 200C100.143 200 100.158 200 100.172 200L100.197 200L100.217 200L100.225 200H100.227L100.265 200L100.302 200L100.305 200L100.31 200L100.353 200L100.391 200H100.405L100.444 200L100.449 200L100.454 200C100.648 200 100.842 199.998 101.035 199.995L101.108 199.994L101.177 199.993C155.863 199.362 200 154.836 200 100C200 45.1514 155.842 0.6165 101.138 0.0064C101.108 0.0059 101.077 0.0055 101.046 0.0051ZM58.5705 15.6393C37.0635 33.3961 22.8006 64.5432 22.8006 100C22.8006 135.461 37.0685 166.611 58.581 184.367C31.6435 168.159 13.2 136.615 13.2 100C13.2 63.3897 31.6387 31.8492 58.5705 15.6393ZM133.023 14.2473C151.45 31.7377 163.777 63.5976 163.777 100C163.777 136.398 151.453 168.255 133.031 185.746C156.944 169.92 173.381 137.428 173.381 100C173.381 62.5673 156.941 30.071 133.023 14.2473ZM58.9686 31.436C63.8909 23.6709 69.5034 17.4135 75.6812 12.7998C60.6203 29.9415 50.4486 62.5693 50.4486 100C50.4486 137.45 60.6329 170.093 75.7069 187.227C69.5189 182.612 63.8977 176.348 58.9686 168.572C53.3646 159.732 48.9606 149.408 45.8726 137.892C42.6566 125.9 41.0286 113.152 41.0286 100.004C41.0286 86.856 42.6566 74.108 45.8726 62.116C48.9606 50.6 53.3646 40.276 58.9686 31.436ZM116.118 189.476C116.267 189.352 116.416 189.227 116.565 189.1C122.041 184.416 127.001 177.632 131.301 168.936C140.377 150.592 145.373 126.108 145.373 100C145.373 73.892 140.377 49.412 131.301 31.064C127.001 22.368 122.041 15.584 116.565 10.9C116.416 10.7727 116.267 10.6471 116.118 10.5233C127.774 26.9357 135.777 60.8393 135.777 100C135.777 139.16 127.775 173.063 116.118 189.476ZM78.4966 100C78.4966 58.862 83.8719 23.5254 91.5543 8.1726C90.8515 8.8452 90.1494 9.5985 89.4487 10.432C85.5807 15.036 81.9167 22.02 78.8567 30.628C72.2926 49.096 68.6767 73.732 68.6766 100C68.6766 126.268 72.2926 150.904 78.8566 169.372C81.9166 177.98 85.5806 184.964 89.4486 189.568C90.1494 190.402 90.8515 191.155 91.5543 191.827C83.8719 176.475 78.4966 141.138 78.4966 100ZM103.243 6.7363C106.13 21.2293 108.177 57.5219 108.177 100C108.177 142.476 106.13 178.767 103.243 193.262C105.554 189.943 108.669 183.072 111.529 169.864C115.557 151.248 117.777 126.436 117.777 100C117.777 73.564 115.557 48.752 111.529 30.136C108.67 16.9249 105.555 10.0537 103.243 6.7363ZM142.748 183.551C168.961 167.115 186.8 136.01 186.8 100C186.8 63.9853 168.956 32.8768 142.737 16.4426C163.71 34.3259 177.553 65.0719 177.553 100C177.553 134.924 163.715 165.666 142.748 183.551ZM68.6244 13.413C49.7034 30.7121 36.9766 63.0109 36.9766 100C36.9766 136.993 49.7063 169.295 68.6321 186.593C44.0104 171.1 26.9726 138.108 26.9726 100C26.9726 61.8967 44.0081 28.9082 68.6244 13.413ZM149.505 100C149.505 138.629 138.671 172.143 122.81 188.799C129.885 184.075 136.268 177.266 141.785 168.564C147.389 159.724 151.793 149.4 154.881 137.884C158.097 125.892 159.725 113.144 159.725 99.996C159.725 86.848 158.097 74.1 154.881 62.108C151.793 50.592 147.389 40.268 141.785 31.428C136.265 22.72 129.877 15.908 122.797 11.184L122.785 11.1761C138.658 27.8232 149.505 61.3514 149.505 100ZM84.7949 190.247C84.3243 189.882 83.8555 189.5 83.3886 189.1C77.9126 184.416 72.9526 177.632 68.6526 168.936C59.5766 150.588 54.5806 126.108 54.5806 100C54.5806 73.892 59.5766 49.408 68.6526 31.064C72.9526 22.368 77.9126 15.584 83.3886 10.9C83.855 10.5013 84.3233 10.1196 84.7934 9.7552C72.835 25.8609 64.5766 60.2178 64.5766 100C64.5766 139.784 72.8357 174.142 84.7949 190.247ZM110.905 189.568C110.204 190.402 109.502 191.155 108.799 191.827C116.481 176.475 121.857 141.138 121.857 100C121.857 58.862 116.481 23.5254 108.799 8.1726C109.502 8.8452 110.204 9.5985 110.905 10.432C114.773 15.036 118.437 22.02 121.497 30.628C128.061 49.096 131.677 73.732 131.677 100C131.677 126.268 128.061 150.904 121.497 169.372C118.437 177.98 114.773 184.964 110.905 189.568ZM97.6645 194.012C95.3134 191.035 91.9181 184.163 88.8246 169.864C84.7966 151.248 82.5766 126.436 82.5766 100C82.5766 73.564 84.7966 48.752 88.8246 30.136C91.9203 15.8397 95.314 8.9677 97.6642 5.9892C94.6964 19.9499 92.5766 56.772 92.5766 100C92.5766 143.23 94.6966 180.053 97.6645 194.012ZM160.667 174.405C179.166 156.098 190.8 129.546 190.8 100C190.8 70.4544 179.166 43.9015 160.667 25.595C182.231 43.199 196 69.9916 196 100C196 130.008 182.231 156.801 160.667 174.405ZM39.3331 174.405C20.8345 156.099 9.2 129.546 9.2 100C9.2 70.4543 20.8346 43.9013 39.3333 25.5949C17.7687 43.1988 4 69.9915 4 100C4 130.008 17.7686 156.801 39.3331 174.405ZM98.6606 166.152C99.2206 174.306 99.8174 180.342 100.377 184.799C100.94 180.342 101.533 174.306 102.093 166.152C103.345 147.932 104.033 124.436 104.033 100C104.033 75.564 103.345 52.068 102.093 33.848C101.533 25.6938 100.936 19.658 100.376 15.2009C99.8137 19.658 99.2206 25.6938 98.6607 33.848C97.4086 52.068 96.7206 75.564 96.7206 100C96.7206 124.436 97.4086 147.932 98.6606 166.152Z" fill="#121212"/></g>
<rect x="533.333" y="0.000" width="106.667" height="106.667" fill="#121212"/>
<g transform="translate(533.333,0.000) scale(0.53333) rotate(270,100,100)"><path fill-rule="evenodd" clip-rule="evenodd" d="M101.046 0.0051C100.849 0.002 100.652 0.0003 100.455 0L100.449 0L100.444 0L100.401 0L100.358 0L100.349 0L100.309 0L100.305 0L100.302 0L100.261 0L100.248 0L100.225 0C100.211 0 100.197 0 100.183 0C100.173 0 100.163 0 100.153 0C100.148 0 100.142 0 100.137 0L100.131 0C100.117 0 100.103 0 100.089 0C100.078 0 100.067 0 100.057 0C100.038 0 100.019 0 100 0L99.9354 0L99.9126 0C99.8861 0 99.8596 0 99.8331 0.0001C44.6814 0.0902 0 44.8271 0 100C0 155.168 44.6734 199.902 99.8183 200L99.8698 200L99.9126 200L99.9502 200L100 200H100L100.041 200L100.065 200C100.074 200 100.083 200 100.093 200C100.099 200 100.106 200 100.113 200L100.129 200C100.143 200 100.158 200 100.172 200L100.197 200L100.217 200L100.225 200H100.227L100.265 200L100.302 200L100.305 200L100.31 200L100.353 200L100.391 200H100.405L100.444 200L100.449 200L100.454 200C100.648 200 100.842 199.998 101.035 199.995L101.108 199.994L101.177 199.993C155.863 199.362 200 154.836 200 100C200 45.1514 155.842 0.6165 101.138 0.0064C101.108 0.0059 101.077 0.0055 101.046 0.0051ZM58.5705 15.6393C37.0635 33.3961 22.8006 64.5432 22.8006 100C22.8006 135.461 37.0685 166.611 58.581 184.367C31.6435 168.159 13.2 136.615 13.2 100C13.2 63.3897 31.6387 31.8492 58.5705 15.6393ZM133.023 14.2473C151.45 31.7377 163.777 63.5976 163.777 100C163.777 136.398 151.453 168.255 133.031 185.746C156.944 169.92 173.381 137.428 173.381 100C173.381 62.5673 156.941 30.071 133.023 14.2473ZM58.9686 31.436C63.8909 23.6709 69.5034 17.4135 75.6812 12.7998C60.6203 29.9415 50.4486 62.5693 50.4486 100C50.4486 137.45 60.6329 170.093 75.7069 187.227C69.5189 182.612 63.8977 176.348 58.9686 168.572C53.3646 159.732 48.9606 149.408 45.8726 137.892C42.6566 125.9 41.0286 113.152 41.0286 100.004C41.0286 86.856 42.6566 74.108 45.8726 62.116C48.9606 50.6 53.3646 40.276 58.9686 31.436ZM116.118 189.476C116.267 189.352 116.416 189.227 116.565 189.1C122.041 184.416 127.001 177.632 131.301 168.936C140.377 150.592 145.373 126.108 145.373 100C145.373 73.892 140.377 49.412 131.301 31.064C127.001 22.368 122.041 15.584 116.565 10.9C116.416 10.7727 116.267 10.6471 116.118 10.5233C127.774 26.9357 135.777 60.8393 135.777 100C135.777 139.16 127.775 173.063 116.118 189.476ZM78.4966 100C78.4966 58.862 83.8719 23.5254 91.5543 8.1726C90.8515 8.8452 90.1494 9.5985 89.4487 10.432C85.5807 15.036 81.9167 22.02 78.8567 30.628C72.2926 49.096 68.6767 73.732 68.6766 100C68.6766 126.268 72.2926 150.904 78.8566 169.372C81.9166 177.98 85.5806 184.964 89.4486 189.568C90.1494 190.402 90.8515 191.155 91.5543 191.827C83.8719 176.475 78.4966 141.138 78.4966 100ZM103.243 6.7363C106.13 21.2293 108.177 57.5219 108.177 100C108.177 142.476 106.13 178.767 103.243 193.262C105.554 189.943 108.669 183.072 111.529 169.864C115.557 151.248 117.777 126.436 117.777 100C117.777 73.564 115.557 48.752 111.529 30.136C108.67 16.9249 105.555 10.0537 103.243 6.7363ZM142.748 183.551C168.961 167.115 186.8 136.01 186.8 100C186.8 63.9853 168.956 32.8768 142.737 16.4426C163.71 34.3259 177.553 65.0719 177.553 100C177.553 134.924 163.715 165.666 142.748 183.551ZM68.6244 13.413C49.7034 30.7121 36.9766 63.0109 36.9766 100C36.9766 136.993 49.7063 169.295 68.6321 186.593C44.0104 171.1 26.9726 138.108 26.9726 100C26.9726 61.8967 44.0081 28.9082 68.6244 13.413ZM149.505 100C149.505 138.629 138.671 172.143 122.81 188.799C129.885 184.075 136.268 177.266 141.785 168.564C147.389 159.724 151.793 149.4 154.881 137.884C158.097 125.892 159.725 113.144 159.725 99.996C159.725 86.848 158.097 74.1 154.881 62.108C151.793 50.592 147.389 40.268 141.785 31.428C136.265 22.72 129.877 15.908 122.797 11.184L122.785 11.1761C138.658 27.8232 149.505 61.3514 149.505 100ZM84.7949 190.247C84.3243 189.882 83.8555 189.5 83.3886 189.1C77.9126 184.416 72.9526 177.632 68.6526 168.936C59.5766 150.588 54.5806 126.108 54.5806 100C54.5806 73.892 59.5766 49.408 68.6526 31.064C72.9526 22.368 77.9126 15.584 83.3886 10.9C83.855 10.5013 84.3233 10.1196 84.7934 9.7552C72.835 25.8609 64.5766 60.2178 64.5766 100C64.5766 139.784 72.8357 174.142 84.7949 190.247ZM110.905 189.568C110.204 190.402 109.502 191.155 108.799 191.827C116.481 176.475 121.857 141.138 121.857 100C121.857 58.862 116.481 23.5254 108.799 8.1726C109.502 8.8452 110.204 9.5985 110.905 10.432C114.773 15.036 118.437 22.02 121.497 30.628C128.061 49.096 131.677 73.732 131.677 100C131.677 126.268 128.061 150.904 121.497 169.372C118.437 177.98 114.773 184.964 110.905 189.568ZM97.6645 194.012C95.3134 191.035 91.9181 184.163 88.8246 169.864C84.7966 151.248 82.5766 126.436 82.5766 100C82.5766 73.564 84.7966 48.752 88.8246 30.136C91.9203 15.8397 95.314 8.9677 97.6642 5.9892C94.6964 19.9499 92.5766 56.772 92.5766 100C92.5766 143.23 94.6966 180.053 97.6645 194.012ZM160.667 174.405C179.166 156.098 190.8 129.546 190.8 100C190.8 70.4544 179.166 43.9015 160.667 25.595C182.231 43.199 196 69.9916 196 100C196 130.008 182.231 156.801 160.667 174.405ZM39.3331 174.405C20.8345 156.099 9.2 129.546 9.2 100C9.2 70.4543 20.8346 43.9013 39.3333 25.5949C17.7687 43.1988 4 69.9915 4 100C4 130.008 17.7686 156.801 39.3331 174.405ZM98.6606 166.152C99.2206 174.306 99.8174 180.342 100.377 184.799C100.94 180.342 101.533 174.306 102.093 166.152C103.345 147.932 104.033 124.436 104.033 100C104.033 75.564 103.345 52.068 102.093 33.848C101.533 25.6938 100.936 19.658 100.376 15.2009C99.8137 19.658 99.2206 25.6938 98.6607 33.848C97.4086 52.068 96.7206 75.564 96.7206 100C96.7206 124.436 97.4086 147.932 98.6606 166.152Z" fill="#FFFFFF"/></g>
<rect x="213.333" y="106.667" width="106.667" height="106.667" fill="#121212"/>
<g transform="translate(213.333,106.667) scale(0.53333) rotate(90,100,100)"><path d="M150.05 200 C105.549 200 83.2634 146.197 114.73 114.73 C146.197 83.2634 200 105.549 200 150.05 L200 200 L150.05 200 Z" fill="#FFFFFF"/></g>
<rect x="320.000" y="106.667" width="106.667" height="106.667" fill="#FFFFFF"/>
<g transform="translate(320.000,106.667) scale(0.53333) rotate(180,100,100)"><path d="M150.05 200 C105.549 200 83.2634 146.197 114.73 114.73 C146.197 83.2634 200 105.549 200 150.05 L200 200 L150.05 200 Z" fill="#121212"/></g>
<rect x="426.667" y="106.667" width="106.667" height="106.667" fill="#FFFFFF"/>
<g transform="translate(426.667,106.667) scale(0.53333)"><path fill-rule="evenodd" clip-rule="evenodd" d="M101.046 0.0051C100.849 0.002 100.652 0.0003 100.455 0L100.449 0L100.444 0L100.401 0L100.358 0L100.349 0L100.309 0L100.305 0L100.302 0L100.261 0L100.248 0L100.225 0C100.211 0 100.197 0 100.183 0C100.173 0 100.163 0 100.153 0C100.148 0 100.142 0 100.137 0L100.131 0C100.117 0 100.103 0 100.089 0C100.078 0 100.067 0 100.057 0C100.038 0 100.019 0 100 0L99.9354 0L99.9126 0C99.8861 0 99.8596 0 99.8331 0.0001C44.6814 0.0902 0 44.8271 0 100C0 155.168 44.6734 199.902 99.8183 200L99.8698 200L99.9126 200L99.9502 200L100 200H100L100.041 200L100.065 200C100.074 200 100.083 200 100.093 200C100.099 200 100.106 200 100.113 200L100.129 200C100.143 200 100.158 200 100.172 200L100.197 200L100.217 200L100.225 200H100.227L100.265 200L100.302 200L100.305 200L100.31 200L100.353 200L100.391 200H100.405L100.444 200L100.449 200L100.454 200C100.648 200 100.842 199.998 101.035 199.995L101.108 199.994L101.177 199.993C155.863 199.362 200 154.836 200 100C200 45.1514 155.842 0.6165 101.138 0.0064C101.108 0.0059 101.077 0.0055 101.046 0.0051ZM58.5705 15.6393C37.0635 33.3961 22.8006 64.5432 22.8006 100C22.8006 135.461 37.0685 166.611 58.581 184.367C31.6435 168.159 13.2 136.615 13.2 100C13.2 63.3897 31.6387 31.8492 58.5705 15.6393ZM133.023 14.2473C151.45 31.7377 163.777 63.5976 163.777 100C163.777 136.398 151.453 168.255 133.031 185.746C156.944 169.92 173.381 137.428 173.381 100C173.381 62.5673 156.941 30.071 133.023 14.2473ZM58.9686 31.436C63.8909 23.6709 69.5034 17.4135 75.6812 12.7998C60.6203 29.9415 50.4486 62.5693 50.4486 100C50.4486 137.45 60.6329 170.093 75.7069 187.227C69.5189 182.612 63.8977 176.348 58.9686 168.572C53.3646 159.732 48.9606 149.408 45.8726 137.892C42.6566 125.9 41.0286 113.152 41.0286 100.004C41.0286 86.856 42.6566 74.108 45.8726 62.116C48.9606 50.6 53.3646 40.276 58.9686 31.436ZM116.118 189.476C116.267 189.352 116.416 189.227 116.565 189.1C122.041 184.416 127.001 177.632 131.301 168.936C140.377 150.592 145.373 126.108 145.373 100C145.373 73.892 140.377 49.412 131.301 31.064C127.001 22.368 122.041 15.584 116.565 10.9C116.416 10.7727 116.267 10.6471 116.118 10.5233C127.774 26.9357 135.777 60.8393 135.777 100C135.777 139.16 127.775 173.063 116.118 189.476ZM78.4966 100C78.4966 58.862 83.8719 23.5254 91.5543 8.1726C90.8515 8.8452 90.1494 9.5985 89.4487 10.432C85.5807 15.036 81.9167 22.02 78.8567 30.628C72.2926 49.096 68.6767 73.732 68.6766 100C68.6766 126.268 72.2926 150.904 78.8566 169.372C81.9166 177.98 85.5806 184.964 89.4486 189.568C90.1494 190.402 90.8515 191.155 91.5543 191.827C83.8719 176.475 78.4966 141.138 78.4966 100ZM103.243 6.7363C106.13 21.2293 108.177 57.5219 108.177 100C108.177 142.476 106.13 178.767 103.243 193.262C105.554 189.943 108.669 183.072 111.529 169.864C115.557 151.248 117.777 126.436 117.777 100C117.777 73.564 115.557 48.752 111.529 30.136C108.67 16.9249 105.555 10.0537 103.243 6.7363ZM142.748 183.551C168.961 167.115 186.8 136.01 186.8 100C186.8 63.9853 168.956 32.8768 142.737 16.4426C163.71 34.3259 177.553 65.0719 177.553 100C177.553 134.924 163.715 165.666 142.748 183.551ZM68.6244 13.413C49.7034 30.7121 36.9766 63.0109 36.9766 100C36.9766 136.993 49.7063 169.295 68.6321 186.593C44.0104 171.1 26.9726 138.108 26.9726 100C26.9726 61.8967 44.0081 28.9082 68.6244 13.413ZM149.505 100C149.505 138.629 138.671 172.143 122.81 188.799C129.885 184.075 136.268 177.266 141.785 168.564C147.389 159.724 151.793 149.4 154.881 137.884C158.097 125.892 159.725 113.144 159.725 99.996C159.725 86.848 158.097 74.1 154.881 62.108C151.793 50.592 147.389 40.268 141.785 31.428C136.265 22.72 129.877 15.908 122.797 11.184L122.785 11.1761C138.658 27.8232 149.505 61.3514 149.505 100ZM84.7949 190.247C84.3243 189.882 83.8555 189.5 83.3886 189.1C77.9126 184.416 72.9526 177.632 68.6526 168.936C59.5766 150.588 54.5806 126.108 54.5806 100C54.5806 73.892 59.5766 49.408 68.6526 31.064C72.9526 22.368 77.9126 15.584 83.3886 10.9C83.855 10.5013 84.3233 10.1196 84.7934 9.7552C72.835 25.8609 64.5766 60.2178 64.5766 100C64.5766 139.784 72.8357 174.142 84.7949 190.247ZM110.905 189.568C110.204 190.402 109.502 191.155 108.799 191.827C116.481 176.475 121.857 141.138 121.857 100C121.857 58.862 116.481 23.5254 108.799 8.1726C109.502 8.8452 110.204 9.5985 110.905 10.432C114.773 15.036 118.437 22.02 121.497 30.628C128.061 49.096 131.677 73.732 131.677 100C131.677 126.268 128.061 150.904 121.497 169.372C118.437 177.98 114.773 184.964 110.905 189.568ZM97.6645 194.012C95.3134 191.035 91.9181 184.163 88.8246 169.864C84.7966 151.248 82.5766 126.436 82.5766 100C82.5766 73.564 84.7966 48.752 88.8246 30.136C91.9203 15.8397 95.314 8.9677 97.6642 5.9892C94.6964 19.9499 92.5766 56.772 92.5766 100C92.5766 143.23 94.6966 180.053 97.6645 194.012ZM160.667 174.405C179.166 156.098 190.8 129.546 190.8 100C190.8 70.4544 179.166 43.9015 160.667 25.595C182.231 43.199 196 69.9916 196 100C196 130.008 182.231 156.801 160.667 174.405ZM39.3331 174.405C20.8345 156.099 9.2 129.546 9.2 100C9.2 70.4543 20.8346 43.9013 39.3333 25.5949C17.7687 43.1988 4 69.9915 4 100C4 130.008 17.7686 156.801 39.3331 174.405ZM98.6606 166.152C99.2206 174.306 99.8174 180.342 100.377 184.799C100.94 180.342 101.533 174.306 102.093 166.152C103.345 147.932 104.033 124.436 104.033 100C104.033 75.564 103.345 52.068 102.093 33.848C101.533 25.6938 100.936 19.658 100.376 15.2009C99.8137 19.658 99.2206 25.6938 98.6607 33.848C97.4086 52.068 96.7206 75.564 96.7206 100C96.7206 124.436 97.4086 147.932 98.6606 166.152Z" fill="#FF4F00"/></g>
<rect x="533.333" y="106.667" width="106.667" height="106.667" fill="#FFFFFF"/>
<g transform="translate(533.333,106.667) scale(0.53333) rotate(270,100,100)"><path fill-rule="evenodd" clip-rule="evenodd" d="M101.046 0.0051C100.849 0.002 100.652 0.0003 100.455 0L100.449 0L100.444 0L100.401 0L100.358 0L100.349 0L100.309 0L100.305 0L100.302 0L100.261 0L100.248 0L100.225 0C100.211 0 100.197 0 100.183 0C100.173 0 100.163 0 100.153 0C100.148 0 100.142 0 100.137 0L100.131 0C100.117 0 100.103 0 100.089 0C100.078 0 100.067 0 100.057 0C100.038 0 100.019 0 100 0L99.9354 0L99.9126 0C99.8861 0 99.8596 0 99.8331 0.0001C44.6814 0.0902 0 44.8271 0 100C0 155.168 44.6734 199.902 99.8183 200L99.8698 200L99.9126 200L99.9502 200L100 200H100L100.041 200L100.065 200C100.074 200 100.083 200 100.093 200C100.099 200 100.106 200 100.113 200L100.129 200C100.143 200 100.158 200 100.172 200L100.197 200L100.217 200L100.225 200H100.227L100.265 200L100.302 200L100.305 200L100.31 200L100.353 200L100.391 200H100.405L100.444 200L100.449 200L100.454 200C100.648 200 100.842 199.998 101.035 199.995L101.108 199.994L101.177 199.993C155.863 199.362 200 154.836 200 100C200 45.1514 155.842 0.6165 101.138 0.0064C101.108 0.0059 101.077 0.0055 101.046 0.0051ZM58.5705 15.6393C37.0635 33.3961 22.8006 64.5432 22.8006 100C22.8006 135.461 37.0685 166.611 58.581 184.367C31.6435 168.159 13.2 136.615 13.2 100C13.2 63.3897 31.6387 31.8492 58.5705 15.6393ZM133.023 14.2473C151.45 31.7377 163.777 63.5976 163.777 100C163.777 136.398 151.453 168.255 133.031 185.746C156.944 169.92 173.381 137.428 173.381 100C173.381 62.5673 156.941 30.071 133.023 14.2473ZM58.9686 31.436C63.8909 23.6709 69.5034 17.4135 75.6812 12.7998C60.6203 29.9415 50.4486 62.5693 50.4486 100C50.4486 137.45 60.6329 170.093 75.7069 187.227C69.5189 182.612 63.8977 176.348 58.9686 168.572C53.3646 159.732 48.9606 149.408 45.8726 137.892C42.6566 125.9 41.0286 113.152 41.0286 100.004C41.0286 86.856 42.6566 74.108 45.8726 62.116C48.9606 50.6 53.3646 40.276 58.9686 31.436ZM116.118 189.476C116.267 189.352 116.416 189.227 116.565 189.1C122.041 184.416 127.001 177.632 131.301 168.936C140.377 150.592 145.373 126.108 145.373 100C145.373 73.892 140.377 49.412 131.301 31.064C127.001 22.368 122.041 15.584 116.565 10.9C116.416 10.7727 116.267 10.6471 116.118 10.5233C127.774 26.9357 135.777 60.8393 135.777 100C135.777 139.16 127.775 173.063 116.118 189.476ZM78.4966 100C78.4966 58.862 83.8719 23.5254 91.5543 8.1726C90.8515 8.8452 90.1494 9.5985 89.4487 10.432C85.5807 15.036 81.9167 22.02 78.8567 30.628C72.2926 49.096 68.6767 73.732 68.6766 100C68.6766 126.268 72.2926 150.904 78.8566 169.372C81.9166 177.98 85.5806 184.964 89.4486 189.568C90.1494 190.402 90.8515 191.155 91.5543 191.827C83.8719 176.475 78.4966 141.138 78.4966 100ZM103.243 6.7363C106.13 21.2293 108.177 57.5219 108.177 100C108.177 142.476 106.13 178.767 103.243 193.262C105.554 189.943 108.669 183.072 111.529 169.864C115.557 151.248 117.777 126.436 117.777 100C117.777 73.564 115.557 48.752 111.529 30.136C108.67 16.9249 105.555 10.0537 103.243 6.7363ZM142.748 183.551C168.961 167.115 186.8 136.01 186.8 100C186.8 63.9853 168.956 32.8768 142.737 16.4426C163.71 34.3259 177.553 65.0719 177.553 100C177.553 134.924 163.715 165.666 142.748 183.551ZM68.6244 13.413C49.7034 30.7121 36.9766 63.0109 36.9766 100C36.9766 136.993 49.7063 169.295 68.6321 186.593C44.0104 171.1 26.9726 138.108 26.9726 100C26.9726 61.8967 44.0081 28.9082 68.6244 13.413ZM149.505 100C149.505 138.629 138.671 172.143 122.81 188.799C129.885 184.075 136.268 177.266 141.785 168.564C147.389 159.724 151.793 149.4 154.881 137.884C158.097 125.892 159.725 113.144 159.725 99.996C159.725 86.848 158.097 74.1 154.881 62.108C151.793 50.592 147.389 40.268 141.785 31.428C136.265 22.72 129.877 15.908 122.797 11.184L122.785 11.1761C138.658 27.8232 149.505 61.3514 149.505 100ZM84.7949 190.247C84.3243 189.882 83.8555 189.5 83.3886 189.1C77.9126 184.416 72.9526 177.632 68.6526 168.936C59.5766 150.588 54.5806 126.108 54.5806 100C54.5806 73.892 59.5766 49.408 68.6526 31.064C72.9526 22.368 77.9126 15.584 83.3886 10.9C83.855 10.5013 84.3233 10.1196 84.7934 9.7552C72.835 25.8609 64.5766 60.2178 64.5766 100C64.5766 139.784 72.8357 174.142 84.7949 190.247ZM110.905 189.568C110.204 190.402 109.502 191.155 108.799 191.827C116.481 176.475 121.857 141.138 121.857 100C121.857 58.862 116.481 23.5254 108.799 8.1726C109.502 8.8452 110.204 9.5985 110.905 10.432C114.773 15.036 118.437 22.02 121.497 30.628C128.061 49.096 131.677 73.732 131.677 100C131.677 126.268 128.061 150.904 121.497 169.372C118.437 177.98 114.773 184.964 110.905 189.568ZM97.6645 194.012C95.3134 191.035 91.9181 184.163 88.8246 169.864C84.7966 151.248 82.5766 126.436 82.5766 100C82.5766 73.564 84.7966 48.752 88.8246 30.136C91.9203 15.8397 95.314 8.9677 97.6642 5.9892C94.6964 19.9499 92.5766 56.772 92.5766 100C92.5766 143.23 94.6966 180.053 97.6645 194.012ZM160.667 174.405C179.166 156.098 190.8 129.546 190.8 100C190.8 70.4544 179.166 43.9015 160.667 25.595C182.231 43.199 196 69.9916 196 100C196 130.008 182.231 156.801 160.667 174.405ZM39.3331 174.405C20.8345 156.099 9.2 129.546 9.2 100C9.2 70.4543 20.8346 43.9013 39.3333 25.5949C17.7687 43.1988 4 69.9915 4 100C4 130.008 17.7686 156.801 39.3331 174.405ZM98.6606 166.152C99.2206 174.306 99.8174 180.342 100.377 184.799C100.94 180.342 101.533 174.306 102.093 166.152C103.345 147.932 104.033 124.436 104.033 100C104.033 75.564 103.345 52.068 102.093 33.848C101.533 25.6938 100.936 19.658 100.376 15.2009C99.8137 19.658 99.2206 25.6938 98.6607 33.848C97.4086 52.068 96.7206 75.564 96.7206 100C96.7206 124.436 97.4086 147.932 98.6606 166.152Z" fill="#121212"/></g>
<rect x="0.000" y="213.333" width="106.667" height="106.667" fill="#FFFFFF"/>
<g transform="translate(0.000,213.333) scale(0.53333) rotate(180,100,100)"><path fill-rule="evenodd" clip-rule="evenodd" d="M101.046 0.0051C100.849 0.002 100.652 0.0003 100.455 0L100.449 0L100.444 0L100.401 0L100.358 0L100.349 0L100.309 0L100.305 0L100.302 0L100.261 0L100.248 0L100.225 0C100.211 0 100.197 0 100.183 0C100.173 0 100.163 0 100.153 0C100.148 0 100.142 0 100.137 0L100.131 0C100.117 0 100.103 0 100.089 0C100.078 0 100.067 0 100.057 0C100.038 0 100.019 0 100 0L99.9354 0L99.9126 0C99.8861 0 99.8596 0 99.8331 0.0001C44.6814 0.0902 0 44.8271 0 100C0 155.168 44.6734 199.902 99.8183 200L99.8698 200L99.9126 200L99.9502 200L100 200H100L100.041 200L100.065 200C100.074 200 100.083 200 100.093 200C100.099 200 100.106 200 100.113 200L100.129 200C100.143 200 100.158 200 100.172 200L100.197 200L100.217 200L100.225 200H100.227L100.265 200L100.302 200L100.305 200L100.31 200L100.353 200L100.391 200H100.405L100.444 200L100.449 200L100.454 200C100.648 200 100.842 199.998 101.035 199.995L101.108 199.994L101.177 199.993C155.863 199.362 200 154.836 200 100C200 45.1514 155.842 0.6165 101.138 0.0064C101.108 0.0059 101.077 0.0055 101.046 0.0051ZM58.5705 15.6393C37.0635 33.3961 22.8006 64.5432 22.8006 100C22.8006 135.461 37.0685 166.611 58.581 184.367C31.6435 168.159 13.2 136.615 13.2 100C13.2 63.3897 31.6387 31.8492 58.5705 15.6393ZM133.023 14.2473C151.45 31.7377 163.777 63.5976 163.777 100C163.777 136.398 151.453 168.255 133.031 185.746C156.944 169.92 173.381 137.428 173.381 100C173.381 62.5673 156.941 30.071 133.023 14.2473ZM58.9686 31.436C63.8909 23.6709 69.5034 17.4135 75.6812 12.7998C60.6203 29.9415 50.4486 62.5693 50.4486 100C50.4486 137.45 60.6329 170.093 75.7069 187.227C69.5189 182.612 63.8977 176.348 58.9686 168.572C53.3646 159.732 48.9606 149.408 45.8726 137.892C42.6566 125.9 41.0286 113.152 41.0286 100.004C41.0286 86.856 42.6566 74.108 45.8726 62.116C48.9606 50.6 53.3646 40.276 58.9686 31.436ZM116.118 189.476C116.267 189.352 116.416 189.227 116.565 189.1C122.041 184.416 127.001 177.632 131.301 168.936C140.377 150.592 145.373 126.108 145.373 100C145.373 73.892 140.377 49.412 131.301 31.064C127.001 22.368 122.041 15.584 116.565 10.9C116.416 10.7727 116.267 10.6471 116.118 10.5233C127.774 26.9357 135.777 60.8393 135.777 100C135.777 139.16 127.775 173.063 116.118 189.476ZM78.4966 100C78.4966 58.862 83.8719 23.5254 91.5543 8.1726C90.8515 8.8452 90.1494 9.5985 89.4487 10.432C85.5807 15.036 81.9167 22.02 78.8567 30.628C72.2926 49.096 68.6767 73.732 68.6766 100C68.6766 126.268 72.2926 150.904 78.8566 169.372C81.9166 177.98 85.5806 184.964 89.4486 189.568C90.1494 190.402 90.8515 191.155 91.5543 191.827C83.8719 176.475 78.4966 141.138 78.4966 100ZM103.243 6.7363C106.13 21.2293 108.177 57.5219 108.177 100C108.177 142.476 106.13 178.767 103.243 193.262C105.554 189.943 108.669 183.072 111.529 169.864C115.557 151.248 117.777 126.436 117.777 100C117.777 73.564 115.557 48.752 111.529 30.136C108.67 16.9249 105.555 10.0537 103.243 6.7363ZM142.748 183.551C168.961 167.115 186.8 136.01 186.8 100C186.8 63.9853 168.956 32.8768 142.737 16.4426C163.71 34.3259 177.553 65.0719 177.553 100C177.553 134.924 163.715 165.666 142.748 183.551ZM68.6244 13.413C49.7034 30.7121 36.9766 63.0109 36.9766 100C36.9766 136.993 49.7063 169.295 68.6321 186.593C44.0104 171.1 26.9726 138.108 26.9726 100C26.9726 61.8967 44.0081 28.9082 68.6244 13.413ZM149.505 100C149.505 138.629 138.671 172.143 122.81 188.799C129.885 184.075 136.268 177.266 141.785 168.564C147.389 159.724 151.793 149.4 154.881 137.884C158.097 125.892 159.725 113.144 159.725 99.996C159.725 86.848 158.097 74.1 154.881 62.108C151.793 50.592 147.389 40.268 141.785 31.428C136.265 22.72 129.877 15.908 122.797 11.184L122.785 11.1761C138.658 27.8232 149.505 61.3514 149.505 100ZM84.7949 190.247C84.3243 189.882 83.8555 189.5 83.3886 189.1C77.9126 184.416 72.9526 177.632 68.6526 168.936C59.5766 150.588 54.5806 126.108 54.5806 100C54.5806 73.892 59.5766 49.408 68.6526 31.064C72.9526 22.368 77.9126 15.584 83.3886 10.9C83.855 10.5013 84.3233 10.1196 84.7934 9.7552C72.835 25.8609 64.5766 60.2178 64.5766 100C64.5766 139.784 72.8357 174.142 84.7949 190.247ZM110.905 189.568C110.204 190.402 109.502 191.155 108.799 191.827C116.481 176.475 121.857 141.138 121.857 100C121.857 58.862 116.481 23.5254 108.799 8.1726C109.502 8.8452 110.204 9.5985 110.905 10.432C114.773 15.036 118.437 22.02 121.497 30.628C128.061 49.096 131.677 73.732 131.677 100C131.677 126.268 128.061 150.904 121.497 169.372C118.437 177.98 114.773 184.964 110.905 189.568ZM97.6645 194.012C95.3134 191.035 91.9181 184.163 88.8246 169.864C84.7966 151.248 82.5766 126.436 82.5766 100C82.5766 73.564 84.7966 48.752 88.8246 30.136C91.9203 15.8397 95.314 8.9677 97.6642 5.9892C94.6964 19.9499 92.5766 56.772 92.5766 100C92.5766 143.23 94.6966 180.053 97.6645 194.012ZM160.667 174.405C179.166 156.098 190.8 129.546 190.8 100C190.8 70.4544 179.166 43.9015 160.667 25.595C182.231 43.199 196 69.9916 196 100C196 130.008 182.231 156.801 160.667 174.405ZM39.3331 174.405C20.8345 156.099 9.2 129.546 9.2 100C9.2 70.4543 20.8346 43.9013 39.3333 25.5949C17.7687 43.1988 4 69.9915 4 100C4 130.008 17.7686 156.801 39.3331 174.405ZM98.6606 166.152C99.2206 174.306 99.8174 180.342 100.377 184.799C100.94 180.342 101.533 174.306 102.093 166.152C103.345 147.932 104.033 124.436 104.033 100C104.033 75.564 103.345 52.068 102.093 33.848C101.533 25.6938 100.936 19.658 100.376 15.2009C99.8137 19.658 99.2206 25.6938 98.6607 33.848C97.4086 52.068 96.7206 75.564 96.7206 100C96.7206 124.436 97.4086 147.932 98.6606 166.152Z" fill="#121212"/></g>
<rect x="106.667" y="213.333" width="106.667" height="106.667" fill="#121212"/>
<g transform="translate(106.667,213.333) scale(0.53333) rotate(180,100,100)"><path fill-rule="evenodd" clip-rule="evenodd" d="M101.046 0.0051C100.849 0.002 100.652 0.0003 100.455 0L100.449 0L100.444 0L100.401 0L100.358 0L100.349 0L100.309 0L100.305 0L100.302 0L100.261 0L100.248 0L100.225 0C100.211 0 100.197 0 100.183 0C100.173 0 100.163 0 100.153 0C100.148 0 100.142 0 100.137 0L100.131 0C100.117 0 100.103 0 100.089 0C100.078 0 100.067 0 100.057 0C100.038 0 100.019 0 100 0L99.9354 0L99.9126 0C99.8861 0 99.8596 0 99.8331 0.0001C44.6814 0.0902 0 44.8271 0 100C0 155.168 44.6734 199.902 99.8183 200L99.8698 200L99.9126 200L99.9502 200L100 200H100L100.041 200L100.065 200C100.074 200 100.083 200 100.093 200C100.099 200 100.106 200 100.113 200L100.129 200C100.143 200 100.158 200 100.172 200L100.197 200L100.217 200L100.225 200H100.227L100.265 200L100.302 200L100.305 200L100.31 200L100.353 200L100.391 200H100.405L100.444 200L100.449 200L100.454 200C100.648 200 100.842 199.998 101.035 199.995L101.108 199.994L101.177 199.993C155.863 199.362 200 154.836 200 100C200 45.1514 155.842 0.6165 101.138 0.0064C101.108 0.0059 101.077 0.0055 101.046 0.0051ZM58.5705 15.6393C37.0635 33.3961 22.8006 64.5432 22.8006 100C22.8006 135.461 37.0685 166.611 58.581 184.367C31.6435 168.159 13.2 136.615 13.2 100C13.2 63.3897 31.6387 31.8492 58.5705 15.6393ZM133.023 14.2473C151.45 31.7377 163.777 63.5976 163.777 100C163.777 136.398 151.453 168.255 133.031 185.746C156.944 169.92 173.381 137.428 173.381 100C173.381 62.5673 156.941 30.071 133.023 14.2473ZM58.9686 31.436C63.8909 23.6709 69.5034 17.4135 75.6812 12.7998C60.6203 29.9415 50.4486 62.5693 50.4486 100C50.4486 137.45 60.6329 170.093 75.7069 187.227C69.5189 182.612 63.8977 176.348 58.9686 168.572C53.3646 159.732 48.9606 149.408 45.8726 137.892C42.6566 125.9 41.0286 113.152 41.0286 100.004C41.0286 86.856 42.6566 74.108 45.8726 62.116C48.9606 50.6 53.3646 40.276 58.9686 31.436ZM116.118 189.476C116.267 189.352 116.416 189.227 116.565 189.1C122.041 184.416 127.001 177.632 131.301 168.936C140.377 150.592 145.373 126.108 145.373 100C145.373 73.892 140.377 49.412 131.301 31.064C127.001 22.368 122.041 15.584 116.565 10.9C116.416 10.7727 116.267 10.6471 116.118 10.5233C127.774 26.9357 135.777 60.8393 135.777 100C135.777 139.16 127.775 173.063 116.118 189.476ZM78.4966 100C78.4966 58.862 83.8719 23.5254 91.5543 8.1726C90.8515 8.8452 90.1494 9.5985 89.4487 10.432C85.5807 15.036 81.9167 22.02 78.8567 30.628C72.2926 49.096 68.6767 73.732 68.6766 100C68.6766 126.268 72.2926 150.904 78.8566 169.372C81.9166 177.98 85.5806 184.964 89.4486 189.568C90.1494 190.402 90.8515 191.155 91.5543 191.827C83.8719 176.475 78.4966 141.138 78.4966 100ZM103.243 6.7363C106.13 21.2293 108.177 57.5219 108.177 100C108.177 142.476 106.13 178.767 103.243 193.262C105.554 189.943 108.669 183.072 111.529 169.864C115.557 151.248 117.777 126.436 117.777 100C117.777 73.564 115.557 48.752 111.529 30.136C108.67 16.9249 105.555 10.0537 103.243 6.7363ZM142.748 183.551C168.961 167.115 186.8 136.01 186.8 100C186.8 63.9853 168.956 32.8768 142.737 16.4426C163.71 34.3259 177.553 65.0719 177.553 100C177.553 134.924 163.715 165.666 142.748 183.551ZM68.6244 13.413C49.7034 30.7121 36.9766 63.0109 36.9766 100C36.9766 136.993 49.7063 169.295 68.6321 186.593C44.0104 171.1 26.9726 138.108 26.9726 100C26.9726 61.8967 44.0081 28.9082 68.6244 13.413ZM149.505 100C149.505 138.629 138.671 172.143 122.81 188.799C129.885 184.075 136.268 177.266 141.785 168.564C147.389 159.724 151.793 149.4 154.881 137.884C158.097 125.892 159.725 113.144 159.725 99.996C159.725 86.848 158.097 74.1 154.881 62.108C151.793 50.592 147.389 40.268 141.785 31.428C136.265 22.72 129.877 15.908 122.797 11.184L122.785 11.1761C138.658 27.8232 149.505 61.3514 149.505 100ZM84.7949 190.247C84.3243 189.882 83.8555 189.5 83.3886 189.1C77.9126 184.416 72.9526 177.632 68.6526 168.936C59.5766 150.588 54.5806 126.108 54.5806 100C54.5806 73.892 59.5766 49.408 68.6526 31.064C72.9526 22.368 77.9126 15.584 83.3886 10.9C83.855 10.5013 84.3233 10.1196 84.7934 9.7552C72.835 25.8609 64.5766 60.2178 64.5766 100C64.5766 139.784 72.8357 174.142 84.7949 190.247ZM110.905 189.568C110.204 190.402 109.502 191.155 108.799 191.827C116.481 176.475 121.857 141.138 121.857 100C121.857 58.862 116.481 23.5254 108.799 8.1726C109.502 8.8452 110.204 9.5985 110.905 10.432C114.773 15.036 118.437 22.02 121.497 30.628C128.061 49.096 131.677 73.732 131.677 100C131.677 126.268 128.061 150.904 121.497 169.372C118.437 177.98 114.773 184.964 110.905 189.568ZM97.6645 194.012C95.3134 191.035 91.9181 184.163 88.8246 169.864C84.7966 151.248 82.5766 126.436 82.5766 100C82.5766 73.564 84.7966 48.752 88.8246 30.136C91.9203 15.8397 95.314 8.9677 97.6642 5.9892C94.6964 19.9499 92.5766 56.772 92.5766 100C92.5766 143.23 94.6966 180.053 97.6645 194.012ZM160.667 174.405C179.166 156.098 190.8 129.546 190.8 100C190.8 70.4544 179.166 43.9015 160.667 25.595C182.231 43.199 196 69.9916 196 100C196 130.008 182.231 156.801 160.667 174.405ZM39.3331 174.405C20.8345 156.099 9.2 129.546 9.2 100C9.2 70.4543 20.8346 43.9013 39.3333 25.5949C17.7687 43.1988 4 69.9915 4 100C4 130.008 17.7686 156.801 39.3331 174.405ZM98.6606 166.152C99.2206 174.306 99.8174 180.342 100.377 184.799C100.94 180.342 101.533 174.306 102.093 166.152C103.345 147.932 104.033 124.436 104.033 100C104.033 75.564 103.345 52.068 102.093 33.848C101.533 25.6938 100.936 19.658 100.376 15.2009C99.8137 19.658 99.2206 25.6938 98.6607 33.848C97.4086 52.068 96.7206 75.564 96.7206 100C96.7206 124.436 97.4086 147.932 98.6606 166.152Z" fill="#FFFFFF"/></g>
<rect x="213.333" y="213.333" width="106.667" height="106.667" fill="#FFFFFF"/>
<g transform="translate(213.333,213.333) scale(0.53333)"><path d="M150.05 200 C105.549 200 83.2634 146.197 114.73 114.73 C146.197 83.2634 200 105.549 200 150.05 L200 200 L150.05 200 Z" fill="#FF4F00"/></g>
<rect x="533.333" y="213.333" width="106.667" height="106.667" fill="#121212"/>
<g transform="translate(533.333,213.333) scale(0.53333) rotate(180,100,100)"><!-- Generator: Adobe Illustrator 30.2.1, SVG Export Plug-In . SVG Version: 2.1.1 Build 1)  -->
  
  <path d="M100.03,100l-.03-100H0v200c-.02-55.21,44.74-99.98,99.97-100l.03,99.97-100,.03h200v-100.03l-99.97.03Z" fill="#121212"/>
  <path d="M99.97,100C44.74,100.02-.02,144.79,0,200l100-.03-.03-99.97Z" fill="#FF4F00"/>
  <path d="M100,0c55.21-.02,99.98,44.74,100,99.97V0h-100Z" fill="#121212"/>
  <path d="M100,0l.03,100,99.97-.03C199.98,44.74,155.21-.02,100,0Z" fill="#FF4F00"/></g>
</g>
<rect x="40" y="352" width="360" height="180.0" fill="none" stroke="#333" stroke-width="1"/>
<text x="40" y="550" font-family="Helvetica,Arial,sans-serif" font-size="12" fill="#EDE6D6">asymmetric_left s=260602</text>
<text x="40" y="568" font-family="Helvetica,Arial,sans-serif" font-size="11" fill="#8A8A8A">total 0.854   anc 0.90  rhy 0.84  dir 0.60  wei 1.00</text>
<text x="40" y="583" font-family="Helvetica,Arial,sans-serif" font-size="11" fill="#8A8A8A">neg 0.83  tem 0.33  fam 1.00  her 0.72  tmp 0.73</text>
<g transform="translate(422,352) scale(0.5625)">
<rect width="640" height="320" fill="#FFFFFF"/>
<rect x="0.000" y="0.000" width="213.333" height="213.333" fill="#FFFFFF"/>
<g transform="translate(0.000,0.000) scale(1.06667)"><path d="M200 0H0V200C0 89.544 89.544 0 200 0Z" fill="#FF4F00"/>
  <path d="M100 58.3333C76.9891 58.3333 58.3334 76.9841 58.3334 100C58.3334 123.016 76.9891 141.667 100 141.667C111.508 141.667 121.925 137.004 129.464 129.464C137.004 121.925 141.667 111.508 141.667 100C141.667 76.9841 123.011 58.3333 100 58.3333Z" fill="#FF4F00"/></g>
<rect x="213.333" y="0.000" width="106.667" height="106.667" fill="#FFFFFF"/>
<g transform="translate(213.333,0.000) scale(0.53333) rotate(270,100,100)"><path d="M200 0H0V200C0 89.544 89.544 0 200 0Z" fill="#121212"/>
  <path d="M100 58.3333C76.9891 58.3333 58.3334 76.9841 58.3334 100C58.3334 123.016 76.9891 141.667 100 141.667C111.508 141.667 121.925 137.004 129.464 129.464C137.004 121.925 141.667 111.508 141.667 100C141.667 76.9841 123.011 58.3333 100 58.3333Z" fill="#121212"/></g>
<rect x="533.333" y="0.000" width="106.667" height="106.667" fill="#FFFFFF"/>
<g transform="translate(533.333,0.000) scale(0.53333) rotate(180,100,100)"><path d="M200 0L0 150L0 0L200 0Z" fill="#FF4F00"/></g>
<rect x="213.333" y="106.667" width="106.667" height="106.667" fill="#121212"/>
<g transform="translate(213.333,106.667) scale(0.53333) rotate(90,100,100)"><path d="M133 116.667H166.333C166.333 79.848 136.485 50 99.6667 50C62.848 50 33 79.848 33 116.667H66.3333C66.3333 135.077 81.256 150 99.6667 150C118.077 150 133 135.077 133 116.667Z" fill="#FFFFFF"/></g>
<rect x="320.000" y="106.667" width="106.667" height="106.667" fill="#FFFFFF"/>
<g transform="translate(320.000,106.667) scale(0.53333) rotate(90,100,100)"><path d="M133 116.667H166.333C166.333 79.848 136.485 50 99.6667 50C62.848 50 33 79.848 33 116.667H66.3333C66.3333 135.077 81.256 150 99.6667 150C118.077 150 133 135.077 133 116.667Z" fill="#121212"/></g>
<rect x="426.667" y="106.667" width="106.667" height="106.667" fill="#121212"/>
<g transform="translate(426.667,106.667) scale(0.53333)"><path d="M200 0L0 150L0 0L200 0Z" fill="#FF4F00"/></g>
<rect x="533.333" y="106.667" width="106.667" height="106.667" fill="#FFFFFF"/>
<g transform="translate(533.333,106.667) scale(0.53333) rotate(270,100,100)"><path d="M200 0L0 150L0 0L200 0Z" fill="#121212"/></g>
<rect x="0.000" y="213.333" width="106.667" height="106.667" fill="#121212"/>
<g transform="translate(0.000,213.333) scale(0.53333) rotate(90,100,100)"><path d="M200 0L0 150L0 0L200 0Z" fill="#FFFFFF"/></g>
<rect x="106.667" y="213.333" width="106.667" height="106.667" fill="#FFFFFF"/>
<g transform="translate(106.667,213.333) scale(0.53333) rotate(90,100,100)"><path d="M200 0H0V200C0 89.544 89.544 0 200 0Z" fill="#FF4F00"/>
  <path d="M100 58.3333C76.9891 58.3333 58.3334 76.9841 58.3334 100C58.3334 123.016 76.9891 141.667 100 141.667C111.508 141.667 121.925 137.004 129.464 129.464C137.004 121.925 141.667 111.508 141.667 100C141.667 76.9841 123.011 58.3333 100 58.3333Z" fill="#FF4F00"/></g>
<rect x="213.333" y="213.333" width="106.667" height="106.667" fill="#FFFFFF"/>
<g transform="translate(213.333,213.333) scale(0.53333) rotate(90,100,100)"><path d="M133 116.667H166.333C166.333 79.848 136.485 50 99.6667 50C62.848 50 33 79.848 33 116.667H66.3333C66.3333 135.077 81.256 150 99.6667 150C118.077 150 133 135.077 133 116.667Z" fill="#121212"/></g>
<rect x="533.333" y="213.333" width="106.667" height="106.667" fill="#121212"/>
<g transform="translate(533.333,213.333) scale(0.53333) rotate(180,100,100)"><path d="M200 0L0 150L0 0L200 0Z" fill="#FF4F00"/></g>
</g>
<rect x="422" y="352" width="360" height="180.0" fill="none" stroke="#333" stroke-width="1"/>
<text x="422" y="550" font-family="Helvetica,Arial,sans-serif" font-size="12" fill="#EDE6D6">asymmetric_left s=260602</text>
<text x="422" y="568" font-family="Helvetica,Arial,sans-serif" font-size="11" fill="#8A8A8A">total 0.845   anc 0.70  rhy 0.81  dir 0.69  wei 1.00</text>
<text x="422" y="583" font-family="Helvetica,Arial,sans-serif" font-size="11" fill="#8A8A8A">neg 0.81  tem 0.35  fam 1.00  her 0.88  tmp 0.63</text>
<g transform="translate(804,352) scale(0.5625)">
<rect width="640" height="320" fill="#FFFFFF"/>
<rect x="0.000" y="0.000" width="213.333" height="213.333" fill="#121212"/>
<g transform="translate(0.000,0.000) scale(1.06667) rotate(270,100,100)"><path d="M196.3723,103.3443 L187.5787,104.9057 L178.8975,105.4895 L170.3767,105.1437 L162.0644,103.9164 L154.0086,101.8556 L146.2575,99.0095 L138.8591,95.4261 L131.8615,91.1535 L125.3128,86.2398 L119.261,80.733 L113.7543,74.6813 L108.8407,68.1327 L104.5683,61.1353 L100.9852,53.7372 L98.1394,45.9864 L96.0791,37.9311 L94.8523,29.6193 L94.5071,21.0991 L95.0916,12.4186 L96.6539,3.6259 L97.7134,0 L0,0 L0,16.6667 L0,33.3333 L0,50 L0,66.6667 L0,83.3333 L0,100 L0,116.6667 L0,133.3333 L0,150 L0,166.6667 L0,183.3333 L0,200 L16.6667,200 L33.3333,200 L50,200 L66.6667,200 L83.3333,200 L100,200 L116.6667,200 L133.3333,200 L150,200 L166.6667,200 L183.3333,200 L200,200 L200,102.2847 Z" fill="#FF4F00"/></g>
<rect x="213.333" y="0.000" width="106.667" height="106.667" fill="#121212"/>
<g transform="translate(213.333,0.000) scale(0.53333)"><path d="M45 200H65L65 0H45L45 200Z" fill="#FFFFFF"/>
  <path d="M90 200H110L110 0H90L90 200Z" fill="#FFFFFF"/>
  <path d="M135 200H155L155 0H135L135 200Z" fill="#FFFFFF"/>
  <path d="M0 200H20L20 0H0L0 200Z" fill="#FFFFFF"/>
  <path d="M180 200H200L200 0H180L180 200Z" fill="#FFFFFF"/></g>
<rect x="320.000" y="0.000" width="106.667" height="106.667" fill="#FFFFFF"/>
<g transform="translate(320.000,0.000) scale(0.53333) rotate(90,100,100)"><path d="M200 0L200 10L0 100L0 0L200 0Z" fill="#121212"/></g>
<rect x="426.667" y="0.000" width="106.667" height="106.667" fill="#FFFFFF"/>
<g transform="translate(426.667,0.000) scale(0.53333)"><path d="M45 200H65L65 0H45L45 200Z" fill="#FF4F00"/>
  <path d="M90 200H110L110 0H90L90 200Z" fill="#FF4F00"/>
  <path d="M135 200H155L155 0H135L135 200Z" fill="#FF4F00"/>
  <path d="M0 200H20L20 0H0L0 200Z" fill="#FF4F00"/>
  <path d="M180 200H200L200 0H180L180 200Z" fill="#FF4F00"/></g>
<rect x="213.333" y="106.667" width="106.667" height="106.667" fill="#FFFFFF"/>
<g transform="translate(213.333,106.667) scale(0.53333)"><path d="M200 0L200 10L0 100L0 0L200 0Z" fill="#121212"/></g>
<rect x="320.000" y="106.667" width="106.667" height="106.667" fill="#121212"/>
<g transform="translate(320.000,106.667) scale(0.53333) rotate(90,100,100)"><path d="M200 0L200 10L0 100L0 0L200 0Z" fill="#FF4F00"/></g>
<rect x="426.667" y="106.667" width="106.667" height="106.667" fill="#FFFFFF"/>
<g transform="translate(426.667,106.667) scale(0.53333) rotate(270,100,100)"><path d="M45 200H65L65 0H45L45 200Z" fill="#121212"/>
  <path d="M90 200H110L110 0H90L90 200Z" fill="#121212"/>
  <path d="M135 200H155L155 0H135L135 200Z" fill="#121212"/>
  <path d="M0 200H20L20 0H0L0 200Z" fill="#121212"/>
  <path d="M180 200H200L200 0H180L180 200Z" fill="#121212"/></g>
<rect x="533.333" y="106.667" width="106.667" height="106.667" fill="#121212"/>
<g transform="translate(533.333,106.667) scale(0.53333) rotate(270,100,100)"><path d="M45 200H65L65 0H45L45 200Z" fill="#FFFFFF"/>
  <path d="M90 200H110L110 0H90L90 200Z" fill="#FFFFFF"/>
  <path d="M135 200H155L155 0H135L135 200Z" fill="#FFFFFF"/>
  <path d="M0 200H20L20 0H0L0 200Z" fill="#FFFFFF"/>
  <path d="M180 200H200L200 0H180L180 200Z" fill="#FFFFFF"/></g>
<rect x="0.000" y="213.333" width="106.667" height="106.667" fill="#121212"/>
<g transform="translate(0.000,213.333) scale(0.53333) rotate(90,100,100)"><path d="M126.3094,138.8092 L123.6885,133.3782 L120.725,128.2191 L117.4386,123.3401 L113.8489,118.7492 L109.9754,114.4548 L105.8378,110.4647 L101.4557,106.7873 L96.8488,103.4305 L92.0366,100.4027 L87.0388,97.7118 L81.875,95.366 L76.5648,93.3735 L71.1279,91.7423 L65.5839,90.4807 L59.9523,89.5967 L54.2528,89.0985 L48.5051,88.9942 L42.7288,89.292 L36.9434,90 L31.1686,91.1262 L25.424,92.6788 L19.7293,94.6661 L14.104,97.096 L14.104,97.096 L5.2301,100.7571 L0,102.2847 L0,200 L16.6667,200 L33.3333,200 L50,200 L66.6667,200 L83.3333,200 L100,200 L116.6667,200 L133.3333,200 L150,200 L166.6667,200 L183.3333,200 L200,200 L200,199.987 L200,199.974 L200,199.961 L200,199.948 L200,199.935 L200,199.922 L200,199.909 L200,199.896 L200,199.883 L200,199.87 L200,199.857 L200,199.844 L200,199.831 L200,199.818 L200,199.805 L200,199.792 L200,199.779 L200,199.766 L200,199.753 L200,199.74 L200,199.727 L200,199.714 L200,199.701 L200,199.688 L196.2276,199.2904 L192.4748,198.7275 L188.7485,197.9993 L185.0554,197.1059 L181.4022,196.0471 L177.7957,194.823 L174.2427,193.4336 L170.7499,191.8788 L167.3241,190.1587 L163.972,188.2732 L160.7004,186.2223 L157.516,184.006 L154.4256,181.6243 L151.436,179.0771 L148.5539,176.3646 L145.7861,173.4865 L143.1393,170.443 L140.6202,167.234 L138.2358,163.8595 L135.9926,160.3195 L133.8975,156.6139 L131.9572,152.7429 L130.1784,148.7062 L128.568,144.504 Z" fill="#FFFFFF"/></g>
<rect x="106.667" y="213.333" width="106.667" height="106.667" fill="#FFFFFF"/>
<g transform="translate(106.667,213.333) scale(0.53333)"><path d="M126.3094,138.8092 L123.6885,133.3782 L120.725,128.2191 L117.4386,123.3401 L113.8489,118.7492 L109.9754,114.4548 L105.8378,110.4647 L101.4557,106.7873 L96.8488,103.4305 L92.0366,100.4027 L87.0388,97.7118 L81.875,95.366 L76.5648,93.3735 L71.1279,91.7423 L65.5839,90.4807 L59.9523,89.5967 L54.2528,89.0985 L48.5051,88.9942 L42.7288,89.292 L36.9434,90 L31.1686,91.1262 L25.424,92.6788 L19.7293,94.6661 L14.104,97.096 L14.104,97.096 L5.2301,100.7571 L0,102.2847 L0,200 L16.6667,200 L33.3333,200 L50,200 L66.6667,200 L83.3333,200 L100,200 L116.6667,200 L133.3333,200 L150,200 L166.6667,200 L183.3333,200 L200,200 L200,199.987 L200,199.974 L200,199.961 L200,199.948 L200,199.935 L200,199.922 L200,199.909 L200,199.896 L200,199.883 L200,199.87 L200,199.857 L200,199.844 L200,199.831 L200,199.818 L200,199.805 L200,199.792 L200,199.779 L200,199.766 L200,199.753 L200,199.74 L200,199.727 L200,199.714 L200,199.701 L200,199.688 L196.2276,199.2904 L192.4748,198.7275 L188.7485,197.9993 L185.0554,197.1059 L181.4022,196.0471 L177.7957,194.823 L174.2427,193.4336 L170.7499,191.8788 L167.3241,190.1587 L163.972,188.2732 L160.7004,186.2223 L157.516,184.006 L154.4256,181.6243 L151.436,179.0771 L148.5539,176.3646 L145.7861,173.4865 L143.1393,170.443 L140.6202,167.234 L138.2358,163.8595 L135.9926,160.3195 L133.8975,156.6139 L131.9572,152.7429 L130.1784,148.7062 L128.568,144.504 Z" fill="#121212"/></g>
<rect x="426.667" y="213.333" width="106.667" height="106.667" fill="#121212"/>
<g transform="translate(426.667,213.333) scale(0.53333) rotate(270,100,100)"><path d="M45 200H65L65 0H45L45 200Z" fill="#FFFFFF"/>
  <path d="M90 200H110L110 0H90L90 200Z" fill="#FFFFFF"/>
  <path d="M135 200H155L155 0H135L135 200Z" fill="#FFFFFF"/>
  <path d="M0 200H20L20 0H0L0 200Z" fill="#FFFFFF"/>
  <path d="M180 200H200L200 0H180L180 200Z" fill="#FFFFFF"/></g>
<rect x="533.333" y="213.333" width="106.667" height="106.667" fill="#FFFFFF"/>
<g transform="translate(533.333,213.333) scale(0.53333) rotate(270,100,100)"><path d="M196.3723,103.3443 L187.5787,104.9057 L178.8975,105.4895 L170.3767,105.1437 L162.0644,103.9164 L154.0086,101.8556 L146.2575,99.0095 L138.8591,95.4261 L131.8615,91.1535 L125.3128,86.2398 L119.261,80.733 L113.7543,74.6813 L108.8407,68.1327 L104.5683,61.1353 L100.9852,53.7372 L98.1394,45.9864 L96.0791,37.9311 L94.8523,29.6193 L94.5071,21.0991 L95.0916,12.4186 L96.6539,3.6259 L97.7134,0 L0,0 L0,16.6667 L0,33.3333 L0,50 L0,66.6667 L0,83.3333 L0,100 L0,116.6667 L0,133.3333 L0,150 L0,166.6667 L0,183.3333 L0,200 L16.6667,200 L33.3333,200 L50,200 L66.6667,200 L83.3333,200 L100,200 L116.6667,200 L133.3333,200 L150,200 L166.6667,200 L183.3333,200 L200,200 L200,102.2847 Z" fill="#FF4F00"/></g>
</g>
<rect x="804" y="352" width="360" height="180.0" fill="none" stroke="#333" stroke-width="1"/>
<text x="804" y="550" font-family="Helvetica,Arial,sans-serif" font-size="12" fill="#EDE6D6">corner_anchor s=260602</text>
<text x="804" y="568" font-family="Helvetica,Arial,sans-serif" font-size="11" fill="#8A8A8A">total 0.844   anc 0.70  rhy 0.79  dir 0.64  wei 1.00</text>
<text x="804" y="583" font-family="Helvetica,Arial,sans-serif" font-size="11" fill="#8A8A8A">neg 0.80  tem 0.39  fam 0.97  her 0.82  tmp 0.77</text>
<g transform="translate(40,624) scale(0.5625)">
<rect width="640" height="320" fill="#FFFFFF"/>
<rect x="0.000" y="0.000" width="213.333" height="213.333" fill="#FFFFFF"/>
<g transform="translate(0.000,0.000) scale(1.06667)"><!-- Generator: Adobe Illustrator 30.2.1, SVG Export Plug-In . SVG Version: 2.1.1 Build 1)  -->
  
  <path d="M50,200h75c0-41.42,33.58-75,75-75V50c-82.84,0-150,67.16-150,150Z" fill="#FF4F00"/></g>
<rect x="213.333" y="0.000" width="106.667" height="106.667" fill="#FFFFFF"/>
<g transform="translate(213.333,0.000) scale(0.53333)"><path d="M100 0L100 100L0 150L0 0L100 0Z" fill="#FF4F00"/></g>
<rect x="533.333" y="0.000" width="106.667" height="106.667" fill="#FFFFFF"/>
<g transform="translate(533.333,0.000) scale(0.53333) rotate(270,100,100)"><path d="M100 0L100 100L0 150L0 0L100 0Z" fill="#121212"/></g>
<rect x="213.333" y="106.667" width="106.667" height="106.667" fill="#FFFFFF"/>
<g transform="translate(213.333,106.667) scale(0.53333) rotate(270,100,100)"><path d="M198.7729,50.0151 L197.5466,50.0602 L196.3218,50.1355 L195.0991,50.2408 L193.8795,50.376 L192.6635,50.5412 L191.4519,50.7361 L190.2455,50.9607 L189.0449,51.2149 L187.851,51.4984 L186.6644,51.8112 L185.4858,52.153 L184.3159,52.5236 L183.1555,52.9228 L182.0052,53.3504 L180.8658,53.806 L179.7379,54.2895 L178.6222,54.8005 L177.5194,55.3388 L176.4302,55.9039 L175.3551,56.4956 L174.2949,57.1136 L173.2501,57.7573 L172.2215,58.4265 L171.2096,59.1208 L170.215,59.8396 L169.2384,60.5827 L168.2803,61.3495 L167.3414,62.1396 L166.4221,62.9524 L165.523,63.7876 L164.6447,64.6447 L163.7876,65.523 L162.9524,66.4221 L162.1396,67.3414 L161.3495,68.2803 L160.5827,69.2384 L159.8396,70.215 L159.1208,71.2096 L158.4265,72.2215 L157.7573,73.2501 L157.1136,74.2949 L156.4957,75.3551 L155.9039,76.4302 L155.3388,77.5194 L154.8005,78.6222 L154.2895,79.7379 L153.806,80.8658 L153.3504,82.0052 L152.9228,83.1555 L152.5236,84.3159 L152.153,85.4858 L151.8112,86.6644 L151.4984,87.851 L151.2149,89.0449 L150.9607,90.2455 L150.7361,91.4519 L150.5412,92.6635 L150.376,93.8795 L150.2408,95.0991 L150.1355,96.3218 L150.0602,97.5466 L150.0151,98.7729 L150,100 L150.0151,101.2271 L150.0602,102.4534 L150.1355,103.6782 L150.2408,104.9009 L150.376,106.1205 L150.5412,107.3365 L150.7361,108.5481 L150.9607,109.7545 L151.2149,110.9551 L151.4984,112.149 L151.8112,113.3356 L152.153,114.5142 L152.5236,115.6841 L152.9228,116.8445 L153.3504,117.9948 L153.806,119.1342 L154.2895,120.2621 L154.8005,121.3778 L155.3388,122.4806 L155.9039,123.5698 L156.4957,124.6449 L157.1136,125.7051 L157.7573,126.7499 L158.4265,127.7785 L159.1208,128.7904 L159.8396,129.785 L160.5827,130.7616 L161.3495,131.7197 L162.1396,132.6586 L162.9524,133.5779 L163.7876,134.477 L164.6447,135.3553 L165.523,136.2124 L166.4221,137.0476 L167.3414,137.8604 L168.2803,138.6505 L169.2384,139.4173 L170.215,140.1604 L171.2096,140.8792 L172.2215,141.5735 L173.2501,142.2427 L174.2949,142.8864 L175.3551,143.5043 L176.4302,144.0961 L177.5194,144.6612 L178.6222,145.1995 L179.7379,145.7105 L180.8658,146.194 L182.0052,146.6496 L183.1555,147.0772 L184.3159,147.4764 L185.4858,147.847 L186.6644,148.1888 L187.851,148.5016 L189.0449,148.7851 L190.2455,149.0393 L191.4519,149.2639 L192.6635,149.4588 L193.8795,149.624 L195.0991,149.7592 L196.3218,149.8645 L197.5466,149.9398 L198.7729,149.9849 L200,150 L200,50 Z" fill="#121212"/>
  <path d="M150.0151,1.2271 L150.0602,2.4534 L150.1355,3.6782 L150.2408,4.9009 L150.376,6.1205 L150.5412,7.3365 L150.7361,8.5481 L150.9607,9.7545 L151.2149,10.9551 L151.4984,12.149 L151.8112,13.3356 L152.153,14.5142 L152.5236,15.6841 L152.9228,16.8445 L153.3504,17.9948 L153.806,19.1342 L154.2895,20.2621 L154.8005,21.3778 L155.3388,22.4806 L155.9039,23.5698 L156.4957,24.6449 L157.1136,25.7051 L157.7573,26.7499 L158.4265,27.7785 L159.1208,28.7904 L159.8396,29.785 L160.5827,30.7616 L161.3495,31.7197 L162.1396,32.6586 L162.9524,33.5779 L163.7876,34.477 L164.6447,35.3553 L165.523,36.2124 L166.4221,37.0476 L167.3414,37.8604 L168.2803,38.6505 L169.2384,39.4173 L170.215,40.1604 L171.2096,40.8792 L172.2215,41.5735 L173.2501,42.2427 L174.2949,42.8864 L175.3551,43.5044 L176.4302,44.0961 L177.5194,44.6612 L178.6222,45.1995 L179.7379,45.7105 L180.8658,46.194 L182.0052,46.6496 L183.1555,47.0772 L184.3159,47.4764 L185.4858,47.847 L186.6644,48.1888 L187.851,48.5016 L189.0449,48.7851 L190.2455,49.0393 L191.4519,49.2639 L192.6635,49.4588 L193.8795,49.624 L195.0991,49.7592 L196.3218,49.8645 L197.5466,49.9398 L198.7729,49.9849 L200,50 L200,0 L150,0 Z" fill="#121212"/>
  <path d="M198.7729,150.0151 L197.5466,150.0602 L196.3218,150.1355 L195.0991,150.2408 L193.8795,150.376 L192.6635,150.5412 L191.4519,150.7361 L190.2455,150.9607 L189.0449,151.2149 L187.851,151.4984 L186.6644,151.8112 L185.4858,152.153 L184.3159,152.5236 L183.1555,152.9228 L182.0052,153.3504 L180.8658,153.806 L179.7379,154.2895 L178.6222,154.8005 L177.5194,155.3388 L176.4302,155.9039 L175.3551,156.4957 L174.2949,157.1136 L173.2501,157.7573 L172.2215,158.4265 L171.2096,159.1208 L170.215,159.8396 L169.2384,160.5827 L168.2803,161.3495 L167.3414,162.1396 L166.4221,162.9524 L165.523,163.7876 L164.6447,164.6447 L163.7876,165.523 L162.9524,166.4221 L162.1396,167.3414 L161.3495,168.2803 L160.5827,169.2384 L159.8396,170.215 L159.1208,171.2096 L158.4265,172.2215 L157.7573,173.2501 L157.1136,174.2949 L156.4957,175.3551 L155.9039,176.4302 L155.3388,177.5194 L154.8005,178.6222 L154.2895,179.7379 L153.806,180.8658 L153.3504,182.0052 L152.9228,183.1555 L152.5236,184.3159 L152.153,185.4858 L151.8112,186.6644 L151.4984,187.851 L151.2149,189.0449 L150.9607,190.2455 L150.7361,191.4519 L150.5412,192.6635 L150.376,193.8795 L150.2408,195.0991 L150.1355,196.3218 L150.0602,197.5466 L150.0151,198.7729 L150,200 L200,200 L200,150 Z" fill="#121212"/></g>
<rect x="320.000" y="106.667" width="106.667" height="106.667" fill="#FFFFFF"/>
<g transform="translate(320.000,106.667) scale(0.53333)"><path d="M198.7729,50.0151 L197.5466,50.0602 L196.3218,50.1355 L195.0991,50.2408 L193.8795,50.376 L192.6635,50.5412 L191.4519,50.7361 L190.2455,50.9607 L189.0449,51.2149 L187.851,51.4984 L186.6644,51.8112 L185.4858,52.153 L184.3159,52.5236 L183.1555,52.9228 L182.0052,53.3504 L180.8658,53.806 L179.7379,54.2895 L178.6222,54.8005 L177.5194,55.3388 L176.4302,55.9039 L175.3551,56.4956 L174.2949,57.1136 L173.2501,57.7573 L172.2215,58.4265 L171.2096,59.1208 L170.215,59.8396 L169.2384,60.5827 L168.2803,61.3495 L167.3414,62.1396 L166.4221,62.9524 L165.523,63.7876 L164.6447,64.6447 L163.7876,65.523 L162.9524,66.4221 L162.1396,67.3414 L161.3495,68.2803 L160.5827,69.2384 L159.8396,70.215 L159.1208,71.2096 L158.4265,72.2215 L157.7573,73.2501 L157.1136,74.2949 L156.4957,75.3551 L155.9039,76.4302 L155.3388,77.5194 L154.8005,78.6222 L154.2895,79.7379 L153.806,80.8658 L153.3504,82.0052 L152.9228,83.1555 L152.5236,84.3159 L152.153,85.4858 L151.8112,86.6644 L151.4984,87.851 L151.2149,89.0449 L150.9607,90.2455 L150.7361,91.4519 L150.5412,92.6635 L150.376,93.8795 L150.2408,95.0991 L150.1355,96.3218 L150.0602,97.5466 L150.0151,98.7729 L150,100 L150.0151,101.2271 L150.0602,102.4534 L150.1355,103.6782 L150.2408,104.9009 L150.376,106.1205 L150.5412,107.3365 L150.7361,108.5481 L150.9607,109.7545 L151.2149,110.9551 L151.4984,112.149 L151.8112,113.3356 L152.153,114.5142 L152.5236,115.6841 L152.9228,116.8445 L153.3504,117.9948 L153.806,119.1342 L154.2895,120.2621 L154.8005,121.3778 L155.3388,122.4806 L155.9039,123.5698 L156.4957,124.6449 L157.1136,125.7051 L157.7573,126.7499 L158.4265,127.7785 L159.1208,128.7904 L159.8396,129.785 L160.5827,130.7616 L161.3495,131.7197 L162.1396,132.6586 L162.9524,133.5779 L163.7876,134.477 L164.6447,135.3553 L165.523,136.2124 L166.4221,137.0476 L167.3414,137.8604 L168.2803,138.6505 L169.2384,139.4173 L170.215,140.1604 L171.2096,140.8792 L172.2215,141.5735 L173.2501,142.2427 L174.2949,142.8864 L175.3551,143.5043 L176.4302,144.0961 L177.5194,144.6612 L178.6222,145.1995 L179.7379,145.7105 L180.8658,146.194 L182.0052,146.6496 L183.1555,147.0772 L184.3159,147.4764 L185.4858,147.847 L186.6644,148.1888 L187.851,148.5016 L189.0449,148.7851 L190.2455,149.0393 L191.4519,149.2639 L192.6635,149.4588 L193.8795,149.624 L195.0991,149.7592 L196.3218,149.8645 L197.5466,149.9398 L198.7729,149.9849 L200,150 L200,50 Z" fill="#FF4F00"/>
  <path d="M150.0151,1.2271 L150.0602,2.4534 L150.1355,3.6782 L150.2408,4.9009 L150.376,6.1205 L150.5412,7.3365 L150.7361,8.5481 L150.9607,9.7545 L151.2149,10.9551 L151.4984,12.149 L151.8112,13.3356 L152.153,14.5142 L152.5236,15.6841 L152.9228,16.8445 L153.3504,17.9948 L153.806,19.1342 L154.2895,20.2621 L154.8005,21.3778 L155.3388,22.4806 L155.9039,23.5698 L156.4957,24.6449 L157.1136,25.7051 L157.7573,26.7499 L158.4265,27.7785 L159.1208,28.7904 L159.8396,29.785 L160.5827,30.7616 L161.3495,31.7197 L162.1396,32.6586 L162.9524,33.5779 L163.7876,34.477 L164.6447,35.3553 L165.523,36.2124 L166.4221,37.0476 L167.3414,37.8604 L168.2803,38.6505 L169.2384,39.4173 L170.215,40.1604 L171.2096,40.8792 L172.2215,41.5735 L173.2501,42.2427 L174.2949,42.8864 L175.3551,43.5044 L176.4302,44.0961 L177.5194,44.6612 L178.6222,45.1995 L179.7379,45.7105 L180.8658,46.194 L182.0052,46.6496 L183.1555,47.0772 L184.3159,47.4764 L185.4858,47.847 L186.6644,48.1888 L187.851,48.5016 L189.0449,48.7851 L190.2455,49.0393 L191.4519,49.2639 L192.6635,49.4588 L193.8795,49.624 L195.0991,49.7592 L196.3218,49.8645 L197.5466,49.9398 L198.7729,49.9849 L200,50 L200,0 L150,0 Z" fill="#FF4F00"/>
  <path d="M198.7729,150.0151 L197.5466,150.0602 L196.3218,150.1355 L195.0991,150.2408 L193.8795,150.376 L192.6635,150.5412 L191.4519,150.7361 L190.2455,150.9607 L189.0449,151.2149 L187.851,151.4984 L186.6644,151.8112 L185.4858,152.153 L184.3159,152.5236 L183.1555,152.9228 L182.0052,153.3504 L180.8658,153.806 L179.7379,154.2895 L178.6222,154.8005 L177.5194,155.3388 L176.4302,155.9039 L175.3551,156.4957 L174.2949,157.1136 L173.2501,157.7573 L172.2215,158.4265 L171.2096,159.1208 L170.215,159.8396 L169.2384,160.5827 L168.2803,161.3495 L167.3414,162.1396 L166.4221,162.9524 L165.523,163.7876 L164.6447,164.6447 L163.7876,165.523 L162.9524,166.4221 L162.1396,167.3414 L161.3495,168.2803 L160.5827,169.2384 L159.8396,170.215 L159.1208,171.2096 L158.4265,172.2215 L157.7573,173.2501 L157.1136,174.2949 L156.4957,175.3551 L155.9039,176.4302 L155.3388,177.5194 L154.8005,178.6222 L154.2895,179.7379 L153.806,180.8658 L153.3504,182.0052 L152.9228,183.1555 L152.5236,184.3159 L152.153,185.4858 L151.8112,186.6644 L151.4984,187.851 L151.2149,189.0449 L150.9607,190.2455 L150.7361,191.4519 L150.5412,192.6635 L150.376,193.8795 L150.2408,195.0991 L150.1355,196.3218 L150.0602,197.5466 L150.0151,198.7729 L150,200 L200,200 L200,150 Z" fill="#FF4F00"/></g>
<rect x="426.667" y="106.667" width="106.667" height="106.667" fill="#121212"/>
<g transform="translate(426.667,106.667) scale(0.53333) rotate(270,100,100)"><path d="M200 0L0 200L0 0L200 0Z" fill="#FFFFFF"/>
  <path d="M150.05 200 C105.549 200 83.2634 146.197 114.73 114.73 C146.197 83.2634 200 105.549 200 150.05 L200 200 L150.05 200 Z" fill="#FFFFFF"/></g>
<rect x="533.333" y="106.667" width="106.667" height="106.667" fill="#121212"/>
<g transform="translate(533.333,106.667) scale(0.53333) rotate(270,100,100)"><path d="M100 0L100 100L0 150L0 0L100 0Z" fill="#FF4F00"/></g>
<rect x="0.000" y="213.333" width="106.667" height="106.667" fill="#FFFFFF"/>
<g transform="translate(0.000,213.333) scale(0.53333)"><path d="M200 0L0 200L0 0L200 0Z" fill="#121212"/>
  <path d="M150.05 200 C105.549 200 83.2634 146.197 114.73 114.73 C146.197 83.2634 200 105.549 200 150.05 L200 200 L150.05 200 Z" fill="#121212"/></g>
<rect x="106.667" y="213.333" width="106.667" height="106.667" fill="#121212"/>
<g transform="translate(106.667,213.333) scale(0.53333) rotate(180,100,100)"><path d="M100 0L100 100L0 150L0 0L100 0Z" fill="#FFFFFF"/></g>
<rect x="213.333" y="213.333" width="106.667" height="106.667" fill="#121212"/>
<g transform="translate(213.333,213.333) scale(0.53333)"><path d="M198.7729,50.0151 L197.5466,50.0602 L196.3218,50.1355 L195.0991,50.2408 L193.8795,50.376 L192.6635,50.5412 L191.4519,50.7361 L190.2455,50.9607 L189.0449,51.2149 L187.851,51.4984 L186.6644,51.8112 L185.4858,52.153 L184.3159,52.5236 L183.1555,52.9228 L182.0052,53.3504 L180.8658,53.806 L179.7379,54.2895 L178.6222,54.8005 L177.5194,55.3388 L176.4302,55.9039 L175.3551,56.4956 L174.2949,57.1136 L173.2501,57.7573 L172.2215,58.4265 L171.2096,59.1208 L170.215,59.8396 L169.2384,60.5827 L168.2803,61.3495 L167.3414,62.1396 L166.4221,62.9524 L165.523,63.7876 L164.6447,64.6447 L163.7876,65.523 L162.9524,66.4221 L162.1396,67.3414 L161.3495,68.2803 L160.5827,69.2384 L159.8396,70.215 L159.1208,71.2096 L158.4265,72.2215 L157.7573,73.2501 L157.1136,74.2949 L156.4957,75.3551 L155.9039,76.4302 L155.3388,77.5194 L154.8005,78.6222 L154.2895,79.7379 L153.806,80.8658 L153.3504,82.0052 L152.9228,83.1555 L152.5236,84.3159 L152.153,85.4858 L151.8112,86.6644 L151.4984,87.851 L151.2149,89.0449 L150.9607,90.2455 L150.7361,91.4519 L150.5412,92.6635 L150.376,93.8795 L150.2408,95.0991 L150.1355,96.3218 L150.0602,97.5466 L150.0151,98.7729 L150,100 L150.0151,101.2271 L150.0602,102.4534 L150.1355,103.6782 L150.2408,104.9009 L150.376,106.1205 L150.5412,107.3365 L150.7361,108.5481 L150.9607,109.7545 L151.2149,110.9551 L151.4984,112.149 L151.8112,113.3356 L152.153,114.5142 L152.5236,115.6841 L152.9228,116.8445 L153.3504,117.9948 L153.806,119.1342 L154.2895,120.2621 L154.8005,121.3778 L155.3388,122.4806 L155.9039,123.5698 L156.4957,124.6449 L157.1136,125.7051 L157.7573,126.7499 L158.4265,127.7785 L159.1208,128.7904 L159.8396,129.785 L160.5827,130.7616 L161.3495,131.7197 L162.1396,132.6586 L162.9524,133.5779 L163.7876,134.477 L164.6447,135.3553 L165.523,136.2124 L166.4221,137.0476 L167.3414,137.8604 L168.2803,138.6505 L169.2384,139.4173 L170.215,140.1604 L171.2096,140.8792 L172.2215,141.5735 L173.2501,142.2427 L174.2949,142.8864 L175.3551,143.5043 L176.4302,144.0961 L177.5194,144.6612 L178.6222,145.1995 L179.7379,145.7105 L180.8658,146.194 L182.0052,146.6496 L183.1555,147.0772 L184.3159,147.4764 L185.4858,147.847 L186.6644,148.1888 L187.851,148.5016 L189.0449,148.7851 L190.2455,149.0393 L191.4519,149.2639 L192.6635,149.4588 L193.8795,149.624 L195.0991,149.7592 L196.3218,149.8645 L197.5466,149.9398 L198.7729,149.9849 L200,150 L200,50 Z" fill="#FF4F00"/>
  <path d="M150.0151,1.2271 L150.0602,2.4534 L150.1355,3.6782 L150.2408,4.9009 L150.376,6.1205 L150.5412,7.3365 L150.7361,8.5481 L150.9607,9.7545 L151.2149,10.9551 L151.4984,12.149 L151.8112,13.3356 L152.153,14.5142 L152.5236,15.6841 L152.9228,16.8445 L153.3504,17.9948 L153.806,19.1342 L154.2895,20.2621 L154.8005,21.3778 L155.3388,22.4806 L155.9039,23.5698 L156.4957,24.6449 L157.1136,25.7051 L157.7573,26.7499 L158.4265,27.7785 L159.1208,28.7904 L159.8396,29.785 L160.5827,30.7616 L161.3495,31.7197 L162.1396,32.6586 L162.9524,33.5779 L163.7876,34.477 L164.6447,35.3553 L165.523,36.2124 L166.4221,37.0476 L167.3414,37.8604 L168.2803,38.6505 L169.2384,39.4173 L170.215,40.1604 L171.2096,40.8792 L172.2215,41.5735 L173.2501,42.2427 L174.2949,42.8864 L175.3551,43.5044 L176.4302,44.0961 L177.5194,44.6612 L178.6222,45.1995 L179.7379,45.7105 L180.8658,46.194 L182.0052,46.6496 L183.1555,47.0772 L184.3159,47.4764 L185.4858,47.847 L186.6644,48.1888 L187.851,48.5016 L189.0449,48.7851 L190.2455,49.0393 L191.4519,49.2639 L192.6635,49.4588 L193.8795,49.624 L195.0991,49.7592 L196.3218,49.8645 L197.5466,49.9398 L198.7729,49.9849 L200,50 L200,0 L150,0 Z" fill="#FF4F00"/>
  <path d="M198.7729,150.0151 L197.5466,150.0602 L196.3218,150.1355 L195.0991,150.2408 L193.8795,150.376 L192.6635,150.5412 L191.4519,150.7361 L190.2455,150.9607 L189.0449,151.2149 L187.851,151.4984 L186.6644,151.8112 L185.4858,152.153 L184.3159,152.5236 L183.1555,152.9228 L182.0052,153.3504 L180.8658,153.806 L179.7379,154.2895 L178.6222,154.8005 L177.5194,155.3388 L176.4302,155.9039 L175.3551,156.4957 L174.2949,157.1136 L173.2501,157.7573 L172.2215,158.4265 L171.2096,159.1208 L170.215,159.8396 L169.2384,160.5827 L168.2803,161.3495 L167.3414,162.1396 L166.4221,162.9524 L165.523,163.7876 L164.6447,164.6447 L163.7876,165.523 L162.9524,166.4221 L162.1396,167.3414 L161.3495,168.2803 L160.5827,169.2384 L159.8396,170.215 L159.1208,171.2096 L158.4265,172.2215 L157.7573,173.2501 L157.1136,174.2949 L156.4957,175.3551 L155.9039,176.4302 L155.3388,177.5194 L154.8005,178.6222 L154.2895,179.7379 L153.806,180.8658 L153.3504,182.0052 L152.9228,183.1555 L152.5236,184.3159 L152.153,185.4858 L151.8112,186.6644 L151.4984,187.851 L151.2149,189.0449 L150.9607,190.2455 L150.7361,191.4519 L150.5412,192.6635 L150.376,193.8795 L150.2408,195.0991 L150.1355,196.3218 L150.0602,197.5466 L150.0151,198.7729 L150,200 L200,200 L200,150 Z" fill="#FF4F00"/></g>
<rect x="533.333" y="213.333" width="106.667" height="106.667" fill="#121212"/>
<g transform="translate(533.333,213.333) scale(0.53333)"><path d="M100 0L100 100L0 150L0 0L100 0Z" fill="#FFFFFF"/></g>
</g>
<rect x="40" y="624" width="360" height="180.0" fill="none" stroke="#333" stroke-width="1"/>
<text x="40" y="822" font-family="Helvetica,Arial,sans-serif" font-size="12" fill="#EDE6D6">asymmetric_left s=260602</text>
<text x="40" y="840" font-family="Helvetica,Arial,sans-serif" font-size="11" fill="#8A8A8A">total 0.837   anc 0.70  rhy 0.77  dir 0.68  wei 1.00</text>
<text x="40" y="855" font-family="Helvetica,Arial,sans-serif" font-size="11" fill="#8A8A8A">neg 0.80  tem 0.43  fam 0.89  her 0.88  tmp 0.65</text>
<g transform="translate(422,624) scale(0.5625)">
<rect width="640" height="320" fill="#FFFFFF"/>
<rect x="0.000" y="0.000" width="106.667" height="106.667" fill="#121212"/>
<g transform="translate(0.000,0.000) scale(0.53333) rotate(90,100,100)"><path d="M200 0L200 150L0 150L0 0L200 0Z" fill="#FFFFFF"/></g>
<rect x="106.667" y="0.000" width="106.667" height="106.667" fill="#121212"/>
<g transform="translate(106.667,0.000) scale(0.53333) rotate(270,100,100)"><path d="M200 0L200 150L0 150L0 0L200 0Z" fill="#FF4F00"/></g>
<rect x="213.333" y="0.000" width="106.667" height="106.667" fill="#FFFFFF"/>
<g transform="translate(213.333,0.000) scale(0.53333) rotate(90,100,100)"><path fill-rule="evenodd" clip-rule="evenodd" d="M154.082 79.1951C166.139 89.9719 177.338 99.9825 199.941 100C177.338 100.017 166.139 110.028 154.082 120.805C140.012 133.381 124.776 147 88.889 147C36.9794 147 2.1641 184.88 0.2392 200L0.0002 200L0.0002 100L0.0002 0L0.2393 0C2.1642 15.12 36.9794 53.0001 88.8891 53.0001C124.776 53.0001 140.012 66.6193 154.082 79.1951Z" fill="#121212"/></g>
<rect x="320.000" y="0.000" width="106.667" height="106.667" fill="#121212"/>
<g transform="translate(320.000,0.000) scale(0.53333) rotate(90,100,100)"><path d="M200 0L0 100L0 0L200 0Z" fill="#FFFFFF"/></g>
<rect x="426.667" y="0.000" width="106.667" height="106.667" fill="#FFFFFF"/>
<g transform="translate(426.667,0.000) scale(0.53333) rotate(90,100,100)"><path d="M164.256 27.6135C155.966 50.9277 129.333 61.9603 106.979 51.3361C71.4878 34.4669 34.4629 71.4918 51.3361 106.979C61.9603 129.329 50.9277 155.962 27.6135 164.256C10.4602 170.357 1.257 184.868 0 200H200V0C184.868 1.261 170.357 10.4602 164.256 27.6135Z" fill="#121212"/></g>
<rect x="0.000" y="106.667" width="106.667" height="106.667" fill="#121212"/>
<g transform="translate(0.000,106.667) scale(0.53333)"><path d="M200 0L200 150L0 150L0 0L200 0Z" fill="#FF4F00"/></g>
<rect x="106.667" y="106.667" width="106.667" height="106.667" fill="#FFFFFF"/>
<g transform="translate(106.667,106.667) scale(0.53333)"><path d="M164.256 27.6135C155.966 50.9277 129.333 61.9603 106.979 51.3361C71.4878 34.4669 34.4629 71.4918 51.3361 106.979C61.9603 129.329 50.9277 155.962 27.6135 164.256C10.4602 170.357 1.257 184.868 0 200H200V0C184.868 1.261 170.357 10.4602 164.256 27.6135Z" fill="#121212"/></g>
<rect x="213.333" y="106.667" width="106.667" height="106.667" fill="#121212"/>
<g transform="translate(213.333,106.667) scale(0.53333) rotate(90,100,100)"><path d="M200 0L0 100L0 0L200 0Z" fill="#FFFFFF"/></g>
<rect x="320.000" y="106.667" width="106.667" height="106.667" fill="#FFFFFF"/>
<g transform="translate(320.000,106.667) scale(0.53333) rotate(90,100,100)"><path d="M200 0L0 100L0 0L200 0Z" fill="#121212"/></g>
<rect x="426.667" y="106.667" width="213.333" height="213.333" fill="#FFFFFF"/>
<g transform="translate(426.667,106.667) scale(1.06667) rotate(90,100,100)"><path d="M164.256 27.6135C155.966 50.9277 129.333 61.9603 106.979 51.3361C71.4878 34.4669 34.4629 71.4918 51.3361 106.979C61.9603 129.329 50.9277 155.962 27.6135 164.256C10.4602 170.357 1.257 184.868 0 200H200V0C184.868 1.261 170.357 10.4602 164.256 27.6135Z" fill="#FF4F00"/></g>
<rect x="0.000" y="213.333" width="106.667" height="106.667" fill="#FFFFFF"/>
<g transform="translate(0.000,213.333) scale(0.53333) rotate(90,100,100)"><path fill-rule="evenodd" clip-rule="evenodd" d="M154.082 79.1951C166.139 89.9719 177.338 99.9825 199.941 100C177.338 100.017 166.139 110.028 154.082 120.805C140.012 133.381 124.776 147 88.889 147C36.9794 147 2.1641 184.88 0.2392 200L0.0002 200L0.0002 100L0.0002 0L0.2393 0C2.1642 15.12 36.9794 53.0001 88.8891 53.0001C124.776 53.0001 140.012 66.6193 154.082 79.1951Z" fill="#121212"/></g>
<rect x="106.667" y="213.333" width="106.667" height="106.667" fill="#FFFFFF"/>
<g transform="translate(106.667,213.333) scale(0.53333)"><path fill-rule="evenodd" clip-rule="evenodd" d="M154.082 79.1951C166.139 89.9719 177.338 99.9825 199.941 100C177.338 100.017 166.139 110.028 154.082 120.805C140.012 133.381 124.776 147 88.889 147C36.9794 147 2.1641 184.88 0.2392 200L0.0002 200L0.0002 100L0.0002 0L0.2393 0C2.1642 15.12 36.9794 53.0001 88.8891 53.0001C124.776 53.0001 140.012 66.6193 154.082 79.1951Z" fill="#FF4F00"/></g>
</g>
<rect x="422" y="624" width="360" height="180.0" fill="none" stroke="#333" stroke-width="1"/>
<text x="422" y="822" font-family="Helvetica,Arial,sans-serif" font-size="12" fill="#EDE6D6">corner_anchor s=260602</text>
<text x="422" y="840" font-family="Helvetica,Arial,sans-serif" font-size="11" fill="#8A8A8A">total 0.834   anc 0.70  rhy 1.00  dir 0.64  wei 0.73</text>
<text x="422" y="855" font-family="Helvetica,Arial,sans-serif" font-size="11" fill="#8A8A8A">neg 0.80  tem 0.48  fam 0.87  her 0.93  tmp 0.60</text>
</svg>
