<svg xmlns="http://www.w3.org/2000/svg" width="1204" height="936" viewBox="0 0 1204 936">
<rect width="1204" height="936" fill="#121212"/><text x="40" y="46" font-family="Helvetica,Arial,sans-serif" font-size="28" font-weight="bold" fill="#EDE6D6">FAI BANNER CONTACT SHEET</text><text x="40" y="66" font-family="Helvetica,Arial,sans-serif" font-size="12" fill="#8A8A8A">8 banners · scores per supplement axes</text>
<g transform="translate(40,80) scale(0.5625)">
<rect width="640" height="320" fill="#FFFFFF"/>
<rect x="0.000" y="0.000" width="213.333" height="213.333" fill="#FFFFFF"/>
<g transform="translate(0.000,0.000) scale(1.06667)"><path d="M164.284 172.252C156 148.956 129.388 137.932 107.052 148.548C71.588 165.404 34.592 128.408 51.452 92.948C62.068 70.616 51.044 44.004 27.748 35.716C10.608 29.62 1.412 15.12 0.156 0L0 0L0 200L200 200L200 199.844C184.88 198.584 170.38 189.392 164.284 172.252Z" fill="#4997D0"/></g>
<rect x="213.333" y="0.000" width="106.667" height="106.667" fill="#FFFFFF"/>
<g transform="translate(213.333,0.000) scale(0.53333) rotate(180,100,100)"><path d="M126.3094,138.8092 L123.6885,133.3782 L120.725,128.2191 L117.4386,123.3401 L113.8489,118.7492 L109.9754,114.4548 L105.8378,110.4647 L101.4557,106.7873 L96.8488,103.4305 L92.0366,100.4027 L87.0388,97.7118 L81.875,95.366 L76.5648,93.3735 L71.1279,91.7423 L65.5839,90.4807 L59.9523,89.5967 L54.2528,89.0985 L48.5051,88.9942 L42.7288,89.292 L36.9434,90 L31.1686,91.1262 L25.424,92.6788 L19.7293,94.6661 L14.104,97.096 L14.104,97.096 L5.2301,100.7571 L0,102.2847 L0,200 L16.6667,200 L33.3333,200 L50,200 L66.6667,200 L83.3333,200 L100,200 L116.6667,200 L133.3333,200 L150,200 L166.6667,200 L183.3333,200 L200,200 L200,199.987 L200,199.974 L200,199.961 L200,199.948 L200,199.935 L200,199.922 L200,199.909 L200,199.896 L200,199.883 L200,199.87 L200,199.857 L200,199.844 L200,199.831 L200,199.818 L200,199.805 L200,199.792 L200,199.779 L200,199.766 L200,199.753 L200,199.74 L200,199.727 L200,199.714 L200,199.701 L200,199.688 L196.2276,199.2904 L192.4748,198.7275 L188.7485,197.9993 L185.0554,197.1059 L181.4022,196.0471 L177.7957,194.823 L174.2427,193.4336 L170.7499,191.8788 L167.3241,190.1587 L163.972,188.2732 L160.7004,186.2223 L157.516,184.006 L154.4256,181.6243 L151.436,179.0771 L148.5539,176.3646 L145.7861,173.4865 L143.1393,170.443 L140.6202,167.234 L138.2358,163.8595 L135.9926,160.3195 L133.8975,156.6139 L131.9572,152.7429 L130.1784,148.7062 L128.568,144.504 Z" fill="#121212"/></g>
<rect x="533.333" y="0.000" width="106.667" height="106.667" fill="#121212"/>
<g transform="translate(533.333,0.000) scale(0.53333)"><path d="M164.284 172.252C156 148.956 129.388 137.932 107.052 148.548C71.588 165.404 34.592 128.408 51.452 92.948C62.068 70.616 51.044 44.004 27.748 35.716C10.608 29.62 1.412 15.12 0.156 0L0 0L0 200L200 200L200 199.844C184.88 198.584 170.38 189.392 164.284 172.252Z" fill="#4997D0"/></g>
<rect x="213.333" y="106.667" width="106.667" height="106.667" fill="#121212"/>
<g transform="translate(213.333,106.667) scale(0.53333)"><path d="M50 0.014L0.014 0L0 50C27.6063 50.008 49.992 27.628 50 0.014Z" fill="#4997D0"/></g>
<rect x="320.000" y="106.667" width="106.667" height="106.667" fill="#121212"/>
<g transform="translate(320.000,106.667) scale(0.53333) rotate(270,100,100)"><path d="M50 0.014L0.014 0L0 50C27.6063 50.008 49.992 27.628 50 0.014Z" fill="#FFFFFF"/></g>
<rect x="426.667" y="106.667" width="106.667" height="106.667" fill="#FFFFFF"/>
<g transform="translate(426.667,106.667) scale(0.53333)"><path d="M126.3094,138.8092 L123.6885,133.3782 L120.725,128.2191 L117.4386,123.3401 L113.8489,118.7492 L109.9754,114.4548 L105.8378,110.4647 L101.4557,106.7873 L96.8488,103.4305 L92.0366,100.4027 L87.0388,97.7118 L81.875,95.366 L76.5648,93.3735 L71.1279,91.7423 L65.5839,90.4807 L59.9523,89.5967 L54.2528,89.0985 L48.5051,88.9942 L42.7288,89.292 L36.9434,90 L31.1686,91.1262 L25.424,92.6788 L19.7293,94.6661 L14.104,97.096 L14.104,97.096 L5.2301,100.7571 L0,102.2847 L0,200 L16.6667,200 L33.3333,200 L50,200 L66.6667,200 L83.3333,200 L100,200 L116.6667,200 L133.3333,200 L150,200 L166.6667,200 L183.3333,200 L200,200 L200,199.987 L200,199.974 L200,199.961 L200,199.948 L200,199.935 L200,199.922 L200,199.909 L200,199.896 L200,199.883 L200,199.87 L200,199.857 L200,199.844 L200,199.831 L200,199.818 L200,199.805 L200,199.792 L200,199.779 L200,199.766 L200,199.753 L200,199.74 L200,199.727 L200,199.714 L200,199.701 L200,199.688 L196.2276,199.2904 L192.4748,198.7275 L188.7485,197.9993 L185.0554,197.1059 L181.4022,196.0471 L177.7957,194.823 L174.2427,193.4336 L170.7499,191.8788 L167.3241,190.1587 L163.972,188.2732 L160.7004,186.2223 L157.516,184.006 L154.4256,181.6243 L151.436,179.0771 L148.5539,176.3646 L145.7861,173.4865 L143.1393,170.443 L140.6202,167.234 L138.2358,163.8595 L135.9926,160.3195 L133.8975,156.6139 L131.9572,152.7429 L130.1784,148.7062 L128.568,144.504 Z" fill="#4997D0"/></g>
<rect x="533.333" y="106.667" width="106.667" height="106.667" fill="#FFFFFF"/>
<g transform="translate(533.333,106.667) scale(0.53333) rotate(180,100,100)"><path d="M126.3094,138.8092 L123.6885,133.3782 L120.725,128.2191 L117.4386,123.3401 L113.8489,118.7492 L109.9754,114.4548 L105.8378,110.4647 L101.4557,106.7873 L96.8488,103.4305 L92.0366,100.4027 L87.0388,97.7118 L81.875,95.366 L76.5648,93.3735 L71.1279,91.7423 L65.5839,90.4807 L59.9523,89.5967 L54.2528,89.0985 L48.5051,88.9942 L42.7288,89.292 L36.9434,90 L31.1686,91.1262 L25.424,92.6788 L19.7293,94.6661 L14.104,97.096 L14.104,97.096 L5.2301,100.7571 L0,102.2847 L0,200 L16.6667,200 L33.3333,200 L50,200 L66.6667,200 L83.3333,200 L100,200 L116.6667,200 L133.3333,200 L150,200 L166.6667,200 L183.3333,200 L200,200 L200,199.987 L200,199.974 L200,199.961 L200,199.948 L200,199.935 L200,199.922 L200,199.909 L200,199.896 L200,199.883 L200,199.87 L200,199.857 L200,199.844 L200,199.831 L200,199.818 L200,199.805 L200,199.792 L200,199.779 L200,199.766 L200,199.753 L200,199.74 L200,199.727 L200,199.714 L200,199.701 L200,199.688 L196.2276,199.2904 L192.4748,198.7275 L188.7485,197.9993 L185.0554,197.1059 L181.4022,196.0471 L177.7957,194.823 L174.2427,193.4336 L170.7499,191.8788 L167.3241,190.1587 L163.972,188.2732 L160.7004,186.2223 L157.516,184.006 L154.4256,181.6243 L151.436,179.0771 L148.5539,176.3646 L145.7861,173.4865 L143.1393,170.443 L140.6202,167.234 L138.2358,163.8595 L135.9926,160.3195 L133.8975,156.6139 L131.9572,152.7429 L130.1784,148.7062 L128.568,144.504 Z" fill="#121212"/></g>
<rect x="0.000" y="213.333" width="106.667" height="106.667" fill="#FFFFFF"/>
<g transform="translate(0.000,213.333) scale(0.53333)"><path d="M126.3094,138.8092 L123.6885,133.3782 L120.725,128.2191 L117.4386,123.3401 L113.8489,118.7492 L109.9754,114.4548 L105.8378,110.4647 L101.4557,106.7873 L96.8488,103.4305 L92.0366,100.4027 L87.0388,97.7118 L81.875,95.366 L76.5648,93.3735 L71.1279,91.7423 L65.5839,90.4807 L59.9523,89.5967 L54.2528,89.0985 L48.5051,88.9942 L42.7288,89.292 L36.9434,90 L31.1686,91.1262 L25.424,92.6788 L19.7293,94.6661 L14.104,97.096 L14.104,97.096 L5.2301,100.7571 L0,102.2847 L0,200 L16.6667,200 L33.3333,200 L50,200 L66.6667,200 L83.3333,200 L100,200 L116.6667,200 L133.3333,200 L150,200 L166.6667,200 L183.3333,200 L200,200 L200,199.987 L200,199.974 L200,199.961 L200,199.948 L200,199.935 L200,199.922 L200,199.909 L200,199.896 L200,199.883 L200,199.87 L200,199.857 L200,199.844 L200,199.831 L200,199.818 L200,199.805 L200,199.792 L200,199.779 L200,199.766 L200,199.753 L200,199.74 L200,199.727 L200,199.714 L200,199.701 L200,199.688 L196.2276,199.2904 L192.4748,198.7275 L188.7485,197.9993 L185.0554,197.1059 L181.4022,196.0471 L177.7957,194.823 L174.2427,193.4336 L170.7499,191.8788 L167.3241,190.1587 L163.972,188.2732 L160.7004,186.2223 L157.516,184.006 L154.4256,181.6243 L151.436,179.0771 L148.5539,176.3646 L145.7861,173.4865 L143.1393,170.443 L140.6202,167.234 L138.2358,163.8595 L135.9926,160.3195 L133.8975,156.6139 L131.9572,152.7429 L130.1784,148.7062 L128.568,144.504 Z" fill="#121212"/></g>
<rect x="106.667" y="213.333" width="106.667" height="106.667" fill="#121212"/>
<g transform="translate(106.667,213.333) scale(0.53333)"><path d="M164.284 172.252C156 148.956 129.388 137.932 107.052 148.548C71.588 165.404 34.592 128.408 51.452 92.948C62.068 70.616 51.044 44.004 27.748 35.716C10.608 29.62 1.412 15.12 0.156 0L0 0L0 200L200 200L200 199.844C184.88 198.584 170.38 189.392 164.284 172.252Z" fill="#4997D0"/></g>
<rect x="213.333" y="213.333" width="106.667" height="106.667" fill="#FFFFFF"/>
<g transform="translate(213.333,213.333) scale(0.53333) rotate(180,100,100)"><path d="M200 95L200 105L0 105L0 95L200 95Z" fill="#121212"/></g>
<rect x="533.333" y="213.333" width="106.667" height="106.667" fill="#121212"/>
<g transform="translate(533.333,213.333) scale(0.53333) rotate(270,100,100)"><path d="M164.284 172.252C156 148.956 129.388 137.932 107.052 148.548C71.588 165.404 34.592 128.408 51.452 92.948C62.068 70.616 51.044 44.004 27.748 35.716C10.608 29.62 1.412 15.12 0.156 0L0 0L0 200L200 200L200 199.844C184.88 198.584 170.38 189.392 164.284 172.252Z" fill="#FFFFFF"/></g>
</g>
<rect x="40" y="80" width="360" height="180.0" fill="none" stroke="#333" stroke-width="1"/>
<text x="40" y="278" font-family="Helvetica,Arial,sans-serif" font-size="12" fill="#EDE6D6">asymmetric_left s=260603</text>
<text x="40" y="296" font-family="Helvetica,Arial,sans-serif" font-size="11" fill="#8A8A8A">total 0.860   anc 0.90  rhy 0.96  dir 0.58  wei 1.00</text>
<text x="40" y="311" font-family="Helvetica,Arial,sans-serif" font-size="11" fill="#8A8A8A">neg 0.80  tem 0.39  fam 1.00  her 0.88  tmp 0.47</text>
<g transform="translate(422,80) scale(0.5625)">
<rect width="640" height="320" fill="#FFFFFF"/>
<rect x="106.667" y="0.000" width="106.667" height="106.667" fill="#121212"/>
<g transform="translate(106.667,0.000) scale(0.53333)"><rect x="20" y="32.5" width="15.8333" height="15.8333" fill="#121212"/>
  <path d="M20 200H40L40 0H20L20 200Z" fill="#4997D0"/>
  <path d="M180 200H200L200 0H180L180 200Z" fill="#4997D0"/>
  <path fill-rule="evenodd" clip-rule="evenodd" d="M80 200H60V100V0H80V55.9927C80 57.6415 81.9006 58.604 83.2937 57.7221C83.7889 57.4087 84.2899 57.1037 84.7967 56.8074C93.0078 52.0057 100 44.1641 100 34.6521V0H120V34.6521C120 44.1641 126.992 52.0057 135.203 56.8074C135.71 57.1037 136.211 57.4087 136.706 57.7221C138.099 58.604 140 57.6415 140 55.9927V0H160V100V200H140V144.007C140 142.359 138.099 141.396 136.706 142.278C136.211 142.591 135.71 142.896 135.203 143.193C126.992 147.994 120 155.836 120 165.348V200H100V165.348C100 155.836 93.0079 147.994 84.7967 143.193C84.29 142.896 83.7889 142.591 83.2937 142.278C81.9006 141.396 80 142.359 80 144.007V200Z" fill="#4997D0"/></g>
<rect x="213.333" y="0.000" width="106.667" height="106.667" fill="#121212"/>
<g transform="translate(213.333,0.000) scale(0.53333) rotate(180,100,100)"><rect x="20" y="32.5" width="15.8333" height="15.8333" fill="#121212"/>
  <path d="M20 200H40L40 0H20L20 200Z" fill="#FFFFFF"/>
  <path d="M180 200H200L200 0H180L180 200Z" fill="#FFFFFF"/>
  <path fill-rule="evenodd" clip-rule="evenodd" d="M80 200H60V100V0H80V55.9927C80 57.6415 81.9006 58.604 83.2937 57.7221C83.7889 57.4087 84.2899 57.1037 84.7967 56.8074C93.0078 52.0057 100 44.1641 100 34.6521V0H120V34.6521C120 44.1641 126.992 52.0057 135.203 56.8074C135.71 57.1037 136.211 57.4087 136.706 57.7221C138.099 58.604 140 57.6415 140 55.9927V0H160V100V200H140V144.007C140 142.359 138.099 141.396 136.706 142.278C136.211 142.591 135.71 142.896 135.203 143.193C126.992 147.994 120 155.836 120 165.348V200H100V165.348C100 155.836 93.0079 147.994 84.7967 143.193C84.29 142.896 83.7889 142.591 83.2937 142.278C81.9006 141.396 80 142.359 80 144.007V200Z" fill="#FFFFFF"/></g>
<rect x="320.000" y="0.000" width="106.667" height="106.667" fill="#121212"/>
<g transform="translate(320.000,0.000) scale(0.53333) rotate(180,100,100)"><!-- Generator: Adobe Illustrator 30.2.1, SVG Export Plug-In . SVG Version: 2.1.1 Build 1)  -->
  
  <path d="M100,100C44.77,100,0,55.23,0,0v200c0-55.23,44.77-100,100-100Z" fill="#121212"/>
  <path d="M100,100c55.23,0,100,44.77,100,100V0c0,55.23-44.77,100-100,100Z" fill="#121212"/>
  <path d="M100,100C44.77,100,0,144.77,0,200h200c0-55.23-44.77-100-100-100Z" fill="#4997D0"/>
  <path d="M100,100c55.23,0,100-44.77,100-100H0c0,55.23,44.77,100,100,100Z" fill="#4997D0"/></g>
<rect x="426.667" y="0.000" width="106.667" height="106.667" fill="#FFFFFF"/>
<g transform="translate(426.667,0.000) scale(0.53333) rotate(180,100,100)"><path fill-rule="evenodd" clip-rule="evenodd" d="M100 100L200 0L0 0L0 200L100 200L100 100Z" fill="#121212"/></g>
<rect x="0.000" y="106.667" width="213.333" height="213.333" fill="#121212"/>
<g transform="translate(0.000,106.667) scale(1.06667) rotate(180,100,100)"><!-- Generator: Adobe Illustrator 30.2.1, SVG Export Plug-In . SVG Version: 2.1.1 Build 1)  -->
  
  <path d="M100,100C44.77,100,0,55.23,0,0v200c0-55.23,44.77-100,100-100Z" fill="#121212"/>
  <path d="M100,100c55.23,0,100,44.77,100,100V0c0,55.23-44.77,100-100,100Z" fill="#121212"/>
  <path d="M100,100C44.77,100,0,144.77,0,200h200c0-55.23-44.77-100-100-100Z" fill="#4997D0"/>
  <path d="M100,100c55.23,0,100-44.77,100-100H0c0,55.23,44.77,100,100,100Z" fill="#4997D0"/></g>
<rect x="213.333" y="106.667" width="106.667" height="106.667" fill="#FFFFFF"/>
<g transform="translate(213.333,106.667) scale(0.53333) rotate(90,100,100)"><path d="M200 0L0 200L0 0L200 0Z" fill="#4997D0"/>
  <path d="M50 200L200 50L200 200L50 200Z" fill="#4997D0"/></g>
<rect x="320.000" y="106.667" width="106.667" height="106.667" fill="#FFFFFF"/>
<g transform="translate(320.000,106.667) scale(0.53333) rotate(90,100,100)"><path fill-rule="evenodd" clip-rule="evenodd" d="M100 100L200 0L0 0L0 200L100 200L100 100Z" fill="#121212"/></g>
<rect x="426.667" y="106.667" width="106.667" height="106.667" fill="#121212"/>
<g transform="translate(426.667,106.667) scale(0.53333) rotate(270,100,100)"><path fill-rule="evenodd" clip-rule="evenodd" d="M100 100L200 0L0 0L0 200L100 200L100 100Z" fill="#FFFFFF"/></g>
<rect x="213.333" y="213.333" width="106.667" height="106.667" fill="#121212"/>
<g transform="translate(213.333,213.333) scale(0.53333) rotate(90,100,100)"><path fill-rule="evenodd" clip-rule="evenodd" d="M100 100L200 0L0 0L0 200L100 200L100 100Z" fill="#FFFFFF"/></g>
<rect x="320.000" y="213.333" width="106.667" height="106.667" fill="#121212"/>
<g transform="translate(320.000,213.333) scale(0.53333) rotate(90,100,100)"><path fill-rule="evenodd" clip-rule="evenodd" d="M100 100L200 0L0 0L0 200L100 200L100 100Z" fill="#4997D0"/></g>
</g>
<rect x="422" y="80" width="360" height="180.0" fill="none" stroke="#333" stroke-width="1"/>
<text x="422" y="278" font-family="Helvetica,Arial,sans-serif" font-size="12" fill="#EDE6D6">diagonal_sweep s=260603</text>
<text x="422" y="296" font-family="Helvetica,Arial,sans-serif" font-size="11" fill="#8A8A8A">total 0.845   anc 0.90  rhy 0.95  dir 0.64  wei 0.81</text>
<text x="422" y="311" font-family="Helvetica,Arial,sans-serif" font-size="11" fill="#8A8A8A">neg 0.71  tem 0.49  fam 0.91  her 0.82  tmp 0.69</text>
<g transform="translate(804,80) scale(0.5625)">
<rect width="640" height="320" fill="#FFFFFF"/>
<rect x="0.000" y="0.000" width="213.333" height="213.333" fill="#121212"/>
<g transform="translate(0.000,0.000) scale(1.06667) rotate(270,100,100)"><path d="M160 199.99H180C180 188.94 188.95 179.99 200 179.99V159.99C177.91 159.99 160 177.9 160 199.99Z" fill="#4997D0"/>
  <path d="M120 199.99H140C140 166.85 166.86 139.99 200 139.99V119.99C155.82 119.99 120 155.81 120 199.99Z" fill="#4997D0"/>
  <path d="M80 199.99H100C100 144.76 144.77 99.99 200 99.99V79.99C133.73 79.99 80 133.72 80 199.99Z" fill="#4997D0"/>
  <path d="M40 199.99H60C60 122.67 122.68 59.99 200 59.99V39.99C111.63 39.99 40 111.62 40 199.99Z" fill="#4997D0"/>
  <path d="M0 199.99H20C20 100.58 100.59 19.99 200 19.99V0C89.58 0 0 89.87 0 199.99Z" fill="#4997D0"/></g>
<rect x="213.333" y="0.000" width="106.667" height="106.667" fill="#121212"/>
<g transform="translate(213.333,0.000) scale(0.53333) rotate(90,100,100)"><path d="M200 0 L170.711 29.2893 C125.435 74.5646 64.0289 100 0 100 L0 0 L100 0 L200 0 Z" fill="#4997D0"/></g>
<rect x="533.333" y="0.000" width="106.667" height="106.667" fill="#121212"/>
<g transform="translate(533.333,0.000) scale(0.53333) rotate(90,100,100)"><path d="M200 0L200 100L0 150L0 0L200 0Z" fill="#FFFFFF"/></g>
<rect x="213.333" y="106.667" width="106.667" height="106.667" fill="#121212"/>
<g transform="translate(213.333,106.667) scale(0.53333) rotate(90,100,100)"><path d="M198.7729,50.0151 L197.5466,50.0602 L196.3218,50.1355 L195.0991,50.2408 L193.8795,50.376 L192.6635,50.5412 L191.4519,50.7361 L190.2455,50.9607 L189.0449,51.2149 L187.851,51.4984 L186.6644,51.8112 L185.4858,52.153 L184.3159,52.5236 L183.1555,52.9228 L182.0052,53.3504 L180.8658,53.806 L179.7379,54.2895 L178.6222,54.8005 L177.5194,55.3388 L176.4302,55.9039 L175.3551,56.4956 L174.2949,57.1136 L173.2501,57.7573 L172.2215,58.4265 L171.2096,59.1208 L170.215,59.8396 L169.2384,60.5827 L168.2803,61.3495 L167.3414,62.1396 L166.4221,62.9524 L165.523,63.7876 L164.6447,64.6447 L163.7876,65.523 L162.9524,66.4221 L162.1396,67.3414 L161.3495,68.2803 L160.5827,69.2384 L159.8396,70.215 L159.1208,71.2096 L158.4265,72.2215 L157.7573,73.2501 L157.1136,74.2949 L156.4957,75.3551 L155.9039,76.4302 L155.3388,77.5194 L154.8005,78.6222 L154.2895,79.7379 L153.806,80.8658 L153.3504,82.0052 L152.9228,83.1555 L152.5236,84.3159 L152.153,85.4858 L151.8112,86.6644 L151.4984,87.851 L151.2149,89.0449 L150.9607,90.2455 L150.7361,91.4519 L150.5412,92.6635 L150.376,93.8795 L150.2408,95.0991 L150.1355,96.3218 L150.0602,97.5466 L150.0151,98.7729 L150,100 L150.0151,101.2271 L150.0602,102.4534 L150.1355,103.6782 L150.2408,104.9009 L150.376,106.1205 L150.5412,107.3365 L150.7361,108.5481 L150.9607,109.7545 L151.2149,110.9551 L151.4984,112.149 L151.8112,113.3356 L152.153,114.5142 L152.5236,115.6841 L152.9228,116.8445 L153.3504,117.9948 L153.806,119.1342 L154.2895,120.2621 L154.8005,121.3778 L155.3388,122.4806 L155.9039,123.5698 L156.4957,124.6449 L157.1136,125.7051 L157.7573,126.7499 L158.4265,127.7785 L159.1208,128.7904 L159.8396,129.785 L160.5827,130.7616 L161.3495,131.7197 L162.1396,132.6586 L162.9524,133.5779 L163.7876,134.477 L164.6447,135.3553 L165.523,136.2124 L166.4221,137.0476 L167.3414,137.8604 L168.2803,138.6505 L169.2384,139.4173 L170.215,140.1604 L171.2096,140.8792 L172.2215,141.5735 L173.2501,142.2427 L174.2949,142.8864 L175.3551,143.5043 L176.4302,144.0961 L177.5194,144.6612 L178.6222,145.1995 L179.7379,145.7105 L180.8658,146.194 L182.0052,146.6496 L183.1555,147.0772 L184.3159,147.4764 L185.4858,147.847 L186.6644,148.1888 L187.851,148.5016 L189.0449,148.7851 L190.2455,149.0393 L191.4519,149.2639 L192.6635,149.4588 L193.8795,149.624 L195.0991,149.7592 L196.3218,149.8645 L197.5466,149.9398 L198.7729,149.9849 L200,150 L200,50 Z" fill="#FFFFFF"/>
  <path d="M150.0151,1.2271 L150.0602,2.4534 L150.1355,3.6782 L150.2408,4.9009 L150.376,6.1205 L150.5412,7.3365 L150.7361,8.5481 L150.9607,9.7545 L151.2149,10.9551 L151.4984,12.149 L151.8112,13.3356 L152.153,14.5142 L152.5236,15.6841 L152.9228,16.8445 L153.3504,17.9948 L153.806,19.1342 L154.2895,20.2621 L154.8005,21.3778 L155.3388,22.4806 L155.9039,23.5698 L156.4957,24.6449 L157.1136,25.7051 L157.7573,26.7499 L158.4265,27.7785 L159.1208,28.7904 L159.8396,29.785 L160.5827,30.7616 L161.3495,31.7197 L162.1396,32.6586 L162.9524,33.5779 L163.7876,34.477 L164.6447,35.3553 L165.523,36.2124 L166.4221,37.0476 L167.3414,37.8604 L168.2803,38.6505 L169.2384,39.4173 L170.215,40.1604 L171.2096,40.8792 L172.2215,41.5735 L173.2501,42.2427 L174.2949,42.8864 L175.3551,43.5044 L176.4302,44.0961 L177.5194,44.6612 L178.6222,45.1995 L179.7379,45.7105 L180.8658,46.194 L182.0052,46.6496 L183.1555,47.0772 L184.3159,47.4764 L185.4858,47.847 L186.6644,48.1888 L187.851,48.5016 L189.0449,48.7851 L190.2455,49.0393 L191.4519,49.2639 L192.6635,49.4588 L193.8795,49.624 L195.0991,49.7592 L196.3218,49.8645 L197.5466,49.9398 L198.7729,49.9849 L200,50 L200,0 L150,0 Z" fill="#FFFFFF"/>
  <path d="M198.7729,150.0151 L197.5466,150.0602 L196.3218,150.1355 L195.0991,150.2408 L193.8795,150.376 L192.6635,150.5412 L191.4519,150.7361 L190.2455,150.9607 L189.0449,151.2149 L187.851,151.4984 L186.6644,151.8112 L185.4858,152.153 L184.3159,152.5236 L183.1555,152.9228 L182.0052,153.3504 L180.8658,153.806 L179.7379,154.2895 L178.6222,154.8005 L177.5194,155.3388 L176.4302,155.9039 L175.3551,156.4957 L174.2949,157.1136 L173.2501,157.7573 L172.2215,158.4265 L171.2096,159.1208 L170.215,159.8396 L169.2384,160.5827 L168.2803,161.3495 L167.3414,162.1396 L166.4221,162.9524 L165.523,163.7876 L164.6447,164.6447 L163.7876,165.523 L162.9524,166.4221 L162.1396,167.3414 L161.3495,168.2803 L160.5827,169.2384 L159.8396,170.215 L159.1208,171.2096 L158.4265,172.2215 L157.7573,173.2501 L157.1136,174.2949 L156.4957,175.3551 L155.9039,176.4302 L155.3388,177.5194 L154.8005,178.6222 L154.2895,179.7379 L153.806,180.8658 L153.3504,182.0052 L152.9228,183.1555 L152.5236,184.3159 L152.153,185.4858 L151.8112,186.6644 L151.4984,187.851 L151.2149,189.0449 L150.9607,190.2455 L150.7361,191.4519 L150.5412,192.6635 L150.376,193.8795 L150.2408,195.0991 L150.1355,196.3218 L150.0602,197.5466 L150.0151,198.7729 L150,200 L200,200 L200,150 Z" fill="#FFFFFF"/></g>
<rect x="320.000" y="106.667" width="106.667" height="106.667" fill="#FFFFFF"/>
<g transform="translate(320.000,106.667) scale(0.53333) rotate(90,100,100)"><path d="M198.7729,50.0151 L197.5466,50.0602 L196.3218,50.1355 L195.0991,50.2408 L193.8795,50.376 L192.6635,50.5412 L191.4519,50.7361 L190.2455,50.9607 L189.0449,51.2149 L187.851,51.4984 L186.6644,51.8112 L185.4858,52.153 L184.3159,52.5236 L183.1555,52.9228 L182.0052,53.3504 L180.8658,53.806 L179.7379,54.2895 L178.6222,54.8005 L177.5194,55.3388 L176.4302,55.9039 L175.3551,56.4956 L174.2949,57.1136 L173.2501,57.7573 L172.2215,58.4265 L171.2096,59.1208 L170.215,59.8396 L169.2384,60.5827 L168.2803,61.3495 L167.3414,62.1396 L166.4221,62.9524 L165.523,63.7876 L164.6447,64.6447 L163.7876,65.523 L162.9524,66.4221 L162.1396,67.3414 L161.3495,68.2803 L160.5827,69.2384 L159.8396,70.215 L159.1208,71.2096 L158.4265,72.2215 L157.7573,73.2501 L157.1136,74.2949 L156.4957,75.3551 L155.9039,76.4302 L155.3388,77.5194 L154.8005,78.6222 L154.2895,79.7379 L153.806,80.8658 L153.3504,82.0052 L152.9228,83.1555 L152.5236,84.3159 L152.153,85.4858 L151.8112,86.6644 L151.4984,87.851 L151.2149,89.0449 L150.9607,90.2455 L150.7361,91.4519 L150.5412,92.6635 L150.376,93.8795 L150.2408,95.0991 L150.1355,96.3218 L150.0602,97.5466 L150.0151,98.7729 L150,100 L150.0151,101.2271 L150.0602,102.4534 L150.1355,103.6782 L150.2408,104.9009 L150.376,106.1205 L150.5412,107.3365 L150.7361,108.5481 L150.9607,109.7545 L151.2149,110.9551 L151.4984,112.149 L151.8112,113.3356 L152.153,114.5142 L152.5236,115.6841 L152.9228,116.8445 L153.3504,117.9948 L153.806,119.1342 L154.2895,120.2621 L154.8005,121.3778 L155.3388,122.4806 L155.9039,123.5698 L156.4957,124.6449 L157.1136,125.7051 L157.7573,126.7499 L158.4265,127.7785 L159.1208,128.7904 L159.8396,129.785 L160.5827,130.7616 L161.3495,131.7197 L162.1396,132.6586 L162.9524,133.5779 L163.7876,134.477 L164.6447,135.3553 L165.523,136.2124 L166.4221,137.0476 L167.3414,137.8604 L168.2803,138.6505 L169.2384,139.4173 L170.215,140.1604 L171.2096,140.8792 L172.2215,141.5735 L173.2501,142.2427 L174.2949,142.8864 L175.3551,143.5043 L176.4302,144.0961 L177.5194,144.6612 L178.6222,145.1995 L179.7379,145.7105 L180.8658,146.194 L182.0052,146.6496 L183.1555,147.0772 L184.3159,147.4764 L185.4858,147.847 L186.6644,148.1888 L187.851,148.5016 L189.0449,148.7851 L190.2455,149.0393 L191.4519,149.2639 L192.6635,149.4588 L193.8795,149.624 L195.0991,149.7592 L196.3218,149.8645 L197.5466,149.9398 L198.7729,149.9849 L200,150 L200,50 Z" fill="#4997D0"/>
  <path d="M150.0151,1.2271 L150.0602,2.4534 L150.1355,3.6782 L150.2408,4.9009 L150.376,6.1205 L150.5412,7.3365 L150.7361,8.5481 L150.9607,9.7545 L151.2149,10.9551 L151.4984,12.149 L151.8112,13.3356 L152.153,14.5142 L152.5236,15.6841 L152.9228,16.8445 L153.3504,17.9948 L153.806,19.1342 L154.2895,20.2621 L154.8005,21.3778 L155.3388,22.4806 L155.9039,23.5698 L156.4957,24.6449 L157.1136,25.7051 L157.7573,26.7499 L158.4265,27.7785 L159.1208,28.7904 L159.8396,29.785 L160.5827,30.7616 L161.3495,31.7197 L162.1396,32.6586 L162.9524,33.5779 L163.7876,34.477 L164.6447,35.3553 L165.523,36.2124 L166.4221,37.0476 L167.3414,37.8604 L168.2803,38.6505 L169.2384,39.4173 L170.215,40.1604 L171.2096,40.8792 L172.2215,41.5735 L173.2501,42.2427 L174.2949,42.8864 L175.3551,43.5044 L176.4302,44.0961 L177.5194,44.6612 L178.6222,45.1995 L179.7379,45.7105 L180.8658,46.194 L182.0052,46.6496 L183.1555,47.0772 L184.3159,47.4764 L185.4858,47.847 L186.6644,48.1888 L187.851,48.5016 L189.0449,48.7851 L190.2455,49.0393 L191.4519,49.2639 L192.6635,49.4588 L193.8795,49.624 L195.0991,49.7592 L196.3218,49.8645 L197.5466,49.9398 L198.7729,49.9849 L200,50 L200,0 L150,0 Z" fill="#4997D0"/>
  <path d="M198.7729,150.0151 L197.5466,150.0602 L196.3218,150.1355 L195.0991,150.2408 L193.8795,150.376 L192.6635,150.5412 L191.4519,150.7361 L190.2455,150.9607 L189.0449,151.2149 L187.851,151.4984 L186.6644,151.8112 L185.4858,152.153 L184.3159,152.5236 L183.1555,152.9228 L182.0052,153.3504 L180.8658,153.806 L179.7379,154.2895 L178.6222,154.8005 L177.5194,155.3388 L176.4302,155.9039 L175.3551,156.4957 L174.2949,157.1136 L173.2501,157.7573 L172.2215,158.4265 L171.2096,159.1208 L170.215,159.8396 L169.2384,160.5827 L168.2803,161.3495 L167.3414,162.1396 L166.4221,162.9524 L165.523,163.7876 L164.6447,164.6447 L163.7876,165.523 L162.9524,166.4221 L162.1396,167.3414 L161.3495,168.2803 L160.5827,169.2384 L159.8396,170.215 L159.1208,171.2096 L158.4265,172.2215 L157.7573,173.2501 L157.1136,174.2949 L156.4957,175.3551 L155.9039,176.4302 L155.3388,177.5194 L154.8005,178.6222 L154.2895,179.7379 L153.806,180.8658 L153.3504,182.0052 L152.9228,183.1555 L152.5236,184.3159 L152.153,185.4858 L151.8112,186.6644 L151.4984,187.851 L151.2149,189.0449 L150.9607,190.2455 L150.7361,191.4519 L150.5412,192.6635 L150.376,193.8795 L150.2408,195.0991 L150.1355,196.3218 L150.0602,197.5466 L150.0151,198.7729 L150,200 L200,200 L200,150 Z" fill="#4997D0"/></g>
<rect x="426.667" y="106.667" width="106.667" height="106.667" fill="#121212"/>
<g transform="translate(426.667,106.667) scale(0.53333) rotate(180,100,100)"><path d="M200 0 L170.711 29.2893 C125.435 74.5646 64.0289 100 0 100 L0 0 L100 0 L200 0 Z" fill="#FFFFFF"/></g>
<rect x="533.333" y="106.667" width="106.667" height="106.667" fill="#FFFFFF"/>
<g transform="translate(533.333,106.667) scale(0.53333)"><path d="M200 0L200 100L0 150L0 0L200 0Z" fill="#121212"/></g>
<rect x="0.000" y="213.333" width="106.667" height="106.667" fill="#121212"/>
<g transform="translate(0.000,213.333) scale(0.53333) rotate(180,100,100)"><path d="M200 0L200 100L0 150L0 0L200 0Z" fill="#4997D0"/></g>
<rect x="106.667" y="213.333" width="106.667" height="106.667" fill="#121212"/>
<g transform="translate(106.667,213.333) scale(0.53333) rotate(90,100,100)"><path d="M200 0L200 100L0 150L0 0L200 0Z" fill="#FFFFFF"/></g>
<rect x="213.333" y="213.333" width="106.667" height="106.667" fill="#FFFFFF"/>
<g transform="translate(213.333,213.333) scale(0.53333) rotate(180,100,100)"><path d="M100 0H0V100C0 44.772 44.772 0 100 0Z" fill="#121212"/>
  <path d="M50.0001 150C50.0001 122.387 27.6192 100 0.0001 100C0.0001 100 0.0001 122.387 0.0001 150C0.0001 163.81 0.0001 200 0.0001 200C27.6192 200 50.0001 177.613 50.0001 150Z" fill="#121212"/></g>
<rect x="533.333" y="213.333" width="106.667" height="106.667" fill="#FFFFFF"/>
<g transform="translate(533.333,213.333) scale(0.53333)"><path d="M200 0L200 100L0 150L0 0L200 0Z" fill="#4997D0"/></g>
</g>
<rect x="804" y="80" width="360" height="180.0" fill="none" stroke="#333" stroke-width="1"/>
<text x="804" y="278" font-family="Helvetica,Arial,sans-serif" font-size="12" fill="#EDE6D6">asymmetric_left s=260603</text>
<text x="804" y="296" font-family="Helvetica,Arial,sans-serif" font-size="11" fill="#8A8A8A">total 0.845   anc 0.65  rhy 0.77  dir 0.68  wei 1.00</text>
<text x="804" y="311" font-family="Helvetica,Arial,sans-serif" font-size="11" fill="#8A8A8A">neg 0.84  tem 0.37  fam 0.89  her 0.88  tmp 0.79</text>
<g transform="translate(40,352) scale(0.5625)">
<rect width="640" height="320" fill="#FFFFFF"/>
<rect x="0.000" y="0.000" width="213.333" height="213.333" fill="#FFFFFF"/>
<g transform="translate(0.000,0.000) scale(1.06667) rotate(90,100,100)"><path d="M195 5L195 195L5 195L5 5L195 5Z" fill="#4997D0"/>
  <path d="M200 0L0 200V0H200Z" fill="#4997D0"/>
  <path d="M100 200L200 100V200H100Z" fill="#4997D0"/></g>
<rect x="213.333" y="0.000" width="106.667" height="106.667" fill="#121212"/>
<g transform="translate(213.333,0.000) scale(0.53333) rotate(180,100,100)"><path d="M150 0L0.042 0L0 150C82.8188 150.024 149.976 82.842 150 0Z" fill="#4997D0"/></g>
<rect x="533.333" y="0.000" width="106.667" height="106.667" fill="#FFFFFF"/>
<g transform="translate(533.333,0.000) scale(0.53333) rotate(180,100,100)"><path d="M200 0L200 100L0 150L0 0L200 0Z" fill="#121212"/></g>
<rect x="213.333" y="106.667" width="106.667" height="106.667" fill="#FFFFFF"/>
<g transform="translate(213.333,106.667) scale(0.53333)"><path fill-rule="evenodd" clip-rule="evenodd" d="M100 135.417L100 149.167L190.047 149.167L190 199.953L200 200L200 0L190 0C190 107.037 159.583 135.417 100 135.417Z" fill="#121212"/></g>
<rect x="320.000" y="106.667" width="106.667" height="106.667" fill="#FFFFFF"/>
<g transform="translate(320.000,106.667) scale(0.53333)"><path fill-rule="evenodd" clip-rule="evenodd" d="M100 135.417L100 149.167L190.047 149.167L190 199.953L200 200L200 0L190 0C190 107.037 159.583 135.417 100 135.417Z" fill="#4997D0"/></g>
<rect x="426.667" y="106.667" width="106.667" height="106.667" fill="#FFFFFF"/>
<g transform="translate(426.667,106.667) scale(0.53333) rotate(90,100,100)"><path d="M150 0L0.042 0L0 150C82.8188 150.024 149.976 82.842 150 0Z" fill="#121212"/></g>
<rect x="533.333" y="106.667" width="106.667" height="106.667" fill="#121212"/>
<g transform="translate(533.333,106.667) scale(0.53333)"><path d="M150 0L150 150L0 150L0 0L150 0Z" fill="#FFFFFF"/></g>
<rect x="0.000" y="213.333" width="106.667" height="106.667" fill="#FFFFFF"/>
<g transform="translate(0.000,213.333) scale(0.53333) rotate(270,100,100)"><path d="M150 0L150 150L0 150L0 0L150 0Z" fill="#121212"/></g>
<rect x="106.667" y="213.333" width="106.667" height="106.667" fill="#FFFFFF"/>
<g transform="translate(106.667,213.333) scale(0.53333)"><path d="M150 0L150 150L0 150L0 0L150 0Z" fill="#4997D0"/></g>
<rect x="213.333" y="213.333" width="106.667" height="106.667" fill="#121212"/>
<g transform="translate(213.333,213.333) scale(0.53333) rotate(180,100,100)"><path fill-rule="evenodd" clip-rule="evenodd" d="M100 135.417L100 149.167L190.047 149.167L190 199.953L200 200L200 0L190 0C190 107.037 159.583 135.417 100 135.417Z" fill="#FFFFFF"/></g>
<rect x="533.333" y="213.333" width="106.667" height="106.667" fill="#121212"/>
<g transform="translate(533.333,213.333) scale(0.53333)"><path d="M150 0L0.042 0L0 150C82.8188 150.024 149.976 82.842 150 0Z" fill="#4997D0"/></g>
</g>
<rect x="40" y="352" width="360" height="180.0" fill="none" stroke="#333" stroke-width="1"/>
<text x="40" y="550" font-family="Helvetica,Arial,sans-serif" font-size="12" fill="#EDE6D6">asymmetric_left s=260603</text>
<text x="40" y="568" font-family="Helvetica,Arial,sans-serif" font-size="11" fill="#8A8A8A">total 0.844   anc 0.70  rhy 0.97  dir 0.71  wei 1.00</text>
<text x="40" y="583" font-family="Helvetica,Arial,sans-serif" font-size="11" fill="#8A8A8A">neg 0.82  tem 0.39  fam 0.53  her 0.88  tmp 0.75</text>
<g transform="translate(422,352) scale(0.5625)">
<rect width="640" height="320" fill="#FFFFFF"/>
<rect x="0.000" y="0.000" width="213.333" height="213.333" fill="#121212"/>
<g transform="translate(0.000,0.000) scale(1.06667) rotate(180,100,100)"><path d="M99.242,194.769 L102.904,185.896 L102.904,185.896 L105.3339,180.2717 L107.3212,174.5778 L108.8738,168.834 L110,163.06 L110.708,157.2752 L111.0058,151.4994 L110.9015,145.7521 L110.4033,140.053 L109.5193,134.4218 L108.2577,128.8779 L106.6265,123.4411 L104.634,118.131 L102.2882,112.9672 L99.5973,107.9692 L96.5695,103.1569 L93.2127,98.5496 L89.5353,94.1672 L85.5452,90.0291 L81.2508,86.1551 L76.6599,82.5647 L71.7809,79.2776 L66.6218,76.3133 L61.1908,73.6916 L55.496,71.432 L55.496,71.432 L51.2937,69.8216 L47.257,68.0428 L43.3857,66.1025 L39.68,64.0074 L36.1397,61.7642 L32.7649,59.3798 L29.5556,56.8607 L26.5117,54.2139 L23.6333,51.4461 L20.9204,48.564 L18.373,45.5744 L15.991,42.484 L13.7745,39.2996 L11.7234,36.028 L9.8378,32.6759 L8.1176,29.2501 L6.5629,25.7573 L5.1736,22.2043 L3.9498,18.5978 L2.8914,14.9446 L1.9984,11.2515 L1.2709,7.5252 L0.7087,3.7724 L0.312,0 L0.312,0 L0.299,0 L0.286,0 L0.273,0 L0.26,0 L0.247,0 L0.234,0 L0.221,0 L0.208,0 L0.195,0 L0.182,0 L0.169,0 L0.156,0 L0.143,0 L0.13,0 L0.117,0 L0.104,0 L0.091,0 L0.078,0 L0.065,0 L0.052,0 L0.039,0 L0.026,0 L0.013,0 L0,0 L0,0 L0,16.6667 L0,33.3333 L0,50 L0,66.6667 L0,83.3333 L0,100 L0,116.6667 L0,133.3333 L0,150 L0,166.6667 L0,183.3333 L0,200 L97.7134,200 Z" fill="#4997D0"/></g>
<rect x="213.333" y="0.000" width="106.667" height="106.667" fill="#FFFFFF"/>
<g transform="translate(213.333,0.000) scale(0.53333) rotate(90,100,100)"><path d="M150 0L150 150L0 150L0 0L150 0Z" fill="#121212"/></g>
<rect x="320.000" y="0.000" width="106.667" height="106.667" fill="#121212"/>
<g transform="translate(320.000,0.000) scale(0.53333)"><ellipse cx="100" cy="100" rx="75" ry="50" transform="rotate(90 100 100)" fill="#FFFFFF"/></g>
<rect x="426.667" y="0.000" width="106.667" height="106.667" fill="#121212"/>
<g transform="translate(426.667,0.000) scale(0.53333) rotate(180,100,100)"><path d="M99.242,194.769 L102.904,185.896 L102.904,185.896 L105.3339,180.2717 L107.3212,174.5778 L108.8738,168.834 L110,163.06 L110.708,157.2752 L111.0058,151.4994 L110.9015,145.7521 L110.4033,140.053 L109.5193,134.4218 L108.2577,128.8779 L106.6265,123.4411 L104.634,118.131 L102.2882,112.9672 L99.5973,107.9692 L96.5695,103.1569 L93.2127,98.5496 L89.5353,94.1672 L85.5452,90.0291 L81.2508,86.1551 L76.6599,82.5647 L71.7809,79.2776 L66.6218,76.3133 L61.1908,73.6916 L55.496,71.432 L55.496,71.432 L51.2937,69.8216 L47.257,68.0428 L43.3857,66.1025 L39.68,64.0074 L36.1397,61.7642 L32.7649,59.3798 L29.5556,56.8607 L26.5117,54.2139 L23.6333,51.4461 L20.9204,48.564 L18.373,45.5744 L15.991,42.484 L13.7745,39.2996 L11.7234,36.028 L9.8378,32.6759 L8.1176,29.2501 L6.5629,25.7573 L5.1736,22.2043 L3.9498,18.5978 L2.8914,14.9446 L1.9984,11.2515 L1.2709,7.5252 L0.7087,3.7724 L0.312,0 L0.312,0 L0.299,0 L0.286,0 L0.273,0 L0.26,0 L0.247,0 L0.234,0 L0.221,0 L0.208,0 L0.195,0 L0.182,0 L0.169,0 L0.156,0 L0.143,0 L0.13,0 L0.117,0 L0.104,0 L0.091,0 L0.078,0 L0.065,0 L0.052,0 L0.039,0 L0.026,0 L0.013,0 L0,0 L0,0 L0,16.6667 L0,33.3333 L0,50 L0,66.6667 L0,83.3333 L0,100 L0,116.6667 L0,133.3333 L0,150 L0,166.6667 L0,183.3333 L0,200 L97.7134,200 Z" fill="#4997D0"/></g>
<rect x="213.333" y="106.667" width="106.667" height="106.667" fill="#121212"/>
<g transform="translate(213.333,106.667) scale(0.53333) rotate(90,100,100)"><path d="M100 0L0 100L0 0L100 0Z" fill="#FFFFFF"/>
  <path d="M100 200L200 100L200 200L100 200Z" fill="#FFFFFF"/></g>
<rect x="320.000" y="106.667" width="106.667" height="106.667" fill="#FFFFFF"/>
<g transform="translate(320.000,106.667) scale(0.53333) rotate(180,100,100)"><ellipse cx="100" cy="100" rx="75" ry="50" transform="rotate(90 100 100)" fill="#4997D0"/></g>
<rect x="426.667" y="106.667" width="106.667" height="106.667" fill="#FFFFFF"/>
<g transform="translate(426.667,106.667) scale(0.53333) rotate(180,100,100)"><path d="M150 0L150 150L0 150L0 0L150 0Z" fill="#121212"/></g>
<rect x="533.333" y="106.667" width="106.667" height="106.667" fill="#121212"/>
<g transform="translate(533.333,106.667) scale(0.53333) rotate(270,100,100)"><path d="M150 0L150 150L0 150L0 0L150 0Z" fill="#FFFFFF"/></g>
<rect x="0.000" y="213.333" width="106.667" height="106.667" fill="#FFFFFF"/>
<g transform="translate(0.000,213.333) scale(0.53333)"><path d="M150 0L150 150L0 150L0 0L150 0Z" fill="#121212"/></g>
<rect x="106.667" y="213.333" width="106.667" height="106.667" fill="#121212"/>
<g transform="translate(106.667,213.333) scale(0.53333) rotate(180,100,100)"><ellipse cx="100" cy="100" rx="75" ry="50" transform="rotate(90 100 100)" fill="#FFFFFF"/></g>
<rect x="426.667" y="213.333" width="106.667" height="106.667" fill="#121212"/>
<g transform="translate(426.667,213.333) scale(0.53333)"><path d="M150 0L150 150L0 150L0 0L150 0Z" fill="#4997D0"/></g>
<rect x="533.333" y="213.333" width="106.667" height="106.667" fill="#FFFFFF"/>
<g transform="translate(533.333,213.333) scale(0.53333) rotate(270,100,100)"><path d="M150 0L150 150L0 150L0 0L150 0Z" fill="#121212"/></g>
</g>
<rect x="422" y="352" width="360" height="180.0" fill="none" stroke="#333" stroke-width="1"/>
<text x="422" y="550" font-family="Helvetica,Arial,sans-serif" font-size="12" fill="#EDE6D6">corner_anchor s=260603</text>
<text x="422" y="568" font-family="Helvetica,Arial,sans-serif" font-size="11" fill="#8A8A8A">total 0.843   anc 1.00  rhy 0.82  dir 0.64  wei 1.00</text>
<text x="422" y="583" font-family="Helvetica,Arial,sans-serif" font-size="11" fill="#8A8A8A">neg 0.78  tem 0.44  fam 0.82  her 0.72  tmp 0.65</text>
<g transform="translate(804,352) scale(0.5625)">
<rect width="640" height="320" fill="#FFFFFF"/>
<rect x="106.667" y="0.000" width="106.667" height="106.667" fill="#121212"/>
<g transform="translate(106.667,0.000) scale(0.53333) rotate(270,100,100)"><circle cx="100" cy="100" r="50" fill="#4997D0"/></g>
<rect x="213.333" y="0.000" width="106.667" height="106.667" fill="#121212"/>
<g transform="translate(213.333,0.000) scale(0.53333) rotate(90,100,100)"><path d="M150 0L0.042 0L0 150C82.8188 150.024 149.976 82.842 150 0Z" fill="#FFFFFF"/></g>
<rect x="320.000" y="0.000" width="106.667" height="106.667" fill="#FFFFFF"/>
<g transform="translate(320.000,0.000) scale(0.53333) rotate(180,100,100)"><!-- Generator: Adobe Illustrator 30.2.1, SVG Export Plug-In . SVG Version: 2.1.1 Build 1)  -->
  
  <path d="M50,200h75c0-41.42,33.58-75,75-75V50c-82.84,0-150,67.16-150,150Z" fill="#4997D0"/></g>
<rect x="426.667" y="0.000" width="106.667" height="106.667" fill="#121212"/>
<g transform="translate(426.667,0.000) scale(0.53333)"><path d="M150 0L0.042 0L0 150C82.8188 150.024 149.976 82.842 150 0Z" fill="#FFFFFF"/></g>
<rect x="0.000" y="106.667" width="213.333" height="213.333" fill="#FFFFFF"/>
<g transform="translate(0.000,106.667) scale(1.06667) rotate(180,100,100)"><path d="M150 100H200C200 44.772 155.228 0 100 0C44.772 0 0 44.772 0 100H50C50 100 72.384 100 100 100C127.616 100 150 100 150 100Z" fill="#4997D0"/>
  <path d="M45 200H65V100H45V200Z" fill="#4997D0"/>
  <path d="M90 200H110V100H90V200Z" fill="#4997D0"/>
  <path d="M135 200H155V100H135V200Z" fill="#4997D0"/>
  <path d="M0 200H20V100H0V200Z" fill="#4997D0"/>
  <path d="M180 200H200V100H180V200Z" fill="#4997D0"/></g>
<rect x="213.333" y="106.667" width="106.667" height="106.667" fill="#FFFFFF"/>
<g transform="translate(213.333,106.667) scale(0.53333) rotate(90,100,100)"><path d="M150 100H200C200 44.772 155.228 0 100 0C44.772 0 0 44.772 0 100H50C50 100 72.384 100 100 100C127.616 100 150 100 150 100Z" fill="#4997D0"/>
  <path d="M45 200H65V100H45V200Z" fill="#4997D0"/>
  <path d="M90 200H110V100H90V200Z" fill="#4997D0"/>
  <path d="M135 200H155V100H135V200Z" fill="#4997D0"/>
  <path d="M0 200H20V100H0V200Z" fill="#4997D0"/>
  <path d="M180 200H200V100H180V200Z" fill="#4997D0"/></g>
<rect x="320.000" y="106.667" width="106.667" height="106.667" fill="#121212"/>
<g transform="translate(320.000,106.667) scale(0.53333) rotate(180,100,100)"><path d="M150 0L0.042 0L0 150C82.8188 150.024 149.976 82.842 150 0Z" fill="#FFFFFF"/></g>
<rect x="426.667" y="106.667" width="106.667" height="106.667" fill="#FFFFFF"/>
<g transform="translate(426.667,106.667) scale(0.53333) rotate(270,100,100)"><circle cx="100" cy="100" r="50" fill="#121212"/></g>
<rect x="213.333" y="213.333" width="106.667" height="106.667" fill="#FFFFFF"/>
<g transform="translate(213.333,213.333) scale(0.53333) rotate(180,100,100)"><path d="M150 0L0.042 0L0 150C82.8188 150.024 149.976 82.842 150 0Z" fill="#121212"/></g>
<rect x="320.000" y="213.333" width="106.667" height="106.667" fill="#FFFFFF"/>
<g transform="translate(320.000,213.333) scale(0.53333) rotate(180,100,100)"><circle cx="100" cy="100" r="50" fill="#4997D0"/></g>
</g>
<rect x="804" y="352" width="360" height="180.0" fill="none" stroke="#333" stroke-width="1"/>
<text x="804" y="550" font-family="Helvetica,Arial,sans-serif" font-size="12" fill="#EDE6D6">diagonal_sweep s=260603</text>
<text x="804" y="568" font-family="Helvetica,Arial,sans-serif" font-size="11" fill="#8A8A8A">total 0.834   anc 0.70  rhy 0.97  dir 0.65  wei 0.73</text>
<text x="804" y="583" font-family="Helvetica,Arial,sans-serif" font-size="11" fill="#8A8A8A">neg 0.75  tem 0.49  fam 0.91  her 0.82  tmp 0.76</text>
<g transform="translate(40,624) scale(0.5625)">
<rect width="640" height="320" fill="#FFFFFF"/>
<rect x="106.667" y="0.000" width="106.667" height="106.667" fill="#FFFFFF"/>
<g transform="translate(106.667,0.000) scale(0.53333) rotate(180,100,100)"><path d="M100 0L100 150L0 200L0 0L100 0Z" fill="#121212"/></g>
<rect x="213.333" y="0.000" width="106.667" height="106.667" fill="#121212"/>
<g transform="translate(213.333,0.000) scale(0.53333)"><path d="M150 50L150 150L50 150L50 50L150 50Z" fill="#FFFFFF"/></g>
<rect x="320.000" y="0.000" width="106.667" height="106.667" fill="#FFFFFF"/>
<g transform="translate(320.000,0.000) scale(0.53333) rotate(180,100,100)"><path d="M100 0L100 50L0 100L0 0L100 0Z" fill="#121212"/></g>
<rect x="426.667" y="0.000" width="106.667" height="213.333" fill="#121212"/>
<g transform="translate(426.667,0.000) scale(0.53333)"><path d="M100 0L100 150L0 200L0 0L100 0Z" fill="#4997D0"/></g>
<rect x="0.000" y="106.667" width="106.667" height="106.667" fill="#FFFFFF"/>
<g transform="translate(0.000,106.667) scale(0.53333)"><path d="M100 0L100 150L0 200L0 0L100 0Z" fill="#121212"/></g>
<rect x="106.667" y="106.667" width="106.667" height="106.667" fill="#FFFFFF"/>
<g transform="translate(106.667,106.667) scale(0.53333) rotate(180,100,100)"><path d="M100 0L100 50L0 100L0 0L100 0Z" fill="#4997D0"/></g>
<rect x="213.333" y="106.667" width="106.667" height="106.667" fill="#FFFFFF"/>
<g transform="translate(213.333,106.667) scale(0.53333) rotate(180,100,100)"><path d="M100 0L100 50L0 100L0 0L100 0Z" fill="#121212"/></g>
<rect x="533.333" y="106.667" width="106.667" height="106.667" fill="#121212"/>
<g transform="translate(533.333,106.667) scale(0.53333) rotate(180,100,100)"><path d="M99.242,194.769 L102.904,185.896 L102.904,185.896 L105.3339,180.2717 L107.3212,174.5778 L108.8738,168.834 L110,163.06 L110.708,157.2752 L111.0058,151.4994 L110.9015,145.7521 L110.4033,140.053 L109.5193,134.4218 L108.2577,128.8779 L106.6265,123.4411 L104.634,118.131 L102.2882,112.9672 L99.5973,107.9692 L96.5695,103.1569 L93.2127,98.5496 L89.5353,94.1672 L85.5452,90.0291 L81.2508,86.1551 L76.6599,82.5647 L71.7809,79.2776 L66.6218,76.3133 L61.1908,73.6916 L55.496,71.432 L55.496,71.432 L51.2937,69.8216 L47.257,68.0428 L43.3857,66.1025 L39.68,64.0074 L36.1397,61.7642 L32.7649,59.3798 L29.5556,56.8607 L26.5117,54.2139 L23.6333,51.4461 L20.9204,48.564 L18.373,45.5744 L15.991,42.484 L13.7745,39.2996 L11.7234,36.028 L9.8378,32.6759 L8.1176,29.2501 L6.5629,25.7573 L5.1736,22.2043 L3.9498,18.5978 L2.8914,14.9446 L1.9984,11.2515 L1.2709,7.5252 L0.7087,3.7724 L0.312,0 L0.312,0 L0.299,0 L0.286,0 L0.273,0 L0.26,0 L0.247,0 L0.234,0 L0.221,0 L0.208,0 L0.195,0 L0.182,0 L0.169,0 L0.156,0 L0.143,0 L0.13,0 L0.117,0 L0.104,0 L0.091,0 L0.078,0 L0.065,0 L0.052,0 L0.039,0 L0.026,0 L0.013,0 L0,0 L0,0 L0,16.6667 L0,33.3333 L0,50 L0,66.6667 L0,83.3333 L0,100 L0,116.6667 L0,133.3333 L0,150 L0,166.6667 L0,183.3333 L0,200 L97.7134,200 Z" fill="#4997D0"/></g>
<rect x="213.333" y="213.333" width="106.667" height="106.667" fill="#121212"/>
<g transform="translate(213.333,213.333) scale(0.53333)"><path d="M200 0L0 200L0 0L200 0Z" fill="#4997D0"/>
  <path d="M200 100 L100 200 C100 144.772 144.772 100 200 100 Z" fill="#4997D0"/>
  <path d="M100 200L200 100L200 200L100 200Z" fill="#4997D0"/></g>
<rect x="320.000" y="213.333" width="106.667" height="106.667" fill="#FFFFFF"/>
<g transform="translate(320.000,213.333) scale(0.53333) rotate(180,100,100)"><path d="M100 0L100 50L0 100L0 0L100 0Z" fill="#121212"/></g>
<rect x="426.667" y="213.333" width="106.667" height="106.667" fill="#FFFFFF"/>
<g transform="translate(426.667,213.333) scale(0.53333) rotate(180,100,100)"><path d="M100 0L100 150L0 200L0 0L100 0Z" fill="#4997D0"/></g>
<rect x="533.333" y="213.333" width="106.667" height="106.667" fill="#FFFFFF"/>
<g transform="translate(533.333,213.333) scale(0.53333)"><path d="M100 0L100 50L0 100L0 0L100 0Z" fill="#121212"/></g>
</g>
<rect x="40" y="624" width="360" height="180.0" fill="none" stroke="#333" stroke-width="1"/>
<text x="40" y="822" font-family="Helvetica,Arial,sans-serif" font-size="12" fill="#EDE6D6">scattered_focal s=260603</text>
<text x="40" y="840" font-family="Helvetica,Arial,sans-serif" font-size="11" fill="#8A8A8A">total 0.831   anc 0.90  rhy 0.73  dir 0.62  wei 1.00</text>
<text x="40" y="855" font-family="Helvetica,Arial,sans-serif" font-size="11" fill="#8A8A8A">neg 0.76  tem 0.45  fam 0.97  her 0.68  tmp 0.72</text>
<g transform="translate(422,624) scale(0.5625)">
<rect width="640" height="320" fill="#FFFFFF"/>
<rect x="0.000" y="0.000" width="213.333" height="213.333" fill="#FFFFFF"/>
<g transform="translate(0.000,0.000) scale(1.06667) rotate(180,100,100)"><!-- Generator: Adobe Illustrator 30.2.1, SVG Export Plug-In . SVG Version: 2.1.1 Build 1)  -->
  
  <path d="M0,50v75c41.42,0,75,33.58,75,75h75C150,117.16,82.84,50,0,50Z" fill="#4997D0"/>
  <path d="M0,0c110.46,0,200,89.54,200,200V0H0Z" fill="#4997D0"/></g>
<rect x="213.333" y="0.000" width="106.667" height="106.667" fill="#121212"/>
<g transform="translate(213.333,0.000) scale(0.53333)"><path d="M200 0L200 100L0 100L0 0L200 0Z" fill="#FFFFFF"/></g>
<rect x="320.000" y="0.000" width="106.667" height="106.667" fill="#121212"/>
<g transform="translate(320.000,0.000) scale(0.53333)"><path d="M100 0L0.028 0L0 100C55.2126 100.016 99.984 55.228 100 0Z" fill="#4997D0"/></g>
<rect x="426.667" y="0.000" width="106.667" height="106.667" fill="#FFFFFF"/>
<g transform="translate(426.667,0.000) scale(0.53333) rotate(180,100,100)"><path d="M200 0L200 100L0 100L0 0L200 0Z" fill="#121212"/></g>
<rect x="213.333" y="106.667" width="106.667" height="106.667" fill="#FFFFFF"/>
<g transform="translate(213.333,106.667) scale(0.53333)"><circle cx="100" cy="100" r="50" fill="#121212"/></g>
<rect x="320.000" y="106.667" width="106.667" height="106.667" fill="#121212"/>
<g transform="translate(320.000,106.667) scale(0.53333) rotate(90,100,100)"><circle cx="100" cy="100" r="50" fill="#FFFFFF"/></g>
<rect x="426.667" y="106.667" width="106.667" height="106.667" fill="#FFFFFF"/>
<g transform="translate(426.667,106.667) scale(0.53333) rotate(270,100,100)"><path d="M200 0L200 100L0 100L0 0L200 0Z" fill="#4997D0"/></g>
<rect x="533.333" y="106.667" width="106.667" height="106.667" fill="#121212"/>
<g transform="translate(533.333,106.667) scale(0.53333) rotate(180,100,100)"><path d="M200 0L200 100L0 100L0 0L200 0Z" fill="#FFFFFF"/></g>
<rect x="0.000" y="213.333" width="106.667" height="106.667" fill="#FFFFFF"/>
<g transform="translate(0.000,213.333) scale(0.53333)"><path d="M200 0L200 100L0 100L0 0L200 0Z" fill="#121212"/></g>
<rect x="106.667" y="213.333" width="106.667" height="106.667" fill="#121212"/>
<g transform="translate(106.667,213.333) scale(0.53333) rotate(90,100,100)"><path d="M100 0L0.028 0L0 100C55.2126 100.016 99.984 55.228 100 0Z" fill="#FFFFFF"/></g>
<rect x="426.667" y="213.333" width="106.667" height="106.667" fill="#121212"/>
<g transform="translate(426.667,213.333) scale(0.53333) rotate(180,100,100)"><path d="M200 0L200 100L0 100L0 0L200 0Z" fill="#FFFFFF"/></g>
<rect x="533.333" y="213.333" width="106.667" height="106.667" fill="#FFFFFF"/>
<g transform="translate(533.333,213.333) scale(0.53333)"><!-- Generator: Adobe Illustrator 30.2.1, SVG Export Plug-In . SVG Version: 2.1.1 Build 1)  -->
  
  <path d="M0,50v75c41.42,0,75,33.58,75,75h75C150,117.16,82.84,50,0,50Z" fill="#4997D0"/>
  <path d="M0,0c110.46,0,200,89.54,200,200V0H0Z" fill="#4997D0"/></g>
</g>
<rect x="422" y="624" width="360" height="180.0" fill="none" stroke="#333" stroke-width="1"/>
<text x="422" y="822" font-family="Helvetica,Arial,sans-serif" font-size="12" fill="#EDE6D6">corner_anchor s=260603</text>
<text x="422" y="840" font-family="Helvetica,Arial,sans-serif" font-size="11" fill="#8A8A8A">total 0.829   anc 0.80  rhy 0.65  dir 0.65  wei 1.00</text>
<text x="422" y="855" font-family="Helvetica,Arial,sans-serif" font-size="11" fill="#8A8A8A">neg 0.79  tem 0.39  fam 0.82  her 0.88  tmp 0.82</text>
</svg>
