<?xml version="1.0" encoding="UTF-8"?>
<svg xmlns="http://www.w3.org/2000/svg" width="200" height="200" viewBox="0 0 200 200">
  <path d="M199.1357,102.6482 L197.4770,103.0780 L195.8203,103.4714 L194.1660,103.8289 L192.5144,104.1508 L190.8657,104.4373 L189.2204,104.6889 L187.5787,104.9057 L185.9410,105.0882 L184.3075,105.2366 L182.6786,105.3513 L181.0547,105.4326 L179.4359,105.4808 L177.8227,105.4961 L176.2153,105.4791 L174.6141,105.4298 L173.0193,105.3487 L171.4314,105.2361 L169.8506,105.0923 L168.2772,104.9176 L166.7116,104.7124 L165.1540,104.4769 L163.6048,104.2114 L162.0644,103.9164 L160.5329,103.5920 L159.0108,103.2387 L157.4984,102.8567 L155.9959,102.4463 L154.5037,102.0079 L153.0221,101.5418 L151.5514,101.0483 L150.0920,100.5277 L148.6441,99.9804 L147.2081,99.4066 L145.7842,98.8066 L144.3729,98.1809 L142.9744,97.5296 L141.5891,96.8532 L140.2172,96.1519 L138.8591,95.4261 L137.5150,94.6760 L136.1854,93.9020 L134.8705,93.1045 L133.5707,92.2836 L132.2862,91.4398 L131.0174,90.5733 L129.7645,89.6846 L128.5280,88.7738 L127.3081,87.8413 L126.1052,86.8874 L124.9195,85.9125 L123.7513,84.9168 L122.6011,83.9007 L121.4691,82.8645 L120.3556,81.8085 L119.2610,80.7330 L118.1855,79.6384 L117.1295,78.5249 L116.0933,77.3929 L115.0772,76.2427 L114.0816,75.0746 L113.1067,73.8889 L112.1528,72.6860 L111.2203,71.4661 L110.3096,70.2296 L109.4208,68.9768 L108.5544,67.7080 L107.7106,66.4235 L106.8898,65.1237 L106.0923,63.8089 L105.3183,62.4793 L104.5683,61.1353 L103.8425,59.7772 L103.1413,58.4054 L102.4649,57.0201 L101.8137,55.6217 L101.1880,54.2104 L100.5882,52.7866 L100.0144,51.3507 L99.4671,49.9029 L98.9466,48.4435 L98.4532,46.9729 L97.9872,45.4914 L97.5488,43.9993 L97.1386,42.4969 L96.7566,40.9845 L96.4034,39.4625 L96.0791,37.9311 L95.7842,36.3908 L95.5188,34.8417 L95.2834,33.2842 L95.0783,31.7187 L94.9037,30.1454 L94.7600,28.5647 L94.6475,26.9769 L94.5665,25.3823 L94.5174,23.7812 L94.5004,22.1739 L94.5159,20.5608 L94.5642,18.9422 L94.6456,17.3183 L94.7605,15.6896 L94.9090,14.0562 L95.0916,12.4186 L95.3086,10.7771 L95.5603,9.1319 L95.8470,7.4834 L96.1690,5.8320 L96.5267,4.1778 L96.9203,2.5213 L97.3502,0.8627 L97.5926,0.0000 L0.0000,0.0000 L0.0000,3.1250 L0.0000,6.2500 L0.0000,9.3750 L0.0000,12.5000 L0.0000,15.6250 L0.0000,18.7500 L0.0000,21.8750 L0.0000,25.0000 L0.0000,28.1250 L0.0000,31.2500 L0.0000,34.3750 L0.0000,37.5000 L0.0000,40.6250 L0.0000,43.7500 L0.0000,46.8750 L0.0000,50.0000 L0.0000,53.1250 L0.0000,56.2500 L0.0000,59.3750 L0.0000,62.5000 L0.0000,65.6250 L0.0000,68.7500 L0.0000,71.8750 L0.0000,75.0000 L0.0000,78.1250 L0.0000,81.2500 L0.0000,84.3750 L0.0000,87.5000 L0.0000,90.6250 L0.0000,93.7500 L0.0000,96.8750 L0.0000,100.0000 L0.0000,103.1250 L0.0000,106.2500 L0.0000,109.3750 L0.0000,112.5000 L0.0000,115.6250 L0.0000,118.7500 L0.0000,121.8750 L0.0000,125.0000 L0.0000,128.1250 L0.0000,131.2500 L0.0000,134.3750 L0.0000,137.5000 L0.0000,140.6250 L0.0000,143.7500 L0.0000,146.8750 L0.0000,150.0000 L0.0000,153.1250 L0.0000,156.2500 L0.0000,159.3750 L0.0000,162.5000 L0.0000,165.6250 L0.0000,168.7500 L0.0000,171.8750 L0.0000,175.0000 L0.0000,178.1250 L0.0000,181.2500 L0.0000,184.3750 L0.0000,187.5000 L0.0000,190.6250 L0.0000,193.7500 L0.0000,196.8750 L0.0000,200.0000 L3.1250,200.0000 L6.2500,200.0000 L9.3750,200.0000 L12.5000,200.0000 L15.6250,200.0000 L18.7500,200.0000 L21.8750,200.0000 L25.0000,200.0000 L28.1250,200.0000 L31.2500,200.0000 L34.3750,200.0000 L37.5000,200.0000 L40.6250,200.0000 L43.7500,200.0000 L46.8750,200.0000 L50.0000,200.0000 L53.1250,200.0000 L56.2500,200.0000 L59.3750,200.0000 L62.5000,200.0000 L65.6250,200.0000 L68.7500,200.0000 L71.8750,200.0000 L75.0000,200.0000 L78.1250,200.0000 L81.2500,200.0000 L84.3750,200.0000 L87.5000,200.0000 L90.6250,200.0000 L93.7500,200.0000 L96.8750,200.0000 L100.0000,200.0000 L103.1250,200.0000 L106.2500,200.0000 L109.3750,200.0000 L112.5000,200.0000 L115.6250,200.0000 L118.7500,200.0000 L121.8750,200.0000 L125.0000,200.0000 L128.1250,200.0000 L131.2500,200.0000 L134.3750,200.0000 L137.5000,200.0000 L140.6250,200.0000 L143.7500,200.0000 L146.8750,200.0000 L150.0000,200.0000 L153.1250,200.0000 L156.2500,200.0000 L159.3750,200.0000 L162.5000,200.0000 L165.6250,200.0000 L168.7500,200.0000 L171.8750,200.0000 L175.0000,200.0000 L178.1250,200.0000 L181.2500,200.0000 L184.3750,200.0000 L187.5000,200.0000 L190.6250,200.0000 L193.7500,200.0000 L196.8750,200.0000 L200.0000,200.0000 L200.0000,102.4055 Z" fill="#121212"/>
</svg>
