<?xml version="1.0" encoding="UTF-8"?>
<svg xmlns="http://www.w3.org/2000/svg" width="200" height="200" viewBox="0 0 200 200">
  <path d="M196.372273,103.344273 L187.578734,104.905734 L178.897519,105.489519 L170.376705,105.143705 L162.064375,103.916375 L154.008607,101.855607 L146.257481,99.009481 L138.859078,95.426078 L131.861477,91.153477 L125.312758,86.239758 L119.261,80.733 L113.754284,74.681284 L108.84069,68.13269 L104.568297,61.135297 L100.985185,53.737185 L98.139435,45.986435 L96.079125,37.931125 L94.852336,29.619336 L94.507148,21.099148 L95.091641,12.418641 L96.653894,3.625894 L97.713423,0 L0,0 L0,16.666667 L0,33.333333 L0,50 L0,66.666667 L0,83.333333 L0,100 L0,116.666667 L0,133.333333 L0,150 L0,166.666667 L0,183.333333 L0,200 L16.666675,200 L33.333341,200 L50,200 L66.666674,200 L83.33334,200 L100,200 L116.666673,200 L133.333339,200 L150,200 L166.666672,200 L183.333338,200 L200,200 L200,102.284671 Z" fill="#121212"/>
</svg>
