<?xml version='1.0' encoding='UTF-8'?>
<svg xmlns="http://www.w3.org/2000/svg" version="1.1" width="1920" height="960" viewBox="0 0 1920 960">
<rect x="0.000" y="0.000" width="320.000" height="320.000" fill="#FFFFFF"/>
<g transform="translate(0.000,0.000) scale(1.60000)"><path d="M200 0L158.802 14.981C131.366 24.9578 105.224 38.1843 80.9328 54.3781C56.3423 70.7718 30.613 85.3893 3.9409 98.1191L0 100L0 0L200 0Z" fill="#121212"/></g>
<rect x="320.000" y="0.000" width="320.000" height="320.000" fill="#121212"/>
<g transform="translate(320.000,0.000) scale(1.60000)"><path d="M200 0L158.802 14.981C131.366 24.9578 105.224 38.1843 80.9328 54.3781C56.3423 70.7718 30.613 85.3893 3.9409 98.1191L0 100L0 0L200 0Z" fill="#FFFFFF"/></g>
<rect x="640.000" y="0.000" width="320.000" height="320.000" fill="#121212"/>
<g transform="translate(640.000,0.000) scale(1.60000)"><path d="M200 0L158.802 14.981C131.366 24.9578 105.224 38.1843 80.9328 54.3781C56.3423 70.7718 30.613 85.3893 3.9409 98.1191L0 100L0 0L200 0Z" fill="#FF4F00"/></g>
<rect x="960.000" y="0.000" width="320.000" height="320.000" fill="#121212"/>
<g transform="translate(960.000,0.000) scale(1.60000) rotate(180,100,100)"><path d="M200 0 C200 82.8427 132.843 150 50 150 L0 150 L0 0 L200 0 Z" fill="#FFFFFF"/></g>
<rect x="1280.000" y="0.000" width="320.000" height="320.000" fill="#FFFFFF"/>
<g transform="translate(1280.000,0.000) scale(1.60000) rotate(90,100,100)"><path d="M200 0 C200 82.8427 132.843 150 50 150 L0 150 L0 0 L200 0 Z" fill="#121212"/></g>
<rect x="1600.000" y="0.000" width="320.000" height="320.000" fill="#121212"/>
<g transform="translate(1600.000,0.000) scale(1.60000) rotate(90,100,100)"><!-- Generator: Adobe Illustrator 30.2.1, SVG Export Plug-In . SVG Version: 2.1.1 Build 1)  -->
  
  <path d="M50,200h75c0-41.42,33.58-75,75-75V50c-82.84,0-150,67.16-150,150Z" fill="#FF4F00"/></g>
<rect x="0.000" y="320.000" width="320.000" height="320.000" fill="#121212"/>
<g transform="translate(0.000,320.000) scale(1.60000) rotate(270,100,100)"><path d="M200 0L158.802 14.981C131.366 24.9578 105.224 38.1843 80.9328 54.3781C56.3423 70.7718 30.613 85.3893 3.9409 98.1191L0 100L0 0L200 0Z" fill="#FFFFFF"/></g>
<rect x="320.000" y="320.000" width="320.000" height="320.000" fill="#FFFFFF"/>
<g transform="translate(320.000,320.000) scale(1.60000)"><path d="M200 0L158.802 14.981C131.366 24.9578 105.224 38.1843 80.9328 54.3781C56.3423 70.7718 30.613 85.3893 3.9409 98.1191L0 100L0 0L200 0Z" fill="#121212"/></g>
<rect x="640.000" y="320.000" width="320.000" height="320.000" fill="#121212"/>
<g transform="translate(640.000,320.000) scale(1.60000) rotate(270,100,100)"><path d="M200 0 C200 82.8427 132.843 150 50 150 L0 150 L0 0 L200 0 Z" fill="#FFFFFF"/></g>
<rect x="960.000" y="320.000" width="320.000" height="320.000" fill="#FFFFFF"/>
<g transform="translate(960.000,320.000) scale(1.60000)"><path d="M200 0 C200 82.8427 132.843 150 50 150 L0 150 L0 0 L200 0 Z" fill="#121212"/></g>
<rect x="1280.000" y="320.000" width="320.000" height="320.000" fill="#FFFFFF"/>
<g transform="translate(1280.000,320.000) scale(1.60000) rotate(90,100,100)"><!-- Generator: Adobe Illustrator 30.2.1, SVG Export Plug-In . SVG Version: 2.1.1 Build 1)  -->
  
  <path d="M50,200h75c0-41.42,33.58-75,75-75V50c-82.84,0-150,67.16-150,150Z" fill="#FF4F00"/></g>
<rect x="1600.000" y="320.000" width="320.000" height="320.000" fill="#121212"/>
<g transform="translate(1600.000,320.000) scale(1.60000)"><path d="M200 0 C200 82.8427 132.843 150 50 150 L0 150 L0 0 L200 0 Z" fill="#FFFFFF"/></g>
<rect x="0.000" y="640.000" width="320.000" height="320.000" fill="#FFFFFF"/>
<g transform="translate(0.000,640.000) scale(1.60000) rotate(270,100,100)"><path d="M200 0L200 10L0 10L0 0L200 0Z" fill="#121212"/></g>
<rect x="320.000" y="640.000" width="320.000" height="320.000" fill="#121212"/>
<g transform="translate(320.000,640.000) scale(1.60000)"><path d="M200 0 C200 82.8427 132.843 150 50 150 L0 150 L0 0 L200 0 Z" fill="#FFFFFF"/></g>
<rect x="640.000" y="640.000" width="320.000" height="320.000" fill="#FFFFFF"/>
<g transform="translate(640.000,640.000) scale(1.60000) rotate(270,100,100)"><path d="M200 0 C200 82.8427 132.843 150 50 150 L0 150 L0 0 L200 0 Z" fill="#FF4F00"/></g>
<rect x="960.000" y="640.000" width="320.000" height="320.000" fill="#121212"/>
<g transform="translate(960.000,640.000) scale(1.60000)"><path d="M200 0 C200 82.8427 132.843 150 50 150 L0 150 L0 0 L200 0 Z" fill="#FFFFFF"/></g>
<rect x="1280.000" y="640.000" width="320.000" height="320.000" fill="#FFFFFF"/>
<g transform="translate(1280.000,640.000) scale(1.60000) rotate(180,100,100)"><path d="M200 0 C200 82.8427 132.843 150 50 150 L0 150 L0 0 L200 0 Z" fill="#121212"/></g>
<rect x="1600.000" y="640.000" width="320.000" height="320.000" fill="#FFFFFF"/>
<g transform="translate(1600.000,640.000) scale(1.60000)"><path d="M200 0L158.802 14.981C131.366 24.9578 105.224 38.1843 80.9328 54.3781C56.3423 70.7718 30.613 85.3893 3.9409 98.1191L0 100L0 0L200 0Z" fill="#FF4F00"/></g>
</svg>
