<?xml version='1.0' encoding='UTF-8'?>
<svg xmlns="http://www.w3.org/2000/svg" version="1.1" width="1920" height="960" viewBox="0 0 1920 960">
<rect x="0.000" y="0.000" width="320.000" height="320.000" fill="#121212"/>
<g transform="translate(0.000,0.000) scale(1.60000) rotate(180,100,100)"><path d="M150 0L0.042 0L0 150C82.8188 150.024 149.976 82.842 150 0Z" fill="#FF4F00"/></g>
<rect x="320.000" y="0.000" width="320.000" height="320.000" fill="#121212"/>
<g transform="translate(320.000,0.000) scale(1.60000) rotate(180,100,100)"><path d="M150 0L0.042 0L0 150C82.8188 150.024 149.976 82.842 150 0Z" fill="#FFFFFF"/></g>
<rect x="640.000" y="0.000" width="320.000" height="320.000" fill="#FFFFFF"/>
<g transform="translate(640.000,0.000) scale(1.60000) rotate(180,100,100)"><path d="M150 0L0.042 0L0 150C82.8188 150.024 149.976 82.842 150 0Z" fill="#121212"/></g>
<rect x="960.000" y="0.000" width="320.000" height="320.000" fill="#121212"/>
<g transform="translate(960.000,0.000) scale(1.60000)"><path d="M100 0H0V100C0 44.772 44.772 0 100 0Z" fill="#FFFFFF"/>
  <path d="M62.5 25C41.7902 25 25 41.7857 25 62.5C25 83.2143 41.7902 100 62.5 100C72.8572 100 82.2321 95.8036 89.0179 89.0179C95.8036 82.2321 100 72.8572 100 62.5C100 41.7857 83.2098 25 62.5 25Z" fill="#FFFFFF"/></g>
<rect x="1280.000" y="0.000" width="320.000" height="320.000" fill="#FFFFFF"/>
<g transform="translate(1280.000,0.000) scale(1.60000) rotate(90,100,100)"><path d="M100 0H0V100C0 44.772 44.772 0 100 0Z" fill="#FF4F00"/>
  <path d="M62.5 25C41.7902 25 25 41.7857 25 62.5C25 83.2143 41.7902 100 62.5 100C72.8572 100 82.2321 95.8036 89.0179 89.0179C95.8036 82.2321 100 72.8572 100 62.5C100 41.7857 83.2098 25 62.5 25Z" fill="#FF4F00"/></g>
<rect x="1600.000" y="0.000" width="320.000" height="320.000" fill="#FFFFFF"/>
<g transform="translate(1600.000,0.000) scale(1.60000) rotate(270,100,100)"><path d="M200 0 C200 5.5229 195.523 10 190 10 L0 10 L0 0 L200 0 Z" fill="#121212"/></g>
<rect x="0.000" y="320.000" width="320.000" height="320.000" fill="#121212"/>
<g transform="translate(0.000,320.000) scale(1.60000) rotate(270,100,100)"><path d="M150 0L0.042 0L0 150C82.8188 150.024 149.976 82.842 150 0Z" fill="#FFFFFF"/></g>
<rect x="320.000" y="320.000" width="320.000" height="320.000" fill="#FFFFFF"/>
<g transform="translate(320.000,320.000) scale(1.60000) rotate(90,100,100)"><path d="M150 0L0.042 0L0 150C82.8188 150.024 149.976 82.842 150 0Z" fill="#FF4F00"/></g>
<rect x="640.000" y="320.000" width="320.000" height="320.000" fill="#121212"/>
<g transform="translate(640.000,320.000) scale(1.60000) rotate(90,100,100)"><path d="M133 116.667H166.333C166.333 79.848 136.485 50 99.6667 50C62.848 50 33 79.848 33 116.667H66.3333C66.3333 135.077 81.256 150 99.6667 150C118.077 150 133 135.077 133 116.667Z" fill="#FFFFFF"/></g>
<rect x="960.000" y="320.000" width="320.000" height="320.000" fill="#121212"/>
<g transform="translate(960.000,320.000) scale(1.60000) rotate(270,100,100)"><path d="M100 0H0V100C0 44.772 44.772 0 100 0Z" fill="#FF4F00"/>
  <path d="M62.5 25C41.7902 25 25 41.7857 25 62.5C25 83.2143 41.7902 100 62.5 100C72.8572 100 82.2321 95.8036 89.0179 89.0179C95.8036 82.2321 100 72.8572 100 62.5C100 41.7857 83.2098 25 62.5 25Z" fill="#FF4F00"/></g>
<rect x="1280.000" y="320.000" width="320.000" height="320.000" fill="#FFFFFF"/>
<g transform="translate(1280.000,320.000) scale(1.60000) rotate(90,100,100)"><path d="M100 0H0V100C0 44.772 44.772 0 100 0Z" fill="#121212"/>
  <path d="M62.5 25C41.7902 25 25 41.7857 25 62.5C25 83.2143 41.7902 100 62.5 100C72.8572 100 82.2321 95.8036 89.0179 89.0179C95.8036 82.2321 100 72.8572 100 62.5C100 41.7857 83.2098 25 62.5 25Z" fill="#121212"/></g>
<rect x="1600.000" y="320.000" width="320.000" height="320.000" fill="#121212"/>
<g transform="translate(1600.000,320.000) scale(1.60000) rotate(90,100,100)"><path d="M150 0L0.042 0L0 150C82.8188 150.024 149.976 82.842 150 0Z" fill="#FFFFFF"/></g>
<rect x="0.000" y="640.000" width="320.000" height="320.000" fill="#121212"/>
<g transform="translate(0.000,640.000) scale(1.60000)"><path d="M150 0L0.042 0L0 150C82.8188 150.024 149.976 82.842 150 0Z" fill="#FF4F00"/></g>
<rect x="320.000" y="640.000" width="320.000" height="320.000" fill="#121212"/>
<g transform="translate(320.000,640.000) scale(1.60000) rotate(270,100,100)"><path d="M100 0H0V100C0 44.772 44.772 0 100 0Z" fill="#FFFFFF"/>
  <path d="M62.5 25C41.7902 25 25 41.7857 25 62.5C25 83.2143 41.7902 100 62.5 100C72.8572 100 82.2321 95.8036 89.0179 89.0179C95.8036 82.2321 100 72.8572 100 62.5C100 41.7857 83.2098 25 62.5 25Z" fill="#FFFFFF"/></g>
<rect x="640.000" y="640.000" width="320.000" height="320.000" fill="#121212"/>
<g transform="translate(640.000,640.000) scale(1.60000) rotate(270,100,100)"><path d="M133 116.667H166.333C166.333 79.848 136.485 50 99.6667 50C62.848 50 33 79.848 33 116.667H66.3333C66.3333 135.077 81.256 150 99.6667 150C118.077 150 133 135.077 133 116.667Z" fill="#FF4F00"/></g>
<rect x="960.000" y="640.000" width="320.000" height="320.000" fill="#121212"/>
<g transform="translate(960.000,640.000) scale(1.60000) rotate(180,100,100)"><path d="M133 116.667H166.333C166.333 79.848 136.485 50 99.6667 50C62.848 50 33 79.848 33 116.667H66.3333C66.3333 135.077 81.256 150 99.6667 150C118.077 150 133 135.077 133 116.667Z" fill="#FFFFFF"/></g>
<rect x="1280.000" y="640.000" width="320.000" height="320.000" fill="#FFFFFF"/>
<g transform="translate(1280.000,640.000) scale(1.60000) rotate(90,100,100)"><path d="M150 0L0.042 0L0 150C82.8188 150.024 149.976 82.842 150 0Z" fill="#121212"/></g>
<rect x="1600.000" y="640.000" width="320.000" height="320.000" fill="#FFFFFF"/>
<g transform="translate(1600.000,640.000) scale(1.60000) rotate(180,100,100)"><path d="M150 0L0.042 0L0 150C82.8188 150.024 149.976 82.842 150 0Z" fill="#FF4F00"/></g>
</svg>
