<?xml version='1.0' encoding='UTF-8'?>
<svg xmlns="http://www.w3.org/2000/svg" width="200" height="200" viewBox="0 0 200 200">
  <rect width="200" height="200" fill="#F3F3F3" x="0" y="0"/>
  <path d="M198.772939,50.015059 L197.546616,50.060227 L196.321772,50.135477 L195.099143,50.240764 L193.879466,50.376023 L192.663476,50.541175 L191.451906,50.736118 L190.245484,50.960736 L189.044938,51.214893 L187.850991,51.498437 L186.664362,51.811197 L185.485766,52.152983 L184.315913,52.523591 L183.155507,52.922797 L182.005248,53.35036 L180.865828,53.806023 L179.737934,54.289512 L178.622245,54.800535 L177.519434,55.338785 L176.430163,55.903937 L175.35509,56.49565 L174.294863,57.113569 L173.250119,57.757322 L172.221488,58.426519 L171.20959,59.120759 L170.215035,59.839623 L169.23842,60.582679 L168.280336,61.349477 L167.341358,62.139558 L166.422052,62.952444 L165.522973,63.787646 L164.644661,64.644661 L163.787646,65.522973 L162.952444,66.422052 L162.139558,67.341358 L161.349477,68.280336 L160.582679,69.23842 L159.839623,70.215035 L159.120759,71.20959 L158.426519,72.221488 L157.757322,73.250119 L157.113569,74.294863 L156.49565,75.35509 L155.903937,76.430163 L155.338785,77.519434 L154.800535,78.622245 L154.289512,79.737934 L153.806023,80.865828 L153.35036,82.005248 L152.922797,83.155507 L152.523591,84.315913 L152.152983,85.485766 L151.811197,86.664362 L151.498437,87.850991 L151.214893,89.044938 L150.960736,90.245484 L150.736118,91.451906 L150.541175,92.663476 L150.376023,93.879466 L150.240764,95.099143 L150.135477,96.321772 L150.060227,97.546616 L150.015059,98.772939 L150,100 L150.015059,101.227061 L150.060227,102.453384 L150.135477,103.678228 L150.240764,104.900857 L150.376023,106.120534 L150.541175,107.336524 L150.736118,108.548094 L150.960736,109.754516 L151.214893,110.955062 L151.498437,112.149009 L151.811197,113.335638 L152.152983,114.514234 L152.523591,115.684087 L152.922797,116.844493 L153.35036,117.994752 L153.806023,119.134172 L154.289512,120.262066 L154.800535,121.377755 L155.338785,122.480566 L155.903937,123.569837 L156.49565,124.64491 L157.113569,125.705137 L157.757322,126.749881 L158.426519,127.778512 L159.120759,128.79041 L159.839623,129.784965 L160.582679,130.76158 L161.349477,131.719664 L162.139558,132.658642 L162.952444,133.577948 L163.787646,134.477027 L164.644661,135.355339 L165.522973,136.212354 L166.422052,137.047556 L167.341358,137.860442 L168.280336,138.650523 L169.23842,139.417321 L170.215035,140.160377 L171.20959,140.879241 L172.221488,141.573481 L173.250119,142.242678 L174.294863,142.886431 L175.35509,143.50435 L176.430163,144.096063 L177.519434,144.661215 L178.622245,145.199465 L179.737934,145.710488 L180.865828,146.193977 L182.005248,146.64964 L183.155507,147.077203 L184.315913,147.476409 L185.485766,147.847017 L186.664362,148.188803 L187.850991,148.501563 L189.044938,148.785107 L190.245484,149.039264 L191.451906,149.263882 L192.663476,149.458825 L193.879466,149.623977 L195.099143,149.759236 L196.321772,149.864523 L197.546616,149.939773 L198.772939,149.984941 L200,150 L200,50 Z" fill="#121212"/>
  <path d="M150.015059,1.227061 L150.060227,2.453384 L150.135477,3.678228 L150.240764,4.900857 L150.376023,6.120534 L150.541175,7.336524 L150.736118,8.548094 L150.960736,9.754516 L151.214893,10.955062 L151.498437,12.149009 L151.811197,13.335638 L152.152983,14.514234 L152.523591,15.684087 L152.922797,16.844493 L153.35036,17.994752 L153.806023,19.134172 L154.289512,20.262066 L154.800535,21.377755 L155.338785,22.480566 L155.903937,23.569837 L156.49565,24.64491 L157.113569,25.705137 L157.757322,26.749881 L158.426519,27.778512 L159.120759,28.79041 L159.839623,29.784965 L160.582679,30.76158 L161.349477,31.719664 L162.139558,32.658642 L162.952444,33.577948 L163.787646,34.477027 L164.644661,35.355339 L165.522973,36.212354 L166.422052,37.047556 L167.341358,37.860442 L168.280336,38.650523 L169.23842,39.417321 L170.215035,40.160377 L171.20959,40.879241 L172.221488,41.573481 L173.250119,42.242678 L174.294863,42.886431 L175.35509,43.50435 L176.430163,44.096063 L177.519434,44.661215 L178.622245,45.199465 L179.737934,45.710488 L180.865828,46.193977 L182.005248,46.64964 L183.155507,47.077203 L184.315913,47.476409 L185.485766,47.847017 L186.664362,48.188803 L187.850991,48.501563 L189.044938,48.785107 L190.245484,49.039264 L191.451906,49.263882 L192.663476,49.458825 L193.879466,49.623977 L195.099143,49.759236 L196.321772,49.864523 L197.546616,49.939773 L198.772939,49.984941 L200,50 L200,0 L150,0 Z" fill="#121212"/>
  <path d="M198.772939,150.015059 L197.546616,150.060227 L196.321772,150.135477 L195.099143,150.240764 L193.879466,150.376023 L192.663476,150.541175 L191.451906,150.736118 L190.245484,150.960736 L189.044938,151.214893 L187.850991,151.498437 L186.664362,151.811197 L185.485766,152.152983 L184.315913,152.523591 L183.155507,152.922797 L182.005248,153.35036 L180.865828,153.806023 L179.737934,154.289512 L178.622245,154.800535 L177.519434,155.338785 L176.430163,155.903937 L175.35509,156.49565 L174.294863,157.113569 L173.250119,157.757322 L172.221488,158.426519 L171.20959,159.120759 L170.215035,159.839623 L169.23842,160.582679 L168.280336,161.349477 L167.341358,162.139558 L166.422052,162.952444 L165.522973,163.787646 L164.644661,164.644661 L163.787646,165.522973 L162.952444,166.422052 L162.139558,167.341358 L161.349477,168.280336 L160.582679,169.23842 L159.839623,170.215035 L159.120759,171.20959 L158.426519,172.221488 L157.757322,173.250119 L157.113569,174.294863 L156.49565,175.35509 L155.903937,176.430163 L155.338785,177.519434 L154.800535,178.622245 L154.289512,179.737934 L153.806023,180.865828 L153.35036,182.005248 L152.922797,183.155507 L152.523591,184.315913 L152.152983,185.485766 L151.811197,186.664362 L151.498437,187.850991 L151.214893,189.044938 L150.960736,190.245484 L150.736118,191.451906 L150.541175,192.663476 L150.376023,193.879466 L150.240764,195.099143 L150.135477,196.321772 L150.060227,197.546616 L150.015059,198.772939 L150,200 L200,200 L200,150 Z" fill="#121212"/>
</svg>
