<?xml version='1.0' encoding='UTF-8'?>
<svg xmlns="http://www.w3.org/2000/svg" version="1.1" width="360" height="540" viewBox="0 0 360 540">
<rect width="360" height="540" fill="#121212"/>
<g transform="translate(0.000,0.000) scale(0.90000,0.90000)"><path fill-rule="evenodd" clip-rule="evenodd" d="M25 200L25 0L35 0L35 200L25 200Z" fill="#FFFFFF"/>
  <path fill-rule="evenodd" clip-rule="evenodd" d="M65 200L65 0L75 0L75 200L65 200Z" fill="#FFFFFF"/>
  <path fill-rule="evenodd" clip-rule="evenodd" d="M105 200L105 0L115 0L115 200L105 200Z" fill="#FFFFFF"/>
  <path fill-rule="evenodd" clip-rule="evenodd" d="M145 200L145 0L155 0L155 200L145 200Z" fill="#FFFFFF"/>
  <path fill-rule="evenodd" clip-rule="evenodd" d="M185 200L185 0L195 0L195 200L185 200Z" fill="#FFFFFF"/></g>
<g transform="translate(360.000,0.000) scale(-0.90000,0.90000) rotate(90,100,100)"><path fill-rule="evenodd" clip-rule="evenodd" d="M25 200L25 0L35 0L35 200L25 200Z" fill="#FFFFFF"/>
  <path fill-rule="evenodd" clip-rule="evenodd" d="M65 200L65 0L75 0L75 200L65 200Z" fill="#FFFFFF"/>
  <path fill-rule="evenodd" clip-rule="evenodd" d="M105 200L105 0L115 0L115 200L105 200Z" fill="#FFFFFF"/>
  <path fill-rule="evenodd" clip-rule="evenodd" d="M145 200L145 0L155 0L155 200L145 200Z" fill="#FFFFFF"/>
  <path fill-rule="evenodd" clip-rule="evenodd" d="M185 200L185 0L195 0L195 200L185 200Z" fill="#FFFFFF"/></g>
<g transform="translate(0.000,180.000) scale(0.90000,0.90000) rotate(90,100,100)"><path fill-rule="evenodd" clip-rule="evenodd" d="M25 200L25 0L35 0L35 200L25 200Z" fill="#FFFFFF"/>
  <path fill-rule="evenodd" clip-rule="evenodd" d="M65 200L65 0L75 0L75 200L65 200Z" fill="#FFFFFF"/>
  <path fill-rule="evenodd" clip-rule="evenodd" d="M105 200L105 0L115 0L115 200L105 200Z" fill="#FFFFFF"/>
  <path fill-rule="evenodd" clip-rule="evenodd" d="M145 200L145 0L155 0L155 200L145 200Z" fill="#FFFFFF"/>
  <path fill-rule="evenodd" clip-rule="evenodd" d="M185 200L185 0L195 0L195 200L185 200Z" fill="#FFFFFF"/></g>
<g transform="translate(360.000,180.000) scale(-0.90000,0.90000) rotate(180,100,100)"><path fill-rule="evenodd" clip-rule="evenodd" d="M25 200L25 0L35 0L35 200L25 200Z" fill="#FFFFFF"/>
  <path fill-rule="evenodd" clip-rule="evenodd" d="M65 200L65 0L75 0L75 200L65 200Z" fill="#FFFFFF"/>
  <path fill-rule="evenodd" clip-rule="evenodd" d="M105 200L105 0L115 0L115 200L105 200Z" fill="#FFFFFF"/>
  <path fill-rule="evenodd" clip-rule="evenodd" d="M145 200L145 0L155 0L155 200L145 200Z" fill="#FFFFFF"/>
  <path fill-rule="evenodd" clip-rule="evenodd" d="M185 200L185 0L195 0L195 200L185 200Z" fill="#FFFFFF"/></g>
<g transform="translate(0.000,360.000) scale(0.90000,0.90000) rotate(180,100,100)"><path fill-rule="evenodd" clip-rule="evenodd" d="M25 200L25 0L35 0L35 200L25 200Z" fill="#FFFFFF"/>
  <path fill-rule="evenodd" clip-rule="evenodd" d="M65 200L65 0L75 0L75 200L65 200Z" fill="#FFFFFF"/>
  <path fill-rule="evenodd" clip-rule="evenodd" d="M105 200L105 0L115 0L115 200L105 200Z" fill="#FFFFFF"/>
  <path fill-rule="evenodd" clip-rule="evenodd" d="M145 200L145 0L155 0L155 200L145 200Z" fill="#FFFFFF"/>
  <path fill-rule="evenodd" clip-rule="evenodd" d="M185 200L185 0L195 0L195 200L185 200Z" fill="#FFFFFF"/></g>
<g transform="translate(360.000,360.000) scale(-0.90000,0.90000) rotate(270,100,100)"><path fill-rule="evenodd" clip-rule="evenodd" d="M25 200L25 0L35 0L35 200L25 200Z" fill="#FFFFFF"/>
  <path fill-rule="evenodd" clip-rule="evenodd" d="M65 200L65 0L75 0L75 200L65 200Z" fill="#FFFFFF"/>
  <path fill-rule="evenodd" clip-rule="evenodd" d="M105 200L105 0L115 0L115 200L105 200Z" fill="#FFFFFF"/>
  <path fill-rule="evenodd" clip-rule="evenodd" d="M145 200L145 0L155 0L155 200L145 200Z" fill="#FFFFFF"/>
  <path fill-rule="evenodd" clip-rule="evenodd" d="M185 200L185 0L195 0L195 200L185 200Z" fill="#FFFFFF"/></g>
<g transform="translate(180.000,360.000) scale(0.90000,0.90000) rotate(270,100,100)"><path d="M50 0H0V50C0 22.386 22.386 0 50 0Z" fill="#FF4F00"/></g>
</svg>
