<?xml version="1.0" encoding="UTF-8"?>
<svg xmlns="http://www.w3.org/2000/svg" width="200" height="200" viewBox="0 0 200 200">
  <path d="M180 8.74228e-06L200 8.74228e-06L200 200L169.424 200L33.0827 200L1.52588e-05 200C1.60555e-05 181.775 14.8116 167 33.0827 167C23.6704 167 16.0401 159.613 16.0401 150.5C16.0401 141.387 23.6703 134 33.0827 134C51.9803 134 67.7871 140.458 82.6637 146.536C110.204 157.787 145.132 168.736 180 134C180 134 180 118.225 180 99.9999C180 81.7745 180 66.9999 180 66.9999C180 66.9999 180 31.5015 180 13L180 8.74228e-06Z M140.0120,120.9816 L140.0482,121.9627 L140.1084,122.9426 L140.1926,123.9207 L140.3008,124.8964 L140.4329,125.8692 L140.5889,126.8385 L140.7686,127.8036 L140.9719,128.7640 L141.1987,129.7192 L141.4490,130.6685 L141.7224,131.6114 L142.0189,132.5473 L142.3382,133.4756 L142.6803,134.3958 L143.0448,135.3073 L143.4316,136.2097 L143.8404,137.1022 L144.2710,137.9845 L144.7231,138.8559 L145.1965,139.7159 L145.6909,140.5641 L146.2059,141.3999 L146.7412,142.2228 L147.2966,143.0323 L147.8717,143.8280 L148.4661,144.6093 L149.0796,145.3757 L149.7116,146.1269 L150.3620,146.8624 L151.0301,147.5816 L151.7157,148.2843 L152.4184,148.9699 L153.1376,149.6380 L153.8731,150.2884 L154.6243,150.9204 L155.3907,151.5339 L156.1720,152.1283 L156.9677,152.7034 L157.7772,153.2588 L158.6001,153.7941 L159.4359,154.3091 L160.2841,154.8035 L161.1441,155.2769 L162.0155,155.7290 L162.8978,156.1596 L163.7903,156.5684 L164.6927,156.9552 L165.6042,157.3197 L166.5244,157.6618 L167.4527,157.9811 L168.3886,158.2776 L169.3315,158.5510 L170.2808,158.8013 L171.2360,159.0281 L172.1964,159.2314 L173.1615,159.4111 L174.1308,159.5671 L175.1036,159.6992 L176.0793,159.8074 L177.0574,159.8916 L178.0373,159.9518 L179.0184,159.9880 L180.0000,160.0000 L180.9816,159.9880 L181.9627,159.9518 L182.9426,159.8916 L183.9207,159.8074 L184.8964,159.6992 L185.8692,159.5671 L186.8385,159.4111 L187.8036,159.2314 L188.7640,159.0281 L189.7192,158.8013 L190.6685,158.5510 L191.6114,158.2776 L192.5473,157.9811 L193.4756,157.6618 L194.3958,157.3197 L195.3073,156.9552 L196.2097,156.5684 L197.1022,156.1596 L197.9845,155.7290 L198.8559,155.2769 L199.7159,154.8035 L200.0000,154.6379 L200.0000,85.3621 L199.7159,85.1965 L198.8559,84.7231 L197.9845,84.2710 L197.1022,83.8404 L196.2097,83.4316 L195.3073,83.0448 L194.3958,82.6803 L193.4756,82.3382 L192.5473,82.0189 L191.6114,81.7224 L190.6685,81.4490 L189.7192,81.1987 L188.7640,80.9719 L187.8036,80.7686 L186.8385,80.5889 L185.8692,80.4329 L184.8964,80.3008 L183.9207,80.1926 L182.9426,80.1084 L181.9627,80.0482 L180.9816,80.0120 L180.0000,80.0000 L179.0184,80.0120 L178.0373,80.0482 L177.0574,80.1084 L176.0793,80.1926 L175.1036,80.3008 L174.1308,80.4329 L173.1615,80.5889 L172.1964,80.7686 L171.2360,80.9719 L170.2808,81.1987 L169.3315,81.4490 L168.3886,81.7224 L167.4527,82.0189 L166.5244,82.3382 L165.6042,82.6803 L164.6927,83.0448 L163.7903,83.4316 L162.8978,83.8404 L162.0155,84.2710 L161.1441,84.7231 L160.2841,85.1965 L159.4359,85.6909 L158.6001,86.2059 L157.7772,86.7412 L156.9677,87.2966 L156.1720,87.8717 L155.3907,88.4661 L154.6243,89.0796 L153.8731,89.7116 L153.1376,90.3620 L152.4184,91.0301 L151.7157,91.7157 L151.0301,92.4184 L150.3620,93.1376 L149.7116,93.8731 L149.0796,94.6243 L148.4661,95.3907 L147.8717,96.1720 L147.2966,96.9677 L146.7412,97.7772 L146.2059,98.6001 L145.6909,99.4359 L145.1965,100.2841 L144.7231,101.1441 L144.2710,102.0155 L143.8404,102.8978 L143.4316,103.7903 L143.0448,104.6927 L142.6803,105.6042 L142.3382,106.5244 L142.0189,107.4527 L141.7224,108.3886 L141.4490,109.3315 L141.1987,110.2808 L140.9719,111.2360 L140.7686,112.1964 L140.5889,113.1615 L140.4329,114.1308 L140.3008,115.1036 L140.1926,116.0793 L140.1084,117.0574 L140.0482,118.0373 L140.0120,119.0184 L140.0000,120.0000 Z M140.0120,40.9816 L140.0482,41.9627 L140.1084,42.9426 L140.1926,43.9207 L140.3008,44.8964 L140.4329,45.8692 L140.5889,46.8385 L140.7686,47.8036 L140.9719,48.7640 L141.1987,49.7192 L141.4490,50.6685 L141.7224,51.6114 L142.0189,52.5473 L142.3382,53.4756 L142.6803,54.3958 L143.0448,55.3073 L143.4316,56.2097 L143.8404,57.1022 L144.2710,57.9845 L144.7231,58.8559 L145.1965,59.7159 L145.6909,60.5641 L146.2059,61.3999 L146.7412,62.2228 L147.2966,63.0323 L147.8717,63.8280 L148.4661,64.6093 L149.0796,65.3757 L149.7116,66.1269 L150.3620,66.8624 L151.0301,67.5816 L151.7157,68.2843 L152.4184,68.9699 L153.1376,69.6380 L153.8731,70.2884 L154.6243,70.9204 L155.3907,71.5339 L156.1720,72.1283 L156.9677,72.7034 L157.7772,73.2588 L158.6001,73.7941 L159.4359,74.3091 L160.2841,74.8035 L161.1441,75.2769 L162.0155,75.7290 L162.8978,76.1596 L163.7903,76.5684 L164.6927,76.9552 L165.6042,77.3197 L166.5244,77.6618 L167.4527,77.9811 L168.3886,78.2776 L169.3315,78.5510 L170.2808,78.8013 L171.2360,79.0281 L172.1964,79.2314 L173.1615,79.4111 L174.1308,79.5671 L175.1036,79.6992 L176.0793,79.8074 L177.0574,79.8916 L178.0373,79.9518 L179.0184,79.9880 L180.0000,80.0000 L180.9816,79.9880 L181.9627,79.9518 L182.9426,79.8916 L183.9207,79.8074 L184.8964,79.6992 L185.8692,79.5671 L186.8385,79.4111 L187.8036,79.2314 L188.7640,79.0281 L189.7192,78.8013 L190.6685,78.5510 L191.6114,78.2776 L192.5473,77.9811 L193.4756,77.6618 L194.3958,77.3197 L195.3073,76.9552 L196.2097,76.5684 L197.1022,76.1596 L197.9845,75.7290 L198.8559,75.2769 L199.7159,74.8035 L200.0000,74.6379 L200.0000,5.3621 L199.7159,5.1965 L198.8559,4.7231 L197.9845,4.2710 L197.1022,3.8404 L196.2097,3.4316 L195.3073,3.0448 L194.3958,2.6803 L193.4756,2.3382 L192.5473,2.0189 L191.6114,1.7224 L190.6685,1.4490 L189.7192,1.1987 L188.7640,0.9719 L187.8036,0.7686 L186.8385,0.5889 L185.8692,0.4329 L184.8964,0.3008 L183.9207,0.1926 L182.9426,0.1084 L181.9627,0.0482 L180.9816,0.0120 L180.0000,0.0000 L179.0184,0.0120 L178.0373,0.0482 L177.0574,0.1084 L176.0793,0.1926 L175.1036,0.3008 L174.1308,0.4329 L173.1615,0.5889 L172.1964,0.7686 L171.2360,0.9719 L170.2808,1.1987 L169.3315,1.4490 L168.3886,1.7224 L167.4527,2.0189 L166.5244,2.3382 L165.6042,2.6803 L164.6927,3.0448 L163.7903,3.4316 L162.8978,3.8404 L162.0155,4.2710 L161.1441,4.7231 L160.2841,5.1965 L159.4359,5.6909 L158.6001,6.2059 L157.7772,6.7412 L156.9677,7.2966 L156.1720,7.8717 L155.3907,8.4661 L154.6243,9.0796 L153.8731,9.7116 L153.1376,10.3620 L152.4184,11.0301 L151.7157,11.7157 L151.0301,12.4184 L150.3620,13.1376 L149.7116,13.8731 L149.0796,14.6243 L148.4661,15.3907 L147.8717,16.1720 L147.2966,16.9677 L146.7412,17.7772 L146.2059,18.6001 L145.6909,19.4359 L145.1965,20.2841 L144.7231,21.1441 L144.2710,22.0155 L143.8404,22.8978 L143.4316,23.7903 L143.0448,24.6927 L142.6803,25.6042 L142.3382,26.5244 L142.0189,27.4527 L141.7224,28.3886 L141.4490,29.3315 L141.1987,30.2808 L140.9719,31.2360 L140.7686,32.1964 L140.5889,33.1615 L140.4329,34.1308 L140.3008,35.1036 L140.1926,36.0793 L140.1084,37.0574 L140.0482,38.0373 L140.0120,39.0184 L140.0000,40.0000 L140.0000,40.0000 Z" fill="#121212"/>
</svg>
