<?xml version="1.0" encoding="UTF-8"?>
<svg xmlns="http://www.w3.org/2000/svg" width="200" height="200" viewBox="0 0 200 200">
  <path d="M79.987953,199.018351 L79.951818,198.037293 L79.891618,197.057417 L79.807389,196.079314 L79.699181,195.103573 L79.56706,194.130781 L79.411106,193.161524 L79.231411,192.196387 L79.028085,191.23595 L78.80125,190.280793 L78.551043,189.33149 L78.277613,188.388613 L77.981127,187.45273 L77.661763,186.524406 L77.319712,185.604199 L76.955181,184.692663 L76.56839,183.790347 L76.159572,182.897796 L75.728972,182.015547 L75.276851,181.144131 L74.80348,180.284072 L74.309144,179.43589 L73.794143,178.600095 L73.258784,177.777191 L72.703393,176.967672 L72.128301,176.172028 L71.533857,175.390736 L70.920418,174.624269 L70.288354,173.873086 L69.638045,173.137642 L68.969883,172.418378 L68.284271,171.715729 L67.581622,171.030117 L66.862358,170.361955 L66.126914,169.711646 L65.375731,169.079582 L64.609264,168.466143 L63.827972,167.871699 L63.032328,167.296607 L62.222809,166.741216 L61.399905,166.205857 L60.56411,165.690856 L59.715928,165.19652 L58.855869,164.723149 L57.984453,164.271028 L57.102204,163.840428 L56.209653,163.43161 L55.307337,163.044819 L54.395801,162.680288 L53.475594,162.338237 L52.54727,162.018873 L51.611387,161.722387 L50.66851,161.448957 L49.719207,161.19875 L48.76405,160.971915 L47.803613,160.768589 L46.838476,160.588894 L45.869219,160.43294 L44.896427,160.300819 L43.920686,160.192611 L42.942583,160.108382 L41.962707,160.048182 L40.981649,160.012047 L40,160 L39.018351,160.012047 L38.037293,160.048182 L37.057417,160.108382 L36.079314,160.192611 L35.103573,160.300819 L34.130781,160.43294 L33.161524,160.588894 L32.196387,160.768589 L31.23595,160.971915 L30.280793,161.19875 L29.33149,161.448957 L28.388613,161.722387 L27.45273,162.018873 L26.524406,162.338237 L25.604199,162.680288 L24.692663,163.044819 L23.790347,163.43161 L22.897796,163.840428 L22.015547,164.271028 L21.144131,164.723149 L20.284072,165.19652 L19.43589,165.690856 L18.600095,166.205857 L17.777191,166.741216 L16.967672,167.296607 L16.172028,167.871699 L15.390736,168.466143 L14.624269,169.079582 L13.873086,169.711646 L13.137642,170.361955 L12.418378,171.030117 L11.715729,171.715729 L11.030117,172.418378 L10.361955,173.137642 L9.711646,173.873086 L9.079582,174.624269 L8.466143,175.390736 L7.871699,176.172028 L7.296607,176.967672 L6.741216,177.777191 L6.205857,178.600095 L5.690856,179.43589 L5.19652,180.284072 L4.723149,181.144131 L4.271028,182.015547 L3.840428,182.897796 L3.43161,183.790347 L3.044819,184.692663 L2.680288,185.604199 L2.338237,186.524406 L2.018873,187.45273 L1.722387,188.388613 L1.448957,189.33149 L1.19875,190.280793 L0.971915,191.23595 L0.768589,192.196387 L0.588894,193.161524 L0.43294,194.130781 L0.300819,195.103573 L0.192611,196.079314 L0.108382,197.057417 L0.048182,198.037293 L0.012047,199.018351 L0,200 L80,200 Z M159.987953,199.018351 L159.951818,198.037293 L159.891618,197.057417 L159.807389,196.079314 L159.699181,195.103573 L159.56706,194.130781 L159.411106,193.161524 L159.231411,192.196387 L159.028085,191.23595 L158.80125,190.280793 L158.551043,189.33149 L158.277613,188.388613 L157.981127,187.45273 L157.661763,186.524406 L157.319712,185.604199 L156.955181,184.692663 L156.56839,183.790347 L156.159572,182.897796 L155.728972,182.015547 L155.276851,181.144131 L154.80348,180.284072 L154.309144,179.43589 L153.794143,178.600095 L153.258784,177.777191 L152.703393,176.967672 L152.128301,176.172028 L151.533857,175.390736 L150.920418,174.624269 L150.288354,173.873086 L149.638045,173.137642 L148.969883,172.418378 L148.284271,171.715729 L147.581622,171.030117 L146.862358,170.361955 L146.126914,169.711646 L145.375731,169.079582 L144.609264,168.466143 L143.827972,167.871699 L143.032328,167.296607 L142.222809,166.741216 L141.399905,166.205857 L140.56411,165.690856 L139.715928,165.19652 L138.855869,164.723149 L137.984453,164.271028 L137.102204,163.840428 L136.209653,163.43161 L135.307337,163.044819 L134.395801,162.680288 L133.475594,162.338237 L132.54727,162.018873 L131.611387,161.722387 L130.66851,161.448957 L129.719207,161.19875 L128.76405,160.971915 L127.803613,160.768589 L126.838476,160.588894 L125.869219,160.43294 L124.896427,160.300819 L123.920686,160.192611 L122.942583,160.108382 L121.962707,160.048182 L120.981649,160.012047 L120,160 L119.018351,160.012047 L118.037293,160.048182 L117.057417,160.108382 L116.079314,160.192611 L115.103573,160.300819 L114.130781,160.43294 L113.161524,160.588894 L112.196387,160.768589 L111.23595,160.971915 L110.280793,161.19875 L109.33149,161.448957 L108.388613,161.722387 L107.45273,162.018873 L106.524406,162.338237 L105.604199,162.680288 L104.692663,163.044819 L103.790347,163.43161 L102.897796,163.840428 L102.015547,164.271028 L101.144131,164.723149 L100.284072,165.19652 L99.43589,165.690856 L98.600095,166.205857 L97.777191,166.741216 L96.967672,167.296607 L96.172028,167.871699 L95.390736,168.466143 L94.624269,169.079582 L93.873086,169.711646 L93.137642,170.361955 L92.418378,171.030117 L91.715729,171.715729 L91.030117,172.418378 L90.361955,173.137642 L89.711646,173.873086 L89.079582,174.624269 L88.466143,175.390736 L87.871699,176.172028 L87.296607,176.967672 L86.741216,177.777191 L86.205857,178.600095 L85.690856,179.43589 L85.19652,180.284072 L84.723149,181.144131 L84.271028,182.015547 L83.840428,182.897796 L83.43161,183.790347 L83.044819,184.692663 L82.680288,185.604199 L82.338237,186.524406 L82.018873,187.45273 L81.722387,188.388613 L81.448957,189.33149 L81.19875,190.280793 L80.971915,191.23595 L80.768589,192.196387 L80.588894,193.161524 L80.43294,194.130781 L80.300819,195.103573 L80.192611,196.079314 L80.108382,197.057417 L80.048182,198.037293 L80.012047,199.018351 L80,200 L160,200 Z M199.018351,80.012047 L198.037293,80.048182 L197.057417,80.108382 L196.079314,80.192611 L195.103573,80.300819 L194.130781,80.43294 L193.161524,80.588894 L192.196387,80.768589 L191.23595,80.971915 L190.280793,81.19875 L189.33149,81.448957 L188.388613,81.722387 L187.45273,82.018873 L186.524406,82.338237 L185.604199,82.680288 L184.692663,83.044819 L183.790347,83.43161 L182.897796,83.840428 L182.015547,84.271028 L181.144131,84.723149 L180.284072,85.19652 L179.43589,85.690856 L178.600095,86.205857 L177.777191,86.741216 L176.967672,87.296607 L176.172028,87.871699 L175.390736,88.466143 L174.624269,89.079582 L173.873086,89.711646 L173.137642,90.361955 L172.418378,91.030117 L171.715729,91.715729 L171.030117,92.418378 L170.361955,93.137642 L169.711646,93.873086 L169.079582,94.624269 L168.466143,95.390736 L167.871699,96.172028 L167.296607,96.967672 L166.741216,97.777191 L166.205857,98.600095 L165.690856,99.43589 L165.19652,100.284072 L164.723149,101.144131 L164.271028,102.015547 L163.840428,102.897796 L163.43161,103.790347 L163.044819,104.692663 L162.680288,105.604199 L162.338237,106.524406 L162.018873,107.45273 L161.722387,108.388613 L161.448957,109.33149 L161.19875,110.280793 L160.971915,111.23595 L160.768589,112.196387 L160.588894,113.161524 L160.43294,114.130781 L160.300819,115.103573 L160.192611,116.079314 L160.108382,117.057417 L160.048182,118.037293 L160.012047,119.018351 L160,120 L160.012047,120.981649 L160.048182,121.962707 L160.108382,122.942583 L160.192611,123.920686 L160.300819,124.896427 L160.43294,125.869219 L160.588894,126.838476 L160.768589,127.803613 L160.971915,128.76405 L161.19875,129.719207 L161.448957,130.66851 L161.722387,131.611387 L162.018873,132.54727 L162.338237,133.475594 L162.680288,134.395801 L163.044819,135.307337 L163.43161,136.209653 L163.840428,137.102204 L164.271028,137.984453 L164.723149,138.855869 L165.19652,139.715928 L165.690856,140.56411 L166.205857,141.399905 L166.741216,142.222809 L167.296607,143.032328 L167.871699,143.827972 L168.466143,144.609264 L169.079582,145.375731 L169.711646,146.126914 L170.361955,146.862358 L171.030117,147.581622 L171.715729,148.284271 L172.418378,148.969883 L173.137642,149.638045 L173.873086,150.288354 L174.624269,150.920418 L175.390736,151.533857 L176.172028,152.128301 L176.967672,152.703393 L177.777191,153.258784 L178.600095,153.794143 L179.43589,154.309144 L180.284072,154.80348 L181.144131,155.276851 L182.015547,155.728972 L182.897796,156.159572 L183.790347,156.56839 L184.692663,156.955181 L185.604199,157.319712 L186.524406,157.661763 L187.45273,157.981127 L188.388613,158.277613 L189.33149,158.551043 L190.280793,158.80125 L191.23595,159.028085 L192.196387,159.231411 L193.161524,159.411106 L194.130781,159.56706 L195.103573,159.699181 L196.079314,159.807389 L197.057417,159.891618 L198.037293,159.951818 L199.018351,159.987953 L200,160 L200,80 Z M199.018351,0.012047 L198.037293,0.048182 L197.057417,0.108382 L196.079314,0.192611 L195.103573,0.300819 L194.130781,0.43294 L193.161524,0.588894 L192.196387,0.768589 L191.23595,0.971915 L190.280793,1.19875 L189.33149,1.448957 L188.388613,1.722387 L187.45273,2.018873 L186.524406,2.338237 L185.604199,2.680288 L184.692663,3.044819 L183.790347,3.43161 L182.897796,3.840428 L182.015547,4.271028 L181.144131,4.723149 L180.284072,5.19652 L179.43589,5.690856 L178.600095,6.205857 L177.777191,6.741216 L176.967672,7.296607 L176.172028,7.871699 L175.390736,8.466143 L174.624269,9.079582 L173.873086,9.711646 L173.137642,10.361955 L172.418378,11.030117 L171.715729,11.715729 L171.030117,12.418378 L170.361955,13.137642 L169.711646,13.873086 L169.079582,14.624269 L168.466143,15.390736 L167.871699,16.172028 L167.296607,16.967672 L166.741216,17.777191 L166.205857,18.600095 L165.690856,19.43589 L165.19652,20.284072 L164.723149,21.144131 L164.271028,22.015547 L163.840428,22.897796 L163.43161,23.790347 L163.044819,24.692663 L162.680288,25.604199 L162.338237,26.524406 L162.018873,27.45273 L161.722387,28.388613 L161.448957,29.33149 L161.19875,30.280793 L160.971915,31.23595 L160.768589,32.196387 L160.588894,33.161524 L160.43294,34.130781 L160.300819,35.103573 L160.192611,36.079314 L160.108382,37.057417 L160.048182,38.037293 L160.012047,39.018351 L160,40 L160.012047,40.981649 L160.048182,41.962707 L160.108382,42.942583 L160.192611,43.920686 L160.300819,44.896427 L160.43294,45.869219 L160.588894,46.838476 L160.768589,47.803613 L160.971915,48.76405 L161.19875,49.719207 L161.448957,50.66851 L161.722387,51.611387 L162.018873,52.54727 L162.338237,53.475594 L162.680288,54.395801 L163.044819,55.307337 L163.43161,56.209653 L163.840428,57.102204 L164.271028,57.984453 L164.723149,58.855869 L165.19652,59.715928 L165.690856,60.56411 L166.205857,61.399905 L166.741216,62.222809 L167.296607,63.032328 L167.871699,63.827972 L168.466143,64.609264 L169.079582,65.375731 L169.711646,66.126914 L170.361955,66.862358 L171.030117,67.581622 L171.715729,68.284271 L172.418378,68.969883 L173.137642,69.638045 L173.873086,70.288354 L174.624269,70.920418 L175.390736,71.533857 L176.172028,72.128301 L176.967672,72.703393 L177.777191,73.258784 L178.600095,73.794143 L179.43589,74.309144 L180.284072,74.80348 L181.144131,75.276851 L182.015547,75.728972 L182.897796,76.159572 L183.790347,76.56839 L184.692663,76.955181 L185.604199,77.319712 L186.524406,77.661763 L187.45273,77.981127 L188.388613,78.277613 L189.33149,78.551043 L190.280793,78.80125 L191.23595,79.028085 L192.196387,79.231411 L193.161524,79.411106 L194.130781,79.56706 L195.103573,79.699181 L196.079314,79.807389 L197.057417,79.891618 L198.037293,79.951818 L199.018351,79.987953 L200,80 L200,0 Z M199.018351,160.012047 L198.037293,160.048182 L197.057417,160.108382 L196.079314,160.192611 L195.103573,160.300819 L194.130781,160.43294 L193.161524,160.588894 L192.196387,160.768589 L191.23595,160.971915 L190.280793,161.19875 L189.33149,161.448957 L188.388613,161.722387 L187.45273,162.018873 L186.524406,162.338237 L185.604199,162.680288 L184.692663,163.044819 L183.790347,163.43161 L182.897796,163.840428 L182.015547,164.271028 L181.144131,164.723149 L180.284072,165.19652 L179.43589,165.690856 L178.600095,166.205857 L177.777191,166.741216 L176.967672,167.296607 L176.172028,167.871699 L175.390736,168.466143 L174.624269,169.079582 L173.873086,169.711646 L173.137642,170.361955 L172.418378,171.030117 L171.715729,171.715729 L171.030117,172.418378 L170.361955,173.137642 L169.711646,173.873086 L169.079582,174.624269 L168.466143,175.390736 L167.871699,176.172028 L167.296607,176.967672 L166.741216,177.777191 L166.205857,178.600095 L165.690856,179.43589 L165.19652,180.284072 L164.723149,181.144131 L164.271028,182.015547 L163.840428,182.897796 L163.43161,183.790347 L163.044819,184.692663 L162.680288,185.604199 L162.338237,186.524406 L162.018873,187.45273 L161.722387,188.388613 L161.448957,189.33149 L161.19875,190.280793 L160.971915,191.23595 L160.768589,192.196387 L160.588894,193.161524 L160.43294,194.130781 L160.300819,195.103573 L160.192611,196.079314 L160.108382,197.057417 L160.048182,198.037293 L160.012047,199.018351 L160,200 L200,200 L200,160 Z" fill="#121212"/>
</svg>
