<?xml version="1.0" encoding="UTF-8"?>
<svg xmlns="http://www.w3.org/2000/svg" width="200" height="200" viewBox="0 0 200 200">
  <path d="M0.0,200.0 A40.0,40.0 0 1,0 80.0,200.0 A40.0,40.0 0 1,0 0.0,200.0 Z M80.0,200.0 A40.0,40.0 0 1,0 160.0,200.0 A40.0,40.0 0 1,0 80.0,200.0 Z M160.0120,120.9816 L160.0482,121.9627 L160.1084,122.9426 L160.1926,123.9207 L160.3008,124.8964 L160.4329,125.8692 L160.5889,126.8385 L160.7686,127.8036 L160.9719,128.7640 L161.1987,129.7192 L161.4490,130.6685 L161.7224,131.6114 L162.0189,132.5473 L162.3382,133.4756 L162.6803,134.3958 L163.0448,135.3073 L163.4316,136.2097 L163.8404,137.1022 L164.2710,137.9845 L164.7231,138.8559 L165.1965,139.7159 L165.6909,140.5641 L166.2059,141.3999 L166.7412,142.2228 L167.2966,143.0323 L167.8717,143.8280 L168.4661,144.6093 L169.0796,145.3757 L169.7116,146.1269 L170.3620,146.8624 L171.0301,147.5816 L171.7157,148.2843 L172.4184,148.9699 L173.1376,149.6380 L173.8731,150.2884 L174.6243,150.9204 L175.3907,151.5339 L176.1720,152.1283 L176.9677,152.7034 L177.7772,153.2588 L178.6001,153.7941 L179.4359,154.3091 L180.2841,154.8035 L181.1441,155.2769 L182.0155,155.7290 L182.8978,156.1596 L183.7903,156.5684 L184.6927,156.9552 L185.6042,157.3197 L186.5244,157.6618 L187.4527,157.9811 L188.3886,158.2776 L189.3315,158.5510 L190.2808,158.8013 L191.2360,159.0281 L192.1964,159.2314 L193.1615,159.4111 L194.1308,159.5671 L195.1036,159.6992 L196.0793,159.8074 L197.0574,159.8916 L198.0373,159.9518 L199.0184,159.9880 L200.0000,160.0000 L200.0000,80.0000 L199.0184,80.0120 L198.0373,80.0482 L197.0574,80.1084 L196.0793,80.1926 L195.1036,80.3008 L194.1308,80.4329 L193.1615,80.5889 L192.1964,80.7686 L191.2360,80.9719 L190.2808,81.1987 L189.3315,81.4490 L188.3886,81.7224 L187.4527,82.0189 L186.5244,82.3382 L185.6042,82.6803 L184.6927,83.0448 L183.7903,83.4316 L182.8978,83.8404 L182.0155,84.2710 L181.1441,84.7231 L180.2841,85.1965 L179.4359,85.6909 L178.6001,86.2059 L177.7772,86.7412 L176.9677,87.2966 L176.1720,87.8717 L175.3907,88.4661 L174.6243,89.0796 L173.8731,89.7116 L173.1376,90.3620 L172.4184,91.0301 L171.7157,91.7157 L171.0301,92.4184 L170.3620,93.1376 L169.7116,93.8731 L169.0796,94.6243 L168.4661,95.3907 L167.8717,96.1720 L167.2966,96.9677 L166.7412,97.7772 L166.2059,98.6001 L165.6909,99.4359 L165.1965,100.2841 L164.7231,101.1441 L164.2710,102.0155 L163.8404,102.8978 L163.4316,103.7903 L163.0448,104.6927 L162.6803,105.6042 L162.3382,106.5244 L162.0189,107.4527 L161.7224,108.3886 L161.4490,109.3315 L161.1987,110.2808 L160.9719,111.2360 L160.7686,112.1964 L160.5889,113.1615 L160.4329,114.1308 L160.3008,115.1036 L160.1926,116.0793 L160.1084,117.0574 L160.0482,118.0373 L160.0120,119.0184 L160.0000,120.0000 Z M160.0120,40.9816 L160.0482,41.9627 L160.1084,42.9426 L160.1926,43.9207 L160.3008,44.8964 L160.4329,45.8692 L160.5889,46.8385 L160.7686,47.8036 L160.9719,48.7640 L161.1987,49.7192 L161.4490,50.6685 L161.7224,51.6114 L162.0189,52.5473 L162.3382,53.4756 L162.6803,54.3958 L163.0448,55.3073 L163.4316,56.2097 L163.8404,57.1022 L164.2710,57.9845 L164.7231,58.8559 L165.1965,59.7159 L165.6909,60.5641 L166.2059,61.3999 L166.7412,62.2228 L167.2966,63.0323 L167.8717,63.8280 L168.4661,64.6093 L169.0796,65.3757 L169.7116,66.1269 L170.3620,66.8624 L171.0301,67.5816 L171.7157,68.2843 L172.4184,68.9699 L173.1376,69.6380 L173.8731,70.2884 L174.6243,70.9204 L175.3907,71.5339 L176.1720,72.1283 L176.9677,72.7034 L177.7772,73.2588 L178.6001,73.7941 L179.4359,74.3091 L180.2841,74.8035 L181.1441,75.2769 L182.0155,75.7290 L182.8978,76.1596 L183.7903,76.5684 L184.6927,76.9552 L185.6042,77.3197 L186.5244,77.6618 L187.4527,77.9811 L188.3886,78.2776 L189.3315,78.5510 L190.2808,78.8013 L191.2360,79.0281 L192.1964,79.2314 L193.1615,79.4111 L194.1308,79.5671 L195.1036,79.6992 L196.0793,79.8074 L197.0574,79.8916 L198.0373,79.9518 L199.0184,79.9880 L200.0000,80.0000 L200.0000,0.0000 L199.0184,0.0120 L198.0373,0.0482 L197.0574,0.1084 L196.0793,0.1926 L195.1036,0.3008 L194.1308,0.4329 L193.1615,0.5889 L192.1964,0.7686 L191.2360,0.9719 L190.2808,1.1987 L189.3315,1.4490 L188.3886,1.7224 L187.4527,2.0189 L186.5244,2.3382 L185.6042,2.6803 L184.6927,3.0448 L183.7903,3.4316 L182.8978,3.8404 L182.0155,4.2710 L181.1441,4.7231 L180.2841,5.1965 L179.4359,5.6909 L178.6001,6.2059 L177.7772,6.7412 L176.9677,7.2966 L176.1720,7.8717 L175.3907,8.4661 L174.6243,9.0796 L173.8731,9.7116 L173.1376,10.3620 L172.4184,11.0301 L171.7157,11.7157 L171.0301,12.4184 L170.3620,13.1376 L169.7116,13.8731 L169.0796,14.6243 L168.4661,15.3907 L167.8717,16.1720 L167.2966,16.9677 L166.7412,17.7772 L166.2059,18.6001 L165.6909,19.4359 L165.1965,20.2841 L164.7231,21.1441 L164.2710,22.0155 L163.8404,22.8978 L163.4316,23.7903 L163.0448,24.6927 L162.6803,25.6042 L162.3382,26.5244 L162.0189,27.4527 L161.7224,28.3886 L161.4490,29.3315 L161.1987,30.2808 L160.9719,31.2360 L160.7686,32.1964 L160.5889,33.1615 L160.4329,34.1308 L160.3008,35.1036 L160.1926,36.0793 L160.1084,37.0574 L160.0482,38.0373 L160.0120,39.0184 L160.0000,40.0000 L160.0000,40.0000 Z M199.0184,160.0120 L198.0373,160.0482 L197.0574,160.1084 L196.0793,160.1926 L195.1036,160.3008 L194.1308,160.4329 L193.1615,160.5889 L192.1964,160.7686 L191.2360,160.9719 L190.2808,161.1987 L189.3315,161.4490 L188.3886,161.7224 L187.4527,162.0189 L186.5244,162.3382 L185.6042,162.6803 L184.6927,163.0448 L183.7903,163.4316 L182.8978,163.8404 L182.0155,164.2710 L181.1441,164.7231 L180.2841,165.1965 L179.4359,165.6909 L178.6001,166.2059 L177.7772,166.7412 L176.9677,167.2966 L176.1720,167.8717 L175.3907,168.4661 L174.6243,169.0796 L173.8731,169.7116 L173.1376,170.3620 L172.4184,171.0301 L171.7157,171.7157 L171.0301,172.4184 L170.3620,173.1376 L169.7116,173.8731 L169.0796,174.6243 L168.4661,175.3907 L167.8717,176.1720 L167.2966,176.9677 L166.7412,177.7772 L166.2059,178.6001 L165.6909,179.4359 L165.1965,180.2841 L164.7231,181.1441 L164.2710,182.0155 L163.8404,182.8978 L163.4316,183.7903 L163.0448,184.6927 L162.6803,185.6042 L162.3382,186.5244 L162.0189,187.4527 L161.7224,188.3886 L161.4490,189.3315 L161.1987,190.2808 L160.9719,191.2360 L160.7686,192.1964 L160.5889,193.1615 L160.4329,194.1308 L160.3008,195.1036 L160.1926,196.0793 L160.1084,197.0574 L160.0482,198.0373 L160.0120,199.0184 L160.0000,200.0000 L200.0000,200.0000 L200.0000,160.0000 Z" fill="#121212"/>
</svg>
