<?xml version="1.0" encoding="UTF-8"?>
<svg xmlns="http://www.w3.org/2000/svg" width="200" height="200" viewBox="0 0 200 200">
  <path d="M56.6891 150C58.8006 157.3 61.3602 164.017 64.2928 170L1.31134e-06 170L1.56959e-05 190L78.1794 190C84.7732 196.407 92.1768 200 100 200C127.614 200 150 155.228 150 100C150 44.7715 127.614 7.76377e-06 100 6.55671e-06C92.1768 6.21474e-06 84.7732 3.59343 78.1794 10L8.30516e-06 10L7.43094e-06 30L64.2928 30C61.3603 35.9829 58.8006 42.6998 56.6891 50L6.55671e-06 50L5.68248e-06 70L52.289 70C51.282 76.4124 50.5893 83.1031 50.2469 90L4.80825e-06 90L3.93402e-06 110L50.2469 110C50.5893 116.897 51.282 123.588 52.289 130L3.0598e-06 130L1.74444e-05 150L56.6891 150Z M66.66649999999998,100.0 A33.3333,33.3333 0 1,0 133.3331,100.0 A33.3333,33.3333 0 1,0 66.66649999999998,100.0 Z" fill="#121212" fill-rule="evenodd"/>
</svg>
