<?xml version="1.0" encoding="UTF-8"?>
<svg xmlns="http://www.w3.org/2000/svg" width="200" height="200" viewBox="0 0 200 200">
  <path d="M0,194.865081 L0,189.823019 L0,184.884986 L0,180.062153 L0,175.365689 L0,170.806766 L0,166.396553 L0,162.146222 L0,158.066943 L0,154.169887 L0,150.466224 L0,146.967125 L0,143.68376 L0,140.6273 L0,137.808916 L0,135.239778 L0,132.931056 L0,130.893922 L0,129.139545 L0,127.679097 L0,126.523748 L0,125.684668 L0,125.173029 L0,125 L5.134973,125.173029 L10.177072,125.684668 L15.115134,126.523748 L19.937991,127.679097 L24.634472,129.139545 L29.193407,130.893922 L33.603626,132.931056 L37.853958,135.239778 L41.933235,137.808916 L45.830285,140.6273 L49.533939,143.68376 L53.033026,146.967125 L56.316377,150.466224 L59.372822,154.169887 L62.19119,158.066943 L64.760311,162.146222 L67.069016,166.396553 L69.106135,170.806766 L70.860496,175.365689 L72.320931,180.062153 L73.476268,184.884986 L74.315339,189.823019 L74.826973,194.865081 L75,200 L75.707867,200 L83.866421,200 L91.660524,200 L99.067834,200 L106.066013,200 L112.632719,200 L118.745612,200 L124.382353,200 L129.5206,200 L134.138014,200 L138.212255,200 L141.720981,200 L144.641854,200 L146.952533,200 L148.630677,200 L149.653946,200 L150,200 L150,200 L149.653946,189.730046 L148.630677,179.645828 L146.952533,169.769686 L144.641854,160.123958 L141.720982,150.730986 L138.212255,141.613109 L134.138014,132.792667 L129.5206,124.292 L124.382353,116.133447 L118.745613,108.339349 L112.632719,100.932045 L106.066014,93.933875 L99.067835,87.367179 L91.660525,81.254297 L83.866423,75.617568 L75.707869,70.479333 L67.207204,65.861932 L58.386768,61.787703 L49.2689,58.278988 L39.875943,55.358125 L30.230234,53.047455 L20.354116,51.369318 L10.269927,50.346053 L0,50 L0,50 L0,50.346053 L0,51.369318 L0,53.047455 L0,55.358125 L0,58.278988 L0,61.787703 L0,65.861932 L0,70.479333 L0,75.617568 L0,81.254297 L0,87.367179 L0,93.933875 L0,100.932045 L0,108.339349 L0,116.133447 L0,124.292 L0,132.792667 L0,141.613109 L0,150.730986 L0,160.123958 L0,169.769686 L0,179.645828 L0,189.730046 L0,200 L0,200 Z M191.666668,0 L183.333335,0 L175,0 L166.666671,0 L158.333338,0 L150,0 L141.666674,0 L133.333341,0 L125,0 L116.666677,0 L108.333344,0 L100,0 L91.66668,0 L83.333347,0 L75,0 L66.666683,0 L58.33335,0 L50,0 L41.666686,0 L33.333353,0 L25,0 L16.666689,0 L8.333356,0 L0,0 L0,0 L13.69314,0.461411 L27.138634,1.825783 L40.306719,4.06333 L53.167606,7.144261 L65.691508,11.03879 L77.848635,15.717127 L89.6092,21.149485 L100.943415,27.306076 L111.82149,34.157111 L122.213639,41.672803 L132.090073,49.823362 L141.421003,58.579002 L150.176642,67.909933 L158.327201,77.786367 L165.842892,88.178517 L172.693927,99.056594 L178.850517,110.390809 L184.282875,122.151376 L188.961213,134.308505 L192.855741,146.832408 L195.936672,159.693297 L198.174218,172.861384 L199.53859,186.306881 L200,200 L200,191.666667 L200,183.333334 L200,175 L200,166.666668 L200,158.333335 L200,150 L200,141.666669 L200,133.333336 L200,125 L200,116.66667 L200,108.333337 L200,100 L200,91.666671 L200,83.333338 L200,75 L200,66.666672 L200,58.33334 L200,50 L200,41.666674 L200,33.333341 L200,25 L200,16.666675 L200,8.333342 L200,0 Z" fill="#121212"/>
</svg>
