<?xml version="1.0" encoding="UTF-8"?>
<svg xmlns="http://www.w3.org/2000/svg" width="200" height="200" viewBox="0 0 200 200">
  <path d="M2.18557e-06 200C5.80674e-06 117.157 8.74228e-06 50 8.74228e-06 50C82.8427 50 150 117.157 150 200C150 200 82.8427 200 2.18557e-06 200Z M200 200L200 8.74228e-06L2.40011e-05 0C110.456 4.82819e-06 200 89.544 200 200Z M5.46392e-06 200C7.27451e-06 158.579 8.74228e-06 125 8.74228e-06 125C41.4214 125 75 158.579 75 200C75 200 41.4214 200 5.46392e-06 200Z" fill="#121212" fill-rule="evenodd"/>
</svg>
