<?xml version="1.0" encoding="UTF-8"?>
<svg xmlns="http://www.w3.org/2000/svg" width="200" height="200" viewBox="0 0 200 200">
  <path d="M200,124.292 L200,116.133447 L200,108.339349 L200,100.932045 L200,93.933875 L200,87.367179 L200,81.254297 L200,75.617568 L200,70.479333 L200,65.861932 L200,61.787703 L200,58.278988 L200,55.358125 L200,53.047455 L200,51.369318 L200,50.346053 L200,50 L200,50 L189.730046,50.346053 L179.645828,51.369318 L169.769686,53.047455 L160.123958,55.358125 L150.730986,58.278988 L141.613109,61.787703 L132.792667,65.861932 L124.292,70.479333 L116.133447,75.617568 L108.339349,81.254297 L100.932045,87.367179 L93.933875,93.933875 L87.367179,100.932045 L81.254297,108.339349 L75.617568,116.133447 L70.479333,124.292 L65.861932,132.792667 L61.787703,141.613109 L58.278988,150.730986 L55.358125,160.123958 L53.047455,169.769686 L51.369318,179.645828 L50.346053,189.730046 L50,200 L50.346053,200 L51.369318,200 L53.047455,200 L55.358125,200 L58.278988,200 L61.787703,200 L65.861932,200 L70.479333,200 L75.617568,200 L81.254297,200 L87.367179,200 L93.933875,200 L100.932045,200 L108.339349,200 L116.133447,200 L124.292,200 L125,200 L125.173029,194.865081 L125.684668,189.823019 L126.523748,184.884986 L127.679097,180.062153 L129.139545,175.365689 L130.893922,170.806766 L132.931056,166.396553 L135.239778,162.146222 L137.808916,158.066943 L140.6273,154.169887 L143.68376,150.466224 L146.967125,146.967125 L150.466224,143.68376 L154.169887,140.6273 L158.066943,137.808916 L162.146222,135.239778 L166.396553,132.931056 L170.806766,130.893922 L175.365689,129.139545 L180.062153,127.679097 L184.884986,126.523748 L189.823019,125.684668 L194.865081,125.173029 L200,125 Z" fill="#121212"/>
</svg>
