<?xml version="1.0" encoding="UTF-8"?>
<svg xmlns="http://www.w3.org/2000/svg" width="200" height="200" viewBox="0 0 200 200">
  <path d="M149 100C149 155.218 139.484 200 127.725 200C121.757 200 116.339 188.34 112.47 169.566C111.844 166.524 106.549 166.41 105.747 169.427C100.779 188.284 93.8046 200 86.0744 200C80.3664 200 75.0627 193.599 70.6901 182.665C69.5225 179.749 64.6845 179.635 63.3033 182.482C57.9386 193.529 51.4522 200 44.4241 200C25.9645 200 11 155.224 11 100C11 44.7763 25.9645 8.74228e-06 44.4241 8.74228e-06C51.4522 8.74228e-06 57.9386 6.47056 63.3033 17.5178C64.6845 20.3649 69.5225 20.2512 70.6901 17.3348C75.0627 6.4011 80.3587 8.74228e-06 86.0744 8.74228e-06C93.797 8.74228e-06 100.772 11.7164 105.747 30.5726C106.541 33.5901 111.837 33.4764 112.47 30.4337C116.347 11.6596 121.765 8.74228e-06 127.725 8.74228e-06C139.484 8.74228e-06 149 44.7763 149 100Z M183 100C183 155.218 176.502 200 168.5 200C160.498 200 154 155.224 154 100C154 44.7763 160.498 8.74228e-06 168.5 8.74228e-06C176.502 8.74228e-06 183 44.7763 183 100Z M199.9399,0.0734 L199.7544,0.1301 L199.5694,0.2029 L199.3851,0.2916 L199.2015,0.3961 L199.0185,0.5163 L198.8361,0.6522 L198.6545,0.8035 L198.4735,0.9703 L198.2932,1.1523 L198.1137,1.3496 L197.9349,1.5621 L197.7568,1.7895 L197.5795,2.0318 L197.4030,2.2890 L197.2273,2.5609 L197.0524,2.8475 L196.8783,3.1486 L196.7050,3.4641 L196.5326,3.7939 L196.3611,4.1380 L196.1904,4.4962 L196.0207,4.8685 L195.8518,5.2547 L195.6839,5.6547 L195.5169,6.0685 L195.3508,6.4960 L195.1857,6.9369 L195.0216,7.3914 L194.8585,7.8592 L194.6964,8.3402 L194.5354,8.8344 L194.3753,9.3417 L194.2163,9.8619 L194.0584,10.3950 L193.9016,10.9408 L193.7458,11.4993 L193.5912,12.0704 L193.4376,12.6540 L193.2852,13.2499 L193.1340,13.8581 L192.9839,14.4785 L192.8351,15.1109 L192.6874,15.7553 L192.5409,16.4116 L192.3956,17.0797 L192.2516,17.7595 L192.1088,18.4508 L191.9673,19.1536 L191.8271,19.8679 L191.6881,20.5934 L191.5505,21.3301 L191.4142,22.0779 L191.2792,22.8367 L191.1456,23.6064 L191.0133,24.3869 L190.8824,25.1781 L190.7530,25.9799 L190.6249,26.7922 L190.4982,27.6149 L190.3730,28.4479 L190.2492,29.2911 L190.1269,30.1445 L190.0061,31.0078 L189.8868,31.8811 L189.7690,32.7642 L189.6527,33.6570 L189.5379,34.5594 L189.4247,35.4713 L189.3131,36.3927 L189.2030,37.3234 L189.0945,38.2633 L188.9877,39.2124 L188.8824,40.1705 L188.7788,41.1375 L188.6769,42.1133 L188.5766,43.0979 L188.4780,44.0912 L188.3811,45.0929 L188.2859,46.1031 L188.1924,47.1217 L188.1006,48.1485 L188.0106,49.1834 L187.9224,50.2264 L187.8360,51.2774 L187.7513,52.3362 L187.6685,53.4027 L187.5874,54.4769 L187.5082,55.5587 L187.4309,56.6479 L187.3554,57.7445 L187.2818,58.8484 L187.2101,59.9594 L187.1403,61.0775 L187.0725,62.2026 L187.0065,63.3345 L186.9426,64.4732 L186.8805,65.6186 L186.8205,66.7705 L186.7625,67.9289 L186.7064,69.0937 L186.6524,70.2648 L186.6004,71.4421 L186.5505,72.6255 L186.5027,73.8148 L186.4569,75.0100 L186.4132,76.2111 L186.3716,77.4178 L186.3322,78.6301 L186.2948,79.8479 L186.2597,81.0711 L186.2267,82.2996 L186.1958,83.5333 L186.1672,84.7721 L186.1408,86.0159 L186.1166,87.2646 L186.0946,88.5181 L186.0749,89.7764 L186.0575,91.0392 L186.0423,92.3066 L186.0294,93.5783 L186.0189,94.8544 L186.0106,96.1347 L186.0047,97.4192 L186.0012,98.7076 L186.0000,100.0000 L186.0000,100.0000 L186.0012,101.2924 L186.0047,102.5808 L186.0106,103.8653 L186.0189,105.1456 L186.0294,106.4217 L186.0423,107.6935 L186.0575,108.9608 L186.0749,110.2237 L186.0946,111.4819 L186.1166,112.7354 L186.1408,113.9842 L186.1672,115.2280 L186.1958,116.4668 L186.2267,117.7005 L186.2597,118.9290 L186.2948,120.1522 L186.3322,121.3700 L186.3716,122.5823 L186.4132,123.7890 L186.4569,124.9901 L186.5027,126.1853 L186.5505,127.3746 L186.6004,128.5580 L186.6524,129.7353 L186.7064,130.9064 L186.7625,132.0712 L186.8205,133.2296 L186.8805,134.3816 L186.9426,135.5269 L187.0065,136.6656 L187.0725,137.7976 L187.1403,138.9226 L187.2101,140.0407 L187.2818,141.1517 L187.3554,142.2556 L187.4309,143.3522 L187.5082,144.4414 L187.5874,145.5232 L187.6685,146.5974 L187.7513,147.6640 L187.8360,148.7228 L187.9224,149.7737 L188.0106,150.8167 L188.1006,151.8517 L188.1924,152.8785 L188.2859,153.8970 L188.3811,154.9072 L188.4780,155.9090 L188.5766,156.9022 L188.6769,157.8868 L188.7788,158.8627 L188.8824,159.8297 L188.9877,160.7878 L189.0945,161.7368 L189.2030,162.6767 L189.3131,163.6074 L189.4247,164.5288 L189.5379,165.4407 L189.6527,166.3432 L189.7690,167.2360 L189.8868,168.1190 L190.0061,168.9923 L190.1269,169.8557 L190.2493,170.7090 L190.3730,171.5522 L190.4982,172.3852 L190.6249,173.2079 L190.7530,174.0202 L190.8824,174.8220 L191.0133,175.6132 L191.1456,176.3937 L191.2792,177.1634 L191.4142,177.9222 L191.5505,178.6700 L191.6881,179.4067 L191.8271,180.1322 L191.9673,180.8464 L192.1088,181.5493 L192.2516,182.2406 L192.3956,182.9204 L192.5409,183.5885 L192.6874,184.2448 L192.8351,184.8892 L192.9839,185.5216 L193.1340,186.1420 L193.2852,186.7502 L193.4376,187.3461 L193.5912,187.9296 L193.7458,188.5007 L193.9016,189.0592 L194.0584,189.6051 L194.2163,190.1382 L194.3753,190.6584 L194.5354,191.1656 L194.6964,191.6598 L194.8585,192.1409 L195.0216,192.6087 L195.1857,193.0631 L195.3508,193.5041 L195.5169,193.9315 L195.6839,194.3453 L195.8518,194.7454 L196.0207,195.1316 L196.1904,195.5038 L196.3611,195.8620 L196.5326,196.2061 L196.7050,196.5360 L196.8783,196.8515 L197.0524,197.1525 L197.2273,197.4391 L197.4030,197.7110 L197.5795,197.9682 L197.7568,198.2105 L197.9349,198.4380 L198.1137,198.6504 L198.2932,198.8477 L198.4735,199.0297 L198.6545,199.1965 L198.8361,199.3478 L199.0185,199.4837 L199.2015,199.6039 L199.3851,199.7084 L199.5694,199.7971 L199.7544,199.8699 L199.9399,199.9267 L200.0000,199.9398 L200.0000,0.0602 Z" fill="#121212"/>
</svg>
