<svg xmlns="http://www.w3.org/2000/svg" width="1624" height="524" viewBox="0 0 1624 524">
<rect width="1624" height="524" fill="#121212"/><text x="48" y="46" font-family="Helvetica,Arial,sans-serif" font-size="30" font-weight="bold" fill="#EDE6D6" letter-spacing="1">FAI TILE LIBRARY</text><text x="48" y="70" font-family="Helvetica,Arial,sans-serif" font-size="13" fill="#8A8A8A">7 tiles · 2 families · label = id / dominant_direction</text>
<text x="48" y="92" font-family="Helvetica,Arial,sans-serif" font-size="18" font-weight="bold" fill="#FF4F00">merge · 3</text>
<rect x="48" y="108" width="128" height="128" fill="#1C1C1C"/>
<g transform="translate(48,108) scale(0.6400)"><rect x="0" y="100" width="200" height="100" fill="#1C1C1C"/>
  <path fill-rule="evenodd" clip-rule="evenodd" d="M200 200L180 200L180 100L200 100L200 200ZM100.028 100L200 99.972C200 99.972 155.241 99.984 100.028 100ZM100.028 100L116 100L116 200L96 200L96 100L74 100L74 200L54 200L54 100L32 100L32 200L12 200L12 100L100.028 100ZM158 200L138 200L138 100L158 100L158 200Z" fill="#3A4A6B"/>
  <path d="M200 99.9719L0 100L0 0L100 0C155.213 -0.016 199.984 44.7439 200 99.9719Z" fill="#3A4A6B"/></g>
<text x="48" y="249" font-family="Helvetica,Arial,sans-serif" font-size="10" fill="#EDE6D6">merge-03</text>
<text x="48" y="261" font-family="Helvetica,Arial,sans-serif" font-size="9" fill="#8A8A8A">outward</text>
<rect x="188" y="108" width="128" height="128" fill="#1C1C1C"/>
<g transform="translate(188,108) scale(0.6400)"><path d="M150 100H200C200 44.772 155.228 0 100 0C44.772 0 0 44.772 0 100H50C50 100 72.384 100 100 100C127.616 100 150 100 150 100Z" fill="#3A4A6B"/>
  <path d="M45 200H65V100H45V200Z" fill="#3A4A6B"/>
  <path d="M90 200H110V100H90V200Z" fill="#3A4A6B"/>
  <path d="M135 200H155V100H135V200Z" fill="#3A4A6B"/>
  <path d="M0 200H20V100H0V200Z" fill="#3A4A6B"/>
  <path d="M180 200H200V100H180V200Z" fill="#3A4A6B"/></g>
<text x="188" y="249" font-family="Helvetica,Arial,sans-serif" font-size="10" fill="#EDE6D6">merge-02</text>
<text x="188" y="261" font-family="Helvetica,Arial,sans-serif" font-size="9" fill="#8A8A8A">outward</text>
<rect x="328" y="108" width="128" height="128" fill="#1C1C1C"/>
<g transform="translate(328,108) scale(0.6400)"><path d="M150 100H200C200 44.772 155.228 0 100 0C44.772 0 0 44.772 0 100H50C50 127.616 72.384 150 100 150C127.616 150 150 127.616 150 100Z" fill="#3A4A6B"/></g>
<text x="328" y="249" font-family="Helvetica,Arial,sans-serif" font-size="10" fill="#EDE6D6">merge-01</text>
<text x="328" y="261" font-family="Helvetica,Arial,sans-serif" font-size="9" fill="#8A8A8A">left</text>
<text x="48" y="284" font-family="Helvetica,Arial,sans-serif" font-size="18" font-weight="bold" fill="#FF4F00">mirror · 4</text>
<rect x="48" y="300" width="128" height="128" fill="#1C1C1C"/>
<g transform="translate(48,300) scale(0.6400)"><circle cx="150" cy="100" r="50" fill="#3A4A6B"/>
  <path d="M200,0 L100,0 L100,0 L100.0151,1.2271 L100.0602,2.4534 L100.1355,3.6782 L100.2408,4.9009 L100.376,6.1205 L100.5412,7.3365 L100.7361,8.5481 L100.9607,9.7545 L101.2149,10.9551 L101.4984,12.149 L101.8112,13.3356 L102.153,14.5142 L102.5236,15.6841 L102.9228,16.8445 L103.3504,17.9948 L103.806,19.1342 L104.2895,20.2621 L104.8005,21.3778 L105.3388,22.4806 L105.9039,23.5698 L106.4956,24.6449 L107.1136,25.7051 L107.7573,26.7499 L108.4265,27.7785 L109.1208,28.7904 L109.8396,29.785 L110.5827,30.7616 L111.3495,31.7197 L112.1396,32.6586 L112.9524,33.5779 L113.7876,34.477 L114.6447,35.3553 L115.523,36.2124 L116.4221,37.0476 L117.3414,37.8604 L118.2803,38.6505 L119.2384,39.4173 L120.215,40.1604 L121.2096,40.8792 L122.2215,41.5735 L123.2501,42.2427 L124.2949,42.8864 L125.3551,43.5044 L126.4302,44.0961 L127.5194,44.6612 L128.6222,45.1995 L129.7379,45.7105 L130.8658,46.194 L132.0052,46.6496 L133.1555,47.0772 L134.3159,47.4764 L135.4858,47.847 L136.6644,48.1888 L137.851,48.5016 L139.0449,48.7851 L140.2455,49.0393 L141.4519,49.2639 L142.6635,49.4588 L143.8795,49.624 L145.0991,49.7592 L146.3218,49.8645 L147.5466,49.9398 L148.7729,49.9849 L150,50 L151.2271,49.9849 L152.4534,49.9398 L153.6782,49.8645 L154.9009,49.7592 L156.1205,49.624 L157.3365,49.4588 L158.5481,49.2639 L159.7545,49.0393 L160.9551,48.7851 L162.149,48.5016 L163.3356,48.1888 L164.5142,47.847 L165.6841,47.4764 L166.8445,47.0772 L167.9948,46.6496 L169.1342,46.194 L170.2621,45.7105 L171.3778,45.1995 L172.4806,44.6612 L173.5698,44.0961 L174.6449,43.5044 L175.7051,42.8864 L176.7499,42.2427 L177.7785,41.5735 L178.7904,40.8792 L179.785,40.1604 L180.7616,39.4173 L181.7197,38.6505 L182.6586,37.8604 L183.5779,37.0476 L184.477,36.2124 L185.3553,35.3553 L186.2124,34.477 L187.0476,33.5779 L187.8604,32.6586 L188.6505,31.7197 L189.4173,30.7616 L190.1604,29.785 L190.8792,28.7904 L191.5735,27.7785 L192.2427,26.7499 L192.8864,25.7051 L193.5043,24.6449 L194.0961,23.5698 L194.6612,22.4806 L195.1995,21.3778 L195.7105,20.2621 L196.194,19.1342 L196.6496,17.9948 L197.0772,16.8445 L197.4764,15.6841 L197.847,14.5142 L198.1888,13.3356 L198.5016,12.149 L198.7851,10.9551 L199.0393,9.7545 L199.2639,8.5481 L199.4588,7.3365 L199.624,6.1205 L199.7592,4.9009 L199.8645,3.6782 L199.9398,2.4534 L199.9849,1.2271 L200,0 Z" fill="#3A4A6B"/>
  <path d="M199.9849,198.7729 L199.9398,197.5466 L199.8645,196.3218 L199.7592,195.0991 L199.624,193.8795 L199.4588,192.6635 L199.2639,191.4519 L199.0393,190.2455 L198.7851,189.0449 L198.5016,187.851 L198.1888,186.6644 L197.847,185.4858 L197.4764,184.3159 L197.0772,183.1555 L196.6496,182.0052 L196.194,180.8658 L195.7105,179.7379 L195.1995,178.6222 L194.6612,177.5194 L194.0961,176.4302 L193.5043,175.3551 L192.8864,174.2949 L192.2427,173.2501 L191.5735,172.2215 L190.8792,171.2096 L190.1604,170.215 L189.4173,169.2384 L188.6505,168.2803 L187.8604,167.3414 L187.0476,166.4221 L186.2124,165.523 L185.3553,164.6447 L184.477,163.7876 L183.5779,162.9524 L182.6586,162.1396 L181.7197,161.3495 L180.7616,160.5827 L179.785,159.8396 L178.7904,159.1208 L177.7785,158.4265 L176.7499,157.7573 L175.7051,157.1136 L174.6449,156.4957 L173.5698,155.9039 L172.4806,155.3388 L171.3778,154.8005 L170.2621,154.2895 L169.1342,153.806 L167.9948,153.3504 L166.8445,152.9228 L165.6841,152.5236 L164.5142,152.153 L163.3356,151.8112 L162.149,151.4984 L160.9551,151.2149 L159.7545,150.9607 L158.5481,150.7361 L157.3365,150.5412 L156.1205,150.376 L154.9009,150.2408 L153.6782,150.1355 L152.4534,150.0602 L151.2271,150.0151 L150,150 L148.7729,150.0151 L147.5466,150.0602 L146.3218,150.1355 L145.0991,150.2408 L143.8795,150.376 L142.6635,150.5412 L141.4519,150.7361 L140.2455,150.9607 L139.0449,151.2149 L137.851,151.4984 L136.6644,151.8112 L135.4858,152.153 L134.3159,152.5236 L133.1555,152.9228 L132.0052,153.3504 L130.8658,153.806 L129.7379,154.2895 L128.6222,154.8005 L127.5194,155.3388 L126.4302,155.9039 L125.3551,156.4957 L124.2949,157.1136 L123.2501,157.7573 L122.2215,158.4265 L121.2096,159.1208 L120.215,159.8396 L119.2384,160.5827 L118.2803,161.3495 L117.3414,162.1396 L116.4221,162.9524 L115.523,163.7876 L114.6447,164.6447 L113.7876,165.523 L112.9524,166.4221 L112.1396,167.3414 L111.3495,168.2803 L110.5827,169.2384 L109.8396,170.215 L109.1208,171.2096 L108.4265,172.2215 L107.7573,173.2501 L107.1136,174.2949 L106.4956,175.3551 L105.9039,176.4302 L105.3388,177.5194 L104.8005,178.6222 L104.2895,179.7379 L103.806,180.8658 L103.3504,182.0052 L102.9228,183.1555 L102.5236,184.3159 L102.153,185.4858 L101.8112,186.6644 L101.4984,187.851 L101.2149,189.0449 L100.9607,190.2455 L100.7361,191.4519 L100.5412,192.6635 L100.376,193.8795 L100.2408,195.0991 L100.1355,196.3218 L100.0602,197.5466 L100.0151,198.7729 L100,200 L200,200 Z" fill="#3A4A6B"/>
  <path d="M200,0 L150,0 L150,200 L200,200 Z" fill="#3A4A6B"/></g>
<text x="48" y="441" font-family="Helvetica,Arial,sans-serif" font-size="10" fill="#EDE6D6">mirror-04</text>
<text x="48" y="453" font-family="Helvetica,Arial,sans-serif" font-size="9" fill="#8A8A8A">right</text>
<rect x="188" y="300" width="128" height="128" fill="#1C1C1C"/>
<g transform="translate(188,300) scale(0.6400)"><path fill-rule="evenodd" clip-rule="evenodd" d="M100 186.25L150 186.203L150 199.953L200 200L200 0L150 0C149.973 92.0467 150 136.25 100 186.25Z" fill="#3A4A6B"/></g>
<text x="188" y="441" font-family="Helvetica,Arial,sans-serif" font-size="10" fill="#EDE6D6">mirror-02</text>
<text x="188" y="453" font-family="Helvetica,Arial,sans-serif" font-size="9" fill="#8A8A8A">right</text>
<rect x="328" y="300" width="128" height="128" fill="#1C1C1C"/>
<g transform="translate(328,300) scale(0.6400)"><path d="M198.7729,50.0151 L197.5466,50.0602 L196.3218,50.1355 L195.0991,50.2408 L193.8795,50.376 L192.6635,50.5412 L191.4519,50.7361 L190.2455,50.9607 L189.0449,51.2149 L187.851,51.4984 L186.6644,51.8112 L185.4858,52.153 L184.3159,52.5236 L183.1555,52.9228 L182.0052,53.3504 L180.8658,53.806 L179.7379,54.2895 L178.6222,54.8005 L177.5194,55.3388 L176.4302,55.9039 L175.3551,56.4956 L174.2949,57.1136 L173.2501,57.7573 L172.2215,58.4265 L171.2096,59.1208 L170.215,59.8396 L169.2384,60.5827 L168.2803,61.3495 L167.3414,62.1396 L166.4221,62.9524 L165.523,63.7876 L164.6447,64.6447 L163.7876,65.523 L162.9524,66.4221 L162.1396,67.3414 L161.3495,68.2803 L160.5827,69.2384 L159.8396,70.215 L159.1208,71.2096 L158.4265,72.2215 L157.7573,73.2501 L157.1136,74.2949 L156.4957,75.3551 L155.9039,76.4302 L155.3388,77.5194 L154.8005,78.6222 L154.2895,79.7379 L153.806,80.8658 L153.3504,82.0052 L152.9228,83.1555 L152.5236,84.3159 L152.153,85.4858 L151.8112,86.6644 L151.4984,87.851 L151.2149,89.0449 L150.9607,90.2455 L150.7361,91.4519 L150.5412,92.6635 L150.376,93.8795 L150.2408,95.0991 L150.1355,96.3218 L150.0602,97.5466 L150.0151,98.7729 L150,100 L150.0151,101.2271 L150.0602,102.4534 L150.1355,103.6782 L150.2408,104.9009 L150.376,106.1205 L150.5412,107.3365 L150.7361,108.5481 L150.9607,109.7545 L151.2149,110.9551 L151.4984,112.149 L151.8112,113.3356 L152.153,114.5142 L152.5236,115.6841 L152.9228,116.8445 L153.3504,117.9948 L153.806,119.1342 L154.2895,120.2621 L154.8005,121.3778 L155.3388,122.4806 L155.9039,123.5698 L156.4957,124.6449 L157.1136,125.7051 L157.7573,126.7499 L158.4265,127.7785 L159.1208,128.7904 L159.8396,129.785 L160.5827,130.7616 L161.3495,131.7197 L162.1396,132.6586 L162.9524,133.5779 L163.7876,134.477 L164.6447,135.3553 L165.523,136.2124 L166.4221,137.0476 L167.3414,137.8604 L168.2803,138.6505 L169.2384,139.4173 L170.215,140.1604 L171.2096,140.8792 L172.2215,141.5735 L173.2501,142.2427 L174.2949,142.8864 L175.3551,143.5043 L176.4302,144.0961 L177.5194,144.6612 L178.6222,145.1995 L179.7379,145.7105 L180.8658,146.194 L182.0052,146.6496 L183.1555,147.0772 L184.3159,147.4764 L185.4858,147.847 L186.6644,148.1888 L187.851,148.5016 L189.0449,148.7851 L190.2455,149.0393 L191.4519,149.2639 L192.6635,149.4588 L193.8795,149.624 L195.0991,149.7592 L196.3218,149.8645 L197.5466,149.9398 L198.7729,149.9849 L200,150 L200,50 Z" fill="#3A4A6B"/>
  <path d="M150.0151,1.2271 L150.0602,2.4534 L150.1355,3.6782 L150.2408,4.9009 L150.376,6.1205 L150.5412,7.3365 L150.7361,8.5481 L150.9607,9.7545 L151.2149,10.9551 L151.4984,12.149 L151.8112,13.3356 L152.153,14.5142 L152.5236,15.6841 L152.9228,16.8445 L153.3504,17.9948 L153.806,19.1342 L154.2895,20.2621 L154.8005,21.3778 L155.3388,22.4806 L155.9039,23.5698 L156.4957,24.6449 L157.1136,25.7051 L157.7573,26.7499 L158.4265,27.7785 L159.1208,28.7904 L159.8396,29.785 L160.5827,30.7616 L161.3495,31.7197 L162.1396,32.6586 L162.9524,33.5779 L163.7876,34.477 L164.6447,35.3553 L165.523,36.2124 L166.4221,37.0476 L167.3414,37.8604 L168.2803,38.6505 L169.2384,39.4173 L170.215,40.1604 L171.2096,40.8792 L172.2215,41.5735 L173.2501,42.2427 L174.2949,42.8864 L175.3551,43.5044 L176.4302,44.0961 L177.5194,44.6612 L178.6222,45.1995 L179.7379,45.7105 L180.8658,46.194 L182.0052,46.6496 L183.1555,47.0772 L184.3159,47.4764 L185.4858,47.847 L186.6644,48.1888 L187.851,48.5016 L189.0449,48.7851 L190.2455,49.0393 L191.4519,49.2639 L192.6635,49.4588 L193.8795,49.624 L195.0991,49.7592 L196.3218,49.8645 L197.5466,49.9398 L198.7729,49.9849 L200,50 L200,0 L150,0 Z" fill="#3A4A6B"/>
  <path d="M198.7729,150.0151 L197.5466,150.0602 L196.3218,150.1355 L195.0991,150.2408 L193.8795,150.376 L192.6635,150.5412 L191.4519,150.7361 L190.2455,150.9607 L189.0449,151.2149 L187.851,151.4984 L186.6644,151.8112 L185.4858,152.153 L184.3159,152.5236 L183.1555,152.9228 L182.0052,153.3504 L180.8658,153.806 L179.7379,154.2895 L178.6222,154.8005 L177.5194,155.3388 L176.4302,155.9039 L175.3551,156.4957 L174.2949,157.1136 L173.2501,157.7573 L172.2215,158.4265 L171.2096,159.1208 L170.215,159.8396 L169.2384,160.5827 L168.2803,161.3495 L167.3414,162.1396 L166.4221,162.9524 L165.523,163.7876 L164.6447,164.6447 L163.7876,165.523 L162.9524,166.4221 L162.1396,167.3414 L161.3495,168.2803 L160.5827,169.2384 L159.8396,170.215 L159.1208,171.2096 L158.4265,172.2215 L157.7573,173.2501 L157.1136,174.2949 L156.4957,175.3551 L155.9039,176.4302 L155.3388,177.5194 L154.8005,178.6222 L154.2895,179.7379 L153.806,180.8658 L153.3504,182.0052 L152.9228,183.1555 L152.5236,184.3159 L152.153,185.4858 L151.8112,186.6644 L151.4984,187.851 L151.2149,189.0449 L150.9607,190.2455 L150.7361,191.4519 L150.5412,192.6635 L150.376,193.8795 L150.2408,195.0991 L150.1355,196.3218 L150.0602,197.5466 L150.0151,198.7729 L150,200 L200,200 L200,150 Z" fill="#3A4A6B"/></g>
<text x="328" y="441" font-family="Helvetica,Arial,sans-serif" font-size="10" fill="#EDE6D6">mirror-03</text>
<text x="328" y="453" font-family="Helvetica,Arial,sans-serif" font-size="9" fill="#8A8A8A">right</text>
<rect x="468" y="300" width="128" height="128" fill="#1C1C1C"/>
<g transform="translate(468,300) scale(0.6400)"><path fill-rule="evenodd" clip-rule="evenodd" d="M100 135.417L100 149.167L190.047 149.167L190 199.953L200 200L200 0L190 0C190 107.037 159.583 135.417 100 135.417Z" fill="#3A4A6B"/></g>
<text x="468" y="441" font-family="Helvetica,Arial,sans-serif" font-size="10" fill="#EDE6D6">mirror-01</text>
<text x="468" y="453" font-family="Helvetica,Arial,sans-serif" font-size="9" fill="#8A8A8A">right</text>
</svg>
