<svg xmlns="http://www.w3.org/2000/svg" width="1624" height="524" viewBox="0 0 1624 524">
<rect width="1624" height="524" fill="#121212"/><text x="48" y="46" font-family="Helvetica,Arial,sans-serif" font-size="30" font-weight="bold" fill="#EDE6D6" letter-spacing="1">FAI TILE LIBRARY</text><text x="48" y="70" font-family="Helvetica,Arial,sans-serif" font-size="13" fill="#8A8A8A">16 tiles · 2 families · label = id / dominant_direction</text>
<text x="48" y="92" font-family="Helvetica,Arial,sans-serif" font-size="18" font-weight="bold" fill="#FF4F00">float · 8</text>
<rect x="48" y="108" width="128" height="128" fill="#1C1C1C"/>
<g transform="translate(48,108) scale(0.6400)"><path d="M50 50C50 22.3858 72.3858 0 100 0C127.614 0 150 22.3858 150 50V150C150 177.614 127.614 200 100 200C72.3858 200 50 177.614 50 150V50Z" fill="#D63A8C"/></g>
<text x="48" y="249" font-family="Helvetica,Arial,sans-serif" font-size="10" fill="#EDE6D6">float-06</text>
<text x="48" y="261" font-family="Helvetica,Arial,sans-serif" font-size="9" fill="#8A8A8A">neutral</text>
<rect x="188" y="108" width="128" height="128" fill="#1C1C1C"/>
<g transform="translate(188,108) scale(0.6400)"><ellipse cx="100" cy="100" rx="100" ry="50" transform="rotate(90 100 100)" fill="#D63A8C"/></g>
<text x="188" y="249" font-family="Helvetica,Arial,sans-serif" font-size="10" fill="#EDE6D6">float-03</text>
<text x="188" y="261" font-family="Helvetica,Arial,sans-serif" font-size="9" fill="#8A8A8A">center</text>
<rect x="328" y="108" width="128" height="128" fill="#1C1C1C"/>
<g transform="translate(328,108) scale(0.6400)"><path d="M50 50C50 22.3858 72.3858 0 100 0C127.614 0 150 22.3858 150 50V150C150 177.614 127.614 200 100 200C72.3858 200 50 177.614 50 150V50Z" fill="#D63A8C"/>
  <circle cx="99.9998" cy="146.333" r="33.3333" fill="#1C1C1C"/></g>
<text x="328" y="249" font-family="Helvetica,Arial,sans-serif" font-size="10" fill="#EDE6D6">float-05</text>
<text x="328" y="261" font-family="Helvetica,Arial,sans-serif" font-size="9" fill="#8A8A8A">neutral</text>
<rect x="468" y="108" width="128" height="128" fill="#1C1C1C"/>
<g transform="translate(468,108) scale(0.6400)"><path d="M50 50C50 22.3858 72.3858 0 100 0C127.614 0 150 22.3858 150 50V150C150 177.614 127.614 200 100 200C72.3858 200 50 177.614 50 150V50Z" fill="#D63A8C"/>
  <circle cx="99.9998" cy="100" r="33.3333" fill="#1C1C1C"/></g>
<text x="468" y="249" font-family="Helvetica,Arial,sans-serif" font-size="10" fill="#EDE6D6">float-07</text>
<text x="468" y="261" font-family="Helvetica,Arial,sans-serif" font-size="9" fill="#8A8A8A">neutral</text>
<rect x="608" y="108" width="128" height="128" fill="#1C1C1C"/>
<g transform="translate(608,108) scale(0.6400)"><ellipse cx="100" cy="100" rx="100" ry="50" transform="rotate(90 100 100)" fill="#D63A8C"/>
  <circle cx="99.9998" cy="100" r="33.3333" fill="#1C1C1C"/></g>
<text x="608" y="249" font-family="Helvetica,Arial,sans-serif" font-size="10" fill="#EDE6D6">float-04</text>
<text x="608" y="261" font-family="Helvetica,Arial,sans-serif" font-size="9" fill="#8A8A8A">neutral</text>
<rect x="748" y="108" width="128" height="128" fill="#1C1C1C"/>
<g transform="translate(748,108) scale(0.6400)"><ellipse cx="100" cy="100" rx="75" ry="50" transform="rotate(90 100 100)" fill="#D63A8C"/></g>
<text x="748" y="249" font-family="Helvetica,Arial,sans-serif" font-size="10" fill="#EDE6D6">float-02</text>
<text x="748" y="261" font-family="Helvetica,Arial,sans-serif" font-size="9" fill="#8A8A8A">center</text>
<rect x="888" y="108" width="128" height="128" fill="#1C1C1C"/>
<g transform="translate(888,108) scale(0.6400)"><path d="M133 116.667H166.333C166.333 79.848 136.485 50 99.6667 50C62.848 50 33 79.848 33 116.667H66.3333C66.3333 135.077 81.256 150 99.6667 150C118.077 150 133 135.077 133 116.667Z" fill="#D63A8C"/></g>
<text x="888" y="249" font-family="Helvetica,Arial,sans-serif" font-size="10" fill="#EDE6D6">float-01</text>
<text x="888" y="261" font-family="Helvetica,Arial,sans-serif" font-size="9" fill="#8A8A8A">center</text>
<rect x="1028" y="108" width="128" height="128" fill="#1C1C1C"/>
<g transform="translate(1028,108) scale(0.6400)"><ellipse cx="100" cy="100" rx="75" ry="50" transform="rotate(90 100 100)" fill="#D63A8C"/>
  <circle cx="99.9998" cy="120" r="33.3333" fill="#1C1C1C"/></g>
<text x="1028" y="249" font-family="Helvetica,Arial,sans-serif" font-size="10" fill="#EDE6D6">float-08</text>
<text x="1028" y="261" font-family="Helvetica,Arial,sans-serif" font-size="9" fill="#8A8A8A">center</text>
<text x="48" y="284" font-family="Helvetica,Arial,sans-serif" font-size="18" font-weight="bold" fill="#FF4F00">joint · 8</text>
<rect x="48" y="300" width="128" height="128" fill="#1C1C1C"/>
<g transform="translate(48,300) scale(0.6400)"><path d="M200 0L0 200L0 0L200 0Z" fill="#D63A8C"/>
  <path d="M50 200L200 50L200 200L50 200Z" fill="#D63A8C"/></g>
<text x="48" y="441" font-family="Helvetica,Arial,sans-serif" font-size="10" fill="#EDE6D6">joint-02</text>
<text x="48" y="453" font-family="Helvetica,Arial,sans-serif" font-size="9" fill="#8A8A8A">outward</text>
<rect x="188" y="300" width="128" height="128" fill="#1C1C1C"/>
<g transform="translate(188,300) scale(0.6400)"><path d="M200 0L0 200L0 0L200 0Z" fill="#D63A8C"/>
  <path d="M150.05 200 C105.549 200 83.2634 146.197 114.73 114.73 C146.197 83.2634 200 105.549 200 150.05 L200 200 L150.05 200 Z" fill="#D63A8C"/></g>
<text x="188" y="441" font-family="Helvetica,Arial,sans-serif" font-size="10" fill="#EDE6D6">joint-03</text>
<text x="188" y="453" font-family="Helvetica,Arial,sans-serif" font-size="9" fill="#8A8A8A">outward</text>
<rect x="328" y="300" width="128" height="128" fill="#1C1C1C"/>
<g transform="translate(328,300) scale(0.6400)"><path d="M200 0L0 200L0 0L200 0Z" fill="#D63A8C"/>
  <path d="M200 100 L100 200 C100 144.772 144.772 100 200 100 Z" fill="#D63A8C"/>
  <path d="M100 200L200 100L200 200L100 200Z" fill="#D63A8C"/></g>
<text x="328" y="441" font-family="Helvetica,Arial,sans-serif" font-size="10" fill="#EDE6D6">joint-07</text>
<text x="328" y="453" font-family="Helvetica,Arial,sans-serif" font-size="9" fill="#8A8A8A">outward</text>
<rect x="468" y="300" width="128" height="128" fill="#1C1C1C"/>
<g transform="translate(468,300) scale(0.6400)"><path d="M200 0L0 200L0 0L200 0Z" fill="#D63A8C"/>
  <path d="M100 200L200 100L200 200L100 200Z" fill="#D63A8C"/></g>
<text x="468" y="441" font-family="Helvetica,Arial,sans-serif" font-size="10" fill="#EDE6D6">joint-04</text>
<text x="468" y="453" font-family="Helvetica,Arial,sans-serif" font-size="9" fill="#8A8A8A">outward</text>
<rect x="608" y="300" width="128" height="128" fill="#1C1C1C"/>
<g transform="translate(608,300) scale(0.6400)"><path d="M200 0L196.918 1.6748C114.352 46.5417 46.5417 114.352 1.6748 196.918L0 200L0 0L200 0Z" fill="#D63A8C"/>
  <path d="M69.5147 199.167C54.8302 122.315 122.662 54.9099 200 69.502L69.5147 199.167Z" fill="#D63A8C"/></g>
<text x="608" y="441" font-family="Helvetica,Arial,sans-serif" font-size="10" fill="#EDE6D6">joint-05</text>
<text x="608" y="453" font-family="Helvetica,Arial,sans-serif" font-size="9" fill="#8A8A8A">outward</text>
<rect x="748" y="300" width="128" height="128" fill="#1C1C1C"/>
<g transform="translate(748,300) scale(0.6400)"><path d="M200 0L200 50L0 100L0 0L200 0Z" fill="#D63A8C"/>
  <path d="M0 200L200 150L200 200L0 200Z" fill="#D63A8C"/></g>
<text x="748" y="441" font-family="Helvetica,Arial,sans-serif" font-size="10" fill="#EDE6D6">joint-01</text>
<text x="748" y="453" font-family="Helvetica,Arial,sans-serif" font-size="9" fill="#8A8A8A">up</text>
<rect x="888" y="300" width="128" height="128" fill="#1C1C1C"/>
<g transform="translate(888,300) scale(0.6400)"><path d="M100 0L100 100L0 100L0 0L100 0Z" fill="#D63A8C"/>
  <path d="M200 100L200 200L100 200L100 100L200 100Z" fill="#D63A8C"/></g>
<text x="888" y="441" font-family="Helvetica,Arial,sans-serif" font-size="10" fill="#EDE6D6">joint-08</text>
<text x="888" y="453" font-family="Helvetica,Arial,sans-serif" font-size="9" fill="#8A8A8A">outward</text>
<rect x="1028" y="300" width="128" height="128" fill="#1C1C1C"/>
<g transform="translate(1028,300) scale(0.6400)"><path d="M100 0L0 100L0 0L100 0Z" fill="#D63A8C"/>
  <path d="M100 200L200 100L200 200L100 200Z" fill="#D63A8C"/></g>
<text x="1028" y="441" font-family="Helvetica,Arial,sans-serif" font-size="10" fill="#EDE6D6">joint-06</text>
<text x="1028" y="453" font-family="Helvetica,Arial,sans-serif" font-size="9" fill="#8A8A8A">neutral</text>
</svg>
