<svg xmlns="http://www.w3.org/2000/svg" width="1624" height="524" viewBox="0 0 1624 524">
<rect width="1624" height="524" fill="#121212"/><text x="48" y="46" font-family="Helvetica,Arial,sans-serif" font-size="30" font-weight="bold" fill="#EDE6D6" letter-spacing="1">FAI TILE LIBRARY</text><text x="48" y="70" font-family="Helvetica,Arial,sans-serif" font-size="13" fill="#8A8A8A">18 tiles · 2 families · label = id / dominant_direction</text>
<text x="48" y="92" font-family="Helvetica,Arial,sans-serif" font-size="18" font-weight="bold" fill="#FF4F00">wave · 8</text>
<rect x="48" y="108" width="128" height="128" fill="#1C1C1C"/>
<g transform="translate(48,108) scale(0.6400)"><path d="M196.3723,103.3443 L187.5787,104.9057 L178.8975,105.4895 L170.3767,105.1437 L162.0644,103.9164 L154.0086,101.8556 L146.2575,99.0095 L138.8591,95.4261 L131.8615,91.1535 L125.3128,86.2398 L119.261,80.733 L113.7543,74.6813 L108.8407,68.1327 L104.5683,61.1353 L100.9852,53.7372 L98.1394,45.9864 L96.0791,37.9311 L94.8523,29.6193 L94.5071,21.0991 L95.0916,12.4186 L96.6539,3.6259 L97.7134,0 L0,0 L0,16.6667 L0,33.3333 L0,50 L0,66.6667 L0,83.3333 L0,100 L0,116.6667 L0,133.3333 L0,150 L0,166.6667 L0,183.3333 L0,200 L16.6667,200 L33.3333,200 L50,200 L66.6667,200 L83.3333,200 L100,200 L116.6667,200 L133.3333,200 L150,200 L166.6667,200 L183.3333,200 L200,200 L200,102.2847 Z" fill="#2EA84F"/></g>
<text x="48" y="249" font-family="Helvetica,Arial,sans-serif" font-size="10" fill="#EDE6D6">wave-06</text>
<text x="48" y="261" font-family="Helvetica,Arial,sans-serif" font-size="9" fill="#8A8A8A">outward</text>
<rect x="188" y="108" width="128" height="128" fill="#1C1C1C"/>
<g transform="translate(188,108) scale(0.6400)"><path d="M164.256 27.6135C155.966 50.9277 129.333 61.9603 106.979 51.3361C71.4878 34.4669 34.4629 71.4918 51.3361 106.979C61.9603 129.329 50.9277 155.962 27.6135 164.256C10.4602 170.357 1.257 184.868 0 200H200V0C184.868 1.261 170.357 10.4602 164.256 27.6135Z" fill="#2EA84F"/></g>
<text x="188" y="249" font-family="Helvetica,Arial,sans-serif" font-size="10" fill="#EDE6D6">wave-02</text>
<text x="188" y="261" font-family="Helvetica,Arial,sans-serif" font-size="9" fill="#8A8A8A">outward</text>
<rect x="328" y="108" width="128" height="128" fill="#1C1C1C"/>
<g transform="translate(328,108) scale(0.6400)"><path fill-rule="evenodd" clip-rule="evenodd" d="M154.082 79.1951C166.139 89.9719 177.338 99.9825 199.941 100C177.338 100.017 166.139 110.028 154.082 120.805C140.012 133.381 124.776 147 88.889 147C36.9794 147 2.1641 184.88 0.2392 200L0.0002 200L0.0002 100L0.0002 0L0.2393 0C2.1642 15.12 36.9794 53.0001 88.8891 53.0001C124.776 53.0001 140.012 66.6193 154.082 79.1951Z" fill="#2EA84F"/></g>
<text x="328" y="249" font-family="Helvetica,Arial,sans-serif" font-size="10" fill="#EDE6D6">wave-04</text>
<text x="328" y="261" font-family="Helvetica,Arial,sans-serif" font-size="9" fill="#8A8A8A">left</text>
<rect x="468" y="108" width="128" height="128" fill="#1C1C1C"/>
<g transform="translate(468,108) scale(0.6400)"><path d="M164.284 172.252C156 148.956 129.388 137.932 107.052 148.548C71.588 165.404 34.592 128.408 51.452 92.948C62.068 70.616 51.044 44.004 27.748 35.716C10.608 29.62 1.412 15.12 0.156 0L0 0L0 200L200 200L200 199.844C184.88 198.584 170.38 189.392 164.284 172.252Z" fill="#2EA84F"/></g>
<text x="468" y="249" font-family="Helvetica,Arial,sans-serif" font-size="10" fill="#EDE6D6">wave-01</text>
<text x="468" y="261" font-family="Helvetica,Arial,sans-serif" font-size="9" fill="#8A8A8A">left</text>
<rect x="608" y="108" width="128" height="128" fill="#1C1C1C"/>
<g transform="translate(608,108) scale(0.6400)"><path d="M99.242,194.769 L102.904,185.896 L102.904,185.896 L105.3339,180.2717 L107.3212,174.5778 L108.8738,168.834 L110,163.06 L110.708,157.2752 L111.0058,151.4994 L110.9015,145.7521 L110.4033,140.053 L109.5193,134.4218 L108.2577,128.8779 L106.6265,123.4411 L104.634,118.131 L102.2882,112.9672 L99.5973,107.9692 L96.5695,103.1569 L93.2127,98.5496 L89.5353,94.1672 L85.5452,90.0291 L81.2508,86.1551 L76.6599,82.5647 L71.7809,79.2776 L66.6218,76.3133 L61.1908,73.6916 L55.496,71.432 L55.496,71.432 L51.2937,69.8216 L47.257,68.0428 L43.3857,66.1025 L39.68,64.0074 L36.1397,61.7642 L32.7649,59.3798 L29.5556,56.8607 L26.5117,54.2139 L23.6333,51.4461 L20.9204,48.564 L18.373,45.5744 L15.991,42.484 L13.7745,39.2996 L11.7234,36.028 L9.8378,32.6759 L8.1176,29.2501 L6.5629,25.7573 L5.1736,22.2043 L3.9498,18.5978 L2.8914,14.9446 L1.9984,11.2515 L1.2709,7.5252 L0.7087,3.7724 L0.312,0 L0.312,0 L0.299,0 L0.286,0 L0.273,0 L0.26,0 L0.247,0 L0.234,0 L0.221,0 L0.208,0 L0.195,0 L0.182,0 L0.169,0 L0.156,0 L0.143,0 L0.13,0 L0.117,0 L0.104,0 L0.091,0 L0.078,0 L0.065,0 L0.052,0 L0.039,0 L0.026,0 L0.013,0 L0,0 L0,0 L0,16.6667 L0,33.3333 L0,50 L0,66.6667 L0,83.3333 L0,100 L0,116.6667 L0,133.3333 L0,150 L0,166.6667 L0,183.3333 L0,200 L97.7134,200 Z" fill="#2EA84F"/></g>
<text x="608" y="249" font-family="Helvetica,Arial,sans-serif" font-size="10" fill="#EDE6D6">wave-05</text>
<text x="608" y="261" font-family="Helvetica,Arial,sans-serif" font-size="9" fill="#8A8A8A">left</text>
<rect x="748" y="108" width="128" height="128" fill="#1C1C1C"/>
<g transform="translate(748,108) scale(0.6400)"><path d="M126.3094,138.8092 L123.6885,133.3782 L120.725,128.2191 L117.4386,123.3401 L113.8489,118.7492 L109.9754,114.4548 L105.8378,110.4647 L101.4557,106.7873 L96.8488,103.4305 L92.0366,100.4027 L87.0388,97.7118 L81.875,95.366 L76.5648,93.3735 L71.1279,91.7423 L65.5839,90.4807 L59.9523,89.5967 L54.2528,89.0985 L48.5051,88.9942 L42.7288,89.292 L36.9434,90 L31.1686,91.1262 L25.424,92.6788 L19.7293,94.6661 L14.104,97.096 L14.104,97.096 L5.2301,100.7571 L0,102.2847 L0,200 L16.6667,200 L33.3333,200 L50,200 L66.6667,200 L83.3333,200 L100,200 L116.6667,200 L133.3333,200 L150,200 L166.6667,200 L183.3333,200 L200,200 L200,199.987 L200,199.974 L200,199.961 L200,199.948 L200,199.935 L200,199.922 L200,199.909 L200,199.896 L200,199.883 L200,199.87 L200,199.857 L200,199.844 L200,199.831 L200,199.818 L200,199.805 L200,199.792 L200,199.779 L200,199.766 L200,199.753 L200,199.74 L200,199.727 L200,199.714 L200,199.701 L200,199.688 L196.2276,199.2904 L192.4748,198.7275 L188.7485,197.9993 L185.0554,197.1059 L181.4022,196.0471 L177.7957,194.823 L174.2427,193.4336 L170.7499,191.8788 L167.3241,190.1587 L163.972,188.2732 L160.7004,186.2223 L157.516,184.006 L154.4256,181.6243 L151.436,179.0771 L148.5539,176.3646 L145.7861,173.4865 L143.1393,170.443 L140.6202,167.234 L138.2358,163.8595 L135.9926,160.3195 L133.8975,156.6139 L131.9572,152.7429 L130.1784,148.7062 L128.568,144.504 Z" fill="#2EA84F"/></g>
<text x="748" y="249" font-family="Helvetica,Arial,sans-serif" font-size="10" fill="#EDE6D6">wave-07</text>
<text x="748" y="261" font-family="Helvetica,Arial,sans-serif" font-size="9" fill="#8A8A8A">left</text>
<rect x="888" y="108" width="128" height="128" fill="#1C1C1C"/>
<g transform="translate(888,108) scale(0.6400)"><path d="M90.0022,0.104 L90.0174,0.3236 L90.0586,0.6736 L90.1389,1.1409 L90.2713,1.7127 L90.4688,2.3757 L90.7444,3.117 L91.1111,3.9234 L91.582,4.7821 L92.1701,5.6799 L92.8885,6.6038 L93.75,7.5407 L94.7678,8.4776 L95.9549,9.4015 L97.3242,10.2993 L98.8889,11.158 L100.6619,11.9645 L102.6562,12.7058 L104.885,13.3688 L107.3611,13.9405 L110.0977,14.4079 L113.1076,14.7579 L116.4041,14.9774 L120,15.0535 L120,15.0535 L122.9214,15.1136 L125.9901,15.1778 L129.1821,15.2488 L132.4732,15.3287 L135.8392,15.42 L139.2559,15.5252 L142.6993,15.6465 L146.1451,15.7864 L149.5692,15.9473 L152.9475,16.1315 L156.2558,16.3415 L159.4699,16.5796 L162.5657,16.8483 L165.519,17.1499 L168.3057,17.4868 L170.9016,17.8615 L173.2825,18.2762 L175.4244,18.7334 L177.303,19.2356 L178.8942,19.785 L180.1739,20.384 L181.1179,21.0351 L181.7019,21.7407 L181.902,22.5031 L181.902,22.5031 L181.8174,23.3854 L181.5669,24.1882 L181.1553,24.9156 L180.5875,25.5717 L179.8684,26.1603 L179.0027,26.6856 L177.9955,27.1516 L176.8514,27.5623 L175.5755,27.9216 L174.1725,28.2337 L172.6474,28.5026 L171.0049,28.7322 L169.2499,28.9266 L167.3874,29.0898 L165.4221,29.2258 L163.3589,29.3386 L161.2027,29.4323 L158.9583,29.5109 L156.6307,29.5783 L154.2246,29.6387 L151.7449,29.696 L149.1965,29.7543 L146.5842,29.8175 L143.913,29.8897 L143.913,29.8897 L140.7137,29.8908 L137.4975,29.8984 L134.278,29.919 L131.0687,29.9591 L127.8834,30.0252 L124.7355,30.1239 L121.6387,30.2616 L118.6067,30.4449 L115.6529,30.6802 L112.7911,30.974 L110.0349,31.333 L107.3978,31.7635 L104.8934,32.272 L102.5354,32.8652 L100.3374,33.5494 L98.313,34.3313 L96.4758,35.2172 L94.8394,36.2137 L93.4174,37.3274 L92.2234,38.5647 L91.2711,39.9321 L90.574,41.4361 L90.1458,43.0833 L90,44.8801 L90.1342,46.6769 L90.5289,48.3241 L91.1726,49.8281 L92.0537,51.1955 L93.1605,52.4328 L94.4814,53.5465 L96.0048,54.543 L97.719,55.429 L99.6125,56.2108 L101.6736,56.8951 L103.8907,57.4882 L106.2521,57.9968 L108.7463,58.4273 L111.3617,58.7862 L114.0866,59.0801 L116.9093,59.3154 L119.8184,59.4987 L122.802,59.6364 L125.8488,59.7351 L128.9469,59.8012 L132.0848,59.8413 L135.2508,59.8619 L138.4335,59.8695 L141.621,59.8706 L141.621,59.8706 L144.4329,59.979 L147.1857,60.0744 L149.8741,60.1646 L152.4926,60.2576 L155.0359,60.361 L157.4986,60.4827 L159.8753,60.6307 L162.1607,60.8127 L164.3492,61.0365 L166.4356,61.3099 L168.4145,61.6409 L170.2804,62.0373 L172.028,62.5068 L173.6519,63.0573 L175.1467,63.6967 L176.507,64.4327 L177.7275,65.2733 L178.8027,66.2262 L179.7272,67.2994 L180.4958,68.5005 L181.1029,69.8374 L181.5433,71.3181 L181.8114,72.9503 L181.902,74.7418 L181.902,74.7418 L181.7967,76.5382 L181.4853,78.1843 L180.9745,79.6867 L180.2712,81.0519 L179.382,82.2866 L178.3137,83.3974 L177.0731,84.3908 L175.6669,85.2736 L174.102,86.0522 L172.3849,86.7334 L170.5226,87.3236 L168.5217,87.8296 L166.3891,88.2579 L164.1314,88.6152 L161.7555,88.9079 L159.2681,89.1429 L156.6759,89.3265 L153.9857,89.4656 L151.2043,89.5666 L148.3383,89.6361 L145.3947,89.6809 L142.3801,89.7074 L139.3013,89.7224 L136.165,89.7323 L136.165,89.7323 L133.005,89.7569 L129.902,89.8332 L126.8629,89.9647 L123.8947,90.1549 L121.0041,90.4075 L118.1981,90.726 L115.4836,91.1139 L112.8674,91.5749 L110.3564,92.1124 L107.9576,92.73 L105.6777,93.4314 L103.5238,94.22 L101.5025,95.0995 L99.6209,96.0733 L97.8859,97.1451 L96.3043,98.3184 L94.8829,99.5968 L93.6287,100.9839 L92.5486,102.4831 L91.6495,104.0981 L90.9382,105.8324 L90.4216,107.6897 L90.1065,109.6733 L90,111.787 L90,111.787 L90.1053,113.9 L90.4169,115.8821 L90.9278,117.737 L91.6314,119.4682 L92.5209,121.0797 L93.5894,122.5749 L94.8304,123.9578 L96.2369,125.2319 L97.8022,126.4009 L99.5195,127.4686 L101.3821,128.4386 L103.3833,129.3148 L105.5161,130.1006 L107.774,130.8 L110.15,131.4165 L112.6375,131.9538 L115.2296,132.4157 L117.9197,132.8059 L120.7009,133.1281 L123.5664,133.3859 L126.5096,133.5831 L129.5236,133.7234 L132.6016,133.8105 L135.737,133.848 L135.737,133.848 L135.7548,133.848 L135.7727,133.848 L135.7905,133.848 L135.8083,133.848 L135.8262,133.848 L135.844,133.848 L135.8618,133.848 L135.8797,133.848 L135.8975,133.848 L135.9153,133.848 L135.9332,133.848 L135.951,133.848 L135.9688,133.848 L135.9867,133.848 L136.0045,133.848 L136.0223,133.848 L136.0402,133.848 L136.058,133.848 L136.0758,133.848 L136.0937,133.848 L136.1115,133.848 L136.1293,133.848 L136.1472,133.848 L136.165,133.848 L139.3013,133.9121 L142.3801,134.0743 L145.3947,134.3312 L148.3383,134.6798 L151.2043,135.1166 L153.9857,135.6386 L156.6759,136.2425 L159.2681,136.925 L161.7555,137.683 L164.1314,138.5131 L166.3891,139.4121 L168.5217,140.3769 L170.5226,141.4041 L172.3849,142.4906 L174.102,143.633 L175.6669,144.8283 L177.0731,146.0731 L178.3137,147.3642 L179.382,148.6983 L180.2712,150.0723 L180.9745,151.4829 L181.4853,152.9269 L181.7967,154.401 L181.902,155.902 L181.902,155.902 L181.7967,157.4031 L181.4853,158.8773 L180.9745,160.3214 L180.2712,161.732 L179.382,163.1061 L178.3137,164.4403 L177.0731,165.7314 L175.6669,166.9762 L174.102,168.1714 L172.3849,169.3139 L170.5226,170.4004 L168.5217,171.4276 L166.3891,172.3924 L164.1314,173.2914 L161.7555,174.1215 L159.2681,174.8795 L156.6759,175.562 L153.9857,176.1659 L151.2043,176.688 L148.3383,177.1249 L145.3947,177.4735 L142.3801,177.7305 L139.3013,177.8928 L136.165,177.957 L136.165,177.957 L136.1472,177.957 L136.1293,177.957 L136.1115,177.957 L136.0937,177.957 L136.0758,177.957 L136.058,177.957 L136.0402,177.957 L136.0223,177.957 L136.0045,177.957 L135.9867,177.957 L135.9688,177.957 L135.951,177.957 L135.9332,177.957 L135.9153,177.957 L135.8975,177.957 L135.8797,177.957 L135.8618,177.957 L135.844,177.957 L135.8262,177.957 L135.8083,177.957 L135.7905,177.957 L135.7727,177.957 L135.7548,177.957 L135.737,177.957 L132.6016,178.0207 L129.5236,178.1819 L126.5096,178.4373 L123.5664,178.7838 L120.7009,179.2183 L117.9197,179.7377 L115.2296,180.3387 L112.6375,181.0183 L110.15,181.7732 L107.774,182.6005 L105.5161,183.4969 L103.3833,184.4592 L101.3821,185.4845 L99.5195,186.5694 L97.8022,187.7108 L96.2369,188.9057 L94.8304,190.1509 L93.5894,191.4432 L92.5209,192.7795 L91.6314,194.1567 L90.9278,195.5715 L90.4169,197.021 L90.1053,198.5018 L90.0008,200 L200,200 L200,0 L192.7346,0 L186.1066,0 L180.0869,0 L174.6463,0 L169.7555,0 L165.3855,0 L161.507,0 L158.0909,0 L155.1078,0 L152.5288,0 L150.3245,0 L148.4659,0 L146.9236,0 L145.6686,0 L144.6716,0 L143.9035,0 L143.335,0 L142.937,0 L142.6804,0 L142.5358,0 L142.4742,0 L142.4663,0 L142.483,0 L142.495,0 L142.2134,0.0021 L141.8883,0.0042 L141.5238,0.0061 L141.1237,0.008 L140.6919,0.0098 L140.2323,0.0115 L139.7489,0.0131 L139.2455,0.0146 L138.7261,0.0161 L138.1945,0.0175 L137.6547,0.0188 L137.1106,0.02 L136.5661,0.0211 L136.0251,0.0222 L135.4915,0.0231 L134.9691,0.024 L134.4621,0.0248 L133.9741,0.0255 L133.5092,0.0261 L133.0712,0.0266 L132.6641,0.0271 L132.2918,0.0275 L131.9581,0.0277 L131.667,0.0279 L131.667,0.0279 L128.5523,0.032 L125.5337,0.0353 L122.6145,0.038 L119.7979,0.0401 L117.0872,0.0417 L114.4856,0.0427 L111.9964,0.0433 L109.6227,0.0435 L107.3678,0.0433 L105.2349,0.0428 L103.2273,0.0421 L101.3482,0.0411 L99.6009,0.0399 L97.9885,0.0386 L96.5144,0.0372 L95.1817,0.0357 L93.9936,0.0343 L92.9535,0.0329 L92.0645,0.0315 L91.3299,0.0304 L90.7529,0.0294 L90.3368,0.0286 L90.0847,0.0281 L90,0.0279 Z " fill="#2EA84F" fill-rule="evenodd" clip-rule="evenodd"/></g>
<text x="888" y="249" font-family="Helvetica,Arial,sans-serif" font-size="10" fill="#EDE6D6">wave-08</text>
<text x="888" y="261" font-family="Helvetica,Arial,sans-serif" font-size="9" fill="#8A8A8A">right</text>
<rect x="1028" y="108" width="128" height="128" fill="#1C1C1C"/>
<g transform="translate(1028,108) scale(0.6400)"><path fill-rule="evenodd" clip-rule="evenodd" d="M100.538 79.1952C108.405 89.9719 115.713 99.9825 130.461 100C115.713 100.017 108.405 110.028 100.538 120.805C91.3581 133.381 81.4163 147 58.0001 147C24.129 147 1.4121 184.88 0.1561 200L0 200L0 100L0.0001 0.0002L0.1561 0.0002C1.4121 15.1202 24.1291 53.0002 58.0001 53.0002C81.4163 53.0002 91.3581 66.6193 100.538 79.1952Z" fill="#2EA84F"/></g>
<text x="1028" y="249" font-family="Helvetica,Arial,sans-serif" font-size="10" fill="#EDE6D6">wave-03</text>
<text x="1028" y="261" font-family="Helvetica,Arial,sans-serif" font-size="9" fill="#8A8A8A">left</text>
<text x="48" y="284" font-family="Helvetica,Arial,sans-serif" font-size="18" font-weight="bold" fill="#FF4F00">curve · 10</text>
<rect x="48" y="300" width="128" height="128" fill="#1C1C1C"/>
<g transform="translate(48,300) scale(0.6400)"><path fill-rule="evenodd" clip-rule="evenodd" d="M200 200C132.395 150.473 132.395 49.5275 200 0L0 0L0 200L200 200Z" fill="#2EA84F"/></g>
<text x="48" y="441" font-family="Helvetica,Arial,sans-serif" font-size="10" fill="#EDE6D6">curve-08</text>
<text x="48" y="453" font-family="Helvetica,Arial,sans-serif" font-size="9" fill="#8A8A8A">outward</text>
<rect x="188" y="300" width="128" height="128" fill="#1C1C1C"/>
<g transform="translate(188,300) scale(0.6400)"><path fill-rule="evenodd" clip-rule="evenodd" d="M0.0281 100L0 200L200 200L200 0L100.028 0.028C100.012 55.256 55.2406 100.016 0.0281 100Z" fill="#2EA84F"/></g>
<text x="188" y="441" font-family="Helvetica,Arial,sans-serif" font-size="10" fill="#EDE6D6">curve-05</text>
<text x="188" y="453" font-family="Helvetica,Arial,sans-serif" font-size="9" fill="#8A8A8A">outward</text>
<rect x="328" y="300" width="128" height="128" fill="#1C1C1C"/>
<g transform="translate(328,300) scale(0.6400)"><path d="M0 150L0 200L200 200L200 0L150 0.0373C150 91.5 75 150 0 150Z" fill="#2EA84F"/></g>
<text x="328" y="441" font-family="Helvetica,Arial,sans-serif" font-size="10" fill="#EDE6D6">curve-06</text>
<text x="328" y="453" font-family="Helvetica,Arial,sans-serif" font-size="9" fill="#8A8A8A">down</text>
<rect x="468" y="300" width="128" height="128" fill="#1C1C1C"/>
<g transform="translate(468,300) scale(0.6400)"><path fill-rule="evenodd" clip-rule="evenodd" d="M0 190L0 200L200 200L200 0L190 0C189.97 104.933 104.904 190.03 0 190Z" fill="#2EA84F"/></g>
<text x="468" y="441" font-family="Helvetica,Arial,sans-serif" font-size="10" fill="#EDE6D6">curve-07</text>
<text x="468" y="453" font-family="Helvetica,Arial,sans-serif" font-size="9" fill="#8A8A8A">right</text>
<rect x="608" y="300" width="128" height="128" fill="#1C1C1C"/>
<g transform="translate(608,300) scale(0.6400)"><path d="M200 0 C144.149 43.2927 80.768 75.8745 13.0589 96.0993 L0 100 L0 0 L200 0 Z" fill="#2EA84F"/></g>
<text x="608" y="441" font-family="Helvetica,Arial,sans-serif" font-size="10" fill="#EDE6D6">curve-09</text>
<text x="608" y="453" font-family="Helvetica,Arial,sans-serif" font-size="9" fill="#8A8A8A">up</text>
<rect x="748" y="300" width="128" height="128" fill="#1C1C1C"/>
<g transform="translate(748,300) scale(0.6400)"><path d="M200 0L158.802 14.981C131.366 24.9578 105.224 38.1843 80.9328 54.3781C56.3423 70.7718 30.613 85.3893 3.9409 98.1191L0 100L0 0L200 0Z" fill="#2EA84F"/></g>
<text x="748" y="441" font-family="Helvetica,Arial,sans-serif" font-size="10" fill="#EDE6D6">curve-10</text>
<text x="748" y="453" font-family="Helvetica,Arial,sans-serif" font-size="9" fill="#8A8A8A">up</text>
<rect x="888" y="300" width="128" height="128" fill="#1C1C1C"/>
<g transform="translate(888,300) scale(0.6400)"><path d="M200 0H0V200C0 89.544 89.544 0 200 0Z" fill="#2EA84F"/></g>
<text x="888" y="441" font-family="Helvetica,Arial,sans-serif" font-size="10" fill="#EDE6D6">curve-04</text>
<text x="888" y="453" font-family="Helvetica,Arial,sans-serif" font-size="9" fill="#8A8A8A">left</text>
<rect x="1028" y="300" width="128" height="128" fill="#1C1C1C"/>
<g transform="translate(1028,300) scale(0.6400)"><path d="M150 0H0V150C0 67.158 67.158 0 150 0Z" fill="#2EA84F"/></g>
<text x="1028" y="441" font-family="Helvetica,Arial,sans-serif" font-size="10" fill="#EDE6D6">curve-03</text>
<text x="1028" y="453" font-family="Helvetica,Arial,sans-serif" font-size="9" fill="#8A8A8A">left</text>
<rect x="1168" y="300" width="128" height="128" fill="#1C1C1C"/>
<g transform="translate(1168,300) scale(0.6400)"><path d="M100 0H0V100C0 44.772 44.772 0 100 0Z" fill="#2EA84F"/></g>
<text x="1168" y="441" font-family="Helvetica,Arial,sans-serif" font-size="10" fill="#EDE6D6">curve-02</text>
<text x="1168" y="453" font-family="Helvetica,Arial,sans-serif" font-size="9" fill="#8A8A8A">left</text>
<rect x="1308" y="300" width="128" height="128" fill="#1C1C1C"/>
<g transform="translate(1308,300) scale(0.6400)"><path d="M50 0H0V50C0 22.386 22.386 0 50 0Z" fill="#2EA84F"/></g>
<text x="1308" y="441" font-family="Helvetica,Arial,sans-serif" font-size="10" fill="#EDE6D6">curve-01</text>
<text x="1308" y="453" font-family="Helvetica,Arial,sans-serif" font-size="9" fill="#8A8A8A">left</text>
</svg>
