<?xml version='1.0' encoding='UTF-8'?>
<svg xmlns="http://www.w3.org/2000/svg" version="1.1" width="1920" height="960" viewBox="0 0 1920 960">
<rect x="0.000" y="0.000" width="320.000" height="320.000" fill="#F3F3F3"/>
<g transform="translate(0.000,0.000) scale(1.60000) rotate(270,100,100)"><path d="M125 75L125 125L75 125L75 75L125 75Z" fill="#121212"/></g>
<rect x="320.000" y="0.000" width="320.000" height="320.000" fill="#FFFFFF"/>
<g transform="translate(320.000,0.000) scale(1.60000)"><path d="M200 0 C200 82.8427 132.843 150 50 150 L0 150 L0 0 L200 0 Z" fill="#4997D0"/></g>
<rect x="640.000" y="0.000" width="320.000" height="320.000" fill="#FFFFFF"/>
<g transform="translate(640.000,0.000) scale(1.60000) rotate(90,100,100)"><path d="M200 0L0 200L0 0L200 0Z" fill="#121212"/>
  <path d="M200 100 L100 200 C100 144.772 144.772 100 200 100 Z" fill="#121212"/>
  <path d="M100 200L200 100L200 200L100 200Z" fill="#121212"/></g>
<rect x="960.000" y="0.000" width="320.000" height="320.000" fill="#121212"/>
<g transform="translate(960.000,0.000) scale(1.60000) rotate(270,100,100)"><path d="M200 0L0 200L0 0L200 0Z" fill="#F3F3F3"/>
  <path d="M200 100 L100 200 C100 144.772 144.772 100 200 100 Z" fill="#F3F3F3"/>
  <path d="M100 200L200 100L200 200L100 200Z" fill="#F3F3F3"/></g>
<rect x="1280.000" y="0.000" width="320.000" height="320.000" fill="#FFFFFF"/>
<g transform="translate(1280.000,0.000) scale(1.60000) rotate(90,100,100)"><path d="M200 0 C200 82.8427 132.843 150 50 150 L0 150 L0 0 L200 0 Z" fill="#121212"/></g>
<rect x="1600.000" y="0.000" width="320.000" height="320.000" fill="#D9D9D6"/>
<g transform="translate(1600.000,0.000) scale(1.60000)"><ellipse cx="100" cy="100" rx="75" ry="50" transform="rotate(90 100 100)" fill="#F3F3F3"/></g>
<rect x="0.000" y="320.000" width="320.000" height="320.000" fill="#FFFFFF"/>
<g transform="translate(0.000,320.000) scale(1.60000) rotate(270,100,100)"><ellipse cx="100" cy="100" rx="75" ry="50" transform="rotate(90 100 100)" fill="#4997D0"/></g>
<rect x="320.000" y="320.000" width="320.000" height="320.000" fill="#FFFFFF"/>
<g transform="translate(320.000,320.000) scale(1.60000) rotate(90,100,100)"><path d="M200 0L0 200L0 0L200 0Z" fill="#121212"/>
  <path d="M200 100 L100 200 C100 144.772 144.772 100 200 100 Z" fill="#121212"/>
  <path d="M100 200L200 100L200 200L100 200Z" fill="#121212"/></g>
<rect x="640.000" y="320.000" width="320.000" height="320.000" fill="#FFFFFF"/>
<g transform="translate(640.000,320.000) scale(1.60000) rotate(270,100,100)"><path d="M200 0L0 200L0 0L200 0Z" fill="#4997D0"/>
  <path d="M200 100 L100 200 C100 144.772 144.772 100 200 100 Z" fill="#4997D0"/>
  <path d="M100 200L200 100L200 200L100 200Z" fill="#4997D0"/></g>
<rect x="960.000" y="320.000" width="320.000" height="320.000" fill="#FFFFFF"/>
<g transform="translate(960.000,320.000) scale(1.60000) rotate(180,100,100)"><path d="M200 0L0 200L0 0L200 0Z" fill="#FF4F00"/>
  <path d="M200 100 L100 200 C100 144.772 144.772 100 200 100 Z" fill="#FF4F00"/>
  <path d="M100 200L200 100L200 200L100 200Z" fill="#FF4F00"/></g>
<rect x="1280.000" y="320.000" width="320.000" height="320.000" fill="#FFFFFF"/>
<g transform="translate(1280.000,320.000) scale(1.60000) rotate(180,100,100)"><path d="M200 0 C200 82.8427 132.843 150 50 150 L0 150 L0 0 L200 0 Z" fill="#D9D9D6"/></g>
<rect x="1600.000" y="320.000" width="320.000" height="320.000" fill="#F3F3F3"/>
<g transform="translate(1600.000,320.000) scale(1.60000)"><path d="M200 0 C200 82.8427 132.843 150 50 150 L0 150 L0 0 L200 0 Z" fill="#FFA300"/></g>
<rect x="0.000" y="640.000" width="320.000" height="320.000" fill="#D9D9D6"/>
<g transform="translate(0.000,640.000) scale(1.60000) rotate(270,100,100)"><ellipse cx="100" cy="100" rx="75" ry="50" transform="rotate(90 100 100)" fill="#F3F3F3"/></g>
<rect x="320.000" y="640.000" width="320.000" height="320.000" fill="#FFFFFF"/>
<g transform="translate(320.000,640.000) scale(1.60000)"><path d="M200 0 C200 82.8427 132.843 150 50 150 L0 150 L0 0 L200 0 Z" fill="#4997D0"/></g>
<rect x="640.000" y="640.000" width="320.000" height="320.000" fill="#121212"/>
<g transform="translate(640.000,640.000) scale(1.60000) rotate(90,100,100)"><path d="M200 0 C200 82.8427 132.843 150 50 150 L0 150 L0 0 L200 0 Z" fill="#FFFFFF"/></g>
<rect x="960.000" y="640.000" width="320.000" height="320.000" fill="#F3F3F3"/>
<g transform="translate(960.000,640.000) scale(1.60000) rotate(180,100,100)"><path d="M200 0L0 200L0 0L200 0Z" fill="#FFA300"/>
  <path d="M200 100 L100 200 C100 144.772 144.772 100 200 100 Z" fill="#FFA300"/>
  <path d="M100 200L200 100L200 200L100 200Z" fill="#FFA300"/></g>
<rect x="1280.000" y="640.000" width="320.000" height="320.000" fill="#FFFFFF"/>
<g transform="translate(1280.000,640.000) scale(1.60000) rotate(180,100,100)"><path d="M200 0 C200 82.8427 132.843 150 50 150 L0 150 L0 0 L200 0 Z" fill="#4997D0"/></g>
<rect x="1600.000" y="640.000" width="320.000" height="320.000" fill="#121212"/>
<g transform="translate(1600.000,640.000) scale(1.60000)"><path d="M200 0 C200 27.6142 177.614 50 150 50 L0 50 L0 0 L200 0 Z" fill="#FFFFFF"/></g>
</svg>
