<?xml version='1.0' encoding='UTF-8'?>
<svg xmlns="http://www.w3.org/2000/svg" width="200" height="200" viewBox="0 0 200 200">
<g clip-path="url(#clip0_3_438)">
<rect width="200" height="200" fill="#F3F3F3"/>
<path d="M200 0H0V200C0 89.544 89.544 0 200 0Z" fill="#121212"/>
<path d="M141.42 141.42C105.228 177.616 55.228 200 0 200H200V0C200 55.228 177.616 105.228 141.42 141.42Z" fill="#121212"/>
<path d="M100 58.3333C76.9893 58.3333 58.3335 76.9841 58.3335 100C58.3335 123.016 76.9893 141.667 100 141.667C111.508 141.667 121.925 137.004 129.464 129.464C137.004 121.925 141.667 111.508 141.667 100C141.667 76.9841 123.011 58.3333 100 58.3333Z" fill="#121212"/>
</g>
<defs>
<clipPath id="clip0_3_438">
<rect width="200" height="200" fill="#FFFFFF"/>
</clipPath>
</defs>
</svg>
