<?xml version="1.0" encoding="UTF-8"?>
<svg id="Layer_1" xmlns="http://www.w3.org/2000/svg" version="1.1" viewBox="0 0 200 200">
  <!-- Generator: Adobe Illustrator 30.2.1, SVG Export Plug-In . SVG Version: 2.1.1 Build 1)  -->
  <defs>
    <style>
      .st0 {
        fill: #121212;
      }

      .st1 {
        fill: #f3f3f3;
      }
    </style>
  </defs>
  <path class="st1" d="M179.02,79.99h.98s-.98.02-.98.02l-.98.04-.98.06-.98.08-.98.11-.97.13-.97.16-.96.18-.96.2-.96.23-.95.25-.94.27-.94.3-.93.32-.92.34-.91.36-.9.39-.89.41-.88.43-.88.45-.86.48-.84.49-.84.52-.82.53-.81.56-.8.57-.78.6-.77.61-.75.63-.73.65-.72.67-.7.69-.69.7-.67.72-.65.73-.63.75-.61.77-.6.78-.57.8-.56.81-.53.82-.52.84-.49.84-.48.86-.45.88-.43.88-.41.89-.39.9-.36.91-.34.92-.32.93-.3.94-.27.94-.25.95-.23.96-.2.96-.18.96-.16.97-.13.97-.11.98-.08.98-.06.98-.04.98v.98s0,.98,0,.98l.04.98.06.98.08.98.11.98.13.97.16.97.18.96.2.96.23.96.25.95.27.94.3.94.32.93.34.92.36.91.39.9.41.89.43.88.45.88.48.86.49.84.52.84.53.82.56.81.57.8.6.78.61.77.63.75.65.73.67.72.69.7.7.69.72.67.73.65.75.63.77.61.02.02c-26.35,12-51.7,3.58-72.75-5.01-14.87-6.08-30.68-12.54-49.58-12.54-9.41,0-17.04,7.39-17.04,16.5s7.63,16.5,17.04,16.5c-18.27,0-33.08,14.77-33.08,33V0h180-.98s-.98.05-.98.05l-.98.06-.98.08-.98.11-.97.13-.97.16-.96.18-.96.2-.96.23-.95.25-.94.27-.94.3-.93.32-.92.34-.91.36-.9.39-.89.41-.88.43-.88.45-.86.48-.84.49-.84.52-.82.53-.81.56-.8.57-.78.6-.77.61-.75.63-.73.65-.72.67-.7.69-.69.7-.67.72-.65.73-.63.75-.61.77-.6.78-.57.8-.56.81-.53.82-.52.84-.49.84-.48.86-.45.88-.43.88-.41.89-.39.9-.36.91-.34.92-.32.93-.3.94-.27.94-.25.95-.23.96-.2.96-.18.96-.16.97-.13.97-.11.98-.08.98-.06.98-.04.98v.98s0,.98,0,.98l.04.98.06.98.08.98.11.98.13.97.16.97.18.96.2.96.23.96.25.95.27.94.3.94.32.93.34.92.36.91.39.9.41.89.43.88.45.88.48.86.49.84.52.84.53.82.56.81.57.8.6.78.61.77.63.75.65.73.67.72.69.7.7.69.72.67.73.65.75.63.77.61.78.6.8.57.81.56.82.53.84.52.84.49.86.48.88.45.88.43.89.41.9.39.91.36.92.34.93.32.94.3.94.27.95.25.96.23.96.2.96.18.97.16.97.13.98.11.98.08.98.06.98.04Z"/>
  <path class="st0" d="M200,0v200H0c0-18.23,14.81-33,33.08-33-9.41,0-17.04-7.39-17.04-16.5s7.63-16.5,17.04-16.5c18.9,0,34.71,6.46,49.58,12.54,21.05,8.59,46.4,17.01,72.75,5.01l-.02-.02-.77-.61-.75-.63-.73-.65-.72-.67-.7-.69-.69-.7-.67-.72-.65-.73-.63-.75-.61-.77-.6-.78-.57-.8-.56-.81-.53-.82-.52-.84-.49-.84-.48-.86-.45-.88-.43-.88-.41-.89-.39-.9-.36-.91-.34-.92-.32-.93-.3-.94-.27-.94-.25-.95-.23-.96-.2-.96-.18-.96-.16-.97-.13-.97-.11-.98-.08-.98-.06-.98-.04-.98v-.98s0-.98,0-.98l.04-.98.06-.98.08-.98.11-.98.13-.97.16-.97.18-.96.2-.96.23-.96.25-.95.27-.94.3-.94.32-.93.34-.92.36-.91.39-.9.41-.89.43-.88.45-.88.48-.86.49-.84.52-.84.53-.82.56-.81.57-.8.6-.78.61-.77.63-.75.65-.73.67-.72.69-.7.7-.69.72-.67.73-.65.75-.63.77-.61.78-.6.8-.57.81-.56.82-.53.84-.52.84-.49.86-.48.88-.45.88-.43.89-.41.9-.39.91-.36.92-.34.93-.32.94-.3.94-.27.95-.25.96-.23.96-.2.96-.18.97-.16.97-.13.98-.11.98-.08.98-.06.98-.04h.98s-.98-.02-.98-.02l-.98-.04-.98-.06-.98-.08-.98-.11-.97-.13-.97-.16-.96-.18-.96-.2-.96-.23-.95-.25-.94-.27-.94-.3-.93-.32-.92-.34-.91-.36-.9-.39-.89-.41-.88-.43-.88-.45-.86-.48-.84-.49-.84-.52-.82-.53-.81-.56-.8-.57-.78-.6-.77-.61-.75-.63-.73-.65-.72-.67-.7-.69-.69-.7-.67-.72-.65-.73-.63-.75-.61-.77-.6-.78-.57-.8-.56-.81-.53-.82-.52-.84-.49-.84-.48-.86-.45-.88-.43-.88-.41-.89-.39-.9-.36-.91-.34-.92-.32-.93-.3-.94-.27-.94-.25-.95-.23-.96-.2-.96-.18-.96-.16-.97-.13-.97-.11-.98-.08-.98-.06-.98-.04-.98v-.98s0-.98,0-.98l.04-.98.06-.98.08-.98.11-.98.13-.97.16-.97.18-.96.2-.96.23-.96.25-.95.27-.94.3-.94.32-.93.34-.92.36-.91.39-.9.41-.89.43-.88.45-.88.48-.86.49-.84.52-.84.53-.82.56-.81.57-.8.6-.78.61-.77.63-.75.65-.73.67-.72.69-.7.7-.69.72-.67.73-.65.75-.63.77-.61.78-.6.8-.57.81-.56.82-.53.84-.52.84-.49.86-.48.88-.45.88-.43.89-.41.9-.39.91-.36.92-.34.93-.32.94-.3.94-.27.95-.25.96-.23.96-.2.96-.18.97-.16.97-.13.98-.11.98-.08.98-.06.98-.04h.98s20-.01,20-.01Z"/>
</svg>