<?xml version="1.0" encoding="UTF-8"?>
<svg id="Layer_1" xmlns="http://www.w3.org/2000/svg" version="1.1" viewBox="0 0 200 200">
  <!-- Generator: Adobe Illustrator 30.2.1, SVG Export Plug-In . SVG Version: 2.1.1 Build 1)  -->
  
  <polygon points="160.05 118.04 160.11 117.06 160.19 116.08 160.3 115.1 160.43 114.13 160.59 113.16 160.77 112.2 160.97 111.24 161.2 110.28 161.45 109.33 161.72 108.39 162.02 107.45 162.34 106.52 162.68 105.6 163.04 104.69 163.43 103.79 163.84 102.9 164.27 102.02 164.72 101.14 165.2 100.28 165.69 99.44 166.21 98.6 166.74 97.78 167.3 96.97 167.87 96.17 168.47 95.39 169.08 94.62 169.71 93.87 170.36 93.14 171.03 92.42 171.72 91.72 172.42 91.03 173.14 90.36 173.87 89.71 174.62 89.08 175.39 88.47 176.17 87.87 176.97 87.3 177.78 86.74 178.6 86.21 179.44 85.69 180.28 85.2 181.14 84.72 182.02 84.27 182.9 83.84 183.79 83.43 184.69 83.04 185.6 82.68 186.52 82.34 187.45 82.02 188.39 81.72 189.33 81.45 190.28 81.2 191.24 80.97 192.2 80.77 193.16 80.59 194.13 80.43 195.1 80.3 196.08 80.19 197.06 80.11 198.04 80.05 199.02 80.01 200 80 199.02 79.99 198.04 79.95 197.06 79.89 196.08 79.81 195.1 79.7 194.13 79.57 193.16 79.41 192.2 79.23 191.24 79.03 190.28 78.8 189.33 78.55 188.39 78.28 187.45 77.98 186.52 77.66 185.6 77.32 184.69 76.96 183.79 76.57 182.9 76.16 182.02 75.73 181.14 75.28 180.28 74.8 179.44 74.31 178.6 73.79 177.78 73.26 176.97 72.7 176.17 72.13 175.39 71.53 174.62 70.92 173.87 70.29 173.14 69.64 172.42 68.97 171.72 68.28 171.03 67.58 170.36 66.86 169.71 66.13 169.08 65.38 168.47 64.61 167.87 63.83 167.3 63.03 166.74 62.22 166.21 61.4 165.69 60.56 165.2 59.72 164.72 58.86 164.27 57.98 163.84 57.1 163.43 56.21 163.04 55.31 162.68 54.4 162.34 53.48 162.02 52.55 161.72 51.61 161.45 50.67 161.2 49.72 160.97 48.76 160.77 47.8 160.59 46.84 160.43 45.87 160.3 44.9 160.19 43.92 160.11 42.94 160.05 41.96 160.01 40.98 160 40 160.01 39.02 160.05 38.04 160.11 37.06 160.19 36.08 160.3 35.1 160.43 34.13 160.59 33.16 160.77 32.2 160.97 31.24 161.2 30.28 161.45 29.33 161.72 28.39 162.02 27.45 162.34 26.52 162.68 25.6 163.04 24.69 163.43 23.79 163.84 22.9 164.27 22.02 164.72 21.14 165.2 20.28 165.69 19.44 166.21 18.6 166.74 17.78 167.3 16.97 167.87 16.17 168.47 15.39 169.08 14.62 169.71 13.87 170.36 13.14 171.03 12.42 171.72 11.72 172.42 11.03 173.14 10.36 173.87 9.71 174.62 9.08 175.39 8.47 176.17 7.87 176.97 7.3 177.78 6.74 178.6 6.21 179.44 5.69 180.28 5.2 181.14 4.72 182.02 4.27 182.9 3.84 183.79 3.43 184.69 3.04 185.6 2.68 186.52 2.34 187.45 2.02 188.39 1.72 189.33 1.45 190.28 1.2 191.24 .97 192.2 .77 193.16 .59 194.13 .43 195.1 .3 196.08 .19 197.06 .11 198.04 .05 199.02 .01 200 0 0 0 0 200 .01 199.02 .05 198.04 .11 197.06 .19 196.08 .3 195.1 .43 194.13 .59 193.16 .77 192.2 .97 191.24 1.2 190.28 1.45 189.33 1.72 188.39 2.02 187.45 2.34 186.52 2.68 185.6 3.04 184.69 3.43 183.79 3.84 182.9 4.27 182.02 4.72 181.14 5.2 180.28 5.69 179.44 6.21 178.6 6.74 177.78 7.3 176.97 7.87 176.17 8.47 175.39 9.08 174.62 9.71 173.87 10.36 173.14 11.03 172.42 11.72 171.72 12.42 171.03 13.14 170.36 13.87 169.71 14.62 169.08 15.39 168.47 16.17 167.87 16.97 167.3 17.78 166.74 18.6 166.21 19.44 165.69 20.28 165.2 21.14 164.72 22.02 164.27 22.9 163.84 23.79 163.43 24.69 163.04 25.6 162.68 26.52 162.34 27.45 162.02 28.39 161.72 29.33 161.45 30.28 161.2 31.24 160.97 32.2 160.77 33.16 160.59 34.13 160.43 35.1 160.3 36.08 160.19 37.06 160.11 38.04 160.05 39.02 160.01 40 160 40.98 160.01 41.96 160.05 42.94 160.11 43.92 160.19 44.9 160.3 45.87 160.43 46.84 160.59 47.8 160.77 48.76 160.97 49.72 161.2 50.67 161.45 51.61 161.72 52.55 162.02 53.48 162.34 54.4 162.68 55.31 163.04 56.21 163.43 57.1 163.84 57.98 164.27 58.86 164.72 59.72 165.2 60.56 165.69 61.4 166.21 62.22 166.74 63.03 167.3 63.83 167.87 64.61 168.47 65.38 169.08 66.13 169.71 66.86 170.36 67.58 171.03 68.28 171.72 68.97 172.42 69.64 173.14 70.29 173.87 70.92 174.62 71.53 175.39 72.13 176.17 72.7 176.97 73.26 177.78 73.79 178.6 74.31 179.44 74.8 180.28 75.28 181.14 75.73 182.02 76.16 182.9 76.57 183.79 76.96 184.69 77.32 185.6 77.66 186.52 77.98 187.45 78.28 188.39 78.55 189.33 78.8 190.28 79.03 191.24 79.23 192.2 79.41 193.16 79.57 194.13 79.7 195.1 79.81 196.08 79.89 197.06 79.95 198.04 79.99 199.02 80 200 80.01 199.02 80.05 198.04 80.11 197.06 80.19 196.08 80.3 195.1 80.43 194.13 80.59 193.16 80.77 192.2 80.97 191.24 81.2 190.28 81.45 189.33 81.72 188.39 82.02 187.45 82.34 186.52 82.68 185.6 83.04 184.69 83.43 183.79 83.84 182.9 84.27 182.02 84.72 181.14 85.2 180.28 85.69 179.44 86.21 178.6 86.74 177.78 87.3 176.97 87.87 176.17 88.47 175.39 89.08 174.62 89.71 173.87 90.36 173.14 91.03 172.42 91.72 171.72 92.42 171.03 93.14 170.36 93.87 169.71 94.62 169.08 95.39 168.47 96.17 167.87 96.97 167.3 97.78 166.74 98.6 166.21 99.44 165.69 100.28 165.2 101.14 164.72 102.02 164.27 102.9 163.84 103.79 163.43 104.69 163.04 105.6 162.68 106.52 162.34 107.45 162.02 108.39 161.72 109.33 161.45 110.28 161.2 111.24 160.97 112.2 160.77 113.16 160.59 114.13 160.43 115.1 160.3 116.08 160.19 117.06 160.11 118.04 160.05 119.02 160.01 120 160 120.98 160.01 121.96 160.05 122.94 160.11 123.92 160.19 124.9 160.3 125.87 160.43 126.84 160.59 127.8 160.77 128.76 160.97 129.72 161.2 130.67 161.45 131.61 161.72 132.55 162.02 133.48 162.34 134.4 162.68 135.31 163.04 136.21 163.43 137.1 163.84 137.98 164.27 138.86 164.72 139.72 165.2 140.56 165.69 141.4 166.21 142.22 166.74 143.03 167.3 143.83 167.87 144.61 168.47 145.38 169.08 146.13 169.71 146.86 170.36 147.58 171.03 148.28 171.72 148.97 172.42 149.64 173.14 150.29 173.87 150.92 174.62 151.53 175.39 152.13 176.17 152.7 176.97 153.26 177.78 153.79 178.6 154.31 179.44 154.8 180.28 155.28 181.14 155.73 182.02 156.16 182.9 156.57 183.79 156.96 184.69 157.32 185.6 157.66 186.52 157.98 187.45 158.28 188.39 158.55 189.33 158.8 190.28 159.03 191.24 159.23 192.2 159.41 193.16 159.57 194.13 159.7 195.1 159.81 196.08 159.89 197.06 159.95 198.04 159.99 199.02 160 200 160.01 199.02 160.05 198.04 160.11 197.06 160.19 196.08 160.3 195.1 160.43 194.13 160.59 193.16 160.77 192.2 160.97 191.24 161.2 190.28 161.45 189.33 161.72 188.39 162.02 187.45 162.34 186.52 162.68 185.6 163.04 184.69 163.43 183.79 163.84 182.9 164.27 182.02 164.72 181.14 165.2 180.28 165.69 179.44 166.21 178.6 166.74 177.78 167.3 176.97 167.87 176.17 168.47 175.39 169.08 174.62 169.71 173.87 170.36 173.14 171.03 172.42 171.72 171.72 172.42 171.03 173.14 170.36 173.87 169.71 174.62 169.08 175.39 168.47 176.17 167.87 176.97 167.3 177.78 166.74 178.6 166.21 179.44 165.69 180.28 165.2 181.14 164.72 182.02 164.27 182.9 163.84 183.79 163.43 184.69 163.04 185.6 162.68 186.52 162.34 187.45 162.02 188.39 161.72 189.33 161.45 190.28 161.2 191.24 160.97 192.2 160.77 193.16 160.59 194.13 160.43 195.1 160.3 196.08 160.19 197.06 160.11 198.04 160.05 199.02 160.01 200 160 199.02 159.99 198.04 159.95 197.06 159.89 196.08 159.81 195.1 159.7 194.13 159.57 193.16 159.41 192.2 159.23 191.24 159.03 190.28 158.8 189.33 158.55 188.39 158.28 187.45 157.98 186.52 157.66 185.6 157.32 184.69 156.96 183.79 156.57 182.9 156.16 182.02 155.73 181.14 155.28 180.28 154.8 179.44 154.31 178.6 153.79 177.78 153.26 176.97 152.7 176.17 152.13 175.39 151.53 174.62 150.92 173.87 150.29 173.14 149.64 172.42 148.97 171.72 148.28 171.03 147.58 170.36 146.86 169.71 146.13 169.08 145.38 168.47 144.61 167.87 143.83 167.3 143.03 166.74 142.22 166.21 141.4 165.69 140.56 165.2 139.72 164.72 138.86 164.27 137.98 163.84 137.1 163.43 136.21 163.04 135.31 162.68 134.4 162.34 133.48 162.02 132.55 161.72 131.61 161.45 130.67 161.2 129.72 160.97 128.76 160.77 127.8 160.59 126.84 160.43 125.87 160.3 124.9 160.19 123.92 160.11 122.94 160.05 121.96 160.01 120.98 160 120 160.01 119.02 160.05 118.04" fill="#F3F3F3"/>
  <polygon points="198.04 .05 197.06 .11 196.08 .19 195.1 .3 194.13 .43 193.16 .59 192.2 .77 191.24 .97 190.28 1.2 189.33 1.45 188.39 1.72 187.45 2.02 186.52 2.34 185.6 2.68 184.69 3.04 183.79 3.43 182.9 3.84 182.02 4.27 181.14 4.72 180.28 5.2 179.44 5.69 178.6 6.21 177.78 6.74 176.97 7.3 176.17 7.87 175.39 8.47 174.62 9.08 173.87 9.71 173.14 10.36 172.42 11.03 171.72 11.72 171.03 12.42 170.36 13.14 169.71 13.87 169.08 14.62 168.47 15.39 167.87 16.17 167.3 16.97 166.74 17.78 166.21 18.6 165.69 19.44 165.2 20.28 164.72 21.14 164.27 22.02 163.84 22.9 163.43 23.79 163.04 24.69 162.68 25.6 162.34 26.52 162.02 27.45 161.72 28.39 161.45 29.33 161.2 30.28 160.97 31.24 160.77 32.2 160.59 33.16 160.43 34.13 160.3 35.1 160.19 36.08 160.11 37.06 160.05 38.04 160.01 39.02 160 40 160.01 40.98 160.05 41.96 160.11 42.94 160.19 43.92 160.3 44.9 160.43 45.87 160.59 46.84 160.77 47.8 160.97 48.76 161.2 49.72 161.45 50.67 161.72 51.61 162.02 52.55 162.34 53.48 162.68 54.4 163.04 55.31 163.43 56.21 163.84 57.1 164.27 57.98 164.72 58.86 165.2 59.72 165.69 60.56 166.21 61.4 166.74 62.22 167.3 63.03 167.87 63.83 168.47 64.61 169.08 65.38 169.71 66.13 170.36 66.86 171.03 67.58 171.72 68.28 172.42 68.97 173.14 69.64 173.87 70.29 174.62 70.92 175.39 71.53 176.17 72.13 176.97 72.7 177.78 73.26 178.6 73.79 179.44 74.31 180.28 74.8 181.14 75.28 182.02 75.73 182.9 76.16 183.79 76.57 184.69 76.96 185.6 77.32 186.52 77.66 187.45 77.98 188.39 78.28 189.33 78.55 190.28 78.8 191.24 79.03 192.2 79.23 193.16 79.41 194.13 79.57 195.1 79.7 196.08 79.81 197.06 79.89 198.04 79.95 199.02 79.99 200 80 200 0 199.02 .01 198.04 .05" fill="#121212"/>
  <polygon points="198.04 80.05 197.06 80.11 196.08 80.19 195.1 80.3 194.13 80.43 193.16 80.59 192.2 80.77 191.24 80.97 190.28 81.2 189.33 81.45 188.39 81.72 187.45 82.02 186.52 82.34 185.6 82.68 184.69 83.04 183.79 83.43 182.9 83.84 182.02 84.27 181.14 84.72 180.28 85.2 179.44 85.69 178.6 86.21 177.78 86.74 176.97 87.3 176.17 87.87 175.39 88.47 174.62 89.08 173.87 89.71 173.14 90.36 172.42 91.03 171.72 91.72 171.03 92.42 170.36 93.14 169.71 93.87 169.08 94.62 168.47 95.39 167.87 96.17 167.3 96.97 166.74 97.78 166.21 98.6 165.69 99.44 165.2 100.28 164.72 101.14 164.27 102.02 163.84 102.9 163.43 103.79 163.04 104.69 162.68 105.6 162.34 106.52 162.02 107.45 161.72 108.39 161.45 109.33 161.2 110.28 160.97 111.24 160.77 112.2 160.59 113.16 160.43 114.13 160.3 115.1 160.19 116.08 160.11 117.06 160.05 118.04 160.01 119.02 160 120 160.01 120.98 160.05 121.96 160.11 122.94 160.19 123.92 160.3 124.9 160.43 125.87 160.59 126.84 160.77 127.8 160.97 128.76 161.2 129.72 161.45 130.67 161.72 131.61 162.02 132.55 162.34 133.48 162.68 134.4 163.04 135.31 163.43 136.21 163.84 137.1 164.27 137.98 164.72 138.86 165.2 139.72 165.69 140.56 166.21 141.4 166.74 142.22 167.3 143.03 167.87 143.83 168.47 144.61 169.08 145.38 169.71 146.13 170.36 146.86 171.03 147.58 171.72 148.28 172.42 148.97 173.14 149.64 173.87 150.29 174.62 150.92 175.39 151.53 176.17 152.13 176.97 152.7 177.78 153.26 178.6 153.79 179.44 154.31 180.28 154.8 181.14 155.28 182.02 155.73 182.9 156.16 183.79 156.57 184.69 156.96 185.6 157.32 186.52 157.66 187.45 157.98 188.39 158.28 189.33 158.55 190.28 158.8 191.24 159.03 192.2 159.23 193.16 159.41 194.13 159.57 195.1 159.7 196.08 159.81 197.06 159.89 198.04 159.95 199.02 159.99 200 160 200 80 199.02 80.01 198.04 80.05" fill="#121212"/>
  <polygon points="200 160 200 200 160 200 160.01 199.02 160.05 198.04 160.11 197.06 160.19 196.08 160.3 195.1 160.43 194.13 160.59 193.16 160.77 192.2 160.97 191.24 161.2 190.28 161.45 189.33 161.72 188.39 162.02 187.45 162.34 186.52 162.68 185.6 163.04 184.69 163.43 183.79 163.84 182.9 164.27 182.02 164.72 181.14 165.2 180.28 165.69 179.44 166.21 178.6 166.74 177.78 167.3 176.97 167.87 176.17 168.47 175.39 169.08 174.62 169.71 173.87 170.36 173.14 171.03 172.42 171.72 171.72 172.42 171.03 173.14 170.36 173.87 169.71 174.62 169.08 175.39 168.47 176.17 167.87 176.97 167.3 177.78 166.74 178.6 166.21 179.44 165.69 180.28 165.2 181.14 164.72 182.02 164.27 182.9 163.84 183.79 163.43 184.69 163.04 185.6 162.68 186.52 162.34 187.45 162.02 188.39 161.72 189.33 161.45 190.28 161.2 191.24 160.97 192.2 160.77 193.16 160.59 194.13 160.43 195.1 160.3 196.08 160.19 197.06 160.11 198.04 160.05 199.02 160.01 200 160" fill="#121212"/>
  <polygon points="159.99 199.02 160 200 80 200 80.01 199.02 80.05 198.04 80.11 197.06 80.19 196.08 80.3 195.1 80.43 194.13 80.59 193.16 80.77 192.2 80.97 191.24 81.2 190.28 81.45 189.33 81.72 188.39 82.02 187.45 82.34 186.52 82.68 185.6 83.04 184.69 83.43 183.79 83.84 182.9 84.27 182.02 84.72 181.14 85.2 180.28 85.69 179.44 86.21 178.6 86.74 177.78 87.3 176.97 87.87 176.17 88.47 175.39 89.08 174.62 89.71 173.87 90.36 173.14 91.03 172.42 91.72 171.72 92.42 171.03 93.14 170.36 93.87 169.71 94.62 169.08 95.39 168.47 96.17 167.87 96.97 167.3 97.78 166.74 98.6 166.21 99.44 165.69 100.28 165.2 101.14 164.72 102.02 164.27 102.9 163.84 103.79 163.43 104.69 163.04 105.6 162.68 106.52 162.34 107.45 162.02 108.39 161.72 109.33 161.45 110.28 161.2 111.24 160.97 112.2 160.77 113.16 160.59 114.13 160.43 115.1 160.3 116.08 160.19 117.06 160.11 118.04 160.05 119.02 160.01 120 160 120.98 160.01 121.96 160.05 122.94 160.11 123.92 160.19 124.9 160.3 125.87 160.43 126.84 160.59 127.8 160.77 128.76 160.97 129.72 161.2 130.67 161.45 131.61 161.72 132.55 162.02 133.48 162.34 134.4 162.68 135.31 163.04 136.21 163.43 137.1 163.84 137.98 164.27 138.86 164.72 139.72 165.2 140.56 165.69 141.4 166.21 142.22 166.74 143.03 167.3 143.83 167.87 144.61 168.47 145.38 169.08 146.13 169.71 146.86 170.36 147.58 171.03 148.28 171.72 148.97 172.42 149.64 173.14 150.29 173.87 150.92 174.62 151.53 175.39 152.13 176.17 152.7 176.97 153.26 177.78 153.79 178.6 154.31 179.44 154.8 180.28 155.28 181.14 155.73 182.02 156.16 182.9 156.57 183.79 156.96 184.69 157.32 185.6 157.66 186.52 157.98 187.45 158.28 188.39 158.55 189.33 158.8 190.28 159.03 191.24 159.23 192.2 159.41 193.16 159.57 194.13 159.7 195.1 159.81 196.08 159.89 197.06 159.95 198.04 159.99 199.02" fill="#121212"/>
  <polygon points="79.99 199.02 80 200 0 200 .01 199.02 .05 198.04 .11 197.06 .19 196.08 .3 195.1 .43 194.13 .59 193.16 .77 192.2 .97 191.24 1.2 190.28 1.45 189.33 1.72 188.39 2.02 187.45 2.34 186.52 2.68 185.6 3.04 184.69 3.43 183.79 3.84 182.9 4.27 182.02 4.72 181.14 5.2 180.28 5.69 179.44 6.21 178.6 6.74 177.78 7.3 176.97 7.87 176.17 8.47 175.39 9.08 174.62 9.71 173.87 10.36 173.14 11.03 172.42 11.72 171.72 12.42 171.03 13.14 170.36 13.87 169.71 14.62 169.08 15.39 168.47 16.17 167.87 16.97 167.3 17.78 166.74 18.6 166.21 19.44 165.69 20.28 165.2 21.14 164.72 22.02 164.27 22.9 163.84 23.79 163.43 24.69 163.04 25.6 162.68 26.52 162.34 27.45 162.02 28.39 161.72 29.33 161.45 30.28 161.2 31.24 160.97 32.2 160.77 33.16 160.59 34.13 160.43 35.1 160.3 36.08 160.19 37.06 160.11 38.04 160.05 39.02 160.01 40 160 40.98 160.01 41.96 160.05 42.94 160.11 43.92 160.19 44.9 160.3 45.87 160.43 46.84 160.59 47.8 160.77 48.76 160.97 49.72 161.2 50.67 161.45 51.61 161.72 52.55 162.02 53.48 162.34 54.4 162.68 55.31 163.04 56.21 163.43 57.1 163.84 57.98 164.27 58.86 164.72 59.72 165.2 60.56 165.69 61.4 166.21 62.22 166.74 63.03 167.3 63.83 167.87 64.61 168.47 65.38 169.08 66.13 169.71 66.86 170.36 67.58 171.03 68.28 171.72 68.97 172.42 69.64 173.14 70.29 173.87 70.92 174.62 71.53 175.39 72.13 176.17 72.7 176.97 73.26 177.78 73.79 178.6 74.31 179.44 74.8 180.28 75.28 181.14 75.73 182.02 76.16 182.9 76.57 183.79 76.96 184.69 77.32 185.6 77.66 186.52 77.98 187.45 78.28 188.39 78.55 189.33 78.8 190.28 79.03 191.24 79.23 192.2 79.41 193.16 79.57 194.13 79.7 195.1 79.81 196.08 79.89 197.06 79.95 198.04 79.99 199.02" fill="#121212"/>
</svg>