<?xml version='1.0' encoding='UTF-8'?>
<svg xmlns="http://www.w3.org/2000/svg" width="200" height="200" viewBox="0 0 200 200">
  <rect width="200" height="200" fill="#F3F3F3" x="0" y="0"/>
  <path d="M149 100C149 155.218 139.484 200 127.725 200C121.757 200 116.339 188.34 112.47 169.566C111.844 166.524 106.549 166.41 105.747 169.427C100.779 188.284 93.8046 200 86.0744 200C80.3664 200 75.0627 193.599 70.6901 182.665C69.5225 179.749 64.6845 179.635 63.3033 182.482C57.9386 193.529 51.4522 200 44.4241 200C25.9645 200 11 155.224 11 100C11 44.7763 25.9645 8.74228e-06 44.4241 8.74228e-06C51.4522 8.74228e-06 57.9386 6.47056 63.3033 17.5178C64.6845 20.3649 69.5225 20.2512 70.6901 17.3348C75.0627 6.4011 80.3587 8.74228e-06 86.0744 8.74228e-06C93.797 8.74228e-06 100.772 11.7164 105.747 30.5726C106.541 33.5901 111.837 33.4764 112.47 30.4337C116.347 11.6596 121.765 8.74228e-06 127.725 8.74228e-06C139.484 8.74228e-06 149 44.7763 149 100Z" fill="#121212"/>
  <path d="M183 100C183 155.218 176.502 200 168.5 200C160.498 200 154 155.224 154 100C154 44.7763 160.498 8.74228e-06 168.5 8.74228e-06C176.502 8.74228e-06 183 44.7763 183 100Z" fill="#121212"/>
  <path d="M199.507945,0.230735 L198.533723,0.912982 L197.579504,2.031849 L196.647454,3.572436 L195.73974,5.519845 L194.858531,7.859175 L194.005994,10.575526 L193.184296,13.653999 L192.395605,17.079694 L191.642089,20.837712 L190.925915,24.913153 L190.24925,29.291117 L189.614262,33.956704 L189.023119,38.895015 L188.477988,44.09115 L187.981037,49.53021 L187.534433,55.197294 L187.140344,61.077503 L186.800937,67.155937 L186.51838,73.417697 L186.29484,79.847883 L186.132485,86.431596 L186.033482,93.153934 L186,100 L186,100 L186.033482,106.8461 L186.132485,113.568468 L186.29484,120.152203 L186.51838,126.582407 L186.800937,132.844181 L187.140344,138.922625 L187.534433,144.80284 L187.981037,150.469926 L188.477988,155.908984 L189.023119,161.105116 L189.614262,166.043421 L190.24925,170.709 L190.925915,175.086954 L191.642089,179.162384 L192.395605,182.920391 L193.184296,186.346074 L194.005994,189.424535 L194.858531,192.140875 L195.73974,194.480194 L196.647454,196.427593 L197.579504,197.968172 L198.533723,199.087032 L199.507945,199.769275 L200,199.883714 L200,0.116296 Z" fill="#121212"/>
</svg>
